<svg xmlns="http://www.w3.org/2000/svg" viewBox="0 0 843.96 387.07"><defs><style>.cls-1{font-size:199.43px;fill:#6a4735;font-family:JosefinSansRoman-Bold, Josefin Sans;font-weight:700;}.cls-2{fill:#358c87;}.cls-3{fill:#fdfdfd;}.cls-4{fill:#f18b52;}.cls-5{fill:#3d8f8f;}.cls-6{fill:#ed866e;}.cls-7{fill:#348387;}.cls-8{fill:#ed8b4f;}.cls-9{fill:#438075;}.cls-10{fill:#fbf1f0;}.cls-11{fill:#3da09c;}.cls-12{fill:#d06f6a;}.cls-13{fill:#ed8462;}.cls-14{fill:#d2565a;}.cls-15{fill:#f0f5f4;}.cls-16{fill:#f0f6f2;}.cls-17{fill:#658693;}.cls-18{fill:#53848f;}.cls-19{fill:#688a94;}.cls-20{fill:#df5763;}.cls-21{fill:#ede5ed;}.cls-22{fill:#b34e5e;}</style></defs><g id="Livello_2" data-name="Livello 2"><g id="pagina_iniziale" data-name="pagina iniziale"><text class="cls-1" transform="translate(47.11 169.71)">Vite</text><text class="cls-1" transform="translate(0 340.61)">Parallele</text><path class="cls-2" d="M615.12,211.22c1.67-.11,2.31,1.6,3.63,2.1l.68.44a18.65,18.65,0,0,0,5.17.05c1.82-.15,3.21.48,3.68,2.42a3.65,3.65,0,0,1-1.14,2.29,6.54,6.54,0,0,0-1.58,5.65c1.13,5.22,5.1,7.66,9.53,9.6,2.21,1,4.68,1.17,6.84,2.29.93,1,2.37,2.06,2,3.36-.53,2,.33,3.16,1.4,4.45l-5.78.78a.83.83,0,0,1-1.11-.1,3.77,3.77,0,0,0-1-.48c-8.51-.86-14.13-5.86-18.2-12.89-3.56-6.16-4.12-13-4.13-20Z"/><path class="cls-3" d="M624.91,224.23a3,3,0,0,1,1.93-.46c5.13.06,10.25.2,15.31-.89a3.5,3.5,0,0,1,2.78.55l.17,0c.86.45.38,1.14.3,1.75a3.21,3.21,0,0,1-.79,1.24c-.12,1.74,1.54,1.93,2.46,2.72,2.46,2.12,5.73,3.11,8,5.53a1.38,1.38,0,0,1-2,1.47c-3.79-1.51-7.45-3.29-11.1-5.12-1.33-.71-2.62-1.65-4.25-.78.23.57.88.68,1.24,1.12a29.82,29.82,0,0,0,5.15,3.22c.95.54,2.24,1.07,1.18,2.6-1.34.66-2.39.09-3.37-.79-3.41-.7-6.85-1.44-9.84-3.29-3.39-2.1-6.67-4.44-7.13-8.92Z"/><path class="cls-4" d="M627.86,216.49c2.88-2.28,5.92-1.66,9-.48.82.64,1.64,1.3,2.47,1.94,2.09,1.6,4.45,2.93,5.62,5.48-1.23.17-2.45.36-3.68.54a53.61,53.61,0,0,1-16.34.26C624,220.9,625.79,218.65,627.86,216.49Z"/><path class="cls-5" d="M654.81,235.36c.6-1.08,1.69-.57,2.52-.54-2.33-1-4.49-2-5.7-4.31.23-1.13,1-1.36,2-1.16l10.46,5.32c-.79,2.54-3.32,2.79-5.19,3.89-.94.46-1.91.88-2.81,1.41a27.2,27.2,0,0,1-10.7,3.93c-.77-.94-3.63-.49-2.63-2.12,1.46-2.41-.3-3.62-.86-5.32l3.51.4a3.56,3.56,0,0,1,1.93-1.12c1.48-.23,3-.12,4.46-.25a2.52,2.52,0,0,1,1.3.24c.59-.11,1.27.16,1.74-.39Z"/><path class="cls-6" d="M664.11,234.66l19.65,2.24c.69.08,1.45.11,1.36,1.07-.08.75-.76.78-1.35.78-1.85,0-3.68-.06-5.53-.1-3.48.56-6.86-.12-10.43-.87,4.2,1.2,8.33,1.89,12.1,3.78,1.26,3.27-1.26,1.66-2.12,1.47-6.32-1.41-12.61-3-18.9-4.5,1.28-1.9,3.7-2.27,5.19-3.89Z"/><path class="cls-7" d="M627.88,216.5a2.88,2.88,0,0,0-3.55-1.93c-1.87.26-4,1-5.76-.55a3.56,3.56,0,0,1,2.74-.62,7.49,7.49,0,0,0,5.08-1.61c1.16-1.13.66-2.55.64-3.87,0-1.52.4-2.66,2-3.1,4.26,2.59,6.57,6.52,7.82,11.19-3,.05-6-.81-9,.48Z"/><path class="cls-8" d="M639.6,244.66c-.09,1.83,2.29,1.44,2.91,3.27-2.81-1.23-4.53-.07-6,1.83a8.5,8.5,0,0,1-1.48,1.39,1,1,0,0,1-1.54-.08c-.37-.51.19-.83.44-1.23.62-1,2.21-1.21,2.38-2.77-6.54-2.09-8.91,2.94-12,6.84-.76-.5-.2-3.09-2.3-1.37-1.21,1-1.25-.77-1.65-1.3-.79-1,.44-1.07.91-1.22a22.54,22.54,0,0,0,6.75-3.3c2.4-1.8,4.76-2.82,7.74-1.38.89.44,2.31,1.17,2.72-.79.38,0,.75.07,1.12.1Z"/><path class="cls-9" d="M627.3,212.43c-1.42-1.27-.21-3.46-1.67-4.72-2.2-2.08-4.77-1.54-7.33-1a2.94,2.94,0,0,1-2.63-.69c.89-2.39,2.78-3.37,5.18-3.47a12.47,12.47,0,0,1,8.17,2.33,4.51,4.51,0,0,0-1.24,4c.16,1.13.52,2.46-.48,3.52Z"/><path class="cls-10" d="M679.9,241.56a105.12,105.12,0,0,1-14.52-3.84c0-.3.12-.62.17-.92l12.66,1.85C677.73,240.22,679.27,240.63,679.9,241.56Z"/><path class="cls-11" d="M651.82,230.39c-3.28-.49-5.11-2.87-6.92-5.28.07-.56.13-1.1.2-1.64,3.31,1.29,5.73,3.86,8.53,5.86l-1.81,1.07Z"/><path class="cls-12" d="M618.49,206a7.42,7.42,0,0,0,.14,7.26l-.19.35c-1.54-.19-2.19-1.61-3.32-2.36,0-.6-.09-1.2-.15-1.8a2.9,2.9,0,0,1,.52-2.85c.07-.22.12-.42.19-.63.94,0,1.88,0,2.81,0Z"/><path class="cls-13" d="M615,209.45a9.66,9.66,0,0,1-2.94-3.27l3.46.4a3.73,3.73,0,0,1-.52,2.85Z"/><path class="cls-14" d="M618.56,214a2.77,2.77,0,0,0-.12-.41l.18-.1c1-1.34,3.34.3,4.09-1.74.56-1.4,2.24-2.24,2-4a1.8,1.8,0,0,1,1.43-.66c2,1.45,1,3.51,1.14,5.34A11.42,11.42,0,0,1,618.56,214Z"/><path class="cls-15" d="M647.32,236.22c-3.41-.75-6.08-3-9.11-4.53-.59-.47-1.16-.95-1.69-1.38,1.81-1.76,3.59-1.36,5.37-.1,1.54,1.67,3.73,2.3,5.59,3.44,1.36.84,3.28.58,4.26,2.16-1.36,1.32-2.94.31-4.42.4Z"/><path class="cls-16" d="M651.81,230.41l6.36,4.79c-1.42.05-2.38.11-3.35.15l-.06-.64c-1.92-2-4.74-2.75-6.79-4.55-1.3-1.16-3.37-1.51-3.78-3.59.23-.48.48-1,.71-1.45,2.31,1.76,4.61,3.53,6.92,5.28Z"/><path class="cls-17" d="M642.31,226.13c1.11-.47,1.39.26,1.89.44,2.71,3,6.4,4.61,9.66,6.79.42.28,1.85.07.9,1.34C650.46,232.18,645.88,230.05,642.31,226.13Z"/><path class="cls-18" d="M641.89,230.22l11.21,5.51-1.35.08a15.61,15.61,0,0,1-1.88-.68c-2.78-1.44-6.1-2-8-4.92Z"/><path class="cls-19" d="M647.32,236.19l-1.92.64c-.09-1.24-1.25-1.24-2-1.71-1.75-1.1-3.81-1.77-5.18-3.44,3.36.87,5.93,3.32,9.11,4.53Z"/><path class="cls-20" d="M618.63,213.5c-2.58-2.87-2.62-5.29-.14-7.52,2.68-.53,5.39-1.26,7.67,1.07a1.36,1.36,0,0,1-1.28.7c-.47.45-1,.24-1.45,0a1.84,1.84,0,0,0-2.57.43c-.56.64-.27,1.25.3,1.75a11.22,11.22,0,0,1,2,1.72c.26,1.14.42,2.13-1.34,1.91-1-.13-2.12-.06-3.18-.09Z"/><path class="cls-21" d="M624.88,207.76c.87,2-.65,2.84-1.74,3.93-1.06.31-1.42-.8-2.19-1.09-.77-.88-1-1.95-.13-2.76s1.73-1.56,2.88-.49c.29.48.78.34,1.2.41Z"/><path class="cls-22" d="M620.94,210.62a1.6,1.6,0,0,1-.84-2.74c.87-1,2.15-2.08,3.59-.53-2.44-.2-3.48.78-2.74,3.25Z"/></g></g></svg>