<?xml version="1.0" encoding="UTF-8"?>
<svg id="Layer_2" data-name="Layer 2" xmlns="http://www.w3.org/2000/svg" viewBox="0 0 747.82 504.8">
  <defs>
    <style>
      .cls-1 {
        fill: #e1edec;
      }

      .cls-1, .cls-2, .cls-3, .cls-4, .cls-5, .cls-6, .cls-7, .cls-8, .cls-9, .cls-10, .cls-11, .cls-12, .cls-13, .cls-14, .cls-15, .cls-16, .cls-17, .cls-18, .cls-19, .cls-20, .cls-21, .cls-22, .cls-23, .cls-24, .cls-25, .cls-26, .cls-27, .cls-28, .cls-29, .cls-30, .cls-31, .cls-32, .cls-33, .cls-34, .cls-35, .cls-36, .cls-37, .cls-38, .cls-39, .cls-40, .cls-41, .cls-42, .cls-43, .cls-44, .cls-45, .cls-46, .cls-47, .cls-48, .cls-49, .cls-50, .cls-51, .cls-52, .cls-53, .cls-54, .cls-55, .cls-56, .cls-57, .cls-58, .cls-59, .cls-60, .cls-61, .cls-62, .cls-63, .cls-64, .cls-65, .cls-66 {
        stroke-width: 0px;
      }

      .cls-2 {
        fill: #402a20;
      }

      .cls-3 {
        fill: #3c2217;
      }

      .cls-4 {
        fill: #de9a76;
      }

      .cls-5 {
        fill: #e2eded;
      }

      .cls-6 {
        fill: #888382;
      }

      .cls-7 {
        fill: #996e69;
      }

      .cls-8 {
        fill: #e1eded;
      }

      .cls-9 {
        fill: #ced8db;
      }

      .cls-10 {
        fill: #d5dcd9;
      }

      .cls-11 {
        fill: #d1d7dc;
      }

      .cls-12 {
        fill: #848582;
      }

      .cls-13 {
        fill: #3c241a;
      }

      .cls-14 {
        fill: #3f676d;
      }

      .cls-15 {
        fill: #679a6b;
      }

      .cls-16 {
        fill: #b1c8c5;
      }

      .cls-17 {
        fill: #37231e;
      }

      .cls-18 {
        fill: #da9a79;
      }

      .cls-19 {
        fill: #8e6565;
      }

      .cls-20 {
        fill: #88926f;
      }

      .cls-21 {
        fill: #3e6369;
      }

      .cls-22 {
        fill: #3f686e;
      }

      .cls-23 {
        fill: #e1ebec;
      }

      .cls-24 {
        fill: #3a2117;
      }

      .cls-25 {
        fill: #4b7e6f;
      }

      .cls-26 {
        fill: #8c8379;
      }

      .cls-27 {
        fill: #f9c47f;
      }

      .cls-28 {
        fill: #d0d9da;
      }

      .cls-29 {
        fill: #818886;
      }

      .cls-30 {
        fill: #31201a;
      }

      .cls-31 {
        fill: #c8e0d7;
      }

      .cls-32 {
        fill: #eb7166;
      }

      .cls-33 {
        fill: #808585;
      }

      .cls-34 {
        fill: #8f6865;
      }

      .cls-35 {
        fill: #5f331f;
      }

      .cls-36 {
        fill: #351f17;
      }

      .cls-37 {
        fill: #679c93;
      }

      .cls-38 {
        fill: #db9a76;
      }

      .cls-39 {
        fill: #b5824b;
      }

      .cls-40 {
        fill: #8b8379;
      }

      .cls-41 {
        fill: #311f1c;
      }

      .cls-42 {
        fill: #381f15;
      }

      .cls-43 {
        fill: #e1ecec;
      }

      .cls-44 {
        fill: #4c2a19;
      }

      .cls-45 {
        fill: #2f201d;
      }

      .cls-46 {
        fill: #848482;
      }

      .cls-47 {
        fill: #87857e;
      }

      .cls-48 {
        fill: #83b265;
      }

      .cls-49 {
        fill: #8a857e;
      }

      .cls-50 {
        fill: #679867;
      }

      .cls-51 {
        fill: #589e90;
      }

      .cls-52 {
        fill: #381e16;
      }

      .cls-53 {
        fill: #aba69e;
      }

      .cls-54 {
        fill: #d3dadc;
      }

      .cls-55 {
        fill: #353c53;
      }

      .cls-56 {
        fill: #b6834f;
      }

      .cls-57 {
        fill: #9f6a64;
      }

      .cls-58 {
        fill: #fcfdfd;
      }

      .cls-59 {
        fill: #74a7a3;
      }

      .cls-60 {
        fill: #996a67;
      }

      .cls-61 {
        fill: #35221d;
      }

      .cls-62 {
        fill: #dfebea;
      }

      .cls-63 {
        fill: #301f1c;
      }

      .cls-64 {
        fill: #dfecea;
      }

      .cls-65 {
        fill: #dcd2cb;
      }

      .cls-66 {
        fill: #f2b567;
      }
    </style>
  </defs>
  <g id="illustrazioni">
    <g>
      <path class="cls-39" d="M148.56,417.57c1.45-.72,1.28-2.03,1.28-3.34v-105.3c0-.82.23-1.77-.72-2.34,0-12.84.23-25.69-.14-38.56,1.45-1.12.82-2.73.82-4.11v-124.22c-.22-.5-.39-1.01-.51-1.54-.14-3.71,0-7.4,0-11.12,0-2.03.79-3.06,2.9-3.06,2.35-.33,4.6-1.2,6.56-2.55,9.7-4.5,19.4-8.99,29.1-13.48,12.52-5.75,25.01-11.68,37.6-17.17,7.87-3.5,15.69-7.01,23.49-10.72,12.66-5.84,25.31-11.7,37.95-17.59,4.13-1.92,8.17-3.97,12.4-5.7,2.25-.07,4.43-.79,6.28-2.06,15.04-6.89,30.03-13.87,45.05-20.79l54.39-24.97c1.08-.55,2.35-.55,3.43,0,23.21,10.74,46.44,21.47,69.69,32.18l90.64,41.64c12.68,5.84,25.41,11.68,38.09,17.4l5.56,2.64c3.25-.28,5.65,1.77,8.34,2.99,5.02,2.34,9.93,4.67,14.92,7.01,7.01,3.18,14.25,6.28,21.23,9.69,1.35.76,2.83,1.25,4.37,1.47,2.66.23,3.06.68,3.11,3.39v72.93c.1,1.13-.17,2.25-.75,3.22,0,1.8-.12,3.62-.12,5.42v203.6c.67,1.12.95,2.42.79,3.71v24.76c0,4.04-.56,4.67-4.67,4.55-3.25,0-6.54.65-9.69-.63-.88-1.79-1.15-3.81-.77-5.77,0-2.1-.82-3.01-2.92-2.9h-146.69c-2.1,0-4.44.42-5.75-1.96-.63-.44-1.13-1.03-1.45-1.73-.2-1.49-.55-2.95-1.03-4.37,0-1.05.7-1.45,1.47-1.89,8.13-4.88,10.23-11.56,6.49-20.34-1.84-4.34-4.23-8.43-6.21-12.7-.44-1.12-.96-2.21-1.56-3.25-.73-1-.78-2.35-.14-3.41.16-.78.08-1.6-.23-2.34-4.23-9.65-8.9-18.99-16.53-26.51-3.88-3.83-8.78-6-13.38-8.64-7.36-4.93-15.2-8.48-24.29-8.34-1.45,0-2.92-.19-4.04,1.12-.54.61-1.1.19-1.54-.26-1.45-3.53-3.01-7.01-1.96-10.95,2.1-1.24,4.39-.49,6.59-.65,1.62.07,3.25-.12,4.81-.58,2.87-1.24,3.34-3.11,1.33-5.65-.56-1.92,1.14-2.34,2.17-2.9,4.19-2.41,7.84-5.66,10.72-9.55,2.13-3.03,3.63-6.46,4.39-10.09.15-1.49,1.35-2.66,2.85-2.78,7.9-1.08,13.78-7.84,13.76-15.81.09-1.2.09-2.42,0-3.62-.47-4.67-3.34-6.66-7.82-5.42-1.05.28-2.15.98-2.99-.35-.02-1.13.32-2.23.98-3.15,1.4-2.78,2.32-5.77,2.73-8.85.08-2.19,1.46-4.13,3.5-4.93,4.23-1.65,6.96-5.78,6.82-10.32-.19-2.89-1.86-5.47-4.41-6.84-3.71-2.76-3.74-2.73-.16-5.63,4.68-3.05,6-9.31,2.96-13.99,0,0,0-.01-.01-.02-2.45-4.67-5.75-8.62-11.3-9.79-1.75-.37-2.2-1.47-1.84-3.06.66-2.41.77-4.94.3-7.4-1.38-6.17-3.85-8.52-10.14-9.18-2.23-.3-4.51-.04-6.61.77-2.8,1.14-3.41.75-4.25-2.1-.26-.82-.38-1.68-.35-2.55v-10.02c0-2.34-.68-3.06-3.08-3.13h-10.53c-5.85-1.35-11.94-1.35-17.8,0-11.89.14-23.77,0-35.66,0-4.81,0-5.86,1-5.86,5.72,0,3.2-1.38,6.21-1.19,9.34-.58,1.9-1.64,3.61-3.08,4.97-3.08,3.53-5.14,7.82-5.98,12.42-.34,3.36-.09,6.75.75,10.02.58,3.32.54,3.48-2.73,3.39-4.19-.19-8.06,2.25-9.69,6.12-4.2,8.13-3.97,19.5,3.71,26.76,1.49,1.42,1.99,2.57.65,4.37-1.5,2.08-1.54,4.88-.12,7.01,1.91,2.97,4.35,5.58,7.19,7.68.84.77,2.13,1.31,1.96,2.8-1,.75-1.99.14-2.97,0-5.44-1.07-9.62,1.17-9.34,7.57.27,5.2,2.32,10.14,5.79,14.01,1.98,2.38,5.12,3.48,8.15,2.85,3.83-.61,4.18-.44,5.53,3.22.7,1.87,2.34,3.5,1.73,5.79-1.04,1.98-1.28,4.29-.65,6.45.5,2.37.5,4.82,0,7.19-.35,2.34,0,4.44-.4,6.63-.23,1.31.49,1.92,1.61,2.34,1.01.2,2.05.27,3.08.19h20.41c1.29-.2,2.61.02,3.76.63,1.31,3.5.37,9.04-1.82,10.86-5.04.38-10.04,1.23-14.92,2.52-4.86,1.19-9.57,2.97-14.01,5.28-.91.42-1,1.61-1.89,2.06-5.17,2.22-9.59,5.85-12.77,10.49-3.88,5.36-7.38,10.99-10.46,16.84-1.38,2.78-2.34,5.7-3.55,8.57-.36,1.07-.21,2.24.42,3.18.14,3.69-.49,7.36-1.87,10.79-1.56,5.53-3.67,10.91-4.9,16.53-.21.84-.35,1.69-.44,2.55-.37,6.14.49,7.17,6.63,7.57,3.04.21,1.84,2.48,2.1,4.04,0,.64-.18,1.27-.51,1.82-.63,1.67-2.32,2.69-4.09,2.48h-50.42c-.8.04-1.6-.09-2.34-.4-1.59-1.17-.84-3.25-1.8-4.67-.56-5.65-1.77-11.21-2.64-16.81-.58-3.85,0-7.89-1.52-11.68-.17-.5-.11-1.04.16-1.49,1.94-1.61,2.93-4.09,2.64-6.59v-12.28c.77-1.73,1.12-3.62,1.03-5.51v-14.99c-.13-2.36.13-4.73.77-7.01.56-1.65.56-3.44,0-5.09-.67-2.27-.9-4.65-.65-7.01,0-25.39-.16-50.77,0-76.16,0-1.75-.37-3.67,1.28-5.02.93-.47,1.95-.7,2.99-.68,3.52-.28,6.21-3.24,6.17-6.77-.04-4.83-.56-9.64-1.54-14.36-1.14-7.01-.72-14.29-1.77-21.39-.83-6.04-2.59-11.92-5.21-17.42-.85-1.6-1.47-3.32-1.84-5.09-.04-.61-.04-1.23,0-1.84v-16.42c0-3.25-.28-3.48-3.57-3.5h-3.11c-14.01.49-28.02-.28-42.04,0-.78.08-1.56.08-2.34,0h-18.26c-3.06,0-3.55.61-3.62,3.67-.07,3.06.14,5.65-.16,8.48-.1.9-.54,1.73-1.21,2.34-5.16,4.51-7.94,10.58-10.65,16.63-5.22,10.73-9.41,21.94-12.49,33.47-1.15,4.16-1.52,8.5-1.1,12.8.25,1.79.82,3.52,1.68,5.11.82,1.54,2.35,2.58,4.09,2.76,5.37.91,10.72,1.73,16.14,2.13,1.24,0,2.64.21,3.34,1.61.31,1.16.42,2.37.33,3.57v31.76c.04,1.61-.29,3.21-.96,4.67-2.38,5.91-4.13,12.06-5.23,18.33-.85,4.99-2.05,9.92-3.6,14.74-.35.97-.54,2-.54,3.04-.09,4.13-.68,8.23-1.77,12.21-.16.49-.24,1-.26,1.52.58,8.1-1.66,16.09-1.1,24.22.7,4.06,1.08,8.17,1.14,12.28,0,1.47,1.28,1.66,2.2,2.34,1,2.08,1.45,4.39,1.28,6.7-.02,2.82.39,5.64,1.21,8.34.5,2.44.62,4.95.35,7.43,0,4.51,1.4,6.28,5.77,7.45.34.07.66.23.91.47-.35,3.06-.51,6.14-.47,9.22-.03,1.65-.69,3.23-1.84,4.41-1.36.53-2.83.71-4.27.54h-12.05c-1.73,0-2.34.72-2.48,2.45,0,2.1.54,4.3-.75,6.26-1.08.56-2.3.78-3.5.63h-29.15c-3.92,0-4.46-.56-4.48-4.53v-18.31c-.02-1.74-.28-3.47-.77-5.14Z"/>
      <path class="cls-53" d="M280.79,453.74c-14.01,0-27.84.12-41.76,0-5,.09-10,.09-15.02,0-6.54,0-13.1.12-19.66,0-5,.14-9.97.12-14.95,0-3.11,0-3.95-.93-3.99-4.11-.35-1.69-.06-3.46.82-4.95v-5.93q0-3.41,3.53-3.41h16.21c.98-.73,2.21-1.02,3.41-.82h70.72c1.21-.19,2.44.11,3.43.82,17.82,0,35.66,0,53.48.14,2.06,0,2.34-1.59,3.46-2.2,1.28.89,2.83,1.33,4.39,1.24h144.56c1.56.15,3.12-.26,4.41-1.14,1.4,2.62,3.88,1.99,6.1,1.99h146.92q3.36,0,3.39,3.34v5.96c1.04,2.19,1.22,4.69.51,7.01-.3,1.77-1.89,2.06-3.43,2.1-3.34.12-6.7,0-10.04,0h-14.01c-3.43.14-6.89,0-10.32,0"/>
      <path class="cls-53" d="M605.9,452.86c-2.66.12-5.35,0-8.01,0h-306.43"/>
      <path class="cls-48" d="M149.87,138.07v1.61c-.74-.72-1.78-1.06-2.8-.91-11.3,0-22.61-.28-33.91-.14-9.55,0-18.99-1.24-28.56-1.07-26.48.44-52.97.4-79.4.56-4.18,0-5.49-1.19-5.14-5.42.47-5.72.75-11.49,3.41-16.81,1.4-2.85,1.42-6.21,3.01-9.04,4.45-7.3,10.78-13.28,18.33-17.31,6.73-4.26,14.55-6.46,22.51-6.35,1.47-.11,2.95.22,4.23.96,1.68,1.21,2.52.21,3.36-.96,5.16-7.21,11.47-13.53,18.68-18.68,7.42-5.26,16.11-8.42,25.18-9.15,12.65-1.15,25.27,2.56,35.29,10.37,6.91,5.04,12.14,12.03,15.02,20.08.8,1.5,1.49,3.06,2.06,4.67.23,1.03,1.12,1.42,2.2,1.45,1.45.11,2.91-.02,4.32-.37.16,1.24-.77,1.38-1.61,1.56-.68.09-1.37.09-2.06,0-13.38-.37-24.05,5.93-33.86,14.01-4.32,3.6-8.11,7.79-11.26,12.45-2.83,4.24-5.01,8.87-6.47,13.76-.79,2.34,0,3.55,2.62,3.85.95.06,1.9.06,2.85,0h38.3c1.26.23,2.62-.07,3.71.89Z"/>
      <path class="cls-22" d="M149.87,138.07h-44.77c-3.29,0-4.67-2.03-3.62-4.86,1.92-5.4,4.52-10.54,7.73-15.3,9.11-12.58,22.42-21.49,37.53-25.13,2.73-.36,5.5-.44,8.24-.23.98,0,2.15.37,2.66-.96,9.06-10.3,22.46-15.69,36.13-14.53,4.11.28,6.38-.28,8.57-4.27,7.33-13.27,19.03-20.79,33.68-24.33,11.93-3.21,24.36-4.09,36.62-2.59,9.66,1.38,18.82,5.18,26.62,11.05,0,.49.4,1.05-.33,1.31-7.78,2.59-14.81,6.82-22.4,9.83-4.44,1.77-8.55,4.37-12.94,6.26-3.53,1.49-6.87,3.39-10.46,4.67-2.06.72-3.81,1.87-5.75,2.71-8.38,3.6-16.51,7.85-24.92,11.44-5.3,2.34-10.39,5-15.81,7.01-4.67,1.77-9.34,4.41-13.85,6.56-8.52,3.97-17.1,7.85-25.69,11.79-4.04,1.87-8.06,3.74-12.05,5.68-.57.4-1.25.6-1.94.58-2.78-.51-3.32.86-3.2,3.32.12,3.27-.05,6.63-.07,10Z"/>
      <path class="cls-22" d="M186.23,444.68c0,1.87.16,3.76,0,5.63-.16,1.87.75,2.64,2.71,2.62h15.39c1.12,2.69.14,5.42.21,8.13,0,.98-.89,1.1-1.73,1.1-57.12.19-114.22,0-171.35,0-1.63,0-3.25-.28-4.88-.42s-2.8.28-4.11-.47c-2.13-1.47-1-3.53-1-5.39,0-.86-.3-1.84.49-2.59,2.15-6.23,5.96-11.77,11-16.02,4.27-3.64,9.19-6.43,14.5-8.22,4.19-1.38,8.66-1.7,13.01-.93,1.68.54,3.48-.4,4.02-2.08,0-.02.01-.05.02-.07.97-2.43,2.13-4.77,3.48-7.01,6.41-10.76,18.86-16.36,31.15-14.01,3.69.63,6.56,2.69,9.95,3.76,5.27,2.25,10.11,5.42,14.29,9.34,3.11,2.76,6.15,5.56,9.11,8.41,1.63,1.56,2.71,2.01,4.44-.21,2.89-4.03,6.98-7.06,11.68-8.64,1.68.19,1.35,1.47,1.35,2.55v21.46c0,2.55.82,3.15,3.25,3.13,10.93-.14,21.88-.05,33.02-.05Z"/>
      <path class="cls-48" d="M663.7,147.39v-20.18c0-1.8-.33-2.9-2.34-2.52-1.72.03-3.4-.51-4.79-1.52-3.62-1.68-7.36-3.15-10.88-4.95-4.67-2.34-9.34-4.06-14.01-6.4-2.97-1.52-6.12-2.73-9.11-4.13-3.36-1.56-6.7-3.27-10.11-4.81,4.11-1.82,7.36-5.02,11.47-6.82,13.2-6.02,28.37-6.02,41.57,0,11.68,5,19.92,13.73,27.53,23.35.72.93,1.45,2.13,2.94,1.45,5.79-2.69,11.68-1.21,17.14.51,10.91,3.03,20.36,9.89,26.62,19.31,5.89,9.22,8.68,20.08,7.96,30.99-.14,2.34-1.61,2.73-3.55,2.73h-33.91c-.91,0-2.15-.61-2.59.89-1.28,0-1.05-1.19-1.26-1.92-4.39-17.01-20.7-28.13-38.14-26.02-1.54.14-3.04.89-4.55.02Z"/>
      <path class="cls-21" d="M684.21,404.58c-6.84-4.16-9.69-10.86-10.91-18.26-1.47-9.08-3.22-18.15-2.83-27.44.61-16.32,4.24-32.39,10.7-47.39,2.89-7.39,6.5-14.47,10.77-21.16,2.5-3.53,5.67-6.53,9.34-8.83,4.41-3.15,10.53-2.13,13.68,2.28.19.26.36.53.52.8,2.42,3.77,4.28,7.88,5.51,12.19,3.97,14.32,4.7,29.34,2.13,43.98-2.42,15.13-6.06,30.04-10.88,44.58-1.55,5.32-4.12,10.28-7.57,14.62-3.27,4.37-8.57,6.74-14.01,6.28-.79-1.24-1-2.75-.58-4.16.46-4.14,1.24-8.24,2.34-12.26.98-1.98,1.49-4.16,1.49-6.38.26-3.67,1.7-7.17,1.28-10.86-.18-4.63,1.84-9.07,5.44-11.98,3.62-2.97,5.91-7.17,9.34-10.28,1.49-1.24,2.87-2.52,2.15-4.67l-.21-.68c-1.26-1.42-2.34-1.52-3.34-.21-.4.54-.61,1.19-.96,1.77-1.57,2.46-3.47,4.69-5.65,6.63-.7.54-1.47,1.07-2.34.49-.86-.58-.7-1.49-.51-2.34.23-1.62.29-3.25.19-4.88.98-5.07,1.89-10.16,2.52-15.27.16-1.19.7-2.62-1.03-2.94s-1.92.96-2.17,2.34c-1.61,8.2-2.9,16.46-4.25,24.71-.93,5.58-1.7,11.23-2.97,16.77-.21.91-.33,2.17-1.4,2.22-1.07.05-1.56-1.24-1.82-2.2-.79-3.11-1.49-6.21-2.34-9.34-.12-.77-.38-1.5-.77-2.17-.43-.68-1.26-.99-2.03-.75-.86.21-.89.93-.96,1.63.08,1.55.39,3.07.91,4.53.51,4.54,1.43,9.03,2.76,13.41.18.39.29.79.35,1.21-.1,1.28.32,2.55,1.17,3.53,1.04,1.61,1.33,3.58.79,5.42-.07.28-.17.54-.3.79-.78,3.99-1.32,8.02-1.61,12.07-.14,1.1-.23,2.36-1.94,2.17Z"/>
      <path class="cls-15" d="M55.71,359.21c-.58-.86-1.4-.75-2.34-.7-4.13.31-8.28.11-12.35-.58-11.28-2.13-17.38-9.88-19.85-20.39-3.64-15.32.37-29.4,7.99-42.85,3.37-5.72,8.21-10.43,14.01-13.66,2.56-1.14,5.49-1.14,8.06,0,14.51,4.87,26.05,16.03,31.41,30.36,2.81,6.36,4.08,13.3,3.71,20.25-.21,2.83,1.61.89,2.5,1.14.35,1-.49,1.19-1.07,1.42-10.65,4.06-17.82,11.96-23.59,21.42-.72,1.24-.58,2.92-2.03,3.74-.3,0-.72-.47-.86-.26-.58.79.23,1.35.44,2.03-.33,1.56-1.05,1.75-2.13.61-.61-3.22-.47-6.52-.82-9.74.01-1.31.49-2.58,1.35-3.57,2.03-2.99,3.97-6.03,6.14-8.92.63-.86,1.63-1.99.3-2.9s-2.08.21-2.8,1.1c-.72.89-1.42,1.94-2.1,2.94s-1.26,2.94-2.8,2.64-1.49-2.34-1.7-3.67c-.7-4.44-1.05-8.9-1.59-13.34-.14-1.31.19-3.29-1.68-3.2s-1.45,2.13-1.26,3.48c.26,1.89.26,3.78.51,5.65.28,2.34-.82,3.06-2.94,2.03-1.54-.75-2.99-1.7-4.48-2.55-.68-.4-1.31-.84-2.01-1.17-.7-.33-2.34-1.1-3.06,0-.72,1.1.65,1.96,1.54,2.5,3.39,2.03,6.7,4.2,10.18,6.1,1.06.41,1.81,1.35,1.96,2.48.63,5.3,1.45,10.58,1.82,15.9.14.61-.03,1.25-.47,1.7Z"/>
      <path class="cls-14" d="M59.93,361.75c1.19.63,1.45,0,1.38-1-.07-1-.42-1.38.61-1.56,3.9-9.17,10.45-16.97,18.82-22.37,1.87-1.65,4.17-2.72,6.63-3.08.62,0,1.18-.38,1.42-.96,19.01-8.14,41.09-.42,50.89,17.8,3.71,6.95,5.79,14.64,6.07,22.51,0,.93-.14,1.87-.19,2.83-.14,2.34-1.49,3.2-3.78,3.15-7.01-.14-13.8-.16-20.69-.28l-49.65-1.03c-3.62,0-7.24-.3-10.86-.33-1.64.19-3.13-.98-3.32-2.62-.02-.15-.02-.31-.02-.47-.44-3.99-.96-7.99-1.42-12,.28-.28.74-.28,1.02,0,.09.1.16.21.19.35.71,2.02.91,4.19.58,6.31,1.14-2.34.7-5.07,2.31-7.24Z"/>
      <path class="cls-15" d="M109.12,408.88c-.87.12-1.75-.07-2.5-.54-14.36-7.22-31.85-1.44-39.07,12.92-.13.25-.25.51-.37.77-.9,1.65-1.68,3.36-2.34,5.11-.37,1.48-1.86,2.38-3.34,2.01-.1-.03-.2-.06-.3-.09-8.06-1.66-15.02.91-22,4.79-7.5,4.13-11.68,10.81-16.35,17.56-.42.63,0,1.66-.91,1.99-1.18-1.61-2.8-2.85-4.67-3.55-3.67-1.03-6.99-3.02-9.62-5.77-3.04-3.43-5.37-7.36-3.69-11.91,1.77-4.23,5.67-7.2,10.23-7.78,1.35-.29,2.74-.36,4.11-.19,2.1.3,2.48-.63,2.13-2.34-.52-2.36-.64-4.79-.35-7.19.98-7.36,5.46-11.68,13.55-13.08,5.99-.87,12.11-.27,17.82,1.75,1.5.76,3.34.18,4.13-1.31,1.63-2.44,3.62-4.63,5.89-6.49,9.34-7.66,19.57-7.01,29.94-2.94,6.23,2.33,11.21,7.15,13.73,13.31.79,1.92,2.78,1.82,3.99,2.97Z"/>
      <path class="cls-22" d="M663.7,147.39c19.19-4.73,38.57,7,43.3,26.18.11.45.21.9.31,1.35,0,.14.21.26.3.4,2.04,7.63,3.25,15.46,3.6,23.35.16,2.01-.77,3.25-2.87,2.99-8.73-1.14-17.35.44-26.02.86l-18.57.91c-.02-18.65-.03-37.34-.05-56.05Z"/>
      <path class="cls-15" d="M623.28,453.07h23.96c2.22,0,3.18-.61,2.99-2.92-.16-1.8,0-3.62,0-5.42h10.58c2.34.12,2.94-.51,2.92-2.85-.12-9.79,0-19.59,0-29.38,8.08,1.61,13.19,7.01,17.52,13.55,2.48,3.34,2.8,7.36,3.55,11.26,3.2,6.69,5.14,13.92,5.7,21.32.4,3.67-1.12,5.25-4.79,5.32-9.34.16-18.36-1.45-27.53-2.34-5.07-.44-10.16-.58-15.23-.75-5.94-.2-11.86-.85-17.7-1.94-.7-.14-1.33-.3-1.92.26-1.2-1.86-1.22-4.24-.05-6.12Z"/>
      <path class="cls-50" d="M148.98,268.08c.69.64,1.06,1.56,1,2.5v33.82c0,.89,0,1.75-.84,2.34-5.35,1.3-10.9,1.58-16.35.82-3.67-.57-7.09-2.19-9.86-4.67-1.6-1.47-2.63-3.45-2.94-5.6-1.7-7.82,1.12-15.94,7.31-21.02,5.17-4.88,11.89-7.79,18.99-8.22.87-.29,1.82-.28,2.69.05Z"/>
      <path class="cls-32" d="M684.79,437.26c-1.38-3.69-2.56-7.45-3.55-11.26,1.13-4.29,2-8.64,2.59-13.03.42-1.92.54-3.9.91-5.82.26-.91.02-1.88-.63-2.57,1.28-.3,1.35-1.31,1.33-2.34.66-2.97,1.17-5.97,1.52-8.99-.19-1.19,0-2.4.54-3.48h0c.75-2.52,1.14-4.95-1.12-7.01-.65-.61-.51-1.61-.93-2.34v-.98c-.61-2.1-1.09-4.24-1.45-6.4-.42-2.34-1.26-4.67-1.63-7.01-.69-1.57-1.06-3.26-1.07-4.97,0-.89-.33-2.08,1.05-2.34,1.38-.26,2.62-.49,3.36,1.07.84,2.14,1.47,4.37,1.87,6.63.46,2.56,1.18,5.06,2.15,7.47.93-.61.82-1.47.93-2.34,1.56-9.34,3.11-18.68,4.67-28.02.82-4.67,1.75-9.34,2.34-14.18.3-2.22,1.75-2.48,3.27-2.34s1.94,1.61,1.66,3.18c-.96,5.3-1.87,10.63-2.8,15.93-.82,2.08-.26,4.34-.98,6.45-.24.58-.02,1.24.51,1.56.51.23.96-.19,1.38-.47s.72-.93,1.17-1.33l5.16-6.24c.36-.36.69-.75.98-1.17,1.61-1.87,2.5-1.82,4.2.19h0c.86,2.34-1.4,3.46-2.03,5.18-2.73,3.76-5.82,7.25-9.22,10.42-3.42,2.76-5.37,6.94-5.3,11.33-.66,2.96-1.16,5.95-1.49,8.97-.16,2.99-1.21,5.75-1.56,8.66-.63,3.88-1.33,7.73-1.89,11.68-.23,1.59-.19,3.22-.28,4.86-.51.32-.84.85-.91,1.45l-4.72,29.57Z"/>
      <path class="cls-37" d="M197.07,462.64H32.42c-1.97.25-3.98-.02-5.82-.77h174.62c2.34,0,3.11-.37,2.64-2.73-.09-2.06.07-4.12.49-6.14h19.78"/>
      <path class="cls-55" d="M59.93,361.75c-.2,3.1-.99,6.14-2.34,8.94-.3-2.64-.54-4.67-.75-6.59,0-.75.16-1.61-.96-1.77l-.12-3.13c-.7-5.85-1.39-11.72-2.06-17.61.01-.68-.37-1.3-.98-1.59-3.88-2.15-7.68-4.44-11.49-6.73-1.17-.7-2.64-1.68-1.63-3.25,1-1.56,2.57-1.19,3.97-.42,2.17,1.19,4.27,2.52,6.4,3.78.75.42,1.61,1.1,2.34.63s.23-1.4.14-2.15c-.28-2.13-.56-4.27-.75-6.4-.14-1.59-.21-3.34,1.99-3.53,2.2-.19,2.34,1.52,2.57,3.11.56,4.95,1.05,9.93,1.66,14.85.12,1.03,0,2.71.98,2.9.98.19,1.42-1.47,2.08-2.34,1.03-1.38,1.94-2.83,3.01-4.18.73-1.06,2.18-1.33,3.25-.61.07.05.14.1.21.16,1.28.93.79,2.08,0,3.15-2.34,3.32-4.53,6.68-7.01,9.95-.94,1.03-1.37,2.43-1.17,3.81.39,2.98.61,5.98.65,8.99Z"/>
      <path class="cls-37" d="M21.49,455.99c.47,1.77-.58,3.83,1,5.39-1.21,0-1.66-.58-1.52-1.73.14-1.14-.23-2.52.51-3.67Z"/>
      <path class="cls-51" d="M283.55,435.32h-77.56c.96-3.61,1.28-7.35.96-11.07,0-.96,1.07-1.38.84-2.34-.55-.98-.76-2.11-.58-3.22v-16.72c.13-1.96.41-3.92.84-5.84.23-1.73.91-3.95-.84-5-1.94-1.02-4.27-.98-6.17.12-.75.37-1.35,1.12-2.34.77-2.55.23-3.39-.84-3.25-3.43.35-6.14-1.52-12.19-.89-18.38s.77-12.24,1.24-18.33c.4-4.9,1.61-9.81,2.1-14.78-.03-2.29.6-4.53,1.82-6.47.78-1.33,1.14-2.86,1.05-4.39.35-2.8,1.38-5.56,1.66-8.31.33-3.46,2.34-6.35,2.57-9.74.31-2.08,1.04-4.07,2.15-5.86.58-1.14.87-2.39.86-3.67.61-1.73,1.69-3.25,3.13-4.39,1.01-.78,1.9-1.69,2.66-2.71.86-1.31,2.8-1.59,3.27-3.32,3.43-3.57,7.85-6.05,11.16-9.79.59-.88,1.78-1.11,2.66-.51.03.02.07.05.1.07,5.4,4.7,12.87,6.22,19.69,4.02,1.63-.49,3.34-.89,4.13-2.71,2.23-.58,4.61-.03,6.35,1.47,2.65,2.17,5.09,4.59,7.29,7.22,1.1,1.09,1.91,2.45,2.34,3.95,3.67,6.63,6.5,13.69,8.41,21.02,3.01,3.71,2.34,8.31,2.71,12.54.49,4.93,0,9.95.12,14.95-.2.98-.02,1.99.49,2.85-.28,2.83,1.19,5.6.89,8.27-.77,9.45-1.02,18.94-.75,28.42,0,1.35-1,1.89-1.61,2.76-.19.18-.42.3-.68.35-3.27.28-3.69.47-3.2,3.76.73,3.79,1.05,7.64.96,11.49.2,5.4.73,10.78,1.59,16.11.3,3.36,1.19,6.63,1.35,10.02.28,2.32.79,4.6,1.52,6.82,1.8.91.58,2.64.96,4.02Z"/>
      <path class="cls-4" d="M370.56,306.89c-1-2.34-2.1-4.67-2.97-7.01-.63-1.73-2.06-1.33-3.01-1.03-5.53,1.73-9.86-1.89-12.31-6.35-1.98-3.41-3.17-7.23-3.48-11.16-.42-7.66,5.79-9.62,11.19-7.85.56.19,1.14.28,1.73.42.24-.08.5-.08.75,0,.84.16,1.4,1.45,2.34.93s.47-1.75.49-2.66v-12.91c-.07-2.6.51-5.17,1.7-7.47,1.52-2.62,2.55-5.49,3.06-8.48.21-1.89,1.68-2.34,3.15-2.48,2.48-.27,4.87-1.06,7.01-2.34,2.11-1.25,3.46-3.48,3.57-5.93.16-2.55.56-2.92,3.29-2.34,4.15.99,8.53.41,12.28-1.61,2.47-1.27,4.35-3.47,5.21-6.12.79-2.03,1.73-2.17,2.76-.35,4.67,8.1,12.75,6.45,17.77,1.14,3.08-3.25,3.85-3.18,5.02,1.03,1.56,5.56,4.67,9.13,13.69,9.53,6.21.28,6.31-.33,6.33,6.24.02,4.39,2.98,8.21,7.22,9.34,2.23.43,3.82,2.4,3.78,4.67.79,6.66,1.63,13.31,2.03,20.06,1.07.28,1.49-.93,2.34-.82,1.31,1.1,2.2-.44,3.29-.61,3.33-.94,6.79.99,7.73,4.32.16.56.24,1.13.24,1.71,1.11,7.5-2.29,14.95-8.69,19.03-1.72.97-3.68,1.45-5.65,1.4-1.49,0-1.96.63-2.34,2.13-1.45,7.33-5.76,13.78-11.98,17.91l-6.12,4.23c-.28.63-.91.79-1.49,1.03-2.06.67-4,1.68-5.72,2.99-.45.24-.96.36-1.47.35-1.83-.17-3.47,1.14-3.71,2.97.19,3.72.91,7.39,2.15,10.91.15.24.07.56-.18.71-.01,0-.02.01-.03.02-5.5,2.49-11.48,3.71-17.52,3.57-4.51-.66-8.97-1.64-13.34-2.94-1.07-.3-2.18-.45-3.29-.44-.77-.19-1.49-.4-.93-1.45,2.69-1.63,1.17-4.67,2.01-6.77.19-1.18.19-2.39,0-3.57-.3-1.24-1.35-1.42-2.34-1.68-2.66-.93-5.46-1.37-8.27-1.31-.89,0-1.92.16-2.48-.86.37-1.17,1.52-.68,2.34-.93-5.35-3.43-10.86-6.59-14.25-12.17-.23.44-.14,1.49-1.19.68-.19-2.25-.86-4.43-1.96-6.4-.24-.43-.13-.96.26-1.26Z"/>
      <path class="cls-45" d="M465.45,273.24c-.96.75-1.1,2.87-2.57,2.34-1.47-.54-.58-2.17-.65-3.32-.44-6.8-1.33-13.52-2.13-20.27,0-1.12-.7-1.38-1.59-1.63-7.01-2.15-9.67-5.84-9.34-13.17.14-2.34-.37-3.27-2.85-3.06-2.34.25-4.7.14-7.01-.33-4.47-.62-8.2-3.72-9.62-8.01-.49-1.54-1.05-3.06-1.73-5.02-3.13,3.81-6.56,7.01-11.49,7.31-4.93.3-8.5-2.57-10.65-7.01-.21,0-.47.14-.49.23-2.3,7.24-9.86,11.41-17.21,9.51h-.23c-1.96-.35-3.95-1.73-3.88,2.34.07,4.06-3.67,6.52-7.38,7.24-3.71.72-6.87,1.54-7.17,6.33-.39,2.02-1.18,3.95-2.34,5.65-.96,1.74-1.45,3.71-1.42,5.7v15.53c0,.89.44,2.1-.65,2.55-1.1.44-1.33-.86-2.01-1.33l-1.4-1.1c-2.34-3.04-6.03-4.86-8.34-8.01-2.59-3.55-3.85-7.24-.61-10.77.79-.84.33-1.24-.33-1.82-7.78-7.17-9.71-18.71-4.67-28.02,2.1-4.25,5.42-7.01,10.65-6.63.78.05,1.56.05,2.34,0-1.15-4.08-1.62-8.31-1.38-12.54.88-5.3,3.32-10.22,7.01-14.13l2.34-2.8c.98-2.2,3.29-2.87,4.97-4.27,2.89-1.71,6.13-2.77,9.48-3.08,3.24-.17,6.36,1.23,8.38,3.76,1.33,1.33,2.34,2.97,3.57,4.48,1.47-5.1,4.34-9.68,8.29-13.22,2.28-2.42,5.34-3.95,8.64-4.34,5.76-1.59,11.85-1.59,17.61,0,2.86.66,5.48,2.12,7.54,4.2,1.21,1.33,2.55,2.55,3.78,3.85,1.58,1.89,2.66,4.15,3.15,6.56,0,.51,0,1.03.21,1.52.47,1.99,1.1,3.08,3.57,1.87,4.45-2,9.62-1.44,13.55,1.45,4.2,2.71,4.44,7.5,4.32,12.05,0,1.52-1.05,3.2-.63,4.48.42,1.28,2.55.79,3.85,1.42,5.82,2.68,9.87,8.14,10.77,14.48.91,4.83-2.01,7.99-5.58,10.53-1.84,1.31-2.45,1.92,0,3.22,3.88,2.03,6.66,4.95,5.75,9.9-.71,4.2-3.53,7.73-7.47,9.34-1.14.56-2.34.77-2.55,2.48-.55,4.77-2.05,9.38-4.41,13.57Z"/>
      <path class="cls-51" d="M431.63,342.11c0-.16,0-.33.12-.49,4.88-3.29,9.93-1.49,14.83-.33,4.05,1.22,7.96,2.84,11.68,4.86,1.38.68,2.13,1.94,3.43,2.57.68,1.12.89,2.47.56,3.74-1.17,9.77-1.17,19.64,0,29.4.61,4.95,0,10,1.05,14.95.28,1.39.21,2.83-.21,4.18-.46.92-1.32,1.58-2.34,1.77-5.99,1.15-12.11,1.52-18.19,1.1-1.87-.3-3.69-.88-5.39-1.7-7.68-2.97-14.53-1.47-19.43,4.2-2.31,3.03-3.95,6.5-4.83,10.21-.26.79-.21,1.73-.96,2.34-2.64-.42-5.03-1.85-6.66-3.97-.75-1.73-1.68-3.36-2.34-5.16-1.07-3.57-4.31-6.05-8.03-6.14-2.92-.27-5.86.23-8.52,1.47-1.57.7-3.28,1.03-5,.98h-14.81c-4.46,0-5.56-1.42-4.67-5.75,1.05-5.84,2.08-11.68,2.9-17.54,1.21-7.02,1.83-14.13,1.84-21.25-.27-2.57-.75-5.11-1.45-7.59-.19-1-.65-2.01,0-2.99,3.08-3.97,7.82-5.21,12.17-6.45,6.17-1.77,12.4-3.85,18.99-3.41,0,.63.3,1.03.98,1.05,1.19.99,2.06,2.32,2.5,3.81,1.41,2.75,3.12,5.34,5.09,7.73,4.67,6.45,18.99,4.67,22.63-3.6,1.09-2.05,2.01-4.18,2.76-6.38.13-.73.62-1.34,1.31-1.61Z"/>
      <path class="cls-45" d="M282.52,195.64c1.92,5.51,4.93,10.6,6.05,16.35,1.07,4.87,1.7,9.82,1.87,14.81.31,7.39,1.04,14.76,2.2,22.07.44,3.81,1.38,7.82-2.1,11.12-2.1,2.01-4.67,1.73-7.01,1.96-1.82.44-3.5-.51-5.3-.54-1.59-.49-3.53,0-4.67-1.66-.34-1.18-.13-2.45.58-3.46,4.27-8.03,6.59-16.95,6.75-26.04.07-1.98.28-3.95.61-5.91.3-2.65-.11-5.34-1.19-7.78-.3-1.1-1.36-1.83-2.5-1.7-5.6,0-11.16.58-16.77.89-6.8.35-13.57.96-20.36,1.19-3.36,0-6.68.77-10.07.58-1.54,0-1.96.96-2.34,2.34-.91,3.76-1.8,7.54-2.8,11.28-.86,3.22-1.21,3.39-4.51,3.11-4.18-.37-9.34,4.88-8.99,9.06.33,1.87,1.56,3.46,3.29,4.25,1,.52,2.07.89,3.18,1.1,3.46.93,6.82,1.89,8.41,5.68.42,1,1.49,1.66,2.34,2.34,1.18.86,1.49,2.49.7,3.71-.56.54-1.28.88-2.06.98-4.06.56-8.13,1.24-12.24,1.63-2.52-.33-5.11.58-7.59-.54-6.31-1.24-12.73-1.54-19.06-2.66-2.39-.28-4.4-1.94-5.14-4.23-1.84-5.22-1.97-10.89-.37-16.18,2.7-10.67,6.43-21.06,11.12-31.01,2.14-4.99,4.58-9.84,7.31-14.53,1.63-2.71,4.37-4.37,6.19-7.01,1.1-1.39,2.39-2.61,3.85-3.62,2.94-2.37,6.06-4.51,9.34-6.38,2.93-1.62,6.08-2.81,9.34-3.55h2.06c1.94.36,3.92.44,5.89.23,4.37,0,8.76,0,13.15.28,2.66.25,5.25,1.04,7.59,2.34,1.05.77,2.23,1.36,3.48,1.73,5.8,3.02,11.08,6.97,15.62,11.68.26.26.49.51.72.79,1.51,1.5,2.68,3.31,3.43,5.3Z"/>
      <path class="cls-33" d="M606.72,250.96v75.83c0,2.1-.4,2.8-2.76,3.04-23.12,2.13-46.26.23-69.36.96-2.22,0-2.52-.84-2.52-2.73,0-23.63,0-47.27,0-70.9,0-26.47,0-52.86,0-79.17-.2-2.93,2.01-5.48,4.95-5.68.26-.02.52-.02.78,0h65.9c2.48,0,3.2.65,3.18,3.15-.21,25.13-.16,50.33-.16,75.5Z"/>
      <path class="cls-4" d="M411.48,418.83c.94-4.11,2.51-8.05,4.67-11.68,2.22-3.6,5.81-6.13,9.95-7.01,5.07-.98,10.33-.15,14.85,2.34.68.34,1.42.53,2.17.56,5.85.26,11.71-.12,17.47-1.14.81-.2,1.6-.51,2.34-.91,1.95-.84,4-1.44,6.1-1.77,1.28-.39,2.54-.86,3.76-1.4-1.31-1.92-3.67-2.5-4.67-4.48-.09-1.26.72-2.41,1.94-2.76,6.97-2.2,14.15-3.69,21.42-4.44.26.01.51.11.7.28-1.73,2.8,1,4.46,1.8,6.56,2.17,5.67,6.05,10.58,7.22,16.74,1.38,7.15-.37,13.73-8.52,17.07-.56.23-.89.49-.96,1.05-.23.2-.57.2-.79,0-.33-.28-.55-.67-.63-1.1-.23-3.43-2.57-4.06-5.37-4.25s-3.69-.86-3.71-4.04c0-5.39.37-5.39-5.46-5.25-10.58.04-21.16-.56-31.67-1.8-8.72-.78-17.36,2.21-23.75,8.2-.51.44-.98.96-1.47,1.45-3.2,3.15-6.12,2.29-7.36-2.22Z"/>
      <path class="cls-4" d="M362.72,400.66c-.96,3.6-.23,4.67,3.41,4.67h11.09c3.83.17,7.65-.44,11.23-1.8,4.51-1.66,9.48-1.73,13.08,2.34,2.16,2.63,3.57,5.79,4.09,9.15-.55.27-1.17.31-1.75.12-8.73-2.34-17.7-2.34-26.65-2.97-7.59-.49-15.16-.3-22.75-.4-3.36,0-3.76.4-4.2,3.81-.21,1.54,0,3.11-.4,4.67-.14,1.71-1.6,3.01-3.32,2.94-4.67.35-4.67.47-4.67,5.11.13,1.12-.06,2.25-.54,3.27-.18.22-.5.25-.72.07-.03-.02-.05-.05-.07-.07.44-2.34-.14-3.39-2.99-3.15-4.11.35-5.77-1.56-5.82-5.63.31-5.4,1.5-10.72,3.53-15.74,1.75-5.02,3.11-10.16,4.09-15.39.03-.51-.07-1.02-.3-1.47,1.07-.8,2.51-.9,3.67-.23,7.05,2.78,13.76,6.37,19.99,10.7Z"/>
      <path class="cls-27" d="M492.17,386.62c-6.07,1.21-12.19,2.34-18.24,3.74-2.13.49-5,.3-5.51,3.53-1.8,1.19-3.32,2.94-5.67,3.13-.69-1.86-.99-3.84-.89-5.82-.3-10.58-1.89-21.02-1.07-31.71.28-3.57.63-7.17.96-10.77,11.14,4.95,20.07,13.83,25.08,24.94,1.52,3.06,3.04,6.14,4.51,9.22.71,1.11,1.01,2.43.84,3.74Z"/>
      <path class="cls-27" d="M362.72,400.66c-1.22-.02-2.39-.47-3.32-1.26-5.18-3.97-11.3-6.07-17.07-8.85-1.08-.3-2.2-.39-3.32-.28-1.52-1.26-.51-2.45,0-3.85,3.18-9.88,9.06-18.22,14.99-26.51,2.98-3.89,6.89-6.98,11.37-8.97,2.12,6.11,2.8,12.62,1.99,19.03-.82,6.1-1.17,12.26-2.48,18.31-.93,4.06-1.47,8.24-2.17,12.38Z"/>
      <path class="cls-59" d="M340.51,431.65c.13.02.27.02.4,0,.92-.24,1.87-.35,2.83-.33h146.64c.85,0,1.67.28,2.34.79l1.17,1.14c0,1.35-.33,2.13-1.87,2.01-1.54-.12-2.59,0-3.88,0h-144.54c-1.45,0-3.36.56-3.11-2.08.02-.47.02-1,.02-1.54Z"/>
      <path class="cls-6" d="M278.41,260.82c1.75.12,3.47.53,5.09,1.19-1.26.82-.96,2.1-.96,3.27v77.91c-1.26-.26-.96-1.26-.96-2.08-.19-3.27-.19-6.56,0-9.83.51-5-1.47-9.79-1.07-14.74.07-.72-.38-1.39-1.07-1.59-1-.44-1-1.31-.98-2.17-.44-5.89-.26-11.68-.3-17.63,0-1.73-.75-2.34-2.48-2.34-1.86.34-3.78.08-5.49-.72-.36-1.37-1.08-2.62-2.08-3.62,1.82-1.49,3.97-.79,5.96-.86,4.06,0,4.09,0,4.09-3.99v-20.15c-.16-.89-.07-1.8.26-2.64Z"/>
      <path class="cls-18" d="M198.68,392.02c2.01-2.64,4.9-2.34,7.73-2.34,1.68,0,2.57.84,2.55,2.55.02.26.02.51,0,.77-1.47,9.58-.63,19.27-1.17,28.87-3.24.3-6.22-1.81-7.01-4.97v-1.8c.06-3.39-.21-6.78-.82-10.11-.79-4.28-1.22-8.61-1.28-12.96Z"/>
      <path class="cls-49" d="M373.74,185.34l-5.14,3.67c-.7-4.67,1.28-9.04,1.12-13.69,0-1.82,2.22-3.04,4.46-3.01h37.76c-3,.98-5.77,2.57-8.13,4.67-6.77.47-13.57,0-20.34.19h-6.7c-3.01,0-3.29.37-3.34,3.48-.02,1.57.08,3.14.3,4.69Z"/>
      <path class="cls-47" d="M385.63,326.96c4.08.1,8.14.7,12.07,1.77,1.54.4,1.61,1,.86,2.13h-26.37c-3.06,0-3.81-1.1-2.87-4.02.07-.16.11-.34.12-.51-.77-3.88.56-7.75,0-11.68,0-.59-.11-1.18-.35-1.73-1.59-2.5.23-4.13,1.4-5.96,1.6,2.23,2.42,4.94,2.34,7.68,1.24,2.34.56,4.67.65,7.01,0,3.97.14,4.09,4.04,4.11h5.42c.96.12,2.08-.07,2.69,1.19Z"/>
      <path class="cls-29" d="M207.95,262.62c2.59-.37,5.22-.42,7.82-.16.03.45-.3.85-.75.91-2.34.26-2.69,1.82-2.66,3.85v16.53c0,3.36.28,3.95,3.27,3.83.61-.03,1.21.21,1.63.65.56,2.57-2.48,2.08-3.11,3.64-1.28-.17-2.45.74-2.62,2.02-.03.2-.03.4,0,.6l-3.57,4.16c.02-12,0-24.02-.02-36.04Z"/>
      <path class="cls-46" d="M259.77,176.95c-5.45-2.34-11.36-3.41-17.28-3.13-3.23.35-6.49.19-9.67-.49h42.48c1.23.62,2.65.8,3.99.49,2.01,0,2.78.68,2.76,2.71v14.46c-.13,1.03.02,2.08.44,3.04v1.61l-3.71-5.11c-.16-4.27.16-8.55-.16-12.82-.23-.15-.48-.28-.72-.4-4.25-.35-8.5,0-12.75-.14-1.79.02-3.59-.05-5.37-.21Z"/>
      <path class="cls-46" d="M212.15,183.75c-1.23,1.21-2.62,2.25-4.13,3.08v-10.3c0-2.34,1-3.27,3.22-3.25h19.59l-9.34,4.06c-1.95.23-3.92.33-5.89.33-3.01,0-3.11,0-3.11,3.22-.06.96-.17,1.91-.35,2.85Z"/>
      <path class="cls-38" d="M277.41,398.02c.49-4.27-.96-8.38-1.03-12.63,0-3.55.19-3.74,3.62-2.87.34.07.68.11,1.03.12.87,5.52.87,11.13,0,16.65-.21,1.38-1.38,1.63-2.5,1.87-1.05-.82-.44-2.2-1.12-3.13Z"/>
      <path class="cls-26" d="M436.82,176.98c-2.24-1.82-4.68-3.38-7.26-4.67h11.37c2.13,0,3.2.89,3.2,3.06v11.68c-1.19-2.13-2.34-4.23-3.55-6.35-.82-1.77-.91-4.11-3.76-3.71Z"/>
      <path class="cls-40" d="M429.65,330.72c-.91-2.34.21-3.27,2.34-3.46l2.8-.28c.56-.4,1.25-.59,1.94-.54,1.65.29,3.25-.72,3.69-2.34.35-.63,1-.56,1.56-.65,1,.14,2.34,0,2.1,1.59-.23,1.59.7,3.64-1.4,4.55-1.56.86-3.31,1.29-5.09,1.26-2.64-.28-5.3-.14-7.94-.14Z"/>
      <path class="cls-20" d="M277.41,398.02c.77.85,1.16,1.98,1.05,3.13,1.05,5.79,1.47,11.68,2.17,17.45.87,4.16,1.52,8.36,1.94,12.59-.3-.14-.84-.33-.84-.44-.13-2.35-.61-4.68-1.42-6.89-.68-3.46-.26-7.01-1.77-10.37-.05-.16-.05-.33,0-.49.61-5.07-1.7-9.9-1.12-14.97Z"/>
      <path class="cls-12" d="M282.52,194.02c-1.19-.61-.96-1.73-.96-2.73v-13.41c0-3.5,0-3.46-3.46-3.55-.96,0-2.34.7-2.76-1,8.17,0,7.22-.47,7.24,7.01-.07,4.6-.07,9.13-.07,13.69Z"/>
      <path class="cls-53" d="M492.71,432.21h-2.01c.7-1.28.3-2.73.56-4.09h.47c.98,1.12,1.35,2.65.98,4.09Z"/>
      <path class="cls-19" d="M692.71,389.8c.12-4.07.7-8.11,1.73-12.05.33-1.87-.42-4.06,1.33-5.58-.05,4.58-.72,9.12-1.99,13.52-.37,1.35.77,3.13-1.07,4.11Z"/>
      <path class="cls-60" d="M682.29,365.96c1.61,1.21,1.07,3.18,1.49,4.67,1.01,2.8,1.54,5.76,1.59,8.73-.28-.19-.79-.35-.79-.54-.16-4.34-2.59-8.36-2.29-12.87Z"/>
      <path class="cls-57" d="M701.98,352.48c0,.26,0,.61-.14.75-.84.91-1.56,2.69-2.85,2.15s-.65-2.34-.35-3.46c.49-1.87-.21-3.99,1.26-5.65v4.67c0,.79-.86,1.7,0,2.34.86.63,1.14-1,2.08-.79Z"/>
      <path class="cls-34" d="M687.5,389.78c.65,3.99-1.28,7.73-1.17,11.68,0,.49-.44.68-.89.79-.47-3.88,1.61-7.47,1.12-11.35-.02-.51.42-.89.93-1.12Z"/>
      <path class="cls-34" d="M685.45,380.44c1.21,2.2,3.95,3.67,3.11,6.82-.26.91-.23,1.87-1.05,2.52-.33-2.34.79-4.86-1.77-6.61-.7-.49-.35-1.8-.28-2.73Z"/>
      <path class="cls-7" d="M712.23,345.26c-2.34-2.34-3.53.3-5.18.98.42-1.68.89-3.22,3.22-3.13,1.63.19,2.31.58,1.96,2.15Z"/>
      <path class="cls-7" d="M710.29,350.43c-.49-2.17,2.34-3.06,2.03-5.18,1.38,2.55.05,4.02-2.03,5.18Z"/>
      <path class="cls-31" d="M61.92,359.18c-.19.51-.4,1.03-.61,1.54-1.77,0-.82-1.28-1-2.01-.12-.42.13-.86.55-.98.09-.02.18-.03.26-.03,1.1,0,.77.84.79,1.47Z"/>
      <path class="cls-8" d="M278.41,260.82c.44.75.62,1.62.51,2.48v22.91c0,1.61-.35,2.34-2.13,2.17-2.92-.16-5.84,0-8.76,0-2.28-2.62-4.77-5.05-7.45-7.26-1.17-.93-2.17-1.92-3.83-1.17-.84.37-1.1-.63-1.68-.84h-.42c-.61-.06-1.15-.41-1.45-.93-1.33-3.05-.26-6.62,2.55-8.43,5.56-2.53,10.73-5.84,15.34-9.83.68-.65,1.61-1.61,2.5,0,1.52.7,3.27.28,4.81.91Z"/>
      <path class="cls-1" d="M217.29,288.23q-5.79-.23-5.79-6.05v-16.04c0-2.34.23-3.9,3.11-3.36.37,0,.82-.21,1.21-.33,4.67-.91,9.34-.91,14.01-2.34,2.06-.42,2.71,1,2.76,2.5.53,4.78.31,9.61-.65,14.32-.17.47-.62.79-1.12.79-.96.05-1.83.56-2.34,1.38-2.69,3.29-6.52,5.25-9.46,8.22-.53.38-1.11.69-1.73.91Z"/>
      <path class="cls-62" d="M270.14,291.92h7.22c.82,0,1.56,0,1.56,1.12l-.14,19.06c0,.21-.26.42-.37.65-1.89-7.26-4.67-14.25-8.27-20.83Z"/>
      <path class="cls-25" d="M230.65,277.91l.61-.54c1.24-.7,2.34,0,3.43.4,3.09,1.3,6.36,2.15,9.69,2.52,2.33,0,4.63-.4,6.82-1.19,1.23-.34,2.53-.39,3.78-.14.06.06.1.15.12.23.21,1.54-.54,2.34-1.92,2.9-7.52,3.11-14.55,1.45-21.42-2.03-.98-.63-.98-1.45-1.12-2.15Z"/>
      <path class="cls-16" d="M211.57,294.49c-.4-.84-.79-1.8-.12-2.57s1.82-.4,2.73,0c-.63,1.07-1.53,1.96-2.62,2.57Z"/>
      <path class="cls-27" d="M431.63,342.11c-.85,2.78-1.93,5.49-3.25,8.08-3.25,7.15-14.92,10.79-21.02,6.35-3.48-2.55-6.17-6.03-7.75-10.04-.63-1.49-1.94-2.66-2.1-4.37,2.34-.96,4.67.61,6.82,1.03,4.18.79,8.2,2.34,12.56,2.1,4.23-.35,8.4-1.31,12.35-2.85.72-.3,1.49-.77,2.38-.3Z"/>
      <path class="cls-63" d="M427.99,270.32c.21-2.1.67-4.16,1.38-6.14.76-2.18,2.85-3.61,5.16-3.53,2.13-.21,3.39,1.4,4.11,3.29,1.62,4.32,1.49,9.11-.37,13.34-1.52,3.78-5.09,4.16-7.68,1.05-1.83-2.25-2.75-5.11-2.59-8.01Z"/>
      <path class="cls-41" d="M396.07,269.43c.09,2.25-.25,4.49-1,6.61-.58,2.23-2.86,3.57-5.1,2.99-.66-.17-1.26-.5-1.77-.96-3.11-2.1-4.18-6.1-2.94-11.02.28-.99.66-1.95,1.12-2.87.93-1.87,2.17-3.46,4.51-3.25,2.23.18,4.1,1.76,4.67,3.92.46,1.48.63,3.03.51,4.58Z"/>
      <path class="cls-30" d="M402.23,241.43c.35,1.39-.49,2.8-1.88,3.15-.22.06-.45.08-.69.08-7.12,1.16-14.07,3.2-20.69,6.07-1.12.44-2.34.49-2.97-.72-.63-1.21.23-2.08,1.14-2.78,5.9-4.32,12.5-7.58,19.52-9.62,3.76-1.21,5.56.21,5.56,3.83Z"/>
      <path class="cls-30" d="M424.65,243.14c-4.37,0-5.58-.91-5.35-4.13.12-1.92,1.14-2.69,2.94-2.9,2.67-.03,5.32.47,7.8,1.45,4.84,1.22,9.37,3.46,13.29,6.56.98.79,2.15,1.56,1.52,2.9-.63,1.33-2.2,1.12-3.41.63-4.09-2.03-8.46-3.44-12.96-4.18l-3.83-.33Z"/>
      <path class="cls-23" d="M385.63,326.96c-3.43,0-6.84-.21-10.28,0-2.1,0-2.66-.72-2.62-2.69.12-3.15,0-6.33,0-9.51.19-.54.35-1.1.65-1.99,3.9,6.47,10.09,9.88,16.51,13.87l-4.27.3Z"/>
      <path class="cls-36" d="M431.59,308.51c-2.2-.26-3.74-.35-5.28-.61-6.23-.86-12.54.82-17.52,4.67l-1.45,1.07c-1.12.84-2.34,1.54-3.39.14-1.05-1.4.19-2.15,1.31-2.99,6.85-5.61,15.89-7.79,24.54-5.93.58.14,1.17.26,1.75.44.89.21,1.45,1.09,1.26,1.99-.06.65-.58,1.17-1.24,1.21Z"/>
      <path class="cls-42" d="M435.02,252.6c3.99.37,7.59,2.53,9.81,5.86.58.79,1.47,1.89.44,2.73s-1.94-.26-2.64-1.14c-4.25-5.37-10.72-6.45-15.34-2.55-.9.81-1.61,1.81-2.08,2.92-.4.79-.98,1.28-1.84.93s-.89-1.28-.54-2.17c1.45-3.85,5.91-6.61,12.19-6.59Z"/>
      <path class="cls-52" d="M389.95,252.62c4.34-.4,7.5,2.03,10.35,5.07.61.65,1.19,1.4.28,2.34-.91.93-1.54,0-2.22-.47-2.08-1.75-3.92-3.88-7.01-4.09-4.23-.33-8.1,0-10.56,4.2-.37.63-.89,1.12-1.68.72-.74-.34-1.06-1.22-.72-1.95,0-.01,0-.02.01-.03.78-1.85,2.25-3.32,4.11-4.09,2.26-1.27,4.84-1.86,7.43-1.7Z"/>
      <path class="cls-24" d="M415.22,293.93c-1.55.19-3.12-.15-4.46-.96-.87-.5-1.18-1.6-.7-2.48.37-.77,1.29-1.09,2.06-.72.06.03.11.06.16.09,1.89.88,4.08.78,5.89-.26.72-.47,1.69-.27,2.17.45.07.11.13.22.17.34.39.8.06,1.76-.74,2.16-.01,0-.02.01-.03.02-1.28,1-2.89,1.48-4.51,1.35Z"/>
      <path class="cls-3" d="M413.86,283.73c1.17.84,3.71.26,3.74,2.85-.04.81-.73,1.44-1.54,1.4-.2,0-.39-.06-.56-.14-1.52-.56-3.97,0-4.09-2.62-.05-1.33,1.07-1.61,2.45-1.49Z"/>
      <path class="cls-65" d="M440.44,324.04c.4,2.22-.21,3.48-2.8,3.01-.94-.07-1.89-.07-2.83,0,1.41-1.7,3.43-2.78,5.63-3.01Z"/>
      <path class="cls-43" d="M373.74,185.34c-1.49-.63-.91-2.01-.93-3.04q0-5.91,5.75-5.91h22.7c.84,0,1.92-.49,2.55.61-3.97,3.78-6.92,8.49-8.59,13.71-1.35-.51-1.73-1.75-2.34-2.69-4.04-5.6-7.71-6.84-14.57-4.67-1.55.58-3.07,1.24-4.55,1.99Z"/>
      <path class="cls-10" d="M436.82,176.98c2.78-1.28,3.62-.86,3.64,1.87v1.77l-3.64-3.64Z"/>
      <path class="cls-58" d="M491.23,428.12c.68,1.47,1.75,3.01-.56,4.09h-146.52c-1.1,0-2.34.35-3.25-.49,0-1.89,0-3.78.21-5.67.21-3.01.84-3.57,3.78-3.69q4.23-.16,4.41-4.46c0-1.19.37-2.34.33-3.57,0-2.87,1.52-3.46,3.95-3.41,12.75.28,25.48,0,38.18,1.52,4.72.18,9.39,1.07,13.85,2.64l5.86,3.78c1.35,1.33,2.55,3.46,4.09,3.74,1.54.28,2.59-2.15,3.9-3.34,4.55-3.83,9.96-6.5,15.76-7.78,6.31-1.73,12.28-.4,18.38.47,7.04.6,14.12.78,21.18.54h4.67c1.56,0,2.57.72,2.52,2.48s0,3.11,0,4.67.44,2.13,2.03,2.34c5.86.37,5.86.42,7.22,6.17Z"/>
      <path class="cls-56" d="M462.74,397.02c1.69-1.37,3.61-2.43,5.67-3.13,2.01.63,3.22,2.45,5.02,3.39.86.44.68,1.05-.3,1.35-3.27,1.4-6.75,2.27-10.3,2.57-.02-1.38-.05-2.78-.09-4.18Z"/>
      <path class="cls-4" d="M254.99,278.85c-1.95.16-3.86.65-5.65,1.42-4.88,1.07-9.98.44-14.46-1.77-1.18-.49-2.39-.91-3.62-1.24.47-4.65.65-9.34.51-14.01,0-1.56-.49-2.66-2.1-3.04,0-.75.54-1.61-.23-2.17-2.1-1.79-3.89-3.91-5.3-6.28-1.21-1.63-3.69-1.61-5.65-2.13-2.38-.45-4.56-1.64-6.21-3.41-.71-.76-1.15-1.74-1.24-2.78-.3-5.49,5.84-10.93,11.14-9.69,1.26.3,1.73,0,2.01-1.19,1.17-4.67,2.5-9.11,3.43-13.73.33-1.56.91-1.92,2.34-1.99,12.98-.7,25.95-1.33,38.91-2.34,3.36-.23,6.7-.28,10.07-.56.65,0,1.24-.37,1.63.63,1.61,4.14,2.09,8.62,1.4,13.01-.61,3.99-.72,8.03-1.35,12.03-1.04,5.85-3.01,11.49-5.82,16.72-.65,1.01-1.05,2.17-1.17,3.36-.98-.75-1.61,0-2.15.58-4.67,4.67-10.46,7.4-16.16,10.37-2.48,1.35-2.71,6.56-.33,8.2Z"/>
      <path class="cls-64" d="M278.34,190.01c-4.55-4.61-9.74-8.54-15.41-11.68-.83-.33-1.52-.94-1.94-1.73,6.21,0,12.05-.26,17.94.26h0c.32,4.17.38,8.36.19,12.54,0,.47-.37.63-.77.61Z"/>
      <path class="cls-64" d="M212.15,183.75c-1.38-1.96-.47-4.11-.54-6.19.1-.3.35-.54.65-.63,3.04,0,6.12-.72,9.08.47l-9.2,6.35Z"/>
      <path class="cls-12" d="M278.92,176.95h-17.14c-.12.89,1.03.79,1.14,1.47-1.19-.12-2.3-.64-3.15-1.47.42-.56,1.03-.51,1.63-.51h15.88c.6-.12,1.21.08,1.63.51Z"/>
      <path class="cls-12" d="M278.34,190.01c1.1-1.45.49-3.11.54-4.67v-8.38c.44,0,1,.21.91.7-.42,3.92-.56,7.86-.44,11.79,0,.37-.42.72-.63,1.07l-.37-.51Z"/>
      <path class="cls-8" d="M535.82,232.77v-16.35c0-1.75.4-2.34,2.34-2.34h27.67c1.87,0,2.34.75,2.34,2.34v9.34c0,7.75-.21,15.48-.19,23.35,0,1.87-.33,2.76-2.52,2.73h-27.42c-1.82,0-2.34-.54-2.34-2.34.16-5.7.12-11.3.12-16.74Z"/>
      <path class="cls-8" d="M571.62,233.05v-16.53c0-1.68.33-2.34,2.34-2.34,9.14.09,18.27.09,27.39,0,1.66,0,2.34.44,2.34,2.17v33.33c0,1.54-.47,2.1-2.08,2.1h-28.16c-1.87,0-1.63-1.03-1.63-2.13l-.19-16.6Z"/>
      <path class="cls-5" d="M568,309v15.53c0,1.73-.56,2.34-2.34,2.22h-28.02c-1.61,0-2.06-.61-2.06-2.15v-31.32c0-1.4.33-1.96,1.87-1.94,9.34.09,18.75.09,28.21,0,1.8,0,2.17.68,2.15,2.34.14,5.25.19,10.23.19,15.32Z"/>
      <path class="cls-8" d="M603.47,309.42v15.51c0,1.35-.21,1.89-1.87,1.87-9.13-.14-18.26-.12-27.39,0-2.01,0-2.69-.51-2.66-2.59.09-10,.09-19.99,0-29.99,0-2.13.63-2.8,2.78-2.76h26.62c1.89,0,2.59.47,2.55,2.34-.09,5.28-.02,10.46-.02,15.62Z"/>
      <path class="cls-8" d="M535.82,193.25v-14.48c0-1.73.4-2.34,2.34-2.34h27.7c1.59,0,2.34.37,2.34,2.13.26,9.9.28,19.83,0,29.73,0,1.59-.63,2.06-2.17,2.03h-28.02c-1.73,0-2.2-.61-2.17-2.34.05-4.81,0-9.81,0-14.74Z"/>
      <path class="cls-8" d="M571.62,193.46v-14.5c0-1.8.37-2.64,2.34-2.62h27.16c1.68,0,2.34.51,2.34,2.2v29.78c0,1.21-.26,1.92-1.7,1.92h-28.73c-1.75,0-1.42-1.12-1.42-2.1,0-4.83.02-9.76.02-14.67Z"/>
      <path class="cls-8" d="M603.47,272.05v14.01c0,1.68-.51,2.34-2.34,2.13-9.06-.56-18.12-.21-27.18-.23-1.89,0-2.52-.51-2.5-2.48v-27.44c0-1.87.47-2.55,2.34-2.52h26.93c2.03,0,2.55.84,2.52,2.59.21,4.62.23,9.29.23,13.94Z"/>
      <path class="cls-8" d="M535.79,271.93c0-4.67.12-9.34,0-14.01,0-1.99.61-2.48,2.5-2.34h27.44c1.84,0,2.34.58,2.34,2.34v27.7c0,1.82-.58,2.34-2.34,2.34-9.34-.09-18.68-.09-28.02,0-1.75,0-1.94-.72-1.94-2.15.07-4.74.02-9.32.02-13.87Z"/>
      <path class="cls-54" d="M469.73,418.36c-15.04-2.2-29.85-2.01-44.37,4.67.66-1.52,1.99-2.64,3.6-3.04,8.36-2.34,16.77-4.55,25.53-4.27,5.09.16,10.16,1.05,15.25,1.59v1.05Z"/>
      <path class="cls-28" d="M362.81,416.26c4.02,0,7.71-.21,11.37,0,6.05.44,12.05,1.42,18.03,2.45,3.27.6,6.49,1.48,9.62,2.62.44.16.86.35.72.89s-.75.42-1.21.23c-8.03-3.34-16.6-3.71-25.08-4.83-3.78-.49-7.54-.3-11.3-.47-.7.02-1.38.37-2.15-.89Z"/>
      <path class="cls-9" d="M428.88,427.38c12.19-3.83,24.5-6.19,37.2-2.8-6.24-.16-12.42-1.68-18.68-.56-6.26,1.12-12.24,2.9-18.52,3.36Z"/>
      <path class="cls-11" d="M366.73,422.92c2.92,0,5.86-.19,8.78,0,7.08.32,14.1,1.53,20.88,3.62.25.08.49.17.72.28.44.28,1.49,0,1.12,1-.37,1-.93,0-1.45,0-5.71-1.8-11.61-2.92-17.59-3.34-4.18-.26-8.34-.82-12.52-1.21l.05-.35Z"/>
      <path class="cls-61" d="M249.5,236.34c-.19,1.84.21,4.09-2.48,4.34-2.29.08-4.22-1.71-4.3-4,0-.14,0-.29,0-.43-.02-1.55.3-3.08.93-4.48.98-2.57,2.1-2.8,4.04-.86,1.25,1.53,1.89,3.47,1.8,5.44Z"/>
      <path class="cls-17" d="M275.79,232.84c-.1.94-.25,1.86-.47,2.78-.29,1.23-1.43,2.06-2.69,1.96-1.16.01-2.15-.82-2.34-1.96-.63-1.79-.86-3.69-.68-5.58.16-1.17.35-2.48,1.73-2.92,1.38-.44,2.08.51,2.92,1.24,1.2,1.16,1.76,2.83,1.52,4.48Z"/>
      <path class="cls-2" d="M251.51,225.76c-.17.75-.84,1.28-1.61,1.26l-12.94,2.01c-.56,0-1.05,0-1.35-.44s0-.98.44-1.33c1.6-1.72,3.76-2.81,6.1-3.06,2.4-.13,4.8-.13,7.19,0,.98.01,1.85.64,2.17,1.56Z"/>
      <path class="cls-13" d="M269.96,221.86c2.89.33,5.7,1.11,8.34,2.34.8.22,1.29,1.01,1.14,1.82-.3,1.07-1.24.7-1.94.51-3.48-1-7.01-2.1-10.53-.49-.66.32-1.46.04-1.78-.63-.04-.08-.07-.17-.09-.26-.34-.9.05-1.91.91-2.34,1.19-.7,2.57-1.04,3.95-.96Z"/>
      <path class="cls-44" d="M257.3,253.65c-1.47-.1-2.78.9-3.08,2.34-.23.61-.51,1.52-1.38,1.12s-.42-1.21-.21-1.84c.31-1.82,1.61-3.32,3.36-3.9,1.82-.43,3.72.37,4.67,1.99.42.44.76.95,1.03,1.49.42,1.21,1.89,3.04.72,3.62-1.56.79-1.4-1.63-2.17-2.52-.77-.89-1.35-2.41-2.94-2.29Z"/>
      <path class="cls-35" d="M262.88,240.99c0,1.12,0,1.89-.86,2.06s-2.1.42-2.92-.42-.37-1.24.44-1.33c1.63-.19,1.38-1.12,1.05-2.2-.33-1.07-.7-2.66-1.07-3.99-.12-.51-.28-1.07.3-1.33s1,.23,1.14.7c.72,2.29,1.35,4.6,1.92,6.52Z"/>
      <path class="cls-66" d="M145.76,152.55c4.09-1.96,258.04-113.76,258.04-113.76l266.54,118.36v-38.04L406.55,0,145.76,116.4v36.15Z"/>
      <rect class="cls-66" x="11.94" y="452.86" width="717.18" height="51.94"/>
    </g>
  </g>
</svg>