<?xml version="1.0" encoding="UTF-8"?>
<svg id="Layer_2" data-name="Layer 2" xmlns="http://www.w3.org/2000/svg" viewBox="0 0 622.24 634">
  <defs>
    <style>
      .cls-1 {
        fill: #e7c389;
      }

      .cls-1, .cls-2, .cls-3, .cls-4, .cls-5, .cls-6, .cls-7, .cls-8, .cls-9, .cls-10, .cls-11, .cls-12, .cls-13, .cls-14, .cls-15, .cls-16, .cls-17, .cls-18, .cls-19, .cls-20, .cls-21, .cls-22, .cls-23, .cls-24, .cls-25, .cls-26, .cls-27, .cls-28, .cls-29, .cls-30, .cls-31, .cls-32, .cls-33, .cls-34, .cls-35, .cls-36, .cls-37, .cls-38, .cls-39, .cls-40, .cls-41, .cls-42, .cls-43, .cls-44, .cls-45, .cls-46, .cls-47, .cls-48, .cls-49, .cls-50 {
        stroke-width: 0px;
      }

      .cls-2 {
        fill: #504143;
      }

      .cls-3 {
        fill: #d2e9f0;
      }

      .cls-4 {
        fill: #363461;
      }

      .cls-5 {
        fill: #f2e2e5;
      }

      .cls-6 {
        fill: #40795c;
      }

      .cls-7 {
        fill: #46436c;
      }

      .cls-8 {
        fill: #cf9b74;
      }

      .cls-9 {
        fill: #9f5c35;
      }

      .cls-10 {
        fill: #e2846c;
      }

      .cls-11 {
        fill: #32221e;
      }

      .cls-12 {
        fill: #f47f70;
      }

      .cls-13 {
        fill: #dd997a;
      }

      .cls-14 {
        fill: #db9874;
      }

      .cls-15 {
        fill: #d7e5db;
      }

      .cls-16 {
        fill: #83b263;
      }

      .cls-17 {
        fill: #d0e9ef;
      }

      .cls-18 {
        fill: #f6fcfb;
      }

      .cls-19 {
        fill: #1c7152;
      }

      .cls-20 {
        fill: #f1e4e8;
      }

      .cls-21 {
        fill: #d1e9f0;
      }

      .cls-22 {
        fill: #f5fbfa;
      }

      .cls-23 {
        fill: #ec8376;
      }

      .cls-24 {
        fill: #436d86;
      }

      .cls-25 {
        fill: #659aa6;
      }

      .cls-26 {
        fill: #599f8f;
      }

      .cls-27 {
        fill: #5d945f;
      }

      .cls-28 {
        fill: #a4cbd0;
      }

      .cls-29 {
        fill: #e46b6b;
      }

      .cls-30 {
        fill: #f7faf7;
      }

      .cls-31 {
        fill: #cc823f;
      }

      .cls-32 {
        fill: #d89374;
      }

      .cls-33 {
        fill: #44416c;
      }

      .cls-34 {
        fill: #875451;
      }

      .cls-35 {
        fill: #f9b972;
      }

      .cls-36 {
        fill: #434069;
      }

      .cls-37 {
        fill: #846a4a;
      }

      .cls-38 {
        fill: #f9f9fa;
      }

      .cls-39 {
        fill: #fefefe;
      }

      .cls-40 {
        fill: #83b264;
      }

      .cls-41 {
        fill: #121415;
      }

      .cls-42 {
        fill: #8f6d57;
      }

      .cls-43 {
        fill: #846b4a;
      }

      .cls-44 {
        fill: #60584d;
      }

      .cls-45 {
        fill: #ebede3;
      }

      .cls-46 {
        fill: #5c947d;
      }

      .cls-47 {
        fill: #478eb7;
      }

      .cls-48 {
        fill: #84b263;
      }

      .cls-49 {
        fill: #a8a0b4;
      }

      .cls-50 {
        fill: #de9673;
      }
    </style>
  </defs>
  <g id="illustrazioni">
    <g>
      <path class="cls-28" d="M582.53,349.49c1.54,2.76,3,5.55,4.61,8.26,9.39,15.77,17.39,32.2,23.17,49.63,4.39,13.17,8.09,26.53,9.93,40.32.94,7.03,1.46,14.15,1.77,21.22.34,5.76.32,11.53-.07,17.28-1.11,15.3-5.26,30.23-12.23,43.9-6.7,13.34-14.78,25.95-24.1,37.62-11.15,13.92-25.41,25.03-41.64,32.44-18.73,8.63-38.36,15.13-58.54,19.37-10.87,2.24-21.81,4.15-32.77,5.85-8.4,1.32-16.88,2.2-25.35,3.09-8.64.91-17.3,1.65-25.95,2.4-8.27.73-16.54,1.35-24.81,2.06-17.56,1.46-35.17,1.05-52.77.89-7.51-.07-15.03-.47-22.53-1-8.1-.58-16.19-1.34-24.26-2.29-10.69-1.24-21.39-2.54-32.03-4.17-10.64-1.63-21.47-3.5-32.12-5.69-13.73-2.84-27.49-5.67-41.04-9.28-21.12-5.63-41.83-12.59-61.3-22.68-13.17-6.86-25.55-15.02-36.02-25.72-6.73-6.89-12.22-14.69-15.62-23.79-4.39-11.71-3.84-23.5-.23-35.36,3.83-12.54,10.8-23.14,19.29-32.93,8.49-9.78,18.25-18.38,27.75-27.2,8.25-7.67,16.49-15.37,24.4-23.37,7.2-7.32,13.6-15.31,18.07-24.66,2.78-5.64,4.3-11.82,4.44-18.1.13-8.78-3.07-16.54-8.17-23.58-7.46-10.3-16.87-18.6-27.32-25.65-14.2-9.59-28.78-18.59-42.91-28.26-8.99-6.15-17.61-12.88-26.12-19.68-15.21-12.24-26.63-27.65-35.58-44.86-5.47-10.67-9.17-22.16-10.98-34.01-1.28-7.64-1.75-15.4-1.4-23.14.34-5.19,1.71-10.26,4.02-14.92,3.82-7.99,8.91-15.17,13.9-22.41,3.08-4.46,6.3-8.78,9.46-13.21,3.38,1.33,6.82,1.08,10.24.6.48-.14.97-.24,1.46-.28,5.22.31,10.39-1.16,15.56-.65,4.15.41,8.34.31,12.44,1.07,3.48.64,6.99-.07,10.48-.31.68-.05,1.35-.18,2.03-.18,4.99.1,9.9-.67,14.84-1.23,3.43-.39,6.9-.08,10.35-.13,2.49,0,2.83-.44,2-2.83-1.89-5.44-3.66-10.98-6.59-15.94-2.5-4.19-6.25-5.98-11.11-5.56-4.42.42-8.61,2.15-12.03,4.98-1.82,1.43-2.2,1.32-3.05-.73-2.2-5.12-4.94-9.79-9.02-13.63-.4-.37-.87-.73-.8-1.42,4.51-3.58,9.03-7.16,13.54-10.75,9.25-7.32,18.17-15.08,28.25-21.32,4.71-2.93,8.97-6.59,13.75-9.31,10.44-6.02,21.73-10.2,33.01-14.36,18.45-6.71,37.32-12.2,56.49-16.44,9.11-2.06,18.37-3.47,27.59-5,7.49-1.25,15.02-2.31,22.54-3.32,4.34-.58,8.7-1.02,13.06-1.37,7.84-.62,15.7-1.42,23.55-1.67,9.37-.3,18.76-.18,28.15-.16,4.19,0,8.38.14,12.56.41,7.03.45,14.09.79,21.08,1.68,10.6,1.35,21.22,2.79,31.72,4.81,21.71,4.19,43.23,9.21,63.54,18.29,7.98,3.57,15.79,7.54,23.68,11.33l2.13,1.02c.39.73-.18,1.17-.51,1.65-4.81,6.92-9.1,14.2-13.9,21.13-4.19,6.06-8.61,11.93-14.01,16.99-1.46,1.38-2.09,1.35-3.9.37-4.82-2.6-9.42-5.61-14.58-7.59-4.15-1.58-8.71-1.72-12.94-.4-4.82,1.39-9.14,4.15-12.44,7.93-.53.59-.67,1.46-1.41,1.87-7.04,1.38-12.72,5.04-17.44,10.32-.5.61-.96,1.26-1.36,1.94-2.2,3.4-4.39,6.77-5.17,10.92-.44,2.43-1.52,4.73-2.1,7.15-.61,2.54-.45,2.85,2.2,2.85h51.95c.91,0,2.2.44,2.64.04,1.46-1.27,3.06-.67,4.55-.68,12.79-.07,25.57,0,38.37-.04.78.1,1.57.02,2.31-.23.3-1.02-.67-1.71-.55-2.63.37-1.21,1.46-1.73,2.42-2.2,8.49-4.24,17.08-3.37,23.99,3.85.3.31.5.78,1.21.65.42-.94-.28-1.54-.84-2.07-7.38-6.98-16.6-7.96-25.61-3-.64.34-1.17.9-1.96.92-.67-.18-1.2-.68-1.4-1.34-.89-2.04-2.5-3.57-3.71-5.37-.31-.45-.93-.81-.73-1.46s1-.59,1.6-.64c.28,0,.56-.05.84-.06,6.52-.35,13.02.18,19.49.78,5.36.5,10.73,1.4,16.1,2.13,1.63.23,3.27.36,4.91.5,1.64.15,3.45.57,5.19.77,3.98.44,7.95,1.02,11.94,1.46,5.4.57,10.79,1.18,16.24.56.82-.1,1.71-.23,2.38.51,1.52,4,3.21,7.95,4.54,12.01,2.64,8.33,4.52,16.88,5.62,25.55,1.16,8.06,1.58,16.21,1.25,24.34-.37,7.83-.85,15.69-1.98,23.42-1.82,12.48-4.39,24.88-6.31,37.32-1.2,7.84-1.92,15.78-2.51,23.7-.97,13.1.96,25.88,4.8,38.41-1.39,1.22-3.23,1.21-4.87,1.7-5.09,1.61-9.92,3.95-14.33,6.97-2.52,1.35-4.54,3.37-6.78,5.12-4.32,3.31-4.98,3.4-9.14-.05-2.48-2.14-5.22-3.96-8.16-5.41-5.31-2.55-11.36-3.09-17.03-1.52-6.9,1.75-13.23,5.28-18.34,10.24-2.45,2.33-4.4,5.14-5.73,8.25-.58,1.33-2,2.09-3.43,1.81-1.93-.41-3.94.14-5.41,1.46-.64.57-1.23,1.18-1.76,1.84-1.16,1.46-2.44,2.29-4.39,1.46-.88-.24-1.81-.24-2.69,0-6.43.97-12.72,2.69-19.14,3.66-3.17.5-6.44.35-9.62.94s-6.23,1.19-8.9,3.09c-1.82,1.3-1.74,1.89.31,2.88,1.17.59,2.44.95,3.74,1.05,2.71.15,5.36.87,8.05.88,4.74.12,9.46.52,14.15,1.21,2.2.28,4.39.05,6.59.15.8,0,1.76-.17,2.14.92-.08,1.65,11.48-9.51,10.36-8.69-3.1,2.2,56.42,11.06,57.24,9.01.67-.39,2.27,2.78,3,2.76,5.41-.05,10.82.33,16.17,1.14,4.03.53,8.09.82,12.15.87,7.18.08,14.36,0,21.54,0,2.2,0,4.39-.37,6.59-.5.76.04,1.51-.16,2.11.46Z"/>
      <path class="cls-43" d="M552.77,113c-1.51.1-3.03.25-4.55.26-6.69.04-13.38-.49-19.98-1.59-2.55-.42-5.12-.52-7.72-.8-1.78-.2-3.55-.42-5.33-.69-4.27-.63-8.54-1.32-12.81-1.93-2.11-.3-4.22-.61-6.34-.73-6.59-.31-13.17-.53-19.76-.78-2.93.52-4.57-1.65-6.45-3.25-4.73-4.02-9.91-7.07-16.19-8.05-9.01-1.39-18.23,0-26.44,3.96-.31.15-.6.31-.89.49-2.55,1.52-2.6,1.46-3.99-1.22-2.2-4.31-5.01-8.05-9.51-10.24-1.8-.82-3.76-1.23-5.74-1.19-.5,0-1.02.23-1.46-.19.13-.52.33-1.01.61-1.46,2.82-3.51,6.53-6.2,10.73-7.81,5.31-1.92,10.74-2.54,16.02.07,4.74,2.34,9.41,4.84,14.03,7.41,1.28.73,2.11.83,3.23-.26,5.48-5.41,10.36-11.4,14.55-17.86,4.71-7.14,9.44-14.28,14.17-21.4.05-.1.08-.21.09-.32l8.85-13.11c.22-.32.46-.64.69-.96,1.03-.35,1.08.58,1.32,1.1,1.18,2.63,2.05,5.39,3.1,8.05,1.32,3.44,3.2,6.64,5.58,9.45,1.89,2.2,4.17,3.58,7.24,3.4,1.19-.03,2.34-.44,3.28-1.19,3.34-2.71,6.33-5.82,8.91-9.27,2.57-3.47,5.74-6.45,9.37-8.78,1.33-.86,2.83-1.41,4.39-1.61,2.38-.28,3.8,1.21,4.85,3.05,1.18,2.25,2.16,4.61,2.93,7.03,1.05,2.93,2.07,5.85,3.85,8.47,1.74,2.54,4.16,4.53,6.98,5.75,1.85.75,3.91.83,5.82.25.64-.17,1.26-.58,1.96-.28,1.2,4.22,2.3,8.47,3.61,12.64,2.87,9.14,5.89,18.23,8.78,27.36,1.55,4.92,1.34,10.05,1.21,15.13,0,.42-.86,1.24-1.18,1.17-5.94-1.11-11.86-.12-17.78-.07Z"/>
      <path class="cls-37" d="M453.18,344.39c-.23-.14-.47-.25-.73-.32-4.16-.25-8.33-.42-12.49-.73-4.82-.37-9.64-.78-14.45-1.32-2.43-.32-4.83-.81-7.19-1.46-.8-.24-1.45-.84-1.76-1.62-.11-.46.8-1.31,1.41-1.77,3.52-2.63,7.72-3.22,11.9-3.66,5.04-.52,10.06-.89,14.99-2.25,3.82-.93,7.7-1.63,11.61-2.11,1.06-.16,2.2.26,3.31.31.57.06,1.14-.07,1.62-.37,1.07-.91,1.98-1.99,2.99-2.93,1.74-1.78,4.37-2.37,6.71-1.5,1.46.49,1.79-.73,2.11-1.53,1.42-3.5,3.63-6.64,6.45-9.15,4.62-4.29,10.14-7.49,16.15-9.37,5.01-1.59,10.11-2.03,15.15-.58,4.08,1.08,7.85,3.09,11.03,5.85,1.27,1.2,2.62,2.31,4.05,3.31.7.39,1.54.44,2.28.13,2.2-1.29,4.23-2.77,6.29-4.23,1.42-1,2.79-2.08,4.17-3.12,1.89,1.1,2.8,3.06,4.1,4.68,3.51,4.39,7.02,8.71,11.71,11.91,5.12,3.47,10.15,3.21,15.22,0,3.05-1.93,6.04-3.94,9.41-5.36,3.57-1.56,7.64-1.53,11.19.07,1.72.73,3.48,1.37,5.12,2.25,2.73,1.46,5.94,1.72,8.87.73.73-.23,1.46-.6,2.26,0,5.3,8.35,9.44,17.39,12.31,26.85.11.44.26.87.43,1.28.62,1.35,0,2.09-1.19,2.67-3.05,1.46-6.11.85-9.27.37-7.24-1.12-14.46-2.52-21.84-2.27-1.52.05-3.04.23-4.56.36-9.65.22-19.3.54-28.95.61-4.5,0-9.09,0-13.49-.79-6.1-1.11-12.2-1.19-18.34-1.21"/>
      <path class="cls-37" d="M495.05,343.97c-.82.73-1.54.48-2.2-.24"/>
      <path class="cls-48" d="M558.13,56.84c-5.81,2.84-10.98-.2-14.63-4.77-2.8-3.51-3.8-7.9-5.44-11.97-.44-1.1-.87-2.2-1.37-3.28-2.11-4.54-4.76-4.81-8.89-2.44-4.13,2.37-7.19,5.85-10.2,9.51-2.5,3.02-5.5,5.63-8.17,8.52-2,2.2-6.94,1.62-8.99,0-3.86-3.04-6.11-7.16-7.9-11.58-1.17-2.87-2.2-5.79-3.37-8.67-.12-.31-.47-.54-.73-.8,3.74-5.01,7.12-10.35,11.31-14.95,6.59-7.32,14.63-12.74,24.29-15.37,3.61-.98,7.37-1.27,11.09-.86,5.19.59,8.71,3.86,10.87,8.25,1.85,3.8,3.25,7.79,4.19,11.91,1.84,7.95,3.18,16.02,4.84,24.02.94,4.21,2.09,8.33,3.1,12.48Z"/>
      <path class="cls-43" d="M64.36,91.57c5.12,4.5,8.52,10.16,10.89,16.44,2.3-1.46,4.43-2.93,6.7-4.16,3.68-2.03,7.99-2.63,12.09-1.68,3.16.78,5.76,3.01,7.01,6.01,2,4.46,4,8.93,5.85,13.46.66,1.65.8,3.49,1.25,5.57h-6.22c-5.47-.08-10.94.35-16.33,1.29-.11,0-.22,0-.34,0-5.12.22-10.24.68-15.37.6-4.43-.07-8.85-.86-13.28-1.12-2.53-.07-5.06,0-7.59.19-1.01.04-2.01.26-3.02.31-4.96.25-9.92.52-14.88.66-1.27,0-2.76.15-3.54-1.34.49-5.57.83-11.15,1.52-16.7.73-5.86,3.72-11.19,8.34-14.86,4.51-3.92,10.04-6.46,15.95-7.32,4-.53,7.72-.09,10.95,2.63Z"/>
      <path class="cls-48" d="M606.67,320.23c-1.87.34-3.75,1-5.62.95-1.94-.16-3.85-.59-5.67-1.3-1.86-.63-3.61-1.58-5.43-2.36-5.01-2.14-9.6-.83-14.03,1.73-2.98,1.72-5.85,3.66-8.92,5.16-4.15,2.06-8.19,1.27-12.05-1.08-4.29-2.6-7.45-6.38-10.64-10.11-1.98-2.3-3.7-4.82-5.55-7.24,2.47-1.46,4.83-3.15,7.43-4.3,3.04-1.33,6.29-2.2,9.45-3.23.83-.27,1.68-.48,2.52-.73,6.1-1.49,12.4-2.05,18.67-1.66,8.62.4,16.58,4.73,21.6,11.75,2.97,4,5.5,8.27,8.23,12.4Z"/>
      <path class="cls-43" d="M232.93,511.14l-.73.04c-1.24-.15-1.65-1.26-2.33-2.04-3.94-4.55-8.78-7.21-14.93-6.97-4.53.18-8.31,2.31-11.67,5.2-.95.71-1.84,1.51-2.64,2.38-1,1.23-2.2,1.73-3.7,1.15-5.4-.35-10.82-.59-16.19-1.1-4.75-.46-9.46-1.25-14.19-1.89-.45-.05-.9-.08-1.35-.07h-21.44c-3.94,0-7.88.04-11.82.07-.98.65-2.08.38-3.14.41-3.45,0-6.91.07-10.36,0-1.39-.07-2.83.34-4.14-.42-1.13,0-2.27,0-3.4-.07-5.73-.42-11.46-.87-17.17-1.32-2.41-.2-4.84-.37-7.21-.78-2.58-.43-5.12-1.16-7.65-1.68-2.86-.59-5.74-1.05-8.58-1.7-.78-.18-1.42-.88-2.12-1.35.49-.51.89-1.21,1.46-1.51,6.42-3.31,12.78-6.77,19.35-9.72,3.97-1.79,8.17-1.65,11.58,1.7.94.92,1.64.86,2.34-.1,1.93-2.66,3.92-5.28,5.72-8.05,2.02-3.1,4.49-5.12,8.44-4.72.79.05,1.58.05,2.37,0,.94-1.87,1.77-3.48,2.57-5.12,1.38-2.8,3.87-3.9,6.72-4.45,1.38-.26,2.77-.5,4.16-.67,2.57-.32,4.59.8,6.34,2.54l9.28,9.18c-.07-3.13,2.49-4.83,3.57-7.32,1.09-.51,1.85.15,2.53.81,1.43,1.29,2.76,2.68,4,4.16,1.06,1.25,2.2,2.44,3.42,3.54,4.27,4.21,8.17,4.47,13.02.9,1.22-1.01,2.51-1.94,3.85-2.78,3.34-2.03,7.39-2.49,11.1-1.28,3.5,1.13,7.02,1.13,10.32-.86.2-.11.43-.14.66-.11,1.08,1.64,2.2,3.26,3.24,4.91.27.42.45.91.67,1.35,1.16,2.3,1.09,1.9,3.7,1.46,6.59-1.09,13.33-2.33,19.48,1.77,2.93,1.93,4.92,4.71,6.81,7.58.64.98,1.13,1.53,2.6,1.46,3.19-.2,6.49-.83,9.51,1.08,2.2,1.38,3.48,3.39,4.62,5.6.5,1.07,1.09,2.08,1.76,3.04.78,1.01.3,1.67-.51,2-1.61.77-3.31,1.34-5.06,1.68-4.39.64-8.78,1.01-13.17,1.46-.15,0-.29.18-.42.26-.37.43-.85.14-1.27.36Z"/>
      <path class="cls-48" d="M405.53,87.08c4.98-.93,9.04.91,12.21,4.53,2.38,2.72,4.28,5.85,6.31,8.71,3.07-1.23,6.37-2.62,9.72-3.86,5.68-2.11,11.53-2.06,17.5-1.64,7.61.53,13.75,3.9,19.26,8.82.78.82,1.64,1.56,2.58,2.2.99.42,2.03.74,3.09.94l-1.81.15,5.63,8.05c.53.45.88,1.08.97,1.78l1.51,3.66h-2.35c-14.21,0-28.45-.53-42.62.19-9.42.48-18.8.25-28.19.44-9.56.19-19.13.04-28.71.04h-2.47c.37-2.09.55-4,1.05-5.81.73-2.63,1.92-5.12,2.45-7.81.48-2.42,2.06-4.1,3.16-6.09,2.44-4.39,5.96-7.65,10.16-10.4,2.65-1.73,5.56-2.57,8.36-3.79.72-.16,1.46-.19,2.19-.1Z"/>
      <path class="cls-12" d="M172.22,214.15c4.86.04,9.72,0,14.58.15,2.63.07,5.27.32,7.89.61,1.08.12,1.72.77,1.16,2-1.64,3.66-3.29,7.32-4.87,11.03-.48,1.12-.8,2.3-1.2,3.45-16.1-2.06-32.32-.41-48.47-1.07-17.99-.73-35.99-.47-53.98-.73-5.71-.07-11.42-.37-17.13-.07-.28.01-.57-.04-.83-.15-1.35-3.51-2.69-7-4.05-10.5-.5-1.29-1.1-2.53-1.55-3.83-.59-1.71.35-2.93,2.3-2.93h17.14c2.93,1.17,6,.8,9.03.81h25.61c7.58,0,15.15.3,22.73.47,9.62.22,19.22.18,28.84.21,1,.05,1.96-.14,2.8.53Z"/>
      <path class="cls-40" d="M603.48,344.39c-.85-.39-1.67-.85-2.45-1.37-6.34-5.07-13.37-8.2-21.65-8.2-6.45,0-11.3,2.93-15.23,7.78-.45.56-.92,1.1-1.51,1.8-3.78-4.1-8.64-5.24-13.75-5.06-5.85.21-10.64,2.65-13.41,8.17-.12.23-.38.4-.57.59-.61,1.4-1.16,2.84-1.89,4.18-.2.36-.94.56-1.46.59-1.87.06-3.74,0-5.61,0-3.9-.05-7.7,1.25-10.76,3.66-1.79,1.41-3.78,2.55-5.61,3.91-.45.48-.81,1.03-1.08,1.63.73.3,1.62,1.02,2.2.84,3.34-1.07,6.75-1.11,10.24-1.25,2.79-.12,5.54-.88,8.33-1.18,1.85-.2,3.73,0,5.6-.13,3.06-.05,6.11-.3,9.14-.73,6.59-1.24,13.26-.3,19.88-.59,2.82-.12,5.66,0,8.49,0,10.19-.2,20.39-.61,30.57-.51,2.69,0,5.44.52,8.19.51s3.01-.73,2.02-3.15c-1.49-3.78-4.12-6.43-7.34-8.69-.99-.67-1.57-1.84-2.32-2.77Z"/>
      <path class="cls-16" d="M196.94,510.9c2.82.49,3.8-2.1,5.45-3.42,2.89-2.31,5.85-4.39,9.51-5.28,5.23-1.35,10.79-.05,14.88,3.48,1.91,1.74,3.73,3.57,5.44,5.51.73,1.52,1.46,3.07,2.2,4.57s1.24,3.58,2.36,3.98,2.8-1.1,4.27-1.7c2.84-1.17,5.64-2.47,8.78-2.77,2.09-.2,4.19-.58,6.28-.62,3.31-.06,6.1,1.32,8.58,3.47,2.37,2.05,4.22,4.64,5.38,7.55.4,1.26.71,2.54.92,3.85.24,1.03.51,2.06.86,3.41-.31.45-3.83,1.21-4.53.62-.18-.15-.29-.53-.43-.53-7.68-.26-15.37-.48-23.06-.73-6.47-.21-13.01,0-19.39-.86-4.31-.6-8.61.22-12.78-.59-4.95-.96-9.94-.05-14.82-.73-1.46-.21-3.01-.21-4.46-.56-.45-.19-.78-.6-.86-1.08.08-1.48.3-2.95.66-4.39.56-2.46,1.33-4.87,2.3-7.19.89-1.92,2.41-3.55,3.66-5.34l-1.19-.64Z"/>
      <path class="cls-20" d="M172.22,214.15c-8.88,0-17.77,0-26.66-.06-5.85,0-11.71-.2-17.61-.26-13.86-.14-27.72-.21-41.57-.42-1.07,0-2.11-.82-3.18-1.26v-7.32c0-1.46.93-2.06,2.3-2.11,2.65-.11,5.31-.29,7.95-.31,6.96-.07,13.9-.07,20.88-.1,2.38,0,2.31,0,2.41-2.47.19-4.79.45-9.59.73-14.39.07-1.27.66-2.3,1.97-2.39,2.69-.18,5.4-.16,8.1-.23.5,2.09.18,4.21.42,6.33.37,3.07.51,6.16.45,9.26-.06,2.41.28,2.69,2.74,3.02.4,0,.78.15,1.09.4,6.89-.15,13.76-.34,20.65-.45,5.94-.09,11.88-.12,17.82-.05.57,0,1.4.84,1.65,1.46.24.93.34,1.88.3,2.84.1,1.68.31,3.37.25,5.06-.13,1.16-.36,2.3-.7,3.42Z"/>
      <path class="cls-6" d="M523.88,488.83c1.94-.27,3.89-.48,5.85-.83,5.85-1.06,11.71-2.2,17.51-3.27.83-.13,1.63-.38,2.39-.73,2.69-.53,5.39-1.04,8.05-1.62,4.77-1.02,9.54-2.07,14.31-3.15,3.01-.73,5.98-1.53,8.99-2.2,1.31-.31,2.65-.47,4-.47.74.04,1.43.39,1.89.97.19.3-.34,1.35-.81,1.77-3.9,3.46-7.86,6.88-11.87,10.24-1.11.84-2.27,1.62-3.47,2.33-1.38-.54-2.69-.13-3.96.33-4.95,1.81-10.16,2.06-15.33,2.49-2.2.18-4.39.52-6.59.83-5.25.73-10.49,1.52-15.73,2.36-5.68.91-11.36,1.81-17.1,2.35-2.59.16-5.17.5-7.71,1.02-1.28.22-2.59.3-3.89.24-1.37-.09-2.72.34-3.78,1.21-4.81.25-8.7-1.74-12.04-5.03-1.13-1.1-2.28-2.2-3.31-3.39s-.69-2.54.94-2.83c1.76-.35,3.55-.55,5.35-.61,5.48-.08,10.98.16,16.43-.11,5.85-.29,11.71-1.02,17.61-1.57.75-.17,1.51-.28,2.28-.35Z"/>
      <path class="cls-18" d="M523.88,488.83l-2.23.36c-.14-1.76-.29-3.52-.45-5.45h-9.93c-2.38,0-4.75.19-7.13.23-6.9.14-13.81.27-20.72.32-.73,0-1.55-.58-2.33-.89.42-.73.68-1.66,1.29-2.2,12.85-10.39,25.74-20.72,38.58-31.11.49-.49.78-1.14.81-1.84.1-2.82,0-5.66.11-8.49,0-.78.48-2.01,1.02-2.2.89-.12,1.79.15,2.47.73,1.84,1.51,3.6,3.12,5.25,4.82.52.53.79,1.26.73,2-.08.39-1.15.73-1.79.79-1.62.11-3.26,0-5.27,0-.17,14.47-.3,28.68-.43,42.9Z"/>
      <path class="cls-48" d="M200.99,477.23c-2.93,2.55-6.31,2.36-9.75,1.78-1.66-.28-3.27-.92-4.93-1.04-3.56-.25-6.59,1.27-9.32,3.38-.85.64-1.68,1.32-2.58,1.91-4.57,3.01-7.75,2.71-12.19-1.17-2.67-2.33-4.91-5.12-7.44-7.64-.82-.64-1.72-1.17-2.67-1.6,2.14-1.91,4.06-4.17,6.48-5.63,2.04-1.23,4.65-1.46,6.99-2.25,4.27-1.42,8.67-1.26,13.08-1.38,4.17-.06,8.29.97,11.94,2.99,3.51,1.76,6.47,4.45,8.56,7.78.59.97,1.23,1.91,1.84,2.86Z"/>
      <path class="cls-38" d="M130.85,159.46c-.49,1.24-.9,2.52-1.46,3.72-.41.83-.58,1.41.11,2.26,1.36,1.62,1.56,3.92.52,5.76-1.59,2.85-3.37,5.6-5.31,8.22-.37.52-1.5.73-2.27.73-1.02-.04-1.46-.86-1.1-1.84.5-1.39-.1-2.13-1.32-2.64-1.21-.51-2.27-1.02-3.39-1.56-2.93-1.42-3.89-3.26-3.66-6.51-.02-.77-.28-1.52-.73-2.14-2.25-3.48-2.39-6.82.32-10.16.34-.57.48-1.23.39-1.89-.29-3.29.54-6.58,2.35-9.34,1.76-2.67,5.05-2.93,6.67-.19,1.12,2.07,1.93,4.28,2.41,6.59.37,1.54.51,2.77,2.39,3.32,2.44.67,3.88,3.09,4.08,5.67Z"/>
      <path class="cls-10" d="M496.67,502.74c-.19-.99.33-1.3,1.21-1.39,2.93-.3,5.85-.61,8.73-.96,5.12-.64,10.24-1.27,15.42-1.97,5.17-.7,10.24-1.46,15.37-2.2,6.53-.89,13.04-1.92,19.6-2.5,4.08-.46,8.09-1.34,11.99-2.61.46-.14,1.16.51,1.75.8-.78.73-1.52,1.51-2.36,2.15-2.56,1.95-5.21,3.78-7.73,5.78-3.48,2.77-7.16,4.84-11.8,4.64-2.71-.12-5.44,0-8.15-.1-5.04-.2-10.08-.45-15.13-.73-2.5-.14-5.01-.56-7.51-.51-5.12.08-10.32.49-15.48.53-1.96.02-3.93-.59-5.89-.94Z"/>
      <path class="cls-22" d="M549.61,484.06c-.57,1.02-1.33,1.38-2.39.73-.1-2.2-.21-4.39-.28-6.59-.04-1.4,0-2.8,0-4.21h-9.82c-1.24,0-2.5.23-3.72.14-2.4-.18-3.07-1.57-1.83-3.59,4.05-6.61,8.11-13.21,12.17-19.81.91-1.46,1.96-2.89,2.88-4.39.23-.44.34-.93.31-1.43,0-1.98-.04-3.97.04-5.94,0-.61.3-1.54.73-1.7.68-.17,1.4-.04,1.98.35.74.6,1.4,1.3,1.96,2.08,1.18,1.46,2.36,2.89,3.47,4.39.91,1.25.56,2.15-.97,2.41-1.12.15-2.26.2-3.39.17-.88,0-1.21.33-1.18,1.2.05,1.41.04,2.82.07,4.24.13.17.2.38.2.6-.05,8.33-.05,16.66,0,24.99.01.22-.04.43-.17.61l-.06,5.76Z"/>
      <path class="cls-5" d="M69.37,229.42c1.54-.27,3.1-.45,4.67-.53,16.68.09,33.37.21,50.06.38,18.54.19,37.07.41,55.61.67,2.31,0,4.63.13,6.93.37,1.08.24,2.12.61,3.11,1.1-.56,1.46-1.64,1.87-3.15,1.85-9.45-.09-18.89-.07-28.34-.15-7.85-.07-15.71-.19-23.57-.3-9.55-.12-19.11-.28-28.65-.38-11.03-.12-22.06-.22-33.08-.3-2.7-.02-2.78-.05-3.58-2.71Z"/>
      <path class="cls-3" d="M311.12,370.99c-2.64-.73-5.03-1.24-7.32-2.08-3.1-1.15-6.11-1.4-9.22-.1-1.77.77-3.83.37-5.17-1.02-1.08-.92-2.21-1.76-3.4-2.53-2.93-2-5.89-2.06-8.78.15-.8.62-1.6,1.27-2.42,1.86-2.14,1.54-2.81,1.46-4.74-.2-.26-.22-.48-.48-.73-.68-3.2-2.3-4.39-2.33-7.07-.66-1.59.98-3.16,1.99-4.68,3.05-1.88,1.31-3.1,1.35-4.95,0-.97-.68-1.92-1.38-2.88-2.09-4.49-3.31-9-2.54-13.52-.1-.76.39-1.5.83-2.2,1.32-1.12.82-2.08.59-3.08-.2-1.32-1.05-2.68-2.08-4.06-3.05-1.79-1.27-3.71-1.71-5.69-.45-1.75,1.01-3.41,2.16-4.98,3.45-2.46,2.2-4.62,2.44-7.14.26-.85-.75-1.63-1.57-2.36-2.44-2.49-2.93-3.58-3.08-6.75-1.02-.52.34-.93.84-1.46,1.13-.43.15-.88.24-1.33.26-.06-.47-.31-1.02-.14-1.38,1.46-3.06,7.05-4.21,9.56-1.95,1.17,1.05,2.12,2.35,3.25,3.46,2.02,1.99,3.14,1.77,5.31,0,2.05-1.66,4.31-3.05,6.71-4.15,2.45-1.1,4.9-.07,6.72,1.62,2.53,2.36,4.57,2.98,7.91.9,3.72-2.31,8.18-3.06,12.4-.4,1.54.86,3,1.84,4.39,2.93,1.35,1.16,2.33.83,3.58-.07,1.56-1.12,3.19-2.14,4.87-3.06,3.26-1.76,5.91-1.41,8.72,1.01,2.16,1.86,2.2,1.86,4.35,0,4.8-4.07,8.96-4.11,13.9-.14.42.29.82.6,1.19.95,1.5,1.65,3.23,1.82,5.22,1.02,2.69-1.09,5.36-.83,8.11,0s5.77,1.35,8.65,2.08c.36.09.59.66.88,1l-1.66,1.33Z"/>
      <path class="cls-3" d="M142.35,560.42c4.02-3.14,9.27-4.22,14.2-2.93,1.8.53,3.52,1.3,5.12,2.28.9.64,2.14.54,2.93-.24,2.1-1.76,4.68-2.84,7.4-3.11,3.19-.31,5.85,1,8.33,2.8,1.14.83,2.06,1.14,3.3.18,3.08-2.39,6.37-1.69,9.42-.11,3.41,1.76,6.67,3.81,9.92,5.85,1.07.67,1.84.81,2.85,0,2.04-1.65,4.56-1.88,7.03-2.09.45,0,.94.55,1.41.84-.4.35-.79.97-1.22,1.01-2.61.14-5.12,1.04-7.24,2.58-.89.68-2.13.66-2.99-.05-2.57-1.65-5.09-3.4-7.76-4.86-2.01-1.13-4.16-1.99-6.4-2.55-1.14-.26-2.71.29-3.77.98-2.02,1.32-3.59,1.38-5.65-.12-4.81-3.51-8.49-3.42-13.33.18-1.87,1.4-3.49,1.57-5.39.34-5.57-3.66-11.11-3.24-16.52.31-1.3.85-2.2.83-3.45-.18-1.45-1.16-3-2.18-4.65-3.05-1.95-1.21-4.45-1.07-6.25.35-1.63,1.28-2.93,2.99-4.39,4.46-.27.31-.64.51-1.05.54-.4-.1-.73-.37-.91-.73-.13-.37-.09-.79.12-1.13,4.16-5.51,9.12-8.39,15.63-4.1,1.05.72,2.11,1.6,3.31,2.53Z"/>
      <path class="cls-3" d="M196.16,86.11c6.17-6.88,14.34-8.43,22.52-4.39.57.24,1.13.53,1.66.85.86.59,1.51.37,2.26-.26,5.03-4.15,10.83-5.02,17.06-3.83,2.1.41,4.19.94,6.23,1.57.5.15.83.84,1.24,1.29-.56.22-1.19.73-1.69.61-2.38-.48-4.69-1.3-7.08-1.68-5.29-.85-10.3,0-14.49,3.55-1.56,1.32-2.88,1.5-4.55.45-4.26-2.71-9.49-3.42-14.32-1.93-2.59.67-4.89,2.17-6.55,4.27-1.65,2.05-2.03,2.11-4.19.73-4.16-2.71-8.61-3.66-13.38-1.9-2.59.96-5.12,2.06-7.65,3.21-2.06.94-2.52.9-3.85-.86-.73-.95-1.4-1.92-2.09-2.88-2.93-4.06-5.2-3.16-8.25.29-.5.57-.73,1.38-1.63.73s-.53-1.46.09-2c1.35-1.25,2.82-2.37,4.39-3.34,1.97-1.1,3.8-.18,5.22,1.23,1.27,1.28,2.41,2.69,3.39,4.21.73,1.13,1.36,1.12,2.46.52,3.84-2.09,7.86-3.66,12.33-3.86,4.05-.22,7.55,1.13,10.86,3.43Z"/>
      <path class="cls-3" d="M446.1,559.08c2.49-.16,4.22,1.29,5.75,2.87,1.24,1.3,2.28,1.35,3.85.59,2.43-1.19,5.01-2.06,7.53-3.07,2.67-1.05,5.65-.96,8.25.25,1.87.79,3.72,1.65,5.55,2.54.8.46,1.81.31,2.44-.36,1.25-1.05,2.61-1.97,4.05-2.75,3.25-1.71,6.59-1.92,9.89-.09.15.09.32.12.47.21,3.01,1.9,5.99,2.42,9.33.56,2.35-1.3,5.01-.65,7.45.05,4.02,1.16,7.99,2.46,11.96,3.77.37.12.57.8.85,1.22-.56.21-1.21.73-1.68.58-2.71-.78-5.38-1.72-8.05-2.58-1.29-.41-2.62-.73-3.9-1.15-2.54-.91-5.35-.69-7.72.59-2.03,1.25-4.6,1.21-6.59-.12-.48-.29-1.06-.42-1.54-.73-4.98-3.08-9.34-1.57-13.29,1.95-1.53,1.38-2.88,1.41-4.6.56-1.92-.96-3.91-1.8-5.85-2.61-2.01-.85-4.27-.87-6.29-.04-2.79,1.1-5.59,2.2-8.31,3.4-1.6.73-2.93.65-4.21-.53-.37-.35-.73-.67-1.14-1.02-2.72-2.67-7.1-2.63-9.77.1-.48.49-.89,1.06-1.21,1.67-.43.79-.89,1.35-1.6.73-.35-.55-.39-1.25-.1-1.84,2.07-2.76,4.79-4.65,8.47-4.75Z"/>
      <path class="cls-24" d="M549.63,478.27c-.05-.08-.07-.18-.06-.27-.24-2.7-.1-5.4-.1-8.1,0-5.85-.11-11.71.07-17.56-.02-.09,0-.19.06-.26.63.46,1.57.79,1.84,1.41,3.23,7.62,6.36,15.3,9.51,22.97.2.44.2.95,0,1.4-.19.25-.88.15-1.34.16l-9.98.26Z"/>
      <path class="cls-21" d="M41.19,167.22c2.69-1.07,5.04-2.3,7.54-2.93,2.75-.67,5.08.6,6.84,3.06,2.05-2.41,4.06-4.69,7.53-4.17,2.98.46,5.67,2.05,7.51,4.44l3.49-3.14c1.92-1.8,4.72-2.28,7.13-1.23,3.32,1.26,6.54,2.81,9.83,4.16,1.46.59,3.01.97,4.48,1.56.41.16.65.73.97,1.12-.5.24-1.11.8-1.46.68-2.77-.94-5.52-1.99-8.25-3.07-2.2-.86-4.39-1.82-6.59-2.74-1.44-.66-3.13-.39-4.3.67-1.25,1.05-2.43,2.2-3.59,3.34-1.35,1.33-1.76,1.4-3.04,0-1.52-1.83-3.56-3.15-5.85-3.79-1.5-.44-3.12,0-4.17,1.16-.73.73-1.4,1.46-2.1,2.2-1.12,1.2-1.99,1.2-3.12,0-2.93-3.07-5.58-3.32-9.1-.85q-3.89,2.72-6.53-1.1c-.97-1.41-1.56-1.57-2.8-.32-.73.73-1.13,1.9-1.78,2.8-.4.44-.85.83-1.35,1.16-.18-.56-.64-1.24-.47-1.66.44-1.29,1.11-2.49,1.98-3.54,2.44-2.49,4.19-2.2,6.15.73.41.6.83,1.2,1.02,1.46Z"/>
      <path class="cls-3" d="M128.89,507.89h3.06c2.55,1.65,5.12,3.29,7.62,5,.29.2.26.85.39,1.28-.46.1-1.05.42-1.35.25-1.47-.84-2.89-1.76-4.26-2.76-3.62-2.66-5.85-2.61-9.26.48-.83.92-2.24,1.04-3.22.28-1.22-.91-2.51-1.72-3.87-2.41-1.01-.41-2.14-.43-3.17-.06-1.52.74-2.95,1.67-4.23,2.77-2.07,1.66-4.14,2-6.59.8-3.83-1.87-10.38-.4-13.24,2.82-.73.84-1.55,1.08-2.51.37l-1.9-1.42c-3.44-2.55-7.41-1.94-10.08,1.46-.35.45-1.09.6-1.65.89.05-.73-.16-1.6.19-2.06,2.63-3.42,8.01-5.94,12.44-2.11.59.51,1.26.93,1.95,1.46,2.69-2.74,6.15-3.75,9.67-4.22,1.95-.22,3.93.11,5.71.94,2.14,1.05,3.56.5,5.19-.78,1.41-1.1,3-1.99,4.51-2.97h4.07c1.39.29,2.69.92,3.78,1.84.73.53,1.4.67,2.11,0,1.26-1.17,2.92-1.83,4.65-1.85Z"/>
      <path class="cls-17" d="M495.92,514.55c-1.68-.53-3.72-.9-5.48-1.81-2.05-1.13-4.5-1.23-6.64-.28-1.81.8-3.89.74-5.66-.17-3.71-1.76-7.56-1.46-11.33.08-1.31.65-2.68,1.19-4.09,1.6-.92.2-2.39.11-2.93-.48-3.75-4.08-8.31-3.72-13.05-2.69-1.44.29-2.85.69-4.23,1.19-1.11.53-2.43.2-3.16-.78-1.81-1.97-3.75-3.83-6.34-4.68-4.54-1.46-11.43,1.92-13.44,6.52-.18.42-.73.67-1.17.99-.11-.53-.45-1.16-.29-1.6,2.12-5.51,11.21-9.51,15.67-7.32,2.05,1.06,3.95,2.38,5.66,3.92,1.27,1.12,2.2,1.52,3.97,1.02,2.99-.77,6.05-1.29,9.12-1.55,2.47-.25,4.92.66,6.62,2.47,1.51,1.46,2.89,1.81,4.95.84,2.29-1.08,4.73-1.82,7.23-2.2,2.83-.34,5.7.15,8.25,1.42.8.35,1.7.41,2.54.15,3.42-1.27,6.64-1.33,9.94.48,1.98,1.07,4.18,1.78,6.5.68.25-.12.73.24,1.1.38-.2.37-.31.94-.61,1.05-1.03.32-2.07.57-3.13.77Z"/>
      <path class="cls-21" d="M510.95,407.23c2.3.1,3.71,1.32,4.94,2.76.49.77,1.51.99,2.27.5.01,0,.03-.02.04-.03,3.03-1.29,6.34-1.79,9.62-1.46,2.12.1,4.11,1.04,5.54,2.62.81.88,1.46.73,2.51.34,2.63-1.15,5.34-2.09,8.12-2.84,2.88-.69,5.74-.14,7.77,2.2,1.87,2.2,3.73,2.63,6.51,1.6,3.32-1.23,6.89-1.87,10.4-.26.26.12.62.12.78.31.5.63,1.46,1.54,1.3,1.94-.45,1.06-1.24.26-1.94-.08-3.09-1.54-6.25-1.19-9.41-.24-5.28,1.57-5.12,2.13-8.93-1.83-1.95-2.04-4.46-2.27-6.92-1.56-2.68.86-5.31,1.88-7.87,3.06-.89.37-1.73.73-2.45-.12-3.26-4-7.51-3.53-11.84-2.63-1.15.3-2.27.68-3.35,1.16-1.01.5-2.24.21-2.93-.68-.41-.47-.91-.86-1.3-1.34-1.86-2.38-5.85-1.1-7.06,1-.18.31-.89.68-1,.59-.43-.32-.75-.76-.9-1.27-.07-.34.27-.85.56-1.16,1.62-1.62,3.65-2.19,5.55-2.55Z"/>
      <path class="cls-3" d="M421.48,243.44c1.58.65,3.11,1.42,4.57,2.29,1.16.98,2.84,1.06,4.09.2,3.12-1.68,6.45-3.31,10.15-2.14,1.4.44,2.63,1.46,3.85,2.33.78.56,1.28.78,2.2.1,3.66-2.72,7.65-3.61,11.97-1.97,2.6.99,5.47.96,8.05-.08,2.34-.86,4.89-1,7.32-.4.5.06.99.24,1.4.53.29.41.51.88.64,1.37-.44.13-.97.49-1.32.37-3.07-1.1-6-.53-8.95.5-2.14.8-4.51.78-6.64-.06-4.47-1.79-8.52-1.16-12.17,1.96-1.55,1.32-2.63.34-3.66-.69-2.01-2.29-5.28-2.99-8.05-1.73-1.76.64-3.47,1.4-5.12,2.28-1.03.75-2.44.73-3.45-.05-.37-.26-.73-.49-1.14-.73-3.76-2.43-5.41-2.37-9.04.34-.62.57-1.3,1.08-2.02,1.52-.44.2-1.11-.11-1.68-.19.19-.46.24-1.1.59-1.35,1.57-1.2,3.2-2.31,4.9-3.31.97-.52,2.09-.65,3.51-1.08Z"/>
      <path class="cls-3" d="M491.08,160.26c-1.46-.61-2.72-1.09-3.95-1.71-.62-.39-1.21-.84-1.75-1.33-3.14-2.34-5.85-1.83-8.05,1.46-.33.48-1.04.73-1.57,1.05,0-.73-.32-1.57,0-2.09,2.27-4.03,6.4-4.97,10.24-2.42.3.17.57.37.83.59,2.82,2.96,5.85,2.31,8.92.48,2.99-1.72,6.3-2.83,9.72-3.27,1.95-.29,3.39.58,4.46,2.16.25.37.55.73.73,1.11.78,1.4,1.6,1.77,3.23.92,3.91-2.02,8.05-2.69,12.21-.61,2.47,1.22,4.74-.08,7.08-.56.91-.18,2.15-1.32,2.66.07.58,1.57-1.18,1.46-2.06,1.77-3.37,1.28-6.67,1.63-10.14-.04-3.07-1.46-6.1-.13-8.94,1.13-3.23,1.46-3.54,1.46-5.55-1.46-2.01-2.93-2.35-3.1-5.74-2.08-2.25.68-4.39,1.68-6.59,2.55l-5.73,2.27Z"/>
      <path class="cls-3" d="M281.89,392.55c1.32.67,2.83,1.11,3.94,2.04,2.02,1.7,3.8,1.8,6.09.44,1.67-.9,3.5-1.48,5.39-1.7,2.38-.37,4.33.79,5.66,2.73.97,1.4,2.06,1.56,3.5.93,1.6-.73,3.24-1.32,4.87-1.99,2.39-.98,4.6-.59,6.79.69,2.73,1.6,5.54,3.07,8.28,4.66.42.26.62.9.92,1.37-.59.12-1.32.54-1.73.33-2.77-1.4-5.53-2.86-8.2-4.46-1.89-1.13-3.7-1.52-5.77-.59-1.54.73-3.13,1.31-4.71,1.92-2.45.96-3.72.61-5.36-1.41-1.98-2.43-3.99-2.97-6.87-1.73-1.19.51-2.28,1.24-3.45,1.81-1.52.86-3.4.77-4.82-.24-.84-.58-1.66-1.18-2.51-1.74-1.94-1.29-3.42-1.05-4.82.81-.5.66-1.04,1.46-1.84.73-.29-.28-.06-1.5.32-2.01.99-1.34,2.2-2.46,4.14-2.2l.18-.38Z"/>
      <path class="cls-23" d="M132.25,201.9c-4.14.26-4.26.07-4.39-4.05-.1-3.94-.45-7.87-.62-11.8.03-1.06.12-2.12.29-3.16,1.1,0,2.2,0,3.31.12.31.08.55.3.67.59.35,1.29.58,2.61.69,3.94.1,4.79.04,9.57.05,14.36Z"/>
      <path class="cls-21" d="M480.98,116.73c-.32-.59-.64-1.19-.97-1.78,7.57-5.35,17.26-5.85,24.88-.45,1.34,1.03,2.6,2.16,3.75,3.39.6.59.93,1.46,0,2-.81.48-1.13-.12-1.65-.79-2.38-2.92-5.66-4.96-9.32-5.81-6.15-1.6-11.64-.1-16.68,3.44Z"/>
      <path class="cls-16" d="M232.93,511.14l1.29-.24-1.29.24Z"/>
      <path class="cls-25" d="M128.89,507.89c-1.62.86-3.23,1.77-4.89,2.55-.52.2-1.09.17-1.59-.07-1.39-.73-2.7-1.64-4.04-2.47h10.52Z"/>
      <path class="cls-7" d="M165.82,207.71c.08.78.06,1.57-.05,2.34-.12.5-.67,1.19-1.1,1.24-.57-.07-1.06-.43-1.29-.96-.15-1.78-.16-3.56-.04-5.34,0-.33.83-.91,1.19-.85.56.14,1.01.53,1.23,1.06.12.83.14,1.67.06,2.51Z"/>
      <path class="cls-36" d="M139.61,207.96c-.1-.67-.08-1.34.05-2,.22-.56.83-1.33,1.3-1.35.64.14,1.17.62,1.37,1.24.19,1.46.19,2.93,0,4.39-.07.53-.86.97-1.32,1.46-.44-.5-1.08-.94-1.27-1.52-.13-.72-.15-1.47-.05-2.2l-.07-.02Z"/>
      <path class="cls-33" d="M100.99,207.94c.1.79.08,1.58-.06,2.36-.18.56-.86.97-1.32,1.46-.42-.45-1.15-.88-1.19-1.37-.14-1.63-.14-3.28,0-4.91.04-.45.79-1.23,1.1-1.18.61.13,1.12.54,1.38,1.1.13.83.15,1.68.06,2.52h.03Z"/>
      <path class="cls-36" d="M154.28,207.85c.11.66.09,1.34-.05,2-.24.56-.91.95-1.39,1.41-.41-.46-1.1-.89-1.18-1.4-.2-1.21-.22-2.44-.04-3.66.1-.59.86-1.08,1.31-1.62.52.48.97,1.03,1.35,1.63.11.55.11,1.12,0,1.67v-.04Z"/>
      <path class="cls-7" d="M106.8,208.2c.08.73.07,1.47-.04,2.2-.18.59-.59,1.07-1.14,1.35-.29.1-1.21-.61-1.24-1.01-.14-1.67-.14-3.35,0-5.03.04-.41.83-.73,1.27-1.13.39.48.97.91,1.13,1.46.11.72.12,1.45.03,2.17Z"/>
      <path class="cls-33" d="M122.12,207.85c-.08-.78-.06-1.57.05-2.35.12-.49.7-1.16,1.12-1.19.57.07,1.07.43,1.31.95.16,1.68.18,3.36.04,5.04-.22.54-.7.92-1.27,1.02-.56-.15-1-.57-1.19-1.11-.12-.78-.14-1.57-.06-2.36h0Z"/>
      <path class="cls-36" d="M92.58,208.01c-.08-.73-.07-1.47.05-2.2.14-.49.73-1.16,1.13-1.19.58.08,1.07.45,1.31.98.14,1.68.14,3.37,0,5.06-.24.52-.74.87-1.31.93-.42-.05-.97-.73-1.09-1.22-.11-.78-.13-1.58-.05-2.36h-.04Z"/>
      <path class="cls-36" d="M112.97,207.98c.09.73.08,1.47-.05,2.2-.17.5-.84,1.19-1.27,1.18-.6-.14-1.09-.59-1.29-1.18-.16-1.52-.16-3.05,0-4.57.05-.44.85-1.03,1.36-1.1.35-.04,1.03.64,1.16,1.11.12.78.13,1.58.05,2.36h.04Z"/>
      <path class="cls-7" d="M118.69,207.95c.08.78.07,1.58-.05,2.36-.12.47-.73,1.1-1.15,1.11s-1.26-.57-1.3-.96c-.15-1.62-.15-3.26,0-4.88.04-.42.9-.98,1.42-1.02.33,0,.92.73,1.05,1.21.11.73.13,1.46.05,2.2h-.03Z"/>
      <path class="cls-33" d="M130.52,208.33c.09.73.07,1.47-.05,2.2-.18.53-.8.91-1.24,1.35-.44-.42-1.21-.81-1.26-1.28-.16-1.52-.16-3.04,0-4.56.05-.48.79-.89,1.21-1.33.45.48,1.1.89,1.3,1.46.13.72.15,1.47.05,2.2l-.02-.03Z"/>
      <path class="cls-7" d="M133.99,208.09c-.09-.73-.07-1.47.04-2.2.19-.58.62-1.06,1.18-1.3.34-.09,1.23.59,1.27,1,.16,1.62.16,3.24,0,4.86-.04.41-.89.97-1.42,1.02-.31,0-.91-.73-1.04-1.21-.1-.72-.12-1.45-.04-2.17Z"/>
      <path class="cls-7" d="M148.22,208.09c.08.67.07,1.35-.04,2.02-.16.5-.73,1.16-1.13,1.19-.58-.07-1.08-.44-1.31-.97-.14-1.57-.13-3.14.04-4.71.23-.53.73-.89,1.3-.96.42.06.97.73,1.1,1.24.11.72.12,1.46.04,2.19Z"/>
      <path class="cls-4" d="M157.44,209.79l-.04-1c-.11-.23-.11-.5,0-.73v-2.36c.05-.56.5-1.01,1.06-1.05l1.13.32c0,.19.08.31.29.31.06.68.12,1.35.18,2.03.12.73.15,1.46.08,2.2.06.75-.49,1.4-1.24,1.46-.04,0-.08,0-.11,0l-.87-.26c-.48-.15-.38-.59-.47-.92Z"/>
      <path class="cls-49" d="M158.8,210.95c1.78-.73.73-2.44,1.27-3.66.94,2.07.37,3.67-1.27,3.66Z"/>
      <path class="cls-49" d="M158.48,204.65l-1.06,1.05c-.1-.91.17-1.17,1.06-1.05Z"/>
      <path class="cls-49" d="M157.44,209.79l.48.89-.48-.89Z"/>
      <path class="cls-49" d="M157.39,208.06v.73c0-.25,0-.49,0-.73Z"/>
      <path class="cls-49" d="M159.89,205.27l-.29-.31.29.31Z"/>
      <path class="cls-25" d="M549.55,452.33c0,5.63.08,11.25.1,16.88,0,2.93-.04,5.85-.07,8.78-.12-.36-.21-.74-.25-1.12,0-7.74,0-15.49,0-23.23.04-.44.11-.88.22-1.31Z"/>
      <ellipse class="cls-14" cx="422.85" cy="268.13" rx="23.2" ry="19.46"/>
      <path class="cls-34" d="M352.23,447.48l6.81-1.83c1.83.22,3.66.37,5.49.59,1.46.22,1.68.66,1.02,1.76l-12.93.22c-.39-.15-.73-.37-.39-.73Z"/>
      <path class="cls-34" d="M338.11,445.65c1.46.59,2.93,1.24,4.39,1.83.59.22,1.24.37,1.83.59.15.22.15.37-.15.44l-13.61-.22v-.8c.44-.29.8-.8,1.32-.95,2.05-.29,4.17-.51,6.22-.88Z"/>
      <path class="cls-32" d="M420.21,425.96c-.29,4.1-.66,8.2-.95,12.29-3.95-.07-7.98-.15-11.93-.15,0-4.02-.07-8.05-.07-12,4.32-3.44,8.63-2.56,12.95-.15Z"/>
      <path class="cls-35" d="M334.16,405.77c-.59-.23-.95-.83-.88-1.46,2.05-.22,4.1-.44,6.15-.51,6.15,0,12.29.15,18.51.15,2.2,0,4.39-.07,6.59-.15,1.02.73,1.02,1.46.15,2.05-1.32.95.59,1.02-.8,2.05-.44.29-.51.07-.88.44l.15.37c.8,0-2.41,1.39-1.61,1.39,1.68,0,1.76.15,1.83,1.39v2.34c-.15,4.1,0,8.2-.44,12.29-.67,6.34-1.01,12.72-1.02,19.1-.46.53-1.13.85-1.83.88-1.9.37-3.81.95-5.71,1.39-4.17.73-4.83.29-4.83-2.93-.07-9.66-.59-19.24-.29-28.9,0-.15.07-.22,0-.29-.07,2.41,0,4.83-.29,7.32-.22,2.95-.22,5.91,0,8.85.15,4.54-.44,9.07-.37,13.61,0,2.93-1.17,3.59-5.12,2.93-1.79-.37-3.55-.86-5.27-1.46-.73-.29-1.46-.59-1.68-1.32-.22-4.39-.44-8.85-.59-13.24,0-1.1,0-2.2-.07-3.29-.15-4.24-.22-8.49-.44-12.73,0-.73-.22-1.46-.29-2.2s-.29-1.46-.29-2.2c0-1.39.73-1.76,2.49-1.54"/>
      <path class="cls-16" d="M394.75,329.15c1.17.59,2.34,1.24,3.51,1.83.66,3.29,1.76,6.66,1.83,9.95.29,8.05.29,16.03,0,24.07-.22,6.22-1.9,12.37-1.61,18.51.22,4.61,1.9,9.07-.44,13.54-3.88-2.41-7.98-4.61-11.63-7.39-.95-.73-1.17-3.81-.51-5.12,2.12-4.1-.15-7.17-2.41-9.51-1.17-1.17-4.54-.51-6.81-.15-1.98.29-3.81,1.24-5.71,1.9-.37-1.1-.8-2.2-1.17-3.29,1.02-.73,2.05-1.46,3.15-2.27-2.05-3.22-4.02-4.98-7.17-1.9l-4.39-3.95c-.15-.44-.29-.95-.44-1.39l-.88-1.32c-.44-1.1-.8-2.27-1.24-3.37,1.39-1.54,2.93-2.93,4.24-4.61.99-1.41,1.89-2.88,2.71-4.39,1.17-3.07,3.07-6,3.37-9.15.66-6.15-1.54-10.9-6.22-15.73-4.02-4.1-9.37-1.61-12.88-5.12-.51-.51-3.29,1.61-4.98,1.61-10.68,0-15.88,7.24-11.78,16.68.44,1.02.37,2.27.51,3.44,2.49,2.49,2.56,4.61-.95,6.22-1.83-.88-4.1-1.32-5.27-2.78-4.32-5.12-8.27-10.68-12.44-15.95-1.13-1.19-2.36-2.29-3.66-3.29-.88-3.59-1.39-7.32-2.71-10.76-.44-1.24-2.85-1.68-4.39-2.49l-9-12.07c-1.02-.59-2.05-1.24-3.07-1.83l-.15-.15c-.59-1.32-.73-3.07-1.76-3.73-3.59-2.34-7.39-4.24-11.12-6.37.22-.59.22-1.39.66-1.83,4.46-4.54,9.37-8.78,13.39-13.68,1.61-1.98,1.83-5.34,1.9-8.12,0-.88-2.49-1.83-3.81-2.71.37-1.39.66-2.71,1.02-4.1,0-.95,0-1.83.07-2.78v-3.07c1.24-3.88,4.39-7.61-1.02-11.63-1.24-7.54-5.56-11.05-14.2-12.07-6.29-.8-9-1.83-15.37-2.2-7.61-.44-17.63,4.98-19.24,13.98l-8.56.66c-.73.44-1.39.88-2.12,1.32-.38.22-.75.46-1.1.73l-.07.29s-.29.07-.29,0c-.18.21-.37.41-.59.59-1.39,1.46-2.71,2.93-4.1,4.39-.29.37-.66.66-.95,1.02-2.71,7.1-8.12,11.05-15.07,13.39-3.07,1.02-6.07,1.76-8.05-1.54-1.9-3.15.59-4.83,2.63-6.66,1.18-1.1,2.11-2.45,2.71-3.95-7.32,1.02-13.68-.22-17.63-6.22-3.73-5.63-2.05-11.85-.73-15.88-3.15-5.85-5.93-10.1-7.54-14.78-.37-1.1,3.22-4.46,5.49-5.27,3.95-1.46,8.78-1.32,3.73-7.32-.73-.88.51-3.29.66-4.24-1.61-2.34-4.39-5.41-4.02-5.85,1.9-2.2,4.39-4.61,7.1-5.27,4.76-1.24,9.81-1.54,14.71-1.76,3.82.04,7.35-2.05,9.15-5.41-.22-2.56-1.32-5.41-.44-6.37,2.71-2.78,5.93-5.63,9.44-6.88,3.22-1.1,3.73,2.34,3.66,4.98-.08,4.48,3.18,8.33,7.61,9,.88,2.49,1.83,5.05,2.41,6.73,2.12-3.37,4.24-6.73,6.29-10.1h0c3.29-2.12,1.76-4.39.15-6.59v-1.1c5.49-5.12,5.56-5.12,8.49,2.27.51,1.24,1.46,2.34,2.63,4.17,1.1-1.83,1.68-2.93,2.34-4.02l.15-.15c2.78.73,5.56,1.39,8.85,2.2-.15-.95.07-2.71-.73-3.44-2.12-2.2-1.02-3.51.22-5.63,2.71-4.76,5.56-2.78,8.05-.59v-7.24c.3-.06.6-.16.88-.29l1.1-.66h0c1.1-.95,2.27-1.9,3.37-2.78.73,0,1.39.07,2.12.07,1.32,1.02,2.49,2.41,3.95,2.93,3.07,1.02,6.44,1.9,6.81-3.22.18-.14.26-.36.22-.59,2.63-1.1,5.27-2.27,7.9-3.37.26,0,.52-.07.73-.22,5.78-.8,11.56-1.68,17.42-2.27,1.83-.22,3.81.37,5.63.59-.07.44-.07.88-.15,1.39-4.61,2.34.15,4.32.29,6.51h0c1.17,2.2,1.83,5.63,3.59,6.29,7.24,2.78,14.63,5.56,22.68,3.81.8.15,1.61.29,2.41.51,1.05.8,2.05,1.65,3,2.56,1.32,1.32,2.49,2.63,3.73,4.02-1.54,1.32-3.07,2.78-4.68,4.02-.88.66-2.05,1.02-4.1,1.98,3,1.39,5.93,1.9,6.37,3.22.59,1.68-.8,4.1-1.32,6.15,1.1,1.9,1.46,4.1,1.98,6.22.18,1.06.61,2.06,1.24,2.93,1.61,2.12,3.44,4.02,5.2,6,.06.49.16.98.29,1.46-1.83,3.15-4.24,2.12-6.73.88l-.29.07.29-.07c-.73-2.93-1.61-4.9-5.41-5.93-6.44-1.68-8.85,2.49-12.07,6l.07.07c-4.24,3.44-8.56,5.85-14.49,5.49-3.37-.22-3.95,3.22-3.07,6,.59,2.05,1.83,3.95,2.93,5.78,4.39,7.54,4.02,8.56-4.61,10.98.22,1.98.15,4.17.8,6.15.95,2.85,2.56,5.49,3.66,8.27.8,2.05.73,4.9,2.2,6.22,6.22,5.85,12.37,11.85,19.39,16.54,4.24,2.85,7.83,5.34,9.29,10.32.07.59.15,1.17.22,1.83,1.76,10.24,3.73,20.34,11.34,28.39,4.46,4.68,8.49,9.88,12.73,14.78.66,1.46,1.32,2.85,1.9,4.32"/>
      <path class="cls-47" d="M310.74,331.86c.29,4.83-1.39,8.78-5.71,10.9-3.37,1.68-3.88,4.24-3.88,7.39-.15,18.37-.44,36.73-.44,55.03,0,10.32.51,20.64.73,31.03.15,4.39-1.68,6.22-6.22,5.85-3.29-.29-6.66.07-10.02.07s-6.59.07-9.88.07c-5.34-.07-10.61-.07-15.95-.15-3.29,0-6.59.07-9.88.07s-6.37.22-9.44-.07c-1.76-.15-3.37-1.1-5.12-1.68,0-5.41-.07-10.83-.07-16.32-.07-23.93-.15-47.88-.22-71.86-.3-.52-.57-1.06-.8-1.61-.15-.07.07.07.07.07-.44-.44-.88-.8-1.24-1.24l.15.07c-5.05-2.34-7.24-6.66-8.2-11.85-3.95-22.61,17.63-40.68,32.42-45.08.3-.07.61.08.73.37.37.95-.07-.29.73,1.17.95,1.68,1.98,3.59,3.44,4.76,5.71,4.54,9.59.22,14.49-2.05,1.17-1.1.88-3.07,1.83-3.95,3.95,1.83,10.02,4.39,13.98,6.22l.15.15c1.02.59,2.05,1.24,3.07,1.9l9,12.07c1.39,4.24,3.88,8.2,4.17,12.66M285.35,345.47c2.2-.88,6.07-1.54,6.15-2.63.2-2.95-.51-5.89-2.05-8.41-.51-.88-4.1.15-6.29.29-1.24-.07-3.15-.73-3.59-.22-2.78,3.59-6.51,2.63-10.1,2.93-2.2.15-4.32,1.39-6.44,2.12-.8-.07-1.76-.51-2.49-.22-1.68.66-4.54,1.54-4.61,2.41-.15,3.22.66,6.44,1.17,9.66,2.05-.51,4.17-1.02,6.22-1.61,1.83,0,3.88-.59,5.34.15,7.02,3.44,11.71-.73,16.68-4.46h0Z"/>
      <path class="cls-50" d="M277.16,296.81c-4.9,2.27-9.51,6.59-15.22,2.05-1.46-1.17-2.49-3.07-3.44-4.76-.85-1.75-1.58-3.56-2.2-5.41-.21-.73-.53-1.42-.95-2.05l-9.88-10.98c-.73-.05-1.45-.22-2.12-.51-1.58-.76-2.87-2.02-3.66-3.59-.59-1.54-.88-3.59.07-4.98.95-1.39,2.85-1.32,4.32-1.98,2.2,1.1,3.29.8,3.22-2.05-.12-3.69.05-7.39.51-11.05.15-1.17,1.9-3.07,2.93-3.07,12.22-.07,24.44.15,36.66.22.37,4.39.73,8.78,1.17,13.17.29,2.49,1.32,2.93,2.93.73,1.32.88,3.81,1.83,3.81,2.71-.07,2.78-.29,6.15-1.9,8.12-4.02,4.9-8.93,9.15-13.39,13.68-.44.44-.44,1.24-.66,1.83-.73,2.71-1.46,5.34-2.2,7.9ZM274.38,282.98c1.54-2.27,3-4.54,4.54-6.73-.37-.44-.8-.88-1.17-1.32-4.61,0-9.22-.15-13.83.07-1.9.15-3.81,1.17-5.63,1.83,1.24,2.12,2.49,4.17,3.73,6.29,5,3.37,8.05,3.37,12.37-.15h0ZM269.93,262.2h-1.17c-.44,3.22-.95,6.37-1.17,9.59-.07.51.95,1.1,1.54,1.61.59-.66,1.68-1.32,1.68-1.98-.15-3.07-.61-6.15-.88-9.22Z"/>
      <path class="cls-40" d="M234.64,351.69c.07,24.15.15,48.27.22,72.37,0,5.41.07,10.83.07,16.32-.22-1.46-.66-2.85-.73-4.32-.22-4.54-1.17-8.12-6.81-8.49-1.24-.07-2.49-1.9-3.51-3.07-.51-.59-.37-1.68-.88-2.34-6-7.76-2.56-16.03-1.54-24.15.15-1.1-.29-2.27-.22-3.37.15-2.34.66-4.68.66-7.02,0-2.2.37-4.9-.8-6.51-5.41-7.68-5.93-15.95-3.37-24.59.44-1.39,2.12-2.41,3.81-4.24.22,10.54,0,9.95,8.85,7.17,4.98-1.54,3.37-4.9,4.24-7.76Z"/>
      <path class="cls-41" d="M285.21,442.13c.73.73,1.39,1.98,2.27,2.2,2.41.51,4.9.51,7.32.95,3.66.66,5.2,2.63,3.29,6.29,0,.37.07.73.07,1.17l-.15.15c-4.24,0-8.49-.15-12.66.07-8.41.37-8.41.51-9.44-7.76-.15-1.02-.37-1.98-.59-3,3.29-.07,6.59-.07,9.88-.07Z"/>
      <path class="cls-41" d="M249.5,442.13c3.29,0,6.59-.07,9.88-.07-.09.16-.14.33-.15.51q-1.24,10.46-11.93,10.39c-2.33.07-4.66-.13-6.95-.59-1.39-.29-3.59-.88-3.95-2.41-.37-1.68,1.54-3.51,2.85-4.1,2.34-1.1,5.05-1.1,7.61-1.83,1.02-.29,1.76-1.24,2.63-1.9Z"/>
      <path class="cls-2" d="M287.33,248.73c-12.22-.15-24.44-.37-36.66-.22-1.02,0-2.78,1.9-2.93,3.07-.46,3.66-.64,7.36-.51,11.05.07,2.85-1.02,3.15-3.22,2.05-.59-5.41-1.17-10.76-1.76-16.17h-.07c2.78-.59,5.56-1.76,8.34-1.76,12.29-.15,24.59,0,36.95.07-.09.63-.14,1.27-.15,1.9Z"/>
      <path class="cls-2" d="M440.19,438.33c1.98,1.68,4.68,2.71,5.85,4.98.73,1.39,1.32,3.51.37,4.76-.59.73-1.9.37-2.85.51h-3c-3.88-.22-7.98-.22-12.07-.59-3.51-.29,0-6.73,0-9.95v.07l11.71.22Z"/>
      <path class="cls-44" d="M243.35,275.22c.73.15,1.46.37,2.12.51-.72-.13-1.43-.3-2.12-.51Z"/>
      <path class="cls-30" d="M409.7,477.62c.15-.29.22-.73.37-.8s.51.22.8.29c-.15.29-.15.73-.37.8s-.53-.15-.8-.29Z"/>
      <path class="cls-30" d="M391.97,262.71c-.22.73-.37,1.39-.59,2.12.22-.73.44-1.39.59-2.12Z"/>
      <path class="cls-15" d="M279.45,155l-1.1.66,1.1-.66Z"/>
      <path class="cls-44" d="M224.98,249.69c.29-.37.66-.66.95-1.02-.29.37-.64.66-.95,1.02Z"/>
      <path class="cls-44" d="M230.98,243.39c.37-.22.73-.51,1.1-.73-.38.22-.75.46-1.1.73Z"/>
      <path class="cls-27" d="M233.91,350.74l-.15-.07c.06,0,.11.03.15.07Z"/>
      <path class="cls-27" d="M232.81,349.57l-.15-.07.15.07Z"/>
      <path class="cls-30" d="M298.16,452.67c.22.15.44.37.66.51-.29-.15-.51-.22-.8-.37l.15-.15Z"/>
      <path class="cls-46" d="M438.43,423.69c-2.63.66-6.22,1.46-9.81,2.34h-8.41"/>
      <path class="cls-31" d="M251.77,244.71l-9.22-2.2c-.37-9.37,10.68-16.54,18.29-16.17,6.37.37,12.73.88,19.03,1.68,8.56,1.1,11.49,7.32,12.73,14.78-.44.59-.88,1.1-1.32,1.68l-39.51.22Z"/>
      <path class="cls-19" d="M291.5,242.66c.44-.59.88-1.1,1.32-1.68,5.41,4.02.95,7.76-.29,11.63-.22-3.29-.29-6.59-5.12-5.85-12.29-.07-24.66-.22-36.95-.07-2.78,0-6.29,1.46-7.9,4.17-.66,1.17-3.44-4.98-4.54-7.02.73-.73,2.71-2.93,4.1-2.34,1.1.44,1.68.8,2.49,1.1,2.37.81,4.88,1.16,7.39,1.02,11.71,0,23.49,0,35.2-.07,1.54.07,2.93-.51,4.32-.88Z"/>
      <path class="cls-2" d="M287.4,246.76c4.76-.73,4.9,2.56,5.12,5.85v3.07c0,.95,0,1.83-.07,2.78-.37,1.39-.66,2.78-1.02,4.1-1.61,2.2-2.63,1.76-2.93-.73-.51-4.39-.8-8.78-1.17-13.17,0-.59.07-1.24.07-1.9Z"/>
      <path class="cls-46" d="M295.38,301.13c-1.02-.66-2.05-1.24-3.07-1.9,1.05.66,2.05,1.24,3.07,1.9Z"/>
      <path class="cls-19" d="M292.45,258.54c0-.95,0-1.83.07-2.78,0,.88,0,1.83-.07,2.78Z"/>
      <path class="cls-1" d="M361.09,364.06l-.88-1.32.88,1.32Z"/>
      <path class="cls-13" d="M263.03,339.47c2.12-.73,4.24-1.98,6.44-2.12,3.59-.29,7.39.66,10.1-2.93.44-.51,2.34.07,3.59.22l2.2,10.76c-4.9,3.73-9.66,7.9-16.68,4.46-1.46-.73-3.59-.15-5.34-.15-.07-3.37-.22-6.81-.29-10.24Z"/>
      <path class="cls-15" d="M263.03,339.47c.07,3.44.22,6.88.29,10.32l-6.22,1.54c-.44-3.22-1.32-6.44-1.17-9.66.07-.88,2.93-1.76,4.61-2.41.73-.22,1.68.15,2.49.22Z"/>
      <path class="cls-15" d="M285.35,345.47l-2.2-10.76c2.2-.15,5.78-1.17,6.29-.29,1.54,2.53,2.25,5.47,2.05,8.41-.15,1.1-4,1.76-6.15,2.63Z"/>
      <path class="cls-40" d="M327.79,453.26c4.32-3.66,4.17,2.49,6.22,2.12,3.15-1.32,6.37-2.71,9.51-4.02h.07l.88,1.1.07.15c1.17.37,2.27.8,3.44,1.17,2.85,6.59,8.63,4.61,13.46,4.17,6-.59,11.85-.73,17.93-3.07,4.76-1.83,10.83-1.17,16.17-3.51,3-1.32,4.61,1.68,2.93,5.56-2.41,5.49-4.46,11.27-7.76,16.24-3.29,4.98-1.39,8.93.8,13.02,1.46,2.85,2.85,5.2-.44,7.9-.88.73-.29,3.07-.51,4.61-.29,1.68-.22,4.02-1.32,4.83s-3.51.66-5.05.07c-6.44-2.41-13.61-3.73-17.49-10.61-.66-1.1-3-1.17-4.54-1.83-4.98-2.27-10.54-3.73-14.63-7.1-7.1-5.78-15.15-9-23.49-12.15-1.46-.59-3.29-2.71-3.37-4.24-.22-5.34-.44-10.98,6.15-13.39.44,0,.66-.59.95-1.02Z"/>
      <path class="cls-40" d="M420.21,425.96h8.41c-.07,4.02-.07,8.05-.15,12.07v-.07c-1.76,7.9-6.07,14.42-11.27,20.42-1.32,1.54-1.61,5.34-2.63,5.41-3.78.33-7.59.03-11.27-.88-2.71-.66-3.29-8.85-1.1-10.98,1.05-1.15,2.03-2.38,2.93-3.66,3.81-.07,7.68.15,11.49-.37,1.39-.22,3.29-2.05,3.51-3.44.37-1.98-.51-4.17-.88-6.22.29-4.1.68-8.2.95-12.29Z"/>
      <path class="cls-2" d="M407.33,438.04c3.95.07,7.98.15,11.93.15.37,2.12,1.24,4.32.88,6.22-.56,1.64-1.86,2.91-3.51,3.44-3.81.51-7.68.29-11.49.37-4.46-.07-3.81-2.71-2.34-5.12,1.17-1.83,3-3.37,4.54-5.05Z"/>
      <path class="cls-15" d="M347.92,453.77c-1.17-.37-2.27-.8-3.44-1.17,1.17.37,2.34.73,3.44,1.17Z"/>
      <path class="cls-15" d="M344.48,452.45l-.88-1.1.88,1.1Z"/>
      <path class="cls-42" d="M262.01,283.13c-1.24-2.12-2.49-4.17-3.73-6.29,1.9-.66,3.73-1.68,5.63-1.83,4.61-.29,9.22-.07,13.83-.07.37.44.8.88,1.17,1.32-1.54,2.27-3,4.54-4.54,6.73-.29-.29-.51-.59-.8-.88.88-1.32,1.76-2.56,3.22-4.83h-18c1.83,2.05,3,3.44,4.17,4.76-.34.35-.66.71-.95,1.1Z"/>
      <path class="cls-9" d="M269.93,262.2c.29,3.07.73,6.15.88,9.22,0,.66-1.1,1.32-1.68,1.98-.51-.51-1.54-1.1-1.54-1.61.29-3.22.73-6.37,1.17-9.59h1.17Z"/>
      <path class="cls-42" d="M274.38,282.98c-4.32,3.51-7.39,3.51-12.37.15.29-.37.66-.66.95-1.02,3.51,1.83,7.1,2.63,10.61,0,.25.31.52.6.8.88Z"/>
      <path class="cls-46" d="M440.85,289.2c-.51.15-.95.37-1.46.51.51-.15.95-.37,1.46-.51Z"/>
      <path class="cls-40" d="M448.6,387.62c-.59-7.46-1.24-14.93-1.83-22.46,2.41,2.27,3.22,7.02,8.2,5.2,2.12,1.24,4.32,2.49,6.44,3.73,1.02.59,2.41.95,2.93,1.83,2.93,5.05,7.32,8.2,11.85,11.63,2.93,2.27,3.95,6.59,1.1,10.46-.66.95-1.32,1.9-1.98,2.93-1.1,1.61-2.2,3.29-3.29,4.98-2.93-2.34-7.39-4.1-8.49-7.1-3.95-10.98-3.51-11.12-14.93-11.2Z"/>
      <path class="cls-8" d="M440.19,438.33l-11.71-.22c.07-4.02.07-8.05.15-12.07,3.59-.88,7.1-1.68,9.81-2.34"/>
      <path class="cls-39" d="M336.52,222.76c.29.15.73.22.8.37s-.22.51-.29.8c-.29-.15-.73-.22-.8-.37s.12-.51.29-.8Z"/>
      <path class="cls-2" d="M426.43,292.93c1.32-.37,2.71-.66,4.02-1.02-1.32.29-2.71.66-4.02,1.02Z"/>
      <path class="cls-1" d="M354.08,360.54c-.07.29-.22.66-.29.95.07-.32.17-.64.29-.95Z"/>
      <path class="cls-45" d="M273.59,282.1c-3.51,2.63-7.1,1.83-10.61,0-1.17-1.39-2.34-2.71-4.17-4.76h18c-1.56,2.2-2.36,3.44-3.22,4.76Z"/>
      <path class="cls-11" d="M369.45,334.64c.21,1.95-.63,3.87-2.2,5.05-.52.52-.96,1.11-1.32,1.76-1.24,1.02-1.39,2.63-2.12,3.95-.13.14-.32.22-.51.22-1.1,0-1.17-.73-1.39-1.54-.44-2.27-.66-4.54-.95-6.81-.06-1.02-.64-1.93-1.54-2.41-1.11-.66-2.06-1.56-2.78-2.63-.4-.81-1.37-1.17-2.2-.8-.04,0-.07.03-.07.07-1.18.52-2.51.58-3.73.15-1.09-.37-2.27-.37-3.37,0-1.54.45-3.19.29-4.61-.44-1.17-.59-1.9-.15-2.63.73-2.41,2.78-2.56,6.29-2.56,9.73.09.63.13,1.27.15,1.9-.07.66-.07,1.32-.88,1.54-.64.12-1.28-.17-1.61-.73-.51-.66-.88-1.39-1.39-2.05-.79-.27-1.55-.61-2.27-1.02-1.9-.96-2.78-3.19-2.05-5.2.15-.59.29-1.24.44-1.83,0-.22.15-.59,0-.66-2.71-2.12-2.78-4.02-.44-6.44.29-.29.66-.59,1.02-.95-1.54-1.61-3.51-3.22-2.12-5.78,1.39-2.78,4.02-2.49,6.51-1.98,3.22-3.88,5.78-4.1,10.46-1.17,1.91-1.82,4.56-2.66,7.17-2.27,2.63.51,5.05,1.61,5.63,4.98,2.62-.83,5.47.15,7.02,2.41.27.28.64.43,1.02.44,3,.22,4.61,3.95,2.93,6.81-.32.54-.69,1.05-1.1,1.54l1.46,3.44Z"/>
      <path class="cls-14" d="M354.43,364.2c-.32,2.11-2.11,3.68-4.24,3.73-2.49.22-4.24-1.39-5.49-3.37.36-.64.63-1.33.8-2.05.29-2.49,0-3.22-2.34-4.24-2.9-1.37-5.21-3.73-6.51-6.66-.3-.71-.88-1.27-1.61-1.54-3.88-.95-5.27-4.54-1.83-7.02.19-.18.36-.37.51-.59.46.32.9.66,1.32,1.02.51.59.95,1.17,1.39,1.76l.59-.22c0-.59.07-1.17.07-1.76,0-1.61-.07-3.15,0-4.76.07-3.34,1.62-6.48,4.24-8.56,2.2,1.9,4.68,1.83,7.32.88.35-.14.75-.14,1.1,0,1.84.93,4.04.82,5.78-.29,1.83,1.61,3.66,3.15,5.34,4.68.37.43.58.97.59,1.54.37,2.49.73,4.9.95,7.39.07.88.37,1.24,1.24,1.24.11.15.16.33.15.51,0-.19-.07-.38-.22-.51.13-.43.23-.87.29-1.32-.07-1.25.81-2.35,2.05-2.56,2.06.57,3.39,2.56,3.15,4.68-.08,2.07-1.56,3.82-3.59,4.24-1.55.3-2.9,1.23-3.73,2.56-1.16,1.53-2.46,2.95-3.88,4.24-1.39,1.24-2.78,2.27-4.54,3.59l1.1,3.37Z"/>
      <path class="cls-26" d="M354.21,362.81c2.54.04,5.05.46,7.46,1.24.37.51,0,1.17,0,1.61-.22,4.46-.88,8.93,1.32,13.17.51,2.27,1.17,4.61,1.1,6.95-.08,1.05,0,2.11.22,3.15.88,4.1.73,8.34.66,12.51.17.79-.02,1.62-.51,2.27-2.24.48-4.52.7-6.81.66-4.32.22-8.71-.29-13.02-.29-2.66-.07-5.32,0-7.98.22-1.04.2-2.11.17-3.15-.07-.38-.48-.56-1.08-.51-1.68-.16-3.52.01-7.05.51-10.54.42-2.59.61-5.21.59-7.83,0-1.68,0-3.29-.07-4.98,2.13-3.89,3.05-8.32,2.63-12.73-.19-.77,0-1.59.51-2.2.29-1.17,1.46-.88,2.27-.95,1.9-.15,3.81-1.02,5.78-.22.88.22,1.32.95,2.05,1.39,2.63,1.54,4.54,1.24,6.22-1.02.23-.24.47-.46.73-.66Z"/>
      <path class="cls-14" d="M328.67,381.03l.37-2.49,1.17-4.24c1.54,0,2.85.88,4.24,1.39l.22,5.85c-.38,2.81-.57,5.65-.59,8.49l-.37,14.27c.95,1.4,2.17,2.59,3.59,3.51.73.58,1.39,1.25,1.98,1.98.51.59,1.17,1.17.73,1.98s-1.32.66-2.05.59c-2.2-.22-2.63.15-2.41,2.41,0,.73.44,1.54-.22,2.2-1.54.88-2.71,0-3.88-.88-3.07-2.39-4.02-6.62-2.27-10.1.27-.73.32-1.51.15-2.27-1.02-6.8-1.39-13.69-1.1-20.56-.14-.74.02-1.5.44-2.12Z"/>
      <path class="cls-14" d="M386.77,327.47l.95-2.34,2.12-3.88c1.54.37,2.56,1.54,3.73,2.41l-1.17,5.78c-1.04,2.65-1.9,5.36-2.56,8.12l-3.81,13.76c.57,1.6,1.47,3.07,2.63,4.32.57.75,1.06,1.56,1.46,2.41.37.66.88,1.39.22,2.12s-1.39.37-2.12.07c-2.12-.73-2.56-.51-2.85,1.76-.15.73,0,1.54-.73,2.05-1.68.44-2.63-.66-3.59-1.76-2.43-3.04-2.34-7.38.22-10.32.43-.63.65-1.36.66-2.12.64-6.86,1.92-13.64,3.81-20.27.13-.79.48-1.53,1.02-2.12Z"/>
      <path class="cls-35" d="M334.45,381.62c-1.68.22-2.85-.8-4.24-1.39-1.1-.37-2.2-.73-3.37-1.02-1.68-.37-1.98-.73-1.32-2.34,1.47-3.61,3.58-6.93,6.22-9.81.8-.8,1.61-1.54,2.41-2.34.59-.86,1.77-1.08,2.63-.49.02.02.05.03.07.05.16.08.28.21.37.37.07,4.83.51,9.66-1.32,14.27-.55.87-1.04,1.77-1.46,2.71Z"/>
      <path class="cls-14" d="M369.79,383.08c-.14.25-.22.52-.22.8.52,5.45.28,10.94-.73,16.32-.22,2.05-.37,4.1-.44,6.15,0,.42.14.82.37,1.17,1.54,3,.07,7.9-2.93,9.37-.79.21-1.6.3-2.41.29-.73-.73-.51-1.76-.44-2.63,0-1.32-.51-1.98-1.83-1.9-.29.07-.59.07-.88,0-1.39-.22-1.61-.8-.73-1.83,1.12-1.29,2.32-2.51,3.59-3.66,1.01-.81,1.56-2.07,1.46-3.37v-2.63c.22-5.97-.07-11.94-.88-17.85-.37-2.63-.66-5.2-1.02-7.83,1.98,0,3.81-1.17,5.85-.73l.51,1.46c.79,2.2,1.05,4.56.73,6.88Z"/>
      <path class="cls-14" d="M456.8,329.45c-.14.3-.24.62-.29.95.57,6.08.3,12.21-.8,18.22-.29,2.28-.44,4.58-.44,6.88,0,.44.14.87.37,1.24,1.76,3.29.07,8.78-3.22,10.46-.88.25-1.8.34-2.71.29-.88-.88-.59-1.98-.51-3,0-1.46-.59-2.2-2.05-2.12-.31.07-.64.07-.95,0-1.54-.22-1.83-.88-.88-2.05,1.23-1.45,2.58-2.8,4.02-4.02,1.11-.91,1.74-2.29,1.68-3.73v-2.93c.27-6.67-.05-13.36-.95-19.98-.37-2.93-.73-5.78-1.1-8.71,2.2,0,4.24-1.32,6.51-.88l.51,1.68c.96,2.44,1.24,5.1.8,7.68Z"/>
      <path class="cls-35" d="M368.55,380.52c-1.32.29-2.63.73-3.88.95-.66.02-1.32-.02-1.98-.15-.72-1.59-1.26-3.26-1.61-4.98-.21-3.22-.23-6.44-.07-9.66.14-.8.36-1.58.66-2.34.8-.38,1.75-.13,2.27.59,2.87,3.05,5.28,6.5,7.17,10.24.28.51.5,1.05.66,1.61.45,1,0,2.17-1,2.62,0,0-.02,0-.03.01-.07,0-.15.07-.22.07-.69.28-1.35.63-1.98,1.02Z"/>
      <path class="cls-11" d="M337.89,336.03c.15-.37.66-.37,1.02-.51,2.56-1.03,5.4-1.16,8.05-.37.29,0,.8.66.88,1.02s-.59.51-.88.51c-3.07-.66-4.54-.95-8.63.07-.22.07-.44-.59-.44-.73Z"/>
      <path class="cls-11" d="M360.67,336.76c-4.1-1.02-5.56-.8-8.63-.07-.29,0-.95-.15-.88-.51s.59-1.02.88-1.02c2.65-.8,5.49-.67,8.05.37.37.15.95.15,1.02.51.05.15-.24.8-.44.73Z"/>
      <path class="cls-11" d="M341.33,341.74c-.07-1.17.51-2.12,1.54-1.98.66.07,1.46,1.24,1.54,2.05.23.86-.28,1.74-1.14,1.97,0,0-.02,0-.03,0-.15,0-.29.07-.44.07-1.24-.15-1.61-1.02-1.46-2.12Z"/>
      <path class="cls-11" d="M357.65,341.59c0,.95-.15,1.98-1.46,2.05s-1.54-1.02-1.61-1.98.29-1.76,1.54-1.76,1.54.59,1.54,1.68Z"/>
      <path class="cls-34" d="M344.7,352.57c.73.37,2.93,1.54,4.9,1.39,1.57-.23,3.07-.8,4.39-1.68-1.32.22-3.15.88-4.83.95-1.32.07-3.29-.51-4.46-.66Z"/>
      <path class="cls-14" d="M428.55,294.61c-.44,3.15-2.78,5.41-5.63,5.49-3.37.29-5.63-2.05-7.39-4.98.44-.95.37-1.98.59-3.07.44-3.66-.22-4.02-3.37-5.49-3.88-2.05-6.22-6.22-7.98-10.54-.43-1-1.21-1.81-2.2-2.27-5.2-1.32-7.02-6.66-2.41-10.39.24-.28.46-.57.66-.88.62.47,1.21.98,1.76,1.54.66.8,1.24,1.76,1.9,2.63l.73-.29c0-.88.15-1.76.15-2.56,0-2.34-.15-4.68,0-7.02.02-4.8,2.07-9.37,5.63-12.59,2.93,2.78,6.29,2.63,9.81,1.24.46-.22,1-.22,1.46,0,2.41,1.39,5.41,1.24,7.68-.37,2.49,2.41,4.83,4.61,7.1,6.95.45.65.73,1.41.8,2.2.51,3.66.95,7.24,1.32,10.9.15,1.32.51,1.9,1.68,1.83.14.22.21.47.22.73.05-.28-.06-.57-.29-.73.16-.63.28-1.26.37-1.9-.13-1.75,1.01-3.35,2.71-3.81,2.78.8,4.54,3.73,4.17,6.88.04,2.95-1.97,5.52-4.83,6.22-2.13.5-3.94,1.88-4.98,3.81-1.51,2.27-3.28,4.35-5.27,6.22-1.9,1.83-4.02,4.1-4.54,5.78-.37,1.24.15,4.46.15,4.46Z"/>
      <path class="cls-2" d="M391.97,262.71l.44-1.32c.96-3.16,2.26-6.2,3.88-9.07,4.61-8.27,12.07-16.39,21.88-17.78,4.61-.66,9.32.14,13.46,2.27,4.17,2.12,6.73,5.34,9.95,8.63,3,3.07,5.05,5.78,6.59,9.88,2.85,7.68,5.05,15.81,4.83,24-.07,3-.51,5.56-3.15,7.39-2.63,1.83-5.93,2.2-8.85,2.56-.51.15-1.02.37-1.46.51-.05.19-.24.32-.44.29-2.85.59-5.63,1.24-8.49,1.83.59-2.05.66-4.46,1.83-6,3.51-4.76,8.34-9,9.51-13.32.73-2.56,0-10.83,0-10.83,0,0-1.9-2.05-1.98-3.07,0-3.29-1.9-3.81-4.54-3.73-8.05.07-16.1.07-24.15-.15-3.73-.15-6.15.51-6.59,4.76-.07,1.02-1.83,2.78-1.83,2.78,0,0-.29,7.17.15,9.37.73,3.81,3.88,7.9,7.46,11.56,2.27,2.34,3.95,4.39,3.88,7.68l-5.71-1.32c-3.29-.07-6.66.22-9.88-.22-6.44-.8-8.27-3.15-8.27-9.51,0-3,.07-5.93.15-8.93-.29-2.71.51-5.71,1.32-8.27Z"/>
      <path class="cls-2" d="M407.19,260.44c.15-.51.95-.51,1.39-.73,3.45-1.39,7.28-1.54,10.83-.44.44,0,1.1.88,1.17,1.39s-.8.66-1.17.73c-4.17-.95-6.15-1.24-11.71.07-.2.07-.59-.73-.51-1.02Z"/>
      <path class="cls-2" d="M437.92,261.47c-5.56-1.39-7.54-1.02-11.71-.07-.37-.07-1.24-.22-1.17-.73s.73-1.39,1.17-1.39c3.55-1.1,7.38-.95,10.83.44.51.22,1.24.22,1.39.73.15.29-.2,1.1-.51,1.02Z"/>
      <path class="cls-2" d="M411.72,267.47c-.15-1.61.73-2.85,2.12-2.63.88.15,1.98,1.68,2.12,2.71.28,1.17-.44,2.35-1.61,2.63-.19.06-.39.08-.59.07-1.68-.07-2.12-1.24-2.05-2.78Z"/>
      <path class="cls-2" d="M433.84,267.32c0,1.32-.22,2.71-1.98,2.71s-2.05-1.39-2.2-2.71.37-2.41,2.05-2.34c1.68.07,2.17.8,2.12,2.34Z"/>
      <path class="cls-29" d="M429.72,279.39c-3.6,3.78-9.55,4.04-13.46.59,2.09.5,4.22.74,6.37.73,2.18-.39,4.31-1,6.37-1.83.25-.14.56-.08.73.15v.37Z"/>
      <path class="cls-46" d="M412.89,291.54c1.46.22,3.88,1.02,5.27,1.17,2.71.37,5.49.15,8.27.22,1.32-.37,2.71-.66,4.02-1.02h0c2.85-.59,6.22-1.54,8.93-.59,3.81,1.32,2.41,1.39,2.93,2.63,1.1,2.63-1.68,4.54-1.02,7.17,2.05,8.49,3.59,16.9,3.51,25.76-.07,8.85,1.17,17.63,1.9,26.42.07.88-.37,1.98.07,2.85-.37,3.15.37,6,0,9.22.59,7.46,1.24,14.93,1.83,22.46.37,10.02.88,19.98,1.17,30,.22,7.02.07,7.02-6.59,8.05h-48.08c.37-6.15,2.85-22.46,3-28.61,2.27-4.46.66-8.93.44-13.54-.29-6.15,1.39-12.29,1.61-18.51.29-7.98.29-16.03,0-24.07-.15-3.37-.29-5.93-.51-9.44.07-2.12,1.54-14.78,2.27-16.98,0,0-1.61,3.59-3.37,7.9-.44,1.02-.8,1.61-1.54,3.22-1.68,2.63-5.12,11.71-6.81,14.34-2.27-1.61-4.83-.29-7.1-1.9-.37-1.39,1.83-11.56,1.98-13.02.44-4.24,2.49-7.9,4.98-11.34,5.41-7.54,10.9-19.54,17.05-22.03"/>
      <path class="cls-46" d="M447.29,344.81c-.73-8.78,1.02-9-.51-17.78.07-8.85-4.46-13.39-6.51-21.88-.59-2.63,1.46-9.73,1.76-12.59,6.59,4.1,9.44,10.9,12.37,17.63.73,1.68,1.39,3.37,2.12,5.05,2.56,11.85,3.29,16.1,4.02,27.44"/>
      <path class="cls-2" d="M284.4,257.95l-9.15-.66-.51-.59c.59-.66,1.1-1.61,1.83-1.83,3.01-1.09,6.37.22,7.83,3.07Z"/>
      <path class="cls-2" d="M262.23,256.34c-2.41.29-4.83.59-7.39.8-.29,0-.8-.51-.88-.88-.05-.5.11-1.01.44-1.39,1.32-1.32,6-.95,7.68.44l.15,1.02Z"/>
      <path class="cls-2" d="M278.99,260.44c.8,1.46,2.05,2.85,0,3.88-.96.14-1.92-.22-2.56-.95-.88-2.05.37-2.85,2.56-2.93Z"/>
      <path class="cls-2" d="M259.45,260.44c.8,1.46,2.05,2.85,0,3.88-.96.14-1.92-.22-2.56-.95-.86-2.05.37-2.85,2.56-2.93Z"/>
    </g>
  </g>
</svg>