<?xml version="1.0" encoding="UTF-8"?>
<svg id="Layer_2" data-name="Layer 2" xmlns="http://www.w3.org/2000/svg" viewBox="0 0 780.81 589.16">
  <defs>
    <style>
      .cls-1 {
        fill: #472c20;
      }

      .cls-1, .cls-2, .cls-3, .cls-4, .cls-5, .cls-6, .cls-7, .cls-8, .cls-9, .cls-10, .cls-11, .cls-12, .cls-13, .cls-14, .cls-15, .cls-16, .cls-17, .cls-18, .cls-19, .cls-20, .cls-21, .cls-22, .cls-23, .cls-24, .cls-25, .cls-26, .cls-27, .cls-28, .cls-29, .cls-30, .cls-31, .cls-32, .cls-33, .cls-34, .cls-35, .cls-36, .cls-37, .cls-38, .cls-39, .cls-40, .cls-41, .cls-42, .cls-43, .cls-44, .cls-45, .cls-46, .cls-47, .cls-48, .cls-49, .cls-50, .cls-51, .cls-52, .cls-53, .cls-54, .cls-55, .cls-56, .cls-57, .cls-58, .cls-59, .cls-60, .cls-61, .cls-62, .cls-63, .cls-64, .cls-65 {
        stroke-width: 0px;
      }

      .cls-2 {
        fill: #de9a76;
      }

      .cls-3 {
        fill: #86b065;
      }

      .cls-4 {
        fill: #619694;
      }

      .cls-5 {
        fill: #eca04b;
      }

      .cls-6 {
        fill: #371f17;
      }

      .cls-7 {
        fill: #84998b;
      }

      .cls-8 {
        fill: #f9b971;
      }

      .cls-9 {
        fill: #8b969c;
      }

      .cls-10 {
        fill: #353b55;
      }

      .cls-11 {
        fill: #eca04c;
      }

      .cls-12 {
        fill: #ec9f4b;
      }

      .cls-13 {
        fill: #faede2;
      }

      .cls-14 {
        fill: #3e6369;
      }

      .cls-15 {
        fill: #3f686e;
      }

      .cls-16 {
        fill: #5a9d8d;
      }

      .cls-17 {
        fill: #87bfdf;
      }

      .cls-18 {
        fill: #ecc0a2;
      }

      .cls-19 {
        fill: #32211c;
      }

      .cls-20 {
        fill: #322217;
      }

      .cls-21 {
        fill: #2f201b;
      }

      .cls-22 {
        fill: #353c54;
      }

      .cls-23 {
        fill: #83b263;
      }

      .cls-24 {
        fill: #88bfde;
      }

      .cls-25 {
        fill: #f9c47f;
      }

      .cls-26 {
        fill: #e18438;
      }

      .cls-27 {
        fill: #78a867;
      }

      .cls-28 {
        fill: #cfc8c3;
      }

      .cls-29 {
        fill: #b5834c;
      }

      .cls-30 {
        fill: #f3eae2;
      }

      .cls-31 {
        fill: #cdc8c4;
      }

      .cls-32 {
        fill: #eec1a2;
      }

      .cls-33 {
        fill: #dc834a;
      }

      .cls-34 {
        fill: #442a20;
      }

      .cls-35 {
        fill: #92a77c;
      }

      .cls-36 {
        fill: #f4ebe4;
      }

      .cls-37 {
        fill: #f8c480;
      }

      .cls-38 {
        fill: #819a8e;
      }

      .cls-39 {
        fill: #91a57b;
      }

      .cls-40 {
        fill: #34261b;
      }

      .cls-41 {
        fill: #b5824c;
      }

      .cls-42 {
        fill: #669b6b;
      }

      .cls-43 {
        fill: #679868;
      }

      .cls-44 {
        fill: #85b165;
      }

      .cls-45 {
        fill: #372119;
      }

      .cls-46 {
        fill: #f9b972;
      }

      .cls-47 {
        fill: #589e8e;
      }

      .cls-48 {
        fill: #353b54;
      }

      .cls-49 {
        fill: #dd834a;
      }

      .cls-50 {
        fill: #91a77c;
      }

      .cls-51 {
        fill: #f9fcfd;
      }

      .cls-52 {
        fill: #8a979d;
      }

      .cls-53 {
        fill: #8a979e;
      }

      .cls-54 {
        fill: #89bfde;
      }

      .cls-55 {
        fill: #fef9f6;
      }

      .cls-56 {
        fill: #30201b;
      }

      .cls-57 {
        fill: #84b263;
      }

      .cls-58 {
        fill: #b6824c;
      }

      .cls-59 {
        fill: #689969;
      }

      .cls-60 {
        fill: #ec7164;
      }

      .cls-61 {
        fill: #ec7163;
      }

      .cls-62 {
        fill: #31211b;
      }

      .cls-63 {
        fill: #b08b5c;
      }

      .cls-64 {
        fill: #37231d;
      }

      .cls-65 {
        fill: #909492;
      }
    </style>
  </defs>
  <g id="illustrazioni">
    <g>
      <path class="cls-41" d="M306.94,543.94c-14.79,4.16-29.83,6.83-45.12,8.56-13.31,1.53-26.62,1.29-39.88.35-9.85-.69-19.64-2.18-29.44-3.27-19.05-2.13-37.65-6.73-56.2-11.33-20.19-5-39.18-13.11-57.59-22.86-17.56-9.3-33.05-21.37-46.95-35.33-10.04-10.04-15.34-23.01-18.31-36.76-1.48-6.88-2.97-13.7-3.56-20.73-.64-7.92.25-15.68,1.63-23.4.64-3.81,1.19-7.67,2.37-11.33,1.73.2,1.83,1.83,2.52,2.92,2.23,3.56,4.95,6.63,8.86,8.46,2.37,1.09,4.75,1.53,7.08-.15.35.3.59.74.64,1.19.49,7.17,2.28,14.15,3.41,21.23.3,1.88,0,3.91,1.73,5.34.3.99-.15,1.83-.59,2.62-3.27,5.79-3.96,12.22-5.1,18.55-.4,2.28,1.34,4.45,3.71,4.55,2.57.15,5.19.4,7.67-.64.35-.15.74-.25,1.09-.25,5.54.45,10.93-1.48,16.52-1.29,7.03.25,13.95-.99,20.93-1.43,5.89-.35,11.82-1.48,17.66-2.67.84-.15,1.63-.2,2.37.3.74,1.34-.2,2.18-1.04,2.82-6.93,5.69-6.18,20.04-.89,26.87,1.63,2.13,4.16,2.67,6.43,2.77,8.51.35,17.02.3,25.53.05,1.04,0,1.93-.59,2.97-.79,1.19-.25,2.42-.3,3.61-.1,11.87,2.13,23.9,1.58,35.67.64,12.96-.99,25.93-1.24,38.79-.49,11.18.64,22.41,0,33.5.99,7.47.69,15.04,1.14,22.46,2.82,4.55,1.04,8.91-.99,13.01-2.87.99-.45,1.88-1.14,2.77-1.83,2.67-1.98,4.25-4.55,4.21-8.02,0-4.3-1.14-8.21-4.01-11.53-.84-.94-1.48-1.93-1.09-3.27,1.68-6.18-.49-11.87-2.52-17.46-2.37-6.53-7.42-10.49-13.26-13.95-5.79-3.36-11.78-5.24-18.45-4.75-1.48.1-2.92.25-4.35.69-4.21,1.29-5.79.54-7.03-3.66-1.73-5.74-4.85-10.54-9.15-14.64-3.17-3.02-6.83-4.6-11.23-4.6-3.12,0-6.28.3-9.4-.2-1.43-.45-1.48-1.73-1.73-2.87-1.24-5.34-3.91-9.7-7.72-13.8-5.15-5.59-17.37-6.98-23.01.15-1.34,1.63-2.97,3.07-4.06,4.9-.84,1.39-1.93,1.83-3.51,1.39-7.67-2.08-15.49-3.27-23.25-4.85-4.25-.89-8.02.69-11.63,2.67-.84.45-1.58,1.39-2.77.84-1.98-3.07-2.52-6.48-2.52-10.04.45-1.34,1.58-1.68,2.77-1.98,5.24-1.29,9.9-3.51,13.46-7.77,3.51-4.21,5.34-8.56,3.81-14.25-.94-3.56-1.83-7.08-3.17-10.54-2.03-5.05-5.39-9.25-8.46-13.61-2.87-4.06-6.43-7.47-10.84-10.04-4.4-2.57-9-3.66-14-3.27-2.18.2-4.06,1.39-5.44,3.07-1.53,1.93-3.27,3.86-4.45,5.99-3.41,6.13-7.12,12.07-9,19-1.48,5.39-1.83,10.69-.4,16.08.54,2.08,0,4.25.59,6.33.99,3.41,2.52,6.58,4.25,9.65,2.03,3.61,5.39,4.85,10.09,3.46,2.28-.69,4.5-.84,6.83-.79,2.03,0,4.06,0,5.99-.79,1.14-.45,2.37-.45,3.51.25,2.23,3.31,2.18,7.37,3.31,11.03.54,1.83,1.19,3.71.99,5.69-.94,3.66-2.28,7.22-1.98,11.08.15,1.83-.79,2.82-2.52,3.46-8.31,3.07-8.91,6.48-6.93,14.74,1.19,4.9,3.76,9.2,6.33,13.51.84,1.43,1.83,2.77,1.98,4.5.25,2.57.15,5.64-2.42,6.48-3.12,1.04-6.78,1.68-9.9-.74-1.39-5.05-2.13-10.29-3.66-15.29-2.37-7.72-7.47-12.42-16.87-12.37-3.71,0-7.37.1-10.84,1.63-1.73.79-3.12.2-4.01-1.34-1.14-1.93-2.52-3.66-3.51-5.64-2.52-4.95-8.06-7.32-13.46-5.99-1.78.45-3.61.54-5.44,1.04-5.59,1.53-9.55,5.1-13.01,9.45-.59.74-.94,1.98-2.33,1.24-2.18-2.37-1.83-5.54-2.42-8.31-.79-3.76-1.39-7.52-2.37-11.23-.1-.45,0-.89.25-1.34,4.21,1.29,5.89-1.68,7.62-4.55,2.62-4.25,3.71-9,4.16-13.95.3-3.41.89-6.78,1.48-10.09.89-5.29.74-10.44.2-15.73-1.09-9.94-2.82-19.79-6.18-29.19-3.22-8.86-6.98-17.51-11.92-25.58-3.17-5.15-7.22-9.35-13.31-11.13-.45-.15-.84-.35-1.04-.84.4-2.52-.49-4.95-.89-7.32-4.11-25.03-3.61-49.92,1.88-74.66,7.22-32.46,19-63.13,36.32-91.53,9.15-14.99,20.29-28.4,33.94-39.63.3-.25.59-.4.94-.59,1.78.74,1.24,2.23.99,3.51-1.14,5.69-.74,6.09,5.15,6.18,18.95.25,37.9-.99,56.8-.54,1.68,0,3.31-.05,4.95.3,2.03.84,4.16.79,6.28.79h137.34c1.83,0,3.71-.25,5.49.49,1.93,1.34.54,2.37-.45,3.27-5,4.4-10.04,8.71-15.19,12.96-6.04,5-11.92,10.24-18.06,15.14-1.39,1.09-1.83,2.77-3.02,3.91-2.23.84-4.65-.05-6.83.89-.94.1-1.58-.4-2.18-.99-4.35-4.3-9.6-7.57-14.05-11.73-2.62-2.42-5.59-3.56-9.3-3.46-8.06.2-16.08.15-24.14,0-3.27-.05-5.94.99-8.36,3.02-6.78,5.74-13.75,11.23-20.68,16.77-1.09.89-2.13,1.78-3.46,2.23-6.93.69-12.96,3.27-17.91,8.26-2.08,2.13-3.22,4.7-4.21,7.37-.4,1.04-.74,2.08-1.34,3.02-.4.59-.94,1.09-1.63,1.34-4.06,1.19-8.02,2.62-11.23,5.54-2.08,1.93-3.56,4.21-3.76,7.12,0,.54-.2,1.09-.64,1.48-2.57.94-5.39.64-8.02,1.43-2.33.69-4.5,1.39-6.28,3.12-.64.64-1.34,1.34-2.37.89-.99-1.09-.84-2.47-.69-3.71.59-5.99-3.17-9.35-7.42-12.37-2.47-1.73-5.29-2.47-8.41-2.23-2.28.2-4.6.1-6.93,0-1.88-.05-3.61.49-5.34,1.19-3.22,1.29-6.73,1.93-9.75,3.81-3.22,1.98-6.53,3.71-8.46,7.32-1.98,3.76-2.97,7.37-.94,11.58,2.28,4.8,5.19,8.71,10.34,10.64,2.52.94,5.24.94,7.82,1.68,1.39.4,2.52.89,3.66,1.83,5.24,4.4,11.08,5,17.37,2.52,1.39-.54,2.77-1.09,4.3-.64,3.91,1.19,7.82,2.08,11.97,1.88s8.26,0,12.42.89c2.62.59,5.54.45,8.21-.54,1.24-.45,2.52-.49,3.81,0,.35.15.59.4.79.69.64,1.29.54,2.72.54,4.11v110.28c0,1.58-.25,3.12-.1,4.7.15,3.22,0,6.48.05,9.7.05,4.95.74,5.64,5.59,5.64h55.71c1.09,0,2.23,0,3.31.1,5.94-.15,11.87-.15,17.86,0,13.51-.15,27.01-.15,40.57,0,54.08-.15,108.1-.2,162.18,0,15.14-.2,30.28-.1,45.47-.05,1.19,0,2.42,0,3.22,1.19.45,1.34-.3,2.33-.94,3.31-7.77,12.17-13.9,25.28-21.23,37.75-5,8.51-10.39,16.87-18.06,23.4-2.42,2.08-5.19,3.51-8.21,4.45-2.82.89-5.64,1.83-8.36,3.02-.79.35-1.53.84-1.43,1.83s.94,1.48,1.73,1.53c7.17.54,13.41,3.96,19.99,6.38,4.75,1.73,9.8,1.98,14.74,2.42,6.38.54,12.72,1.34,19.05,2.08,7.27.89,14.6.45,21.92.49,13.9.15,27.71-1.48,41.46-3.02,1.58-.2,3.12-.54,4.6.2,1.43,3.61,1.68,7.52,2.92,11.13,2.47,7.42,4.95,14.89,8.56,21.87,2.13,4.06,4.9,7.47,9.6,8.61,3.22.74,6.53,1.29,8.31-2.72,1.09.1,1.39.94,1.43,1.73.45,7.12,2.97,13.85,3.61,20.93.2,2.08,1.58,4.01.54,6.18-.64.89-1.48.54-2.23.2-3.81-1.93-7.97-2.28-12.02-2.97-.3,0-.59-.2-.84-.1-4.5,1.73-7.12-1.19-9.7-4.06-1.93-2.18-4.35-3.71-6.83-5.19-4.6-2.82-9.45-2.72-14.4-.99-8.02,2.82-14.55,7.32-17.32,15.78-.99,3.07-1.48,6.28-1.88,9.45-.35,2.87-.59,3.31-3.56,3.36-7.22.15-12.81,6.83-13.31,13.75-.74,10.93,11.28,22.36,21.57,21.42,1.73-.15,3.51,0,5.29-.15,49.92-.1,99.84,0,149.76,0,1.39,0,2.82-.2,3.96.94-4.75,5.34-10.64,9.35-16.48,13.46-16.13,11.43-34.44,17.66-53.48,22.12-10.09,2.37-20.14,4.7-30.43,5.94-7.72.94-15.49,1.04-23.25.54-8.66-.59-17.32-1.34-25.97-1.93-11.87-.79-23.7-2.33-35.47-4.11-18.75-2.82-37.26-6.63-55.61-11.48-12.07-3.17-24.09-6.43-36.17-9.6-1.04-.2-1.63-.84-1.68-1.88-.15-2.08-.49-4.21.4-6.23.69-.79,1.63-.79,2.52-.89.54,0,1.14,0,1.63-.2,1.73-.59,3.56-1.53,3.46-3.46-.05-2.18-2.08-2.52-3.96-2.52h-14.15c-1.39,0-2.82.1-3.86-1.09-1.09-2.08-.54-4.35-.59-6.53-.1-6.83-1.93-9.3-8.46-11.43-1.63-.54-3.41-.89-4.25-2.72.94-1.24,2.37-1.58,3.76-2.03,1.48-.49,2.97-.89,3.86-2.33.64-.64,1.34-1.29,2.37-.89,2.13,1.29,4.5.74,6.78.89,1.63.1,3.36-.35,4.75.94.79,1.29.59,2.67.64,4.06v15.24c0,1.78.4,3.07,2.62,3.02,2.13,0,2.28-1.43,2.28-3.02v-15.24c0-1.29-.1-2.62.45-3.81,1.04-1.43,2.62-1.09,4.06-1.14,1.73-.1,3.51.1,5.19-.69,2.52-1.19,3.81-2.92,3.46-4.75-.35-1.83-2.62-3.76-4.85-4.01-2.03-.2-4.06-.05-6.09-.1-1.29,0-2.62.15-3.86-.35-.84-.4-1.19-1.14-1.43-1.98-1.09-4.06-3.86-7.12-6.43-10.24-3.86-4.7-7.52-9.65-12.07-13.75-.74-.64-1.29-1.58-2.67-1.88-.74,2.62-.1,5.24-.4,7.82-.1,1.04.54,2.47-1.19,2.92-.99-.84-.84-1.98-.89-3.07-.05-1.68,0-3.31,0-5,0-4.35-1.83-6.28-6.23-6.63-1.93-.15-3.91.25-5.79-.4-1.29-1.34.05-1.48.84-1.63,4.95-.94,9.5-2.92,13.95-5.34,4.25-2.28,7.17-5.94,10.54-9.15.64-.64,1.24-1.39,1.73-2.18,1.43-2.18,3.07-3.51,5.99-2.52,1.78.59,3.41-.25,4.8-1.53,4.55-4.16,5.64-10.84,2.67-16.52.05-.79.69-1.04,1.24-1.39,4.65-3.02,6.33-8.36,3.76-13.26-1.29-2.42-.94-4.01.79-5.84,2.67-2.82,3.81-6.18,3.66-10.14-.25-5.24-4.6-9.4-9.85-9-3.76.25-3.71.25-3.56-3.36.05-1.73,0-3.51-.25-5.24-1.53-8.81-9.45-11.03-15.98-9.35-.69.2-1.39.54-2.08.79-3.02,1.09-3.56.84-4.55-2.28-1.48-4.6-8.16-8.16-12.81-6.83-4.16,1.19-8.06,2.77-11.18,5.94-1.29,1.29-2.47,1.29-3.36-.35-3.46-6.43-10.88-5.84-15.63-2.42-2.77,1.98-5.19,4.16-6.04,7.62-.49,2.03-1.63,2.57-3.71,1.78-5.19-1.98-9.15-.59-12.32,3.91-.74,1.04-1.43,2.18-2.03,3.31-1.63,3.12-1.63,6.09.25,9.2,1.88,3.07,1.73,3.22-1.34,4.7-2.72,1.29-3.91,3.61-4.06,6.43-.15,2.42.4,4.8,1.43,7.03,1.53,3.27,3.17,6.48,4.9,9.65.54.94,1.29,1.88.84,3.07-3.91,2.82-5.1,6.48-3.91,11.13,1.24,4.85,3.12,8.96,8.71,9.85,1.29.2,2.33.79,2.87,1.93,4.65,9.8,13.01,14.99,22.76,18.5.94.35,2.37.54,1.48,2.23-3.56.84-7.12,1.48-10.69,2.13-1.93.35-3.07,1.43-3.27,3.41-2.47-.4-3.96,1.19-5.39,2.72-4.95,5.24-9.9,10.49-13.95,16.48-1.39,1.98-2.42,4.16-3.27,6.38-.35.94-.49,2.03-1.58,2.47-4.3.69-8.66.15-12.96.3-1.58.05-3.12.15-4.55.99-1.58.94-2.23,2.33-2.28,4.16,0,1.78,1.19,2.52,2.52,3.27,2.42,1.34,5,.94,7.57,1.09,1.68.1,3.56-.45,4.95,1.09.45.74.54,1.58.54,2.42.05,6.38.05,12.76,0,19.15,0,.74-.1,1.48-.4,2.18-1.39,1.78-3.36,1.04-5.1,1.24-1.88.2-4.16-.4-4.45,2.42-.25,2.08,1.58,3.46,4.55,3.71,1.63.15,3.36-.35,4.75.94,1.09,2.37.59,4.9.49,7.32,0,1.04-.69,1.68-1.68,1.88l-.4.3Z"/>
      <path class="cls-41" d="M603.6,234.52c5.79,7.47,13.85,10.69,22.86,12.17,8.51,1.39,17.27,1.29,25.38,5.15,14.45,6.93,26.82,16.38,38.2,27.61,17.51,17.37,28.79,38.24,37.16,61,.2.59.25,1.24.4,1.88-.69,2.18-2.87,2.77-4.45,3.86-5.59,3.71-10.93,7.52-15.09,13.11-4.21,5.64-7.62,11.53-9.45,18.31-1.29,4.65-2.18,9.3-1.93,14.15.1,1.39.45,3.02-.89,4.16-1.09.3-1.98-.35-2.92-.64-5.29-1.73-10.64-3.36-16.23-3.17-14.1.49-25.18,6.73-33.1,18.36-5.34,7.87-7.72,16.72-7.87,26.17-.05,4.06.84,5.05,4.9,4.9,8.41-.3,16.82-.59,25.23-.99,9.35-.4,18.7.2,28.05-.15,9.25-.35,18.5-.15,27.71-1.04,2.72-.25,3.22-.99,3.66-5.44.35-4.35.3-8.76,1.93-12.86,2.08-.79,4.16-1.14,6.18.3-1.29,14.25-2.72,28.5-7.32,42.15-1.09.79-1.68-.2-2.33-.74-1.09-.99-2.23-1.98-3.17-3.12-3.27-4.06-7.97-5-12.67-5.19-4.11-.2-8.26-.54-12.37.69-8.81,2.67-15.34,7.82-19.15,16.23-1.19,1.14-2.67,1.63-4.16,2.18-7.62,3.12-13.41,8.76-19.39,14.05-1.58,1.43-3.17,2.82-4.7,4.3-1.48,1.48-2.92,1.39-4.21-.35-8.06-10.54-19.3-12.62-31.66-11.97-5,.25-9.35,1.88-13.56,4.35-.89.49-1.78,1.04-2.82,1.09-.49,0-.89-.15-1.19-.59,1.04-4.75-1.29-8.96-2.08-13.41-.94-5.39-2.57-10.69-3.02-16.18-.15-1.78-.99-3.36-1.43-5.05-.25-.99-.74-1.93-.15-2.92,4.4-.54,6.88-3.66,9.15-6.93,3.36-4.75,4.45-10.24,5.19-15.88,1.04-8.06,0-16.03-.4-24.05-.2-4.06-.25-8.06-1.04-12.12-.69-3.46-2.08-6.73-2.67-10.19.64-3.76.15-7.72,2.18-11.23.99-.64,2.13-.64,3.22-.59,6.28.4,12.47-.49,18.6-1.73,6.93,3.12,14.25,4.01,21.82,4.06,4.55,0,8.46-1.63,12.27-3.76,2.67-1.48,3.76-4.16,4.21-6.88,1.39-8.56-1.48-16.82-8.96-22.12-2.13-1.48-4.35-2.72-6.63-3.96-5.89-3.22-11.87-3.81-18.11-1.43-.94.35-1.88.74-2.97.59-1.68-.3-1.83-1.58-1.93-2.92-.74-9.5-7.37-16.52-16.72-19.25-6.38-1.83-11.78,0-17.42,2.13-1.29.49-2.47,1.29-3.76,1.78-.1,0-.2.1-.25,0-4.16-2.42-8.31-4.75-12.27-7.47-.4-.89-.59-1.88-.35-2.87.1-4.65,0-9.25,0-13.85v-58.28c0-1.68-.05-3.31.2-5,.49-1.83.49-3.66,0-5.49-.2-1.29-.2-2.57-.2-3.86v-54.28c0-1.48-.15-2.97.54-4.35.94-.89,1.24,0,1.48.64.45,1.24.3,2.57.3,3.86,0,16.82-.15,33.69.1,50.51.1,8.06,3.51,14.99,9.2,20.78.25.25.54.49.84.74.59.4,1.19,1.09,1.98.79.84-.35.64-1.24.69-1.93.05-2.47,0-5,0-7.47,0-1.19-.2-2.47,1.04-3.27,1.53.84,1.19,2.37,1.24,3.71.25,5.34-.45,10.74-.49,16.08-.15,14.15-.05,28.3,0,42.45,0,1.29-.05,2.62.3,3.86.15.54.54.99,1.19.94.69,0,.89-.59.99-1.14.2-1.09.15-2.23.15-3.31v-56.06c0-1.63-.4-3.36.94-4.75,1.58.25,1.24,1.58,1.29,2.57.15,2.67,0,5.34.05,8.06.05,2.72.64,3.17,3.41,2.97,1.73-.15,3.17-.99,4.65-1.73.84-.45,1.58-1.43,2.72-.69l-.15-.05Z"/>
      <path class="cls-15" d="M595.93,484.57c7.57-5.05,15.78-6.93,24.89-5.74,8.16,1.09,15.54,3.36,21.42,9.5,1.29,1.34,1.78,4.16,3.91,3.71,1.63-.35,2.97-2.28,4.4-3.56,5.29-4.65,10.09-9.94,16.43-13.31,2.87-1.53,5.69-3.22,8.91-4.06,2.72-2.62,6.33-2.52,9.65-2.77,13.46-1.04,24.64,5.24,30.38,17.51,2.23,4.75,4.55,6.63,10.19,6.48,14.45-.35,24.74,7.47,32.41,19.1,1.29,1.98,3.02,3.81,2.97,6.43.84,2.28,1.53,4.8,1.04,7.03-.69,3.12-4.01,1.24-5.99,2.18-1.19.54-2.72.4-4.11.4h-60.76c-1.19,0-2.42-.1-3.56.4-2.77,0-5.54-.1-8.31-.1h-146.15c-3.71-.45-3.61-.74-2.67-4.55,1.29-5.24,3.31-10.19,5-15.24,1.98-5.94,5.1-11.23,9.94-15.44.99-.84,1.88-1.78,2.77-2.72,8.71-9,20.29-9.05,30.03-3.71,1.93,1.04,3.81,2.28,5.54,3.71,2.33,1.93,2.47,1.88,4.8-.3,2.08-1.98,4.16-3.96,6.93-4.95h-.05Z"/>
      <path class="cls-14" d="M603.6,234.52c-2.92,1.63-5.59,3.76-9.3,3.41-1.73-.15-2.42-.59-2.37-2.42.1-4.06,0-8.06,0-12.12,0-1.39,1.04-2.13,1.88-2.97,3.36-3.41,7.03-6.58,10.59-9.8,1.04-.94,2.87-2.13,1.48-3.56-1.24-1.29-2.42.49-3.41,1.39-2.57,2.37-5.24,4.7-7.87,7.03-.84.74-1.63,1.83-2.82,1.34-1.34-.54-1.09-2.03-1.09-3.22-.05-6.38,0-12.76,0-19.2v-19.99c0-2.03.64-3.66,2.03-5.24,3.61-4.25,6.28-9.15,9.45-13.7.59-.89.99-1.98-.15-2.67-1.04-.64-1.73.3-2.28,1.04-1.73,2.42-3.36,4.9-5,7.37-.45.69-.84,1.43-1.53,1.93-1.09.84-1.88.54-2.28-.74-.25-.89-.2-1.83-.2-2.77v-26.96c0-2.47.89-4.25,2.52-6.18,3.07-3.56,6.38-6.98,9.15-10.79.64-.89,2.08-1.98.69-3.02-1.24-.94-2.13.54-2.92,1.39-1.78,1.88-3.61,3.71-5.15,5.84-.69.94-1.53,2.18-2.87,1.78-1.58-.45-1.39-2.03-1.39-3.31-.05-11.68,0-23.35,0-35.03,0-1.04.05-2.03-.2-3.02-.15-.54-.4-1.09-1.04-1.14-.79-.05-1.09.59-1.34,1.19-.4,1.09-.3,2.18-.3,3.31v30.28c0,1.39.54,3.36-1.24,3.86-1.48.4-2.23-1.39-3.07-2.42-1.68-2.23-3.41-4.4-5.19-6.53-.64-.74-1.53-1.68-2.57-.74-.84.79-.25,1.73.3,2.52,2.62,3.71,5.49,7.22,8.46,10.64,2.23,2.57,3.46,5.24,3.36,8.76-.2,8.91-.05,17.76-.05,26.67v1.68c-.1.99.15,2.23-1.04,2.62-.94.3-1.68-.59-2.37-1.19-1.34-1.29-2.72-2.52-4.11-3.71-.84-.69-1.88-1.73-2.87-.59-.99,1.09.1,2.13.84,2.87,2.47,2.37,4.85,4.85,7.37,7.12,1.48,1.34,2.18,2.87,2.18,4.85v40.87c0,.64,0,1.29-.15,1.93-.35,1.63-1.24,2.03-2.57.99-1.43-1.14-2.67-2.57-4.01-3.86-.35-.3-.69-.64-1.04-.89-.89-.54-1.88-1.73-2.87-.69-1.04,1.09.1,2.03.84,2.82,2.57,2.67,5.24,5.24,7.82,7.87.64.64,1.43,1.24,1.29,2.33,0,3.96,0,7.97-.05,11.92,0,2.57-.64,2.97-2.87,1.48-3.86-2.57-6.23-6.33-8.31-10.39-3.17-6.18-3.56-12.76-3.46-19.59.2-15.14.05-30.33,0-45.52,0-.99.3-2.03-.35-2.97-.54-.4-.54-.94-.4-1.53,3.41-3.22,3.41-3.17-.64-6.09-4.25-3.07-7.87-6.88-12.12-9.99-.94-.69-1.39-1.68-1.24-2.92-.94-12.17-.35-24.34-.4-36.51,0-4.4,1.24-8.76,1.24-13.21.79-6.33,1.48-12.67,3.17-18.85,1.09-4.01,2.57-7.92,3.27-12.02.3-1.68,1.09-3.12,2.52-4.16,2.42-6.33,5.39-12.32,10.39-17.17,7.32-7.12,17.27-6.68,23.95.99,4.01,4.6,5.89,10.19,8.26,15.58,5.84,13.31,9.35,27.31,11.58,41.56,2.97,18.85,6.33,37.75,5.34,57.05-.99,19.15-3.02,38.15-7.37,56.85-2.52,10.88-7.03,20.83-15.98,28.15l-.15.15Z"/>
      <path class="cls-15" d="M306.5,83.81c-1.14-.45-2.33-.45-3.56-.45-47.84,0-95.69-.1-143.53-.1-1.24,0-2.37-.1-3.27-1.04-1.24-.84-1.14-1.98-.69-3.22,5.34-14.55,15.98-23.15,30.58-27.36,1.34-.4,2.77-.2,4.16-.25,1.68.1,2.97-.59,4.16-1.73,6.83-6.58,15.04-9.45,24.44-8.56,1.63.15,2.57-.4,3.36-1.73,1.39-2.18,2.37-4.6,4.65-6.09,5.05-4.7,10.64-8.36,17.46-10.29,8.51-2.37,17.07-3.41,25.78-2.28,11.68,1.53,20.98,7.27,27.21,17.51.49.79,1.14,1.43,1.73,2.18,1.29,2.18,3.02,2.67,5.54,2.18,5.99-1.24,11.97-.64,17.91.69,1.98.74,3.96,1.43,6.04,1.68.3.25.69.3,1.04.25,2.42-.25,2.42,1.04,1.73,2.72-1.24,2.87-2.18,5.89-2.97,8.96-.59,2.33-.69,4.75-1.24,7.08,0,1.29-.64,2.57,0,3.86-2.57,2.77-5.74,4.8-8.61,7.27-3.12,2.72-6.38,5.34-9.6,7.97-.64.54-1.29,1.48-2.37.74h.05Z"/>
      <path class="cls-42" d="M567.43,51.5c-3.71,10.74-7.08,21.57-7.77,33.05,0,.54-.3,1.04-.4,1.53-1.83-.79-3.76-.84-5.69-.84h-120.23c-1.29,0-2.57.05-3.91-.05-4.65-.45-6.88-2.82-6.73-7.47.2-5.49,2.57-10.29,5.24-15.04,2.23-4.01,6.14-6.04,9.3-8.96,4.4-4.11,9.94-5,15.39-6.43,1.43-.4,2.72.15,4.06.49,3.56.99,3.66.94,5.64-2.08.64-.94,1.29-1.78,2.28-2.37,5.64-9.85,15.19-14.5,24.99-18.85,6.14-2.72,12.47-4.75,19.2-5.15,11.53-.69,20.48,4.55,28.25,12.47,5.44,5.54,9.65,11.97,12.62,19.1.79,1.88,1.53,2.18,3.41,1.58,4.65-1.39,9.5-1.24,14.3-.99h.05Z"/>
      <path class="cls-29" d="M464.62,43.34c-.4.89-.79,1.83-1.24,2.67-1.78,3.27-3.71,4.35-7.27,2.57-3.07-1.53-5.24.4-7.82.64-6.53.59-10.74,5.64-15.68,9.15-3.41,2.42-5.15,6.53-6.78,10.39-1.29,2.97-2.28,6.04-2.33,9.35,0,4.35,2.23,5.94,6.18,6.18,3.41.25,6.83,0,10.24,0h116.02c1.29,0,3.17-.74,3.27,1.73-1.68,14.69-1.24,29.49-1.19,44.28,0,2.37,1.04,4.75,0,7.12-1.73.2-2.67-1.09-3.76-2.03-11.63-9.6-23.2-19.25-34.78-28.89-1.68-1.39-3.41-2.03-5.54-1.98-9.99.05-19.99.05-29.98,0-1.93,0-3.56.45-5.15,1.58-5.34,3.96-11.03,7.47-15.98,11.92-.35.3-.79.49-1.29.49-3.22-.25-6.48.25-9.7-.3-1.73-.79-1.29-2.92-2.57-4.11-1.68-1.48-3.36-2.87-5.1-4.3-13.7-11.58-27.31-23.3-40.97-34.98-2.62-2.28-5.74-4.06-7.62-7.17-.3-1.34-.94-2.62-.99-4.06.4-4.85-1.39-9.2-3.12-13.51-1.14-2.87-2.57-5.64-3.61-8.56,25.53.3,51.06.74,76.59,1.73l.15.05Z"/>
      <path class="cls-42" d="M695.82,395.56c0-2.23-.05-4.45.05-6.63.49-9.25,3.07-17.86,8.31-25.63,2.62-3.86,5.15-7.82,8.76-10.74,4.25-3.46,8.51-7.03,13.61-9.35.4-.2.69-.59.99-.89,2.03.45,3.71-.74,5.49-1.14,6.33-1.48,10.44,2.62,14.6,5.99,4.65,3.71,7.12,9.15,9.7,14.4,5.94,12.17,8.41,24.94,5.1,38.24-2.28,9.25-7.57,16.43-16.92,19.84-3.96,1.43-8.21.99-12.32,1.58-1.98,0-4.01,0-5.99-.05-.74-.4-.59-1.09-.49-1.73.49-4.95,1.04-9.94,1.68-14.89.2-1.68.99-2.87,2.52-3.71,3.07-1.68,6.04-3.61,9.1-5.34.64-.35,1.29-.69,1.83-1.24.59-.64,1.14-1.34.54-2.18-.54-.74-1.39-.49-2.03-.2-2.52,1.14-4.8,2.82-7.22,4.16-2.62,1.43-3.41.99-3.46-2.08,0-2.23.64-4.4.59-6.63,0-1.04.4-2.57-1.09-2.72-1.63-.15-1.73,1.48-1.78,2.62-.4,5.24-1.24,10.49-1.78,15.73-.1,1.04.2,2.47-1.14,2.87-1.29.35-1.88-.89-2.57-1.73-1.14-1.43-1.98-3.12-3.22-4.55-.69-.79-1.53-1.63-2.57-.94-1.19.79-.4,1.83.15,2.67,2.13,3.12,4.25,6.28,6.43,9.4,1.24,1.78,1.78,3.51,1.39,5.69-.49,2.62-.49,5.34-1.09,7.97-1.39.89-1.73-.35-2.13-1.14-.84-1.63-1.53-3.36-2.42-4.95-4.65-8.31-11.03-14.89-19.15-19.89-1.24-.74-2.72-1.19-3.31-2.72l-.15-.1Z"/>
      <path class="cls-14" d="M16.27,285.97c6.23.69,10.24,4.8,13.61,9.5,4.95,6.78,7.92,14.64,11.23,22.26,3.41,7.97,5.44,16.33,6.88,24.89,1.04,6.28,2.03,12.52,1.93,18.9-.1,4.9-.89,9.7-1.88,14.5-.59,2.87-.49,5.79-1.24,8.71-1.24,4.85-3.17,9.15-6.83,12.62-2.42,2.23-2.62,2.18-4.3-.59-1.43-1.58-1.04-3.66-1.53-5.49-.74-2.52-.64-5.29-1.39-7.92-.3-.99-.1-2.08.64-2.87,1.58-1.63,1.98-3.81,2.33-5.84.79-4.35,1.98-8.66,2.97-12.96.25-1.14,1.04-2.62-.64-3.07-1.58-.4-1.93,1.19-2.23,2.33-.69,2.57-1.43,5.15-1.83,7.82-.2,1.39-.4,3.51-2.08,3.41-1.58-.05-1.34-2.13-1.58-3.46-1.43-7.72-2.62-15.49-4.01-23.2-.59-3.17-1.39-6.33-1.48-9.55-.05-1.43-.45-2.72-.94-4.06-.3-.84-.45-2.03-1.73-1.68-1.09.3-1.39,1.34-1.04,2.28.84,2.47.79,5.1,1.29,7.67.84,4.25,1.73,8.51,1.98,12.86,0,.74.25,1.63-.49,2.03-.89.49-1.63-.25-2.13-.84-1.93-2.47-4.16-4.7-6.14-7.17-.69-.89-1.34-2.47-2.72-1.39-1.29.99-.15,2.18.49,3.17,2.62,3.96,6.04,7.27,9.45,10.49,2.28,2.13,3.76,4.5,4.16,7.62.74,5.69,1.98,11.28,2.87,16.92.49,3.17.79,6.43,1.68,9.55.54,1.88.59,3.81.15,5.79.1,2.33-1.39,2.28-2.97,1.98-5.54-.99-9.35-4.4-12.37-8.96-.89-1.39-1.68-2.82-2.52-4.25-4.65-11.97-8.16-24.34-10.59-36.96-2.47-12.62-4.6-25.38-2.23-38.24,1.39-7.52,2.82-15.09,7.12-21.67,1.93-2.97,4.4-4.95,8.11-4.95v-.15Z"/>
      <path class="cls-57" d="M190.08,51.95c-15.19,2.03-25.78,10.39-32.51,23.85-.94,1.88-2.67,3.91-1.43,6.43-11.18,0-22.41-.4-33.54.1-9.6.45-19.2.15-28.79.4h-1.09c-4.8,0-6.04-1.88-4.35-6.38.54-1.39,1.14-2.77.15-4.16.74-1.78,1.68-3.51,2.23-5.34,3.81-12.42,13.31-17.86,25.03-20.68,2.37-.59,4.75-.69,7.03.49,1.34.69,1.68-.35,2.28-1.14,6.18-7.62,13.06-14.2,22.96-16.97,9.85-2.77,18.9-1.43,27.46,4.06,1.14.74,2.08,1.88,3.61,1.88,3.81,3.07,7.67,6.04,8.81,11.23.49,2.18,2.62,3.76,2.28,6.28l-.1-.05Z"/>
      <path class="cls-42" d="M761.43,517.91c-5.44-10.88-13.31-19.1-24.99-23.4-4.95-1.83-9.94-1.98-14.99-1.24-1.78.25-2.67,0-3.46-1.68-2.18-4.55-4.3-9.2-7.77-13.01-7.97-8.66-17.81-10.88-28.99-8.81-1.78.35-3.56.94-5.34,1.43.79-3.91,3.12-7.03,5.94-9.5,1.83-1.63,3.86-3.22,6.18-4.4,3.91-2.03,7.72-3.81,12.22-3.81h6.38c5.84.1,11.08,1.39,15.09,6.18,1.19,1.43,2.37,3.02,4.25,3.81.4.64.84,1.24,1.19,1.88,1.04,1.93,2.33,2.28,4.5,1.58,5.74-1.88,11.63-2.87,17.71-1.88,10.64,1.73,15.98,9.15,14.2,19.79-.59,3.56-.59,3.66,3.12,3.51,4.25-.15,7.77,1.34,10.79,4.21,3.51,3.27,4.3,7.27,2.18,11.53-2.08,4.21-5.15,7.47-9.55,9.25-3.07,1.24-6.09,2.42-8.61,4.6l-.05-.05Z"/>
      <path class="cls-26" d="M388.03,41.61c2.87,3.07,3.56,7.17,5.44,10.74,1.19,2.23.99,4.85,2.08,7.17.59,1.29.45,2.92-.35,4.3-.84.49-1.78.4-2.72.4-19.79,0-39.53,0-59.32-.05-2.28,0-4.6.49-6.88.15.4-5.39,1.43-10.69,3.81-15.58,1.04-2.13.99-3.46-1.68-3.76,2.52.25,3.86-1.04,5.19-3.12,5.74-8.86,13.16-15.78,23.6-19.15-.45-.54-.69-.94-.99-1.24-2.47-2.67-2.77-4.11-.3-6.58,1.88-1.88,1.48-3.31.4-5.24-1.63-2.92.25-8.21,3.31-9.45.49-.2,1.09-.25,1.63-.15,2.72.3,6.09,6.28,4.7,8.61-1.53,2.57-2.03,4.6.45,7.08,2.67,2.67.35,4.8-1.93,6.88,10.19,3.66,17.91,9.99,23.4,19.05l.15-.05Z"/>
      <path class="cls-33" d="M395.7,526.23c2.03.99,4.16.49,6.28.54,3.96.1,7.97,0,11.92,0,2.72,0,5.05,1.58,5.15,3.51.05,1.29-3.46,4.21-5.19,4.25h-3.61c-1.53,1.48-4.01,0-5.34,1.48-1.24,1.34.15,3.66-1.39,5.1-2.92-.54-5.89-1.04-8.81-1.58-.4-.3-.54-.74-.64-1.19-.56-2.34-2.01-3.51-4.35-3.51-3.02,0-6.09.05-9.1,0-1.98-.05-3.61.35-4.75,2.08-9.85-.69-19.69-.4-29.54.54-.89.1-1.78.35-2.67.49-.59.1-.89-.3-.94-.74-.2-1.88-1.63-2.23-3.02-2.13-4.35.4-8.66-.49-13.01-.3-2.13.1-2.92.89-2.28,2.92.64,2.08-.25,2.92-2.28,2.87-2.28.45-4.55.94-6.78,1.39-1.58-.45-1.29-1.78-1.39-2.92-.1-1.19,0-2.37-.05-3.56.05-.94-.45-1.29-1.34-1.29-1.39,0-2.77-.15-4.11.3-.1,0-.25,0-.35.05-2.77-.35-5.64.74-8.31-1.04-1.88-1.24-1.88-2.92-1.58-4.6.35-1.83,1.88-2.23,3.61-2.18,2.13.05,4.25,0,6.38-.05,1.68-1.19,3.61-.64,5.44-.69,2.82-.05,5.64,0,8.46-.25,6.58.54,13.06-.79,19.64-.45.74,0,1.48-.1,2.08-.64,3.02-2.72,6.73-2.92,10.44-2.52,5.69.59,11.38,1.19,17.12,1.04,1.34,0,2.67.2,3.61,1.09,1.63,1.53,3.56,1.63,5.64,1.68,5.05.1,10.14-.4,15.19.25l-.15.05Z"/>
      <path class="cls-46" d="M321.98,540.57c2.28-.4,1.88-1.98,1.39-3.41-.89-2.42,0-3.27,2.37-3.17,5.05.2,10.04.4,15.09.45,2.18,0,3.07.64,2.33,2.87-.05.15.3.45.45.64,0,8.21,0,16.43.1,24.64,0,2.77-.1,5.39-3.17,6.68-.25.1-.35.64-.49.94-2.62,2.97-6.09,3.12-8.61.49-.2-.74-.49-1.43-1.34-1.58-2.82-.59-3.46-2.82-3.71-5.15-.79-7.03-.79-14.15-2.18-21.18-.3-1.39-.64-2.28-2.13-2.23h-.1Z"/>
      <path class="cls-8" d="M375.76,536.91c-.25-2.37.94-3.02,3.12-2.92,4.16.15,8.31.2,12.47,0,2.72-.15,3.71.74,3.31,3.41-.1.74,0,1.48,0,2.23-1.48,4.65-1.34,9.6-2.18,14.35-.84,4.7-2.62,9.15-3.71,13.75-.25,1.09-2.03,1.34-1.93,2.82-1.68,3.07-5,3.31-7.77.59-.1-.25-.1-.59-.3-.74-5.54-4.21-4.21-10.14-4.25-15.83-.05-5.89.94-11.73,1.24-17.56v-.1Z"/>
      <path class="cls-29" d="M190.08,51.95c-1.14-2.62-2.82-4.9-3.46-7.82-.59-2.62-2.77-4.4-4.6-6.28-1.04-1.09-2.47-1.88-3.02-3.41,15.88-2.57,31.86-2.08,47.84-1.14-1.58,2.57-3.17,5.1-4.65,7.72-.64,1.14-1.53,1.14-2.57.99-9.7-1.34-17.91,1.73-24.89,8.36-1.43,1.34-2.77,2.03-4.65,1.58Z"/>
      <path class="cls-53" d="M403.47,541.17v-.3c.16-4.32,2.41-6.42,6.73-6.28v5.54c0,1.04.1,2.03.99,2.67-1.58.49-.94,1.83-.94,2.82,0,10.93,0,21.87.05,32.8v2.77c-.1,1.68-.89,2.82-2.67,2.97-1.88.15-2.97-.84-3.41-2.57-.2-.89-.15-1.83-.15-2.77,0-11.48,0-22.96-.1-34.44,0-1.09.35-2.23-.49-3.17v-.05Z"/>
      <path class="cls-52" d="M314.61,534.64c.35,2.42-.59,4.95.59,7.32-1.34.59-1.04,1.83-1.04,2.87v33.25c0,2.18-.69,4.06-3.12,4.06s-3.12-1.83-3.12-4.06v-31.32c0-.99.59-2.28-.89-2.87,1.48-1.09.89-2.67.99-4.11.05-1.73,0-3.51,0-5.29h0c2.23-.79,4.45-.89,6.63.05l-.05.1Z"/>
      <path class="cls-20" d="M331.38,570.7c2.97,1.68,5.79,1.14,8.61-.49,1.63,4.5,2.03,9.15,1.68,13.85-.2,2.52-1.88,4.11-4.55,4.45-4.3.54-8.46-.1-12.47-1.63-2.97-1.14-5.34-4.6-4.8-7.03.49-2.28,4.3-4.8,7.17-4.7,2.47.05,3.56,2.33,5.49,3.41-.2-1.98-2.08-2.77-3.27-4.35,2.33-.89,3.86.79,5.99,1.48-.35-1.73-1.58-2.18-2.57-2.37-1.83-.4-1.98-1.24-1.29-2.67v.05Z"/>
      <path class="cls-20" d="M379.08,571.1c2.72,1.29,5.34,1.83,7.77-.59.69.94,1.39,1.93,2.18,3.02-2.33.74-4.8.15-6.83,1.63,3.76.3,7.82-1.83,11.18,1.93-3.17.54-6.43.1-9.05,2.23,3.31-.35,6.58-1.29,9.94-.89,1.39.15,2.92-.15,3.46,1.53.54,1.63.4,3.27-.69,4.75-1.88,2.57-4.8,3.61-7.62,4.11-2.87.49-5.89.49-8.81-.25-2.47-.64-3.71-2.23-3.76-4.8-.15-4.4.45-8.66,2.18-12.72l.05.05Z"/>
      <path class="cls-63" d="M322.43,43.29c-1.73,0-3.51,0-5.19-.49-4.75-1.43-9.3.3-13.9.74-3.17.3-3.41.49-4.25-3.12,7.08.59,14.15,1.24,21.23,1.88.79.05,1.68.2,2.18.99h-.05Z"/>
      <path class="cls-32" d="M237.92,324.51h-17.86c-.94-1.19-.64-2.62-.69-4.01-.1-13.51-8.41-26.91-22.21-31.37-10.88-3.51-20.78-1.29-29.88,5.24-4.45,3.17-7.77,7.37-10.49,12.02-.49.89-.79,2.18-2.28,2.03v-115.87c0-1.19-.05-2.42-.1-3.61-.69-.94-.64-2.08-.64-3.22,0-9.8,0-19.59-.15-29.34,0-1.48-.2-2.97.74-4.3,1.19-.94,2.62-.79,4.01-.79h95.64c1.29,0,2.62-.1,3.76.64,1.34,2.23.89,4.7.74,7.03-.4,5.44-.25,10.88-.25,16.33.05,14.15-.25,28.25.2,42.4,0,1.04-.1,2.03-1.09,2.67-.35.2-.64.35-1.04.4-7.97.3-15.98.35-23.95,0-.35,0-.69-.2-1.04-.4-1.24-1.19-.99-2.72-.99-4.16v-24.99c0-4.11-.54-4.7-4.6-4.75-2.77-.05-5.54,0-8.31,0-1.98,0-3.41.74-3.91,2.77-.45,1.14-.45,2.37-.45,3.56v22.17c0,5.79-.15,5.94-5.84,5.94h-44.38c-1.58,0-3.17,0-4.7.1-.69.15-1.24.49-1.19,1.29.05.74.64,1.09,1.34,1.24,1.19.25,2.37.15,3.61.15h142.99c6.09,0,6.18.1,6.18,6.23v57.19c0,1.48.1,2.97-.3,4.4-.89,1.93-2.23,1.14-3.46.54-2.72-1.34-5.34-2.82-8.36-3.66-8.96-2.47-16.38.49-23.06,6.18-2.23,1.93-4.35,4.06-5.99,6.53-1.14,1.68-2.47,2.03-4.21.74-3.02-2.33-6.48-2.82-10.24-2.33-2.92.4-5.89.3-8.71,1.34-5.1,1.93-8.81,5.24-10.74,10.49-1.14,3.12-.74,5.94.64,8.86.64,1.34,2.03,2.52,1.24,4.3h0Z"/>
      <path class="cls-55" d="M600.29,366.72c-.49,3.71-.99,7.47-1.48,11.18-.15,5.05-2.87,8.91-5.94,12.52-3.31,3.91-7.32,7.03-11.82,9.55-1.48.64-2.82,1.63-4.25,2.42-6.04,2.97-12.27,5.29-18.95,6.48-1.09.2-2.18.4-3.27.05-11.78,1.34-23.5,2.62-35.33,3.22-13.41.64-26.82.84-40.17-1.19-4.01-.59-8.06-.99-12.12-1.24-7.57-.45-14.74-2.03-21.67-5.34-3.71-1.78-7.67-3.22-11.97-3.31-1.63,0-3.36-.49-3.46-2.47-.1-1.93,1.53-2.57,3.07-3.02,6.93-2.13,13.8-4.16,18.9-9.85,5.64-6.28,10.64-13.11,14.74-20.43,7.47-13.31,14.3-26.96,22.46-39.83,1.78-4.75,5.59-7.92,8.96-11.38,2.28-2.33,4.85-4.25,7.47-6.13,1.04-.69,2.18-1.14,3.17-1.88,6.88-3.86,14.25-6.43,22.12-7.27,1.73-.2,3.46-.59,5.19-.64,11.23-.69,21.97,1.58,32.51,5.19,1.24.45,2.47.79,3.41,1.73,4.11,2.03,8.21,4.06,11.63,7.27,1.24.15,1.93,1.04,2.62,1.93,8.21,10.24,13.41,21.57,13.95,34.93.2,4.5,0,9.05.84,13.56.25,1.34.35,2.77-.69,3.96h.1Z"/>
      <path class="cls-23" d="M208.54,395.66h10.54c3.91,0,7.22,1.53,10.14,4.11,5.05,4.5,8.51,9.9,10.39,16.43.84,2.82,3.07,3.36,5.84,2.47,4.5-1.43,9.1-1.09,13.75-.1,5.54,1.19,10.09,4.3,14.64,7.27,3.96,2.57,6.73,6.38,8.46,10.84,1.09,2.77,1.93,5.54,2.42,8.56.4,2.33.89,4.6.89,6.98,0,.64.1,1.48-.25,1.88-1.34,1.48-.54,2.47.49,3.51,4.06,4.16,4.7,9.35,4.11,14.74-.3,2.62-2.33,4.6-4.4,6.09-4.6,3.27-9.9,5.44-15.39,4.8-3.22-.4-6.73-.1-9.8-1.73-.4-.2-.89-.2-1.34-.25-10.29-.74-20.58-.84-30.87-1.34-15.54-.74-31.07-1.68-46.51-.64-12.02.79-23.95.54-35.92.84-2.03,0-4.01,0-5.99-.84-2.92-1.24-5.69.84-8.61.84-7.22,0-14.45-.15-21.67.1-2.67.1-5.1-.74-7.47-1.39-2.23-.59-2.87-3.12-4.06-4.95-3.46-5.29-2.42-11.18-2.13-16.87.15-2.42,1.73-4.95,3.61-6.88.99-1.04,2.37-1.78,2.82-3.31,3.51-1.58,7.27-2.08,11.08-2.28.15.94.79,1.09,1.63,1.09h4.16c4.65,0,5.29-.64,5.44-5.24,0-.45,0-.94.05-1.39,4.16-4.35,9.1-7.17,15.24-7.82,2.52-.3,5,.2,7.47.35,3.36.25,3.81-.1,3.66-3.41-.25-5.49.74-10.69,2.87-15.73,1.34-3.12,3.22-5.79,5.99-7.87,2.87-2.13,5.99-3.22,9.6-3.02,6.88.45,13.66,1.34,19.64,5.1,1.39.84,2.28.59,3.31-.54,2.82-3.07,5.54-6.23,9.35-8.21,2.18-1.09,4.4-1.93,6.83-2.23l-.05.05Z"/>
      <path class="cls-10" d="M396.3,67.73c3.96,4.16,8.56,7.57,12.86,11.33,9.99,8.66,20.04,17.17,30.08,25.73,3.46,2.92,6.88,5.89,10.34,8.76,1.34,1.09,1.93,2.42,1.63,4.11-.54,2.18-2.33,2.47-4.11,2.62-2.57.2-5.19.3-7.77,0-5.24-.64-10.54-.45-15.83-.45h-148.08c-1.29,0-2.57.05-3.91-.1-1.19-.15-2.42-.3-2.72-1.83-.1-1.63.79-2.67,2.03-3.66,11.33-9.5,22.56-19.05,33.84-28.6.64-.54,1.19-1.19,1.78-1.78,3.27-1.88,5.79-4.7,8.76-6.98,3.91-2.97,7.32-6.58,11.58-9.15.74-1.83,2.42-1.43,3.76-1.43,8.71-.05,17.42,0,26.12,0h34.73c1.73,0,3.56-.15,4.85,1.43h.05Z"/>
      <path class="cls-10" d="M257.86,152.34c-34.44,0-68.87-.05-103.31-.1-1.63,1.09-3.22.84-4.4-.64-1.24-1.58-.49-3.12.54-4.5.99-1.29,2.42-1.93,3.81-2.62.54-.15.94-.49,1.19-1.04,5.1-5.34,11.28-9.4,16.87-14.1,2.18-1.83,4.21-3.86,6.93-4.95,7.87-6.28,15.78-12.47,23.55-18.85,2.77-2.28,5.59-3.56,9.3-3.46,8.06.25,16.13.25,24.14,0,3.91-.15,6.88,1.24,9.75,3.71,5.05,4.4,10.29,8.66,15.49,12.96,2.82.59,4.21,3.27,6.53,4.65,2.23,1.78,4.35,3.56,6.53,5.39,6.38,5.05,12.52,10.39,18.8,15.54.64.54,1.19,1.14,1.63,1.88,1.68,2.97.15,5.89-3.22,6.18-1.09.1-2.23,0-3.31,0-8.86.05-17.71-.3-26.57.54-1.48.05-2.97.25-4.3-.69l.05.1Z"/>
      <path class="cls-21" d="M319.02,414.56c-2.08-4.21-4.21-8.41-6.18-12.67-1.48-3.17-2.08-6.48-.94-9.94.79-2.37,2.23-4.11,4.7-4.6,1.43-.3,1.93-.64,1.09-2.13-3.56-6.63-2.13-13.06,3.86-17.66,3.12-2.42,6.63-2.77,10.19-1.09,1.83.89,2.47.64,2.97-1.39,1.24-5,7.87-10.29,13.06-10.59,4.25-.25,7.62,1.29,9.65,5.15.84,1.63,1.34,1.68,2.62.3,3.56-3.76,8.31-5.54,13.31-6.38,4.55-.79,11.08,3.86,11.82,8.26.45,2.52,1.43,2.28,3.12,1.48,3.96-1.93,8.02-2.18,12.07-.54,6.28,2.47,8.21,8.26,7.57,15.44-.2,2.23-.05,2.62,2.23,2.23,6.04-1.04,11.13,3.56,11.33,9.6.15,4.65-1.43,8.46-4.75,11.68-.69.64-1.48,1.09-.64,2.47,4.06,6.83,2.18,13.11-4.7,16.52-2.67,2.52-3.41,6.09-5.15,9.1-.84,1.48-1.34,3.71-3.56,3.27-2.33-.49-2.08-2.77-2.08-4.6,0-6.58-.69-13.11-2.18-19.49-.45-1.98-1.39-3.86-2.33-5.64-1.19-2.28-1.88-2.42-4.11-1.04-.79.49-1.48,1.09-2.72,1.34,2.03.49,3.76.89,5.39,1.68,1.58.74,3.12,1.83,2.33,3.81-.74,1.98-2.57,1.88-4.25,1.19-4.65-1.88-9.35-1.93-14.15-.54-1.93.54-3.71.79-4.7-1.43-.74-1.63.25-3.71,1.93-5.1.69-.59,2.92,0,2.03-2.03-1.29-3.02-2.23-3.51-4.75-2.72-1.14.35-2.28.79-3.46,1.09-5.34,1.19-9.2-.59-11.58-5.54-.49-1.04-.84-1.88-2.18-.99-4.11,2.72-7.82,1.58-11.08-1.48-1.73-1.58-2.82-1.83-4.45.2-1.93,2.42-4.75,3.81-7.72,4.8-1.98.64-2.97,1.83-3.41,3.91-1.29,6.23-2.37,12.57-3.36,18.85-.2,1.19-.25,2.52-1.68,2.92-1.63.4-2.37-.79-2.92-1.98-.84-1.78-2.62-3.22-2.33-5.49l.1-.2Z"/>
      <path class="cls-2" d="M319.02,414.56c1.09,1.93,2.18,3.86,3.27,5.79.45.79.89,1.48,1.93,1.19.84-.25.94-1.04,1.04-1.78.74-6.88,2.23-13.66,3.46-20.48.3-1.73,1.14-2.72,2.87-3.27,3.91-1.29,7.57-3.07,9.85-6.78.49-.79.99-1.04,1.73-.3l.4.4c6.58,6.09,8.46,5.29,14.05,1.73.59.1.49.69.59,1.09,1.88,5.79,6.04,8.46,11.78,6.38,4.45-1.63,7.52-1.93,9.3,3.12.1.3.45.54.84,1.04-2.33.54-4.8.54-5.54,3.36-.3,1.09-.25,2.03.49,2.82s1.53.59,2.52.3c5.44-1.53,10.88-1.98,16.18.69,1.04.49,2.08.4,2.67-.64.64-1.19.05-2.33-.99-2.82-1.58-.74-3.27-1.29-4.95-1.78-.84-.25-1.73-.4-2.42-.79,1.24-.79,2.52-1.48,3.71-2.37,2.47-1.83,3.41-1.68,4.9,1.09,2.62,4.8,3.56,10.04,4.06,15.44.35,3.96.59,7.92.74,11.92,0,1.09-.1,2.42,1.29,2.72,1.24.25,1.73-.89,2.13-1.78,1.09-2.33,2.18-4.7,3.22-7.08.64-1.53,1.48-2.77,3.27-3.07.69.1,1.24.3,1.53.99,2.33,5.39.05,13.46-4.8,16.97-1.78,1.29-3.86,1.34-5.79.54-1.19-.49-2.03-.25-2.57.69-2.72,4.9-7.22,8.36-11.23,11.87-2.52,2.23-6.38,4.06-10.09,5.05-2.72.74-5.44,1.43-8.16,2.13-.49,1.19.35,3.12-1.83,3.41-.79-1.58-2.08-2.08-3.81-1.98-2.47.1-4.9.05-7.37-.4-1.53-.3-2.92.05-3.96,1.29-2.08-.2-1.88-1.78-1.98-3.22-1.63-1.93-4.11-2.42-6.28-3.31-7.32-2.97-13.31-7.42-17.17-14.45-1.24-2.23-2.18-4.3-5.29-4.35-1.83,0-3.36-1.43-4.6-2.82-3.56-3.91-4.55-12.02-1.93-16.52.64-1.14,1.53-2.13,3.07-1.98l-.1-.05Z"/>
      <path class="cls-42" d="M56.25,261.13c-4.25,0-8.51.1-12.76,0-4.3-.1-8.16-1.78-11.48-4.3-3.31-2.47-6.38-5.49-8.02-9.25-1.14-2.57-2.23-5.24-3.02-8.06-1.39-5.05-.84-10.04-.84-15.04,0-4.7,1.39-9.2,2.87-13.66,1.29-3.96,2.77-7.82,4.7-11.48,4.06-7.67,9.6-13.8,17.46-17.76,1.19-.59,2.42-.59,3.51-.3,5.99,1.48,11.53,3.86,16.57,7.67,3.31,2.52,6.28,5.34,9.15,8.26,4.9,4.9,7.77,10.98,10.24,17.42,2.37,6.23,3.61,12.52,3.22,19.15-.05.84-.1,1.73,1.04,1.93-.59,1.83-2.47,2.03-3.81,2.82-9.3,5.69-16.52,13.16-21.13,23.15-.54,1.19-.4,3.71-3.12,2.72-.89-3.22-.99-6.58-1.29-9.85-.1-1.09.59-1.93,1.14-2.77,2.28-3.27,4.4-6.63,6.68-9.9.59-.84,1.68-1.98.4-2.87-1.09-.79-2.08.2-2.77,1.14-1.24,1.63-2.23,3.41-3.56,4.95-.54.59-1.09,1.39-2.03,1.09s-1.09-1.19-1.19-2.03c-.54-5.05-1.19-10.09-1.78-15.14-.15-1.43.2-3.86-1.88-3.66-1.68.15-.94,2.47-.94,3.86,0,2.13.64,4.21.54,6.33-.1,2.13-.64,2.52-2.52,1.58-1.58-.74-3.02-1.78-4.55-2.67-.94-.54-1.88-1.19-2.87-1.68-.99-.45-2.23-1.29-2.92.1-.64,1.24.49,2.08,1.48,2.62,3.27,1.88,6.48,3.96,9.8,5.79,1.68.94,2.62,2.18,2.82,4.11.49,4.06.94,8.06,1.43,12.12.15,1.24.35,2.62-.64,3.71l.05-.1Z"/>
      <path class="cls-15" d="M61.3,264.45c1.39-.2,1.48-1.63,1.83-2.47,5.29-12.07,14.2-20.53,25.83-26.32,6.58-2.82,13.36-3.76,20.53-3.51,9.8.3,17.96,4.16,24.99,10.64,7.62,7.03,11.82,15.83,13.61,26.02.54,3.12.94,6.18.89,9.35-.05,3.36-.99,4.25-4.25,4.25-11.92-.05-23.9.25-35.82-.25-15.63-.64-31.22-.94-46.85-.94-3.41,0-4.25-1.53-4.06-6.63.59-2.57,1.48-5.1,2.18-7.62.25-.84.3-1.83,1.14-2.42v-.1Z"/>
      <path class="cls-15" d="M208.54,395.66c-.3.49-.69.89-1.24.99-6.63,1.29-10.98,5.79-14.94,10.79-1.04,1.34-1.63,1.19-2.82.4-6.98-4.65-14.94-5.99-23.01-5.34-5.89.45-9.55,4.8-11.87,10.04-2.42,5.44-3.27,11.13-2.82,17.02.2,2.28-.69,2.82-2.82,2.77-3.46,0-6.88-.94-10.49-.2-4.5.94-8.41,2.57-11.63,5.84-.59.59-.99,1.73-2.23.99-2.23-4.5-5-8.76-7.08-13.36-1.43-3.27-2.13-6.63-2.37-10.09-.3-3.96,1.88-7.27,6.28-8.66,3.56-1.09,4.55-2.92,4.3-6.43-.15-2.77.64-5.59,1.98-8.11,1.78-2.28,2.03-5.24,3.41-7.72,3.76-2.57,7.67-4.9,12.37-4.35,4.9.54,9.8,1.48,14.6,2.57,3.81.84,7.77,1.29,11.43,2.77.99.4,1.29-.4,1.83-1.19,2.42-3.61,5.15-6.98,9.1-9,4.4-2.23,13.21-1.83,17.66,2.13,5.34,4.75,9,10.29,9.9,17.46,0,.25.3.45.49.64l-.05.05Z"/>
      <path class="cls-42" d="M113.39,444.54c-3.51,1.58-7.32,1.83-11.08,2.28-3.96,1.93-8.36.94-12.52,1.93-5.15,1.19-10.69,1.19-16.03,1.63-5.94.49-11.92.15-17.76,1.14-3.66.59-7.32.2-10.84,1.04-3.17.74-6.28.94-9.45.89-3.17,0-5.39-3.61-4.06-6.43.25-.49.59-.89.59-1.48,0-6.78,2.47-12.81,5.59-18.7-1.88-3.61.49-6.18,2.28-8.91,1.98-2.18,3.86-4.5,5.99-6.58,3.56-3.51,8.02-5.15,12.91-5.69.35,0,.84.1,1.09-.05,3.22-2.23,6.09-.25,9,.74,3.17,1.09,5.1,3.61,6.33,6.48.74,1.83,2.33,3.02,2.97,4.9.35,1.04,1.39,1.43,2.97.84,7.27-2.87,14.69-2.92,21.62.79,3.56,1.93,5.74,5.59,7.12,9.45,1.53,4.4,1.53,9.2,3.36,13.61.25.64,0,1.48,0,2.23l-.1-.1Z"/>
      <path class="cls-42" d="M123.93,375.62c-5.15,1.78-10.64.4-15.88,2.03-5.54,1.78-8.66.15-11.78-5.24-2.42-4.21-3.76-8.61-4.25-13.56-.35-3.41-.59-6.88-.89-10.29-.35-4.25,1.73-7.92,2.72-11.82,1.39-5.44,4.8-9.94,7.57-14.64,2.03-3.46,4.11-7.32,8.36-9.1,2.92-1.24,5.79-.84,8.66-.49,5.29.64,9.55,3.86,13.56,6.93,2.77,2.08,4.75,5.29,6.83,8.11,1.93,2.62,3.76,5.34,5.29,8.21,2.28,4.06,4.5,8.26,4.75,13.01.1,1.39.99,2.37,1.09,3.61.35,4.5-.84,8.61-3.81,12.12-4.16,4.95-9.3,8.02-15.73,8.96-.54.1-1.09.64-1.58.99-1.43-.3-1.43-1.53-1.68-2.57-1.09-4.11-1.88-8.31-2.97-12.42-.4-1.53-.1-2.92.74-4.25,1.93-3.17,3.81-6.38,5.54-9.6.25-.49.64-.94.84-1.43.4-.99,1.29-2.18,0-2.97-1.29-.74-2.03.49-2.62,1.43-1.24,1.88-2.18,3.86-3.36,5.74-.54.89-.89,2.33-2.28,2.08-1.24-.25-1.34-1.63-1.63-2.72-.35-1.24-.45-2.57-.89-3.81-.35-.99-.74-2.13-2.08-1.73-1.14.3-1.04,1.48-.84,2.37.89,4.16,1.88,8.31,2.82,12.47.25,1.14,1.14,2.57,0,3.36-1.09.74-2.18-.49-3.22-1.09-1.48-.79-2.82-1.78-4.3-2.52-.74-.35-1.68-.74-2.23.2-.54.84,0,1.63.64,2.18,1.24,1.14,2.77,1.83,4.21,2.72,1.48.94,3.02,1.78,4.5,2.72,3.02,1.88,4.9,7.32,3.81,10.88l.1.15Z"/>
      <path class="cls-23" d="M595.93,484.57c-2.72,2.47-5.84,4.5-8.21,7.37-.89,1.04-1.43.49-2.23-.15-3.36-2.72-6.83-5.34-11.03-6.78-7.97-2.77-15.54-2.57-22.41,2.97-6.09,4.9-11.78,10.24-14.45,17.76-1.83,5.24-4.55,10.29-5.19,15.98-.05.59-.49,1.19-.69,1.78-1.29,3.22-1.19,3.41,1.93,4.35-4.85.15-9.6.4-14.15-2.03-8.31-4.5-14.2-12.67-12.37-23.06.84-4.65,3.81-8.36,8.46-10.39,1.88-.79,3.76-1.34,5.84-1.14,1.63.15,2.23-.45,2.33-2.18.15-3.71.84-7.37,2.13-10.84,2.13-5.69,5.84-9.75,11.28-12.76,4.4-2.42,8.91-3.96,13.75-4.16,3.17-.15,6.04,1.39,8.81,3.07,3.27,1.98,5.79,4.75,8.46,7.37,1.58,1.53,3.17,1.88,5.49,1.14,2.33-.74,4.95.35,7.37.79,2.82.54,5.74,1.39,8.31,2.97,1.58-.45,1.63.84,1.73,1.78.35,2.62,1.53,4.7,3.81,6.09h1.14l-.1.05Z"/>
      <path class="cls-23" d="M505.89,308.38c-6.38,4.9-12.07,10.49-16.72,17.12-.49-1.58-1.83-.94-2.82-.94-15.19-.05-30.38-.05-45.57-.05-4.06-3.02-8.11-6.13-11.63-9.8-.69-.74-.74-1.63-.79-2.57.99-5.64,2.62-10.84,8.61-13.26.94-.4,1.93-.74,2.97-.64,3.02.35,4.65-1.04,6.09-3.66,2.28-4.16,6.58-5.79,10.59-7.67,6.98-3.27,14.2-3.36,21.42-1.58,6.18,1.53,10.69,5.44,13.01,11.53,1.29,3.31,2.87,5.54,6.83,6.23,3.07.54,6.43,1.83,7.92,5.29h.1Z"/>
      <path class="cls-57" d="M237.92,324.51c-.99-2.82-3.12-5.24-3.31-8.41-.4-6.33,4.7-13.61,11.33-15.83,4.95-1.63,10.04-2.08,15.29-1.43,2.03.25,3.76,1.14,5.15,2.47,1.39,1.34,1.93.89,2.92-.49,4.11-5.89,9.35-10.39,16.23-12.86,7.47-2.72,14.3-.94,20.98,2.67,1.19.64,2.13,1.88,3.71,1.63,1.09,1.04,1.53,2.47,2.18,3.76.59,1.19,1.34,2.18,2.67,2.57,2.82,3.22,3.91,7.22,4.75,11.28.2.89.05,1.83-.59,2.62-.45.35-.99.54-1.53.54-6.93,0-13.7,1.88-20.68,1.19-2.92-.3-5.19.94-7.62,2.62-3.61,2.57-6.93,5.49-10.84,7.67h-40.62Z"/>
      <path class="cls-23" d="M154.56,308.43c2.28-2.97,3.96-6.33,6.43-9.2,14.6-17.07,40.97-17.02,53.68,2.62,4.45,6.88,6.18,14.5,5.44,22.66h-61.1c-3.17,0-4.35-1.14-4.4-4.4-.05-3.91,0-7.77,0-11.68h-.05Z"/>
      <path class="cls-35" d="M278.5,324.46c.94-2.28,3.22-3.41,4.95-4.45,4.5-2.67,7.97-7.92,14.35-6.68,1.09.2,2.23,0,3.31,0,6.09.49,11.97-1.88,18.06-1.14,1.29-1.04,2.87-.84,4.35-.84,1.09.2,2.18.49,3.27.49,11.08,0,22.17-.05,33.25-.1,10.59,0,21.23,0,31.81.15,2.42,0,4.8-.1,7.12-.64,1.48,0,2.97.05,4.4.3,1.68.3,2.42-.4,2.52-2.03v-79.71c0-1.58-.15-3.17.3-4.7.15-.35.35-.64.59-.89.54-.15,1.09-.15,1.39.45.45,1.83,0,3.66,0,5.54v77.08c0,1.39-.59,3.86.89,3.81,2.03,0,.94-2.47,1.14-3.91.3-2.18-.45-4.45.74-6.53,1.58-.49,1.34.84,1.48,1.58.3,1.43.15,2.92.15,4.4,0,5.59-.25,5.19,5.34,5.19h8.56c.84,0,1.68-.1,2.42.3.69,2.77,2.87,4.5,4.95,6.04,2.47,1.83,4.85,3.76,6.73,6.18h-162.33l.25.1Z"/>
      <path class="cls-27" d="M117.3,186.62c-1.09.1-2.03.25-3.12.79-5.1,2.72-14.45,2.18-18.8-2.72-1.88-2.13-4.75-2.03-7.03-2.33-6.58-.79-10.88-4.25-13.75-9.85-1.29-2.47-2.92-4.9-2.33-7.97.94-4.65,2.72-8.66,6.93-11.43,2.37-1.53,4.7-3.17,7.32-4.16,5.49-2.08,10.98-3.66,17.12-3.66,6.63,0,11.73,1.93,15.93,6.88,1.68,1.93,2.92,3.91,2.77,6.58-.1,1.83,0,3.71,0,5.54.74,1.29-.25,2.08-.79,2.97-.94,1.39-1.29,2.82-1.09,4.45.74,5.34-.45,10.24-3.12,14.84l-.05.05Z"/>
      <path class="cls-46" d="M395.7,526.23c-1.93,1.04-4.01.49-5.99.54-3.22.1-6.48,0-9.75,0-2.08,0-4.25.4-5.59-1.98-.35-.64-1.39-.84-2.28-.84-6.58.3-13.06-.64-19.59-1.04-3.12-.2-6.33-.3-8.46,2.82-.25.35-.99.45-1.53.45-6.04-.35-11.97.54-18.01.59-.94,0-1.83-.1-2.67-.54-1.83-4.01-.4-12.07,2.82-15.24,2.47-2.47,5.49-4.35,8.06-6.78,1.24-1.19,2.92-.99,4.5-.74,6.73,2.37,13.8,2.77,20.83,2.72,5.05,0,10.14-.1,15.19-.99,3.02-.54,6.18-1.14,9.15.49,1.43,1.19,3.12,1.83,4.95,2.28,5.54,1.34,8.31,4.85,8.41,10.49,0,2.57,0,5.19-.05,7.77h0Z"/>
      <path class="cls-47" d="M351.27,457.95c1.24.74.94,2.23,1.68,3.22.4-.15.69,0,.99.3,4.65,4.3,8.16,4.6,13.36,1.14.4-.25.74-.54,1.24-.49,1.24-.74-.15-2.82,1.68-3.27,4.06.25,8.16-.54,11.92,2.08,1.09.74,1.43,1.29,1.48,2.47.2,3.61-.59,7.32.45,10.88,2.23,3.31,1.29,7.03,1.34,10.59-.84,1.09-1.98.74-3.07.59-6.98-.84-13.46.4-18.95,5.05-1.43,1.19-2.72,1.14-4.25.1-5.39-3.86-11.53-5.24-18.01-5.29-1.58,0-3.36.49-4.7-1.04-.69-1.58-.49-3.27-.3-4.9.54-3.91.49-7.87,0-11.78-.15-1.29-.4-2.57.49-3.71.25-3.71.59-4.5,4.6-4.85,3.31-.3,6.53-1.78,9.94-1.19l.1.1Z"/>
      <path class="cls-18" d="M268.01,123.84c-2.08-1.68-4.16-3.36-6.23-5.05.49-1.78,1.98-.89,3.02-.99,1.34-.1,2.72,0,4.11,0,.69,1.14,1.73,1.14,2.92,1.14,54.62,0,109.24.05,163.86.1,3.91,0,7.77.05,11.68.15,1.58,0,2.92-.4,3.96-1.58,3.51.54,7.12-.4,10.64.49-2.08,3.36-5.1,5.39-8.81,6.48-1.29.1-2.57.2-3.91.2h-175.54c-1.93,0-3.91,0-5.69-.99v.05Z"/>
      <path class="cls-59" d="M117.3,186.62c-.1-1.29.3-2.42.89-3.61,1.53-2.97,2.13-6.38,1.63-9.6-.45-2.97-.3-5.39,1.83-7.57.35-.35.45-.99.64-1.48,1.93-.49,2.62-2.62,4.5-3.31,3.91-1.48,7.87-2.42,12.07-2.23,5.15-.05,9.8,1.53,13.95,4.5.79.54,1.39,1.34,1.34,2.33-.1,7.77.4,15.49-.25,23.25-3.71.15-7.27,1.88-11.03,1.09-6.33-1.39-12.76-.59-19.05-1.24-2.08-.2-4.7-.4-6.58-2.08l.05-.05Z"/>
      <path class="cls-14" d="M554.62,408.92c7.72-1.48,15.09-3.91,22.21-7.17,1.34,1.88,1.48,4.16,1.83,6.28.4,2.37.79,4.75,1.09,7.12.59,5.69,1.14,11.38,2.28,16.97.2.89.2,1.98-.74,2.52-.89.49-1.58-.25-2.18-.79-1.73-1.53-3.71-2.77-5.54-4.16-.84-.64-1.93-1.19-2.77-.25-.94,1.09.1,1.93.84,2.52,2.77,2.33,5.69,4.4,8.61,6.53,3.17,2.33,4.55,6.09,3.56,9.4.15,3.12-1.68,4.21-5.49,3.81-5.99-.64-9.9-4.06-12.62-9.1-3.31-6.14-5.54-12.72-7.77-19.3-1.58-4.7-3.12-9.35-3.31-14.35v-.05Z"/>
      <path class="cls-61" d="M40.07,417.87c0,.89-.3,1.68-.74,2.47-1.14,1.93-1.73,4.11-1.48,6.38-1.34-.15-2.23-.69-2.18-2.28,0-2.08-.74-4.16-.84-6.09-.2-3.31-.94-6.48-1.58-9.6-.69-3.27-.3-6.63-1.48-9.8-.99-2.57-.99-5.39-1.43-8.06-1.43-8.51-2.92-17.02-4.4-25.58-.3-1.78-1.04-3.02-2.28-4.25-4.01-3.91-7.97-7.87-11.28-12.47-1.09-1.53-1.73-3.07,0-4.3,1.78-1.24,2.57.1,3.61,1.53,2.28,3.07,4.9,5.89,7.87,9.45-.25-5.44-1.24-9.99-2.08-14.5-.59-2.97-.64-6.04-1.58-8.96-.45-1.43.15-2.82,1.93-3.02,1.63-.2,2.18.64,2.47,2.23,2.08,10.74,3.81,21.57,5.59,32.36.45,2.77.99,5.59,1.43,8.96,2.18-3.12,1.73-6.33,2.72-9.1.45-1.24.84-2.62,1.14-3.96.45-1.68,1.48-2.33,3.07-1.93,1.68.4,1.78,1.83,1.34,3.12-1.04,3.07-1.48,6.28-2.37,9.35-.74,2.57-.79,5.29-1.73,7.82-.45,1.14-.54,2.18-1.73,2.92-1.34.89-.69,2.37-.45,3.56.84,4.16,1.78,8.26,2.03,12.52-.3,2.23.84,4.25,1.34,6.28,1.19,4.95,1.43,10.04,3.02,14.89l.1.05Z"/>
      <path class="cls-61" d="M583.81,447.86c-.25-4.6-1.83-8.16-6.28-10.39-2.57-1.29-4.7-3.51-6.98-5.34-.99-.84-2.08-1.83-.99-3.22,1.09-1.43,2.52-1.39,3.91-.35,2.47,1.88,4.9,3.81,7.47,5.74.69-.74.49-1.58.35-2.33-1.68-7.87-2.13-15.88-3.31-23.75-.35-2.18-1.19-4.25-1.14-6.53,1.14-1.09,2.57-1.63,3.96-2.33,2.18,2.37,1.78,5.49,2.33,8.26.45,2.18.59,4.35,1.29,7.03.94-1.83,1.78-3.27,2.57-4.75.64-1.14,1.39-2.18,2.42-2.97,1.09-.79,2.18-.99,3.31-.2,1.09.79,1.53,1.83,1.24,3.17-.2.84-.49,1.58-.94,2.33-2.77,4.65-4.35,9.8-6.28,14.79-1.09,2.87-.35,5.89.3,8.71.64,2.82.84,5.69,1.53,8.46.25.89.25,1.83-.54,2.57-.59,1.53.79,2.52,1.14,3.81.99,4.21,1.24,8.56,2.28,12.72,1.39,5.54,2.08,11.23,4.16,16.62.64,1.63-.1,3.22-.94,4.65-2.67-.15-4.01-1.73-4.45-5.1-.15-.99.49-2.33-1.09-2.77-.45-3.91-1.34-7.77-1.98-11.63-.45-2.57-1.14-5.1-1.53-7.67-.49-3.17-.35-6.53-1.93-9.5l.15-.05Z"/>
      <path class="cls-25" d="M336.73,463.98c1.24,6.88.69,13.75.05,20.58-1.19,1.93-2.42,3.76-3.12,5.94-.35,1.04-.89,2.33-2.47,1.98-4.6-.79-9.2-.2-13.8-.4-1.34-.05-2.82.25-3.91-.84.35-3.02,1.78-5.59,3.41-8.06,5.34-7.87,11.63-14.89,18.8-21.08,1.04.35.35,1.43,1.04,1.83v.05Z"/>
      <path class="cls-49" d="M313.47,491.25h15.54c1.09,0,2.28-.2,2.92,1.09.74,2.08-1.19,3.61-1.24,5.54-.94,1.24-1.39,2.62-1.39,4.21-.64.99-1.68,1.09-2.67,1.09-3.66,0-7.37.2-11.03-.1-.3,0-.59-.15-.84-.25-2.03-1.34-4.25-.89-6.43-.54-.15,0-.25,0-.4.05-2.47,0-5-.2-7.47.05-2.82.25-5-1.04-7.17-2.33-1.78-1.04-1.04-6.28,1.14-7.47,1.39-.79,2.82-1.48,4.65-1.43,4.8.15,9.6.05,14.4.05v.05Z"/>
      <path class="cls-25" d="M385.12,485.11c-.35-3.61-.69-7.17-1.04-10.79v-9.7c0-.69-.35-1.63.45-2.03.84-.4,1.53.4,2.13.89,3.22,3.02,6.38,6.14,9.1,9.65,2.47,3.22,4.85,6.48,7.57,9.5,2.28,2.52,3.27,5.49,4.16,8.56-1.14,1.09-2.57.79-3.91.84-4.6.2-9.2-.35-13.8.4-1.14.3-1.83-.35-2.08-1.29-.59-2.13-1.93-3.96-2.52-6.09l-.05.05Z"/>
      <path class="cls-22" d="M123.93,375.62c-.54-2.62-1.14-5.19-1.58-7.82-.2-1.09-.94-1.43-1.73-1.93-2.97-1.73-5.84-3.51-8.81-5.29-.3-.2-.64-.4-.94-.59-1.24-.94-1.98-2.18-.99-3.56.89-1.34,2.28-.94,3.46-.25,2.33,1.34,4.6,2.77,7.22,4.35-1.19-5.15-2.33-9.94-3.46-14.74-.15-.64-.3-1.24-.35-1.88-.05-1.24,0-2.47,1.63-2.72,1.58-.2,2.47.64,2.82,2.08.45,1.88.79,3.76,1.24,5.64.1.49.45.94.79,1.78,1.78-3.07,3.41-5.79,5-8.61.89-1.53,2.08-2.67,3.76-1.68,1.68.99.89,2.62.2,3.91-2.23,3.96-4.45,7.87-6.78,11.78-.45.74-1.04,1.34-.74,2.28,1.63,5.34,2.13,11.03,4.25,16.23.74,3.36,1.53,6.73,2.28,10.09-.2,2.97-.64,5.84-3.41,7.72-.94-5.64-2.47-11.13-3.86-16.67v-.1Z"/>
      <path class="cls-48" d="M61.3,264.45c-.25,3.51-1.98,6.68-2.57,10.09,0,0-.49,0-.74-.05-.4-4.5-.79-8.96-1.73-13.36-.1-5.74-1.19-11.38-1.73-17.02-.1-.89-.54-1.24-1.24-1.63-3.61-2.03-7.17-4.16-10.79-6.23-.49-.3-.94-.59-1.39-.94-1.09-.84-1.48-2.03-.84-3.22.74-1.34,2.08-1.19,3.17-.54,2.67,1.43,5.29,3.07,7.92,4.55.64.35,1.24.69,2.18,1.24-.3-3.76-.54-7.17-.74-10.64-.1-1.24-.05-2.57,1.58-2.72,1.58-.15,2.33.79,2.52,2.33.69,5.74,1.39,11.53,2.08,17.27.1.79-.15,1.68.74,2.42,1.58-1.34,2.47-3.17,3.61-4.75.54-.74.99-1.53,1.58-2.28,1.09-1.34,2.57-1.68,3.91-.64s.49,2.37-.25,3.46c-1.93,2.82-3.61,5.89-5.89,8.36-2.62,2.82-2.42,5.94-1.93,9.15.3,1.73.4,3.46.49,5.24l.05-.1Z"/>
      <path class="cls-49" d="M388.93,492.38c.49-1.53,1.73-1.09,2.77-1.09,5.24,0,10.49,0,15.73-.05h9.94c.94,0,1.78,0,2.62.59,1.98,1.53,4.16,2.97,3.46,5.99-.49,2.08-3.86,4.45-6.33,4.5-2.28.05-4.6,0-6.88,0-.1,0-.25-.05-.35-.1-1.98-.49-3.96-.49-5.94,0-.1,0-.25,0-.35.05h-9.1c-1.34,0-2.42-.2-2.62-1.78-.69-.84-1.48-1.58-1.78-2.67.2-1.14-.35-2.08-.79-3.07-.4-.79-.89-1.58-.25-2.52l-.15.15Z"/>
      <path class="cls-40" d="M390.36,497.97c.89.64,1.63,1.34,1.43,2.62-.54.4-1.09.84-1.63,1.24-1.24,1.09-2.77.84-4.25.84-17.66,0-35.33.15-52.99-.1-1.43,0-2.87-.15-3.86-1.34-1.48-1.73.1-2.42,1.09-3.31,1.04-.94,2.37-.94,3.66-.94h52.94c1.29,0,2.62-.15,3.61.99h0Z"/>
      <path class="cls-16" d="M332.47,501.93c19.25,0,38.44,0,57.69-.05,0,.64.2,1.29-.64,1.58-2.33.79-4.6,1.93-7.08,2.33-3.02-.15-6.09-.2-9.1.3-8.76,1.43-17.61,1.09-26.42.59-3.46-.2-6.88-1.68-10.34-2.57-.94-.54-1.98-.2-2.97-.25-1.39,0-1.93-.54-1.14-1.88v-.05Z"/>
      <path class="cls-44" d="M153.96,188.85c0-7.03-.05-14.05.05-21.08,0-2.13-.69-3.46-2.47-4.45-2.92-1.63-5.84-3.07-9.25-3.41-1.14-.1-2.28-.74-3.41-1.14-.3-6.28,3.81-9.5,8.61-12.02,2.18-1.14,4.35-2.57,7.03-2.33-.59.54-1.19,1.14-1.78,1.68-1.43,1.19-3.12,2.37-2.47,4.5s2.67,1.43,4.25,1.63c0,12.22-.1,24.44-.15,36.71-.15,0-.3,0-.45-.05l.05-.05Z"/>
      <path class="cls-65" d="M313.47,526.77h-5.39c0-8.11-.1-16.23-.15-24.39h0c2.23-.74,4.45-.84,6.68.05h0c.74.79.89,1.78.89,2.82,0,5.99.05,11.97,0,17.96,0,1.58-.49,2.87-2.03,3.61v-.05Z"/>
      <path class="cls-9" d="M410.25,502.33c0,6.93-.15,13.85.05,20.78.05,2.72-1.34,2.72-3.27,2.62-1.83-.1-3.61.45-3.56-2.62.2-6.93.05-13.85,0-20.78h0c2.23-.84,4.45-.84,6.68,0h.1Z"/>
      <path class="cls-3" d="M179.54,124.43c-7.77,6.58-15.63,12.96-23.8,19.05,1.53-4.8,3.41-9.25,7.42-12.72,2.77-2.37,6.09-3.61,9.25-5.1,2.18-1.04,4.6-1.68,7.17-1.24h-.05Z"/>
      <path class="cls-32" d="M429.1,312.24c-3.22,1.19-6.53.49-9.8.54-7.47.1-7.42,0-7.47-7.37,0-1.63.45-3.31-.4-4.85-1.04-.94-.99-2.18-.79-3.36.54-3.61.4-7.17.4-10.79v-56.85c0-5.74.15-5.84,5.94-5.84,2.42,0,4.8.1,7.22-.1,2.87-.15,5.74-.05,8.61-.05h133.88c1.78,0,3.71-.45,5.34.89v76.14c0,.79.25,1.68-.54,2.33-1.43-.59-1.48-2.03-1.93-3.17-2.67-7.22-6.09-14.1-10.84-20.24-6.14-7.92-12.76-7.87-18.75.2-2.08,2.77-3.46,5.89-4.7,9.1-.35.94-.54,1.98-1.53,2.52-1.93,0-2.97-1.53-3.91-2.77-3.07-3.96-10.04-3.17-12.57,1.19-3.22,5.54-7.42,10.59-8.66,17.17-.64,1.04-1.88.94-2.72,1.48-3.17-2.62-6.48-4.85-10.74-5.15-3.31-.25-3.56-3.27-4.35-5.39-3.31-8.81-10.24-12.02-18.85-12.81-7.67-.69-14.5,1.73-20.93,5.69-2.33,1.43-4.11,3.36-5.24,5.89-.64,1.43-1.39,2.52-3.27,2.33-8.61-.94-12.37,6.04-13.41,13.31v-.05Z"/>
      <path class="cls-32" d="M571.99,154.96c0,.59,0,1.14.05,1.73,0,19.44,0,38.84-.05,58.28,0,1.68,0,3.31-.05,5-.99,1.09-2.37.94-3.61.94h-55.17c-1.48,0-3.02.05-4.11-1.19-.89-1.34-.69-2.82-.69-4.3v-24.14c0-4.16-.64-4.8-4.9-4.85-2.57,0-5.19-.1-7.77.05-3.27.2-3.86.84-3.86,4.11-.05,8.21,0,16.48,0,24.69,0,1.48.15,2.97-.64,4.35-.89,1.14-2.23,1.24-3.51,1.24-7.82.05-15.63.05-23.45,0-.99,0-2.03-.1-2.87-.74-.89-1.19-.79-2.62-.79-4.01v-58.18c0-3.91.25-4.25,3.02-4.8,3.17.59,6.28-.25,9.4-.25h82.18c4.7,0,9.4.99,14.1.3,1.24-.2,2.37.3,2.87,1.68l-.15.1Z"/>
      <path class="cls-15" d="M695.82,395.56c11.82,6.33,20.73,15.34,25.73,27.9.15.4.59.64.89.99,1.93,2.33,2.08,5.29,2.82,8.02.15.49,0,1.09.49,1.48.1,1.04-.05,1.98-.25,3.02-.4,2.47-1.63,3.12-4.11,3.22-18.75.99-37.5.79-56.3,1.14-8.46.15-16.97.64-25.48.89-3.91.1-4.95-.99-4.95-4.9,0-12.96,4.11-24.49,13.16-33.84,5.79-5.99,12.91-9.8,21.37-11.48,6.04-1.19,11.78-.69,17.51.4,3.07.59,5.99,2.03,9,3.12l.1.05Z"/>
      <path class="cls-4" d="M461.36,219.87c9.15,0,18.36.05,27.51.1.64,0,1.29-.1,1.83-.49,1.98.99,4.11.89,6.23.84,4.11-.15,8.31.54,12.32-.79,1.09.74,2.33.49,3.51.49h59.12c.89,1.48.79,2.97,0,4.45h-145.06c-.94,0-1.83,0-2.77-.05-3.02-.45-6.09-.1-9.1-.2-1.48-.05-2.97.2-4.3-.59-1.19-.64-1.83.4-2.67.84-.35,0-.74-.05-1.09-.1-1.09.4-2.18.3-3.31.3h-85c-1.88,0-3.71.1-5.24-1.34-.59-.59-1.34-.74-1.98-.15-1.34,1.19-2.92.94-4.5.94h-147.49c-1.24,0-2.52,0-3.02-1.43-.49-1.34.64-1.98,1.48-2.67,16.82,0,33.69,0,50.51-.1,4.45,0,4.06.59,4.06-3.96v-24.14c0-.99-.25-2.03.35-2.97,1.29,1.14.94,2.72.99,4.16v22.71c0,4.16.3,4.5,4.35,4.45,4.4,0,8.86.25,13.26-.3h25.97c1.63-.94,3.41-.79,5.19-.74,11.73-.15,23.4-.15,35.13,0,1.58-.1,3.22-.1,4.8,0,6.73-.15,13.51-.15,20.24,0,1.73-.1,3.51,0,5.24,0,2.62-.15,5.29,0,7.92,0,16.92-.05,33.84-.1,50.76,0,4.06.05,8.16-.15,12.22.05,1.58-.1,3.17-.1,4.75,0,6.18-.15,12.42-.1,18.6-.05,1.78.1,3.56-.1,5.29,0,9.7-.15,19.39-.15,29.09,0,1.58,0,3.27-.35,4.7.69l.1.05Z"/>
      <path class="cls-44" d="M600.29,366.72c-.59-8.56-.45-17.17-1.93-25.68-1.88-10.64-7.08-19.54-13.9-27.61-.3-.35-.54-.74-.84-1.09.94-1.78,2.87-2.13,4.45-2.72,3.96-1.43,7.92-3.56,12.22-2.77,5.24.99,10.74,1.68,14.69,6.13,2.52,2.87,5.44,5.29,6.93,9.05.79,1.93.4,3.76.64,5.64.15.94-.35,2.13,1.09,2.47.54.74,0,1.14-.49,1.58-2.52,2.42-2.47,3.56.49,5.49,2.62,1.63,4.25,3.91,5.79,6.53,3.61,6.38.84,16.72-5.29,19.74-.59.3-.99.84-1.63,1.04-3.02,1.43-6.38,1.78-9.6,2.08-4.16.4-8.41.05-12.62,0v.1Z"/>
      <path class="cls-60" d="M587.08,221.7c-3.41-3.36-6.78-6.73-10.19-10.04-1.29-1.24-2.03-2.47-.59-4.01,1.43-1.58,2.62-.2,3.56.59,2.28,1.93,4.4,4.06,6.63,6.18.99-.99.59-2.03.64-2.97,0-13.7,0-27.41.05-41.11,0-1.68-.4-2.87-1.78-4.06-2.87-2.47-5.49-5.15-8.11-7.87-1.04-1.04-2.18-2.42-.79-3.81s2.82-.74,4.11.54c1.93,1.93,3.96,3.76,6.04,5.69.89-.89.54-1.98.54-2.92,0-9.55-.05-19.1.05-28.6,0-2.47-.74-4.35-2.28-6.23-3.17-3.81-6.09-7.82-9.25-11.63-1.19-1.43-2.18-3.02-.64-4.3,1.78-1.53,3.12.1,4.25,1.53,2.37,3.02,4.75,5.99,7.17,9.05,1.09-.94.69-2.03.69-2.97v-31.96c0-.84-.1-1.68.05-2.47.25-1.34.84-2.62,2.47-2.42,1.39.15,1.93,1.24,1.93,2.62v37.8c0,.99-.35,2.03.64,3.22,2.72-2.23,4.45-5.34,6.93-7.67.64-.64,1.29-1.34,1.93-1.98.94-.94,1.93-1.04,2.92-.2,1.09.94,1.09,2.03.15,3.17-3.76,4.35-7.52,8.76-11.38,13.06-.69.79-1.24,1.53-1.24,2.62v31.66c0,.25.1.49.35,1.48,2.23-3.27,4.21-6.13,6.14-9,.49-.74.89-1.68,1.58-2.23.79-.64,1.58-1.63,2.87-.64,1.29.99,1.58,2.37.74,3.41-3.86,4.95-6.33,10.93-10.98,15.34-.69.64-.79,1.39-.79,2.28v43.04c0,.15.1.35.35.94,2.08-1.78,4.06-3.46,5.94-5.19,1.78-1.58,3.51-3.22,5.24-4.9,1.19-1.19,2.62-1.78,3.81-.45,1.19,1.34.45,2.72-.74,3.86-4.3,4.01-8.61,8.02-12.91,12.07-.45.45-.89.89-1.34,1.34-.94.94-.49,2.13-.49,3.17v60.26c0,1.24.89,3.22-1.68,3.27-2.28,0-2.72-1.39-2.72-3.31,0-16.03-.2-32.01.15-48.04.1-4.8.3-9.6.4-14.35,0-.89.3-1.88-.45-2.62l.05-.25Z"/>
      <path class="cls-43" d="M622.5,364.54c0-.94.59-1.48,1.43-1.83,5.49-2.47,7.57-11.63,5.84-16.13-1.39-3.66-3.12-6.93-6.88-8.96-3.66-1.98-3.46-4.35.2-6.63.25-.15.35-.59.54-.89,3.71-.79,7.12-2.47,11.08-2.37,5.64.15,10.24,2.72,14.84,5.49,2.03,1.24,3.86,2.67,5.59,4.35,5.79,5.64,7.08,12.67,6.18,20.14-.69,5.64-5.1,8.21-9.99,10.04-4.8,1.83-9.9,1.58-14.69.89-4.45-.64-9.2-.74-13.36-3.17-.45-.25-.69-.54-.79-1.04v.1Z"/>
      <path class="cls-14" d="M588.11,446.77c-.45-5.59-2.18-11.03-2.62-16.62-.1-1.19,0-2.18.4-3.22,2.33-5.29,3.86-10.88,6.93-15.83.89-1.39,1.14-2.77-.45-3.86-1.78-1.19-2.87.2-3.61,1.39-1.68,2.57-3.12,5.29-4.85,8.36-1.09-6.14-2.13-11.87-3.17-17.56,4.11-2.67,8.02-5.54,11.38-9.2,3.27-3.56,5.19-7.82,6.63-12.32,3.56,8.61,3.96,17.71,4.25,26.82.2,6.23.89,12.47.1,18.8-1.14,9.55-3.81,18.06-12.32,23.75-1.29.84-1.93.64-2.67-.45v-.05Z"/>
      <path class="cls-10" d="M533.54,291.12c1.58-3.91,2.97-7.97,5.54-11.43,6.73-9.1,13.7-9.15,20.53-.2,5.39,7.08,8.86,15.14,11.82,23.4.15.74.35,1.43.49,2.18-5.54-1.48-10.93-3.36-16.52-4.6-6.48-1.43-13.01-1.73-19.59-1.58-3.61-2.08-4.4-4.7-2.28-7.77h0Z"/>
      <path class="cls-48" d="M725.81,434c-.35.1-.84.3-.89-.1-.4-3.27-1.83-6.23-2.42-9.4.05-3.22.49-6.43,1.04-9.6.15-.94,0-1.73-.59-2.57-2.67-3.66-5.19-7.37-7.77-11.13-.79-1.14-1.43-2.37,0-3.41,1.34-.99,2.67-.69,3.66.59,1.73,2.37,3.41,4.8,5.54,7.82.4-2.72.74-4.7.99-6.73.45-4.11.79-8.26,1.24-12.37.05-.54.2-1.09.35-1.63.3-1.53,1.14-2.37,2.72-1.98,1.39.35,1.68,1.43,1.58,2.82-.2,3.31-1.04,6.58-.79,10.14,2.82-.99,5-2.87,7.47-4.16.89-.45,1.73-1.09,2.67-1.43,1.09-.4,2.28-.59,2.92.69.54,1.09.4,2.28-.64,3.02-1.48,1.04-3.12,1.98-4.7,2.92-2.52,1.53-5.1,3.02-7.67,4.5-2.13,1.24-1.39,3.46-1.68,5.19-.74,4.65-1.09,9.3-1.58,14-.49,4.25-.94,8.56-1.43,12.81h0Z"/>
      <path class="cls-10" d="M571.99,154.96c-.64-.49-1.34-.99-2.23-.99-18.31,0-36.61,0-54.92.1-16.38.1-32.75-.35-49.13.25-.89,0-1.63-.2-2.37-.54-2.33-.45-4.55.79-6.83.35-9.4.2-18.8.1-28.2.05-1.83-.2-3.71.15-5.54-.25-2.62-1.58-2.72-2.97-.59-6.28,1.68-1.58,3.56-2.92,5.49-4.25,6.53-5.15,13.26-10.04,19.89-15.04,2.18-1.53,4.01-3.61,6.68-4.45,2.57-1.93,5.15-3.86,7.72-5.79,4.25-4.55,9.9-7.32,14.6-11.33,2.92-2.47,6.09-3.22,9.9-3.12,9.45.25,18.9.1,28.3.05,1.88,0,3.31.54,4.75,1.78,12.17,10.19,24.39,20.33,36.61,30.48.64.54,1.34.99,2.03,1.48,5.15,3.96,9.5,8.91,15.19,12.17,1.04.59,2.13,1.39,1.88,2.77-.3,1.73-1.73,2.23-3.22,2.52v.05Z"/>
      <path class="cls-13" d="M396.3,67.73c-1.24-.45-2.47-.59-3.81-.59h-62.54c-1.09,0-2.23-.25-3.17.59-2.37-.84,0-2.28-.45-3.36,1.04-.89,2.28-1.04,3.61-1.04h62.29c1.04,0,2.03,0,2.97.49.54,1.24,1.09,2.47,1.09,3.86v.05Z"/>
      <path class="cls-58" d="M313.47,526.77c.99-1.29,1.19-2.77,1.19-4.35-.05-6.68,0-13.36,0-19.99h12.07c.89,0,2.13.45,2.42-1.09,1.14.2,2.28.45,3.41.64-.2,1.24.45,1.58,1.58,1.63.84,0,1.83-.45,2.52.49-1.88-.25-3.31.35-4.65,1.78-1.43,1.53-3.12,2.82-4.9,4.01-4.06,2.72-5,6.78-5.19,11.23-.05,1.73,0,3.51,0,5.24-2.72,1.19-5.59.3-8.41.49l-.05-.1Z"/>
      <path class="cls-41" d="M314.61,534.64c-2.23,0-4.45,0-6.63-.05,1.53-1.63,5.24-1.58,6.63.05Z"/>
      <path class="cls-10" d="M231.44,219.92c-.3,1.24-1.29,1.14-2.18,1.14h-13.31c-2.18,0-3.07-.69-3.02-3.07.1-9.7,0-19.39-.1-29.09-.1-2.23,1.19-3.22,3.22-3.22h11.87c2.52,0,3.46,1.19,3.41,3.81-.1,10.14,0,20.29,0,30.43h.1Z"/>
      <path class="cls-38" d="M157.92,220.07c-1.68,3.02-1.24,3.86,2.23,3.86h147.73c1.19,0,1.98-.25,2.67-1.39.94-1.53,2.37-2.28,3.46.1.69,1.58,2.08,1.29,3.36,1.29h86.38c1.09,0,2.23-.35,3.22.45v.1c-1.53,1.24-3.36.89-5.1.89h-81.09c-3.43,0-5.15,1.72-5.15,5.15v63.58c0,1.63.4,3.36-.89,4.75-1.19.1-1.98-.05-2.42-1.48-.54-1.73-2.13-3.12-2.08-5.15v-63.03c0-3.17-1.55-4.75-4.65-4.75h-146.94c-1.34,0-2.47-.4-2.77-1.78-.3-1.53.49-2.47,2.08-2.62l-.05.05Z"/>
      <path class="cls-5" d="M262.32,219.87h-4.95c.99-1.53-.05-3.07,0-4.55.1-17.66,0-35.28.05-52.94,0-3.36.25-6.68.4-10.04,1.48,0,2.97-.05,4.4-.1,1.09.99,1.04,2.33,1.04,3.61v60.41c0,1.29.1,2.62-.94,3.61h0Z"/>
      <path class="cls-10" d="M176.13,194.49v-6.63c0-3.51.64-4.06,4.01-4.06,1.83,0,3.71.1,5.54.05,2.08,0,3.12,1.14,3.17,3.07.1,5,.1,9.99.1,14.94,0,1.58-.74,2.62-2.52,2.67-2.33.1-4.6.25-6.93.4-2.28.15-3.46-.84-3.41-3.27.05-2.42,0-4.8,0-7.22l.05.05Z"/>
      <path class="cls-17" d="M525.92,367.26c-.1.89-.64,1.48-1.24,2.08-1.83,1.58-2.13,3.51-.59,5.34,1.53,1.73,3.56,2.13,5.74.94.69-.4,1.24-1.09,2.18-1.09,3.86-.45,4.95.69,3.91,3.96-2.87,3.86-6.98,2.28-10.54,1.98-2.13-.2-3.27.25-4.45,1.68-3.36,4.11-7.47,6.28-13.01,5.94-5.49-.4-10.54-5.34-11.08-10.84-.69-7.47,1.83-13.95,5.1-20.38,1.63.4,3.12,1.04,3.86,2.72-2.52,5.19-4.8,10.39-4.55,16.52.25,5.49,6.48,9.45,11.97,6.68,2.03-1.04,3.71-2.62,5.15-4.55.79-1.09,1.14-2.13.74-3.31-.84-2.82.1-5.49.45-8.16.25-1.88,1.14-3.46,3.02-4.3,3.36-.2,3.86.59,3.41,4.95l-.05-.15Z"/>
      <path class="cls-39" d="M533.54,291.12c-1.29,3.17-.1,5.64,2.28,7.77-9.6.89-18.75,3.22-27.21,8.02-.89-.74-.54-1.63-.25-2.52,1.98-5.94,5.69-10.88,9.05-16.03,2.47-3.86,9.85-4.21,12.37-.79,1.04,1.39,2.47,2.42,3.76,3.61v-.05Z"/>
      <path class="cls-28" d="M535.87,378.39c.2-2.82-1.14-4.11-3.91-3.96,10.64-3.76,21.47-7.17,30.87-13.7,1.48-.99,2.87-2.13,3.76-3.61,2.18-3.41.15-7.37-4.06-8.26.79-1.73,2.03-2.97,3.96-3.27,6.58,3.02,6.93,11.53,2.62,15.83-4.35,4.4-9.9,7.08-15.39,9.65-5.84,2.72-12.07,4.55-17.91,7.32h.05Z"/>
      <path class="cls-31" d="M505.79,359.49c-1.39-.79-2.82-1.48-3.86-2.72-2.92-5.39-2.08-10.14,2.18-12.52,2.82-1.53,7.47-1.19,9.65.69,2.92,2.52,3.86,5.89,2.62,9.2-1.34,3.61-4.06,5.39-8.11,5.39-.84,0-1.68,0-2.47-.05Z"/>
      <path class="cls-28" d="M525.92,367.26c.45-2.72-.79-4.35-3.41-4.95,1.98-7.32,5.15-14.2,7.62-21.37.59-1.73,1.24-3.46,1.83-5.19,2.67-7.62,10.29-9.25,16.08-3.46.49,2.03-1.48,2.57-2.23,3.91-.64-.54-1.24-1.09-1.88-1.58-2.92-2.18-6.18-1.34-7.42,1.98-3.02,8.21-5.99,16.43-8.96,24.64-.69,1.98-1.14,4.01-1.68,6.04h.05Z"/>
      <path class="cls-24" d="M566.49,345.59c-1.34,1.09-2.62,2.18-3.96,3.27-2.03.25-3.76.1-3.96-2.52-.15-2.33,1.63-4.85,3.66-5.19,2.23-.35,3.66.74,4.16,3.31.05.35.1.74.15,1.09l-.05.05Z"/>
      <path class="cls-54" d="M545.81,336.19c-.4-1.93,1.83-2.37,2.23-3.91,3.96,0,5.69,1.98,4.25,5.15-.64,1.39-1.78,2.47-3.41,2.37-2.23-.1-2.72-1.83-3.07-3.61Z"/>
      <path class="cls-36" d="M262.32,219.87c0-22.56-.05-45.07-.1-67.63,9.5-.79,19.05-.35,28.55-.54,1.58,0,3.61.54,4.3-1.58.64-2.13-.2-3.81-1.98-5.29-6.43-5.24-12.76-10.64-19.15-16.03.69-1.73,2.23-1.39,3.51-1.43,5.34-.1,10.74-.1,16.08,0,3.81.05,4.7.94,4.75,4.85.1,10.14-.35,20.33.1,30.48.74,17.46.35,34.93.45,52.39,0,1.63.35,3.36-.99,4.75h-35.52v.05Z"/>
      <path class="cls-12" d="M297.89,219.87c0-16.08.2-32.21-.15-48.29-.3-13.31-.4-26.62-.35-39.98,0-2.57-.74-3.36-3.31-3.31-5.74.2-11.48,0-17.22.05-.99,0-2.03-.3-2.92.45-1.98-1.68-3.96-3.36-5.94-5h180.09c2.03,0,4.06,0,6.09.05-2.08,1.63-4.16,3.27-6.28,4.85-5.44.79-10.88.25-16.33.35-3.36.1-3.36,0-3.31,3.41,0,3.81.05,7.57-.4,11.38-1.63,1.24-3.31,2.47-4.95,3.71-.94-1.09-.79-2.42-.79-3.71v-11.38c0-2.97-.3-3.27-3.12-3.31-3.91-.05-7.77,0-11.68,0-1.98,0-2.87.84-2.82,2.82v83.02c0,1.63.35,3.36-.84,4.8h-4.45c-1.39-1.43-.99-3.31-.99-5v-80c0-3.76-1.86-5.64-5.59-5.64h-61.99c-1.93-.1-2.97.69-2.87,2.72v2.77c0,12.96.05,25.93,0,38.89-.1,14.05.99,28.1.59,42.2,0,1.39.2,2.77-.54,4.06h-4.85c-1.19-1.39-.89-3.02-.89-4.55,0-15.39.3-30.72-.1-46.11-.35-12.12-.4-24.24-.49-36.36,0-3.31-.35-3.61-3.71-3.66h-11.68c-3.02,0-3.31.3-3.31,3.41-.05,7.77,0,15.54,0,23.35,0,11.38.1,22.76,0,34.14-.1,8.51.99,17.02.59,25.53-.05,1.43.25,3.02-.94,4.21h-4.45l-.1.15Z"/>
      <path class="cls-56" d="M343.8,400.01c2.92,0,5.15-.1,7.32.54.89.25,1.83.54,2.37,1.29.94,1.34,2.13,2.82,1.04,4.5-1.04,1.63-2.77,1.24-4.25.54-5.19-2.62-10.34-2.82-15.54.1-.89.49-1.83.59-2.47-.3-.79-1.04-.2-1.93.64-2.62,3.36-2.77,6.93-4.95,10.88-4.06Z"/>
      <path class="cls-62" d="M348.01,420.94c-.25,1.34-.35,2.62-.69,3.86-.54,1.93-1.78,3.31-3.96,3.22-2.08-.05-3.56-1.24-4.01-3.27-.54-2.33-.64-4.75.54-7.03.89-1.68,1.88-3.41,4.06-3.27,2.13.15,2.97,2.03,3.66,3.76.35.84.3,1.78.45,2.67l-.05.05Z"/>
      <path class="cls-19" d="M387.94,422.82c0,3.56-2.37,6.83-4.85,6.68-2.72-.15-4.4-3.27-3.81-7.17,0-.2.1-.35.1-.54.79-3.61,2.62-5.84,4.75-5.64,2.18.2,3.76,3.02,3.81,6.63v.05Z"/>
      <path class="cls-37" d="M368.54,462.15c-4.06,5.74-13.31,3.91-15.63-.99,0-1.63.84-2.33,2.42-2.18,3.91.35,7.77.69,11.73.59,1.98-.05,1.34,1.48,1.48,2.57Z"/>
      <path class="cls-64" d="M364.98,451.67c-5.69-.2-9.65-2.62-12.37-7.17-.54-.89-.89-1.68.25-2.33,1.04-.59,1.78,0,2.23.89,1.43,2.62,3.51,4.5,6.43,5.34,3.91,1.19,6.28.35,8.61-2.97.59-.84,1.14-1.98,2.33-1.24,1.09.69.69,1.83.15,2.72-1.88,2.87-4.4,4.65-7.62,4.8v-.05Z"/>
      <path class="cls-45" d="M383.98,411.29c4.55-.05,10.44,5.29,10.69,9.7,0,.54,0,1.14-.74,1.24s-.89-.49-1.09-1.04c-.69-1.93-1.48-3.71-2.97-5.24-4.25-4.35-10.29-3.36-12.91,2.13-.15.35-.25.69-.45.99-.54.89-.15,3.02-1.83,2.33-1.39-.59-.05-2.18.3-3.17,1.53-4.25,5.24-6.98,9.05-7.03l-.05.1Z"/>
      <path class="cls-6" d="M343.7,411.69c4.16,0,7.17,1.93,9.25,5.49.45.79,1.14,1.88.1,2.42-1.09.59-1.24-.79-1.58-1.43-2.87-4.6-7.67-6.09-11.82-3.61-1.78,1.09-2.77,2.72-3.31,4.6-.2.74-.3,1.63-1.29,1.39-1.24-.3-.59-1.39-.45-2.08,1.04-3.91,4.85-6.78,9.05-6.83l.05.05Z"/>
      <path class="cls-34" d="M362.16,439.15c-1.09-.2-2.37-.25-2.52-1.78-.1-1.09.69-1.43,1.63-1.24,1.14.25,2.77.05,2.82,1.88,0,1.09-.94,1.14-1.88,1.14h-.05Z"/>
      <path class="cls-1" d="M363.25,435.63c-1.09-.49-2.33-.99-2.33-2.52,0-.69.54-1.24,1.29-1.09,1.24.3,2.47.89,2.62,2.37.1.94-.59,1.24-1.53,1.24h-.05Z"/>
      <path class="cls-32" d="M314.61,298.93c0-24.05,0-48.09-.1-72.19,0-2.18,1.04-2.33,2.72-2.28h89.65c0,28.7,0,57.39.1,86.09,0,1.88-.79,2.77-2.42,2.18-1.83-.69-3.91.25-5.59-1.09-.79-1.53-.1-3.12.05-4.6.89-9.55.94-19.05-1.93-28.3-3.96-12.72-11.23-22.86-24.34-27.21-17.12-5.74-34.68,1.14-43.39,17.02-4.55,8.31-6.73,17.17-6.68,26.62,0,4.7-.15,9.45.69,14.1.15.79.35,1.63-.25,2.42-1.19,1.14-2.62.4-3.96.59-.05-4.95-2.03-9.2-4.5-13.36h-.05Z"/>
      <path class="cls-10" d="M323.07,311.65c-3.02-16.77-2.03-32.95,8.02-47.35,15.34-22.02,48.54-20.98,62.39,3.96,4.5,8.11,6.63,16.82,6.78,26.07.1,5.84.25,11.68-1.34,17.37-.99.99-2.13,1.24-3.51,1.19-10.19-.05-20.38-.05-30.58-.05h-38c-1.43,0-2.77,0-3.81-1.19h.05Z"/>
      <path class="cls-7" d="M407.97,224.47c.3-2.23,1.73-3.12,3.07-1.73,1.29,1.34,2.57,1.09,4.01,1.19,3.02.25,6.04-.54,9,.45-3.17,0-6.28.2-9.45,0-2.28-.15-2.77.69-2.77,2.82.05,20.93.05,41.86,0,62.78,0,3.51-.35,7.03-.54,10.49,0,3.31-.05,6.68,0,9.99,0,1.34,0,2.33-1.83,2.33s-2.08-.94-2.08-2.42v-81.34c0-1.58.1-3.12.54-4.65l.05.1Z"/>
      <path class="cls-51" d="M390.36,497.97c-11.73,0-23.5-.1-35.23-.1h-24.99c-.45-2.18,1.43-3.61,1.73-5.54,1.29-1.68,1.43-3.91,2.52-5.69.59-.94,1.19-1.83,2.37-2.13,5.59-.25,11.08,0,16.43,1.98,2.47.89,4.75,2.03,6.78,3.66.84.69,1.43,1.19,2.57.15,6.18-5.59,13.46-6.98,21.47-5.29.35.1.74,0,1.09,0,1.78,1.09,2.08,3.07,2.77,4.8.35.84.35,1.78,1.04,2.47.64,1.39,1.19,2.87,1.93,4.21.45.79.25,1.14-.49,1.43v.05Z"/>
      <path class="cls-41" d="M314.61,502.38c-2.23,0-4.45,0-6.68-.05,1.58-1.58,5.24-1.53,6.68.05Z"/>
      <path class="cls-41" d="M410.25,502.33h-6.68c1.48-1.58,5.15-1.58,6.68,0Z"/>
      <path class="cls-10" d="M509.3,219.47c-.4,1.53-1.63,1.58-2.82,1.58h-13.75c-1.24,0-1.93-.3-1.93-1.63v-29.69c0-3.51.4-3.96,3.91-4.11,3.61-.1,7.22-.1,10.84,0,2.92,0,3.76.94,3.76,3.91v29.93h0Z"/>
      <path class="cls-12" d="M456.86,153.57c2.18-.1,4.35-.54,6.53.25-2.18-.25-2.03,1.24-1.98,2.67v63.43h-4.5c-1.04-1.04-.89-2.37-.89-3.66v-58.98c0-1.29-.15-2.62.84-3.66v-.05Z"/>
      <path class="cls-48" d="M545.91,194.54v7.47c0,1.98-1.09,2.92-2.92,2.87-2.57-.05-5.15-.2-7.72-.4-1.58-.1-2.23-1.24-2.23-2.67,0-5,.05-9.99.15-14.99,0-2.03,1.19-3.02,3.22-3.02s4.25,0,6.38-.1c2.18-.1,3.07,1.09,3.12,3.02.05,2.57,0,5.19,0,7.77h0v.05Z"/>
      <path class="cls-36" d="M327.77,219.92c-.69-3.12-.35-6.28-.4-9.4-.59-26.67-.49-53.33-.54-80,0-1.78.49-2.23,2.18-2.23h67.78c1.83,0,2.37.59,2.33,2.42,0,12.42.1,24.79.1,37.21v51.95c-4.06,0-8.11,0-12.17.05-.94-2.33-.35-4.75-.4-7.12-.1-3.07,0-6.09,0-9.15-.05-3.36-.49-3.86-3.91-3.86-9.8-.05-19.59,0-29.39,0-4.35,0-8.71-.05-13.06,0-2.92.05-3.76.74-4.35,3.61-.59,3.12-.45,6.23-.1,9.4.25,2.37.74,4.75-.25,7.12h-7.82Z"/>
      <path class="cls-36" d="M456.86,153.57c0,17.37.05,34.78.1,52.15v14.15h-29.44c-1.04-1.04-.89-2.37-.89-3.66v-58.68c0-1.43-.2-3.02,1.29-4.01,9.7,0,19.35,0,29.04.05h-.1Z"/>
      <path class="cls-36" d="M302.34,219.87c-.64-29.54-.3-59.02-.64-88.56,0-2.28.54-3.12,2.92-3.02,5,.15,9.99.15,14.99,0,2.08,0,2.82.69,2.77,2.72-.1,2.47,0,5,.05,7.47.15,27.11.35,54.23.49,81.34h-20.58v.05Z"/>
      <path class="cls-36" d="M403.62,219.87c0-29.78,0-59.52-.05-89.3,0-1.68.45-2.28,2.13-2.23,5,.1,9.99.1,14.99,0,1.88,0,2.33.64,2.28,2.42-.1,5.64-.05,11.28-.1,16.92-.69,1.88-3.46,3.71-.3,5.74,1.24.89,1.29,2.18,1.29,3.51v59.52c0,1.29,0,2.62-1.29,3.46h-19l.05-.05Z"/>
      <path class="cls-50" d="M335.54,219.92c-.84-5.89-1.19-11.78-.45-17.66.3-2.28,1.63-3.46,4.21-3.46,14.89.05,29.78.05,44.73,0,2.47,0,3.56.89,3.51,3.41-.1,5,0,9.99,0,14.99,0,.89-.35,1.78-.49,2.72h-51.5Z"/>
      <path class="cls-11" d="M422.62,219.92c.1-.89.3-1.83.3-2.72v-61c0-.89-.2-1.83-.3-2.72,1.73,0,3.46.05,5.19.1-.15.59-.45,1.24-.45,1.83,0,21.52,0,43.04.05,64.52-1.58,0-3.22,0-4.8,0Z"/>
      <path class="cls-30" d="M427.86,143.93c-.79-.69-.84-1.58-.74-2.52.4-3.86.25-7.72.1-11.58,0-.84-.15-1.53.94-1.48,6.58.2,13.21-.49,19.74.4-6.68,5.05-13.41,10.09-20.09,15.14l.05.05Z"/>
    </g>
  </g>
</svg>