<?xml version="1.0" encoding="UTF-8"?>
<svg id="Layer_2" data-name="Layer 2" xmlns="http://www.w3.org/2000/svg" viewBox="0 0 584.25 675.49">
  <defs>
    <style>
      .cls-1 {
        fill: #efeee8;
      }

      .cls-1, .cls-2, .cls-3, .cls-4, .cls-5, .cls-6, .cls-7, .cls-8, .cls-9, .cls-10, .cls-11, .cls-12, .cls-13, .cls-14, .cls-15, .cls-16, .cls-17, .cls-18, .cls-19, .cls-20, .cls-21, .cls-22, .cls-23, .cls-24, .cls-25, .cls-26, .cls-27, .cls-28, .cls-29, .cls-30, .cls-31, .cls-32, .cls-33, .cls-34, .cls-35, .cls-36, .cls-37, .cls-38, .cls-39, .cls-40, .cls-41, .cls-42, .cls-43, .cls-44, .cls-45, .cls-46, .cls-47, .cls-48, .cls-49, .cls-50, .cls-51, .cls-52, .cls-53, .cls-54, .cls-55, .cls-56, .cls-57, .cls-58, .cls-59, .cls-60, .cls-61, .cls-62, .cls-63, .cls-64, .cls-65, .cls-66 {
        stroke-width: 0px;
      }

      .cls-2 {
        fill: #2e2a42;
      }

      .cls-3 {
        fill: #ecebe3;
      }

      .cls-4 {
        fill: #e0e4de;
      }

      .cls-5 {
        fill: #966959;
      }

      .cls-6 {
        fill: #cfecf3;
      }

      .cls-7 {
        fill: #874a31;
      }

      .cls-8 {
        fill: #bf835e;
      }

      .cls-9 {
        fill: #e7a377;
      }

      .cls-10 {
        fill: #e4c360;
      }

      .cls-11 {
        fill: #191f80;
      }

      .cls-12 {
        fill: #161d13;
      }

      .cls-13 {
        fill: #161f15;
      }

      .cls-14 {
        fill: #f3ede3;
      }

      .cls-15 {
        fill: #2e263f;
      }

      .cls-16 {
        fill: #936858;
      }

      .cls-17 {
        fill: #bfc9bf;
      }

      .cls-18 {
        fill: #e7a376;
      }

      .cls-19 {
        fill: #36243e;
      }

      .cls-20 {
        fill: #daa886;
      }

      .cls-21 {
        fill: #946758;
      }

      .cls-22 {
        fill: #e7a373;
      }

      .cls-23 {
        fill: #60955a;
      }

      .cls-24 {
        fill: #42373f;
      }

      .cls-25 {
        fill: #bb8261;
      }

      .cls-26 {
        fill: #874b30;
      }

      .cls-27 {
        fill: #52413f;
      }

      .cls-28 {
        fill: #61965b;
      }

      .cls-29 {
        fill: #1b2014;
      }

      .cls-30 {
        fill: #7ec2cb;
      }

      .cls-31 {
        fill: #fbf2b6;
      }

      .cls-32 {
        fill: #101d14;
      }

      .cls-33 {
        fill: #fdf2b6;
      }

      .cls-34 {
        fill: #dee1d9;
      }

      .cls-35 {
        fill: #eaebe2;
      }

      .cls-36 {
        fill: #966958;
      }

      .cls-37 {
        fill: #f0ede4;
      }

      .cls-38 {
        fill: #946a58;
      }

      .cls-39 {
        fill: #362a32;
      }

      .cls-40 {
        fill: #2a303e;
      }

      .cls-41 {
        fill: #efeee9;
      }

      .cls-42 {
        fill: #824734;
      }

      .cls-43 {
        fill: #4e3b39;
      }

      .cls-44 {
        fill: #b3bbb4;
      }

      .cls-45 {
        fill: #192011;
      }

      .cls-46 {
        fill: #111f15;
      }

      .cls-47 {
        fill: #eeede8;
      }

      .cls-48 {
        fill: #daa887;
      }

      .cls-49 {
        fill: #d1d8d0;
      }

      .cls-50 {
        fill: #eb5c63;
      }

      .cls-51 {
        fill: #cbebf0;
      }

      .cls-52 {
        fill: #e1caa7;
      }

      .cls-53 {
        fill: #191f81;
      }

      .cls-54 {
        fill: #e0e3dc;
      }

      .cls-55 {
        fill: #fbf3b7;
      }

      .cls-56 {
        fill: #362a1b;
      }

      .cls-57 {
        fill: #a4afa6;
      }

      .cls-58 {
        fill: #f0cf55;
      }

      .cls-59 {
        fill: #efbd69;
      }

      .cls-60 {
        fill: #864c34;
      }

      .cls-61 {
        fill: #edece5;
      }

      .cls-62 {
        fill: #e2e8df;
      }

      .cls-63 {
        fill: #43393e;
      }

      .cls-64 {
        fill: #252211;
      }

      .cls-65 {
        fill: #7dbfca;
      }

      .cls-66 {
        fill: #363442;
      }
    </style>
  </defs>
  <g id="illustrazioni">
    <g>
      <path class="cls-59" d="M142.12,555.36c-3.63-1.61-6.95-3.85-9.93-6.36-2.48-2.11-5.12-4.1-7.73-5.96-1.74-1.24-2.92-2.92-4.69-4.13-4.69-3.2-8.72-7.23-12.85-11.14-6.58-6.21-12.69-12.81-18.77-19.52-4.96-5.43-9.22-11.36-13.68-17.13-3.82-4.93-7.32-10.33-9.9-16.01-2.17-4.81-4.06-9.84-5.59-15.02-1.74-5.93-1.3-12.32-4.38-17.9-.34-.65-.09-1.58-.19-2.39-.47-3.72.96-7.6-1.09-11.2-.22-.37.12-1.21.43-1.64.65-.9.71-1.89.59-2.89-.65-5.43,1.8-10.55,1.43-16.01-.16-2.23,1.86-4.22,2.61-6.52.56-1.68.78-3.26.87-4.93.25-4.65,1.83-9.18,1.18-13.9-.47-3.2-.81-6.45-2.27-9.34-1.55-3.07-1.15-6.61-2.58-9.65-1.4-2.92-1.83-6.17-2.82-9.22-1.09-3.41-3.1-6.58-3.23-10.3-.06-2.17-1.86-3.66-2.73-5.4-2.45-4.96-4.34-10.36-7.97-14.65-1.86-2.17-1.86-4.9-3.01-7.26-1.86-3.85-4.5-7.07-6.42-10.8-2.14-4.16-4.25-8.32-6.98-12.19-2.17-3.1-2.85-7.23-4.41-10.83-2.89-6.64-4.78-13.62-7.35-20.35-1.46-3.79-2.48-7.66-3.91-11.42-1.12-2.95-.68-5.96-1.77-8.94-2.02-5.55-1.8-11.67-2.79-17.47-1.49-8.63.16-17.31-1.24-25.72-1.58-9.56-.47-19.02-.93-28.48-.28-5.37.9-10.7,1.46-15.98.74-6.95,1.95-13.93,4.19-20.76,1.68-5.18,3.23-10.55,5.52-15.36,2.79-5.8,5.62-11.88,9.65-16.91,3.04-3.82,5.37-8.22,9.43-11.39,2.64-2.05,4.38-5.4,7.11-7.57,2.14-1.71,4.03-3.69,6.33-5.27,1.33-.9,2.39-2.39,3.82-3.38,4.53-3.1,8.01-7.54,12.47-10.58,5.27-3.6,9.62-8.32,15.23-11.39,2.76-1.49,4.75-4.16,7.48-5.86,4.06-2.54,8.28-4.87,12.32-7.48,2.79-1.8,5.93-2.98,8.38-5.43.96-.96,2.95-1.71,4.34-2.08,4.78-1.3,8.84-4.13,13.4-5.93,3.6-1.4,7.45-2.23,11.05-3.79,3.94-1.71,7.97-3.75,12.47-4.56,2.23-.4,4.78-.62,7.01-1.92,1.92-1.12,4.16-1.92,6.61-1.55.99.16,1.89-.06,2.79-.78,2.85-2.3,6.61-1.55,9.87-2.7,5.43-1.95,11.14-2.98,16.91-3.97,6.45-1.12,12.78-2.45,19.36-2.23,1.8.06,3.57-.84,5.03-1.43,2.79-1.12,5.49-.71,8.22-.96,30.28-2.61,60.66-.87,90.98-.96,6.05,0,12.35.31,18.4,1.15,7.35.99,14.68,2.33,22.12,2.2,1.58,0,2.54.99,3.91,1.3,5,1.09,10.05,1.74,15.05,2.67,4.62.87,9.18.19,13.62.99,5.52.99,11.23.31,16.6,1.4,4.72.96,9.31.68,13.96.87,4.59.19,9,1.05,13.4,2.27.47.12.99.19,1.49.16,4.22-.22,8.13.93,12.16,2.14,3.41,1.05,7.17,1.49,10.46,2.85,3.91,1.64,8.04,2.39,11.95,4,4.47,1.83,8.87,4,13.53,5.4,2.3.68,4.22,2.05,6.45,2.89,6.55,2.39,12.54,6.11,18.68,9.37,4.65,2.45,9.31,4.96,13.84,7.57,5.99,3.48,11.88,7.26,17.16,11.95,3.82,3.41,6.83,7.63,10.86,10.77,4.81,3.75,7.76,9.09,11.76,13.5,2.33,2.54,3.35,6.27,5.43,9.12,2.89,3.91,4.59,8.44,6.64,12.69,2.51,5.21,5.15,10.46,6.64,16.17,1.27,4.9,2.64,9.77,4.38,14.55.81,2.2.99,4.81,1.74,7.14,1.15,3.69.47,7.7,2.11,11.26.31.68.22,1.58.22,2.39,0,3.72-.28,7.48.09,11.17.56,5.65-.84,11.14-1.58,16.57-.59,4.31-2.2,8.78-2.85,13.06-.68,4.53-2.42,8.66-3.16,13.13-.65,3.88-1.3,8.19-3.94,11.54-1.3,1.68-.74,3.75-1.52,5.65-1.95,4.75-4.03,9.46-5.96,14.21-1.92,4.72-4.87,8.72-7.11,13.13-3.32,6.58-7.11,12.94-10.02,19.67-2.73,6.3-5.46,12.69-7.04,19.33-.87,3.72-3.04,7.04-3.01,11.11,0,2.51-1.95,4.84-2.76,7.38-.71,2.23-1.05,4.53-1.77,6.76-1.95,6.21-2.36,12.85-4.81,18.96-.09.28-.09.59-.12.9-1.49,13.78-1.95,27.65-.96,41.39.4,5.83-.22,11.91,1.18,17.5,1.61,6.45,1.99,13.09,4.06,19.52,1.12,3.48,2.36,7.23,3.23,10.95.81,3.41,2.11,6.89,2.89,10.36.53,2.39,1.15,4.84,1.83,7.11,1.33,4.31.59,8.81,1.92,13.16.96,3.13.28,6.8.31,10.21.09,5.06-1.02,9.9-2.02,14.86-1.68,8.16-6.52,14.43-10.36,21.29-1.77,3.13-5.03,5.37-7.54,8.1-3.04,3.29-5.74,6.98-9.09,9.84-4.69,4-9.28,8.19-13.78,12.32-3.48,3.2-7.88,5.03-11.08,8.69-1.12,1.3-3.94,2.3-5.77,3.69-3.01,2.27-6.27,4.28-9.53,5.9-4.87,2.45-9.46,5.31-14.18,7.97-3.44,1.92-7.11,3.13-10.61,4.81-1.24.59-.81,1.74-.81,2.67-.06,7.26-.06,14.52-.09,21.75,0,1.05.37,2.23-.43,3.2-1.21-.96-1.05-2.36-1.02-3.63.19-9.06-.5-18.12.47-27.15.31-2.82-.53-5.59-.53-8.41.12-13.78,1.27-27.52,1.64-41.27.28-10.95,2.02-21.84,1.46-32.83-.28-5.65-.9-11.23-2.23-16.72-.5-2.05-1.12-4.13-2.23-5.93-5.74-9.25-8.32-19.58-10.27-30.1-1.71-9.22-2.73-18.49-2.82-27.89,0-1.21-.06-2.42.31-3.6,1.15-1.74,2.61-1.61,3.6-.06,2.2,3.51,5.74,6.24,6.42,10.67.06.4.28.78.62.99,3.26,1.99,4.44,5.49,6.36,8.47,1.09,1.68,2.85,2.85,3.48,4.84.9,2.7,1.95,5.37,3.57,7.66,3.85,5.46,3.94,11.54,3.23,17.69-.59,5.31-.62,10.64-.9,15.98-.37,8.04-1.09,16.07-1.4,24.11-.06,1.68-.71,3.13-1.43,4.59-2.36,4.75-3.85,9.74-4.16,15.05-.09,1.33-.28,2.7.25,3.88,1.77,3.91,2.2,8.1,2.98,12.23.65,3.38,2.51,6.14,5.68,7.82,4.59,2.42,9.77.4,11.6-4.44,3.1-8.13,3.75-16.63,3.91-25.23.03-2.05-.68-3.97-1.37-5.86-1.15-3.13-1.12-6.24-.5-9.49,2.7-14.46,5-28.98,7.76-43.44.53-2.7.19-5.4-.87-8.01-3.57-8.78-6.83-17.66-10.12-26.56-.56-1.52-1.49-2.58-2.85-3.35-.62-.59-.28-1.12.19-1.52,3.63-3.2,4.62-6.24,1.71-10.92-2.3-3.66-4.47-7.54-6.3-11.54-1.21-2.67-3.75-4.59-4.19-7.85-.22-1.68-2.48-2.39-3.44-4.03-2.23-3.79-4.93-7.26-7.66-10.7-1.99-2.51-4.1-3.63-7.17-2.92-1.77-.31-3.54-.37-5.31-.71-3.1-.65-5.83.16-8.19,2.27-1.99-.47-3.88-1.12-5.65-2.14-.78-.84-1.99-.59-2.89-1.15-1.89-4.16-5.62-5.71-9.71-6.7-.99-3.32-.25-6.76-.65-10.15-.12-1.02.78-1.8,1.43-2.54,2.64-3.04,5.15-6.14,6.45-10.05.43-1.3,1.33-1.83,2.76-1.83,4.19,0,6.14-1.4,7.38-5.06,1.58-4.62.84-8.19-2.27-10.64-1.02-.81-2.27-1.4-2.17-2.98.06-1.68,1.24-2.67,2.39-3.66,2.95-2.64,4.28-5.8,3.16-9.71-.34-1.27-.19-2.36.56-3.41.9-1.24,1.49-2.64,1.92-4.06.37-1.77,1.05-3.23,2.98-3.82,1.95-.59,2.45-2.2,2.58-4.03,1.37-18.56,3.1-37.08,4.81-55.6.16-1.52,0-3.01.12-4.53.09-1.43.19-2.85,1.64-3.69,1.52-.65,3.16-.47,4.75-.5,8.53-.22,17.07.43,25.6-.4,1.12-.09,2.23,0,3.04.93,1.21,4.87.62,9.77.37,14.68-.06,1.4-.37,2.79-.34,4.22.4,12.97-.84,25.91-.62,38.88,0,1.52-.16,3.01-.37,4.5-.19,1.3-.31,2.61,0,3.91.31,1.43.93,2.82,2.54,3.01,1.77.22,2.42-1.27,2.82-2.61,1.02-3.29,1.21-6.73,1.55-10.12,1.27-11.79,2.64-23.58,3.97-35.37.78-6.98,1.3-14.02,2.27-20.98.4-.68,1.05-1.02,1.74-1.02,5.8-.06,11.57-1.21,17.41-.65.5.06.99.22,1.43.47.9.68.9,1.74,1.05,2.73,3.01,20.6,6.55,41.14,9.68,61.72.09.59.16,1.21.4,1.77.81,1.92,2.33,2.82,4.34,2.42,1.89-.4,2.51-1.95,2.27-3.72-1.02-7.29-1.15-14.65-1.8-21.94-.99-11.11-2.11-22.22-2.7-33.36-.16-3.1-1.15-6.14-.47-9.28,3.54-1.02,4.38-3.66,4.87-7.04,2.33-16.04,4.84-32.05,7.35-48.03.84-5.37,1.86-10.7,2.39-16.13.53-5.74-2.95-9.9-8.66-10.05-8.53-.25-17.1.06-25.63-.62-3.82-.31-7.38.9-10.27,3.57-2.05,1.92-3.23,4.28-3.51,7.14-1.33,13.22-3.85,26.28-5.65,39.44-.43,3.16-1.83,4.13-5.59,4.16-8.35.06-16.76.5-25.04-.06-15.92-1.09-26.09,16.88-21.22,29.1.84,2.02.87,4.16.68,6.27-1.18,13.87-.37,27.77-.53,41.67-.03,3.63-.56,7.23-.47,10.86,0,1.12-.28,2.2-1.43,2.82-2.98-1.3-3.69-2.58-3.13-5.55.09-.5.25-.96.34-1.46.74-4.1-1.49-6.92-5.59-6.52-2.92.28-5.59,0-8.22-1.18-.37-.16-.78-.34-1.15-.31-4.41.37-8.25-2.08-12.5-2.39-3.41-.25-5.93-3.29-5.93-6.76v-76.02c0-.99-.06-2.02.34-2.98.65-1.18,1.89-1.37,3.04-1.68,2.98-.78,5.83-2.08,8.84-2.67,2.02-.37,2.79-2.08,4.13-3.16,5.68-.99,11.42-.78,17.13-.99,7.14-.25,14.3-.09,21.44-.06,2.82,0,5.24-.62,6.58-3.32,1.52-3.04,1.77-6.21-.12-9.22-1.18-1.92-2.98-2.82-5.34-2.79-33.51.59-67.02.12-100.53.25-1.12,0-2.23,0-3.26-.5-.93-2.08.96-1.71,1.8-1.8,2.79-.28,5.62-.06,8.44-.12,2.2-.06,4.41.25,6.86-.28-1.02-2.05-2.98-2.61-4.59-3.23-4.25-1.61-5.93-4.47-5.34-8.91.16-1.09.09-2.23,0-3.32-.28-3.23.65-5.4,3.88-6.98,3.54-1.74,5.52-5.24,6.7-8.97,2.2-6.95,1.92-14.15,1.18-21.25-.53-5.27-1.55-10.52-3.23-15.61-.65-1.92-1.52-2.92-3.57-2.92h-12.38c-2.08,0-3.38,1.02-4,3.01-3.72,12.1-5.43,24.36-2.36,36.83,1.27,5.15,4.16,9.18,9.56,10.77,2.11.62,2.89,1.92,2.89,4,0,2.33,0,4.62.31,6.92.34,2.54-.87,4.31-3.16,5.24-1.71.68-3.2,1.68-4.78,2.58-1.33.78-2.79,1.46-.28,2.67.71.34.62.93-.06,1.37-1.15.53-2.36.47-3.57.5h-42.79c-1.12,0-2.2,0-3.26-.4-1.09-3.57-4.22-5-7.11-6.58-1.99-1.09-2.95-2.61-2.89-4.87.06-2.7,0-5.43.03-8.16.06-1.8.81-3.16,2.61-3.63,7.04-1.89,8.75-7.66,9.34-13.71.87-8.72.56-17.44-1.09-26.09-.03-.19,0-.4-.09-.59-2.64-9.09-1.37-9.12-9.65-8.1-2.48.31-5.06.28-7.54-.06-2.54-.37-3.69.84-4.41,3.04-1.64,5.09-2.7,10.36-3.07,15.64-.5,6.89-.78,13.9,1.92,20.57,1.74,4.25,3.94,7.97,8.97,8.91,1.55.28,2.08,1.43,2.17,2.85.31,3.85-.53,7.6-.78,11.42-.09,1.46-1.3,2.17-2.54,2.73-3.38,1.55-6.67,3.23-8.72,6.58-1.74.68-3.57.47-5.37.47h-116.51c-7.38,0-9.09,1.86-8.53,9.18.34,4.31,2.45,6.39,6.73,6.39,11.76.06,23.55,0,35.31.03,1.77,0,3.72-.31,4.78,1.77.53,1.64,1.8,2.3,3.35,2.7,3.32.84,6.58,1.83,9.87,2.79,2.23.65,3.35,2.05,3.32,4.41-.22,11.57.37,23.12-.4,34.69-.59,8.53.03,17.1-.22,25.66-.12,4.47-.06,9.03-1.27,13.44-1.8.68-3.35,1.68-4.75,3.04-2.67,2.64-6.11,2.51-9.4,2.02-7.32-1.12-14.49.03-21.6,1.21-8.16,1.37-14.68,5.86-18.9,13.22-.4.68-.78,1.43-1.58,1.77-.96.28-1.24-.4-1.49-1.09-.34-.96-.34-1.99-.31-2.98.4-10.55-.53-21.1-.78-31.62-.19-7.14-.31-14.24-.53-21.38,2.82-4.41,2.14-8.97.68-13.62-1.64-5.21-4.87-9.22-9.15-12.44-1.83-1.4-3.94-1.86-6.24-1.83-10.08.03-20.14.03-30.22,0-4.96,0-5.68-.74-6.39-5.55-1.89-12.85-3.91-25.69-5.65-38.54-.71-5.43-7.51-11.05-12.75-10.92-6.95.12-13.9.03-20.85,0-1.4,0-2.82,0-4.22-.12-6.95-.5-11.26,4.16-10.02,11.2,1.58,9.22,3.23,18.46,4.81,27.68,2.2,12.91,4.34,25.82,6.58,38.69.4,2.27,1.21,4,3.32,4.96,1.12,1.99.81,4.13.56,6.21-2.2,18.87-4.03,37.79-6.17,56.66-.09.9-.28,1.8-.06,2.7.34,1.46,1.12,2.64,2.7,2.92,1.49.25,2.45-.65,3.23-1.77.65-.93.9-2.02,1.02-3.13,1.64-14.71,5-29.14,7.2-43.78,1.02-6.76,2.61-13.4,3.38-20.23.56-.65,1.37-.9,2.17-.9,5.71,0,11.42-.47,17.1.25,1.8.84,1.77,2.61,1.95,4.13,1.15,9.77,2.27,19.58,3.38,29.35,1.09,9.68,2.08,19.39,3.29,29.07.22,1.8.53,3.6,2.08,4.87,1.83,1.49,3.35,1.15,4.19-1.09.65-1.74.74-3.54.59-5.37-.62-8.63-.84-17.25-1.18-25.88-.37-9.43-.78-18.87-1.58-28.27-.19-1.99-.43-4,.4-5.96.65-.93,1.64-1.15,2.67-1.15,10.02-.19,20.01.03,30.04-.22,1.55.71,1.64,2.14,1.77,3.54,2.05,19.49,4.59,38.91,6.86,58.36.31,2.61,1.18,5.06,1.89,7.57,0,.71-.22,1.4-.68,1.95-5.71,7.23-4.9,15.02-2.17,23.05,1.27,3.79,3.97,6.98,4.62,11.02-.34,1.55-1.71,1.83-2.92,2.27-9.4,3.35-8.94,12.29-4,18.31,3.69,4.53,8.47,7.48,14.83,5.31,1.64-.56,2.82.31,3.26,1.83,1.74,6.3,6.11,10.7,10.58,15.08.96.93,2.64,1.71,1.8,3.63-.62.4-1.33.5-2.02.53-2.3.09-3.38,1.3-3.63,3.57-.37,3.38-.71,3.75-4.16,3.66-5.27-.16-10.58.53-15.89-.93-2.42-.65-5.74-1.49-7.26,2.17-6.11,3.48-7.82,10.24-11.45,15.51-5.77,8.38-9.87,17.62-12.57,27.46-1.3,4.84.43,7.79,5.43,8.56.81.12,1.61.16,2.27.68.87,1.18.4,2.48.34,3.79-.4,7.32-.84,14.68,1.92,21.72,1.95,5,4.9,9.18,9.56,12.04,2.08,1.27,4.34,2.05,6.8,2.3,1.15.09,2.48-.22,3.16,1.15-1.95,2.02-2.27,4.47-2.3,7.2-.06,15.11.34,30.22-.19,45.33-.06,1.89.28,3.82.25,5.74-.06,2.11,1.05,2.76,3.01,2.79,2.14.03,3.85-1.61,5.99-1.33,1.3,3.2.78,6.55.53,9.8-.43,5.99-.68,11.98-1.09,17.97-.09,1.27.43,2.92-1.46,3.51l-.03.12Z"/>
      <path class="cls-59" d="M365.09,591.57c-.96-.99-.19-2.36-.74-3.51-1.4,1.99-3.91,1.71-5.71,2.08-3.72.74-7.48,1.61-11.42,1.68-5.65.12-11.39.65-16.94,2.08-1.71.43-3.6.16-5.43.16-5.83,0-11.79-.65-17.5.19-14.8,2.2-29.63.62-44.43.93-5.71.12-11.48-.84-17.19-1.37-5.21-.5-10.33-2.11-15.73-2.36-2.23-.09-4.65-1.33-6.58-2.89-.31.59-.59,1.21-.9,1.8-1.27-1.18-.65-2.61-.53-3.97,1.21-12.41,3.51-24.67,5.21-37.02,1.33-9.65,2.33-19.33,2.85-29.07,1.46-4.5,1.92-9.18,2.33-13.87.37-3.88-.56-7.85.93-11.67.06-.19.09-.4.06-.59-.68-9,.74-18,.31-26.99-.12-2.79-1.64-5.18-1.74-7.91.9-.96,2.02-.65,3.13-.53,5.62.59,11.2,1.18,16.79,1.86,2.02.25,4,.09,6.02-.25,4.16-.71,6.58-3.23,7.57-7.2,1.33-5.31,1.33-10.67-.28-15.82-1.61-5.12-2.76-10.3-3.66-15.55-.47-2.79-1.24-5.49-2.02-8.19.16-1.46.71-2.79,1.83-3.69,1.37-1.09,1.27-2.11.4-3.38-2.48-3.63-4.96-7.23-7.97-10.49-3.54-3.85-6.55-8.13-9.8-12.19-3.6-4.44-8.1-7.76-12.72-10.95-.68-.47-1.52-.53-2.33-.53-5.74,0-11.48-.16-17.19.09-3.41.16-4.69-.22-5.27-3.51-.59-3.29-2.3-5.4-4.75-7.23.22-1.68,1.61-2.2,2.82-2.85,8.84-4.69,10.89-9.12,8.78-19.05-.81-3.72-2.45-7.38-2.23-11.23.16-3.01-.19-5.8-.99-8.63-.25-.87-.5-1.74-.99-2.51-2.82-4.65-3.04-9.71-2.36-14.92.68-5.27,2.23-10.46,1.83-15.86-.16-1.86,1.21-2.33,2.79-2.42,2.2-.12,4.44.22,6.61-.5,6.39-.22,12.78-.65,19.7-1.09-1.24-1.12-2.39-1.09-3.35-1.33-7.29-2.08-10.83-6.61-10.98-13.96-.65-30-.65-60.01-.59-90.01,0-6.08.09-6.17,5.71-8.32,1.99-.74,3.97-1.46,6.02-1.99,1.99-.5,3.51-1.46,4.16-3.51,1.12-1.12,2.58-1.02,3.97-1.02h108.32c1.21,0,2.42,0,3.54.56,1.12,2.51,3.2,3.54,5.77,4.1,2.45.53,4.84,1.37,7.29,1.95,2.61.65,3.35,2.39,3.35,4.93-.03,28.17-.03,56.35,0,84.49,0,2.51-.81,4.13-3.16,5.21-2.33,1.09-4.1,3.2-6.61,4.1-1.37.5-1.58,2.02-1.64,3.35-.06,2.02-.9,3.63-2.27,5.09-3.07,3.23-3.54,6.95-1.55,10.83,1.15,2.23,1.58,4.5,1.4,6.98-.22,2.92.87,5.06,3.85,6.08,1.68.56,3.01,1.64,3.63,3.38.47,1.89,0,3.29-1.95,4.16-5.31,2.42-4.65,12.32,0,15.27.59.37,1.24.84,1.95.74,3.04-.53,4.13,1.4,5.34,3.72,2.67,5.15,6.83,8.91,12.07,11.39,1.46.68,3.04,1.24,3.35,3.16.06.34.09.65.09.99-.06,2.92.43,5.86-.37,8.75-.09.19-.19.43-.34.47-4.53.74-5.8,4.72-7.79,7.94-.65,1.05-1.02,2.27-2.64,1.83-1.15-1.49-2.45-1.64-4.22-.87-4.47,1.89-8.44,4.62-12.47,7.26-.74.5-1.46,1.09-2.23,1.52-2.39,1.3-3.32.81-3.54-1.83-.12-1.4,0-2.82-.09-4.22-.16-2.54-1.15-4.65-3.13-6.27-.93-.74-1.95-1.12-3.04-.4-1.18.78-.93,1.86-.47,2.95.25.56.53,1.09.74,1.64,1.15,2.73,1.15,5.4-.25,8.13-1.89,3.63-2.64,7.54-2.14,11.67.16,1.24.59,2.64-1.02,3.38-1.15-1.49-2.51-2.27-4.41-1.3-4.41,2.2-9.37,3.01-13.68,5.46-.43.25-.93.34-1.37.62-2.39,1.49-2.39,2.33-.06,4,.34,1.37-.9,1.37-1.58,1.71-6.42,3.26-12.01,7.66-16.88,12.91-2.27,2.42-2.39,4.38-.28,6.95,1.15,1.4,1.58,2.79,1.68,4.62.34,6.11,5.24,9.03,10.7,6.42,1.3-.62,2.79-.4,4.03-1.09,6.05-2.3,12.19-4.28,18.37-6.17.68-.22,1.37-.34,2.05-.09,1.71.59,1.77,3.54,4.47,2.82,1.83-.5,3.75-.5,5.27-1.86.78-.68,1.83-.74,2.82-.84,1.95-.16,4,.03,5.62-1.52.65-.62.99.19,1.27.71.81,4.19.37,8.44.59,12.63.65,12.63.4,25.32.47,37.95.03,6.02.56,12.04.74,18.06.06,1.89.31,3.79.34,5.71.25,15.67,1.21,31.34,1.64,47.01.34,12.16,1.55,24.3,1.33,36.46-.06,3.75.65,7.42.62,11.14,0,1.46.28,3.07-1.02,4.25v.06Z"/>
      <path class="cls-15" d="M365.09,591.57c-.25-8.35-.43-16.66-.74-25.01-.53-13.47-1.15-26.93-1.71-40.4-.71-17.59-1.55-35.16-2.05-52.75-.37-12.94-.19-25.91-.4-38.88-.09-5.62-.56-11.23-.84-16.85-.93-5.49-.74-11.02-.12-16.51.34-2.95,3.04-4.9,4.44-7.45,1.86-2.76,4.22-5.06,6.89-7.04,1.55-1.15,3.01-2.36,4.22-3.88.31-.4.68-.87.4-1.37-.37-.65-1.05-.43-1.61-.22-1.24.47-2.27,1.27-3.41,1.92-1.02.59-2.2,1.61-3.2.34-.93-1.18.12-2.3.9-3.2,1.46-1.68,3.01-3.23,4.78-4.59.68-.53,1.49-1.02,1.49-2.05-1.09-.74-1.77.09-2.51.5-1.05.56-2.08,1.24-3.07,1.89-.84.56-1.95,1.27-2.64.19-.62-.99.43-1.92,1.27-2.39,3.2-1.74,6.14-3.82,8.75-6.36,2.92-1.68,4.78.84,7.07,1.74,1.21.56,2.3,1.21,2.54,2.7-.65,5.4-2.33,10.58-3.69,15.82-1.09,4.1-2.14,8.16-3.13,12.29-.81,3.26-.37,3.79,2.89,3.88,9.65.25,19.3-.19,28.92-.62,1.8-.09,3.16-.53,2.98-2.79-.93-12.44,3.07-23.8,8.1-34.84,1.43-3.13,2.64-6.58,5.9-8.5,1.4-2.39,3.32-3.51,6.17-2.98,2.48.47,5.15-.5,7.51.96-2.27,5.59-4.1,11.26-5.31,17.19-1.33,6.7-2.42,13.4-2.23,20.29.03,1.46.34,3.04-.78,4.31-.16,19.08,1.21,38.29,9.84,55.42,7.82,15.48,8.19,31.09,7.04,47.5-1.12,15.86-2.17,31.77-2.27,47.66s-.31,31.77-.06,47.66c-.12,9.84-.25,19.7-.4,29.54-.12,8.53-.25,17.1-.31,25.63,0,1.71-.19,3.2-1.86,4.13-4.87,1.3-9.74,1.43-14.71.47-2.42-.47-4.96-.06-7.45-.12-1.09-.03-2.2.31-3.23-.31-.71-.96-.68-2.11-.68-3.16.06-14.12-2.92-27.93-4.44-41.89-1.09-9.96-2.64-19.89-4-29.82-1.3-1.71-1.18-3.79-1.43-5.77-1.8-13.96-3.54-27.96-5.37-41.92-.16-1.12.06-2.45-1.55-3.38-.47,3.32-.9,6.45-.96,9.65-.25,11.54-.84,23.09-1.71,34.63-.16,1.92-.06,3.82-.09,5.74,0,1.21,0,2.42-.87,3.44-.65,12.26-1.3,24.51-1.92,36.77-.43,8.53-.84,17.1-1.24,25.63-.06,1.09,0,2.2,0,3.32-.43,1.18-.28,2.39-.19,3.57.19,2.36-1.09,3.57-3.1,3.48-4.16-.19-8.16.71-12.19,1.24-3.6.5-7.14-.87-10.74-.62-1.61.12-1.74-1.24-1.8-2.54-.12-3.51.34-7.01-.25-10.49-.43-12.23-.84-24.45-1.3-36.64-.19-4.72-.43-9.4-.65-14.12l.12-.03Z"/>
      <path class="cls-32" d="M230.4,520.3c.5.71,1.02,1.21.93,2.36-1.99,20.48-5.62,40.74-8.01,61.16-.25,2.17-.5,4.38-.74,6.55-2.23,16.2-4.1,32.42-5.49,48.71-.25,2.76,1.49,4.75,2.89,6.76,1.21,1.77.93,2.85-.68,3.91-3.72,2.27-8.1,2.54-12.13,2.98-4.19.43-8.28,1.37-12.47,1.71-.9.06-1.77.53-2.48-.4-1.27-.74-2.51-1.61-1.8-3.29,1.89-4.56,1.05-9.34.99-13.99-.28-17.78-.71-35.56-1.12-53.34-.03-1.71-.25-3.41-.4-5.09-.96-1.3-.9-2.82-.93-4.34-.16-7.23-.28-14.46-.37-21.69-.12-8.19.4-16.45.4-22.87-2.23,12.6-5.06,26.93-7.45,41.39-.22,1.37-.37,2.82-1.4,3.91-2.61,12.57-5.18,25.13-7.82,37.7-2.3,11.02-4.59,22-6.33,33.14-.22,1.4-.47,2.76-.25,4.19.62,1.99-.62,2.92-2.17,3.23-5.4,1.12-10.67,3.54-16.38,1.49-1.77-.65-3.79-.25-5.68-.16-1.09.06-2.23.31-3.01-.84,1.86-15.98.9-32.08,1.4-48.13.5-16.2.93-32.36,2.23-48.5.03-.5,0-.99,0-1.49,1.05-10.46,1.83-20.91,1.77-31.43.71-1.64,2.33-1.8,3.75-2.14,13.96-3.41,28.11-5.68,42.48-6.73,11.2-.84,22.28-.74,33.26,1.71,2.58.59,5.43.87,7.01,3.54h0Z"/>
      <path class="cls-11" d="M138.52,653.48c.65.19,1.3.19,2.02.16,2.95-.19,5.86-.81,8.81.59,1.3.62,3.48.68,4.69,0,2.95-1.61,6.3-.22,9.25-1.95,1.21-.71,2.11-1.21,2.45-2.54,5.59,6.8,12.75,11.23,21.1,13.81.96.31,1.95.71,1.99,1.95,0,1.21-.53,2.05-1.55,2.73-2.2,1.52-4.72,1.64-7.23,1.86-12.32.99-24.64,1.95-36.68,5.15-4.38,1.18-7.85-1.71-8.04-6.48-.16-4.1,1.43-7.88,2.85-11.64.5-1.27.93-2.39.25-3.66l.09.03Z"/>
      <path class="cls-53" d="M192.2,654.03c5.03-.68,9.96-1.74,15.02-2.2,2.82-.25,6.02-.4,8.81-1.77.9-.43,2.14-.22,3.23-.31,1.3,2.82,3.32,4.96,6.14,6.24,3.57,1.61,7.2,3.1,10.77,4.72,1.18.53,2.39,1.12,3.38,1.95,2.23,1.86,1.99,3.88-.56,5.21-2.11,1.12-4.38,1.43-6.73,1.27-11.2-.87-22.28-.34-33.14,2.95-5.31,1.61-8.19-.71-8.87-6.24-.53-4.16,1.15-7.88,1.89-11.79l.06-.03Z"/>
      <path class="cls-33" d="M398.48,581.99c.25-6.73.4-13.44.71-20.17.5-10.83,1.09-21.66,1.64-32.52.06-1.09-.19-2.27,1.55-2.3,1.61-.06,1.74.93,1.89,2.11,2.11,16.63,4.19,33.29,6.3,49.92,0,.19-.06.4-.09.59-3.79,1.92-7.82,2.54-12.01,2.36h0Z"/>
      <path class="cls-2" d="M386.94,661.85c2.3.9,3.66,4.47,2.98,8.13-.5,2.7-2.7,2.27-4.56,2.3-8.44,0-16.91-.06-25.35,0-2.64,0-3.88-.78-3.85-3.63.09-4.53.09-4.69,3.63-4.9,1.71-.09,3.41-.19,4.84-1.3,1.89-2.45,7.79-3.26,10.18-1.18,2.92,2.54,5.9,2.73,9.06.68,1.02-.65,2.02-.84,3.04-.12l.03.03Z"/>
      <path class="cls-19" d="M448.59,661.26c.19,2.51,1.71,3.35,4.03,3.16.59-.06,1.18.12,1.8.16,4.62.28,6.36,3.35,4.34,7.57-.53,1.09-1.37,1.09-2.23,1.12-8.32.16-16.63.25-24.95.37-1.99,0-2.98-1.09-3.01-2.98,0-2.11.09-4.22.12-6.3.84-1.74,2.2-2.14,3.97-1.64,3.23.93,6.3.34,9.25-1.09,2.14-1.05,4.41-.93,6.64-.31l.03-.06Z"/>
      <path class="cls-31" d="M180.16,574.69c1.68-9.99,3.23-20.01,5.06-29.97,1.27-7.01,2.76-13.96,3.66-21.07h.96v54.64c-3.29-1.05-6.24-3.01-9.71-3.6h.03Z"/>
      <path class="cls-47" d="M448.59,661.26c-2.39-.37-4.44-.34-6.7,1.33-2.45,1.8-5.86,1.95-8.94.93-1.71-.56-3.07-.84-4.25.78,1.71-2.33.9-5.03,1.24-7.54.19-1.49-.4-1.55-1.58-1.64-2.92-.25-5.93.84-8.78-.62h25.38c-.22,1.09-2.14.22-1.89,1.33.34,1.52,0,2.92.06,4.38,0,.62,1.02.25,1.55.34,1.3.25,2.82-.65,3.91.74v-.03Z"/>
      <path class="cls-35" d="M386.94,661.85c-.87.03-1.68,0-2.51.62-3.69,2.82-7.42,2.36-10.36-1.12-.31-.34-.78-.87-1.15-.84-2.85.25-6.02-.81-8.28,1.95.09-1.77,1.15-2.45,2.79-2.48,1.4-.03,2.82-.16,4.22-.03,2.3.19,1.89-1.43,2.08-2.79.34-2.2-1.33-1.3-2.14-1.33-4.59-.16-4.59-.12-4.62-4.75,0-2.92.06-5.83.06-8.75.87,3.35.4,6.8.53,10.18.06,2.08.74,2.92,2.85,2.79,7.14-.34,14.27-.62,21.41-.9,2.11-.09,3.13-1.02,3.1-3.2,0-1.18.25-2.39.4-3.57.06.5.12.99.16,1.49.09,5.65-.19,5.9-5.86,6.02-1.43.03-3.63-.81-4.13.65-.68,1.95-.37,4.31,1.46,5.99v.06Z"/>
      <path class="cls-41" d="M201.88,361.84c2.85.65,4.84,1.95,4.96,5.31.12,3.6,1.55,4.53,5.18,4.44,6.02-.12,12.07-.06,18.09,0,2.51,0,3.79,2.3,5.65,3.44,2.89,1.77,6.02,3.79,7.82,6.52,2.45,3.69,5.68,6.7,8.01,10.46,1.15,1.86,2.76,3.35,4.31,4.93,3.07,3.16,5.27,7.01,7.6,10.7.47.74.59,2.27-1.05,2.61-1.71.34-1.12,2.48-2.42,3.13-2.54,2.45-5.24,4.65-7.73,7.17-.65.65-1.55,1.37-2.39.99-4.06-1.74-7.38.74-10.52,2.27-9.46,4.56-19.52,6.83-29.66,8.87-1.68.34-3.35.65-5.03.99-3.13.65-6.21.56-9.09-1.02-9.34-5.12-19.3-8.97-28.73-13.93-1.52-.81-3.1-1.43-4.87-1.52-2.82-.16-4.81,1.05-5.96,3.66-.37.84-.74,1.64-1.12,2.48-.96,2.17-2.54,2.98-4.87,2.33-7.76-2.11-15.73-1.92-23.64-1.89-3.6,0-7.23,0-10.83-.19-2.76.16-5.24-.12-7.38-2.42-2.05-2.17-1.86-4.28-1.27-6.86,1.27-5.59,3.75-10.74,5.8-16.04,1.05-2.7,2.64-5.46,4.34-7.91,4.03-5.83,7.14-12.23,11.23-18,.4-.59.84-.78,1.46-.84.59-.06,1.46,0,1.61-.59,1.3-5.46,5.96-3.35,8.44-2.7,4.03,1.02,7.94.56,11.88.9.5.03.99,0,1.52,0,4.5,0,4.44,0,5.34-4.34.37-1.74,1.49-2.82,3.32-2.92,1.12-.06,2.2-.06,3.32-.09,1.09-.34,2.02.19,2.82.71,5.93,3.97,12.1,7.54,17.81,11.82,2.98,2.23,5,5.12,6.21,8.63.34.96.71,2.42,2.11,2.14,1.4-.28,1.55-1.74,1.58-2.95.16-3.51,0-7.01.68-10.52.5-2.48,1.21-4.87,2.3-7.14.65-1.33,1.33-2.79,3.23-2.7l-.06.06Z"/>
      <path class="cls-41" d="M230.4,520.3c-7.14-3.85-15.02-4.44-22.81-4.69-21.04-.65-41.7,2.48-62.06,7.63-.56.16-1.09.47-1.64.68-1.33.71-2.3,2.11-3.88,2.36-5.21.84-5.8.34-5.8-5,0-17.38.06-34.72,0-52.1,0-2.51.59-4.28,3.04-5.12,2.64-1.52,5.59-1.43,8.47-1.49,5.12-.12,10.27.06,15.39-.06,10.05-.25,20.11-.22,30-2.36,3.82-.84,7.63-1.8,11.17-3.6,4.65-2.36,9.62-1.68,14.49-1.09,4.5.53,8.84,1.86,13.37,2.36.93.09,1.77.43,2.14,1.43,1.43,1.95,2.27,4.19,2.3,6.55.12,6.55.25,13.09-.06,19.64-.12,2.92.25,6.08-.25,8.59-1.05,5.4,0,10.83-1.09,16.01-.62,2.85-.84,5.68-1.15,8.5-.12,1.21-.59,1.58-1.58,1.74h-.06Z"/>
      <path class="cls-50" d="M355.07,163.85c-.99-.71-2.14-.4-3.23-.4-36.58,0-73.13,0-109.72.06-1.15,0-2.42-.4-3.44.56-1.21.68-2.54.43-3.85.43-14.09,0-28.14.03-42.23,0-2.11,0-4.19.56-6.3.06-.47-1.61-1.83-.96-2.79-.96-12.38,0-24.76,0-37.14.03-3.82,0-6.42-1.99-7.17-5.74-.43-2.17-.5-4.41-.12-6.61.65-3.79,2.58-5.24,6.42-5.24h124.42c.31,0,.59-.06.9-.12,2.17-.84,4.38-.16,6.58-.19,5.12,0,10.27-.22,15.39.09,10.46.03,20.88.09,31.34.12h18.99c.56-.37,1.12-.43,1.71-.09,8.25.03,16.51.09,24.76.09h75.24c.9,0,1.83.06,2.73-.03,5.34-.56,8.72,2.2,8.94,7.51.25,5.46-3.07,9.84-8.16,9.74-13.28-.25-26.56-.22-39.81.47-1.18,1.05-2.64.9-4.03.9h-45.95c-1.21,0-2.42.06-3.51-.65l.03-.03Z"/>
      <path class="cls-20" d="M232.23,459.27c-8.47-1.24-16.76-4.19-25.54-3.13-4.16.5-7.57,3.01-11.6,4.03-5.27,1.33-10.61,2.33-15.98,2.61-9.43.47-18.9.62-28.36.65-4.53,0-9.03.56-13.56.68-11.85,1.12-19.98-10.05-21.75-20.45-1.15-6.67-.84-13.37.03-20.08.68-.34,1.15-.93,2.14-.87,8.63.53,17.31-.22,25.94.78,2.42.28,4.72,1.02,7.04,1.52,1.95.4,2.7-.25,3.51-1.77.84-1.58.74-3.63,2.14-4.9,2.17-1.95,4.75-2.7,7.54-1.68,1.99.71,3.91,1.58,5.77,2.58,8.81,4.59,18.15,8.07,26.81,13,1.89,1.09,4.03,1.33,6.14.93,10.95-2.02,21.94-3.94,32.33-8.22,2.95-1.21,5.86-2.54,8.78-3.85,1.86-.84,3.6-1.8,5.65-.28,1.05.78,1.86-.31,2.58-.96,1.92-1.77,3.82-3.57,5.71-5.37.68-.65,1.4-1.12,2.39-1.12,1.77,2.82,2.14,6.05,2.54,9.22.81,6.39,3.44,12.35,4.41,18.68.65,4.28.53,8.59-.71,12.81-1.92,6.55-7.07,8.1-14.89,7.35-6.36-.62-12.72-1.43-19.08-2.17h.03Z"/>
      <path class="cls-28" d="M508.88,210.85c-6.24.12-12.47.25-18.71.37-.62,0-1.21,0-1.58.65-4.16,1.58-8.35,1.52-12.54.03-1.64-.99-3.32-.22-5-.19-9.46.09-18.93.19-28.39.31-4.22,1.18-8.44,1.55-12.63-.12-2.11-3.1-1.74-6.64-1.21-9.9,1.52-9.43,9.4-20.29,22.56-19.86,8.75.28,17.53-.09,26.28.06,2.85.06,3.79-1.05,4.16-3.75,1.64-11.85,3.6-23.64,5.12-35.53.53-4.13.56-8.19,4.06-11.23,2.7-2.33,5.77-3.82,9.28-3.79,9.46.09,18.93.28,28.36.65,5.77.22,9.15,4.53,8.38,10.67-1.95,15.55-4.62,31-6.98,46.51-.99,6.55-2.05,13.13-3.01,19.67-.65,4.56-1.15,5.06-5.52,5.24-4.22,1.71-8.44,1.3-12.69.19h.06Z"/>
      <path class="cls-23" d="M52.26,211.88c-2.54.19-3.6-.84-4.03-3.54-3.79-22.71-7.79-45.36-11.64-68.08-1.15-6.76,3.13-12.6,11.05-12.1,8.22.53,16.51.34,24.76.43,7.29.09,12.63,4.59,13.68,11.73,1.99,13.22,3.97,26.44,5.8,39.69.34,2.48,1.24,3.35,3.82,3.32,9.77-.12,19.55.31,29.29-.16,7.38-.37,11.95,3.44,15.73,8.78,2.82,4,4.19,8.66,4.34,13.62.09,2.45.09,4.81-2.33,6.3-4.47-.47-9.03.37-13.4-1.09-9.68.78-19.36.28-29.04.53-1.24,0-2.61-.43-3.72.59-4.34-.31-8.72-.16-13.06-.71-5.4.06-10.8.12-16.2.25-1.05,0-2.2-.37-3.16.5-3.97,1.49-7.94,1.52-11.91-.03l.03-.03Z"/>
      <path class="cls-48" d="M201.88,361.84c-2.67,1.61-3.35,4.47-4.1,7.11-1.02,3.66-1.52,7.48-1.33,11.33.06,1.21.09,2.45-.19,3.6-.31,1.24-.9,2.61-2.45,2.73-1.43.12-1.8-1.3-2.08-2.27-2.02-6.95-7.48-10.58-13.22-14.02-4.56-2.73-8.66-6.14-13.4-8.53-1.68-1.74-3.32-3.48-5.06-5.18-3.69-3.63-6.86-7.57-8.19-12.72-.4-1.52-.96-2.39-2.73-1.58-3.29,1.52-6.45.84-9.53-.74-5.31-2.7-8.35-7.11-9.43-12.85-.9-4.9,2.61-9.87,8.01-11.54,1.05-.34,2.17-.4,2.82-1.46,5.4,2.17,8.19,6.48,9.93,11.76.4,1.21-.06,3.48,1.68,3.32,1.3-.12,1.12-2.36,1.4-3.69,1.12-5.49.74-10.83-2.14-15.79-1.61-2.76-1.86-5.71-1.27-8.75,1.05-5.27,1.18-10.58.43-15.92-.65-4.56,0-5.31,4.5-6.58,6.05-1.71,12.19-2.54,18.43-3.07,8.04-.68,15.7-2.33,22.34-7.38,3.32-2.54,4.31-2.17,6.98,1.12,1.64,2.05,3.23,4.13,4.56,6.36,1.05,4.28,2.82,7.7,8.22,6.64.56-.12,1.18.22,1.55.74-2.08,1.09-4.31.31-6.48.5-1.12.09-2.14.19-1.86,1.64,1.05,5.4-1.02,10.49-1.58,15.7-.59,5.27-.59,10.3,2.36,15.08,1.43,2.33,2.3,5.31,1.99,8.04-.5,4.44.81,8.47,1.8,12.63.74,3.1,1.09,6.21.96,9.46-.22,6.21-4.38,9.09-9,11.7-1.4.78-2.95,1.21-3.94,2.58l.03.06Z"/>
      <path class="cls-40" d="M217.64,284.52c-.59-.06-1.18-.12-1.77-.12-4.59-.04-7.44-2.38-8.53-7.01-1.61-3.57-3.48-7.01-5.99-10.05-.87-1.05-1.18-2.05-.78-3.32,1.46-4.44,1.68-8.87-.09-13.31-.34-.84-.5-1.77.28-2.54,1.05-.4.74-1.3.74-2.05.43-23.86.81-47.72,1.3-71.58.06-2.36-.59-3.35-2.95-3.88-3.85-.81-7.57-2.08-11.39-3.04-1.77-.43-2.67-1.21-2.2-3.1.9-1.05,2.11-.96,3.32-.96h45.83c1.12,0,2.2.03,3.26.47,1.58,1.8.25,2.42-1.24,2.95-3.79,1.33-7.57,2.7-11.39,3.94-1.52.5-2.23,1.18-2.23,2.98.16,31.09.19,62.18.4,93.27.06,7.79,4.13,12.23,11.82,13.62.5.09.99.12,1.49.19.96.12,1.89.4,1.89,1.55,0,1.4-1.12,1.46-2.17,1.49-5.43.12-10.86.22-16.29.34-1.12,0-2.2.09-3.32.16v.03Z"/>
      <path class="cls-18" d="M385.01,371.55c-.5-.81-1.3-1.27-2.11-1.68,1.27-4.31.5-8.72.71-13.09.09-1.58-.25-3.23.87-4.59.03-3.23.06-6.45.09-9.65,2.36-.53,4.53.43,6.8.78,5.18.78,9.9-.5,14.43-2.98-6.86,3.91-14.06,2.92-21.25,1.61-.12-1.24-1.18-1.49-2.11-1.89-6.52-2.82-11.36-7.38-14.18-13.93-.4-.9-.74-1.55-1.86-1.61-5.9-.4-9.43-5.03-8.35-10.95.56-3.04,1.49-5.86,5.06-6.7,1.24-.28.62-1.52.96-2.3,1.8,1.86,3.85,3.51,5.34,5.62-.47-7.76,2.76-14.77,5.46-21.84,1.68-4.44,6.17-5.96,9.71-2.7,2.36,2.17,5.06,1.77,7.45-.09,2.23-1.77,4.5-2.02,7.01-.78,1.74.87,3.51.47,5.31.06,5-1.15,7.63.19,9.46,5.03,1.74,4.62,3.04,9.4,3.54,14.34.28,2.82.56,2.92,3.04,1.55.96-.53,1.46-1.74,2.7-1.8.12.9.4,1.46,1.43,1.99,6.73,3.41,4.22,14.55-.71,17.34-.9.53-1.99.96-2.89.56-2.54-1.09-3.16.22-3.85,2.36-1.15,3.6-3.69,6.39-6.21,9.09-.96,1.02-1.3,1.89-1.12,3.41.37,2.89.19,5.83.22,8.75-1.83,3.01-5.09,3.69-8.01,4.81-2.02.78-4.19,1.33-6.3,1.89-2.64.06-4.1,2.08-5.83,3.63-1.49,3.6-1.77,7.54-3.2,11.14-.4.99-.5,2.17-1.64,2.7l.03-.06Z"/>
      <path class="cls-22" d="M468.01,404.69c1.92-.22,2.85.81,3.51,2.54,3.66,9.77,7.42,19.49,11.08,29.26,1.27,3.38.31,6.76-.28,10.12-2.51,14.02-5.12,28.02-7.57,42.01-.28,1.64-.53,3.44.16,5.09,3.88,9.28,1.64,18.55-.06,27.83-.4,2.14-1.4,4.19-1.92,6.33-1.58,6.36-11.45,7.57-15.73,2.23-1.55-1.95-2.89-4.1-3.26-6.7-.56-3.85-1.4-7.54-2.64-11.29-1.74-5.27-.28-10.98,2.08-15.76,2.48-5.06,3.32-10.21,3.63-15.61.53-9.22.9-18.46,1.33-27.71.16-3.1.25-6.24.59-9.31.5-4.59-.71-8.59-3.04-12.54-1.58-2.7-3.79-5.31-3.63-8.78,1.71-3.1,4.56-5.27,6.64-8.13,1.89-2.58,4.13-4.9,6.14-7.38.78-.93,1.37-2.33,2.98-2.17v-.03Z"/>
      <path class="cls-66" d="M423.08,303.85c-.78,2.79-4.06,2.54-5.77,5.31-.78-5.24-1.33-9.77-2.64-14.12-.28-.96-.43-1.95-.74-2.92-2.23-6.83-3.91-7.85-10.83-6.27-1.71.37-3.16.25-4.65-.53-1.99-1.02-3.69-.9-5.55.53-3.72,2.89-5.74,2.76-9.46-.09-2.27-1.74-4.84-1.52-6.58.71-.84,1.09-1.71,2.33-2.05,3.66-1.99,7.35-6.02,14.3-4.62,22.59-.71-3.88-5.71-4.28-6.08-8.22-.37-1.74-1.49-2.85-3.1-3.41-4.22-1.49-5.62-3.35-5-7.73.31-2.17-.25-3.75-1.15-5.62-2.39-4.93-2.02-8.1,2.02-12.29,1.18-1.24,1.61-2.36,1.55-3.94-.12-2.85.84-4.96,4.1-5.21.78-.06,1.24-.37,1.71-1.02.59-.78,1.4-1.83,2.2-1.95,3.97-.59,3.82-3.29,3.82-6.33-.06-27.31-.06-54.58.09-81.88,0-2.89-.47-4.81-3.51-5.4,1.92-1.52,3.41-1.18,4.28,1.02.62,1.55.43,3.16.43,4.78v80.7c0,1.09-.25,2.17.22,3.26,2.89-.96,5.49-2.2,7.76-4.34,2.3-2.14,5.55-2.2,8.5-2.82,3.94-.84,4-.78,4-4.9v-71.95c0-1.4-.12-2.82.31-4.19.22-.62.4-1.46,1.43-.99-.65.99-.47,2.14-.43,3.23.03,25.47.09,50.95.12,76.45,0,2.92,3.44,5.83,6.39,5.43,1.12-.16,2.54-.5,3.16.37,1.74,2.45,4.03,1.92,6.36,1.77h.59c4.06,1.21,8.04,2.11,12.44,1.86,3.72-.19,5.96,3.63,4.62,7.45-.99,2.85-.81,4.9,1.58,6.7,3.07,2.02,3.79,3.91,2.82,7.35-.28.96.06,1.99-.28,2.92-1.52,3.04-2.89,5.83-1.95,9.65.65,2.67-1.24,5.55-3.85,7.29-1.12.74-1.92,1.74-2.3,3.01l.03.09Z"/>
      <path class="cls-40" d="M393.82,170.27c-1.46.78-.81,2.17-.81,3.26-.03,25.2-.06,50.36.03,75.55,0,2.85-.87,3.66-3.69,4.1-4,.62-8.5.4-11.23,4.62-.62.93-2.23,1.68-3.38,1.71-1.46.03-2.3.12-2.36,1.77,0,.59-.53.93-1.02.93-.96,0-.62-.81-.65-1.33-.06-.71,0-1.4,0-2.11v-85.51c0-3.63-.96-4.47-3.82-3.54-3.57-.96-7.17-1.92-10.74-2.92-1.68-.47-2.05-1.46-1.02-2.92.9-.12,1.77-.34,2.67-.37,16.04-.06,32.08-.09,48.09-.09.9,0,1.8.12,2.7.22.47,1.4,0,2.33-1.43,2.76-4.44,1.3-8.84,2.61-13.28,3.91l-.06-.03Z"/>
      <path class="cls-32" d="M200.73,248.18c.28,3.35,2.51,6.36,1.8,9.9-.09.5.16,1.12-.06,1.49-2.98,5.15.71,8.69,2.98,12.57.96,1.64,2.02,3.23,1.86,5.24-1.99-2.51-3.97-5.03-5.93-7.57-.93-1.21-1.8-1.64-3.16-.53-8.81,7.29-19.52,8.35-30.35,9.18-4.81.37-9.49,1.68-14.15,3.01-1.68.5-2.51,1.21-2.14,3.2,1.15,6.52,1.09,13-.4,19.49-.47,2.02,0,3.97,1.02,5.8,3.82,6.61,3.91,13.59,1.86,20.73-.25.84-.37,1.89-1.55,1.95-.99.06-1.46-.65-1.58-1.52-.9-6.7-4.53-11.64-9.93-15.42-2.82-6.21-6.67-12.07-7.07-19.11-.34-6.05.31-11.91,5.18-16.38,3.29-3.23,4.13-7.82,6.45-11.57,4.16-8.84,11.42-13.62,20.73-15.27,7.32-1.27,14.77-1.92,22.25-1.02,3.91.47,7.42-.25,9.74-3.91.62-.96,1.46-1.8,2.48-.31l-.03.06Z"/>
      <path class="cls-41" d="M468.01,404.69c-4.72,5.49-9.43,10.98-14.15,16.48-.47.53-.81,1.15-1.58,1.21-3.32-2.7-4.87-6.7-7.23-10.08-.16-.22-.09-.81-.22-.84-3.82-.62-3.04-4.44-4.59-6.61-1.68-2.33-3.38-4.65-4.9-7.11-.68-1.12-1.74-.06-2.36-.78-.5-13.37,1.43-26.37,6.27-38.91.43-1.12.9-2.23,2.02-2.89,4.59-.99,6.55.43,9.87,5.24,2.27,3.29,3.82,7.45,6.86,9.74,2.64,2.02,2.11,4.81,3.69,6.76,1.68,2.08,3.35,4.1,4.22,6.67.28.84.78,1.68,1.37,2.33,2.48,2.79,3.26,6.52,5.37,9.59,1.74,2.51-.9,6.98-4.56,9.18h-.06Z"/>
      <path class="cls-41" d="M385.01,371.55c1.27-3.97,2.64-7.94,3.2-12.1.12-.96.78-1.61,1.18-2.39,1.89-1.24,3.23-.59,4.06,1.33,2.02,4.62,5.34,8.53,7.48,13.09.43.9,1.15,1.68,1.83,2.39,1.27,1.37,2.45,1.52,3.69-.16,4.16-5.68,8.16-11.45,12.54-16.97.81-1.02,1.49-2.17,3.07-2.11,1.89.68,4.22.47,5.49,2.54-7.97,11.2-11.45,24.02-13.53,37.36-.31,1.92-.19,3.82.28,5.68.74,3.1.12,4.03-3.1,4.1-8.25.19-16.51.34-24.76.47-2.11.03-4.22.06-6.33,0-2.82-.06-3.38-.78-2.67-3.54,1.89-7.2,3.82-14.4,5.68-21.6.68-2.7,1.27-5.43,1.89-8.13v.03Z"/>
      <path class="cls-65" d="M344.83,145.82c-.56.03-1.15.06-1.71.09-.31-.53-.87-.4-1.33-.43-.78-.09-1.71.16-1.95-.96-.25-1.21.68-1.61,1.49-1.95,2.42-.96,4.19-3.04,6.89-3.63,1.49-.31,2.64-1.83,2.33-3.48-.53-2.82-.31-5.62-.37-8.44,0-1.43-.5-2.05-1.95-2.45-6.52-1.71-9.37-6.58-10.86-12.75-1.27-5.27-1.4-10.58-1.15-15.89.31-7.04,1.99-13.87,3.91-20.6.56-1.95,1.89-3.2,4.22-3.13,4.62.09,9.28.09,13.9,0,1.86-.03,2.82.74,3.29,2.42,2.79,9.99,4.56,20.14,3.69,30.56-.53,6.21-1.95,12.1-7.01,16.41-.47.4-.9.99-1.43,1.09-3.94.74-3.79,3.57-3.69,6.64.28,8.66.22,8.66,7.91,12.47.53.28,1.12.5,1.61.84.78.5,1.61,1.09,1.24,2.17-.34,1.02-1.37.62-2.11.65-5.62.25-11.23-.4-16.82.37h-.09Z"/>
      <path class="cls-30" d="M292.76,145.82s-.28.4-.43.4c-7.17.25-14.37.87-21.53-.34-.22-1.58.34-2.85,1.83-3.41,2.33-.93,4.16-2.76,6.61-3.44,1.12-.31,1.86-1.05,1.92-2.39.12-3.6.34-7.23.53-10.83.06-1.09-.03-1.99-1.46-2.11-5.18-.47-7.6-4.22-9.28-8.38-3.48-8.56-2.95-17.5-1.71-26.41.59-4.16,1.49-8.25,2.76-12.26.71-2.27,1.74-3.1,4.38-2.85,3.88.4,7.82.5,11.73-.12,3.2-.5,4.25.34,5.24,3.35,3.57,10.89,3.63,22.09,2.85,33.32-.28,3.91-1.74,7.57-4.31,10.67-1.37,1.61-2.98,2.64-5.09,2.95-1.86.28-2.89,1.24-2.58,3.26.03.31.06.62,0,.9-1.27,6.92.71,11.98,7.82,14.4,1.46.5,2.7,1.71.78,3.32l-.06-.03Z"/>
      <path class="cls-5" d="M508.88,210.85c4.22-.06,8.47-.12,12.69-.19,1.37,2.61.99,5.49,1.24,8.25,1.68,18.74,3.2,37.48,4.81,56.22.22,2.64-.96,4.78-3.07,5.12-2.73.43-5.15-1.09-5.59-3.82-2.14-13.31-4.19-26.62-6.27-39.93-1.33-8.53-2.98-17.03-3.85-25.66h.03Z"/>
      <path class="cls-21" d="M83.51,211.16c4.41-.59,8.81-1.24,13.06.71.43,6.83.93,13.62,1.27,20.45.62,12.97,1.18,25.94,1.74,38.88.06,1.49.25,3.07-.09,4.5-.43,1.92-.28,4.53-3.32,4.62-2.02.06-4.65-2.51-4.93-4.93-.62-5-1.18-9.99-1.74-14.99-1.8-16.07-3.6-32.18-5.43-48.25-.03-.37-.34-.68-.53-1.02l-.03.03Z"/>
      <path class="cls-36" d="M476.08,211.91c4.19,0,8.35,0,12.54-.03,1.15,2.39,0,4.75-.25,7.04-2.02,19.08-4.19,38.13-6.33,57.19-.43,3.88-2.05,6.05-4.31,5.99-2.51-.09-3.69-2.39-3.57-6.61.43-15.17.78-30.35,1.21-45.52.19-6.02.47-12.04.71-18.06Z"/>
      <path class="cls-16" d="M52.26,211.88c3.97,0,7.94,0,11.91.03,1.21,2.54-.09,4.93-.5,7.32-3.01,17.93-6.14,35.87-9.22,53.8-.28,1.58.03,3.2-.53,4.78-.96,2.7-2.92,4.13-5.15,3.66-2.08-.43-3.6-2.85-3.32-5.43.99-9.09,2.05-18.18,3.01-27.27,1.3-12.29,2.54-24.61,3.82-36.89h-.03Z"/>
      <path class="cls-21" d="M145.57,268.66c-1.52,4.22-1.77,9.12-6.45,11.57-3.94-9.43-3.48-19.61-4.78-29.45-1.74-13.03-3.63-26.06-4.59-39.19,0-.28-.25-.53-.4-.81,3.29-.03,6.58.06,9.87-.16,1.49-.09,2.3,1.05,3.54,1.24.74,2.14.43,4.38.5,6.55.5,16.17.9,32.3,1.43,48.47,0,.53-.99,2.05.9,1.77Z"/>
      <path class="cls-38" d="M431.21,283.86c.37-3.72.4-7.38-2.54-10.3,1.12-.59.93-1.71.93-2.67.16-15.76.25-31.52.47-47.29.06-3.91.47-7.82-.03-11.73,4.22.03,8.44.09,12.63.12-1.18,3.48-.78,7.17-1.12,10.74-1.64,17.72-3.07,35.47-4.5,53.21-.19,2.36-.81,4.25-3.57,4.31-2.7.06-1.09,2.67-2.3,3.57l.03.03Z"/>
      <path class="cls-41" d="M395.41,353.4c5.03-1.61,10.21-2.82,14.58-6.05,4.5-.53,8.38,2.14,9.65,6.67-.28,2.3-2.3,3.41-3.51,5.06-2.98,4.03-5.65,8.28-8.25,12.54-2.36,3.82-4.1,3.75-6.39-.19-2.54-4.31-5.31-8.5-7.88-12.81-1.92-3.23-1.61-3.91,1.83-5.21h-.03Z"/>
      <path class="cls-52" d="M395.41,353.4c-3.07,2.17-2.98,2.39-.81,5.59,2.67,3.97,5.09,8.1,7.6,12.19.68,1.09,1.02,2.64,2.58,2.64s1.89-1.64,2.54-2.7c3.63-6.05,7.2-12.13,12.32-17.1.96-.43,2.05-1.27,2.42.62-3.88,3.51-6.61,7.94-9.56,12.13-1.92,2.76-4.25,5.24-6.02,8.16-.96,1.58-2.85,1.33-4.25-.37-2.79-3.44-4.41-7.57-6.92-11.2-.99-1.46-2.11-2.92-2.51-4.75-.4-1.86-1.99-1.64-3.41-1.55,1.8-1.55,3.13-3.88,5.99-3.66h.03Z"/>
      <path class="cls-9" d="M376.08,368.04c-2.45,3.75-7.04,4.81-10.64,8.47,3.1-.68,4.62-2.54,6.61-3.51.93-.47,1.95-1.52,2.95-.34,1.09,1.3,0,2.23-.96,3.01-2.27,1.83-4.69,3.48-6.33,5.96-.31.47-.87,1.09-.43,1.61.56.68,1.27.28,1.89-.09,1.55-.96,3.04-1.95,4.59-2.89.81-.47,1.74-.68,2.45.25.62.81.09,1.52-.34,2.2-.99,1.55-2.3,2.82-3.82,3.82-2.92,1.86-5.09,4.47-7.51,6.86-.99,1.02-2.02,1.92-3.41,2.39-6.7,2.23-12.04,6.7-17.69,10.61-1.4.96-1.71,2.3-1.74,3.91,0,2.36.53,4.81-.5,7.11-1.05.53-1.21-.34-1.37-.96-.31-1.09-.12-2.2-.22-3.29-.09-1.15.53-2.7-.81-3.26-1.09-.47-2.05.71-2.79,1.46-4.78,4.69-10.24,8.35-16.2,11.29-2.17,1.05-2.02,1.71.59,3.29-2.08.81-4.1,1.95-6.27,2.33-5,.84-9.59-3.48-9.25-8.63.09-1.49-.16-2.39-1.12-3.41-2.85-3.1-2.67-5.49.25-8.63,4.62-5,9.96-9.03,15.86-12.32.93-.53,1.99-.87,2.98-1.3.87-1.4,2.39-1.77,3.75-2.36,4.56-2.08,9.25-3.94,13.65-6.36.59-.34,1.21-.78,1.95-.37.93-.65.68-1.64.53-2.48-.9-4.84.09-9.28,2.39-13.56,1.3-2.48.78-4.96-.47-7.45-.71-1.43-2.48-3.04-.16-4.69,2.3-1.64,3.85-.53,5.43,1.18,2.36,2.48,2.7,5.46,2.58,8.66-.03,1.15-.68,2.79.37,3.38,1.27.71,2.33-.81,3.35-1.49,4.65-3.13,9.25-6.36,14.52-8.41,1.86-.71,3.44-.93,3.41,1.86-.06,2.33-2.05,3.26-3.35,4.69-.74.81-1.68,1.37-2.54,2.33,2.61-1.21,5.03-2.7,7.76-.81l.03-.06Z"/>
      <path class="cls-1" d="M340.95,417.47c0-2.51.4-5.09-.03-7.51-.37-1.99.4-3.07,1.71-4.03,6.86-4.96,13.81-9.77,21.91-12.6,0,.31.12.74-.03.87-6.52,6.02-4.56,13.96-4.93,21.38-.03.68-.16,1.37-.22,2.08-.34,1.02-.19,1.86-2.08,1.99-2.67.19-5.71-.43-8.1,2.23-1.12,1.24-3.72.81-5.59,1.12-1.27.22-1.92-2.42-2.73-3.85-.43-.56-.43-1.12.03-1.68h.06Z"/>
      <path class="cls-8" d="M340.95,417.47c0,.56,0,1.12-.03,1.68-6.83,2.27-13.68,4.53-20.51,6.8-1.21-.09-2.82.5-3.26-1.3-.43-1.77,1.12-2.2,2.23-2.67,6.8-2.92,12.29-7.7,17.78-12.47.68-.59,1.33-1.37,2.36-.87.96.5.84,1.46.93,2.36.22,2.14-.62,4.38.53,6.45l-.03.03Z"/>
      <path class="cls-37" d="M376.08,368.04c-2.76-.43-5.34-.09-7.6,1.71-.56.43-1.33.96-1.77.16-.4-.71.43-1.24.96-1.64,2.42-1.89,4.75-3.88,6.52-6.42.78,0,1.61-.22,1.64-.99.22-3.23,3.41-4.75,4.25-7.76.5-1.77,2.85-.65,4.38-.9,0,5.15,0,10.27.09,15.42,0,1.3-.25,2.14-1.68,2.27-2.33-.47-4-3.32-6.83-1.83h.03Z"/>
      <path class="cls-14" d="M342.22,384.86c-6.11,3.75-12.78,6.33-19.36,9.12-1.68.25-3.32-.81-3.13-1.99.28-1.46,1.89-2.7,3.41-3.44,4.75-2.27,9.96-3.35,14.65-5.8,2.3-1.18,4.1-.22,4.44,2.11h0Z"/>
      <path class="cls-25" d="M384.52,341.92c2.58-1.46,5.21-.19,7.6.25,4.93.9,9.03-1.09,13.28-2.7.65-.25,1.24-.65,1.86-.93.12-.06.34.12.53.19-2.73,5.49-13.71,7.29-23.24,3.82,0-.22-.03-.4-.06-.62h.03Z"/>
      <path class="cls-58" d="M416.04,415.92c2.11-.12,4.22-.16,6.33-.34,2.17-.19,3.26.9,3.32,2.92.09,3.1.06,6.24,0,9.34,0,1.33-.62,2.33-2.11,2.45-4.72.4-9.4.84-14.12,1.24-2.14.19-2.85-1.24-2.98-2.98-.25-3.1-.4-6.24-.5-9.34-.06-1.86,1.02-2.7,2.82-2.79,2.42-.12,4.81-.25,7.23-.37v-.12Z"/>
      <path class="cls-12" d="M185.13,357.06c7.11.31,13.81-1.05,19.95-4.75,2.14-1.3,3.26-5.83,2.08-8.01-.43-.81-1.12-.62-1.83-.59-8.16.12-15.98,1.58-23.21,5.68-2.85,1.64-4.16.99-4.1-2.36.09-6.89,1.71-13.4,6.58-18.62,6.11-6.55,16.79-5.09,21.25,2.73,2.85,5.03,3.48,10.55,4.28,16.17.59,4.16-1.24,5.99-4.19,7.57-8.66,4.69-17.97,6.17-27.74,5.37-1.8-.16-2.7-.99-3.2-2.64-3.16-10.39-2.08-20.08,4.81-28.79.25-.31.5-.65.78-.9.71-.59,1.46-1.3,2.36-.4.74.74.22,1.49-.31,2.14-1.43,1.68-2.7,3.48-3.75,5.46-3.26,5.99-3.35,12.29-2.17,18.8.4,2.36,1.58,3.26,3.85,3.13,1.52-.06,3.01,0,4.53,0h.03Z"/>
      <path class="cls-46" d="M180.78,294.94c-.43,2.17-1.83,3.44-3.44,4.53-3.57,2.45-7.76,2.48-11.82,2.95-1.89.22-3.79.31-5.55,1.15-.74.34-1.55.56-2.23-.12s-.56-1.43-.37-2.27c1.05-4.19,5.15-7.45,9.53-7.35,3.91.09,7.82.56,11.7-.4,1.21-.31,2.2.06,2.2,1.46v.06Z"/>
      <path class="cls-13" d="M198.84,285.7c.9.16,1.83.16,2.64.43,1.37.47,3.35.62,3.38,2.48,0,1.89-1.99,1.24-3.1,1.58-1.77.56-3.23,1.61-4.78,2.54-2.2,1.37-4.56,2.05-7.17,2.02-1.24,0-2.08-.65-2.48-1.83-.31-.96-.19-1.86.62-2.45,3.26-2.36,6.45-4.87,10.86-4.78h.03Z"/>
      <path class="cls-29" d="M166.79,315.33c-.68.16-1.37.37-2.05.47-.65.09-1.21-.16-1.46-.78-.31-.81.09-1.43.84-1.64,5.15-1.49,9.8-4.84,15.58-4.1.99.12,2.08.06,2.54,1.21.5,1.27-.74,1.05-1.3,1.46-1.05.78,0,1.64.16,2.42.59,2.76-.25,3.82-3.2,3.85-1.58-.28-1.99-1.64-2.3-2.82-.56-2.23-1.74-2.17-3.54-1.52-1.71.62-3.26,1.99-5.31,1.46h.03Z"/>
      <path class="cls-45" d="M190.87,310.92c-2.11-.93-1.37-2.14-.19-3.13,3.66-2.95,8.13-3.04,12.5-3.35.5-.03.96.31,1.09.87.12.53,0,1.24-.47,1.3-2.82.37-1.43,2.2-1.27,3.54.34,3.2-.16,3.91-3.01,3.94-1.52-.34-2.11-1.58-2.33-2.89-.43-2.67-1.8-2.45-3.63-1.46-.87.47-1.58,1.3-2.7,1.18h0Z"/>
      <path class="cls-61" d="M166.79,315.33c2.48-1.02,4.96-2.82,7.45-2.85,3.1,0,1.27,4.47,3.66,5.74-3.54,2.58-8.13,2.11-10.67-1.02-.5-.62-.71-1.15-.43-1.86Z"/>
      <path class="cls-3" d="M190.87,310.92c.81-.59,1.55-1.27,2.39-1.8,3.04-1.89,3.69-1.61,4.5,1.86.28,1.21.9,2.2,1.74,3.07-1.77,2.2-3.94,1.15-5.99.65-1.92-.5-2.67-1.89-2.67-3.79h.03Z"/>
      <path class="cls-64" d="M190.9,320.32c-1.3-.53-2.45-.93-3.51-1.43-.56-.25-1.05-.74-.87-1.43.22-.81.93-1.12,1.68-.93,2.33.59,4.65,1.24,6.98,1.95.81.25,1.09,1.02.65,1.71-1.24,1.99-3.26,2.95-5.43,3.48-.62.16-1.18-.31-1.27-.99-.16-1.21,1.09-1.49,1.83-2.36h-.06Z"/>
      <path class="cls-56" d="M190.9,351.13c.74.22,2.48-.56,2.39,1.09-.09,1.74-1.89,1.52-3.1,1.4-.96-.06-2.67.19-2.45-1.43.22-1.68,1.8-1.12,3.16-1.05Z"/>
      <path class="cls-24" d="M404.19,304.96c-1.92,0-3.85-.09-5.74,0-2.3.12-2.73-1.43-2.79-3.1-.06-1.8.68-3.13,2.82-3.07,3.82.06,7.63.16,11.36,1.33,1.77.56,2.89,1.43,2.61,3.41-.31,2.05-1.95,1.3-3.1,1.37-1.71.09-3.41,0-5.15,0h0v.06Z"/>
      <path class="cls-63" d="M387.09,299.01c1.89.37,4.72-.62,4.59,3.01-.03,1.4-.68,2.27-2.14,2.39-3.69.34-7.35.78-11.05,1.09-1.58.12-3.16-.22-3.51-2.05-.37-1.95,1.4-2.23,2.64-2.7,3.04-1.09,6.17-1.61,9.49-1.74h-.03Z"/>
      <path class="cls-7" d="M403.78,329.69c-.19,1.02-.65,1.12-1.49.71-5.52-2.61-10.83-2.27-15.82,1.37-.5.37-1.02.74-1.58.22-.59-.53-.19-1.09.19-1.58,2.64-3.79,15.36-4.78,18.28-1.4.19.22.31.47.47.68h-.03Z"/>
      <path class="cls-60" d="M394.91,312.81c0-1.12-.03-2.2,0-3.32,0-.62.22-1.24.99-1.27.74,0,1.09.59,1.12,1.18.12,3.1.43,6.24-.84,9.22-.43,1.02-1.12,1.68-2.3,1.52-.99-.12-1.64-.78-2.02-1.64-.31-.68-.16-1.8.78-1.24,2.7,1.58,1.99-.65,2.14-1.77.12-.9,0-1.8,0-2.7h.06l.06.03Z"/>
      <path class="cls-42" d="M418.37,318.99c.25-1.8.37-3.72.84-5.55.31-1.27,1.24-2.33,2.76-2.42,1.09-.06,1.71.59,1.89,1.58.12.65,0,1.86-.93,1.27-2.36-1.46-1.92.5-2.14,1.55-.25,1.27-.31,2.61-.56,3.88-.16.9.25,2.48-1.15,2.33-1.4-.16-.47-1.64-.71-2.67v.03Z"/>
      <path class="cls-26" d="M368.29,320.32c-.28,1.02.5,2.39-.87,2.45-1.05.03-1.02-1.24-1.12-2.14-.22-2.48-.4-5-2.36-6.92-.47-.47-.74-1.02-.12-1.52.65-.56,1.09.06,1.52.43,2.48,2.11,2.33,5.15,2.95,7.7h0Z"/>
      <path class="cls-27" d="M404,313.4c-1.4-.12-2.58-.59-2.45-2.14.12-1.71,1.55-2.3,3.01-2.42,1.37-.09,2.42.62,2.33,2.14-.09,1.77-1.46,2.2-2.89,2.42h0Z"/>
      <path class="cls-43" d="M384.48,309.71c1.37.09,2.27.84,2.17,2.23-.09,1.68-1.3,2.42-2.85,2.39-1.24,0-2.11-.81-2.05-2.08.09-1.58,1.05-2.51,2.73-2.58v.03Z"/>
      <path class="cls-51" d="M361.37,88.66c1.09,3.63.84,7.32.84,11.02,0,1.18-.12,2.08-1.71,2.23-6.3.68-12.6.47-18.9.56-1.58,0-2.42-.59-2.42-2.27,0-4.81,0-9.59,1.71-14.15.71,2.95,2.36,3.63,5.4,3.07,2.67-.5,5.62-.53,8.35.43.5.19,1.05.22,1.43-.19,1.58-1.74,3.44-1.21,5.31-.71h0Z"/>
      <path class="cls-55" d="M361.37,88.66c-.81.31-1.46,1.68-2.48.28-.12-.19-.71-.31-.78-.22-3.41,4.13-7.6-.5-11.26.99-.78.31-2.02-.25-2.64.19-3.6,2.51-3.1-.28-3.2-2.36,0-.5-.06-.99-.09-1.49.06-1.61.5-3.16.96-4.72,1.86-6.11,1.83-6.14,8.38-6.14h3.32c5.12,0,5.34-.03,6.42,4.9.62,2.79,1.64,5.59,1.43,8.53l-.06.03Z"/>
      <path class="cls-6" d="M291.55,83.08c1.68,5.93,2.42,11.95,2.23,18.12-.06,1.8-.78,2.51-2.54,2.51-5.83-.06-11.7-.06-17.53-.06-1.27,0-2.23-.4-2.23-1.83-.09-5.71-.03-11.42,1.74-16.94.06.06.16.12.22.19,1.27,1.12-.19,3.57,1.68,4.1,1.33.4,2.95-.31,4.44-.31,2.51.03,5.03-.09,7.51.03,2.33.12,3.66-.53,3.51-3.13-.06-.96,0-2.05.96-2.7l.03.03Z"/>
      <path class="cls-55" d="M291.55,83.08s-.03.19-.03.31c-.31,6.39-.31,6.27-6.89,6.45-3.32.09-6.76-.93-9.99.9-.96.56-1.33-.47-1.37-1.33,0-1.49-.03-3.01-.06-4.5-.31-2.48,1.37-4.5,1.52-6.92.06-1.12,1.12-1.49,2.27-1.49,3.63.03,7.23.09,10.86-.03,2.33-.09,2.33,1.77,3.01,3.1.56,1.12.56,2.33.68,3.54v-.03Z"/>
      <path class="cls-39" d="M417.78,418.84c3.33-.1,5.01,1.21,5.03,3.94.04,3.19-1.57,4.87-4.84,5.06-.59.03-1.21.06-1.8.12-7.42.78-7.57.59-7.01-6.86.09-1.3.59-1.74,1.8-1.77,2.61-.12,5.21-.37,6.83-.47v-.03Z"/>
      <path class="cls-54" d="M192.05,334.1c.12,1.77-1.8,1.61-2.89,2.11-1.52.68-1.3-.96-1.3-1.61,0-1.83-2.33-4,.74-5.49,1.68-.81,2.61-.62,2.79,1.4.12,1.09.37,2.17.65,3.6Z"/>
      <path class="cls-62" d="M196.42,334.22c-3.26-.56-1.89-3.51-2.76-5.18-.5-.99.22-1.33,1.24-1.33,2.7,0,3.66,1.24,3.94,4.75.16,2.27-1.61,1.12-2.42,1.77Z"/>
      <path class="cls-34" d="M184.6,333.14c2.79,4.38-.25,6.67-2.92,9.06-.31-2.67.65-5.74,2.92-9.06Z"/>
      <path class="cls-4" d="M197.45,336.52c2.36-.53,2.39,1.21,2.58,2.67.31,2.54-1.89,1.61-2.92,1.74-2.3.28-1.46-1.89-1.74-2.98-.5-1.92,1.21-1.24,2.08-1.43Z"/>
      <path class="cls-49" d="M193.35,340.37c.16,2.3-1.64,1.86-2.67,2.2-1.8.56-1.52-1.05-1.68-1.99-.31-2.2,1.64-2.45,2.89-2.61,1.92-.22.47,1.99,1.43,2.42l.03-.03Z"/>
      <path class="cls-17" d="M205.39,339.44c.12,1.05-.65,1.05-1.33,1.05-1.64,0-1.43-1.37-1.68-2.36-.19-.68-.06-1.21.81-1.09,1.4.16,2.08,1.02,2.23,2.42l-.03-.03Z"/>
      <path class="cls-44" d="M183.61,344.8c0-1.18.71-1.77,1.3-2.39.47-.47.99-1.58,1.74-.53.47.65.65,1.77-.34,2.33-.74.4-1.55.84-2.73.59h.03Z"/>
      <path class="cls-57" d="M201.48,331.4c1.21.56,1.64,1.61,2.02,2.76-1.45-.08-2.12-1-2.02-2.76Z"/>
      <path class="cls-10" d="M416.07,425.42h-1.09c-1.12-.12-2.7.4-2.73-1.43,0-1.52,1.43-1.4,2.48-1.52,1.18-.12,2.39-.16,3.6-.16.93,0,1.89.06,1.99,1.3.06,1.15-.81,1.52-1.74,1.64-.9.12-1.8.12-2.51.16h0Z"/>
    </g>
  </g>
</svg>