<?xml version="1.0" encoding="UTF-8"?>
<svg id="Layer_2" data-name="Layer 2" xmlns="http://www.w3.org/2000/svg" viewBox="0 0 607.89 630.95">
  <defs>
    <style>
      .cls-1 {
        fill: #a7cfd2;
      }

      .cls-1, .cls-2, .cls-3, .cls-4, .cls-5, .cls-6, .cls-7, .cls-8, .cls-9, .cls-10, .cls-11, .cls-12, .cls-13, .cls-14, .cls-15, .cls-16, .cls-17, .cls-18, .cls-19, .cls-20, .cls-21, .cls-22, .cls-23, .cls-24, .cls-25, .cls-26, .cls-27, .cls-28, .cls-29, .cls-30, .cls-31, .cls-32, .cls-33, .cls-34, .cls-35, .cls-36, .cls-37, .cls-38, .cls-39, .cls-40, .cls-41, .cls-42, .cls-43, .cls-44, .cls-45, .cls-46, .cls-47, .cls-48, .cls-49, .cls-50, .cls-51, .cls-52, .cls-53, .cls-54, .cls-55, .cls-56, .cls-57, .cls-58, .cls-59, .cls-60, .cls-61, .cls-62, .cls-63, .cls-64, .cls-65, .cls-66, .cls-67, .cls-68 {
        stroke-width: 0px;
      }

      .cls-2 {
        fill: #de9a76;
      }

      .cls-3 {
        fill: #262833;
      }

      .cls-4 {
        fill: #3b231c;
      }

      .cls-5 {
        fill: #0f0f10;
      }

      .cls-6 {
        fill: #cfcfcf;
      }

      .cls-7 {
        fill: #d4d2d3;
      }

      .cls-8 {
        fill: #f9f7f7;
      }

      .cls-9 {
        fill: #242424;
      }

      .cls-10 {
        fill: #304a5a;
      }

      .cls-11 {
        fill: #34221c;
      }

      .cls-12 {
        fill: #78b2ac;
      }

      .cls-13 {
        fill: #cecdcb;
      }

      .cls-14 {
        fill: #d07e68;
      }

      .cls-15 {
        fill: #825135;
      }

      .cls-16 {
        fill: #d99d78;
      }

      .cls-17 {
        fill: #cbecec;
      }

      .cls-18 {
        fill: #2f7783;
      }

      .cls-19 {
        fill: #fcfdfc;
      }

      .cls-20 {
        fill: #5c9c67;
      }

      .cls-21 {
        fill: #2f201b;
      }

      .cls-22 {
        fill: #d3d0d1;
      }

      .cls-23 {
        fill: #3895a1;
      }

      .cls-24 {
        fill: #f1a737;
      }

      .cls-25 {
        fill: #cfece4;
      }

      .cls-26 {
        fill: #37949e;
      }

      .cls-27 {
        fill: #fbfcfb;
      }

      .cls-28 {
        fill: #db9875;
      }

      .cls-29 {
        fill: #342318;
      }

      .cls-30 {
        fill: #f0f5f6;
      }

      .cls-31 {
        fill: #342119;
      }

      .cls-32 {
        fill: #f6fafa;
      }

      .cls-33 {
        fill: #7b3e32;
      }

      .cls-34 {
        fill: #fafaf6;
      }

      .cls-35 {
        fill: #83a1a1;
      }

      .cls-36 {
        fill: #91b3c1;
      }

      .cls-37 {
        fill: #2e505f;
      }

      .cls-38 {
        fill: #fafcfa;
      }

      .cls-39 {
        fill: #c5eaef;
      }

      .cls-40 {
        fill: #c3eee0;
      }

      .cls-41 {
        fill: #a4a3a2;
      }

      .cls-42 {
        fill: #30201d;
      }

      .cls-43 {
        fill: #fefefe;
      }

      .cls-44 {
        fill: #fbfafa;
      }

      .cls-45 {
        fill: #9c472c;
      }

      .cls-46 {
        fill: #9d462c;
      }

      .cls-47 {
        fill: #f2a636;
      }

      .cls-48 {
        fill: #d5d2d3;
      }

      .cls-49 {
        fill: #d4d3d3;
      }

      .cls-50 {
        fill: #267680;
      }

      .cls-51 {
        fill: #9e452c;
      }

      .cls-52 {
        fill: #a4a3a3;
      }

      .cls-53 {
        fill: #f4f2f1;
      }

      .cls-54 {
        fill: #a3a4a3;
      }

      .cls-55 {
        fill: #392924;
      }

      .cls-56 {
        fill: #7cb2a7;
      }

      .cls-57 {
        fill: #fcfdfd;
      }

      .cls-58 {
        fill: #9e452b;
      }

      .cls-59 {
        fill: #f1a73a;
      }

      .cls-60 {
        fill: #a6aba9;
      }

      .cls-61 {
        fill: #589b68;
      }

      .cls-62 {
        fill: #ceece4;
      }

      .cls-63 {
        fill: #4e959a;
      }

      .cls-64 {
        fill: #dd9a76;
      }

      .cls-65 {
        fill: #45878f;
      }

      .cls-66 {
        fill: #583830;
      }

      .cls-67 {
        fill: #964d2d;
      }

      .cls-68 {
        fill: #f7f7f7;
      }
    </style>
  </defs>
  <g id="illustrazioni">
    <g>
      <path class="cls-20" d="M13.85,470.24c.08-19.55,4.99-38.14,11.25-56.44,7.01-20.52,15.65-40.37,24.38-60.21,8.94-20.27,8.06-40.11-.5-60.09-18.38-42.88-9.36-80.98,19.85-115.77,20.14-24,47.21-36.67,75.7-47.08,19.43-7.09,39.27-12.84,58.83-19.43,14.98-5.08,29.37-12.08,43.18-20.39,29.25-17.58,56.44-38.23,85.35-56.27,16.32-10.2,32.81-20.85,51.74-25.64C405.92,3.27,428.62-.89,451.87.16c8.6.38,16.24,4.49,24.21,7.3,34.16,11.92,62.14,33.23,86.14,59.54,15.86,17.37,26.98,38.23,35.88,60.13,4.62,11.37,7.93,22.95,9.4,35.16,1.97,16.53-3.82,31.13-10.53,45.36-14.64,31.05-34.28,58.79-58.28,83.38-11.04,11.33-24.29,20.02-36.42,30-16.28,13.43-32.31,27.19-46.66,42.59-17.41,18.71-26.39,42.17-33.99,66.17-3.94,12.46-5.54,25.34-6.84,38.23-.59,5.75-3.19,10.99-3.82,16.66-2.94,26.23-13.09,50.14-24.21,73.6-8.18,17.25-18.71,32.94-37.26,41.08-1.72-8.14-.84-16.36-.13-24.5.5-5.75.88-11.37-.25-17.08-1.26-6.21-1.47-12.5-1.55-18.8-.38-20.85.25-41.88-2.56-62.48-2.85-20.98-8.81-41.37-24.8-56.98-.42-.42-.63-1.01-.84-1.55-.25-.97-.17-1.97.29-2.85,4.32-8.31,9.06-16.45,10.95-25.81.34-1.55,1.64-2.64,3.19-3.19,1.72-.55,3.48-.67,5.25-.63,25.76.8,51.44-1.72,77.21-1.26,10.11.21,10.78-.84,8.43-10.91-.13-.59-.25-1.13-.38-1.72.25-33.82,0-67.64.17-101.42,0-5.5-1.51-10.95-.25-16.41.55-2.77-1.59-3.06-3.4-3.86-13.51-5.92-27.48-10.62-41.12-16.11-14.94-6.04-29.67-12.67-44.6-18.71-1.09-.46-2.14-1.01-2.69-2.18,0-1.05.42-1.89.97-2.73,3.78-5.54,2.85-7.76-3.99-8.14-8.43-.46-16.87-.08-25.3-.17-3.31,0-6.67.21-9.99-.46-7.93-2.81-16.2-5.04-23.67-8.81-11.12-5.62-21.69-3.65-32.18.8-7.43,3.15-15.23,4.99-22.7,7.93-5.87.97-11.83.76-17.71.42-7.26-.42-12.97,2.18-18.29,6.71-4.62,3.94-8.77,8.56-14.69,10.7-8.69,1.85-16.66,5.79-24.84,8.98-17.16,6.71-34.11,13.97-51.53,20.06-2.43.84-3.99,2.39-4.74,4.83-.5,37.51-.13,74.98-.17,112.45,0,2.39.67,4.66,1.13,7.01.29,2.98-.29,5.92-.38,8.85-.08,3.36,1.43,5.16,4.87,5.29,1.59.04,3.15.08,4.74.08,30.76,0,61.51.13,92.27.25,1.59,0,3.15,0,4.66.55,1.97,1.01,2.39,2.85,1.43,4.49-5.33,9.11-9.15,19.72-19.51,24.63-10.83,5.12-21.61,10.41-33.27,13.72-30.88,8.81-62.77,13.89-93.19,24.34-9.44,3.23-18.97,6.84-26.69,13.64-1.59,1.38-3.23,3.02-5.75,1.93h-.04Z"/>
      <path class="cls-9" d="M319.7,417.04c14.69,12.08,19.85,29.29,24.71,46.58,3.69,13.18,3.86,26.56,3.4,40.28-.34,10.45,1.51,21.06,1.51,31.64,0,8.43,1.22,16.83,1.76,25.18.88,12.84-.21,25.85-1.59,38.69-2.06,8.27-8.69,11.41-15.69,14.43-15.82,6.84-32.44,10.45-49.43,12.5-18.67,2.27-37.34,4.66-56.27,4.62-36.09-.08-71-6.42-104.94-18.46-4.36-1.55-9.36-1.51-13.05-4.87-2.35-1.89-3.02-4.45-3.02-7.3,0-5.25-.38-10.53.42-15.74,1.3-3.31.5-6.92,1.34-10.32,1.55-7.93.76-15.99,1.55-23.96.67-6.84,1.34-13.6,2.64-20.35-.25-4.7,2.56-8.85,2.48-13.51,2.35-16.32,5.41-32.52,7.34-48.88,1.64-13.72,9.69-23.2,20.48-30.92,6.59-4.36,13.68-7.8,20.94-10.78,7.64-3.15,15.44-5.92,21.23-12.29,1.01-1.13,2.35-2.22,4.15-1.38,1.01,12.5,1.09,25.13,3.61,37.51.29,1.34.42,2.69.92,4.03,1.97,5.29,3.15,5.83,8.31,3.48,2.85-1.3,5.79-2.6,8.35-4.45,17.96-12.92,37.47-23.37,56.02-35.37,4.45-2.9,8.73-6,12.84-9.32-12.63,8.85-26.52,15.53-39.44,23.92-10.57,6.88-21.15,13.8-31.76,20.6-11.08,7.09-13.89,5.62-15.78-7.3-1.59-10.91-2.39-21.86-2.77-32.9-.76-3.02,1.51-4.32,3.4-5.83,3.44-2.01,6.13-4.99,9.48-7.05,2.14-1.26,4.15-3.27,7.01-1.64,1.89,2.98,2.1,6.21,1.59,9.61-.67,4.49-.71,9.02.08,13.47.92,5.16,1.43,5.54,5.87,2.56,14.22-9.44,28.7-18.5,42.38-28.74,2.64-1.97,5.2-4.36,8.94-3.78,11.79,8.69,26.02,12,39.15,17.71,4.07,2.52,9.65,2.98,11.75,8.31l.08.04Z"/>
      <path class="cls-6" d="M109.1,584.21c.67,7.8-2.22,15.74,1.01,23.41-27.06-6.84-47.62-22.91-64.62-44.56-11.66-14.85-21.06-30.8-26.69-48.8-3.86-12.38-7.05-24.97-5.79-38.14,2.98-1.09,5.62-2.69,8.1-4.74,10.83-8.98,24.21-11.92,37.3-15.48,15.94-4.32,32.14-7.47,48.42-10.36,10.66-1.89,20.85-5.71,31.22-8.85,2.31-.71,4.78-2.56,6.8.55-4.62,4.49-9.99,8.18-13.85,13.51-5.75,7.89-6.38,17.12-7.8,26.23-2.06,13.18-4.11,26.31-6.21,39.48-.8,1.59-1.51,3.15-2.73,4.53-14.6,16.24-17.25,35.46-7.64,54.97,1.3,2.64,2.77,5.2,2.52,8.31l-.04-.04Z"/>
      <path class="cls-54" d="M144.8,437.18c-3.9-1.85-6.76,1.34-9.9,2.39-27.44,9.06-56.44,11.41-83.96,19.97-11.62,3.61-23.5,6.67-32.23,16.03-1.85,1.97-3.65,2.06-5.71.5,0-1.97-.84-4.11.84-5.83,8.9-7.18,18.84-12.67,29.58-16.28,12.92-4.32,25.89-8.39,39.27-11.16,12-2.48,23.79-6.08,35.79-8.69,9.57-2.1,19.18-4.28,28.07-8.01,9.65-4.07,20.02-6.63,28.78-13.05,5.37-3.94,8.73-9.19,11.25-14.73,1.51-3.36,5.62-5.29,5.2-9.57,2.85-2.9,6.21-2.01,9.52-1.26.5.29,1.34.92,1.17,1.13-4.32,5.62-4.15,13.22-8.27,18.88-1.09,1.76-4.24,1.85-3.9,4.74-.42.46-.8.46-1.17-.04-7.51,8.73-17.92,12.5-28.07,16.74-5.58,2.35-10.87,5.45-16.28,8.22h0Z"/>
      <path class="cls-60" d="M.04,68.43c.55-2.18.21-4.15,2.6-4.28.71-.04,1.76.34,1.59,1.22-.34,1.85-1.76,2.69-4.24,3.06h.04Z"/>
      <path class="cls-43" d="M400.26,228.43c-6.71-5.45-11.87-12.21-15.06-20.06-2.9-7.13-7.05-13.13-12.17-18.67-6.25-6.8-10.62-14.69-12.92-23.58-1.72-6.63-1.17-13.13,2.27-19.39,6.17-11.16,8.98-22.53,5.2-35.67-4.41-15.32,3.69-26.64,15.57-35.12,10.11-7.26,19.93-14.6,28.24-24.04,5.87-6.67,14.18-7.97,22.83-7.13,12.08,1.17,23.88.04,35.67-2.98,11.2-2.9,20.73,1.47,28.16,9.57,4.95,5.45,11.25,7.68,17.62,10.11,2.01.76,4.11,1.43,6.13,2.22,12.25,4.91,18.88,13.55,18.25,27.15-.42,9.19,3.27,16.95,9.48,23.46,3.44,3.61,5.5,7.64,6.17,12.46,1.72,12.17,2.94,24.13-4.49,35.33-4.2,6.34-5.66,14.06-5.2,21.53.92,14.94-4.87,26.77-15.15,36.93-1.68,1.64-3.19,3.48-4.78,5.2-2.14-4.7-.59-9.65-.63-14.43-.21-23.5-2.27-26.39-24.71-33.4-4.07-1.26-8.6-1.59-11.79-4.99-1.72-2.73-3.9-5.04-6.59-6.84-3.02-5.54-2.77-11.62-3.11-17.67-.08-1.85,1.01-3.99-1.3-5.29-.63-1.05-.63-2.14-.34-3.31,2.56-5.37,5.96-9.69,12.38-10.45,5.62,1.47,11.37,2.56,17.08,4.11-1.8-3.02-4.99-3.23-7.8-4.11-2.14-.67-4.91-.76-4.2-4.24,4.83-2.39,10.41-1.64,15.36-3.61-4.62-1.55-9.11,1.34-13.64,0-2.14-2.73.59-3.65,1.97-4.87,2.14-1.89,4.99-2.94,7.3-6.08-5.5.21-8.27,5.04-12.84,4.87-.59-.21-1.05-.59-1.34-1.13-.5-1.17-.5-2.39-.21-3.61,2.77-7.89,4.41-15.94,4.11-24.34-.25-7.39-3.57-12.67-10.24-15.99-8.01-4.03-16.53-6.46-25.05-8.98-8.77-2.6-15.44.29-20.02,9.36-4.95,9.82-9.48,19.97-10.53,31.22-1.13,4.53-1.09,9.06.38,13.51,1.05,3.06,1.34,6.17.71,9.36-.21,1.22-.71,2.35-.71,3.61-.8,7.97.38,15.48,5.33,22.07,1.01,2.48,2.69,4.2,5.12,5.33,1.97.92,3.48,2.52,4.32,4.62.8,3.19.84,6.42-.04,9.61-1.34,2.94-3.9,4.32-6.76,5.29-9.36,2.52-17.88,7.01-26.31,11.54-9.36,5.04-11.2,13.97-10.7,23.67.29,6,1.93,12.04-1.05,17.83l.04.04Z"/>
      <path class="cls-19" d="M426.27,252.76c-1.89,3.44-.13,6.92-.13,10.41v104.65c0,1.43,0,2.73-1.05,3.78-2.01,2.6-4.91,2.22-7.64,2.22-25.47,0-50.9.17-76.37,0-20.81-.46-41.58,0-62.39-.21-2.9,0-5.92.59-8.6-1.22-1.64-2.6.17-3.57,2.18-4.2,2.27-.71,4.66-.55,7.01-.42,8.94-.21,17.92-.25,26.85,0,.59,0,1.17,0,1.76-.04,13.01-.29,12.17,2.06,12.38-12.92.13-9.57-1.05-19.18,1.05-28.7.38-.92,1.05-1.64,1.89-2.22,7.13-4.91,8.43-9.19,4.49-16.78-1.89-3.61-3.78-6.92-1.55-11.04.38-.67.42-1.72,0-2.31-5.71-7.59-2.73-16.41-3.36-24.67-.25-3.52-.21-7.09-.25-10.66,0-2.73-.08-5.62,2.81-7.3,3.06-1.13,6.21-.8,9.36-.88,27.15-.71,54.25.97,81.4,1.26,3.36,0,7.05-1.8,10.11,1.17l.04.08Z"/>
      <path class="cls-5" d="M324.48,252.3c-1.22,11.58-1.34,23.37.08,34.7.59,4.87,6.17,9.06,1.01,14.52,0,0,.97,1.13,1.55,1.64,2.35,2.06,3.27,4.91,4.03,7.72,2.1,7.72-.08,11.2-9.06,14.85-5.25.46-9.27-2.6-10.62-8.22-.76-3.06-.97-6.29,0-9.27,1.34-4.32,2.31-8.48,1.3-13.09-.71-3.23,2.31-5.12,4.41-7.09,1.93-6,.63-12.13.84-18.17.17-5.71.34-11.41-.21-17.12-.04-3.82.38-7.68.29-11.5.13-5.45,0-10.91.67-17.54-10.66,4.87-19.76,10.74-28.78,16.78-1.93,1.43-3.61,3.44-6.46,2.77-2.39-1.38-2.35-3.94-3.02-6.17-1.72-5.58-4.74-9.4-10.78-11.37-11.54-3.73-23.25-5.25-35.25-6.5-14.39-1.51-27.69.92-41,5.83-10.66,3.94-19.34,9.44-21.61,21.82-1.26,6.8-4.83,11.66-12.92,10.7-1.17-.13-2.27.59-3.44.8-7.55,1.8-15.15,2.22-22.78,1.01-3.86-.63-7.3-2.01-7.55-6.8-.13-3.4,2.14-5.25,4.57-6.97,3.02-2.18,5.83-4.57,8.77-6.88,5.12-4.49,10.36-8.85,15.65-13.13,3.11-2.85,5.92-6.08,10.11-7.51,6.63-3.61,11.87-9.06,17.79-13.55,4.32-3.27,8.69-4.91,14.14-4.66,6.46.29,12.97,0,19.47-.08,3.82.08,7.39-1.85,11.29-1.34,4.11.21,8.27.04,12.38,0,4.49-.08,8.56.42,11.75,4.11,1.8,2.1,4.78,3.31,6.76,1.09,5.54-6.21,12.67-5.16,19.68-5.12.8,0,1.55-.04,2.35-.13,4.66-.59,9.06,1.22,13.6,1.43,10.62.08,21.27.13,31.89.21,1.59,0,3.15.08,4.7.21,3.4.29,7.09.63,8.48,4.2,1.55,4.03-2.56,5.12-4.7,7.22-.42.42-.71.92-1.05,1.38-.42,2.06-2.27,2.94-3.65,4.2-2.64,2.01-3.02,4.87-3.06,7.93,0,5.29.04,10.62,0,15.94,0,3.82.92,7.8-1.68,11.29l.08-.13Z"/>
      <path class="cls-23" d="M489.26,171.91c7.18,4.2,15.44,5.41,23.12,8.22,9.44,3.4,13.89,9.99,14.6,19.26.71,8.77.84,17.62-.88,26.35-.42,1.26-.04,2.9-1.55,3.61-10.15,4.74-20.06,10.24-30.63,13.76-4.83,1.59-10.11,3.48-15.69,3.31-12.97-.38-25.89-.21-38.86-.25-1.09-4.41-.38-8.98-1.68-13.39-1.38-4.74-2.01-9.65-6.13-13.05-.59-.5-.92-1.26-1.26-1.97-4.45-10.2.13-33.36,8.18-41.12.25-.25.67-.34,1.05-.46,1.17-.08,1.55.71,1.8,1.64.13,6.17,3.44,11.25,6,16.53,1.38,2.85,3.65,3.52,6.34,1.68,6.63-4.57,13.85-8.48,18.38-15.57,2.98-3.44,7.3-4.91,10.91-7.43,1.26-.88,2.81-1.34,4.2,0,1.22,3.11,0,5.96-.8,8.85-.97,1.64-2.81,2.06-4.24,3.11-3.4,2.48-4.87,5.75-3.52,9.78,1.09,3.36,3.31,6.04,7.22,5.96,4.2-.08,6.97-2.6,8.31-6.42,1.3-3.78.29-6.97-3.23-9.19-1.17-.76-2.39-1.38-3.27-2.52-.46-3.69-.13-7.3,1.59-10.7h.04Z"/>
      <path class="cls-27" d="M126.17,251.21c-.08,4.95,3.15,6.25,7.26,6.46,7.64.34,15.23.42,22.78-.8,3.44-.04,8.35-2.56,9.69,1.51,1.26,3.82-1.26,8.22-5.41,10.57-8.6,1.34-17.29.42-25.93.63-11.2.29-22.45-.38-33.61.38-2.77.84-2.39,3.15-2.31,5.2.13,3.61-.67,7.26.88,10.78.29.59.55,1.22.8,1.85,1.09,3.27.92,6.63.92,9.99v62.1c0,7.55.71,8.1,8.1,8.01,14.98-.13,29.96-.59,44.94.29,3.4.21,3.78-1.09,3.86-4.07.17-6.8-1.68-13.76,1.38-20.35,3.11-.88,3.65,1.8,4.24,3.52,2.69,7.8,5.58,15.4,10.95,21.86,1.51,1.8,1.85,3.99-1.05,5.25-2.52.84-5.08.71-7.64.71-24.3,0-48.55.04-72.84,0-3.23,0-6.8.76-9.44-2.18-1.8-.97-2.1-2.52-2.1-4.41.04-38.06.04-76.12.08-114.17,0-1.13-.25-2.39.97-3.19,12.88-.59,25.72-2.06,38.65-1.68,1.76.04,3.52.29,4.78,1.85l.04-.13Z"/>
      <path class="cls-51" d="M341.1,372.1c25.05-.08,50.1-.21,75.15-.29,2.94,0,5.92-.13,8.85-.21,4.57,3.61,1.3,8.9,2.81,13.22.38,1.05-1.26,1.26-2.22,1.3-1.38.08-2.77.04-4.11.04-28.32.38-56.65.76-84.97,1.13-1.38,0-2.73.25-4.11.42-3.19,1.72-6.42,2.06-10.15,1.51-4.99-.76-10.11-.42-15.19-.08-9.86.08-19.72.08-29.58,0-2.73,0-5.58.21-7.97-1.64-1.3-1.64-1.47-3.61-1.59-5.58-.5-8.31.59-9.48,8.9-9.48h57.74c2.14,0,4.32.38,6.42-.42l.04.08Z"/>
      <path class="cls-51" d="M83.79,372.81c30.46.04,60.88.13,91.35.17,1.38-.63,2.81-.29,3.86.5,7.59,5.87,16.32,5.54,25.13,4.57,1.17-.13,2.35-.17,3.48.25,2.98,3.44,4.7,7.01.97,11.04-2.14.8-4.24.92-6.13-.67-3.52,0-7.09.04-10.62.08-12.5.67-25.13.76-37.51.38-22.62-.67-45.19-.08-67.81-.59-2.73-.04-3.94-1.09-4.07-3.73-.17-4.07-.46-8.14,1.34-11.96v-.04Z"/>
      <path class="cls-23" d="M400.26,228.43c1.47-8.81-1.93-17.54-.25-26.39,1.26-6.67,3.78-12.55,9.99-15.82,9.15-4.83,18.08-10.24,28.41-12.29,1.22,3.02-1.3,4.78-2.69,6.63-4.24,5.75-6.34,11.96-5.87,19.13.25,4.28-.08,8.6.08,12.92.25,5.92-2.73,9.44-7.89,11.54-3.36-2.6-.46-6.25-1.59-8.43.55,4.07-1.43,8.9-.42,13.76,0,1.13.08,2.31-.34,2.85,1.59-3.69,3.78-7.59,6.97-10.87,2.18-2.22,4.28-2.48,6.59-.13,3.99,3.99,6.17,17.33,3.61,22.66-12.08.84-21.53-6.04-31.76-10.74-2.31-1.05-1.38-5.08-4.78-4.87l-.04.04Z"/>
      <path class="cls-58" d="M324.48,252.3c-.38-3.82-.59-7.64.08-11.46,2.73-3.4,6.59-2.39,9.86-2.01,18.76,2.18,37.6.21,56.39,1.22.8-.13-.04-1.34.13-.59.08.38,0,.55-.29.5-6-.29-11.29-3.11-16.74-5.2-13.01-5.04-26.1-9.9-39.11-14.98-2.18-.84-5.25-.88-5.58-4.28.76-1.43,2.18-1.97,3.57-2.56,9.19,2.52,17.79,6.67,26.52,10.32,13.55,5.66,26.9,11.62,40.91,16.28,8.35,2.77,16.24,7.01,24.71,9.57,1.68.5,1.17,2.27,1.3,3.61-7.97,1.22-16.07.88-24.04.5-25.89-1.13-51.82-.46-77.75-.97l.04.04Z"/>
      <path class="cls-57" d="M318.31,127.6c10.49-.08,18.29,7.01,18.25,16.57,0,10.07-8.56,17.79-19.6,17.67-9.94-.08-17.96-7.3-18.21-16.41-.25-9.61,8.69-17.79,19.51-17.88l.04.04Z"/>
      <path class="cls-45" d="M126.17,251.21c-10.03-.29-20.06-.21-30.04,1.09-4.45.55-8.98.25-13.34-1.26.13-2.64,2.1-4.11,4.07-4.28,10.32-.97,18.55-7.43,28.11-10.49,13.97-4.49,27.48-10.62,41.16-15.94,2.64-1.01,4.95-3.27,8.14-2.27-3.06,2.73-6.17,5.45-9.23,8.14-10.45,5.29-21.53,8.9-31.05,12,4.11,0,10.03-2.27,15.61,1.22-3.86,4.66-10.2,6.46-13.47,11.79h.04Z"/>
      <path class="cls-19" d="M281.22,156.21c7.8-.04,13.93,5.75,13.89,13.09-.08,7.64-7.26,14.27-15.32,14.14-8.1-.13-13.89-5.62-13.76-13.13.13-7.89,6.76-14.06,15.19-14.14v.04Z"/>
      <path class="cls-41" d="M307.99,387.5c8.18.08,16.36.17,24.55.21-2.18,10.7-6.55,20.43-12.84,29.29-4.03-2.35-8.06-4.7-12.08-7.05,4.45-6.17,9.36-12,12.55-19.43-2.48-.97-4.83-.25-7.09-.63-1.89-.29-4.53.71-5.12-2.43l.04.04Z"/>
      <path class="cls-10" d="M436.81,244.04c.63-6.76-.42-13.3-3.15-19.51-2.06-4.66-3.82-4.83-7.05-.97-3.48,4.15-5.29,9.27-8.39,14.77-1.3-3.78.04-6.17.97-8.6-.29-2.48.25-4.57,2.48-6,5.16-3.36,7.3-7.85,7.09-14.27-.21-8.1-1.59-16.41,2.22-24.34,1.97-4.11,6.21-6.59,7.38-11.16,1.97-1.22,3.94-2.43,5.87-3.65,2.43-.63,2.9.63,1.89,2.39-1.26,2.22-3.36,3.61-5.96,4.03-5.54,6.8-9.61,14.14-9.15,23.33.21,4.32.13,8.64,0,12.97-.08,2.69.8,4.66,2.56,6.84,6.17,7.72,8.01,16.62,5.75,26.31-1.17-.34-2.01-1.09-2.56-2.14h.04Z"/>
      <path class="cls-67" d="M227.42,199.81c-3.9,0-7.85,0-11.75-.04,11.41-4.11,22.78-8.43,34.32-12.25,6.67-2.22,13.13.59,19.3,2.77,8.18,2.85,16.11,6.29,24.17,9.48-4.74,0-9.48,0-14.22.04-5.71-.92-10.78-3.57-15.82-6.08-4.28-2.14-8.35-2.35-13.01-.84-7.59,2.52-15.06,5.62-23.04,6.88l.04.04Z"/>
      <path class="cls-2" d="M207.2,378.77c-11.71,3.65-22.41,1.8-32.06-5.75-6.71-8.9-11.12-18.88-14.27-29.46-5.66-9.78-4.2-20.39-3.44-30.88.21-2.73.97-5.41,1.51-8.06,1.76-15.99,2.35-16.49,18.55-16.07,2.18.04,4.32.29,6.5.59,1.51.21,3.65.84,4.28-.88.71-2.01-1.43-2.98-2.9-3.94-3.4-2.27-7.18-3.19-11.2-3.27-1.59,0-3.15.08-4.74,0-2.56-.08-5.87,1.55-7.05-2.31-1.22-3.9,1.01-6.38,4.03-8.31,13.22-8.35,27.86-13.05,43.01-15.99,9.86-1.93,19.89-3.02,30-1.47,3.4.5,6.8.67,8.1,4.66.29,4.91.55,9.78,4.11,13.8,1.05,1.17,1.01,2.98.92,4.57-.17,4.49.97,8.27,4.03,11.92,3.48,4.2,2.01,9.32.71,13.6,1.68-3.11,3.61-6.71,7.18-8.98,3.65-2.35,7.59-3.11,11.87-2.52,8.81,1.26,11.5,4.45,13.39,15.86-.67,11.29-7.76,18.67-15.86,25.18-3.48,2.77-4.83,5.79-4.66,10.11.29,7.05-.5,14.22,1.05,21.19.71,3.15-1.05,6.08-.29,9.19,21.57.08,43.14.17,64.7.29,2.14,0,4.28.17,6.46.25-2.35,1.47-4.99.84-7.51.84-18.97.08-37.89.34-56.86-.04-5.87-.13-7.8,1.68-6.97,7.3.34,2.31.13,4.74.17,7.09,1.38,1.93.55,3.36-1.05,4.62-4.03-.21-6.29,2.94-9.06,4.91-15.65,11.16-31.81,21.57-48.25,32.23-3.52-10.53-.38-20.98-2.22-31.01-.5-.8-.55-1.59-.13-2.39,9.78-2.73,17.33-9.15,24.67-15.53,10.45-9.06,19.51-19.43,26.06-31.81.46-.88.97-1.72,1.01-2.73,0-.42-.08-.76-.67-1.38-3.73,2.94-7.05,6.42-10.7,9.52-12.25,10.49-26.39,17.79-40.7,24.8-.5.25-1.17.13-1.72.25h0Z"/>
      <path class="cls-6" d="M268.88,391.9c.34-1.55.71-3.06,1.05-4.62,12.67.08,25.34.13,38.06.21,4.57,2.22,9.61.04,14.94,1.64-4.78,7.43-7.3,16.07-15.32,20.85-10.99-5.25-23.54-6.76-33.57-14.27-1.72-1.3-3.48-2.56-5.2-3.82h.04Z"/>
      <path class="cls-49" d="M189.16,412.21c.38.13.76.17,1.17.04,1.85,12.38,1.93,25.01,4.87,37.26,1.8,7.51,2.1,7.89,8.6,3.9,13.8-8.39,27.44-17.08,40.91-25.97,12.34-8.14,25.81-14.31,37.76-23.67,1.38,4.57-1.8,6.21-4.2,7.76-13.39,8.64-26.9,17.12-40.37,25.6-10.99,6.92-21.86,14.01-33.06,20.6-8.43,4.95-11.08,3.48-12.88-6.38-2.35-12.97-3.44-26.02-2.81-39.23v.08Z"/>
      <path class="cls-7" d="M197.93,462.82c1.38,2.9,1.3,5.25.97,7.8-1.47,11.25-2.98,22.41-1.72,33.9.76,6.97-.59,14.14-.63,21.19-.17,25.51.34,51.02,3.4,76.37.29,2.35.21,4.74.17,7.09,0,1.26.5,3.23-1.43,3.27-1.3,0-2.18-1.55-2.48-2.94-.29-1.34-.46-2.73-.55-4.07-2.27-35.37-3.36-70.79-2.69-106.24.21-12.04,2.18-24,4.91-36.38h.04Z"/>
      <path class="cls-48" d="M301.74,468.23c-3.69,7.3-4.03,14.6-3.23,22.11.76,7.43-.55,14.85-.08,22.41,1.01,16.07.8,32.23,1.76,48.3.55,9.36,2.35,18.59,3.48,27.9.42,3.4,1.26,6.88-1.01,10.41-3.86-4.41-2.98-9.82-3.99-14.69-3.52-16.45-2.77-33.23-3.57-49.89-.92-18.42-1.89-36.88,1.3-55.22.08-.38,0-.8,0-1.17.29-3.99-2.94-9.57,5.37-10.15h-.04Z"/>
      <path class="cls-52" d="M109.1,584.21c-5.54-9.11-9.52-18.8-9.65-29.62-.25-15.48,4.49-28.78,17.54-38.18-.84,4.36-1.72,8.69-2.56,13.05-7.51,11.41-6.04,23.83-4.11,36.3.46,2.94.5,5.83.04,8.77-.97,3.19.63,6.67-1.26,9.69h0Z"/>
      <path class="cls-22" d="M164.4,480.82c0,1.51.25,2.31,0,2.6-7.34,8.06-7.01,18.21-8.22,28.11-2.81,23.25-3.57,46.62-3.82,69.99-.08,6.97,1.47,14.01-.55,21.86-2.1-2.35-2.6-4.41-2.64-6.71-.42-19.89.21-39.74,1.13-59.63.8-16.74,4.78-32.94,6.21-49.51.13-1.34.42-.63,2.6-1.38,1.93-.67,3.19-3.11,5.33-5.37l-.04.04Z"/>
      <path class="cls-13" d="M209.63,395.6c-.08.8-.17,1.59-.29,2.43-6.38,1.05-9.57,7.18-15.11,9.48-.25-5.83,4.45-10.49,3.86-16.57-.17-1.93,3.19-.8,4.32-2.27,1.97,0,3.94-.04,5.87-.08,3.15,1.8,3.15,4.24,1.3,6.97l.04.04Z"/>
      <path class="cls-61" d="M110.36,574.52c-1.01-6.97-1.89-13.93-3.11-20.85-1.59-9.32.55-17.37,7.18-24.21-1.34,15.02-2.69,30.04-4.07,45.07Z"/>
      <path class="cls-26" d="M428.71,101.87c1.59-13.68,6.13-26.31,14.27-37.39,4.32-5.87,10.87-6.88,17.62-4.95,6.97,2.01,13.85,4.45,20.6,7.01,13.3,5.08,17.41,11.5,16.07,25.72-.63,6.55-.8,13.34-4.7,19.13-2.94,1.93-5.16-.42-7.59-1.38-1.97-.8-3.9-1.76-5.96-2.48-8.64-5.16-18.59-6.13-27.99-8.6-4.32-1.13-8.52.67-12.59,2.18-2.01.76-3.94,1.85-6.13,2.01-1.34,0-2.64-.17-3.61-1.26Z"/>
      <path class="cls-40" d="M444.02,160.2c-2.69-3.31-8.35-3.4-9.4-8.56-.08-4.03-3.48-6.55-4.36-10.36-1.01-4.41-.29-8.9-1.38-13.22-.13-1.09.08-2.1,1.13-2.69,6.38-2.64,13.05-3.11,19.64-1.68,8.1,1.76,16.36,2.1,24.5,3.27,6.13,7.09,3.36,14.69,1.22,22.24-4.07,6.71-10.45,10.53-17.41,13.51-5.16,2.18-9.57-.13-13.93-2.56v.04Z"/>
      <path class="cls-64" d="M475.16,127.81c-9.48,1.3-18.63-1.17-27.82-2.77-5.92-1.05-11.58,1.51-17.37.34-.29-3.11.97-6.38-1.05-9.27,2.9-7.43,8.9-7.8,15.65-6.63-2.31-2.06-4.87-2.6-7.64-1.93-4.91,1.17-6.25-.84-4.87-5.37,10.66-6.97,21.82-5.16,32.94-1.68,4.99,1.59,10.7,1.72,14.52,6.17,3.06,3.86,1.55,8.31,1.64,12.55-.34,2.81-1.72,5.12-3.31,7.34-.34.46-.71.88-1.13,1.3-.5.34-1.01.34-1.55,0v-.04Z"/>
      <path class="cls-28" d="M444.02,160.2c.25-.25.67-.8.76-.76,11.79,6.46,19.51-.84,27.23-8.06.59-.55,1.09-1.13,1.64-1.68,2.01-1.72,2.52-4.62,4.7-6.21.97-.59,1.34-1.97,3.02-1.8-.76,8.01-.8,15.99,1.85,23.75.8,2.52,4.57,3.61,3.36,7.09l-13.97,8.73c-8.1,2.94-16.41,3.69-24.84,2.1-2.9-.55-5.58-1.97-7.09-4.83-.17-.59-.34-1.22-.5-1.8,1.59-1.34,3.23-2.69,4.78-4.11,1.26-1.17.76-1.93-.71-2.31-.08-3.36-.17-6.76-.25-10.11h.04Z"/>
      <path class="cls-16" d="M476.08,127.6v-.38c3.94-3.57,7.09-7.76,9.86-12.29,2.27-2.39,4.49-3.4,6.76,0l.08-.17c1.51,1.8,1.55,3.99,1.51,6.21-.04,1.43.17,2.85,0,4.28-.21,2.69-3.31,2.94-4.24,4.99-4.95,1.85-8.77,4.99-11.37,9.65-3.06-3.61-.13-8.52-2.64-12.21l.04-.08Z"/>
      <path class="cls-55" d="M432.02,102.13c.8,2.64.59,6.29,5.33,3.78,1.3-.71,3.48,0,5.16.42,2.22.55,5.58.97,4.83,3.94-.97,3.78-3.73.76-5.79.5-4.11-.5-8.31-1.09-10.15,4.15-.38,1.05-1.51,1.13-2.48,1.17-1.68-4.7-1.93-9.44-.21-14.18,1.09.08,2.22.17,3.31.25v-.04Z"/>
      <path class="cls-18" d="M490.05,130.2c-1.05-3.31,1.09-4.07,3.65-4.49.55-.5,1.05-.5,1.64-.04,2.85,3.57,7.76,1.8,11.12,4.24,1.8,1.3,5.2,1.51,3.69,4.78-1.3,2.81-3.86,1.17-5.62.21-4.57-2.43-10.11-1.68-14.48-4.7Z"/>
      <path class="cls-50" d="M495.3,125.67c-.55,0-1.09,0-1.64.04-1.47-.97-1.09-2.27-.71-3.57.76-1.26,1.93-1.72,3.36-1.59,4.32-.55,8.69-.92,13.01-1.72,1.93-.38,3.69-.71,4.36,1.34.84,2.6-1.3,3.44-3.31,3.69-4.99.67-10.03,1.22-15.06,1.76v.04Z"/>
      <path class="cls-65" d="M496.35,120.55c-.67,1.47-2.01,1.47-3.36,1.59-.08-2.48-.17-4.95-.25-7.43,3.94-.76,6.63-3.82,9.99-5.62,1.55-.84,3.19-2.14,4.62-.17,1.59,2.14.04,3.57-1.59,4.83-3.11,2.31-6.84,3.78-9.44,6.8h.04Z"/>
      <path class="cls-29" d="M492.66,114.88c-2.1-1.43-4.24-2.94-5.96.46-2.35,2.06-3.27,5.83-7.26,5.83,0-4.87,0-9.69.04-14.56,5.08-.38,8.1,4.83,13.05,4.78,0,1.17.08,2.31.13,3.48Z"/>
      <path class="cls-35" d="M476.08,127.6c4.83,3.23.97,8.31,2.64,12.25-.08,1.22-.21,2.43-.29,3.69,0,3.23-2.14,4.91-4.74,6.21,3.61-7.09,2.48-14.52,1.51-21.9.29,0,.63-.08.92-.21l-.04-.04Z"/>
      <path class="cls-37" d="M486.61,172.54c-.17-2.81-4.78-3.52-3.36-7.09,3.19,1.05,5.54,2.94,6,6.46.46,3.65,0,7.18-1.09,10.66-.97.55-1.85.5-2.73-.21l1.13-9.86.04.04Z"/>
      <path class="cls-56" d="M428.83,128.02c3.15,1.47.55,3.99.97,6,.97,4.36,1.3,8.81,3.86,12.76.84,1.3,3.36,2.77.92,4.87-5.87-6.88-6.71-15.02-5.79-23.58l.04-.04Z"/>
      <path class="cls-62" d="M402.69,290.28c0,24-.13,48.04,0,72.05,0,4.49-1.01,6.21-5.87,6.08-14.94-.34-29.92-.25-44.9-.04-5.45.08-7.59-1.64-7.51-7.51.34-20.69.13-41.33.13-62.02,0-2.56.29-5.16-1.17-7.47,1.72-1.59,3.86-1.97,6.04-1.85,14.98.63,29.88-1.76,44.86-1.26,2.94.08,6-.29,8.35,2.06l.08-.04Z"/>
      <path class="cls-25" d="M269.97,371.55c-2.69-12.13-2.64-24.42-2.43-36.72,0-1.26.8-2.18,1.89-2.81,10.24-6.13,17.12-14.73,19.26-26.73.59-4.45.8-8.73-1.72-12.84-1.64-2.69-.67-4.83,2.52-5.66,7.93-2.73,16.11-1.76,24.21-1.68,1.76,0,3.48.46,4.7,1.89.55.92.92,1.8.08,2.77-3.36,1.17-6.13,3.44-4.11,6.92,1.97,3.48.88,5.71-.38,8.9-3.15,8.14-2.9,16.99,8.1,20.18,0,13.3-.08,26.6,0,39.86,0,3.23-1.51,4.03-4.36,3.9-3.73-.13-7.47-.08-11.16-.08-1.97-2.31-1.72-5.12-1.72-7.85-.08-7.68-.13-15.32,0-22.99.08-4.41-1.51-6.59-6.17-6.34-3.9.21-7.85.13-11.79,0-4.03-.13-5.62,1.76-5.58,5.71,0,7.85.04,15.69,0,23.58,0,2.73.29,5.54-1.68,7.89-3.15,1.01-7.13-1.85-9.65,2.1h0Z"/>
      <path class="cls-59" d="M402.69,290.28c-19.76.38-39.53.71-59.25,1.09-1.97-6.17-1.05-12.5-.84-18.8.13-2.94,1.89-3.86,4.74-3.86,17.37.08,34.7.04,52.07.08,1.97,0,4.32-.17,4.24,2.73-.17,6.25,1.22,12.59-.97,18.76Z"/>
      <path class="cls-33" d="M279.58,369.46c-.04-11.62,0-23.2-.21-34.83-.08-3.31.92-4.49,4.32-4.36,6.29.25,12.59.21,18.88,0,3.44-.13,4.36,1.13,4.28,4.41-.21,11.58-.21,23.2-.29,34.83-8.98,0-18,0-26.98-.04Z"/>
      <path class="cls-3" d="M246.6,258.09c0-3.27-2.64-2.9-4.66-3.19-16.11-2.22-31.89,0-47.16,4.99-9.69,3.19-19.6,6.13-28.07,12.29-.8.59-1.85.88-2.48,1.59-1.3,1.43-1.34,3.36-.8,5.04.67,2.1,2.35.5,3.52.42,7.85-.76,15.32-.13,21.86,4.99,1.85,1.47,3.48,2.85,2.43,5.33-.97,2.31-3.15,1.89-5.12,1.68-4.7-.5-9.4-1.17-14.1-1.34-8.52-.34-10.03,1.13-10.91,9.65-.17,1.55-.21,3.15-.29,4.74-4.49-.5-5.33-3.99-5.92-7.47-.55-3.27-.34-6.63.8-9.82.55-1.97-.29-3.82-.67-5.71-1.13-5.96,2.27-9.86,6.04-13.68,1.59-3.31,3.15-6.59,5.16-10.78h-9.94c.88-.34,1.76-.92,2.64-.97,8.52-.71,9.86-1.38,11.5-9.9,2.43-12.71,11.25-18.59,22.32-22.24,7.76-2.56,15.27-5.71,23.79-6.17,17.37-.97,34.24,1.05,51.02,5.5,9.73,2.56,14.43,8.43,15.57,17.92.08.67.8,1.26,1.22,1.89,2.64,3.48,2.01,7.89,3.4,11.75.34,2.85,1.22,5.66.21,8.56-5.79,4.28-11.54,1.76-17.41,0-7.85-2.27-15.4-5.87-23.88-5.08h-.08Z"/>
      <path class="cls-8" d="M329.26,215.59c19.68,7.59,39.4,15.15,59.08,22.78,1.68.67,3.82.71,5.25,2.98-23.25.76-46.11-.13-68.98-.46.13-7.13.25-14.27.42-21.4.08-2.73,2.14-3.4,4.28-3.9h-.04Z"/>
      <path class="cls-46" d="M286.13,254.15c-1.09-3.69-2.14-7.34-1.85-11.25,1.55-1.13,3.06-2.31,4.62-3.44,8.52-1.51,17.12-.76,25.68-.76,1.76,0,3.52.25,4.83,1.72.08,3.86.67,7.72-.5,11.54-.34.63-.88,1.09-1.51,1.38-10.36,1.51-20.81.34-31.22.8h-.04Z"/>
      <path class="cls-68" d="M227.42,199.81c8.6-4.41,18.04-6.59,27.02-9.94,1.34-.5,2.64-.29,3.99.29,7.01,3.02,14.18,5.79,20.81,9.65-3.15,0-6.29.08-9.44.08-3.61,0-6.76-.42-9.06,4.11-2.43,4.83-9.27,4.03-11.92-1.09-1.38-2.73-2.98-3.06-5.5-3.06-5.29.04-10.62-.08-15.9-.13v.08Z"/>
      <path class="cls-44" d="M319.36,240.43c-8.94.08-17.92.17-26.85.21-1.26,0-2.81.42-3.61-1.17,9.69-6.97,20.18-12.59,31.64-18.88-.42,7.22-.8,13.55-1.13,19.89l-.04-.04Z"/>
      <path class="cls-53" d="M139.64,239.42c-7.22-.17-14.43-.71-21.74.13,12.38-4.66,24.3-10.28,37.18-13.34-5.16,4.41-10.28,8.81-15.44,13.22Z"/>
      <path class="cls-46" d="M318.52,289.73c0-.76-.08-1.55-.13-2.31-3.23-6.76-1.22-13.89-1.59-20.85.25-4.74-1.3-9.69,1.59-14.14.17-.17.34-.34.5-.46,1.76,9.4.29,18.92.63,28.37.13,3.11,1.47,6.55-1.01,9.44v-.04Z"/>
      <path class="cls-32" d="M440.71,178.54c7.34,4.28,15.02,4.78,23.2,2.85,2.77-.67,5.83-.13,8.77-.17-.55,4.53-4.49,6.25-7.43,8.64-3.52,2.85-7.38,5.25-11.16,7.76-2.01,1.34-4.78,2.81-6.21.17-3.31-6.04-8.35-11.54-7.13-19.3l-.04.04Z"/>
      <path class="cls-39" d="M502.73,236.19c1.64-5.04-.59-10.41,1.85-15.69-2.64,2.98-5.92,3.44-9.44,3.48-6.67.13-13.34-.42-20.02.34-3.61.42-6-1.34-5.87-5.45.08-2.14.04-4.32-.08-6.46-.13-2.1.67-3.69,2.77-3.73,8.22-.13,16.36-2.39,24.59-1.17,5.66.84,9.4,5.2,9.23,11.12-.17,5.92-.92,11.79-1.43,17.71-.55,0-1.05-.08-1.59-.08v-.04Z"/>
      <path class="cls-30" d="M485.48,182.35c.92.08,1.8.13,2.73.21,6.5,1.89,9.02,5.25,8.1,10.74-.88,5.16-5.5,8.98-10.78,8.9-4.91-.08-8.85-4.15-9.23-9.57-.34-4.78,3.4-8.98,9.19-10.32v.04Z"/>
      <path class="cls-17" d="M449.94,202.41v40.62c-3.94-13.55-.63-27.06,0-40.62Z"/>
      <path class="cls-62" d="M157.27,286.67c-1.8,6.46-2.52,12.67,3.48,17.58-3.15,13.09-2.6,26.18.08,39.27-2.31,7.51-.97,15.19-.84,22.78.04,3.86-1.43,4.36-4.45,4.03-15.9-1.64-31.89-.71-47.79-.55-8.01.08-8.39.17-8.39-7.64v-68.06c0-2.56.29-5.16-1.22-7.47,2.01-2.1,4.66-1.93,7.18-1.93,14.94-.08,29.88-.08,44.77,0,2.52,0,5.16-.13,7.18,1.97Z"/>
      <path class="cls-47" d="M157.27,286.67h-59.12c-.71-6.34-1.3-12.63.29-18.92,20.85,0,41.71-.04,62.52-.08,0,.59.25,1.47,0,1.72-5.41,4.91-5.75,10.83-3.69,17.29Z"/>
      <path class="cls-62" d="M98.44,267.7c-.08,6.29-.21,12.63-.29,18.92-1.68-6.34-2.14-12.63.29-18.92Z"/>
      <path class="cls-14" d="M209.63,395.6c-.46-2.31.21-4.87-1.3-6.97,1.8-3.52.17-6.67-1.13-9.86,2.06-2.48,4.91-3.9,7.68-5.2,16.57-7.59,31.76-17.04,43.76-30.97.84-.97,1.93-1.85,3.02-1.01,2.06,1.59,1.64,4.2.67,5.92-2.77,4.95-5.62,9.94-9.15,14.35-10.49,13.13-22.53,24.55-37.22,33.02-2.22,1.3-3.99,2.48-6.34.71h0Z"/>
      <path class="cls-1" d="M421.66,223.73c-.84,2.01-1.64,4.03-2.48,6-2.64-7.09.76-13.68.84-20.56.55,0,1.09.04,1.64.08v14.48Z"/>
      <path class="cls-21" d="M246.6,258.09c2.01-3.19,5.5-3.19,7.85-1.85,6.42,3.65,14.06,3.11,20.48,6.63,4.28,2.39,8.81.71,13.22-.21,2.73.25,3.78,2.14,4.41,4.45-1.34,6.88-1.17,14.06-4.07,20.64-2.35,1.68-.97,3.19.13,4.78,2.85,4.2,3.31,8.48.08,12.76-1.01-.59-1.01-1.59-1.09-2.56-.5-6.38-3.94-9.94-10.24-11.04-6.34-1.13-11.62.17-15.74,5.41-2.48,3.19-3.4,7.39-6.76,10.36-1.05-2.94.59-4.91,1.26-7.09,1.51-5.04,2.52-9.82-2.73-13.68-3.23-2.39-2.48-6.38-2.48-9.86,0-1.89,1.17-4.11-.8-5.5-4.91-3.44-4.74-8.14-3.52-13.18v-.08Z"/>
      <path class="cls-38" d="M185.8,341.13c11.83-.8,24.71-3.19,37.13-7.85,1.93-.71,4.03-2.69,5.92-.5,2.22,2.52-.42,4.32-1.59,6.17-9.73,14.81-32.77,19.47-46.83,9.52-2.1-1.47-4.91-2.85-3.99-5.83.97-3.15,4.07-1.17,6.21-1.47.59-.08,1.17,0,3.15,0v-.04Z"/>
      <path class="cls-42" d="M219.54,278.95c5.96,0,11.83.17,16.32,4.95,1.34,1.43,2.98,3.02,1.89,5.16-1.17,2.27-3.4,1.47-5.25,1.05-4.95-1.09-9.73-3.11-14.9-3.36-4.15-.21-8.22.13-12.08,1.89-2.14.97-4.83,1.97-5.79-1.43-.84-2.94.71-4.78,3.57-5.79,5.29-1.8,10.74-2.27,16.28-2.48h-.04Z"/>
      <path class="cls-11" d="M216.52,306.26c-3.19-.34-5.92-1.09-5.66-4.83.25-3.52,2.69-5.37,5.96-5.25,3.19.13,6.92.97,6.88,4.95,0,4.45-4.32,4.28-7.22,5.12h.04Z"/>
      <path class="cls-31" d="M173.38,308.11c-3.02-.59-6.42-1.05-6.25-4.87.17-3.86,3.44-4.95,6.76-4.87,3.02.08,6.17.92,6.13,4.7-.08,4.15-3.65,4.41-6.63,5.04Z"/>
      <path class="cls-15" d="M195.49,329.47c-4.74,2.14-5.96-.97-6.21-4.53-.42-6.46,1.68-12.59,3.19-18.76,1.09,4.57-.76,8.81-1.34,13.22-.55,3.82-2.22,8.56,4.07,9.73l.29.38v-.04Z"/>
      <path class="cls-15" d="M195.2,329.09c2.9-2.18,5.87-3.23,9.11-.46-3.06-.88-5.83.84-8.77.8l-.29-.38-.04.04Z"/>
      <path class="cls-12" d="M470.71,144.8c-5.25,9.9-25.47,8.1-33.02,1.47,11.87,4.11,22.78,7.43,33.02-1.47Z"/>
      <path class="cls-4" d="M477.8,114.84c-5.96-5.5-11.62-5.75-17.54-4.03-1.09.34-2.31,1.09-2.94-.55-.38-1.01.13-1.8.97-2.56,4.99-4.41,16.83-1.09,19.51,7.09v.04Z"/>
      <path class="cls-40" d="M479.48,121.22c2.73-1.59,4.2-4.74,7.26-5.83-2.06,5.33-5.41,9.44-10.7,11.83,1.13-1.97,2.31-3.99,3.44-6Z"/>
      <path class="cls-66" d="M465.34,112.83c1.59.21,2.43,1.22,2.27,2.77-.17,1.47-1.13,2.56-2.64,2.69-1.59.13-2.69-.92-2.69-2.43,0-1.76,1.3-2.69,3.06-2.98v-.04Z"/>
      <path class="cls-66" d="M438.11,112.66c1.59.21,2.43,1.22,2.27,2.77-.17,1.47-1.13,2.56-2.64,2.69-1.59.13-2.69-.92-2.69-2.43,0-1.76,1.3-2.69,3.06-2.98v-.04Z"/>
      <path class="cls-24" d="M288.48,287.76c-.46-7.13.88-14.06,2.98-20.81.76-1.3,1.97-1.93,3.4-2.06,6.63-.59,13.26-.55,19.89,0,1.43.13,2.6.76,3.52,1.89.04,6.88.08,13.8.13,20.69-9.27-.34-18.63-2.01-27.82,1.01-.59.17-1.43-.42-2.1-.67v-.04Z"/>
      <path class="cls-34" d="M318.27,266.74c-8.94.08-17.88.13-26.81.21-1.09-1.43-2.22-2.85-3.31-4.28-2.64-2.39-.76-5.83-1.97-8.52.63-3.27,3.27-2.18,5.2-2.18,9.02.08,18.04.29,27.06.46.55,4.78.5,9.57-.13,14.35l-.04-.04Z"/>
      <path class="cls-63" d="M478.89,216.26c-.8-1.34-1.55-2.64-2.48-4.15-1.85,1.97-3.11,3.82-3.69,6.38,5.12-1.55,10.28-.25,15.53-1.59,2.64-.67,7.34,3.65,12,1.05.76-.42.88,1.43.42,2.14-.84,1.3-2.35,1.22-3.73,1.3-7.85.42-15.74-.71-23.54.63-1.89.34-1.72-.84-1.97-2.01-1.59-8.56-1.68-8.94,6.88-9.86,6.21-.67,12.59-.25,18.88-.21,1.97,0,4.45.42,3.94,3.15-.76,3.9-2.31-.08-3.52,0-5.5.38-10.99.29-16.53.34-1.97,0-.8,1.93-2.14,2.85h-.04Z"/>
      <path class="cls-36" d="M486.32,187.05c3.48.59,5.5,2.43,5.25,6-.21,2.98-2.18,4.78-5.04,4.57-3.15-.25-4.74-2.43-4.66-5.71.08-2.94,1.17-4.91,4.45-4.87Z"/>
    </g>
  </g>
</svg>