<?xml version="1.0" encoding="UTF-8"?>
<svg id="Layer_2" data-name="Layer 2" xmlns="http://www.w3.org/2000/svg" viewBox="0 0 756.11 642.78">
  <defs>
    <style>
      .cls-1 {
        fill: #538e7f;
      }

      .cls-1, .cls-2, .cls-3, .cls-4, .cls-5, .cls-6, .cls-7, .cls-8, .cls-9, .cls-10, .cls-11, .cls-12, .cls-13, .cls-14, .cls-15, .cls-16, .cls-17, .cls-18, .cls-19, .cls-20, .cls-21, .cls-22, .cls-23, .cls-24, .cls-25, .cls-26, .cls-27, .cls-28, .cls-29, .cls-30, .cls-31, .cls-32, .cls-33, .cls-34, .cls-35, .cls-36, .cls-37, .cls-38, .cls-39, .cls-40, .cls-41, .cls-42, .cls-43, .cls-44, .cls-45, .cls-46, .cls-47, .cls-48, .cls-49, .cls-50, .cls-51, .cls-52, .cls-53, .cls-54, .cls-55, .cls-56, .cls-57, .cls-58, .cls-59, .cls-60, .cls-61, .cls-62, .cls-63, .cls-64, .cls-65, .cls-66, .cls-67, .cls-68, .cls-69, .cls-70, .cls-71, .cls-72, .cls-73, .cls-74, .cls-75, .cls-76, .cls-77, .cls-78, .cls-79, .cls-80, .cls-81, .cls-82, .cls-83, .cls-84, .cls-85, .cls-86, .cls-87, .cls-88, .cls-89, .cls-90, .cls-91, .cls-92, .cls-93, .cls-94, .cls-95, .cls-96, .cls-97, .cls-98, .cls-99, .cls-100, .cls-101, .cls-102, .cls-103, .cls-104, .cls-105, .cls-106, .cls-107, .cls-108, .cls-109, .cls-110, .cls-111, .cls-112, .cls-113, .cls-114, .cls-115, .cls-116, .cls-117, .cls-118, .cls-119, .cls-120, .cls-121, .cls-122, .cls-123, .cls-124, .cls-125, .cls-126, .cls-127, .cls-128, .cls-129, .cls-130, .cls-131, .cls-132, .cls-133, .cls-134, .cls-135, .cls-136, .cls-137, .cls-138 {
        stroke-width: 0px;
      }

      .cls-2 {
        fill: #f5b7b0;
      }

      .cls-3 {
        fill: #3b2e2d;
      }

      .cls-4 {
        fill: #f4b9b2;
      }

      .cls-5 {
        fill: #466787;
      }

      .cls-6 {
        fill: #f9e8de;
      }

      .cls-7 {
        fill: #7d4347;
      }

      .cls-8 {
        fill: #9e5539;
      }

      .cls-9 {
        fill: #f2e4cf;
      }

      .cls-10 {
        fill: #735452;
      }

      .cls-11 {
        fill: #273c38;
      }

      .cls-12 {
        fill: #f8deb6;
      }

      .cls-13 {
        fill: #dc7568;
      }

      .cls-14 {
        fill: #f5f1e0;
      }

      .cls-15 {
        fill: #31385f;
      }

      .cls-16 {
        fill: #fdfdfd;
      }

      .cls-17 {
        fill: #97c8af;
      }

      .cls-18 {
        fill: #2e3731;
      }

      .cls-19 {
        fill: #f2b9ad;
      }

      .cls-20 {
        fill: #406791;
      }

      .cls-21 {
        fill: #807b87;
      }

      .cls-22 {
        fill: #ce855e;
      }

      .cls-23 {
        fill: #fdf8f0;
      }

      .cls-24 {
        fill: #df5763;
      }

      .cls-25 {
        fill: #efdbc5;
      }

      .cls-26 {
        fill: #f1b6a8;
      }

      .cls-27 {
        fill: #333a62;
      }

      .cls-28 {
        fill: #f3ab53;
      }

      .cls-29 {
        fill: #a9c2cb;
      }

      .cls-30 {
        fill: #efeced;
      }

      .cls-31 {
        fill: #443736;
      }

      .cls-32 {
        fill: #ed8b4f;
      }

      .cls-33 {
        fill: #d06f6a;
      }

      .cls-34 {
        fill: #658693;
      }

      .cls-35 {
        fill: #3d8f8f;
      }

      .cls-36 {
        fill: #d5a87e;
      }

      .cls-37 {
        fill: #43574c;
      }

      .cls-38 {
        fill: #f0f6f2;
      }

      .cls-39 {
        fill: #3b6c8f;
      }

      .cls-40 {
        fill: #f1e7d5;
      }

      .cls-41 {
        fill: #3d3942;
      }

      .cls-42 {
        fill: #3b3032;
      }

      .cls-43 {
        fill: #53848f;
      }

      .cls-44 {
        fill: #9bb07e;
      }

      .cls-45 {
        fill: #332930;
      }

      .cls-46 {
        fill: #e4b464;
      }

      .cls-47 {
        fill: #2f201b;
      }

      .cls-48 {
        fill: #8fb9c2;
      }

      .cls-49 {
        fill: #eba373;
      }

      .cls-50 {
        fill: #f4b1aa;
      }

      .cls-51 {
        fill: #dfb077;
      }

      .cls-52 {
        fill: #393b4e;
      }

      .cls-53 {
        fill: #302f3b;
      }

      .cls-54 {
        fill: #f9c47f;
      }

      .cls-55 {
        fill: #594d4f;
      }

      .cls-56 {
        fill: #d1aba8;
      }

      .cls-57 {
        fill: #3e6792;
      }

      .cls-58 {
        fill: #438075;
      }

      .cls-59 {
        fill: #456683;
      }

      .cls-60 {
        fill: #473741;
      }

      .cls-61 {
        fill: #f5b6ad;
      }

      .cls-62 {
        fill: #7e4751;
      }

      .cls-63 {
        fill: #dde3ea;
      }

      .cls-64 {
        fill: #4d749a;
      }

      .cls-65 {
        fill: #ba6a6d;
      }

      .cls-66 {
        fill: #ea8c4c;
      }

      .cls-67 {
        fill: #688a94;
      }

      .cls-68 {
        fill: #b97d68;
      }

      .cls-69 {
        fill: #323960;
      }

      .cls-70 {
        fill: #2f375e;
      }

      .cls-71 {
        fill: #ed8462;
      }

      .cls-72 {
        fill: #f2ac57;
      }

      .cls-73 {
        fill: #d2565a;
      }

      .cls-74 {
        fill: #2a4235;
      }

      .cls-75 {
        fill: #373343;
      }

      .cls-76 {
        fill: #3da09c;
      }

      .cls-77 {
        fill: #3a3441;
      }

      .cls-78 {
        fill: #f0f5f4;
      }

      .cls-79 {
        fill: #eea963;
      }

      .cls-80 {
        fill: #b7bfca;
      }

      .cls-81 {
        fill: #263b3b;
      }

      .cls-82 {
        fill: #e7b46a;
      }

      .cls-83 {
        fill: #51858b;
      }

      .cls-84 {
        fill: #f6c65c;
      }

      .cls-85 {
        fill: #f0b6a6;
      }

      .cls-86 {
        fill: #2d393c;
      }

      .cls-87 {
        fill: #887774;
      }

      .cls-88 {
        fill: #f6bbaf;
      }

      .cls-89 {
        fill: #de6e67;
      }

      .cls-90 {
        fill: #574a58;
      }

      .cls-91 {
        fill: #ed9e53;
      }

      .cls-92 {
        fill: #f5b5b0;
      }

      .cls-93 {
        fill: #534147;
      }

      .cls-94 {
        fill: #70a092;
      }

      .cls-95 {
        fill: #55907f;
      }

      .cls-96 {
        fill: #b34e5e;
      }

      .cls-97 {
        fill: #74a1c0;
      }

      .cls-98 {
        fill: #f3e4c5;
      }

      .cls-99 {
        fill: #5c4c50;
      }

      .cls-100 {
        fill: #4f7e9c;
      }

      .cls-101 {
        fill: #f4b7b1;
      }

      .cls-102 {
        fill: #303e42;
      }

      .cls-103 {
        fill: #f9f6f4;
      }

      .cls-104 {
        fill: #faf6ee;
      }

      .cls-105 {
        fill: #f2ebb4;
      }

      .cls-106 {
        fill: #6b474b;
      }

      .cls-107 {
        fill: #e9f0f2;
      }

      .cls-108 {
        fill: #ed866e;
      }

      .cls-109 {
        fill: #f2f7f8;
      }

      .cls-110 {
        fill: #43628c;
      }

      .cls-111 {
        fill: #f5eae7;
      }

      .cls-112 {
        fill: #db7371;
      }

      .cls-113 {
        fill: #eeb95c;
      }

      .cls-114 {
        fill: #457598;
      }

      .cls-115 {
        fill: #3e6791;
      }

      .cls-116 {
        fill: #4f749b;
      }

      .cls-117 {
        fill: #eff0e3;
      }

      .cls-118 {
        fill: #e6a487;
      }

      .cls-119 {
        fill: #fbf7f2;
      }

      .cls-120 {
        fill: #f3aea6;
      }

      .cls-121 {
        fill: #573f4f;
      }

      .cls-122 {
        fill: #ede5ed;
      }

      .cls-123 {
        fill: #352d3b;
      }

      .cls-124 {
        fill: #f5b5af;
      }

      .cls-125 {
        fill: #4b464f;
      }

      .cls-126 {
        fill: #f4afa7;
      }

      .cls-127 {
        fill: #e9a375;
      }

      .cls-128 {
        fill: #358c87;
      }

      .cls-129 {
        fill: #348387;
      }

      .cls-130 {
        fill: #2e2f3a;
      }

      .cls-131 {
        fill: #ededdb;
      }

      .cls-132 {
        fill: #f18b52;
      }

      .cls-133 {
        fill: #dfa75c;
      }

      .cls-134 {
        fill: #f5b5ab;
      }

      .cls-135 {
        fill: #c7734b;
      }

      .cls-136 {
        fill: #fbf1f0;
      }

      .cls-137 {
        fill: #3e313a;
      }

      .cls-138 {
        fill: #b39683;
      }
    </style>
  </defs>
  <g id="illustrazioni">
    <g>
      <g>
        <path class="cls-72" d="M254.21,401.75c-6.81-11.71-8.3-24.77-9.48-37.79-2.14-24.25,0-48.05,6.55-71.69,10-36.13,17.61-72.95,31.89-107.82,1.14-2.75,2.4-5.46,3.89-7.99,12.58-21.32,32.76-21.45,45.39.04,7.73,13.11,12.97,27.39,17.21,42.03-1.31,3.23-4.72,4.11-6.99,6.2-6.47,5.77-11.88,12.58-18.48,18.22-2.71,2.27-5.81,5.5-9.39,4.06-4.11-1.66-2.1-6.29-2.49-9.65-.17-1.7-.04-3.45-.09-5.15,1.62,46.48.74,93.01,1.09,139.49,0,3.45.83,7.95-2.88,9.7-4.11,1.88-7.16-1.7-10.05-4.19-3.71-3.19-6.12-7.69-10.48-10.31,3.98,6.29,8.56,12.14,13.85,17.21,6.12,5.9,8.82,12.63,7.91,20.88-.83,7.47,2.58,15.55-3.06,22.41-19.09,4.72-46-7.95-54.43-25.6l.04-.04Z"/>
        <path class="cls-66" d="M379.02,304.2c2.62,27,3.49,53.95-1.83,80.77-1.75,3.41-4.89,4.19-8.3,4.24-9.26.09-18.57.09-26.65-5.5-2.45-2.58-1.35-5.11.61-7.08,6.95-6.95,12.76-14.9,18.96-20.58-6.16,3.23-10.22,12.06-19.4,13.5-6.99-5.24-16.95-4.06-23.28-10.79-1.14-3.93-.44-7.86.04-11.75,2.71-7.91-.96-15.77-.09-23.72.96-8.82,7.73-16.25,16.51-16.82,4.89-.31,8.91.79,10.4,6.2,1.66,5.02,4.11,10.18-2.84,13.8,3.58,3.36,7.03,4.85,12.67,2.45-15.46-9.31.39-14.68,1.88-22.1-.92.87-1.35,1.92-2.1,2.71-5.85,6.03-7.03,5.81-10-1.92-.52-1.35-1.49-2.62-1.31-4.19,5.46-4.41,11.49-8.04,16.91-12.54,3.54-2.88,7.86-4.24,12.19-.87,1.83,4.72,3.71,9.44,5.55,14.2h.09Z"/>
        <path class="cls-91" d="M373.42,290c-5.37-.87-10.4.66-13.67,4.54-4.15,4.94-9.48,7.38-14.98,9.92,2.05,3.1,2.75,6.16-.48,9-1.57-6.47-7.21-5.94-11.01-4.59-5.24,1.88-11.88,4.67-11.49,11.66.39,7.12-3.06,14.77,2.53,21.62,1.4,1.75-2.36,3.58-3.76,5.33-3.98-2.18-3.15-6.12-3.23-9.52-.66-22.89-1.7-45.78-3.45-68.63-.39-5.07,1.4-9.26,3.93-13.41,7.38-11.97,15.99-22.98,24.94-33.73,1.57-2.66,4.89-2.01,6.99-3.76,8.69,23.59,17.39,47.18,23.72,71.51l-.04.04Z"/>
        <path class="cls-28" d="M370.06,404.59c-.92.74-2.05,1.35-2.66,2.32-9.57,15.64-24.16,20.53-41.5,19.61-8.08-17.52-1.35-36.96,15.51-45,11.53,5.11,23.33,7.47,35.73,3.45-.57,2.27-1.18,4.54-1.75,6.81-.13,4.98.09,10.09-5.37,12.8h.04Z"/>
        <path class="cls-117" d="M370.06,404.59c1.79-4.28,3.58-8.52,5.37-12.8,1.22,3.15,2.45,6.25,3.67,9.39.26,9.87-4.76,5.72-9.04,3.41h0Z"/>
        <path class="cls-7" d="M341.45,381.56c-14.07,11.93-19.57,26.78-15.55,45,.57,13.06,1.18,26.12,1.75,39.23-.09,1.79-.22,3.58-.22,5.33,0,4.46,3.19,10.83-3.41,12.1-6.12,1.18-13.98,3.84-18.09-4.76.26-.44.31-.92.17-1.4,1.83-7.21-.39-14.63,1.14-21.84.09-9.57.17-19.13.26-28.75,3.01-10.48.83-21.27,1.88-31.89.26-2.49-2.4-3.1-3.71-4.59-6.6-7.3-13.15-14.63-19.44-22.15-1.18-1.4-4.5-3.32-.87-5.68,2.27-1.44,4.19-1.14,6.2,1.09,5.59,6.12,10.09,13.37,18.61,18.04-.17-52.82-.31-104.98-.48-157.14,2.13,1.02,3.96,8.33,5.5,21.93,11.27-5.85,17.43-17.17,27.57-23.76-6.16,12.8-15.77,23.37-23.2,35.34-1.75,2.8-3.63,5.15-3.41,8.87,1.57,27.04,2.97,54.08,4.41,81.08,1.22,3.67-.09,7.16-.74,10.66,2.01,8.56.39,17.43,1.09,27.43,8.3-6.07,12.8-14.85,22.28-16.73,8.39-6.64,16.73-13.28,25.12-19.92.35.44.74.87,1.09,1.31-9.31,10.4-18.61,20.84-27.96,31.24v-.04Z"/>
        <path class="cls-103" d="M292.47,351.77c-7.21-3.15-11.1-12.97-7.78-19.53.48-.92,1.44-1.92,2.36-2.18,1.31-.35,2.1.83,2.36,2.05,1.4,6.47,5.11,12.58,3.06,19.66h0Z"/>
        <path class="cls-8" d="M309.03,179.08c4.24,12.58,2.66,25.64,2.8,38.57-4.98-12.49-2.4-25.69-2.8-38.57Z"/>
        <path class="cls-104" d="M271.37,331.41c4.28-.09,11.53,10.7,9.83,14.77-.52,1.22-1.57,3.45-2.97,1.83-3.58-4.24-6.9-8.78-9.74-13.54-1.35-2.23,1-2.84,2.88-3.01v-.04Z"/>
        <path class="cls-98" d="M271.81,346.88c-6.73,1.7-11.4.44-16.91-2.23,6.12-3.71,10.75-2.01,16.91,2.23Z"/>
        <path class="cls-44" d="M307.24,455.17c.09,7.3,1.27,14.68-1.14,21.84.09-7.3-1.7-14.68,1.14-21.84Z"/>
        <path class="cls-113" d="M343.15,368.9c-5.81,6.29-14.2,9.96-18.22,18.13-.83,1.7-2.62,2.4-4.59,2.1-2.32-.35-2.75-2.23-2.62-4.02.61-8.96,1.35-17.91,2.05-26.87,7.16,4.94,17.69,2.58,23.37,10.7v-.04Z"/>
        <path class="cls-25" d="M344.29,313.46c.17-3.01.31-5.98.48-9,5.42.31,2.75,4.98,4.28,7.78,4.67-1.4,6.38-5.5,8.17-9.39.79-1.7,1.97-2.27,3.49-1.66,1.92.79,1.35,2.32.61,3.67-2.27,4.15-3.84,8.82-7.56,12.01-4.02,3.45-7.51,6.33,1.53,6.95,5.9.39,4.02,4.19,2.18,6.9-3.23,4.76-7.51,1.44-11.36.87-3.63-.57-6.38-2.4-6.38-6.25-.04-6.12,3.32-4.28,7.43-.83-1.27-4.85-2.05-7.95-2.88-11.1v.04Z"/>
        <path class="cls-9" d="M340.97,265.4c-1.49,5.11-10.4,9.17,1.53,12.93-4.32,3.54-7.12,7.78-12.58,7.16-2.18-.22-4.28-1.22-3.71-3.89.61-2.97,2.49-1.18,4.06-.7,1.62.48,3.8,1.27,4.19-1.22.31-1.83-1.05-3.15-3.28-3.15-5.24,0-2.58-2.71-1-3.93,3.41-2.66,7.16-4.81,10.79-7.21Z"/>
      </g>
      <g>
        <path class="cls-84" d="M432.84,297.51c79.73-405.58,215.28,193,88.94,111.09-7.12,1.44-2.97-4.02-2.75-6.86.35-9.13,10.75-1.97,15.6-3.76-16.38-.74,2.1-9.92,6.9-15.9-8.65,2.36-14.46,7.43-21.49,9.48-8.56,2.14-5.9,14.46-17.12,14.63-11.88-11.88-4.5-41.2,13.06-43.9-45.78,11.45,1.88-69.2,20.4-77.02-23.37,9.79-4.85,15.73-34.86,31.45-10-.66-8.61-49.98,8.69-50.72-28.96,8.74-9.96-44.47-14.77-56.35-3.71,30.67,13.11,96.81-34.86,42.59,28.66,21.93,36.65,54.26,31.72,89.51-.13,21.27-22.41-4.81-30.75-6.55,34.64,23.11,31.02,64,25.82,100.13-74.05,5.94-56.97-90.21-54.48-137.83h-.04Z"/>
        <path class="cls-62" d="M502.91,473.13c.17,6.07-2.23,9.65-8.82,9.52-21.01,1.4-11.1-28.31-11.58-41.54,10.97-39.67,9-85.06-28.4-110.96,12.63,3.89,23.2,11.4,34.25,19.31,9.57-45.78-4.28-70.16-33.51-103.71,58.93,58.8,30.89-4.28,39.27-48.75,13.37,21.62-16.99,79.94,25.25,65.35-25.86,10.83-20.49,29.75-20.4,53.56,3.58-.7,4.19-3.28,5.07-5.29,1.49-9.57,7.08,2.14,11.88-5.29,14.2-16.43,3.23,7.69-4.24,12.19-13.89,11.58-11.31,26.82-11.1,41.76.83,9.74,11.27-1.31,17.17,1.49-16.56,13.11-25.99,26.91-13.59,44.69-3.89,22.1,4.5,45.96-1.22,67.58l-.04.09Z"/>
        <path class="cls-79" d="M518.59,390.96c19.27-14.68,41.54-15.12,9.39,4.85,5.11.35,8.78.57,14.68.96-8.08,4.98-28.66,4.89-24.07-5.81Z"/>
        <path class="cls-79" d="M503.83,406.6c2.45-6.81,13.46-10.57,18.35-5.07-1,1.75-2.05,3.45-4.24,7.16,11.23-7.56,28.18-1.57,25.86,10.83-12.63-2.53-26.87-8.78-39.97-12.97v.04Z"/>
        <path class="cls-135" d="M524.01,301.27c-12.06-14.77,10.4-14.33,18.57-22.72-2.49,11.45-18,11.4-18.57,22.72Z"/>
        <path class="cls-105" d="M522.17,401.57c-8.61,1.35-17.26-11.53-3.58-10.62-.83,4.15,2.4,6.95,3.58,10.62Z"/>
        <path class="cls-84" d="M503.83,406.6c4.46-1.92,8.56-3.06,12.14,1.92,8.3,5.46,20.62,2.1,27.83,11.05-12.84,8.65-26.65,14.81-42.24,16.51,1.62-8.96-4.67-23.42,2.27-29.49Z"/>
      </g>
      <g>
        <path class="cls-72" d="M424.8,432.24c-10.88-18.65-13.28-39.62-15.12-60.42-3.45-38.71,0-76.76,10.44-114.5,15.99-57.75,28.13-116.6,50.98-172.25,1.79-4.37,3.84-8.74,6.25-12.8,20.05-34.03,52.38-34.25,72.52.09,12.32,20.97,20.71,43.77,27.52,67.14-2.05,5.2-7.51,6.55-11.18,9.92-10.31,9.22-19,20.14-29.53,29.09-4.32,3.67-9.26,8.78-14.98,6.47-6.55-2.66-3.36-10.05-3.98-15.42-.31-2.71-.09-5.5-.13-8.26,2.62,74.27,1.22,148.57,1.75,222.88,0,5.55,1.35,12.71-4.59,15.46-6.55,3.01-11.4-2.71-16.08-6.68-5.94-5.07-9.79-12.32-16.73-16.47,6.33,10.05,13.67,19.4,22.1,27.52,9.79,9.39,14.07,20.18,12.67,33.33-1.31,11.97,4.15,24.86-4.85,35.78-30.54,7.51-73.52-12.71-86.98-40.85l-.09-.04Z"/>
        <path class="cls-66" d="M624.18,276.37c4.24,43.12,5.59,86.19-2.88,129.05-2.8,5.42-7.82,6.73-13.24,6.77-14.81.13-29.66.13-42.59-8.78-3.89-4.11-2.18-8.17.96-11.36,11.05-11.1,20.36-23.81,30.32-32.9-9.83,5.2-16.34,19.27-30.97,21.58-11.14-8.39-27.09-6.51-37.18-17.26-1.83-6.29-.7-12.54.09-18.78,4.37-12.63-1.53-25.16-.13-37.92,1.57-14.15,12.36-25.99,26.43-26.87,7.82-.48,14.29,1.27,16.6,9.92,2.66,8.04,6.6,16.25-4.54,22.06,5.72,5.37,11.27,7.78,20.23,3.89-24.73-14.9.66-23.42,3.01-35.3-1.44,1.4-2.14,3.1-3.36,4.37-9.31,9.65-11.23,9.31-15.95-3.06-.83-2.18-2.36-4.15-2.14-6.73,8.69-7.08,18.35-12.84,27.04-20.01,5.64-4.63,12.54-6.81,19.44-1.4,2.97,7.56,5.94,15.12,8.87,22.67v.04Z"/>
        <path class="cls-91" d="M615.27,253.7c-8.56-1.35-16.6,1.05-21.84,7.3-6.64,7.91-15.16,11.8-23.98,15.81,3.28,4.98,4.37,9.83-.74,14.33-2.53-10.35-11.53-9.48-17.61-7.3-8.39,3.01-19,7.43-18.35,18.65.66,11.4-4.89,23.59,4.06,34.51,2.27,2.75-3.76,5.72-6.03,8.56-6.38-3.49-4.98-9.79-5.15-15.2-1.05-36.61-2.71-73.17-5.55-109.65-.61-8.08,2.23-14.81,6.29-21.45,11.75-19.09,25.51-36.7,39.84-53.91,2.49-4.28,7.82-3.23,11.14-5.98,13.89,37.66,27.74,75.36,37.92,114.28v.04Z"/>
        <path class="cls-28" d="M609.85,436.78c-1.44,1.22-3.32,2.14-4.24,3.67-15.25,24.99-38.57,32.81-66.31,31.37-12.89-27.96-2.18-59.06,24.81-71.86,18.44,8.17,37.26,11.97,57.14,5.5-.96,3.63-1.88,7.3-2.84,10.92-.17,7.95.17,16.08-8.61,20.44l.04-.04Z"/>
        <path class="cls-117" d="M609.85,436.78c2.88-6.81,5.72-13.63,8.61-20.44,1.97,4.98,3.93,10,5.9,14.98.39,15.81-7.6,9.13-14.46,5.42l-.04.04Z"/>
        <path class="cls-7" d="M564.16,399.96c-22.45,19.05-31.28,42.81-24.81,71.86.92,20.88,1.88,41.76,2.8,62.65-.13,2.84-.31,5.68-.35,8.56-.04,7.08,5.11,17.3-5.46,19.31-9.79,1.88-22.32,6.12-28.88-7.64.44-.7.52-1.44.26-2.23,2.93-11.49-.66-23.37,1.83-34.9.13-15.29.26-30.58.39-45.91,4.81-16.73,1.31-33.99,2.97-50.94.39-4.02-3.8-4.98-5.94-7.34-10.53-11.66-20.97-23.37-31.1-35.43-1.88-2.23-7.21-5.33-1.4-9.09,3.63-2.32,6.68-1.79,9.92,1.75,8.91,9.79,16.08,21.36,29.75,28.83-.26-84.4-.52-167.71-.74-251.06,3.41,1.63,6.33,13.31,8.78,35.04,18-9.35,27.87-27.43,44.04-37.96-9.87,20.44-25.21,37.35-37.09,56.49-2.75,4.46-5.77,8.26-5.46,14.15,2.53,43.16,4.76,86.37,7.03,129.57,1.97,5.85-.17,11.4-1.22,17.04,3.23,13.72.61,27.83,1.75,43.82,13.24-9.7,20.49-23.72,35.56-26.74,13.37-10.62,26.74-21.23,40.1-31.85.61.7,1.18,1.4,1.79,2.1-14.9,16.64-29.75,33.29-44.65,49.93h.13Z"/>
        <path class="cls-103" d="M485.91,352.34c-11.49-5.07-17.69-20.71-12.41-31.15.74-1.49,2.32-3.06,3.8-3.49,2.05-.57,3.32,1.31,3.76,3.28,2.23,10.31,8.17,20.1,4.85,31.37h0Z"/>
        <path class="cls-8" d="M512.39,76.46c6.77,20.1,4.24,40.98,4.46,61.64-7.95-20.01-3.8-41.02-4.46-61.64Z"/>
        <path class="cls-104" d="M452.19,319.84c6.86-.17,18.44,17.08,15.73,23.59-.83,1.97-2.53,5.5-4.72,2.93-5.72-6.77-11.01-14.07-15.6-21.67-2.14-3.54,1.62-4.54,4.59-4.81v-.04Z"/>
        <path class="cls-98" d="M452.93,344.52c-10.75,2.71-18.26.66-27-3.58,9.79-5.94,17.17-3.19,27,3.58Z"/>
        <path class="cls-44" d="M509.55,517.56c.13,11.66,2.01,23.42-1.83,34.9.17-11.66-2.71-23.46,1.83-34.9Z"/>
        <path class="cls-113" d="M566.91,379.73c-9.31,10-22.72,15.9-29.09,28.96-1.31,2.71-4.19,3.84-7.34,3.32-3.67-.61-4.41-3.58-4.19-6.42.96-14.33,2.18-28.61,3.28-42.94,11.45,7.86,28.22,4.06,37.35,17.08Z"/>
        <path class="cls-25" d="M568.7,291.18c.26-4.76.52-9.57.74-14.33,8.69.44,4.41,7.99,6.86,12.45,7.51-2.23,10.18-8.82,13.06-14.98,1.27-2.71,3.15-3.67,5.59-2.66,3.06,1.22,2.14,3.71.96,5.9-3.58,6.68-6.12,14.07-12.06,19.18-6.42,5.5-12.01,10.14,2.45,11.1,9.44.66,6.47,6.68,3.54,11.01-5.11,7.6-11.97,2.32-18.17,1.4-5.81-.87-10.18-3.8-10.22-10-.09-9.79,5.33-6.81,11.84-1.31-2.01-7.73-3.28-12.71-4.59-17.69v-.04Z"/>
        <path class="cls-9" d="M563.41,214.38c-2.4,8.17-16.64,14.68,2.45,20.62-6.9,5.64-11.36,12.45-20.1,11.49-3.45-.39-6.86-1.97-5.98-6.2,1-4.72,3.98-1.92,6.51-1.14,2.58.79,6.07,2.05,6.73-1.97.44-2.93-1.66-5.07-5.24-5.02-8.39,0-4.11-4.32-1.57-6.29,5.42-4.24,11.45-7.69,17.21-11.49Z"/>
      </g>
      <g>
        <path class="cls-84" d="M96.85,314.94c79.73-405.58,215.28,193,88.94,111.09-7.12,1.44-2.97-4.02-2.75-6.86.35-9.13,10.75-1.97,15.6-3.76-16.38-.74,2.1-9.92,6.9-15.9-8.65,2.36-14.46,7.43-21.49,9.48-8.56,2.14-5.9,14.46-17.12,14.63-11.88-11.88-4.5-41.2,13.06-43.9-45.78,11.45,1.88-69.2,20.4-77.02-23.37,9.79-4.85,15.73-34.86,31.45-10-.66-8.61-49.98,8.69-50.72-28.96,8.74-9.96-44.47-14.77-56.35-3.71,30.67,13.11,96.81-34.86,42.59,28.66,21.93,36.65,54.26,31.72,89.51-.13,21.27-22.41-4.81-30.75-6.55,34.64,23.11,31.02,64,25.82,100.13-74.05,5.94-56.97-90.21-54.48-137.83h-.04Z"/>
        <path class="cls-62" d="M166.97,490.56c.17,6.07-2.23,9.65-8.82,9.52-21.01,1.4-11.1-28.31-11.58-41.54,10.97-39.67,9-85.06-28.4-110.96,12.63,3.89,23.2,11.4,34.25,19.31,9.57-45.78-4.28-70.16-33.51-103.71,58.93,58.8,30.89-4.28,39.27-48.75,13.37,21.62-16.99,79.94,25.25,65.35-25.86,10.83-20.49,29.75-20.4,53.56,3.58-.7,4.19-3.28,5.07-5.29,1.49-9.57,7.08,2.14,11.88-5.29,14.2-16.43,3.23,7.69-4.24,12.19-13.89,11.58-11.31,26.82-11.1,41.76.83,9.74,11.27-1.31,17.17,1.49-16.56,13.11-25.99,26.91-13.59,44.69-3.89,22.1,4.5,45.96-1.22,67.58l-.04.09Z"/>
        <path class="cls-79" d="M182.65,408.39c19.27-14.68,41.54-15.12,9.39,4.85,5.11.35,8.78.57,14.68.96-8.08,4.98-28.66,4.89-24.07-5.81Z"/>
        <path class="cls-79" d="M167.88,424.03c2.45-6.81,13.46-10.57,18.35-5.07-1,1.75-2.05,3.45-4.24,7.16,11.23-7.56,28.18-1.57,25.86,10.83-12.63-2.53-26.87-8.78-39.97-12.97v.04Z"/>
        <path class="cls-135" d="M188.02,318.7c-12.06-14.77,10.4-14.33,18.57-22.72-2.49,11.45-18,11.4-18.57,22.72Z"/>
        <path class="cls-105" d="M186.19,419c-8.61,1.35-17.26-11.53-3.58-10.62-.83,4.15,2.4,6.95,3.58,10.62Z"/>
        <path class="cls-84" d="M167.88,424.03c4.46-1.92,8.56-3.06,12.14,1.92,8.3,5.46,20.62,2.1,27.83,11.05-12.84,8.65-26.65,14.81-42.24,16.51,1.62-8.96-4.67-23.42,2.27-29.49Z"/>
      </g>
      <path class="cls-17" d="M96.28,127.1c3.23-.96,5.02-3.63,8.17-3.93,9.31-.92,17.17,8.3,13.89,17.34-1.88,5.2.26,5.2,3.89,4.67,11.53-1.66,23.11.22,34.73-.92,3.06-.31,6.95-.09,10.44.22.92.09,1.92,0,1.97,1.27.04,1.18-.74,1.53-1.75,1.57-2.01.04-4.02.13-6.03.13-40.5,0-80.99.22-121.45-.22-12.06-.13-24.16-.61-36.22-.57-1.18,0-2.58.44-3.93-2.23,8.65,2.23,14.9-9,24.33-1.05-.04-8.82.48-16.47,7.08-21.76,6.99-5.64,14.2-4.59,21.27.39,2.32-17.56,9.35-25.51,21.8-25.25,12.76.26,20.36,10.7,21.84,30.32h-.04Z"/>
      <path class="cls-14" d="M210.83,176.85c-18.3,1.92-36.26,1.97-54.48.48,3.28-4.67,5.37-10.18,11.97-10.66.48,0,.96-1.4,1.27-2.23,2.49-6.86,8.13-11.36,14.37-11.36,6.68,0,12.84,5.24,15.73,12.23,2.05,4.94,7.43,7.21,11.1,11.53h.04Z"/>
      <path class="cls-131" d="M16.38,172.7c1.79-1.97,3.8-3.8-.79-4.46-3.28-.48-4.11-2.36-1.62-5.37,8.3-10.09,24.51-8.78,32.76-2.32,3.32,2.62,5.2,7.25,11.05,6.33,1.83-.31,4.54,2.8,6.25,4.85,1.31,1.62-.74,2.18-1.92,2.18-12.06,0-24.11.09-36.17-.48-3.01-.13-6.12-.17-9.61-.74h.04Z"/>
      <path class="cls-17" d="M641.57,92.72c3.23-.96,5.02-3.63,8.17-3.93,9.31-.92,17.17,8.3,13.89,17.34-1.88,5.2.26,5.2,3.89,4.67,11.53-1.66,23.11.22,34.73-.92,3.06-.31,6.95-.09,10.44.22.92.09,1.92,0,1.97,1.27.04,1.18-.74,1.53-1.75,1.57-2.01.04-4.02.13-6.03.13-40.5,0-80.99.22-121.45-.22-12.06-.13-24.16-.61-36.22-.57-1.18,0-2.58.44-3.93-2.23,8.65,2.23,14.9-9,24.33-1.05-.04-8.82.48-16.47,7.08-21.76,6.99-5.64,14.2-4.59,21.27.39,2.32-17.56,9.35-25.51,21.8-25.25,12.76.26,20.36,10.7,21.84,30.32h-.04Z"/>
      <path class="cls-14" d="M756.11,142.47c-18.3,1.92-36.26,1.97-54.48.48,3.28-4.67,5.37-10.18,11.97-10.66.48,0,.96-1.4,1.27-2.23,2.49-6.86,8.13-11.36,14.37-11.36,6.68,0,12.84,5.24,15.73,12.23,2.05,4.94,7.43,7.21,11.1,11.53h.04Z"/>
      <path class="cls-131" d="M561.67,138.28c1.79-1.97,3.8-3.8-.79-4.46-3.28-.48-4.11-2.36-1.62-5.37,8.3-10.09,24.51-8.78,32.76-2.32,3.32,2.62,5.2,7.25,11.05,6.33,1.83-.31,4.54,2.8,6.25,4.85,1.31,1.62-.74,2.18-1.92,2.18-12.06,0-24.11.09-36.17-.48-3.01-.13-6.12-.17-9.61-.74h.04Z"/>
      <g>
        <path class="cls-128" d="M529.86,9.67c0,7.69-.61,15.25-4.59,22.06-4.5,7.78-10.7,13.32-20.14,14.24-.39,0-.74.35-1.14.52-.39.35-.79.35-1.22.09-2.14-.26-4.28-.57-6.38-.83,1.18-1.44,2.14-2.75,1.57-4.94-.39-1.44,1.22-2.62,2.23-3.71,2.4-1.22,5.11-1.44,7.56-2.53,4.89-2.14,9.31-4.85,10.53-10.62.44-2.36-.22-4.46-1.75-6.25-.61-.74-1.27-1.49-1.27-2.53.52-2.14,2.05-2.84,4.06-2.66,1.92.17,3.8.31,5.72-.04.26-.17.52-.31.74-.48,1.49-.57,2.14-2.45,4.02-2.32h.04Z"/>
        <path class="cls-16" d="M519.03,24.04c-.52,4.98-4.15,7.56-7.91,9.87-3.32,2.05-7.12,2.88-10.88,3.63-1.09,1-2.23,1.62-3.71.87-1.18-1.66.26-2.27,1.31-2.88,1.97-1.09,3.98-2.1,5.68-3.58.39-.48,1.14-.61,1.35-1.22-1.79-.96-3.23.09-4.72.87-4.02,2.01-8.08,4.02-12.28,5.68-.83.17-1.62.09-2.14-.7-.09-.31-.13-.61-.09-.92,2.49-2.66,6.12-3.76,8.82-6.12,1-.87,2.84-1.09,2.71-3.01-.39-.39-.7-.83-.87-1.35-.09-.7-.61-1.44.31-1.92h.22c.92-.7,1.97-.92,3.06-.66,5.59,1.22,11.27,1.05,16.95.96.74,0,1.49,0,2.14.52l.04-.04Z"/>
        <path class="cls-132" d="M519.03,24.04c-6.03,1-12.06.57-18.09-.31-1.35-.17-2.71-.39-4.06-.61,1.31-2.8,3.89-4.28,6.2-6.07.92-.7,1.83-1.44,2.75-2.14,3.41-1.31,6.73-2.01,9.92.52,2.27,2.4,4.32,4.89,3.28,8.56v.04Z"/>
        <path class="cls-35" d="M485.96,36.36c.52.61,1.27.31,1.92.44.44-.26.96-.26,1.44-.26,1.62.17,3.28,0,4.94.26.87.13,1.53.66,2.14,1.22,1.31-.13,2.58-.31,3.89-.44-.61,1.88-2.58,3.23-.96,5.9,1.09,1.79-2.05,1.31-2.93,2.36-4.28-.52-8.17-2.18-11.84-4.37-1-.57-2.05-1.05-3.1-1.57-2.1-1.22-4.85-1.49-5.77-4.28,3.84-1.97,7.69-3.93,11.58-5.9,1.09-.22,1.92,0,2.18,1.27-1.35,2.58-3.71,3.71-6.29,4.76.92,0,2.14-.61,2.8.61h0Z"/>
        <path class="cls-108" d="M475.74,35.57c1.66,1.79,4.32,2.18,5.77,4.28-6.95,1.66-13.94,3.41-20.88,4.98-.96.22-3.76,1.97-2.36-1.62,4.15-2.1,8.74-2.88,13.41-4.19-3.98.83-7.69,1.57-11.53.96-2.05,0-4.06.09-6.12.09-.66,0-1.4,0-1.49-.87-.09-1.05.74-1.09,1.49-1.18,7.25-.83,14.5-1.66,21.71-2.49v.04Z"/>
        <path class="cls-129" d="M515.8,15.52c-3.23-1.44-6.6-.48-9.92-.52,1.4-5.15,3.93-9.52,8.65-12.36,1.79.48,2.23,1.75,2.23,3.45,0,1.44-.57,3.01.7,4.28,1.66,1.31,3.54,1.88,5.64,1.79,1.05,0,2.14-.13,3.01.66-1.97,1.7-4.32.92-6.38.61-2.14-.31-3.19.39-3.93,2.14v-.04Z"/>
        <path class="cls-32" d="M502.82,46.67c.39,0,.83-.09,1.22-.09.44,2.14,2.01,1.35,3.01.87,3.28-1.62,5.9-.48,8.56,1.53,2.23,1.7,4.81,2.8,7.47,3.67.52.17,1.88.22,1,1.35-.44.57-.48,2.53-1.83,1.44-2.32-1.88-1.7.96-2.53,1.53-3.41-4.32-6.03-9.87-13.28-7.56.17,1.75,1.92,1.97,2.62,3.06.26.44.87.79.48,1.35-.44.61-1.14.57-1.7.09s-1.18-.96-1.66-1.53c-1.62-2.1-3.54-3.41-6.64-2.05.66-2.01,3.32-1.57,3.23-3.63l.04-.04Z"/>
        <path class="cls-58" d="M516.41,10.98c-1.09-1.18-.7-2.66-.52-3.89.26-1.79-.17-3.23-1.35-4.5,2.71-1.97,5.77-2.71,9.04-2.58,2.62.13,4.76,1.18,5.72,3.84-.83.83-1.83.87-2.93.74-2.84-.57-5.68-1.18-8.08,1.14-1.62,1.4-.26,3.84-1.83,5.24h-.04Z"/>
        <path class="cls-136" d="M460.1,40.03c4.67-.7,9.35-1.35,13.98-2.05.09.35.13.66.22,1-5.29,1.7-10.57,3.32-16.08,4.24.7-1.05,2.4-1.49,1.88-3.23v.04Z"/>
        <path class="cls-76" d="M489.28,30.9c-.66-.39-1.35-.79-2.01-1.18,3.1-2.23,5.77-5.07,9.44-6.47.09.61.17,1.22.22,1.83-2.01,2.66-4.02,5.29-7.64,5.85v-.04Z"/>
        <path class="cls-33" d="M526.15,3.9h3.1c.09.22.13.44.22.7.74.96.96,2.01.57,3.15-.04.66-.13,1.31-.17,1.97-1.27.83-1.97,2.4-3.67,2.62-.09-.13-.13-.26-.22-.39,1.53-2.66,1.44-5.33.17-8.04h0Z"/>
        <path class="cls-71" d="M530.04,7.7c-.7-.96-.74-2.05-.57-3.15,1.09-.13,2.18-.26,3.8-.44-1,1.88-2.14,2.71-3.23,3.63v-.04Z"/>
        <path class="cls-73" d="M516.41,10.98c.13-2.05-.87-4.32,1.27-5.9.61.09,1.18.17,1.57.74-.26,1.97,1.62,2.93,2.23,4.46.83,2.27,3.36.44,4.54,1.92l.22.09c-.09.13-.13.31-.13.44-3.45.61-6.73.22-9.7-1.79v.04Z"/>
        <path class="cls-78" d="M494.26,37.32c-1.62-.09-3.36,1-4.89-.44,1.09-1.75,3.19-1.49,4.72-2.4,2.05-1.27,4.5-1.97,6.2-3.8,1.97-1.4,3.93-1.83,5.94.09-.57.48-1.22,1-1.88,1.53-3.36,1.7-6.29,4.19-10.09,5.02h0Z"/>
        <path class="cls-38" d="M489.28,30.9c2.53-1.97,5.11-3.89,7.64-5.85.26.52.52,1.05.79,1.62-.44,2.32-2.75,2.71-4.19,3.98-2.27,2.01-5.37,2.8-7.51,5.02,0,.22-.04.48-.09.7-1.09-.04-2.14-.09-3.71-.17,2.58-1.92,4.81-3.63,7.03-5.29h.04Z"/>
        <path class="cls-34" d="M486.05,35.62c-1.05-1.4.52-1.18,1-1.49,3.63-2.45,7.69-4.19,10.7-7.51.57-.17.87-1,2.1-.48-3.93,4.32-9,6.68-13.76,9.48h-.04Z"/>
        <path class="cls-43" d="M500.29,30.68c-2.1,3.23-5.77,3.84-8.82,5.46-.66.35-1.4.52-2.05.74-.48,0-1-.04-1.49-.09,4.15-2.05,8.26-4.06,12.41-6.12h-.04Z"/>
        <path class="cls-67" d="M494.26,37.32c3.54-1.35,6.38-4.06,10.09-5.02-1.53,1.83-3.8,2.58-5.72,3.8-.83.52-2.1.52-2.23,1.92-.7-.22-1.4-.48-2.14-.7Z"/>
        <path class="cls-24" d="M526.02,12.2c-1.18,0-2.36-.04-3.54.09-1.97.26-1.79-.87-1.49-2.1.57-.83,1.49-1.22,2.18-1.88.61-.57.96-1.22.35-1.92-.79-.92-1.75-1.14-2.84-.48-.52.26-1.09.48-1.62,0-.61,0-1.14-.17-1.4-.74,2.53-2.58,5.5-1.75,8.48-1.18,2.75,2.45,2.71,5.15-.13,8.3v-.09Z"/>
        <path class="cls-122" d="M519.07,5.82c.48-.09,1,.09,1.31-.44,1.27-1.18,2.36-.22,3.19.52.96.87.7,2.05-.13,3.06-.83.31-1.22,1.57-2.45,1.18-1.18-1.22-2.88-2.18-1.92-4.32Z"/>
        <path class="cls-96" d="M523.44,8.97c.83-2.75-.35-3.8-3.01-3.58,1.57-1.7,3.01-.52,3.98.57.92,1.05.74,2.45-.92,3.01h-.04Z"/>
      </g>
      <path class="cls-1" d="M576.65,453.25c20.49,3.63,37.31,14.55,52.07,28.22,32.59,30.23,53.08,68.59,70.81,108.6,2.36,5.33,2.62,10.62-1.62,15.25-4.54,4.94-9.87,3.23-15.12,1.49-26.12-8.65-52.77-14.02-80.29-8.91-16.56,3.06-32.68,8.48-49.19,12.06-37.61,8.13-75.84,12.71-114.24,13.41-69.94,1.27-139.92,1.44-209.87,1.35-28.35,0-56.75-1.31-84.27-9.65-21.14-6.42-40.71-15.6-55.74-32.37-13.15-14.68-21.1-32.02-13.72-51.2,4.11-10.7,5.81-20.53,5.02-31.63-.52-7.73,1.18-15.51,5.46-22.19,1.57-2.45,2.66-7.12,7.56-4.19,1.75,11.93-.48,23.85.31,35.78.26,3.84-.57,7.91,2.27,11.31,2.93-1.53,2.53-4.72,4.32-6.55,6.42-2.4,5.85,4.02,8.26,6.68,1.27,1.4,1.44,4.28,3.54,4.37,2.75.13,2.97-2.93,4.11-4.76,2.18-3.54,2.23-8.26,6.12-10.83,9.09.22,18.13.39,27.22.61,4.37,4.89,3.41,11.23,4.5,16.99.57,2.93-.13,6.99,4.54,6.81,3.89-.13,3.58-3.76,4.37-6.38,1.66-5.46-.17-12.41,6.33-15.99,4.59-1.14,9.09-1.44,13.41,1.05,5.55,6.64,4.06,14.55,4.06,22.19,0,2.75.22,5.55-.04,8.3-.66,5.33,1.49,7.99,7.12,7.56,3.84-.31,7.78.44,11.75-.22-.22-3.71-3.54-3.67-5.2-5.37-3.19-2.49-4.59-5.85-4.67-9.83,1.4-6.95-1-14.98,5.85-20.36,16.73.52,33.46,1.09,50.19,1.49,3.06.09,6.25.7,9.17-1.05,2.71-3.32,6.47-2.66,10.05-2.8,9.92-.17,19.88-.96,29.75.57,7.47,3.01,2.23,9.31,3.41,14.37,4.94-3.28,5.94-9.35,10.35-12.45,17.08-6.99,33.81-14.81,50.11-23.5,1.92-.92,3.93-1.57,5.94-2.32,16.08-5.55,31.41-13.02,47.53-18.48,2.4-.92,4.94-1.4,7.3-2.4,10.48-4.24,21.54-6.68,32.2-10.31,2.53-.61,5.07-1.27,7.6-1.97,8.96-2.18,17.91-4.59,26.95-6.38,2.93-.61,5.9-.92,8.82-1.66,3.28-.66,6.68-1.05,9.83-2.36,1.62-.61,3.23-1.27,4.94-1.53,5.37-.66,10.88-.26,15.73-3.63,2.8-1.92,5.9-1.35,8.96.31,10.44,5.72,10.48,5.64,17.39-2.97.52-.7,1.49-.7,2.36-.35,3.49,4.89,1.79,10.53,2.18,15.86.22,3.15-.31,6.33.74,9.39,1,2.93,3.45,3.63,6.2,3.63s3.01-2.18,3.41-4.15c.66-3.28.13-7.08,3.93-8.96l-.09.04Z"/>
      <path class="cls-95" d="M351.8,409.48c.13,2.18.22,4.37.35,6.55,3.41,7.25,2.62,14.37-1.66,20.88-2.32,3.54-5.42,6.81-10.53,4.5-1.05-.04-2.1-.13-3.15-.17-4.28,8.52-9.09,10.35-19.44,7.43-2.45-2.05-2.88-4.94-2.93-7.82-.17-12.32-.79-24.64-1.79-36.91-.96-11.62,2.01-21.54,10.7-29.53,4.72-6.03,6.64-13.06,7.16-16.82-.39,3.89-2.88,10.75-7.38,16.91-1.49,1.49-2.71,3.28-4.85,3.98-5.72.87-6.64-3.06-7.03-7.3-.52-5.55.13-11.14-.48-16.73.48,8.21-.7,16.47,1,24.64.61,2.93-.66,5.64-2.84,7.69-1.79,1.62-2.4,3.1-.26,4.89,5.98,5.5,3.8,12.97,4.24,19.57.79,13.02,2.1,26.21-2.84,38.84-2.01,1.49-4.28,1.7-6.64,1.35-3.36-1.75-6.64-1.75-9.74.74-10.88.39-14.77-7.56-18.52-15.6-2.36-5.42-.66-10.44,1.35-15.46,4.41-9.83,5.33-19.05-.31-29.36-3.71-6.77,3.36-14.46,3.15-21.23-.17-6.16-7.95-11.31-7.47-19.27.48-8.13,4.06-14.02,11.75-16.12,4.72-1.31,6.16-4.02,7.47-7.99,2.84-8.74,6.25-17.26,12.71-24.11,7.78-8.21,17.69-7.3,23.68,2.36,4.76,7.64,6.03,16.03,4.02,24.77-.79,3.49-.17,4.81,3.58,6.03,18.13,5.85,25.95,21.23,15.29,36.52-9.92,14.29-6.38,24.81,1.31,36.83l.09-.04Z"/>
      <path class="cls-15" d="M141.93,335.52c-3.84,7.3-10.62,9.09-18.04,9.39-5.94.26-11.93.04-18.65.04.74-1.7,1.09-2.71,1.62-3.58,8.56-12.93,8.48-16.73-2.1-28.61-7.99-8.96-11.49-18.78-8.65-30.75,3.63-15.42,13.11-25.08,28.18-29.23,4.72-1.31,8.82-3.36,12.97-5.98,18.39-11.66,38.36-18.17,60.33-14.11,20.93,3.84,35.73,29.09,29.97,49.63-1.44,5.15-4.15,8.82-10.05,8.74-2.49,0-4.76,0-4.15,3.54-.31.79-.61,1.66-.39,2.49,1.18,4.54.44,8.65-4.89,8.74-5.42.13-5.02-4.76-4.46-8.3,1.14-7.08-1.97-9.13-8.52-9.04-13.41.22-26.87,0-40.28.13-9.26.09-10.31,1.27-10.79,10.31-.13,2.71,1.18,6.33-1.75,7.86-3.49,1.79-5.85-1.31-7.82-3.67-2.8-3.28-6.03-4.02-9.96-2.88-2.1,0-3.06-1.4-3.63-3.32.39,1.79,1.66,2.84,2.8,4.02,1.35,6.64,3.58,11.93,10.92,14.72,6.47,2.45,9.09,11.53,7.43,19.83l-.09.04Z"/>
      <path class="cls-2" d="M122.32,299.83c11.05-11.53,12.63,3.84,19.31,7.25v-13.94c-.04-4.94,2.32-7.21,7.3-7.25,17.39-.09,34.82-.17,52.2-.52,4.72-.09,6.12,1.75,5.37,6.12-.26,1.66-.44,3.45-.22,5.11.39,2.88-3.84,7.64,1.79,8.26,4.5.48,3.84-4.67,4.5-7.86.17-.83.48-1.62.74-2.4.57,2.84,3.32,3.76,4.94,5.68,3.63,4.19,3.01,13.89-2.23,15.86-7.64,2.88-9.09,8.69-11.62,14.98-2.53,6.38-8.91,9.22-15.16,11.71-6.12,2.45-6.55,6.47-1.7,12.14-.31,8.56-6.77,14.15-15.68,13.59-9.39-.61-14.02-5.29-13.28-13.37,5.15-9.09,5.24-9.74-4.32-13.37-4.46-1.7-6.73-7.34-12.36-6.33-1.53-4.89-2.97-9.79-4.67-14.63-.61-1.79-1.22-4.15-3.67-4.24-11.75-.44-11.88-8.34-11.14-16.95l-.13.13.04.04Z"/>
      <path class="cls-27" d="M203.14,444.73c2.18,15.42,2.88,30.97,3.54,46.53.13,3.36.74,6.99-3.63,8.48-7.03,3.98-14.5,2.88-21.93,1.7-3.63-1.35-5.46-4.02-5.33-7.86.31-7.47-.74-14.85-1.09-22.28.44,7.12,1.27,14.2,1.05,21.36-.13,4.11-1.22,7.3-5.37,8.78-7.51.92-15.07,2.8-22.15-1.7-4.5-1.31-3.84-5.07-3.84-8.39,0-15.07.17-30.1.26-45.17,6.51-4.85,14.37-2.75,21.54-3.93,9.57-1.57,19.4-.7,29.09-.52,2.93.04,5.68.74,7.78,3.01h.09Z"/>
      <path class="cls-57" d="M158.62,355.22c.92,7.73,6.29,10.27,13.06,10.97,8.52.87,13.28-3.71,15.9-11.23,12.45.13,28.61,16.56,28.13,28.4-.13,2.93-2.1,4.54-3.71,6.47-5.29,4.24-6.99,13.67-16.69,11.58-6.03-1.7-12.63-.92-17.56-7.25-1.79-2.32-10.09-4.76-13.94,1.97-1.22,2.1-2.93,3.45-5.33,3.89-4.19.44-8.39.74-12.63.66-5.15-4.37-10.14-8.91-14.46-14.15-3.71-3.93-3.49-7.99-.57-12.32,6.77-10.05,11.84-22.5,27.87-19l-.09.04Z"/>
      <path class="cls-126" d="M282.69,182.62c-.22,5.55-.66,11.27,7.38,12.93-7.08-.57-10,3.58-12.76,8.56-5.33,9.57-12.23,17.74-22.32,22.85-2.88,1.49-5.72,3.36-8.56.79-3.15-2.84-.57-5.9.7-8.52,2.97-6.42,6.29-12.67,9.48-18.96-.26-2.71,1.53-4.15,3.49-5.5l2.23-4.85c-1-3.76-.7-7.3,2.01-10.35.35-1.22.66-2.45,1-3.67-2.27-2.88-2.58-5.98-1.22-9.35-.66-7.95-1.4-15.86-1.97-23.81-.17-2.32.09-4.76,2.75-5.64,2.32-.74,3.67,1.22,4.98,2.62,6.25,6.64,9.52,14.72,10.97,23.63.35,2.23-.13,4.63,2.01,6.25,1.31,4.37,2.4,8.74-.09,13.11l-.09-.09Z"/>
      <path class="cls-120" d="M437.69,182.66c5.33-.48,6.68-4.89,8.26-8.78,1.53-3.71,2.27-7.69,3.89-11.36,1.4-3.23,2.49-7.78,7.69-2.97,2.88,2.66,10.18-.7,10.44,5.02.26,5.11-5.85,7.21-9.52,10.22-6.25,5.15-13.72,8.13-20.93,11.58-19.53,9.31-39.62-3.49-49.28-19.83-1.7-2.93-.74-5.5,1.53-7.73,5.37-5.37,11.4-7.3,18.57-3.76.7,10,4.89,17.34,15.25,20.05,5.29,1.4,8.52,6.64,14.07,7.56h.04Z"/>
      <path class="cls-39" d="M144.64,435.82c.13-7.95.26-15.9.39-23.85.35-.26.66-.57,1-.83,11.23,9.7,24.59,5.55,37.35,5.9,4.81.13,6.51-4.41,10.35-5.42,3.45-.66,6.86-1.05,9.57,2.01-.61,6.77-2.01,13.5-1.31,20.36-.61,4.37-4.28,4.15-7.21,4.46-14.55,1.4-29.09,2.45-43.73,2.18-2.97-.04-7.73,1.35-6.38-4.81h-.04Z"/>
      <path class="cls-133" d="M276.62,421.06c1.66,4.72-1.62,9.57.31,14.29-.57,9.35-2.58,18.52-2.32,28,.17,5.64,2.1,7.99,7.82,6.2,5.15-1.57,11.84-.44,13.63-7.86,7.03.7,7.16,6.9,9.17,11.62-5.68,5.72-13.5,5.33-20.53,6.99-11.01,2.62-11.45,2.84-11.53,13.98-.04,4.28.13,8.52-.13,12.8-.17,3.01.17,6.42-3.36,8.08-2.88.09-5.77.13-8.65.22,1.31-27.92,2.53-55.83,5.81-83.61.74-6.12,4.81-8.65,9.74-10.66l.04-.04Z"/>
      <path class="cls-48" d="M122.49,509.52c-1.27,5.55-3.19,10.83-6.03,15.73-1.05,1.83-1.62,4.72-4.5,4.37-2.23-.26-2.66-2.62-3.58-4.32-2.05-4.02-4.11-7.99-6.16-12.01-5.15-6.81-4.72-13.72-.26-20.71,1.57-3.89,3.15-7.78,4.72-11.66.74-1.88,1.57-3.76,3.98-3.8,2.45,0,3.36,1.92,3.98,3.76,1.62,4.81,3.1,9.61,4.37,14.5.66,2.45,1.53,4.24,4.46,3.93,1.35.66,1.57,1.57.7,2.75-.87,2.4-2.27,4.67-1.75,7.43l.09.04Z"/>
      <path class="cls-50" d="M148.31,499.69c7.47-.7,14.94-1.27,22.41.13,1.4,4.76,1.4,9.31-2.01,13.32-2.36,5.59-2.58,11.62-3.06,17.47-.39,5.2-2.97,6.73-7.78,6.86-5.2.17-6.03-2.66-6.25-6.95-.35-6.81-1.27-13.63-1.92-20.44.87-3.67-.74-6.99-1.4-10.44v.04Z"/>
      <path class="cls-61" d="M181.03,499.82c7.34,0,14.72-.04,22.06-.09-2.18,4.89-1.35,10.05-1.4,15.16-1.31,6.81-2.62,13.63-3.89,20.49-4.32,3.93-8.65,3.71-13.06.17-.66-7.3-.31-14.68-2.23-21.84-2.84-4.37-5.2-8.82-1.49-13.89Z"/>
      <path class="cls-97" d="M144.64,435.82c.57.92,1.22,2.66,1.75,2.62,17.87-.87,35.69-1.88,53.56-2.97.7,0,1.35-.96,2.01-1.44,2.27,3.36,1.75,7.03,1.18,10.7-19.48.48-38.97.96-58.41,1.4-2.1-3.41-2.14-6.86-.09-10.31h0Z"/>
      <path class="cls-88" d="M203.27,413.63c-3.49-.17-6.99-.35-10.44-.52-4.76-3.01-7.95-6.68-4.81-12.71,2.32-.92,4.54-2.18,7.16-.96,3.84-.04,8.52,2.36,8.52-5.24,0-4.11,5.46-2.93,8.3-4.41,1.05,2.01,2.27,3.93,3.06,6.03,5.94,15.64,4.89,17.17-11.8,17.78v.04Z"/>
      <path class="cls-51" d="M102.01,492.61c.09,6.9.17,13.8.26,20.71-.39,1.4-.48,2.93-1.22,4.11-1.75,2.8-.09,8.78-4.11,8.39-4.76-.48-5.29-6.12-5.46-10.4-.52-14.02-1.53-28.09,2.05-41.94,4.72,5.55,5.85,12.63,8.43,19.09l.04.04Z"/>
      <path class="cls-134" d="M131.32,386.5c5.64,3.15,12.36,5.07,13.63,12.84,2.49,4.24,7.43,8.48-.13,12.63h.17c-3.36.09-6.73.39-10.09.22-9.22-.52-11.23-3.23-8.74-12.28,1.27-4.59,3.41-8.96,5.15-13.41Z"/>
      <path class="cls-64" d="M282.69,182.62c-.92-4.37-2.14-8.74.09-13.11,7.91-.83,15.9-2.36,22.63,3.8,2.36,2.18,4.63,4.94,4.02,8.04-.66,3.41-4.63,2.23-7.03,3.23-7.08,3.06-13.15-1.66-19.75-2.01l.04.04Z"/>
      <path class="cls-114" d="M264.21,179.52c.52,3.67-.22,7.12-2.01,10.35-15.9-1.88-28.05-7.34-36.74-17.12,14.07,0,26.39,3.45,38.71,6.77h.04Z"/>
      <path class="cls-112" d="M437.69,182.66c-.39.39-.74,1.18-1.14,1.18-7.08,0-26.82-13.85-29.01-20.23-1-2.97-2.14-5.98.79-8.61,13.85,4.89,20.14,17.82,29.36,27.65Z"/>
      <path class="cls-116" d="M263.99,166.5c2.05,2.88,1.31,6.16,1.22,9.35-10.53-4.67-23.28-5.02-32.68-17.26,12.36,1.05,21.76,5.15,31.45,7.91Z"/>
      <path class="cls-36" d="M124.2,502.09c-.22-.92-.44-1.83-.66-2.75,1.4-6.73-.35-14.63,6.99-19.18,2.36-1.49,4.81-3.8,7.69-1.66,2.4,1.79,1.75,4.72,1.18,7.16-1.27,5.68-3.06,11.14-9.96,12.36-2.49.44-3.71,2.45-5.24,4.11v-.04Z"/>
      <path class="cls-82" d="M181.25,190.05c-.7-10.75.66-21.49-1.49-32.07-.22-1.18.48-2.53,1.79-2.32.87.13,2.01,1.27,2.27,2.14,2.88,10.92,4.59,21.84-2.58,32.24Z"/>
      <path class="cls-46" d="M195.06,155.75c6.86,9.44,6.95,24.59,0,35.6v-35.6Z"/>
      <path class="cls-100" d="M260.02,194.72c-.39,2.32-1.88,3.93-3.49,5.5-8.26-1.09-16.56-2.1-25.51-7.6,11.27-3.06,20.1.13,28.96,2.14l.04-.04Z"/>
      <path class="cls-29" d="M281.86,204.24c7.21,2.1,13.94,5.81,21.89,5.85-.52-4.37-5.02-5.59-6.6-10.4,6.25,3.8,10.27,7.99,13.59,14.85-11.05-1.88-20.88-3.36-28.88-10.31Z"/>
      <path class="cls-13" d="M334.33,468.5c-8.52,15.12-21.97,28.31-19.05,47.97-3.01,4.41-5.98,8.91-9.09,13.24-.96,1.35-2.45,2.58-4.37,1.49-1.79-1-1.66-2.66-1.14-4.46,1.05-3.8,2.01-7.64,3.01-11.45-1.49-5.15.22-10.14.96-15.12,1.44-9.31,1.4-18.57.52-27.87-7.12,0-3.54-9.22-9.09-10.62-5.24-2.53-4.06-6.47-2.23-10.48,1.97-3.93,4.06-6.99,7.86-1.53,0,.83,0,1.66-.13,2.53-.31,3.15-.57,7.43,3.23,7.43,4.72,0,2.1-4.67,2.53-7.34.13-.83.13-1.66.39-2.49,2.66-1.62,2.53-4.28,2.58-6.86.26-13.98,1.4-27.96.22-41.98-.35-4.06-.92-7.38-5.55-8.39.52-4.5,7.73-12.76,13.63-15.6l3.19-3.36c2.15-1.52,3.49-1.37,4.02.44-14.94,13.54-10.62,31.28-9.61,47.79.52,8.78-2.1,18.17,3.1,26.47,1.44,4.11-1.49,8.91,1.49,12.8,1.97-.26,2.27-1.44,2.66-2.45,2.18-6.12,4.67-4.28,7.25-.31,1.09,1.66,1.83,3.54,3.58,4.67,0,1.79.04,3.63.09,5.42l-.09.04Z"/>
      <path class="cls-23" d="M305.14,472.34c1.62.7,3.19,1.44,3.19,3.49.09,13.37.39,26.74-4.72,39.49-11.31-.04-22.63-.13-33.99-.17.35-8.52,1.18-16.99.96-25.51-.17-6.77,1.35-10.14,9-11.14,8.56-1.18,17.34-2.66,25.47-6.16h.09Z"/>
      <path class="cls-30" d="M181.03,499.82c.48,4.63.96,9.26,1.49,13.89-4.59-.17-9.22-.35-13.8-.52.31-4.5-.7-9.17,2.01-13.32,3.98-1.62,2.84-5.15,2.88-8.08.13-7.91,0-15.81,0-23.72.79-.04,1.57-.09,2.36-.17.44,7.82.79,15.64,1.35,23.42.22,3.23-.79,7.12,3.71,8.56v-.04Z"/>
      <path class="cls-99" d="M161.55,553.16c-3.49-2.49-11.93,3.89-11.18-5.55.66-8.56,8.43-5.07,12.93-4.5,4.24.52,12.19,0,11.49,6.03-.83,6.95-8.61,2.14-13.19,4.02h-.04Z"/>
      <path class="cls-125" d="M201.65,544.07c2.58.13,5.02.48,6.9,2.62,1.4,1.62,2.18,3.41,1.53,5.42-.92,2.88-3.1,1.35-4.94,1.27-4.24-.26-8.48-.66-12.67-.35-6.64.48-9.65-1.83-7.91-8.69,5.64-4.32,11.36-2.84,17.12-.26h-.04Z"/>
      <path class="cls-87" d="M201.65,544.07c-5.72.09-11.4.17-17.12.26.09-2.93.13-5.85.17-8.82,4.37.87,8.74.74,13.06-.17-.13,3.54,1.62,6.25,3.84,8.74h.04Z"/>
      <path class="cls-119" d="M293.87,451.2c.96,3.45-.22,7.34,2.23,10.48,2.8,5.59,2.49,9.26-5.15,8.61-.83-.09-1.7.17-2.53.35-16.47,3.06-16.78,3.06-15.77-14.24.39-7.12-.87-14.85,4.28-21.1,3.41,7.69,7.3,14.85,16.95,15.86v.04Z"/>
      <path class="cls-68" d="M318.64,377.02c-4.32,5.37-10.83,8.87-13.63,15.6-5.11-2.36-2.01-4.59.48-5.81,4.54-2.27,4.5-5.33,3.98-9.87-.96-8.17-.79-16.51-.92-24.77,0-1.79-.83-4.63,2.01-4.81,2.53-.13,2.75,2.45,2.8,4.46.13,6.55.22,13.15.26,19.7,0,3.41.17,6.6,5.02,5.5Z"/>
      <path class="cls-111" d="M307.76,449.8c1.44,1.14,2.18,2.66,1.97,4.41-.39,3.1,2.1,7.21-2.18,9-2.84,1.22-5.98,0-7.16-2.88-1.4-3.54-4.81-7.86,1.31-10.66,2.01,0,4.02.09,6.07.13h0Z"/>
      <path class="cls-68" d="M325.81,374.09c-1.14-1.88-2.66-.39-4.02-.44,2.27-4.59,4.46-9.13,6.07-14.02,1.53-4.63-.31-9.7,2.27-14.2,4.54,7.21,2.66,19.18-4.32,28.66h0Z"/>
      <path class="cls-80" d="M122.45,299.7c-3.32.39-4.63-1.62-4.59-4.41,0-1.97,1-4.19,3.45-3.98,3.01.26,2.18,2.45,1.62,4.41-.39,1.31-.39,2.75-.57,4.11l.13-.13h-.04Z"/>
      <path class="cls-41" d="M193.26,305.08c3.36.09,3.41,2.4,3.36,4.72,0,2.49-.74,3.2-3.62,3.03-2.84-.17-3.67-.89-3.63-3.38.09-2.66,1.4-4.06,3.89-4.37Z"/>
      <path class="cls-52" d="M163.56,309.44c-.26,3.45-1.91,3.47-4.23,3.77-2.66.39-3.85-1.63-4.16-3.47-.39-2.45.87-3.67,3.41-3.76,2.53-.04,4.46.66,4.98,3.41v.04Z"/>
      <path class="cls-93" d="M182.04,331.33c-5.02,3.98-7.99,3.67-10.66.61-.39-.44-.44-1.97-.13-2.14,3.63-2.1,6.2,1.05,10.79,1.53Z"/>
      <path class="cls-121" d="M187.5,294.24c3.45-1.18,6.99-2.45,11.23,1.53-4.76,1.79-8.08,1.27-11.23-1.53Z"/>
      <path class="cls-12" d="M144.82,411.97c5.07-4.15-1.57-8.43.13-12.63,4.41-1.97,9-1.75,13.63-1,3.28,2.75,5.46,3.36,10.62,1.53,4.67-1.66,12.58-2.1,18.48,1.62.09,4.59,2.97,7.95,5.11,11.62-1.79,5.9-5.33,8.56-11.4,5.94-4.15-1.79-7.86.61-11.62,1.27-10,1.66-18.09-1.22-24.94-8.34Z"/>
      <path class="cls-118" d="M187.67,401.48c-3.54.57-7.78-2.27-10.35,2.93-1.27,2.53-3.15-.22-3.54-1.31-1.7-4.98-3.89-4.02-6.16-.7-1.31,1.92-.83,5.77-4.37,5.15-3.58-.61-2.53-4.54-3.54-6.99-.31-.79-.74-1.53-1.14-2.27,1.7-.57,2.97-1.31,3.1-3.45.35-5.72,4.59-6.03,8.61-5.15,2.62.57,4.94,3.71,6.47-1.35.39-1.35,3.23-.13,3.28.96.13,9.87,7.86,8.08,13.67,9.26.52.09.96.57,1.44.87-2.49.7-4.98,1.35-7.47,2.05h0Z"/>
      <path class="cls-107" d="M113.89,496.89c-.44,3.45-.74,7.91-5.02,8.52-3.93.57-3.45-3.49-3.49-6.25,0-3.63.83-7.16,4.89-7.78,3.89-.61,3.36,2.8,3.58,5.5h.04Z"/>
      <path class="cls-40" d="M135.99,485.62c-1.18,2.88-1.35,6.25-5.07,6.47-2.05.13-3.01-1.62-2.93-3.49.13-3.23,2.14-5.33,5.15-6.03,2.49-.57,2.45,1.66,2.8,3.06h.04Z"/>
      <path class="cls-6" d="M318.64,482.04c-.09-4.41-1.7-7.82,1.35-10.35.87-.74,3.1-.26,3.54,1.22,1.09,3.71-.87,6.25-4.89,9.13Z"/>
      <g>
        <path class="cls-54" d="M577.7,613.1c-20.62,8.52-32.46-2.71-36.35-5.07-17.78-10.88,38.44-64.04,53.3-79.11.96-.96,2.62-2.62,5.37-4.46,15.51-10.44,38.88-9,53.17-6.99"/>
        <path class="cls-47" d="M552.49,390.61c-11.62-2.75-16.43-11.93-20.53-21.8-.13-.31-.09-.61-.17-.92-4.32-15.29.92-22.32,16.86-22.59h2.84c0-.35.09-.52,0-.66-4.46-11.01-.44-21.36,17.61-18.09,5.77,1.05,11.23,3.23,16.64,5.55,1.14.48,2.05,1.66,3.41-.44,6.55-10.09,22.63-11.05,30.89-1.88,1.83,2.01,2.62,2.36,5.15.92,8.69-4.85,16.78-1.27,21.62,9.13,9.87-4.59,18.57-3.63,24.9,2.75,4.89,4.94,5.11,9.83.83,18.74,5.37,1.22,10.22,3.36,13.72,7.86,6.16,7.86,5.55,17.95-1.79,25.43-1.49,1.49-2.05,2.05-.26,3.89,7.56,7.91,10.53,19.4.44,29.05-1.22,1.18-1.18,1.88-.13,3.1,1.22,1.44,2.36,3.01,3.19,4.67,4.76,9.74,1.14,16.82-9.52,18.78-.92.17-1.88.26-2.84.39-3.28-1.44-.92-3.36-.22-4.85,3.19-6.42,4.24-12.89,1.62-19.79-1.09-2.88-2.53-5.46-4.67-7.69-4.81-5.02-10.75-5.42-16.16-1.05-4.19,3.41-7.16,7.56-8.34,12.93-.52,2.49-1.05,4.98-2.1,7.3-.74,1.66-1.83,3.15-3.93,2.66-1.97-.44-2.14-2.23-2.14-3.8,0-3.98.7-7.91,1.27-11.8,1.22-8.48,2.45-16.95,4.32-25.34.87-3.89-.13-5.81-4.02-6.99-19.44-5.94-38.79-12.01-58.15-18.17-3.01-.96-6.16-1.57-8.87-3.36-2.53-2.66.04-5.02.39-7.34-.44,1.35-1.18,2.75-1.7,4.24-3.49,5.98-7.47,11.66-12.76,16.21-2.14,1.83-4.32,3.76-7.56,2.75l.17.17Z"/>
        <path class="cls-54" d="M671.32,607.68c-2.71-4.46-1.7-9.57-2.23-14.33-1.05-9.44-2.05-18.87-3.28-28.31-.09-.74-.48-1.53,0-1.88-.44,2.62.35,5.59.79,8.34,1.62,10.05,1.57,20.23,2.88,30.27.26,2.05.39,4.15-1.22,5.85-21.01-1.62-41.72.87-62.34,4.63-2.62.48-5.94-1.22-10.75-.44-1.57.26-7.69,1.4-13.15,2.23-1.09.17-3.23.48-4.46-.79-.48-.48-.96-1.35-.92-2.36.04-1.22.83-2.01,1-2.18,1.49-3.84,1.66-7.64,1.44-11.84-.39-8.78-2.71-17.87,1.79-26.39.92-1.7,1.14-3.93-.09-5.42-1.79-2.23-3.36-3.76-1.7-7.21,1-2.14-1.88-3.54-4.37-3.49-3.98-1.83-3.71-6.16-5.55-9.31-.09-.13-.22-.26-.31-.39,5.07-4.24,9.52-8.48,12.49-14.94,4.54-9.83,14.29-13.28,24.64-14.5,1.88-.22,3.8-.17,5.68-.26,3.84,4.11,2.1,8.48.66,12.8-.87,2.58-2.01,4.98-4.06,6.81-1.88,1.49-3.67.96-5.42-.22-1.09-.52-1.83-1.66-3.15-2.1.39,2.49,3.01,3.15,3.93,5.11.09,2.23-.52,4.19-2.14,5.77-6.77,0-12.01-4.28-17.56-6.12,3.15,2.4,7.21,4.32,11.45,5.9,1.92.7,4.02,1,5.42,2.75.39,4.67-1.88,8.91-2.27,13.41-.13,1.4-.61,2.8-.66,4.19-.04,1.05-.57,2.27.66,3.01.57.35,1.31.17,1.79-.26,1.22-1.22-.66-1.79-.74-2.8-.57-6.33,1.18-12.19,3.32-17.95.31-.83,1.18-.96,2.01-.48,2.75,2.27,6.07,2.14,9.31,2.32,4.67.31,9.35-.39,13.98.22,1.35,1.49.92,3.28.66,4.98-.83,5.15-1.22,10.35-1.92,15.55-.83,6.12-.66,6.33,5.9,7.69-1.97-.96-3.67-.92-4.67-2.14-1.27-1.53-.57-3.32-.52-5.02.09-6.99,2.01-13.8,2.23-20.75,0-1.14.26-2.23,1.27-2.97,2.05.83,4.02.87,6.2.13,6.9-2.36,13.85-4.54,19.92-8.87-6.6,2.75-13.24,5.2-20.18,6.95-1.66.39-3.32,1.27-5.02.17-.87-1.62-.17-3.15.22-4.72,4.41-6.2,11.27-9.92,15.9-15.9-4.63,4.85-10.35,8.52-14.72,13.63-1.09.74-2.45-.39-3.54.48-1.35.79-3.01,2.05-4.24.61-1.35-1.57.61-2.75,1.4-3.98.52-.79.92-1.66,1.35-2.49,4.28-5.59,7.43-11.66,8.21-18.78.09-.92.35-1.88,1.31-2.36,5.37,1.27,10.75,2.4,15.2,6.25,4.46,3.84,8.21,7.95,8.43,14.24.04,1.22.44,1.97,1.53,2.66,12.01,7.43,20.66,18.17,28.79,29.36,12.49,17.26,7.16,20.88,10.75,42.16"/>
        <path class="cls-127" d="M574.03,373.83c23.11,7.3,46.18,14.72,69.33,21.84,3.76,1.14,3.98,2.53,3.36,5.98-2.18,11.84-3.93,23.76-5.81,35.65-.22,1.27-.22,2.53-.22,3.8,0,1.05-.39,2.36,1.4,2.45,1.35,0,2.01-.79,2.32-1.97.7-2.75,1.4-5.5,2.1-8.3,1.53-6.12,4.85-10.97,10.18-14.37,5.37-3.45,11.01-2.88,15.64,1.53,8.13,7.78,9.65,21.06,3.67,30.62-.52.83-3.49,1.88-.52,3.45-1.66.74-3.36,1.31-4.89,2.53-5.72,4.59-12.14,7.47-19.7,6.77-2.53-.26-4.06.57-5.5,2.66-1.83,2.58-4.06,4.89-6.38,7.03-1.35,1.27-2.36,2.49-2.36,4.37-3.89,1.35-6.99,4.15-10.62,5.98-5.2,2.62-10.7,4.5-16.03,6.73-1.57-1.88-3.49-.87-5.33-.66-13.46,1.53-26.65.92-39.14-4.94-11.27-5.33-17.39-14.02-17.52-26.6-.22-21.62,1-43.16,5.11-64.44.26-1.31.57-2.36-.61-3.28,5.72-1.05,9.09-5.33,12.45-9.44,2.58-3.15,4.76-6.6,7.12-9.92,2.36-.44.52,2.32,1.97,2.58v-.09Z"/>
        <path class="cls-49" d="M607.36,534.33c4.85-5.68,6.6-12.1,4.5-19.4-.22-4.32-1.18-8.65-.7-13.02,2.45-.04,3.28,2.18,4.76,3.45,3.63,3.15,7.56,4.72,12.19,2.58,4.59-2.14,7.51-5.46,7.6-10.97.04-3.19-1.18-6.64,1.31-9.52,1.53,7.34.39,14.81,1,22.19-.39,8.3-3.32,15.55-8.82,21.76-4.11,6.33-9.22,10.62-17.47,8.82-3.93-.87-5.07-2.23-4.41-5.81l.04-.09Z"/>
        <path class="cls-22" d="M637.02,487.46c-.04,2.53-.13,5.07-.13,7.6,0,7.47-2.75,12.14-8.56,14.33-5.77,2.18-10.75.39-15.73-5.59-.48-.61-.96-1.22-1.44-1.83-1.57-3.67-.92-7.56-1.22-11.36.17-1.83,1.7-2.1,3.01-2.53,7.56-2.49,14.77-5.72,21.06-10.62,1.4-1.09,1.83-.26,2.62.44.13,3.19.26,6.38.39,9.57h0Z"/>
        <path class="cls-102" d="M668.3,607.59c-1.14-15.16-2.23-30.27-3.36-45.43,4.32,14.85,5.85,30.1,6.38,45.52-1,0-2.01-.04-3.01-.09Z"/>
        <path class="cls-138" d="M574.03,373.83c-1.44-.26-.83-2.1-1.97-2.58,1.05-2.05,2.05-4.11,3.45-6.81.48,3.89-2.4,6.33-1.49,9.39Z"/>
        <path class="cls-94" d="M607.36,534.33c-.17,3.32,1.97,4.37,4.72,4.72,5.42.61,10.4-.09,14.07-4.76.87-1.09,2.05-1.97,3.1-2.93.26,2.49-2.66,3.19-3.15,5.37,1.97,1.05,2.71-1.05,4.06-1.49,1.35,3.93,1.49,7.69-1.66,10.92-5.94.17-11.84,0-17.78,0-1.88,0-3.76-.09-5.33-1.35-1.66-.92-1.57-2.32-1.27-3.93.26-1.4,1.22-2.88-.09-4.28-.83-.92-1.35-1.88-.83-3.15,1.44.13,2.53,2.05,4.24.87h-.09Z"/>
        <path class="cls-109" d="M628.46,545.73c.52-3.49,1.09-6.99,1.62-10.48,1.66-1.88,1.92.35,2.75.96.79.48.7,1.14.35,1.83-.26,1.66-.52,3.32-.79,4.98.31.74.17,1.4-.48,1.92-1.09,8.61-2.14,17.21-3.32,25.82-.26,1.88.48,2.4,2.18,2.88,2.01.52,4.46.39,6.12,3.01-3.58,1.09-6.68-.44-9.79-.79-2.05-.26-1.75-2.4-1.62-3.93.83-8.04,1.75-16.08,2.62-24.11-.48-.79-.39-1.49.35-2.1h0Z"/>
        <path class="cls-109" d="M604.65,536.25c2.01.17,1.57,1.4,1.22,2.66-.48,1.62-.87,3.28-1.31,4.94.22.39.13.74-.31.96-1.83,5.2-2.84,10.62-3.71,16.03-.48,3.1.09,4.59,3.63,3.1-.39,1.97-1.7,2.71-2.88,3.45-1.18.79-2.58,1.53-4.02.74-1.75-.92-.74-2.49-.61-3.8.61-6.33,2.32-12.41,3.8-18.57-.61-1.31.31-2.1.96-2.97.66-1.88,1.31-3.76,1.92-5.64.22-.61.61-.96,1.31-.87v-.04Z"/>
        <path class="cls-86" d="M631.96,544.95c.17-.66.35-1.27.48-1.92,9.52-2.18,18.57-5.72,27.96-9.83-.09,2.8-1.7,3.84-3.23,4.76-7.08,4.28-14.94,6.68-22.85,8.96-2.4.7-2.27-.52-2.45-1.97h.09Z"/>
        <path class="cls-11" d="M604.26,544.82c.09-.31.17-.66.31-.96,6.33,1.7,12.76.74,19.18.96,1.57.04,3.49-1,4.76.92-.13.7-.22,1.4-.35,2.1-7.25,1.35-14.5.96-21.8-.04-2.05-.31-2.14-1.44-2.1-2.93v-.04Z"/>
        <path class="cls-18" d="M633.22,538.05c-.13-.61-.22-1.22-.35-1.83,3.89-6.55,10.83-10.05,15.64-15.68.48-.57,1.18-.35,1.66.17,1.09,1.18.17,2.14-.61,2.84-3.23,3.06-6.51,6.03-9.83,8.96-2.14,1.88-4.32,3.67-6.51,5.5v.04Z"/>
        <path class="cls-81" d="M601.42,542.81c-.31,1-.66,2.01-.96,2.97-6.77-2.27-13.67-4.32-18.57-10.18,6.81,1.62,12.8,5.46,19.53,7.21h0Z"/>
        <path class="cls-37" d="M604.65,536.25c-.44.31-.87.57-1.31.87-.57-.22-1.22-.35-1.7-.7-2.18-1.57-4.89-4.19-3.19-6.25,1.4-1.66,2.84,2.32,4.63,3.23.52.92,1.05,1.88,1.53,2.8l.04.04Z"/>
        <path class="cls-74" d="M672.28,546.56c-2.01,3.49-4.02,6.99-6.03,10.44-.39.66-1.05,1.44-1.88,1.05-1.27-.66-.44-1.57,0-2.32,2.32-3.32,4.67-6.64,6.99-9.96.31.26.57.48.87.74l.04.04Z"/>
        <path class="cls-130" d="M604,395.76c6.81.09,13.02,2.27,18.61,6.12,1.27.87,2.49,2.01,3.28,3.32,1.05,1.66,1.09,3.84.26,5.46-.92,1.7-2.97.79-4.37.44-6.51-1.57-13.06-2.1-19.75-2.01-5.11.09-7.64-2.1-7.73-6.25-.09-4.11,2.93-6.86,7.78-7.12h1.88l.04.04Z"/>
        <path class="cls-53" d="M573.37,409.61c-5.64-.35-10.05.17-14.42,1.05-3.32.7-3.58-1.14-3.06-3.45.52-2.4,2.14-4.19,4.19-5.55,4.72-3.15,9.96-4.81,15.64-4.72,4.81.04,7.47,2.93,7.21,7.43-.31,4.5-1.92,5.64-7.43,5.29-1.09-.09-2.23,0-2.14,0v-.04Z"/>
        <path class="cls-77" d="M609.46,421.84c6.42,0,9.52,1.57,9.39,4.81-.17,3.84-5.29,8.21-9.79,8.26s-9.48-4.46-9.39-8.48c.04-2.84,3.8-4.59,9.79-4.59Z"/>
        <path class="cls-75" d="M565.6,421.84c1.44,0,2.14-.17,2.71,0,3.1,1.14,8.13-.09,8.04,5.29-.09,4.24-6.12,8.26-10.57,7.56-1.09-.17-2.23-.48-3.1-1.05-2.97-2.01-6.03-4.67-4.85-8.43,1.18-3.8,5.46-2.88,7.82-3.36h-.04Z"/>
        <path class="cls-3" d="M575.6,440.58c2.62,2.62,5.81,3.32,8.48,4.94.83.52,1.83,1.14,1.49,2.14-.48,1.49-1.92.96-2.84.61-1.62-.61-3.15-1.49-4.63-2.36-2.05-1.18-4.63-2.23-4.76-4.89-.09-2.93,2.75-3.54,4.89-4.46,3.63-1.57,4.98-4.67,5.9-8.13.39-1.49,0-3.19,1.35-4.37,2.4,6.81.22,10.57-9.92,16.51h.04Z"/>
        <path class="cls-42" d="M664.46,433.38c2.71.26,5.5,1.09,7.16,4.06.48.87.79,1.79,0,2.62-1.09,1.09-1.53-.13-2.18-.7-5.02-4.19-10.09-3.15-13.02,2.8-.48,1-.92,2.01-1.27,3.06-.39,1.09-1.18,1.49-2.18,1.18-.96-.31-.74-1.27-.7-2.01.35-5.64,6.12-10.97,12.23-11.01h-.04Z"/>
        <path class="cls-45" d="M591.07,468.24c-1.66.52-2.23-.35-2.93-.96-4.19-3.84-5.33-3.76-9.22.44-.79.83-1.35,2.62-2.84,1.44-.96-.79-.09-2.05.44-3.01,1.66-3.1,3.76-5.77,7.69-5.2,4.06.61,5.77,3.67,6.86,7.3h0Z"/>
      </g>
      <g>
        <path class="cls-124" d="M327.51,299.48c5.2.17,8.08,2.71,7.91,8.13-.13,4.98-.35,10.14-6.47,11.58-3.1.74-4.59,2.18-5.33,5.2-2.62,10.62-9.79,17.12-19.57,21.14-3.58,1.49-7.12,3.06-6.42,8.04-.87,7.64-6.73,8.65-12.45,8.3-5.64-.35-9.57-3.49-9.09-10.05,2.18-4.37-1.49-4.37-3.89-5.07-12.32-3.58-21.1-11.01-25.42-23.24-.79-2.23-1.83-4.28-4.41-4.02-5.98.57-9.22-2.05-10.35-7.82-1.22-6.29,1.4-10.53,6.77-13.37,5.29.22,4.98,5.81,8.48,8.82.74-7.56.31-14.81,1.97-21.84,1.88-7.99,6.42-12.97,14.24-15.25,11.8-3.45,23.98-3.67,35.69-1.4,12.32,2.4,19.53,11.27,21.27,24.07.57,4.11.74,8.65,7.08,6.81v-.04Z"/>
        <path class="cls-89" d="M276.09,351.81c6.2,10.62,13.19,11.14,21.54,1.7,13.67,1.53,25.91,5.29,31.41,19.79,1.27,6.99,1.57,13.76-4.76,18.83-4.59,1.53-4.98,4.85-4.32,9.04,1.4,9.09,3.41,18.13,2.93,27.43-.22,4.32-.26,8.78-4.72,11.45-17.82,2.45-35.6,2.71-53.43.13-5.15-3.98-5.37-9.83-5.81-15.51-.39-5.15-.22-10.35-.13-15.51.17-4.98,1-9.96-.48-14.9-.92-1.27-2.1-2.1-3.67-2.27-9.26-2.66-11.93-6.25-11.49-15.42,1.66-11.4,9.74-19.61,22.5-22.67,3.45-.83,6.9-1.44,10.35-2.18l.09.09Z"/>
        <path class="cls-70" d="M327.51,299.48c-1.97,2.05-3.36,5.9-6.77,4.67-3.01-1.09-1.62-4.81-1.92-7.38-2.18-19.13-11.18-27.35-30.62-27.43-7.34,0-14.68.31-21.89,2.1-10.79,2.66-14.15,6.16-15.29,17.12-.48,4.85-.17,9.79-.44,14.68-.17,3.36.7,7.08-2.71,10.4-3.15-5.33-6.12-10.35-9.09-15.42-2.27-12.71-3.1-25.42.83-38.05,1.53-4.89,3.06-9.65,9.74-8.52,2.18.39,2.93-.83,3.36-2.53.22-.79.31-1.62.39-2.45.22-2.36,2.1-5.55,3.23-5.15,8.52,2.93,10.14-10.18,18.13-7.56,24.42,8.04,44.25,21.06,51.68,47.62,1.66,5.94,1.05,11.93,1.31,17.87l.04.04Z"/>
        <path class="cls-101" d="M362.98,422.28c-4.41-.35-8.78-2.45-12.67-6.38-7.51-7.64-15.29-14.68-24.2-20.62-1.35-.92-2.36-2.27-2.45-4.06,3.23-5.5,6.42-11.05,5.37-17.87,3.63,13.5,15.81,19.22,25.21,27.3,3.41,2.93,5.59,4.72,7.51,5.37"/>
        <path class="cls-92" d="M243.2,376.67c2.27,6.68,3.98,13.98,13.46,13.54-3.63,5.11-9.79,6.25-14.77,9.13-9.17,5.33-18.65,9.96-25.12,18.87-2.23,3.1-5.46,4.46-9.35,2.58-1.57-.66-2.49-1.97-3.32-3.36-1.27-6.38,1.49-10.4,6.73-14.11,11.49-8.04,23.28-15.73,32.37-26.69v.04Z"/>
        <path class="cls-69" d="M318.34,438.36c1.31,7.38,2.66,14.72,3.98,22.1,1.14,9.13,2.14,18.3,3.45,27.43,1.49,10.35,1.57,10.4-9,10.66-1.88.04-3.71.48-5.59.7-3.01,3.89-6.33,2.71-9.74.7-6.68-4.81-4.5-12.28-5.24-18.7-.96-8.21.09-16.6-3.58-24.59v27.35c-.03,9-4.21,14.05-12.54,15.16-3.28,3.93-6.86,3.15-10.57.66-4.85.13-6.55-2.23-6.38-7.03.31-10.79.17-21.58.26-32.37-1.44-7.34-3.01-14.72,1.53-21.67,17.82-.13,35.6-.31,53.43-.44v.04Z"/>
        <path class="cls-50" d="M269.5,499.86c3.49-.22,7.03-.44,10.53-.66,8.43-.96,10.31,3.1,9.31,10.75-1.14,8.52-1.27,17.12-1.88,25.73-4.19,3.71-8.52,3.54-12.93.44-2.49-8.69-2.49-17.69-3.49-26.6-.35-3.23-1.05-6.42-1.57-9.65h.04Z"/>
        <path class="cls-19" d="M301.43,499.95c3.23-.22,6.51-.44,9.74-.7,8.48-.96,10.62,3.15,9.39,10.92-1,6.42-1.18,13.02-1.4,19.57-.09,2.84-1.18,4.59-3.63,5.72-2.4,3.1-5.15,2.71-8.04.87-4.46-9.26-2.53-19.57-4.81-29.18-.57-2.36-.83-4.76-1.27-7.16v-.04Z"/>
        <path class="cls-110" d="M307.5,536.3c2.66-.31,5.37-.57,8.04-.87,6.03.31,10.14,4.94,15.38,6.99.79.31,1.57,1.7,1.57,2.62,0,1.62-1.53,2.18-2.88,2.23-6.25.09-12.67.87-18.74-.13-6.51-1.09-2.66-7.03-3.36-10.83h0Z"/>
        <path class="cls-5" d="M274.52,536.08c4.32-.13,8.61-.26,12.93-.44,1.31,1.66,2.88,3.19,3.93,5.02,2.36,4.11,1.53,6.68-3.71,6.73h-4.85c-10.18,0-11.27-1.49-8.3-11.36v.04Z"/>
        <path class="cls-90" d="M291.16,334.34c0,2.93-1.35,4.59-4.46,4.41-3.06-.13-4.06-1.92-4.06-4.85,0-3.63,2.4-3.67,4.94-3.71,2.84-.09,3.76,1.53,3.63,4.11l-.04.04Z"/>
        <path class="cls-137" d="M273.47,309.23c-.13,1.09-.44,3.36-3.49,3.15-2.23-.17-3.23-1.75-3.49-3.84-.35-2.84,1-3.89,3.76-3.98,2.53-.04,3.45,1.14,3.23,4.67Z"/>
        <path class="cls-123" d="M307.9,306.73c.13,2.53-.83,4.32-3.58,4.28-2.18,0-3.41-1.44-3.36-3.71.04-2.23,1.27-3.45,3.45-3.76,2.49-.35,3.49.87,3.49,3.19h0Z"/>
        <path class="cls-92" d="M261.24,407.95c-2.45-5.37-1.14-11.01-1.18-16.56,2.53,5.37,1.27,11.01,1.18,16.56Z"/>
      </g>
      <g>
        <path class="cls-20" d="M371.68,381.08c1.7-14.94,7.95-20.31,28.53-24.64,4.63,3.1,9.65,2.32,14.68,1.49,8.96.26,17.61,1.53,24.46,8.13.92,4.02-2.32,5.77-4.54,7.91-2.36,2.23-5.24,3.89-7.6,6.07-1.79,1.7-3.84,3.63-2.45,6.25,1.31,2.49,3.76,1.27,5.85.7,1.79-.48,3.63-1.31,5.33.35-.66,15.38-1.31,30.75-2.01,46.13-5.68,4.19-12.67,2.8-18.92,3.54-10.22,1.22-20.66,1.05-31.02-.26-4.32-1.79-4.54-5.68-4.63-9.48-.22-7.82-.39-15.6.83-23.37.57-3.71,1.22-7.56-1.75-10.7-4.02-3.01-7.43-6.42-6.73-12.1h-.04Z"/>
        <path class="cls-2" d="M414.93,357.93c-5.9,5.72-10.57,5.24-14.72-1.49,3.1-5.2.09-8.69-3.98-10.7-9.61-4.67-16.64-11.27-19.4-21.89-.26-.96-.96-2.45-1.7-2.62-9.17-2.01-7.86-9.87-9.22-16.21,3.98-2.53,7.03.52,10.75,2.32-.79-6.51-.22-11.62,5.81-15.29,3.54-2.14,1.62-7.08,2.01-10.79.35-3.15-.79-7.25,2.93-8.61,3.15-1.18,5.37,2.01,7.6,3.89,6.38,5.46,13.94,8.74,21.84,10.75,10.48,2.66,19.83,5.81,18.35,19.09,4.76.79,6.77-4.41,10.7-2.62,3.36,6.68,2.1,12.1-4.46,16.08-.48.26-1.18.48-1.35.87-4.89,11.53-11.97,20.75-23.76,26.34-3.23,1.53-1.66,7.08-1.44,10.83l.04.04Z"/>
        <path class="cls-106" d="M445.9,303.76c-3.49,2.49-7.03,4.98-10.53,7.47-.7-.96-1.31-1.35-1.27-1.75.57-14.29-8.52-18.3-20.49-20.88-9.83-2.1-18.39-7.64-26.65-16.38v13.63c-.04,4.41,1.53,9.65-5.98,9.96-2.8.13-2.49,3.1-2.53,5.29-.04,2.97,0,5.98,0,9.96-4.28-2.97-7.91-5.81-12.58-5.98-1.92-5.94-3.89-11.84-3.89-18.3,0-15.6,6.95-26.56,21.06-32.98,12.14-5.5,24.81-6.33,37.61-2.97,26.3,6.9,36.48,28.48,25.25,52.99v-.04Z"/>
        <path class="cls-115" d="M387.14,504.28c-3.01-3.19-3.76-6.95-3.67-11.23.13-10.62-.13-21.27-.22-31.89-4.02-6.95-2.93-14.11-.83-21.27,2.32-3.54,5.94-3.28,9.44-2.97,10.22.87,20.4,1.31,30.58-.48,3.06-.52,6.6-.96,8.52,2.71.17,7.34.39,14.63.57,21.97-.17,12.67-.35,25.34-.52,37.96-2.4,4.24-6.2,5.85-10.92,5.59-6.29-.35-12.41.7-18.61,1.57-4.94.44-9.87.87-14.37-1.97h.04Z"/>
        <path class="cls-101" d="M334.37,406.9c3.19,1.09,5.59-.92,11.66-5.72,8.52-6.77,17.08-13.37,25.64-20.05,2.14,3.36,3.23,7.43,6.42,10.14-.22,4.63-4.24,6.07-7.21,8.13-6.99,4.81-13.54,9.87-19.22,16.38-4.63,5.33-10.4,7.86-16.12,7.43"/>
        <path class="cls-4" d="M435.89,387.37c-4.63.7-10.09,7.08-13.67.52-3.84-6.99,3.8-9.44,7.95-12.84,3.36-2.71,7.25-4.81,9.17-9,1.27-.96,2.93-1.7,3.8-2.97,4.67-6.77,9.83-5.02,15.25-1.22,2.32,1.62,4.37,3.41,3.36,6.64-.92,2.93-2.88,4.24-6.07,4.28-10,.09-15.55,6.51-19.79,14.55v.04Z"/>
        <path class="cls-65" d="M430.96,439.05c-15.68.26-31.37.48-47.09.74-1.92-1.22-1.97-2.93-1.18-4.85,17.08-.48,34.16-.96,51.2-1.44.74,2.8-1.35,4.02-2.93,5.55Z"/>
        <path class="cls-83" d="M401.34,504.01c6.25-2.27,12.8-1.79,19.22-1.62,4.02.13,7.43-.79,10.44-3.41.04,2.53-1.22,4.11-3.45,5.07-10.7,1.35-10.79,8.52-10.83,17.26,0,7.51,2.53,11.53,9.26,13.59.52.61,1.09,1.18,1.62,1.83,2.45,3.1,4.24,6.51,2.8,10.48-1.22,3.28-3.93,1.62-6.29,1.35-4.41-.52-9.83.92-10.57-5.9-.92-8.48-5.55-8.96-12.01-5.9-1.53-.48-2.45-1.53-2.71-3.1,1.05-9.87-2.14-20.1,2.49-29.66h.04Z"/>
        <path class="cls-26" d="M401.34,504.01c-.17,10.4,1.14,20.84-1.57,31.1-3.19,2.75-6.33,2.8-9.44-.13-3.98-9.92-.48-20.66-3.19-30.71,4.72-.09,9.48-.13,14.2-.22v-.04Z"/>
        <path class="cls-85" d="M426.02,534.94c-7.43.29-11.23-3.19-11.4-10.44-.09-2.71-.13-5.46-.22-8.17-.23-8.74,4.15-12.81,13.15-12.23,0,.96,0,1.92.04,2.88-1.7,7.08.09,14.29-1,21.36-.22,2.18-.39,4.37-.61,6.6h.04Z"/>
        <path class="cls-59" d="M390.33,534.99c3.15.04,6.29.09,9.44.13.61.57,1.18,1.09,1.79,1.66-.06,7.66-3.8,11.49-11.23,11.49-.52,0-1.09.09-1.62,0-4.32-.87-11.53,2.4-12.41-1.92-.96-4.76,5.98-7.16,10.44-9.57,1.18-.66,2.4-1.22,3.63-1.83l-.04.04Z"/>
        <path class="cls-83" d="M426.63,528.39c0-7.12-1.14-14.33,1-21.36-.39,7.12,1.44,14.33-1,21.36Z"/>
        <path class="cls-55" d="M396.62,308.04c-.61,2.18-1.14,4.46-3.93,4.28-2.4-.17-2.8-2.14-2.84-4.06-.04-2.1.61-3.8,3.1-3.63,2.05.13,3.36,1.35,3.67,3.45v-.04Z"/>
        <path class="cls-31" d="M422.53,311.78c-2.45,0-3.36-1.05-3.41-3.01-.04-2.45,1.62-3.41,3.58-3.58,2.05-.17,2.75,1.53,2.93,3.19.31,2.53-1.4,3.23-3.1,3.41h0Z"/>
        <path class="cls-60" d="M401.47,334.73c4.11-1.57,6.38-3.58,9.39-2.4.48.17.83,2.27.39,2.84-2.36,3.01-5.07,2.05-9.74-.44h-.04Z"/>
        <path class="cls-63" d="M421.96,461.77c.09,1.75-2.05,1.57-3.15.66-1.57-1.35-3.01-3.28-3.63-5.24-1.05-3.23-3.1-6.6-.61-10.09.7-.96,1.92-1.7,2.71-.92,2.27,2.27,2.01,5.46,2.49,8.39.35,2.1,1.22,4.15,2.14,7.16l.04.04Z"/>
      </g>
      <path class="cls-54" d="M534.06,612.79c-15.07,45.61,23.85-5.15,59.02,4.63,40.1,11.18,74.66,23.33,74.66,23.33,3.28,1.18,13.63,4.81,24.03-1.97,2.27-1.49,7.25-4.85,10.35-12.19,3.76-8.96,2.8-19.35,1.62-23.72-4.41-16.25-30.71-16.12-79.77-9.17-6.42.92-56.27-82.83-89.95,19.09h.04Z"/>
      <g>
        <path class="cls-10" d="M475.78,298.61c.96-4.19,1.92-8.39,2.88-12.58,1.92-8.34,1.53-18.65,7.64-24.16,6.33-5.68,15.12,1.66,22.98,2.27,18.39,1.4,33.46-5.94,47.7-16.34,8.08-5.94,16.25-11.88,24.81-17.04,8.56-5.15,18.13-5.81,27.78-3.45,2.1.52,4.85,1.79,4.02,4.81-.74,2.8-2.66,3.01-5.46,1.92-13.76-5.37-24.94.13-35.39,8.69-9.65,7.91-19.44,15.55-30.75,21.01-11.05,5.37-23.2,9.04-34.77,5.55-14.07-4.24-17.69,1-20.36,13.5-4.15,19.4-3.8,20.97,15.12,27.96,24.38,8.96,45.96,2.27,66.58-10.92,11.36-7.3,22.8-14.33,37.13-13.15,2.71.22,5.81-.44,7.64,2.84-1,5.07-4.98,3.19-7.82,2.93-8.48-.79-16.38.74-23.15,5.77-32.55,23.98-66.58,29.75-103.05,9.22-7.16-.57-3.58-5.42-3.54-8.82h0Z"/>
        <path class="cls-21" d="M594.52,240.59c5.9,1.35,0,15.42,11.66,8.65.79-.48,5.55,5.9,5.72,10.35.17,5.24-4.24,5.64-7.86,6.33-4.19.79-8.43,1.4-12.67,1.66-2.66.17-6.25,1.4-7.69-1.7-2.23-4.63.66-5.72,4.76-5.24-3.19-8.74,9.61-11.45,6.07-20.1v.04Z"/>
        <path class="cls-56" d="M461.23,373.35c-.74-.83-1.49-1.66-2.18-2.45,5.59-24.07,11.14-48.19,16.73-72.26.7,3.15,0,6.81,3.54,8.82-6.03,21.97-12.06,43.95-18.09,65.88h0Z"/>
      </g>
      <path class="cls-121" d="M153.93,294.63c3.45-1.18,6.99-2.45,11.23,1.53-4.76,1.79-8.08,1.27-11.23-1.53Z"/>
    </g>
  </g>
</svg>