<?xml version="1.0" encoding="UTF-8"?>
<svg id="Layer_2" data-name="Layer 2" xmlns="http://www.w3.org/2000/svg" viewBox="0 0 729 706.45">
  <defs>
    <style>
      .cls-1 {
        fill: #ea8869;
      }

      .cls-1, .cls-2, .cls-3, .cls-4, .cls-5, .cls-6, .cls-7, .cls-8, .cls-9, .cls-10, .cls-11, .cls-12, .cls-13, .cls-14, .cls-15, .cls-16, .cls-17, .cls-18, .cls-19, .cls-20, .cls-21, .cls-22, .cls-23, .cls-24, .cls-25, .cls-26, .cls-27, .cls-28, .cls-29, .cls-30, .cls-31, .cls-32, .cls-33, .cls-34, .cls-35, .cls-36, .cls-37, .cls-38, .cls-39, .cls-40, .cls-41, .cls-42, .cls-43, .cls-44, .cls-45, .cls-46, .cls-47, .cls-48, .cls-49, .cls-50, .cls-51, .cls-52, .cls-53, .cls-54, .cls-55, .cls-56, .cls-57, .cls-58, .cls-59, .cls-60, .cls-61, .cls-62, .cls-63, .cls-64, .cls-65, .cls-66, .cls-67, .cls-68, .cls-69, .cls-70, .cls-71, .cls-72, .cls-73, .cls-74, .cls-75, .cls-76, .cls-77, .cls-78, .cls-79, .cls-80, .cls-81, .cls-82, .cls-83, .cls-84, .cls-85, .cls-86, .cls-87, .cls-88, .cls-89, .cls-90, .cls-91, .cls-92, .cls-93, .cls-94, .cls-95, .cls-96, .cls-97, .cls-98, .cls-99, .cls-100, .cls-101, .cls-102, .cls-103, .cls-104, .cls-105, .cls-106, .cls-107, .cls-108, .cls-109, .cls-110, .cls-111, .cls-112, .cls-113, .cls-114, .cls-115, .cls-116, .cls-117, .cls-118, .cls-119, .cls-120, .cls-121, .cls-122, .cls-123, .cls-124, .cls-125, .cls-126, .cls-127, .cls-128, .cls-129, .cls-130, .cls-131, .cls-132, .cls-133, .cls-134, .cls-135, .cls-136, .cls-137, .cls-138, .cls-139, .cls-140, .cls-141, .cls-142, .cls-143, .cls-144, .cls-145, .cls-146, .cls-147, .cls-148, .cls-149, .cls-150, .cls-151, .cls-152, .cls-153, .cls-154, .cls-155, .cls-156, .cls-157, .cls-158, .cls-159, .cls-160, .cls-161, .cls-162, .cls-163, .cls-164, .cls-165, .cls-166, .cls-167, .cls-168, .cls-169, .cls-170, .cls-171, .cls-172, .cls-173, .cls-174, .cls-175, .cls-176, .cls-177, .cls-178, .cls-179, .cls-180, .cls-181, .cls-182, .cls-183, .cls-184, .cls-185, .cls-186, .cls-187, .cls-188 {
        stroke-width: 0px;
      }

      .cls-2 {
        fill: #2e2e39;
      }

      .cls-3 {
        fill: #3a3741;
      }

      .cls-4 {
        fill: #c6c892;
      }

      .cls-5 {
        fill: #f9f8f6;
      }

      .cls-6 {
        fill: #80a679;
      }

      .cls-7 {
        fill: #f5c5a0;
      }

      .cls-8 {
        fill: #f1bc7a;
      }

      .cls-9 {
        fill: #8ead77;
      }

      .cls-10 {
        fill: #f3d28d;
      }

      .cls-11 {
        fill: #e6ca94;
      }

      .cls-12 {
        fill: #ebf0f2;
      }

      .cls-13 {
        fill: #789ec4;
      }

      .cls-14 {
        fill: #9aa89d;
      }

      .cls-15 {
        fill: #fbfcfc;
      }

      .cls-16 {
        fill: #eaa276;
      }

      .cls-17 {
        fill: #a0b8cc;
      }

      .cls-18 {
        fill: #88a58c;
      }

      .cls-19 {
        fill: #f1a666;
      }

      .cls-20 {
        fill: #faf7f5;
      }

      .cls-21 {
        fill: #c6c791;
      }

      .cls-22 {
        fill: #fefdfd;
      }

      .cls-23 {
        fill: #2e486d;
      }

      .cls-24 {
        fill: #a8bcd7;
      }

      .cls-25 {
        fill: #c5c792;
      }

      .cls-26 {
        fill: #f6e0b8;
      }

      .cls-27 {
        fill: #fdfdfd;
      }

      .cls-28 {
        fill: #f2ddbc;
      }

      .cls-29 {
        fill: #f1d0ad;
      }

      .cls-30 {
        fill: #a4bbd6;
      }

      .cls-31 {
        fill: #457c71;
      }

      .cls-32 {
        fill: #f2bf82;
      }

      .cls-33 {
        fill: #3c5166;
      }

      .cls-34 {
        fill: #95b277;
      }

      .cls-35 {
        fill: #75ab64;
      }

      .cls-36 {
        fill: #8fa489;
      }

      .cls-37 {
        fill: #a2b9d5;
      }

      .cls-38 {
        fill: #f5bfa6;
      }

      .cls-39 {
        fill: #417077;
      }

      .cls-40 {
        fill: #f9d6ae;
      }

      .cls-41 {
        fill: #e99454;
      }

      .cls-42 {
        fill: #3f2d2f;
      }

      .cls-43 {
        fill: #eacf64;
      }

      .cls-44 {
        fill: #d68b58;
      }

      .cls-45 {
        fill: #d9cb99;
      }

      .cls-46 {
        fill: #e98c52;
      }

      .cls-47 {
        fill: #44322e;
      }

      .cls-48 {
        fill: #f5cc7a;
      }

      .cls-49 {
        fill: #885d48;
      }

      .cls-50 {
        fill: #f1e4d0;
      }

      .cls-51 {
        fill: #dfe6e3;
      }

      .cls-52 {
        fill: #f6e0bc;
      }

      .cls-53 {
        fill: #bfc8ca;
      }

      .cls-54 {
        fill: #406d74;
      }

      .cls-55 {
        fill: #fafbfb;
      }

      .cls-56 {
        fill: #efa769;
      }

      .cls-57 {
        fill: #e9eae1;
      }

      .cls-58 {
        fill: #516d82;
      }

      .cls-59 {
        fill: #c3c691;
      }

      .cls-60 {
        fill: #eeab92;
      }

      .cls-61 {
        fill: #a2bad5;
      }

      .cls-62 {
        fill: #4b7185;
      }

      .cls-63 {
        fill: #fafafa;
      }

      .cls-64 {
        fill: #ec9756;
      }

      .cls-65 {
        fill: #6a7481;
      }

      .cls-66 {
        fill: #f6bf79;
      }

      .cls-67 {
        fill: #8eae77;
      }

      .cls-68 {
        fill: #407276;
      }

      .cls-69 {
        fill: #d6784b;
      }

      .cls-70 {
        fill: #8fad75;
      }

      .cls-71 {
        fill: #e6e6dd;
      }

      .cls-72 {
        fill: #414451;
      }

      .cls-73 {
        fill: #fadeb9;
      }

      .cls-74 {
        fill: #4c6b78;
      }

      .cls-75 {
        fill: #343847;
      }

      .cls-76 {
        fill: #8dac75;
      }

      .cls-77 {
        fill: #2c4b66;
      }

      .cls-78 {
        fill: #b8c092;
      }

      .cls-79 {
        fill: #344457;
      }

      .cls-80 {
        fill: #f8c262;
      }

      .cls-81 {
        fill: #3e6d76;
      }

      .cls-82 {
        fill: #86a973;
      }

      .cls-83 {
        fill: #bcc58e;
      }

      .cls-84 {
        fill: #2d2f3c;
      }

      .cls-85 {
        fill: #8cac75;
      }

      .cls-86 {
        fill: #e9bc7e;
      }

      .cls-87 {
        fill: #9fb6c8;
      }

      .cls-88 {
        fill: #ea9351;
      }

      .cls-89 {
        fill: #e1cd9a;
      }

      .cls-90 {
        fill: #7b6761;
      }

      .cls-91 {
        fill: #437076;
      }

      .cls-92 {
        fill: #e9bbb0;
      }

      .cls-93 {
        fill: #427275;
      }

      .cls-94 {
        fill: #2f4a6b;
      }

      .cls-95 {
        fill: #a7bb89;
      }

      .cls-96 {
        fill: #f8f9f9;
      }

      .cls-97 {
        fill: #2e4867;
      }

      .cls-98 {
        fill: #333849;
      }

      .cls-99 {
        fill: #476771;
      }

      .cls-100 {
        fill: #c7c693;
      }

      .cls-101 {
        fill: #45906b;
      }

      .cls-102 {
        fill: #f2dfbc;
      }

      .cls-103 {
        fill: #d1c696;
      }

      .cls-104 {
        fill: #c2c894;
      }

      .cls-105 {
        fill: #c7c891;
      }

      .cls-106 {
        fill: #fefdfb;
      }

      .cls-107 {
        fill: #263b58;
      }

      .cls-108 {
        fill: #e7e6cc;
      }

      .cls-109 {
        fill: #2b436c;
      }

      .cls-110 {
        fill: #eaa277;
      }

      .cls-111 {
        fill: #e8c490;
      }

      .cls-112 {
        fill: #407076;
      }

      .cls-113 {
        fill: #85716f;
      }

      .cls-114 {
        fill: #3b2e2c;
      }

      .cls-115 {
        fill: #8cac74;
      }

      .cls-116 {
        fill: #fafcfc;
      }

      .cls-117 {
        fill: #f8dbb8;
      }

      .cls-118 {
        fill: #497d4d;
      }

      .cls-119 {
        fill: #d6c99b;
      }

      .cls-120 {
        fill: #edc086;
      }

      .cls-121 {
        fill: #e99789;
      }

      .cls-122 {
        fill: #dc7a4c;
      }

      .cls-123 {
        fill: #f8fafc;
      }

      .cls-124 {
        fill: #d5c997;
      }

      .cls-125 {
        fill: #ab3435;
      }

      .cls-126 {
        fill: #7ba670;
      }

      .cls-127 {
        fill: #ea8648;
      }

      .cls-128 {
        fill: #ebd2a6;
      }

      .cls-129 {
        fill: #407955;
      }

      .cls-130 {
        fill: #417b4b;
      }

      .cls-131 {
        fill: #e9ecee;
      }

      .cls-132 {
        fill: #d2ae9d;
      }

      .cls-133 {
        fill: #407077;
      }

      .cls-134 {
        fill: #c5c591;
      }

      .cls-135 {
        fill: #417075;
      }

      .cls-136 {
        fill: #89ab74;
      }

      .cls-137 {
        fill: #417178;
      }

      .cls-138 {
        fill: #f5bfa7;
      }

      .cls-139 {
        fill: #fefefe;
      }

      .cls-140 {
        fill: #e4bd7e;
      }

      .cls-141 {
        fill: #eddbb5;
      }

      .cls-142 {
        fill: #ce855f;
      }

      .cls-143 {
        fill: #737663;
      }

      .cls-144 {
        fill: #35384a;
      }

      .cls-145 {
        fill: #457377;
      }

      .cls-146 {
        fill: #3a495c;
      }

      .cls-147 {
        fill: #8ead76;
      }

      .cls-148 {
        fill: #fefdfe;
      }

      .cls-149 {
        fill: #487c4c;
      }

      .cls-150 {
        fill: #f9dcb5;
      }

      .cls-151 {
        fill: #2f4a6a;
      }

      .cls-152 {
        fill: #45774f;
      }

      .cls-153 {
        fill: #f8fafb;
      }

      .cls-154 {
        fill: #efa991;
      }

      .cls-155 {
        fill: #2f496b;
      }

      .cls-156 {
        fill: #d7c98e;
      }

      .cls-157 {
        fill: #dfc889;
      }

      .cls-158 {
        fill: #427078;
      }

      .cls-159 {
        fill: #eebd84;
      }

      .cls-160 {
        fill: #8b6260;
      }

      .cls-161 {
        fill: #f0ba78;
      }

      .cls-162 {
        fill: #39585c;
      }

      .cls-163 {
        fill: #fffefe;
      }

      .cls-164 {
        fill: #edab94;
      }

      .cls-165 {
        fill: #f8dbb9;
      }

      .cls-166 {
        fill: #fbf5ea;
      }

      .cls-167 {
        fill: #8e9b83;
      }

      .cls-168 {
        fill: #2c4b6f;
      }

      .cls-169 {
        fill: #f4bf7e;
      }

      .cls-170 {
        fill: #72615c;
      }

      .cls-171 {
        fill: #fadcb7;
      }

      .cls-172 {
        fill: #417076;
      }

      .cls-173 {
        fill: #f4e0be;
      }

      .cls-174 {
        fill: #909e8a;
      }

      .cls-175 {
        fill: #85a6c8;
      }

      .cls-176 {
        fill: #a2bad4;
      }

      .cls-177 {
        fill: #f9be64;
      }

      .cls-178 {
        fill: #f6f9fa;
      }

      .cls-179 {
        fill: #945e4b;
      }

      .cls-180 {
        fill: #c4c692;
      }

      .cls-181 {
        fill: #e8935d;
      }

      .cls-182 {
        fill: #436f7a;
      }

      .cls-183 {
        fill: #f7d8ae;
      }

      .cls-184 {
        fill: #416d76;
      }

      .cls-185 {
        fill: #eef2f2;
      }

      .cls-186 {
        fill: #96a1a2;
      }

      .cls-187 {
        fill: #faddbd;
      }

      .cls-188 {
        fill: #402d32;
      }
    </style>
  </defs>
  <g id="testi">
    <g>
      <path class="cls-112" d="M572.43,229.88c-71.13,21.12-92.93,16.48-97.91,6.47-3.11-6.23,2.3-10.59,5.94-35.3,4.69-31.9-1.77-41.53,6.61-58.49,1.34-2.68,9.77-19.69,22.66-22.42,18.3-3.83,43.45,21.75,57.48,66.06"/>
      <rect class="cls-39" x="238.03" y="331.76" width="250.81" height="168.32"/>
      <path class="cls-133" d="M213.22,145.43c12.98-6.99,17.39-19.16,19.83-32.62,2.87-16,4.93-32.14,9.87-47.71,5.27-16.53,14.99-28.69,32.57-33.1,10.01-2.54,19.97-2.44,29.89.57,14.08,4.31,22.85,13.7,26.3,28.07,4.41,18.39,11.02,35.88,21.51,51.69,3.35,5.03,7.09,9.77,11.78,14.51,1.05-5.03,1.96-9.63,3.02-14.23,1.58-6.99,3.31-13.99,6.08-20.65.72-1.72,1.53-3.45,2.59-5.03,4.12-6.23,9.92-6.08,14.37-.14,4.31,5.7,6.08,12.26,7.9,18.87,3.31,12.17,5.89,24.48,7.86,36.93.29,1.77.62,3.5,2.4,4.5,1.72,1.01,1.2,2.59.96,4.07-.77,4.36-1.87,8.62-3.21,12.84-1.15,3.69-3.11,6.75-6.75,8.72-5.17,2.87-6.42,8.29-7.52,13.41-1.92,9.15-2.92,18.44-5.75,27.4-.53,1.68-.53,4.6-2.78,4.26-2.25-.34-.48-3.02-.96-4.6-.05-.24,0-.48,0-.77.86-34.97.14-69.94.38-104.9,0-1.34-.34-2.73,0-3.35v103.51c-.81,2.87.34,5.99-1.2,9.01-2.11-1.25-1.96-3.31-2.3-5.03-1.72-8.29-3.26-16.62-5.36-24.81-.91-3.54-2.16-6.99-3.88-10.25-.86-1.63-1.96-3.02-3.74-3.59-3.98-1.34-5.56-4.5-6.56-8.19-1.39-5.27-2.49-10.59-3.54-15.9-2.78-13.99-9.92-24.96-21.7-32.91-2.4-1.63-4.69-3.4-7.09-5.08-2.63-1.82-3.4-1.58-3.59,1.77-.29,4.17-.57,8.29-.96,12.45-1.44,15.86,2.35,30.56,9.68,44.5,2.49,4.79,4.17,9.87,3.88,15.23-.57,10.2,4.02,17.63,11.54,23.85,8,6.61,17,10.78,27.35,12.02,7.47.91,8.14,1.77,8.14,9.34,0,2.49.43,5.08-.53,7.52-1.01,1.63-2.73,1.63-4.36,1.87-16.53,2.3-32.96,4.98-49,9.63-11.21,3.21-22.13,7.04-31.47,14.42-5.6,4.45-9.82,9.92-11.4,16.96-2.73,12.07,2.2,21.51,11.3,28.98,10.73,8.77,23.47,13.08,36.88,15.86,4.84,1.01,9.68,1.72,14.56,2.44,1.82.24,3.88.24,4.74,2.44.43,6.08.72,6.37,6.71,6.37h96.38c2.73,0,5.32-.1,7.09-2.59,1.1-.91,2.44-1.1,3.78-1.2,3.31,1.29,6.95.38,10.3,1.53.43,2.63-1.63,1.1-2.2,1.39,15.71,2.16,29.41,9.72,42.78,18.11,8.67,7.14,17.82,13.56,27.83,18.73.67.62,1.15,1.34,1.44,2.2,6.13,16.29,19.3,22.94,35.3,25.68,5.99,1.05,12.02.86,18.06.62,1.2,0,2.54-.53,3.5.72.77,2.59,1.2,5.17-.62,7.52-1.68,1.01-3.59.62-5.36,1.05-11.11.72-19.54,6.23-26.92,14.32-7.28,8.05-14.51,16.14-21.27,24.62-2.83,3.54-2.68,3.54,1.25,5.7,1.87,1.01,4.55,1.25,4.89,4.12-4.84,6.66-10.35,12.69-16.38,18.2-4.07,3.74-8,7.66-12.69,10.73-5.03,3.26-10.3,4.93-16.14,2.73-6.18-2.3-10.35.19-14.04,4.93-1.72,2.25-2.59,5.32-5.51,6.51-5.27.48-10.54.67-15.81-.19-7.71-1.53-15.18-3.64-22.47-6.71-5.8-2.44-11.83-3.54-18.15-2.78-1.63.19-3.26.14-4.89-.29-11.59-6.75-23.52-4.98-35.54-1.44-6.13,1.44-12.02,3.88-18.3,4.79-2.49,0-4.55-1.29-6.71-2.25-7.28-3.11-14.66-5.75-22.51-6.9-.86-.14-1.72-.34-2.3-1.1-1.1-2.49-.57-5.13-.62-7.76v-6.04c-.1-.96-.34-1.87-.48-2.78-.19-1.1-.14-2.25-.34-3.35-.34-1.1-.86-2.16-1.15-3.31-.29-2.06-.62-4.12.43-6.08,3.64-1.25,7.42-.43,11.11-.91,11.3-1.44,21.6-4.93,30.37-12.36,2.25-1.2,4.69-.96,7.04-.91,5.65.1,11.35-.34,17,.24,5.36,1.29,10.78.48,16.19.57,2.97.05,5.17.86,7.42,2.92,5.6,5.13,12.89,6.28,20.07,6.8,7.04.48,14.13.53,21.12-.67,3.88-.67,7.66-1.72,10.87-4.07,3.16-2.3,3.26-4.89.34-7.52-2.59-2.35-5.84-3.4-9.1-4.45-2.01-.67-4.26-.81-5.7-2.68.57-2.16,2.87-1.58,4.22-2.59,1.29-1.01,3.16-1.68,2.73-3.64-.43-2.11-2.35-2.44-4.17-2.44-3.07,0-5.94.91-8.81,2.01-1.2.43-2.3,1.01-3.59,1.1-1.58.1-2.16-.57-1.34-2.01.62-1.1,1.58-1.96,2.49-2.83,2.83-2.73,5.51-5.56,7.71-8.81.72-1.05,1.48-2.06,1.82-3.31.34-1.34.81-2.87-.62-3.78-1.29-.81-2.49.1-3.35,1.01-5.46,5.7-11.64,10.97-12.17,19.69,0,.48-.24.96-.43,1.44-.62,1.63-2.01,2.16-3.54,2.49-3.21.72-6.51.81-9.77,1.15-2.44.29-3.83-.91-3.88-3.45-.1-3.02,0-6.08-.05-9.1-.1-1.72,0-3.45.29-5.17,1.1-2.49,1.15-4.98-.05-7.47-.57-7.81-.19-15.62-.29-23.42,0-3.02-.24-6.04-.77-9.01-.72-4.22-2.59-6.18-6.75-6.99-2.35-.43-4.79-.53-7.14-.19-8.53,1.15-17.1.72-25.68.57-8.1-.1-16.09.81-24.14.86-3.83,0-6.23,2.35-8.57,4.89-.96.43-1.34-.29-1.77-.91-8.72-14.13-21.51-20.84-37.94-20.88-.38,0-.77-.1-1.1-.14-3.16-1.96-6.37-1.92-9.58-.1-.67.38-1.44.53-2.2.34-5.7-4.17-11.5-8.1-18.49-10.01-12.36-3.4-20.93,5.94-23.85,13.65-1.53,4.12.1,7.62,3.35,10.44,7.28,6.32,7.09,8.38-1.53,12.69-4.22,2.11-6.61,5.56-8.43,9.77-2.63,6.08-6.66,11.16-12.12,15.04-4.89-1.96-8.43-5.65-11.88-9.44.43-3.5,2.54-6.23,4.12-9.2.43-.77.96-1.48,1.29-2.3.67-1.44,1.92-2.97.72-4.55-1.15-1.58-2.92-1.05-4.55-.81-.38.05-.77.14-1.1.19-.53,0-1.05,0-1.53-.24-1.1-1.05-2.35-1.77-3.98-1.58-.72-.14-1.34-.48-1.92-.91-5.56-6.9-9.39-14.85-13.89-22.37-5.6-9.34-11.78-18.11-20.88-24.43-1.15-.81-3.4-1.48-2.35-3.88,3.54-1.29,7.38-1.68,10.92-3.07,11.98-4.55,18.25-13.94,21.27-25.77,2.73-10.68,3.31-21.65,2.68-32.67,1.72-2.92,1.96-5.94.34-9.01-.19-5.41-.38-10.78-1.05-16.14-.86-7.09-3.26-13.65-6.04-20.17,0-3.31,1.68-6.23,1.72-9.63,0-6.47-2.4-11.69-6.66-16.33-1.72-1.87-4.55-2.92-4.79-5.99,2.49-8.43,1.53-16.91.24-25.34-.53-3.35-1.29-6.66-2.06-9.96-.43-1.82-.91-3.78,1.2-5.03l-.1.14Z"/>
      <path class="cls-112" d="M442.67,160.04c9.77-.77,16.19-6.04,20.41-14.66,4.5-9.24,6.9-19.16,10.25-28.79,1.68-4.89,3.45-9.72,5.41-14.51,7.23-17.53,20.65-27.21,39.04-30.23,22.71-3.74,44.12-1.25,63.33,12.84,4.07,3.02,7.81,6.23,11.3,9.87,3.88,2.16,5.7,5.94,7.66,9.58,4.98,9.1,8.91,18.68,12.84,28.26,1.05,2.59,2.25,5.03,3.69,7.62,1.25-2.59.86-5.65,2.92-7.76,1.44-6.28,2.97-12.5,6.23-18.11,2.92-5.03,7.47-6.8,12.5-5.27,3.74,1.15,5.32,4.12,6.42,7.38,2.54,7.38,2.54,15.14,2.83,22.8.29,7.19.14,14.37.24,21.6,0,1.2-.38,2.54.62,3.59.96,1.05.48,2.16.1,3.16-6.37,16.19-8.29,33.39-10.97,50.39-.05.38-.05.77-.14,1.1-.34,1.68-.19,4.22-2.2,4.22-1.77,0-.72-2.54-1.34-3.83-.14-.34-.24-.72-.38-1.05-2.3-30.47-1.77-60.93.43-90.34-1.53,4.89.29,11.02-1.15,16.91-.14.62-.19,1.25-.14,1.87.48,11.98-1.44,23.9-.72,35.88.67,11.54.62,23.14,1.48,34.68.1,1.48.96,2.87.72,4.45,0,.43-.1.81-.19,1.25-2.59,1.44-2.92-.96-3.5-2.25-1.72-3.93-2.68-8.14-3.83-12.26-1.44-5.03-3.21-9.68-7.47-13.22-3.26-2.68-4.12-7.14-5.7-10.97-1.39-3.4-2.63-6.85-4.31-10.06-4.12-7.81-12.69-14.71-22.47-18.11.57,9.34,1.01,18.49,3.78,27.35,1.34,4.36,3.11,8.53,5.03,12.65,1.01,2.2,1.96,4.41,2.4,6.75.96,5.7,3.78,10.35,7.62,14.56,1.2,2.4,2.63,4.74.48,7.33-3.4,1.29-6.95.62-10.44.67-2.3.05-2.4-1.82-2.49-3.5-.24-3.11.34-6.28-.43-9.39-.48-2.44-.38-4.93-.24-7.42.05-1.01.05-2.3-1.25-2.3-3.02-.05-6.18-1.1-9.01.91-1.29,4.6-.48,9.24-.57,13.89-.14,8.53-.62,9.15-9.24,9.29-1.63,0-3.26.1-4.93.14-2.63-.05-5.17-.48-7.47-1.87-.24-.38-.38-.77-.38-1.2,1.34-6.47.81-13.03.81-19.54,0-6.04-1.15-7.19-7.09-7.9-1.01-.14-2.01-.14-2.92-.62-1.68-1.48-1.29-3.5-1.25-5.32.1-4.26-.96-8.24-2.4-12.17-.72-1.96-1.77-3.64-3.59-4.74-1.2-1.48-1.82-3.31-3.11-4.74-3.21-3.45-4.89-7.57-5.41-12.21-.19-1.72-.77-3.45-1.39-5.08-3.64-9.63-10.83-14.37-20.69-13.6-9.29.72-16.86,7.23-18.63,16.62-1.15,6.04-2.3,11.88-7.47,16-1.44,1.15-.96,2.35.86,2.4,3.11.14,4.98,1.01,3.45,4.6-.34.77,0,1.58.72,1.96,4.98,2.54,9.24,6.8,15.47,6.23,1.53.29,2.4,1.25,2.92,2.68.19,3.07-1.53,4.58-5.17,4.55-3.54.77-5.7,3.02-6.9,6.32-1.29,3.45-2.4,6.9-3.02,10.54-1.2,4.12-2.25,8.29-4.26,12.12-2.2,4.12-5.36,6.95-9.82,8.33-3.54-.1-6.99,1.58-10.59.43-1.96-1.29-1.92-3.35-2.11-5.36-.53-4.65-.86-9.29-2.63-13.65-.34-.81-.57-1.87-1.63-1.87s-1.39,1.01-1.72,1.77c-2.25,5.08-4.26,10.2-5.99,15.47-.62,1.92-1.15,3.93-3.35,4.74-7.9,1.29-15.9,1.77-23.85,2.01-2.11-1.53-.24-2.68.57-3.64,5.27-6.32,7.76-13.46,6.47-22.51-.24,9.05-5.17,14.95-10.25,20.74-1.87,2.11-2.78,1.82-4.12-.77-2.25-4.5-1.48-10.25,1.87-14.13.91-1.01,2.01-1.87,2.92-3.02-4.79-.91-8.33.91-11.35,5.51-.77,1.15-.86,3.07-2.97,2.83-1.01-1.77-.1-3.45.29-5.13,1.92-2.87,4.84-4.79,7.47-6.8,8.14-6.23,11.98-14.47,11.83-24.57-.05-3.93.72-7.42,2.92-10.73,1.87-2.83,3.26-5.99,4.6-9.1.72-1.72,1.82-2.68,3.74-2.44l.05-.1Z"/>
      <path class="cls-133" d="M82.02,223.6l18.83-11.54c1.05-1.87,2.87-2.63,4.89-2.92.19-.1.43-.19.67-.29,4.55-3.4,10.35-4.26,15.14-7.38,5.36-3.5,10.68-6.99,15.23-11.54.77-.77,1.58-1.68,2.87-1.58,3.88-3.4,7.76-6.8,11.64-10.25,5.27-4.69,10.63-9.29,16.81-12.79.96-.57,2.06-.91,1.82-2.44-1.44-10.2,2.44-18.97,7.38-27.5,1.34-2.3,2.73-4.5,4.12-6.8,3.69-6.18,7.42-12.31,8.53-20.41,4.22,9.87,10.06,17.82,15.81,25.82.48,1.72-1.05,2.35-1.87,3.35-5.65,6.61-11.35,13.22-12.98,22.18-1.25,6.61-1.1,13.22.53,19.83.53,2.16,1.82,3.83,3.26,5.41,0,1.15-.96,1.39-1.77,1.63-8.05,2.16-16.24,4.02-24.57,3.83-21.6-.53-34.39,12.79-40.38,31.57-.48,1.53-.67,3.21-1.77,4.55-2.11,2.44-2.92,5.56-3.93,8.53-3.26,9.63-5.46,19.35-3.07,29.6.86,3.59,2.06,6.99,3.88,10.16,2.49,6.61,7.23,10.2,14.37,10.83,3.45.34,4.26,2.06,3.93,7.09-.67,3.45-.34,6.99-1.34,10.39-1.1,3.59-2.16,7.19-5.22,9.72-3.07,1.72-5.65,1.05-8.24-1.25-3.31-2.87-6.66-5.75-11.54-5.84-4.12-.05-7.66.77-10.68,3.78-2.44,2.49-5.56,3.93-9.05,4.36-3.88.48-7.62-.34-9.87-3.59-5.65-8.29-13.89-9.15-22.51-8.14-12.41,1.48-24.91,1.58-37.36,2.16-.67,0-1.53-.19-2.2.91,4.55,2.11,9.05,3.64,14.13,2.49,8.86-2.01,17.72-3.98,26.92-4.02,7.28-.05,13.94,1.39,19.59,6.51,5.89,5.36,15.57,5.65,21.75,0,5.56-5.13,9.48-4.79,15.33.19,1.92,1.63,4.36,2.63,5.51,5.08-.24,1.96-2.01,2.11-3.35,2.49-16.67,4.79-28.93,15.42-38.99,28.98-10.2,13.75-20.69,27.3-28.12,42.87-.34.67-.62,1.44-1.63,1.29-2.97-2.54-5.84-5.17-8.86-7.66-15.71-12.89-25.05-29.32-27.88-49.48-2.83-20.02-2.3-39.71,4.74-58.92,3.31-9.01,8.14-17.05,15.42-23.42.38-.81.72-1.63,1.53-2.16,5.41-3.74,11.26-6.75,17.1-9.72,8.19-3.88,16.19-8.14,22.75-14.56.86-.81,1.82-1.34,3.02-1.34l-.29-.05Z"/>
      <path class="cls-112" d="M713.74,247.55c3.64,7.9,5.08,16.38,5.75,24.86,1.25,15.14.53,30.18-3.98,44.93-4.93,16.05-14.8,27.26-30.61,33-7.19,2.63-14.47,5.08-22.08,6.37-1.25-1.53-.43-3.11,0-4.69,5.13-18.87,1.39-35.93-10.35-51.4-.67-.91-1.44-1.77-2.16-2.63-2.62-3.29-3.24-6.88-1.87-10.78-1.1-.43-1.87.38-2.68.72-2.49,1.05-4.84.91-7.23-.53-20.17-12.26-41.58-12.89-63.42-5.7-12.07,3.98,4.41,46.61-1.34,57.77-2.59,5.03-4.31.38-10.73,1.92.77,1.34,22.66,31.38-3.11,0,2.63.48,3.88,2.06,3.74,4.5-.1,1.92,6.13,3.45,6.99,5.17-.1,6.23-12.5-2.54-11.64,3.64,29.65,13.7-13.6-4.98-14.08-4.22-2.4,1.58-4.07-.29-5.75-1.34-7.66-4.84-14.9-10.2-22.18-15.52-2.44-1.77-4.89-3.5-7.47-5.08-3.69-2.68-8.05-4.45-11.45-7.66,0-2.4,1.48-4.22,2.63-6.18,3.31-5.65,6.8-11.16,8.05-17.77.77-3.88.91-7.76.57-11.64-.38-4.93-2.97-8.81-7.28-10.83-8.91-4.17-11.74-11.88-13.12-20.65-.19-1.29-.34-2.54,1.25-3.16,7.81-1.96,15.81-1.39,23.71-1.82,18.39-1.05,36.79-1.29,55.18-2.25,8.57-.43,17.15-.43,25.72-.72,28.88-.91,57.77-1.44,86.65-.77,9.68.24,19.4.29,29.08,1.44,1.15.14,2.25.29,3.16,1.05l.05-.05Z"/>
      <path class="cls-161" d="M293.6,520.69c-3.02,0-6.04.1-9.05.1-5.08,0-7.62,2.46-7.62,7.38v71.85c0,5.7-1.1,11.11-4.98,15.47-5.46,6.18-12.41,8-20.21,5.51-7.47-2.4-11.26-8.14-12.6-15.62-1.1-6.23-.43-12.6-.77-18.87-.77-.96-.86-1.96.05-2.92,0-20.07,0-40.14.14-60.21,0-2.16-.67-2.97-2.83-2.83-3.88.34-7.81-.53-11.69.48-28.45,1.48-56.95.29-85.46.67-1.15,0-2.25,0-3.4-.29-3.4-1.1-2.11-4.36-3.07-6.61-3.16-8.43-10.68-7.04-15.62-3.31-2.4,1.82-4.45,4.07-6.13,6.56-.91,1.34-1.68,2.83-3.31,3.5-1.48.14-2.97-.1-4.45-.43-2.35-2.49-4.45-.38-6.66.34-11.74.43-23.47.1-35.16.19-5.36.05-5.51.19-5.51,5.51v38.23c0,2.01.29,4.07-1.15,5.8-.05,9.05-.05,18.11-.24,27.16-.05,3.02-.24,6.08-.91,8.96-2.06,8.57-8.96,14.13-17.53,14.61-8.14.48-14.99-4.22-18.25-12.55-.38-.91-.86-1.77-1.29-2.68-.1-4.02-.29-8.05-.29-12.07,0-23.38-.1-46.75,0-70.08,0-3.07-.67-4.36-3.93-4.07-3.5.24-7.09,0-10.59,0-.86-5.6-.24-11.26-.38-16.91-.05-2.01,1.53-1.53,2.73-1.63,3.98-.29,8,.57,11.98-.48h0c1.44-1.34,3.31-1.1,5.03-1.05,8.96.19,18.01-.72,26.11.86,1.34-.05.62-.86.86-.43.05.1-.1.1-.29.19-.38.19-.72.14-1.1.14-1.2-.05-3.02.29-3.07-1.34-.1-1.58,1.77-1.53,2.92-1.63,7.09-.53,14.08-.34,20.5,3.26,14.42,0,28.88-.05,43.3-.1,1.15-1.01,2.54-1.05,3.93-1.05,36.21,0,72.43-.19,108.64.1,5.17-.1,10.3-.19,15.47,0,18.11-.24,36.17-.1,54.27-.1,1.25,0,2.54.1,3.64.72,1.01.72.96,1.72.67,2.73-1.34,4.41-1.53,8.86-1.48,13.41,0,1.25-.05,2.54-1.2,3.4l-.05.14Z"/>
      <path class="cls-112" d="M618.75,401.7c15.14,2.63,30.27,5.22,45.36,7.86,32.86,5.8,52.07,26.35,60.74,57.48,6.28,22.42,6.13,44.6-5.32,65.72-5.41,9.96-12.5,18.59-20.79,26.3-8.91,8.24-17.24,16.96-23.42,27.54-4.84,2.83-10.01,1.82-15.14,1.39-1.82-.14-2.44-1.72-1.87-3.45,2.4-7.62,4.98-15.14,7.9-22.51.86-2.11,2.63-2.92,4.84-3.02,2.25-.1,4.55-.1,6.8-.05,2.87,0,4.79-1.25,5.84-3.93,5.94-15.57,11.93-31.14,17.44-46.9,1.72-4.89.19-6.71-5.08-6.95-8.96-.48-17.87,1.01-26.87.81-2.73-.05-4.02,1.77-4.93,4.02-1.68,4.22-2.78,8.67-4.12,12.98-3.07,10.01-6.18,20.02-9.53,29.99-.43,1.29-.77,2.68-1.2,3.98-.91,3.02-.1,5.32,2.92,6.42,2.63,1.01,2.97,2.68,2.16,5.13-2.2,6.61-4.74,13.08-6.85,19.69-.67,2.16-2.11,3.54-4.31,3.74-9.82.67-19.64,1.01-29.41-.14-1.15-2.35,1.05-2.35,2.16-2.87,2.59-1.25,5.32-2.25,7.57-4.17,4.07-3.5,6.42-8,7.81-13.03.86-3.16,1.2-6.42,2.11-9.58,1.92-4.93,1.92-10.16,2.35-15.28,1.2-11.64,2.11-23.33,2.78-35.02.38-6.8.53-13.6-.19-20.41-.24-2.01-.43-4.02-.19-6.04.14-.86.48-1.68,1.01-2.44,8.96-12.93,13.17-27.73,16.67-42.73,1.63-7.04-1.34-12.6-7.04-16.77-2.35-1.72-4.84-3.26-7.66-4.12-3.5-1.39-7.19-2.25-10.83-3.26-4.12-1.34-8.62-.24-12.65-2.06-1.01-2.87-1.87-5.8.81-8.29l.14-.05Z"/>
      <path class="cls-1" d="M613.53,586.98c9.48,0,18.92,0,28.41.05,2.73,0,4.22-.86,5.08-3.74,1.96-6.51,4.36-12.89,6.61-19.3.67-1.92,1.2-3.26-1.87-3.74-3.64-.57-4.69-2.97-3.45-6.9,3.98-12.89,8.1-25.72,12.17-38.61,1.05-3.35,2.11-6.75,3.21-10.06.91-2.68,2.73-3.93,5.7-3.98,9.1-.1,18.15-.48,27.26-.57,5.89-.1,7.76,2.3,5.75,7.81-5.84,16-11.83,31.95-17.77,47.9-1.1,2.92-3.02,4.31-6.32,4.36-3.5.05-7.81-1.44-10.25.86-2.2,2.06-2.63,6.13-3.78,9.29-1.63,4.65-3.16,9.34-4.89,13.89-.86,2.2-.43,2.97,1.96,2.92,4.65-.14,9.34.19,13.99-.53.86,0,1.77,0,2.63.14,3.64.57,6.08,3.26,6.08,6.56s-2.63,6.37-6.37,6.75c-2.35.24-4.79.1-7.19.05-1.48,0-2.54.24-2.2,2.11,2.68,14.8,4.69,29.7,8.1,44.31.38,8.1,2.54,15.9,3.64,23.9.81,5.65-2.44,9.44-7.81,8.77-3.64-.43-5.08-2.87-5.6-6.18-2.3-13.94-4.65-27.83-6.8-41.77-.38-2.59-1.1-3.31-3.54-2.2-4.55,2.01-9.53,2.44-14.42,2.78-2.3.14-2.63.91-2.25,3.02,2.2,11.35,4.31,22.75,6.32,34.2.62,3.5,1.1,7.19-2.73,9.44-4.55,2.68-9.48.05-10.54-5.8-1.2-6.42-2.11-12.93-3.21-19.4-1.2-7.09-2.59-14.13-3.78-21.22-.29-1.82-1.2-2.25-2.83-2.25-7.81,0-15.66-.1-23.47-.24-1.77,0-2.3.72-2.54,2.44-1.92,13.22-4.02,26.39-5.99,39.61-.96,6.47-5.51,9.63-10.73,7.33-3.31-1.44-4.45-4.12-3.64-9.34,1.25-8.24,2.78-16.38,4.02-24.62.72-4.93,1.92-9.77,3.16-14.61.57-2.16,0-3.02-2.35-2.92-6.71.29-13.36.53-20.07.72-1.63,0-2.06.81-2.25,2.3-1.96,13.99-4.02,27.93-6.04,41.91-.72,5.03-3.98,7.86-7.95,7.09-4.26-.81-6.23-4.26-5.46-9.2,3.45-22.27,6.8-44.6,10.2-66.87.24-1.48.14-3.02.19-4.55.91-1.92,2.83-1.92,4.5-2.3,16.33-3.88,33.05-5.65,49.48-8.81,3.11-.62,6.23-2.44,9.53-.72l.1-.1Z"/>
      <path class="cls-76" d="M442.67,160.04c-.86.62-2.11.53-2.59,1.87-1.63,4.65-4.12,8.91-6.61,13.12-1.05,1.87-1.15,3.83-1.1,5.84.29,11.3-3.5,20.65-13.08,27.3-2.3,1.58-4.31,3.64-6.47,5.46-1.05-.57-.72-1.63-.91-2.59-1.25,2.35-1.72,4.79-2.16,7.28-.19.96-.24,2.2-1.53,2.25-1.34.1-1.58-1.1-1.72-2.11-.38-3.26-2.68-5.6-4.07-8.43.77,1.82,2.06,3.35,2.87,5.13.38.86,1.53,1.92.48,2.68-1.2.86-2.06-.43-2.73-1.29-1.2-1.48-2.49-2.83-4.12-4.79.77,1.77,1.92,2.44,2.63,3.4.81,1.05,2.11,2.01,1.05,3.59-3.74,3.02-8.43,3.16-12.84,4.02-4.69.96-4.74,1.01-4.93,5.89-.1,2.97.67,6.08-.77,8.96-.38.34-.72.34-1.1,0-.34-4.17.24-8.33-.38-12.45-.29-1.82-.86-2.49-2.83-2.63-14.66-1.2-27.16-6.99-37.17-17.92-3.74-4.07-6.56-8.86-6.32-14.18.38-9.77-2.78-18.3-6.99-26.68-6.99-13.94-8.1-28.64-6.28-43.83.43-3.5,0-7.04.81-10.54.29-1.25.34-2.44,2.01-1.25,11.26,8.19,23.52,15.47,28.69,29.6,2.97,8.05,4.5,16.48,6.32,24.81,1.01,4.55,2.06,8.91,7.62,10.01,1.72.34,2.4,2.16,3.11,3.59,4.36,8.53,5.65,17.92,7.62,27.11.91,4.17,1.72,8.29,2.63,12.74,1.01-2.49-.34-5.03,1.05-7.14,1.05,1.39-.19,3.21.81,4.6v3.98c2.35-4.41,3.54-9.2,4.5-14.04,1.25-6.28,1.82-12.69,3.45-18.87,1.44-5.65,3.4-11.4,9.63-13.99.67-.29,1.48-.72,1.82-1.29,3.83-6.9,5.65-14.37,5.89-22.23,1.48-.43,1.15-1.72,1.34-2.83,3.93-19.16,16.14-31.95,32.09-41.91.29-.19.72-.1,1.44-.19.29,10.54,2.68,20.74,3.54,31.14.67,8.14-1.96,15.62-4.89,23.04-.38,1.05-2.49,2.54,0,3.74h.14Z"/>
      <path class="cls-173" d="M713.74,247.55c-10.35-.38-20.69-.96-31.04-1.2-39.28-.77-78.56.34-117.79,1.87-16,.62-32.05,1.1-48.04,1.72-9.2.38-18.39,1.01-27.59,1.48-2.83-.72-5.65-1.34-8.57-.53-5.8-4.22-9.53-9.87-11.26-16.81-.34-1.29-1.01-2.68.29-3.88l3.83-.24c.1,0,7.33-.43,7.42-.43,0,.53.24,1.29.34,2.2.19,1.58.81,2.49,2.4,1.2,2.11-1.77,3.93-2.59,5.84.38,1.05,1.63,2.11.24,3.07-.48,2.01-1.53,2.4-4.45,4.89-5.56,1.34-.43,2.73-.38,4.12-.38,4.6-.1,9.2,0,13.8-.05,2.63-.05,4.89-.72,5.89-3.54,2.01-.77,2.97.81,4.12,1.87,2.59,2.35,4.79,5.13,7.76,7.09,5.27,3.5,8.48,3.26,12.79-1.1,4.98-.96,10.01-.48,15.04-.38,3.26,0,5.36-.57,5.41-4.26,3.11-1.72,6.56-.86,9.82-1.01,3.26-.14,4.41-1.01,4.36-4.55-.1-6.23-.86-12.45.34-18.63,1.53,1.2,1.25,2.92,1.29,4.55.1,4.55,0,9.1.05,13.6.1,3.69.77,4.26,4.26,3.98,5.27-.48,5.46-.72,5.6-6.28.05-2.06-.57-4.36,1.29-6.04.72,2.59.53,5.22.34,7.81-.24,3.54.48,5.32,4.55,4.6,2.54-.43,5.22-.14,7.86-.19,1.39-.57,2.92-.29,4.36-.77,7.66-.67,15.28-1.01,22.94.24,9.48-1.15,19.06-.72,28.6-1.34,1.39-.1,2.78-.19,4.07-.57,11.4-.43,22.75-.67,34.15.1,6.85,7.33,11.26,15.9,13.51,25.63l-.1-.1Z"/>
      <path class="cls-155" d="M222.23,501.43c-15.47.05-30.99.14-46.46.19-20.41,0-40.81,0-61.22.05-1.63,0-3.26-.14-4.89-.19-2.54-3.4-2.16-6.9-.05-10.25,1.68-2.68.77-3.93-1.77-5.08-5.94-2.73-11.93-5.41-17.53-8.86-4.31-2.63-8.57-5.36-11.64-9.53-3.07-4.17-2.4-7.09,2.3-9.34,1.58-.77,3.31-1.1,4.98-1.63,9.58-1.58,18.73,0,27.64,3.54,16.86,6.8,34.06,12.55,51.4,17.92,1.58.48,3.31.77,4.55,1.77,2.92,2.44,5.7,1.87,8.77.38,6.61-3.11,13.46-5.65,20.31-8.29,10.87-3.54,21.27-8.29,31.9-12.41,3.59-1.15,7.19-2.4,10.68-3.74,3.88-1.48,7.81-1.82,11.88-1.58,7.86.48,11.45,7.09,7.52,13.99-3.69,6.47-9.68,10.39-15.86,14.13-1.39.81-2.92,1.44-4.31,2.35-3.5,2.16-7.23,3.93-11.16,5.22-2.97,1.01-4.6,2.59-4.41,5.94.14,2.16-.48,4.22-2.63,5.41h0Z"/>
      <path class="cls-38" d="M94.28,449.36c-9.44-.14-18.92.48-28.26-1.48-11.83-2.49-15.38-7.14-16.38-19.26-1.01-12.02,2.16-23.47,6.13-34.68,1.82-.14,2.59,1.29,3.59,2.4,6.47,7.47,14.42,12.07,24.48,12.69,2.68.14,5.13,1.15,7.47,2.44,2.16,1.2,4.36,1.63,5.8-1.15.43-.48.96-.77,1.58-.91,1.2-.1,2.3.24,3.26.86,4.41,3.07,9.39,3.21,14.51,3.11,10.2-.14,20.45.24,30.61-.81,1.39-.14,2.92,0,4.02-.81,2.4-1.72,4.74-1.1,7.19-.29,3.93,2.68,8,5.27,9.77,10.01.57,1.53,1.1,3.07.86,4.74-1.44,2.59-3.98,3.83-6.47,5.03-19.93,9.68-41.1,15.14-62.94,18.2-1.68.24-3.5.57-5.22-.14v.05Z"/>
      <path class="cls-37" d="M94.28,449.36c6.18-1.01,12.41-1.82,18.49-3.07,17.68-3.59,34.97-8.38,51.01-16.91,1.77-.91,3.31-2.3,4.93-3.45,1.82-1.77,4.26-1.29,6.42-1.53,3.64-.38,6.85-1.44,9.58-3.83,4.79-1.44,9.53-3.11,14.51-.86,1.68,5.22.53,10.63,1.34,15.9.72,10.73.1,21.41-.48,32.14-.1,1.77.14,3.59-1.15,5.03-8.19,3.45-16.43,6.9-24.62,10.35-.86.38-1.72.53-2.44-.24-2.68-2.83-6.37-3.5-9.82-4.55-16.38-4.93-32.48-10.63-48.43-16.86-8.91-3.5-18.06-5.36-27.69-4.69.57-.19,1.15-.57,1.72-.62,4.09-.42,6.29-2.68,6.61-6.8h0Z"/>
      <path class="cls-85" d="M82.02,223.6c-7.38,7.19-15.9,12.65-25.39,16.48-7.9,1.01-12.6-3.88-16.81-9.39-1.2-1.58-2.16-3.4-2.3-5.51.1-1.1.81-2.2,0-3.31-1.34-10.63,2.97-19.69,8-28.6,2.63-4.74,5.51-9.34,7.95-14.18,3.93-7.66,4.98-15.81,3.16-24.24-.14-.62-.19-1.25-.24-1.87,0-.34.1-.72.19-1.34,2.97,1.63,4.93,4.07,6.85,6.51,9.77,12.79,16.67,27.02,19.69,42.87,1.34,7.09,1.77,14.27-1.29,21.17-.24.53-.19.96.24,1.34l-.05.05Z"/>
      <path class="cls-61" d="M97.3,410.9c-1.05,3.11-3.83,3.69-7.33,1.05-1.63-1.25-3.4-1.82-5.22-1.92-11.45-.57-20.45-5.6-27.3-14.71-.43-.57-1.15-1.01-1.72-1.48-.53-1.01-1.05-2.01-1.53-3.02,6.66-14.9,16.67-27.69,26.06-40.86,5.27-7.38,11.11-14.32,18.06-20.26,8.1-6.9,17.58-11.11,27.73-13.94,2.4,2.01,2.06,4.74,1.92,7.42-1.48,1.72-3.54,1.63-5.56,1.96-9.05,1.44-17.34,4.41-23.71,11.45-6.23,6.9-8.33,14.47-4.55,23.38,1.39,3.26,3.16,6.32,4.93,9.39.67,1.2,1.63,2.3,1.53,3.78-2.01,3.64-1.96,3.78,1.82,5.7,1.92.96,3.78,2.01,3.35,4.65-1.68,1.92-2.78,4.12-3.59,6.56-1.58,4.65-2.87,9.39-4.41,14.04-.72,2.16-1.2,4.36-.53,6.66l.05.14Z"/>
      <path class="cls-147" d="M665.89,222.84c-10.83,1.05-21.7,1.82-32.57,1.01,0-.19,0-.34-.05-.53.05-.29.14-.53.19-.81.72-1.15-.34-2.63.72-3.74,1.01,1.15.24,2.68,1.25,5.03,3.4-20.79,5.41-40.81,12.98-59.59,2.3-4.17,4.65-8.29,7.62-12.07,1.39-1.77,2.25-1.58,3.16.34,1.53,3.31,3.59,6.47,4.55,9.96,1.29,4.79,4.12,5.7,8.33,4.74.53-.29,1.05-.24,1.53.1-.38,2.11-2.16,1.48-3.45,1.77-1.05.24-2.68-.53-2.63,1.53.05.72.14,1.44.24,2.16.14,1.15.48,2.3.67,3.45,0,3.78,1.05,7.47.91,11.3-.62,11.88-2.97,23.28-9.63,33.53,1.96,1.44,4.74-.34,6.28,1.82h-.1Z"/>
      <path class="cls-40" d="M66.31,501.53c-2.49,0-5.17.96-7.09-1.92-.43-.62-2.4-.29-3.64-.29h-12.84c1.92,2.44,4.26.91,6.51,2.2H15.29c-1.44-5.89-2.97-11.74-4.31-17.68-.38-1.58-.34-3.26.53-4.79,2.3-4.12,4.5-8.29,6.8-12.41,1.68-.38,3.35.72,5.27,0-.81-1.68-2.92-1.01-3.64-2.35,2.54-5.46,6.47-9.58,11.54-12.69,1.96,1.1,3.93,2.16,4.6,4.55-1.34,2.83-4.93,3.74-5.89,6.9-1.01,1.48-.62,3.16-.81,4.79-.81,3.54.81,6.85,1.01,10.3,0,.96.38,2.06,1.58,2.3,1.25.24,1.53-1.05,2.2-1.68.29-.19.62-.29,1.01-.34,1.63.24,1.72,2.97,3.88,2.3,6.23,0,12.45-.1,18.68,0,2.87.05,5.13-.67,6.56-3.26,2.4-.77,4.74-1.87,7.19-2.49-.19,9.15-3.5,17.63-5.17,26.44v.1Z"/>
      <path class="cls-54" d="M523.24,69.41c-1.15-.62-1.96-1.58-2.63-2.68-3.54-6.08-7.14-12.21-10.73-18.3-1.05-1.82-1.48-2.78,1.39-3.5,8.53-2.11,8.48-2.3,3.98-9.87-2.24-3.77-1.25-6.35,2.97-7.76,1.39-.48,2.78-.91,4.69-1.48-6.23-6.32-6.08-12.89-1.48-19.78,1.25-1.87,1.92-4.07,2.83-6.04,1.68,0,1.63,1.39,1.92,2.16,4.93,12.69,9.77,25.39,14.71,38.08.53,1.39.53,2.54,0,3.98-2.49,6.75-5.03,13.46-7.09,20.31-1.15,3.74-2.87,5.65-6.85,4.84-.62-.14-1.25,0-1.87,0-1.72-5.36-.81-10.92-.77-16.33,0-1.68,2.2-3.31-.14-4.93,1.58-5.75-1.05-11.64.72-17.58.62-2.16-.96-5.36-.62-8.19-.81,6.56-.05,13.03.19,19.54.1,2.06,1.1,4.65-1.82,5.94-.48.24-.48.96-.19,1.39,3.02,4.93,1.29,10.35,1.63,15.57.1,1.53,1.58,3.54-.86,4.69l.05-.05Z"/>
      <path class="cls-83" d="M194.3,184.85c-2.92.24-3.11-2.25-3.59-3.98-3.83-13.6-2.11-26.25,6.85-37.6,2.54-3.26,5.41-6.13,8.1-9.2,2.44-1.96,3.5-1.05,3.98,1.77.43,2.54,1.29,5.03,1.96,7.57.24.91.24,2.06,1.63,2.11-1.15,1.53-.57,3.07-.19,4.65,2.3,9.68,4.12,19.4,3.35,29.41-.19,2.4,0,5.08-2.25,6.8-.62.29-1.25.29-1.82.05-5.17-2.06-10.44-2.63-15.86-1.15-.72.19-1.48.14-2.16-.38v-.05Z"/>
      <path class="cls-115" d="M619.57,132.21c-.62,3.26-1.25,6.51-2.63,10.16-3.74-6.13-5.99-12.36-8.57-18.44-4.36-10.3-8.67-20.6-15.95-29.32.05-4.55.1-9.15.14-13.7.38-3.74.34-7.71,4.36-9.82,5.32-1.72,8.19-.81,11.4,3.78,5.7,8.24,7.71,17.68,9.05,27.35,1.2,8.62,1.63,17.34,1.63,26.06,0,1.34-.48,2.78.57,3.98v-.05Z"/>
      <path class="cls-112" d="M665.89,222.84h-8.67c7.76-11.02,10.25-22.9,11.02-35.21,1.05-.62,2.01-.1,2.68.57,4.02,4.02,8.53,7.57,11.78,12.36.48.81.57,2.3,1.72,2.16,1.29-.19.86-1.63.86-2.54.05-6.75-.05-13.56.1-20.31,0-1.48-.81-3.69,1.82-4.17,0,9.2,0,18.44-.14,27.64,0,1.63.43,2.83,1.53,4.02,4.17,4.55,7.95,9.44,11.54,14.47-1.01,1.2-2.35.67-3.5.67-10.25.14-20.5.19-30.8.29l.05.05Z"/>
      <path class="cls-136" d="M139.6,188.35c-9.24,9.82-20.31,16.67-33.24,20.5,2.73-3.69,6.61-6.18,10.11-9.01,9.92-7.95,18.35-17,20.79-30.13,1.34-7.23.53-14.61,1.68-21.84,1.34-8.67,5.32-15.52,12.98-20.07,1.1,1.39.14,2.16-.34,2.92-3.98,6.18-5.56,13.12-3.11,19.88,4.74,13.22.86,24.14-7.23,34.44-.77.96-1.72,1.92-1.68,3.31h.05Z"/>
      <path class="cls-177" d="M673.5,167.46c-.48-.1-.96-.19-1.44-.29-.91-9.53-2.87-18.97-3.02-28.55.05-2.59,2.2-2.59,3.78-2.63,8.19-.29,16.38-.24,24.57,0,1.92.05,3.88.48,3.98,3.07-1.96,6.04-1.68,12.41-2.73,18.59-.53,3.21-.62,6.51-.91,9.77-.43.24.19.14-.29.24-8,1.53-16,1.68-23.95-.1v-.1Z"/>
      <path class="cls-97" d="M701.38,138.96c-1.25-1.63-2.92-2.16-4.93-2.16-7.57.05-15.14,0-22.66,0-1.82,0-3.54.14-4.69,1.77-2.2.86-4.45,1.63-6.66,2.54-.96.38-1.77.29-2.35-.43-.81-.96.1-1.58.67-2.25,7.38-8.29,14.8-16.53,22.13-24.81,1.29-1.48,2.2-1.58,3.54-.1,7.52,8.33,15.09,16.62,22.61,24.91.57.62,1.44,1.29.57,2.25-.72.81-1.58.43-2.44.14-1.92-.67-3.83-1.25-5.7-1.87h-.1Z"/>
      <path class="cls-77" d="M673.5,167.46c8.1,0,16.19-.1,24.24-.14,1.39.05,2.78.14,4.17.14,5.27,0,6.37,1.53,5.22,6.71-.43,2.01-1.77,1.39-2.92,1.39-5.65.1-11.35.05-17,.1-1.34,1.05-.77,2.59-.77,3.88-.05,7.19,0,14.37-.1,21.56,0,1.29,1.01,3.54-1.15,3.78-2.25.24-3.16-1.63-3.35-3.74,0-.48-.05-1.01-.1-1.53-1.72-5.08-1.53-10.39-1.72-15.62-.34-7.76.43-7.23-7.14-7.28-1.87,0-3.83.29-5.36-1.25-.43-.96-.96-1.92-.67-3.02,1.82-1.58,4.36-.24,6.47-1.63-2.35-.72-4.55.05-6.71-.53-1.29-1.82-.48-2.35,1.39-2.4,1.82-.05,3.74.38,5.51-.53v.1Z"/>
      <path class="cls-14" d="M105.73,209.09c-1.48,1.25-2.97,2.44-4.89,2.92-1.96.24-3.98.62-5.94.67-1.48,0-3.16-.57-3.5-2.3-.29-1.77,1.2-2.68,2.54-3.35,3.07-1.53,6.04-.53,9.05.86-.19-1.82-.38-3.4-.53-4.98-.43-1.15-1.25-2.3-.48-3.59.91-3.31.62-6.71.67-10.06-.48-1.63-.53-3.21.67-4.6,2.11-7.81,1.92-15.66.48-23.57-.34-1.96-.38-4.02-.43-6.04,0-1.34-.24-3.16,1.58-3.31,1.63-.14,2.35,1.53,2.59,2.83.81,4.22,1.39,8.43.81,12.74-.53,4.07-.96,8.14-1.44,12.36,1.87-.77,2.49-2.63,3.88-3.69,2.25-1.68,4.55-3.07,7.04-.67,1.77,1.68.91,4.69-1.87,6.75-2.25,1.63-4.69,2.97-6.99,4.5-3.74,2.44-4.17,3.45-3.88,8.24,2.01-.62,2.83-2.78,4.79-3.5,2.01-.72,3.74-.72,4.98,1.15,1.29,1.96.57,3.69-1.15,4.93-1.63,1.2-3.35,2.3-5.13,3.21-4.74,2.4-5.08,3.26-2.92,8.48h.05Z"/>
      <path class="cls-124" d="M565.82,61.65c0-2.3.67-4.26,2.87-5.32,2.25-1.1,4.31-.34,5.89,1.25,6.66,6.61,11.07,14.51,13.03,23.71.38,1.77-.43,2.87-2.2,2.44-7.23-1.72-19.69-13.75-19.54-22.08h-.05Z"/>
      <path class="cls-11" d="M170.97,112.95c2.16-10.16,5.27-20.02,4.55-30.51-.19-2.97.91-5.99,2.73-8.53.72-.96,1.53-2.2,3.07-1.68,1.39.48,1.72,1.68,1.77,3.02.14,2.59-.1,5.13-1.44,7.33-6.37,10.73-7.19,22.94-9.2,34.82-2.49,14.66-3.98,29.41-4.26,44.31,0,.19-.29.38-.57.72-1.82-.86-1.29-2.59-1.2-3.88.91-13.08,2.06-26.11,4.12-39.04.38-2.44-.1-3.88-2.11-5.41-3.83-2.87-7.19-6.37-9.87-10.35-1.2-1.82-2.59-4.22-.57-5.75,2.2-1.68,4.26.29,5.7,2.16,2.97,3.93,5.41,8.14,7.28,12.84v-.05Z"/>
      <path class="cls-45" d="M596.96,71.04c-2.25,2.92-3.59,6.23-4.36,9.82-1.2-6.75-2.4-13.56-3.54-20.31-.62-3.59-.72-7.23,0-10.87.38-1.92,1.25-3.83,3.35-4.12,2.2-.29,3.31,1.53,4.12,3.31,1.87,4.12,2.2,8.48,1.63,12.89-.38,3.11-.81,6.23-1.2,9.29h0Z"/>
      <path class="cls-164" d="M605,401.7c4.41-.48,8.62-2.25,13.08-2.4.14.81,0,1.72.72,2.4-1.01,2.59-.38,5.27-.43,7.9,1.25,2.3,1.34,4.6.24,6.95-4.12,2.2-10.54,1.2-13.41-2.11-1.44-1.63-2.16-3.4-.48-5.36,1.15-2.44.62-4.93.34-7.42l-.05.05Z"/>
      <path class="cls-95" d="M37.47,221.88c1.05.86.72,2.01.67,3.11.77,5.94,1.2,11.88,1.68,17.82.19,2.49.81,4.98-.86,7.23-.43.43-.91.86-1.34,1.29-.62-8.62-1.15-17.2-1.92-25.77-.14-1.77.1-3.78-1.34-5.32-.19-.29-.19-.53.1-.77,1.34-1.72,0-3.4-.19-5.03-.43-4.02-1.39-7.95-1.72-11.98-.57-6.61-3.88-12.12-6.32-18.01-.67-1.63-1.1-3.35-1.44-5.08-.24-1.15.19-2.35,1.39-2.83,1.39-.57,2.44.14,3.26,1.25,1.1,1.58,1.68,3.45,1.82,5.32,1.05,12.31,4.02,24.38,5.36,36.64.1.86.1,1.77.19,2.63,0,.29.19.57.29.86l.34-1.34.05-.05Z"/>
      <path class="cls-128" d="M80.63,160.23c-.14,1.96.29,4.02-1.58,4.6-1.72.53-2.4-1.44-3.31-2.54-3.16-3.88-5.36-8.1-5.7-13.17-.14-2.4.62-4.45,2.97-4.98,2.2-.48,3.69,1.15,4.69,3.07,2.2,4.22,2.4,8.86,2.92,13.08v-.05Z"/>
      <path class="cls-187" d="M51.7,449.46c6.18.81,11.21,3.64,15.33,8.29,1.34,2.49-.19,4.5-1.15,6.56-3.31.48-4.89-1.96-6.71-3.98-.14-.77.48-1.48,0-2.2-.34.38-.19,1.1-.81,1.34-2.73-.1-4.69-1.58-6.32-3.59-.43-2.16-1.68-4.26-.34-6.47v.05Z"/>
      <path class="cls-51" d="M523.24,69.41c.96-5.46.29-11.02.24-16.48,0-.91-1.29-1.77-1.82-2.73-.91-1.63-2.97-3.83,1.29-3.64,1.25,0,1.05-.77,1.05-1.48-.14-4.02-.43-8.05-.48-12.07,0-1.82-2.63-2.06-2.25-4.02.91-.67,1.2.43,1.92.77,1.25-3.83-.19-7.81.81-11.54h1.01v8.05c0,1.87-.34,4.36,3.45.86-5.89,7.47-2.59,14.99-3.5,22.03,1.25.29,1.44-.38,1.63-.96.24-.67.24-1.72,1.34-1.05.72.43.43,1.2,0,1.63-5.51,6.23-2.16,13.7-2.83,20.55h-1.87v.1Z"/>
      <path class="cls-6" d="M34.45,219.48c-.05.24-.1.48-.1.77-5.41.81-10.54-.48-15.52-2.35-1.63-.62-3.59-1.58-2.87-3.78.67-2.06,2.78-1.58,4.26-1.2,5.13,1.29,10.11,3.02,14.23,6.56Z"/>
      <path class="cls-119" d="M103.29,184.66c.14,1.58.19,3.16-.67,4.6-3.02-2.25-5.75-4.89-7.81-8.05-1.05-1.58-2.11-3.5.1-4.93,2.3-1.53,3.5.62,4.55,2.01,1.48,2.01,2.59,4.26,3.83,6.42v-.05Z"/>
      <path class="cls-165" d="M35.08,449.98c3.35-2.01,7.04-2.35,10.83-2.01,1.82,2.06,3.93,4.02,2.44,7.19-2.4.81-4.84.62-7.28.24-2.35-1.44-4.74-2.73-5.99-5.36v-.05Z"/>
      <path class="cls-156" d="M101.99,199.32c.62,1.15.72,2.35.48,3.59-2.63-1.15-5.32-2.2-7.95-3.5-1.44-.72-2.54-1.96-1.58-3.69,1.05-1.87,2.68-1.1,3.93-.34,1.77,1.15,3.4,2.54,5.08,3.88l.05.05Z"/>
      <path class="cls-95" d="M32.68,237.06c-1.63-.38-3.64-.67-5.51-1.39-1.48-.57-3.21-1.58-2.2-3.64.86-1.77,2.59-1.34,3.98-.72,1.72.77,3.4,1.68,4.93,2.73.81.53,2.49.86,1.87,2.35-.48,1.1-1.77.48-3.07.67Z"/>
      <path class="cls-117" d="M70.76,462.2c2.11,2.54,1.63,5.56,1.44,8.48-1.05,2.49-1.96,5.13-5.6,3.45-.86-1.72-.67-3.54-.34-5.36,1.2-2.4,1.63-5.32,4.5-6.56h0Z"/>
      <path class="cls-35" d="M30.91,249.37c-2.01-.1-4.02.1-4.07-2.44,0-1.72,1.25-2.3,2.83-2.3,2.3,0,4.93.91,5.17,2.97.29,2.44-2.73,1.1-3.93,1.77Z"/>
      <path class="cls-64" d="M35.08,449.98c2.06,1.29,4.17,2.54,5.46,4.69-1.01,2.3-2.63,2.54-4.65,1.48-1.48-1.48-2.97-2.97-4.45-4.5,1.1-.81,2.25-1.48,3.64-1.68h0Z"/>
      <path class="cls-127" d="M48.73,454.63c-.96-2.25-1.87-4.45-2.83-6.71,1.92.48,3.83,1.01,5.75,1.48,0,2.25,1.48,4.31.86,6.66-1.82,1.05-2.92.1-3.78-1.44Z"/>
      <path class="cls-46" d="M70.76,462.2c-1.2,1.96-2.4,3.98-3.59,5.94-1.25-.91-1.96-2.06-1.72-3.69.53-2.25,1.05-4.5,1.58-6.8,1.96.91,2.63,2.92,3.74,4.5v.05Z"/>
      <path class="cls-40" d="M15.39,501.53c-3.31,1.77-6.9.77-10.3.72-3.45-.1-4.36,1.05-4.17,4.31.29,4.65.1,9.34.1,13.99-1.77-3.54-.67-7.38-.77-11.02-.19-7.9-.05-7.9,7.9-7.9,2.4,0,4.79,0,7.19-.05l.05-.05Z"/>
      <path class="cls-122" d="M19.94,464.4c1.82.14,3.88-.34,5.13,1.63.19.34.1,1.1-.19,1.39-1.72,1.72-3.54.14-5.36.1-.38,0-.77-.53-1.15-.81.53-.77,1.05-1.53,1.58-2.3Z"/>
      <path class="cls-88" d="M67.03,474.37c2.3-.38,3.74-2.01,5.17-3.69.29,1.53-.29,2.92-.67,4.36-1.63,1.77-3.4,3.07-5.99,2.3-.57-1.53.14-2.44,1.48-3.02v.05Z"/>
      <path class="cls-13" d="M613.53,586.98c-20.36,4.17-41.1,6.56-61.36,11.11-.72.14-1.44.48-2.16.72-9.29,1.29-13.99,6.9-15.33,16-2.35,16.29-4.98,32.52-7.47,48.76-.48,3.11-.14,6.95-1.87,9.05-1.92,2.35-5.84-.48-8.86.34-2.63,1.68-5.41.29-8.1.24-4.12-.05-8.29-.24-12.26-1.48-1.44-1.72-1.25-3.74-.81-5.65.62-2.92.62-5.84.29-8.81,2.2-12.41,3.83-24.96,5.75-37.41,1.58-10.35,3.64-20.65,5.08-31.04,1.34-9.44,6.13-15.76,14.75-19.45,6.51-2.83,13.12-5.32,19.88-7.42,10.49-3.31,21.12-6.23,31.61-9.53,1.44-.43,2.87-.96,4.41-.86,16.33,2.35,32.72,4.02,49.19,5.13,2.68.19,5.56,0,7.95,1.87-1.2,13.6-6.23,24.48-20.69,28.45h0Z"/>
      <path class="cls-8" d="M477.25,501.14c5.51,1.1,11.11.48,16.67.48,1.39-.96,2.97-1.2,4.65-1.2,10.78,0,21.6-.1,32.38,0,12.02-.05,24.05-.05,36.07,0,2.01,0,4.02-.19,5.94.62,1.44.86,1.48,2.25,1.29,3.64-.77,5.08-1.87,10.11-2.97,15.09-.14.72-.48,1.44-1.44,1.48-1.29-.77-2.73-.43-4.07-.43-60.88,0-121.81-.05-182.7,0-5.8,0-11.59.24-17.44.38-1.72-.67-1.82-2.35-2.11-3.74-.77-3.78-2.11-7.23-4.6-10.2-.72-.86-1.63-1.82-1.01-3.02.72-1.34,2.11-1.25,3.35-1.1,5.22.62,9.92,2.92,14.37,5.51,2.44,1.44,5.27,2.49,6.99,5.03.34.43.72.86,1.05,1.29,1.44,1.48,2.73,2.92,3.78-.43.48-1.58,1.92-2.59,3.16-3.59,3.26-2.63,5.36-6.08,6.85-9.96-1.05-3.5-3.5-1.82-5.51-1.34-1.96.43-3.78,2.3-5.94.57-.1-1.2.81-1.72,1.58-2.35,8.53-4.5,17.15-4.26,25.77-.24,2.54,1.2,4.74,2.83,5.99,5.51.72,1.58,1.53,1.92,2.59.19,2.35-3.83,6.13-5.56,10.3-6.37,7.14-1.44,14.32-1.58,21.22,1.01,7.71,2.92,15.76,2.87,23.76,3.31v-.14Z"/>
      <path class="cls-73" d="M541.68,562.69c-6.8,2.63-13.8,4.84-20.45,7.86-7.28,3.31-11.93,8.24-13.32,16.48-2.87,16.72-5.8,33.48-8,50.3-.86,6.61-2.06,13.17-3.5,19.69.05,5.27-1.05,10.3-2.97,15.18-2.49,1.53-4.74,0-7.04-.57-1.77-.43-3.59-.86-5.27-1.63-3.35-1.44-6.85-2.44-10.35-3.54-2.54-.86-5.32-1.25-7.19-3.45.86-7.9,3.31-15.47,5.32-23.09,5.32-20.17,9.68-40.62,16.72-60.31.72-2.01,1.58-3.98,2.35-5.99,3.11-8.05,8.72-13.22,17.05-15.81,12.26-3.83,24.53-7.42,37.31-9.05-.67,4.07-1.63,8.1,0,12.17.24.57-.19,1.2-.57,1.72l-.1.05Z"/>
      <path class="cls-73" d="M569.89,521.21c1.2-6.51,3.07-12.89,3.5-19.54-.53-1.1-.38-2.25-.14-3.35,1.96-9.53,3.64-19.11,6.18-28.5,5.03-14.8,7.57-30.18,11.59-45.22.96-3.54,2.16-6.95,3.88-10.2,1.01-1.92,2.3-3.59,4.26-4.65,1.72-.96,3.64-.62,5.46-.62-.14,4.6,2.49,7.14,7.95,7.52,1.87.14,3.69,0,5.56,0,3.64-2.06,7.81-2.97,11.21-5.56.43-.34,1.2-.14,1.77.19,3.59.57,7.09,1.58,10.39,3.16.14,1.53-1.15,1.39-2.01,1.58-4.45.91-7.71,3.5-10.39,6.99-5.84,7.66-10.11,16.24-14.71,24.62-3.21,5.84-6.56,11.64-9.72,17.48-1.48,2.78-1.05,4.07,2.01,4.74,1.34.29,2.68.77,3.45,2.11.53,1.72-.29,3.21-.91,4.69-5.8,13.99-12.45,27.5-20.88,40.14-4.12,6.18-9.2,11.64-14.08,17.24-1.58,1.82-3.5,4.6-6.8,2.49-.05-5.27,2.01-10.16,2.35-15.38l.1.05Z"/>
      <path class="cls-16" d="M567.5,536.59c3.07.48,4.89-1.53,6.61-3.5,8.77-9.87,16.72-20.31,22.71-32.09,4.79-9.39,9.72-18.73,12.98-28.84,1.2-1.15,2.4-.29,3.54,0,4.12,1.2,8.1,2.83,12.12,4.36,2.97,1.1,5.99,1.92,9.05,2.63,1.68,1.53.38,3.07-.19,4.45-3.4,8.14-8.14,15.62-13.08,22.94-9.72,14.47-20.98,27.69-33.87,39.42-3.88,1.72-6.85,5.03-10.97,6.37-11.59,3.45-23.18,6.9-34.78,10.35-.14-3.54-2.68-6.8-1.01-10.59.48-1.1.91-2.25,1.63-3.31,3.88-3.35,8.72-4.36,13.51-5.41,2.83-.57,5.6-1.48,8.24-2.68,1.82-.81,3.21-2.01,3.5-4.12h0Z"/>
      <path class="cls-105" d="M102.62,619.79c6.47.91,11.54,4.26,15.57,9.2,5.08,6.28,3.21,15.38-4.17,21.32-11.35,9.1-31.71,9.1-43.16-.05-9.68-7.76-9.29-19.26.96-26.25,3.54-2.44,7.38-4.31,11.74-4.98.57-.38,1.15-.77,1.87-.86,2.35-.19,4.69-.53,7.04-.67,2.87-.14,4.17,1.15,3.98,4.02-.19,2.2.1,4.5-.96,6.56-1.39,1.44-3.26,1.1-4.93,1.2-1.87.1-2.68,1.01-2.68,2.83,0,2.25.38,4.45.81,6.71.24,1.34,1.15,1.82,2.4,1.92,1.25.1,2.49,0,3.74.05,2.11,0,4.26.19,6.32-.53,3.07-1.01,6.32-1.53,9.01-3.5,1.96-1.48,1.96-2.54-.19-3.88-2.35-1.44-5.22-1.72-7.42-3.5-1.29-3.21-1.72-6.42.14-9.58h-.05Z"/>
      <path class="cls-101" d="M95.05,628.18c.1-2.97,1.29-6.56,0-8.67-1.68-2.73-5.46.24-8.33-.38-.48-.1-1.01,0-1.48,0-1.05-2.06.57-2.59,1.92-3.16,1.63-.62,3.35-1.01,5.08-1.34,2.87-.57,3.59-2.2,2.78-4.93-.38-1.34-1.53-2.68-.48-4.22.14-.48.43-.96.48-1.44.29-11.69.53-23.42.77-35.11,0-1.48.24-3.59-1.87-3.5-6.13.29-11.83-2.3-17.87-2.54-5.32-2.3-10.06-5.27-12.5-10.87-.86-2.01-1.48-4.12.19-6.04,1.77-2.06,4.07-2.44,6.56-1.72,5.8,1.77,11.35,4.22,16.48,7.47.86.53,1.72,1.1,2.68,1.34,1.87.57,3.88.62,5.94,2.25.24-5.65.19-10.73,0-15.81-.34-5.32.38-10.59.77-15.86.1-1.15.24-2.25,1.05-3.16,2.2-3.31,2.78-3.31,5.27,0,2.3,2.97.72,6.42,1.2,9.63,0,2.97.19,5.94-.29,8.91-.77,2.35-.53,4.65-.1,6.99.53,2.59.57,5.22,0,7.81-1.25,5.32-1.39,10.59,0,15.9,0,4.69-.96,9.34-.1,14.04-.29,2.35-.34,4.74-.62,7.09-.53,2.4-.81,4.74.67,6.9-.43,4.26-.29,8.53-.67,12.79-1.2,3.02-1.2,6.08,0,9.1.29,3.26-1.1,6.66.86,9.77-1.01,3.74.34,7.81-1.58,11.4-2.16,1.29-4.55.81-6.85.86-1.92-4.55-1.87-9.15,0-13.7l.05.19Z"/>
      <path class="cls-139" d="M89.06,554.17c-5.32-3.16-10.73-6.13-16.57-8.19-2.83-1.01-6.23-2.49-8.24.77-1.96,3.16.34,5.94,2.3,8.48,2.54,3.35,6.8,4.65,9.53,7.71-7.14,3.21-14.42,6.08-21.94,8.33,0-15.9,0-31.81-.19-47.76,0-2.44.96-2.92,3.11-2.92,13.36.05,26.78,0,40.19,0-.34,6.61-.62,13.27-.96,19.88-.43.86.43,2.3-.67,2.73-1.29.53-2.01-.72-2.68-1.58-3.11-3.78-6.85-7.04-10.25-10.59-.72-.72-1.44-1.44-2.35-1.92-1.63-.91-3.4-1.34-5.03-.29-1.87,1.25-1.29,3.11-.72,4.79,1.82,5.36,4.93,9.82,9.15,13.6,2.16,1.92,5.27,3.21,5.32,6.8v.14Z"/>
      <path class="cls-22" d="M134.47,520.73c28.88,0,57.77-.05,86.65-.05,1.01,0,2.01-.19,2.92.48-15.42,5.89-31.81,7.47-47.81,10.73-17.53,3.59-35.26,6.08-52.4,11.3-.81-1.25.05-2.16.77-2.97,4.31-4.74,7.09-10.25,8.33-16.57.24-1.1.53-2.2,1.53-2.92h0Z"/>
      <path class="cls-171" d="M94.57,605.47c3.54,10.44,3.4,8.53-6.42,11.16-1.39.38-3.26.1-2.87,2.49h-1.68c.14-1.39-1.01-1.68-1.92-1.92-3.78-1.1-6.18-3.83-8.1-6.99-4.36-7.04-6.56-14.71-6.47-22.94,0-3.5.81-6.95,4.26-8.72,3.45-1.77,6.61-.34,9.53,1.68,5.8,3.98,8.91,9.77,11.02,16.29.96,3.02,1.77,6.04,2.63,9.05v-.1Z"/>
      <path class="cls-82" d="M134.47,520.73c-1.01,8.72-5.17,15.86-10.63,22.47-5.36,2.73-9.92,6.8-15.52,9.15-1.63.67-3.11,1.68-4.93,1.72-.81-4.84-2.16-9.63-.86-14.56.91.57.96,1.53,1.01,2.44v.34c0,.14-.05.29,0,.38,0,.05.29.14.29.1,4.41-6.04,10.59-10.44,15.09-16.43,3.35-3.93,7.42-7.14,10.54-11.3.77-1.01,1.77-2.3,3.45-1.29,1.58,2.11.14,4.84,1.58,6.99h0Z"/>
      <path class="cls-109" d="M481.23,669.04c3.88,1.25,7.71,2.54,11.74,3.11,1.2-.96,2.4-.38,3.54,0,5.75,3.31,11.88,4.36,18.39,3.11.77-.14,1.48.19,2.16.57,2.25,0,3.69.86,3.31,3.35-.38,2.92-.96,6.13-4.5,6.47-3.31.29-6.8.91-9.96-.72-1.34-.67-2.44.05-3.64.05-6.28,0-12.55.1-18.83,0-2.78-.05-4.89-1.2-4.79-4.5,0-.19-.05-.38-.1-.57-.14-2.49-.43-5.03.19-7.42.34-1.34.14-3.4,2.49-3.45h0Z"/>
      <path class="cls-72" d="M463.5,663c2.49.86,4.98,1.68,7.42,2.54,0,2.54-2.3,2.68-3.83,3.59-2.06,1.2-4.55,1.25-6.8,2.16,4.6-.19,9.1-1.1,13.65-.86,4.45.24,4.5.1,4.65,4.55.05,1.82,1.01,3.69,0,5.56h0c-6.8-.53-13.17-2.92-19.74-4.45-2.68-.62-5.27-1.53-7.86-2.49-2.16-.77-2.49-2.16-1.1-4.12,3.31-4.79,7.86-6.8,13.6-6.37v-.1Z"/>
      <path class="cls-100" d="M102.66,591c-1.39-2.25-.86-4.5,0-6.75,4.93-6.95,10.97-12.84,17.15-18.59.43-.43,1.1-.62,1.72-.38,2.97.67,3.02,2.87,2.73,5.27-1.29,10.25-7.81,15.86-16.96,19.02-1.53.53-3.07.96-4.65,1.48v-.05Z"/>
      <path class="cls-150" d="M102.66,610.69c-.86-4.31-1.53-8.62.67-12.79,3.26-3.21,6.47-6.32,11.59-6.18,2.44.1,4.65.62,5.7,2.87,1.05,2.25.24,4.45-1.25,6.32-3.02,3.74-7.09,5.89-11.45,7.66-1.72.72-3.5,1.39-5.22,2.11h-.05Z"/>
      <path class="cls-116" d="M602.13,695.76c-11.98.1-24,.19-35.97.19-1.15,0-3.02.62-3.11-1.1-.14-2.3,2.01-1.39,3.11-1.39,30.66-.05,61.36-.05,92.02-.05h2.25c.81,0,1.53.19,1.63,1.15.14,1.29-.86,1.39-1.72,1.39-2.54,0-5.03,0-7.57-.05-16.29-.05-32.57-.1-48.86-.14-.62.29-1.25.38-1.82,0h.05Z"/>
      <path class="cls-126" d="M121.54,565.28c-5.56,4.79-10.44,10.2-15.28,15.66-1.05,1.2-2.4,2.2-3.59,3.31-1.25-4.84-1.39-9.68.77-14.37,5.27-4.5,11.11-6.95,18.15-4.65l-.05.05Z"/>
      <path class="cls-185" d="M93.18,662.28h-24.24c-1.2,0-3.26.91-3.35-1.2-.1-2.16,2.01-1.39,3.16-1.44,16.38-.1,32.81-.1,49.19-.1,1.2,0,2.92-.38,2.78,1.58-.14,2.01-1.92,1.15-2.97,1.15-8.19.1-16.38,0-24.57,0h0Z"/>
      <path class="cls-55" d="M84.8,669.9c-9.34,0-18.68,0-28.02-.05-1.15,0-3.26.96-3.26-1.2,0-1.82,1.96-1.05,3.07-1.05,19.16-.05,38.37-.05,57.53,0,1.05,0,2.97-.72,2.87,1.29-.1,1.92-1.96,1.05-3.07,1.05-9.72.1-19.45,0-29.12,0h0v-.05Z"/>
      <path class="cls-96" d="M517.06,675.84c-7.33,1.72-14.37,1.58-20.79-2.97-.67-.48-.62-.91,0-1.34,6.75,0,13.46.57,20.17,1.44.19.96.38,1.92.62,2.87h0Z"/>
      <path class="cls-12" d="M62.62,677.37h-9.39c-1.1,0-2.59.24-2.63-1.34-.1-1.68,1.44-1.39,2.49-1.44,6.42-.05,12.79-.1,19.21-.1,1.2,0,2.92-.24,2.83,1.53-.1,1.68-1.87,1.29-3.07,1.29h-9.39l-.05.05Z"/>
      <path class="cls-131" d="M647.35,703.28h-7.95c-.96,0-1.92-.1-2.01-1.2-.1-1.2.96-1.34,1.87-1.34,5.27-.1,10.59-.19,15.86-.24,1.05,0,2.2.14,2.11,1.53-.1,1.39-1.34,1.25-2.35,1.25h-7.57.05Z"/>
      <path class="cls-71" d="M602.13,695.76h1.82c-2.06,3.26-1.68,7.23-3.11,10.68-.38-.34-.77-.72-1.15-1.05.29-3.35,1.05-6.56,2.4-9.63h.05Z"/>
      <path class="cls-38" d="M140.51,292.29c-.1-1.25-.19-2.49-.29-3.74-.1-1.63-.77-2.25-2.59-2.3-7.71-.19-13.08-3.74-15.42-11.3-1.87-5.51-.62-10.39,2.97-14.8.77-1.05,1.72-1.82,2.78-2.49,5.56-3.69,10.06-1.92,11.64,4.5.19.86.34,1.72.43,2.63.19,1.87,1.1,3.02,3.11,3.07,1.87.05,3.74-.14,4.22-2.3,1.1-5.17,4.07-9.44,6.32-14.08,2.49-5.17,4.12-10.59,2.54-16.48-.29-1.1-.43-2.25-.57-3.35-1.58-12.12,6.56-20.02,18.68-18.06,7.86,1.29,14.08,5.27,19.11,11.26,5.17,6.23,8.62,6.56,14.27.72,4.5-4.69,10.25-6.61,16.14-8.38,4.12,6.04,5.65,13.03,6.75,20.02.86,5.7,1.1,11.5.81,17.24-1.82.57-3.11-.62-4.55-1.29-2.97-1.44-6.04-2.59-9.24-3.16-2.2-.43-4.12.14-4.84,2.49-.72,2.25.72,3.64,2.49,4.5,4.98,2.35,9.96,4.74,15.52,5.46,1.72,3.07.67,6.37.72,9.58.05,8.57-1.01,17.1-3.16,25.39-4.26,16.14-15.47,25.48-32.96,27.69-2.01,1.72-4.45,1.68-6.9,1.68-2.97.24-5.84-.48-8.77-.77-.57,0-1.2,0-1.77-.05-.77,0-1.53-.14-2.25-.29-1.39-.57-2.87-.1-4.31-.48-3.74-1.48-7.47-2.92-11.07-4.79-10.87-5.75-17.1-14.85-19.78-26.63-.1-.48-.29-.96,0-1.44l-.05-.05Z"/>
      <path class="cls-173" d="M383.08,237.69h.81c2.59-1.53,5.46-1.58,8.29-1.72,4.36-.24,8.57-1.44,12.93-1.25,2.78,1.44,5.6,1.15,8.48.19,3.83.1,7.38-1.34,11.11-1.72,1.1-.1,2.16-.86,3.26-.14,8.29-.62,16.62-1.29,24.91-1.92,1.05,1.05.77,2.35.48,3.54-1.25,5.36-2.73,10.73-3.83,16.14-.29,1.34-.77,2.68-2.11,3.4-4.98.72-9.96,1.39-14.99,1.29-2.01.14-3.74-.81-5.6-1.25-2.3,1.96-4.93,2.63-7.95,2.83-6.66.43-13.22,1.58-19.83,2.54-2.49.34-3.78-1.48-5.46-2.83-4.36-3.45-4.69-3.35-8.67.48-3.5,3.4-6.61,7.19-10.59,10.11-5.8,3.07-11.83,5.65-17.05,9.68-7.52,5.84-7.62,12.45-.19,18.39,1.68,1.34,3.5,2.44,5.51,3.31,1.29.53,2.59,1.1,3.07,2.59.67,3.5.38,7.04.24,10.59-.05,1.77-.72,3.5-2.54,3.78-4.26.62-4.5,3.26-3.83,6.61.1.81.1,1.58-.19,2.35-2.01,1.2-3.45,3.07-5.13,4.65-17.24-1.92-34.15-5.13-49.34-14.18-5.94-3.54-11.21-7.81-14.9-13.75-8.1-13.08-4.79-28.5,8.1-38.56,10.68-8.33,23.28-12.41,36.12-15.76,15.14-3.98,30.51-6.66,46.03-8.53,1.01-.14,2.01-.24,2.83-.91l.05.05Z"/>
      <path class="cls-144" d="M223.9,217.18c-1.15,1.25-2.63,1.92-4.22,2.35-4.74,1.29-8.67,3.93-12.12,7.42-5.51,5.6-9.24,5.36-14.32-.81-4.98-6.08-11.02-10.35-18.92-11.5-4.26-.62-8.33,0-12.07,2.11-4.93,2.78-7.28,8.33-5.51,15.23,2.25,8.72.43,16.43-4.17,23.81-2.01,3.21-3.83,6.56-4.02,10.44-.14,3.5-2.92,2.4-4.79,2.63-1.96.24-4.17.48-4.5-2.49-.14-1.39-.24-2.78-.57-4.12-1.34-5.94-4.93-7.38-9.96-3.88-.91.62-1.77,1.44-2.63,2.16-1.39,0-1.63-1.15-1.77-2.06-2.01-11.02-3.07-21.99,1.2-32.76,2.2-7.33,4.89-14.42,9.48-20.69,7.33-10.01,17.1-15.33,29.46-15.62,10.2-.24,20.12-1.72,29.89-4.5,6.8-2.25,13.46-2.25,19.83,1.48,7.47,5.89,12.98,12.79,12.21,23.09-.19,2.87-1.05,5.36-2.44,7.76l-.05-.05Z"/>
      <path class="cls-151" d="M480.99,250.62c2.97-1.82,5.75-1.77,8.29.81.77,3.02,1.63,6.04,2.3,9.1,1.1,5.13,3.88,8.96,8.48,11.4,10.73,5.65,11.45,11.4,9.96,23.76-.86,7.38-4.84,13.36-8.43,19.59-1.15,1.96-2.11,4.02-3.16,5.99-.1,4.89-1.87,9.39-5.32,12.5-3.83,3.5-8.86,2.59-13.56,1.2-3.54-.72-7.52,1.1-10.73-1.68-2.25-.14-2.16-2.01-2.63-3.45-2.73-8.96-4.65-18.15-7.38-27.11-.19-3.88-.72-7.81.53-11.64.24-.57.48-1.25,1.01-1.58,5.75-4.36,6.9-10.63,7.66-17.29.86-7.62,4.36-14.13,9.92-19.5.91-.86,1.72-1.87,3.07-2.06v-.05Z"/>
      <path class="cls-25" d="M263.32,232.46c2.83-5.36,5.56-10.78,9.05-15.71,1.82-2.59,3.88-4.98,6.9-6.32,5.13-2.3,9.58.34,9.82,5.94.14,4.36-1.1,8.43-2.92,12.41-3.98,8.67-9.2,16.53-15.33,23.76-1.72,2.01-3.69,3.78-5.89,5.27-1.1.72-3.02,1.29-2.63,2.83.38,1.39,2.4,1.05,3.64,1.29,5.89,1.1,10.97,3.59,15.04,8.05,4.26,4.65,4.6,9.58.96,14.75-8.72,12.31-34.11,12.31-42.82,0-4.79-6.75-3.69-12.74,3.4-17.82,4.84-3.5,10.39-5.03,16.24-5.56.72-.05,1.68.24,2.01-.57.48-1.1-.62-1.53-1.25-2.06-10.49-8.24-17.2-19.3-23.14-30.94-1.77-3.5-2.83-7.23-2.68-11.26.19-5.46,4.07-8.19,9.29-6.32,2.87,1.01,4.79,3.16,6.61,5.46,4.17,5.27,7.04,11.35,10.78,16.91,1.01.57,2.01.62,2.97-.05l-.05-.05Z"/>
      <path class="cls-138" d="M251.3,403.66c8.33,7.33,17.58,13.27,27.21,18.73.38.24.91.24,1.39.34,1.2-.14,2.2.34,3.21.91,6.85,3.69,14.23,6.18,21.65,8.43.72.34,1.15.91,1.34,1.68-.05,1.1-.81,1.92-1.25,2.87-.86,1.05.72,2.01.19,3.07-1.1.72-2.3,1.34-2.35,2.92-.67,3.45-.48,7.09-1.87,10.44-.67.72-1.53.77-2.44.72-22.47-1.68-43.78-7.14-63.18-18.87-4.84-2.92-9.53-6.13-13.56-10.25-1.05-1.05-2.3-2.06-2.54-3.69.19-1.1,1.2-1.48,1.96-2.06,1.77-1.72,3.35-3.69,6.28-3.5,1.39.1,2.06-1.25,2.59-2.44,2.2-5.32,5.41-10.2,6.95-15.81.38-1.44,1.05-2.87,3.07-2.44,3.78,2.97,7.57,5.99,11.35,8.96h0Z"/>
      <path class="cls-180" d="M261.07,206.74c-8.77-3.45-14.18-10.35-18.2-18.39-2.92-5.84-.77-9.72,5.8-9.01.77.1,1.53,0,2.25.1,2.78.24,3.07-1.1,1.96-3.16-1.48-2.78-3.02-5.56-4.55-8.29-1.68-2.97-3.26-5.99-4.02-9.34-1.25-5.51,2.16-8.62,7.47-6.95.38.1.67.34,1.05.43,1.92.57,3.93,3.31,5.27,1.96,1.53-1.53-.34-4.22-.96-6.28-2.01-6.9-3.98-13.8-3.69-21.12.19-4.98,2.78-9.2,6.04-10.06,5.17-1.34,9.48,2.59,9.77,9.15.34,6.51-1.01,12.79-2.73,18.97-.38,1.34-.77,2.68-1.15,3.98-.53,1.82-1.53,4.07-.14,5.32,1.29,1.15,2.83-1.01,4.26-1.63,2.68-1.2,5.36-1.96,7.86.1,2.49,2.01,1.87,4.74,1.05,7.33-1.48,4.69-4.12,8.91-6.28,13.32-.96,1.92-2.25,3.69-2.16,6.13h5.27c5.51-.1,7.81,3.16,5.75,8.38-1.63,4.17-4.26,7.71-7.14,11.11-3.07,3.64-6.75,6.42-11.3,8-.53.43-1.05.43-1.58,0l.1-.05Z"/>
      <path class="cls-175" d="M188.31,325.78c2.35-.24,4.74-.43,7.09-.67,15.18,10.2,23.47,25.72,32.14,41,1.72,3.07,3.69,5.94,5.56,8.91.34,2.73-.53,4.93-2.97,6.37-3.54.24-7.09.72-10.49,1.87-.91.34-1.87.72-2.83.91-5.32.38-10.39,1.96-15.52,3.26-1.39.38-2.78,1.44-4.26.14-1.01-3.26-1.29-6.66-1.44-10.01-.86-15.95-2.59-31.81-7.33-47.18-.48-1.58-1.15-3.11.1-4.65l-.05.05Z"/>
      <path class="cls-134" d="M599.16,409.79c-6.9,8.57-7.95,19.3-10.59,29.41-2.68,10.25-4.31,20.74-8.19,30.61-.91-.38-1.48-1.34-2.49-1.53-5.84-1.63-11.21-4.41-16.77-6.71-1.39-.57-2.87-1.05-3.64-2.54-2.25-2.35-5.32-3.26-8.1-4.69-1.44-.72-1.82-1.39-.67-2.83,9.63-11.98,18.97-24.24,30.75-34.25,5.51-4.65,12.12-7.62,19.69-7.57v.1Z"/>
      <path class="cls-23" d="M354.24,329.32c1.01-1.96.91-5.03,4.45-4.45,4.5-1.82,9.15-.91,13.8-.62,1.1.05,2.2.34,3.35.34,28.5,0,57,.1,85.5-.1,4.5.72,6.23,4.22,4.6,9.29-.67,3.31-2.59,4.12-5.94,4.12-32.86-.14-65.72-.19-98.58,0-7.42.05-8.43-1.34-7.19-8.62v.05Z"/>
      <path class="cls-16" d="M557.53,459.08c7.19,2.63,13.89,6.51,21.32,8.53.24,1.63-.96,2.54-1.96,3.45-12.26,11.45-25.53,21.56-40.67,29.03-1.63.81-3.4.86-4.98,1.53h-37.36c1.05-2.73,2.92-4.98,4.74-7.23,3.64-4.6,7.95-6.66,13.89-4.36,5.6,2.16,10.87.81,15.71-2.63,10.06-7.14,18.25-16.19,26.44-25.29.91-1.01,1.92-1.96,2.87-2.97v-.05Z"/>
      <path class="cls-59" d="M410.72,443.47c6.28-.05,12.5-.14,18.78-.19,6.51-.05,9.1-2.68,9.15-9.1.05-4.74-.43-9.48.38-14.18.05,3.26.19,6.47.14,9.72,0,1.87.67,2.4,2.44,2.16,3.45-.48,6.9-1.1,10.35-1.2,1.96-.05,2.54-1.05,3.07-2.49,3.4,1.92,7.19,2.01,10.87,2.73,1.82.38,3.78.29,5.17,1.82,3.26,1.96,7.19,2.11,10.54,3.88,3.35,1.72,7.52,3.16,7.47,7.66,0,4.65-4.41,6.04-7.9,7.04-14.42,4.07-28.84,4.12-43.06-.96-2.78-1.01-5.41-2.4-6.9-5.03-.91-1.63-2.25-1.29-3.59-1.34-5.65-.24-11.3.48-16.96-.43l.05-.1Z"/>
      <path class="cls-22" d="M543.93,350.92c1.72,2.83-.1,6.18,1.39,9.01,1.68,3.31,2.06,6.85,1.68,10.49,0,.86,0,1.68-.05,2.54-10.2-4.5-18.92-11.16-27.4-18.2-2.01-5.7-3.54-11.54-6.13-17-1.01-2.16-2.06-4.31-3.16-6.47-.57-1.1-1.44-2.16-.43-3.5,5.89,3.31,11.16,7.62,16.62,11.54,5.7,4.07,11.45,8.05,17.53,11.59h-.05Z"/>
      <path class="cls-102" d="M509.78,327.84c2.92,6.23,6.04,12.36,8.24,18.92.86,2.59,1.96,5.17,1.48,8.05-8.29-4.74-16.33-9.92-25.34-13.32-6.04-2.25-12.17-4.02-19.02-5.41,1.82-.43,3.11-.72,4.45-1.05h4.93c7.81-.05,8.72-.67,11.64-8.1.72-1.87,1.53-3.74,2.3-5.56,4.36,1.2,7.76,3.98,11.3,6.51v-.05Z"/>
      <path class="cls-106" d="M387.72,498.65c-3.69-.19-7.19-1.01-9.92-3.74,6.08-1.58,12.17-3.16,18.25-4.74,8.43-1.96,16.24-.62,23.38,4.36,1.58,1.1,3.02.81,4.55-.1,2.4-1.44,4.84-2.68,7.71-2.78,11.5-1.63,22.03,1.96,32.43,6.18,4.17,1.68,8.67,2.54,13.08,3.31-7.42,1.2-14.71.96-21.89-1.68-8.38-3.02-16.96-3.69-25.53-.81-3.4,1.15-6.56,2.63-7.66,6.61-.48,1.63-1.96,2.59-2.73.38-2.92-8.19-10.11-9.05-17.05-10.01-5.13-.72-9.96.81-14.56,3.02h-.05Z"/>
      <path class="cls-169" d="M471.12,432.69c-4.74-.77-9.48-1.58-14.27-2.25-1.58-.24-1.63-1.2-1.82-2.3-.19-10.2,7.66-15.52,13.41-22.08.91-1.05,2.3-1.05,3.54-.48,1.34.62,1.48,1.92,1.44,3.26-.05,2.73-1.63,4.74-3.16,6.75-3.07,4.12-6.75,7.66-10.97,12.12,4.22-1.48,7.38-3.11,10.83-3.59,1.63-.24,3.26-.38,4.89-.48,2.06-.14,3.35.96,4.07,2.78.81,2.11-.48,3.4-1.96,4.41-1.77,1.25-3.78,1.96-6.04,1.96l.05-.1Z"/>
      <path class="cls-48" d="M240,394.71c-1.15.43-2.11,1.2-2.25,2.35-1.01,6.42-5.46,11.45-7.19,17.58-.34,1.2-1.77,2.06-2.59,1.87-3.21-.77-4.55,1.63-6.42,3.21-.53-4.69,1.92-8.57,4.31-12.02.81-1.15,2.68-2.44,3.54-3.98.67-1.25,2.49-2.25.57-4.45-1.05-1.2.96-3.5,2.68-4.36,1.63-.86,3.02-.81,1.39-3.45-1.34-2.11.57-4.5,2.78-5.89,1.25-.81,2.83-1.15,3.69-2.63-.96-.81-2.97,0-3.16-1.82-.19-1.96,1.15-2.92,2.59-3.78,1.1-.81,2.35-.86,3.59-.81,3.54.1,4.84,1.92,3.31,5.22-2.06,4.45-5.03,8.43-6.75,13.03l-.1-.05Z"/>
      <path class="cls-98" d="M230.85,262.45c-1.58.67-3.26.72-4.79.1-3.98-1.58-7.9-3.26-11.78-5.08-2.3-1.1-3.45-2.92-2.54-5.56.91-2.59,2.92-3.4,5.41-3.07,5.17.77,9.72,3.31,14.32,5.6,2.4,3.59,2.25,5.36-.62,7.95v.05Z"/>
      <path class="cls-178" d="M425.66,465.79c-7.38.05-13.17,2.54-19.11,4.55-1.34.43-3.64,2.16-4.31.29-.86-2.44,2.16-2.11,3.54-2.63,3.54-1.34,7.14-2.4,10.78-3.45,6.9-2.06,13.94-2.06,20.21,1.48,11.83,6.75,23.57,5.7,35.54.96,1.53-.62,3.11-1.01,4.65-1.48.77-.24,1.53-.24,1.87.72.34,1.05-.43,1.29-1.15,1.53-13.03,4.55-26.01,9.24-39.61,1.48-4.02-2.3-8.53-3.78-12.45-3.4l.05-.05Z"/>
      <path class="cls-141" d="M431.7,491.66c-2.83,2.06-6.51,2.54-9.2,4.93-.72.67-1.63.53-2.4-.14-6.99-6.18-15.47-6.47-24.09-6.28,10.39-3.5,20.84-5.27,31.47-.96,1.48.62,3.02,1.15,4.17,2.4l.05.05Z"/>
      <path class="cls-32" d="M457.37,415.49c-.43-7.14-.67-14.18.91-21.12.48-2.11,1.1-4.17,2.4-5.94.86-1.15,1.96-2.06,3.5-1.63,1.48.43,2.25,1.58,2.44,3.07.24,2.16,0,4.22-.57,6.37-1.96,6.8-5.89,12.74-8.67,19.21v.05Z"/>
      <path class="cls-20" d="M234.63,375.88c1.48-.48,3.35-2.01,3.35,1.29-.1,2.4-1.05,4.6-1.96,6.75-4.69,11.3-9.82,22.47-14.61,33.77-.67,1.58-1.58,2.92-3.64,2.16-1.2-1.48-.86-3.11-.29-4.65,4.93-12.93,10.3-25.68,16-38.27.19-.48.62-.77,1.1-.96l.05-.1Z"/>
      <path class="cls-159" d="M474.9,381.96c-.24-3.4.67-6.37,2.2-9.2.77-1.39,1.82-2.44,3.59-2.2,1.77.24,2.49,1.58,2.92,3.07,1.1,3.74-2.49,13.84-5.7,16.19-1.48,1.1-2.06.43-2.25-.96-.34-2.35-1.1-4.65-.77-6.9Z"/>
      <path class="cls-143" d="M218.01,419.52c2.01-.1,2.54-1.63,3.21-3.16,4.98-11.74,9.92-23.47,14.95-35.21.57-1.39,1.25-2.68,1.92-4.02.62,0,1.2.1,1.82.14-.77,1.29-1.77,2.44-2.06,4.02,1.53,1.34,3.11-.57,4.69.1-.81,2.01-1.96,3.88-4.02,4.26-2.63.53-3.21,2.49-3.98,4.45-.38.96-.62,1.68.81,1.68,1.1,0,1.72.53,1.39,1.68-.24.86-.77,1.96-1.68,1.77-3.54-.67-3.4,2.59-4.93,4.07,1.2,1.15,2.49-1.1,3.5.48-4.74,6.13-10.35,11.78-12.02,19.88-.67.29-1.34.53-2.06.81-.57.67-1.15.48-1.68-.1-.14-.34-.05-.62.19-.86h-.05Z"/>
      <path class="cls-50" d="M465.9,333.82c-.34-2.11-.57-4.22-.96-6.28-.29-1.53-1.34-2.35-2.92-2.35-3.02.19-1.68-2.01-1.87-3.35,1.15-3.78-1.39-5.56-4.07-7.23-.77-2.97-.53-5.99-.24-8.96.19-2.2,1.2-3.98,3.98-2.59,2.97,7.95,4.36,16.33,6.75,24.43.57,2.01.77,4.22,2.3,5.84-.72,1.72-1.92.48-2.92.53l-.05-.05Z"/>
      <path class="cls-33" d="M234.63,375.88c-5.22,12.74-10.44,25.48-15.62,38.23-.72,1.72-1.53,3.5-1.05,5.46l-.29.1c-1.68.38-1.82-2.01-3.35-1.87-.38-1.2,0-2.25.53-3.31,5.08-9.92,8.29-20.6,13.22-30.51.53-1.1.72-2.49,2.25-2.78.91-2.06,1.82-4.07,2.73-6.13.67,0,1.25.19,1.58.81Z"/>
      <path class="cls-78" d="M383.89,213.5c-1.34-1.34-.38-3.11-.81-4.6v-105.67c0-.19.29-.38.77-1.05v111.32h.05Z"/>
      <path class="cls-36" d="M261.07,206.74h1.58c0,7.38-.05,14.8,0,22.18,0,1.2-.53,2.54.72,3.5-.34.77-.48,1.92-1.44,1.96-1.01,0-1.15-1.15-1.53-1.92,1.25-.96.67-2.3.67-3.5v-22.27.05Z"/>
      <path class="cls-111" d="M455.65,417.94c-2.3-1.82-4.02-3.45-5.27-5.46-.96-1.53-1.29-3.69.48-4.65,2.16-1.2,2.63,1.15,3.21,2.54.91,2.25,1.92,4.6,1.58,7.62v-.05Z"/>
      <path class="cls-9" d="M480.99,250.62c-8.62,7.76-12.6,17.53-12.93,28.98-.1,3.07-1.87,5.36-4.02,7.42-1.29,1.2-2.44,2.54-3.64,3.83-2.16.96-3.69,0-4.98-1.68-.91-2.73-.62-5.51-.19-8.24.43-2.44,0-3.98-2.35-5.65-2.06-1.48-3.93-3.26-6.37-4.17-1.68-5.99-.24-11.83,1.01-17.63,2.11-7.38,4.02-14.8,5.41-22.37,2.92-5.41,4.02-11.59,6.75-17.1.34-.67.48-1.44.86-2.11.86-1.48,1.01-4.12,2.87-4.02,2.25.1,2.54,2.73,3.21,4.6,1.48,4.02,1.82,8.29,2.2,12.55.14,1.77.38,3.5.91,5.17.77,8.48,5.41,14.8,11.3,20.41h-.05Z"/>
      <path class="cls-67" d="M633.27,223.32s.05.34.05.53c-6.37.14-12.69.29-19.06.43-1.34,0-2.73.24-4.07.38-1.34-.34-1.15-1.48-1.2-2.44-.96-14.42-5.17-28.21-8.48-42.2-.48,2.63.1,5.22.57,7.76.48,2.73.77,5.51,1.25,8.24,1.01,5.6,1.92,11.21,2.87,16.81.29,1.58.72,3.26-.81,4.6-3.26-2.92-5.7-6.47-6.66-10.73-1.25-5.7-3.64-10.92-5.94-16.24-3.31-7.66-5.17-15.71-5.51-24.09-.19-4.02-1.25-7.95-.53-12.07,13.12,5.56,23.57,13.6,27.97,28.02,1.72,5.7,4.12,11.07,9.01,15.33,4.22,3.74,4.26,10.01,6.13,15.18,1.25,3.59,1.39,7.71,4.45,10.54l-.05-.05Z"/>
      <path class="cls-168" d="M536.31,225.09c.19-7.19.38-14.37.62-21.56.24-6.85,1.87-8.38,8.72-8.38,1.39,0,2.78.1,4.17.1,11.35.62,11.59.77,11.5,12.36,0,5.13.67,10.3-.77,15.33-.14.43-.53.81-.77,1.2-1.58,0-3.21.19-4.65-.29,1.29.72,3.11-.19,4.5.91,2.35.29,4.65.57,6.8,1.68,2.16,4.84,1.87,5.22-3.35,5.27-5.89.05-11.74.14-17.63.24-1.53.48-1.77-.43-1.53-1.58.57-2.92-1.25-3.35-3.45-3.69-1.48-.19-3.35.53-4.12-1.58h-.05Z"/>
      <path class="cls-34" d="M428.01,233.09c-3.59,2.2-8.05,1.05-11.69,3.07-.86.48-1.92,0-2.73-.67-.19-5.6-1.25-11.11-1.39-16.72,1.72-3.74,3.88-7.04,7.81-8.77.91-.38,1.87-.91,2.83-.91,1.82,0,4.41-1.01,5.22.67.77,1.48-1.96,2.16-3.07,3.26-4.69,4.69-5.32,9.39-1.87,16.05,8.38-8.77,10.63-11.11,12.02-24,2.78,4.69,2.06,8.96,1.29,13.17-1.05,5.89-4.6,10.54-8.48,14.9l.05-.05Z"/>
      <path class="cls-5" d="M593.32,212.06c-.05,3.4-.19,6.8-.14,10.16,0,1.82-.48,2.59-2.54,2.78-9.63.96-9.63,1.01-9.68-8.81,0-4.65-.1-9.29-.14-13.94,3.78-1.29,7.71-.43,11.54-.62,1.2-.05,1.34.67,1.29,1.77-.19,2.87-.24,5.8-.34,8.67Z"/>
      <path class="cls-140" d="M412.15,218.72c2.06,5.46,2.97,10.97,1.39,16.72-2.63,1.53-5.22,2.68-7.81,0-2.78-2.4-1.68-5.6-1.48-8.38.19-3.16.24-6.13-1.25-8.96-1.63-1.72-3.31-3.45-4.93-5.17-.62-.67-1.25-1.29-.24-2.2,1.05-1.01,1.44-.14,2.01.57,1.77,2.16,3.59,4.26,5.6,6.23-.86-2.54-2.4-4.6-4.02-6.66-.72-.91-1.48-2.16-.29-2.92,1.05-.67,1.72.67,2.2,1.48,2.01,3.31,3.59,6.85,4.69,11.88,1.63-5.03,1.48-9.53,5.17-13.36-.14,2.44-.19,4.07-.29,5.75-.24,1.68-.48,3.4-.72,5.08l-.05-.05Z"/>
      <path class="cls-66" d="M604.43,217.38c0-7.09-2.16-13.84-3.02-20.79-.72-5.6-1.72-11.16-2.63-16.72-.19-1.1-.24-2.11,1.01-2.49,1.63-.48,1.87.96,2.11,2.01,2.16,9.53,4.55,19.02,6.32,28.64,1.01,5.46,2.68,10.92,2.01,16.62-1.39.14-2.83.72-4.12-.38.19-2.49-.57-4.74-1.72-6.9h.05Z"/>
      <path class="cls-89" d="M634.22,218.76c-.43,1.2.34,2.63-.72,3.74-3.74-32.91-2.25-65.82.62-98.72-1.29,31.66-2.11,63.37.1,95.04v-.05Z"/>
      <path class="cls-18" d="M586.85,197.59c-1.15-.29-2.83.43-2.54-1.44.24-1.39.67-3.5,2.16-3.54,1.92-.05,2.25,2.16,2.49,3.64.38,2.11-1.58.77-2.16,1.34h.05Z"/>
      <path class="cls-53" d="M559.59,224.75c-1.63,0-3.4.81-5.03-1.01,1.96-.53,3.59-.81,5.17.38-.1.19-.14.43-.14.62Z"/>
      <path class="cls-154" d="M140.51,292.29c2.01,4.55,3.16,9.44,5.8,13.8,5.22,8.81,13.32,13.6,22.56,17.1,1.05.38,2.68,0,2.83,1.82,1.01,3.11-1.48,4.79-3.02,6.75-2.16,2.73-5.03,4.45-8.57,4.93-1.2-.1-2.06-.86-2.87-1.68-4.69-4.79-10.49-7.52-16.91-9.05-1.34-.34-2.68-.67-3.64-1.77-2.54-3.83-4.74-7.76-2.16-12.45,3.74-4.26,4.74-9.44,5.17-14.85.14-1.58-.48-3.26.77-4.65l.05.05Z"/>
      <path class="cls-15" d="M134.52,311.79c-.86,4.6.48,8.62,3.02,12.36-3.5,2.01-6.75.72-10.01-.72-.53-2.54-1.01-5.03-1.53-7.57-2.63-2.25-5.17-4.69-7.95-6.75-3.5-2.63-7.23-2.3-10.68.53-9.53,7.71-16.62,7.71-26.2-.29-4.26-3.59-9.2-4.41-14.42-4.65-10.06-.43-19.78,1.68-29.51,3.88-5.32,1.2-10.2-.29-14.95-2.63-.77-.38-1.77-.81-1.58-1.87.24-1.25,1.39-.77,2.2-.81,13.22-.62,26.49-.43,39.61-2.4,2.97-.43,6.08-.34,9.05-.05,5.08.43,9.39,2.25,12.55,6.66,4.45,6.28,11.93,7.04,18.11,2.11,9.44-7.57,15.09-7.52,24.24.62,2.59,2.35,4.93,3.16,8.05,1.58h0Z"/>
      <path class="cls-70" d="M125.47,225.66c-1.2,7.28-2.06,14.61-1.58,22.03.29,4.36.67,8.67,2.16,12.84-3.54,4.22-4.17,9.2-3.83,14.47-5.7-9.1-5.99-18.92-4.22-29.12,1.15-6.47,3.5-12.55,5.99-18.63.29-.72.67-1.34,1.48-1.58Z"/>
      <path class="cls-22" d="M38.91,250.09c-.43-6.61-.96-13.17-1.29-19.78-.1-1.72-1.05-3.64.53-5.27,2.83,9.1,9.39,13.6,18.44,15.04-5.89,3.35-11.78,6.66-17.68,10.01Z"/>
      <path class="cls-112" d="M214.66,418.13c2.68-2.83,1.53,2.06,3.07,1.53.38.62,1.01.81,1.72.81,5.36,7.14,12.79,11.64,20.36,15.81,17.24,9.53,35.88,14.32,55.37,16.14,1.77.14,3.5.38,5.27.57-.19,4.36-.38,8.72-.57,13.08-.19.81-.38,1.58-.57,2.4,0,1.01,0,2.01-.05,3.02,0,1.2-.05,2.4-.1,3.54v5.94c.29,2.83.57,5.65.81,8.48-.05,4.17,1.92,8,2.06,12.12-2.01.1-4.02.14-6.04.24-18.01-.05-36.02-.1-54.03-.19-1.48,0-3.02-.1-4.5-.14-.96-2.06.14-3.93.57-5.84.86-3.78,1.15-7.66,1.82-11.5,4.69-2.87,9.53-5.46,13.75-9.05,2.83-2.4,5.17-5.13,6.75-8.43,2.63-5.6-.57-10.92-6.75-11.26-4.02-.19-8-.14-11.83,1.44-3.59,1.48-7.28,2.59-10.97,3.88-1.68-.77-2.54-2.4-3.74-3.64-7.23-7.81-15.62-14.08-24.81-19.3-.96-.57-2.01-1.05-2.44-2.25-1.15-5.17-.53-10.49-.77-15.71.86-1.29,2.2-1.68,3.59-1.77,4.02-.19,8.05-.53,12.07,0l-.05.1Z"/>
      <path class="cls-145" d="M252.74,578.93c-1.05-7.04-.43-14.08-.53-21.17-.14-11.21,0-22.47-.1-33.67,0-2.68.86-3.45,3.45-3.45,7.62,0,7.57-.1,7.57,7.62v70.03c0,1.87-.19,3.78-.43,5.65-.38,3.07-2.49,4.41-5.27,4.26-2.83-.14-4.55-1.82-4.89-4.84-.72-7.42,0-14.85.05-22.27.62-.53,1.44-.77,2.16-1.29-.67-.38-1.58-.1-2.11-.86h.1Z"/>
      <path class="cls-22" d="M30.33,585.3c-.62-1.2-.43-2.49-.43-3.74,0-19.16.05-38.32-.1-57.48,0-2.92.91-3.88,3.69-3.5,1.01.14,2.01.1,3.02,0,2.35-.24,3.07.91,3.07,3.11-.05,18.15-.05,36.31-.1,54.46-2.3,3.31-5.41,5.6-9.15,7.09v.05Z"/>
      <path class="cls-104" d="M102.71,542.58c-.05-1.05-.14-2.06-.19-3.11.05-3.02.1-6.08.19-9.1,1.44-3.02,1.1-6.9,4.41-9.01,2.4-3.5,4.79-6.99,8-9.87,6.47-5.75,13.12-4.98,17.77,2.25-2.68.48-3.4,3.11-5.08,4.74-2.78,2.68-5.51,5.46-8.29,8.19-4.93,4.22-9.1,9.24-13.6,13.89-.91.96-1.48,2.4-3.21,2.06v-.05Z"/>
      <path class="cls-93" d="M30.33,585.3c2.83-2.63,5.84-5.08,9.15-7.09.05,8.19.24,16.38.14,24.57,0,2.73-1.25,4.89-4.41,5.17-3.11.29-5.08-1.29-5.17-4.22-.19-6.13-.77-12.31.29-18.44Z"/>
      <path class="cls-27" d="M239.85,484.14c1.2,4.65-.24,9.01-1.25,13.41-.29,1.34-.77,2.63-1.15,3.93-5.08,0-10.16,0-15.23-.05,1.48-2.44,2.44-5.03,1.77-7.9-.48-2.01.53-2.59,2.06-3.21,4.6-2.01,9.2-4.12,13.75-6.18h.05Z"/>
      <path class="cls-166" d="M107.12,521.36c-1.77,2.87-1.96,6.47-4.41,9.01,0-3.21-.1-6.47-.14-9.68,1.53,0,3.16-.29,4.55.67Z"/>
      <path class="cls-57" d="M252.74,578.93c1.48.38,3.93-1.58,4.22.43.24,1.72-2.63,1.44-4.26,1.72,0-.72,0-1.44.05-2.16Z"/>
      <path class="cls-21" d="M634.89,479.73c-6.37.05-11.74-3.35-17.58-5.13-2.49-.77-4.98-1.63-7.47-2.44-.34-.19-.62-.43-.96-.57-2.25-1.01-5.99-.77-6.51-2.92-.48-1.82,1.77-4.45,3.02-6.61,7.86-13.12,14.04-27.26,23.14-39.71,3.31-4.55,7.76-6.9,13.08-7.9,7.81,2.83,14.18,7.14,15.71,16.05.72,4.22-.34,8.29-1.53,12.21-2.92,9.87-6.61,19.5-10.59,29.03-1.39,3.31-3.45,6.08-5.94,8.62-1.58.57-3.07.24-4.41-.67l.05.05Z"/>
      <path class="cls-73" d="M634.89,479.73c1.53-.14,3.07-.34,4.41.67,1.72,17.24.43,34.49-1.15,51.69-.34,3.74-.77,7.52-1.15,11.26-.38,2.2-2.01,3.07-3.98,3.45-8.14,1.63-16.38,2.4-24.67,1.72-5.27-.43-10.54-.05-15.76-1.05-1.96-.38-4.07-.24-5.51-1.96,5.41-6.32,11.83-11.69,17.15-18.11,8.81-10.54,16.96-21.51,23.85-33.43,2.63-4.6,5.22-9.2,6.8-14.27v.05Z"/>
      <path class="cls-4" d="M587.04,545.5c7.86,1.72,15.95,1.77,23.9,2.11,7.57.29,15.23-.29,22.75-2.01,1.44-.34,2.44-1.1,3.31-2.25-.48,4.36-.96,8.72-1.39,13.12-.1.96-.57,1.63-1.39,2.11-18.2-1.44-36.4-2.83-54.46-5.41-1.1-.14-2.2-.53-3.31-.81,3.26-2.68,6.51-5.36,10.63-6.8l-.05-.05Z"/>
      <path class="cls-103" d="M631.16,411.33c-1.39-.05-2.11.96-3.07,1.68-2.87,2.2-6.28,3.4-9.92,3.64.05-2.35.1-4.69.14-7.09,4.31.38,8.67.24,12.84,1.72v.05Z"/>
      <path class="cls-172" d="M613.1,622.14c-3.93-.19-7.81-.48-11.74-.53-2.35,0-3.07-.67-2.59-3.11,1.05-5.41,1.92-10.92,2.68-16.38.24-1.92.96-2.63,2.87-2.59,4.55.1,9.1.05,13.65,0,1.68,0,2.4.62,2.63,2.4.81,5.6,1.87,11.16,2.87,16.77.43,2.4-.1,3.59-2.83,3.4-2.49-.19-5.03,0-7.57,0v.1-.05Z"/>
      <path class="cls-91" d="M566.16,619.75c-3.74.1-5.35-1.41-4.84-4.5.72-4.45,1.58-8.91,2.11-13.41.24-1.82.96-2.35,2.63-2.3,6.56,0,13.12.05,19.64,0,1.96,0,2.73.53,2.3,2.63-.86,4.69-1.68,9.39-2.25,14.13-.29,2.11-1.25,2.73-3.21,2.73-5.8.1-11.59.14-16.43.77l.05-.05Z"/>
      <path class="cls-172" d="M644.81,599.58c2.73.24,6.37-1.15,8.86.53,2.63,1.77,1.2,5.84,2.16,8.81.29.96.29,1.96.53,2.97,1.02,4.89-.8,8.1-5.46,9.63-3.5,1.15-7.09,1.53-10.78,1.58-1.63,0-2.59-.48-2.87-2.2-.96-5.84-1.92-11.64-3.02-17.44-.53-2.92.19-4.22,3.4-3.88,2.25.24,4.55,0,7.23,0h-.05Z"/>
      <path class="cls-160" d="M664.93,557.71c-.86-.24-2.35.48-2.44-.91-.1-1.2,1.29-1.29,2.25-1.29s2.4,0,2.44,1.1c.1,1.48-1.44.86-2.25,1.05v.05Z"/>
      <path class="cls-68" d="M403,218.05c2.44,1.48,3.16,3.4,2.54,6.28-.81,3.64-.67,7.38.19,11.07-7.23.96-14.51,2.01-21.84,2.25,0-3.88.34-7.81,0-11.64-.24-3.02,1.34-3.64,3.64-3.93,5.32-.72,10.63-1.53,15.47-4.02h0Z"/>
      <path class="cls-125" d="M214.37,301.01c0,2.78-2.83,4.69-7.19,5.99-4.6,1.39-9.44,1.29-13.89-.29-3.69-1.29-6.04-3.02-5.94-5.46,3.64,2.44,6.04,5.56,13.6,5.46,7.57-.1,9.87-3.16,13.41-5.7Z"/>
      <path class="cls-31" d="M496.84,228.3c1.82-4.98,3.02-10.16,6.04-14.66-.43,4.79-.91,9.53-1.34,14.32-1.53.1-3.11.24-4.65.34h-.05Z"/>
      <path class="cls-148" d="M199.76,435.52c10.68,5.36,20.12,12.45,28.26,21.22,1.1,1.15,2.35,2.3,2.78,3.98-10.63,3.93-20.84,9.05-31.85,12.07-.14-11.98,1.53-23.95.24-35.93,0-.38.38-.86.62-1.29l-.05-.05Z"/>
      <path class="cls-60" d="M158.71,412.24c3.93-.77,7.76-1.63,9.24-6.13,4.45-11.26,15.23-15.71,26.3-13.27,1.48,1.92.19,3.64-.67,5.22-3.07,5.89-6.04,11.83-9.05,17.72-.96,1.92-1.39,3.74.05,5.6-2.73,4.65-7.71,3.31-11.78,4.31-1.29.34-2.73.14-4.12.24-1.29-6.04-5.65-9.82-9.96-13.65v-.05Z"/>
      <path class="cls-60" d="M289.1,441.89c3.93-.77,7.76-1.63,9.24-6.13,4.45-11.26,15.23-15.71,26.3-13.27,1.48,1.92.19,3.64-.67,5.22-3.07,5.89-6.04,11.83-9.05,17.72-.96,1.92-1.39,3.74.05,5.6-2.73,4.65-7.71,3.31-11.78,4.31-1.29.34-2.73.14-4.12.24-1.29-6.04-5.65-9.82-9.96-13.65v-.05Z"/>
      <path class="cls-182" d="M102.57,400.74c-.81,1.82-1.92,3.21-3.64,4.36s-3.31,2.92-.48,4.84c-.38.34-.77.62-1.1.96-1.2-1.05-1.87-2.16-1.29-3.93,2.11-6.42,3.98-12.89,6.04-19.3.57-1.82,1.34-3.54,3.4-4.17.62.38.77.96.81,1.63-1.1,5.22-1.2,10.73-3.74,15.62h0Z"/>
      <path class="cls-80" d="M184.58,421.39c-3.78-.43-2.44-2.83-1.53-4.65,3.16-6.42,6.37-12.74,9.68-19.06.77-1.48,1.34-2.97,1.63-4.55.14-2.2,1.01-3.98,3.07-4.98,6.32-2.87,12.84-4.69,19.83-4.55.14.24.19.48.19.72-.29,1.82-1.87,2.2-3.21,2.87,1.2,1.15,1.39,2.3.48,3.78-.96,1.53-1.2,3.74-3.69,3.74.86.96,1.29,2.01.48,3.21-1.1,1.53-.86,4.17-3.59,4.36.05.14-.38-.34-.19.19,1.48,3.78.72,5.13-3.4,6.28,3.26,1.96.57,4.02.29,5.94,1.58-2.3.96-6.9,6.23-5.99-1.15-.62-2.59.86-2.92-.96-.43-2.16,2.87-5.46,5.99-6.18-.53-.05.34,0,.19,0-1.29-.19-3.31.38-3.11-1.68.19-2.06,1.05-4.31,3.35-5.13,1.39-.48,2.87-.91,4.12-.86-.53.1-1.34.14-2.16.24-2.25.34-2.2-1.15-1.82-2.59.96-3.64,2.54-4.84,6.75-5.36.53,0,.1-.72.19-.24,0,.1-.1.1-.34.14-.77.14-1.58.24-2.2-.29-1.39-1.2-.43-2.25.29-3.26,3.59-1.34,7.19-2.73,11.11-1.39-5.22,12.31-10.44,24.62-15.71,36.93-.96,1.39-2.44.91-3.78.96-3.98.05-8-.38-11.93.77-4.89-.34-9.68.24-14.42,1.53l.14.05Z"/>
      <path class="cls-139" d="M667.51,175.56c3.5,0,7.04.1,10.54-.1,2.11-.1,3.11.24,3.11,2.73,0,7.14.38,14.32.57,21.46-4.65-3.88-8.14-9.05-13.51-12.07-.24-4.02-.48-8.05-.77-12.07l.05.05Z"/>
      <path class="cls-179" d="M666.6,170.38c2.54-1.63,5.27-.48,7.95-.62.34,0,.91.48,1.01.86.19.72-.38,1.05-1.01,1.29-2.49,1.01-5.13.67-7.71.62-.1-.72-.14-1.44-.24-2.16Z"/>
      <path class="cls-163" d="M67.03,474.37c-.48,1.01-1.01,2.01-1.48,3.02-1.25,3.98-4.07,4.79-8,4.6-6.47-.34-12.98-.14-19.5-.19-1.58-2.16-.29-4.89-1.44-7.52-.81,1.68-.1,3.59-1.53,4.69h-.57c-2.35-1.92-1.72-4.84-2.44-7.28-.38-1.34-.43-2.73-.72-4.07-.19-1.68-1.34-3.02-1.63-4.69-.34-.72-.53-1.39.19-1.96,1.96-1.58,3.93-3.21,5.89-4.79,1.72,0,3.31-.38,4.65-1.48h8.19c1.44,0,2.25,1.68,3.78,1.44,2.01,1.05,4.02,2.11,5.99,3.16.72-.43.96-.14.91.62,2.01,1.53,3.98,3.11,5.99,4.65.86,1.1,1.63,2.25,1.72,3.69,0,2.06-.1,4.12-.1,6.18l.1-.05Z"/>
      <path class="cls-74" d="M32.11,466.8c1.58,3.93,1.1,8.24,2.44,12.17-.14,1.39.34,3.07-2.16,3.02-1.87,0-2.59-.53-2.83-2.44-.43-3.45-1.2-6.9-1.82-10.35-.14-.91.43-1.39,1.05-1.82.96-1.1,1.96-1.63,3.31-.57h0Z"/>
      <path class="cls-58" d="M24.87,469.67c2.2,3.4,2.06,6.9,3.07,10.06.38,1.25-.34,1.72-1.34,1.48-1.39-.29-3.11.81-3.98-1.63-1.25-3.69.86-6.37,2.25-9.92Z"/>
      <path class="cls-56" d="M18.79,495.63h14.37c.81,0,1.01.62.77,1.34-.34.86-.72,1.58-1.92,1.39-1.34-.24-2.73-.72-4.07-.53-.77.1-3.31-2.92-2.44,1.01-.34,0-.72.1-1.01,0-1.96-.72-3.88-1.53-5.8-2.3,0-.34.05-.62.1-.96v.05Z"/>
      <path class="cls-19" d="M31.67,490.7c-1.96.77-4.84-.48-5.6,2.68-.14.57-1.53.48-1.53,0,.24-4.36-3.83-2.25-5.51-3.74-.38-.34-1.2-.24-1.48-.96,2.44-.96,10.97.19,14.08,2.01h.05Z"/>
      <path class="cls-41" d="M41.06,494.96c6.32-2.59,12.84-.53,19.21-.91v.91h-19.21Z"/>
      <path class="cls-181" d="M40.2,488.21h20.02c-6.61,2.63-13.41.34-20.07,1.29v-1.29h.05Z"/>
      <path class="cls-65" d="M16.49,478.05c.67-.96-.96-4.17,2.2-3.69,2.92.43,1.25,3.5,1.87,5.32.62,1.82-1.2,1.29-2.2,1.44-2.16.29-2.2-1.1-1.87-3.07Z"/>
      <path class="cls-186" d="M35.12,478.96c0-1.72,0-3.45-.05-5.17,0-1.05.57-1.63,1.58-1.63s1.15.86,1.2,1.53c.14,2.73.14,5.41.24,8.14-2.44.57-1.87-2.01-2.92-2.87h-.05Z"/>
      <path class="cls-44" d="M32.11,466.8c-1.1.19-2.2.38-3.31.57-.81-1.72-.96-3.31.96-4.41,1.63.77,2.11,2.2,2.3,3.83h.05Z"/>
      <path class="cls-29" d="M684.62,145.28h-5.27c-1.92.05-2.73-.91-2.68-2.78,0-1.72.86-2.44,2.54-2.54,3.88-.19,7.76.38,11.64.67,1.58.14,1.72,1.1,1.68,2.35,0,1.29-.34,2.2-1.87,2.2h-6.04v.1Z"/>
      <path class="cls-28" d="M677.81,152.42h14.27v.81h-14.27v-.81Z"/>
      <path class="cls-52" d="M691.32,157.83h-12.84v-.81h12.84v.81Z"/>
      <path class="cls-26" d="M689.45,161.71c-3.83,1.39-7.76,1.05-11.69.96,0-.34,0-.62-.05-.96h11.78-.05Z"/>
      <path class="cls-49" d="M699.9,172.59h-2.54c-.77,0-1.58-.19-1.68-1.1-.1-1.01.53-1.63,1.53-1.77.72-.1,1.53-.19,2.25,0,1.68.34,4.65-1.05,4.69,1.34.1,2.63-2.97,1.05-4.26,1.58v-.05Z"/>
      <path class="cls-69" d="M59.46,459.85c-.29-.19-.62-.38-.91-.62-.43-1.01-1.2-2.01-.14-3.11.43-.43.96-.34,1.29.1.91,1.25,1.05,2.49-.24,3.64Z"/>
      <path class="cls-62" d="M496.32,671.57v1.34c-1.1-.24-2.2-.48-3.31-.72,1.15-5.03,2.25-10.06,3.4-15.09,1.05,3.21.34,6.42-.1,9.63-.24,1.58,0,3.26,0,4.89v-.05Z"/>
      <path class="cls-135" d="M531.24,501.57c16.29-7.66,30.75-17.96,43.93-30.23,1.29-1.2,2.44-2.49,3.69-3.78,1.58,0,1.53,1.15,1.58,2.2-2.35,10.63-4.69,21.27-7.04,31.85-14.04,0-28.12-.1-42.15-.14v.1Z"/>
      <path class="cls-113" d="M478.64,680.48c.38-2.68-1.1-5.13-.72-7.81.34-2.2-1.53-1.15-2.3-1.25-5.94-.67-11.78,1.2-17.87,1.25.53-2.2,1.72-2.92,3.78-3.11,3.5-.38,6.85-1.34,9.44-4.02,3.4,1.15,6.85,2.35,10.25,3.5-2.83,3.35-1.05,7.81-2.59,11.45h0Z"/>
      <path class="cls-152" d="M85.8,638.91c.62,2.97-.62,3.02-3.07,2.35-3.59-.96-6.95-2.16-9.68-4.79-1.53-1.48-1.68-2.73.14-3.98,3.07-2.11,6.51-3.21,10.16-3.88,1.58-.29,1.68.48,1.77,1.63.19,2.87.43,5.8.67,8.67Z"/>
      <path class="cls-130" d="M95.05,628.18v13.7c-4.85.32-7.57-1.84-8.14-6.47-.57-4.63,2.12-7.06,8.1-7.28l.05.05Z"/>
      <path class="cls-129" d="M101.9,641.01c0-2.63,0-5.27-.05-7.9,0-1.44.14-2.78,1.63-3.5,3.07,0,5.46,1.72,8,3.07,2.25,1.2,2.16,2.54.34,4.07-2.87,2.4-6.32,3.54-9.92,4.26h0Z"/>
      <path class="cls-183" d="M89.06,554.17c-2.78-4.41-7.66-6.8-10.63-11.11-1.96-2.83-3.59-5.7-4.69-8.96-.77-2.2-1.44-4.65.96-6.13,2.35-1.44,4.98-.96,6.99.86,4.22,3.78,8.19,7.81,11.88,12.12.57.67,1.15,1.29,1.87,2.11.38-1.05.67-1.82.96-2.59.05,5.46.38,10.92-.38,17.24-1.82-3.31-4.55-2.92-6.85-3.64l-.1.1Z"/>
      <path class="cls-108" d="M102.71,542.58c5.03-3.93,8.53-9.39,13.17-13.7,1.05-1.01,1.87-2.4,3.64-2.25-1.68,3.35-4.84,5.41-7.23,8.14-2.54,2.92-5.27,5.75-7.95,8.57-.38.38-.72,1.58-1.58.67-.24-.24-.05-.96-.1-1.48l.05.05Z"/>
      <path class="cls-87" d="M491.33,679.81c1.96-2.44,4.45-3.98,7.62-4.12-2.54,1.39-5.08,2.78-7.62,4.12Z"/>
      <path class="cls-176" d="M143.43,396.24c6.75-3.07,10.49-8.19,10.63-15.71.05-2.25,0-4.07,3.07-4.5,2.16-.34,3.26-2.06,3.11-4.45-.14-2.49-1.77-2.68-3.64-2.78-1.44-.05-2.44-.62-2.25-2.3,3.74-6.75,9.01-12.74,9.44-20.98.43-1.01,1.39-1.39,2.3-1.87,6.85-3.5,10.78-9.15,12.17-16.67.14-.77.34-1.48,1.01-1.96,3.02.24,5.99.48,9.01.67,1.39,5.56,3.02,11.11,4.17,16.77,1.72,8.33,3.02,16.77,3.45,25.29.34,6.75,1.01,13.51,1.53,20.26-1.01,1.68-2.06,3.31-3.07,4.98-2.78.05-5.56-.05-8.33.24-6.47.77-11.78,3.59-15.23,9.34-.77,1.29-1.48,2.68-2.87,3.45-6.13-4.36-13.17-6.51-20.36-8.33-1.44-.38-2.92-.57-4.17-1.53l.05.1Z"/>
      <path class="cls-75" d="M187.93,247.7c4.12-.1,6.71.81,7.09,4.22.38,3.35-1.96,4.6-4.84,5.13-5.32.96-10.54,2.35-15.71,4.02-1.05.34-2.2.57-3.35.62-2.16.05-4.12-.53-4.79-2.83-.72-2.4.24-4.26,2.4-5.36,6.37-3.11,13.17-4.93,19.16-5.84l.05.05Z"/>
      <path class="cls-146" d="M182.95,274.9c-3.21,0-5.7-1.58-5.75-3.64-.05-2.2,2.44-3.93,5.75-3.93s5.89,1.53,5.84,3.74c0,2.11-2.68,3.88-5.89,3.88l.05-.05Z"/>
      <path class="cls-79" d="M216.67,275.29c-2.92-.05-4.55-1.25-4.6-3.35-.05-2.49,2.4-4.6,5.32-4.55,2.54,0,4.79,1.77,4.84,3.69.05,2.35-2.49,4.26-5.6,4.22h.05Z"/>
      <path class="cls-17" d="M163.35,342.45c-.48-1.05-.96-2.11-1.39-3.21.29-1.2,1.2-1.87,2.2-2.4,4.65-2.35,8.1-5.8,9.92-10.73.24-.57.67-1.05,1.29-1.29l2.35.19c1.01,1.1.53,2.35.19,3.54-1.63,5.99-5.27,10.44-10.73,13.32-1.15.62-2.4,1.53-3.83.57h0Z"/>
      <path class="cls-123" d="M163.35,342.45c8.43-2.83,12.93-8.86,14.32-17.48.53,0,1.05.1,1.58.14-.29,9.48-6.04,17.1-15.47,20.5-1.01-.91-.43-2.11-.48-3.16h.05Z"/>
      <path class="cls-63" d="M175.33,324.82c-1.72,7.33-7.14,11.3-13.41,14.42-.72-.96-1.72-1.68-1.82-2.97,5.51-2.06,9.72-5.46,11.59-11.26,1.2-.91,2.4-1.29,3.69-.19h-.05Z"/>
      <path class="cls-90" d="M206.99,264.08l1.1,9.48c-1.77-2.97-2.16-6.18-2.2-9.44.38,0,.77,0,1.15-.05h-.05Z"/>
      <path class="cls-170" d="M205.7,280.89c1.53-1.1,3.59-.53,5.13-1.72-.96,2.73-3.21,1.72-5.13,1.72Z"/>
      <path class="cls-94" d="M446.98,271.02c2.06.57,5.46-1.2,5.41,3.11,0,.24.48.72.72.72,5.36.29,3.45,3.74,3.11,6.71-.29,2.59-.14,5.22-.19,7.81,1.82,4.5,1.2,9.15.62,13.75-.48,3.98-.77,7.95.1,11.93,4.84.24,4.93.48,4.41,6.95-1.25,2.06-3.21,2.63-5.51,2.63-26.97,0-53.89.05-80.86-.1-4.02,0-8.05-.29-12.07-.29-1.53,0-3.07,0-4.02-1.48-.96-1.39-.38-2.92-.53-4.41-.19-2.35.81-3.69,3.26-3.4,2.97.34,3.64-1.05,3.45-3.74-.24-3.4-.1-6.8-.1-10.2-.86-1.87-.96-3.83-.96-5.89,0-5.13.43-10.25-1.01-15.33-.48-1.63-.34-3.4,1.29-4.36,3.83-2.35,5.99-6.56,9.96-8.72,4.17-4.02,8.33-8.05,12.45-12.17,1.53-1.53,2.63-1.82,4.74-.43,2.35,1.58,4.22,3.93,6.99,4.84.38,1.01-.14,1.48-1.01,1.82-2.4-.29-4.02-1.96-5.84-3.26-1.58-1.15-2.97-1.2-4.36.19-3.93,3.88-7.9,7.71-12.31,12.45,11.88,0,22.99.1,34.15-.1,4.41-.05,8.81-.1,13.22,0,2.68.05,3.93-.91,3.93-3.74,0-1.58-.57-3.69,1.87-4.36,1.15,1.2,1.15,2.78,1.05,4.22-.14,3.02,1.34,3.83,4.12,3.88,4.22,0,8.48-.43,12.69.34.43.19.81.38,1.2.62Z"/>
      <path class="cls-158" d="M397.45,260.87c.29-.62.53-1.25.81-1.87,6.18-1.68,12.5-2.16,18.83-2.78,3.93-.38,7.47-.72,10.11-3.93.77,3.26,2.97,6.42.62,9.87-1.34,1.96-.57,4.17-.57,6.23s-.72,2.92-2.87,2.87c-5.41-.1-10.83-.05-16.19-.05-3.88-3.07-8.48-5.41-10.68-10.25l-.05-.1Z"/>
      <path class="cls-137" d="M374.12,266.71c-.19,1.58-1.25,2.4-2.54,3.02-1.48.67-2.59,1.68-2.68,3.35-.14,1.58-1.1,2.35-2.35,2.49-3.07.34-3.21,1.87-2.54,4.45,1.87,6.9.86,13.99.86,20.98-3.69-2.11-7.66-3.69-10.68-6.95-4.74-5.13-4.89-10.3,0-15.33,3.74-3.88,8.43-6.32,13.17-8.72,2.25-1.1,4.5-2.2,6.8-3.31h-.05Z"/>
      <path class="cls-107" d="M358.7,322.76c1.53.72,3.16.72,4.79.72h91.54c2.2,0,4.26-.34,6.13-1.53.67.96-2.2,2.83.81,3.21-1.1.91-2.4.53-3.64.53-27.06,0-54.18.19-81.24-.14-6.13-.1-12.26-.43-18.44-.72,0-.72,0-1.44.05-2.16v.1Z"/>
      <path class="cls-30" d="M427.82,262.12c-.19-3.31-.43-6.56-.62-9.87,1.05,1.63,2.49,2.44,4.45,2.4,3.83,4.5,8.05,8.62,12.5,12.55,1.15,1.01,2.78,1.82,1.87,3.83-5.13,0-10.25,0-15.38.1-2.11.05-2.92-.53-2.78-2.73.14-2.11,0-4.22-.05-6.32v.05Z"/>
      <path class="cls-184" d="M446.02,271.12c.14-1.53-1.15-2.06-2.06-2.92-4.02-3.78-8.05-7.62-12.07-11.4-.72-.67-1.25-1.29-.24-2.11,5.32-.38,10.59-.77,15.9-1.15.67,5.84-1.34,11.64-.53,17.48-.34,0-.67.05-1.01.1Z"/>
      <path class="cls-43" d="M477.87,305.85c2.06-.53,3.88-1.53,5.41-1.2,5.6,1.25,7.33-1.72,8.43-6.42.81-3.54,2.4-6.9,3.59-10.35.29-.81.53-1.96,1.68-1.44.86.38.38,1.29.14,2.01-1.53,4.26-2.92,8.57-4.65,12.79-1.15,2.78-1.1,4.74,2.2,5.75.96.29,2.49,1.05,1.53,2.4-.86,1.2-1.72-.29-2.49-.77-5.8-3.83-11.83-2.59-17.77-.72-1.87.57-3.59,1.72-5.65,2.78-.34-2.4,1.39-2.73,2.63-3.21,2.11-.77,2.78-2.06,2.78-4.31,0-11.11,1.15-22.18,2.35-33.24,0-.24,0-.53.1-.77.29-.91,0-2.54,1.2-2.4,1.72.19.81,1.87.67,2.78-1.48,10.78-2.11,21.6-2.2,32.48v3.78l.05.05Z"/>
      <path class="cls-167" d="M456.8,315.05c-.96-.34-.81-1.15-.81-1.87,0-7.95,0-15.86.05-23.81,1.44.53,2.92,1.01,4.36,1.53-1.39,3.98-.53,8.1-.62,12.17-2.35-.05-3.35.96-3.16,3.4.24,2.83.14,5.7.19,8.57h0Z"/>
      <path class="cls-118" d="M265.77,280.32c-7.23,1.39-14.23.86-20.74-2.92-2.3-1.34-2.35-2.63,0-4.02,4.31-2.63,9.1-3.5,14.08-3.69,1.68-.1,2.2.77,2.16,2.3-.05,2.25-.29,4.6.1,6.8.29,1.77.72-.34,1.2-.19,1.2.38,2.4.72,3.26,1.72h-.05Z"/>
      <path class="cls-149" d="M265.77,280.32c-1.29-.19-2.97.38-3.26-1.72,0-.86-.1-1.77-.1-2.63.14-7.04-1.58-6.99,7.09-5.03,2.35.53,4.36,1.87,6.47,3.02,2.2,1.25,1.48,2.16,0,3.21-3.07,2.2-6.47,3.31-10.25,3.16h.05Z"/>
      <path class="cls-162" d="M219.21,382.59c-.43,1.87-.77,3.64,2.3,2.54.91-.34,1.96-.43,3.64.34-3.93,2.25-10.59.86-9.87,7.95,1.77.43,3.78-.81,6.23.29-3.83,1.87-9.82.38-9.77,6.9,1.87.96,3.98-.57,6.56,0-2.78,3.45-10.25.14-9.34,7.28,1.39.29,3.16-.62,4.89.1,0,1.77-1.53,1.82-2.4,1.53-3.59-1.15-4.5,1.15-5.56,3.78-.62,1.58-.77,3.83-3.74,4.12.91-2.68,2.92-4.5,3.26-7.14-.29-.1-.62-.29-.96-.34-1.01-.19-2.78.62-2.83-.96-.05-1.58,1.68-1.2,2.68-1.05,3.59.57,2.73-2.92,4.41-4.17-.48-.24-.72-.38-.91-.48-1.15-.53-3.26,1.2-3.45-.67-.19-1.58,1.96-.91,3.11-1.05,3.59-.43,2.16-4.17,3.93-5.89h-4.45c.24-1.72,1.58-1.72,2.49-1.58,3.59.67,4.36-2.25,4.98-4.41.96-3.11-2.63-.43-3.16-2.3,1.39-1.96,5.46-.24,6.04-3.74.62-.34,1.29-.67,1.92-1.01v-.05Z"/>
      <path class="cls-99" d="M516.67,193.14c0-1.48.05-3.02.1-4.5,1.68-.1,3.4-.19,5.08-.34,2.06,3.16-.1,4.31-2.49,5.36-1.1.96-1.96.53-2.63-.53h-.05Z"/>
      <path class="cls-81" d="M548.48,199.17c2.3-1.53,4.84-.67,7.23-.62,1.34,0,1.77,1.15,1.82,2.44.29,6.61-.57,13.27.43,19.88.05.34-.05.91-.29,1.01-3.02,1.77-6.04.29-9.1,0-2.16-.19-1.63-1.82-1.68-3.11-.05-1.25,0-2.49,0-3.78.72-5.27,2.16-10.44,1.53-15.81h.05Z"/>
      <path class="cls-174" d="M548.48,199.17c1.15,0,1.68.67,1.48,1.68-.91,4.74-.57,9.72-3.02,14.13,0-5.32-.24-10.68,1.53-15.81Z"/>
      <path class="cls-92" d="M587.57,221.88c-1.87-.14-3.4-.81-1.92-2.97,1.53-2.25-.72-4.02-.48-6.28.24-1.92.67-4.12.43-6.23-.1-.91.1-1.82,1.25-1.96,1.15-.14,2.16.29,2.3,1.44.57,4.26.67,8.53-.38,12.74-.1.38-1.96.48-.05,1.05.72.24,1.44.72,1.01,1.63-.38.81-1.29.53-2.11.57h-.05Z"/>
      <path class="cls-61" d="M105.78,384.84c2.25,5.65,5.8,9.92,12.02,11.4-4.17,2.06-8.81,2.78-12.84,5.22-.96.57-2.16,1.34-2.4-.72.72-5.36,1.58-10.73,3.26-15.9h-.05Z"/>
      <path class="cls-153" d="M121.35,396.96c1.82.29,3.59.53,5.41.81,2.97,2.2,6.37,1.72,9.72,1.39.77-.05,1.77-1.1,2.25.14.53,1.44-.91,1.68-1.77,1.87-5.36,1.05-10.73.57-15.86-1.25-2.25-.81.29-1.92.19-2.92l.05-.05Z"/>
      <path class="cls-7" d="M449.18,289.42c.1,7.66.14,15.33.24,22.99,0,.81-.29,1.15-1.05,1.1-.29-.29-.62-.53-.91-.81-2.73-6.32-3.88-6.99-10.87-5.65-1.68.34-3.21.43-4.84-.14-1.58-.57-3.26-.67-4.89-.38-4.41.81-8.81.57-13.22.62-2.01,0-4.07-.34-5.65,1.44-.34.38-.96.77-1.29.43-3.02-3.35-7.38-.81-10.73-2.59-.77-2.59-.67-2.68,3.5-2.73,6.42,0,12.84-.34,19.26-.24.24,0,.53,0,.77-.05,2.73-1.34,5.46-2.83,8.43-.34.38.34,1.2-.05,1.82-.19,1.34-.34,2.35-1.01,2.16-2.59-.19-1.58-1.48-1.63-2.59-1.48-6.18.81-12.31-.38-18.49,0-1.15.05-2.25.05-3.4-.05-1.1-.1-2.68,0-2.87-1.25-.24-1.63,1.44-1.68,2.63-1.96.57-.1,1.1-.19,1.68-.19,1.82-.43,4.93,1.05,4.93-2.25,0-3.5-3.11-2.11-5.13-2.35-.24,0-.48-.1-.72-.19-2.25-2.01-1.68-4.55-1.2-6.99.34-1.77,1.82-2.11,3.5-2.16,2.87,0,5.75.29,8.62-.19h5.27c.86.91.62,2.06.48,3.16-.38,3.07,1.15,4.02,3.93,3.93,5.84-.24,11.74.24,17.58.24,1.15,0,2.25.05,3.11.91l-.05-.05Z"/>
      <path class="cls-120" d="M399.79,304.51c-1.05.91-3.64-1.87-3.69,1.53-1.72,1.53-3.69,1.1-5.65.67-.57-.24-1.1-.57-1.53-1.05-.57-.72-.72-1.53-.77-2.44q-.24-4.45-4.79-4.45h-2.63c-3.96.1-6.45,2.03-7.47,5.8-.1.38-.38.67-.62.91-.43.1-.77,0-1.05-.38-.14-1.25-.1-2.54-.1-3.78,0-5.27.1-5.36,5.56-5.41,2.78,0,5.56.14,8.29-.1,1.34-.1,2.59-.34,2.63-2.06,0-.77-.1-1.58-.96-1.92-1.44-.57-2.35.19-3.16,1.34-2.16,3.07-2.3,3.07-3.98-.38-.96-1.96-2.73-1.39-4.26-1.72-1.39-.34-3.54.38-3.93-1.44-.53-2.4-.62-5.03.1-7.47.34-1.15,1.77-.67,2.73-.67,5.17-.14,10.35.24,15.47-.24h28.84c-2.25,1.2-4.69.34-7.04.57-1.53.19-3.88-.53-4.02,1.63-.14,2.2-1.87,5.03,1.25,6.71,1.53,2.01,1.39,4.02,0,6.04h-1.48c-1.53-2.83-4.36-2.97-7.19-3.5-.67,3.98,2.06,8.05-.53,11.83h0Z"/>
      <path class="cls-24" d="M397.45,260.87c3.26,3.74,7.62,6.32,10.68,10.25h-34.15c4.5-4.98,9.39-10.44,14.37-15.81.86-.96,1.77-.24,2.63.43,2.11,1.77,4.31,3.4,6.47,5.13Z"/>
      <path class="cls-10" d="M449.18,289.42c-6.99,0-13.99-.05-20.98-.05-5.08,0-5.41-.34-4.79-5.32.14-1.01.43-1.96.67-2.92,7.52-.05,15.09-.1,22.61-.24,1.96,0,2.78.57,2.63,2.54-.1,2.01-.1,4.02-.14,6.04v-.05Z"/>
      <path class="cls-132" d="M389.93,281.18c-4.84,1.29-9.77.38-14.66.57-2.11.1-4.02.14-3.45,2.92.38,1.92-1.92,5.51,2.83,4.98.1,0,.24.1.34.1,1.87.14,3.98-.14,5.6.53,1.87.81-.91,3.31,1.25,4.84.62-2.54.86-5.36,4.55-5.13,2.54.19,2.78,1.58,2.78,3.54s-.05,3.45-2.73,3.35c-3.78-.14-7.52.14-11.3-.1-2.68-.14-3.64.81-3.35,3.45.19,1.63.1,3.26.1,4.93.29.34.48.72.67,1.15.51,3.51,2.6,5.29,6.28,5.32h11.64c17.82-.24,35.69-.1,53.51-.1,1.53,0,2.97.34,4.26,1.2,0,.19.05.43.05.62-24.86,0-49.77,0-74.63.1-2.06,0-2.59-.77-2.54-2.63,0-8.96,0-17.92-.14-26.87,0-1.96.29-3.02,2.63-2.97,5.41.19,10.87.1,16.29.14l.05.05Z"/>
      <path class="cls-86" d="M448.32,312.84h-58.39c-1.34-2.06-1.15-4.17-.38-6.32.14-.14.29-.29.48-.48h14.04c.86,0,1.92-.29,2.35.77.48,1.05.57,2.73,1.29.05.29-1.05,1.44-.81,2.3-.81,6.04-.05,12.07.34,18.06-.77,2.35-.43,4.79,1.68,6.37,1.15,2.44-.86,4.55-.48,6.85-.53,4.79-.14,5.51.24,6.42,5.17.1.62.43,1.2.62,1.77h0Z"/>
      <path class="cls-157" d="M399.79,304.51c.77-4.6-1.29-9.1-.48-13.99,1.63.77,2.68,2.16,4.55,1.87,2.87-.43,3.83,1.15,3.59,3.78-.48,1.2-1.96-.19-2.87,1.48,1.92,0,3.45.1,5.03,0,7.09-.43,14.23,1.1,21.32-.34,1.05-.24,1.87.05,2.06,1.05.34,1.58.72,3.35-.48,4.69-1.77,2.06-6.75,1.25-8.29-1.44-1.1,1.15-1.72,2.83-3.59,2.83h-20.84v.05Z"/>
      <path class="cls-157" d="M408.9,296.17v-6.04c1.77-.91,3.5-1.39,5.13.24,1.25,1.2,1.25,2.87.72,4.17-1.15,2.92-3.88,1.2-5.84,1.63Z"/>
      <path class="cls-132" d="M372.54,305.27v-.77c0-4.06,1.95-6.31,5.84-6.75.62-.05,1.25-.05,1.87,0,2.63,0,5.65-.72,7.81.34,2.87,1.34,0,4.84,1.2,7.19-1.05,1.2-2.49,1.2-3.83,1.1-4.31-.38-8.77,1.15-12.89-1.05v-.05Z"/>
      <path class="cls-7" d="M372.54,305.27h16.72c.24.29.48.57.72.81l-.1.1c-5.99,2.44-12.02,2.44-17.96-.14v-.72h.62v-.05Z"/>
      <path class="cls-121" d="M371.92,305.99c2.83.77,6.23-1.53,8.53,1.68.24.34.62.34.91,0,2.4-3.16,5.7-.96,8.53-1.53v6.66c-4.55,0-9.1-.24-13.65.1-3.74.29-5.08-1.05-4.5-4.65.14-.72.1-1.53.1-2.25h.1Z"/>
      <path class="cls-61" d="M91.17,371.43c7.47-7.42-5.41-23.71,1.82-33.39,5.17-6.9,12.69-4.93,17.82-13.89.34-.57,6.9-2.11,8.67-3.88,3.31-3.4,8.62-6.23,11.3-4.55.62.38,1.1,1.01,1.39,1.39,1.2,1.58,3.69.43,3.83,1.2.53,2.78,2.06,4.31,3.31,5.8,1.68,2.01,2.44,1.05,9.2,4.69,4.79,2.59,8,5.56,8.77,6.23,1.68,1.44,4.98,5.27,6.08,7.38.38.67,1.72,4.6.86,10.06-1.44,9.05-7.57,10.2-6.37,11.83,1.63,2.2,6.9-4.17,11.78-.72,3.93,2.78,2.97,12.31.86,18.3-2.49,7.04-6.71,9.63-5.56,14.8.43,2.06,1.44,3.26,2.11,7.14.53,3.26.86,5.13,0,6.61-1.68,2.97-6.75,2.63-13.22,2.97-9.92.53-7.57,1.82-18.63,2.63-17.1,1.25-29.08-1.44-31.9-2.11-5.36-1.25-8.05-1.87-10.44-3.5-11.21-7.47-14.85-26.63-8.19-33.29,3.11-3.11,3.64-2.97,6.56-5.84l-.05.14Z"/>
      <rect class="cls-161" x="262.13" y="502.82" width="274.23" height="17.72"/>
      <g>
        <path class="cls-16" d="M550.49,349.1c2.35-11.78,6.32-23.04,11.07-34.01.62-1.48,1.53-2.87,1.68-4.55,1.2-.72,2.49-.29,3.64-.1,5.56.77,10.73-.48,15.57-3.02,2.92-1.53,5.03-1.53,7.66.86,5.27,4.79,12.07,4.98,18.73,5.08,1.72,0,3.5-.29,5.22-.43,5.41-.43,5.84,0,5.32,5.41,1.39,0,2.11-2.01,3.54-1.34,1.48.72,1.72,2.35,2.11,3.78,2.01,6.99,4.6,13.8,9.05,19.64,1.63,2.11,1.87,4.17,1.01,6.66-.91,2.73-1.72,5.46-2.49,8.53,1.96-2.4,3.98-4.41,6.23-6.18,4.74-3.64,10.49-3.21,14.47,1.2,5.03,5.56,6.66,12.26,4.26,19.16-2.49,7.19-8.05,11.59-15.86,12.6-1.01.14-2.06.48-2.97.24-5.27-1.25-8.96,1.25-12.31,4.89-1.77,1.92-4.12,3.21-6.37,4.55-.77.77-.34,1.77-.57,2.63-2.01-.53-3.83,0-5.65.91-2.3,1.2-4.69,2.44-7.23,2.97-3.78.77-6.61,2.35-7.23,6.51-1.68-5.08-1.68-5.17-7.42-4.55-5.36.57-10.68.57-15.95-.43-13.27-2.49-23.42-13.08-26.2-27.45-.43-2.16-1.48-4.26-1.01-6.61"/>
        <path class="cls-3" d="M620.09,392.07c-.14-.43-.43-.86.24-1.25,1.05-.62,2.06-1.39,3.07-2.11,7.52-5.41,8.29-5.7,17.48-6.99,7.38-1.01,12.98-4.79,15.71-11.69,2.49-6.23,1.01-12.36-3.02-17.63-4.12-5.46-9.68-5.99-14.95-1.63-2.59,2.16-4.74,4.74-7.09,7.33,0-3.98,1.39-7.57,2.63-11.21.77-2.3.81-3.83-.91-5.94-4.69-5.8-7.14-12.79-9.2-19.88-.38-1.29-.77-2.59-1.15-3.93-1.92,1.01-2.49,4.02-5.27,2.97.93-4.18-.85-6.13-5.32-5.84-6.51.43-12.98.24-19.06-2.54-3.4-1.53-11.26-2.25-14.95-1.29-4.98,1.29-10.01,2.06-15.09.24-4.6-1.82-8.05-4.98-9.92-9.63-2.16-5.32-.24-10.59,4.89-13.41,3.98-2.2,8.33-3.16,13.03-3.69-1.48-3.74-3.26-7.14-3.78-11.02-.05-.48-.24-.96-.29-1.48-.34-4.31-.77-8.86,3.64-11.4,4.17-2.4,7.66.29,10.87,2.73,4.79,3.64,8.77,8.14,12.55,12.79,1.53,1.87,8.05,3.31,9.96,2.06,1.34-.81,0-1.77-.05-2.63-.1-1.1-.48-2.49.72-3.02,1.01-.43,1.96.62,2.4,1.44,2.16,4.12,5.94,4.36,9.96,4.93,13.27,1.92,25.05,7.23,34.78,16.67,1.92,1.87,3.02,2.3,3.83-.72.14-.48.34-.96.57-1.34.53-.81.77-2.16,2.01-1.92,1.34.29.67,1.63.81,2.54.1.48,0,1.05-.19,1.44-2.63,4.22-.29,7.23,1.92,10.78,9.63,15.57,11.78,32.33,6.75,49.91-1.15,4.07-2.68,8-3.26,12.21-.34,2.25-1.34,3.88-3.93,3.35-1.87-.38-2.3.91-3.16,1.96-9.48,11.98-21.51,19.02-37.17,18.83h-.1Z"/>
        <path class="cls-110" d="M623.54,410.13c-1.15.34-2.63.29-2.87,1.92-1.39,8.72-7.71,13.46-14.32,18.06-2.87,1.96-5.75,3.35-9.2,3.64-.96.1-2.2.43-2.68-.67-.38-.91.62-1.53,1.15-2.2,2.49-2.87,4.31-6.08,5.17-9.82,1.01-4.31-.24-5.7-4.5-5.32-.62.05-1.25.05-1.87.1,1.48-1.77,4.93.14,5.56-2.49.48-2.01-.19-4.36-.34-6.56v-.38c1.63-.72,2.78.53,4.07,1.1,6.13,2.73,13.99-1.87,14.61-8.57.1-1.2-.62-2.83,1.25-3.4.34,3.59.81,7.19,1.01,10.78.1,2.11.57,3.59,2.92,3.78l.05.05Z"/>
        <path class="cls-142" d="M619.61,395.62c-.43,3.74-.24,7.52-3.74,10.3-5.46,4.45-8.38,4.69-16.24.53-.1-.48-.14-.91-.24-1.39-1.1-4.41,1.01-5.89,5.13-6.85,3.93-.91,7.66-2.83,11.26-4.74,2.06-1.1,2.87-.43,3.69,1.2,0,.29.05.57.1.91l.05.05Z"/>
        <path class="cls-84" d="M598.06,320.99c6.47-.62,13.84,4.84,14.95,11.11.14.96.53,2.11-.53,2.73-.91.53-1.63-.38-2.25-.91-4.79-3.98-10.39-5.13-16.43-4.6-2.87.24-3.78-.96-2.73-3.74,1.2-3.26,3.93-4.31,7.09-4.65l-.1.05Z"/>
        <path class="cls-2" d="M578.51,323.09c.38,3.93-.48,4.69-3.74,3.31-4.5-1.92-8.91-2.11-13.27.29-.62.34-1.39.96-2.01.48-.81-.67-.24-1.53.05-2.35,2.11-5.46,9.15-9.01,14.37-7.14,2.63.96,4.6,2.54,4.6,5.46v-.05Z"/>
        <path class="cls-114" d="M577.36,341.34c1.2,3.59-.48,5.8-2.78,7.66-1.15.91-2.59,1.44-3.93,2.11-1.48.77-4.22.34-4.45,2.06-.29,2.06,2.3,2.92,3.78,4.17,1.68,1.44,3.74,2.4,5.13,4.41-3.78.24-10.11-4.69-10.63-8.05-.29-1.72.48-2.59,2.01-3.07,4.89-1.53,9.39-3.54,10.83-9.34l.05.05Z"/>
        <path class="cls-42" d="M651.61,364.53c-6.75-3.54-7.09-3.45-12.07,3.31-.38.48-.62,1.15-1.39,1.01-.62-.1-.62-.67-.62-1.15-.05-2.4,3.26-6.32,6.37-7.23,2.83-.86,5.41-.24,7.38,2.11.43.53.91,1.25.34,2.01v-.05Z"/>
        <path class="cls-47" d="M564.86,368.98c4.89,5.46,7.19,5.65,12.45,1.39.1,3.21-1.82,4.74-6.08,4.89-3.83.14-6.32-2.11-6.37-6.23v-.05Z"/>
        <ellipse class="cls-188" cx="563.86" cy="338.18" rx="4.12" ry="3.16"/>
        <ellipse class="cls-188" cx="598.97" cy="341.77" rx="5.6" ry="3.74"/>
      </g>
    </g>
  </g>
</svg>