<?xml version="1.0" encoding="UTF-8"?>
<svg id="Layer_2" data-name="Layer 2" xmlns="http://www.w3.org/2000/svg" viewBox="0 0 594.71 516.58">
  <defs>
    <style>
      .cls-1 {
        fill: #de9a76;
      }

      .cls-1, .cls-2, .cls-3, .cls-4, .cls-5, .cls-6, .cls-7, .cls-8, .cls-9, .cls-10, .cls-11, .cls-12, .cls-13, .cls-14, .cls-15, .cls-16, .cls-17, .cls-18, .cls-19, .cls-20, .cls-21, .cls-22, .cls-23, .cls-24, .cls-25, .cls-26, .cls-27, .cls-28, .cls-29, .cls-30, .cls-31, .cls-32, .cls-33, .cls-34, .cls-35, .cls-36, .cls-37, .cls-38, .cls-39 {
        stroke-width: 0px;
      }

      .cls-2 {
        fill: #404c6a;
      }

      .cls-3 {
        fill: #fdfdfd;
      }

      .cls-4 {
        fill: #3e4967;
      }

      .cls-5 {
        fill: #366e7c;
      }

      .cls-6 {
        fill: #3e4a67;
      }

      .cls-7 {
        fill: #3d4866;
      }

      .cls-8 {
        fill: #332019;
      }

      .cls-9 {
        fill: #fafafa;
      }

      .cls-10 {
        fill: #342018;
      }

      .cls-11 {
        fill: #409bb2;
      }

      .cls-12 {
        fill: #83b263;
      }

      .cls-13 {
        fill: #356f7d;
      }

      .cls-14 {
        fill: #e98371;
      }

      .cls-15 {
        fill: #3d4a67;
      }

      .cls-16 {
        fill: #bad6ec;
      }

      .cls-17 {
        fill: #386d79;
      }

      .cls-18 {
        fill: #bad5ed;
      }

      .cls-19 {
        fill: #3e4a68;
      }

      .cls-20 {
        fill: #376d7d;
      }

      .cls-21 {
        fill: #34201b;
      }

      .cls-22 {
        fill: #a3dce2;
      }

      .cls-23 {
        fill: #3f4b69;
      }

      .cls-24 {
        fill: #2f201d;
      }

      .cls-25 {
        fill: #669b6b;
      }

      .cls-26 {
        fill: #a3c0bb;
      }

      .cls-27 {
        fill: #34707e;
      }

      .cls-28 {
        fill: #bad5ee;
      }

      .cls-29 {
        fill: #bbd6ec;
      }

      .cls-30 {
        fill: #cbeef4;
      }

      .cls-31 {
        fill: #386c7b;
      }

      .cls-32 {
        fill: #33201c;
      }

      .cls-33 {
        fill: #bad6ed;
      }

      .cls-34 {
        fill: #a2dce3;
      }

      .cls-35 {
        fill: #659b6b;
      }

      .cls-36 {
        fill: #3c4a67;
      }

      .cls-37 {
        fill: #352017;
      }

      .cls-38 {
        fill: #3f666d;
      }

      .cls-39 {
        fill: #366f7a;
      }
    </style>
  </defs>
  <g id="illustrazioni">
    <g>
      <path class="cls-11" d="M350.79,240.68c2.47-11.5,5-22.97,11.72-32.97,5.53-8.22,12.09-15.15,21.75-18.59,3.28-1.16,6.41-2.87,9.44-4.56,6.09-3.37,12.62-5.47,19.28-7.31.87-.25,1.94-.78,2.56.69,3.78,9.03,10.94,13.72,20.28,15.5,8.72,1.66,17.15.22,25.31-2.72,6.37-2.31,12.78-4.72,18.69-7.97,7.59-4.16,13.5-10.5,18.78-17.34.47-.59.81-1.47.78-2.19-.09-3.53,2.19-3.22,4.19-2.37,20.12,8.53,41.93,13.15,60.06,26.31,9.41,6.84,17.37,14.81,21.59,25.93,3.5,9.16,7.47,18.25,8.47,28.09.91,8.87,1.22,17.81.94,26.75-.25,7.78-.56,15.59-1.16,23.34-.94,11.78-1.62,23.65-7.22,34.53-1.31,2.56-3,4.75-5,6.75-3.47.94-6.16,3.22-9.09,5.09-4.56,2.94-9.09,5.97-13.62,8.97-7.37,4.87-15.78,6.69-24.22,8.37-9.87,2-19.78,3.66-29.97,3.12-17.94-.91-34.53-5.91-49.46-15.87-4.72-3.16-9.69-5.84-14.75-8.34,8.28,4.62,15.87,10.41,24.31,14.75.59.31,1.22.59,1.81.97,3,1.78,3.12,3.28.12,5.22-4.19,2.69-8.72,4.81-13.19,7-6.28,3.09-12.47,6.47-19,9.09-8.41,3.37-17.03,6.03-25.97,7.62-9.28,1.66-18.62,2.28-28.06,2-1.09-.03-2.28-.19-4.06,1,6.72-.41,12.65.25,18.59-.5,3.59-.44,7.19-.94,10.78-1.44,2.03-.28,3.22.37,4.28,2.34,3.16,5.94,2.87,12.5,3.81,18.81.12.78.06,1.59.34,2.34.03.09.16.12.62.41-.69-6.75-1.12-13.28-3.5-19.44-1.56-4-1.37-4.84,2.94-5.94,14.47-3.66,28.03-9.47,41.06-16.75,5.03-2.81,10.37-5.06,15.28-8.09,1.34-.84,2.75-.81,4.25-.31,12,4.12,24.37,5.94,37.03,5.94,2.66,0,3.84,1.19,4.12,3.81,1.34,12.59.78,25.09-2.06,37.43-.12.59-.56,1.19-.09,2.28,2.66-11.31,4.5-22.28,3.22-33.53-.28-2.37-.31-4.75-.28-7.12.03-2.16,1.06-3.28,3.22-3.62,5.34-.91,10.72-1.72,16.06-2.84,3.31-.72,6.62-1.44,9.91-2.37,4.47-1.25,5.59-.72,7.25,3.53,3.97,10.34,6.16,21.03,6.22,32.15,0,.97-.25,1.97.53,3.16.84-4.78,0-9.25-.69-13.65-1.31-8.16-2.66-16.31-5.66-24.06-.78-2-.31-3.47,1.59-4.56,5.28-3.09,10.44-6.34,15.37-10,1.25-.91,2.62-1.97,4.28-.66-.31,8.37-.53,16.72-.94,25.09-.12,2.66-1.47,4.94-3.19,7-1.03,1.22-2,2.47-2.87,3.78-1.91,2.81-2.37,5.06.06,8.5,4.44,6.31,6.56,13.81,7,21.62.72,13.69,3.59,27,7.06,40.21,3.69,14.06,6.69,28.28,9.03,42.65.87,5.31,1.12,10.75,1.5,16.15.25,3.59-1.12,5.03-4.62,5.75-6.03,1.22-12.15.75-18.25,1.19-32.75,2.37-65.56,1.97-98.36,2.94-25,.72-49.96,2.16-74.96,1.91-4.28-.03-8.59.31-12.84.87-2.19.28-3.06-.62-3.34-2.31-1.78-11.65-4.25-23.06-2.19-35.15,2.59-15.37,2.81-31.06,2.56-46.68,0-.69-.09-1.34-.72-1.81-.62-1.16-.41-2.44-.34-3.62.31-6.75-.44-13.44-.81-20.15-.12-2.12-.59-4.22-1.66-6.12-.34-.72-.5-1.47-1.06-2.09-2.87-3.25-4.56-6.91-3.91-11.37.28-2.03-.69-3.19-2.69-3.56-5.22-.94-9.81-3.91-15.09-4.69-.81-.12-1.5-.47-2.03-1.09-2-3.84-4.78-7.12-7.31-10.56-2.81-3.81-5.62-7.59-7.72-11.9-.97-2.03-2.34-3.87-3.91-5.5-3.25-3.41-5.37-7.5-7.12-11.81-.69-1.69-1.09-3.44-2.72-4.56-.44-.28-1.16-.81-.62-1.31,2.66-2.69,1.09-5.91.81-8.69-.87-8.91-.28-17.81-.53-26.72-.87-6.06,2.25-9.5,8.5-12.59,3.84-1.91,6.25-5.44,9.16-8.41.69-.72.31-1.72.22-2.59-.5-5.12-.12-9.81,3-14.47,2.81-4.19,4.81-9.16,4.97-14.5.06-1.66.84-2.66,2.16-3.41v-.16Z"/>
      <path class="cls-29" d="M50.51,324.7c0-31.15.03-62.31.06-93.43,0-3.04,1.48-4.56,4.44-4.56,64.21,0,128.45,0,192.67-.09,3.37,0,4.28,1,4.09,4.19-.25,4.41-.09,8.84-.03,13.25,0,1.12-.53,2.62,1.28,3.03-.53,16.5,0,33-.31,49.49.16,10.5.03,21,.06,31.5,0,5.5,0,5.53,5.41,5.53h51.18c2.03,0,4.06,0,6.06.47,4.34,1.06,5.37,3.22,3.53,7.47-3.41,2.19-7.28,2.34-11.12,2.34h-50.24c-4.69,0-4.75.06-4.78,4.72,0,5.78.03,11.53,0,17.31,0,2.44.78,3.25,3.41,3.19,18.22-.34,36.43-.12,54.65-.16,1.91,0,4,1.16,5.66.09,1.59-1.03.37-3.53,1.62-4.97,2.22,0,1.81,1.81,1.87,3.03.16,3.37-.09,6.75.81,10.06-.56,2.25-2.5,2-4.09,2.03-5.66.12-11.31.03-16.94.06h-40c-7.37,0-6.87-.31-6.91,6.75v10.84c0,1.12.22,2.28-.5,3.28-1.37,1-3,.87-4.56.87h-61.27c-1.75,0-3.66.28-5.03-1.34-.78-1.87-.09-3.78-.09-5.69,0-11.84.06-23.68-.06-35.53-.03-2.97.25-6.19-2.41-8.47-1.09-.75-2.34-.75-3.59-.75h-45.49c-1.25,0-2.5.09-3.66.59-2.72.69-2.47,2.91-2.47,4.94-.03,13.12,0,26.28,0,39.4,0,1.81.19,3.62-.59,5.34-1.06,1.53-2.72,1.5-4.28,1.5-21.69.06-43.4.03-65.09,0-1.12,0-2.25-.03-3.31-.56-1.06-.62-.62-1.47-.31-2.31,1.19-1.75,1.56-3.69,1.53-5.78-.03-13.56.06-27.15-.06-40.71-.03-4.06-.78-8.09-.59-12.15.09-2.16-.03-4.28.53-6.41.53-1.97-.16-3.78-1.28-5.41-.34-1.06-.47-2.09.34-3l-.12.03Z"/>
      <path class="cls-38" d="M50.01,399.85c23.56.03,47.09.09,70.65.12.75,0,1.62.16,2.09-.75,9.44.87,18.94.47,28.37.62,10.09.16,20.31,1.56,30.37-.59.44.66,1.12.69,1.81.69,22.97-.03,45.96-.09,68.93-.12,1.31-1.22,2.94-1.03,4.5-1.03h115.24c1.66,0,3.44-.22,4.78,1.12,3.06,1.03,2.37,4.06,2.53,6,.53,7.28,1.22,14.59.91,21.9-.03.94-.22,1.78-.69,2.56-1.03.03-2.03.09-3.06.09H18.33c-12.84,0-20.47-10.12-16-21.47,2.19-5.5,6.62-8.59,12.47-9.16,3.94-.37,7.91-.09,11.87-.12,1.59-.84,3.25-1.03,4.97-.59,1.34.56,2.66,1.06,4.16.56,3.34-.28,6.72-.31,10.06-.78,1.41-.19,2.94-.28,4.16.84v.09Z"/>
      <path class="cls-11" d="M398.47,67.48c-1.16-2.03-1.44-4.22-1.41-6.5.19-14.25.34-28.5.53-42.75.06-4.56,3.16-7.56,8.5-8.47,5.81-1,11.65-1.25,17.56-1.41,5.31-.12,10.62-.25,15.87-.94,5.31-.69,9.94-3.53,14.69-5.87,4.72-2.34,7.56-2.31,10.22,2.03,4.62,7.59,11.72,10.69,19.62,13.25,8.12,2.62,15.94,6.59,21.97,12.4,10.28,9.97,16.15,22.72,7.94,37.06-2.62,4.59-5.12,9.31-6.81,14.34-.87,1.44-1.84.81-2.84.16-7.09-4.53-14.97-7.22-22.97-9.59-2.47-.75-4.91-1.66-7.41-2.31-7.09-1.31-14.15-2.72-21.25-3.97-11.69-2.06-23.47-2.66-35.34-.84-5.59.84-10.94,2.75-16.53,3.44-.78.09-1.53.44-2.28-.09l-.06.06Z"/>
      <path class="cls-12" d="M251.93,296.64c-.06-11.72-.16-23.47-.22-35.18,0-3.72.06-7.44,0-11.16-.03-1.34.28-2.41,1.34-3.22,10.31-4.66,20.25-9.81,28.78-17.47,4.37-3.94,9.78-6.47,15.09-9.03,10.19-4.94,19.47-2.59,28.34,3.56,4.19,2.91,8.25,5.94,11.75,9.62,3.81,4.03,8.28,6.53,13.84,6.94-2.03,2.94-1.41,6.59-2.41,9.84-.97,3.22-2.37,6.37-4.09,8.84-3.34,4.75-3.31,9.5-2.34,14.59.16.87.34,1.37-.28,2-2.87,2.84-5.44,6.19-8.75,8.37-2.12,1.41-4.53,2.41-6.62,4.12-2.84,2.34-2.53,5.25-2.66,8.25-1.31,1.19-2.94,1.03-4.5,1.03h-62.77c-1.56,0-3.22.19-4.47-1.09l-.03-.03Z"/>
      <path class="cls-30" d="M478.68,140.91c-.34.72-.5,1.41.03,2.12.81.97.84,2.06.5,3.22-1.97,6.78-5.84,12.09-12.12,15.53-6.69,3.66-13.69,6.56-21.09,8.09-6.75,1.41-13.22,0-18.87-4.25-.44-.97-1.16-1.66-2.09-2.12-7.75-4-12.97-10.37-17.56-17.62-3-4.78-5.44-9.87-7.16-15.06-1.28-3.94-2.62-8.12-3-12.34-.25-3.09,3.09-3.66,5.19-4.37,7.09-2.5,14.53-3.62,21.97-4.16,4.84-.34,9.78.5,14.69.84,1,.06,2.03.41,3,.31,7.66-.56,14.97,1.41,22.31,2.94,3,.62,5.87.91,8.87.53.56.41.97,1,1.12,1.66,2.06,8.12,4.59,16.19,4.19,24.72l.03-.03Z"/>
      <path class="cls-1" d="M398.47,67.48c2.53-1.91,5.72-1.53,8.56-2.34,10.66-3.06,21.65-3.59,32.65-2.84,7.41.5,14.72,1.91,22,3.59,3.22.75,6.59,1.12,9.91,1.75,1.06.22,2.31-.19,3.06.97,2.28,3.44,5.03,6.59,6.09,10.75.31,1.22,1.16,2.19,2,3.06,3.44,3.5,4.97,7.59,4.03,12.5-4.5,5.06-9.03,10.06-13.47,15.15-1.16,1.34-2.25,1.69-4.06,1.22-14.53-3.72-29.34-5-44.31-5-7.34,0-14.34,1.44-21.25,3.69-1.06.34-2.16.72-3.22,1.03-2.31.69-3.53-.06-3.12-2.62.34-2.34.59-4.72,1.16-7,1.41-5.56-1.03-10.69-1.62-16.03-.66-6-.47-12.03,1.62-17.84l-.03-.03Z"/>
      <path class="cls-14" d="M50.51,324.7c.03.87.06,1.75.12,2.62.94,2.25.84,4.53.72,6.97-.25,5.19-.37,10.37.16,15.56.16,1.66.19,3.37-.19,5.06-2.34,7.41-8.5,10.37-15.06,12.84-1.25.47-2.62,1.03-3.72-.37-1.03-3.69-.84-7.34.47-10.97,1.37-3.84,3.25-7.47,5.25-11,.56-1,1.16-2.09,1.16-3.84-1.81,3.37-3.47,6.31-5.16,9.22-.44.75-.87,1.78-1.97,1.5-.81-.22-1.06-1.12-1.28-1.87-.5-1.53-.34-3.12-.41-4.72-.41-7.31-.72-14.62-1.75-21.94-.62,1.62-.5,3.31-.19,4.97.66,3.34.16,6.78.66,10.16.09.66.06,1.47-.59,1.84-.81.47-1.5-.12-2.12-.59-2.09-1.69-3.75-3.87-6.09-5.31,1.66,1.97,3.56,3.66,5.25,5.53,2.56,2.84,4.34,6.03,4.44,9.97.12,4.62.59,9.25.84,13.84.09,1.44.22,2.97-.94,4.19-9.78,1.97-18.31.37-23.12-7.16-.06-1.34-1.03-2.25-1.75-3.22-7.44-9.84-6.97-20.84,1.53-29.65,3.75-3.91,5.28-8.62,5.53-13.81.44-9.12,4.75-15.5,12.94-19.4,1.94-.91,3.78-2.03,5.62-3.12,2.34-1.41,3.28-.66,3.34,1.94.16,7.78,2.66,14.47,8.84,19.65,3.53,2.94,5.37,7.16,7.44,11.16l.03-.03Z"/>
      <path class="cls-1" d="M427.12,165.63c3.09.19,5.41,2.41,8.47,3.03,5.19,1.06,10.03.81,14.97-.91,7.97-2.78,15.94-5.44,22.22-11.53,3.75-3.66,5.25-8.19,5.97-13.15,1.62.06,1.94-1.41,2.62-2.34,3.03-4.22,5.97-8.47,9.25-12.65.28,3.22-.5,6.34-.31,9.5.34,5.62-.37,11.28.5,16.94.31,1.94.84,3.16,2.81,3.59,2.25.5,2.03,1.59,1.19,3.41-2.09,4.47-5.75,7.66-9.28,10.66-12.44,10.53-27.15,16.09-43.31,16.94-8.62.44-16.06-3.16-21.12-10.75-.97-1.47-.81-2.19.34-3.41,2.5-2.69,5.37-5.22,5.75-9.28l-.06-.03Z"/>
      <path class="cls-1" d="M478.68,140.91c-1.59-3.97-.94-8.31-2.25-12.37-1.47-4.53-2.06-9.31-3.06-14,4.47-5.19,9-10.37,13.44-15.59,2.91-3.44,5.94-6.81,9.53-9.53,1.03-.78,1.56-1.53,1.44-2.78,4.25-1.97,8.41-1,12.25,2.78,3.25,10.5.37,19.78-5.69,28.4-2.62,3.72-7.09,4.62-10.69,6.81-.31.19-.81.59-1.16,0-1.37-2.47-2.12-.28-2.69.5-3.75,5.22-7.41,10.5-11.09,15.78h-.03Z"/>
      <path class="cls-17" d="M574.55,338.83c-2.87-.28-4.41,2.06-6.44,3.37-4.31,2.84-8.5,5.91-13.19,8.16-1.5.72-1.56,1.56-1.03,2.97,4.47,12.03,6.78,24.47,6.97,37.31,0,1.16.75,3.19-1.5,3.03-1.84-.12-1.19-1.94-1.16-3.03.25-11.78-2.22-23.03-6.12-34.06-1.06-3-2.37-4.06-5.72-2.94-8.56,2.87-17.53,4-26.43,5.41-2.09.34-2.53,1.06-2.53,3,0,5.44.91,10.78.75,16.25-.22,8.16-1.78,16.09-3.5,24.03-.22,1-.37,2.62-1.97,2.09-1.19-.41-.75-1.75-.47-2.69,3.31-11.31,3.44-22.93,3.12-34.56-.06-1.91-.47-3.81-.62-5.72-.12-1.69-1.31-1.59-2.44-1.59-7.81,0-15.53-.62-23.22-2.03-5-.94-9.87-2.31-14.65-3.97-1.78-.62-2.87-.25-4.34.59-10.78,6.28-21.87,12.09-33.31,17.06-7.5,3.25-15.25,6.12-23.37,7.72-2.37.47-3.41,1.12-1.72,3.75,2.47,3.91,2.09,8.69,3.09,13.06.53,2.28.53,4.69.72,7.06.06,1,.16,2.44-1.03,2.56-1.5.16-1.53-1.37-1.62-2.47-.56-5.47-.81-11-2-16.44-.47-2.16-2.12-3.69-2.44-5.91-.12-.84-1.34-.72-2.09-.53-9.75,2.25-19.72,1.66-29.62,2.34-.97.06-1.56-.19-1.78-1.09-.22-.91.25-1.66,1.12-1.81,1.09-.22,2.25-.25,3.37-.22,13.72.41,27.25-.87,40.5-4.66,9.31-2.66,18.22-6.31,26.78-10.84,6.37-3.37,12.87-6.53,19.19-10,3.28-1.81,3.16-2-.28-3.81-5.69-2.97-11.16-6.28-16.44-9.91-3.03-2.09-6.53-3.53-9.56-5.69-.78-.56-2.72-.81-1.81-2.25.69-1.09,2.09-.16,3.06.41,6,3.34,11.9,6.78,17.65,10.53,11.34,7.41,24.03,11.12,37.28,13.12,13.25,2,26.25.16,39.25-2.47,4.97-1,9.87-2.34,14.69-3.87,5.62-1.78,10.31-5.47,15.19-8.72,4.75-3.19,9.56-6.34,14.31-9.53,1.12-.75,1.62-.06,2.16.75-1.47,2.91-5.09,3.53-6.75,6.28l-.03-.06Z"/>
      <path class="cls-25" d="M6.98,361.17c2.75,1.44,4.72,3.91,7.56,5.31,5.06,2.5,10.37,1.25,15.59,1.59,1.22,1.06,1.5,2.53,1.56,4,.41,7.78.91,15.56,1.47,23.34.12,1.53.25,3.22-1.03,4.47-1.84,0-3.69-.06-5.53-.06.72-3.06-.84-5.09-3.19-6.66-3.81-2.56-7.59-5.19-11.25-8-7.31-5.59-9.87-15.19-5.22-24.03l.03.03Z"/>
      <path class="cls-24" d="M509.99,89.42c-3.91-1.78-7.72-3.84-12.25-2.78-3.09.09-4.72,2.66-6.91,4.22-1.53,1.09-2.72,2.66-4.03,4-.66-.19-.91-.72-.84-1.28.66-4.72-2.16-7.81-4.41-11.5-2.59-4.25-5.41-8.59-6.87-13.5,10.81,2.47,21.19,6.06,30.59,12,.72.47,1.22.31,1.87.12,1.31,1.19,2.81,2.22,3.62,3.84.91,1.78,1.62,3.56-.72,4.87h-.06Z"/>
      <path class="cls-4" d="M251.93,296.64c23.9,0,47.84,0,71.74.03.19,9.56-.34,19.15.69,28.72.12,1.22.34,2.44.53,3.66.31,2,.25,2.09-2.44,3.34,2.66,0,3.28,1.69,3.75,3.34,1.5,5.19,4.12,9.69,7.75,13.65,2.47,2.69,3.75,6.12,5.72,9.09,3.28,4.97,6.97,9.66,10.37,14.53.91,1.31,2.66,2.31,2.06,4.34-.59,1.66-2,1.69-3.37,1.53-7.78-.78-15.56-.19-23.31-.37-1.91-.06-3.87.12-5.28-1.62-1.66-1.28-1.41-3.12-1.5-4.87-.16-2.75.34-5.53-.31-8.28-1-.78-1.12-1.91-1.12-3.03-.12-5.37-.09-10.75,0-16.12,0-1.12.19-2.25,1.12-3.06.78-1.25-.06-2.69.44-3.97.53-1.37-.25-1.69-1.44-1.97-2-.5-3.97-.81-6.03-.81-18.78.03-37.56-.03-56.31.09-2.69,0-3.44-.69-3.41-3.34.19-11.62.19-23.28.25-34.93l.09.06Z"/>
      <path class="cls-25" d="M320.2,376.95c2.16.87,4.44.5,6.66.59,7.59.31,15.25-.72,22.81.62.94.16,1.75-.25,2.5-.78,6.47.97,12.25,4.34,18.65,5.47,1.47.25,1.91.87,1.87,2.22-.03,1.34.12,2.72,0,4.06-.47,3.97,1.62,6.62,4.5,8.81,1.5,1.16-.37,1.34-.37,2.03h-122.17c-.78,0-1.59-.09-2.37-.12-1.19-6.75-.34-13.53-.44-20.28,0-2.09,2-1.41,3.22-1.41,10.53-.06,21.06,0,31.59-.03,10.19,0,20.37,0,30.56-.06,1.03,0,2.62.91,3.03-1.09l-.03-.03Z"/>
      <path class="cls-3" d="M380.25,302.08c.22-10,4.81-18.15,11.75-24.68,5.16-4.87,13.56-6.87,20.72-2.62,5.03,3,10.03,6.16,15.87,7.47,1.75.41,1.41,1.53.91,2.59-5.12,10.37-5.5,21.22-3,32.31.78,3.5.16,4.25-3.19,3.19-2.91-.94-5.81-1.94-8.5-3.34-5.56-2.91-11.53-3.87-17.65-3.84-3.06,0-6.09-.37-9.06-1.03-5.84-1.25-7.87-3.97-7.81-10l-.03-.03Z"/>
      <path class="cls-3" d="M514.71,287.93c-4.37-1.28-9-.28-13.4-1.62-2.91-.87-3.62-2.53-2-4.69,6.53-8.62,11.84-18.25,20.75-24.9,2.91-2.16,6.09-3.25,9.81-3.03,2.19.12,3.44,1,3.78,3.06.69,4.12,1.34,8.22,1.94,12.34.19,1.25.09,2.66-.87,3.5-5.25,4.56-9.25,10.47-15.44,14-1.41.78-2.84,1.44-4.53,1.31l-.03.03Z"/>
      <path class="cls-39" d="M562.27,215.09c3.16.28,6.53.47,9.84.94,1.12.16,2.84.81,2.47,2.22-.37,1.53-1.84.47-2.87.31-7.41-1.03-14.87-1.78-21.97,1.28-9.5,4.06-17.53,9.81-22.25,19.53-2.25,4.66-4.59,9.25-6.25,14.19-.34,1-.97,1.97-2.25,1.47-1.44-.56-.31-1.53-.06-2.25,2.34-7.19,5.22-14.15,9.59-20.31,4.09-5.75,9.62-9.87,16.03-13,5.56-2.72,11.34-4.25,17.72-4.37Z"/>
      <path class="cls-20" d="M394.5,266.24c-.44,1.06.72,2.97-1.28,3-1.72,0-1.47-1.66-1.5-2.87-.22-6.78-2.62-12.97-5.03-19.15-4.22-10.94-9.47-21.37-15.65-31.37-.53-.87-1.69-2.12-.31-2.94,1.75-1.06,1.87,1,2.5,1.87,7.75,11.4,13.06,24.03,18.15,36.71,1.87,4.66,2.66,9.75,3.16,14.78l-.03-.03Z"/>
      <path class="cls-31" d="M370.04,297.46c-9.56-4.37-18.84-6.5-28.78-3.81-.97.25-2.34.78-2.75-.22-.62-1.5,1.12-1.81,2.03-2.09,7.09-2.25,14.19-2.06,21.22.25,3,.97,5.87,2.25,8.91,3.06,2.97.78,4.72,3.09,6.87,4.91.97.81.59,1.66-.66,1.84-.66.09-1.41.12-2.03-.06-4.53-1.53-9.06-1.34-13.59-.06-.91.25-2.25.69-2.62-.62-.44-1.56,1-1.56,2.06-2,2.87-1.12,6-.06,9.34-1.16v-.03Z"/>
      <path class="cls-17" d="M460.34,402.85v2.56c0,.59-.28,1.12-.97,1.19-.66.03-.87-.5-1.12-1.03-1.09-2.22-.75-4.66-1.09-6.97-.84-5.66-1.44-11.4-1.47-17.12-.06-5.09-.81-10.12-.75-15.19,0-1.28-.5-3.19,1.47-3.19,1.84,0,1.19,1.84,1.19,2.94.16,12.5.81,25,2.75,36.84v-.03Z"/>
      <path class="cls-27" d="M562.05,316.2c-.69,1.31-1.66.94-2.53.37-3.97-2.56-8.28-4.75-11.81-7.84-5.87-5.12-11.44-10.53-18.44-14.15-.91-.47-1.16-1.19-.75-1.94.66-1.22,1.72-.81,2.62-.25,4.22,2.62,8.5,5.16,12.03,8.66,4.91,4.87,10.47,8.87,16.31,12.53,1.06.66,2.06,1.41,2.59,2.62h-.03Z"/>
      <path class="cls-5" d="M518.46,298.8c1.06.22,1.25,1.06,1.59,1.75,3.72,7.06,9.44,12.31,15.59,17.09,1.59,1.25,3.16,2.53,4.72,3.84.78.66,1.19,1.56.59,2.41-.72,1.03-1.41,0-1.94-.41-8.09-5.87-15.87-12.09-20.78-21.12-.53-.97-1.28-1.97-.53-3.12.16-.22.56-.31.75-.41v-.03Z"/>
      <path class="cls-13" d="M395.41,319.83c1.53.53.84,1.53.47,2.44-2.34,5.66-6.5,9.72-11.47,13.03-3.66,2.44-7.59,4.44-11.03,7.22-.75.62-1.69,1.72-2.53.47-.72-1.03.37-1.97,1.16-2.5,3.12-2.19,6.22-4.47,9.53-6.37,4.94-2.84,8.78-6.59,11.37-11.69.5-1,.84-2.47,2.5-2.56v-.03Z"/>
      <path class="cls-6" d="M181.5,399.29c-2.28,2.44-5.37,1.87-8.19,1.94-5.06.12-10.16-.47-15.19-.44-10.12.12-20.25-.66-30.37-.16-1.87.09-3.53-.28-5-1.41-.59-1.62-.34-3.34-.34-5.03v-41.21c0-2.44.31-4.34,3.41-4.16,2.78-.5,5.62-.19,8.41-.22,13.97-.03,27.93,0,41.87,0,1.22,0,2.47-.25,3.66.28,3.34,1.72,2.5,5.16,2.56,7.72.31,13.06.12,26.12.19,39.18,0,1.31-.62,2.34-1,3.5h0Z"/>
      <path class="cls-9" d="M318.39,341.61v22.22c-.16,2.34.5,5.41-.72,6.87-1.16,1.37-4.06-.66-6.31-.66-18,.09-35.96.03-53.96.06-5.72,0-5.72.06-5.72-5.78v-19c0-1.87.25-2.62,2.66-2.59,18.78.19,37.56.16,56.34.06,2.56,0,5.16-.75,7.72-1.16v-.03Z"/>
      <path class="cls-4" d="M126.72,260.21c-.81-11.12,10.34-22.65,22.97-22.15,11.87.47,21.78,10.25,21.81,22.43,0,12-10.25,22.37-22.28,22.43-12.47.06-22.53-10.09-22.5-22.75v.03Z"/>
      <path class="cls-7" d="M151.9,294.43h22.4c3.81,0,4.81,1.03,4.87,4.84.16,11.31.31,22.62.44,33.93.06,5.03-1.25,6.34-6.44,6.37-13.94.03-27.84,0-41.78,0-1.03,0-2.06-.06-3.06.06-4.59.56-4.97.28-4.97-4.44v-35.31c0-4.31,1.12-5.44,5.44-5.47,7.69-.06,15.4,0,23.09,0Z"/>
      <path class="cls-36" d="M214.96,239.43c6.22,0,12.44.09,18.65-.03,2.47-.06,3.66.91,3.69,3.28,0,10.06.06,20.15,0,30.22,0,2.94-1.97,4.78-4.97,4.81-12.69.06-25.34,0-38.03.03-2.53,0-3.75-1.12-3.75-3.69.03-9.97,0-19.94.06-29.87,0-3.19,1.53-4.53,5-4.56,6.44-.06,12.9,0,19.34,0v-.19Z"/>
      <path class="cls-19" d="M88.72,240.87c5.16-.22,11.5.34,17.81-.28,2.16-.22,3.09,1.16,3.12,3.12,0,10.28.06,20.59-.06,30.87-.03,2.72-1.84,4.41-4.62,4.41-12.87.06-25.78.03-38.65.06-2.12,0-3.09-1.06-3.09-3.12,0-10.41-.06-20.78.06-31.18.03-3,2.28-3.87,4.97-3.87h20.5-.03Z"/>
      <path class="cls-19" d="M106.41,316.36c0,6.69-.09,13.37.06,20.03.06,3-.91,4.37-4.03,4.37-10.62-.03-21.28.06-31.9.09-1.91,0-2.97-.94-2.97-2.87,0-13.81-.06-27.62,0-41.43,0-3.16,2.56-3.41,4.87-3.44,8.16-.09,16.31-.03,24.47-.06,1.81,0,3.62,0,5.44-.19,3.59-.34,4.09,0,4.12,3.78v19.69l-.06.03Z"/>
      <path class="cls-2" d="M234.05,315.27c0,6.78-.06,13.59.03,20.37.03,2.59-.97,3.75-3.56,3.75-10.87,0-21.75.09-32.62.16-2.66,0-2.75-1.75-2.75-3.69v-34.65c0-9.47,0-9.41,9.47-9.47,8.94-.09,17.87.37,26.81-.28,2.47-.19,2.62,1.66,2.62,3.44v20.37h0Z"/>
      <path class="cls-15" d="M233.77,368.67v17.31c0,5.03-.97,5.94-5.87,6-9.5.06-19,.16-28.5.22-2.47,0-3.87-1.12-3.87-3.66v-37.68c0-3.12,2.03-4,4.75-4h26.47c4.44-.04,6.66,2.15,6.66,6.56v15.28h.37v-.03Z"/>
      <path class="cls-23" d="M106.13,369.86v17.62c0,4.84-.97,5.78-5.66,5.81-9.5.06-18.97.12-28.47.22-2.59,0-4-1.03-4-3.81.03-12.56.06-25.09,0-37.65,0-3.06,1.91-3.94,4.37-3.97,7.34-.16,14.69-.16,22.03-.25,2.59,0,5.19,0,7.78-.22,2.5-.22,3.56.78,3.53,3.25-.03,6.34,0,12.65,0,19h.41,0Z"/>
      <path class="cls-35" d="M33.04,367.36c4.41-.06,7.66-2.87,11.37-4.69,3.09-1.5,3.78-4.81,6-6.91,1.22.97,1.12,2.37,1.12,3.72v34.15c0,1.69-.19,3.37-1,4.91-.19.44-.37.87-.53,1.28-5-.06-9.97,1.28-15,.69-2.16-3.47-1.28-7.47-1.66-11.19-.62-6.28-.91-12.62-1.22-18.94-.06-1.12-.19-2.28.91-3.09v.06Z"/>
      <path class="cls-26" d="M50.54,398.57c-.03-14.28-.09-28.53-.12-42.81.06-9.47.12-18.97.22-28.43,1.75,1.25,2.28,3,1.91,5.03-1.03,5.94-.56,11.84-.09,17.81.5,6.5.12,13.09.12,19.65v23.03c0,2.12.06,4.31-2,5.75l-.03-.03Z"/>
      <path class="cls-38" d="M179.75,348.92c-18,0-35.96-.03-53.96-.06.75-.66,1.69-.53,2.59-.53h48.46c1,0,2.06-.16,2.91.59Z"/>
      <path class="cls-37" d="M33.04,367.36c.56,8.37,1.16,16.75,1.69,25.12.16,2.69.19,5.37.28,8.09-1.28,1.28-2.09.59-2.81-.62-.34-10.62-.97-21.25-2.03-31.84.06-7.12-.66-14.22-1.25-21.31-.19-2.25-2.06-3.69-3.44-5.28-1.69-1.97-3.69-3.66-5.56-5.47-.91-.87-2.12-1.84-.87-3.09,1.09-1.12,1.78.41,2.44.97,2.34,2.06,4.62,4.22,7.09,6.53-.34-5.66-.69-11.03-.94-16.44-.06-1.03-.47-2.59,1.22-2.62,1.62-.03,1.34,1.5,1.41,2.56.47,8,.91,16.03,1.41,24.03.09,1.34.37,2.66.69,4.66,2.16-4.09,4.03-7.66,5.94-11.22.44-.84.72-2.31,2.03-1.75,1.5.66.62,1.94.16,2.91-1.84,3.87-3.72,7.72-5.62,11.56-2.09,4.22-2.37,8.62-1.78,13.19l-.03.03Z"/>
      <path class="cls-22" d="M423.12,124.73c6.34,1.06,13.87-1.06,21.5-1.53,2.19-.12,4.5-1.09,6.78-1.53,1.41-.28,2.91-.72,3.25,1.16.31,1.69-.91,2.84-2.47,3.12-4.53.81-9.06,1.59-13.62,2.19-8.84,1.16-17.72.87-26.56.69-.78,0-1.62,0-2.31-.31-.94-.41-1.78-1.16-1.53-2.37.25-1.25,1.31-1.41,2.37-1.41h12.59Z"/>
      <path class="cls-34" d="M437.15,139.66c5.66,0,10.41-.16,15.09.66.94.16,1.81.16,1.94,1.37.12,1.22-.31,1.97-1.53,2.19-.87.16-1.78.53-2.62.47-10.12-1.09-20.19-1.25-30.15,1.25-1.72.44-3.06-.16-3.5-1.75-.47-1.69,1.31-2,2.34-2.31,6.31-1.91,12.84-2,18.44-1.84v-.03Z"/>
      <path class="cls-10" d="M453,77.79c4.06-.34,9.31.19,14.03,3.12.94.59,2.66,1.09,1.87,2.72-.69,1.44-2.09.91-3.31.59-8.56-2.06-17.06-1.25-25.5.59-1.97.44-3,.28-3.75-1.5-.84-1.94.53-2.56,1.84-3.34,4.22-2.56,8.94-2.06,14.84-2.19h-.03Z"/>
      <path class="cls-21" d="M422.31,82.86c.06,2.25-1.12,2.66-2.66,2.28-6.41-1.56-12.5-.84-18.31,2.34-.72.41-1.41.78-2.16.16-.97-.81-.25-1.56.06-2.41.72-2.03,2.03-3.66,3.97-4.34,5.34-1.91,10.78-3.03,16.47-1.19,1.94.62,2.25,1.94,2.62,3.19v-.03Z"/>
      <path class="cls-8" d="M447.75,93.07c.16-4.22,1.87-6.56,4.81-6.5,2.91.06,4.97,2.75,4.78,6.19-.19,3.37-2.62,6.06-5.34,5.87-2.56-.19-4.34-2.53-4.25-5.56h0Z"/>
      <path class="cls-32" d="M414.97,94.04c0,3.56-1.37,5.28-4.25,5.25-2.94-.06-4.53-1.84-4.53-5.16s1.97-5.97,4.28-6.06c2.75-.12,4.47,2.16,4.5,5.97Z"/>
      <path class="cls-28" d="M149.09,245.96c2.22.34,3.09,1.87,3.31,4,.25,2.34-.97,5.22.66,6.84,1.5,1.5,4.34.28,6.56.59,2.16.28,4.19.97,4.19,3.56s-1.78,3.66-4.28,3.84c-2.22.16-5-1-6.53.56-1.5,1.56-.44,4.31-.56,6.56-.12,2.5-.81,4.75-3.69,4.72-2.84,0-3.59-2.22-3.72-4.75-.09-2.22.97-5-.5-6.56-1.5-1.56-4.31-.34-6.53-.56-2.28-.22-4-1.16-4-3.69s1.84-3.41,4.03-3.69c2.22-.31,5,.97,6.5-.62,1.47-1.59.31-4.34.5-6.56.22-2.47,1.31-4.03,4.03-4.22l.03-.03Z"/>
      <path class="cls-18" d="M151.37,334.8c-6.69,0-13.37-.06-20.03.03-2.22.03-3.22-.44-3.19-2.97.12-9.84.12-19.72,0-29.56,0-2.34.66-3.09,3.03-3.09,13.37.09,26.72.09,40.09,0,2.44,0,3.44.53,3.41,3.16-.12,9.84-.09,19.72,0,29.56,0,2.19-.69,2.94-2.94,2.91-6.78-.12-13.59-.06-20.37-.06h0v.03Z"/>
      <path class="cls-16" d="M213.62,272.93c-5.19,0-10.41-.09-15.59.03-2.12.06-2.69-.72-2.66-2.72.22-7.69.34-15.37.37-23.03,0-2.06.87-2.41,2.62-2.37,10.41.06,20.78.06,31.18,0,1.87,0,2.56.5,2.56,2.47-.09,7.69-.09,15.37,0,23.06,0,1.97-.69,2.53-2.56,2.5-5.31-.09-10.62-.03-15.94-.03v.16-.06Z"/>
      <path class="cls-33" d="M85.88,274.21c-5.09,0-10.19-.06-15.28,0-1.75,0-2.72-.31-2.66-2.41.16-7.81.19-15.62.16-23.43,0-1.87.78-2.25,2.44-2.25,10.53.06,21.06.06,31.59,0,1.78,0,2.37.59,2.34,2.34-.06,7.69-.06,15.4,0,23.09,0,1.78-.5,2.34-2.28,2.34-5.44-.09-10.87-.03-16.31-.03v.34Z"/>
      <path class="cls-33" d="M72.32,316.33c0-5.19.06-10.41-.03-15.59-.03-2.06.41-3.06,2.78-3.03,7.91.12,15.81.12,23.75,0,2.28-.03,2.87.78,2.84,2.94-.09,10.62-.09,21.25,0,31.87,0,2.09-.44,3.03-2.78,3-7.91-.12-15.81-.12-23.75,0-2.28.03-2.87-.72-2.84-2.91.12-5.44.03-10.84.03-16.28Z"/>
      <path class="cls-16" d="M199.99,315.52c0-5.31.06-10.66-.03-15.97-.03-2.09.37-3.03,2.75-3,7.91.12,15.84.09,23.78,0,2.31-.03,2.81.81,2.81,2.97-.09,10.62-.09,21.28,0,31.9,0,2.41-.75,3.12-3.09,3.09-7.69-.12-15.4-.16-23.09,0-2.69.06-3.22-.97-3.16-3.37.16-5.19.03-10.41.03-15.62Z"/>
      <path class="cls-16" d="M228.58,369.42c0,5.09-.06,10.19,0,15.28,0,1.75-.56,2.41-2.34,2.37-7.81-.06-15.62-.06-23.43,0-1.56,0-2.22-.5-2.22-2.12.03-10.31.06-20.59,0-30.9,0-1.87.84-2.25,2.47-2.25,7.59.06,15.19.09,22.75,0,2.06,0,2.78.62,2.75,2.72-.12,4.97-.03,9.97-.03,14.94h.03l.03-.03Z"/>
      <path class="cls-16" d="M72.98,370.7c0-4.97.09-9.97-.06-14.94-.06-2.12.69-2.69,2.75-2.69,7.59.09,15.19.09,22.75,0,1.84,0,2.62.47,2.62,2.47-.06,10.19,0,20.37.06,30.56,0,1.87-.81,2.25-2.47,2.25-7.81-.06-15.62-.09-23.43,0-1.87,0-2.28-.75-2.25-2.41.06-5.09,0-10.19,0-15.28l.03.03Z"/>
    </g>
  </g>
</svg>