<?xml version="1.0" encoding="UTF-8"?>
<svg id="Layer_2" data-name="Layer 2" xmlns="http://www.w3.org/2000/svg" viewBox="0 0 805 462.65">
  <defs>
    <style>
      .cls-1 {
        fill: #bf272d;
      }

      .cls-1, .cls-2, .cls-3, .cls-4, .cls-5, .cls-6, .cls-7, .cls-8, .cls-9, .cls-10, .cls-11, .cls-12, .cls-13, .cls-14, .cls-15, .cls-16, .cls-17, .cls-18, .cls-19, .cls-20, .cls-21, .cls-22, .cls-23, .cls-24, .cls-25, .cls-26, .cls-27, .cls-28, .cls-29, .cls-30, .cls-31, .cls-32, .cls-33, .cls-34, .cls-35, .cls-36, .cls-37, .cls-38, .cls-39, .cls-40, .cls-41, .cls-42, .cls-43, .cls-44, .cls-45, .cls-46, .cls-47, .cls-48, .cls-49, .cls-50, .cls-51, .cls-52, .cls-53, .cls-54, .cls-55, .cls-56, .cls-57, .cls-58, .cls-59, .cls-60, .cls-61, .cls-62, .cls-63, .cls-64 {
        stroke-width: 0px;
      }

      .cls-2 {
        fill: #44755a;
      }

      .cls-3 {
        fill: #f5cd94;
      }

      .cls-4 {
        fill: #494e4f;
      }

      .cls-5 {
        fill: #f7efdd;
      }

      .cls-6 {
        fill: #efa457;
      }

      .cls-7 {
        fill: #ddb580;
      }

      .cls-8 {
        fill: #564a4b;
      }

      .cls-9 {
        fill: #3e8a66;
      }

      .cls-10 {
        fill: #468eb7;
      }

      .cls-11 {
        fill: #df9570;
      }

      .cls-12 {
        fill: #2d2525;
      }

      .cls-13 {
        fill: #4c3f3c;
      }

      .cls-14 {
        fill: #32221e;
      }

      .cls-15 {
        fill: #518f6d;
      }

      .cls-16 {
        fill: #5b947e;
      }

      .cls-17 {
        fill: #227864;
      }

      .cls-18 {
        fill: #f6b86a;
      }

      .cls-19 {
        fill: #9b7659;
      }

      .cls-20 {
        fill: #3fa18c;
      }

      .cls-21 {
        fill: #254950;
      }

      .cls-22 {
        fill: #bc282d;
      }

      .cls-23 {
        fill: #e8c283;
      }

      .cls-24 {
        fill: #f6cd95;
      }

      .cls-25 {
        fill: #569974;
      }

      .cls-26 {
        fill: #c7ccc3;
      }

      .cls-27 {
        fill: #4c3f3d;
      }

      .cls-28 {
        fill: #cd8f60;
      }

      .cls-29 {
        fill: #fbe3b6;
      }

      .cls-30 {
        fill: #a5bfa6;
      }

      .cls-31 {
        fill: #87a066;
      }

      .cls-32 {
        fill: #f57f68;
      }

      .cls-33 {
        fill: #436d54;
      }

      .cls-34 {
        fill: #8cae68;
      }

      .cls-35 {
        fill: #d89776;
      }

      .cls-36 {
        fill: #487e75;
      }

      .cls-37 {
        fill: #8aada0;
      }

      .cls-38 {
        fill: #f3ddb6;
      }

      .cls-39 {
        fill: #d6e4d9;
      }

      .cls-40 {
        fill: #6ba680;
      }

      .cls-41 {
        fill: #875451;
      }

      .cls-42 {
        fill: #37231c;
      }

      .cls-43 {
        fill: #f9d29a;
      }

      .cls-44 {
        fill: #066033;
      }

      .cls-45 {
        fill: #5a8c78;
      }

      .cls-46 {
        fill: #121314;
      }

      .cls-47 {
        fill: #e5a180;
      }

      .cls-48 {
        fill: #514a4b;
      }

      .cls-49 {
        fill: #f3c98c;
      }

      .cls-50 {
        fill: #78a094;
      }

      .cls-51 {
        fill: #4d4242;
      }

      .cls-52 {
        fill: #493d3f;
      }

      .cls-53 {
        fill: #3b664e;
      }

      .cls-54 {
        fill: #798165;
      }

      .cls-55 {
        fill: #bd282d;
      }

      .cls-56 {
        fill: #fff;
      }

      .cls-57 {
        fill: #ef8d80;
      }

      .cls-58 {
        fill: #e9d0a3;
      }

      .cls-59 {
        fill: #4c3e3e;
      }

      .cls-60 {
        fill: #9aa967;
      }

      .cls-61 {
        fill: #d1813b;
      }

      .cls-62 {
        fill: #859a53;
      }

      .cls-63 {
        fill: #fce3b7;
      }

      .cls-64 {
        fill: #c0272d;
      }
    </style>
  </defs>
  <g id="illustrazioni">
    <g>
      <path class="cls-38" d="M805,185.43c-.27,8.56-.43,17.12-.84,25.67-.46,9.29-1.17,18.59-1.76,27.88-.34,5.34-.46,10.7-1.02,16-.86,8.03-1.89,16.05-3.09,24.04-1.39,10-3.73,19.85-7,29.41-2.7,7.6-5.81,15.13-8.82,22.65-.5,1.12-1.19,2.14-2.05,3.01-9.79,10.52-21.2,18.94-33.61,26.11-7.6,4.38-15.9,6.37-24.39,7.6s-16.98,1.88-25.48,2.75c-1.06.2-2.15.19-3.2-.05-5.33-1.85-10.31.06-15.28,1.41-14.29,4.05-28.26,9.15-41.79,15.27-18.07,7.99-36.01,16.25-54.08,24.19-29.4,13.03-59.53,24.31-90.25,33.8-14.58,4.56-29.5,7.98-44.61,10.23-9.66,1.38-19.26,3.23-28.94,4.34-9.09,1.04-18.27,1.4-27.41,2.06-3.8.27-7.6.52-11.42.79-.31.04-.61.05-.92.05-9.29-.52-18.59-1.02-27.88-1.6-4.72-.29-9.45-.63-14.16-1.1-6.07-.6-12.19-1.01-18.18-2.1-9.9-1.82-19.83-3.68-29.57-6.32-14.06-3.82-27.59-9.09-39.98-17.05-13.27-8.53-21.97-20.55-28.13-34.81-3.89-8.97-8-17.89-12.56-26.54-4.35-8.26-11.35-14.36-18.59-20.03-15.21-11.93-32.36-20.32-50.13-27.64-1.29-.53-2.33-1.69-3.49-2.53,1.6-1.95,3.86-1.69,5.96-1.69,43.26-.05,86.51-.33,129.76.18,10.86.13,21.76.41,32.62.84,18.09.15,36.19,0,54.29.06.92,0,1.83,0,2.75-.04,2.37-.14,4.72-.46,5.7-3.03.91-2.4-.56-4.13-2.06-5.7-7.99-8.27-16.5-16.03-25.48-23.21-1.53-1.23-3.38-2.16-3.97-4.29.38-2.22,2.07-1.85,3.57-1.8,10.43.44,20.78,2.11,30.82,4.99,5.03,1.38,10.09,2.67,15.09,4.14,27.37,8.05,52.09,1.27,75.46-13.32,1.28-.85,2.45-1.85,3.52-2.96,5.72-5.64,5.01-10.38-2.32-13.91-4.51-2.32-9.24-4.18-14.12-5.56-18.83-4.77-34.97-14.79-50.54-25.82-19.54-13.84-40.5-17.39-63.29-9.78-10.66,3.48-21.67,5.78-32.83,6.85-2.59.27-5.21.44-7.76-.41-6.48-5.33-13.77-6.62-21.97-5.22-8.2,1.39-16.48-.64-24.74-.75-13.35-.13-26.63,1.81-39.39,5.74-8.04,2.42-15.97,5.46-24.58,5.22-4.51-1.53-7.11,1.69-9.88,4.17-4.68,4.16-4.6,4.22-9.24.12-1.32-1.16-2.53-2.66-4.85-2.37.29,2.04,1.84,3.1,2.92,4.48,1.76,2.25.9,3.3-1.69,3.38-1.14-.37-2.36-.35-3.49.05-1.69.65-3.31,1.41-3.81,3.38.27.56.72.37,1.17.25.98-.43,2.04-.69,3.11-.77,1.83-.07,3.84-.34,4.99,1.45,1.15,1.79-.63,3.03-1.47,4.38-.84,1.34-1.99,2.66-2.6,5.01,3.49-2.53,6.25-5.2,9.61-6.92,2.59-1.34,4.75-1.32,5.35,2.26-.09,1.51,0,3.04-.19,4.54-.5,4.31.29,7.75,5.31,8.65-2.26,2.68-7.11,4.22-9.71,3.52-14.47-3.71-28.8-8.6-44.13-5.83-2.22-.93-2.14-3.17-2.73-4.99-2.45-7.43-9.43-12.84-16.31-12.57-7.6.3-13.86,5.74-15.81,13.71-1.51,6.14,2.53,13.93,9.05,17.62,1.44.84,3.25,1.02,4.22,2.59-.31,1.95-1.88,2.77-3.38,3.38-10.88,4.35-22.19,6.93-33.42,9.66-.46.04-.92-.09-1.28-.37-2.75-2.13-5.43-4.38-8.27-6.39-13.17-9.26-24.95-20.36-34.97-32.95-10.26-12.83-15.13-28.12-18.45-44-1.13-5.38-2.27-10.8-1.76-16.33.42-4.54,1.2-9.04,1.83-13.52,1.45-1.04,2.67-.15,3.77.62,6.14,4.29,13.12,4.85,20.28,4.36,3.5-.24,7.03-.48,10.5-.9,10.23-1.23,20.6-.17,30.36,3.11,15.87,5.35,32.78,6.88,49.35,4.46,15.91-2.24,32.03-2.59,47.97-4.66,3.64-.46,7.2-1.46,10.54-2.98,2.82-1.31,5.59-3.15,5.74-6.6s-2.61-5.37-5.33-6.88c-3.84-2.12-8.12-2.62-12.4-3.12-7.94-.93-15.79-2.32-23.03-5.91-1.84-.91-5.26-1.64-2.87-5.2,8.35-1.69,16.77-.52,25.16-.73,4.38-.19,8.75,0,13.13,0,8.83-.08,17.65-.15,26.47,0,6.98,0,13.96-.42,20.92.28,11.53,1.69,23.07,3.38,34.78,1.75,10.98-.52,21.97-.29,33-.15,4.11.19,8.08,1.27,12.11,1.92,7.22,1.17,14.15,0,21.12-1.55,1.73.21,3.49.21,5.22,0,6.94.66,13.83,1.78,20.84,1.48,8.95-.17,17.89-.17,26.83,0,11.55-.42,23.06.44,34.54,1.51,2.73.21,5.46-.19,8.02-1.16,3.42-.65,6.87-.4,10.32-.35,5.44-.1,10.88-.19,16.33.04,14.53,1.94,29.15,1.74,43.77,1.77,2.44-.13,4.88-.02,7.29.31.91.28,1.87.36,2.82.25,1.35-.27,2.74-.27,4.09,0,1.48.44,3.02.61,4.55.48.92-.06,1.79-.35,2.7-.46.98-.18,1.98.2,2.6.98.9,3.34-1.69,4.33-3.84,5.31-4.38,1.86-8.97,3.17-13.67,3.91-6.99,1.16-13.58,4.03-19.19,8.37-1.74,1.26-3.26,2.8-4.5,4.56-3.88,6.05-.92,11.79,6.24,12.27,6.76.46,13.52-.48,20.16-1.13,8.38-.76,16.82-.76,25.2,0,12.53,1.06,24.7-1.51,36.67-5,2.85-.84,4.96-3,7.34-4.66,1.75-1.21,3.72-2.25,5.32-.25,5.03,6.26,12.45,6.02,19.26,7.21,5.42.95,10.98,1.17,16.44,1.59,4.55.34,8.84-.64,12.32-3.94.98-.94,1.84-2.1,3.38-2.25,7.35,5.15,16.11,6.16,24.42,8.64,18.66,5.58,37.18,5.07,55.94,1.07,11.09-2.36,22.3-4.22,33.57-5.64s21.97,1.12,32.66,3.99c10.82,2.9,19.94.58,27.74-7.44,1.32-1.35,2.22-3.95,5.06-2.89Z"/>
      <rect class="cls-51" x="167.64" y="250.19" width="3.66" height="24.5"/>
      <path class="cls-15" d="M64.57,292.24c8.69-2.43,17.38-4.83,26.06-7.32,4.22-1.21,8.58-2.29,11.9-5.53.75-.71,1.9-.79,2.75-.19,2.24,3.9.46,8.24,1.31,12.29.36-3.88-.52-7.82.66-11.66.35-.68.96-1.2,1.69-1.44,6.69-2.22,11.09-6.58,12.82-13.52.18-.92.87-1.65,1.77-1.88,7.26-3.48,14.69-2.19,22.11-.77,7.06,1.35,14.15,2.65,21.18,4.17,1.32.29,2.45,1.44,3.12,1.86,1.69-.77,2.99-1.47,4.36-1.94,1.16-.33,2.33-.57,3.52-.74,4.81-2.34,10.14-3.25,15.01-5.53,7.91-3.68,15.76-7.51,24.21-9.97,19.39-5.64,38.46-4.22,57.39,2.06,20,6.37,38.13,16.51,55.61,27.93,2.37,1.55,5.14,2.86,6.24,5.86,9.73,8.63,19.45,17.26,29.16,25.9,1.05.9,1.97,1.93,2.74,3.08,2.36,3.68.32,7.89-4.05,8.5-.61.04-1.23.04-1.84,0-17.63,0-35.25,0-52.88,0-1.07-.05-2.13-.16-3.19-.33-8.45-3.38-14.68-9.95-21.81-15.21-4.22-3.09-7.87-6.84-11.9-10.14-8.45-6.91-17.81-8.5-28.1-5.54-5.6,1.61-11.15,3.24-17.07,3.47-3.84.26-7.58,1.33-10.98,3.13-10.21,5.07-20.87,6.88-32.15,4.4-8.57-1.74-17.26-2.76-26-3.05-10.5-.53-20.47,1.93-29.03,8.45-6.08,4.6-12.18,8.72-20.34,8.37-4.68-.19-8.24,2.97-12.13,5.02-1.19.22-2.4.37-3.61.45h-41.76c-.46,0-.92,0-1.38-.04-5.27-.18-8.11-3.89-6.7-9.09.57-1.89,1.43-3.69,2.53-5.33,4.61-7.17,11.48-11.71,18.79-15.7Z"/>
      <path class="cls-58" d="M803.19,198.59c-.93.7-1.82,1.46-2.64,2.29-6.4,7.33-14.21,11.41-24.17,10.63-.92,0-1.83-.08-2.74-.22-5.48-1.28-10.98-2.53-16.42-3.95-7.08-1.86-14.15-1.78-21.32-.6-13.94,2.3-27.9,4.53-41.88,6.68-5.4.84-10.86,1.34-16.31,1.75-8.32.63-16.37-1.26-24.4-3.11-5.07-1.17-10.08-2.33-15.16-3.32-5.44-.99-10.46-3.55-14.47-7.36-1.84-5.32.19-10.14,2.05-14.95,2.13-5.46,5.77-10.08,9.02-14.9,4.88-7.22,7.45-14.84,5.85-23.8-.68-3.8.59-7.82,2.63-11.33,5.59-.63,11.25-.17,16.66,1.35,3.85.98,7.71,1.91,11.58,2.76,5.69,1.24,11.37,1.9,17.25.84,5.41-1.1,11-.99,16.36.34,1.34.32,2.74.24,4.04-.21,11.36-2.65,23.07-2.71,34.52-4.79,5.29-.96,10.66.09,15.82,1.87,8.82,3.04,17.25,7.1,25.13,12.09,2.78.95,5.12,2.87,6.61,5.4,2.31,3.6,4.53,7.24,6.76,10.87,3.85,6.19,4.47,13.22,5.13,20.2.46,3.78.1,7.63.09,11.48Z"/>
      <path class="cls-63" d="M137.36,156.01c.54,2.26,2.48,2.9,4.28,3.68,7.5,3.24,15.4,4.74,23.5,5.55,4.22.42,8.49,1.17,12.26,3.38,2.97,1.77,5.91,3.95,5.84,7.66s-2.87,6.11-6.02,7.5c-3.34,1.5-6.83,2.63-10.42,3.38-3.56.72-7.27.68-10.91,1.05-5.45.56-10.89,1.19-16.34,1.76-3.48.35-6.97.67-10.46.95-7.9.65-15.82,1.09-23.66,1.94-12.07,1.29-23.58-1.08-35-4.65-6.56-2.02-13.32-3.32-20.15-3.89-7.7-.68-15.13.52-22.68,1.01-8.31.55-16.58.08-23.29-6.02-.3-.27-.84-.22-1.32-.31-.12-1.05-.36-2.08-.73-3.07-4.12-8.27-2.15-16.05,2.11-23.47,3.84-6.42,8.95-11.99,15.02-16.37.79-.71,1.5-1.49,2.15-2.33,7.36-4.86,15.35-7.2,24.22-6,4.98.74,9.89,1.91,14.67,3.49,4.31,1.94,8.88,1.12,13.36,1.28,1.96-.04,3.91.07,5.85.34,1.64.49,3.35.73,5.07.69,4.01.02,7.93,1.19,11.29,3.38,12.33,8.64,26.34,13.38,40.37,18.14.41.21.75.53,1,.92Z"/>
      <path class="cls-33" d="M786.43,153.45c-3.08-1.3-6.23-2.45-9.21-3.95-6.84-3.38-13.66-6.84-21.24-8.37-4.66-.91-9.45-.91-14.1,0-5.69,1.02-11.48,1.48-17.22,2.22-4.53.59-9.05,1.25-13.57,1.88-8.07-.05-11.95-6.11-8.15-12.72,1.44-2.49-1.17-6.37-4.22-5.27-4.12,1.5-6.52-.77-9.51-2.17-.42-.18-.89-.25-1.34-.19-4.62,4.86-4.78,4.87-8.45.47-.77-1.12-1.28-2.4-1.51-3.74-.16-1.13-.35-2.26-.46-3.38,0-1.44.27-2.86.23-4.3.41-2.25.13-5.25,4.01-3.71,10.32,5.07,18.36,2.84,24.78-6.9,4.99-7.6,8.45-15.87,12.07-24.16,2.48-5.76,5.51-11.26,9.07-16.42,5.37-7.72,12.67-7.52,18.52-.08,5.21,6.81,9.76,14.11,13.58,21.78,7.47,14.74,14.12,29.88,19.93,45.35,2.96,7.6,4.58,15.75,6.8,23.67Z"/>
      <path class="cls-6" d="M96.67,321.95c3.18-5.32,8.58-6.38,13.93-6.34,4.45.04,8.79-1.43,12.3-4.16,2.1-1.54,4.22-3.02,6.39-4.5,9.77-6.76,20.6-9.08,32.3-7.69,10.47,1.24,20.92,2.76,31.42,3.76,7.33.7,14.36-1.44,20.9-4.47,5.54-2.61,11.54-4.11,17.65-4.44,3.88-.21,7.7-1.81,11.53-2.86,5.28-1.59,10.83-2.01,16.29-1.25,6.41,1.01,11.39,4.51,16,8.53,9.48,8.26,19.05,16.37,29.68,23.14.45.41.83.89,1.12,1.42-9.77-.05-19.54-.09-29.31-.14-1.22,0-2.44-.19-3.66-.19-44.57-.07-89.14-.12-133.72-.16-1.06,0-2.12.19-3.19.29-11.27-.16-22.53-.33-33.8-.51-1.92-.03-3.88-.28-5.84-.44Z"/>
      <path class="cls-37" d="M84.67,134.61l-4.5-.65c.46-10.88,3.75-21,7.88-30.97,2.27-5.48,1.55-6.81-4.22-11.74,1.34-8.45,2.28-17.02,4.17-25.35,1.28-5.61,3.76-10.98,5.98-16.35,2.04-4.92,5.58-8.77,9.68-12.1,4.6-3.87,11.16-4.37,16.3-1.24,2.24,1.32,4.24,3.02,5.91,5.01,6.71,8.3,10.35,18.66,10.31,29.34-1.39,2.87-5.91.77-6.95,4.5.79,1.9,3.87,2.4,3.79,5.11.5,12.51.25,25,.15,37.5-.05,5.13-1.85,6.72-6.84,6.06-5.46-.74-10.98.22-16.39-.84-4.05-1.88-1.06-5.77-2.53-8.96-1.16,3.09,1.06,6.57-1.97,8.71-4.48,1.26-9.05.46-13.57.64-5.07.21-5.41.52-5.69,5.43-.02,2.04.39,4.28-1.5,5.89Z"/>
      <path class="cls-26" d="M565.49,121.34c4.04-2.41,6.76-6.07,9.29-9.9,5.01-7.6,9.85-15.41,15.21-22.81,9.08-12.57,23.91-12.4,33.27-3.13,2.6,2.53,5.07,5.3,7.6,7.89.68.54,1.43,1.01,2.21,1.39.95,1.55.23,2.92-.46,4.28-5.86,11.49-11.35,23.18-17.97,34.26-.43.78-.95,1.52-1.54,2.19-1.19,1.31-2.47,2.53-3.84,3.65-.37.27-.77.51-1.18.71-.63.33-1.31.57-2,.72-1.67.33-3.39.13-4.94-.56-6.76-2.97-13.38-2.26-19.94.62-.83.38-1.71.67-2.61.84-3.98.08-7.42-1.42-10.63-3.61-1.54-5.41-3.19-10.79-2.47-16.54Z"/>
      <path class="cls-50" d="M322.36,63.18c2.26-2.04,4.77-3.89,6.76-6.19,5.6-6.49,10.91-13.22,16.49-19.73,2.88-3.38,5.97-6.57,9.25-9.57,7.94-7.2,20.06-6.08,27.35.16,4.35,3.86,8.13,8.31,11.24,13.22.82,1,1.73,1.92,2.74,2.74-.4,7.05-2.82,13.67-4.4,20.47-.56,2.38-2.62,3.69-4.64,4.82-2.27,1.26-4.22,3.04-6.54,4.22-2.59.97-5.37,1.37-8.13,1.18-10.41-.17-20.81.29-31.26-.75-6.11-.61-12.27-.45-18.34.47-2.64.4-5.58.92-7.55-1.87-.8-2.05-.59-4.22-.46-6.3.06-.51.21-1,.42-1.46.21-.47.71-.73,1.22-.63l1.37.46c.84-.23,1.77.1,2.62-.29l1.17-.49.69-.47Z"/>
      <path class="cls-21" d="M83.81,91.27c1.19.29,2.35.65,3.49,1.08,2.34,1.04,3.69,2.82,3.14,5.48-.53,2.54-1.2,5.04-1.99,7.51-1.88,5.98-4.02,11.88-5.7,17.91-.68,2.44-.48,5.15-.59,7.74-.06,1.45-.06,2.83-1.99,2.98-4.44,0-8.88.17-13.29-.13-2.35-.15-4.64-1.14-6.95-1.75-1.44-1.31-1.83-3.11-2.37-4.88-2.08-6.91-4.36-13.74-6.05-20.74-.4-1.32-.65-2.69-.73-4.06,0-1.62.39-3.08,1.97-3.85s2.98-.15,4.22.9c1.89,1.6,3.08,3.8,4.94,5.91.22-3.38-2.12-6.2-.98-9.29-.64-6.25-1.3-12.5-1.94-18.75-.17-1.22-.25-2.44-.26-3.67.05-1.61-.51-3.67,1.74-4.22,1.89-.46,2.53,1.23,3.38,2.53.84,1.3,1.69,2.53,3.12,4.77.09-1.55.09-3.1,0-4.65-.75-5.31-1.79-10.58-2.33-15.9-.27-3.51-.27-7.03,0-10.54.15-1.53.6-3.01,1.32-4.36,1.69-3.44,4.45-5.41,8.45-5.18,3.68.15,6.8,2.76,7.6,6.35.66,3.3.95,6.66.84,10.02-.07,6.43-.42,12.86-.68,19.29-.24,5.81-.48,11.62-.72,17.43v2.48l2.33-.43Z"/>
      <path class="cls-37" d="M499.36,86.77c6.31,3.61,12.73,7.05,18.91,10.88,3.46,2.14,6.46,4.99,9.78,7.39,1.39.87,2.85,1.63,4.35,2.29,2.53,4.79.91,9.85,1.02,14.81.17,7.77-1.96,13.89-9.97,17.08-3.5,1.39-5.07,5.13-6.46,8.6-1.09.69-2.51.5-3.38-.46-3.38-3.38-7.52-4.22-12.09-4.04-1.52.07-3.08-.19-3.93-1.8-.57-1.6-.8-3.29-.68-4.99,0-15.21-.1-30.35,0-45.53.54-1.61-.08-3.84,2.46-4.23Z"/>
      <path class="cls-2" d="M613.86,133.27c2.81-5.25,5.64-10.49,8.45-15.76,1.28-2.43,2.52-4.9,3.71-7.39,2.4-5.07,4.76-10.22,7.12-15.35,1.39-1.69,2.9-3.38,4.17-5.21,3.29-4.74,7.17-8.64,13-10.06s10.93,1.04,13.72,6.76c-1.12.57-2.82.57-2.39,2.53-.15,1.45.82,2.79,2.25,3.1,1.26.73,2.86,1.19,2.48,3.18-.33.29-.51.73-.99.84.2.1.39,0,.56-.4,1.02-.79,1.26-2.4,2.8-2.62,1.38,1.96,2.7,3.96,4.15,5.91,2.91,3.82,5.91,7.6,8.83,11.38-3.9-.11-2.43,2.98-2.93,4.9-1.02.65-1.49,1.89-1.17,3.06l1.27,3.21c-.41.22-.84.52-1.28.3-12.02-6.07-24.26-4.22-36.55-1.03-.45.09-.91.11-1.36.06-2.26-1.24-2.34-3.38-2.25-5.54.04-.38.14-.77.17-1.2-.46.21-.39.71-.63,1.05-.84,1.64-2.26,2.89-2.75,4.76-2.1,7.87-2.12,7.86-9.96,8.66-3.38-.84-1.69,2.03-2.29,3.24-.48,2.35-1.2,4.65-2.15,6.85-3.22-.95-4.12-3.64-5.97-5.26Z"/>
      <path class="cls-49" d="M499.36,86.77c-.48,1.22-.95,2.43-1.44,3.63-1.32-.05-1.69-1.17-2.25-2.03-1-1.69-2.72-1.17-4.14-1.16-7.12.09-14.25-.46-21.22-.14,3.15.98,6.76-1.55,9.94,1.07.74,1.27,3.16,1.51,2.29,3.76-5.7,2.15-7.66,6.34-6.93,12.21.24,2.27.18,4.57-.19,6.83-.78,2.59-.3,5.41-1.39,7.94-8.35,2.62-8.15,10.98-11.05,17.09-2.42,5.11-4.2,10.51-5.3,16.05-.84,4.18-4.28,4.77-6.88,1.41-1-1.32-2.57-2.09-4.22-2.07-1.29-1.75-.94-3.75-.84-5.7.51-10.1-1.76-12.4-11.9-12.04-3.22-.32-6.31-1.46-8.96-3.33-1.93-1.48-4.23-2.41-6.64-2.7-1.24-.12-3.3-.05-2.3-2.53,4.82-2.04,9.62.3,14.43.08,8.97-.08,17.96.57,26.91-.39,1.99-1.43.84-3.48,1.01-5.27.1-.88.29-1.74.55-2.59.47-1.5.67-3.08.59-4.65,0-.73-.08-1.45-.08-2.18,0-3.33-.08-6.65,0-9.97.33-3.23-1.1-6.37-.51-9.62.62-1.69,1.61-2.9,3.62-3.04-1.07.09-2.18.51-3.22-.07-.65-.41-1.06-1.11-1.1-1.88-.05-.83.39-1.62,1.12-2.01,2.34-1.02,4.82-.72,7.26-.73,9.02-.17,18.05.13,27.04.9,1.69.18,3.38.12,4.73,1.39l1.06,1.72Z"/>
      <path class="cls-15" d="M459.96,89.65l.06,10.14c-1.03.96-2.41,1.43-3.81,1.29-7.96,0-15.94.6-23.87-.46-3.34-.47-6.74-.45-10.07.06-2.27.35-4.56.76-6.72-.54-2.38-5.65-1.69-11.48-.73-17.25.35-2.15,2.39-2.96,4.49-3.19,3.85-2.41,7.5-5.29,12.37-5.31.46,0,.66-.19.62-.65-.35-2.39-.69-4.79-1.03-7.18,2.66-.97,3.18,1.41,3.6,2.81,1.38,4.55,4.34,5.74,8.63,4.83,1.07.18,2.11.52,3.08,1.01,1.21.32,1.46,2.15,3.03,1.9h1.8c2.4-.14,4.98-1.16,6.86,1.34.75,1.52.92,3.26.48,4.89-.44.81-.53,1.76-.25,2.64.47.36.95.73,1.43,1.08.65.82.34,1.66.03,2.58Z"/>
      <path class="cls-31" d="M60.89,96.06c1.33,4,2.53,8.02,2.06,12.62-1.38-1.69-2.77-3.45-4.14-5.19-.66-.84-1.19-1.79-1.91-2.53-1-1.12-2.22-2.8-3.73-1.54-.98,1.09-1.4,2.57-1.14,4.01,1.61,6.51,3.54,12.96,5.35,19.43.86,3.08,1.71,6.18,2.53,9.29-4.14-.97-8.27-2.01-12.43-2.92-7.6-1.69-14.79.09-21.74,3.24-1.38.54-2.79.99-4.22,1.36.69-13.12,4.69-24.91,14.85-33.75,6.76-5.86,14.67-7.11,23.19-4.17.44.09.89.13,1.34.14Z"/>
      <path class="cls-36" d="M200.23,33.33c2.27,5.33,3.28,11.11,2.95,16.9-.25,7.28-1.17,14.54-1.81,21.81-4.42,2.16-8.82,2.37-13.19-.15-1.69-8.28-1.36-16.65-.9-24.99.19-3.6,1.16-7.16,1.77-10.73.29-.17.38-.53.22-.82,0,0-.01-.02-.02-.03l.49-2.25c-.22-1.09.25-2.2,1.19-2.79.79-.35,1.7-.35,2.49,0,1.32.84,2.75.47,4.17.38.91-.05,1.8.21,2.53.74.43.56.46,1.32.09,1.92Z"/>
      <path class="cls-28" d="M188.19,71.93l13.19.15,4.16-.04c9.6-.06,19.19-.68,28.78-.08,1.62.63,2.59,1.69,1.62,3.45-1.15,2.09-2.9,3.52-5.41,3.43-2.68-.1-5.41-.77-7.76,1.19-1.01.49-2.2.49-3.21,0-3.38-2.21-7.01-.91-10.57-.84-.47,0-.94-.08-1.39-.22-6.19-1.1-12.37-.84-18.59-.58s-12.39-.25-18.59.05c-4.37.15-8.73.6-13.04,1.36-1.97.54-3.68-.63-5.53-.84-3.02-.52-6.05-1.77-8.99.3-1.28.54-2.72.54-4.01,0-.99,0,.52-2.36-1.62-1.51-1.56.62-3.3,1.54-5.15.66l-4.85-2.37c.95-3.07,2.59-4.61,5.55-4.73,1.18-.14,2.35-.37,3.5-.7,1.78.31,3.58.95,5.35.89,13.11-.41,26.19-.07,39.29.67,2.42.11,4.83-.14,7.28-.21Z"/>
      <path class="cls-28" d="M315.77,71.25c.75,2.91,3.13,1.9,4.91,1.85,7.28-.19,14.58-.79,21.86-.77,9.57,0,19.13.61,28.73.74,3.31.05,6.63-.52,9.95-.84,7.33-.14,14.63,1.18,21.97.5,2.28-.21,4.58-.29,6.86-.57,1.38,1.2,3.23,1.7,5.02,1.37,3.48-.41,4.04.34,3.28,3.71-.14.43-.34.84-.57,1.23-2.04,3.24-5.07,2.17-7.99,1.94-7.42-1.07-14.9-.35-22.34-.63-2.7-.1-5.46-.45-8.19-.07-12.55-.11-25.09.08-37.64-.19-7.06-.15-14.26-1.28-21.35.23-2.26-.48-4.55-.73-6.83-1.13-1.69-.62-3.03-1.74-2.59-3.65.57-2.47,2.35-3.71,4.93-3.7Z"/>
      <path class="cls-64" d="M296.69,44.15h-29.04v-15.8c3.79-1.34,17.14-1.32,29.3.08,1.54,5.09-.72,10.1-.26,15.72Z"/>
      <path class="cls-2" d="M541.73,134.8l3.79-5.37c4.82-4.22,3.72-10.77,6.13-15.95,1.38-3.45.6-7.55,3.08-10.98,3.75,2.09,2.48,6.52,4.88,9.17,1-3.03,1.95-5.91,3.14-9.55l2.75,3.27c.99,5.49,1.98,10.98,2.97,16.48,1.73,2.48,1.38,5.15.69,7.85-.74,1.55-2.09,2.06-3.68,2.24-6.18.7-12.29,1.69-18.07,4.17-2.1.94-4.18.78-5.68-1.33Z"/>
      <path class="cls-15" d="M410.05,72.19c-.47.54-.92,1.52-1.41,1.55-8.63.4-17.27,1.12-25.84-.63-.57-.21-1.1-.49-1.59-.84,1.7-1.46,3.49-2.81,5.36-4.05,3.14-1.82,4.33-4.41,5.15-7.93,1.27-5.53,1.76-11.32,4.48-16.47,2.29-1.25,3.49.31,4.22,1.98,1.22,2.94,2.26,5.95,3.12,9.02,1.69,5.97,2.93,12.12,6.51,17.38Z"/>
      <path class="cls-2" d="M444.05,74.92c-1.15.36-2.33.65-3.52.84-2.85.33-4.58-1.06-5.75-3.83-.84-1.96-1.06-4.43-3.52-5.36l-1.01-1.21c-.35-.07-.62-.33-.72-.68l-.13-.11c-1.39-2.53-.29-3.38,2.15-2.81,1.3.4,2.46,1.13,3.38,2.13.26.25.47.53.64.84.47-.74-.6-.43-.59-.84-1.38-1.15-2.86-2.16-4.43-3.03-2.75-1.75-3.96-4.02-2.11-7.17h0c.84-.66,1.09-1.77,1.92-2.43l.06-.24.24-.07c.05-.38.23-.72.52-.97l-.93-2.67c-.79-1.91-1.46-3.81.79-5.25,1.24-.79,1.31-1.93,1.2-3.22-.13-1.51-.37-3.13,1.81-3.93,3.72,2.16,2.46,6.52,4.11,9.57.29-3.09-.16-6.3.25-9.47.16-1.2.37-2.64,1.94-2.73s2.44,1.13,2.78,2.53c.63,2.72.13,5.51.47,8.69,1.69-2.15.35-5.45,3.03-6.76,2.86,2.53,3.43,7.06.84,11.06-2.29,3.53-3.96,7.14-4.3,11.34-.3.27-.58.55-.84.84.53.34.31-.62.76-.44,2.63-.09,2.85,1.31,1.89,3.23-.77,1.31-1.34,2.74-1.69,4.22,0,.32-.4.78,0,.95s.64-.34.95-.57c.33-.25.68-.46,1.06-.63,1.22-.59,2.43-1.07,3.81-.58,1.98,1.51.79,2.92-.29,4.12-1.52,1.6-2.83,3.43-4.75,4.62Z"/>
      <path class="cls-15" d="M442.25,67.61c.66-2.21,1.31-4.44,2.05-6.95l-2.1-.43h0v-4.98c2.21-5.56,7.78-10.14,4.78-17.97-2.1,3.08-.25,7.6-4.61,9.85-.06-2.86,0-5.37-.2-7.85-.19-2.17,1-4.84-2.41-6.99-.77,5.76-.07,10.89-.52,16.59-3.68-3.99-2.69-9.21-5.25-13.58-2.18,2.67,1.01,5.25-.64,7.74l-2.9.18c-.08,1.39-.16,2.73-.24,4.07-2.92-6.02-2.36-10.62,1.69-14.01,2.2-1.97,5.24-2.71,8.1-1.96,7.08,1.76,11.19,6.39,12.98,13.29.3,2.65.52,5.3-.5,7.87l-1.02,2.46.12-.14-1.54,1.83c.06.39-.11.6-.52.61l-.59,1.15c2.96,4.93-1.09,6.82-3.97,9.22h0c-.76.73-1.96.73-2.73,0Z"/>
      <path class="cls-30" d="M193.33,30.94l-2.14.05c-3.9-1.44-7.63-3.29-11.13-5.52l-2.2-.71c-.6,0-1.25.04-1.65-.58l-1.12-.34c-.6,0-1.24.04-1.62-.6-3.79-1.19-7.6-2.37-11.35-3.58-1.03-.27-2.03-.68-2.96-1.2-1.8-1.12-1.83-2.77-.18-4.07.34-.32.74-.55,1.18-.68,9.57-1.69,18.88-1.98,26.57,5.47.72.78,1.41,1.59,2.04,2.44,2.43,1.41,3.17,4.09,4.7,6.19.23.34.41.7.56,1.08.1.39.12.81.06,1.21-.12.39-.4.7-.78.85Z"/>
      <path class="cls-2" d="M200.09,31.66l-3.24-.15c-.62-1.31.63-1.93,1.06-2.84,4.46-9.66,12.54-14.32,22.54-16.31,1.95-.38,3.93-.64,5.91-.91,1.69-.23,3.09.15,3.72,1.91.6,1.52-.11,3.24-1.6,3.9-3.22,1.76-6.55,3.3-9.85,4.91-5.07,2.47-10.16,4.94-15.27,7.4-.39,1.83-1.59,2.34-3.29,2.09Z"/>
      <path class="cls-6" d="M457.95,84.27v-5.59c1.39-1.53,3.31-1.63,5.07-1.42,7.5.9,15.14.17,22.54,2.1h14.75c-.84,2.48-1.43,4.08-1.99,5.7l-39.44-.84c-.16.27-.51.35-.78.19-.06-.04-.11-.08-.15-.13Z"/>
      <path class="cls-60" d="M190.82,19.68c-1.61-4.09-3.3-8.15-4.79-12.28-1.34-3.73-.9-6.02,1.03-7.06,1.93-1.04,5.18.28,6.76,3.38,1.35,2.71,2.25,5.63,2.67,8.63.39,2.68-.1,5.49-.2,8.24.05.91-.01,1.82-.19,2.71-.15,1.77-.3,3.55-.45,5.33.3.77-.13,1.14-.77,1.39-.76-.04-.95-.74-1.33-1.19h0c-1.54-2.83-1.99-6.02-2.74-9.16Z"/>
      <path class="cls-37" d="M234.87,72.87c-7.16.15-14.31.32-21.47.46-.87.02-1.73-.04-2.59-.19-1.77-.32-3.52-.73-5.27-1.1l19.07-5.58,9.13-2.63h-.07c3.18,2.77,3.43,4.71,1.2,9.03Z"/>
      <path class="cls-30" d="M200.09,31.66l3.26-2.07c1.8.02,3.6-.07,5.38-.27,5.22-.84,9.72.19,13.11,4.53.39.47.74.97,1.06,1.49,1.4,2.48,1.38,5.31,0,6.36-1.38,1.06-3.42.84-5.48-1.83-4.45-5.85-10.53-6.76-17.14-6.51l-.18-1.69Z"/>
      <path class="cls-2" d="M190.8,32.12l-1.05,1.02-1.69-.79c-.28-.16-.62-.2-.92-.09-4.12-.49-8.25.73-11.44,3.38-.5.32-1.03.61-1.58.84-1.53.9-3.14,1.51-4.5-.1s-.79-3.19.13-4.67c1.69-2.64,4.45-3.48,7.22-4.3,5.41-.84,10.21.21,13.83,4.72Z"/>
      <path class="cls-37" d="M485.54,79.36c-6.02-.21-12.04-.45-18.07-.62-3.18-.09-6.36-.05-9.54-.07l-6.53-1.62c4.73-3.03,10-3.31,15.38-2.97.3,0,.68-.06.9.09,4.8,3.21,10.54,2.36,15.76,3.73.78.36,1.49.86,2.1,1.46Z"/>
      <path class="cls-43" d="M409.98,79.44l7.8-.97,1.52,1.29c-3.42,1.79-4.01,4.71-3.73,8.3.3,3.89.06,7.81.05,11.72,2,3.79,1.58,7.67.46,11.58-2.63,1.9-3.19-.22-3.46-2.02-.52-3.32-.28-6.7-.18-10.06.06-2.04-.08-3.97-1.56-5.55-1.14-4.22.52-8.78-1.42-12.95,0-.5.19-.98.53-1.35Z"/>
      <path class="cls-30" d="M551.64,113.48c-.28,3.57,0,7.32-1.04,10.65-.66,2.1-3.32,3.56-5.07,5.3-.46-.89-.79-1.83-1-2.81-.3-4.14-.44-8.29-.63-12.44,2.7,1.15,5.24.46,7.74-.7Z"/>
      <path class="cls-45" d="M444.98,67.56l4.22-5.14c.91-1.5-2.91-2.53-.22-4.08.78.95,1.54,1.89,2.32,2.83,3.81,4.61,3.38,7.68-1.47,11.51-1.69-1.46-.21-2.53.42-3.73.9-1.69.92-2.88-1.57-2.35l-3.7.96Z"/>
      <path class="cls-15" d="M435.77,64.79l-5.83-2.7c-.21.98-.38,1.76-.54,2.53-3.59-3.38-3.9-6.66-1.01-10.86-.55,3.44.9,5.66,3.94,7.28,1.46.78,3.49,1.43,3.43,3.76h0Z"/>
      <path class="cls-36" d="M448.66,66.6l2.83-1.69.84.52c-.4,1.42-.72,2.85-1.2,4.22-.35,1.05-.9,2.03-1.36,3.04l-1.12,1.32c-.74.65-.84,2.08-2.31,1.82l-2.32-.91,4-5.37c.69-.9,2.17-1.61.63-2.95Z"/>
      <path class="cls-26" d="M190.8,32.12c-4.09-2.84-8.9-4.46-13.87-4.67l3.13-1.99c4.36.53,7.9,2.7,11.12,5.52-.12.39-.25.77-.38,1.14Z"/>
      <path class="cls-5" d="M190.82,19.68c2.47,2.6,2.81,5.84,2.77,9.19l-4.8-7.27,2.03-1.93Z"/>
      <path class="cls-45" d="M452.54,52.48c.16-2.62.33-5.25.5-7.87,1.05,2.72,1.27,5.35-.5,7.87Z"/>
      <path class="cls-30" d="M194.54,29.79c.36-.39.74-.77,1.11-1.16h2.25l-1.05,2.87c-1.27.4-2.69,1.75-3.51-.57.14-.14.28-.3.41-.45.14-.34.43-.59.79-.69Z"/>
      <path class="cls-37" d="M446.37,75.83l2.29-1.82c.31,1.02.63,2.04.93,3.06-1.61,1.03-2.36-.25-3.22-1.24Z"/>
      <path class="cls-30" d="M196.1,23.3c.07-.9.13-1.81.19-2.71-.06.9-.12,1.81-.19,2.71Z"/>
      <path class="cls-15" d="M430.33,51.3c-.04,1.28-.25,2.43-1.92,2.43l1.92-2.43Z"/>
      <path class="cls-49" d="M320.54,64.14l-2.63.29,2.63-.29Z"/>
      <path class="cls-26" d="M173.48,23.24l1.62.61c-.54-.18-1.06-.41-1.62-.61Z"/>
      <path class="cls-26" d="M176.21,24.18l1.69.59-1.69-.59Z"/>
      <path class="cls-49" d="M234.03,53.77c-.22.3-.44.6-.67.9l.67-.9Z"/>
      <path class="cls-49" d="M322.36,63.18c-.06.31-.34.51-.65.46.06-.31.34-.51.65-.46Z"/>
      <path class="cls-2" d="M189.24,35.4c.05.2.08.41.08.62,0,.07-.18.13-.28.19-.11-.29-.03-.61.2-.81Z"/>
      <path class="cls-15" d="M431.14,50.03l-.52.97c.18-.29.35-.65.52-.97Z"/>
      <path class="cls-36" d="M187.11,32.27l.92.09-.92-.09Z"/>
      <path class="cls-45" d="M449.54,57.19c.1-.25.28-.47.52-.61l-.52.61Z"/>
      <path class="cls-15" d="M429.53,64.73l.72.68-.72-.68Z"/>
      <path class="cls-45" d="M451.6,54.83l-.12.14.12-.14Z"/>
      <path class="cls-3" d="M234.87,72.87c-.16-3.03,1.2-6.26-1.2-8.99l80.59.15c.56.43,1.35.23,1.88.74l-.35,6.49c-.95.68-1.92,1.34-2.82,2.08-2,1.61-1.97,1.98.32,4.33,2.72,5.85,1.34,12.02,1.06,17.99-.23,5.19-.84,10.3.11,15.47.32,2.27.29,4.58-.08,6.84-.77,5.63-1.21,6.16-6.86,7.26-2.81.55-5,2.16-7.31,3.64-1.9,1.22-3.54,2.98-6.03,2.98-2.27-.31-2.75-2.11-3.24-3.93-1.99-7.5-7.53-11.3-14.42-13.42-4.02-1.24-10.85,2.59-13.85,7.3-1.5,2.35-2.28,5-3.21,7.6-1.69,2.2-1.12,4.56-.48,6.93.34,2.82.75,5.65-.52,8.37-1.28,1.19-2.33,2.43-.5,4.02.61,1.1.95,2.17-.2,3.14-3.71,1.41-5.53-.49-6.3-3.79-1.21-5.15-3.05-10.2-.29-15.61,1.41-2.75-.34-5.15-3.56-5.45-5.64-.49-11.33.15-16.72,1.88-2.93.9-4.03,2.96-3.79,5.91.25,2.96,1.09,6.02,1.46,9.04.6,4.81-.38,9.08-4.61,12.08l-21.45-.25c-1.69-2.53-1.88-5.49-1.88-8.39,0-6.42-.38-12.84.47-19.27.56-4.33-.78-8.69-3.66-11.97-2.45-2.93-5.32-6.06-9.63-5.07-4.71,1.04-8.36,3.92-9.73,8.81-1.11,4.13-1.67,8.39-1.69,12.67-.11,7.78.47,15.58-.28,23.36h-13c-1.81-2.3-1.39-4.99-1.01-7.5,1.24-8.39.67-16.81.57-25.21-.07-5.83-5.42-11.52-11.07-12.47-4.38-.74-10.55,4.27-12.03,10.14-1.14,4.77-1.74,9.65-1.77,14.55-.09,5.07,0,10.1-.04,15.14,0,1.81.23,3.71-1.09,5.26-.75.1-1.51.09-2.26-.05-12.74-4.57-25.78-8.51-36.98-16.54-3.78-2.59-8.17-4.17-12.73-4.57.07-2.72.14-5.45.21-8.17.12-3.95.58-4.45,4.47-4.52,5.6-.1,11.2-.14,16.82-.22.74-.62,1.82-.6,2.53.04,3.96.07,7.93.08,11.9.24,2.12.09,4.23.29,6.33.61,3.77.54,4.74-.16,4.82-3.9.07-3.2,0-6.41,0-9.62.07-10.22.14-20.45.23-30.69l7.03-2.1.36.7-1.16,1.69c-.39,2.53-1.69,4.87-1.54,7.6.11,2.47.6,4.13,3.57,4.11,2.78,0,3.16-1.62,3.26-3.87.13-2.63-.68-5.14-.68-7.72.05-1.6,1.05-2.14,2.43-1.97,2.39.28,4.77.7,7.17,1.06-.37,3.01-3.09,5.15-2.87,8.45.19,2.88,1.34,4.03,4.22,4.07,2.89.04,3.56-1.4,3.6-3.95,0-2.31-1.23-4.39-.84-6.71.1-1.9,1.44-2.04,2.91-2.1,6.76-.26,13.57-.96,20.33-.72,9.08.34,18.14-.57,27.18.26.46,0,.84.93,1.24,1.42-2.25,2.38-3.9,5.03-4.1,8.45-.12,2.05.59,3.24,2.76,3.31,1.99.07,3.59-.14,3.9-2.71.39-3.18-.84-5.91-1.65-8.86,1.52-.43,3.06-.78,4.61-1.02,1.81-.18,3.66,0,5.83,0l-.41,1.69c-.53,2.66-1.73,5.16-1.48,8.04.25,2.87,2.11,2.98,4.22,3.09,2.47.12,2.64-1.52,2.63-3.38,0-2.64-1.34-5.02-1.49-7.6-.13-.42-.26-.84-.54-1.79,2.72.67,4.92-1.37,7.79.05,2.4,1.08,5.15-2.13,4.57-4.98Z"/>
      <path class="cls-58" d="M336.27,285.91c-9.54-7.2-19.87-13.1-30.34-18.82-10.05-5.52-20.56-10.15-31.41-13.85-.78-1.01-.8-2.42-.04-3.45,3.2-5.59,6.25-11.39,12.14-14.69,3.15-1.6,5.71-4.15,7.32-7.28,13.57,0,26.63-2.9,39.5-6.87,7.9-2.44,15.86-4.58,24.23-4.17,12.21.6,23.86,3.15,34.26,10.03,7.25,4.81,14.6,9.48,21.81,14.36,7.49,5.05,15.66,9.03,24.25,11.83,7.7,2.53,15.33,5.26,22.81,8.27,2.66,1.14,5.06,2.8,7.07,4.88,2.76,2.79,2.66,6.11,0,9.08-2.56,3.06-5.65,5.64-9.13,7.6-10.24,5.53-20.58,10.77-31.97,13.47-3.87.8-7.8,1.32-11.75,1.55-13.82,1.17-26.96-2.26-40.11-5.91-8.5-2.34-17.16-4.17-25.83-5.83-3.98-.77-8.15-.57-12.24-.78-.14-.03-.37.36-.58.57Z"/>
      <path class="cls-29" d="M525.86,168.94l10.3-7.31c.54-.4,1.15-.68,1.8-.84,1.11-.18,2.2-.5,3.22-.97,8.56-3.11,17.37-5.48,26.34-7.1,4.08-.89,8.34.21,11.48,2.97,2.2,1.87,4.25,3.92,6.12,6.13,1.24,1.46,1.85,3.51,4.14,4.44,3.16-2,4.85-5.52,7.44-8.18,3.1-4.18,7.31-7.42,12.15-9.35,9.89-4.03,19.88-7.74,30.42-9.61,1.89-.34,3.91-1.14,5.53.74-.17,1.81,0,3.72-.57,5.4-.82,2.56-.9,5.31-.24,7.92.55,2.95.38,5.99-.48,8.86-1.18,3.76-2.75,7.38-4.7,10.81-1.85,3.32-3.93,6.52-6.21,9.56-4.76,6.51-6.52,13.93-7.14,21.76-4.45,5.97-10.3,7.97-17.62,6.66-4.18-.74-8.51-.6-12.73-1.17-4.81-.65-9.58-1.6-14.36-2.53-2.92-.51-5.46-2.29-6.92-4.87-.49-.66-1.03-1.28-1.62-1.85-.98.74-1.85,1.3-2.61,1.99-5.35,4.84-12.02,6.15-18.81,7.52-8.45,1.69-16.84,2.82-25.42,2.49-6.24-.24-12.5-.9-18.73-.84-5.15.08-10.27,1.17-15.42,1.48-4.88.4-9.79.42-14.68.08-4.66-.45-7.3-5.81-6.11-10.45,1-3.87,3.63-6.28,6.52-8.59,6.9-5.51,15.07-7.77,23.55-9.37,3.44-.69,6.81-1.7,10.06-3.02,1.69-.68,3.79-1.65,3.46-4.22l.41-.3h.49c.73.35.63-.5.99-.71,1.99-2.58,5.11-3.94,6.96-6.64.79-.76,1.91-1.08,2.98-.87Z"/>
      <path class="cls-24" d="M410.96,93.37c2.34-.13,3.14.84,2.98,3.28-.27,4.05-.3,8.11-.22,12.18,0,.99.84,1.96,1.34,2.94.52.07.96.42,1.16.91.46,1.48.64,3.03.52,4.57.07,1.03,0,2.06,0,3.09,0,1.84.08,3.69-1.23,5.21.21.21.42.6.63.6,3.88-.04,7.65,1.32,10.6,3.84,1.97,1.57,4.77,2.1,7.21,3.1-2.98,5.63-2.37,11.74-2.43,17.74,0,2.85.64,5.81-.94,8.51l-10.49.26c-2.71-3.12-4.56-6.86-7.45-9.85-1.74-1.81-3.47-3.13-6.26-3.24-3.33-.14-6.19-2.38-9.54-2.97-1.69-.3-1.69-2.34-1.83-3.87-.14-1.83.11-3.7-.46-5.48-1.18-3.67-4.71-4.59-7.47-1.99-3.52,3.31-4.28,3.26-6.86-.74-.64-1.04-1.49-1.93-2.48-2.64-2.12-4.12-2.42-9.06-5.71-12.67-.36-.62-.81-1.19-1.33-1.69-.26-.19-.51-.41-.76-.63l-.72-.58-.4-.25c-.43-.2-.88-.37-1.34-.49-.32-.08-.62-.19-.92-.33l-1.35-.6c-.3-.1-.62-.22-.93-.31-.64-.13-1.31-.1-1.94.1-.33.12-.67.2-1.01.29-.52.16-1.03.35-1.53.57l-1.01.61c-.69.52-1.33,1.11-1.91,1.76-4.22,3.73-5.68,8.38-5.51,13.95.26,8.38.1,16.79.05,25.19,0,1.95.3,4-1.03,5.74-7.33.48-14.7-.17-21.83-1.93-.97-1.97.45-3.48.99-5.17,1.5-4.67,1.47-9.19-.84-13.34-2.3-.77-3.38,1.28-5.11,1.21-4.02-1.37-5.53-3.29-4.52-7,.84-3.27.52-6.23-.19-9.43-.82-4.38-.89-8.87-.19-13.27.67-4.55.79-9.16.35-13.73-.22-1.91-.13-3.69,1.69-4.87,1.53-.84,3.22-.75,4.88-.74,2.53,0,3.88-.84,4.02-3.64.31-6.02-1.21-7.18-6.99-4.96-.43.14-.89.2-1.34.15-2.04-.84-2.86-2.15-1.54-4.22,2.12-.23,4.22-.56,6.35-.65,2.7-.12,5.48-.98,8.06.7.52.28,1.12.36,1.69.24,6.76-1.69,13.63.15,20.46-.25,7.72-.45,15.5-.1,23.25-.1.53.95,0,1.69-.44,2.53-1.35,1.5-1.86,3.66-3.73,4.75-1.32.52-2.8.44-4.06-.21-1.75-1.16-1.93-4.88-4.88-3.77-2.95,1.12-2.15,4.27-2.31,6.76-.18,2.78,1.25,3.79,3.85,3.66,1.2-.07,2.41-.06,3.63-.07,1.39,0,2.78-.05,4.17,0,3.38-.12,7.05.9,9.29-2.85,1.28-.72,2.83-.8,4.17-.22.13.06.26.14.37.24,1.33,1.64,2.53,3.44,5.13,2.77,2.97-.78,1.64-3.46,2.3-5.26.23-1.05.31-2.12.25-3.19.02-.71.29-1.39.76-1.92,2.18-1.26,4.53-4.22,6.11.6-.43,3.16-.47,6.36-.12,9.52,1.6,2.53,4.22.79,6.26,1.5l.63.06Z"/>
      <path class="cls-29" d="M293.94,227.82c.49,3.73-1.89,5.47-4.74,6.99-7.54,4.02-11.83,10.63-14.68,18.43-6.69-1.5-13.33-3.42-20.09-4.44-17.82-2.76-36.05.1-52.18,8.16-4.93,2.41-9.96,4.71-15.11,6.62-2.94,1.1-6.21,1.35-9.29,1.98h-6.35c.46-5.03-1.25-9.51,1.02-13.86,3.21-.21,4.1,3.47,7.18,4.17,0-3.46-3.63-5.28-3.74-8.51,2.53-2.33,5.71-.68,8.8-1.78-3.54-2.92-7.6-1.28-11.94-1.78,1.74-4.64,4.89-8.61,9.01-11.37,6.36.25,12.31-1.83,18.35-3.34,8.39-2.1,16.68-4.7,25.16-6.39,6.65-1.32,13.47-2.16,20.32-1.35h.46c5.47.3,10.93.84,16.41.84,5.78,0,11.55-.77,17.33-.79,5.41-.05,10.56,2.29,14.08,6.41Z"/>
      <path class="cls-43" d="M496.41,88.64l1.55,1.77c.1,1.83.3,3.65.3,5.48.07,15.46.12,30.91.16,46.36.58.57,1.04,1.24,1.36,1.99,1.23,5.52,1.23,11.24,0,16.76-.18.2-.36.4-.55.6-8.06,0-16.13,0-24.2-.13-2.71,0-5.41-.49-8.11-.74-.75-.15-1.52-.18-2.27-.09-6.27,1.61-12.28-.1-18.34-1.33-.67-1.41-.74-3.02-.19-4.48.58-.39.74-1.17.35-1.76-.04-.06-.09-.12-.13-.17-.05-.67,0-1.27.77-1.53l1.57-2.97,4.46,6.51c1.91.16,3.58-1.26,3.73-3.17,0-.05,0-.1,0-.15.62-4.37,1.91-8.62,3.82-12.6,2.43-5.2,4.28-10.67,6.19-16.05,1.23-3.52,1.06-3.58,4.49-3.77.77-.04,1.54-.06,2.3-.08,2.1-1.69,4.63-1.16,7-1.19,7.52-.11,7.76-.35,6.69-7.84.08-4.66.67-9.29.2-14,3.06-1.77,5.97-3.71,6.96-7.44.57-.39,1.32-.38,1.88.03Z"/>
      <path class="cls-51" d="M257.85,145.18l.31-9.4c-.74-2.23-.19-4.37.46-6.5,1.37-8.21,6.23-13.36,14.03-15.89.99-.32,2.21-.77,3.08-.46,6.03,2.04,11.74,4.73,14.75,10.79,1.12,2.26,1.45,4.92,2.14,7.39.86.38,1.44,1.2,1.5,2.14.46,7.85,1.09,15.71-1.28,23.41-.19.41-.46.78-.79,1.1l-33.64-.18c-2.26-1.94-1.85-4.04-.4-6.21l-.22-2.85c-2.08-1.16-2.25-2.27.07-3.34Z"/>
      <path class="cls-43" d="M292.04,157.76c.2-8.88.39-17.76.57-26.64,1.29-.3,2.56-.69,3.79-1.18,1.07-.57,2.07-1.28,2.97-2.1,3.53-2.89,7.33-4.99,12.23-4,1.61-5.2,2.21-10.03,1.18-15.12-.62-2.68-.73-5.46-.33-8.19,1.43-7.6.51-15.21.84-22.87l6.46.84c-.14,1.94.47,3.38,2.53,3.95.93,3.29,1.17,6.55-.3,9.75-1.6.68-2.34,1.69-1.93,3.57,1.05,4.8.39,9.56,0,14.42-.46,5.48-1.34,11.15,1.06,16.64.65,1.5-.11,3.81-.69,5.59-1.31,4.01-.12,6.18,4.22,6.99.18.25.44.54.39.8-1.05,5.78-.88,11.71.49,17.42-3.52.84-7.04,1.74-10.59,2.48-1.47.35-3,.46-4.5.31-6.21-.73-12.31-1.76-18.42-2.69Z"/>
      <path class="cls-48" d="M366.53,111.3l.99.54c.55.47,1.44.28,1.88.97l-.05-.05c.35.24.69.49,1.04.74l.12.08c.35.66,1.4.42,1.61,1.27,3.36,3.74,5.36,8.5,5.67,13.52.65.67,1.06,1.53,1.17,2.45.49,8.57.37,17.14.06,25.71-.04,1.2-.39,2.46-1.81,2.93h-26.82c0-10.57.35-21.12-.1-31.71-.3-6.69,2-11.55,7.31-15.28.45-.26,1.1-.16,1.34-.78.17.07.36,0,.43-.18,0-.02.01-.03.02-.05.51-.16,1.12-.08,1.42-.67l1.54-.45c.77.05,1.55,0,2.32.08l1.31.41c.03.38.22.52.57.45Z"/>
      <path class="cls-4" d="M136.64,155.78c.23-10.07.46-20.15.69-30.23.14-6.29,2.99-11.04,8.08-14.64,2.75-1.95,5.46-2.43,8.58-.95,3.84,1.83,7.03,4.35,9,8.16.77,1.31,1.21,2.78,1.3,4.29-.3,11.15-.78,22.29-1.19,33.44l-25.74.15c-.2-.18-.46-.26-.72-.24Z"/>
      <path class="cls-4" d="M176.1,155.87c-.37-1.6-1.09-3.2-1.06-4.8.18-9.18.49-18.36.84-27.54.27-7.46,4.88-11.56,11.29-14.11.99-.35,2.07-.38,3.08-.09,7.5,2.33,12.82,9.67,12.29,17.53-.64,9.29-1.06,18.64.06,27.95,0,.31-.02.61-.08.91l-26.42.14Z"/>
      <path class="cls-34" d="M123.52,262.98c-1.22,3.03-2.06,6.31-3.75,9.06-2.48,4.26-6.91,7.01-11.83,7.35-2.06-5.42-1.9-11.43.42-16.74-3.49.84-1.02,5.47-3.28,7.49-1.69.36-2.32-1-3.33-1.77,2.97,3.18,6.3,6.24,3.47,11.17l-2.72-.14c-8.68-1.69-15.48-9.57-14.59-17.93,1.06-9.97,6.82-15.65,16.53-16.82,7.66-.93,15.82,5.17,17.98,12.93.51,1.77.74,3.6,1.1,5.41Z"/>
      <path class="cls-43" d="M377.2,159.45c.16-9.15.33-18.31.49-27.45,0-1.21.05-2.43.08-3.64,2.49-.2,3.54,1.02,3.85,3.44.1.74,1.31,1.69,2.15,1.84.86-.11,1.61-.65,1.99-1.44.69-3.16,2.96-3.15,5.32-2.84,2.52.29,4.54,2.22,4.95,4.72.13,1.06.17,2.13.12,3.19v5.22c1.11.14,2.22.35,3.31.61,1.4.41,2.77.95,4.15,1.44.95.35,2.17,1.32,2.79,1.01,2.83-1.39,4.31.4,5.83,2.11,3.21,3.59,7.02,6.81,7.88,11.97-2.53,2.34-5.58,2.05-8.66,1.62-1.95-.28-3.91-.57-5.91-.65-9.41-.43-18.88-.79-28.33-1.17Z"/>
      <path class="cls-43" d="M258,151.37c.14,2.07.26,4.14.4,6.21-1.45.39-2.92,1.17-4.34,1.1-9.68-.53-19.36-1.24-29.03-1.94-.37,0-.72-.5-1.08-.77.18-.42.39-.82.62-1.22,2.94-4.45,3.9-9.19,2.13-14.36-.34-1.01-.6-2.04-.78-3.09-1.2-6.92,1.74-10.47,8.82-10.83,4.22-.23,8.45-.84,12.72-.84,5,0,7.13,3.96,4.56,8.35-1.41,2.22-1.72,4.96-.84,7.44.55,1.74.98,3.52,1.3,5.32.83,4.49.8,4.54,5.53,4.64Z"/>
      <path class="cls-48" d="M447.1,151.38l-.25,1.86c.21.23.27.43.17.63s-.19.27-.28.27l-.43,5.18-15.71.07c-.06-6.66,0-13.33-.24-19.98-.11-3.03,2.18-4.34,3.61-6.31,2.79-.25,5.55-1.69,8.39.12,2.59,1.61,4.55,3.38,4.5,6.8-.05,3.79.15,7.58.24,11.37Z"/>
      <path class="cls-2" d="M181.82,232.44l-8.81,10.85c5.31-.57,9.93-1.06,14.1,1.64q-1.13,1.61-10.63,2.33c1.14,3.82,5.43,6.24,4.81,11.57l-8.77-7.12c-1.06-1.91-2.53-1.99-4.22-.9-2.41,1.6-4.8,3.24-7.15,4.93-1.44,1.05-2.81,2.21-4.38,3.43q-.32-2.65,5.52-11.19c-3.01-1.2-6.38-1.09-9.29.31-.59.3-1.3.26-1.84-.12-.14-3.85,2.45-5.07,5.56-5.85.88-.3,1.84-.28,2.71.04h2.79l-5.81-8.02c6.21-.98,8.37,3.94,11.72,6.46,2.9-2.53,5.55-5.07,8.45-7.28,1.45-1.06,3.07-2.96,5.25-1.08Z"/>
      <path class="cls-31" d="M325.47,157.69c-4.02-5.91-2.49-12.06-.84-18.23.28-.35.53-.74.84-1.06,2.02-2.26,3.81-2.26,4.74.38,1.76,4.95,2.43,10.05.07,15.09-.57,1.23-1.12,2.47-1.69,3.7l-3.12.12Z"/>
      <path class="cls-58" d="M509.84,162.09l-5.07-.47-.1-.79c.14-5.02-1.01-10.14.84-15.04,1.1-.94,2.61-1.2,3.96-.69.8.29,1.43.9,1.75,1.69.4,5.2-.38,10.26-1.39,15.31Z"/>
      <path class="cls-58" d="M504.73,161.62h-4.42c-.15-.24-.31-.46-.46-.69.28-4.22.5-8.54.41-12.82-.05-2.47.6-4.3,3.64-3.89.56.15,1.03.51,1.34,1.01-.14,5.42.56,10.87-.39,16.27l-.11.12Z"/>
      <path class="cls-58" d="M514.87,161.55h-.84l-2.83-.07c-1.69-4.72-.74-9.38.37-14.04,3.07-.3,3.98,1.69,4.54,4.16.07,3.37,1.12,6.88-1.23,9.95Z"/>
      <path class="cls-28" d="M512.03,147.32c-.26,2.48-.63,4.95-.77,7.44-.14,2.24-.04,4.49-.04,6.76l-1.4.61c.24-5.14.48-10.28.73-15.41.77-.45,1.39-.52,1.49.61Z"/>
      <path class="cls-58" d="M159.45,242.36l-2.71-.04,2.71.04Z"/>
      <path class="cls-26" d="M151.22,248.17l1.84.12-1.84-.12Z"/>
      <path class="cls-58" d="M500.31,161.6h-1.07l.08-.11c.3-.41.61-.38.9,0l.08.11Z"/>
      <path class="cls-51" d="M105.24,279.54c.54-3.68-.18-6.86-3.19-9.44-1.34-1.13-2.18-2.84-3.63-4.82,3.7-.05,4.14,3.38,6.52,4.41.32-2.43-.05-5.07,1.07-6.7,1.12-1.63,3.8-2.47,6.13-3.84.26,2.24-1.23,3.04-2.22,3.98-1.51,1.32-2.29,3.28-2.1,5.27.19,3.66.1,7.33.14,10.98-.35,5.37.38,10.8-.48,16.61q-2.33-2.32-2.23-16.45Z"/>
      <path class="cls-53" d="M585.03,163.28c-2.32-2.42-4.5-4.98-6.99-7.2-2.83-2.71-6.95-3.59-10.64-2.28-2.45.76-5.07.9-7.6,1.58-3.94,1.06-7.81,2.37-11.73,3.53-2.44.73-4.91,1.36-7.37,2.04-.84.65-1.88.16-2.74.58l-1.83.11,5.57-10.89c2.53.84,4.8,1.17,7.24-.74,1.28-1,3.46-.8,5.21-1.22,4.22-.99,8.31-2.68,12.81-2.08.51.06,1.09-.49,1.64-.75,3.44-1.54,6.24-4.22,9.94-5.3,2.53-1.01,5.07-2.1,7.68-2.99,4.22-1.45,8.35-1.15,12.57.25,2.76.75,5.56,1.35,8.38,1.79l.2-.39.42.11,1.34-.59c1.27-1.25,2.61-.97,4.08-.16-.15-1.19-1.3-2.21-.57-3.47l1.2-1.94c3.31-.59,3.24,3.04,5.15,4.39.71-2.36,1.35-4.48,1.99-6.61,1.39-.73,1.4-2.63,2.85-3.31l7.77-1.86c.2-.55,1.16-1.84,1.05-3.04-.36-3.75,1.46-6.35,3.86-8.8.62-.72,1.23-.6,1.83,0,.31,2.09.63,4.18.95,6.28.22.57.22,1.2,0,1.77-2.23,6.76-1.13,9.37,5.55,11.92,10.08,3.84,20.08,2.61,29.92-1.09,2.1-.67,3.61-2.52,3.84-4.72.14-1.19.19-2.47,1.35-3.26.15,0,.35,0,.45.09,3.97,3.72,4.14,3.68,5.61-1.69,3.48-.21,6.25,1.1,8.59,4.22l2.97-2.53c1.83.84,3.91,1.69,5.85,2.75,2.69,1.5,2.87,3.16.84,5.41-2.98,3.3-3.14,5.48.14,8.37,1.88,1.65,4.45,2.48,6.71,3.68-1.31.17-2.7.71-3.92.44-4.76-1.15-9.7-1.32-14.53-.5-10.23,1.91-19.94-.77-29.79-2.97-5.91-1.31-12.02-1.6-18.03-2.34-7.6,0-14.75,2.34-21.87,4.6-4.79,1.52-9.45,3.52-14.12,5.39-4.89,1.89-9.06,5.28-11.91,9.69-2.6-.84-1.76-3.18-2.18-4.96-.25-1.05-.37-2.2-1.55-2.58-1.42-.46-2.25.57-2.99,1.54-1.2,1.75-2.12,3.69-2.7,5.73-.55,1.46-.51,3.36-2.5,3.99Z"/>
      <path class="cls-53" d="M684.06,125.92c-.21,7.39-1.03,8.45-9.6,10.44-9.62,2.23-19.35,3.47-29.13.63-2.69-.72-5.29-1.72-7.77-2.97-5.59-3-6.27-6.42-2.64-11.2.39-.52.84-1.01,1.22-1.51,5.64-2.74,11.9-3.38,18.21-3.64,4.88-.18,9.79-.16,14.66,0,5.18.18,9.66,2.09,13.78,4.63l1.28,3.63Z"/>
      <path class="cls-31" d="M108.71,121.74l-2.53-.04c-.25-2.24-.61-4.47-.68-6.72.02-.99.37-1.94.99-2.7.61-.35,1.36-.35,1.97,0,.66.76,1.05,1.72,1.11,2.73-.1,2.27-.55,4.5-.85,6.73Z"/>
      <path class="cls-60" d="M578.57,124.72c-1.72,1.42-3.53,2.73-5.41,3.93-1.34.75-3.01.94-4.53,1.38l-.18-8.14,10.11,2.83Z"/>
      <path class="cls-2" d="M607.82,123.49c-.18.14-.4.24-.63.27l.24-.35.39.08Z"/>
      <path class="cls-49" d="M316.13,64.76l-1.88-.74,1.91-.21c0,.31-.03.63-.03.95Z"/>
      <path class="cls-4" d="M512.03,147.32l-1.49-.64-.84-1c-1.18-.47-2.43-.26-3.66-.3-.41.02-.82-.11-1.13-.37l-1.07-.41c-1.69-.61-3.58.84-5.23-.43-.06-.64-.13-1.28-.19-1.92.3.02.61.02.91,0,6.22-.84,11.83.19,16.16,5.23.27.31.84.38,1.23.57l9.13,4.93-2.53,1.22c-3.1.08-5.64-1.22-7.93-3.17l-3.36-3.7Z"/>
      <path class="cls-2" d="M415.48,112.75c-.14-.33-.28-.66-.42-.99l.56-11.99c4.72-.3,9.44-.84,14.15-.84,7.48.07,14.96.57,22.43.84,2.6.09,5.21,0,7.82.06.09,3.68.19,7.34.3,10.98-.14,1.2-.35,2.34-1.69,2.75-8.96,1.15-17.96.3-26.93.52-3.81.1-7.6.07-11.43,0-1.73,0-3.41-.15-4.77-1.34Z"/>
      <path class="cls-6" d="M415.53,125.55c.09-1.86.19-3.72.3-5.59.9-1.09,2.25-1.71,3.66-1.69,8.69.05,17.34-1.99,26.05-.76,2.75.39,5.51.24,8.26.36,1.8.08,3.74-.29,5.07,1.42.27,2.09.55,4.18.84,6.28-6.93,1.03-13.91.15-20.85.47-2.86.13-5.75-.43-8.59.36l-14.74-.85Z"/>
      <path class="cls-48" d="M487.79,95.31c1.77,4.82.79,9.73.57,14.63-4.48,1.6-8.93,3.75-13.63.63-.08-3.38-.23-6.76-.22-10.14,0-5.29,1.34-7,6.41-8.65.59-.16,1.19-.28,1.8-.36,1.07-.57,1.96,0,2.87.46,1.08.94,2.4,1.71,2.19,3.44Z"/>
      <path class="cls-6" d="M415.48,112.75l41.71.09c.9,0,1.82-.13,2.72-.19.27-.38.52-.37.74,0l-1.01,4.69c-2.24,1.51-4.86,1.16-7.14.78-10.88-1.84-21.69.41-32.53.17-1.54,0-3.07.3-4.3-.95-.08-1.55-.14-3.05-.19-4.58Z"/>
      <path class="cls-28" d="M474.73,110.56l13.63-.63c.33,2.76.65,5.53,1.06,8.95-5.64.39-10.71.13-15.75.16,0-2.87-.8-5.81,1.06-8.48Z"/>
      <path class="cls-28" d="M415.63,117.33c9.02-.31,18.04-.84,27.04-.84,5.64-.04,11.28.56,16.9.84-.24.65-.47,1.3-.72,1.95-14.36-.72-28.73-1.06-43.09.67,0-.86-.05-1.74-.13-2.62Z"/>
      <path class="cls-28" d="M496.41,88.64h-1.69c-2.97.84-6.02.3-9.04.45-1.91-.24-3.97,1.09-5.77-.5-3.55,0-7.11-.16-10.66-.07-1.39,0-2.35-.1-2.81-1.95.69-.24,1.41-.41,2.14-.49,8.1-.05,16.21-.05,24.32,0,1.06-.06,2.12.09,3.13.43.36.14.26,1.39.38,2.13Z"/>
      <path class="cls-28" d="M430.28,126.41c1.41-.39,2.86-.66,4.32-.79,8.37-.08,16.75,0,25.12,0-.9.45-1.86.76-2.86.92-8.86-.02-17.73-.08-26.58-.13Z"/>
      <path class="cls-43" d="M479.92,88.59l5.59-.71c1.25,1.63,1.44,3.24-.09,4.82l-2.66-1.27c-.95-.95-1.9-1.9-2.83-2.85Z"/>
      <path class="cls-37" d="M459.96,89.65v-2.64h3.86l-3.86,2.64Z"/>
      <path class="cls-37" d="M460.65,112.68h-.74c.14-.6.27-1.2.4-1.8.11.57.23,1.19.34,1.8Z"/>
      <path class="cls-37" d="M457.95,84.27l.95-.07c-.13.57-.25,1.15-.37,1.69-.23-.53-.42-1.07-.57-1.62Z"/>
      <path class="cls-56" d="M432.29,73.8l.53.63h-1.15c.19-.19.4-.41.62-.63Z"/>
      <path class="cls-48" d="M156.54,79.67c2.39,3.44,1.57,7.26,1.54,11.27h-8.91c-.9-5.07-1.06-9.67,3.3-13.16l4.07,1.88Z"/>
      <path class="cls-48" d="M142.87,78.7c2.61,3.68.92,7.93,2.04,12.23h-8.96c.19-4.22-1.5-8.69,2.3-12.3l4.62.08Z"/>
      <path class="cls-48" d="M223.04,79.49c3.38,3.61,1.94,7.94,2.35,12.35l-8.84-.52c.56-4.22-1.56-8.63,2.64-11.97l3.85.14Z"/>
      <path class="cls-48" d="M209.13,78.71c3.16,3.33,3.48,4.9,2.43,12.51h-8.27c-1.23-7.25.11-10.61,4.92-12.67l.92.16Z"/>
      <path class="cls-49" d="M378.66,80.4c.31-.64.62-1.28.93-1.91,8.69.04,17.37.05,26.07.17,1.46.13,2.91.39,4.33.77,0,.39,0,.79-.06,1.17-2.01,1.05-3.99,2.25-6.41,1.39-.26-1.4-1.12-1.69-2.34-1.21s-2.46,1.11-3.69,1.69c-2.65-.57-5.26-.6-7.75.72-1.44.27-2.84.84-4.34.57-.6-.21-1.12-.59-1.51-1.08-.4-.95-1.39-1.5-2.41-1.34-1.05,0-2.1.02-2.81-.94Z"/>
      <path class="cls-15" d="M434.29,54.09v-6.25c1.98,1.77,2.89,3.57,0,6.25Z"/>
      <path class="cls-45" d="M442.25,67.61h2.73l-2.8,3.29-.84-.39.91-2.9Z"/>
      <path class="cls-15" d="M435.76,64.8l.39.2-.38-.21h0Z"/>
      <path class="cls-15" d="M442.21,60.18l-.2.38.21-.37h0Z"/>
      <path class="cls-5" d="M194.54,29.79l-.84.69c-.06-.55-.13-1.1-.19-1.69l1.03,1Z"/>
      <path class="cls-48" d="M403.51,81.98c1.94-1.38,4-2.21,6.41-1.39,2.87,4.05,1.98,8.4,1.04,12.76h-.06c-2.77.51-5.53.84-8.27-.18.3-3.7.59-7.43.88-11.2Z"/>
      <path class="cls-48" d="M262.58,94.78h-11.74c0-3.38-.19-6.57.05-9.68.24-2.87,3.38-4.95,6.76-4.81,2.81.12,4.73,1.87,4.92,4.93.19,3.07,0,6.3,0,9.56Z"/>
      <path class="cls-51" d="M282.89,95.32h-10.76c-.73-3.94-.78-7.98-.14-11.94.33-2.11,3.38-3.74,5.83-3.64,2.45.1,4.77,1.62,4.99,3.95.34,3.75.08,7.58.08,11.63Z"/>
      <path class="cls-48" d="M292.22,95.08c0-3.62-.14-6.64,0-9.65.17-2.88,2.19-4.67,5.07-4.88s5.56,1.61,5.85,4.57c.3,3.12.07,6.29.07,9.58-.89.17-1.78.28-2.68.35-2.55.03-5.12.02-8.31.02Z"/>
      <path class="cls-51" d="M185.32,91.63l-9.29-.68c0-2.76-.15-5.3.07-7.8.18-1.2.69-2.33,1.48-3.25,1.94-2.4,5.77-1.89,6.51,1.06.8,3.16.8,6.51,1.23,10.67Z"/>
      <path class="cls-48" d="M171.4,90.79h-9.02c.22-3.24.27-6.12.65-8.95.12-1.95,1.79-3.43,3.74-3.31,0,0,0,0,0,0,2.22-.05,3.67,1.09,3.97,3.05.46,2.93.45,6,.65,9.21Z"/>
      <path class="cls-48" d="M189.09,91.2c.26-3.26.33-6.01.74-8.7.46-2.97,1.69-4,4.14-3.95s3.79,1.32,4.06,4.13.05,5.45.05,8.52h-8.98Z"/>
      <path class="cls-28" d="M264.65,74.7c-10.77.74-22.9.34-26.15-1.06.9-.55,1.55-1.3,2.2-1.29,5.48.13,10.94.41,16.41.61,2.44.08,4.89.08,7.33.11.47.41.56,1.11.21,1.63Z"/>
      <path class="cls-28" d="M267.45,72.1c1.39.44,2.82.75,4.28.92,4.98.14,9.95.11,14.93.14.42.45.45,1.13.08,1.61h-19.66c-.63-1.01-.65-1.91.37-2.67Z"/>
      <path class="cls-28" d="M290.26,73.08l19.27,1.06v.54h-19.5c-.33-.52-.23-1.2.24-1.61Z"/>
      <path class="cls-48" d="M290.26,73.08c-.08.53-.15,1.06-.24,1.61l-3.29.08c0-.54-.06-1.07-.08-1.61-.04-.45.02-.89.16-1.32.37-.7.91-1.31,1.56-1.77.21-.12,1.14.72,1.5,1.27.23.55.36,1.14.38,1.74Z"/>
      <path class="cls-48" d="M267.45,72.1c-.13.84-.25,1.77-.37,2.65l-2.43-.05c-.07-.55-.14-1.09-.21-1.63-.02-.45.05-.91.21-1.34.48-.64,1-1.24,1.57-1.8l1.23,2.16Z"/>
      <path class="cls-43" d="M258.62,129.3l-.46,6.5c-1.62-3.12-1.53-4.5.46-6.5Z"/>
      <path class="cls-43" d="M257.85,145.18l-.08,3.34c-1.28.07-2.42-.12-2.39-1.77s1.19-1.77,2.47-1.57Z"/>
      <path class="cls-32" d="M585.03,147.34c.67-1.83,1.34-3.66,1.99-5.49,1.13-3.2,2.38-6.3,5.97-7.71,2.36,1.01,2.7,3.02,2.92,5.22.24,1.43.59,2.84,1.04,4.22l-7.98,9.37-3.95-5.62Z"/>
      <path class="cls-60" d="M515.41,151.05c3.12-.14,5.4,1.81,7.93,3.17-1.38,3.57-5.07,4.84-7.41,7.44-.31.15-.67.12-.96-.06l-.07-.05c.15-3.5.32-7,.52-10.5Z"/>
      <path class="cls-60" d="M537.98,145.59l2.74-.58-2.74.58Z"/>
      <path class="cls-58" d="M514.94,161.6l.96.06-.96-.06Z"/>
      <path class="cls-48" d="M384.18,82.04l.6,1.18c1.12.54,1.36,1.56,1.48,2.66.17,1.35-.22,2.71-1.08,3.77l-.84,3.61h-8.2c-2.27-2.64-1.99-5.39-.35-8.2l2.87-4.66h3.73c1.65-.58,1,1.32,1.81,1.64Z"/>
      <path class="cls-48" d="M321.95,92.26c.09-3.24.19-6.5.29-9.75.45-.61.95-1.17,1.5-1.69,3.1-2.45,6.58-1.08,6.94,2.85.25,2.7.05,5.46.05,8.45-2.9.53-5.87.58-8.78.14Z"/>
      <path class="cls-48" d="M335.5,92.16c.24-3.01.33-5.86.72-8.65.17-2.08,1.93-3.67,4.02-3.63,1.88-.09,3.9,1.76,4.14,4.17.26,2.53.06,5.14.06,8.1h-8.94Z"/>
      <path class="cls-48" d="M357.4,93.03l-8.17-.76c0-2.71-.13-5.26,0-7.8.1-2.54,2.15-4.58,4.69-4.67,2.16.06,4.41,2.4,4.35,5.07s-.55,5.32-.87,8.16Z"/>
      <path class="cls-48" d="M371.19,93.31h-8.23c0-3.13-.11-5.81,0-8.45.11-2.64,1.94-4.88,3.9-4.92,2.48-.06,3.73,1.62,4.39,3.83.13.43.24.84.35,1.31,1.42,2.81,1.61,5.59-.42,8.23Z"/>
      <path class="cls-48" d="M390.12,82.42q3.78-2.84,7.36,0l.58,1.69c.4.51.46,1.21.15,1.77,0,1.2-.06,2.39-.11,3.58-.04,1.03-.12,2.05-.19,3.38h-7.88c-.31-1.02-.64-2.11-.97-3.21-.5-1.23-.69-2.56-.57-3.89.17-1.29.09-2.7,1.63-3.33Z"/>
      <path class="cls-43" d="M371.19,93.31c.15-2.75.3-5.5.45-8.25h4.15l.35,8.2-4.95.04Z"/>
      <path class="cls-43" d="M389.27,86c-.07,1.23-.14,2.44-.21,3.67h-3.89l.05-3.68c1.35-1.09,2.7-1.28,4.05,0Z"/>
      <path class="cls-43" d="M402.63,93.23l8.27.18c-2.81,1.24-5.55,1.56-8.27-.18Z"/>
      <path class="cls-58" d="M364.66,110.46l-2.32-.08,2.32.08Z"/>
      <path class="cls-49" d="M398.22,85.92l-.15-1.77.15,1.77Z"/>
      <path class="cls-58" d="M358.94,111.72l-1.34.78,1.34-.78Z"/>
      <path class="cls-58" d="M369.4,112.81l-1.86-.97,1.86.97Z"/>
      <path class="cls-58" d="M372.11,114.85l-1.61-1.27,1.61,1.27Z"/>
      <path class="cls-58" d="M360.78,110.82l-1.42.67,1.42-.67Z"/>
      <path class="cls-58" d="M370.39,113.5l-1.04-.74,1.04.74Z"/>
      <path class="cls-58" d="M366.53,111.3c-.25.06-.5-.1-.56-.35,0-.02,0-.05-.01-.07.23.07.43.22.57.42Z"/>
      <path class="cls-49" d="M485.39,92.71c0-1.61.06-3.22.09-4.82l9.23.76c0,.74-.08,1.47-.22,2.2-1.31,4.71-1.96,5.12-6.7,4.47l-2.4-2.6Z"/>
      <path class="cls-28" d="M498.61,144.16l5.24.43c-1.69.19-2.76.68-2.81,2.78-.11,4.72-.52,9.42-.84,14.13h-.9c0-4.13.09-8.26,0-12.4-.12-1.66-.35-3.31-.68-4.94Z"/>
      <path class="cls-49" d="M446.74,154.13c0-.3.08-.6.11-.9-.03.3-.08.57-.11.9Z"/>
      <path class="cls-28" d="M504.91,145c.26-.08.54-.05.77.08.33.07.47.19.42.38s-.12.32-.21.32c0,3.98,0,7.95-.1,11.93-.18,1.29-.5,2.55-.95,3.77.03-5.49.05-10.99.07-16.49Z"/>
      <path class="cls-49" d="M505.89,145.79c-.07-.24-.14-.47-.21-.7l4.02.59-3.81.11Z"/>
      <path class="cls-2" d="M552.09,135.94v-1.38h.35v1.38h-.35Z"/>
      <path class="cls-24" d="M389.27,86h-4.05c-.15-.92-.3-1.84-.45-2.75l5.35-.84c-.28,1.22-.57,2.41-.85,3.6Z"/>
      <path class="cls-24" d="M384.18,82.04l-1.79-1.69c1.61-.76,1.65-.73,1.79,1.69Z"/>
      <rect class="cls-28" x="231.87" y="54.6" width="86.31" height="9.88" rx="3" ry="3"/>
      <path class="cls-44" d="M277.44,34.29h2.96c.14.02.27-.08.3-.22.28-.84.57-1.74.84-2.62.03-.08.06-.16.08-.24l.09.23c.28.84.57,1.69.84,2.59.03.17.18.28.35.25,0,0,0,0,0,0h2.92v.05l-.16.12c-.75.55-1.5,1.1-2.26,1.64-.11.06-.15.19-.09.3.3.84.57,1.76.84,2.64,0,.08.04.14.08.27l-.99-.72c-.48-.35-.97-.69-1.44-1.06-.11-.1-.27-.1-.38,0l-2.21,1.61-.22.15c0-.11.05-.18.07-.25.29-.84.57-1.76.84-2.64.06-.12,0-.27-.11-.33-.74-.52-1.48-1.06-2.21-1.6l-.19-.14.05-.04ZM283.35,38.13h.05l-.52-1.61-.9.66,1.37.95ZM281.61,34.75h-.55c-.1-.02-.19.05-.21.15-.11.35-.23.68-.33,1.04,0,.08.02.16.08.22.29.23.59.45.9.65.07.03.14.03.21,0,.16-.09.31-.2.45-.31.19-.14.46-.25.52-.43s-.1-.45-.17-.67-.09-.5-.25-.6-.41-.05-.63-.05h-.03ZM280.33,36.44l-.54,1.69h.04l1.4-1.01-.9-.68ZM282.15,34.24l-.52-1.62h-.05l-.53,1.62h1.11ZM282.75,34.7l.35,1.05,1.38-1.01h0l-1.72-.04ZM278.75,34.7h0l1.39,1.01.34-1.05-1.72.04Z"/>
      <path class="cls-1" d="M281.64,34.75c.22,0,.5-.08.65,0s.18.39.25.6.23.48.17.67-.34.29-.52.43c-.14.11-.29.22-.45.31-.07.03-.14.03-.21,0-.3-.2-.61-.42-.9-.65-.06-.06-.09-.14-.08-.22.1-.35.22-.69.33-1.04.02-.1.11-.17.21-.15h.55v.05Z"/>
      <path class="cls-22" d="M280.36,36.48l.9.66-1.4,1.01h-.04l.54-1.67Z"/>
      <path class="cls-22" d="M283.38,38.13l-1.39-.99.9-.66.52,1.61-.03.03Z"/>
      <path class="cls-22" d="M282.19,34.29h-1.11l.53-1.62h.05l.52,1.62Z"/>
      <path class="cls-55" d="M282.78,34.74h1.69l-1.38,1.01-.31-1.01Z"/>
      <path class="cls-55" d="M278.81,34.74h1.69l-.34,1.05-1.39-1.01.03-.04Z"/>
      <rect class="cls-28" x="267.65" y="28.34" width=".67" height="26.25"/>
      <path class="cls-12" d="M628.5,290.96v20.42c0,2.91-.04,2.92-2.83,2.94l-18.79.13c-3.27,0-3.14,0-3.02-3.2.15-3.9.04-7.79.04-11.7,0-8.91.35-17.81-.09-26.68-.27-5.61,5.26-12.05,11.69-12.4,4.84-.27,8.77,1.52,11.43,5.51.89,1.56,1.37,3.32,1.4,5.11.21,3.38.06,6.72.06,10.07v9.81h.1Z"/>
      <path class="cls-7" d="M607.89,124.61c7.53-.11,15.06-.19,22.59-.35,5.75-.12,5.75-.22,5.2,5.69-.19,1.88-.61,3.75-.74,5.64-.46,7.5-.74,15.02-1.28,22.51-.52,6.9-1.33,13.78-1.95,20.67-.15,1.63-.05,3.28-.14,4.91-.38,6.51-.72,13.03-1.21,19.54-.41,5.59-1.01,11.15-1.5,16.71-.07.74,0,1.45,0,2.18,0,1.39.68,1.92,2.04,1.88,6.35-.15,12.67-.27,19.06-.39,1.64,0,3.28,0,4.91-.05,19.16-.25,38.33-.46,57.46-.77s38.13-.69,57.2-1.04h4.86c0,2.14.09,3.93,0,5.7-.24,3.71-.65,7.39-.84,11.08-.08,1.46-.49,2.53-2.01,2.75-2.19.31-2.36,1.74-2.36,3.56-.03,17.46-.1,34.93-.21,52.39-.04,5.07-.3,10.2-.41,15.3-.02,1,.05,2.01.2,3,.35,2.21-.33,3.38-2.53,3.76-1.17.15-2.36.2-3.54.15h-17.74c-32.71.17-65.43.36-98.14.55-2.97.14-4.17.17-8.91.11l-1.08-.12c-5.48.12-10.06.18-12.39.46-8.27,0-3.38-2.79-1.88-5.91.65-.51,1.44-.78,2.26-.78,3.08-.38,3.25-.57,3.29-3.71.11-13.05-.79-26.08-.56-39.13.13-2.62-1.31-5.06-3.67-6.2-4.74-2.73-10.52-2.91-15.42-.5-1.75.97,1.54,56.7-.43,56.37-2.29-.5-8.72.36-11,0-1.14-.65-2.12-56.64-2.19-57.71-.53-7.65-.47-15.32-1.12-22.96-.11-1.26,0-2.53-1.06-3.5-.66-.44-1.42-.69-2.21-.74-9.36-.08-18.73,0-28.08,0-.91-.05-1.82.07-2.69.34-3.22.39-6.46.12-9.69.19-1.17-.05-2.34.07-3.46.37-5.6.51-11.21.13-16.83.24-4.31.08-4.67.41-4.7,4.65,0,1.99.05,3.99,0,5.97-.13,3.06,0,6.11-.07,9.16-.08,3.24-.7,3.68-4,2.9-.97-.42-1.13-1.31-1.26-2.23-.1-.79,0-1.69-1.01-2.36-1.49,1.06-.27,3.46-1.94,4.37-1.56.46-3.09,1.02-4.66,1.49-2.06.45-3.87,1.65-5.07,3.38-.53.84-1.18,1.69-2.35,1.61-.9-.13-1.78-.4-2.6-.78-4.31-1.75-7.93-.57-11.21,2.45-2.01,1.75-3.11,4.32-3,6.98.15,9.86,0,19.73,0,29.57,0,1.42.29,2.92-.77,4.17-4.18.52-8.39.7-12.59.53-.89,0-1.74-.4-2.3-1.1-.57-1.79,0-3.6-.05-5.4-.32-9.71-.68-19.43-.62-29.12.05-4.35-3.08-8.09-7.38-8.8-8.01-1.24-13.93,3.71-13.85,11.34.1,8.91-.41,17.74.31,26.65.05.55-.04,1.1-.25,1.61-.66,1.37-1.88,1.61-3.19,1.69-1.99.08-3.99.09-5.97.05-5.91-.1-6.13.38-6.76-3.95-.05-.37-.19-.69-.26-1.05-.25-8.97-1.01-17.92-.84-26.91.06-2.69-.32-5.28-2.11-7.42-3.11-3.74-6.9-4.82-12.88-3.2-4.76,1.28-7.34,5.21-7.39,10.2-.09,9.62,1.06,19.19,1.07,28.81,0,1.42.29,2.95-.95,4.09-4.57,1.06-9.19.55-13.77.33-1.91-.09-2.08-1.73-2.1-3.25v-13.87c.08-1.09,0-2.18-.26-3.24-.45-3.97-.53-7.97-.24-11.95.34-7.28-6.26-11.17-11.5-11.17-6.07,0-10.99,4.92-10.99,10.98,0,.06,0,.12,0,.18-.07,5.26,0,10.52,0,15.78.12,1.18,0,2.36-.37,3.49-.77,1.23-1.34.27-2.59-1.41-2.93-3.89-2.32-4.72-4.44-8.06-.4-.63-.59-.63-.45-1.02-.04-9.54-.06-19.09-.13-28.63,0-1.99-.17-3.99-.33-5.97-.29-3.48-1.06-4.31-4.85-5.17v-16.87c1.3-.06,2.62-.18,3.94-.18l62.17-.07c6.08,0,12.13-.27,18.18-.32,9.35-.08,18.69-.05,28.03-.09,3.09,0,3.3-.23,3.29-3.19-.06-9.65.25-19.3-.3-28.91-.9-15.33-.74-30.67-1.06-46-.08-3.89-.54-7.77-.74-11.67-.11-2.06-.06-4.13-.05-6.2,0-2.48.35-2.74,2.87-2.75,10.09-.05,20.18-.12,30.26-.19,1.2-.84,2.59-.69,3.95-.69,6.62,0,13.29.43,19.87-.11,15.41-1.26,30.84-.61,46.25-1.11,9.42-.32,18.83-1.14,28.27-.95,1.37,0,2.77-.23,3.94.75Z"/>
      <path class="cls-13" d="M607.89,124.61l-27.21.6c-11.69.24-23.37.41-35.08.69-12.05.28-24.12.65-36.16.95-1.26,0-2.53-.1-3.8-.15-1-1.69-.34-3.07.55-4.53,6.26-10.39,15.29-17.56,26.44-21.97,4.59-1.81,9.52-2.71,14.31-4.04,1.53-.06,2.95-.84,4.51-.72l2.75-.14c1.49-.19,2.92-1.36,4.45-.16,14.67,0,27.93,4.08,39.29,13.59,4.21,3.49,7.66,7.8,10.14,12.67.54,1.13.94,2.19-.19,3.2Z"/>
      <path class="cls-13" d="M558.64,95.15l-4.45.16c1.27-.4,1.97-1.16,1.61-2.53-.04-.18-.06-.36-.07-.54-.09-1.23.22-2.78-.41-3.59-.51-.65-2.22-.25-3.29-.61-.69-.29-1.24-.84-1.52-1.53-.19-.79-.23-1.62-.12-2.43-.15-1.1.62-2.1,1.72-2.25.16-.02.32-.02.48,0h3.12v-7.93c-1.2-.07-2.26-.1-3.34-.18-1.3-.08-1.88-.74-1.91-2.1-.07-3.2.4-3.8,3.55-3.95.36-.01.72-.04,1.08-.09.24-.09.46-.21.68-.35v-6.53c-2.64-.7-3.45-1.6-2.97-3.5.13-.7.55-1.31,1.16-1.69,1.22-.36,2.17-1.32,2.53-2.53.42-1.08,1.56-.98,2.05.1.31,1.03,1.06,1.86,2.04,2.29,1.06.44,1.09,1.5.9,2.59-.35,1.88-.3,1.89-2.53,2.74-.11,2.08-.23,4.22-.34,6.23,1.31.52,2.53.74,3.34,1.43.46.37.37,1.51.37,2.32q0,2.53-3.77,3.57v6.08c0,1.4,1.01,1.42,2.07,1.56s2.64.41,2.78.95c.33,1.38.26,2.83-.19,4.17-.19.57-1.59,1.01-2.46,1.04-1.59.05-2.37.55-2.26,2.22.1,1.67.08,3.29.14,4.92Z"/>
      <path class="cls-25" d="M496.36,309.09l-1.11,4.37c-1.23,2.26-.2,4.72-.63,7.05-.05.28-.19.54-.39.74l-4.48-.16c-.3-1.11-.54-2.24-.72-3.38-.19-1.77-.23-3.57-.32-5.36.79-3.71,3.38-6.01,6.37-7.9.62-.39,1.41-.42,2.06-.09,1.19,1.88-.33,3.24-.79,4.73Z"/>
      <path class="cls-18" d="M552.91,318.89l1.52,2.15-32.89-.14.99-1.97c3.31-1.42,27.06-1.44,30.39-.05Z"/>
      <path class="cls-40" d="M494.29,321.19c0-2.09-.14-4.17-.04-6.25,0-.51.68-.99,1.03-1.49v8.08l-.78-.25-.21-.09Z"/>
      <path class="cls-40" d="M551.44,95.5l-4.51.72,4.51-.72Z"/>
      <path class="cls-47" d="M616.45,367.58l.57-.56c0,.23.05.45.08.67l-.65-.11Z"/>
      <path class="cls-47" d="M621.32,329.73l.53-.9-.53.9Z"/>
      <path class="cls-23" d="M574.74,343.92l-.46-.92c.15.35.28.65.46.92Z"/>
      <polygon class="cls-47" points="616.36 343.74 616.36 343.72 616.57 343.71 616.36 343.74"/>
      <path class="cls-23" d="M574.21,342.91l-.41-.55.41.55Z"/>
      <path class="cls-23" d="M557.54,333.05l.48.31-.48-.31Z"/>
      <path class="cls-23" d="M566.7,331.8l.39-.37-.39.37Z"/>
      <path class="cls-62" d="M465.84,321.52h.42l-.2.08-.22-.08Z"/>
      <polygon class="cls-10" points="494.27 321.19 494.52 321.29 494.37 321.38 494.25 321.26 494.27 321.19"/>
      <path class="cls-62" d="M467.49,321.48h.41l-.19.1-.21-.1Z"/>
      <path class="cls-19" d="M597,320.58c-1.12-1.12-17,1.34-17,0,0-9.99.27-31.88.27-41.88,0-11.64-7.11-19.56-18.89-20.87-8.12-.9-15.21,1.18-21.03,7.3-3.12,3.23-4.85,7.55-4.8,12.04-.08,7,0,13.98-.04,20.98,0,1.23.26,2.59-.84,3.57l.34,16.85c.08-.99-10.01.08-11,0-.1,0-4.9-17.01-5-17-.37-2.14,3.04-3.5,2-5-.81-1.22,4.26-1.8,2.82-1.53-.51-1.35.29-2.22,1.18-3.03,1.73-1.45,3.16-3.21,4.22-5.2.36-.62.88-1.14,1.5-1.49,2.53-1.65,2.7-2.43.84-4.88-.29-.35-.52-.74-.68-1.17-.4-2.18-.4-4.42,0-6.61.77-1.21-6.21-1.6-7.9-3.1-1.16-3.54,1-4,1.59-9.2-.84-.5-.44-1.49-.48-2.27-.19-3.5.35-7.01-.29-10.5v-7.86c0-2.98.58-3.54,3.68-3.56,4.43,0,8.85,0,13.27-.05h5.42c.31-.18.67-.27,1.03-.26,14.14-.26,28.27-.33,42.41-.3.99,0,1.96.48,2.95.09,1.61.22,1.59,1.5,1.63,2.64.22,5.32.37,10.63.59,15.96.13,3.38.31,6.83.51,10.24.12.41.31.8.57,1.15.05.79-.57,1.09-1.09,1.42"/>
      <path class="cls-19" d="M590.95,294.28c1,1.46.53,2.72-.52,3.92"/>
      <path class="cls-12" d="M726.53,300.29c0-10.14.1-20.33-.05-30.48-.1-2.76,1.26-5.37,3.58-6.88,5.91-4.39,15.47-3.86,20.97,1.04,1.33,1.1,2.09,2.75,2.07,4.48.05,14.33.1,28.66.16,42.99,0,2.31-.25,2.53-2.47,2.53-7.25.17-14.5.32-21.76.46-2.97.05-3.11-.13-3.1-3.02v-11.13h.59Z"/>
      <path class="cls-12" d="M711.79,290.46v20.45c0,2.86-.52,3.42-3.52,3.5-3.54.08-7.09.08-10.63.17-2.63.08-5.26.28-7.88.37-2.78.1-3.58-.64-3.64-3.46-.18-8.53-.31-17.07-.5-25.6-.09-4.62-.3-9.25-.37-13.88-.07-6.04,2.64-10.22,9.83-11.71,5.26-1.21,10.76.45,14.47,4.37,1.52,1.47,2.35,3.51,2.29,5.63-.07,6.76,0,13.45,0,20.18h-.03Z"/>
      <path class="cls-12" d="M669.81,290.51v20.4c0,2.92,0,2.92-2.82,2.94l-18.79.14c-3.27,0-3.13,0-3.02-3.2.15-3.9,0-7.79.05-11.71,0-8.91.34-17.81-.1-26.68-.27-5.61,5.26-12.04,11.69-12.4,4.84-.27,8.77,1.52,11.43,5.52.89,1.56,1.38,3.32,1.4,5.11.22,3.34.06,6.71.06,10.07v9.8l.09.02Z"/>
      <path class="cls-12" d="M434.76,300.39c.58,5.97-3.9,8.31-8,10.63-2.25,1.33-4.89,1.86-7.49,1.49-3.12-.3-5.82-2.3-7.01-5.2-.3-.55-.64-1.08-1.01-1.57-.37-10.7-.78-21.4-1.09-32.11-.17-6.05,2.92-10.28,8.8-11.71,4.62-1.11,9-.65,12.51,3.18,1.65,1.83,2.55,4.22,2.54,6.68.29,9.55.52,19.08.75,28.61Z"/>
      <path class="cls-12" d="M472.38,307.36c-1.93,2.73-3.83,5.37-7.42,6.26-6.93,1.69-13.98-2.39-15.1-9.91-.15-9.62-.16-19.24-.53-28.85-.18-4.75,2.02-7.83,5.82-9.91,4.45-2.43,9.04-2.68,13.33.44,2.25,1.59,3.63,4.15,3.71,6.9.31,10.25.45,20.51.59,30.77-.06,1.44-.19,2.88-.41,4.3Z"/>
      <path class="cls-12" d="M395.42,285.7c0,6.08.08,12.16,0,18.23.01,1.53-.27,3.04-.84,4.45-1.27,2.86-5.25,4.61-8.45,3.84-4.43-1.05-7.98-3.49-10.01-7.6-1.75-3.52-3.1-7.22-4.62-10.85,0-6.76.11-13.44.05-20.16-.05-5.75,4.06-10.07,9.54-11.23,5.48-1.16,11.87,2.16,13.73,7.05.39,1.11.59,2.27.59,3.45.02,4.3.02,8.53.02,12.83Z"/>
      <path class="cls-27" d="M619.74,188.31c0,2.73-.08,5.45,0,8.16.05,1.63-.55,2.38-2.17,2.37-1.81,0-3.63-.04-5.44,0-5.91.14-11.83.35-17.69.49-3.01.08-3.57-.46-3.6-3.38-.05-5.27,0-10.54-.14-15.81-.04-2.29.98-4.48,2.77-5.91,5.28-4.75,14.44-5.77,20.68-2.36,3.34,1.65,5.43,5.09,5.35,8.81v7.6l.25.02Z"/>
      <path class="cls-13" d="M553.95,197.91c-3.08.14-4.92.47-7.99.7-1.69.12-2-.93-2.03-2.2-.09-3.71-.14-7.45-.19-11.18.03-.82,0-1.63-.1-2.44-.84-4.67.92-8.16,4.87-10.62,5.63-3.51,15.86-3.47,20.98,1.28,2.1,1.78,3.28,4.41,3.22,7.16,0,4.34.13,8.7.37,13.05.2,3.63-.18,4.17-3.73,4.17h-14.15c0,.11-1.25-.03-1.25.08Z"/>
      <path class="cls-12" d="M496.88,304.64c-3.49.84-5.38,3.47-7.08,6.33-.34.5-.69.98-1.07,1.44-.41-.72-.79-1.47-1.12-2.23-.23-.73-.42-1.47-.56-2.22.06-5.91.16-11.76.18-17.64s-.05-11.75-.07-17.62c-.06-.54-.02-1.08.11-1.61,1.53-4.03,7.23-9.11,13.27-7.43,1.52.51,3,1.11,4.45,1.78.41.37.6.94.48,1.49-.3,1.42-1.03,2.72-2.1,3.71,1.64,1.12,4.55.05,4.53,3.1.07,1.45,0,2.91,0,4.35,0,1.82,0,3.52-2.53,3.55-.79,0-1.26.68-1.34,1.49-.14,1.03.43,2.03,1.39,2.45,2.1,1.05,3.1,3.02,4.28,4.82.84,1.33,1.38,2.79.35,4.32-3.71,1.8-6.93,4.47-9.4,7.78-.4.57-1.12.68-1.61,1.12h0c-.61.54-1.36.89-2.16,1.01Z"/>
      <path class="cls-13" d="M509.62,199.43h-12.94c-2.78,0-2.85-.14-2.73-2.97.16-3.9.29-7.82.12-11.71-.22-4.77,1.99-8.02,5.91-10.22,7.12-3.98,17.23-1.23,21.19,5.91.9,1.64.98,3.8,1.15,5.76.31,3.61.43,7.23.57,10.87.06,1.5-.68,2.21-2.73,2.28-2.81.1-5.64,0-8.45,0,0,.18-2.1-.07-2.1.08Z"/>
      <path class="cls-52" d="M534.65,302.42c0-7.9.14-15.82,0-23.72-.14-8.37,3.98-14.21,10.93-18.03,9.46-5.2,18.86-4.04,27.73,1.61,2.82,1.7,5.03,4.25,6.31,7.28.86,2.27,1.32,4.68,1.37,7.11.15,12.18.1,24.35.13,36.53v2.21c.61,1.18-.24,1.81-1.08,1.92-2.69.37-5.42,1.09-8.08-.19-1.1-1.49-2.32-2.89-3.65-4.18-.56-.47-1.86-.08-3.19-.08-.9-1.23-2.31-2.15-4.17-.57-.2.19-.46.29-.74.27-3.55-1.24-5.16,1.63-7.3,3.38-.57.47-1.17.92-1.76,1.37-.99,1.32-2.26.98-3.54.61-.37-.24-.79,0-.49-.53-.34.28-.22.32-.66.51-1.5.67-10.07,1.53-11.47.66"/>
      <path class="cls-35" d="M515.9,321.11c.41-.37.79-.98,1.24-1.05,1.15-.11,2.3-.14,3.46-.08,1.31,0,2.53.15,3.68-.98.49-.49,1.63-.32,2.48-.46,1.4,1.73.84,3.89,1.24,5.84-2.78,1.77-5.25,4.5-9.13,2.39-.72-.4-1.9,0-2.86.08-1.18-1.72-1.22-3.98-.11-5.75Z"/>
      <path class="cls-39" d="M515.9,321.11l.1,5.75-2.94,1.28c-1.24-2.04-1.8-4.02-1.01-6.05.72-1.82,2.51-.87,3.84-.97Z"/>
      <path class="cls-39" d="M527.99,324.41c-1.77-1.69-.68-3.92-1.24-5.84.59-.23,1.19-.43,1.8-.6,1.12-.25,1.99,0,2.21,1.32.08.36.19.7.31,1.05.89,3.41.63,3.77-3.08,4.07Z"/>
      <path class="cls-19" d="M542.16,316.77l4.99-.29c.11-.07.26-.07.37,0h5.67l-.68,2.39-10.39.06.04-2.16Z"/>
      <path class="cls-16" d="M496.88,304.64l2.17-1.04c-.24.75-.41,1.53-.49,2.32,0,1.61-.59,2.71-2.21,3.16-.04-1.37-.23-2.76.93-3.86-.12-.2-.25-.39-.41-.57Z"/>
      <path class="cls-16" d="M499.06,303.6l1.61-1.12c.06,1.25-.8,1.14-1.61,1.12Z"/>
      <path class="cls-19" d="M572.29,316.28c2.48-.13,4.97-.42,7.44-.33,1.27.05,1.61-.37,1.69-1.4l2.13,2.15-1.81-.43c-.3,1.85-1.56,2.15-3.3,2.12s-3.46-.7-4.93.66c-1.37-.48-1.41-1.57-1.23-2.77Z"/>
      <path class="cls-54" d="M590.15,318.37l-4.39-.57c.34-.99.79-1.93,1.34-2.82.69-.74,1.57-1.3,2.53-1.61.14,1.83,3.03,3.17.52,5.01Z"/>
      <path class="cls-19" d="M522.57,290.03c-1.87,2.09-5.05,2.36-7.24.61l.5-.55c2.12.2,4.26.04,6.33-.47l.41.41Z"/>
      <path class="cls-47" d="M609.81,369.08l-.26.25c0-.05,0-.13.05-.16.06-.04.14-.08.21-.09Z"/>
      <ellipse class="cls-10" cx="532.68" cy="300.39" rx=".15" ry=".23"/>
      <rect class="cls-7" x="628.5" y="124.53" width="9.28" height="106.35"/>
      <ellipse class="cls-53" cx="653.57" cy="119.15" rx="4.81" ry="6.28"/>
      <ellipse class="cls-53" cx="660.75" cy="112.08" rx="4.49" ry="13.34"/>
      <ellipse class="cls-53" cx="672.35" cy="118.75" rx="2.3" ry="6.67"/>
      <ellipse class="cls-53" cx="677.48" cy="122.78" rx="3.11" ry="7.23"/>
      <ellipse class="cls-53" cx="656.27" cy="106.76" rx="3.09" ry="5.59" transform="translate(74.97 429.51) rotate(-38.28)"/>
      <ellipse class="cls-53" cx="644.95" cy="114.99" rx="2.52" ry="7.79"/>
      <circle class="cls-53" cx="648.56" cy="116.27" r="3.41"/>
      <polyline class="cls-2" points="665.04 94.68 665.92 95.55 667.7 97.47 664.15 97.47 663.29 94.92"/>
      <polygon class="cls-2" points="664.01 86.26 668.71 92.91 668.52 97.08 665.74 97.76 656.63 89.44 658.98 86.26 664.01 86.26"/>
      <path class="cls-21" d="M383.01,284.01c1.19.29,2.36.65,3.5,1.08,2.33,1.04,3.69,2.82,3.14,5.48s-1.22,5.07-1.99,7.51c-1.88,5.98-4.02,11.88-5.7,17.91-.68,2.45-.48,5.15-.59,7.74-.06,1.45-.06,2.83-1.99,2.98-4.43,0-8.87.17-13.28-.13-2.35-.15-4.65-1.14-6.96-1.75-1.44-1.31-1.83-3.11-2.37-4.88-2.07-6.9-4.39-13.72-6.08-20.73-.4-1.32-.65-2.69-.74-4.06,0-1.62.39-3.08,1.97-3.85,1.58-.78,2.98-.15,4.22.9,1.89,1.6,3.08,3.8,4.95,5.91.21-3.38-2.12-6.2-.99-9.29-.64-6.25-1.29-12.5-1.94-18.75-.16-1.22-.25-2.44-.26-3.67.05-1.61-.51-3.67,1.75-4.22,1.89-.46,2.53,1.23,3.38,2.53s1.64,2.53,3.12,4.77c.09-1.55.09-3.1,0-4.65-.75-5.31-1.79-10.58-2.34-15.9-.28-3.51-.28-7.03,0-10.54.15-1.53.59-3.01,1.32-4.36,1.69-3.44,4.45-5.41,8.45-5.18,3.67.17,6.77,2.77,7.56,6.35.66,3.3.94,6.66.84,10.02-.07,6.43-.43,12.86-.68,19.29-.23,5.81-.48,11.62-.71,17.43v2.48l2.41-.44Z"/>
      <path class="cls-21" d="M424.01,326.68c-.36,1.34-.82,2.64-1.38,3.91-1.16,2.73-4.12,4.21-7.01,3.52-3.24-.58-6.45-1.36-9.6-2.23-7.65-2.1-15.21-4.5-22.9-6.39-3.13-.76-6.59-.54-9.9-.67-1.85-.07-3.61-.07-3.81-2.22,0-4.97-.22-9.95.16-14.9.2-2.63,1.45-5.2,2.24-7.8,1.69-1.62,3.98-2.05,6.24-2.65,8.82-2.32,17.55-4.92,26.51-6.81,1.7-.46,3.43-.74,5.19-.84,2.08,0,3.94.43,4.93,2.21,1,1.77.19,3.34-1.14,4.72-2.05,2.11-4.87,3.44-7.6,5.54,4.31.24,7.93-2.38,11.91-1.11l23.97-2.17c1.55-.18,3.12-.28,4.68-.29,2.05.05,4.7-.57,5.4,1.95.59,2.12-1.59,2.89-3.22,3.81s-3.23,1.84-6.11,3.49c2.87,0,4.44.16,5.91,0,6.76-.84,13.52-2.01,20.34-2.62,4.48-.31,8.98-.31,13.46,0,1.93.16,3.82.66,5.58,1.48,4.4,1.91,6.91,4.99,6.62,9.48-.25,3.92-3.28,7.55-8.12,8.45-4.23.73-8.52,1.03-12.81.91-8.23-.08-16.44-.48-24.67-.77-7.43-.25-14.86-.54-22.29-.79h-3.17l.57,2.78Z"/>
      <path class="cls-31" d="M368.76,319.1c17.32-11.83,35.43-7.33,53.55-2.59,1.05.84,2.15,1.58,3.13,2.47,6.62,5.91,6.62,11.2-1.12,13.94-14.56,5.15-29.57,7.15-44.35.19-3.6-1.69-7.24-3.29-10.87-4.93-.11-3.03-.22-6.05-.35-9.08Z"/>
      <path class="cls-31" d="M388.34,330.51c-11.94,8.32-24.43,5.16-36.93,1.83-.73-.57-1.49-1.11-2.16-1.69-4.56-4.22-4.56-7.89.77-9.82,10.05-3.63,20.37-5.07,30.6-.14,2.48,1.19,4.99,2.32,7.49,3.47.08,2.09.16,4.22.24,6.35Z"/>
      <path class="cls-31" d="M388.59,315.11c10.46-10.14,23.3-9.01,36.17-7.71.84.46,1.64.84,2.41,1.36,5.18,3.38,5.77,7.06.84,9.81-9.29,5.19-19.31,8.24-30.18,5.07-2.64-.78-5.3-1.48-7.95-2.22-.43-2.11-.86-4.21-1.28-6.3Z"/>
      <path class="cls-31" d="M388.34,325.99c20.85-5.91,42.85-4.44,64.87-2.88,1.28.34,2.63.65,3.83,1.01,8.1,2.48,8.15,4.86-1.18,6.34-17.59,2.79-35.72,4.17-53.76,1.5-4.39-.64-8.82-1.25-13.22-1.88-.17-1.37-.35-2.73-.53-4.09Z"/>
      <path class="cls-15" d="M126.71,176.08c1.19.29,2.36.65,3.5,1.08,2.34,1.04,3.69,2.83,3.14,5.48-.54,2.54-1.2,5.04-1.99,7.51-1.88,5.98-4.02,11.88-5.7,17.91-.68,2.45-.49,5.15-.6,7.75-.06,1.44-.06,2.82-1.98,2.98-4.44,0-8.88.16-13.29-.14-2.35-.15-4.64-1.13-6.95-1.75-1.45-1.31-1.84-3.11-2.37-4.88-2.07-6.9-4.39-13.71-6.08-20.73-.4-1.32-.65-2.69-.74-4.06,0-1.61.4-3.08,1.97-3.85s2.98-.15,4.22.9c1.88,1.61,3.08,3.8,4.94,5.91.21-3.38-2.12-6.2-.98-9.29-.65-6.25-1.3-12.5-1.94-18.75-.17-1.22-.25-2.44-.26-3.67,0-1.61-.51-3.67,1.74-4.22,1.89-.46,2.53,1.24,3.38,2.53s1.69,2.53,3.12,4.77c.09-1.55.09-3.1,0-4.65-.75-5.31-1.79-10.58-2.33-15.9-.28-3.51-.28-7.03,0-10.54.15-1.53.6-3.01,1.32-4.36,1.69-3.44,4.45-5.4,8.45-5.18,3.68.15,6.8,2.76,7.6,6.35.65,3.3.94,6.66.84,10.02-.07,6.43-.43,12.86-.68,19.29-.23,5.81-.48,11.63-.71,17.44v2.48l2.37-.44Z"/>
      <path class="cls-31" d="M147.88,209.76c-9.1-13.33-5.64-27.28-1.99-41.23.63-.84,1.22-1.69,1.89-2.42,4.58-5.07,8.63-5.07,10.73.84,3.96,11.21,5.51,22.75.15,34.15-1.3,2.77-2.53,5.58-3.79,8.37l-6.99.29Z"/>
      <path class="cls-21" d="M764.37,147.99c1.02.25,2.09.41,3.06.74,2.04.71,3.23,1.94,2.75,3.76-.48,1.75-1.06,3.47-1.74,5.15-1.64,4.1-3.52,8.15-4.99,12.29-.59,1.69-.42,3.53-.52,5.31-.06,1-.06,1.94-1.74,2.04-3.87,0-7.76.12-11.62-.08-2.05-.25-4.08-.65-6.08-1.2-1.27-.9-1.61-2.14-2.07-3.38-1.82-4.73-3.84-9.41-5.31-14.22-.35-.89-.57-1.83-.64-2.78-.12-1.17.58-2.26,1.69-2.64,1.25-.45,2.64-.22,3.68.61,1.65,1.1,2.69,2.61,4.32,4.07.19-2.32-1.85-4.22-.84-6.4-.57-4.28-1.14-8.57-1.69-12.85-.14-.84-.22-1.69-.23-2.53.04-1.11-.44-2.53,1.53-2.9,1.65-.32,2.25.84,2.97,1.73s1.44,1.69,2.73,3.27c.08-1.06.08-2.13,0-3.19-.66-3.64-1.56-7.26-2.04-10.91-.24-2.4-.24-4.82,0-7.22.14-1.07.54-2.1,1.16-2.98,1.49-2.37,3.89-3.71,7.39-3.56,3.06.14,5.91,1.76,6.62,4.35.56,2.25.8,4.56.71,6.88-.06,4.41-.37,8.81-.6,13.22-.19,3.99-.41,7.98-.62,11.96v1.69l2.13-.22Z"/>
      <path class="cls-53" d="M707.71,181.77c-.8.15-1.59.34-2.37.57-1.58.55-2.53,1.5-2.13,2.92.37,1.36.82,2.69,1.35,3.99,1.27,3.19,2.72,6.32,3.86,9.53.33,1.35.47,2.73.41,4.12.04.78.04,1.5,1.34,1.59,3.01,0,6.02.09,9.01-.07,1.6-.19,3.17-.5,4.72-.93.8-.67,1.36-1.58,1.61-2.59,1.4-3.68,2.97-7.3,4.12-10.98.27-.69.43-1.42.49-2.16.1-.91-.46-1.77-1.34-2.05-.97-.35-2.05-.17-2.86.47-1.28.84-2.08,2.03-3.38,3.16-.14-1.79,1.44-3.3.67-4.96l1.32-9.97c.11-.64.17-1.29.18-1.94,0-.84.34-1.96-1.18-2.25-1.28-.25-1.75.66-2.31,1.34s-1.12,1.34-2.11,2.53c-.06-.82-.06-1.65,0-2.47.51-2.82,1.22-5.63,1.58-8.45.19-1.86.19-3.74,0-5.6-.11-.83-.42-1.63-.9-2.32-1.22-1.94-3.45-3.01-5.73-2.75-2.37.1-4.57,1.36-5.14,3.38-.44,1.74-.62,3.53-.55,5.32.04,3.38.29,6.84.46,10.27.15,3.09.32,6.18.48,9.29v1.32l-1.61-.3Z"/>
      <path class="cls-47" d="M581.4,331.51c-.34-1.42-2.04-3.34-2.63-4.6-1.11-2.39-.86-4.22,1.43-5.65l1.26,1.07h0c.25.23.46.52.59.83l.13.19c.56.32.48.91.68,1.39,3.81,7.05,4.97,15.23,3.26,23.06-4.55-1.8-.99-5.79-2.09-8.38-1.07-2.57-1.95-5.22-2.64-7.91Z"/>
      <path class="cls-47" d="M548.28,319.27c2.83,1.56,1.26,4.24,1.61,6.41-2.23,5.17-8.15,13.91-2.86,16.2.09,1.18-.25,2.35-.97,3.29-.82,1.26-2.05,1.26-2.97,0-.53-.63-.89-1.37-1.05-2.17-.99-8.42.23-16.35,5.55-23.25.2-.2.44-.36.7-.47Z"/>
      <path class="cls-20" d="M552.2,346.84c-3.01-1.83-2.02-4.99-2.23-7.59-.01-3.07.19-6.14.62-9.18,0-5.61,2.38-10.49,4.84-15.34,1.26-2.53,3.14-3.79,5.9-2.01,2.09,1.34,4.07,1,6.17,0,3.07-1.38,5.22-.29,6.66,2.63,2.38,4.89,4.11,9.95,3.79,15.5.3,4.13.6,8.25.9,12.37.11,1.54,0,2.98-1.81,3.55-8.27.68-16.58.7-24.86.06Z"/>
      <path class="cls-18" d="M552.2,346.84c6.06-.25,12.11-.61,18.18-.72,2.25.09,4.49.33,6.71.72,0,2.07,0,4.16-.06,6.25-.2,4.01-.72,8.03-.67,12.04.1,4.01-.44,8.02-1.62,11.86-2.63,0-5.23-.47-7.69-1.4-1.52-.13-2.04-1-2-2.45v-6.51c-.09-.83-.24-1.66-.46-2.47h-.94c-.25,2.71-.33,5.43-.25,8.15.21,2.91-.85,4.37-3.67,4.65-1.76.29-3.56-.2-4.92-1.35-.34-2.23-.8-4.44-1.04-6.71-.58-5.6-1.1-11.21-1.57-16.83-.13-1.71-.03-3.46-.03-5.22Z"/>
      <path class="cls-9" d="M644.64,303.89c-.38-.52-1.09-1.01-1.11-1.56-.11-3.45.1-6.9-.15-10.35-.32-4.54-.94-9.05-1.44-13.58-.08-.4-.11-.8-.1-1.2.83-6.22-1.47-11.91-2.87-17.76-.33-1.78-.54-3.59-.63-5.4l-3.1-2.67c.81-1.71,2.1-1.45,3.43-.82,1.42.55,2.71,1.39,3.79,2.45,7.2,7.7,11.33,17.77,11.59,28.31-.76,5.23.83,10.44.08,15.68-.22,1.05-.37,2.11-.46,3.17l-.3,1.95c-.16.5-.44.96-.8,1.34l-.15.25c-3.76.58-5.17,1.38-7.78.19Z"/>
      <path class="cls-35" d="M577.05,296.88c1.16.27,1.88,1.44,1.61,2.6h0c-.02.12-.06.24-.11.36-.62,1.46-1.69,2.69-3.06,3.49-1.26.76-1.92,1.26-3.08,2.04-.16.11-.31.24-.44.38-.61.57-1.3,1.04-2.05,1.4l-.2.13c-.51.3-.87.79-1,1.37-.38,1.63-.37,3.58-3.1,3.34-2.73-.24-6.07,1.16-7.43-2.78-.16-.04-.3-.13-.4-.25-.32.02-.61-.17-.73-.47-4.03-1.81-5.87-6.52-4.11-10.58.56-1.38,0-3.2,0-4.8-.09-6.32,3.55-8.85,9.33-6.32,1.24.5,2.5.93,3.79,1.26,2.38.67,5.27,1.67,5.84,3.88.43,2.62,2.53,4.64,5.16,4.97Z"/>
      <path class="cls-23" d="M558.34,309.73c2.68,2.93,5.06,1.04,8.71,1.16,1.26-.97.78-.2,1.39-1.26.35,2.62,1.48,1.18,3.79,2,5.4,1.4,10.76,5.39,11.14,10.66.19,1.9-.29.63-1.37,2.66-.71,1.67-.77,1.26-2.19,2.95-.64.49-.95.51-1.8,2.97-1.52-4.93-2.77-9.95-4.64-14.75-1.52-3.92-2.53-4.26-6.02-2.23-3.49,2.04-5.83.27-8.67-1.91-4.44,5.39-6.2,11.75-8.03,18.05.12-1.01.07-2.04-.14-3.03-.47-.89-1.08-1.7-1.8-2.41-1.43-1.91-1.11-4.26-1.61-6.41,1.73-3.53,5.41-4.45,8.5-6.02,1.47-.68,2.54-.82,2.72-2.41Z"/>
      <path class="cls-46" d="M504.68,373.83c2.68-.99,5.37-2.04,8.07-.06.48.62.89,1.67,1.45,1.76,2.14.38,4.31.38,6.46.67,1.76.25,3.17,1.26,3.19,3.14s-1.67,2.53-3.41,2.69c-3.92.24-7.85.38-11.77.63-2.06.14-2.97-.86-3.19-2.77-.21-1.91-.52-4.05-.8-6.06Z"/>
      <path class="cls-46" d="M483.78,373.78c2.53-1.25,5.49-1.25,8.02,0-.28,2.53-.56,5.06-.85,7.83-5.06,1.09-10.28,1.26-15.4.49-.86-.11-2.23-1.19-2.23-1.86-.02-1.16.52-2.27,1.44-2.97,2.1-.82,4.28-1.43,6.5-1.83,1.07-.29,2.65.39,2.52-1.66Z"/>
      <path class="cls-8" d="M638.3,370.67c1.47,1.16,2.85,2.43,4.13,3.79.7.9,1.01,2.04.89,3.17-.1.56-1.63,1.15-2.53,1.18-3.88.14-7.78.06-12.21.06.18-2.98.34-5.61.49-8.24,2.76-1.98,6.48-1.96,9.23.04Z"/>
      <path class="cls-8" d="M621.13,370.53c.37,2.53.72,4.97,1.16,7.93h-14.77c-1.82-3.98,1.8-5.47,3.49-7.83.5-.68,1.29-1.09,2.14-1.1,1.01-.06,2.02-.06,3.03,0h2.34c.58.01,1.16.11,1.71.29.36.15.67.39.9.71Z"/>
      <path class="cls-47" d="M613.12,370.28l-2.14.35-.19-9.9c2.77-2.53,6.11-1.26,9.25-1.26,4.13,0,8.28-.08,12.42,0,2,.14,4,.39,5.98.73-.05,3.49-.11,6.97-.18,10.44h-9.25v-9.82h-6.97c-3,.39-1.1-1.34-1.26.62-.09,1.26.63,7.84.33,9.07l-.29.08-.28-.1c-1.43-1.59-1.05-3.57-1.11-5.42-.06-2.12-.9-3.27-3.17-3.21-2.28.06-2.64,1.39-2.73,3.21s.43,3.55-.4,5.22Z"/>
      <path class="cls-47" d="M644.64,303.89l7.71-.19c.04,1.35-.01,2.69-.14,4.03-.9,5.98-1.26,6.7-5.39,7.9-.67.19-1.37-.19-1.57-.86,0,0,0,0,0,0v-.14c-1.38-8.29-5.65-8.85-5.78-6.9-1.04-6.06,3.62,2.28,5.16-3.83Z"/>
      <path class="cls-46" d="M567.08,375.59c2.78-.56,5.4-.56,7.7,1.39l2.38,2.07c-1.86,1.47-8.27,2.07-9.32.64-.73-1.02-.47-2.72-.76-4.11Z"/>
      <path class="cls-46" d="M554.84,375.65l4.92,1.35c-.16,1.26.1,2.86-1.86,3.1l-8.61,1.05c.3-3.88,3.65-3.94,5.55-5.5Z"/>
      <path class="cls-59" d="M610.46,225.77c.68-2.23,2.26-2.77,4.39-2.77h17.93c2.45,0,8.67,6.83,8.55,9.23.02.83-.25,1.63-.77,2.28-3.44,3.64-4.88,8.85-9.34,11.66-1.02.46-1.48,1.67-1.02,2.69.01.03.03.06.04.09.51.83,1.22,1.52,2.06,2,2.53-.08,5.06-.35,7.59-.62,2.75-.14,5.44-.82,7.93-2,3.94-2.19,2.63-6.38,2.01-10.11-.67-4.07-2.12-7.97-2.9-11.96-2.62-4.22-3.94-9.03-6.93-13.1-2.19-2.98-5.82-6.38-9.63-7.59-.66.47-1.47.7-2.28.63-4.59-1.4-8.85-.29-13.12,1.07-2.53,1.88-5.61,3.38-7.59,5.73-7.71,8.98-9.99,19.79-9.52,31.32.13,3.27,1.73,4.83,5.06,5.34,1.59.24,3.17.56,4.75.81,3.54,2,6.57,0,9.68-1.26.72-1.26-.13-2.1-.85-2.86-2.6-2.78-4.73-5.93-7.04-8.95-3.63-4.74-3.69-4.99,0-9.6.46-.61.79-1.29,1-2.02Z"/>
      <path class="cls-61" d="M517.68,206.99c-.2-.76-.59-1.47-1.11-2.06-1.8-1.67-3.63-3.24-5.66-5.06-1.48-.53-2.93-1.15-4.34-1.86l-5.16-.59c-1.92-3.54-3.79-2.09-5.7,0-5.88,1.09-11.83,2.04-15.49,7.59-.54.75-1.12,1.47-1.73,2.16-.09.87-.16,1.74-.25,2.62-.42,3.68,2.4,3.43,4.58,3.46,10.8.15,21.61.11,32.4,0,1.49.2,3-.26,4.12-1.26-.54-1.57-1.05-3.3-1.66-4.99Z"/>
      <path class="cls-61" d="M501.41,197.46l-2.91-1.67c-1.8-.87-.4,3.57-2.77,1.67.41-1.07.66-2.19.73-3.34-.2-1.86.75-3.65,2.4-4.54,3.73,1.85,2.2,5.16,2.54,7.88Z"/>
      <path class="cls-11" d="M486.07,251.08c.8-4.72-2.9-7.59-4.75-11.16-.38-.76-1.81-.95-2.72-1.44-2.06-1.11-3.29-2.71-2.78-5.21.59-2.92,1.42-3.36,6.18-2.92v-11.29c-.06-1.86,1.38-3.42,3.24-3.51,9.25-.49,18.51-1.45,27.82,0,.52.14,1,.42,1.38.8,1.67,1.97,1.11,4.36,1.16,6.61s.44,4.3,2.81,5.31c3.55,2.35,4.31,4.29,2.78,7.22-.3.56-.8,1.53-1.16,1.52-3.58-.09-3.79,3.16-5.42,5.06-1.34,1.67-2.9,3.17-4.25,4.83-1.1,1.4-2.11,2.93-3.16,4.4-.56,3.48-1.85,6.11-5.68,7.24-1.92.58-3.29,1.07-5.15-.06-1.18-.72-2.69,1.77-4.08,1.42-.71-2.53-6.99.95-7.59-1.42-1.93.49,2.48-7.71,1.38-7.38Z"/>
      <path class="cls-9" d="M607.55,250.51c3.69-.56,7.38-1.45,11.1-2.01,5.49,3.97,7.27,3.26,14.99-.56.95.75,3.06,2.23,4.01,2.98-.13.38-.13,1.04-.38,1.1-5.47,1.72-11.11,2.98-16.92,1.98-2.14-.38-3.97-2.17-5.41-3.02l-8.47,7.99c-.83,0-2.23.56-3.57.59.18-1.36.81-2.62,1.8-3.58,1.86-1.69,3.39-2.97,2.84-5.49Z"/>
      <path class="cls-47" d="M613.12,370.28c-.32-3-.64-6.02-1-9.33h8.41v9.56l-1.63-.14c-.63-.67-1.68-.71-2.35-.09h-3.43Z"/>
      <path class="cls-17" d="M514.47,217.03c-2.59-.67-5.23-1.12-7.89-1.34-6.22,0-12.45.19-18.67.44-2.34.09-4.93,0-5.92,2.91,0-2.29-1.59-2.16-3.07-2.01-2.21.21-3.88-.37-4.55-1.8l3.88-5.31c-.09,2.29,1.34,2.53,3.19,2.53,5.31-.13,10.61-.21,15.91-.24,7.35,0,14.68,0,22.01-.08,1.93.21,1.67,1.67,1.67,2.97,0,1.61-1.02,1.95-2.33,1.98-1.36.55-2.88.53-4.22-.06Z"/>
      <path class="cls-13" d="M514.47,217.03c1.22-1.02,2.99-1.02,4.21,0-.1,3.7-.21,7.41-.33,11.14l-2.53.96c-2.11-3.92-1.07-8.1-1.35-12.1Z"/>
      <path class="cls-11" d="M631.17,249.05c-1.72,4.12-5.63,3.57-8.85,3.68-2.23.08-4.92-.62-5.13-3.88-3.46-4.25-6.97-8.47-10.39-12.77-2.47-3.1-1.88-5.49,1.06-8.24,1.34-1.26,1.83-3.4,2.93-5.55h26.74c.23,2.72.33,5.06,3.51,6.14,2.14.73,2.21,4.44.52,6.89s-3.34,4.82-5.17,7.05c-1.45,1.74-3.27,3.19-4.82,4.85-.38.34-.29,1.19-.4,1.82Z"/>
      <path class="cls-19" d="M493.91,244.97c-.88-.54-1.67-1.22-2.35-2-1.76-2.88-.82-4.56,2.53-4.67,2.96-.08,5.93-.14,8.85,0,1.26.06,3.39.4,3.53,1,.29,1.19-.47,2.67-.9,4-.11.32-.59.51-.91.76l-.42-.38c-.08-1.64-1.47-2.91-3.1-2.83-.16,0-.33.03-.49.06-2.11.18-4.25-.21-6.32.24-.9,1.1.39,2.01.2,3.02-.05.35-.29.66-.62.8Z"/>
      <path class="cls-19" d="M500.36,227.52c.34,2.38.8,4.77.97,7.17-.14.88-.5,1.71-1.05,2.41-.35.11-.72.09-1.05-.06-.27-.79-.42-1.61-.46-2.44,0-1.48.09-2.96.25-4.44.15-.97.34-1.92.58-2.87l.75.23Z"/>
      <path class="cls-19" d="M501.09,223.98c3.67-2.31,8.58-1.59,10.86,1.77l-10.86-1.77Z"/>
      <path class="cls-39" d="M504.15,243.43c-2.97,2.76-6.16,2.53-9.47.71l-3.53-3.88c5.06-.83,9.41-.2,14.22,0l-1.23,3.17Z"/>
      <path class="cls-19" d="M495.71,224.18c-3.67-2.3-8.6-1.59-10.86,1.77l10.86-1.77Z"/>
      <circle class="cls-13" cx="491.57" cy="227.89" r="1.3"/>
      <circle class="cls-13" cx="505.37" cy="227.89" r="1.3"/>
      <path class="cls-47" d="M592.29,280.45c1.98,0,2.77,4.7,4.78,4.7,0,.78-1.26,6.08-1.26,6.85-.36,1.52.21,3.12,1.45,4.07.59.81,1.69,1.63,1.67,2.43.03,1.45-.41,2.88-1.26,4.06-.56.57-2.53.44-3.49-.06-2.81-1.5-3.26-4.45-3.57-7.26-.18-1.58,1.58-13.19,1.68-14.79Z"/>
      <path class="cls-16" d="M645.93,347.46l.14,11.77c-.14.39-.46.7-.86.82l-6.71.18h0c-6.11,1.01-12.26,0-18.4.09-3.07.06-6.14.1-9.22.43h-3.17q-3.92,0-4.02-4.36c.19-.2.26-.48.19-.75,0-.24-.11-.35-.19-.35l.16-4.55c.2-2.02-.18-4.07.23-6.11v-.06c.1-3.37.2-6.77.29-10.2h0c-.16-1.58-.16-3.16,0-4.74l.72-27.09c-.34-5.06-.32-5.16-.38-11.38,0-.08.2-3.79.2-3.79,0-3.33,1.2-3.79-.63-6.32-.13-.18-.36-.25-.56-.16-2.25.95-2.1,4.13-4.32,5.06-1.63.51-2.53-.63-3.6-1.52-1.26-1.21-2.43-2.51-3.51-3.88v-.13c-.36-.92-.33-1.94.09-2.83.02-.06.06-.12.11-.16,3.63-3.34,3.92-8.4,6.4-12.35,1.21-2.22,2.76-4.23,4.59-5.98l.13-.08c3.09-1.35,5.75-3.54,7.66-6.32,1.11-1.48,2.36-2.69,4.01-1.52,6.32,4.48,12.35,1.98,18.47-.28.67-.15,1.36-.08,1.98.19,2.78.99,3.48,3.08,4.2,5.83,2.43,9.23,3.21,18.66,4.25,28.08.67,6.11.39,12.21.91,18.27h0c0,6.32-.52,12.55,0,18.84v2.31h0l.42,14.2s-.01.06,0,.09c.76,2.9.16,5.84.43,8.77Z"/>
      <path class="cls-59" d="M626.67,226.8c3.67-2.31,8.6-1.59,10.89,1.74l-10.89-1.74Z"/>
      <path class="cls-39" d="M629.7,241.61c-3,1.32-6.38,1.45-9.47.37l-3.55-1.98c4.74-.27,9.49-.27,14.24,0l-1.21,1.62Z"/>
      <path class="cls-59" d="M621.28,227c-3.67-2.31-8.6-1.59-10.86,1.77l10.86-1.77Z"/>
      <circle class="cls-13" cx="617.14" cy="230.7" r="1.3"/>
      <circle class="cls-13" cx="630.94" cy="230.7" r="1.3"/>
      <path class="cls-42" d="M578.91,295.35h0c-.18.47-3.29,2.95-3.88,2.87-1.42-.16-.21-2.53-1.73-2.72-.46-.02-.85-.32-1-.76l-.81-3.25c-.07-.25-.23-.46-.46-.59-2.07-1.53-4.57-2.39-7.14-2.45-.35.02-.69-.09-.96-.3-2.09-1.92-4.73-.83-7.21-.78-.46,0-.89.25-1.11.66-.56,1.35-1.11,2.63-1.63,3.88l-1.06-.37v-1.28c-.01-.31-.18-.6-.46-.76-.95-.59-2.09-1.05-2.4-2.11-.03-.11-.03-.23,0-.34.19-.91-.14-1.84-.85-2.44-.35-.28-.4-.79-.12-1.14,0,0,0,0,.01-.01h0c6.57-8.14,25.43-9.23,31.61-.14.08.11.12.24.14.37.18,1.38.87,2.64,1.92,3.54.38.91.05,1.59-.99,2.05-.05.09-.08.2-.09.3.18,3.22.19,3.29-1.58,5.55-.08.06-.15.14-.2.23Z"/>
      <path class="cls-10" d="M483.78,373.78c-2.98,0-5.97,0-8.94.1-2.41.11-3.49-.8-3.49-3.27,0-9.5-.23-18.96-.21-28.46,0-13.33.19-26.65.16-39.98,0-1.29-.54-2.51-1.49-3.38-2.7-1.86-4.75-4.51-5.88-7.59-2.3-3.62-.78-7.59-1.11-11.38.39-2.35,1.62-4.44,2.06-6.81,2.44-2.15,2.86-5.23,3.7-8.12.22-.29.48-.55.77-.77.99-.41,1.79-1.18,2.23-2.16,3.6-5.12,8.56-9.14,14.32-11.58.32-.42.83,1.2,1.04,4.78.27,4.35,8.21,2.86,11.38,2.92,2.73.56,5.23-1.04,6.76-3.55.84-1.06,1.52-2.24,2.01-3.5,1.15-.76,2.64-.76,3.79,0,3.57,2.78,7.38,5.3,10.34,8.85.47.57-1.49-.76-1.39-.1.28-1.01,2.73,1,3.58,1.26,5.65,6.74,10.27,14,11.54,22.93.12,1.03.09,2.07-.09,3.08-.3,1.41-1.15,2.63-2.36,3.4-.69.83-1.51,1.55-2.41,2.14-4.01,1.82-4.55,5.06-4.49,9.01.15,8.7-.08,17.4,0,26.08,0,12.49.19,24.98.28,37.46v4.07c-.1,4.54-.18,4.59-4.56,4.65l-8.56.08c-2.68-.4-5.36.4-8.05,0l-12.9-.09c-2.67.29-5.37.26-8.03-.09Z"/>
      <path class="cls-14" d="M577.77,288.25c.32-.48.68-.97.99-1.52,1.59-2.82.09-6.54-2.72-6.73-.36,0-.7-.15-.95-.4-1.74-2.23-3.88-3.25-6.56-2.39-.61-3.34-2.78-4.4-5.26-4.92-2.45-.36-4.92.46-6.66,2.23h-.08c-.49.26-1.04.42-1.59.46-.64.37-1.25.79-1.81,1.26-1.19,1.07-1.77,2.78-2.84,4.02-1.07,1.24-2.53,2.01-2.77,3.64-.09,1.15.15,2.31.67,3.34l.83.58c1.15-.07,2.31.11,3.39.51.52-.39,1.24-.39,1.76,0,1.32.73,2.88.88,4.31.42,1.02-.35,2.12-.38,3.16-.08,1.12.44,2.37.39,3.45-.14.92-.46,1.57-.14,2.11.73.64,1.04,1.51,1.93,2.53,2.6.85.52,1.39,1.43,1.44,2.43.27,2.25.48,4.51.89,6.75.14.76.24,1.57,1.26,1.52.18-.03.35-.12.48-.25.67-1.26.85-2.87,1.97-3.88.33-.65.76-1.24,1.26-1.77,1.5-1.23,2.28-3.13,2.06-5.06-.48-1.16-.91-2.3-1.33-3.35Z"/>
      <path class="cls-14" d="M561.54,290.87c1.95.43,4.05.14,5.54,1.67l-.1.56h-2.67c-.54-.05-1.08-.14-1.61-.25-.92-.15-1.37-.66-1.16-1.97Z"/>
      <path class="cls-14" d="M554.18,295.47c0-.64.3-1.16.86-1.07.35.06.8.68.87,1.11.1.49-.21.96-.7,1.06h-.21c-.68.01-.86-.49-.82-1.1Z"/>
      <path class="cls-14" d="M565.07,295.75c0,.63-.09,1.26-.96,1.26s-.97-.66-1.01-1.26.18-1.11.99-1.11,1.02.4.99,1.11Z"/>
      <path class="cls-14" d="M557.81,290.46c-1.81.39-3.79.08-5.13,1.59l.1.56h2.53c.5-.05.99-.13,1.48-.24.83-.09,1.23-.54,1.02-1.91Z"/>
      <path class="cls-57" d="M566.53,299.05c.48.54.9,1.13,1.26,1.76.28.64-.01,1.39-.65,1.67h0c-.81.46-1.82.36-2.53-.25-.48-.51-.81-1.11-.35-1.78.36-.44.74-.86,1.14-1.26.29-.33.78-.38,1.14-.13Z"/>
      <path class="cls-57" d="M555.72,299.55c1.02-.06,1.89.72,1.95,1.73,0,.05,0,.11,0,.16,0,.81-.94,1.47-2.04,1.44-.92.04-1.7-.66-1.74-1.58h0c-.09-.89.57-1.68,1.46-1.77.13-.01.25,0,.38,0Z"/>
      <path class="cls-41" d="M563.3,301.71c-.08,1.61-1.46,2.85-3.07,2.76-.76-.04-1.47-.37-1.99-.93,1.9.85,4.14.04,5.06-1.83Z"/>
      <path class="cls-13" d="M479.1,217.07c1.22-1.14,2.99-1.14,4.21,0-.1,4.13-.21,8.28-.33,12.44l-2.53,1.07c-2.11-4.38-1.07-9.05-1.35-13.51Z"/>
    </g>
  </g>
</svg>