<?xml version="1.0" encoding="UTF-8"?>
<svg id="Livello_2" data-name="Livello 2" xmlns="http://www.w3.org/2000/svg" viewBox="0 0 661.92 565.03">
  <defs>
    <style>
      .cls-1 {
        fill: #e27786;
      }

      .cls-1, .cls-2, .cls-3, .cls-4, .cls-5, .cls-6, .cls-7, .cls-8, .cls-9, .cls-10, .cls-11, .cls-12, .cls-13, .cls-14, .cls-15, .cls-16, .cls-17, .cls-18, .cls-19, .cls-20, .cls-21, .cls-22, .cls-23, .cls-24, .cls-25, .cls-26, .cls-27, .cls-28, .cls-29, .cls-30, .cls-31, .cls-32, .cls-33, .cls-34, .cls-35, .cls-36, .cls-37, .cls-38, .cls-39, .cls-40, .cls-41, .cls-42, .cls-43, .cls-44, .cls-45, .cls-46, .cls-47, .cls-48, .cls-49, .cls-50, .cls-51, .cls-52, .cls-53, .cls-54, .cls-55, .cls-56, .cls-57, .cls-58, .cls-59, .cls-60, .cls-61, .cls-62, .cls-63, .cls-64, .cls-65, .cls-66, .cls-67, .cls-68, .cls-69, .cls-70, .cls-71, .cls-72 {
        stroke-width: 0px;
      }

      .cls-2 {
        fill: #838282;
      }

      .cls-3 {
        fill: #b8d6e0;
      }

      .cls-4 {
        fill: #7b7884;
      }

      .cls-5 {
        fill: #b4d3de;
      }

      .cls-6 {
        fill: #905174;
      }

      .cls-7 {
        fill: #81838b;
      }

      .cls-8 {
        fill: #abb36d;
      }

      .cls-9 {
        fill: #757581;
      }

      .cls-10 {
        fill: #f1f5f6;
      }

      .cls-11 {
        fill: #474a5a;
      }

      .cls-12 {
        fill: #70707d;
      }

      .cls-13 {
        fill: #fcba4b;
      }

      .cls-14 {
        fill: #696d77;
      }

      .cls-15 {
        fill: #fbfdfc;
      }

      .cls-16 {
        fill: #caa29d;
      }

      .cls-17 {
        fill: #f4b3a4;
      }

      .cls-18 {
        fill: #4794ad;
      }

      .cls-19 {
        fill: #bca6ae;
      }

      .cls-20 {
        fill: #956a8b;
      }

      .cls-21 {
        fill: #a9cdd9;
      }

      .cls-22 {
        fill: #bccbdb;
      }

      .cls-23 {
        fill: #f8eaec;
      }

      .cls-24 {
        fill: #c8e1dc;
      }

      .cls-25 {
        fill: #6c92aa;
      }

      .cls-26 {
        fill: #f9b3a3;
      }

      .cls-27 {
        fill: #948490;
      }

      .cls-28 {
        fill: #80808c;
      }

      .cls-29 {
        fill: #a0c9d4;
      }

      .cls-30 {
        fill: #c7c7c7;
      }

      .cls-31 {
        fill: #b7d3dd;
      }

      .cls-32 {
        fill: #e17886;
      }

      .cls-33 {
        fill: #a87a97;
      }

      .cls-34 {
        fill: #ada8af;
      }

      .cls-35 {
        fill: #b9d6e0;
      }

      .cls-36 {
        fill: #868686;
      }

      .cls-37 {
        fill: #3f3e6a;
      }

      .cls-38 {
        fill: #000;
      }

      .cls-39 {
        fill: #feffff;
      }

      .cls-40 {
        fill: #caa3b8;
      }

      .cls-41 {
        fill: #d8d8dd;
      }

      .cls-42 {
        fill: #fdb949;
      }

      .cls-43 {
        fill: #a3cad8;
      }

      .cls-44 {
        fill: #7e7c87;
      }

      .cls-45 {
        fill: #c9a7af;
      }

      .cls-46 {
        fill: #728689;
      }

      .cls-47 {
        fill: #767480;
      }

      .cls-48 {
        fill: #de7688;
      }

      .cls-49 {
        fill: #b5d5df;
      }

      .cls-50 {
        fill: #c7c8c8;
      }

      .cls-73 {
        fill: none;
        stroke: #000;
        stroke-miterlimit: 10;
        stroke-width: .25px;
      }

      .cls-51 {
        fill: #767582;
      }

      .cls-52 {
        fill: #a39fa9;
      }

      .cls-53 {
        fill: #fefefe;
      }

      .cls-54 {
        fill: #b7d5df;
      }

      .cls-55 {
        fill: #b8d5df;
      }

      .cls-56 {
        fill: #6f8084;
      }

      .cls-57 {
        fill: #382016;
      }

      .cls-58 {
        fill: #7e7e7e;
      }

      .cls-59 {
        fill: #768c8e;
      }

      .cls-60 {
        fill: #f4f9f7;
      }

      .cls-61 {
        fill: #7f7c88;
      }

      .cls-62 {
        fill: #3f3f6a;
      }

      .cls-63 {
        fill: #fdfefd;
      }

      .cls-64 {
        fill: #599cc1;
      }

      .cls-65 {
        fill: #fffffe;
      }

      .cls-66 {
        fill: #817882;
      }

      .cls-67 {
        fill: #fff;
      }

      .cls-68 {
        fill: #92c4ba;
      }

      .cls-69 {
        fill: #a66a62;
      }

      .cls-70 {
        fill: #8db3c3;
      }

      .cls-71 {
        fill: #777783;
      }

      .cls-72 {
        fill: #7e7d89;
      }
    </style>
  </defs>
  <g id="illustrazioni">
    <g>
      <path class="cls-68" d="M23.32,93.92C65.15,4.3,153.67-4.2,211.53,1.31c62.74,5.97,93.69,25.03,167.3,26.89,70.62,1.78,89.62-14.94,146.39-11.95,51.3,2.7,69.72,18.54,95.6,41.82,59.22,53.3,37.56,159.46,35.85,167.3-10.15,46.63-27.31,47.22-32.86,92.61-6.15,50.23,13.2,63.11,14.94,119.5.96,31.01.17,75.19-38.84,104.56-25.05,18.87-46.63,34.27-182.24,11.95-77.32-12.72-116.52-19.06-143.4-17.92-86.62,3.67-100.78,33.91-161.32,23.9-43.44-7.18-91.17-40.3-107.55-89.62-7.08-21.32-10.69-56.04,11.95-137.42,17.45-62.71,24.97-76.41,17.92-101.57-8.09-28.89-26.53-41.25-26.89-74.69-.25-23.51,11.83-56.09,14.94-62.74Z"/>
      <g>
        <path class="cls-68" d="M587.21,22.34c-1.48-.11-3.05.55-4.41-.54,1.49-.02,3.03-.43,4.41.54Z"/>
        <path class="cls-69" d="M599.35,410.69c-.06.23-.08.47-.05.7.25,1.18.5,2.35.48,3.56-.07,4.22-1.64,5.93-5.79,6.23-1.32.1-2.64.06-3.97.06-166.07,0-332.13,0-498.2-.01-2.26,0-4.59.37-6.73-.75-1.16-1.62.28-2.08,1.26-2.6,1.19-.63,2.54-.62,3.88-.58,10.58.28,21.16.49,31.73.13,7.69-.26,15.36.33,23.06-.18,4.74-.32,9.61.52,14.4.21,6.95-.46,13.9.04,20.86-.39,4.76-.29,9.57.56,14.39.47,9.36-.17,18.74.11,28.08-.22,6.12-.22,12.24.06,18.33,0,5.6-.05,11.25-.24,16.89-.06,5.96.19,11.99.11,17.98.07,5.62-.04,11.26-.57,16.89.04.48.05.97.17,1.44.09,6.09-1.06,12.23.39,18.32-.37,1.82-.23,3.61.42,5.38.29,6.36-.47,12.71.03,19.06-.06,5.14-.07,10.3-.47,15.45.03.72.07,1.45.23,2.16.13,6.09-.82,12.23.22,18.32-.46,1.21-.13,2.4-.03,3.59.15,1.31.2,2.63.38,3.95.32,7.91-.38,15.84.19,23.74-.09,6.86-.24,13.7.6,20.52.08,7.19-.54,14.4-.27,21.57-.29,5.48-.02,11.02.02,16.52.06,5.98.05,12,.69,17.98-.09,1.32-.17,2.63-.2,3.95.01.83.13,1.69.38,2.5.26,5.86-.81,11.74.25,17.6-.29,2.54-.23,5.02.43,7.55.38,12.62-.27,25.24.33,37.85-.09,5.88-.19,11.76.03,17.64-.18,4.15-.15,8.39-.33,12.58.14,3.84.44,7.67-.48,11.53-.14.85.08,1.83-.18,2.03-1.15.47-2.34,1.72-4.63,1.23-7.02-.47-2.27-.52-4.5-.48-6.79.08-4.63-.25-4.94-4.82-4.94-10.1-.02-20.2,0-30.3,0-15.51,0-31.03,0-46.54,0-2.15,0-4.4-.25-6.19,2.08,3.91-.01,7.53,1.1,11.28.51,4.53-.72,9.12-1.07,13.65-.39,5.43.81,10.79-.12,16.18-.23,2.29-.05,4.55-.14,6.83.07,4.06.38,8.11,1.19,12.21.39.23-.05.5-.07.72,0,4.8,1.64,9.47.53,14.17-.52,3.47-.78,6.56,1.12,9.8,1.85,1.73.39,3.15,3.68,2.56,5.45-.67,2.02-.97,3.92-.21,5.96.53,1.43-.18,2.27-1.6,2.62-1.77.43-3.55.54-5.37.46-5.88-.25-11.76.08-17.63.11-4.44.03-8.87-.33-13.33-.26-3.6.06-7.21-.07-10.82-.07-135.17,0-270.35-.02-405.52.02-15.51,0-31.02-.1-46.53-.02-.96,0-1.92,0-2.89,0q-4.75.05-6.27,4.62c-2.57.52-3.23.27-4.08-1.86-.96-2.4-1.03-4.9-.43-7.39.53-2.24.57-4.45.04-6.68.07-.2.08-.4.01-.61-1.1-1.51-1.43-3.26-1.38-5.04.07-2.54,1.42-3.4,4.22-2.89,6.96-.01,13.92-.02,20.88-.03,5.31,2.25,10.84,1.19,16.31,1.14,15.99-.15,31.96-1.33,47.96-.75,6.63.24,13.18-1.16,19.8-.74,1.31.08,2.65-.24,3.9.42,34.93-.01,69.86-.03,104.79-.05,1.46-1.18,2.89-1.2,4.29.1-.33,1.6-1.69,1.47-2.82,1.61-1.43.18-2.88.09-4.32.09-31.25,0-62.5,0-93.75,0-2.88,0-5.8-.3-8.05,2.19-.76.84-2,.68-3.09.67-3.29,0-6.59,0-9.34,0,5.28.36,11.1-.39,16.92-.09,2.05.1,4.05-.54,6.09-.58,9.36-.19,18.73-.44,28.07.53.72.08,1.45.2,2.16.09,7.27-1.14,14.6.16,21.9-.69,5.47-.63,11.03-.12,16.55-.13,6.95-.01,13.92.27,20.87.44,4.98.12,10.04.44,15.08-.17,5.02-.61,10.05.56,15.09.7,1.08.03,2.16.32,3.22.03,2.95-.8,5.98-.31,8.91-.57,5.77-.51,11.5.15,17.25-.06,9.95-.37,19.94-.74,29.89.3,1.8.19,3.6.18,5.4.19,1.68.01,3.41-.17,5.03.29,5.67,1.58,11.45,1.07,17.21,1.16,2.38.04,4.51-.55,6.32-2.15,1.73-.8,3.47-.83,5.22-.06,1.86,2.14,4.27,3.01,7.04,2.94,11.88-.3,23.73.55,35.6.72,7.07.1,14.11-1.05,21.2-.75,1.3.05,2.81-.01,3.4-1.47.57-1.41-.14-2.54-1.33-3.38-.31-.3-.44-.66-.39-1.09,2.55-2.2,5.23.12,7.83-.22.35.08.68.2,1,.35,1.84,1.57,3.61.86,5.35-.21,2.03-.72,4.04-1.55,6.23-1.7,1.14-.04,2.27-.08,3.38.27.34.18.66.39.94.65,27.83.02,55.66.04,83.5.06,1.55,0,3.12-.17,4.57.63,1.77.99,1.41,2.6,1.15,4.14-.59,3.42-1.25,6.83-.44,10.3Z"/>
        <path class="cls-17" d="M469.51,163.88c.02,4.87,1.37,9.71-.02,14.61-1.61,5.69-4.3,10.56-9.7,13.4-1.42.75-1.94,1.61-1.93,3.04.01,2.64.02,5.27.03,7.91.85.94.97,2.09.93,3.29-.86,3.21-.18,6,1.77,8.77,2.69,3.84,2.58,8.04.57,12.22-5.09,4.62-10.77,8.2-17.53,9.88-5.62.85-11.23,1.8-16.95,1.43-3.61-.29-6.82-1.77-10-3.34-2.11-1.04-4.2-2.08-6.54-2.53-.17-2.94,1.02-5.77.57-8.76-.41-2.72-1.26-4.54-4.41-5.1-3.76-.67-6.46-3.41-8.94-6.14-.97-1.07-1.93-2.07-3.09-2.91-2.21-3.95-5.88-7.09-6.6-11.88-.36-5.31.38-10.69-1.23-15.91-.36-1.16.03-2.38.23-3.57.39-2.4.63-4.91-.44-7.1-4.37-8.99-.43-16.36,4.65-23.31,3.63-4.97,8.41-8.87,13.71-12.08,4.47-2.7,8.86-1.98,13.67,2.55,2.46,2.33,5.3,4.14,7.92,6.22,1.81,1.44,3.82,2.1,5.78.09,1.11-.5,2.23-.51,3.35-.05,1.25.92,2.61,1.57,4.11,2.06,4.32,1.4,5.52,3.1,5.64,7.56.08,3.07-.42,6.25,1.76,8.91.22.27.37.69.25,1.02-1.8,5.13,2.41,7.25,5.04,10.16,2.87.59,4.05-.82,4-3.5-.06-3.01.97-5.67,2.52-8.13,1.97-3.14,6.04-4.1,9.15-2.22,1.24.74,2.54,1.58,1.7,3.41Z"/>
        <path class="cls-15" d="M506.18,395.52c-2.26-.02-4.18,1.36-6.39,1.57-1.72.69-3.43.98-5.14-.05h-.01c-2.83-.93-5.92-.6-8.68-1.8-.9-1.15-1.64-2.49-3.26-2.82-8.42-.48-16.84-.07-25.25-.2-1.56-.03-3.13.06-4.68-.17-4.48-1.01-9.04-.67-13.57-.71-3.87-.03-4.75-.8-4.16-4.62.15-.94.18-1.93.74-2.75,1.88-2.79,1.86-5.91,1.38-9.03-.37-2.39-.53-4.77-.47-7.17.06-2.32-.24-4.42-1.75-6.41-1.82-2.38-1.26-5.27-.79-7.99.26-1.51,1.49-1.81,2.79-1.46,4.97,1.32,10.03.65,15.05.74,2.46.05,4.68.55,6.86,1.76,8.21,4.56,16.94,7.95,25.98,10.42,4.71,1.29,9.66,1.63,14.46,2.59.97.19,1.91-.12,2.81-.48,2.63-1.07,4.4-.16,5.55,2.31.31,3.5,1.13,7.03-.63,10.4v.72c.28.34.51.72.69,1.13.62,3.4.35,6.83.21,10.25-.06,1.47-.61,2.76-1.73,3.77Z"/>
        <path class="cls-68" d="M388.58,197.84c.56,2.93,2.08,5.44,3.98,7.6,1.08,1.22,1.7,2.45,2.04,3.94-.07,1.08-.93,1.33-1.73,1.56-9.55,2.64-17.37,8.58-25.58,13.67-3.29,2.04-6.52,4.45-9.26,7.37-2.71,2.89-6.29,4.8-9.12,7.59-.23.25-.49.48-.75.7-6.49,5.71-12.59,11.78-18.55,18.06-4.76,5.02-9.87,9.78-15.15,14.31-.44.38-1.03.62-1.14,1.29.55,1.9,3.87.86,3.73,3.5-1.08.76-2.36.71-3.59.89-3.33-.81-14.38-8.06-16.36-10.71-.61-1.87-.48-3.8-.39-5.7.24-5.36-1.98-9.7-5.35-13.61-.55-.63-1.18-1.19-1.78-1.77-5.03-12.07-9.86-24.23-14.48-36.46-2.49-6.58-2.84-6.97-8.65-3.3-5.99,3.78-11.59,8.14-17.38,12.22-3.42,2.41-6.69,5.04-10.81,6.33-3.03.95-5.08,3.54-7.67,5.26-3.1,2.06-6.16,4.2-9.05,6.54-4.65,3.76-5.6,7.41-2.97,12.73,2.76,5.6,5.45,11.24,8.21,16.85,5.89,11.96,12.34,23.63,17.99,35.71,1.99,4.25,3.87,4.96,8.29,3.31,9.42-3.51,17.86-8.72,26.05-14.44,1.39-.97,1.43-3.16,3.44-3.36.85.84.91,1.97,1.16,3.05,1.41,5.37,5.33,8.97,9.18,12.45,6.51,5.9,14.82,6.77,23.11,7.47,1.41.12,2.91-.17,4.15.82.29.55.3,1.08-.13,1.57-.37.59-.86,1.06-1.44,1.44-7.73.98-15.3.37-22.12-3.59-5.37-3.12-9.94-7.39-13.86-12.22-1.54-1.89-2.76-2.21-4.8-.83-5.16,3.49-10.36,6.93-15.98,9.69-3.68,1.81-7.54,3.01-11.51,3.85-3.79.8-7.64-1.68-9.21-5.18-2-4.46-4.32-8.8-6.37-13.23-3-6.49-6.41-12.76-9.33-19.29-2.47-5.54-5.59-10.78-8.26-16.23-1.4-2.84-3.05-5.57-3.93-8.65-.9-1.33.22-3-.72-4.33v-3.61c.69-.57.07-1.58.72-2.17.47-.97,1.19-1.7,2.17-2.17.37-.59.85-1.07,1.44-1.44.27-.69.75-1.17,1.44-1.44,1.34-.79,2.3-2.06,3.61-2.89,2.19-1.99,4.72-3.5,7.22-5.05,1.02-.65,1.89-1.49,2.89-2.17,1.98-1.72,4.15-3.15,6.5-4.33.58-.66,1.6-.03,2.17-.72,1.2-.72,2.41-1.44,3.61-2.17.69-.53,1.49-.89,2.17-1.44.27-.69.75-1.17,1.44-1.44,1.02-.65,1.89-1.49,2.89-2.17.96-.72,1.93-1.44,2.89-2.17.68-.54,1.5-.88,2.17-1.44.72-.48,1.44-.96,2.17-1.44,1.02-.65,1.89-1.49,2.89-2.17.72-.48,1.44-.96,2.17-1.44.68-.54,1.5-.88,2.17-1.44.96-.48,1.93-.96,2.89-1.44,1.44-.55,2.89-.55,4.33,0,.57.69,1.58.07,2.17.72,1.79.66,3.05,1.8,3.55,3.7,1.2,4.5,3.21,8.68,5.11,12.9.66.58.03,1.6.72,2.17v.72c.61,1.16.78,2.48,1.44,3.61-.11,1.26,1.04,1.89,1.44,2.89.66.58.03,1.6.72,2.17-.33,1.52.81,2.47,1.44,3.61.66.58.03,1.6.72,2.17.05,2.39,1.51,4.31,2.17,6.5.54.68.88,1.5,1.44,2.17,5.71,6.37,9.28,13.56,8.66,22.37.71,1.58,2.36,1.98,3.61,2.89,2.45,2.33,4.47.77,6.5-.72,1.64-.96,2.71-2.62,4.33-3.61.75-1.17,1.71-2.14,2.89-2.89,3.43-2.83,6.56-5.95,9.38-9.38,3.31-3.91,6.92-7.52,10.83-10.83,1.64-.96,2.71-2.62,4.33-3.61.96-1.78,2.53-2.83,4.33-3.61.69-.53,1.49-.89,2.17-1.44l.72-.72c.75-1.18,1.71-2.13,2.89-2.89,1.65-.96,2.71-2.62,4.33-3.61.24-.24.48-.48.72-.72,1.02-.65,1.89-1.49,2.89-2.17.96-.72,1.93-1.44,2.89-2.17.69-.54,1.5-.88,2.17-1.44.82-.77,1.96-.9,2.89-1.44,1.8-1.41,3.76-2.54,5.78-3.61,1.02-.65,1.89-1.49,2.89-2.17,2.41-1.2,4.81-2.41,7.22-3.61.58-.66,1.6-.03,2.17-.72-2.42-5.99-4.6-12.06-6.01-18.39-.71-3.16-1.31-6.29-1.23-9.57.15-6.71-1.13-13.37-.73-20.1.14-2.43.93-3.93,3.57-3.91,1.61,1.7,1.17,3.81,1,5.79-.12,1.44-.45,2.91-.05,4.28,1.12,3.87,1,7.83.89,11.77-.11,4.25,1.66,8.18,1.87,12.38.12,2.81.13,5.73,1.38,8.4Z"/>
        <path class="cls-68" d="M79.73,404.09c1.27,3.09.39,6.34.63,9.51.13,1.68.44,3.26.91,4.86.43,1.49,1.44,1.74,2.76,1.51.25-.25.5-.27.75,0,1.44.03,2.88.1,4.33.1,167.69,0,335.37,0,503.06,0,.6,0,1.2,0,1.8,0,4.08-.04,4.59-.56,4.68-4.51.03-1.41-.36-2.91.66-4.16,2.84,1.97,2.52,4.62,1.54,7.38-.95,2.65-2.91,4.01-5.69,4.18-.72.05-1.44.01-2.16.01-168.94,0-337.88,0-506.82.01-2.44,0-4.85.14-6.48-2.18-2.94-5.67-2.95-7.79-.03-10.83.02-1.96.04-3.92.06-5.88Z"/>
        <path class="cls-42" d="M178.49,292.28c.22.11.45.14.69.09,1.76.53,2.77,1.42,1.57,3.35-1.43,1.43-3.3,1.28-5.08,1.3-22.69.29-45.31,2.25-68,2.41-1.21,0-2.4.03-3.59-.17-1.99-.35-3.81-.93-4.2-3.32-2.92-2.5-2.9-5.94-3.01-9.34-.82-2.34-.25-4.26,1.71-5.78.78-1.44,2.18-2.14,3.51-2.91,1.12-1.18,2.62-1.11,4.03-1.07,10.78.27,21.53-.71,32.3-.84,4.28-.05,8.59.01,12.86-.57,8.6-2.3,17.34-1.9,26.09-1.41.98.05,1.9.31,2.56,1.12,1.9,2.69,1.82,2.91-1.48,3.55-3.21,1.77-6.58-.12-9.89.37-1.86.28-3.82.2-5.71.53-4.58.8-6.11,2.75-5.62,7.11.38,3.31,3.05,5.47,7.06,5.03,3.37-.37,6.72.19,10.07-.3,1.41-.21,2.91-.22,4.11.85Z"/>
        <path class="cls-1" d="M105.91,355.98c-2.87-1.8-6.23-2.97-7.01-7.02-.41-2.11.57-4.01.23-6.02,1.36-6.01,4.72-8.12,11.89-7.99,12.53.22,25.06.72,37.6,0,4.4-.25,8.8-.1,13.16-1.01,2.24-.47,2.34,1.11,1.92,2.69-.55,2.05-1.89,3.88-1.68,6.13.63,3.98,3.1,6.14,6.96,6.56,5.44.59,10.87,1.29,16.32,1.81.71.07,1.43-.03,2.05.43.38.29.84.51,1.14.87,1.05,1.28.84,2.42-.69,2.55-1.97.17-3.9,1.4-5.98.36-.65-.32-1.42-.19-1.94.48-1.59,1.5-3.62,1.29-5.45,1.05-7.27-.96-14.56-.48-21.85-.67-7.97-.19-15.95-.04-23.92-.06-.86.07-1.73.07-2.59.03-1.84-.12-3.68-.2-5.47.4-4.9-.28-9.87,1.23-14.71-.59Z"/>
        <path class="cls-48" d="M191.43,395.6c-.68.21-1.36.61-2.04.61-11.97.06-23.9,1.18-35.9.69-4.84-.2-9.78-.22-14.67.41-5.07.65-10.2.38-15.3.41-4.72.03-9.44.05-14.15.6-2.39.28-4.37-.94-5.9-2.79-1.88-1.93-2.49-4.23-2.2-6.88.17-1.54.09-3.1.13-4.66.24-5.07,3.73-6.89,7.95-8.02,11.03-.14,22.04-.87,33.06-.88,11.4,0,22.76-.94,34.16-.91.96,0,1.92-.08,2.84.28,2.63.28,5.21-.17,7.8-.47.82-.1,1.66-.01,2.5-.01,1.14,0,2.24.15,2.42,1.53.18,1.37-1.24,1.18-1.92,1.72-3,2.2-6.58,1.94-9.93,1.91-7.07-.05-14.13.14-21.2.38-2.29.08-4.57.26-6.69,1.19-2.74,1.2-4.04,3.51-3.71,6.33.3,2.58,1.65,3.81,4.73,4.65,4.39,1.19,8.83.29,13.24.43,5.14.17,10.28-.16,15.42-.44,2.75-.15,5.5.18,8.09,1.29,1.23.48,1.54,1.42,1.27,2.63Z"/>
        <path class="cls-37" d="M179.4,374.46c-2.25,1.79-4.88.79-7.31.89-10.76.44-21.52.78-32.28.94-10.36.15-20.72.82-31.09.54-9.13-.01-12.67-5.74-8.51-14.01,1.32-2.64,1.55-6.31,5.5-6.91,0,0,.2.08.2.08l14.93-.3c1.67-.53,3.45.2,5.1-.45.69.01,1.37.02,2.06.03,8.21.34,16.42.48,24.63-.08,9.11-.49,18.18.41,27.27.65.57.69,1.83,1.14,1.23,2.3-.63,1.22-1.99,1.46-3.14,1.12-2.25-.67-4.47-.52-6.73-.38-1.59,1.21-3.37.8-5.12.62-1.57-.49-3.16-.68-4.79-.29-.36.04-.71.03-1.06,0-2.38-.28-4.76-.54-7.11.17-5.44,3.24-6.04,7.36-1.59,10.99,1.13.6,2.34.43,3.54.41.58-.04,1.16-.05,1.75-.03,2.97-.03,5.94.08,8.91-.1,3.09.3,6.34-.81,9.27.99.58.05,1.18.19,1.75.12,2.11-.24,2.75.84,2.59,2.72Z"/>
        <path class="cls-62" d="M103.14,298.4c7.5-.49,15-.2,22.5-.31,7.11-.1,14.22-1.08,21.33-1.22,10.04-.19,20.05-1.06,30.1-.9,1.29.02,2.67.27,3.71-.85,2.04-1.42,4.3-1,6.51-.71,1.23.17,2.33.79,2.36,2.22.03,1.34-1.1,1.52-2.14,1.9-1.95.72-3.99.36-5.94.8-.76.18-1.54.24-2.32.14-1.04-.22-2.09-.44-3.15,0-.37.11-.74.18-1.13.23-4.04.19-8.07.05-12.11.1-1.42.01-2.85-.06-4.23.39-.78.19-1.57.29-2.38.32-2.44.14-4.93-.39-7.33.43-3.55,2.07-4.48,3.8-3.99,7.13.53,3.64,3.19,4.37,6.22,4.63,6.2.38,12.38.58,18.55-.15,2.69-.23,5.31-1.21,8.06-.75,3.38.84,6.88.23,10.28.85.41.03.81.06,1.22.09,1.54,2.27,1.4,3.07-.76,3.9-.77.29-1.64.27-2.44.48-3.91.22-7.82.07-11.74.1-1.79.01-3.54.26-5.3.55-5.84.54-11.71.13-17.57.42-14.8.75-29.63.55-44.45.5-1.48-.16-2.97-.08-4.45-.24-.4-.05-.79-.15-1.17-.3-5.96-3.81-7.36-12.39-3.01-17.89,1.29-1.61,2.88-1.98,4.75-1.87Z"/>
        <path class="cls-13" d="M187.27,249.74c-.39,3.19-1.82,5.85-4.12,8.06-1.04,1-2.08,2.04-3.74,1.48-.92.64-1.96.9-3.06.89-8.39-.08-16.74,1.04-25.13.71-13.37-.28-26.75.16-40.12.03-1.87-.02-3.86.39-5.46-1.07-1.02-2.08-2.37-4.04-2.23-6.52-1.4-4.36.68-8.06,5.74-10.22,5.4-.3,10.81-.08,16.22-.14,1.68-.02,3.36.01,4.99-.54,2.86-.48,5.74-.32,8.61-.29,11.85.09,23.67-.86,35.51-1.07,1.88-.28,3.78-.37,5.69-.24,5.06.33,7.76,3.73,7.12,8.91Z"/>
        <path class="cls-64" d="M175.05,241.78c-2,1.25-4.21.5-6.32.64-5.26.34-10.54.23-15.81.62-5.26.39-10.56.13-15.84.17-2.28.01-4.56.04-6.84.06-7.05.71-14.12.13-21.18.32-2.43.6-4.81,1.15-7.41.75-3.62-.55-5.95-2.54-7.17-5.79-1.14-3.06-.27-5.95,1.71-8.43,2.5-3.11,5.9-4.29,9.81-4.53,6.6-.41,13.19-.07,19.78.02,6.6.09,13.19-.81,19.79-.48,4.8.24,9.57-.11,14.36-.24,3-.08,6-.04,8.98-.56,1.54-.27,3.12-.29,4.66.06,1.37.31,2.69.97,2.35,2.61-.31,1.51-1.28,2.6-3.13,1.82-.28.03-.56.06-.84.09-2.6,1.45-5.48,1.62-8.33,1.58-4.91-.07-9.79.22-14.67.69-2.31.23-5.12.6-5.38,3.19-.28,2.82,2.62,3.36,4.83,3.81,4.87.98,9.76-.08,14.64-.1,3.05-.01,6.2-.97,9.08.84.23.03.45.03.68,0,1.17-.84,2.18-.62,2.95.53.64.99.14,1.74-.7,2.33Z"/>
        <path class="cls-41" d="M105.64,259.84c8.03,0,16.06-.29,24.07-.23,7.13.05,14.29-.47,21.42.22.87.94,1.12,2.12.98,3.3-.53,4.34.66,8.72-.3,13.04-1.77.79-3.5,1.37-5.5.52-1.5-.64-3.04.34-4.57.39-5.24.2-10.5.35-15.73.52-7.96.26-15.94.47-23.91.31-1.7-.12-3.5.3-5.04-.82-2.82-.3-3.6-2.67-4.2-4.74-1.18-4.02-.32-7.78,2.58-10.96,1.74-1.91,3.98-2,6.27-1.64,1.27.2,2.5.84,3.79.13l.14-.04Z"/>
        <path class="cls-68" d="M457.87,206.51c0-1.23.01-2.46.02-3.69.48-.04.99.02,1.43-.13,4.76-1.65,8.65-.13,12.01,3.28.51.52.88,1.22,1.7,1.15,3.71-.33,7.01,1.31,10.43,2.24,4.32,1.17,8.76,2.39,12.64,4.52,5.93,3.24,11.99,6.53,16.86,11.32,5.42,5.33,11.36,10.16,15.88,16.39,2.42,3.34,4.36,7.06,7.02,10.15,4.86,5.67,7.16,12.55,10.06,19.18,2.09,4.78,4.11,9.6,6.37,14.3,2.4,5.01,3.9,10.19,3.77,15.79-.07,2.88.11,5.78-.04,8.65-.34,6.49,1.21,12.89.76,19.38-.11,1.54.18,3.12-.98,4.45-.58.67-.57,1.6-.46,2.42.5,3.75-1.52,6.95-2.24,10.43-.16.75-.7,1.24-1.38,1.56-1.13-1.97.07-3.75.59-5.51.72-2.44,1.5-4.82,1.19-7.41-.08-.72,0-1.46.3-2.12,1.82-3.91,1.41-8,.86-12.05-.41-3-.27-6-.37-9-.05-1.67.07-3.41-1.41-4.65-1.82-2.1-1.03-4.85-1.82-7.21-2.82-11.34-8.06-21.69-13.04-32.15-.21-.27-.39-.57-.53-.89-1-5.24-4.72-8.94-7.54-13.14-.2-.25-.37-.53-.5-.83-.38-1.01-.75-2.02-1.78-2.58-.38-.26-.7-.57-.94-.96-.38-.77-.81-1.51-1.5-2.06-.42-.39-.7-.87-.87-1.41-.17-.5-.37-.98-.71-1.38-.18-.19-.34-.39-.5-.59-.33-.41-.71-.77-1.11-1.12-.21-.19-.39-.4-.56-.62-.43-.58-.98-1.05-1.58-1.45-1.68-1.41-2.97-3.19-4.56-4.68-.37-.64-.7-1.31-1.31-1.78-.25-.18-.48-.38-.7-.59-.91-.87-1.81-1.74-2.68-2.65-.22-.22-.42-.44-.63-.67-.52-.6-1.26-.8-1.97-1.06-1.07-.44-1.8-1.24-2.36-2.22-.34-.71-.95-1.08-1.67-1.32-.41-.17-.77-.42-1.09-.74-.56-.65-1.24-1.14-2.04-1.44-.26-.12-.5-.28-.72-.46-.52-.5-1.13-.86-1.81-1.1-1.32-.52-2.43-1.35-3.49-2.26-1.7-1.14-3.32-2.48-5.53-2.51-.89-.15-1.68-.53-2.46-.96-5.58-1.93-11.03-4.36-17.11-4.24-.9-.32-1.63-.9-2.37-1.45-2.42-3.15-6.31-2.88-9.54-4.14Z"/>
        <path class="cls-53" d="M190.15,392.97c-1.93.66-3.8-.27-5.71-.21-3.7.11-7.4.39-11.1.37-5.62-.04-11.24.09-16.85.17-1.75.03-3.57-.47-5.25-1.05-4.06-1.41-5.09-7.24-2.15-10.54,2.63-2.96,6.21-2.92,9.57-3.29,3.55-.39,7.17-.05,10.75-.23,6.33-.32,12.69.21,19-.59.6-.08,1.18-.25,1.76-.38.67.53,1.38,1.19,1.22,2.06-.89,4.52-.02,9.2-1.25,13.69Z"/>
        <path class="cls-67" d="M178.68,298.72c.65,0,1.3,0,1.96,0,2.13-.27,4.27-.67,6.37.22.2,4.51,1.22,9.01.22,13.54-3.14.74-6.29.48-9.45.16-2.6.23-5.2.46-7.81.68-6.53.5-13.06.43-19.6.02-3.77-.08-5.43-1.21-6.38-4.32-.94-3.07.05-5.9,2.77-7.82.48-.34,1.02-.61,1.54-.9,1.32-.77,2.77-.22,4.15-.39,1.26-.16,2.6.4,3.79-.39.68-.02,1.36-.04,2.04-.05,4.75-.6,9.52-.1,14.28-.28,1.29-.05,2.63.3,3.87-.32h.01c.71-.6,1.47-.44,2.23-.15Z"/>
        <path class="cls-57" d="M469.51,163.88c-.54-2.91-2.95-3.26-5.17-3.43-2.11-.16-3.97.74-4.98,2.82-1.04,2.13-2.24,4.21-2.13,6.72.04.83-.08,1.67-.19,2.5-.39,3-.62,3.18-3.6,3.01-.59-.03-1.17-.11-1.76-.17-.71-.24-.66-.73-.41-1.28,1.48-.8,2.23-1.92,2.17-3.73-.1-2.86,1.02-5.47,2.54-7.77,1.78-2.7,3.65-5.34,7.82-4.16,2.01.57,2.98-.59,3.23-2.87,1.27-11.82-.28-15.14-7.05-24.6-2.21-3.09-5.47-5.03-9.12-6.17-5.3-1.65-8.94-5-10.73-10.28-1.52-4.49-5.8-5.22-9.4-6.36-3.01-.95-6.31-.62-9.44.94-4.84,2.41-9.97,4.23-15.08,5.91-10.55,3.45-18.43,10.5-25.97,18.13-1.88,1.9-2.51,4.65-4.36,6.59-.64.67-.18,1.23.13,1.92,1.74,3.92,3.94,7.41,7.93,9.43.32.16.51.5.69.82-.66,3.9-2.91,1.95-4.8,1.3-2.47-3.22-5.56-5.92-6.67-10.19-1.22-4.7,1.03-8.06,3.69-11.02,7.66-8.53,16.29-15.88,27.26-19.94.33-.12.71-.12,1.06-.18,1.57-.99,3.7-.65,5.06-2.14h.01c1.89-.85,4.02-1.02,5.84-2.07,5.56-3.25,11.29-4.85,17.67-2.39,4.27,1.64,7.91,3.94,9.61,8.36.85,2.21,2.37,3.83,3.76,5.61.86,1.1,1.92,1.75,3.26,2.03,9.65,2.04,14.65,8.68,17.85,17.47,2.74,7.53,2.8,15.24,2.58,23.03-.02.91.1,2.01-1.28,2.16Z"/>
        <path class="cls-67" d="M151.81,276.17c-.85-1.17-.66-2.52-.67-3.83-.01-4.17-.01-8.34-.01-12.51,3.65-.25,7.34-.28,10.97-.36,5.76-.12,11.53-.79,17.3-.19.49,5.27.76,10.56.54,15.86-9.42-.73-18.81-.73-28.13,1.03Z"/>
        <path class="cls-68" d="M172.8,228.83c1.4-.24,2.8-.8,2.52-2.41-.27-1.52-1.89-1.38-3.01-1.18-6.4,1.11-12.92.13-19.31,1.29-2.81.51-5.65-1.44-8.49-.03-6.28-.96-12.53.45-18.81.17-6.78-.3-13.58-.33-20.38-.03-5.18.23-8.99,3.19-10.12,7.98-.96,4.11,2.1,8.23,6.28,8.68,2.38.26,4.73.13,7.1,0,.23.17.29.31.19.44-.09.11-.18.17-.27.17-3.26,2.29-5.32,5.24-5.1,9.42-1.52-.84-2.29-2.1-2.05-3.85.24-1.78-.65-2.55-2.23-3.07-1.23-.41-2.44-1-3.42-1.94-2.66-2.55-5.15-5.19-4.29-9.32,1.03-4.94,3.21-9.03,8.4-10.73,2.74-.9,5.51-1.46,8.44-1.4,5.4.11,10.82.18,16.21-.03,3.1-.12,6.07.86,9.21.53,1.38-.14,2.79.08,4.09-.62.64-.35,1.37-.74,2.05-.52,2.25.73,4.52-.24,6.66.06,2.7.38,5.46.58,8.03.28,4.06-.47,8.16.16,12.13-.7,2.53-.55,5.03-.5,7.51-.35,3.53.21,5.68,4.38,4.11,7.56-1.18,2.4-3.65,2.22-5.48-.39Z"/>
        <path class="cls-68" d="M300.47,395.66c-1.42-.04-2.83-.07-4.25-.1-1.13-2.76-1.1-5.79-2.37-8.58-3.28-7.17-6.34-14.45-9.15-21.82-2.59-6.8-6.34-13.08-8.65-20-1.02-3.06-2.31-6.06-3.22-9.1-1.32-4.37-.99-7.76,4.93-9.16,2.26-.54,4.46-.94,6.72-.34.75.2,1.38.05,2.1-.09,3.85-.75,7.62.15,11.38.77,1.26.21,2.54.9,2.6,2.57-.56.73-1.37.95-2.22.98-4.3.11-8.53,1.2-12.85.8-1.67-.01-3.35-.15-5.03-.03-2.37.17-2.95.88-2.55,3.23.22,1.28.46,2.61,1.22,3.73.18.31.32.64.44.98,2.04,4.44,2.98,9.27,5.36,13.66,2.13,3.95,3.41,8.43,5.38,12.53,2.96,6.15,4.8,12.77,8.09,18.77.19.28.33.59.46.9.41,1.56.7,3.16,1.33,4.66.12.3.21.61.28.93.14,1.44.41,2.87.31,4.33-.11.14-.21.26-.31.39Z"/>
        <path class="cls-67" d="M187.35,351.56c-2.6,1.36-5.13.15-7.7-.18-3.92-.5-7.9-.44-11.8-1.18-4.04-.76-6.16-3.11-6.51-7.32.77-4.77,2.32-6.42,6.8-7.25,2.11-.39,4.23-.26,6.35-.27,1.79.04,3.58.19,5.36-.1.33-.11.67-.19,1.01-.26.69-.14,1.38-.19,2.07-.22.52-.03,1.04-.02,1.57.02.72.06,1.38.27,1.86.85.28,5.31-.03,10.64.97,15.9Z"/>
        <path class="cls-68" d="M553.14,306.76c1.24.09,2.01.69,2.14,1.97.03.24.05.48.03.72-.48,6.1.86,12.13.73,18.22-.01.72.2,1.53-.05,2.14-2.2,5.25-1.2,11.23-3.79,16.38-.26.52-.33,1.14-.49,1.71-1.09,1.36-1.85,2.93-2.89,4.33-3.35,5.97-8.37,10.36-13.71,14.43-1.61,1.59-3.82,1.98-5.78,2.89-.6.01-1.13.14-1.44.72-.59.64-1.59.04-2.17.72h-2.17c-.58.66-1.6.03-2.17.72h-11.55c-.94,1.84.34,3.95-.72,5.78.15,1.57-.52,2.32-2.13,2.17-.02-3.61-.04-7.22-.06-10.83-.62-1-.15-1.57.79-1.89.83-.28,1.67-.09,2.5.04,5.74.91,11.24-.57,16.66-1.99,2.97-.78,5.7-2.55,7.84-4.87,1.24-1.35,2.96-2.08,4.06-3.53,2.29-1.95,3.35-4.86,5.44-6.97,3.13-4.26,4.97-9.09,6.37-14.14.64-1.83.85-3.7.84-5.63-.03-6.09-.05-12.17,0-18.26.02-1.78-.1-3.65,1.69-4.82Z"/>
        <path class="cls-67" d="M175.06,371.61c-3.14-.01-6.27-.02-9.4-.03-3.16-.3-6.33-.59-9.48.17-.45-.06-.9-.12-1.35-.18-1.24-.51-2.61.06-3.86-.44-4.58-2.67-4.3-10,1.58-12.41,2.67-.63,5.36-.37,8.04-.15.19.1.39.12.59.06,1.48-.36,2.96-.44,4.43.05,1.88.06,3.76.13,5.63.19,1,.94,2.24.59,3.4.57,1.18-.01,1.78.46,1.78,1.66,0,2.86-.04,5.71,0,8.57.01,1.02-.83,1.36-1.37,1.94Z"/>
        <path class="cls-17" d="M388.58,197.84c-2.3-2.96-2.11-6.66-2.78-10.05-2.15-10.75-1.85-21.71-2.32-32.59.06-.19.09-.38.09-.58.46-1.09,1.38-2.03,1.08-3.36,3.52-7.35,9.03-12.86,15.92-17.08,2.03-1.24,3.87-2.79,6.33-3.29,3.06-.62,5.83-.36,8.68,1.12,5.41,2.81,9.42,7.35,14.23,10.89.75.72,1.69,1.26,2.1,2.29-.26,1.94-1.5,2.32-3.13,1.87-.8-.22-1.64-.57-2.26-1.1-2.81-2.41-6.17-4.09-8.76-6.8-1.92-2.01-4.41-3.24-7.02-4.06-2.25-.7-4.24.48-6.07,1.65-4.76,3.04-8.98,6.75-12.62,11.06-3.68,4.35-5.84,9.49-6.96,15.02-.41,2.02.46,4.04,1.29,5.88,1.59,3.53,1.82,7.05,1.02,10.85-.56,2.68.28,5.45,1.21,8.02.57,1.56,1.05,2.92-.19,4.34-.63.72-.51,1.54-.14,2.37.49,1.15.28,2.37.3,3.56Z"/>
        <path class="cls-65" d="M178.49,292.28c-3.44.09-6.87.7-10.32.2-.97-.14-1.89.1-2.83.32-2.64.61-4.92-.45-7.16-1.65-.66-.35-1.07-.86-1.33-1.6-.75-2.09-1-4.25-.51-6.36.45-1.91,1.61-3.49,3.69-4.03,2.42-.62,4.9-1.18,7.4-1.13,3.68.08,7.35.43,11.03.66,0,4.53.01,9.06.02,13.6Z"/>
        <path class="cls-39" d="M169.22,316.91c2.69-1.22,5.59-.5,8.37-.76,2.92-.27,5.88.03,8.83.08.52.3,1.22.5.84,1.36.23,4.33.46,8.66.69,12.99.24.39.18.74-.17,1.04-.5.34-1.05.58-1.64.64-5.87.65-11.73,1.45-17.66.95-.36-.03-.66-.24-.95-.44-.51-.72-.68-1.58-.42-2.37,1.24-3.66,1.22-7.44,1.26-11.23.01-.86.24-1.64.85-2.26Z"/>
        <path class="cls-39" d="M172.12,238.93c-6.52.23-13.04.43-19.55.69-1.92.08-3.74-.12-5.6-.73-2.96-.98-5.13-2.83-5.09-4.77.03-1.45,3.33-4.08,5.84-4.14,8.09-.21,16.17-.6,24.25-1.07.06,3.34.11,6.68.16,10.02Z"/>
        <path class="cls-68" d="M320.04,313.25v-1.45c.93-1.17,2.15-2.17,3.59-2.14,4.75.08,8.32-2.77,12.26-4.67,1.82-.88,3.52-2.07,5.04-3.42,5.55-4.93,11.64-9.18,17.44-13.79.95-.75,1.89-1.47,3.15-1.59,2.52.69,3.41-1.77,5.08-2.72,1.41-.81.71-2.36.57-3.65.08-1.24.54-2.13,1.99-2.07.67.49,1.03,1.18,1.28,1.96.26,1.04.21,2.07,0,3.11-.67,4.12-.13,8.26-.32,12.39-.07,1.5.29,3.12-1.03,4.33-3.98-1.38-4.95-3.73-3.78-10.23-1.62,2.7-3.69,3.4-5.99,4.11-2.59.8-4.76,2.68-6.87,4.44-1.19.99-2.57,1.87-3.54,2.97-2.92,3.3-6.75,5.32-10.3,7.67-2.98,1.97-5.91,4.53-9.94,4.25-.22-.01-.49.09-.66.23-2.6,2.21-5.28,1.39-7.97.27Z"/>
        <path class="cls-32" d="M167.77,332.62c5.03-.36,10.08-.39,15.11-.89,1.65-.17,3.26-.5,4.9-.65,1.16-.33,2.4-.58,3.01.76.63,1.4-.02,2.42-1.42,2.98-.96.07-1.93.14-2.89.21-.71.42-1.6.05-2.3.51-.38,0-.76,0-1.14.01-.79-.34-1.57-.48-2.34.05h.02c-1.88.98-4-.18-5.89.68-2.58.2-5.12-.08-7.76.56-2.72.67-4.14,2.08-4.98,4.47-.2.56-.28,1.16-.75,1.58-.73-.45-1.07-1.27-.54-1.81,1.35-1.37.88-3.49,2.2-4.85.41-.42.53-1.12-.04-1.6-.45-.37-.91-.09-1.28.22-.79.67-1.71.76-2.69.79-7.11.16-14.22,1.02-21.33.64-4.29-.23-8.54.17-12.8.06-2.83-.07-5.67-.4-8.5-.38-3.86.03-7.73.27-11.59.43-1.06.05-2.04.66-2.26,1.54-.53,2.13-2.41,3.24-3.39,5-.21-.27-.42-.54-.62-.81-.76-3.91.3-5.75,4.19-7.25.08-.19.13-.38.14-.59.91-1.07,2.2-1.25,3.47-1.48,10.55.34,21.11.24,31.66.31,8.77.06,17.49-1.07,26.26-.79,1.2.04,2.41-.21,3.57.29Z"/>
        <path class="cls-68" d="M105.71,355.9c-3.61,3.35-5.44,7.7-6.26,12.37-.63,3.63,2.13,6.85,5.81,7.68,1.16.27,2.3.57,3.46.86-3.75,1.05-5.87,3.77-7.33,7.17-1.35.7-2.2.7-2.23-1.23-.03-1.84,1.57-2.47,2.44-3.53-.43-1.05-1.36-1.15-2.06-1.55-.74-.42-1.5-.81-1.79-1.66-1.74-5.09-3.41-10.19.3-15.18.35-.47.61-1.03.86-1.56,1.37-2.95,3.81-3.71,6.8-3.37Z"/>
        <path class="cls-68" d="M364.78,326.25c-.56-2.47-.39-4.86.35-7.31,1.07-3.54-.94-7.03-.4-10.64.23-1.52.16-3.06.68-4.57.62-1.83,1.67-2.85,3.66-2.74,1.49,1.45.83,3.37,1.11,5.08-.07,4.31.25,8.62-.23,12.92-1.18,2.63-.16,5.33-.21,8-1.8.75-3.45.42-4.97-.74Z"/>
        <path class="cls-68" d="M105.5,259.89c-1.83,1.27-3.91.57-5.85.65-1.84.08-2.98.77-4.16,2.2-3.07,3.71-3.13,10.43,1.57,14.35-.53,1.14-1.21,1.63-2.54,1.01-3.16-1.46-5.26-6.37-3.93-9.67.41-1.02.63-2.02.67-3.11.19-4.9,3.25-8.02,8.03-8.23,1.28-.05,2.44.5,3.1,1.49.81,1.21,1.89,1.3,3.1,1.31Z"/>
        <path class="cls-68" d="M66.71,399.53c0-1.19.02-2.39,0-3.59-.04-2.18,1.49-3.09,3.19-3.12,1.7-.03,3.27.82,3.29,3.01.03,2.38,1.06,4.64.75,7.08-.29,2.29-1.26,3.53-3.28,3.41-2.18-.13-4.04-.81-3.97-3.56.04-1.08.01-2.15.01-3.23Z"/>
        <path class="cls-11" d="M318.73,329.22c1.64-.06,3.28-.11,4.91-.18,2.29-1.46,4.78-1.13,7.21-.65,1.29.26,2.51.63,3.78.07.67-.02,1.33-.04,2-.06,1.26-1.08,2.71-.98,4.2-.73,3.44,1.01,6.83.27,10.19-.42,1.17-.24,2.31-.5,3.5-.57.82-.06,1.65-.06,2.47-.03,1.44.1,2.94-.08,4.23.81.76,2.72-1.04,3.05-2.97,3.04-1.66,0-3.31-.41-4.99-.36-1.33.04-2.67.04-3.52,1.32-1.56,2.37-3.69,2.27-6.01,1.43-6.09-2.32-12.28-2.95-18.62-1.17-1.32.37-2.6.18-3.91.04-3.1-.33-6.21-.48-9.28.29-1.44.36-2.84.46-4.11-.52-.43-.55-.51-1.09.03-1.61,1.18-.07,2.35-.15,3.53-.22,2.34-1.67,4.89-.53,7.35-.52Z"/>
        <path class="cls-68" d="M103.14,298.4c-4.63,1.41-7.35,6.82-6.13,12.04.67,2.87,1.95,5.31,4.36,7.09-.54,2.15-1.94,2.17-3.64,1.5-2.57-1.72-3.02-4.5-3.61-7.22-.94-1.59.27-3.48-.72-5.05.82-2.35,1.64-4.69,2.46-7.03.68-1.96,2.2-3.03,4.02-3.78,1.32.51,1.56,2.46,3.26,2.46Z"/>
        <path class="cls-68" d="M175.05,241.78c1.17-2.47-.29-2.86-2.25-2.86.62-3.02,1.84-3.74,4.27-2.12,1.8,1.2,3.59,1.99,5.71,2.53,3.68.93,5.66,3.74,6.47,7.36.37,1.64-.06,2.85-1.98,3.05-.56-.81-.61-1.76-.79-2.69-.61-3.09-2.92-5.14-6.11-5.32-1.76-.1-3.54.03-5.31.06Z"/>
        <path class="cls-68" d="M187,298.94c-2.12-.07-4.24-.14-6.37-.22,1.27-.93,2.71-.59,4.11-.57.83.01,1.66.06,2.49,0,1.03-.09,1.9-.55,1.78-1.75-.1-1.02-.93-1.24-1.83-1.24-2.13,0-4.26-.02-6.39-.04.3-1.4-.62-2.09-1.59-2.75,3.4-1.12,6.81-.14,10.21,0,1.56.06,2.66.78,3.11,2.45.5,1.83-.15,3.26-1.22,4.59-.43.53-1.02.57-1.57.09-.81-.71-1.75-.72-2.72-.56Z"/>
        <path class="cls-68" d="M97.74,319.03c1.29-.31,2.64-.47,3.64-1.5.23.06.46.13.69.19.24.27.37.58.38.94-1.7,4.85-1.56,9.63.52,14.34-.06.16-.13.32-.19.48-5-.05-5.64-.7-5.76-5.7-.08-2.94,0-5.87.72-8.75Z"/>
        <path class="cls-68" d="M340.9,328.54c-1.42-.04-2.84-.09-4.27-.13-.06-2.96,1.99-4.1,4.36-4.22,2.23-.11,4.96-.36,5.76,2.83-1.41,2.59-3.9,1.02-5.85,1.52Z"/>
        <path class="cls-68" d="M82.58,395.55c-3.29.72-3.53,1.1-3.05,4.06.21,1.27.15,2.58.2,3.87-3.78-2.07-4.65-4.69-2.71-8.25.69-1.27,1.71-1.94,3.22-1.87,1.45.06,2.24.72,2.34,2.18Z"/>
        <path class="cls-68" d="M356.82,327.64c-.71,0-1.41.01-2.12.01-1.57-1.12-3.54.74-5.08-.67,2.66-4.84,7.14-5.13,10.83-.72-.88,1.33-2.5.72-3.63,1.37Z"/>
        <path class="cls-68" d="M187.26,317.58c-.28-.45-.56-.91-.83-1.36.47-.08.95-.11,1.4-.23,2.24-.62,2.23-.63,1.45-3.25,2.1-2.2,2.85-2.04,3.85.48.61,1.54.28,2.87-.58,3.99-.86,1.11-2.17,1.28-3.54.61-.51-.25-1.16-.17-1.75-.24Z"/>
        <path class="cls-68" d="M294.73,321.86c.04,1.55-1.42,2.97-2.96,2.91-1.41-.06-2.69-1.38-2.73-2.79-.04-1.55,1.42-2.97,2.96-2.91,1.41.06,2.69,1.38,2.73,2.79Z"/>
        <path class="cls-56" d="M307.84,329.96c-.05.44-.09.88-.14,1.31-1.22,1.27-2.82,1.1-4.34,1.11-4.86.03-9.72.09-14.57-.03-.98-.04-1.97-.12-2.94-.29-.37-.07-.71-.22-1.03-.42-.32-.27-.39-.59-.23-.97,5.34.22,10.61-1.08,15.95-.88,2.43.05,4.86.1,7.3.16Z"/>
        <path class="cls-68" d="M334.64,328.47c-3.6,1.36-7.31.71-10.99.57,1.54-3.98,5.1-4.87,7.85-1.7,1.02,1.18,2.04.93,3.14,1.13Z"/>
        <path class="cls-68" d="M102.69,334.88c-2.69,1.67-3.73,4.29-4.19,7.25-1.4-.09-2.06-.82-2.21-2.22-.48-4.32,2.18-6.43,6.4-5.03Z"/>
        <path class="cls-68" d="M189.38,334.82c1.66-2.18,1.21-3.46-1.59-3.74.03-.18.08-.34.16-.51.3-.19.64-.34.91-.56,1.13-.95,2.5-1.43,3.48-.2.91,1.14,1.75,2.64.71,4.25-.38.6-.79,1.19-1.28,1.7-1.33,1.38-1.42,1.33-2.39-.94Z"/>
        <path class="cls-68" d="M599.35,410.69c-1.21-3.75-.8-7.59-.33-11.36.14-1.16.09-2.09-.38-3.07,2.45-.14,3.48,1.35,2.73,3.34-1.37,3.61-2.23,7.24-2.02,11.1Z"/>
        <path class="cls-68" d="M535.12,366.66c1.21-2.35,3.59-3.45,5.47-5.08,3.19-2.75,5.29-6.42,8.24-9.36.4,2.46-1.77,3.52-2.94,5-2.99,3.78-6.18,7.44-10.77,9.43Z"/>
        <path class="cls-68" d="M318.73,329.22c-2.37,1.24-4.87.76-7.36.53.77-3.38,3.22-4.39,5.73-2.31.61.51,1.09,1.19,1.63,1.79Z"/>
        <path class="cls-60" d="M369.17,306.02c-.03-1.68-.06-3.35-.1-5.03v-1.44c.03-4.54.04-9.09.1-13.64.02-1.28-.34-2.65.6-3.8,1.02.87,1.13,2.08,1.15,3.28.11,5.73.13,11.46-.02,17.2-.04,1.32.22,3-1.74,3.44Z"/>
        <path class="cls-46" d="M349.63,326.98c1.68.32,3.53-.62,5.08.67-3.24.48-6.47,1.06-9.73,1.4-1.33.14-2.83.57-4.06-.51,1.82-1.03,4.05-.43,5.85-1.52.96-.01,1.92-.02,2.87-.04Z"/>
        <path class="cls-59" d="M356.82,327.64c1.03-.93,2.36-1.07,3.63-1.37,1.44,0,2.89-.01,4.33-.02,1.74-.14,3.4.32,5.09.62.06.18.11.37.17.56-.14.39-.39.66-.76.84-.37.16-.75.26-1.14.31-2.35-.02-4.8.7-6.96-.85-1.45-.03-2.91-.05-4.35-.08Z"/>
        <path class="cls-68" d="M507.01,381.11v-.73c3.02-.23,4.4,1.11,4.32,4.19-.1,3.68.15,7.37-.75,10.99h-.72c-1.12-1.26-.6-2.7-.43-4.09.47-3.75.43-7.38-2.42-10.35Z"/>
        <path class="cls-68" d="M328.7,251.91c-2.24,4.01-5.37,7.14-9.38,9.38,2.84-3.42,5.96-6.55,9.38-9.38Z"/>
        <path class="cls-68" d="M79.67,409.97c-3.08,3.62-.86,7.22.03,10.83-2.27-2.73-3.51-5.67-2.12-9.26.39-1.01,1.04-1.52,2.09-1.57Z"/>
        <path class="cls-68" d="M98.58,280.82c-1.09,1.77-1.35,3.78-1.71,5.78-.57.3-1.1,1.8-1.77.27-.61-1.41,1.79-5.34,3.48-6.04Z"/>
        <path class="cls-68" d="M509.13,377.49c.36-1.91-2.22-4.19.72-5.78,1.09,2.09,1.09,4.05-.72,5.78Z"/>
        <path class="cls-33" d="M177.77,312.64c3.15-.05,6.3-.11,9.45-.16.28.06.56.12.84.18-3.43,1.08-6.86.84-10.29-.02Z"/>
        <path class="cls-68" d="M529.34,369.55c1.65-1.51,3.83-1.96,5.78-2.89-1.21,2.4-3.52,2.59-5.78,2.89Z"/>
        <path class="cls-57" d="M384.9,151.55c.11,1.27.05,2.45-1.34,3.06-1.31-.36-2.94.12-3.76-1.48.55.1,1.12.13,1.65.3,1.74.56,2.62-.08,2.76-1.86.23-.2.46-.2.69-.02Z"/>
        <path class="cls-14" d="M416.06,107.59c-1.57,1.76-3.69,1.94-5.84,2.07,1.71-1.36,3.7-1.93,5.84-2.07Z"/>
        <path class="cls-68" d="M548.83,352.23c.29-1.89,1.16-3.4,2.89-4.33-.29,1.89-1.16,3.4-2.89,4.33Z"/>
        <path class="cls-68" d="M316.43,264.18c-1.16,1.55-2.18,3.26-4.33,3.61,1.16-1.55,2.18-3.26,4.33-3.61Z"/>
        <path class="cls-68" d="M343.85,237.47c-1.16,1.55-2.18,3.26-4.33,3.61,1.15-1.55,2.17-3.26,4.33-3.61Z"/>
        <path class="cls-68" d="M358.29,225.2c-1.16,1.55-2.18,3.26-4.33,3.61,1.15-1.55,2.17-3.26,4.33-3.61Z"/>
        <path class="cls-14" d="M410.2,109.66c-1.14,2-3.17,1.9-5.06,2.14,1.22-1.82,3.38-1.4,5.06-2.14Z"/>
        <path class="cls-68" d="M221.88,230.97c-.89,1.35-1.79,2.7-3.61,2.89.89-1.35,1.79-2.7,3.61-2.89Z"/>
        <path class="cls-68" d="M305.6,268.51c-1.65-.41-3.4-.69-3.61-2.89,1.19.98,2.84,1.39,3.61,2.89Z"/>
        <path class="cls-68" d="M353.96,228.81c-.69,1.23-1.65,2.2-2.89,2.89.21-1.72,1.17-2.68,2.89-2.89Z"/>
        <path class="cls-68" d="M93.41,306.76c1.36,1.52.45,3.37.72,5.05-1.36-1.52-.45-3.37-.72-5.05Z"/>
        <path class="cls-68" d="M319.32,261.29c-.69,1.23-1.65,2.2-2.89,2.89.21-1.72,1.17-2.68,2.89-2.89Z"/>
        <path class="cls-68" d="M272.4,199.94h-4.33c1.44-1.08,2.88-1.08,4.33,0Z"/>
        <path class="cls-68" d="M260.85,204.27c-.63,1.16-1.42,2.11-2.89,2.17.64-1.16,1.43-2.11,2.89-2.17Z"/>
        <path class="cls-68" d="M250.75,211.49c-.63,1.16-1.42,2.11-2.89,2.17.63-1.16,1.42-2.11,2.89-2.17Z"/>
        <path class="cls-68" d="M378.5,211.49c-.63,1.16-1.42,2.11-2.89,2.17.64-1.16,1.42-2.11,2.89-2.17Z"/>
        <path class="cls-68" d="M212.5,244.69c1.31,1.27.5,2.88.72,4.33-1.31-1.26-.5-2.88-.72-4.33Z"/>
        <path class="cls-68" d="M285.39,223.76c-1.15-.94-1.49-2.2-1.44-3.61,1.15.94,1.49,2.2,1.44,3.61Z"/>
        <path class="cls-68" d="M361.9,222.32c-.63,1.16-1.42,2.11-2.89,2.17.63-1.16,1.42-2.11,2.89-2.17Z"/>
        <path class="cls-68" d="M231.98,223.76c-.63,1.16-1.42,2.11-2.89,2.17.64-1.16,1.43-2.11,2.89-2.17Z"/>
        <path class="cls-68" d="M369.84,217.26c-.73.94-1.74,1.33-2.89,1.44.55-1.32,1.65-1.51,2.89-1.44Z"/>
        <path class="cls-68" d="M265.18,201.38c-.4.96-1.12,1.44-2.17,1.44.4-.96,1.12-1.44,2.17-1.44Z"/>
        <path class="cls-68" d="M255.8,207.88c-.4.96-1.12,1.44-2.17,1.44.41-.96,1.13-1.44,2.17-1.44Z"/>
        <path class="cls-68" d="M246.42,215.1c-.4.96-1.12,1.44-2.17,1.44.41-.96,1.13-1.44,2.17-1.44Z"/>
        <path class="cls-68" d="M366.95,218.71c-.4.96-1.12,1.44-2.17,1.44.41-.96,1.13-1.44,2.17-1.44Z"/>
        <path class="cls-68" d="M105.72,333.54c-.8.88-1.89.65-2.89.75-.02-.27-.03-.54-.05-.81h.01c1-.86,1.98-.85,2.93.06Z"/>
        <path class="cls-68" d="M350.35,232.42c-.4.96-1.12,1.44-2.17,1.44.41-.96,1.13-1.44,2.17-1.44Z"/>
        <path class="cls-68" d="M293.33,243.25c-.96-.4-1.44-1.12-1.44-2.17.96.41,1.44,1.13,1.44,2.17Z"/>
        <path class="cls-68" d="M79.69,479.98c-1.04,0-1.76-.48-2.17-1.44,1.04,0,1.76.48,2.17,1.44Z"/>
        <path class="cls-68" d="M387.88,207.16c-.52.85-1.37.7-2.17.72.52-.85,1.37-.7,2.17-.72Z"/>
        <path class="cls-68" d="M318.59,314.7c.27-.69.75-1.17,1.44-1.44-.03.94-.51,1.42-1.44,1.44Z"/>
        <path class="cls-68" d="M83.3,481.42c-.79-.03-1.65.13-2.17-.72.8.03,1.65-.13,2.17.72Z"/>
        <path class="cls-68" d="M213.22,238.92c-.03.79.13,1.65-.72,2.17.03-.8-.13-1.65.72-2.17Z"/>
        <path class="cls-68" d="M216.83,235.31c-.27.69-.75,1.17-1.44,1.44.02-.94.5-1.42,1.44-1.44Z"/>
        <path class="cls-68" d="M94.13,486.48c-.79-.03-1.65.13-2.17-.72.8.03,1.65-.13,2.17.72Z"/>
        <path class="cls-68" d="M289.72,234.58c-.85-.52-.7-1.37-.72-2.17.85.52.7,1.37.72,2.17Z"/>
        <path class="cls-68" d="M287.56,228.81c-.85-.52-.7-1.37-.72-2.17.85.52.7,1.37.72,2.17Z"/>
        <path class="cls-68" d="M240.64,218.71c-.52.85-1.37.7-2.17.72.52-.85,1.37-.7,2.17-.72Z"/>
        <path class="cls-68" d="M283.95,219.43c-.85-.52-.7-1.37-.72-2.17.85.52.7,1.37.72,2.17Z"/>
        <path class="cls-68" d="M521.4,371.72c.52-.85,1.37-.7,2.17-.72-.52.85-1.37.7-2.17.72Z"/>
        <path class="cls-23" d="M184.19,335.54c.66-.66,1.47-.61,2.3-.51,0,.22-.03.43-.1.63-.74-.04-1.47-.08-2.2-.13Z"/>
        <path class="cls-68" d="M525.73,370.99c.52-.85,1.37-.7,2.17-.72-.52.85-1.37.7-2.17.72Z"/>
        <path class="cls-68" d="M274.56,200.66c-.79-.03-1.65.13-2.17-.72.8.03,1.65-.13,2.17.72Z"/>
        <path class="cls-69" d="M84.77,419.97c-.25,0-.5,0-.75,0,.05-.86-.34-1.65-.44-2.46-.18-1.64,1.01-2.96,2.68-3.19.47-.06.96-.02,1.44-.02.72,0,1.44,0,2.17,0h461.75c4.31,0,8.71-.56,12.9.16,4.3.73,8.62.19,12.74.09,5.41-.14,10.95.83,16.38-.48.22-1.07-.75-1.66-1.08-2.51-.5-1.31-.87-2.84.08-3.77,1.83-1.79.6-3.04-.2-4.58-.52-1.02-.72-2.06-2.24-1.36-.85.4-1.71-.05-2.4-.47-3.57-2.2-7.06-1.06-10.55.15-2.25.79-4.46.71-6.68-.09-1.7-.61-3.32-.91-5.23-.33-1.65.5-3.72.57-5.34.03-2.7-.91-5.62-.99-8.15-.85-3.91.21-7.92-.27-11.77.73-1.08.28-2.23.57-3.19.24-3.16-1.12-6.44-.52-9.64-.88-2.55-.28-5.23.12-7.79.56-2.53.43-4.99.6-7.48,0-2.02-.49-4.02-.57-6.02.14-.65.23-1.36.47-2.21-.28,1.25-1.2,3.03-1.94,3.48-3.84.16-.68.93-.65,1.53-.67.72-.03,1.44-.02,2.16-.02,27.18,0,54.37,0,81.55.01,1.17,0,2.41-.3,3.73.51-1.51,2.77,1.16,5.94-.91,8.81-.34.47.48,1.02.73,1.54.88,1.88,1.69,3.73-.17,5.6-.55.55-.63,1.41-.51,2.35.43,3.13-.06,3.62-3.08,3.55-6.26-.14-12.56.32-18.77-.15-5.46-.41-10.99-.3-16.33-.14-10.93.33-21.85.34-32.76.14-5.92-.11-11.92-.14-17.78-.09-5.14.05-10.4-1.34-15.63.11-2.08.58-4.53.5-6.76-.34-2.18-.83-4.21.87-6.37.48-6.13-1.1-12.38-.33-18.48-.29-5.26.03-10.64-1-15.98.16-2.36.52-5.01.52-7.49-.32-.66-.22-1.45-.33-2.12-.2-6.55,1.36-13.19.71-19.75.47-2.98-.11-5.9.24-8.84.18-4.51-.1-9.05.11-13.53-.13-3.94-.22-7.82.17-11.73.13-1.32-.01-2.62.04-3.92-.43-.76-.27-1.73-.44-2.47-.22-3.34.97-6.58.5-9.94.03-2.94-.42-5.88,1.06-8.92.65-1.3-.17-2.65.11-3.9-.48-.11-.05-.24-.12-.34-.11-4.47.76-8.97.26-13.45.38-3,.08-5.99.51-8.94-.18-1.34-.31-2.56-.39-3.88.04-.78.25-1.65.32-2.48.32-4.75-.03-9.49-.75-14.25-.02-.79.12-1.68-.09-2.48-.31-2.02-.55-4-.49-6.04,0-2.48.6-4.99.27-7.5.11-5.18-.32-10.38.51-15.57-.08-.22-.03-.46.2-.69.19-6.88-.36-13.79.58-20.66-.46-1.2-.18-2.41-.33-3.56.14-1.16.47-2.37.53-3.55.41-4.27-.47-8.54-.23-12.81,0-1.19.07-2.39.04-3.55-.4-1.27-.48-2.62-.49-3.89-.01-1.29.49-2.6.51-3.91.41-4.04-.3-8.08.1-12.1-.05-7.05-.26-14.08.32-21.12.08-2.51-.09-5.02.2-7.5-.61-1.1-.36-2.42-.32-3.56.13-1.4.55-2.84.58-4.27.46-3.91-.36-7.8-.29-11.72-.03-3.95.26-7.97.37-11.9-.03-4.43-.45-8.79.1-13.18.09-12.45-.02-24.91.16-37.35-.11-3.66-.08-7.33.43-11.01-.23-1.58-.27-3.63-.14-4.78,1.68Z"/>
        <path class="cls-11" d="M287.52,331.38c6.73-.04,13.46-.07,20.19-.1,1.63.06,3.16.07,4.86-.35,3.1-.77,6.4-.65,9.59.03.96.2,1.8.32,2.78,0,6.44-2.15,12.74-1.51,18.92,1.07-.07,2.53-2.1,2.37-3.65,2.38-4.81.03-9.62.75-14.39.69-11.92-.16-23.72,2.18-35.64,1.57-2.49-.13-3.14.77-2.31,3.26,1.92,5.71,4.2,11.22,6.79,16.67,3.3,6.93,6.2,14.08,8.48,21.45.32,1.03.73,2.04,1.03,3.08,1.14,4.01,3.38,6.29,7.93,6.42,3.22.09,6.47.32,9.7.52,13.69.86,27.4.8,41.09.63,8.53-.1,17.04-.88,25.58-.7,5.77.12,11.49,1.18,17.28.76.72-.05,1.44-.03,2.16-.01,2.1.05,2.58-.81,1.56-2.64-1.87-3.37-3.1-7.05-4.78-10.49-5.51-11.35-9.97-23.19-16.09-34.27-1.21-2.19-2.26-4.53-2.35-7.14,0-.58.08-1.16.24-1.72.56-1.37,1.13-2.75,2.86-3.02.35.04.66.18.94.4.51.68.72,1.49,1.01,2.27.3,1.22.61,2.43,1.5,3.39,1.52,1.54,2.18,3.68,3.66,5.25,2.83,4.2,4.73,8.86,6.28,13.63,1.12,3.44,3.14,6.41,4.4,9.8,2.67,7.16,5.68,14.21,9.16,21.05,1.76,3.47,4.12,5.77,8.31,5.41,4.6.57,9.24.12,13.84.57,1.79-.26,3.58.02,5.36,0,12.67.52,25.34.34,38.01.37.71,0,1.44-.1,2.09.32,1.79.18,2.22,1.41,2.26,2.94.27.46.31.93.02,1.39-.01.25-.02.5-.03.74,1.03,2.54-.81,2.95-2.52,3.15-10.29,1.22-20.63,1.26-30.94.52-4.19-.3-8.42.06-12.57-.72-.59-.11-1.14-.58-1.7-.54-5.76.48-11.44-.64-17.16-.82-3.25-.1-6.47-.46-9.69-.8-2.52-.26-5.04-.28-7.54-.48-11.27-.91-22.58-.3-33.85-.8-8.75-.38-17.47.47-26.22.03-2.29-.12-4.5-.76-6.79-.69-7.32.22-14.64-.07-21.96,0-.96.01-1.93.04-2.84.39-2.06.46-4.16.33-6.25.34-1.37-.11-2.77.01-4.11-.36-.36-.13-.67-.34-.91-.63-1.29-1.46-.41-3.5-1.36-5.06l.03.05c-.64-1.66-.18-3.63-1.44-5.11l.03.04c-6.45-15.43-11.74-31.36-19.52-46.22l.03.04c-.27-.53-.7-1.02-.82-1.59-1.03-4.72,1.56-7.2,6.65-6.42h0c.93.62,1.88.51,2.84.1Z"/>
        <path class="cls-69" d="M305.67,395.57c2.12.02,4.24.05,6.36.07,8.62-.28,17.28-.44,25.87.05,8.87.52,17.76-.22,26.53.44,11.02.84,22.06-.4,33.05,1.06,4.84.65,9.84-.09,14.7.88,1.22.24,2.77-.09,3.13,1.72-.38,2.5-2.31,2.98-4.28,2.91-6.56-.24-13.11.59-19.69-1.15-4.32-1.14-9.04-.53-13.58-.81-8.62-.55-17.36-.75-25.94.05-5.72.53-11.4-.04-17.06.13-7.67.22-15.44.81-23.26-.05-6.22-.69-12.78-.54-19.17.38-2.25.33-4.43-.77-6.75-.72-7.49.15-14.98.04-22.47.06-3.57,0-7.12-.41-10.69-.03-1.42.15-2.85-.02-4.27.48-.87.3-1.96.44-2.84.22-3.93-.97-7.9.18-11.71-.15-8.26-.71-16.53-.17-24.77-.8-3.05-.23-6.19.21-9.24.65-2.29.33-4.52.6-6.75-.08-1.31-.4-2.62-.28-3.94-.29-4.09-.02-8.18,0-12.26-.02-.57,0-1.31.05-1.1-.9.16-.74.65-.9,1.35-.61,3.95,1.6,8.08.46,12.12.78,1.41.11,2.26-.67,2.74-1.89.59-1.49,1.74-1.74,3.19-1.72,4.33.06,8.66.02,12.98.02,29.45,0,58.91,0,88.36-.03,1.38,0,2.9.51,4.15-.58l.28-.09c.08-.34.24-.39.49-.14l.15.13c1.44.59,2.87.54,4.29.03Z"/>
        <path class="cls-69" d="M439.84,399.13c11.39.08,22.76,1.13,34.17.72,3.47-.12,6.88-1.01,10.38-.72,1.55.13,1.64-1.05,1.75-2.16,2.44.31,3.17,1.21,3.24,3.92.05,1.82-1.51,1.92-2.64,2.44-.31.14-.71.13-1.06.12-10.68-.38-21.34,1.65-31.97.61-8.76-.85-17.49-.3-26.23-.58-1.45-.05-2.83-.29-4.25-.55-1.89-.34-2.7-1.32-2.87-3.08.86-1.13,2.08-1.84,3.43-1.61,4.89.85,9.8.45,14.7.46.47,0,.94.14,1.35.42Z"/>
        <path class="cls-11" d="M439.84,399.13c-5.14-.06-10.28-.01-15.41-.23-1.54-.06-2.56,1.37-4.07.95-1.68-.02-3.36-.04-5.04-.05-3.45-.96-7.01-1.07-10.55-1.36-11.35-.91-22.74-.31-34.07-.96-8.98-.52-17.97.06-26.9-.66-9.81-.79-19.62-.3-29.42-.56-.83-.02-1.7.09-2.34-.62.37-.52.88-.8,1.52-.8,4.08,0,8.19-.32,12.23.11,2.31.25,4.48-.26,6.73-.18,8.47.3,16.92,1.08,25.4.76,1.79-.07,3.59.19,5.33-.55.52-.22,1.21-.25,1.78-.15,8.1,1.43,16.26.31,24.39.71,6.57.32,13.14.58,19.7.9,3.25.16,6.71-.06,9.91,1.14,6.03-1.02,11.96,2.21,18.01.44,1.19-.35,2.08.24,2.82,1.1Z"/>
        <path class="cls-68" d="M507.01,381.11c3.71,2.03,4.66,4.99,3.36,10.97-.25,1.16-.56,2.28-.51,3.47-1.23-.01-2.45-.02-3.68-.03,1.5-4.74.56-9.61.83-14.41Z"/>
        <path class="cls-16" d="M486.18,396.23c0-.47-.01-.93-.02-1.4,2.65,1.43,5.9.52,8.49,2.19-2.89.42-5.62-.79-8.47-.8Z"/>
        <path class="cls-16" d="M494.66,397.04c1.71.02,3.42.03,5.14.05-2.41,1.83-3.43,1.83-5.14-.05Z"/>
        <path class="cls-15" d="M369.17,306.02c.86-.73.66-1.74.66-2.68,0-7.08-.03-14.16-.05-21.24.02-.91.04-1.83.07-2.74.08-.15.15-.3.22-.45,2.53-2.83,5.54-5.17,8.23-8.33-2.78,2.47-5.12,4.94-7.78,7.05-.42.3-.86.54-1.4.32-1.02.32-1.45,1.06-1.52,2.07-.12,2.36-2.59,5.12-5.76,6.42-6.24,4.73-12.71,9.17-18.57,14.36-4.13,3.65-8.91,6.15-13.71,8.66-.63.33-1.37.68-2.04.64-2.68-.15-5.05.84-7.48,1.71-4.39-.23-8.94.17-13.14-.86-4.51-1.1-8.91-2.73-13.04-5.44-4.39-2.88-6.25-7.67-10.14-10.76-1-.8-1.57-2.42-.53-3.89.62-2.01-1.26-4.58,1.38-6.14.93-.22,1.75.23,2.73.42-.83-.45-1.67-.72-2.09-1.55.6-2.31,1.73-4.11,4.27-4.62.86.25,1.87.88,2.52-.16.52-.84-.67-1.04-.95-1.61.19-1.71,1.2-2.69,2.79-3.16.67-.06,1.26,1.21,1.75.49.63-.93-1.01-.52-1.09-1.23-.12-2.56,1.77-3.9,3.32-5.44,2.47,1.99,5.03,3.92,8.02,4.98,3.02,1.06,4.37,4.59,7.77,4.96,1.1-.69,2.5.26,3.57-.63-1.52-.88-3.29-1.18-4.78-2.16-1.22-.81-1.03-1.34,0-2.04,3.85-2.61,6.75-6.26,10.2-9.29,3.86-3.39,7.55-6.92,10.94-10.74,4.27-4.81,9.22-8.87,13.94-13.2.15-.14.46-.11.69-.17l.08.1-.09-.08c.71-1.57,2.14-2.5,3.39-3.5,2.69-2.13,5.14-4.6,7.83-6.62,4.14-3.11,7.96-6.68,12.78-8.97,3.15-1.5,6.09-3.65,9.13-5.5,3.79-2.3,7.82-3.9,12.08-5.01.44-.12.85-.41,1.27-.62,1.14-.03,2.37.21,2.75,1.29,1.06,2.97,3.92,3.95,6.02,5.76,1.19,1.03,2.58,1.66,4.24,1.63,2.15-.04,3.3,1.16,3.59,3.21.53,3.71,1.22,7.45-.78,10.98,1.14,2.66,1.36,5.58,1.87,8.35.67,3.59,1.87,6.93,3.07,10.31,1.76,4.97,4.18,9.68,6.07,14.6.6,1.57,1.7,2.89,2.67,4.26,1.88,2.63,3.99,5.11,5.45,8.03.27.53.65,1.01,1.04,1.47,3.24,3.86,3.69,3.48,7.56.15,5.42-4.66,8.19-10.82,11.28-16.89.77-1.52.97-3.21,1.49-4.8,1.61-5,4.11-9.7,4.84-15.01.31-2.25,2.22-3.93,2.76-6.21.58-2.45,1.49-4.8,1.38-7.39-.04-.95.17-1.92,1.01-2.59.04-1.48.04-2.82.72-4.34,1.03-2.29-.87-4.44-1.56-6.64-.03-.11-.14-.19-.22-.28-2.35-2.54-3.2-5.42-1.99-8.77,3.91-.32,7.57.11,10.17,3.54.2,1.47-1.12,1.98-1.82,2.89-1.38,1.34-.08,2.49.36,3.59,2.4,5.98,4.08,12.17,5.53,18.41.81,3.47,1.44,6.97,2.65,10.32.61,1.7.07,2.97-.86,4.35-4.98,7.41-10.87,14.02-17.35,20.13-4.45,4.19-9.11,8.11-14.37,11.28,8.37-4.84,15.07-11.64,21.68-18.51,3.91-4.07,7.05-8.8,10.51-13.24.95-1.21,1.16-2.56.67-3.72-2.31-5.43-2.62-11.35-4.31-16.9-.51-1.68-1.37-3.3-1.72-5.04-.19-.96-.47-2.39,1.46-1.98,4.43,6.66,6.75,14.03,7.12,21.97.56,11.77-2.13,22.86-7.29,33.43-1.1,2.26-2.36,3.55-5.07,3.76-3.81.29-6.46,2.95-6.98,6.22-.69,4.32,1.04,8.12,4.48,9.75,2.67,1.26,5.33,1.4,7.86-.39,2.67-1.89,3.95-4.43,3.53-7.76-.18-1.46-.61-2.86-1.51-4-1.97-2.47-1.86-4.87-.61-7.7,3.13-7.06,5.38-14.47,6.18-22.13.74-7.01,1.18-14.12-1.11-21.05-2.15-6.5-3.96-13.11-7.73-18.95-.65-1-2.11-2.37.08-3.46.95.07,1.91.24,2.86.19,2.55-.11,5.05.02,7.32,1.32,2.5,1.44,5.62,1.15,7.98,2.95-3.05,1.89-6.04,2.11-8.96-.27-.65-.53-1.29-1.09-2.16-1.26-.61-.12-1.22-.1-1.62.45-.34.47-.11.95.2,1.31,3.76,4.46,5.27,9.9,6.72,15.37.37,1.39.7,2.81,1.2,4.15,1.17,3.13,1.23,6.05-.96,8.84-1.09,1.4-.82,2.98.2,4.35,1.8,2.44,1.82,5.06,1.19,7.9-1.49,6.82-3.01,13.62-5.75,20.06-.96,2.25-1.13,4.32.14,6.52,1.22,2.09,1.83,4.42,2.01,6.87.16,2.31,1.37,3.82,3.73,4.19,2.8.44,4.67,1.74,4.91,4.82.08,1.06.88,1.69,1.92,1.89,1.35.26,2.36,1.05,3.45,1.83,2.09,1.5,3.47,3.26,3.27,5.99-.04.55.09,1.17.79,1.91-.06-1.71-.3-3.18-.91-4.37-2.65-5.19-3.25-11.02-5.2-16.42-.37-1.02-.59-2.08-1.1-3.04-3.2-6.02-4.34-12.68-5.97-19.19-.27-1.05-.32-2.14-.22-3.22.35-3.49,2.5-5.47,6.02-5.19,1.59.13,2.68-.28,3.92-1.21,2.29-1.72,4.2-.9,4.66,1.87.37,2.22.09,4.32-1.7,5.97-1.03.95-2.62,1.76-2.09,3.47.74,2.36,1.2,4.99,3.67,6.36.95.53,1.97.94,2.61,1.86.76,1.09,1.23,2.31-.42,2.92-1.35.51-1.49,1.33-1.29,2.52.19,1.18.01,2.48.65,3.52,3.39,5.53,4.26,11.95,6.39,17.93,1.94,5.42,3.4,11.02,5.89,16.22,1.56,3.25,3.54,6.16,7.49,7.18,3.15.82,4.52,3.48,3.81,6.36-.69,2.74-2.8,4.01-6.13,3.67-1.09-.11-2.13-.42-3.08-.94-2.33-1.26-4.53-2.74-6.6-4.37-1.83-1.44-2.81-3.31-1.54-5.68.6-.52,1.29-.6,2.03-.42,2.61,1.87,5.12,3.87,8.27,5.57-3.96-2.77-8.49-4.5-9.62-9.6-.94-4.04-2.72-7.79-3.96-11.73-1.49-4.72-3.12-9.4-4.7-14.09-1.32-4.6-2.15-9.36-4.32-13.69-1.89-5.66-3.89-11.29-4.47-17.27.57,6.06,2.51,11.78,4.49,17.49,1.42,3.43,2.84,6.85,3.38,10.56.2,1.4.77,2.7,1.31,4.01,2.39,7.08,4.43,14.27,7.34,21.17.25.51.28,1.05.16,1.6-.41.96-.83,1.9-.69,3.02.11.88-.29,1.59-1.18,1.94-3.67.2-7.27.72-11.02.52-8.35-.43-16.78-.8-25.05.74-2.98.56-5.99,1.34-8.95,2.15-2.03-.53-3.06-2.3-4.27-3.71-5.78-6.72-13.72-8.41-21.87-9.43-8.82-1.11-17.68-.37-26.52,0-3.97.17-7.72,1.61-11.56,2.51-1.24.29-2.06,1.19-2.49,2.39-2.22,2.78.16,5.1.78,7.59-.58.95-1.56,1.51-2.29,2.32-.81.34-1.18-.09-1.38-.8l-.13.09c-.5-.56-1.08-1.02-1.67-1.46-4.1-.88-8.24-.18-12.35-.41-1.75-.1-3.56.29-5.23-.57-2.15-2.19-1.75-4.93-1.63-7.6-.23-4.6-.25-9.19-.01-13.78Z"/>
        <path class="cls-18" d="M460.91,226.54c-.52,3.39.25,6.98-1.56,10.17-2.89,5.08-3.24,11.06-5.78,16.23-.91,1.85-1.31,3.83-1.88,5.7-1.65,5.37-4.3,10.21-7.03,15.02-2,3.52-5.67,5.56-8.16,8.7-1.36,1.71-3.02,1.7-4.48-.18-4.71-6.08-9.33-12.16-12.65-19.21-2.48-5.27-4.76-10.62-6.36-16.16-1.36-4.7-3.8-9.35-2.59-14.55,1.51-.5,2.66-.21,4.16.65,3.59,2.06,7.42,3.74,11.54,4.58,6.12.84,12.14.3,18.05-1.46,4.6-1.03,8.28-3.98,12.39-6.02,1.67-.83,2.16-3.22,4.35-3.47Z"/>
        <path class="cls-17" d="M451.37,173.97c.1.45.2.9.3,1.35-.79-.1-1.2-.65-1.68-1.22-1.5-1.82-2.45-4.02-4.3-5.62-1.4-1.22-1.08-2.16.93-4.68-2.45-1.57-2.65-4.03-2.46-6.63.05-.72,0-1.44,0-2.16,0-5.46-.95-6.68-6.35-7.72-1.39-.27-2.23-.76-2.32-2.22.35-2.1,2.31-1.35,3.49-1.98.75-.16,1.5-.15,2.23.09,1.03.5,2.07.96,3.16,1.32,3.25,1.77,4.14,4.83,4.33,8.19.15,2.64.03,5.28.09,7.92-.22,2.94-.03,5.83.96,8.63.66,1.36,1.4,2.7,1.63,4.23,0,.17-.01.34-.03.51Z"/>
        <path class="cls-52" d="M444.17,236.03c-.29.54-.66,1.15-1.25,1.2-5.42.49-10.81,1.66-16.29.73-.19-.03-.34-.31-.52-.47,6.1.47,12.05-.85,18.05-1.46Z"/>
        <path class="cls-57" d="M439.19,143.72c-.99,1.1-2.74.11-3.68,1.34-1.2.04-2.4.08-3.61.12-.99-.15-1.72-.65-2.17-1.54,2.35-1.08,4.91-.5,7.35-.9.82.08,1.59.25,2.11.98Z"/>
        <path class="cls-15" d="M443.4,391.83c-1.64-.01-3.29-.03-4.93-.04-3.48-.54-6.98-.07-10.47-.25-1.26-.78-.85-1.75.1-2.15,1.91-.81,1.43-1.98,1.12-3.5-.74-3.63.96-7.42-.44-11.02-2.16-5.57.19-11.1.01-16.65-.15-4.65-2.38-6.67-7.09-6.17-11,1.16-18.22-2.63-23.12-12.46-1.54-3.08-4.11-5.66-4.58-9.27.42-.96,1.14-.64,1.77-.37,1.21.53,2.26,1.31,3.18,2.25,1.64,1.96,2.39,4.58,4.61,6.1.43.36.82.76,1.18,1.19.91.96,1.83,1.92,2.74,2.88,2.42,2.56,5.25,4.07,8.94,3.82,2.88-.19,5.76.04,8.54.99.68.23,1.41.36,2.13.34,8.42-.23,16.78,1.16,25.21.85,2.11-.08,3.99-.75,5.92-1.37.24.07.58.17.6.34.34,3.33,2.74,4.47,5.44,5.73,3.58,1.68,6.94,3.8,10.92,4.48,5.56,2.39,11.17,4.52,17.2,5.51,2.79.46,5.47,1.56,8.38,1.25.72-.08,1.49.02,1.43-1.07,1.84-3.38,3.53-3.8,5.88-1.08,2.06,2.39,4.32,2.99,7.32,2.42,3.03-.57,6.17-.42,9.2-1.28,3.73-1.06,7.19-2.53,10.14-5.12,1.34-1.18,2.74-2.4,4.78-1.6-.19.43-.25,1.04-.58,1.28-3.08,2.2-5.61,5.11-8.94,6.97-.73.41-1.49.84-2.29,1.03-6.13,1.51-12.28,3.14-18.68,1.83-1.13-.23-1.89-.17-2.09,1.14-1.59-1.63-3.27-2.21-5.28-.63-.66.52-1.64.95-2.37.52-2.29-1.33-4.82-.92-7.24-1.35-7.45-1.33-14.71-3.47-21.7-6.37-4.18-1.74-8.29-3.7-12.26-5.88-1.88-1.03-3.67-1.43-5.75-1.49-5.7-.16-11.48.88-17.18-1.23-.67,2.45-.29,4.72-.36,6.96-.03.99.71,1.44,1.38,1.95.89.69,1.54,1.53,1.47,2.73-.27,4.8.41,9.54.71,14.31.15,2.29-.26,4.37-1.84,6.32-.84,1.04-.86,2.88-.93,4.37-.08,1.59,1.32,1.52,2.36,1.4,4.04-.45,8.07.31,12.11.04.72-.05,1.44,0,2.04.52-2.8,1.35-5.87-.09-8.72.82Z"/>
        <path class="cls-19" d="M443.4,391.83c2.81-1.33,5.84-.3,8.72-.82,8.73.08,17.47.11,26.21.25,1.86.03,3.83-.5,5.58.64-5.26.08-10.52.37-15.77.19-7.54-.27-15.07.09-22.6-.1-.71-.02-1.42-.1-2.13-.16Z"/>
        <path class="cls-63" d="M282.49,287.98c-.6,2.16-2.19,3.27-3.9,4.64-4.85,3.88-10.35,6.7-15.59,9.89-3.59,2.18-7.74,3.56-11.79,4.81-3.57,1.1-5.48-.3-7.02-3.72-3.17-7.05-6.59-13.97-10.37-20.72-1.78-3.18-3.3-6.53-4.69-9.9-1.42-3.44-3.61-6.46-5.13-9.84-2.08-4.65-4.45-9.17-6.65-13.77-1.11-2.33-1.3-4.65-.74-7.3.46-2.17,1.83-3.39,3.16-4.55,3.49-3.02,7.26-5.71,11.18-8.19,1.85-1.18,3.28-3,5.31-4.05.62-.32,1.19-.8,1.87-1.01,5.55-1.77,9.76-5.7,14.41-8.91,5.48-3.78,10.98-7.53,16.46-11.31.74-.51,1.6-.47,2.37-.77,1.29-.48,2.01-.02,2.49,1.23,1.27,3.32,2.72,6.57,3.92,9.92,2.07,5.79,4.87,11.3,6.88,17.09,1.71,4.91,4.2,9.56,5.11,14.75.53,3.08-1.1,5.47-2.7,7.78-.78,1.12-2.21,1.37-3.57,1.27-1.19-.08-2.38-.24-3.48-.75-1.3-3.07,2.02-2.81,2.9-4.1-2.2.62-3.79,2.39-5.48,4-1.96.85-4.03.37-6.05.55-1.21.11-2.55.14-3.07,1.45-.55,1.38.54,2.24,1.44,3.02,3.66,3.17,6.5,7.07,9.41,10.87,1.63,2.12,3.34,4.4,2.84,7.42-.39.33-.81.64-1.31.79-7.47,4.89-14.99,9.71-22.41,14.68,7.19-4.82,14.76-9.04,21.75-14.18.75-.42,1.45-.94,2.23-1.3,1.4,1.69,2.34,3.54,2.16,5.82-1.24,1.2-.88,3.1-1.92,4.39Z"/>
        <path class="cls-26" d="M283.92,283.75c-.19-2.16-1.55-3.88-2.16-5.88l.04.04c-.71-2.89-1.92-5.6-3.89-7.8-3.16-3.53-5.55-7.74-9.53-10.56-.86-.61-2.24-1.63-1.36-3.29.73-1.38,1.77-2.25,3.38-2.25,2.27,0,4.54.03,6.81.04.86-.56,1.73-.66,2.59.01.71,0,1.43-.06,2.12.03,4.16.55,4.77.38,6.02-3.31.53-1.56,1.4-2.95,1.82-4.53,3.05.84,4.21,3.49,5.63,5.89.06.09,0,.26.06.34,3.27,4.75,2.04,10.18,2.34,15.38-.07.96-.42,1.69-1.12,2.44-.85.91-1.78,1.89-1.99,3.24-.1.34-.32.57-.63.71-1.27.65-1.84,1.94-2.75,2.94-.22.94-.72,1.69-1.55,2.19-2.06.79-2.95,2.74-4.24,4.29.15.35.09.65-.17.93-.73.15-1.42.23-1.41-.85Z"/>
        <path class="cls-68" d="M283.92,283.75c.25.47.71.57,1.18.6.26.08.38.2.35.36-.03.19-.08.28-.15.28-1.39.37-1.25,1.51-1.35,2.57-.11,1.12.43,2.42-.78,3.29-1-.77-.56-1.89-.69-2.88.2-1.51-.75-3.4,1.43-4.23Z"/>
        <path class="cls-68" d="M317.14,277.16c.38.66-.16.77-.56.77-1,0-2-.09-3.01-.14,1.04-1.07,2.37-.46,3.57-.63Z"/>
        <path class="cls-6" d="M152.62,355.17c-.52.59-1.22.69-1.94.69-7.02-.01-14.03-.03-21.05-.05-.61,0-1.18-.12-1.64-.56,8.21-.03,16.42-.05,24.63-.08Z"/>
        <path class="cls-6" d="M125.93,355.22c-1.62,1.1-3.38.52-5.1.46,1.62-1.05,3.4-.42,5.1-.46Z"/>
        <path class="cls-40" d="M156.18,371.75c3.14-1.24,6.3-1.06,9.48-.17-3.16.05-6.32.11-9.48.17Z"/>
        <path class="cls-25" d="M160.61,358.56c-2.67.43-5.36-.01-8.04.15,2.16-.93,5.25-.99,8.04-.15Z"/>
        <path class="cls-25" d="M165.63,358.67c-1.48.18-2.96.17-4.43-.05,1.49-.78,2.97-1.03,4.43.05Z"/>
        <path class="cls-40" d="M150.98,371.12c1.32-.13,2.67-.58,3.86.44-1.31.04-2.65.45-3.86-.44Z"/>
        <path class="cls-22" d="M105.72,333.54c-.98-.03-1.96-.05-2.93-.08-3.05-4.47-3.35-11.04-.7-15.1,1.32-.98,2.96.1,4.3-.69,9.22,0,18.43.06,27.65-.03,4.43-.05,8.85-.51,13.28-.59,7.3-.13,14.6-.1,21.89-.14-.27,1.65.29,3.26.14,4.94-.28,3.05.09,6.17-1.48,9.01-.25.47-.08,1.17-.11,1.76-.9.69-1.93.85-3.05.86-16.62.3-33.24,1.13-49.85.48-3.03-.11-6.14.38-9.15-.43Z"/>
        <path class="cls-20" d="M150.37,313.34l19.6-.02c-.66.63-1.49.66-2.33.67-4.87.03-9.74.05-14.61.1-.96,0-1.91,0-2.66-.74Z"/>
        <path class="cls-68" d="M176.43,298.87c-1.29,1.33-2.91.61-4.38.63-4.59.05-9.18-.01-13.78-.03,1.06-.75,2.3-.58,3.48-.59,4.89-.04,9.79-.01,14.68-.01Z"/>
        <path class="cls-70" d="M156.23,299.52c-2.52,1.57-5.31.36-7.95.79.46-.68,1.17-.79,1.89-.8,2.02-.01,4.03,0,6.05.01Z"/>
        <path class="cls-68" d="M106.4,317.67c-1.29,1.14-2.87.44-4.3.69-.01-.22-.02-.43-.03-.64,1.45-.01,2.89-.03,4.33-.04Z"/>
        <path class="cls-68" d="M178.68,298.72c-.74.21-1.47.36-2.23.14.7-.78,1.45-.81,2.23-.14Z"/>
        <path class="cls-65" d="M167.56,255.48c-4.04-.24-8.08.75-12.11.02-4.09-.74-5.7-4.82-3.02-7.83,1.43-1.6,3.62-1.93,5.6-1.91,1.33.01,2.59-.15,3.88-.3,5.61-.68,11.17-.22,16.74.59,2.08.3,3.47,1.4,3.8,3.23.32,1.73-.92,3.21-2.41,4.02-2.18,1.19-4.43,2.34-7.08,2.2-1.79-.1-3.59-.02-5.39-.02Z"/>
        <path class="cls-8" d="M108.51,243.91c.02-.2.05-.41.08-.61,7.22,0,14.44-.01,21.66-.02-.74.82-1.73.73-2.68.73-6.35-.03-12.71-.06-19.06-.1Z"/>
        <path class="cls-15" d="M539.52,356.58c-1.99.6-3.6,1.67-5.13,3.13-2.1,2.01-4.87,3.03-7.58,4.01-4.44,1.62-9.19,1.37-13.77,2.16-2.32.39-4.05-.87-5.41-2.84-1.96-2.85-3.22-2.63-5,.65-.63.72-1.38.72-2.19.34-1.28-2.46-3.26-3.58-6.08-3.66-5.39-.16-10.12-2.88-15.22-4.2-.46-.12-.88-.51-1.33-.53-5.24-.23-8.78-4.15-13.23-6.1-2.06-.9-2.78-2.66-2.49-4.73.46-3.35.68-6.65.21-10.04-.33-2.4,1.04-3.68,4.4-4.16,2.32-.33,4.09-1.22,5.43-3.07.54-.29,1.09-.32,1.66-.13,1.7,1.6,3.51,2.03,5.9,1.39,4.08-1.09,8.33-.27,12.5-.58,1.8-.13,3.61-.04,5.01-1.45.49-.24,1-.31,1.54-.19.22.08.43.19.62.34,3.15,2.55,3.43,2.55,6.69-.03.33-.13.63-.08.91.13-.44,2.92.86,4.84,3.46,6.02.99.45,1.8,1.16,2.67,1.81,1.73,1.31,3.59,2.35,5.92,2.26,2.85-.12,4.02-1.02,4.44-3.68.34-2.13-1.09-4.54-3.39-4.79-4.81-.51-6.26-4.35-8.19-7.72-.89-1.55-1.37-3.32-2.13-4.95-.66-1.42-1.31-2.77-1.42-4.41-.18-2.51-1.65-4.66-2.38-7.05-1.42-4.67-2.87-9.35-4.29-14.03-.04-.11-.07-.25-.15-.33-2.75-2.79-2.44-6.51-3.03-9.96.19-.11.37-.3.56-.31.88-.05,2.22.71,2.45-.54.23-1.27-1.22-2.58-2.11-2.51-2.61.21-2.78-1.78-3.57-3.25-.51-.94-.8-1.97-1.32-2.93-1.12-2.05-.68-3.2,1.37-4.6,2.26-1.54,3.22-4.46,2.29-6.97-.49-1.32-1.73-1.69-2.87-.8-.46.36-.92.83-1.16,1.35-.59,1.28-1.34,1.28-2.6.85-3.65-1.25-6,.54-6.23,4.4-.1,1.62.37,3.12.79,4.58,1.7,5.94,2.79,12.02,5.67,17.66,1.51,2.95,2.83,6.33,2.92,9.85.04,1.51.54,2.76,1.2,4.08,1.42,2.86,2.27,5.95,3.08,9.03.17.64-.04,1.43-.24,2.1-.13.42-.52.83-1.1.72-.39-.07-.63-.34-.66-.72-.13-1.61-1.55-2.92-.88-4.78.37-1.02,0-2.27-1.27-2.64-1.04-.3-1.55-1.04-2.15-1.79-.63-.78-1.31-1.05-2.47-.93-1.89.19-2.82-1.04-2.84-3.06-.03-2.43-.8-3.31-3.3-3.75-4.19-.73-5.03-1.6-5.21-5.65-.11-2.62-1.19-4.89-2.42-7.08-.9-1.6-.95-2.92-.17-4.68,3.29-7.48,5.03-15.45,6.69-23.41.42-1.99-.25-3.71-1.6-5.26-1.55-1.77-1.55-3.94.06-5.71,1.61-1.77,2.01-3.57,1.22-5.89-1.08-3.16-1.83-6.45-2.77-9.66-1.29-4.37-2.74-8.65-6.2-11.92-1.32-1.25-1.13-1.77.6-2.53,1.5-.66,2.84-.95,4.18.61,1.74,2.03,3.89,3.12,6.69,1.84.7-.32,1.66-.09,2.5-.12.69.26,1.38.52,2.07.79,2.05.75,3.75,2.26,5.9,2.8,1.16.75,2.32,1.5,3.48,2.25.61.34,1.04.89,1.52,1.38l-.05-.04c.69.89,1.96.75,2.7,1.52.29.25.59.51.88.76.64.49,1.48.7,1.97,1.41.78.71,1.56,1.43,2.34,2.14.61.62,1.6.7,2.08,1.5l.06.05c1.08,1.32,2.11,2.7,3.71,3.46l-.03-.03c.48.48,1.03.9,1.36,1.52,1.7,1.68,3.39,3.36,5.09,5.04.53.7.85,1.56,1.52,2.16l-.05-.04c.51.48,1.03.95,1.47,1.5l-.04-.04c.47.47,1.06.84,1.34,1.48.16.56.25,1.16.8,1.51.56.66.89,1.49,1.49,2.13.23.24.45.49.68.74.87.81,1.24,1.98,2.03,2.85.13.16.2.34.2.55,3.1,4.37,5.77,8.98,7.94,13.87l-.02-.05c1.75,4.57,4.19,8.82,6.07,13.32,2.55,6.11,5.26,12.23,6.11,18.91.2,1.6.93,2.93,1.8,4.22-.12,1.37.63,2.7.15,4.09-1.74,4.66-.89,9.43-.53,14.17.05.61.05,1.22.06,1.83,0,1.84,0,3.69,0,5.54-.09,1.59.21,3.21-.27,4.78-.91,1.26-1.51,2.58-1.77,4.19-.7,4.42-3.07,8.2-5.15,12.07-1.49,2.29-2.38,5.04-5,6.46Z"/>
        <path class="cls-30" d="M469.43,211.33c-.7.6-.57,1.17-.07,1.86,5.28,7.38,7.25,16.1,9.88,24.55.24.79.25,1.65.32,2.48,1.02,13.45-1.77,26.2-7.24,38.43-.77,1.73-.89,3.01.54,4.53,3.38,3.58,3.2,10.02-.26,13.01-2.85,2.46-5.75,3.18-9.27,1.93-3.67-1.31-5.72-3.97-6.13-7.71-.76-6.92,2.5-10.45,9.63-10.63,1.05-.03,1.45-.53,1.85-1.34,5.63-11.37,8.75-23.31,7.96-36.07-.37-5.93-2.29-11.47-4.82-16.81-.61-1.29-1.51-2.47-1.66-3.96-2.34-2.7-4.71-5.38-4.3-9.34.74-.74,1.47-1.47,2.2-2.21.64.22,1.08.67,1.38,1.27Z"/>
        <path class="cls-15" d="M551.64,303.15c-1.26-.11-1.83-.8-2.08-2.04-1.25-5.99-2.39-11.92-5.19-17.58-1.72-3.47-3.11-7.2-4.89-10.71-.91-1.81-1.67-3.71-1.42-5.83.46.13,1,.19,1.18.69,1.82,4.88,4.85,9.25,6.05,14.38.34,1.43,1.4,2.48,1.98,3.77,1.98,4.41,3.81,8.86,4.45,13.71.49,1.21.62,2.41-.09,3.61Z"/>
        <path class="cls-24" d="M551.64,303.15c.03-1.2.05-2.41.08-3.61,1.43,2.22.25,4.95,1.43,7.22-1.05,2.88-.66,5.89-.68,8.85-.04,5.13-.02,10.26-.03,15.38,0,1.92-.12,3.8-1.44,5.37-.64-.7-.56-1.43-.06-2.16.03-1.67.05-3.34.08-5.01.58-1.95.58-3.9,0-5.85.01-.45.02-.9.03-1.34.29-4.82-.78-9.71.63-14.49-.02-1.46-.03-2.91-.04-4.35Z"/>
        <path class="cls-15" d="M538.07,267.04c-1.71-1.95-3.14-3.99-3.92-6.58-.56-1.83-1.99-3.42-3.13-5.05-.5-.7-.99-1.33-.89-2.24.11.04.25.06.33.14,2.72,2.56,4.21,6.01,6.42,8.94.93,1.24,1.5,3.02,1.18,4.79Z"/>
        <path class="cls-15" d="M495.56,219.37c-2.54.27-4.15-1.42-5.9-2.81,2.53-.25,4.14,1.45,5.9,2.81Z"/>
        <path class="cls-15" d="M514.26,233.8c-2.12-.21-3.19-1.55-3.71-3.46,1.45.93,2.73,2.04,3.71,3.46Z"/>
        <path class="cls-15" d="M529.93,252.62c-1.61-.29-1.77-1.61-2.03-2.85,1.82.14,1.81,1.58,2.03,2.85Z"/>
        <path class="cls-15" d="M503.21,224.48c-1.22.05-2.27-.18-2.7-1.52,1.14.08,2.27.18,2.7,1.52Z"/>
        <path class="cls-15" d="M506.06,226.64c-.96-.04-1.6-.54-1.97-1.41.96.04,2.09-.16,1.97,1.41Z"/>
        <path class="cls-15" d="M510.49,230.29c-1-.07-1.71-.56-2.08-1.5,1.16-.15,2.06.08,2.08,1.5Z"/>
        <path class="cls-15" d="M527.22,249.03c-.96-.38-1.47-1.08-1.49-2.13,1.04.33,1.5,1.07,1.49,2.13Z"/>
        <path class="cls-15" d="M522.21,242.49c-1.06-.33-1.51-1.09-1.52-2.16,1.05.34,1.54,1.07,1.52,2.16Z"/>
        <path class="cls-15" d="M524.93,245.39c-.66-.3-1.13-.77-1.34-1.48.88.1,1.41.52,1.34,1.48Z"/>
        <path class="cls-15" d="M515.59,235.3c-.69-.3-1.17-.77-1.36-1.52.96.05,1.47.51,1.36,1.52Z"/>
        <path class="cls-15" d="M500.55,223c-.75-.19-1.22-.69-1.52-1.38.99-.08,1.51.37,1.52,1.38Z"/>
        <path class="cls-15" d="M523.63,243.95c-.76-.24-1.26-.73-1.47-1.5.93.07,1.41.58,1.47,1.5Z"/>
        <path class="cls-57" d="M436.96,143.49c-2.4.41-4.8.82-7.23.15-2.61-1.77-5.21-3.5-7.42-5.82-2.72-2.84-6.18-4.8-9.75-6.29-2.74-1.15-5.87-.3-8.29,1.16-5.56,3.33-10.79,7.17-14.8,12.41-1.22,1.59-1.04,1.8-2.98,5.15q-1.64.23-1.59,1.3h-.34s-.34.02-.34.02c-3.63-.84-5.96-3.21-7.48-6.47-.69-1.48-.79-3.24-2.73-3.96-.75-.28-.63-1.4.23-1.65,1.79-.52,2.35-1.9,2.82-3.43.51-1.66,1.74-2.95,2.84-4.09,2.94-3.03,6.09-5.86,9.36-8.58,2.87-2.39,6.3-3.94,9.07-6.41.95-.84,2.18-.96,3.29-1.38,6.13-2.31,12.35-4.44,18.42-6.91,2.21-.9,4.23-1.78,6.74-1.98,5-.39,8.65,2.47,12.75,4.32,1.1.5.97,1.54,1.19,2.45,1.13,4.66,4.19,7.95,8.38,9.67,2.13.88,4.39,1.6,6.41,2.73,2.95,1.66,5.48,3.81,6.87,7.06.37.87.85,1.8,1.54,2.41,2.79,2.44,3.07,5.97,3.98,9.15.52,1.82,1.52,3.61.29,5.94-.9,1.7-.09,4.25-.27,6.4-.15,1.72-1.38,2.58-3.27,2.67-.98.05-1.9-.12-2.81-.49-.67-.27-1.53-.43-2.05.15-2.69,3.06-5.2,6.23-5.49,10.55-.05.72,0,1.44-.01,2.16q-.06,2.55-2.91,2.08h0c-.49-2.76-.11-5.73-1.9-8.2,1.66-4.16-2.06-7.7-1.36-11.79.26-1.51-.03-3.09-.17-4.64-.5-5.7-6.14-8.74-10.98-5.85Z"/>
        <path class="cls-11" d="M278.82,339.26c4.05,3.43,5.63,8.25,7.28,13.01,1.32,3.82,2.87,7.55,4.3,11.31,1.64,4.31,4.28,8.18,5.22,12.8.37,1.81,1.6,3.41,2.12,5.26.36,1.27.79,2.5.6,3.85-.74-.44-1.12-1.11-1.52-1.89-2.23-4.3-3.59-8.94-5.5-13.37-2.38-5.52-4.77-11.04-7.1-16.58-1.35-3.22-2.92-6.35-3.92-9.72-.46-1.56-1.92-2.81-1.48-4.67Z"/>
        <path class="cls-11" d="M284.68,331.29c-5.21-1.1-6.75,3.61-5.83,8.01-1.98-1.16-1.61-3.39-2.07-5.11-.72-2.73.18-3.53,3.16-3.59,1.55-.03,3.11.04,4.66.07.04.2.06.41.08.61Z"/>
        <path class="cls-11" d="M298.32,385.45c2.4,1.16,1.24,3.33,1.44,5.11-.91-1.58-1.64-3.21-1.44-5.11Z"/>
        <path class="cls-11" d="M301.24,395.42c-.17.03-.33.08-.49.14-1.25-1.5-.73-3.36-1.02-5.06,1.4,1.37.65,3.39,1.51,4.92Z"/>
        <path class="cls-23" d="M174.83,336.28c1.85-1.23,3.95-.28,5.89-.69-1.82,1.52-3.92.51-5.89.69Z"/>
        <path class="cls-23" d="M180.71,335.6c.76-.76,1.54-.74,2.34-.05-.78.02-1.56.04-2.34.05Z"/>
        <path class="cls-15" d="M550.94,334.19c.02.72.04,1.44.06,2.16-1.03,5.12-2.56,10-6.48,13.76.01-2.36,1.4-4.24,2.43-6.15,1.17-2.16,1.78-4.34,1.87-6.71.05-1.54.18-2.89,2.12-3.07Z"/>
        <path class="cls-68" d="M361.84,286.44c1.66-2.37,4.27-3.9,5.76-6.42,1.31,2.01,1.57,3.72-1.22,4.68-.81.28-1.32.83-1.67,1.71-.84,2.12-1.89,1.09-2.87.03Z"/>
        <path class="cls-68" d="M369.12,277.95c.25-.25.51-.5.77-.75.5-.47,1.16-.47,1.35.13.35,1.1-.81,1.43-1.36,2.07l-.02-.03c-.56-.31-.71-.83-.73-1.42Z"/>
        <path class="cls-60" d="M369.2,319.79c1.38,2.16.05,4.86,1.37,7.03-.19.33-.42.37-.7.12v-.08c-1.72-2.22-2.06-4.56-.66-7.07Z"/>
        <path class="cls-11" d="M387.16,333.46c-.22,2.79,1.12,5.21,2.35,7.45,5.76,10.4,9.94,21.52,15.1,32.18,2.54,5.26,4.2,10.95,7.63,15.73-.9,1.51-2.24.86-3.33.92-9.48.48-18.93-1.24-28.41-.69-12.11.7-24.23.75-36.35.72-11.74-.03-23.46-.76-35.18-1.45-2.63-.15-3.69-2.01-4.62-3.98-2.04-4.35-3.17-9.04-4.87-13.53-2.81-7.4-6.27-14.49-9.46-21.71-1.68-3.82-2.79-7.89-4.18-11.84-.39-1.12.07-1.59,1.14-1.62.96-.03,1.93-.06,2.89-.01,12.61.62,25.09-1.77,37.7-1.65,4.24.04,8.59-.4,12.9-.51,1.35-.04,2.7.06,3.38-1.45,2.34.68,4.75,1.64,5.35-2.16.13-.81,1.14-.74,1.84-.71,2.36.11,4.74-.32,7.1.5,1.59.56,2.83-.02,3.04-1.94,2.65,0,5.3,0,7.95,0,.61.63,1.49-.1,2.12.42.25.18.44.42.6.68.47,1.08.86,2.23,2.12,2.7,1.51.39,3.01.75,4.41-.32.76-.89.7-2.18,1.51-3.04.3-.2.63-.33.98-.39,1.28-.09,2.56-.08,3.84-.02.37.02.72.12,1.06.28.99.67,1.37,1.63,1.25,2.8-.22.89-.93,1.81.15,2.64Z"/>
        <path class="cls-11" d="M287.52,331.38c-.98.91-1.93.94-2.85-.09.95.03,1.9.06,2.85.09Z"/>
        <path class="cls-27" d="M385.7,328.37l-.31-.03-.31.05c-1.5-.54-3.01-.53-4.51,0l-.32-.04-.32.04c-2.88,1.68-5.77,1.65-8.66.03h0c-.36-.5-1.16-.18-1.45-.8,0-.22.01-.44.03-.67.24-.01.47-.05.7-.12,5.45.6,10.92-.1,16.38.3,1.03.08,2.14-.44,2.92.66-1.26,1.13-2.59,1.7-4.16.58Z"/>
        <path class="cls-11" d="M369.84,327.61c.53.18,1.12.26,1.45.8-.79-.03-1.64.14-2.16-.7.24-.03.48-.06.72-.1Z"/>
        <path class="cls-15" d="M394.38,329.85c3.36,5.72,5.5,12.2,10.64,16.82,4.59,4.13,9.88,6,15.85,4.44,3.29-.86,5.5.85,8.06,1.92.92.38.86,1.38.8,2.22-.27,4.01.85,8.15-1.24,12.01-.44.81-.44,1.98.17,2.78,2.13,2.78.17,6.47,2.12,9.28.14.19-.16.67-.23,1.03q-.95,4.74,1.02,8.79c-.89,1.54-3.61-.51-3.99,2.01-1.21.73-2.46.49-3.72.15-.6,0-1.2-.04-1.8,0-2.47.2-3.79-.58-5.15-3.07-2.68-4.91-4.85-10-7.02-15.12-2.57-6.07-5.19-12.13-7.83-18.17-2.08-4.74-3.68-9.7-6.28-14.2-.72-.77-.7-1.87-1.22-2.72-.23-2.63-1.3-4.91-2.95-6.94-.04-.16-.08-.31-.12-.47-.13-1.51.45-2.34,2.08-2.18.61.28.83.79.82,1.43Z"/>
        <path class="cls-11" d="M385.7,328.37c1.39-.19,2.78-.38,4.16-.58.35.65.28,1.35.21,2.05-1.62-.14-1.94,1.46-2.92,2.18-.65.17-1,.04-.72-.72.12-1.07-.25-2.01-.74-2.93Z"/>
        <path class="cls-45" d="M423.86,391.29c1.24-.05,2.48-.1,3.72-.15,2.51-.01,5.02-.07,7.53-.01,1.14.03,2.42-.43,3.36.67-4.87-.16-9.79,1.13-14.61-.5Z"/>
        <path class="cls-34" d="M395.1,337.78c.45.93.94,1.85.67,2.95-1.89-1.22-2.03-3.68-3.62-5.12-.41-.68-.6-1.37-.13-2.1,1.46-.5,1.8.66,2.34,1.56.5.84.08,1.92.74,2.71Z"/>
        <path class="cls-11" d="M392.09,333.59c.02.67.04,1.35.07,2.02-1.6-.72-1.38-2.15-1.39-3.5.23-.24.5-.31.82-.22.51.47.63,1.04.51,1.7Z"/>
        <path class="cls-11" d="M305.67,395.57c-1.43.9-2.86,1.12-4.28-.02,1.43,0,2.86.01,4.28.02Z"/>
        <path class="cls-27" d="M391.42,332.06c-.22,0-.44.01-.65.06-.8-.64-.74-1.49-.56-2.37.43.28.85.56,1.28.85h0c.41.5.46.99-.06,1.46Z"/>
        <path class="cls-11" d="M386.43,331.3l.72.72v1.44c-1.54-.29-1.9-.96-.72-2.16Z"/>
        <path class="cls-26" d="M458.53,347.38c-1.35,1.59-3.07,1.97-5.1,2.02-8.84.21-17.67-.41-26.46-.98-4.69-.31-9.39-1.36-14.16-1.22-1.41.04-2.15-1.02-3.06-1.63-2.45-1.66-4.51-3.81-6.21-6.27,1.52-.85,2.47.37,3.52,1.04,4.89,3.15,10.26,4.54,16.03,4.43,3.68-.08,4.27-.89,3.26-4.31-.17-.57-.6-1.19-.4-1.72,1.58-4.15-.74-5.62-4.23-6.48-1.64-.4-2.13-1.78-2.15-3.35-.02-1.65-.79-2.78-2.4-3.14-5.38-1.19-10.48-3.35-15.87-4.56-3.16-.71-6.14.23-9.19-.01.24-2.65,1.88-3.59,4.31-4.45,7.25-2.57,14.83-2.02,22.23-2.5,9.13-.59,18.41.11,27.19,2.97,5.74,1.87,10.07,6.13,13.52,11.14.56.69.91,1.45.97,2.34.5,4.16,1.4,8.32.36,12.53-.98,1.24-.88,3.05-2.13,4.16Z"/>
        <path class="cls-26" d="M392.1,321.18c4.25-2.66,8.63-1.2,12.83-.08,4.37,1.16,8.61,2.83,13.05,3.76,1.83.38,3.02,1.69,2.61,3.27-.72,2.8.85,3.3,2.84,3.83,4.46,1.17,4.86,1.77,3.36,6.18-.43,1.28.43,1.75.79,2.53,1.42,3.09.39,4.93-2.99,5.05-7.1.26-13.74-1.11-19.44-5.69-.45-.36-1.08-.49-1.63-.73-.19-.21-.38-.42-.57-.63-1.06-2.25-1.97-4.6-4.32-5.9-1.42-.97-2.85-1.94-4.27-2.92-.57-.31-.62-.91-.82-1.43-1.15-1.6-2.36-3.15-2.53-5.25-.08-.98.27-1.57,1.07-1.99Z"/>
        <path class="cls-50" d="M382.66,298.19c-1.26-3.25-.7-6.66-.42-9.91.43-5.1,1.23-10.18,2.55-15.17,1.17-4.42,2.58-8.62,5.33-12.43,1.64-2.27,1.88-5.34,2.11-8.24.57-7.29,1.6-14.49,4.36-21.33,1.45-3.59,3.58-6.78,5.8-9.91.41-.58.99-1.05,1.49-1.56.83-.84,1.9-1.39,2.87-.62.82.64,1.19,1.76.62,2.89-1.35,2.66-2.1,5.55-3.62,8.18-1.64,2.85-2.5,6.13-3.77,9.2-.45,1.09-.98,2.2-1.39,3.27-.95,2.46-1.36,5.04.86,7.3,3.76,3.83,7.39,7.78,11.13,11.63.97,1,1.84,1.91,1.13,3.41l-.03.03c-3.76-4.13-7.98-7.81-11.68-12.01-1.36-1.54-2.38-3.22-3.27-5-1.27.48-.85,1.46-.9,2.21-.08,1.19.04,2.41-.06,3.6-.37,4.37.13,8.17,4.37,10.91,2.5,1.61,3.84,4.53,4.7,7.48,2.41,8.29,4.48,16.63,3.82,25.38-1.54.36-3,.3-4.22-.87,1.4-.76,2.13-1.43,1.76-3.52-1.12-6.49-2.13-12.97-4.58-19.13-.94-2.35-1.85-4.71-3.64-6.56-3-3.12-6.58-2.5-8.37,1.36-3.46,7.43-4.48,15.34-4.67,23.42-.03,1.38.51,2.26,1.49,3.03-1.29.93-2.59,1.87-3.77,2.97Z"/>
        <path class="cls-63" d="M344.67,291.72c-5.2-1.1-11.21-.65-17.19-.89-4.58-.19-8.88.74-12.83,2.83-5.04,2.66-10.01,5.53-13.73,10.05-.08.09-.15.19-.24.27-1.34,1.28-2.98,1.59-3.85.73-.93-.92-.52-2.95.99-4.07,6.23-4.61,12.16-9.74,19.76-12.15,1.95-.62,3.83-1.27,5.93-1.23,4.93.09,9.87-.16,14.79.09,4.04.2,8.05.93,12.08,1.41.65.08,1.2.34,1.24,1.05.04.8-.42,1.5-1.18,1.59-1.66.2-3.35.21-5.78.34Z"/>
        <path class="cls-35" d="M465.84,212.27c.72,3.44,3.33,6.02,4.3,9.34-1.53,1.66-.01,3.26.42,4.63,1.21,3.79,2.19,7.57,2.75,11.53.27,1.89,1.03,3.87,1.83,5.68,1.31,2.94.98,5.18-1.23,7.76-3.4,3.99-6.4,8.34-9.85,12.31-2.19,2.52-4.82,4.58-7.09,6.99-1.79,1.89-3.77,3.53-5.69,5.25-2.84,2.55-6.24,4.31-9.43,6.35-.36.23-.93.23-1.43-.17.63-1.83,2.52-2.39,3.87-3.26,5.88-3.78,10.81-8.62,15.74-13.45,4.42-4.33,8.23-9.19,11.98-14.1.8-1.05,1-2.42,2.11-3.28.47-.37.41-1.13.17-1.7-1.63-3.85-2.32-7.9-2.83-12.02-.24-1.96-.83-3.99-1.8-5.69-.63-1.11-.91-2.15-1.07-3.31-.48-3.6-2.29-6.7-3.7-9.95-.53-1.23-1.23-2.54.95-2.9Z"/>
        <path class="cls-3" d="M459.3,330.57c.01-.74.02-1.49.03-2.23,7.31-2.58,14.8-3.99,22.6-3.52,4.89.29,9.78-.04,14.7.42,2.83.26,5.9-.58,8.89-.44.68-.09,1.35-.12,2.02.06.98.4,1.97.8,1.55,2.19-.71-.01-1.42-.03-2.12-.04-.24.01-.48.02-.72.03-2.4-.11-4.81,0-7.21-.06-.48,0-.96,0-1.45.01-1.07.74-2.26.54-3.47.52-6.34-.11-12.7-.78-19,.55-.48.1-.94-.07-1.35-.37-.48.01-.96.02-1.45.03-4.27,1.28-8.6,2.25-13.02,2.85Z"/>
        <path class="cls-55" d="M506.93,325.53c-.59-.02-1.12-.15-1.41-.74-.25-1.53-1.52-3.22.67-4.38.81-.46.33-.93,0-1.39-.66-.34-1.21-.78-1.36-1.55-.6-3.01-2.47-5.69-2.99-8.56-.7-3.83-2.72-7.12-3.45-10.85.46-.42.09-1.23.73-1.57,1.92,1.84,2.02,4.49,2.7,6.78,1.12,3.75,2.69,7.34,3.74,11.1.78,2.81,2.43,5.32,2.8,8.27-1.16.62-.49,2.15-1.42,2.88Z"/>
        <path class="cls-5" d="M494.05,283.64c-1.98-4.54-3.48-9.24-4.3-14.12-.28-1.63-.64-3.41.53-5.34.8,6.67,3.46,12.47,4.49,18.66.28.73-.1.88-.72.8Z"/>
        <path class="cls-29" d="M506.93,325.53c-.1-.69-.36-1.39-.27-2.05.12-.96.68-1.48,1.7-.83.69,3.58,3.78,5.01,6.28,6.93,1.13.86,2.44,1.49,3.66,2.23.4.24.91.5.63,1.09-.31.68-1.02.69-1.53.47-.74-.32-1.43-.8-2.04-1.34-2-1.78-4.99-2.31-6.27-4.98-.34-1.04-1.11-1.47-2.16-1.52Z"/>
        <path class="cls-21" d="M434.47,311.64c-1.35-.6-1.18-1.44-1.09-2.05,1.23-7.72.11-15.58,1.24-23.31,1.64,2.65.36,5.35.25,8.04-.11,2.86.03,5.74-.01,8.6-.04,2.83.14,5.67-.4,8.72Z"/>
        <path class="cls-43" d="M369.87,279.39c.24-.4.48-.8.73-1.2.57-.91-.11-.93-.71-.99,3.25-2.64,5.85-6.05,9.4-8.33.63.6.79,1.41.41,1.71-3.45,2.74-5.8,6.71-9.83,8.8Z"/>
        <path class="cls-54" d="M494.05,283.64c.24-.27.48-.53.72-.8,1.91,1.38,1.95,3.74,2.67,5.65.95,2.52,1.15,5.33,1.67,8.01-.09.59-.13,1.21-.73,1.57-1.05-4.93-2.74-9.67-4.34-14.43Z"/>
        <path class="cls-50" d="M411.71,264.88c2.41.2,2.89,2.67,4.39,3.94,1.51,1.28,2.67,3.2,4.34,4.83-2.97.02-7.29-4.47-8.76-8.74,0,0,.03-.03.03-.03Z"/>
        <path class="cls-2" d="M382.66,298.19q.53-2.74,3.78-2.99c1,.59,1.68,1.38,1.14,2.58-.43.96-1.37,1.22-2.37,1.18-.91-.03-1.91.16-2.56-.77Z"/>
        <path class="cls-36" d="M404.45,296.61c1.46.05,2.97-.2,4.22.87.15,1.12.2,2.26-1.18,2.62-1.08.28-2.19.14-3-.73-.8-.86-1.22-1.82-.04-2.75Z"/>
        <path class="cls-63" d="M289.74,279.38c.03-1.07.56-1.8,1.55-2.19.91.01,2.21-.15,2.25,1,.04,1.19-1.17,1.96-2.22,2.4-.96.4-1.51-.21-1.58-1.21Z"/>
        <path class="cls-63" d="M294.04,274.25c.06-.37.28-.61.63-.71.49-.3.95-.66,1.48-.9.73-.33,1.2.11,1.09.77-.15.92-.61,1.87-1.47,2.29-1.44.71-1.19-.9-1.74-1.45Z"/>
        <path class="cls-63" d="M285.31,285c-.04-.22-.1-.44-.2-.65.13-.23.26-.45.39-.68,1.56.23,2.8.97,4.2,2.68-1.89-.39-3.32-.14-4.39-1.36Z"/>
        <path class="cls-63" d="M370.48,225.39c-.5.3-.97.66-1.5.9-.58.27-1.13.96-1.86.34-.13-.11-.12-.46-.07-.66.18-.77.61-1.21,1.49-1.12.44.04.91-.12,1.37-.19.19.24.38.48.57.72Z"/>
        <path class="cls-63" d="M348.12,239.58c.34.03.69.04,1.03.09.61.1,1.08.37,1.07,1.09,0,.38-.18.67-.57.72-.7.1-1.03-.41-1.28-.92-.15-.3-.16-.66-.23-1,0,0-.02.02-.02.02Z"/>
        <path class="cls-63" d="M337.2,252.01c.42.53.65.7.63.83-.07.5-.41.85-.87.98-.4.12-.72-.04-.49-.54.19-.42.46-.81.73-1.27Z"/>
        <path class="cls-29" d="M506.19,319.03c.58.26.85.73.7,1.33-.12.49-.44.32-.7.06v-1.39Z"/>
        <path class="cls-57" d="M436.96,143.49c1.51-2.9,2.49-3.22,5.31-2.27,2.77.94,4.48,3.05,6.32,5.07.52.57.72,1.27.43,1.99-.93,2.32-.38,4.74-.49,7.1-.07,1.52-.23,2.94,1.69,3.89,1.22.6,1.76,2.35.54,3.72-.97,1.09-1.05,2.16-.18,3.21,2.04,2.44,1.73,5.06.79,7.77-1.11-1-1.09-2.62-2.03-3.71-.81-1.9-.61-3.94-.8-5.92-.12-1.19-.06-2.39-.64-3.49-.23-2.75-.26-5.5-.2-8.25.06-3.28-1.02-6.03-4.21-7.54-.72-.48-1.42-1.01-2.27-1.28-.67-.03-1.35-.05-2.02-.08-.75-.08-1.49-.15-2.23-.23Z"/>
        <path class="cls-57" d="M447.89,160.87c1.21.85,1.32,2.14,1.36,3.44.05,1.99.06,3.97.09,5.97-1.57-2.97-1.75-6.15-1.45-9.41Z"/>
        <path class="cls-57" d="M441.21,143.8c1.05-.1,1.79.35,2.27,1.28-1.03.05-1.79-.37-2.27-1.28Z"/>
        <path class="cls-49" d="M500.47,363.66c.72,0,1.44.01,2.17.02.63.2,1.49-.09,1.95,1.37-3.5.04-6.84.86-10.13-.54-.78-.33-1.49-.72-2.36-.72-4.48,0-8.46-1.95-12.53-3.43-1.13-.41-2.2-.8-3.38-.96-.72-.1-.94-.65-1.04-1.28-.25-.39-.2-.73.16-1.03,1.97-.43,3.85-.14,5.52.97,1.66,1.09,3.49,1.56,5.41,1.85,4.88.71,9.64,1.9,14.22,3.74Z"/>
        <path class="cls-31" d="M475.21,357.29c-.02.28-.04.56-.05.84-4.22.26-7.42-2.35-10.93-4.01-.93-.44-1.8-1.02-2.83-1.34-2.83-.88-2.82-.91-2.85-3.97,0-.48-.01-.96-.01-1.44.53-1.27-.79-3.29,1.54-3.84.91.81.97,1.93.89,2.98-.17,2.42,1.05,3.81,3.15,4.61,3.11,1.18,5.53,3.73,8.91,4.43.89.18,1.7.86,2.19,1.74Z"/>
        <path class="cls-26" d="M398.65,332.76c3.24.76,4.36,2.3,4.32,5.9-2.35-1.3-3.03-3.83-4.32-5.9Z"/>
        <path class="cls-9" d="M269.89,216.55c-.11.65-.55,1.06-1.07,1.36-3.88,2.26-7.4,5.05-11.31,7.29-2.05,1.17-3.84,2.83-5.63,4.4-5.15,4.52-11.34,7.69-16.3,12.47-1.71,1.65-3.58,3.16-5.41,4.69-.55.46-1.19.8-1.82,1.15-.49.27-1,.06-1.3-.29-.48-.58.3-.68.51-1,1.45-2.24,3.81-3.54,5.76-5.19,2.51-2.13,4.79-4.6,7.69-6.31,5.84-3.43,10.4-8.61,16.07-12.18,3.61-2.27,7.14-4.72,10.89-6.79.57-.31,1.07-.54,1.64-.17.15.11.19.39.28.59Z"/>
        <path class="cls-47" d="M235.84,263.83c-.23-.19-.53-.31-.57-.48-.17-.76.09-1.45.68-1.9,2.24-1.73,4.52-3.4,6.78-5.09,7.94-5.94,16.81-10.44,24.93-16.09.64-.45,1.4-.96,1.85-.31.61.85-.27,1.37-.93,1.93-5.42,4.6-12.07,7.26-17.78,11.4-4.49,3.25-9.07,6.37-13.61,9.56-.46.33-.91.66-1.36.99Z"/>
        <path class="cls-71" d="M247.88,288.59c3.21-3.66,7.36-5.62,11.1-8.1,4.44-2.95,8.63-6.28,13.36-8.81.72-.39,1.4-1.32,2.03-.54.76.93-.04,1.79-.94,2.29-3.76,2.07-7.37,4.38-10.77,6.97-3.78,2.89-8.18,4.87-11.81,7.96-.88.75-1.66,1.37-2.97.24Z"/>
        <path class="cls-4" d="M266.16,262.23c.57,1.18.68,1.89-.42,2.64-5.52,3.74-10.92,7.65-16.48,11.33-1.89,1.25-3.31,3.01-5.24,4.16-.57.34-1.2.34-1.59-.22-.32-.46.04-.88.42-1.21,4.6-4.04,9.67-7.45,14.67-10.96,2.76-1.94,5.62-3.74,8.66-5.75Z"/>
        <path class="cls-28" d="M239.39,272.06c-.79-1.94.45-2.72,1.55-3.33,5.29-2.93,10.02-6.72,15.13-9.9,1.9-1.19,3.87-2.2,5.47-3.83.41-.41,1.16-.42,1.64.06.57.56.19,1.18-.24,1.55-1.43,1.23-2.77,2.68-4.42,3.49-5.66,2.81-10.42,6.98-15.82,10.17-1.02.6-1.91,1.43-3.32,1.8Z"/>
        <path class="cls-61" d="M280.54,279.27c-1.74,2.64-4.56,4.01-7.08,5.56-4.81,2.96-9.62,5.91-14.26,9.12-.61.42-1.23.7-1.88.95-.6.23-1.22.28-1.41-.52-.14-.58-.12-1.18.57-1.5,5.88-2.77,10.77-7.15,16.56-10.12,2.51-1.29,4.63-3.41,7.26-4.64.45.3.48.69.24,1.14Z"/>
        <path class="cls-51" d="M253.25,238.87c-.14.73-.45,1.29-1.15,1.7-3.88,2.28-6.68,5.91-10.65,8.17-2.73,1.55-4.93,4.04-7.31,6.18-.61.55-1.22.95-1.81.34-.68-.7.01-1.31.52-1.78,2.67-2.5,5.53-4.76,8.45-6.96,3.5-2.63,6.93-5.35,10.37-8.05.45-.35.85-.35,1.31-.17.28.1.36.31.27.58Z"/>
        <path class="cls-44" d="M273.17,223.53c.04.56-.21.92-.66,1.18-5.07,2.86-9.23,6.93-13.83,10.4-.38.28-.67.69-1.16.72-.33.03-.74.02-.98-.15-.44-.31-.44-.83-.18-1.28.18-.3.41-.6.69-.81,4.41-3.35,8.82-6.69,13.24-10.01.46-.35.79-.93,1.48-.92.66,0,1.14.27,1.4.87Z"/>
        <path class="cls-12" d="M265.72,253.76c-.25-.13-.5-.2-.65-.36-.28-.3-.21-.69.03-.95.95-1.05,1.82-2.23,2.92-3.09,4.2-3.27,8.39-6.55,12.37-10.08.58-.52,1.35-.84,1.88-.14.57.76-.17,1.24-.75,1.69-3.54,2.74-6.54,6.14-10.47,8.42-1.19.69-1.98,2.04-3.06,2.96-.69.58-1.28,1.41-2.27,1.55Z"/>
        <path class="cls-72" d="M280.43,232.08c-.12.25-.19.68-.43.85-2.14,1.47-4.29,2.91-6.47,4.31-.52.33-1.27.45-1.61-.14-.3-.52,0-1.24.53-1.58,2.11-1.34,4.22-2.68,6.22-4.19.54-.41,1.41-.25,1.77.75Z"/>
        <path class="cls-66" d="M279.8,254.06c-.86,0-1.73,0-2.59-.01,1.39-2.7,3.64-4.11,7.27-4.63-.94,1.25-.98,2.4-2.34,2.69-1.1.24-1.76,1.07-2.35,1.95Z"/>
        <path class="cls-26" d="M280.54,279.27c-.08-.38-.17-.76-.25-1.14.5-.07,1.01-.14,1.51-.21l-.04-.04c0,.81-.24,1.44-1.22,1.4Z"/>
        <path class="cls-15" d="M475.21,357.29c-2.76-1.42-6.07-1.35-8.54-3.87-1.1-1.13-3.25-1.85-5.04-2.44-1.31-.43-1.58-1.2-1.54-2.41.05-1.68,0-3.35-.01-5.03.13-4.34-.09-8.67-.76-12.96,4.01-2.43,8.43-3.04,13.02-2.84-.36,2.51-1.61,3.93-4.34,3.58-1.12-.14-2.09.42-3.13.68-1.6.41-2.18,1.48-1.75,2.97.85,2.96.66,5.85-.03,8.82-.7,3.04,0,3.66,2.66,5.25,2.53,1.51,5.51,2.37,7.48,4.77.32.39.8.62,1.27.44,2.07-.76,3.56.78,5.32,1.17,5.43,1.2,10.34,4.27,16.17,4.13,3.44-.09,4.19.97,4.49,4.12-2.13.17-4.02-.18-6.09-1.11-2.52-1.13-5.54-1.15-8.33-1.69-2.17-.42-4.41-.39-6.13-2.32-1.13-1.27-3.31-.13-4.71-1.26Z"/>
        <path class="cls-15" d="M473.77,327.7c2.53-1.7,5.38-1.47,8.21-1.41,2.49.06,4.99.06,7.49.02,2.73-.04,5.45-.05,8.11.68-.58,1.48-1.48,2.37-3.26,2.17-3.67-.42-7.35.63-11.04,0-1.73-.3-3.29.48-4.9.94-2.41.69-3.33.2-4.62-2.4Z"/>
        <path class="cls-15" d="M496.15,234.73c.01-.83,0-1.64.52-2.38,1.11-1.58,2.7-1.76,3.79-.21.94,1.34,1.73,2.81.76,4.59-.77,1.43-1.96,1.64-3.32,1.38-1.96-.37-1.73-1.96-1.75-3.38Z"/>
        <path class="cls-15" d="M499.03,326.98q3.65-1.49,7.21.06c-.3,2.12-1.95,2.73-3.63,2.71-1.68-.02-3.34-.63-3.58-2.77Z"/>
        <path class="cls-15" d="M551.67,307.5c.02,3.82.05,7.64.04,11.46,0,1.04.28,2.18-.67,3.02-1.03-1.6-.74-3.4-.76-5.15-.02-2.12.02-4.24-.01-6.36-.02-1.24.13-2.37,1.41-2.97Z"/>
        <path class="cls-15" d="M486.03,227.77c-.04.98-.13,2.08-1.33,2.18-1.25.1-1.55-.95-1.49-1.96.07-1.05.28-2.38,1.56-2.4,1.19-.03,1.22,1.21,1.26,2.18Z"/>
        <path class="cls-15" d="M493.99,252.45c-.96-.29-1.44-.85-1.34-1.59.17-1.28,1.22-1.63,2.3-1.55.65.05.93.66.69,1.31-.32.88-.72,1.71-1.65,1.83Z"/>
        <path class="cls-15" d="M490.11,242.65c.7.13.96.61.85,1.28-.08.48-.33.98-.86,1-.71.02-1.01-.51-1.06-1.16-.05-.72.34-1.08,1.07-1.12Z"/>
        <path class="cls-15" d="M551.01,323.32c1.03,1.95,1.05,3.9,0,5.85v-5.85Z"/>
        <path class="cls-58" d="M461.56,288.52c.28-2.87,2.9-5.14,5.6-4.85,2.57.28,4.65,2.92,4.39,5.6-.29,3.02-2.64,4.87-5.74,4.51-2.66-.31-4.51-2.61-4.25-5.27Z"/>
        <path class="cls-7" d="M334.46,371.76c.08-.94-.33-2.13.42-2.77,2.18-1.87,1.65-4.31,1.74-6.66.07-2.09,1.59-3.66,3.66-3.84,2.09-.18,3.17.65,3.51,3.13.17,1.23.4,2.43,1.12,3.35.86,1.1.77,1.83-.22,2.72-1.26,1.12-.86,2.67-.79,4.07.09,1.96,1.57,2.1,3.09,2.19,1.12.06,1.27.93,1.17,1.83-.05.46-.15.96-.38,1.36-.86,1.5-5.95,3.59-7.45,2.77-1.47-.81-3.41.02-4.55-1.55-.61-.84-1.35-4.54-1.32-6.6Z"/>
        <path class="cls-11" d="M353.08,340.76c-1.43-.06-2.9.09-4.14-.85-.85-.64-.89-1.38-.02-2.04,1.24-.93,2.68-.9,4.11-.71.92.13,1.74.81,2.76.41.69-.27,1.44-.46,1.65.58.21,1.05-.12,2-1.19,2.29-1.02.27-2.11.22-3.17.32Z"/>
        <path class="cls-11" d="M371.28,328.41c2.89-.01,5.77-.02,8.66-.03.08,1.28-.03,2.52-.72,3.64-1.93.56-3.85.56-5.78,0-2.05-.41-2.07-2.04-2.16-3.61Z"/>
        <path class="cls-11" d="M375.07,337.87c2.58.23,1.94,2.51,2.37,3.9.41,1.32-.82,2.35-2.07,2.36-2.56.01-1.87-2.43-2.31-3.81-.43-1.33.87-2.02,2.02-2.44Z"/>
        <path class="cls-11" d="M373.93,384.83c-.26,1.11-1.17,1.29-2.18,1.31-1.61.03-3.38-1.22-3.08-2.3.29-1.1,1.1-1.87,2.33-1.92.99-.04,2.96,1.91,2.94,2.91Z"/>
        <path class="cls-11" d="M381.28,353.14c.11,1.02-1.1,2.33-2.29,2.27-1.23-.07-2.41-.55-2.53-1.99-.1-1.35.88-1.8,2.07-1.89,1.54-.12,2.63.52,2.74,1.62Z"/>
        <path class="cls-11" d="M388.47,370.75c-.02.72-.64,1.06-1.34,1.2-.91.18-1.26-.46-1.28-1.22-.03-.92.64-1.14,1.41-1.12.64.01,1.12.26,1.21,1.13Z"/>
        <path class="cls-11" d="M373.45,332.02h5.78c-1.93,1.1-3.85,1.1-5.78,0Z"/>
        <path class="cls-11" d="M380.57,328.38c1.5-1.05,3.01-.7,4.51,0-1.5,0-3.01,0-4.51,0Z"/>
        <path class="cls-11" d="M389,376.32c.39-.05.72.07.71.5-.01.41-.37.58-.74.57-.21-.01-.56-.17-.58-.29-.04-.39.25-.63.61-.77Z"/>
        <path class="cls-15" d="M391.42,332.06c.02-.49.04-.98.06-1.48,2.99,1.5,3.71,4.15,3.63,7.2-.96-.62-.88-1.79-1.42-2.65-.42-.67-.6-1.5-1.6-1.54-.63-.33-.53-.99-.67-1.54Z"/>
        <path class="cls-26" d="M425.51,315.42c3.12-.88,6.19,1,9.36,2.31,2.08.86,3.19,3.43,2.54,5.34-.56,1.64-1.55,2.63-3.45,2.46-.85-.08-1.66-.17-2.43-.54-3.77-1.78-7.56-3.52-11.31-5.35-.93-.46-1.85-1.05-1.51-2.49.36-1.51,1.28-1.82,2.63-1.75,1.19.06,2.39.01,4.17.01Z"/>
        <path class="cls-26" d="M440.45,337.68c-1.29-.68-2.86-.91-2.62-2.69.15-1.14,1.07-1.55,2.12-1.47,1.32.09,2.41.79,2.49,2.12.06,1.21-1.05,1.7-1.99,2.05Z"/>
        <path class="cls-10" d="M397.45,239.59c1.25-6.31,3.58-12.04,8.09-16.73-3.63,5.17-4.23,11.73-8.09,16.73Z"/>
      </g>
      <circle class="cls-38" cx="424.31" cy="168.42" r="3.59"/>
      <circle class="cls-38" cx="395.61" cy="168.42" r="3.59"/>
      <path class="cls-38" d="M395.61,197.12c1.4,1.76,4.94,5.67,10.76,7.17,7.49,1.93,15.74-.9,21.52-7.17"/>
      <path class="cls-67" d="M395.61,197.12c1.4.95,4.94,3.05,10.76,3.86,7.49,1.04,15.74-.48,21.52-3.86"/>
      <path class="cls-73" d="M406.38,175.6c.03.79.05,2.05,0,3.59-.15,4.72-.8,6.17,0,7.17.65.82,2.34,1.44,7.17,0"/>
    </g>
  </g>
</svg>