<?xml version="1.0" encoding="UTF-8"?>
<svg id="Livello_2" data-name="Livello 2" xmlns="http://www.w3.org/2000/svg" viewBox="0 0 750.31 725.49">
  <defs>
    <style>
      .cls-1 {
        fill: #fcd99e;
      }

      .cls-1, .cls-2, .cls-3, .cls-4, .cls-5, .cls-6, .cls-7, .cls-8, .cls-9, .cls-10, .cls-11, .cls-12, .cls-13, .cls-14, .cls-15, .cls-16, .cls-17, .cls-18, .cls-19, .cls-20, .cls-21, .cls-22, .cls-23, .cls-24, .cls-25, .cls-26, .cls-27, .cls-28, .cls-29, .cls-30, .cls-31, .cls-32, .cls-33, .cls-34, .cls-35, .cls-36, .cls-37 {
        stroke-width: 0px;
      }

      .cls-2 {
        fill: #ebb899;
      }

      .cls-3 {
        fill: #b9bcaa;
      }

      .cls-4 {
        fill: #49555d;
      }

      .cls-5 {
        fill: #7b4249;
      }

      .cls-6 {
        fill: #f4c17e;
      }

      .cls-7 {
        fill: #bb907f;
      }

      .cls-8 {
        fill: #aeb3a5;
      }

      .cls-9 {
        fill: #4f855b;
      }

      .cls-10 {
        fill: #5f7d78;
      }

      .cls-11 {
        fill: #40678a;
      }

      .cls-12 {
        fill: #472355;
      }

      .cls-13 {
        fill: #5c5176;
      }

      .cls-14 {
        fill: #d3d8c4;
      }

      .cls-15 {
        fill: #6b4334;
      }

      .cls-16 {
        fill: #d1d6c3;
      }

      .cls-17 {
        fill: #80a76d;
      }

      .cls-18 {
        fill: #f1b498;
      }

      .cls-19 {
        fill: #8f7074;
      }

      .cls-20 {
        fill: #2c6b81;
      }

      .cls-21 {
        fill: #edeceb;
      }

      .cls-22 {
        fill: #aeb2a4;
      }

      .cls-23 {
        fill: #f6b89c;
      }

      .cls-24 {
        fill: #af8150;
      }

      .cls-25 {
        fill: #6e432d;
      }

      .cls-26 {
        fill: #fefffe;
      }

      .cls-27 {
        fill: #2f3e57;
      }

      .cls-28 {
        fill: #fefefe;
      }

      .cls-29 {
        fill: #7c4449;
      }

      .cls-30 {
        fill: #703f47;
      }

      .cls-31 {
        fill: #f7c057;
      }

      .cls-32 {
        fill: #3d4c3b;
      }

      .cls-33 {
        fill: #f0b398;
      }

      .cls-34 {
        fill: #2a394e;
      }

      .cls-35 {
        fill: #f2ba94;
      }

      .cls-36 {
        fill: #a2d1b4;
      }

      .cls-37 {
        fill: #4b7ba8;
      }
    </style>
  </defs>
  <g id="illustrazioni">
    <g>
      <path class="cls-9" d="M452.68,383.41s64.92-71.77,90.62-59.67c25.68,12.1,79.03,50.6,92.44,41.84,13.41-8.76,32.42-22.53,50.57-20.06,18.15,2.46,39.79,42.86,51.05,31.32,11.28-11.53-.94,100.52-.94,100.52l-241.96-16.58-41.78-77.36v-.02Z"/>
      <path class="cls-17" d="M697.2,348.83c-3.96-1.22-5.56-4.4-6.26-8.05-1.02-5.39-.34-10.49,3.66-14.69.73-1.13,1.72-1.65,3.07-1.42,1.51.09,2.97.43,4.37,1.02,5.07,5.1,5.28,11.19,3.52,17.64-.15.59-.4,1.16-.6,1.73-.42,2.04-1.98,3.01-3.62,3.91-.56.23-1.14.37-1.75.37-.85.05-1.7.12-2.39-.51h-.02Z"/>
      <path class="cls-25" d="M699.8,348.85c-.59,2.19-.09,4.45-.29,6.66-.06.71.6,1.92-.93,1.93-1.55,0-.77-1.22-.99-1.92-.03-.12-.03-.25-.05-.37-.02-2.1.25-4.23-.32-6.3h2.6-.02Z"/>
      <path class="cls-17" d="M723.19,421.19c-2.5,0-4.99-.14-7.34-1.08-2.21-.88-3.91-2.29-4.56-4.71-.83-3.12.37-5.04,3.65-5.76-.03-.48-.48-.56-.74-.82-1.67-1.59-2.05-4-.97-6.03,2.22-4.19,9.98-5.18,13.16-1.68,1.13,1.24,1.67,2.78,2.12,4.36.4-.06.54-.4.79-.63,2.44-2.24,5.55-1.95,7.45.79,1.55,2.22,2.26,4.73,1.98,7.43-.28,2.77-1.68,4.82-4.17,6.09-2.49,1.27-5.18,1.75-7.93,1.99-.65-1.17-.39-2.44-.23-3.65.28-2.16.32-4.36.65-6.52.03-.17.02-.34-.17-.57-.77.8-1.25,1.76-1.72,2.75-1.05,2.32-1.11,2.32-2.9.59-.45-.43-.93-.85-1.51-1.25,1.19,2.3,2.21,4.62,2.69,7.11.11.53.34,1.1-.23,1.55v.06Z"/>
      <path class="cls-19" d="M723.19,421.19c-.08-3.23-1.47-6.03-2.94-8.79-.11-.2-.42-.36-.17-.74,1.21.71,2.22,1.65,3.17,2.66.53.54.79.7,1.1-.19.48-1.38,1.25-2.63,2.04-3.85.19-.28.37-.7.74-.62.45.11.28.57.25.88-.17,2.18-.31,4.36-.6,6.5-.19,1.38-.11,2.73-.17,4.11-.31,1.36-.6,2.7-.22,4.09.12.79.37,1.56-.34,2.24-1.21,1.14-2.58.65-3.31-1.24.14-1.7.49-3.37.45-5.08v.02Z"/>
      <path class="cls-9" d="M6.79,416.44s71.88-57.91,100.31-48.14c28.43,9.76,87.48,40.84,102.31,33.76,14.85-7.08,35.88-18.17,55.98-16.19,20.1,1.99,44.03,34.58,56.52,25.28,12.48-9.3-72.57,91.58-72.57,91.58l-196.3-23.84-46.24-62.42v-.02Z"/>
      <path class="cls-36" d="M158.81,129.69c-20.97-.06-41.92-.12-62.88-.19-9.7-.05-19.42-.06-29.12-.17-1.16,0-2.9.82-3.35-.85-.31-1.11,1.19-1.72,2.1-2.3,9.66-6.1,20.33-9.13,31.6-10.24,3.06-.29,5.86,1.08,8.53,2.38,4.28,2.09,8.25,2.46,12.73.09,7.54-3.99,15.68-5.53,24.32-4.99,7.06.45,14.32.99,21.24-.06,14.32-2.18,23.05,7.48,33.25,14.23.4.26.97.93.88,1.19-.43,1.16-1.56.63-2.36.65-8.41.03-16.81-.03-25.2,0-3.91,0-7.83.17-11.74.26h.02Z"/>
      <path class="cls-36" d="M226.17,176.9c-20.97-.06-41.92-.12-62.88-.19-9.7-.05-19.42-.06-29.12-.17-1.16,0-2.9.82-3.35-.85-.31-1.11,1.19-1.72,2.1-2.3,9.66-6.1,20.33-9.13,31.6-10.24,3.06-.29,5.86,1.08,8.53,2.38,4.28,2.09,8.25,2.46,12.73.09,7.54-3.99,15.68-5.53,24.32-4.99,7.06.45,14.32.99,21.24-.06,14.32-2.18,23.05,7.48,33.25,14.23.4.26.97.93.88,1.19-.43,1.16-1.56.63-2.36.65-8.41.03-16.81-.03-25.2,0-3.91,0-7.83.17-11.74.26h.02Z"/>
      <path class="cls-36" d="M98.54,251.25c-11.93-.06-23.87-.12-35.8-.19-5.53-.05-11.05-.06-16.58-.17-.66,0-1.65.82-1.92-.85-.17-1.11.68-1.72,1.19-2.3,5.5-6.1,11.57-9.13,17.98-10.24,1.75-.29,3.34,1.08,4.85,2.38,2.44,2.09,4.7,2.46,7.25.09,4.3-3.99,8.93-5.53,13.84-4.99,4.02.45,8.16.99,12.1-.06,8.16-2.18,13.13,7.48,18.93,14.23.23.26.56.93.51,1.19-.25,1.16-.88.63-1.34.65-4.79.03-9.56-.03-14.35,0-2.22,0-4.45.17-6.69.26h.03Z"/>
      <path class="cls-36" d="M524.91,121.37c-20.97-.06-41.92-.12-62.88-.19-9.7-.05-19.42-.06-29.12-.17-1.16,0-2.9.82-3.35-.85-.31-1.11,1.19-1.72,2.1-2.3,9.66-6.1,20.33-9.13,31.6-10.24,3.06-.29,5.86,1.08,8.53,2.38,4.28,2.09,8.25,2.46,12.73.09,7.54-3.99,15.68-5.53,24.32-4.99,7.06.45,14.32.99,21.24-.06,14.32-2.18,23.05,7.48,33.25,14.23.4.26.97.93.88,1.19-.43,1.16-1.56.63-2.36.65-8.41.03-16.81-.03-25.2,0-3.91,0-7.83.17-11.74.26h.02Z"/>
      <path class="cls-36" d="M686.61,171.94c-12.79-.09-25.6-.19-38.39-.26-5.93-.06-11.85-.09-17.78-.25-.71-.02-1.78,1.14-2.05-1.19-.19-1.56.73-2.43,1.28-3.23,5.9-8.56,12.41-12.82,19.3-14.37,1.87-.42,3.58,1.51,5.21,3.34,2.61,2.92,5.04,3.45,7.77.12,4.6-5.59,9.58-7.76,14.85-7,4.31.62,8.75,1.39,12.98-.09,8.75-3.06,14.08,10.49,20.3,19.98.25.37.6,1.31.54,1.67-.26,1.62-.94.9-1.45.9-5.13.05-10.26-.03-15.39,0-2.39.02-4.77.25-7.17.37l.02.02Z"/>
      <path class="cls-36" d="M614.7,249.81c-17.32-.05-34.66-.11-51.98-.15-8.02-.03-16.05-.05-24.07-.14-.96,0-2.39.68-2.78-.7-.25-.93.97-1.42,1.73-1.9,7.99-5.04,16.81-7.56,26.13-8.47,2.53-.25,4.85.9,7.05,1.96,3.54,1.73,6.81,2.02,10.52.08,6.24-3.29,12.96-4.57,20.12-4.13,5.84.37,11.84.82,17.57-.05,11.85-1.81,19.07,6.18,27.49,11.76.34.22.8.77.73.97-.36.96-1.28.53-1.96.53-6.95.03-13.89-.02-20.84,0-3.23,0-6.47.14-9.7.22l.02.02Z"/>
      <path class="cls-1" d="M6.79,433.52c-.68-1.68-1.58-3.31-2.01-5.05-2.15-8.48-3.62-17.04-4.45-25.79-1.17-12.3.91-24.09,4.09-35.75,4.42-16.16,10.91-31.57,17.43-46.97,7.54-17.83,14.91-35.77,19.08-54.77,1.51-6.94,2.24-14.04,3.31-21.09,1.38-9.19.73-18.45.54-27.66-.11-5.59-1.16-11.19-1.85-16.76-1.33-10.74-3.62-21.31-6.37-31.77-1.84-7.01-4.03-13.95-5.61-21.01-1.08-4.91-1.65-9.98-1.96-15-.46-7.25-.76-14.51-.65-21.77.15-10.69,2.26-21.06,6.84-30.78,3.01-6.38,7.05-12.19,11.59-17.57,3.65-4.31,7.26-8.71,11.39-12.55,5.39-5.02,11.11-9.7,16.95-14.2,11.25-8.68,23.99-14.62,37.21-19.64,5.08-1.93,10.21-3.6,15.59-4.42,3.18-.48,6.38-1.1,9.58-1.08,8.07.05,16.18,0,24.2.74,9.02.82,17.97,2.5,26.96,3.71,2.39.32,4.84.36,7.25.31.83,0,1.72-.57,2.47-1.05,10.34-6.44,21.62-10.26,33.59-12.13,8.68-1.36,17.44-1.75,26.2-1.28,12.48.66,24.63,3.32,36.29,7.85,7.96,3.09,15.79,6.46,23.69,9.7,14.28,5.87,28.44,12.07,43.66,15.27,7.09,1.48,14.23,2.52,21.46,3.24,9.93,1.02,19.84.48,29.76.48,4.57,0,9.15-.77,13.72-1.19,5.38-.49,10.77-.88,16.15-1.51,7.18-.85,14.37-1.79,21.52-2.86,6.47-.97,12.92-2.12,19.36-3.29,6.44-1.17,12.89-2.39,19.3-3.75,12.04-2.55,24.01-5.41,36.08-7.79,9.13-1.79,18.36-3.09,27.55-4.51,7.42-1.14,14.91-1.67,22.39-1.27,14.32.76,28.29,3.29,41.78,8.45,11.7,4.47,22.84,9.98,33.17,17.04,7.91,5.42,15.17,11.65,21.83,18.57,5.15,5.35,8.92,11.65,12.82,17.86,4.56,7.23,8.9,14.65,11.12,22.98,2.39,8.99,5.05,18.02,6.21,27.21.96,7.57.17,15.42-.32,23.13-1.08,17.2-6.55,33.59-9.61,50.42-1.17,6.44-1.98,12.95-3,19.41-1.59,10.03-2.33,20.13-1.96,30.28.43,12.08,1.62,24.1,5.16,35.75,3.01,9.92,6.09,19.82,9.25,29.7,2.64,8.25,6.38,16.04,10.1,23.86,4.56,9.58,8.61,19.39,12.79,29.12,1.73,4.02,3.31,8.11,4.87,12.21,2.8,7.34,4.53,14.94,5.7,22.71,1.5,9.98,1.36,19.99,1.22,30.02-.05,2.83-.74,5.64-1.14,8.47-2.73-.22-4.96-1.53-6.97-3.29-.63-1.67-.46-3.41-.46-5.13,0-13.36-.14-26.75.06-40.11.08-5.11-.87-9.83-3.17-14.32-1.16-2.26-1.96-4.67-3.07-6.95-.46-.83-1-1.64-1.55-2.43-1.76-5.78-4.9-10.97-7.52-16.33-5.02-10.27-9.76-20.69-14.96-30.87-2.21-4.33-3.68-8.98-5.16-13.6-.96-2.95-2.6-4.26-5.82-4.14-5.53.22-11.09.14-16.64,0-1.28-.03-3.12.7-3.55-1.53,1.3-1.31,3-1.07,4.57-1.08,4.62-.05,9.24,0,13.86-.03,1.25,0,2.55.19,3.72-.54.76-.97.31-1.99,0-2.95-1.45-4.64-3.15-9.18-4.5-13.84-.76-2.64-2.75-2.73-4.91-2.73h-34.66c-11.33,0-22.65.08-33.96-.05-4.16-.05-4.88-1-3.97-4.62,1.75-1.27,3.77-.93,5.7-.93,21.49-.03,42.98,0,64.49-.02,5.22,0,5.39-.14,4.73-5.24-1.56-11.99-.46-23.99.29-35.94,1.34-21.34,5.96-42.3,7.57-63.63.71-9.32,1.16-18.66,1.56-28,.25-5.65.66-11.31.66-16.95-.03-10.99-1.02-21.92-4.53-32.46-1.21-4.67-4.2-7-8.98-7h-213.16c-7.26,0-7.54.26-7.56,7.63,0,75.08,0,150.15-.02,225.24,0,2.29.36,4.64-.65,6.83-2.36,1.53-2.69-.85-3.34-1.96-2.98-5.13-6.54-9.78-10.89-13.83-1.7-1.58-3.52-3-5.33-4.42-1.19-.94-2.55-1.79-4.08-1.76-3.94.09-7.17-1.73-10.21-3.8-6.94-4.71-14.65-5.19-22.62-4.56-1.28.11-2.78.28-3.51,1.28-2.15,2.94-5.33,3.32-8.47,4.09-10.43,2.55-18.23,8.62-23.61,17.86-3.68,6.3-3.04,13.02-2.26,19.87.4,3.49,1.65,7,.54,10.58-6.61,5.16-6.18,14.43.91,18.63,1.27.76,2.09,1.73,2.66,3.04,3.31,7.6,7.57,14.48,14.49,19.39,1.58,1.11,2.18,2.63,1.48,4.53-.4.77-1.04,1.36-1.67,1.93-13.12,8.85-26.17,17.77-38.86,27.24-.59.77-.8,1.75-1.41,2.52-10.55,9.66-21.41,18.94-31.84,28.74-1.55,1.45-3.12,3.45-5.47,1.08.4-3.34-2.38-4.37-4.36-5.99-1.59-2.29-2.49-4.93-3.54-7.46-4.93-11.88-10.09-23.67-14.79-35.66-1.47-3.74-2.5-7.65-1.64-11.79.31-9.7,0-19.41,0-29.11V95.27c0-2.77.08-5.55-.49-8.28-.74-3.57-1.67-4.36-5.38-4.59-.7-.05-1.39-.03-2.09-.03H46.3c-5.05,0-5.76.45-6.52,3.83-.05.22.05.46.14.77,1.44,1.22,3.23.76,4.9.76,29.12.03,58.25,0,87.36.05,1.98,0,4.23-.6,5.75,1.44-1.51,2.09-3.79,1.38-5.75,1.38-29.02.06-58.02.03-87.03.03-7.79,0-8.02-.03-9.16,7.82-2.16,14.86-1.85,29.7,1.61,44.39,4.08,17.32,7.88,34.7,12.36,51.93,3.26,12.5,3.32,25.32,2.47,38.21-.77,11.8-2.39,23.42-4.88,34.96-.7,3.21-.26,3.62,3.48,3.63,15.48.03,30.98,0,46.46,0h35.72c1.82,0,3.72-.29,5.38.85,1.14,2.3.19,3.48-2.12,3.86-1.48.25-3,.17-4.5.17H51.35c-5.96,0-6.04,0-7.46,5.76-1.38,5.59-3.65,10.94-4.76,16.61-3.92,7.65-6.71,15.78-9.75,23.79-.62.99-1.04,2.05-1.36,3.17-.19.56-.23,1.16-.48,1.67-5.01,10.41-5.45,21.48-5.3,32.8.31,22.28.09,44.58.08,66.87,0,1.93.31,3.96-.82,5.75-4.87,1.56-9.8,1.47-14.77.63l.06.02Z"/>
      <path class="cls-1" d="M72.12,699.21c-2.16-8.2-2.89-16.52-1.73-24.95.11-.8.14-1.61.14-2.41-.03-8.9,1.28-17.64,3.23-26.3,2.43-10.77,5.15-21.48,7.45-32.26,1.19-5.59,1.85-11.33,2.53-17.01.45-3.88.56-7.8.73-11.7.37-8.47-1.34-16.72-2.86-24.97-2.09-11.39-5.81-22.25-10.78-32.71-3.46-7.26-8.34-13.5-13.49-19.59-3.86-4.57-7.66-9.21-11.51-13.78-3.63-4.31-7.25-8.65-11-12.86-5.45-6.1-10.85-12.25-15.16-19.25-.53-.85-.82-1.85-1.22-2.8,1.79-1.82,4.11-1.24,6.23-1.24,46.61-.03,93.21-.03,139.83-.02,1.84,0,3.71-.17,5.47.53,1.21.62,1.39,1.79,1.42,2.94.08,2.43.8,4.81.7,7.2-.12,2.61,1.04,4.36,2.97,5.82.96,3.2,1.07,6.4-.09,9.56-1.9,1.55-4.17.97-6.3,1.04-2.75.09-5.52.05-8.28.03-2.55,0-3.83,1.25-4,3.72-.26,3.79,0,7.59-.25,11.37-.12,2.02,1.39,2.13,2.8,2.18,4.25.12,8.51,0,12.76.06,1.59.03,3.24-.17,4.6.99,1.44,3.15,1.1,6.61,1.27,9.87.53,10.14,1.14,20.27,1.61,30.41.56,11.97,1.11,23.96,1.93,35.92.36,5.07.51,10.15.7,15.2.59,15.79,1.62,31.57,2.36,47.34.68,14.63,1.36,29.26,2.39,43.88.05.7.02,1.39-.08,2.07-.87,3.09-1.98,6.12-1.95,9.39,0,1.02-.23,2.07-1.27,2.67-1.41.66-2.92.6-4.42.6-33.91,0-67.83.02-101.74,0-1.7,0-3.49.23-4.96-1l-.02.03Z"/>
      <path class="cls-1" d="M745.44,458.49c-1.93,6.38-3.41,12.93-5.89,19.08-4.11,10.26-8.64,20.36-13.4,30.35-5.36,11.26-12.41,21.55-19.22,31.98-7.18,11-14.96,21.57-23.18,31.81-6.2,7.71-12.78,15.14-18.7,23.07-4.4,5.89-8.16,12.27-11.93,18.6-3.83,6.44-7.51,12.98-10.89,19.65-6.46,12.78-11.99,25.96-14.88,40.05-1.41,6.84-2.26,13.8-3.37,20.7-.29,1.82-.59,3.63-.88,5.44-1.38,1.16-3.04.96-4.64.96-13.86.03-27.7.03-41.56,0-1.61,0-3.24.12-4.7-.8-.56-.51-.8-1.22-.56-1.87,1.14-3.2.06-6.09-1.14-8.98-.42-11.54-.66-23.08.15-34.61.49-6.92.22-13.86.22-20.78.02-20.21,1.04-40.4.83-60.61-.06-5.5.66-11.05.62-16.59,0-1.04.12-2.09.68-3,.82-.99,1.99-1.05,3.15-1.16.8-.08,1.62-.05,2.43-.12,8-.74,11.25-3.97,11.7-11.91.28-4.96.11-9.92.08-14.89-.06-9.7,1.21-19.33,1.9-28.99.76-10.72.96-21.43.91-32.17,0-1.92-.4-3.97,1.16-5.59,1.59-.93,3.35-.74,5.08-.76,46.91,0,93.83-.02,140.74,0,1.81,0,3.74-.34,5.27,1.1v.05Z"/>
      <path class="cls-22" d="M572.01,698.39c1.17.25,2.36.71,3.54.73,14.48.05,28.97.03,43.45.03,1.38,0,2.75.06,4.13.09-.87,8.58-1.73,17.17-2.61,25.94-1,.09-1.88.2-2.78.26-.7.05-1.39,0-2.09,0H84.24c-5.28,0-4.64.87-6.63-4.5-2.63-7.05-4.3-14.34-5.55-21.72,1.96-.03,3.92-.08,5.89-.08h105.64c6.8-.28,13.6-.48,20.39-.36,1.61.03,3.24-.12,4.79.46,3.83,3.14,7.59,3.38,12.28.76,2.33-.71,4.71-.56,7.03-.08,2.22.46,4.25.19,6.15-1.04.42-.05.8.03,1.17.23,1.53,1.02,3.26,1.04,4.99,1.04,6.23,0,12.44.17,18.66-.05,6.35-.22,12.64.63,18.97.79,3.32.08,6.41-.31,9.1-2.41,1.56-.54,3.18-.48,4.81-.48h57.8c1.61,0,3.23-.06,4.81.43,2.35,1.41,4.9,1.76,7.62,1.75,12.9-.03,25.82.25,38.66-1.56,1.08.05,2.07.37,3.03.88,1.11.63,2.24,1.07,3.6.96,8.75-.65,17.51,0,26.25-.36,5.01-.2,10.12-.08,14.94-1.93,2.72.68,5.48.53,8.24.57,10.34.15,20.69-.37,31.03.28,1.76.46,3.12,1.85,4.94,2.19,5.18.74,10.4.15,15.59.4,2.29-.05,4.57.03,6.83.48,5.21,1.04,9.67-.4,13.52-3.99,1.76-.08,3.52,0,5.25.36,3.24,1.34,6.61,1.85,10.12,1.78,5.98-.14,11.96-.08,17.88,1.05,2.61.49,5.01-.19,7.23-1.61.85-.54,1.53-1.45,2.72-1.28l.02-.03Z"/>
      <path class="cls-6" d="M170.18,458.52c-11.67-.02-23.33-.05-35-.05H22.9c-1.5,0-3,.09-4.5.14-1.58-.29-2.26-1.5-2.83-2.78-2.78-6.2-5.59-12.39-8.27-18.63-.48-1.1-.37-2.46-.53-3.69,4.82-.23,9.66-.48,14.48-.71,2.73-.62,5.55-.17,8.3-.6,8.75.63,17.47.54,26.24.29,24.33-.68,48.67.88,73,.65.93,0,1.84.05,2.77.12,3.49.32,5.59-1.17,6.3-4.48.97-1.88,2.16-.71,3.09-.06,5.79,3.99,12.08,7.12,18.11,10.72,2.67,1.59,5.45,2.97,8.36,4.09,2.18.85,3.31,2.33,3.23,4.74-.08,2.3.08,4.59.48,6.88.2,1.19.46,2.56-.96,3.37h0Z"/>
      <path class="cls-6" d="M745.44,458.49c-50.37,0-100.74.02-151.11.03-1.08-.68-1.5-1.79-1.56-2.92-.25-4.81-.97-9.56-1.24-14.37-.03-.59.17-1.13.51-1.61,3.72-1.53,7.74-1.38,11.57-1.44,10.04-.15,20.09-.7,28.74-.49-2.12-.02-5.65.08-9.18-.05-.97-.03-2.78.6-2.35-1.65,1.68-1.05,3.57-.79,5.39-.79,18-.02,35.98-.2,53.98.05,14.31.2,28.57-.9,42.88-.82,3.91.02,7.79-.96,11.73-.54,2.66.14,5.44-.73,7.88,1.02,2.58-.09,4.47,1.42,6.4,2.81-.17,7.11-1.61,13.98-3.63,20.77h-.02Z"/>
      <path class="cls-4" d="M170.18,458.52c-.17-3.77-.37-7.54-.48-11.33-.05-1.39-.83-1.96-1.93-2.53-6.6-3.46-13.21-6.89-19.75-10.51-3.29-1.82-6.41-3.97-9.61-5.98-3.15-.31-4.9-2.87-7.15-4.56-2.12-1.58-3.68-3.8-5.79-5.44-1.58-1.22-1.7-3.17-1.78-5.05-1.13-27.81,2.09-55.04,11.31-81.41,1.07-3.04,2.07-6.12,2.86-9.25,4.67-8.98,9.56-17.8,15.23-26.24,6.6-9.81,14.46-17.88,25.56-22.42,1.17-.48,2.27-1.11,3.32-1.84,2.32-1.25,4.48-2.98,7.39-2.41,1.5.85,2.15,2.36,2.87,3.8,1.99,3.91,3.99,7.82,5.9,11.76,1.11,2.32,2.46,4.34,4.74,5.78,2.47,1.56,3.32,4.4,4.25,6.97,3.26,8.88,6.67,17.71,10.09,26.53,4.62,11.96,8.37,24.2,12.36,36.36.34,1.05.46,2.26,1.7,3.11,1.22-2.56,1.47-5.22,1.88-7.79,2.67-16.42,5.98-32.68,12.27-48.19,1.34-3.32,1.84-6.91,2.95-10.31.45-1.36.93-2.7,2.41-3.17,3.69-1.17,5.69-4.13,7.74-7.08,1.3-1.87,2.13-4.14,4.3-5.32,1.53-.36,2.6.54,3.72,1.33,5.42,3.8,9.33,8.98,13.02,14.35.17.28.32.57.46.87.23.43.46.87.71,1.3,2.13,3.43,3.51,7.2,4.94,10.94.26.9.7,1.73,1,2.63,2.97,8.68,4.16,17.72,4.67,26.79,1,17.68,1.67,35.38,1.84,53.09,0,5.65,1.96,10.82,4.11,15.93,5.36,12.72,10.75,25.42,16.13,38.13,0,1.7-1.34,2.7-2.39,3.54-4.96,3.97-10.29,7.45-15.74,10.74-1.68-.42-2.35-2.01-3.51-3.04-5.84-7.42-11.93-14.65-15.88-22.11.51,2.6.11,6.35.15,10.07.05,3.92.12,7.85-.06,11.76-.06.56-.23,1.08-.56,1.55-.4.4-.91.56-1.47.57-2.19-.54-3.94-1.96-5.92-2.95-4.42-6.47-3.86-5.25-10.03-2.32-6.09,2.9-10.95,7.54-16.33,11.48-1.36,1-1.61,2.16-.39,3.49.9.97.96,1.81-.43,2.38-4.11,1.53-8.45,1.02-12.67,1.34-12.38.96-24.78,1.93-37.22,1.61-4.48-.12-8.93-.83-13.44-.71-1.04.03-2.07-.17-2.89-.94-3.48-.65-3.41-.65-3.62-4.06-.23-3.74-.57-7.48-.87-11.22v-.02Z"/>
      <path class="cls-6" d="M138.31,272.49c.03-1.27.11-2.53.11-3.8,0-57.69,0-115.39-.02-173.06,0-2.05-.36-4.13-.54-6.18-1.33-.2-2.67-.56-4-.56-30.5-.03-61.01-.03-91.51-.03h-4.13c-.36-2.86.7-4.9,1.92-6.83.28-.45,1.16-.65,1.79-.73,1.02-.12,2.07-.03,3.12-.03h241.26c.93,0,1.85-.08,2.77.03,2.56.29,3.91,1.61,4.13,4.22.29,3.55.65,7.11.65,10.66.03,97.62.03,195.22,0,292.84,0,1.44-.42,2.86-.63,4.3-.19-.65-.51-1.28-.54-1.93-.31-6.67-.57-13.35-.87-20.02-.46-10.58-.79-21.18-1.45-31.75-.57-9.09-2.12-18.03-4.71-26.79.22-.87-.11-1.7-.17-2.55-1.42-3.38-.63-6.95-.85-10.41-.09-.6-.39-.96-1.08-.87-.31.06-.6.09-.93.12-1.19.06-2.36.08-3.32-.8-1.72-2.15-3.48-4.26-5.15-6.46-2.95-3.89-6.54-7.08-10.69-9.61-1.39-1.87-2.56-3.92-4.93-4.84-.77-.29-1.21-.99-.79-1.92.73-.79,1.64-.71,2.56-.62,6.57.56,13.12.28,19.67-.11,1.82-.11,4.51.53,4.54-2.8-.05-18.11-.17-36.22.06-54.31.02-1.64.29-3.21.63-4.77.08-1.88.26-3.77-.39-5.61-.11-.43-.17-.87-.2-1.3-.25-2.07-.19-4.14-.19-6.23v-103.4c0-1.82.29-3.71-.59-5.42-1.04-1.28-2.47-1.05-3.85-1.05h-103.21c-1.24,0-2.56-.26-3.58.79-.82,2.27-.26,4.59-.26,6.88-.03,54.93-.03,109.84-.03,164.77v3.46c.01,3.7,1.82,5.63,5.42,5.81,1.38.06,2.8-.03,3.88,1.1-1.61.9-3.14,1.95-4.81,2.67-8.19,3.52-14.77,9.05-19.9,16.21-5.45,7.59-10.92,15.2-14.97,23.7-.79,1.67-1.42,3.41-2.24,5.07-.32.66-.97,1.16-1.47,1.73-1.39-.7-1.31-2.07-1.31-3.28-.08-5.79,0-11.59-.56-17.37.05-.34.11-.66.06-1.02-.28.22-.45.56-.82.68-1.56.54-3.18.4-4.79.4-10,.02-19.98-.05-29.97.03-4.73.03-9.41-.2-14.06-.94-1.51-.42-3.04-.8-4.62-.17-1.59.31-3.18.29-4.76-.03-5.41-.7-10.82-.59-16.22-.05-.82.17-1.62.17-2.44.03-4-.59-7.99-.68-11.97.12-2.92.05-5.98,1.21-8.65-.96-.8-.88-.68-1.76-.34-2.87,1.85-6.04,3.6-12.13,5.39-18.2.87-2.95.91-2.98,4.48-2.98h90.06v-2.97Z"/>
      <path class="cls-6" d="M680.22,299.45c-1.88,1.28-3.97,1.62-6.23,1.61-16.36-.03-32.72,0-49.09,0h-4.2c-.08,8.73-.17,17.2-.25,25.66-2.12-.62-1.92-2.67-2.44-4.17-2.24-6.4-4.17-12.9-6.97-19.1-3.96-8.79-9.07-16.75-16.3-23.25-1.22-1.1-3.24-2.04-2.43-4.39,1.67-.88,3.62-.73,5.35-1.36,9.1-3.32,13.06-9.5,8.53-18.85-1.92-3.96-4.5-7.51-6.43-11.48-4.11-8.5-5.35-17.6-6.44-26.79-1.1-9.19-2.63-18.29-6.49-26.82-.48-1.05-.85-2.15-.6-3.35-.12-30.28,0-60.55-.06-90.82,0-4.71-.22-4.93-4.84-4.94-32.59-.02-65.19-.02-97.77,0-4.5,0-4.74.23-4.74,4.67v172.28c0,.93.06,1.85.11,2.77.15,2.64,1.42,3.88,4.17,3.92,4.84.09,9.7-.45,14.52.36.97.31,1.58,1.05,1.61,2.01.08,3.45,2.33,4.67,5.24,5.25,1.19,1.33.15,2.39-.56,3.34-3.41,4.5-7.01,8.85-10.27,13.46-.7.97-1.64,1.61-2.84,1.81-2.43.29-4.77.12-7.14-.62-3.96-1.24-4.85-.48-4.9,3.82-.08,7.01.12,14.03-.11,21.03-1.78,6.32-4.77,12.18-7.08,18.29-.25.66-.71,1.59-1.78.82-1.17-2.02-.36-4.08.02-6.06.76-4.05.51-8-.48-11.94-.28-1.08-.77-2.22.09-3.29.22-1.44.62-2.87.62-4.31.03-76.57.02-153.15.06-229.74,0-1.81.37-3.63.68-5.44.23-1.34,1.21-1.87,2.52-1.85,1.96.02,3.92.05,5.89.05h215.92c4.85,0,4.87,0,6.06,4.87.26,1.11.39,2.24.56,3.37h-80.82c-.12,1.22-.29,2.1-.29,2.98v178.67c0,.46.05.93.06,1.38v3.4h77.18c2.05,7.49,4.99,14.43,6.94,22.31h-3.89c-5.76,0-11.54-.03-17.3.02-1.11,0-2.24.29-3.35.45l-.02.02Z"/>
      <path class="cls-2" d="M268.29,457.02c1.84.99,3.68,1.98,5.52,2.95.57.36,1.24.22,1.84.4,1.42.54,2.53,1.56,3.71,2.47,3.85,3,4.08,4.76,1.13,8.59.77,2.1,2.41,3.82,3.29,5.92.57,1.34,1.61,1.44,2.86,1.04,3.83-1.21,7.59-2.67,11.37-4,2.13-.76,3.14-2.9,4.36-4.71-.17-1.67-2.49-2.3-1.9-4.23,2.44-3.83,6.98-5.13,10.03-8.27,1.19-1.22,2.64-2.19,3.92-3.35.8-.73,1.62-1.79,2.97-.9,1.17,1.19,2.27.79,3.32-.17,2.49-2.24,4.94-4.5,7.43-6.72,6.43-5.76,12.89-11.51,19.3-17.27,1.38-1.24,2.58-2.66,3.97-3.86.83-.73,1.87-1.24,2.81-1.85.73.14,1.27.59,1.62,1.17,3.54,5.87,7.35,11.59,10.68,17.58.34.6.53,1.27.46,1.98-.59,1.68-2.19,2.29-3.46,3.23-7.76,5.81-16.08,10.8-23.73,16.75-.22.23-.46.43-.71.62-.51.37-1.05.71-1.56,1.08-5.79,3.83-11.05,8.39-16.84,12.24-1.58,1.17-3.15,2.35-4.68,3.58-.74.53-1.61.88-2.24,1.56-.6.68-1.39,1.28-.99,2.43,1.47.96,3.12.57,4.7.57,30.28.08,60.57,0,90.83.02,3.23,0,6.47-.08,9.69.49,2.15.39,4.11-.11,5.93-1.3,1.34-.88,2.7-1.79,4.36-2.04,10.27.15,20.53.03,30.81.09,1.05,0,2.09.02,2.97-.68.8-.37,1.65-.43,2.52-.31,4.54.82,9.13.08,13.7.31,1.25.06,2.52,0,3.77.2.43.06.85.15,1.27.28,1.59.42,3.21.26,4.84.26h56.46c1.73,0,3.46-.15,5.18.28,1.88.73,2.04,2.27,1.95,3.99-.2,3.8-.23,7.6.02,11.4.26,3.91-.62,4.99-4.62,5.05-7.26.12-14.52.12-21.8,0-1.96.2-3.92.09-5.89.09H195.23c-1.5,0-3.01.08-4.5-.09-3.63.14-7.26.06-10.89.05-1.36,0-2.75-.02-3.86-1.02-5.78-.02-11.56-.05-17.34-.06-.8,0-1.62.03-2.43-.08-1.22-.17-1.72-.9-1.62-2.18.23-3.55.36-7.12.53-10.68.05-1.04-.12-2.15.19-3.09.97-3.01.79-3.41,4.2-3.38,5.08.03,10.17-.02,15.25-.03,1.68-1.45,3.72-.97,5.64-.97,22.73-.03,45.44-.02,68.17-.03,1.24,0,2.52.26,3.99-.39-1.64-3.79-5.41-5.87-7.34-9.32-.45-1.67.82-2.27,1.9-2.84,5.72-3.06,10.92-6.86,15.95-10.94,1.42-1.16,2.89-2.84,5.19-1.88l.05-.02Z"/>
      <path class="cls-31" d="M354.96,420.38c5.53-3.94,11.08-7.86,16.61-11.8,5.35-3.82,10.63-7.73,16.04-11.46,2.15-1.48,4.57-2.58,6.88-3.85,1.36.4,1.84,1.67,2.6,2.67,4.64,6.23,10.6,10.4,18.49,10.78,6.89.34,12.56-2.44,16.64-8.16.6-.85.91-1.87,1.64-2.64,1.39-.76,2.72-.14,4.02.23,14.35,4.02,25.77,12.02,33.57,24.89.36.6.79,1.13,1.22,1.68,2.53,3.75,3.97,8.05,5.86,12.13.34,1.21.87,2.41.06,3.63-7.9,2.49-15.96,4.37-23.96,6.41-1,.26-2.02.43-2.98.87-1.56.7-.87,1.56-.11,2.39,2.19,3.31,3.63,6.97,4.96,10.65,1.28,3.52,0,5.24-3.8,5.47-2.19.14-4.42.26-6.58-.03-10.65-1.47-21.4-1.5-32.04-2.77-2.5-.29-5.08-.29-7.45-1.31-1.17-1.55.48-1.73,1.17-2.15,3.75-2.27,7.2-4.98,10.83-7.42.8-.54,1.9-.9,2.09-2.97-6.71,3.57-12.1,8.28-18.08,12.04-4.85.91-9.21,3.11-13.61,5.21-2.49.53-4.85.56-6.71-1.59-.82-1.99-.77-4.14-.45-6.13,1.04-6.27.06-12.67,1.22-18.93.14-.77.25-1.61-.19-2.67-3.17,2.16-5.98,4.67-8.92,6.98-.99.77-1.82,1.81-3.24,1.75-1.59-.53-2.05-2.05-2.84-3.26-4.47-6.78-8.19-14.03-12.89-20.67l-.05.03Z"/>
      <path class="cls-33" d="M395.9,391.77c.05-1.64-.15-3.01-1.76-4.11-7.22-4.9-11.42-12.1-14.72-19.89-.56-1.3-1.13-2.05-2.52-2.44-2.12-.59-3.62-2.09-4.34-4.13-1.5-4.22-1.7-8.48.26-12.65.74-1.59,1.87-2.6,3.75-2.43,1.51.06,1.16,1.9,2.3,2.38,1.19-.4,1.13-1.62,1.39-2.53,2.41-8.25,6.94-15.3,12.45-21.79.76-.88,1.56-1.72,2.52-2.36,1.65-1.11,2.8-1.07,3.72,1.07,2.19,5.08,4.67,5.98,9.83,3.91.85-.34,1.67-.79,2.52-1.16,3.26-1.44,4.26-1.14,6.37,1.85,3.52,5.02,5.21,5.45,10.68,2.8,5.35-2.58,6.49-2.33,9.87,2.16,2.78,3.69,4.16,4.14,8.59,2.8,4.57-1.39,5.79-.53,6.07,4.3.22,3.91-.32,7.86.36,11.76.94,5.41,3.29,6.81,8.54,5.28,1.78-.53,3.38-1.5,5.15-2.07,4.88-.2,7.25,2.26,6.74,6.98-.17,1.61-.77,3.09-1.3,4.59-2.01,4.54-3.97,9.12-9.73,10.01-3.23-.46-5.33.96-7.18,3.58-4.31,6.09-10.17,10.31-17.23,12.75-1.9.65-3.66,1.41-4.73,3.24-.71.76-1.62,1.31-2.22,2.16-6.24,8.75-18.32,10.06-27.63,3.03-3.24-2.44-6.03-5.35-7.73-9.12l-.02.02Z"/>
      <path class="cls-5" d="M466.62,355.18c-2.24,2.07-5.07,2.67-7.96,2.97-2.95.31-5.58-1.55-5.92-4.56-.49-4.34-.51-8.73-.82-13.09-.12-1.78-.48-3.54-.8-5.73-1.99.68-3.52,1.11-4.98,1.7-3.14,1.25-5.62.39-7.63-2.18-.79-1-1.51-2.02-2.27-3.06-1.47-2.01-2.39-2.35-4.68-1.44-1.5.6-2.89,1.42-4.36,2.1-4.16,1.96-6.97,1.17-9.5-2.61-1.96-2.93-4.58-3.59-7.86-1.99-.62.31-1.27.54-1.9.82-4.53,1.98-9.63-.43-9.93-5.58-.02-.34-.12-.66-.31-1.55-1.22,1.02-2.3,1.76-3.21,2.69-6.75,6.91-11.31,15.08-13.92,24.33-.31,1.1-.32,2.33-2.27,2.6-.56-1.47-1.16-3-1.75-4.54-.56-5.39-1.08-10.78-1.68-16.16-.71-6.46.73-12.35,4.48-17.68,6.16-8.75,14.59-13.95,25.01-15.96,1.93-.37,3.69-.37,4.81-2.66.54-1.11,2.66-1.88,4.14-2.05,7.18-.83,14.31-.77,20.86,2.98,1.61.91,3.21,1.82,4.81,2.75,2.36,1.38,4.59,2.72,7.66,2.55,1.73-.11,3.82,1.04,5.28,2.19,7.35,5.76,13.47,12.61,17.47,21.17.45,1.76.94,3.52,1.34,5.28.94,4.11.31,8.16-.42,12.22-.25,1.34-.37,2.72-.56,4.08.76,4,.59,7.73-3.17,10.35l.03.05Z"/>
      <path class="cls-6" d="M28.87,324.65c.03.34.08.7.08,1.04,0,35.71-.02,71.43-.03,107.14-2.55,1.05-5.1,1.05-7.65-.02,0-27.32.17-54.63-.09-81.94-.06-7.12,1.64-13.61,4.03-20.1.76-2.04,1.58-4.06,2.36-6.1.43-.42.87-.42,1.3,0v-.02Z"/>
      <path class="cls-6" d="M734.84,434.85c.03-9.7.08-19.41.09-29.09.03-12.93.05-25.86.06-38.8.25-.25.48-.25.73,0,2.24,5.02,4.56,10.01,6.69,15.06.42.99.23,2.27.23,3.41.02,16.49.02,32.99.03,49.47-2.61-.02-5.22-.03-7.83-.05v-.02Z"/>
      <path class="cls-8" d="M317.41,452.92c-1.88,1.42-3.79,2.84-5.67,4.28-3.65,2.75-7.31,5.48-10.95,8.24-1.73,1.28-3.45,1.07-4.96-.26-1.21-1.05-1.72-2.39-.56-3.88,2.49-1.82,4.88-3.79,7.49-5.44,3.88-2.46,7.62-5.04,10.68-8.5.83.36,1.73.59,2.47,1.08,2.07,1.34,2.18,1.84,1.5,4.5v-.02Z"/>
      <path class="cls-28" d="M395.9,391.77c.91.99,1.9,1.92,2.73,2.97,4.81,6.1,10.66,10.12,18.83,9.76,5.18-.22,9.21-2.5,12.52-6.38.93-1.1,2.16-1.93,3.26-2.89.71-.03,1.05.28.96,1-2.47,6.21-7.39,9.63-13.64,10.83-10.01,1.95-17.58-2.5-23.72-10.01-.93-1.14-1.59-2.52-2.38-3.79.48-.49.96-1,1.44-1.5h0Z"/>
      <path class="cls-28" d="M354.96,420.38c.7.54,1.64.93,2.07,1.62,4.45,7.28,8.81,14.62,13.19,21.94.71,1.41-.06,2.22-1.3,2.32-1.47.12-2.12-.91-2.12-2.35-4.19-6.97-8.36-13.92-12.55-20.89.23-.88.46-1.78.7-2.66v.02Z"/>
      <path class="cls-3" d="M28.87,324.65h-1.3c.46-.7.91-1.41,1.38-2.1-.03.7-.05,1.41-.08,2.1Z"/>
      <path class="cls-3" d="M735.74,366.94h-.73c-.14-.43-.26-.85-.4-1.28.37.42.76.85,1.13,1.27v.02Z"/>
      <path class="cls-15" d="M176.01,502.92c4.85.03,9.7.08,14.55.11,1.82,2.49.97,5.35,1.07,8.05.17,5.48.45,5.86,5.96,5.93,3,.03,5.99-.09,9.01.11,2.33.15,3.57,1.36,3.71,3.71.06,1.04.09,2.07.09,3.11v156.48c0,1.72.15,3.48-.57,5.11-.9,1.39-2.35,1.47-3.69,1.25-6.61-1.1-13.07-.4-19.47,1.39-.34.09-.68-.05-1-.14-.51-9.09-1.02-18.19-1.51-27.27-.82-14.96-1.67-29.93-2.44-44.88-.62-11.87-1.11-23.73-1.73-35.58-.77-14.85-1.65-29.7-2.43-44.54-.56-10.94-1-21.88-1.51-32.82l-.03-.02Z"/>
      <path class="cls-15" d="M245.18,471.7c3.41,3.71,6.83,7.43,10.6,11.53-1.16.19-1.85.4-2.55.4-25.34.02-50.68.02-76.03,0-.8,0-1.61-.14-2.41-.2-.05-3.21-.09-6.41-.12-9.63,5.18.22,10.34.4,15.51.63,5.38.23,10.75-.19,16.13-.11,4.45.06,8.9-.73,13.35-1.14.46-.05.91-.09,1.38-.11,5.18-.25,10.34-.42,15.51-.74,1.82-.11,3.63-.59,5.44-.88,1.13-.7,2.19-.73,3.18.26l.02-.02Z"/>
      <path class="cls-24" d="M185.63,688.04c3.4-2.29,7.35-2.52,11.2-2.64,4.11-.14,8.24.36,12.36.57,1.85,4.65,1.99,9.3-.08,13.94-6.18-.02-12.35-.06-18.53-.03-1.24,0-2.47.34-3.71.49-1.28.15-2.55.23-3.24-1.22-.15-3.85-.12-7.66,2.01-11.11h-.02Z"/>
      <path class="cls-12" d="M525.56,503.03c7.15-.05,14.31-.09,21.45-.14.8,0,1.62.05,2.43-.05,1.22-.15,1.61-.83,1.58-2.15-.12-4.91-.05-9.84-.15-14.77,0-.6-.66-1.21-1.04-1.79-.4-.26-.85-.34-1.31-.34-21.94.06-43.9-.14-65.84.11-.11-.23-.29-.34-.54-.34-.73-1.56-.4-3.14-.17-4.74,1-6.83,2.61-13.55,3.34-20.43.8-5.95,0-12.01,1.05-17.94.19-1.02.08-2.07.46-3.06.88-1.79,2.64-2.13,4.33-2.43,10.32-1.81,20.41-4.54,30.55-7.15,1.28-.23,2.56-.74,3.86-.09,3.77,7.48,6.58,8.59,14.8,5.86,3.91-1.3,7.94-2.38,11.12-5.24,10.85-3.01,20.3-9.07,30.31-13.92,1.16-.56,2.24-1.22,3.58-.59,1.7,1.36,1.55,3.62,2.61,5.28,1.59,5.52,3.26,11,4.28,16.66.23,1.31.82,2.67-.03,4,.71,6.24,1.42,12.5,2.12,18.74.05,3.12.25,6.24.12,9.35-.39,9.69-.88,19.38-1.36,29.06-.59,11.99-2.02,23.93-1.72,35.97.11,4.25-.43,8.53-.65,12.79-.08,1.61-.74,2.56-2.21,3.52-4.68,3.09-9.81,3.83-15.2,3.74-1.62,1.27-3.55,1.04-5.33.87-8.5-.83-17-1-25.51-.7-4.3,0-8.51.7-12.76,1.22-6.64.29-13.16,1.61-19.73,2.46-1.45.19-2.97.63-4.2-.66-.74-1.25-.71-2.66-.71-4.05-.02-9.81-.06-19.62,0-29.43.03-4.79.82-5.5,5.76-5.59,3.12-.06,6.24.05,9.35-.03,3.77-.09,4.16-.49,4.28-4.2.06-1.96-.03-3.92.05-5.89.05-1.38-.06-2.8,1.07-3.88l-.03-.03Z"/>
      <path class="cls-23" d="M542.22,552.18c7.85-.68,15.67-.46,23.5.4,2.52.28,5.07.23,7.6.34-.19,5.75-.36,11.5-.53,17.24-.03.93-.03,1.85-.03,2.77-.02,10.63.05,21.24-.06,31.87-.17,15.79-.02,31.61-.82,47.37-.63,12.35-.28,24.66-.48,36.99-.91,1.33-2.22.93-3.43.76-5.11-.68-10.01-.19-14.68,2.26-2.46,1.28-5.19,1.79-8,1.59-1.78-.12-3.45-.51-3.97-2.58.77-2.46,3.06-3.03,5.04-3.8,2.98-1.17,3.72-3.03,3.49-6.18-.9-11.71-1.62-23.44-2.47-35.15-.82-11.48-1.65-22.98-2.47-34.46-.82-11.37-1.64-22.74-2.33-34.13-.42-6.89-1.22-13.77-1.36-20.69-.03-1.59-.2-3.26,1.04-4.59l-.03-.02Z"/>
      <path class="cls-12" d="M541.43,691.3c2.16,2.56,5.02,1.72,7.68,1.39,1.44-.17,2.94-.71,4.2-1.42,4.64-2.61,9.56-2.81,14.65-2.15,1.13.15,2.27.05,3.41.05,2.21,2.94,2.21,6.01.63,9.21-2.81,3.41-6.35,4.3-10.74,3.8-6.49-.73-13.04-.87-19.56-1.27-2.6-.17-5.33.17-7.48-1.84-1.64-2.32-1.53-4.39.62-6.15,1.87-1.53,3.94-2.89,6.57-1.61l.02-.02Z"/>
      <path class="cls-1" d="M355.09,699.16c-22.71,0-45.44-.02-68.15-.03-1.1-1.11-1.19-2.69-1.87-4-1.59-3.11-3.41-5.92-6.77-7.43-1.59-.73-2.89-1.85-3.34-3.69-.7-2.83-.91-5.7-.91-8.61.02-9.59-.09-19.17.02-28.75.46-40.77-1.13-81.52-.7-122.29.02-2.16-.4-4.42.93-6.41,1.51-1.13,3.28-.96,4.99-.96,32.17-.02,64.35-.02,96.52,0,1.5,0,3.01-.06,4.42.6,1.38.93,1.27,2.35,1.19,3.74-.83,13.12-2.21,26.19-3.54,39.28-2.21,21.58-5.7,43-8.31,64.54-1.17,9.66-1.93,19.5-.54,29.34.63,4.48,2.44,7.34,7.12,7.9,2.04.71,2.58,2.35,2.63,4.3.03,1.36.17,2.7.36,4.05-.02,3.54-2.15,5.87-4.62,7.99-.94.59-1.79,1.31-2.6,2.09-.82.7-1.76,1.22-2.56,1.95-.23.22-.46.42-.71.6-.25.2-.49.37-.76.54-1.76,1.28-3.72,2.36-4.91,4.31-.29.39-.63.73-1,1.02-3.43,2.53-4.4,6.77-6.88,9.97v-.02Z"/>
      <path class="cls-13" d="M380.51,518.14c-7.05.02-14.08.06-21.12.06-28.27,0-56.55,0-84.82.02-1.17.9-2.55.99-3.94.99-12.89-.03-25.77.14-38.64-.08-2.04.03-4.08.11-6.1,0-2.75-.17-4.03.88-3.79,3.72.09,1.13.09,2.26,0,3.4-.03,51.9.22,103.8.12,155.7,0,1.5.06,3-.09,4.5.14,3.4.06,6.81.05,10.21,0,1.36-.06,2.73-1.02,3.86-.74,1.5-1.95,2.12-3.6,2.05-1.82-.06-3.65.03-5.45-.05-1.64-.08-2.84-.77-2.95-2.63.03-4.65.06-9.29.08-13.94.03-1.16.06-2.3.06-3.46v-164.36h-14.15c-3.97-.03-4.53-.6-4.56-4.7-.02-3.46,0-6.94,0-10.4,1.27-.05,2.53-.12,3.8-.14h327.4c1.27,0,2.53.09,3.8.12v10.38c0,3.13-1.63,4.7-4.88,4.71h-10.74c-1.13,0-2.24.11-3.66.19v38.23c.99,1.14.96,2.56.96,3.94,0,43.85.12,87.71-.05,131.56.05,3.52-.82,7.22,1.75,10.34-4.76.11-9.52.25-14.29.26-.79,0-1.59-.56-2.38-.85-1.34-2.66.15-5.42-.34-8.11-.2-19.87-.06-39.72-.08-59.59-.03-24.13,0-48.27,0-72.4,0-1.27-.06-2.53.09-3.8-.14-11.31,0-22.62-.08-33.93-.03-4.47-.28-4.68-4.7-4.73-4.03-.05-8.08.09-12.13-.08-3.11.06-6.21.2-9.32-.17-1.95-.29-3.89-.45-5.87-.45-25.31.03-50.63-.05-75.94.05-1.16,0-2.32.11-3.4-.43h-.02Z"/>
      <path class="cls-1" d="M492.92,557.8c-.05,1.04-.12,2.07-.12,3.11v130.05c0,1.04.08,2.07.12,3.11-1.81,1.61-3.17,3.54-4.19,5.72-12.25,0-24.49,0-36.74-.03-1.42,0-3.14.49-3.69-1.59-1.04-1.55-.77-3.31-.73-4.99.15-5.38-.39-10.71-1.14-16.02-.28-1.9-.96-3.49-2.39-4.76-1.58-3.01-.96-5.96.29-8.9,3.12-.99,4.39-3.17,3.88-6.35-1.51-9.63,1.48-18.74,2.95-28.06,2.19-14.01,3.55-28.14,4.74-42.27.71-8.51,2.52-16.89,3.55-25.35,1.68-13.74,4.42-27.33,5.48-41.16.06-.8.2-1.61.82-2.22,2.98.03,5.96.06,8.95.08,1.42,1.14.63,2.56.4,3.83-.77,4.31-1.28,8.68-2.27,12.92-2.15,9.18,3.34,19.24,15.02,21.37,1.21.45,2.47.4,3.72.6.56.14,1,.43,1.31.91l.03.03Z"/>
      <path class="cls-1" d="M541.43,691.3c-1.1.26-2.21.45-3.28.82-3.65,1.25-4.65,3.06-3.92,6.95-1.87-.19-3.94.85-5.52-.94-.91-2.69-.62-5.75-2.52-8.13-.6-8.53-.56-17.07,0-25.6.08-1.27.36-2.52.32-3.8-.45-16.75.71-33.47.74-50.21.03-15.7.97-31.38.74-47.09-.05-3.29.06-6.71,1.58-9.81,4.2-.43,8.42-.87,12.62-1.3-.19,7.37.49,14.69,1.3,22,.37,3.41.54,6.88.73,10.31.28,5.16.42,10.34.77,15.5.31,4.47.82,8.9,1.24,13.35.05.57.06,1.14.09,1.73.25,5.16.43,10.34.76,15.5.4,6.54.91,13.06,1.38,19.58.46,6.52.88,13.06,1.39,19.58.34,4.34.8,8.68,1.28,13.01.31,2.78-.34,3.8-3.04,5.07-2.27,1.05-4.45,2.3-6.67,3.48l.02.03Z"/>
      <path class="cls-1" d="M221.09,525.74v-7.52h9.92c1.7.46,1.41,1.95,1.5,3.12.19,2.3.11,4.62.06,6.92-.32,18.93,1.14,37.79,1.55,56.7.28,13.13.87,26.27,1.36,39.38.73,19.11,1.76,38.23,1.95,57.35,0,1.27.06,2.53-.09,3.8-.74,4.54-.7,9.22-2.5,13.58h-.46c-2.15-4.96-5.59-9.12-8.59-13.57-.73-3.52-.96-7.09-.96-10.68.03-20.43-1.13-40.84-1.53-61.26-.31-16.04-.94-32.06-1.25-48.1-.23-12.69-.26-25.39-.62-38.07-.02-.57,0-1.16-.34-1.67h.02Z"/>
      <path class="cls-1" d="M403.25,699.76c-.65-.26-1.31-.53-1.96-.79-1.19-.79-1.53-2.05-1.48-3.32.15-4.84-.88-9.63-.77-14.45.08-3.54-.42-6.86-2.46-9.84-.49-2.35-.63-4.68.22-6.98,4.19-3.6,4.16-8.67,4.14-13.43-.03-8.53,1.44-16.76,3.45-24.97,3.18-13.06,4.48-26.39,5.67-39.74,1.16-13.1,2.24-26.22,4.47-39.2.31-1.79.11-4.67,2.66-4.54,2.1.09,2.27,2.81,2.29,4.54,0,7.94,1.25,15.84.54,23.82-.79,8.96-.88,17.97-1.61,26.93-.94,11.73-1.62,23.47-2.53,35.2-.62,7.94-.31,15.93-.11,23.89.05,1.73.49,3.43,1.62,4.85,1.73,2.01,4.56.25,6.4,1.84,1.45,2.66.6,5.36.14,8.07-.08,2.44-.88,4.6-2.47,6.46-.87.9-2.19,1.24-2.9,2.35-.46.59-.93,1.19-1.45,1.73-.83.73-2.33.56-2.64,1.99-.42.83-.99,1.56-1.68,2.16-1.25.85-2.66,1.55-3.28,3.07-3.07,2.84-5.1,6.32-6.24,10.32l.02.03Z"/>
      <path class="cls-27" d="M396.86,671.44c2.38.79,2.86,2.8,3,4.91.4,6.06.71,12.13,1.07,18.19.09,1.48.25,2.95.37,4.42-.83.29-1.65.77-2.5.87-13.33,1.56-26.71,1.1-40.09,1.3-1.64.03-2.98-.26-3.62-1.98.83-3.38,2.56-6.3,4.74-8.96.46-.57,1.24-.88,1.85-1.33,2.86.39,5.75.25,8.62.25,1.19,0,2.32-.08,2.8-1.44,2.02-2.22,4.87-.71,7.17-1.58.53-.74-.09-.94-.57-1.21-2.86-.22-5.72.03-8.56-.14-1.27-.08-2.87.23-3.18-1.72h.05c.4-.06.57-.37.77-.66.91-.62,1.81-1.24,2.72-1.85,3.45.7,6.89,1.5,10.91.63-3.14-1.38-6.97.77-8.87-2.84,2.58-1.67,4.23-4.05,5.33-6.88.53-.71,1.3-.97,2.1-1,4.59-.25,9.19-.25,13.78,0,.82.05,1.58.29,2.12,1v.02Z"/>
      <path class="cls-27" d="M403.25,699.76c-.48-3.62,1.07-6.4,3.58-8.81.82-.79,1.5-1.7,2.24-2.55,5.95-.53,11.93-.76,17.92-1.14-3.54-.29-7.09-.31-10.63-.34-1.59,0-3.24.36-4.76-.49.76-.85,1.53-1.72,2.29-2.56.31-.23.65-.36,1.04-.36,4.79.06,9.58.4,14.31-.19-2.53-1.24-5.19-.32-7.77-.59-1.64-.17-3.41.37-4.87-.88.49-.57.99-1.13,1.47-1.7,5.02-.31,10.06.17,15.11-.43-2.46-.54-4.98-.32-7.46-.43-1.67-.08-3.48.4-4.87-1.05.77-2.05,1.53-4.11,2.3-6.16,2.16-1.67,4.79-1.87,7.25-1.65,4.67.42,9.44-.12,13.97,1.55.85.36,1.68.71,2.53,1.07,1.16,8.34,2.16,16.69,1.36,25.12-.45,1.78-1.42,2.47-3.41,2.5-11.74.12-23.49.42-35.23.66-.91.02-1.82.17-2.73.29-1.67.23-2.95-.25-3.66-1.87l.03.02Z"/>
      <path class="cls-24" d="M234.83,699.08c-.06-4.51.59-8.93,1.82-13.27,2.07-2.02,4.73-2.27,7.39-2.26,5.75.03,11.51-.31,17.26.51,3.06.43,6.21.26,9.3-.23,1.84-.29,3.72-.45,4.99,1.39,1.41.79,2.86,1.5,4.2,2.36,4.19,2.72,6.63,6.54,7.14,11.56-1.08,2.09-2.77,2.77-5.11,2.7-14.72-.29-29.46-.49-44.2-.68-1.55-.02-2.8-.15-2.8-2.1l.02.02Z"/>
      <path class="cls-12" d="M527,690.65c1.56.65,2.07,1.95,2.05,3.49-.02,1.33-.22,2.66-.32,3.97-1.87,4.14-5.47,5.35-9.56,5.24-3.41-.09-6.81-.63-10.21-.97-.82-.32-1.64-.63-2.72-1.07v-8.65c2.52-2.01,5.39-3.07,8.59-2.89,4.06.25,8.24-.93,12.19.87l-.02.02Z"/>
      <path class="cls-24" d="M226.36,686.62c4.53,2.97,6.98,7.25,7.99,12.47-.32,1.99-1.76,2.13-3.35,2.04-3.29-.2-6.58-.4-9.87-.6,0-4.64,0-9.29-.02-13.92,1.76-1.16,3.51-1.3,5.25.02h0Z"/>
      <path class="cls-12" d="M488.74,699.78c-.66-3.41,1.53-4.73,4.19-5.72-.22,2.58-.45,5.15-.66,7.73-1.17-.66-2.35-1.34-3.52-2.01Z"/>
      <path class="cls-6" d="M592.2,439.76c-1.64-6.92-3.28-13.84-4.91-20.77-.76-1.55-.66-3.23-.77-4.88.19-1.82,1.56-2.8,2.9-3.65,6.83-4.34,12.59-10,18.66-15.27,3.32-2.87,5.62-6.71,8.95-9.56,1-.87,1.75-2.22,3.38-2.05.05,1.38.15,2.77.15,4.14.02,16.16.02,32.32.03,48.48,1.07.26,2.12.73,3.18.74,3.8.09,7.6.02,11.42.05.99,0,1.96.12,3.04.79-.54.2-1.07.54-1.61.56-9.89.26-19.76.45-29.65.74-4.93.14-9.86.45-14.79.68h0Z"/>
      <path class="cls-22" d="M655.05,437.49h-10.83v-.34h10.94c-.03.11-.08.23-.11.34Z"/>
      <path class="cls-10" d="M189.11,269.71c-.05-1.25.56-1.72,1.79-1.99,2.44-.54,4.82-1.36,7.23-2.05,1.17-.66,1.92.05,2.02,1.02.79,7,5.86,11.94,8.62,17.98.96,2.1,2.04,4.14,2.81,6.32,3.69,10.44,8.05,20.64,12.08,30.95,1.58,5.73,1.1,11.9,3.57,17.46.37.82.43,1.79,1.61,2.84,2.36-5.32,2.8-10.8,3.58-16.19,2.49-5.86,3.79-12.07,5.11-18.25,1.36-6.3,2.41-12.67,5.25-18.57,1.02-2.12,2.07-4.14,3.86-5.65,2.47-2.09,3.79-4.57,3.26-7.88-.11-.66-.06-1.39.54-1.9,1.82-.76,3.34.29,4.93.87.45.19.88.4,1.31.6.45.19.8.48,1.11.85.68.34,1.36.73,2.05,1.04,2.21.99,3.72,2.46,3.6,5.1-1.44,1.92-2.83,3.86-4.31,5.75-1.41,1.81-2.81,3.65-4.37,5.33-.65.71-1.65,1.27-2.6,1.48-1.67.37-2.38,1.17-2.89,2.87-2.04,6.83-4.17,13.63-6.57,20.35-2.94,8.27-4.74,16.79-6.38,25.37-1.27,6.64-2.38,13.32-3.51,19.98-.19,1.13-.51,2.24-1.78,2.02-.63-.11-1.39-1.1-1.62-1.82-5.58-18.39-11.85-36.54-19.16-54.32-2.05-5.01-3.89-10.09-5.89-15.11-.56-1.41-1.39-2.38-2.97-3.09-1.3-.59-2.35-2.16-3.07-3.54-2.24-4.17-4.25-8.45-6.4-12.67-.88-1.75-1.9-3.41-2.86-5.13h0Z"/>
      <path class="cls-6" d="M169.22,352.45c-.23,3.09-.46,6.16-.66,9.25-.14,1.96-.25,3.92-.32,5.87-.48,12.45-.94,24.91-1.42,37.36-.02.42-.19.85-.36,1.56-.88-.42-1.62-.66-2.24-1.08-2.75-1.92-5.42-3.94-8.2-5.79-1.27-.83-1.59-1.79-1.38-3.21,2.35-15.05,7.08-29.36,13.33-43.2.14-.29.37-.56.56-.82.23.02.46.03.68.05l.02.02Z"/>
      <path class="cls-1" d="M295.27,461.28c.29,3.86.63,4.14,5.52,4.14.93,1.24,1.84,2.47,3,4.02-2.12,2.81-4.14,6.03-8.67,6.91-3.68.71-7.15,2.44-10.74,3.72-1.88-3.26-3.66-6.3-5.5-9.47.56-.2,1.02-.29,1.39-.53,1.99-1.3,2.36-2.43.9-4.26-1.21-1.5-2.86-2.64-4.33-3.91-.53-.45-1.1-.83-1.64-1.25-.42-.25-.43-.51-.02-.79.02-.46.05-.91.06-1.38.77-.79,1.78-1.1,2.81-1.05,4.84.22,9.78-1.04,14.51.97.9.96,1.81,1.9,2.7,2.86v.02Z"/>
      <path class="cls-8" d="M245.18,471.7c-1.07-.08-2.13-.17-3.18-.26-.4-.23-.82-.43-1.19-.7-2.15-1.58-2.3-2.64-.15-4.31,6.33-4.94,12.48-10.18,19.92-13.55,3.65-1.65,5.07-1.27,6.84,2.3.31.6.59,1.24.88,1.84-3.57.76-5.89,3.49-8.54,5.59-4.53,3.6-9.38,6.58-14.57,9.07v.02Z"/>
      <path class="cls-8" d="M292.57,458.44c-5.78.03-11.54.05-17.32.08v-23.95c.57.62.88.87,1.08,1.21,4.4,7.29,9.44,14.14,14.89,20.67.51.62.9,1.33,1.33,2.01l.02-.02Z"/>
      <path class="cls-28" d="M283.53,298.37c.22-.03.43-.09.63-.14.46-.32.94-.28,1.44-.08.15,4.16.31,8.3.45,12.45-.29.62-.66.56-1.08.14-1.67-3.68-3.34-7.35-5.01-11.03-.28-.31-.26-.6.03-.88,1.13-.46,2.41.17,3.52-.46h.02Z"/>
      <path class="cls-14" d="M283.53,298.37c-1.16.2-2.32.42-3.48.62-.22.26-.42.23-.6-.05-.12-.2-.17-.4-.15-.63,1.41.02,2.83.05,4.23.06h0Z"/>
      <path class="cls-16" d="M284.98,310.75c.36-.05.73-.09,1.08-.14-.14.74-.29,1.47-.43,2.21-.22-.7-.43-1.38-.65-2.07Z"/>
      <path class="cls-8" d="M275.18,459.88c0,.26,0,.53.02.79-.46-.23-.93-.46-1.39-.68.46-.03.91-.06,1.38-.09v-.02Z"/>
      <path class="cls-8" d="M279.46,298.94c.2.02.4.03.6.05-.03.25-.05.48-.08.73-.17-.26-.36-.51-.53-.77h0Z"/>
      <path class="cls-7" d="M620.43,383.57c-2.67,2.83-5.3,5.69-8.03,8.45-1.68,1.72-3.63,3.17-5.25,4.93-5.87,6.35-13.16,10.95-19.85,16.32-.45.85-1.24.9-2.05.85-.66.14-1.39.17-1.98.46-6.67,3.38-13.35,6.77-19.99,10.23-3.6,1.87-7.28,3.43-11.36,3.83-1.85-5.18-4.74-9.69-8.73-13.49-.06-1.88,1.31-2.86,2.52-3.91,4.7-4.09,9.56-7.99,14.29-12.05,2.02-1.73,2.7-3.48,2.16-6.03-2.43-11.4-4.82-22.81-7.01-34.25-.49-2.61-1.04-5.21-1.39-7.83-.31-2.33-1.39-3.11-3.75-2.75-6.2.94-12.16,2.78-18.14,4.53-7.56,2.19-15.28,3.6-22.85,5.69-1.42.32-2.84.73-4.3.91-.91.06-1.81,0-2.64-.42-1.82-1.55-1.76-3.58-1.41-5.65.25-1.42.36-2.86.6-4.53-2.73,3.89-5.24,7.68-7.18,11.79-.34.31.2.08-.2.28-7.05,3.55-14.55,5.11-22.39,5.39.29-1.08.57-2.18.88-3.26,1.51-5.24-.39-7.82-5.76-7.85,1.88-2.47,2.66-5.3,2.77-8.36.02-.66.26-1.33.42-1.98.77-1.61,1.62-3.18,2.3-4.82,1.95-4.74,3.82-9.52,5.72-14.29,3.45-8.3,8.62-15.68,12.45-23.76.31-.63.85-1.07,1.34-1.56,3.21-4.16,6.46-8.28,9.66-12.47,1.25-1.64,2.36-3.35,3.54-5.04-.03-.23-.06-.54.09-.65,4.6-3.28,8.31-7.52,12.52-11.23,3.12-2.75,6.88-4.13,10.86-4.98,5.52-1.16,11-2.47,16.27-4.54.85-.34,1.75-.65,2.64-.11.68,3.74.79,7.51.79,11.29,0,1.04-.03,2.09.11,3.12.51,3.57,2.29,4.28,5.21,2.1,4.14-3.07,7.35-6.97,10.17-11.25,1-1.53,1.76-3.29,3.52-4.19,1.07-.34,2.05-.14,2.95.46,7.18,4.87,14.32,9.8,22.28,13.36,2.01,2.07,3.96,4.2,6.04,6.2,6.38,6.1,10.68,13.58,13.95,21.62,2.69,6.6,4.82,13.41,7.22,20.12.31.85.71,1.67,1.08,2.5,1.76,6.43,3.69,12.82,5.21,19.31,1.16,5.02,2.05,10.15,2.58,15.28.79,7.62-2.07,14.21-6.52,20.24-.48.65-.87,1.34-1.28,2.02l-.05-.05Z"/>
      <path class="cls-28" d="M286.06,212.48c-.12,3.45-.34,6.89-.34,10.35-.03,15.22,0,30.45-.02,45.67,0,1.38-.08,2.77-.12,4.14-.91.82-2.04,1.07-3.21,1.05-10.49-.09-20.98.46-31.46-.34-1.5.2-2.9.05-4.13-.96-1.5-3.68-.91-5.55,2.72-6.07,13.04-1.87,19.67-10.41,23.62-21.96,1.64-4.81,3.24-9.61,4-14.65.22-1.41.62-2.81,1.67-3.72,3.49-3.01,4.6-7.05,5.15-11.36.09-.8.22-1.61.73-2.29.51-.37.99-.45,1.41.12h-.02Z"/>
      <path class="cls-1" d="M250.14,272.78c6.88-.06,13.77-.14,20.64-.17,4.93-.02,9.87,0,14.8.02-.06.79-.12,1.56-.22,2.69-3.46.25-6.83.7-10.2.7-5.39,0-10.78-.32-16.18-.46-.39,0-.79.36-1.17.56-.43-.08-.88-.17-1.31-.25-.31-.06-.57-.2-.82-.4-1.59-.49-3.18-1-4.77-1.5-.51-.23-.93-.51-.77-1.17h0Z"/>
      <path class="cls-14" d="M285.58,89.49c-33.44.02-66.87.03-100.31.05-4.5,0-8.99-.06-13.49-.11,1.1-.19,2.21-.56,3.31-.56,35.74-.03,71.47-.03,107.23,0,1.08,0,2.18.4,3.26.6v.02Z"/>
      <path class="cls-14" d="M78.2,299.53h-16.69c.76-.19,1.53-.49,2.29-.51,4.03-.05,8.08-.05,12.11,0,.77,0,1.53.32,2.29.51h0Z"/>
      <path class="cls-14" d="M59.48,299.53h-11.84c3.94-.88,7.9-.88,11.84,0Z"/>
      <path class="cls-14" d="M286.06,212.48c-.37-.03-.73-.08-1.1-.11-1.42-1.44-.54-2.89-.03-4.34.17-.31.43-.54.76-.7.12,1.72.23,3.43.36,5.15h.02Z"/>
      <path class="cls-14" d="M86.53,299.56c-1.17,0-2.35-.02-3.52-.03,1.17-.77,2.35-.79,3.52.03Z"/>
      <path class="cls-16" d="M285.61,298.15c-.48.03-.96.05-1.44.08.48-.03.96-.05,1.44-.08Z"/>
      <path class="cls-14" d="M284.92,206.73c.23.05.48.08.71.12,0,.17.03.32.06.48l-.2.17c-.56,0-.8-.2-.57-.79v.02Z"/>
      <path class="cls-14" d="M137.87,300.27l-.79-.14.79.14Z"/>
      <path class="cls-29" d="M498.21,275.98c.74-5.96,1.56-11.94.34-17.92-.66-3.26-1.58-6.49-2.53-9.69-1.88-6.32-3.06-12.78-3.72-19.33-.26-2.63-.65-5.3-1.47-7.8-.85-2.6-1.85-5.35-3.54-7.4-5.04-6.13-6.88-12.95-5.42-20.67,1.67-8.9,4.57-17.21,11.6-23.42,1.59-1.41,3.65-2.3,5.45-3.48.74-.49,1.48-1.05,2.1-1.68,1.99-2.09,3.99-4.17,5.89-6.33,4.05-4.59,9.24-7,15.19-7.34,13.66-.79,26.96.43,39.14,7.63,6.8,4.02,12.38,9.3,16.87,15.67,3.12,4.42,5.75,9.18,8.61,13.78,4.56,9.46,6.43,19.58,7.62,29.9.54,4.68,1.24,9.33,1.99,13.98.23,1.45.8,2.87,1.34,4.25,2.09,5.36,4.05,10.77,7.45,15.53,1.13,1.58,1.99,3.4,2.67,5.22,3.11,8.27.74,12.76-6.3,17.06-2.81,1.72-6.06,2.09-9.29,2.36-2.55-.28-4.88-1.08-7.05-2.52-5.24-3.51-10.55-6.91-15.87-10.31-.54-.34-1.27-.37-1.92-.54-.93-.49-1.48-1.34-2.12-2.13-4.93-6.83-4.53-13.78-.37-20.77,2.9-4.88,3.71-10.41,4.94-15.81,1-4.37,2.92-7.83,6.8-10.38,3.94-2.58,4.73-9.18,1.98-13.07-1.59-2.26-3.91-2.7-5.41-.4-4.14,6.33-9.42,4.93-14.97,2.8-2.72-1.04-5.15-2.6-7.54-4.23-2.29-1.56-4.42-3.34-6.88-5.21-.26,2.26.43,4.2.59,6.18.15,1.92.05,3.83-1.9,4.84-1.9.97-3.35-.28-4.6-1.47-2.43-2.29-4.98-4.5-6.78-7.48.53,1.7,1.1,3.32,1.62,4.96.88,2.67.8,4.93-2.04,6.54-3.83,2.16-6.33,2.22-8.79-.34-4.76-4.94-8.56-10.58-11.96-16.73-.39,3.07.23,5.92.46,8.81.17,2.01.57,4.48-1.96,5.36-2.63.91-4.11-1.04-5.19-3-2.26-4.05-3.86-8.34-4.06-12.35-.11,2.87-1.07,6.33-1.21,9.95-.48,13.24,4.37,25.09,9.16,37,2.73,6.8,7.22,12.13,13.5,15.73,8.2,4.7,16.92,4.81,25.77,2.02,1.55-.48,3.03-1.13,4.59-1.58,1.05-.29,2.09-.26,2.86.65.91,1.08.49,2.16-.11,3.21-.63,1.11-1.56,1.99-2.47,2.89-1.33,1.07-2.33,2.67-4.33,2.6-6.4,2.56-13.04,4.25-19.78,5.64-5.21,1.07-9.27,4.05-12.93,7.9-2.81,2.95-6.29,5.25-9.47,7.85-1.02.02-2.07.19-3.07.03-1.72-.28-2.98-1.72-3.23-3.54-.15-1.13-.19-2.27-.28-3.41h.02Z"/>
      <path class="cls-18" d="M388.84,464.14c.71-.34,1.45-.62,2.12-1.04,3.74-2.33,7.82-3.66,12.19-4.05,1.07-.62,2.12-.88,3.06.23,2.01.36,4,.79,6.01,1.05,2.84.37,5.69.76,8.54.9,8.02.37,16.02.88,23.98,1.96,2.83.39,5.76.2,8.64.14,2.64-.06,3.38-1.04,2.39-3.52-1.56-3.96-3.43-7.77-5.16-11.67.77-1.16,2.05-1.44,3.24-1.75,6.95-1.87,13.94-3.62,20.89-5.47.88-.23,1.79-.42,2.7-.08,2.69,5.64,4.4,11.59,5.32,17.77.39,5.13-.29,10.09-2.3,14.86-2.8,6.66-9.02,10.32-15.91,9.3h-2.05c-8.13,1.17-15.91-.97-23.78-2.39-1.45-.26-2.89-.68-4.36-.91-1.53-.29-2.95-.94-4.47-1.28-7.56-2.61-15.44-1.65-23.19-2.09-5.61-.31-11.29-.43-16.21-3.8-1.13-1.08-1.42-2.6-2.05-3.92-.19-.53-.29-1.07-.32-1.62-.05-.94.08-1.84.73-2.58v-.05Z"/>
      <path class="cls-26" d="M320.25,477.21c5.76-4.19,11.53-8.37,17.3-12.56.4-.34,1.05-.17,1.39-.68h0c6.43-4.13,13.64-4.68,20.94-4.37,6.09.26,12.13,1.22,18.11,2.41,1.02.2,2.02.46,2.8,1.25.65,1.51-.06,2.73-.96,3.8-2.58,3.11-5.02,6.3-7.66,9.36-1.47,1.7-3.2,2.49-5.42,2.5-14.28,0-28.57.05-42.84-.05-1.34,0-3.14.42-3.63-1.67h-.02Z"/>
      <path class="cls-21" d="M320.25,477.21c.96.23,1.93.65,2.89.66,14.65.05,29.29,0,43.93.08,1.81,0,2.95-.56,4.06-1.95,2.64-3.32,5.5-6.46,8.17-9.76.62-.76.83-1.85,1.22-2.8.7-.77,1.45-.63,2.26-.19,1.88,1.14,3.88,1.61,6.04.88,0,.9,0,1.79-.02,2.69-7.31.6-9.93,6.91-14.35,11.73,5.38,2.26,10.8,3.07,16.24,3.17,8.75.15,17.46.57,26.16,1.41,2.61.25,4.98-.23,7.2-1.76,2.07-1.44,4.39-2.52,6.46-3.99,1.24.4,2.47.8,3.71,1.21-.79,2.94-2.94,4.31-5.73,4.88-1.73,1.13-3.52,2.16-5.19,3.38-1.82,1.31-3.77.7-5.69.6-2.05-.09-4.11-.51-6.16-.51-32.11-.02-64.21,0-96.34,0-1.45,0-2.9-.08-4.45-.14-.03-2.94,1.19-4.5,3.46-5.35,7.26.48,14.54.15,21.82.22,1.99.02,3.92.15,5.69,1.17.6.34,1.24.65,1.95.68,7.82.37,15.64.17,23.5-.19-.59-.93-1.45-.88-2.29-.93-.7-.03-1.39-.03-2.09,0-14.79.49-29.53-1.19-44.31-.77-.82.02-2.19.66-2.33-1.07,1.41-1.13,2.81-2.26,4.2-3.38v.02Z"/>
      <path class="cls-1" d="M382.8,463.26c-.74.06-1.5.12-2.24.19-3.51-.56-7.01-1.08-10.51-1.67-9.97-1.64-19.84-2.22-29.4,2.02-.49.22-1.13.12-1.7.17,1.68-1.48,3.24-3.17,5.08-4.43,7.56-5.27,15.17-10.41,22.77-15.61.22.25.43.48.66.73,1.51,1.62,1.64,1.59,2.77-.71,2.19-1.62,4.4-3.23,6.57-4.9,2.24-1.72,4.45-3.48,7.15-5.59,0,2.49.08,4.28-.02,6.07-.12,2.29-.46,4.56-.56,6.84-.23,5.62-.39,11.25-.57,16.87l-.02.02Z"/>
      <path class="cls-1" d="M464.56,482.76c8.24-.43,13.7-4.73,15.78-11.43,1.31-4.23,1.73-8.48,1.58-12.86,1.42-1.07,2.83-1.19,4.25,0-.8,5.19-1.59,10.38-2.43,15.57-.51,3.17-1.05,6.32-1.59,9.47-4.79-.03-9.58,0-14.37-.11-1.07-.02-2.13-.43-3.2-.66l-.02.02Z"/>
      <path class="cls-28" d="M316.05,480.6c1.3.26,2.6.74,3.89.74,15.02.05,30.05.03,45.07.03h4.14c.09,1.13.17,2.05.25,2.95-.62.23-.94.46-1.25.46-8.2.03-16.41.08-24.61,0-.91,0-2.01-.46-2.66-1.1-1.39-1.31-2.95-1.65-4.74-1.64-6.24.03-12.48.03-18.73-.02-1.1,0-2.21-.36-3.31-.54.65-.29,1.3-.59,1.95-.88v-.02Z"/>
      <path class="cls-31" d="M428.47,483.49c1.92-1.62,3.82-3.26,5.73-4.88,2.8.48,5.61.91,8.41,1.47,5.95,1.17,11.88,2.36,18.02,2.09.62-.03,1.25.4,1.88.6-.19,1.19-1.04,1.34-2.04,1.36-10.17,0-20.32.03-30.48,0-.51,0-1-.42-1.51-.63h0Z"/>
      <path class="cls-16" d="M482.67,483.89c.91-.06,1.82-.15,2.75-.15h61.76c.88,0,1.76.25,2.64.39-21.12,0-42.24-.03-63.36-.05-1.27,0-2.53-.12-3.79-.19h0Z"/>
      <path class="cls-14" d="M338.95,463.99c-.46.23-.93.45-1.39.68.46-.23.93-.45,1.39-.68Z"/>
      <path class="cls-37" d="M471.52,366.29c6.13-1.42,12.28-2.77,18.39-4.3,1.36-.34,2.56-1.28,3.85-1.95,2.56-1.59,5.33-2.02,8.28-1.5l2.72.17c1.82,2.92,2.04,6.32,2.81,9.53,4.54,19.05,8.41,38.27,14.28,57,.34,1.08.82,2.19.23,3.35-10.82,2.55-21.65,5.1-32.46,7.68-.77.19-1.5.53-2.26.8-3.52,2.81-6.74,2.04-9.63-2.32-1.85-3.89-3.72-7.79-5.58-11.67-2.87-5.45-4.79-11.17-4.98-17.4,1.08-.94,2.36-.79,3.62-.62,5.11.7,10.12-.19,15.1-1.17,3.52-.71,3.63-1.34,2.97-4.88-.62-3.34-.6-6.81-.59-10.15.02-3.07-1.48-3.63-3.52-4.02-3.65-.7-7.4-.62-11.05-.14-3.03.4-5.69.49-7.93-1.98-1-1.1-2.9-.87-3.82-2.24-.65-1.81-.77-3.57.4-5.22,3.4-.2,5.33-2.52,7.05-5.02.83-1.22,1.42-2.64,2.12-3.97h0Z"/>
      <path class="cls-1" d="M462.35,375.28c-.05,1.88-.08,3.75-.12,5.64-2.7,6.69-.91,13.3.48,19.89.31,1.5,1.62,2.46,2.98,3.21.74.42,1.88.54,1.68,1.84,1.59,5.75,3.18,11.5,4.76,17.24-2.16-2.8-4.33-5.61-6.5-8.41-5.45-6.97-12.33-12.02-20.63-15.05-3.55-1.3-7.2-2.29-10.82-3.41-.32-.34-.63-.66-.96-1-.11-1.61,1.04-2.16,2.24-2.64,1.81-.71,3.69-1.25,5.44-2.09,5.67-2.69,10.61-6.38,14.08-11.68,1.84-2.81,4-4.23,7.37-3.55v.02Z"/>
      <path class="cls-1" d="M477.73,434.77c.2.11.46.17.57.34,2.43,3.4,5.65,3.09,9.05,1.98-.25,6.49-.48,12.96-.76,19.44-.03.66-.29,1.31-.45,1.96h-4.25c-1.31-4.7-2.66-9.38-3.89-14.09-.28-1.04-.17-2.15-.25-3.23.31-.99.76-1.96.59-3.04-.2-1.11-.42-2.22-.62-3.34v-.02Z"/>
      <path class="cls-28" d="M478.33,438.11c1.16,1.11.97,2.13-.59,3.04-9.04,2.33-18.08,4.67-27.13,7-.57-.48-1.13-.94-1.7-1.42.65-.56,1.21-1.41,1.95-1.61,4.88-1.38,9.78-2.63,14.69-3.88,4.25-1.08,8.5-2.09,12.75-3.12l.03-.02Z"/>
      <path class="cls-27" d="M406.21,459.27c-1.02-.08-2.04-.15-3.06-.23,1.14-.94,2.24-1.96,3.45-2.83,3.66-2.61,7.39-5.18,11.08-7.76.66-.46,1.3-1.04,2.04-1.28.54-.17,1.22.11,1.85.19-.11.71-.15,1.44-.36,2.12-.08.26-.51.45-.79.63-3.89,2.7-7.76,5.44-11.68,8.1-.74.49-1.67.7-2.52,1.04l-.02.03Z"/>
      <path class="cls-34" d="M434.5,354.12c.06,2.84-2.36,5.25-5.28,5.25s-4.93-1.72-5.04-4.5c-.12-3.11,1.89-5.98,4.83-6.1,2.3-.09,5.44,2.94,5.49,5.35h0Z"/>
      <path class="cls-34" d="M398.06,355.15c-2.26-.02-4.13-1.96-4.11-4.23.02-2.64,3-5.88,5.55-5.84,2.58.05,3.55,2.79,3.47,5.36-.08,2.73-2.18,4.74-4.9,4.71h-.02Z"/>
      <path class="cls-29" d="M444.89,345.48c-4.37-5.89-10.48-5.82-16.67-4.82-.94-1.48-.17-2.12.87-2.58,4.5-1.99,13.46.34,16.49,4.28.77,1,1.34,1.96-.68,3.12h0Z"/>
      <path class="cls-29" d="M406.76,339.42c-1.04-.37-1.68-.53-2.27-.82-4.36-2.19-8.64-2.16-12.84.37-1.1.66-2.15,1.62-3.21-.25,1.14-2.01,3.14-2.87,5.19-3.54,3.4-1.13,6.84-.9,10.2.23,1.56.53,3.31,1.16,2.94,4.02v-.02Z"/>
      <path class="cls-7" d="M405.33,374.22c1.24-.76,1.93.32,2.69.9,2.24,1.75,4.51,2.1,7.06.68.71-.4,1.67-.36,2.73-.56-1.16,2.98-3.65,4.43-6.6,4.14-2.66-.25-5.38-2.63-5.89-5.16Z"/>
      <path class="cls-7" d="M409.91,365.38c-.28-.68-.9-1.41-.79-2.01.54-2.92,1.25-5.82,1.95-8.71.08-.31.29-.68.56-.85.36-.22.87-.45,1.19-.34.34.12.83.71.77.99-.82,3.65-1.73,7.26-2.61,10.89l-1.08.03h.02Z"/>
      <path class="cls-23" d="M527,690.65c-3.54.05-7.08.25-10.6.06-2.69-.14-5.21-.03-7.59,1.38-.73.43-1.73.4-2.6.57.05-1.04.12-2.07.12-3.11v-131.98c0-.34-.03-.7-.05-1.04,7.77-1.02,15.54-2.04,23.3-3.06-.15,2.39-.32,4.79-.45,7.2-.08,1.38-.08,2.77-.09,4.16-.25,20.75-.09,41.52-.9,62.25-.45,11.53.15,23.07-.65,34.55-.68,9.69-.36,19.34-.51,29.02Z"/>
      <path class="cls-11" d="M522.06,428.6c-3.46-9.72-5.98-19.7-8.31-29.74-1.87-8.02-3.91-16.01-5.73-24.03-1.22-5.35-2.18-10.74-3.26-16.1,1.38-.29,2.73-.57,4.11-.87,1.85.02,1.73,1.64,2.01,2.72,5.32,20.87,10.95,41.64,16.36,62.48.32,1.22.65,2.46.29,3.74-.31.8-.87,1.28-1.78,1.25-1.24.19-2.46.37-3.69.54h0Z"/>
      <path class="cls-23" d="M525.75,428.06l1.21-.85c.53-.43.96-.91,1.19-1.61,1.65-5.16,9.07-10.54,14.54-10.6.34,0,.63.25.9.46,5.16,2.87,7.63,7.45,8.34,13.15-3.68,3.88-15.03,7.85-19.99,7-4.05-.7-6.72-3.96-6.18-7.57v.02Z"/>
      <path class="cls-14" d="M585.23,414.11c.68-.28,1.36-.57,2.05-.85v5.73c-.68-1.62-1.38-3.26-2.05-4.88Z"/>
      <path class="cls-34" d="M416.7,663.01c-1.78-1.19-1.96-3.15-1.96-4.94,0-9.22,0-18.46.32-27.69.26-7.49,1.02-14.97,1.5-22.45.87-13.35,1.96-26.71,2.46-40.08.26-7.23-.48-14.51-.85-21.77-.06-1.11-.48-2.19-1.41-3.4-.26.87-.66,1.7-.77,2.58-1.39,11.11-2.98,22.19-4.03,33.33-1.72,18.28-3.32,36.56-7.97,54.39-1.42,5.41-1.58,10.94-1.81,16.47-.12,3.11-.48,6.21-.79,9.32-.26,2.66-1.16,4.9-4,5.78-7.08.63-14.11.74-21-1.39-.8-.06-1.62-.05-2.41-.17-2.87-.49-5.01-1.87-5.32-5.01-.46-4.57-1.08-9.16-1.14-13.74-.14-12.95,1.75-25.71,3.65-38.49,2.1-14.12,3.62-28.34,5.32-42.52.82-6.86,1.55-13.74,2.24-20.61.43-4.36.76-8.73,1.08-13.09.28-3.79.48-7.57.71-11.36,1.34-.23,2.69-.68,4.03-.68,25.74-.05,51.48-.05,77.22-.02,1.34,0,2.69.42,4.03.63.34,9.18-1.67,18.11-2.92,27.12-1.85,13.36-4.06,26.68-5.73,40.06-1.48,11.9-2.27,23.89-3.71,35.8-.83,6.86-2.35,13.63-3.6,20.43-.71,3.86-1.24,7.73-.63,11.68.26,1.7.29,3.45.31,5.18.03,4.48-.71,5.24-5.13,5.36-2.7,1.9-5.79,1.07-8.7,1.02-3.99-.05-8-.31-11.93-1.24-2.32-.48-4.74.39-7.03-.49l-.03-.02Z"/>
      <path class="cls-15" d="M275.59,685.23c-1.79-.11-3.6-.28-5.39-.28-3.45,0-6.89.17-10.32.11-5.96-.09-11.93-.43-17.91-.43-1.78,0-3.54.77-5.32,1.19-.2-5.65-.4-11.31-.62-16.96-.56-14.42-1.16-28.85-1.68-43.26-.42-11.31-.7-22.64-1.1-33.95-.53-14.54-1.17-29.08-1.67-43.62-.25-7.39-.25-14.79-.37-22.17-.05-2.53-.14-5.08-.22-7.62h43.56c0,12.01-.06,24.03.02,36.03.12,17.09.42,34.18.53,51.27.15,23.67.2,47.36.31,71.03,0,2.89.11,5.76.17,8.65l.02.02Z"/>
      <path class="cls-21" d="M376.39,663.15c7,.46,14,.93,21,1.39-.17,2.3-.36,4.6-.53,6.91h-18c-.37-1.61-.8-3.2-1.08-4.82-.22-1.28.19-2.77-1.39-3.49v.02Z"/>
      <path class="cls-13" d="M367.95,683.06c1.07.25,2.12.66,3.2.73,2.5.12,5.02.03,7.54.12.87.03,1.73.32,2.6.51-1.82,1.79-4.14.96-6.26,1.13-1.72.14-3.46-.08-4.76.06,3.62.56,7.79-.97,11.71,1-1.28.25-2.55.53-3.83.74-1.51.26-3.03.46-4.54.7-3.68,1.47-7.34,1.7-10.97-.12.9-2.58,3.37-3.43,5.32-4.87h0Z"/>
      <path class="cls-21" d="M373.53,678.33c.36,1.44,1.59,1.1,2.53,1.16,2.16.15,4.36.11,6.52.29.54.05,1.02.68,1.53,1.04-.4.48-.82,1.41-1.19,1.38-3.63-.19-7.25-.53-10.85-.87-.22-.02-.4-.53-.59-.8.68-.74,1.36-1.47,2.05-2.21l-.02.02Z"/>
      <path class="cls-28" d="M362.63,687.91c3.66.05,7.31.08,10.97.12.32.94.49,2.02-.87,2.04-3.45.06-6.89-.03-10.34-.15-.25,0-.48-.68-.71-1.05.31-.32.63-.65.94-.97v.02Z"/>
      <path class="cls-13" d="M368.77,682.38c-.26.22-.51.43-.77.65.26-.22.51-.43.77-.65Z"/>
      <path class="cls-12" d="M492.92,557.8l-1.33-.34c-1.21-.4-2.5.03-3.71-.37-11.68-1.45-17.63-11.48-16.13-20.6,1-6.12,1.99-12.22,3-18.34h17.95c.46,3.43.17,6.72.23,10,.05,3.34,0,6.66,0,10v9.66c0,3.34,0,6.66-.02,10h0Z"/>
      <path class="cls-15" d="M226.36,686.62c-1.75,0-3.51,0-5.25-.02,0-9.59-.05-19.17-.05-28.77,0-44.02.02-88.05.03-132.07.23,1.47.6,2.94.65,4.4.31,9.92.54,19.85.82,29.77.46,16.04.93,32.08,1.41,48.11.46,15.7.91,31.38,1.39,47.08.32,10.49.66,21,1,31.49Z"/>
      <path class="cls-21" d="M423.6,663.1c6.92.2,13.84.4,20.75.6.02,2.75.03,5.5.05,8.27-3.65-.17-7.31-.49-10.95-.49-3.41,0-6.84.37-10.26.59.09-2.72.2-5.44.29-8.16-.31-.32-.28-.59.11-.8h.02Z"/>
      <path class="cls-13" d="M487.88,557.09c1.24.12,2.47.25,3.71.37-1.24-.12-2.47-.25-3.71-.37Z"/>
      <path class="cls-21" d="M411.63,686.41c4.59-.19,9.18-.37,13.77-.56.8-.03,1.64-.15,2.41,0,.57.11,1.07.57,1.61.88-.49.51-.91,1.21-1.51,1.45-.71.29-1.58.25-2.38.28-4.36.17-8.73.36-13.1.45-1.11.02-2.22-.34-3.34-.51.56-1.02,1.24-1.88,2.53-1.98l.02-.02Z"/>
      <path class="cls-21" d="M420.9,678.23c5.04.15,10.15-.4,15.13.53.2.46.4.91.6,1.38-.59.26-1.19.76-1.78.76-5.15-.03-10.31-.14-15.45-.26-.43,0-.85-.31-1.28-.48.14-1.78,1.45-1.85,2.78-1.92h0Z"/>
      <path class="cls-28" d="M416.64,681.84c4.36,0,8.7-.03,13.06-.02,1.36,0,2.72.06,1.5,2.01-5.58.68-11.16.39-16.73.15-.19-.03-.37-.08-.54-.14-.09-2.02,1.55-1.72,2.72-2.01h0Z"/>
      <path class="cls-10" d="M423.6,663.1c-.03.26-.08.54-.11.8-1.11-.05-2.22-.03-3.32-.17-1.17-.15-2.32-.48-3.48-.74,2.3.03,4.6.06,6.91.09v.02Z"/>
      <path class="cls-28" d="M381.98,686.6c-11.23.45-14.09.22-15.84-1.62,5.19-1.3,10.23.08,15.13-.56,1.13.45,1.38,1.17.7,2.19l.02-.02Z"/>
      <path class="cls-3" d="M414.46,683.99c5.58-.05,11.16-.11,16.73-.15-.49.25-.99.68-1.48.7-4.7.06-9.39.06-14.09.03-.39,0-.79-.37-1.17-.57h.02Z"/>
      <path class="cls-35" d="M284.92,206.73c.19.26.39.53.57.79-.17,1.62-.36,3.24-.53,4.87-.31,2.27-.49,4.57-.96,6.81-.49,2.38-1.34,4.62-3.51,6.13-1.59,1.11-2.29,2.75-2.56,4.68-.88,6.18-2.81,12.08-5.3,17.77-1.33,3.03-3.04,5.9-4.68,8.79-3.18,5.65-8.68,7.96-14.48,9.76-1.21.37-2.46.54-3.71.77-2.89.53-2.92.57-3.03,3.54-.02.46,0,.93,0,1.38-.37,1.76-1.99,1.73-3.21,2.1-3.41,1.05-6.89,1.92-10.52,1.38-3.51-1.27-7.09-2.19-10.88-1.95-7.6-.51-12.55-5.3-17.1-10.69,1.59-6.07.39-12.07-.46-18.09-.4-2.83-.49-5.7-.8-8.56-.09-.9-.45-1.78-.7-2.66-.46-1.65-1.55-2.46-3.28-2.52-1.02-.03-2.07-.14-3.06-.37-9.98-2.3-11.87-10.04-10.97-17.88.15-1.36,1.33-2.61,2.02-3.92,1.13-2.69,3.46-2.18,5.47-1.79,6.88,1.33,11.74,5.56,15.56,11.22.62.93.85,2.16,2.52,2.98,1.07-4.7,2.12-9.25,3.23-13.77,1.55-6.27,2.44-12.69,4.11-18.94.26-1,.42-2.04.77-3.01,1.68-4.74,5.01-5.73,8.71-2.36,3.09,2.8,6.49,4.73,10.65,5.35,9.69,1.42,18.54-.82,26.7-6.07,6.18-3.97,6.27-3.96,8.92,2.92,3.68,9.56,5.67,19.45,5.67,29.23,1.08-2.66-.7-6.27,1.41-9.29,1.34-.03,2.69-.11,3.41,1.39l.02.02Z"/>
      <path class="cls-15" d="M281.52,205.34c-.31,4.51-.62,9.04-.91,13.55h-.71c-.76-6.64-1.21-13.35-2.36-19.93-1.16-6.58-3.54-12.84-6.32-19.02-3.65,2.16-6.97,4.4-10.52,6.18-7.35,3.68-15.17,4.59-23.24,3.14-3.11-.56-5.93-1.87-8.31-4.02-.51-.46-1.02-.93-1.55-1.39-3.65-3.26-6.01-2.61-7.29,2.27-1.3,4.9-2.27,9.89-3.38,14.83-1.45,6.52-2.87,13.06-4.39,19.58-.22.94-.87,1.81-1.58,3.24-.73-1.24-1.17-1.95-1.58-2.69-3.6-6.72-8.68-11.56-16.39-13.21-1.92-.4-3.6-.11-5.18,1-1.48-.43-1.42-1.76-1.44-2.84-.05-2.19-.09-4.42.26-6.57,1.36-8.19,2.73-16.39,4.4-24.54,1.38-6.69,6.38-10.21,12.3-12.53,2.24-.88,4.65-1.45,7.03-1.75,2.32-.29,4.03-1.27,5.75-2.8,3.96-3.54,7.73-7.29,12.44-9.9,7.88-4.34,15.91-4.53,23.83-.46,5.02,2.58,9.86,5.58,14.51,8.76,2.83,1.93,5.3,4.42,7.68,6.91,3,3.12,3.29,6.72,1.04,10.48-.29.49-.51,1.04-.82,1.64,4.2,9.56,7.34,19.41,6.72,30.07h.02Z"/>
      <path class="cls-8" d="M205.04,262.86c1.28.93,2.83,1.65,3.82,2.84,3.43,4.06,7.8,6.29,12.96,7.12.02,2.01-1.64,2.94-2.73,4.2-1.04,1.19-2.12,2.52-1,3.99,3.92,5.21,3.2,11.43,3.82,17.3.71,6.75,1.34,13.53,1.79,20.32.08,1.13.43,2.32-.68,3.18-.9-1.82-1.93-3.6-2.67-5.5-3.69-9.44-7.09-19-11.02-28.34-1.85-4.42-4.82-8.37-6.98-12.69-1.22-2.43-1.95-5.11-2.7-7.73-.26-.94-.28-1.81-1.48-1.92,2.01-1.62,4.11-3.07,6.89-2.8h0Z"/>
      <path class="cls-15" d="M223.01,321.82c-.83-8.84-1.67-17.66-2.49-26.5-.12-1.27-.15-2.53-.15-3.8,0-3.55-.87-6.8-3.01-9.72-1.64-2.21-1.47-2.81.39-4.76,1.34-1.42,2.72-2.81,4.08-4.22,3.75-.37,7.45-.39,10.66,2.07,1.64.59,2.38,2.12,3.41,3.34,1.31,1.53,1.36,3.23.05,4.73-3,3.38-3.51,7.48-3.43,11.68.17,9.22-.63,18.48.62,27.69.17,1.27.09,2.53-.29,3.77.76,5.42-1.48,10.41-2.38,15.59-.14.8-.87,1.5-1.47,2.47-.68-.56-1.34-.8-1.48-1.24-1.05-3.26-2.24-6.5-2.94-9.84-.77-3.69-1.05-7.49-1.56-11.25v-.02Z"/>
      <path class="cls-22" d="M232.83,326.09c-.42-3.04-1.13-6.09-1.19-9.13-.15-8.17-.03-16.36,0-24.55,0-3.89.59-7.57,3.79-10.31.4-.34.59-.94.85-1.39-1.31-2.01-2.55-3.91-3.79-5.82,4.93-.12,9.7-.96,14.28-2.87,1.13.25,2.26.51,3.37.76.26.39.51.79.77,1.17.94,5.05-1.39,8.47-4.96,11.87-2.09,1.99-3.17,5.32-4.08,8.24-1.44,4.6-2.32,9.36-3.46,14.04-1.38,5.58-2.77,11.16-4.23,16.72-.14.51-.9.85-1.36,1.27l.02.02Z"/>
      <path class="cls-8" d="M255.69,275.46c.28.14.54.26.82.4-.28-.14-.54-.26-.82-.4Z"/>
      <path class="cls-37" d="M543.56,415.47c-4.56,1.3-9.02,2.75-12.59,6.12-1.42,1.34-2.61,2.7-1.11,5.1-1.24.22-2.09.36-2.94.51-.77-3.57-1.42-7.17-2.33-10.71-2.16-8.44-4.47-16.83-6.67-25.25-2.84-10.86-5.64-21.72-8.47-32.59-.08-.29-.4-.54-.62-.8,4.09-1.08,8.2-2.15,12.3-3.23,7.23-1.92,14.45-3.91,21.71-5.75,3.43-.87,6.95-1.44,10.88-2.22.57,2.83,1.1,5.36,1.61,7.91,1.11,5.64,2.16,11.29,3.31,16.92,1.59,7.9,3.23,15.78,4.9,23.64.31,1.44-.12,2.43-1.21,3.32-5.22,4.34-10.44,8.7-15.61,13.12-1.27,1.08-3.03,1.84-3.14,3.89l-.02.02Z"/>
      <path class="cls-6" d="M587.24,353.2c.02-.46-.08-.96.06-1.38,1.65-4.84,3.35-9.66,5.04-14.49.25.03.49.06.74.08,1.07,4.26,2.16,8.51,3.2,12.79,1.08,4.45,2.05,8.95,3.2,13.38.57,2.24.32,4.08-1.58,5.55-3.54,2.73-7.08,5.47-10.61,8.2-.56-.48-.91-1.11-.91-1.81-.11-7.46-.97-14.96.85-22.34l.02.02Z"/>
      <path class="cls-28" d="M565.92,260.62c.48.76.96,1.51,1.42,2.29-2.53,3.37-4.9,6.89-7.66,10.06-2.09,2.39-4.56,4.53-7.12,6.43-2.69,2.01-4.3,1.21-5.08-2.13-.15-.66-.31-1.34-.32-2.02-.08-4.57-.12-9.13-.17-13.7,1.19-.88,2.36-1.78,3.55-2.66,4.42,2.9,9.13,3.15,14.06,1.56.45-.14.9.03,1.33.22v-.03Z"/>
      <path class="cls-21" d="M587.24,353.2c.02,8.05.05,16.1.06,24.15-1.25,1.82-3.07,2.89-5.52,4.59.26-3.62.25-6.46.74-9.21,1.07-5.96,2.39-11.9,3.66-17.83.14-.62.7-1.14,1.05-1.72v.02Z"/>
      <path class="cls-28" d="M502.02,358.57c-2.77.49-5.52,1-8.28,1.5,1.79-4.76,5.01-8.62,7.97-13.41.63,4.47-1.33,8.25.31,11.91h0Z"/>
      <path class="cls-23" d="M565.92,260.62c-2.83,1.53-5.87,1.82-9.04,1.68-2.75-.11-4.93-1.04-6.35-3.46.77-.99,1.55-1.98,2.3-2.98.63-.82,1.55-1.78.51-2.69-.49-.42-1.67-.29-2.46-.09-3.89.99-7.71,2.58-11.67,3.04-8.28.99-15.98-.73-22.73-6.1-5.55-4.42-8.93-10.18-11.5-16.56-3.28-8.16-6.18-16.45-7.57-25.14-1.14-7.12-.51-14.26,1.56-21.23.05-.19.31-.29.68-.63.37,4.6,1.48,8.87,3.46,12.89.56,1.13,1.21,2.24,1.93,3.26.8,1.13,1.98,1.65,3.34,1.16s1.33-1.73,1.25-2.92c-.23-3.8-.46-7.59-.7-11.39-.03-.46,0-.91,0-2.05.77,1.02,1.28,1.53,1.61,2.13,3.29,6.13,7.34,11.73,11.99,16.9,1.92,2.13,3.15,2.33,5.76.97,4.77-2.52,4.71-2.5,3.11-7.59-.66-2.1-1.93-4.13-1.61-6.67,2.47,2.87,4.76,5.58,7.11,8.22.76.85,1.65,1.64,2.6,2.27,2.15,1.45,3.75.63,3.96-2.02.08-1.02-.11-2.07-.25-3.09-.29-2.16-.62-4.33-1.04-7.25,1.44,1.14,2.36,1.88,3.29,2.64,4.51,3.62,9.07,7.17,14.66,9.02,1.42.46,2.87.85,4.34,1.1,2.81.46,5.3.08,6.63-2.94.19-.4.56-.73.85-1.1,2.92-3.55,5.99-3.18,7.93,1.05,1.51,3.31,1.7,6.78.2,10.07-.66,1.47-2.02,2.87-3.43,3.68-3.17,1.82-4.87,4.42-5.56,7.91-.51,2.6-1.08,5.21-1.92,7.73-1.17,3.6-2.24,7.31-4.02,10.61-3.35,6.24-3.85,12.22.06,18.31.25.39.42.82.62,1.24l.08.02Z"/>
      <path class="cls-28" d="M430.49,477.38c-.08.34-.05.82-.26.97-4.5,3.38-8.9,7-15.19,5.61-1.33-.29-2.72-.46-4.08-.51-7.37-.28-14.76-.2-22.08-.82-5.21-.43-10.52-1.02-15.76-3.71,1.96-2.5,3.85-4.88,5.73-7.26.22-.26.57-.46.71-.76,1.92-4.05,5.32-4.65,9.25-4.09.05.56.11,1.13.15,1.68-.02,1.31-1.88,1.58-1.73,3.01,1,.68,1.92-.42,2.87-.11,5.87,3.11,12.22,3.82,18.7,3.66,3.88-.09,7.73.31,11.62.23,3.34-.06,6.71,1.31,10.06,2.05v.03Z"/>
      <path class="cls-27" d="M390.12,471.43c-.77.45-1.51,1-2.33,1.28-.4.14-1.28-.09-1.44-.4-.25-.49-.34-1.45-.03-1.78.74-.8,1.75-1.36,2.64-2.02.39.97.76,1.95,1.14,2.92h.02Z"/>
      <path class="cls-23" d="M467.38,405.85c-.49-.26-.94-.62-1.47-.74-2.19-.59-3.66-2.01-4.19-4.13-.63-2.53-1-5.15-1.38-7.74-.29-2.15-.34-4.33-.63-6.47-.34-2.5.17-4.56,2.5-5.87,2.81-.36,4.94.66,5.84,2.77,5.1,0,9.7-.08,14.31.05,1.7.05,3.46.37,5.07.93,2.67.93,2.87,2.05,1.16,4.67.49.8,1.31,1.59,1.42,2.47.09.76-.62,1.62-1.05,2.6,1.34,1.16,1.75,2.55.11,3.92,2.92,3.29,2.53,5.08-1.5,6.12-5.59,1.45-11.28,2.24-17.1,1.53-1.02-.12-2.07-.08-3.11-.11l.02.02Z"/>
      <path class="cls-15" d="M256.84,233.72c-2.21.15-3.85.28-5.95.43-.06-5.55.08-10.65.71-15.71.23-.05.46-.09.7-.12,1.47,4.98,2.94,9.97,4.54,15.42v-.02Z"/>
      <path class="cls-15" d="M251.81,251.35c-3.62-.26-6.23-1.65-8.27-4.02-.37-.43-.12-1.39-.17-2.12.65,0,1.34-.19,1.92.03.62.23,1.1.82,1.64,1.25,2.26,1.76,4.67,2.35,7.43,1.19,1.17-.49,2.89-1.59,3.58.26.73,1.95-1.44,1.98-2.58,2.46-1.27.53-2.66.71-3.57.94h.02Z"/>
      <path class="cls-15" d="M239.62,211.29c-.03,1.64-1.56,3.14-3.12,3.06-1.41-.06-2.52-1.27-2.53-2.75,0-1.51,1.73-4.81,3.27-4.81,1.3,0,2.41,3.11,2.38,4.51Z"/>
      <path class="cls-15" d="M263.05,205.86c1.48-.06,2.85,2.75,3,4.18.15,1.47-1.31,3.34-2.69,3.43-1.44.09-2.75-1.47-2.78-3.26-.02-1.64,1.01-4.28,2.47-4.35Z"/>
      <path class="cls-11" d="M554.69,375.65c.02,2.95-.31,3.55-2.7,4.34-3.92,1.3-7.91,2.43-11.84,3.71-3.17,1.04-6.27,2.24-9.41,3.34-3.37,1.17-4.87.39-5.82-3.04-.97-3.54-1.93-7.08-2.9-10.61-.06-.22-.12-.45-.2-.66-1.28-3.79-1.27-3.72,2.38-4.76,7.71-2.21,15.4-4.54,23.13-6.74,3.23-.91,3.91-.34,4.64,2.97.71,3.24,1.59,6.44,2.38,9.67.19.77.31,1.56.36,1.78v.02Z"/>
      <path class="cls-28" d="M528.07,241.42c.71-.65.99-1.08,1.38-1.22,4.34-1.67,8.03-4.4,11.65-7.23.28-.22.54-.43.83-.6,2.01-1.17,3.32-.53,3.58,1.75.63,5.44-3.17,10.23-8.76,10.66-1.99.15-4.11-.31-6.04-.91-.99-.31-1.7-1.53-2.64-2.43v-.02Z"/>
      <path class="cls-5" d="M534.8,231.45c-.56.94-.97,2.02-1.7,2.81-1.85,2.01-4.37,1.56-5.59-.91-.25-.51-.51-1.07-.54-1.62-.29-4.57-.57-9.16-.77-13.74-.05-.96.31-1.85,2.04-1.58v5.65c.02,2.18,0,4.37.09,6.55.06,1.72-.03,3.66,1.96,4.39,1.87.7,2.92-.82,3.91-2.18.2.22.4.42.6.63v-.02Z"/>
      <path class="cls-15" d="M513.45,217.16c2.19,1.3,2.83,3.51,2.87,5.79.02.77-.91,1.85-1.7,2.24-.42.22-1.65-.56-2.12-1.17-1.76-2.41-1.36-5.04.93-6.86h.02Z"/>
      <path class="cls-15" d="M545.11,211c2.13,2.09,2.9,5.81,1.79,8.02-.46.93-1.47,1-2.27.19-1.84-1.87-1.68-5.87.46-8.2h.02Z"/>
      <path class="cls-32" d="M685.03,344.99c-2.5,0-4.99-.14-7.34-1.08-2.21-.88-3.91-2.29-4.56-4.71-.83-3.12.37-5.04,3.65-5.76-.03-.48-.48-.56-.74-.82-1.67-1.59-2.05-4-.97-6.03,2.22-4.19,9.98-5.18,13.16-1.68,1.13,1.24,1.67,2.78,2.12,4.36.4-.06.54-.4.79-.63,2.44-2.24,5.55-1.95,7.45.79,1.55,2.22,2.26,4.73,1.98,7.43-.28,2.77-1.68,4.82-4.17,6.09s-5.18,1.75-7.93,1.99c-.65-1.17-.39-2.44-.23-3.65.28-2.16.32-4.36.65-6.52.03-.17.02-.34-.17-.57-.77.8-1.25,1.76-1.72,2.75-1.05,2.32-1.11,2.32-2.9.59-.45-.43-.93-.85-1.51-1.25,1.19,2.3,2.21,4.62,2.69,7.11.11.53.34,1.1-.23,1.55v.06Z"/>
      <path class="cls-30" d="M685.03,344.99c-.08-3.23-1.47-6.03-2.94-8.79-.11-.2-.42-.36-.17-.74,1.21.71,2.22,1.65,3.17,2.66.53.54.79.7,1.1-.19.48-1.38,1.25-2.63,2.04-3.85.19-.28.37-.7.74-.62.45.11.28.57.25.88-.17,2.18-.31,4.36-.6,6.5-.19,1.38-.11,2.73-.17,4.11-.31,1.36-.6,2.7-.22,4.09.12.79.37,1.56-.34,2.24-1.21,1.14-2.58.65-3.31-1.24.14-1.7.49-3.37.45-5.08v.02Z"/>
      <path class="cls-17" d="M655.67,364.89c-2.5,0-4.99-.14-7.34-1.08-2.21-.88-3.91-2.29-4.56-4.71-.83-3.12.37-5.04,3.65-5.76-.03-.48-.48-.56-.74-.82-1.67-1.59-2.05-4-.97-6.03,2.22-4.19,9.98-5.18,13.16-1.68,1.13,1.24,1.67,2.78,2.12,4.36.4-.06.54-.4.79-.63,2.44-2.24,5.55-1.95,7.45.79,1.55,2.22,2.26,4.73,1.98,7.43-.28,2.77-1.68,4.82-4.17,6.09s-5.18,1.75-7.93,1.99c-.65-1.17-.39-2.44-.23-3.65.28-2.16.32-4.36.65-6.52.03-.17.02-.34-.17-.57-.77.8-1.25,1.76-1.72,2.75-1.05,2.32-1.11,2.32-2.9.59-.45-.43-.93-.85-1.51-1.25,1.19,2.3,2.21,4.62,2.69,7.11.11.53.34,1.1-.23,1.55v.06Z"/>
      <path class="cls-19" d="M655.67,364.89c-.08-3.23-1.47-6.03-2.94-8.79-.11-.2-.42-.36-.17-.74,1.21.71,2.22,1.65,3.17,2.66.53.54.79.7,1.1-.19.48-1.38,1.25-2.63,2.04-3.85.19-.28.37-.7.74-.62.45.11.28.57.25.88-.17,2.18-.31,4.36-.6,6.5-.19,1.38-.11,2.73-.17,4.11-.31,1.36-.6,2.7-.22,4.09.12.79.37,1.56-.34,2.24-1.21,1.14-2.58.65-3.31-1.24.14-1.7.49-3.37.45-5.08v.02Z"/>
      <path class="cls-20" d="M701.44,391.88c-2.5,0-4.99-.14-7.34-1.08-2.21-.88-3.91-2.29-4.56-4.71-.83-3.12.37-5.04,3.65-5.76-.03-.48-.48-.56-.74-.82-1.67-1.59-2.05-4-.97-6.03,2.22-4.19,9.98-5.18,13.16-1.68,1.13,1.24,1.67,2.78,2.12,4.36.4-.06.54-.4.79-.63,2.44-2.24,5.55-1.95,7.45.79,1.55,2.22,2.26,4.73,1.98,7.43-.28,2.77-1.68,4.82-4.17,6.09-2.49,1.27-5.18,1.75-7.93,1.99-.65-1.17-.39-2.44-.23-3.65.28-2.16.32-4.36.65-6.52.03-.17.02-.34-.17-.57-.77.8-1.25,1.76-1.72,2.75-1.05,2.32-1.11,2.32-2.9.59-.45-.43-.93-.85-1.51-1.25,1.19,2.3,2.21,4.62,2.69,7.11.11.53.34,1.1-.23,1.55v.06Z"/>
      <path class="cls-30" d="M701.44,391.88c-.08-3.23-1.47-6.03-2.94-8.79-.11-.2-.42-.36-.17-.74,1.21.71,2.22,1.65,3.17,2.66.53.54.79.7,1.1-.19.48-1.38,1.25-2.63,2.04-3.85.19-.28.37-.7.74-.62.45.11.28.57.25.88-.17,2.18-.31,4.36-.6,6.5-.19,1.38-.11,2.73-.17,4.11-.31,1.36-.6,2.7-.22,4.09.12.79.37,1.56-.34,2.24-1.21,1.14-2.58.65-3.31-1.24.14-1.7.49-3.37.45-5.08v.02Z"/>
      <path class="cls-20" d="M639.59,404.73c-2.5,0-4.99-.14-7.34-1.08-2.21-.88-3.91-2.29-4.56-4.71-.83-3.12.37-5.04,3.65-5.76-.03-.48-.48-.56-.74-.82-1.67-1.59-2.05-4-.97-6.03,2.22-4.19,9.98-5.18,13.16-1.68,1.13,1.24,1.67,2.78,2.12,4.36.4-.06.54-.4.79-.63,2.44-2.24,5.55-1.95,7.45.79,1.55,2.22,2.26,4.73,1.98,7.43-.28,2.77-1.68,4.82-4.17,6.09-2.49,1.27-5.18,1.75-7.93,1.99-.65-1.17-.39-2.44-.23-3.65.28-2.16.32-4.36.65-6.52.03-.17.02-.34-.17-.57-.77.8-1.25,1.76-1.72,2.75-1.05,2.32-1.11,2.32-2.9.59-.45-.43-.93-.85-1.51-1.25,1.19,2.3,2.21,4.62,2.69,7.11.11.53.34,1.1-.23,1.55v.06Z"/>
      <path class="cls-30" d="M639.59,404.73c-.08-3.23-1.47-6.03-2.94-8.79-.11-.2-.42-.36-.17-.74,1.21.71,2.22,1.65,3.17,2.66.53.54.79.7,1.1-.19.48-1.38,1.25-2.63,2.04-3.85.19-.28.37-.7.74-.62.45.11.28.57.25.88-.17,2.18-.31,4.36-.6,6.5-.19,1.38-.11,2.73-.17,4.11-.31,1.36-.6,2.7-.22,4.09.12.79.37,1.56-.34,2.24-1.21,1.14-2.58.65-3.31-1.24.14-1.7.49-3.37.45-5.08v.02Z"/>
      <path class="cls-20" d="M51.84,386.05c-2.5,0-4.99-.14-7.34-1.08-2.21-.88-3.91-2.29-4.56-4.71-.83-3.12.37-5.04,3.65-5.76-.03-.48-.48-.56-.74-.82-1.67-1.59-2.05-4-.97-6.03,2.22-4.19,9.98-5.18,13.16-1.68,1.13,1.24,1.67,2.78,2.12,4.36.4-.06.54-.4.79-.63,2.44-2.24,5.55-1.95,7.45.79,1.55,2.22,2.26,4.73,1.98,7.43-.28,2.77-1.68,4.82-4.17,6.09-2.49,1.27-5.18,1.75-7.93,1.99-.65-1.17-.39-2.44-.23-3.65.28-2.16.32-4.36.65-6.52.03-.17.02-.34-.17-.57-.77.8-1.25,1.76-1.72,2.75-1.05,2.32-1.11,2.32-2.9.59-.45-.43-.93-.85-1.51-1.25,1.19,2.3,2.21,4.62,2.69,7.11.11.53.34,1.1-.23,1.55v.06Z"/>
      <path class="cls-19" d="M51.84,386.05c-.08-3.23-1.47-6.03-2.94-8.79-.11-.2-.42-.36-.17-.74,1.21.71,2.22,1.65,3.17,2.66.53.54.79.7,1.1-.19.48-1.38,1.25-2.63,2.04-3.85.19-.28.37-.7.74-.62.45.11.28.57.25.88-.17,2.18-.31,4.36-.6,6.5-.19,1.38-.11,2.73-.17,4.11-.31,1.36-.6,2.7-.22,4.09.12.79.37,1.56-.34,2.24-1.21,1.14-2.58.65-3.31-1.24.14-1.7.49-3.37.45-5.08v.02Z"/>
      <path class="cls-32" d="M100.78,418.18c-2.5,0-4.99-.14-7.34-1.08-2.21-.88-3.91-2.29-4.56-4.71-.83-3.12.37-5.04,3.65-5.76-.03-.48-.48-.56-.74-.82-1.67-1.59-2.05-4-.97-6.03,2.22-4.19,9.98-5.18,13.16-1.68,1.13,1.24,1.67,2.78,2.12,4.36.4-.06.54-.4.79-.63,2.44-2.24,5.55-1.95,7.45.79,1.55,2.22,2.26,4.73,1.98,7.43-.28,2.77-1.68,4.82-4.17,6.09s-5.18,1.75-7.93,1.99c-.65-1.17-.39-2.44-.23-3.65.28-2.16.32-4.36.65-6.52.03-.17.02-.34-.17-.57-.77.8-1.25,1.76-1.72,2.75-1.05,2.32-1.11,2.32-2.9.59-.45-.43-.93-.85-1.51-1.25,1.19,2.3,2.21,4.62,2.69,7.11.11.53.34,1.1-.23,1.55v.06Z"/>
      <path class="cls-19" d="M100.78,418.18c-.08-3.23-1.47-6.03-2.94-8.79-.11-.2-.42-.36-.17-.74,1.21.71,2.22,1.65,3.17,2.66.53.54.79.7,1.1-.19.48-1.38,1.25-2.63,2.04-3.85.19-.28.37-.7.74-.62.45.11.28.57.25.88-.17,2.18-.31,4.36-.6,6.5-.19,1.38-.11,2.73-.17,4.11-.31,1.36-.6,2.7-.22,4.09.12.79.37,1.56-.34,2.24-1.21,1.14-2.58.65-3.31-1.24.14-1.7.49-3.37.45-5.08v.02Z"/>
      <path class="cls-17" d="M103.63,367.56c-2.5,0-4.99-.14-7.34-1.08-2.21-.88-3.91-2.29-4.56-4.71-.83-3.12.37-5.04,3.65-5.76-.03-.48-.48-.56-.74-.82-1.67-1.59-2.05-4-.97-6.03,2.22-4.19,9.98-5.18,13.16-1.68,1.13,1.24,1.67,2.78,2.12,4.36.4-.06.54-.4.79-.63,2.44-2.24,5.55-1.95,7.45.79,1.55,2.22,2.26,4.73,1.98,7.43-.28,2.77-1.68,4.82-4.17,6.09s-5.18,1.75-7.93,1.99c-.65-1.17-.39-2.44-.23-3.65.28-2.16.32-4.36.65-6.52.03-.17.02-.34-.17-.57-.77.8-1.25,1.76-1.72,2.75-1.05,2.32-1.11,2.32-2.9.59-.45-.43-.93-.85-1.51-1.25,1.19,2.3,2.21,4.62,2.69,7.11.11.53.34,1.1-.23,1.55v.06Z"/>
      <path class="cls-30" d="M103.63,367.56c-.08-3.23-1.47-6.03-2.94-8.79-.11-.2-.42-.36-.17-.74,1.21.71,2.22,1.65,3.17,2.66.53.54.79.7,1.1-.19.48-1.38,1.25-2.63,2.04-3.85.19-.28.37-.7.74-.62.45.11.28.57.25.88-.17,2.18-.31,4.36-.6,6.5-.19,1.38-.11,2.73-.17,4.11-.31,1.36-.6,2.7-.22,4.09.12.79.37,1.56-.34,2.24-1.21,1.14-2.58.65-3.31-1.24.14-1.7.49-3.37.45-5.08v.02Z"/>
      <path class="cls-32" d="M39.3,401.12c-3.96-1.22-5.56-4.4-6.26-8.05-1.02-5.39-.34-10.49,3.66-14.69.73-1.13,1.72-1.65,3.07-1.42,1.51.09,2.97.43,4.37,1.02,5.07,5.1,5.28,11.19,3.52,17.64-.15.59-.4,1.16-.6,1.73-.42,2.04-1.98,3.01-3.62,3.91-.56.23-1.14.37-1.75.37-.85.05-1.7.12-2.39-.51h-.02Z"/>
      <path class="cls-25" d="M41.89,401.12c-.59,2.19-.09,4.45-.29,6.66-.06.71.6,1.92-.93,1.93-1.55,0-.77-1.22-.99-1.92-.03-.12-.03-.25-.05-.37-.02-2.1.25-4.23-.32-6.3h2.6-.02Z"/>
      <path class="cls-32" d="M114.9,371.21c-2.29-.91-3.21-3.26-3.62-5.96-.59-3.99-.2-7.77,2.12-10.89.42-.83.99-1.22,1.78-1.05.88.06,1.72.32,2.52.76,2.94,3.79,3.06,8.28,2.04,13.07-.09.43-.23.85-.36,1.28-.25,1.5-1.14,2.22-2.09,2.9-.32.17-.66.28-1,.28-.49.03-.97.09-1.39-.39h0Z"/>
      <path class="cls-25" d="M116.4,371.21c-.34,1.62-.05,3.29-.17,4.93-.03.53.36,1.42-.54,1.42s-.45-.9-.57-1.42c-.02-.09-.02-.19-.03-.28,0-1.56.14-3.14-.19-4.67h1.5v.02Z"/>
      <path class="cls-32" d="M654.85,401.46c-3.96-1.22-5.56-4.4-6.26-8.05-1.02-5.39-.34-10.49,3.66-14.69.73-1.13,1.72-1.65,3.07-1.42,1.51.09,2.97.43,4.37,1.02,5.07,5.1,5.28,11.19,3.52,17.64-.15.59-.4,1.16-.6,1.73-.42,2.04-1.98,3.01-3.62,3.91-.56.23-1.14.37-1.75.37-.85.05-1.7.12-2.39-.51h-.02Z"/>
      <path class="cls-25" d="M657.45,401.46c-.59,2.19-.09,4.45-.29,6.66-.06.71.6,1.92-.93,1.93-1.55,0-.77-1.22-.99-1.92-.03-.12-.03-.25-.05-.37-.02-2.1.25-4.23-.32-6.3h2.6-.02Z"/>
    </g>
  </g>
</svg>