<?xml version="1.0" encoding="UTF-8"?>
<svg id="Livello_2" data-name="Livello 2" xmlns="http://www.w3.org/2000/svg" viewBox="0 0 825.06 506.8">
  <defs>
    <style>
      .cls-1 {
        fill: #d0e2ea;
      }

      .cls-1, .cls-2, .cls-3, .cls-4, .cls-5, .cls-6, .cls-7, .cls-8, .cls-9, .cls-10, .cls-11, .cls-12, .cls-13, .cls-14, .cls-15, .cls-16, .cls-17, .cls-18, .cls-19, .cls-20, .cls-21, .cls-22, .cls-23, .cls-24, .cls-25, .cls-26, .cls-27, .cls-28, .cls-29, .cls-30, .cls-31, .cls-32, .cls-33, .cls-34, .cls-35, .cls-36, .cls-37, .cls-38, .cls-39, .cls-40, .cls-41, .cls-42, .cls-43, .cls-44, .cls-45, .cls-46, .cls-47, .cls-48, .cls-49, .cls-50, .cls-51, .cls-52, .cls-53, .cls-54, .cls-55, .cls-56, .cls-57, .cls-58, .cls-59, .cls-60, .cls-61, .cls-62, .cls-63, .cls-64, .cls-65, .cls-66, .cls-67, .cls-68, .cls-69, .cls-70, .cls-71, .cls-72, .cls-73, .cls-74, .cls-75, .cls-76, .cls-77, .cls-78, .cls-79, .cls-80, .cls-81, .cls-82, .cls-83, .cls-84, .cls-85, .cls-86, .cls-87, .cls-88, .cls-89, .cls-90, .cls-91, .cls-92, .cls-93, .cls-94, .cls-95, .cls-96, .cls-97, .cls-98, .cls-99, .cls-100, .cls-101, .cls-102, .cls-103, .cls-104, .cls-105, .cls-106, .cls-107, .cls-108, .cls-109, .cls-110, .cls-111, .cls-112, .cls-113, .cls-114, .cls-115, .cls-116, .cls-117, .cls-118, .cls-119, .cls-120, .cls-121, .cls-122, .cls-123, .cls-124, .cls-125, .cls-126, .cls-127, .cls-128, .cls-129, .cls-130, .cls-131, .cls-132, .cls-133, .cls-134, .cls-135, .cls-136, .cls-137, .cls-138, .cls-139, .cls-140, .cls-141, .cls-142, .cls-143, .cls-144, .cls-145, .cls-146, .cls-147, .cls-148, .cls-149, .cls-150, .cls-151, .cls-152, .cls-153, .cls-154, .cls-155, .cls-156, .cls-157, .cls-158, .cls-159, .cls-160, .cls-161, .cls-162, .cls-163, .cls-164, .cls-165, .cls-166, .cls-167, .cls-168, .cls-169, .cls-170, .cls-171, .cls-172, .cls-173, .cls-174, .cls-175, .cls-176, .cls-177, .cls-178, .cls-179, .cls-180, .cls-181, .cls-182, .cls-183, .cls-184, .cls-185, .cls-186, .cls-187, .cls-188, .cls-189, .cls-190, .cls-191, .cls-192, .cls-193, .cls-194, .cls-195, .cls-196, .cls-197, .cls-198, .cls-199, .cls-200, .cls-201, .cls-202, .cls-203, .cls-204, .cls-205, .cls-206, .cls-207, .cls-208, .cls-209, .cls-210, .cls-211, .cls-212, .cls-213, .cls-214, .cls-215, .cls-216 {
        stroke-width: 0px;
      }

      .cls-2 {
        fill: #72787c;
      }

      .cls-3 {
        fill: #3b6580;
      }

      .cls-4 {
        fill: #363f49;
      }

      .cls-5 {
        fill: #375170;
      }

      .cls-6 {
        fill: #bbded8;
      }

      .cls-7 {
        fill: #d4e2e7;
      }

      .cls-8 {
        fill: #95999a;
      }

      .cls-9 {
        fill: #d6e2e7;
      }

      .cls-10 {
        fill: #9ca0a2;
      }

      .cls-11 {
        fill: #ed7c68;
      }

      .cls-12 {
        fill: #7e878c;
      }

      .cls-13 {
        fill: #a6abac;
      }

      .cls-14 {
        fill: #419692;
      }

      .cls-15 {
        fill: #d2e4e6;
      }

      .cls-16 {
        fill: #92999d;
      }

      .cls-17 {
        fill: #787878;
      }

      .cls-18 {
        fill: #d6e3ea;
      }

      .cls-19 {
        fill: #d7e3e6;
      }

      .cls-20 {
        fill: #e3e7ea;
      }

      .cls-21 {
        fill: #a6a6a8;
      }

      .cls-22 {
        fill: #3c6880;
      }

      .cls-23 {
        fill: #fdfdfd;
      }

      .cls-24 {
        fill: #8b8e8f;
      }

      .cls-25 {
        fill: #87888e;
      }

      .cls-26 {
        fill: #469283;
      }

      .cls-27 {
        fill: #b6cac0;
      }

      .cls-28 {
        fill: #e4d3b8;
      }

      .cls-29 {
        fill: #f3eceb;
      }

      .cls-30 {
        fill: #606063;
      }

      .cls-31 {
        fill: #324856;
      }

      .cls-32 {
        fill: #c7cbcb;
      }

      .cls-33 {
        fill: #272c35;
      }

      .cls-34 {
        fill: #d3e4e5;
      }

      .cls-35 {
        fill: #efd1c9;
      }

      .cls-36 {
        fill: #d4e0e7;
      }

      .cls-37 {
        fill: #d6e4e6;
      }

      .cls-38 {
        fill: #888f94;
      }

      .cls-39 {
        fill: #d9734f;
      }

      .cls-40 {
        fill: #d8e2e6;
      }

      .cls-41 {
        fill: #787a7a;
      }

      .cls-42 {
        fill: #38526e;
      }

      .cls-43 {
        fill: #d2e0e3;
      }

      .cls-44 {
        fill: #424447;
      }

      .cls-45 {
        fill: #7b4149;
      }

      .cls-46 {
        fill: #7dbd9a;
      }

      .cls-47 {
        fill: #f5bfa8;
      }

      .cls-48 {
        fill: #3a4051;
      }

      .cls-49 {
        fill: #8b9295;
      }

      .cls-50 {
        fill: #e98e7c;
      }

      .cls-51 {
        fill: #d3e3e7;
      }

      .cls-52 {
        fill: #7f8689;
      }

      .cls-53 {
        fill: #fdfcfa;
      }

      .cls-54 {
        fill: #2c6c82;
      }

      .cls-55 {
        fill: #c1c6c8;
      }

      .cls-56 {
        fill: #878c90;
      }

      .cls-57 {
        fill: #7f8184;
      }

      .cls-58 {
        fill: #2a8176;
      }

      .cls-59 {
        fill: #b7babb;
      }

      .cls-60 {
        fill: #868d8f;
      }

      .cls-61 {
        fill: #f4f0f0;
      }

      .cls-62 {
        fill: #767a7c;
      }

      .cls-63 {
        fill: #888b8f;
      }

      .cls-64 {
        fill: #6d7379;
      }

      .cls-65 {
        fill: #df8789;
      }

      .cls-66 {
        fill: #d1bfa3;
      }

      .cls-67 {
        fill: #7f8287;
      }

      .cls-68 {
        fill: #eaaaa2;
      }

      .cls-69 {
        fill: #fdfcfc;
      }

      .cls-70 {
        fill: #f7c26e;
      }

      .cls-71 {
        fill: #f3c0ab;
      }

      .cls-72 {
        fill: #fafafa;
      }

      .cls-73 {
        fill: #eebe5e;
      }

      .cls-74 {
        fill: #c6dfe2;
      }

      .cls-75 {
        fill: #eab9b0;
      }

      .cls-76 {
        fill: #88a5b0;
      }

      .cls-77 {
        fill: #faf5f4;
      }

      .cls-78 {
        fill: #e39a6a;
      }

      .cls-79 {
        fill: #f8f2e6;
      }

      .cls-80 {
        fill: #f2c258;
      }

      .cls-81 {
        fill: #479a93;
      }

      .cls-82 {
        fill: #909495;
      }

      .cls-83 {
        fill: #354f63;
      }

      .cls-84 {
        fill: #d5e4ea;
      }

      .cls-85 {
        fill: #d5e2e5;
      }

      .cls-86 {
        fill: #fac172;
      }

      .cls-87 {
        fill: #f5b274;
      }

      .cls-88 {
        fill: #868a8b;
      }

      .cls-89 {
        fill: #6a6f72;
      }

      .cls-90 {
        fill: #878b8e;
      }

      .cls-91 {
        fill: #d5e3e9;
      }

      .cls-92 {
        fill: #dde1e3;
      }

      .cls-93 {
        fill: #e6c9b4;
      }

      .cls-94 {
        fill: #b9bbbe;
      }

      .cls-95 {
        fill: #fcfcfd;
      }

      .cls-96 {
        fill: #828487;
      }

      .cls-97 {
        fill: #7ebd9a;
      }

      .cls-98 {
        fill: #f8f7f8;
      }

      .cls-99 {
        fill: #979ea3;
      }

      .cls-100 {
        fill: #f8c26f;
      }

      .cls-101 {
        fill: #d6e3e8;
      }

      .cls-102 {
        fill: #469a95;
      }

      .cls-103 {
        fill: #fad3a0;
      }

      .cls-104 {
        fill: #ddaa9a;
      }

      .cls-105 {
        fill: #f0eede;
      }

      .cls-106 {
        fill: #459996;
      }

      .cls-107 {
        fill: #d9e3e7;
      }

      .cls-108 {
        fill: #8f9394;
      }

      .cls-109 {
        fill: #1f263d;
      }

      .cls-110 {
        fill: #fbfbfb;
      }

      .cls-111 {
        fill: #daeaef;
      }

      .cls-112 {
        fill: #3f4560;
      }

      .cls-113 {
        fill: #b5b9ba;
      }

      .cls-114 {
        fill: #909294;
      }

      .cls-115 {
        fill: #808689;
      }

      .cls-116 {
        fill: #57ac91;
      }

      .cls-117 {
        fill: #d8e3ea;
      }

      .cls-118 {
        fill: #515255;
      }

      .cls-119 {
        fill: #9a9a9b;
      }

      .cls-120 {
        fill: #d9e4e7;
      }

      .cls-121 {
        fill: #b9bcbf;
      }

      .cls-122 {
        fill: #f5bea4;
      }

      .cls-123 {
        fill: #a4cbd0;
      }

      .cls-124 {
        fill: #ee8c76;
      }

      .cls-125 {
        fill: #e5c7c3;
      }

      .cls-126 {
        fill: #bec1c1;
      }

      .cls-127 {
        fill: #2b8175;
      }

      .cls-128 {
        fill: #f9f4f4;
      }

      .cls-129 {
        fill: #683a45;
      }

      .cls-130 {
        fill: #9aa0a1;
      }

      .cls-131 {
        fill: #d0e0e4;
      }

      .cls-132 {
        fill: #394351;
      }

      .cls-133 {
        fill: #459b94;
      }

      .cls-134 {
        fill: #94989b;
      }

      .cls-135 {
        fill: #878a90;
      }

      .cls-136 {
        fill: #e69183;
      }

      .cls-137 {
        fill: #3e3d47;
      }

      .cls-138 {
        fill: #a9adb2;
      }

      .cls-139 {
        fill: #d6d8da;
      }

      .cls-140 {
        fill: #a2d5d8;
      }

      .cls-141 {
        fill: #fafbfa;
      }

      .cls-142 {
        fill: #7d8185;
      }

      .cls-143 {
        fill: #e8a59d;
      }

      .cls-144 {
        fill: #c3e0e0;
      }

      .cls-145 {
        fill: #c4dce2;
      }

      .cls-146 {
        fill: #84888a;
      }

      .cls-147 {
        fill: #a4a7a9;
      }

      .cls-148 {
        fill: #fefefe;
      }

      .cls-149 {
        fill: #d0cdbc;
      }

      .cls-150 {
        fill: #858990;
      }

      .cls-151 {
        fill: #fdfaf9;
      }

      .cls-152 {
        fill: #f0bd53;
      }

      .cls-153 {
        fill: #8a8f91;
      }

      .cls-154 {
        fill: #436f88;
      }

      .cls-155 {
        fill: #e5eff3;
      }

      .cls-156 {
        fill: #d8e3e6;
      }

      .cls-157 {
        fill: #dbe5e9;
      }

      .cls-158 {
        fill: #999ea3;
      }

      .cls-159 {
        fill: #413f4a;
      }

      .cls-160 {
        fill: #d8e6ea;
      }

      .cls-161 {
        fill: #d4e4e9;
      }

      .cls-162 {
        fill: #d8c7a9;
      }

      .cls-163 {
        fill: #5cad92;
      }

      .cls-164 {
        fill: #7e7f83;
      }

      .cls-165 {
        fill: #d9e1e7;
      }

      .cls-166 {
        fill: #d7e2e7;
      }

      .cls-167 {
        fill: #ef7972;
      }

      .cls-168 {
        fill: #a8acad;
      }

      .cls-169 {
        fill: #edeef0;
      }

      .cls-170 {
        fill: #f7f1e8;
      }

      .cls-171 {
        fill: #f9bf69;
      }

      .cls-172 {
        fill: #fefdfe;
      }

      .cls-173 {
        fill: #7c8182;
      }

      .cls-174 {
        fill: #d7e2e5;
      }

      .cls-175 {
        fill: #a4d2b5;
      }

      .cls-176 {
        fill: #f9b233;
      }

      .cls-177 {
        fill: #666a6a;
      }

      .cls-178 {
        fill: #bed7d6;
      }

      .cls-179 {
        fill: #e2e6e7;
      }

      .cls-180 {
        fill: #808486;
      }

      .cls-217, .cls-218 {
        isolation: isolate;
      }

      .cls-181 {
        fill: #e0e2e3;
      }

      .cls-182 {
        fill: #d4e2e8;
      }

      .cls-183 {
        fill: #6a6e73;
      }

      .cls-184 {
        fill: #fefdfc;
      }

      .cls-185 {
        fill: #858a8f;
      }

      .cls-186 {
        fill: #d2e3e5;
      }

      .cls-187 {
        fill: #efab92;
      }

      .cls-188 {
        fill: #7c858b;
      }

      .cls-189 {
        fill: #17191f;
      }

      .cls-190 {
        fill: #436a80;
      }

      .cls-191 {
        fill: #2d4452;
      }

      .cls-192 {
        fill: #b3b3b5;
      }

      .cls-193 {
        fill: #fcfdfd;
      }

      .cls-194 {
        fill: #a7adaf;
      }

      .cls-195 {
        fill: #5a4543;
      }

      .cls-196 {
        fill: #fcfbfb;
      }

      .cls-197 {
        fill: #e5e6e7;
      }

      .cls-198 {
        fill: #6d7478;
      }

      .cls-199 {
        fill: #d6dbde;
      }

      .cls-200 {
        fill: #6b5953;
      }

      .cls-201 {
        fill: #83878c;
      }

      .cls-202 {
        fill: #a5bbc3;
      }

      .cls-203 {
        fill: #e59282;
      }

      .cls-204 {
        fill: #696a6c;
      }

      .cls-205 {
        fill: #f5c1a8;
      }

      .cls-206 {
        fill: #5e5e61;
      }

      .cls-207 {
        fill: #3f445e;
      }

      .cls-208 {
        fill: #dadada;
      }

      .cls-209 {
        fill: #f3f8f9;
      }

      .cls-210 {
        fill: #f7b478;
      }

      .cls-211 {
        fill: #e4dccf;
      }

      .cls-212 {
        fill: #8b8e91;
      }

      .cls-213 {
        fill: #fcfcfc;
      }

      .cls-218 {
        fill: #f6f6f6;
        font-family: ArialMT, Arial;
        font-size: 38.15px;
      }

      .cls-214 {
        fill: #f1bb53;
      }

      .cls-215 {
        fill: #cde4e9;
      }

      .cls-216 {
        fill: #ee9082;
      }
    </style>
  </defs>
  <g id="illustrazioni">
    <g>
      <g>
        <path class="cls-214" d="M137.09,436.09c-3.41-1.95-6.75-2.46-9.88.64-2.7-1.47-2.3-5.56-4.8-7.22,0-51.01-174.61-67.28,0-153.06,1.91,2.9,3.93,5.68,5.72,8.65,4.37,7.18,12.42,6.63,16.39-.91,20.64-39.22,51.96-59.98,91.22-66.69,4.37-.75,8.85-.87,13.3-1.27,2.1,2.02,2.42,4.88,2.38,7.66-.4,25.4,0,50.85-.2,76.25,0,.83-.28,1.63-.44,2.42-2.66,5.87-5.36,1.67-7.5-.36-4.96-4.68-9.84-9.33-16.27-11.35-29.61-9.25-55.97,18.81-49.58,52.79,1.19,6.31,3.22,12.31,5.8,18.06,1.43,3.18,3.33,6.31,2.62,10.24-2.18,4.76-6.51,6.71-10.04,9.57-15.08,12.27-23.26,28.38-22.63,49.7.04,1.71-.12,3.33-1.55,4.41-4.8,2.02-9.65,1.75-14.53.48Z"/>
        <path class="cls-123" d="M248.55,304.75c.04-29.49.12-59.02.16-88.52.12-6.83.24-13.69.36-20.52,2.62-2.7,6.07-2.62,9.41-2.7,29.33-.79,58.67-2.26,88.08-1.83,27.15.4,54.3.83,81.41-.08,57.91-1.91,115.79-1.47,173.7-1.47,4.88,0,10.2-1.15,14.37,2.86.44,8.3.83,16.59,1.27,24.93,3.45,4.05,2.78,8.93,2.78,13.65.08,32.79.12,65.53-.32,98.32-.04,3.61-.36,7.3.95,10.8.95,4.45,4.49,8.49,2.1,13.5-5.6,4.56-12.31,2.66-18.54,2.78-21.63.44-19.45-2.26-19.61,20.01-.08,12.82.2,25.68-.16,38.5-.08,3.61.95,8.14-4.13,9.8-3.41-3.37-2.66-7.78-2.7-11.87-.12-17.62.04-35.25-.12-52.83-.08-9.25-.99-10.16-10.08-10.24-13.42-.12-26.83-.08-40.29,0-3.65,0-7.3.2-10.4,2.5-5.36,3.65-11.31,4.37-17.54,3.29-2.58-.44-5-1.63-5.32-4.53-.36-3.29,2.46-3.89,4.84-4.68,1.87-.6,3.73-1.07,5.6-1.59,4.53-1.27,3.22-3.53.95-5.95-15.8-12.94-31.79-25.76-49.66-35.64-21.95-12.15-44.7-11.67-66.21,1.23-16,9.61-31.36,20.36-45.21,33.03-.79,3.14,2.06,5.91.95,9.13-1.55,2.42-4.17,2.5-6.55,2.9-4.21.64-5.52,3.1-4.84,7.07.2,19.21.2,38.38,0,57.56-.04,3.89,1.03,8.61-4.09,10.76-3.61-3.29-2.82-7.74-2.86-11.83-.16-17.11.04-34.22-.12-51.28-.08-9.25-.95-10.2-10.16-10.12-16.83.16-33.66-.83-50.45.64-5.72,1.27-11.03,1.59-13.38-5.44.28-12.66,1.55-25.44-4.84-37.31-.79-1.43-.67-3.22.48-4.68l.16-.12Z"/>
        <path class="cls-112" d="M616.03,192.49c-51.8.2-103.56.28-155.36.6-40.88.24-81.73.67-122.61,1.19-29.65.36-59.34.95-88.99,1.43-9.13-.44-18.3-.83-28.22-1.31,2.54-4.37,6.43-5.48,9.69-7.14,33.5-17.31,67.04-34.53,100.58-51.72,2.98-1.55,6.11-2.66,7.94-5.83,12.11-21.08,31.64-31.08,54.62-32.51,28.14-1.75,56.56-3.06,84.67.95,20.24,2.9,36.8,12.94,47.43,31.12,2.02,3.45,5.04,4.92,8.3,6.51,32.27,16.04,64.54,32.11,96.77,48.23,3.18,1.59,6.63,2.98,9.25,6.51-8.14,2.46-16.31,0-24.05,1.91v.08Z"/>
        <path class="cls-66" d="M627.19,475.11H252.44c3.37-12.66.87-25.88,3.89-38.58.67-.83,1.47-1.47,2.46-1.87,9.69-2.14,19.49-.87,29.25-1.03,15.92-.24,31.83-.08,47.79.16,6.79.08,13.73-1.27,20.32,1.55,2.9,2.7,2.78,6.03,1.87,9.49-1.03,2.46-3.25,3.25-5.4,2.46-8.26-3.18-13.26,1.59-18.1,6.83h173.66c.75,0,1.15,0,1.07-.52,0-.12-.44-.12-.79-.2-2.26-.48-4.29-1.31-6.19-2.38-6.79-3.85-7.34-7.74-2.06-14.29,7.9-2.26,15.96-.75,23.94-1.11,4.96-.2,9.96.28,14.81-1.39,26.04-1.47,52.12-.52,78.2-.56,2.26,0,4.45.48,6.43,1.71,1.91,1.47,2.7,3.57,2.78,5.83.44,11.31.56,22.59.87,33.9h-.04Z"/>
        <path class="cls-116" d="M622.35,352.18c-1.11-3.22-2.18-6.47-3.29-9.69-2.1-17.31-.6-33.62,9.69-48.7,16.12-23.62,55.09-27.63,72.52-4.49,4.76,6.31,9.13,6.59,15.36,2.5,4.37-2.86,9.29-5.4,15-3.53,5.04.2,10.16-.2,15.08.71,26.63,4.88,42.79,31.44,35.84,58.47-11.23,2.9-22.19,6.99-34.02,7.58-6.11.28-8.73-1.83-8.93-7.82-.2-6.35.6-12.74-.6-19.01-.95-1.35-1.91-1.35-2.86.08-.83,5.87-.24,11.75-.36,17.62-.28,11.55-2.86,13.22-12.86,8.02-4.96-2.58-10.08-4.8-14.92-7.62-8.42-4.88-17.11-6.07-26.59-3.89-8.81,2.02-10.32.48-10.84-8.42-.28-4.96.99-10.04-.99-14.81-4.49.4-2.7,3.97-2.78,6.07-.28,8.38,0,16.75-.16,25.13-.04,2.98.6,6.79-2.62,8.26-2.94,1.39-4.84-1.83-7.07-3.37-1.19-.87-2.46-4.01-4.21-.4-2.98,8.57-10.84,10.36-18.02,13.1-7.54-.75-9.09-6.91-11.31-12.5-.32-1.07-.16-2.3-1.03-3.25l-.04-.04Z"/>
        <path class="cls-152" d="M731.62,288.23c-7.07,2.58-14.45,4.29-20.44,9.29-2.94,2.46-5.28,2.02-7.46-1.47-10.84-17.35-27.07-23.14-46.24-19.01-19.29,4.17-30.17,17.86-35.53,36.4-2.78,9.57-2.74,19.29-2.9,29.06-1.95-2.06-1.63-4.64-1.63-7.14-.08-39.34-.12-78.63-.16-117.97,32.55,1.55,59.82,15.6,84.03,36.24,11.75,10,22.31,21.24,30.33,34.61h0Z"/>
        <path class="cls-46" d="M627.19,475.11c-4.64-5.87-2.94-12.78-3.18-19.37-.24-6.43-.2-12.86-.28-19.29.36-.4.75-.79,1.11-1.19,11.19-3.53,22.67-1.43,34.02-1.63,30.92-.44,61.84.4,92.76-.44,4.84.75,10.08-.36,14.49,2.78-3.06,18.02-19.97,35.72-40.92,38.23-32.51,3.85-65.34,2.7-98.04.87l.04.04Z"/>
        <path class="cls-97" d="M256.49,436.41c.56,13.1,4.29,26.52-4.01,38.66-30.88,1.23-61.96,4.49-92.41-2.1-19.17-4.17-33.62-15.88-37.67-36.84,5.32-2.7,11.15-.36,16.63-1.63,2.98-.83,6.03-1.03,9.13-1.03,31.87,0,63.79.2,95.66.08,4.37,0,9.09-.83,12.66,2.86h0Z"/>
        <path class="cls-133" d="M740.12,323.56c3.73,7.62,1.15,15.72,1.67,23.58.28,4.21.24,6.19,5.99,5.44,9.33-1.27,18.66-2.02,27.35-6.07,2.66-1.23,5.28-1.95,7.46.91-.56,12.98-6.11,24.01-13.42,34.37-2.82,6.35-9.17,7.22-14.65,9.45-5.28.56-10.8,3.93-15.56-1.35-2.3-6.23-1.23-12.74-1.39-19.09-.32-12.58.28-25.17.16-37.75,0-3.37-.12-6.75,2.42-9.49h-.04Z"/>
        <path class="cls-73" d="M755.56,389.29c4.53-2.5,9.05-5,13.58-7.5,6.83,8.1,5.12,17.78,3.89,26.79-1.27,9.29-4.49,18.26-6.87,27.39-4.25-.67-8.81,1.39-12.78-1.55,2.78-14.96,2.94-30.01,2.14-45.13h.04Z"/>
        <path class="cls-26" d="M704.71,137.16c3.25,4.29,0,4.8-3.06,4.76-19.41-.44-32.79,9.33-42.83,24.89-2.42,3.73-4.64,4.96-6.75-.28-6.11-15.2-15.48-26.56-33.3-27.86-1.47-.12-3.02-.75-2.74-2.46.4-2.5,2.58-2.7,4.6-2.46,11.75,1.19,21.47,6.11,28.26,15.96,2.5,3.65,4.49,7.66,7.03,12.07,6.19-7.94,13.38-14.73,21.75-20.24,8.42-5.16,17.03-9.21,27.03-4.37Z"/>
        <path class="cls-74" d="M704.71,137.16c-9.37-.71-18.1,2.46-27.03,4.37-7.58-2.9-15.44-.56-23.1-1.27-1.87-.2-4.21.48-4.88-2.1-.48-1.83.87-3.1,1.95-4.41,6.91-8.34,14.37-8.45,21.95-.56,1.47,1.55,1.98,4.09,4.45,4.6,9.53-12.66,17.94-12.82,26.67-.67v.04Z"/>
        <path class="cls-127" d="M256.49,436.41c-35.96-.08-71.93-.16-107.85-.32-3.22,0-6.75,1.03-9.61-1.59-3.29-21.08,5.52-37.35,20.8-50.73,5-4.37,10.92-7.7,16.39-11.51,1.51-1.19,3.22-1.59,5.08-1.07,7.9,5.56,17.31,8.49,25.17,14.09,2.34,10.48.6,21.08,1.15,31.64.2,3.53-.52,7.14.95,11.87,2.06-14.25-1.15-27.59,2.02-40.57,9.17-4.21,17.9-10.36,28.94-7.07,15.32,13.1,18.74,30.96,19.81,49.74.12,2.02-.71,3.81-2.1,5.32l-.75.24v-.04Z"/>
        <path class="cls-163" d="M181.51,372.46c-1.75-.08-3.53-.16-5.28-.24-.67-5.16-3.89-9.17-6.07-13.65-12.78-26.2-3.37-56.8,21.71-67.8,17.54-7.7,34.37-5.48,49.22,7.3,2.54,2.18,5,4.45,7.46,6.67,5,10.36,8.53,21.08,7.3,32.79-.36,3.25-.95,6.47-1.43,9.72.12.95-.2,1.71-1.07,2.18-3.02.99-5.52-.48-7.86-1.95-7.9-5-16.08-6.03-24.85-2.46-2.78,1.15-5.8,2.38-8.93.91-3.22-3.85-1.59-8.49-2.18-12.78-.32-2.22,1.43-5.72-2.98-5.83-1.98,6.95-.64,13.93-.87,20.88-.2,5.16-1.67,9.33-6.39,11.87-6.43,3.45-10.92,9.65-17.82,12.38h.04Z"/>
        <path class="cls-123" d="M622.35,352.18c.6.56,1.19,1.11,1.79,1.67,4.49,14.37,2.3,29.17,2.7,43.78.24,9.45.12,18.89,0,28.3,0,3.61.04,7.26-2.46,10.32l-.6.16c-28.58.08-57.12.12-85.7.2-13.38,1.35-26.83-.16-40.25.79-5.6.4-6.47-4.96-6.87-8.97-.95-10-2.18-20.05-2.46-30.09.44-4.17-.24-8.38.32-12.54.4-3.18,1.27-6.03,4.6-7.38,7.66,1.51,16.31-.24,22.51,6.39,2.7,8.77.95,17.78,1.39,26.67.44,9.13,1.15,10.16,10.2,10.28,13.69.2,27.43,0,41.12.12,3.85,0,7.9-.56,11.23,2.3,3.61-1.98,2.1-5.44,2.1-8.26.16-15.6.08-31.24.08-46.84,0-10.16,5.23-15.24,15.68-15.24,5.87,0,11.71.08,17.58,0,2.42,0,5.08.71,7.03-1.63v-.04Z"/>
        <path class="cls-207" d="M341.51,337.1c2.7-5.2,8.1-7.34,12.42-10.64,8.22-6.27,17.23-11.47,25.17-18.06,24.85-20.68,63.79-20.56,89.19-.24,12.38,9.92,26.04,18.3,38.03,28.82-.75.83-1.67,1.47-2.74,1.87-3.25,1.11-6.63.95-9.96.95-46.4,0-92.84.04-139.25,0-4.41,0-9.05.64-12.78-2.66l-.08-.04Z"/>
        <path class="cls-196" d="M580.51,265.89c0,10.08-.2,20.12.08,30.21.16,5.2-1.23,7.58-6.99,7.46-17.07-.28-34.14-.24-51.17.04-5.44.08-7.46-1.83-7.42-7.26.16-20.4.08-40.81,0-61.25,0-9.21,5.2-14.85,13.26-17.23,12.82-3.81,26.04-3.65,38.86,0,9.88,2.82,13.3,8.22,13.38,18.62.08,9.8,0,19.57,0,29.37v.04Z"/>
        <path class="cls-196" d="M579.91,424.15c-18.46,0-36.92-.4-55.37.24-8.1.28-10-2.7-9.69-10.08.48-10.04-.08-20.12-.16-30.17-4.21-10.68-4.29-21.32,0-31.95.4-4.05,3.06-4.72,6.55-4.68,17.66.08,35.29.08,52.95,0,3.81,0,6.51.52,6.39,5.36-.56,23.78.75,47.55-.67,71.33v-.04Z"/>
        <path class="cls-69" d="M264.07,231.08c4.56-10.44,13.02-14.96,23.9-15.16,9.17-.16,18.5-1.43,27.55,1.35,10.56,3.22,14.17,7.98,14.25,18.78.12,19.61-.04,39.18.24,58.79.08,5.52-1.79,7.18-7.22,7.22-19.01.16-38.03.83-57.04,1.27-3.65-2.06-4.33-5.64-4.37-9.33-.24-18.1-.2-36.2,0-54.3,0-3.14.99-6.03,2.74-8.61h-.04Z"/>
        <path class="cls-23" d="M263.99,350.47c1.79-2.46,4.45-1.95,6.91-1.95,17.35-.04,34.65-.08,52-.04,3.29,0,7.11-.6,6.99,4.64-.48,23.74.99,47.47-.75,71.17-.71.87-1.59,1.55-2.66,1.98-18.46,1.98-36.95.91-55.41.64-5.48-.08-9.17-3.22-9.41-8.81-.83-20.44-.6-40.92-.12-61.37.04-2.3,1.31-4.25,2.46-6.19v-.08Z"/>
        <path class="cls-123" d="M327.9,424.5c.4-.24.79-.28,1.23-.24,3.65-1.98,2.14-5.44,2.18-8.26.16-20.68.16-41.32.2-62,8.45-4.6,17.03-4.05,25.6-.4,2.26,3.18,2.14,6.87,2.14,10.52.08,20.44.08,40.84,0,61.29,0,3.85.4,7.94-2.9,11-6.71-.08-13.38-.16-20.09-.24-9.96-1.98-11.03-3.49-8.42-11.71l.04.04Z"/>
        <path class="cls-123" d="M327.9,424.5c-.87,6.55,2.3,10.16,8.42,11.71-26.36,0-52.75,0-79.11-.04-.91-16.16-1.39-32.47-12.34-45.93-2.26-2.82-4.68-5.52-7.03-8.3-.32-1.67-.95-3.57.24-4.88,7.42-8.26,10.96-18.62,15.68-28.3.28-.48.48-.99.67-1.51,2.38,3.49,5.48,4.8,9.53,3.22.08,21.24.52,42.47.12,63.71-.12,7.78,1.71,10.76,10.16,10.44,17.86-.67,35.76-.16,53.63-.12h.04Z"/>
        <path class="cls-193" d="M494.85,256.72c0,8.69-.16,17.35.04,26.04.12,4.37-1.55,5.91-5.87,5.87-16.23-.12-32.47-.16-48.7.04-4.88.08-6.19-1.87-6.11-6.47.24-16.79.28-33.58.04-50.37-.08-5.44,1.75-7.42,7.26-7.34,15.68.24,31.36.16,47.04-.08,4.64-.08,6.55,1.43,6.39,6.27-.28,8.65-.08,17.35-.08,26.04h0Z"/>
        <path class="cls-213" d="M430.7,257.15c0,8.38-.16,16.79.08,25.17.12,4.17-.99,6.03-5.56,6.11-13.97.2-27.94.6-41.88,1.23-5.95.28-8.49-1.43-8.34-7.94.44-16.47.36-32.99.08-49.5-.12-5.91,2.02-7.78,7.82-7.66,13.69.28,27.43.2,41.12-.12,5.08-.12,6.99,1.51,6.79,6.67-.32,8.65-.08,17.35-.08,26l-.04.04Z"/>
        <path class="cls-80" d="M341.51,337.1c51.36-.08,102.69-.16,154.05-.2,3.02,0,6.15-.44,9.05,1.11,2.82,4.25.95,6.95-3.14,8.3-5.52,1.83-11.07,4.13-17.11,2.5-5.87-1.83-11.91-.83-17.86-.91-26.32-.2-52.63.64-78.95,0-6.79-.16-13.54-.08-20.32-.08-6.63-.32-13.26.56-19.85-.67-.99-.4-1.83-.95-2.5-1.75-1.43-2.62-4.21-4.72-3.29-8.3h-.08Z"/>
        <path class="cls-123" d="M264.07,231.08c-.04,20.88-.08,41.76-.12,62.64,0,3.29-.56,6.75,1.75,9.65-12.15-4.72-16-9.53-15.44-20.05.91-16.91.24-33.9.28-50.85,0-.48.36-.99.83-2.22,4.01,4.17,8.34,5.28,12.7.83Z"/>
        <path class="cls-123" d="M484.73,347.14c4.33-.32,8.69-.44,12.98-.95,4.72-.56,7.46-3.06,6.87-8.18.56-.36,1.11-.67,1.67-1.03,2.58,1.67,5.6,3.29,4.56,7.03-.95,3.49-4.49,2.42-6.91,3.33-2.86,1.11-8.49.16-8.18,3.61.48,4.68,5.87,2.74,9.17,2.74s6.51-.99,9.8-1.55v31.95c-6.43-2.82-14.29-.04-20.16-5.04-3.81-8.06-4.84-17.47-11.51-24.21-.71-2.86-.99-5.64,1.71-7.74v.04Z"/>
        <path class="cls-65" d="M344.81,345.39c.56.04,1.11.12,1.67.12,6.71,2.06,13.69-.4,20.44,1.35,3.22,4.45,2.1,9.45,1.95,14.33-.16,1.35-.52,2.66-1.27,3.81-4.25,1.67-4.33-1.83-4.53-4.17-.4-4.21-2.54-6.39-6.51-7.07-8.34.08-16.67.16-25.01.24-.67-4.96,1.59-7.07,6.47-6.95,2.38.04,5,.64,6.83-1.67h-.04Z"/>
        <path class="cls-162" d="M329.6,453.08c3.57-2.22,8.06-2.78,10.24-7.38,1.59-3.29,4.88-2.58,8.06-1.39,2.82,1.03,5.91,1.35,8.85,1.95,6.43-3.49,5.68-9.61,5.8-15.52.12-7.11.2-7.11,4.72-9.25,3.61,6.47,1.07,13.61,2.38,20.32.56,3.85,3.45,3.81,6.31,3.77,23.38-.32,46.84,1.19,70.18-1.47,4.49-.52,8.89.6,13.3.95,6.87.56,13.93,1.83,19.97-3.02,2.34-8.34-1.11-17.23,2.5-25.44.6-.79,1.39-1.11,2.38-.95,4.17,4.8,2.02,10.68,2.54,16.08.24,2.5-.2,5.08.36,7.54.71,3.18,2.26,4.88,4.92,1.47,1.98-2.58,3.77-5.08,7.46-2.74-4.29,10.28,3.81,11.15,10.16,13.38-.67,4.13-4.01,3.25-6.55,3.25-55.73.12-111.46.08-167.23,0-2.22,0-4.53.2-6.31-1.63l-.04.08Z"/>
        <path class="cls-78" d="M366.4,420.93c-2.54,5.56-1.47,11.47-1.19,17.11.32,6.63-1.95,9.25-8.45,8.18-.12-3.25-.24-6.55-.36-9.8,0-27.55.08-55.09.12-82.64,6.07-3.53,8.69-1.63,8.53,5.24-.04,2.18.6,4.37.91,6.55,2.9,1.59,3.18,4.45,3.25,7.18.36,13.85.4,27.67,0,41.52-.08,2.5-.6,4.96-2.78,6.67h-.04Z"/>
        <path class="cls-28" d="M329.6,453.08c56.84,0,113.68,0,170.48-.04,3.22,0,6.79,1.23,9.57-1.63.28,0,.56-.04.83,0,2.78.52,7.7-1.47,7.7,2.5s-4.88,2.46-7.66,2.46c-58.87.08-117.73.08-176.6.04-1.94,0-4.41.44-5.72-.52-2.7-1.95,0-2.3,1.39-2.82h0Z"/>
        <path class="cls-123" d="M499.53,438c-2.78-.2-5.12.2-5.04,3.77.12,4.56-2.94,4.6-6.19,4.45-4.21-.2-3.77-3.25-3.81-6.03-.08-8.06-.16-16.12-.2-24.17-3.49-6.39-2.62-12.98-.79-19.57,3.06-2.98,5.56-2.06,7.7,1.11.99,11.03,2.06,22.07,2.94,33.1.36,4.72,2.9,5.83,7.22,5.8,12.27-.12,24.53.12,36.8.24-12.78,2.94-25.72.4-38.58,1.39l-.04-.08Z"/>
        <path class="cls-58" d="M624.37,436.25c-.08-27.47-.16-54.94-.24-82.4,2.86,4.88,4.41,10.76,10.04,13.54,9.13,8.26,21.24,10.76,31.75,16.31,2.26,11.07.6,22.27,1.11,33.42.16,3.45-.56,6.99.99,11.55,1.87-16.35-1.07-31.72,1.79-46.84,7.18-5.72,16.04-7.11,24.57-9.25,3.45-.87,6.27,1.83,8.77,4.09,5.76,5.24,12.94,7.5,20.05,9.96,5.08,1.79,8.02.67,8.18-5.32.08-2.22-.28-5.28,3.25-5.83,3.49,2.54,2.94,6.39,2.94,9.92.08,13.93.56,27.87-.95,41.72,1.15-8.49.91-17.03,1.11-25.56.08-3.77-.79-7.94,2.82-10.88,5-.48,10-.95,15-1.43,5.32,15.32,4.64,30.37-2.14,45.13-2.98,2.14-6.39,1.75-9.72,1.75-39.77.04-79.55.08-119.28.08l-.04.04Z"/>
        <path class="cls-106" d="M733.65,375.72c-.56,17.58-.48,17.43-16.95,11.03-6.31-2.46-12.46-4.84-16.95-10.24-2.54-3.06-5.6-2.82-9.09-1.31-6.11,2.62-12.19,5.56-19.09,5.52-3.06-2.38-2.98-5.87-3.02-9.17-.16-15.92-.2-31.83,0-47.75,0-3.06.12-6.19,2.58-8.57,3.73,6.79.83,14.17,1.75,21.2.32,2.26-.56,6.19,3.57,4.56,19.25-7.7,34.02,3.65,49.18,11.83,7.22,3.89,7.58,1.83,7.86-4.64.36-8.22-2.06-16.63,1.59-24.61,4.41,13.06,2.86,26.16.04,39.18-.95,4.33-3.89,2.74-6.71,1.15.79,4.6,6.15,6.91,5.2,11.91l.04-.08Z"/>
        <path class="cls-42" d="M671.13,315.23c.16,21.83.28,43.66.44,65.49-.08,15.68-.12,31.32-.32,47,0,2.5,1.27,6.35-2.98,6.63-5.04.32-3.69-3.97-3.73-6.71-.16-15.08-.16-30.21-.24-45.33-1.11-11.03-9.41-18.7-13.38-28.38-.2-1.71-2.3-3.77.64-4.96,1.67-.67,3.25-.16,4.45,1.35,2.14,2.78,3.89,5.99,8.65,8.06v-37.91c0-4.25.12-8.61,6.43-5.28l.04.04Z"/>
        <path class="cls-83" d="M733.65,375.72c-2.58-3.29-5.16-6.55-7.7-9.84-1.47-1.87-4.37-4.01-1.63-6.27,2.58-2.1,4.45.91,6.11,2.62.71.75.91,2.06,2.1,4.96,3.65-16.51,1.59-30.21,2.58-43.7,1.67,0,3.33,0,5,.04.16,22.39.28,44.77.44,67.16-.12,12.03-.12,24.05-.44,36.08-.08,2.7,1.71,7.26-2.98,7.34-5.4.08-3.65-5-3.37-7.7,1.59-14.21,1.27-28.46,1.23-42.71,0-2.7.91-5.64-1.35-8.02v.04Z"/>
        <path class="cls-14" d="M650.93,353.93c3.33,4.01,6.35,8.38,10.04,11.99,5,4.88,3.18,10.76,3.29,16.39-12.58.12-22.86-4.33-30.13-14.92,1.23-3.65,5.04-2.62,7.38-4.13,3.69-2.42,8.89-3.61,9.37-9.33h.04Z"/>
        <path class="cls-102" d="M253.79,348.77c-.36,10.28-4.92,18.74-11.75,26.12-1.94,2.1-3.65,4.21-4.17,7.07-5.95-2.06-10.16,2.94-15.36,3.77-3.45.56-6.95,1.15-10.4,1.75-1.75-1.23-2.46-3.1-2.58-5.08-.71-10.88-.83-21.79.08-32.67.16-1.67.91-3.22,2.3-4.37,11.51-3.53,22.98-8.85,34.49.04,2.18,1.71,4.56,3.14,7.42,3.33l-.04.04Z"/>
        <path class="cls-5" d="M211.87,345.39c.08,14.01.16,28.06.2,42.08-.08,13.42-.12,26.87-.32,40.29,0,2.54,1.27,6.35-2.94,6.63-5,.32-3.69-3.93-3.77-6.71-.24-14.53-.32-29.1-.44-43.62-3.97-6.79-3.06-14.45-1.94-21.36,1.91-11.75,1.27-23.42,1.55-35.13,0-1.39,0-2.82.83-4.05,4.17-2.62,6.31-1.27,6.47,3.41.2,6.11.2,12.27.32,18.38l.04.08Z"/>
        <path class="cls-81" d="M205.08,323.56c-.16,20.16-.32,40.33-.44,60.49-9.45-.4-16.55-5.48-23.14-11.59,3.85-6.39,10-10.36,16.2-13.81,4.64-2.62,5.64-5.8,5.83-10.68.36-8.14-2.06-16.47,1.55-24.41h0Z"/>
        <path class="cls-123" d="M491.16,397.51c-2.18-.56-4.33-1.15-6.51-1.71-2.02-1.47-2.42-3.69-2.46-5.95-.24-9.45-.24-18.93,0-28.38.04-2.26.44-4.45,2.42-5.95,8.73,5.56,9.57,14.45,9.92,23.54-6.51,5.16-1.95,12.34-3.37,18.46Z"/>
        <path class="cls-91" d="M573.6,264.26c0,8.15-3.67,12.23-11,12.23s-10.94-3.9-10.84-11.71c0-10.84,0-11.27,17.19-11.39,9.13-.08,2.34,7.98,4.64,10.92v-.04Z"/>
        <path class="cls-166" d="M561.18,246.2c-7.11,1.67-11.07-1.43-9.41-10.2.87-4.6-3.57-12.07,6.71-11.79,9.49.28,15.08,5,15.12,13.81,0,5.42-4.14,8.15-12.42,8.18h0Z"/>
        <path class="cls-7" d="M543.32,265.93c0,10.56-.08,9.8-11.15,10.76-10.72.91-8.49-5.68-9.25-11.99-1.11-9.17,3.02-10.8,10.92-10.28,9.49.6,9.49.16,9.49,11.51Z"/>
        <path class="cls-101" d="M543.32,235.08c0,11.11,0,10.96-10.64,11.19-5.83.16-10.36.24-9.76-8.02.71-9.96,3.81-13.73,13.69-13.93,6.59-.12,6.71.04,6.71,10.76h0Z"/>
        <path class="cls-9" d="M563.6,281.49c3.18,1.31,9.57-3.22,10.08,5.24.36,5.87-1.03,9.21-7.66,8.26-1.91-.28-3.89-.12-5.83,0-4.64.16-8.57.52-8.65-6.51-.12-7.46,4.09-7.18,9.05-6.95h3.06l-.04-.04Z"/>
        <path class="cls-182" d="M532.8,281.57c5.64,0,10.8-1.51,10.68,6.87-.12,9.49-6.63,6.11-11.11,6.43-4.49.36-9.37,1.59-9.49-6.35-.12-9.21,5.91-6.59,9.92-6.91v-.04Z"/>
        <path class="cls-84" d="M562.25,399.26c-7.01,0-10.52-3.72-10.52-11.15s3.93-11.01,11.79-10.72c6.75,0,10.11,3.85,10.08,11.55,0,6.88-3.78,10.32-11.35,10.32h0Z"/>
        <path class="cls-161" d="M543.04,388.58c1.91,8.18-.91,11.55-9.8,10.84-10.04-.79-9.49-.24-10.28-11.71-.6-8.73,2.42-10.52,10.68-10.68,9.41-.2,11.03,3.77,9.41,11.55Z"/>
        <path class="cls-157" d="M562.45,370.68c-3.73-1.27-10.72,3.37-10.88-6.31-.12-6.79,1.63-10.04,8.77-8.89.79.12,1.67,0,2.5,0,5.2.24,11.03-2.06,11.07,7.5,0,9.53-5.76,7.42-11.47,7.66v.04Z"/>
        <path class="cls-160" d="M533.31,355.56c5.24-.12,10.28-1.39,10.32,7.38.08,9.41-5.6,7.46-10.92,7.74-5.76.32-9.88.32-9.88-7.9,0-8.97,5.44-7.14,10.48-7.22h0Z"/>
        <path class="cls-36" d="M562.45,414.38h-6.67c-3.45,0-4.01-2.22-4.01-5.04s.6-5,4.05-5,7.22-.08,10.84,0c3.29,0,6.83-.64,6.99,4.64.2,5.52-3.14,5.64-7.03,5.48-1.39-.04-2.78,0-4.17,0h0v-.08Z"/>
        <path class="cls-1" d="M533.31,414.3c-2.22,0-4.45.08-6.67,0-2.98-.12-3.49-2.18-3.49-4.6,0-2.66.16-5.2,3.69-5.28,3.33-.08,6.67,0,10-.12,3.69-.12,6.55.24,6.51,5.16,0,5.08-3.18,5.04-6.71,4.96h-3.33v-.12Z"/>
        <path class="cls-19" d="M322.86,263.35c0,8.73-3.96,13.1-11.87,13.1s-11.8-3.9-11.67-11.71c0-11.83.08-11.03,13.85-12.07,10.88-.83,10.28,5.2,9.72,10.68h-.04Z"/>
        <path class="cls-182" d="M292.57,264.7c0,7.86-3.88,11.78-11.63,11.75-6.83,0-10.24-4.1-10.24-12.31,0-7.49,4.25-11.22,12.74-11.19,6.06,0,9.09,3.92,9.09,11.75h.04Z"/>
        <path class="cls-40" d="M311.27,246.2c-11.95,0-12.11,0-11.91-10.08.12-5.52-2.74-12.82,8.06-11.99,10.24.79,14.89,4.96,15.56,14.17.83,11-6.95,7.18-11.71,7.9h0Z"/>
        <path class="cls-117" d="M292.53,234.85c0,11.19-3.18,13.54-16.67,12.86-6.03-.28-5.16-4.8-5.16-8.65,0-9.72,5.2-14.41,15.32-14.81,9.76-.4,5.44,6.79,6.51,10.6h0Z"/>
        <path class="cls-19" d="M311.9,281.49c3.1,1.95,10.16-4.01,11,5,.52,5.64-.56,9.41-7.46,8.45-2.46-.32-5-.16-7.54,0-5.04.24-8.53-.56-8.73-7.03-.24-7.18,4.13-6.55,8.69-6.43h4.05Z"/>
        <path class="cls-18" d="M280.58,294.94c-3.22-1.23-9.53,3.14-10-5.32-.32-5.95,1.15-9.13,7.74-8.18,1.91.28,3.89.12,5.83,0,4.72-.24,8.61-.36,8.57,6.59,0,6.63-3.25,7.34-8.3,6.87-1.11-.12-2.22,0-3.89,0l.04.04Z"/>
        <path class="cls-156" d="M311.46,399.22c-6.11.08-12.78,1.63-12.27-8.57.6-12.07,1.35-13.26,13.34-13.26,6.88,0,10.31,3.84,10.28,11.51,0,6.93-3.8,10.39-11.39,10.36l.04-.04Z"/>
        <path class="cls-166" d="M281.54,377.39c7.36,0,11.03,3.53,11.03,10.6,0,7.52-3.73,11.27-11.19,11.27s-11.01-3.96-10.64-11.87c0-6.67,3.6-10,10.8-10h0Z"/>
        <path class="cls-120" d="M312.46,355.52c10.56,0,11.43,1.03,10.48,10.4-.36,3.65-1.94,4.88-5.28,4.72-1.67-.08-3.37.16-5,0-5.04-.64-11.91,3.06-11.99-7.42-.04-10.32,6.55-7.18,11.79-7.66v-.04Z"/>
        <path class="cls-107" d="M281.85,370.68c-5.2-.44-11.63,2.42-11.35-7.38.28-9.09,5.91-7.78,11.39-7.74,5.32,0,11-1.79,10.96,7.66,0,9.76-6.11,7.07-11.03,7.46h.04Z"/>
        <path class="cls-165" d="M280.86,416.05c-2.82-.52-6.63,1.39-9.17-1.31-1.94-2.1-1.15-5.28-.64-7.98.52-2.54,2.74-2.38,4.68-2.42,3.06-.08,6.11,0,9.17,0,4.01-.04,7.66-.48,7.78,5.64.12,6.55-3.73,6.31-8.1,6.15-1.11-.04-2.22,0-3.73,0v-.08Z"/>
        <path class="cls-174" d="M311.7,416.05c-2.86-.4-6.51,1.11-9.37-.95-2.54-1.91-1.39-5.16-1.19-7.86.16-2.5,2.22-2.9,4.29-2.94,3.33,0,6.71.08,10.04-.08,4.25-.16,7.54,0,7.54,5.91s-3.29,6.15-7.54,5.87c-1.11-.08-2.22,0-3.77,0v.04Z"/>
        <path class="cls-15" d="M467.62,268.67v-.83c0-12.7,5.99-16.91,18.58-13.14,1.43.44,2.86.91,2.9,2.5.2,7.78,2.38,16.08-1.51,23.1-3.49,6.35-10.64,2.14-16.12,2.66-4.72.44-3.69-3.85-3.85-6.71-.12-2.5,0-5.04,0-7.54v-.04Z"/>
        <path class="cls-215" d="M440.63,268.9v-1.67c0-12.62,3.89-15.52,16.59-12.62,2.82.64,3.65,2.1,3.65,4.6,0,4.17.04,8.38,0,12.54,0,7.62-3.73,11.42-11.19,11.39-6.06,0-9.09-4.75-9.09-14.25h.04Z"/>
        <path class="cls-37" d="M478.61,249.29c-7.54,1.59-11.23-.04-11.39-9.41-.16-10,5.32-8.65,11.51-8.93,6.99-.36,11.15.12,11.07,9.37-.08,9.05-3.89,10.32-11.19,9.01v-.04Z"/>
        <path class="cls-51" d="M451.46,231.23c6.75-.87,11.35-.83,11.47,8.81.12,10-4.84,9.45-11.75,9.69-7.22.24-10.92-.64-10.96-9.61-.04-9.45,4.45-9.88,11.23-8.89Z"/>
        <path class="cls-131" d="M400.34,268.63v3.33c0,10.6-5.44,14.37-15.6,11.11-3.41-1.07-2.86-3.61-3.02-6.03-.4-6.11.87-12.27-1.03-18.3-.71-2.26.24-3.97,2.74-4.05,4.45-.12,8.93-.12,13.42,0,2.98.08,3.49,2.26,3.49,4.68v9.25Z"/>
        <path class="cls-186" d="M407.01,268.51v-1.67c0-12.98.83-13.54,13.61-12.31,7.74.75,5.2,6.71,4.6,10.08-1.11,6.19,5.56,15.8-4.6,18.22-12.74,3.02-13.61,1.35-13.61-14.33h0Z"/>
        <path class="cls-85" d="M389.78,249.37c-6.35,1.07-9.88-.08-10-8.3-.12-9.29,4.01-10.36,11.59-10.24,6.79.12,10.64.79,10.8,9.33.2,10.16-5.48,9.84-12.42,9.21h.04Z"/>
        <path class="cls-34" d="M425.27,239.97c1.75,7.74-1.35,9.88-8.81,9.8-6.95-.08-9.8-1.35-9.72-9.17.08-8.14,3.18-9.72,10.48-9.8,7.42-.08,9.72,2.58,8.06,9.17Z"/>
        <path class="cls-43" d="M366.6,362.22c-.24-5.04-.52-10.08-.75-15.12-.16-.64,0-1.23.4-1.75,6.83.04,13.69.12,20.52.16-1.43,5.52-6.27,2.94-9.53,4.21,15.36-3.22,30.68,1.35,46.04,0,13.14.2,26.24-.2,39.38.24,4.88.16,8.89,2.34,10.32,7.11,1.19,3.97,1.39,8.34-3.57,10.56-3.41-3.22-7.42-4.53-12.19-4.53-21.28.12-42.55,0-63.87.08-3.69,0-7.26.44-10.44,2.58-6.03,1.63-11.51.6-16.31-3.49v-.04Z"/>
        <path class="cls-140" d="M422.13,352.1c-17.62-.4-35.25-.83-52.87-1.23,5.12-6.27,12.27-1.39,17.47-5.36h80.9c3.97,1.55,8.14.32,12.19.75,1.95.24,4.17.28,2.74,3.33-3.41,4.01-7.82,3.45-12.31,2.86-16.04-2.18-32.07-1.55-48.11-.36h0Z"/>
        <path class="cls-149" d="M482.62,348.89c-4.25-4.41-10.6.48-14.96-3.33,5.72.16,11.67-2.14,17.03,1.59,0,2.82-.08,5.6-.12,8.42,0,13.42,0,26.87.04,40.29-.12,6.71-.28,13.46-.4,20.16-.48.08-.91.12-1.39.12-1.27-.91-1.83-2.26-2.14-3.77-.28-1.47-.32-2.98-.4-4.45-.24-7.58-.28-15.16,0-22.74-.28-8.38-.32-16.71-.28-25.09,0-3.97.36-7.78,2.62-11.23v.04Z"/>
        <path class="cls-78" d="M366.24,345.35c-.12.6-.28,1.19-.4,1.75-6.47-.67-13.14,1.63-19.37-1.63,6.59-.04,13.18-.08,19.77-.16v.04Z"/>
        <path class="cls-145" d="M366.6,362.22c5.04,1.11,10.04,2.26,15.08,3.37,2.66,2.3,2.66,5.48,2.54,8.45-.52,11.87,1.19,23.74-1.47,35.68-1.19,5.32,2.1,11.23,1.63,17.15-.4,4.68.44,9.45-.95,14.09-6.07,6.27-10.76,6.83-16.55,1.95-.16-7.34-.28-14.69-.44-22.03-.16-18.46-.32-36.92-.44-55.37.2-1.11.44-2.22.64-3.29h-.04Z"/>
        <path class="cls-211" d="M366.84,442.96c5.52,3.14,10.32.75,15.16-1.79,3.77-1.19,7.82-.95,11.63-2.02,9.05-.44,18.1-.79,27.15.24,3.18.79,6.39.83,9.57,0,9.76-.87,19.53-.99,29.29,0,3.22.71,6.47,1.23,9.8,1.27,4.8,0,9.72-.32,13.22,4.05-4.76,2.38-9.92,3.57-15.16,3.25-31.2-1.98-62.36,1.75-93.56.12-3.45-.2-7.94,1.07-7.11-5.08v-.04Z"/>
        <path class="cls-178" d="M482.66,444.67c-4.33-1.35-8.77-2.02-13.3-1.67-4.92-8.57-3.29-17.74-1.59-26.52,1.19-6.19,6.91-7.22,14.89-3.81.08,1.15.16,2.34.24,3.49-.08,9.53-.12,19.01-.2,28.54l-.04-.04Z"/>
        <path class="cls-196" d="M482.62,412.63c-8.84.16-13.26,4.76-13.26,13.81v16.55c-2.98-.36-6.39,1.27-8.69-2.02-2.98-3.25-2.42-7.3-2.46-11.15-.12-16.23,0-32.47-.08-48.7-.04-10.44-.67-10.96-10.84-11.11-10.48-.16-15.72,5.01-15.72,15.52,0,14.85.04,29.69,0,44.5,0,3.89.36,7.94-2.58,11.15-2.22,2.5-4.49,2.54-6.79.12-3.1-3.49-2.66-7.82-2.66-11.95-.08-16.2.04-32.39-.08-48.62-.08-9.92-.75-10.52-10.4-10.68h-3.33c-10.36.12-11.03.67-11.11,10.84-.12,16.2,0,32.39-.08,48.62,0,4.13.44,8.49-2.82,11.87-3.25,2.02-6.51,2.26-9.69-.16-.04-6.43-.24-12.86-.12-19.29.12-4.8.56-9.53-6.83-10.92,6.55-.99,6.91-4.76,6.83-9.29-.24-12.03-.16-24.05-.2-36.04-.2-4.09,1.95-5.12,5.72-5.12,25.4.12,50.81.16,76.17,0,5.28-.04,5.99,2.7,5.83,6.79,2.74,4.64,2.46,11.19,9.37,13.34,2.22.67.67,3.85-.67,5.68-7.46,2.3-6.51,8.34-6.47,14.13,0,5.76,4.21,6.35,8.3,7.26,1.11.24,1.95.99,2.7,1.83v3.14l-.04-.08Z"/>
        <path class="cls-144" d="M477.58,385.72c-.16-1.51,1.47-4.41-.24-4.37-11.91.28-7.11-8.42-7.94-14.09,4.17-12.11,2.14-15.08-10.48-15.12h-36.8c2.54-2.62,5.8-1.55,8.73-1.59,13.97-.12,27.98-.08,41.96-.08,3.37,0,6.75.28,9.76-1.59v36.95c-1.71,1.27-3.41,1.43-5.08-.12h.08Z"/>
        <path class="cls-6" d="M477.58,385.72c1.71,0,3.37.08,5.08.12,0,7.9,0,15.76-.04,23.66-4.17-.91-10.08,2.1-12.23-2.54-2.62-5.72-1.55-12.54-.56-18.78.64-4.05,5-2.02,7.74-2.46h0Z"/>
        <path class="cls-123" d="M428.96,441.13c0-22.39.2-44.77-.04-67.12-.08-5.56,1.71-7.46,7.14-7.07,7.78.6,17.74-3.33,22.82,1.15,5.24,4.64,1.47,14.81,1.63,22.51.32,16.79.12,33.58.16,50.33-10.56,1.27-21.16.75-31.72.16v.04Z"/>
        <path class="cls-123" d="M391.69,441.29c0-22.35.16-44.66-.2-67-.08-5.99,1.79-7.94,7.58-7.34,7.42.75,17.07-3.14,21.79,1.47,4.76,4.64,1.39,14.29,1.47,21.71.16,17.03-.08,34.06-.16,51.09-10.16,0-20.32,0-30.48.04v.04Z"/>
      </g>
      <path class="cls-175" d="M175.2,143.95c-17.19-.16-34.37-.32-51.56-.48-7.98-.12-15.92-.16-23.86-.44-.95,0-2.38,1.98-2.74-2.06-.24-2.74.95-4.21,1.71-5.64,7.9-14.96,16.67-22.39,25.92-25.09,2.5-.75,4.8,2.62,6.99,5.83,3.49,5.12,6.75,6.03,10.44.2,6.19-9.76,12.86-13.54,19.93-12.23,5.8,1.07,11.75,2.42,17.43-.16,11.75-5.36,18.89,18.34,27.27,34.89.32.67.79,2.3.71,2.9-.36,2.82-1.27,1.59-1.94,1.59-6.91.08-13.77-.08-20.68,0-3.22,0-6.43.44-9.65.64l.04.04Z"/>
      <path class="cls-175" d="M354.37,40.82c-17.19-.16-34.37-.32-51.56-.48-7.98-.12-15.92-.16-23.86-.44-.95,0-2.38,1.98-2.74-2.06-.24-2.74.95-4.21,1.71-5.64,7.9-14.96,16.67-22.39,25.92-25.09,2.5-.75,4.8,2.62,6.99,5.83,3.49,5.12,6.75,6.03,10.44.2,6.19-9.76,12.86-13.54,19.93-12.23,5.8,1.07,11.75,2.42,17.43-.16,11.75-5.36,18.89,18.34,27.27,34.89.32.67.79,2.3.71,2.9-.36,2.82-1.27,1.59-1.95,1.59-6.91.08-13.77-.08-20.68,0-3.22,0-6.43.44-9.65.64l.04.04Z"/>
      <path class="cls-175" d="M603.61,85.84c-17.19-.16-34.37-.32-51.56-.48-7.98-.12-15.92-.16-23.86-.44-.95,0-2.38,1.98-2.74-2.06-.24-2.74.95-4.21,1.71-5.64,7.9-14.96,16.67-22.39,25.92-25.09,2.5-.75,4.8,2.62,6.99,5.83,3.49,5.12,6.75,6.03,10.44.2,6.19-9.76,12.86-13.54,19.93-12.23,5.8,1.07,11.75,2.42,17.43-.16,11.75-5.36,18.89,18.34,27.27,34.89.32.67.79,2.3.71,2.9-.36,2.82-1.27,1.59-1.95,1.59-6.91.08-13.77-.08-20.68,0-3.22,0-6.43.44-9.65.64l.04.04Z"/>
      <path class="cls-54" d="M67.27,177.21c-.79.83.04,1.11.6,1.43"/>
      <g>
        <path class="cls-54" d="M651.56,448.91c-4.33,7.5-10.64,12.54-18.81,15.36-.95.44-1.67,0-2.3-.64-1.71-6.03-2.26-11.99,1.23-17.7,4.13-6.79,8.02-13.69,11.95-20.6.71-1.23,1.51-2.46,1.71-4.41-1.83.99-2.34,2.54-3.06,3.81-2.82,5.08-5.99,9.96-8.81,15.04-.36.67-.79,1.35-1.23,1.98-.64.91-1.35,2.1-2.58,1.71-1.07-.36-.87-1.67-1.03-2.66-1.23-7.18-.75-14.49-1.15-21.71-.44-7.66-.99-15.36-.95-23.1,0-3.06.75-5.64,2.5-8.14,1.79-2.58,3.93-5.04,5.2-8.57-2.02.67-2.54,2.1-3.45,3.14-1.03,1.19-1.63,3.53-3.61,2.82-1.87-.67-1.15-2.9-1.19-4.53-.08-3.14,0-6.27-.04-9.41,0-1.19.24-2.46-.71-3.53-1.39.12-1.03,2.34-2.54,2.22-1.63-.12-2.5-1.39-3.53-2.38-2.1-1.98-4.01-4.17-6.51-5.8,2.14,3.25,4.6,6.43,7.54,8.85,5.68,4.68,4.17,10.64,3.89,16.39-.12,2.62-2.02,1.43-3.02.32-1.91-2.18-3.85-4.37-5.95-6.35-.79-.75-1.43-1.71-3.18-2.22.91,2.06,2.14,3.37,3.37,4.64,2.46,2.58,5.04,5.08,7.58,7.62,1.31,1.31,2.1,2.86,2.1,4.76,0,3.14.04,6.27,0,9.41,0,.99.08,2.22-.95,2.7-1.03.48-1.87-.48-2.58-1.15-2.9-2.78-5.72-5.68-8.57-8.49-.56-.56-1.03-1.19-1.91-1.31-.48.83.28,1.23.67,1.63,3.97,3.65,7.03,8.14,11.03,11.71,2.26,2.02,3.29,4.41,3.06,7.42-.12,1.55,0,3.14-.04,4.68-.04,1.07.2,2.46-.99,2.98-1.15.52-2.06-.6-2.94-1.23-2.58-1.79-4.45-4.37-7.11-6.39-.28,1.35.6,1.83,1.11,2.42,1.23,1.31,2.34,2.82,3.81,3.77,7.94,5.2,7.38,13.26,7.38,21.16,0,.87,0,1.95-.87,2.38-1.11.56-1.87-.4-2.58-1.07-3.49-3.33-6.79-6.79-10.24-10.16-.95-.91-1.71-2.06-3.29-2.62-.04,1.11.71,1.59,1.23,2.14,4.41,4.45,8.69,9.01,13.34,13.22,2.3,2.06,3.37,4.33,3.14,7.34-.16,2.34.28,4.68-.36,7.03-.36.67-.83,1.11-1.67.87-.64-.83-1.59-1.07-2.54-1.39-5.24-1.83-9.29-5.28-13.06-9.25-4.49-5.56-5.76-12.19-6.55-19.01-2.38-20.84-5-41.68-6.75-62.6-1.63-19.81,15.68-33.66,33.66-27.11,7.98,2.9,13.02,8.69,14.96,16.75"/>
        <path class="cls-129" d="M630.76,463.72c.67.2,1.35.36,1.98.56,2.58,2.1,2.74,4.72,1.43,7.5-1.19,2.46-3.33,3.14-5.87,2.78-2.7-.36-4.17-2.1-4.64-4.56-.44-2.22.52-4.13,2.02-5.76.4-.16.79-.36,1.15-.52,1.31-.83,2.62-.36,3.93,0Z"/>
        <path class="cls-109" d="M630.76,463.72c-1.31,1.03-2.62.2-3.93,0,1.27-7.78-.95-13.97-7.54-18.78-3.57-2.62-6.43-6.19-9.57-9.41-.75-.79-2.54-1.59-1.27-2.9,1.31-1.31,2.42.16,3.33,1.11,4.41,4.56,8.81,9.21,13.73,14.37.87-3.69.48-6.39.44-9.05,0-.12-.08-.24-.04-.32,1.23-7.46-4.13-11.31-8.57-15.72-1.19-1.19-2.38-2.38-3.57-3.57-.83-.83-1.67-1.75-.52-2.82,1.11-1.03,1.79.16,2.46.79,2.78,2.66,5.28,5.68,9.01,8.06v-10.92c0-1.03-.79-1.51-1.39-2.18-4.41-4.6-8.81-9.17-13.18-13.81-.67-.71-2.18-1.43-.99-2.7,1.27-1.35,2.18-.08,3.06.75,3.77,3.73,7.54,7.5,11.79,11.75v-13.93c0-1.15-.95-1.71-1.63-2.42-3.65-3.89-7.34-7.82-11-11.71-.71-.75-1.55-1.43-.4-2.5,1.11-1.03,1.75-.08,2.5.56,3.45,2.94,6.95,5.87,9.92,8.38v-10.04c0-1.27-.79-2.02-1.59-2.82-3.14-3.33-6.27-6.67-9.33-10.08-.83-.91-2.5-1.98-1.27-3.33,1.47-1.55,2.3.48,3.14,1.27,2.78,2.66,5.4,5.48,8.06,8.22,1.59-1.27.16-4.17,2.54-3.81,2.18.32,1.67,2.58,1.71,4.21v15.28c2.86-1.91,3.57-4.37,5.16-6.11.83-.91,1.43-2.3,2.9-1.19,1.43,1.11.32,2.14-.36,3.18-.52.75-.87,1.59-1.51,2.22-6.31,6.59-5.87,14.57-5.12,22.82.75,7.86.64,15.84.99,23.74.2,4.29.52,8.57,1.51,13.1,2.62-4.45,5.28-8.89,7.9-13.38,1.71-2.9,3.37-5.8,5.08-8.65.56-.95,1.03-2.26,2.46-1.63,1.75.79.75,2.14.2,3.1-4.6,8.14-9.09,16.39-14.05,24.37-2.94,4.72-1.31,9.49-1.47,14.29,0,.75.2,1.55.32,2.3l.08-.08Z"/>
      </g>
      <g>
        <path class="cls-54" d="M83.23,429.23c-4.33,7.5-10.64,12.54-18.81,15.36-.95.44-1.67,0-2.3-.64-1.71-6.03-2.26-11.99,1.23-17.7,4.13-6.79,8.02-13.69,11.95-20.6.71-1.23,1.51-2.46,1.71-4.41-1.83.99-2.34,2.54-3.06,3.81-2.82,5.08-5.99,9.96-8.81,15.04-.36.67-.79,1.35-1.23,1.98-.64.91-1.35,2.1-2.58,1.71-1.07-.36-.87-1.67-1.03-2.66-1.23-7.18-.75-14.49-1.15-21.71-.44-7.66-.99-15.36-.95-23.1,0-3.06.75-5.64,2.5-8.14,1.79-2.58,3.93-5.04,5.2-8.57-2.02.67-2.54,2.1-3.45,3.14-1.03,1.19-1.63,3.53-3.61,2.82-1.87-.67-1.15-2.9-1.19-4.53-.08-3.14,0-6.27-.04-9.41,0-1.19.24-2.46-.71-3.53-1.39.12-1.03,2.34-2.54,2.22-1.63-.12-2.5-1.39-3.53-2.38-2.1-1.98-4.01-4.17-6.51-5.8,2.14,3.25,4.6,6.43,7.54,8.85,5.68,4.68,4.17,10.64,3.89,16.39-.12,2.62-2.02,1.43-3.02.32-1.91-2.18-3.85-4.37-5.95-6.35-.79-.75-1.43-1.71-3.18-2.22.91,2.06,2.14,3.37,3.37,4.64,2.46,2.58,5.04,5.08,7.58,7.62,1.31,1.31,2.1,2.86,2.1,4.76,0,3.14.04,6.27,0,9.41,0,.99.08,2.22-.95,2.7-1.03.48-1.87-.48-2.58-1.15-2.9-2.78-5.72-5.68-8.57-8.49-.56-.56-1.03-1.19-1.91-1.31-.48.83.28,1.23.67,1.63,3.97,3.65,7.03,8.14,11.03,11.71,2.26,2.02,3.29,4.41,3.06,7.42-.12,1.55,0,3.14-.04,4.68-.04,1.07.2,2.46-.99,2.98-1.15.52-2.06-.6-2.94-1.23-2.58-1.79-4.45-4.37-7.11-6.39-.28,1.35.6,1.83,1.11,2.42,1.23,1.31,2.34,2.82,3.81,3.77,7.94,5.2,7.38,13.26,7.38,21.16,0,.87,0,1.95-.87,2.38-1.11.56-1.87-.4-2.58-1.07-3.49-3.33-6.79-6.79-10.24-10.16-.95-.91-1.71-2.06-3.29-2.62-.04,1.11.71,1.59,1.23,2.14,4.41,4.45,8.69,9.01,13.34,13.22,2.3,2.06,3.37,4.33,3.14,7.34-.16,2.34.28,4.68-.36,7.03-.36.67-.83,1.11-1.67.87-.64-.83-1.59-1.07-2.54-1.39-5.24-1.83-9.29-5.28-13.06-9.25-4.49-5.56-5.76-12.19-6.55-19.01-2.38-20.84-5-41.68-6.75-62.6-1.63-19.81,15.68-33.66,33.66-27.11,7.98,2.9,13.02,8.69,14.96,16.75"/>
        <path class="cls-129" d="M62.43,444.07c.67.2,1.35.36,1.98.56,2.58,2.1,2.74,4.72,1.43,7.5-1.19,2.46-3.33,3.14-5.87,2.78-2.7-.36-4.17-2.1-4.64-4.56-.44-2.22.52-4.13,2.02-5.76.4-.16.79-.36,1.15-.52,1.31-.83,2.62-.36,3.93,0Z"/>
        <path class="cls-109" d="M62.43,444.07c-1.31,1.03-2.62.2-3.93,0,1.27-7.78-.95-13.97-7.54-18.78-3.57-2.62-6.43-6.19-9.57-9.41-.75-.79-2.54-1.59-1.27-2.9,1.31-1.31,2.42.16,3.33,1.11,4.41,4.56,8.81,9.21,13.73,14.37.87-3.69.48-6.39.44-9.05,0-.12-.08-.24-.04-.32,1.23-7.46-4.13-11.31-8.57-15.72-1.19-1.19-2.38-2.38-3.57-3.57-.83-.83-1.67-1.75-.52-2.82,1.11-1.03,1.79.16,2.46.79,2.78,2.66,5.28,5.68,9.01,8.06v-10.92c0-1.03-.79-1.51-1.39-2.18-4.41-4.6-8.81-9.17-13.18-13.81-.67-.71-2.18-1.43-.99-2.7,1.27-1.35,2.18-.08,3.06.75,3.77,3.73,7.54,7.5,11.79,11.75v-13.93c0-1.15-.95-1.71-1.63-2.42-3.65-3.89-7.34-7.82-11-11.71-.71-.75-1.55-1.43-.4-2.5,1.11-1.03,1.75-.08,2.5.56,3.45,2.94,6.95,5.87,9.92,8.38v-10.04c0-1.27-.79-2.02-1.59-2.82-3.14-3.33-6.27-6.67-9.33-10.08-.83-.91-2.5-1.98-1.27-3.33,1.47-1.55,2.3.48,3.14,1.27,2.78,2.66,5.4,5.48,8.06,8.22,1.59-1.27.16-4.17,2.54-3.81,2.18.32,1.67,2.58,1.71,4.21v15.28c2.86-1.91,3.57-4.37,5.16-6.11.83-.91,1.43-2.3,2.9-1.19,1.43,1.11.32,2.14-.36,3.18-.52.75-.87,1.59-1.51,2.22-6.31,6.59-5.87,14.57-5.12,22.82.75,7.86.64,15.84.99,23.74.2,4.29.52,8.57,1.51,13.1,2.62-4.45,5.28-8.89,7.9-13.38,1.71-2.9,3.37-5.8,5.08-8.65.56-.95,1.03-2.26,2.46-1.63,1.75.79.75,2.14.2,3.1-4.6,8.14-9.09,16.39-14.05,24.37-2.94,4.72-1.31,9.49-1.47,14.29,0,.75.2,1.55.32,2.3l.08-.08Z"/>
      </g>
      <g>
        <path class="cls-54" d="M54.92,464.36c-4.33,7.5-10.64,12.54-18.81,15.36-.95.44-1.67,0-2.3-.64-1.71-6.03-2.26-11.99,1.23-17.7,4.13-6.79,8.02-13.69,11.95-20.6.71-1.23,1.51-2.46,1.71-4.41-1.83.99-2.34,2.54-3.06,3.81-2.82,5.08-5.99,9.96-8.81,15.04-.36.67-.79,1.35-1.23,1.98-.64.91-1.35,2.1-2.58,1.71-1.07-.36-.87-1.67-1.03-2.66-1.23-7.18-.75-14.49-1.15-21.71-.44-7.66-.99-15.36-.95-23.1,0-3.06.75-5.64,2.5-8.14,1.79-2.58,3.93-5.04,5.2-8.57-2.02.67-2.54,2.1-3.45,3.14-1.03,1.19-1.63,3.53-3.61,2.82-1.87-.67-1.15-2.9-1.19-4.53-.08-3.14,0-6.27-.04-9.41,0-1.19.24-2.46-.71-3.53-1.39.12-1.03,2.34-2.54,2.22-1.63-.12-2.5-1.39-3.53-2.38-2.1-1.98-4.01-4.17-6.51-5.8,2.14,3.25,4.6,6.43,7.54,8.85,5.68,4.68,4.17,10.64,3.89,16.39-.12,2.62-2.02,1.43-3.02.32-1.91-2.18-3.85-4.37-5.95-6.35-.79-.75-1.43-1.71-3.18-2.22.91,2.06,2.14,3.37,3.37,4.64,2.46,2.58,5.04,5.08,7.58,7.62,1.31,1.31,2.1,2.86,2.1,4.76,0,3.14.04,6.27,0,9.41,0,.99.08,2.22-.95,2.7-1.03.48-1.87-.48-2.58-1.15-2.9-2.78-5.72-5.68-8.57-8.49-.56-.56-1.03-1.19-1.91-1.31-.48.83.28,1.23.67,1.63,3.97,3.65,7.03,8.14,11.03,11.71,2.26,2.02,3.29,4.41,3.06,7.42-.12,1.55,0,3.14-.04,4.68-.04,1.07.2,2.46-.99,2.98-1.15.52-2.06-.6-2.94-1.23-2.58-1.79-4.45-4.37-7.11-6.39-.28,1.35.6,1.83,1.11,2.42,1.23,1.31,2.34,2.82,3.81,3.77,7.94,5.2,7.38,13.26,7.38,21.16,0,.87,0,1.95-.87,2.38-1.11.56-1.87-.4-2.58-1.07-3.49-3.33-6.79-6.79-10.24-10.16-.95-.91-1.71-2.06-3.29-2.62-.04,1.11.71,1.59,1.23,2.14,4.41,4.45,8.69,9.01,13.34,13.22,2.3,2.06,3.37,4.33,3.14,7.34-.16,2.34.28,4.68-.36,7.03-.36.67-.83,1.11-1.67.87-.64-.83-1.59-1.07-2.54-1.39-5.24-1.83-9.29-5.28-13.06-9.25-4.49-5.56-5.76-12.19-6.55-19.01-2.38-20.84-5-41.68-6.75-62.6-1.63-19.81,15.68-33.66,33.66-27.11,7.98,2.9,13.02,8.69,14.96,16.75"/>
        <path class="cls-129" d="M34.12,479.2c.67.2,1.35.36,1.98.56,2.58,2.1,2.74,4.72,1.43,7.5-1.19,2.46-3.33,3.14-5.87,2.78-2.7-.36-4.17-2.1-4.64-4.56-.44-2.22.52-4.13,2.02-5.76.4-.16.79-.36,1.15-.52,1.31-.83,2.62-.36,3.93,0Z"/>
        <path class="cls-109" d="M34.12,479.2c-1.31,1.03-2.62.2-3.93,0,1.27-7.78-.95-13.97-7.54-18.78-3.57-2.62-6.43-6.19-9.57-9.41-.75-.79-2.54-1.59-1.27-2.9,1.31-1.31,2.42.16,3.33,1.11,4.41,4.56,8.81,9.21,13.73,14.37.87-3.69.48-6.39.44-9.05,0-.12-.08-.24-.04-.32,1.23-7.46-4.13-11.31-8.57-15.72-1.19-1.19-2.38-2.38-3.57-3.57-.83-.83-1.67-1.75-.52-2.82,1.11-1.03,1.79.16,2.46.79,2.78,2.66,5.28,5.68,9.01,8.06v-10.92c0-1.03-.79-1.51-1.39-2.18-4.41-4.6-8.81-9.17-13.18-13.81-.67-.71-2.18-1.43-.99-2.7,1.27-1.35,2.18-.08,3.06.75,3.77,3.73,7.54,7.5,11.79,11.75v-13.93c0-1.15-.95-1.71-1.63-2.42-3.65-3.89-7.34-7.82-11-11.71-.71-.75-1.55-1.43-.4-2.5,1.11-1.03,1.75-.08,2.5.56,3.45,2.94,6.95,5.87,9.92,8.38v-10.04c0-1.27-.79-2.02-1.59-2.82-3.14-3.33-6.27-6.67-9.33-10.08-.83-.91-2.5-1.98-1.27-3.33,1.47-1.55,2.3.48,3.14,1.27,2.78,2.66,5.4,5.48,8.06,8.22,1.59-1.27.16-4.17,2.54-3.81,2.18.32,1.67,2.58,1.71,4.21v15.28c2.86-1.91,3.57-4.37,5.16-6.11.83-.91,1.43-2.3,2.9-1.19,1.43,1.11.32,2.14-.36,3.18-.52.75-.87,1.59-1.51,2.22-6.31,6.59-5.87,14.57-5.12,22.82.75,7.86.64,15.84.99,23.74.2,4.29.52,8.57,1.51,13.1,2.62-4.45,5.28-8.89,7.9-13.38,1.71-2.9,3.37-5.8,5.08-8.65.56-.95,1.03-2.26,2.46-1.63,1.75.79.75,2.14.2,3.1-4.6,8.14-9.09,16.39-14.05,24.37-2.94,4.72-1.31,9.49-1.47,14.29,0,.75.2,1.55.32,2.3l.08-.08Z"/>
      </g>
      <path class="cls-123" d="M190.08,276.29c-23.3-33.62.4-37.99-25.09-64.03-25.48-26.04-66.01-23.7-81.69-12.62-15.68,11.07-16.16,50.49-1.55,70.5s59.66,6.31,79.43-4.96c19.77-11.27,28.86,11.15,28.86,11.15l.04-.04Z"/>
      <path class="cls-123" d="M215.92,232.82c1.71-40.88,23.22-30.05,18.62-66.21-4.6-36.16-38.34-58.75-57.52-59.34-19.17-.6-43.35,30.52-43.74,55.29-.4,24.77,43.78,41.04,66.33,43.98,22.59,2.94,16.31,26.32,16.31,26.32v-.04Z"/>
      <g>
        <path class="cls-172" d="M11.38,489.96c5.44-.08,10.88-.16,16.31-.2,3.65-2.74,7.9-1.79,11.91-1.79,118.57-.04,237.09-.04,355.66,0,2.26,0,4.53-.12,6.79.2,4.76.24,9.72-1.31,14.09,1.83,0,5.36,2.1,12.78-.6,15.44-2.66,2.66-10.12.6-15.44.6-127.93,0-255.87,0-383.8.12-4.21,0-5.56-.79-5.04-5.08.44-3.65.08-7.38.08-11.07l.04-.04Z"/>
        <path class="cls-45" d="M290.19,309.75c-4.6,12.27-11.15,22.9-23.66,28.7-3.29-.91-3.37-3.57-3.41-6.27.44-5.8,2.58-9.72,8.97-11.43,5.28-1.39,8.38-7.9,7.18-12.86-1.31-5.44-5.28-7.46-10.52-7.62-5.2-.12-9.45-2.26-13.02-6.03-3.69-3.85-7.42-7.62-10.64-11.91-9.96-13.26-17.7-15.28-32.95-8.77-4.17,2.5-8.42,4.92-10.92,9.41-3.29,5.91-5.72,12.19-6.75,18.89-.24,1.59-.28,3.29-1.94,4.25-5.76-6.35-6.75-14.25-7.38-22.31,2.18-14.65,8.85-25.4,24.61-28.3,1.59-.28,2.38-1.43,3.33-2.5,11.79-13.81,26.99-17.31,43.94-13.3,16.83,4.01,26.99,15.48,32.07,31.68,3.97,12.66,2.78,25.52,1.11,38.38h-.04Z"/>
        <path class="cls-167" d="M338.18,371.71c.08-8.61.16-17.23.24-25.84,5.36-1.15,10.84-.4,16.23-.6,1.98-.08,3.61.44,4.01,2.7.91,1.51,1.23,3.14,1.23,4.88.12,2.1.83,4.09,1.11,6.15,0,4.45,1.39,9.09-1.71,13.18-7.07,1.63-14.13,2.66-21.08-.44l-.04-.04Z"/>
        <path class="cls-70" d="M358.58,353.09c0-1.71,0-3.41.08-5.12,9.09.32,13.1,7.07,17.23,13.65,1.23,5.91.99,11.75-.4,17.62-1.71,7.3-6.35,11.63-13.54,13.3-8.65,3.1-17.31,3.22-25.96-.04v-3.29c1.71-2.3,4.25-1.95,6.63-2.02,5.83-.24,11.71.44,17.5-.48,7.3-2.1,8.81-10.24,8.38-17.27-.16-2.62-.91-5.24-1.59-7.78-.71-4.84-5.72-5.52-8.34-8.49v-.08Z"/>
        <path class="cls-22" d="M401.45,440.58c1.67,1.67,1.11,3.81,1.11,5.8,0,14.49-.12,28.98-.2,43.46-4.09.08-8.22.28-12.31.28H36.31c-2.86,0-5.76-.24-8.61-.32-.08-14.49-.16-28.94-.2-43.42,0-1.59-.32-3.29.95-4.64,2.54,4.84,6.71,5.64,11.83,5.64,116.34-.08,232.72-.12,349.07,0,5.76,0,9.92-1.23,12.11-6.79Z"/>
        <path class="cls-31" d="M161.1,436.21c33.7-.12,67.44,0,101.14-.08,3.89,0,7.82,0,11.67-.64,5.52-.28,11.11-1.91,16.31,1.43,15.24.6,30.48.67,45.73.04,8.97-3.18,17.94-3.22,26.91,0,9.17.16,18.3.24,27.47.48,3.89.12,8.3-1.19,11.07,3.1-.05,5.77-2.91,8.65-8.57,8.65-118.8,0-237.61-.08-356.41.12-6.11,0-8.85-1.39-7.98-7.66,1.39-4.88,5.56-4.25,9.09-4.25,12.94,0,25.88.24,38.86.4"/>
        <path class="cls-47" d="M211.28,272.71c12.11-7.42,23.46-5.6,32.59,5.4,4.45,5.36,8.38,11.11,13.58,15.84,3.18,2.86,6.55,4.6,10.96,4.64,7.62.08,11.55,3.06,12.66,8.97,1.07,5.83-2.38,13.61-8.34,14.77-6.11,1.19-7.26,4.84-8.3,9.41-.04.24,0,.56-.24.67-9.96,4.96-10.56,4.56-26.08,13.1-3.37,3.06-19.45.12-23.34-1.07-11.39-2.62-18.42-21.04-22.19-37.91-.04-.24-.08-.52-.08-.79.48-8.3,2.46-16.08,7.14-22.98.67-.95,1.91-1.43,3.02-1.07.83.28,1.63.64,2.46.64,2.38-.4,5.52.91,6.31-2.9-2.54-2.14-3.45-4.37-.24-6.71h.08Z"/>
        <path class="cls-176" d="M268.16,350.63c15.92,7.11,21.91,20.92,24.53,36.84.64,3.81.83,7.66,1.07,11.51.16,2.26-.12,4.53-2.42,5.83-.52.48-1.07.79-1.71,1.03-5.76.04-11.43-.79-17.03-1.95-2.94-.6-4.92.08-6.79,2.7-8.42,11.91-23.1,15.68-37.47,9.84-3.14-3.53-3.25-8.22-4.76-12.38-.75-2.1-1.07-4.33-1.71-6.47-5.2-17.35-2.26-14.25-18.89-14.45-5.4-.75-11.15,1.63-16.27-1.79,2.7-6.63,8.42-10.76,13.46-15.2,9.45-8.3,20.05-14.65,33.3-14.57.52.4.87.87,1.11,1.47.71,6.31,4.45,10.4,10.4,11.43,6.83,1.19,13.81,1.71,19.81-3.65,3.25-2.94,1.03-7.18,3.37-10.16v-.04Z"/>
        <path class="cls-141" d="M203.89,381.32c17.35-.79,14.89-1.43,18.7,12.82,1.94,7.3,4.05,14.57,6.11,21.83,3.06,2.62,3.37,6.39,4.05,9.92.71,3.85,2.82,5.52,6.71,5.52,6.51,0,12.98-.12,19.49,0,3.81.12,7.66-.24,11.47.16,2.98.32,5.76,1.31,4.05,5.4-1.11,1.87-2.94,1.11-4.45,1.11-36.4,0-72.8-.08-109.2-.16-2.74-1.03-3.02-3.73-3.97-5.95-1.27-4.45-3.61-8.73-2.34-13.61-.48-7.82-3.61-15.04-5.2-22.63-2.82-13.42-2.26-14.45,11.39-14.37,1.63,0,3.29.08,4.92.08.44.4.6.83.48,1.39-1.11,1.87-.79,4.13-1.67,6.07-2.46,2.94-7.14-.64-9.25,3.22,2.38,11.07,5.52,21.91,8.53,32.79,1.31,4.68,3.97,6.63,8.89,6.59,15.4-.16,30.8,0,46.2-.08,5.99,0,6.39-.64,5.04-6.51-2.66-11.59-6.59-22.86-9.01-34.53-.24-1.35,0-2.86-1.23-3.89-2.7-1.67-6.11-1.15-8.77-2.94-.71-.6-1.31-1.19-.83-2.22h-.12Z"/>
        <path class="cls-122" d="M117.4,424.5c3.73-4.09,7.7-7.03,13.46-5.36,7.94,0,15.64-.56,23.62-.71,1.19,4.49,2.38,8.97,3.61,13.46-9.57,4.21-20.76,3.93-31.04,4.96-5.68.87-14.13-5.72-9.65-12.31v-.04Z"/>
        <path class="cls-104" d="M233.74,353.01c-.08-.48-.16-.95-.24-1.43.12-2.38,3.25-2.98,3.37-5.4,10.08-4.56,14.96-9.41,27.47-14.09.6,2.14.24,4.64,2.22,6.35-1.67,4.13-.32,8.14.44,12.15-6.59,9.25-26.4,10.68-33.26,2.42Z"/>
        <path class="cls-111" d="M203.89,381.32c.48.52.95.99,1.43,1.51,1.15,2.86.4,4.13-2.82,3.37-10.88.36-21.55-3.45-32.55-1.55-1.79.32-3.77.16-4.41-2.22v-.95c7.07-.04,14.09-.08,21.16-.16h17.19,0Z"/>
        <path class="cls-208" d="M335.99,392.47c8.65,0,17.31,0,25.96.04.36,7.98.71,15.96,1.03,23.94.08,2.22.36,4.56-1.15,6.51-8.57,3.93-17.19,3.45-25.84.2v-30.72.04Z"/>
        <path class="cls-86" d="M335.96,423.19c8.61-.08,17.23-.12,25.84-.2,2.26,4.53.91,9.33,1.11,14.01-8.97.48-17.94.48-26.91,0v-13.81h-.04Z"/>
        <path class="cls-154" d="M274.43,437.01c-.08-2.98-1.47-4.21-4.53-4.01-3.77.24-7.58.12-11.35.12-.56-2.58,1.71-2.42,2.98-2.66,12.98-2.66,21.55-10.28,26-22.67.44-1.19,1.31-2.06,2.3-2.78.52-.08.99-.12,1.51-.2.24,10.72.08,21.43-1.07,32.11-5.28,0-10.56.04-15.84.08Z"/>
        <path class="cls-71" d="M233.74,353.01c11.63,6.67,22.59,4.17,33.26-2.42h1.15c1.43,10.16-2.7,15.28-13.14,16.04-5.36.4-10.8.64-15.48-2.62-3.81-2.62-7.38-5.52-5.8-11.03v.04Z"/>
        <path class="cls-79" d="M336.11,382.71c-.16-1.51-.32-3.02,1.23-4.05,7.7-1.71,15.36-3.29,23.3-1.47,2.18,2.62,1.95,5.52.91,8.49-.75,1.39-2.02,1.67-3.49,1.51-.6-.16-1.07-.52-1.47-.99-3.77-4.21-8.69-1.07-12.98-1.95-2.58-.12-5.28.4-7.46-1.59l-.04.04Z"/>
        <path class="cls-170" d="M338.18,371.71c7.07-.16,14.13-.32,21.2-.44,2.74.83,2.38,2.54,1.19,4.45-5.83.91-11.63,2.26-17.58,2.02-1.98-.08-4.17.4-5.72-1.51,0-1.55-.56-3.22.87-4.45l.04-.08Z"/>
        <path class="cls-209" d="M356.79,386.24c1.35,0,2.7,0,4.05.04.87-.08,1.39.16.99,1.15-2.66,3.02-6.15,1.31-9.21,1.51-5.52.32-11.07.16-16.63.16,0-.95,0-1.91.04-2.86,6.91-2.62,13.81-2.58,20.76,0h0Z"/>
        <path class="cls-87" d="M337.3,376.16c7.74.64,15.44-.79,23.14-.91.79.79.79,1.59,0,2.38-7.7.48-15.4,1.51-23.14,1.03,0-.83,0-1.67,0-2.5Z"/>
        <path class="cls-103" d="M356.79,386.24h-20.76c0-1.19.04-2.38.08-3.57,2.82,0,5.68.04,8.49.08-.44,2.82-2.7,1.15-4.05,1.71,5.48.32,11.11-2.34,16.47.75-.08.36-.16.67-.28,1.03h.04Z"/>
        <path class="cls-93" d="M203.89,283.91c-1.11-.79-2.22-1.59-3.33-2.38,2.42-4.33,6.39-6.79,10.72-8.81-2.38,3.33-.28,4.8,2.5,6.03-2.78,2.7-7.42,1.87-9.88,5.16Z"/>
        <path class="cls-27" d="M360.45,377.62v-2.38c.12-1.47.24-2.94-1.07-4.01.08-4.41.2-8.85.28-13.26,3.69-2.54,6.03-.48,8.14,2.34,3.25,6.55,2.82,13.38,1.15,20.16-.91,3.61-3.57,5.8-7.11,6.95-.32-.4-.67-.79-.99-1.15-.12-2.9-.24-5.76-.4-8.65h0Z"/>
        <path class="cls-105" d="M367.79,360.32c-2.54-1.39-5.08-2.78-8.14-2.34-.91-1.51-1.55-3.06-1.11-4.88,4.45.67,7.98,2.54,9.25,7.22h0Z"/>
        <path class="cls-136" d="M265.62,310.74c.08-3.53-.48-6.99,4.17-7.07,4.05-.08,5.48,2.7,5.36,5.87-.16,3.57-2.7,5.95-6.31,6.27-4.68.44-2.5-3.53-3.22-5.08Z"/>
        <path class="cls-48" d="M213.82,301.41c0,2.38-.44,4.72-3.49,4.6-2.7-.12-2.94-2.34-2.9-4.53.08-2.3.24-5,3.14-5.04,2.86,0,3.25,2.54,3.22,4.96h.04Z"/>
        <path class="cls-132" d="M238.94,302.37c2.74.12,3.25,1.98,3.33,4.21.08,2.54-.64,4.6-3.49,4.8-2.78.2-3.41-2.02-3.41-4.09,0-2.26.64-4.53,3.53-4.92h.04Z"/>
        <path class="cls-159" d="M203.89,283.91c1.19-5.76,5.76-5.04,9.88-5.16,1.94,1.79.71,3.06-.95,3.61-2.9.91-5.8,2.14-8.93,1.59v-.04Z"/>
        <path class="cls-137" d="M248.55,295.1c-3.45-2.5-5.76-4.09-7.98-5.8-.91-.67-2.3-1.39-1.39-2.86.99-1.67,2.34-1.07,3.69-.32,2.9,1.63,5.36,3.49,5.68,8.97h0Z"/>
        <path class="cls-195" d="M219.02,318.96c2.34-1.43,4.41-.32,7.18,0-2.54,1.53-4.94,1.53-7.18,0Z"/>
        <path class="cls-200" d="M224.81,312.41c-.28,1.07-1.03,1.95-2.34,2.14-1.11.16-1.43-.75-1.31-1.51.24-1.43.95-2.74,2.66-2.62.91.04,1.11.95.99,1.98h0Z"/>
        <path class="cls-205" d="M289.87,405.01c-3.97,15.28-13.58,24.41-29.21,27.07-.71.12-1.39.67-2.06,1.03-6.99.08-13.97-.16-20.92.28-4.37.28-5.72-1.87-6.39-5.48-.75-4.01-1.67-7.98-2.54-11.99,6.91,1.03,13.77,1.39,20.76.36,7.34-1.07,12.74-4.45,15.32-11.43,1.27-3.49,2.98-3.97,6.47-3.14,6.11,1.47,12.42,2.22,18.66,3.25l-.08.04Z"/>
        <path class="cls-191" d="M216.12,389.1c3.85,14.53,7.7,29.1,11.71,44.18-20.52,0-40.37-.08-60.26.08-3.45,0-3.93-2.1-4.56-4.53-3.14-11.63-6.27-23.26-9.45-34.89-.32-1.15-.2-2.5-1.35-3.29,6.15-2.1,12.62-1.83,18.93-2.18,13.89-.75,27.83.48,41.72-.64,1.27-.12,2.42.28,3.29,1.31l-.04-.04Z"/>
        <path class="cls-76" d="M165.59,382.43c3.41,1.75,6.91.36,10.36.4,6.19.04,12.5-1.43,18.3,1.98.91-2.7,3.33.36,4.88-1.35,1.67-1.83,2.66.36,3.49,1.67.67,1.11.75,2.14-.32,3.06-12.7.99-25.4,1.35-38.07-.4-2.22-2.42-1.23-4.05,1.27-5.28l.08-.08Z"/>
        <path class="cls-155" d="M164.32,387.75c12.74-.12,25.52-.24,38.26-.36,3.89-1.83,8.26-1.11,12.31-2.22,1.75.91,1.35,2.46,1.23,3.93-18.89.24-37.79.44-56.68.71-2.42,0-4.96-.6-7.22.79,1.15-2.98,3.73-1.55,5.76-1.87,2.1-.36,4.45.71,6.35-1.03v.04Z"/>
        <path class="cls-202" d="M214.89,385.17c-.52,4.01-3.61,2.14-5.68,2.34-2.18.2-4.41-.08-6.63-.16,0-.75.08-1.55.12-2.3,2.94,1.63,2.26-.91,2.66-2.26,3.06,1.27,6.67.32,9.53,2.34v.04Z"/>
        <path class="cls-50" d="M359.22,413.63c.87,5-1.51,6.75-6.59,6.31-3.22-.28-5-.4-5.28-4.68-.44-6.39,1.63-8.38,7.82-8.18,5.12.16,4.29,3.14,4.05,6.55Z"/>
        <path class="cls-210" d="M357.03,385.21h-19.49c2.7-2.26,5.44-.48,7.03-2.42,4.09-.08,8.18-.16,12.27-.2.95,0,2.22,0,2.06,1.47-.08,1.07-1.19.91-1.91,1.15h.04Z"/>
        <path class="cls-72" d="M194.17,411.32c-.16,4.33-2.46,6.35-6.19,6.23-4.01-.08-6.31-2.5-6.39-6.63-.04-4.29,2.38-6.43,6.47-6.23,4.17.2,5.87,3.02,6.11,6.59v.04Z"/>
      </g>
      <g class="cls-217">
        <text class="cls-218" transform="translate(98.15 247.23)"><tspan x="0" y="0">10!!</tspan></text>
      </g>
      <g>
        <path class="cls-171" d="M189.8,168.56c-4.68.44-8.57.79-9.05-5.72-.28-3.57-4.25-5.95-6.55-8.85-6.51-8.34-5.87-19.53,1.59-25.88,7.86-6.71,22.94-5.8,29.85,1.75,6.91,7.54,6.11,18.7-1.98,26.16-1.87,1.71-4.13,3.33-4.33,5.83-.52,6.55-4.33,7.74-9.53,6.71Z"/>
        <path class="cls-4" d="M181.98,172.96c4.76-1.67,9.8-.79,14.77-.95.36,0,.95.56.99.91.2,1.27-.91,1.39-1.71,1.43-4.68.08-9.33,0-14.01,0,0-.48,0-.95-.04-1.43v.04Z"/>
        <path class="cls-189" d="M197.15,186.1h-14.57c0-.36,0-.75-.04-1.11h14.65c0,.36,0,.75-.04,1.11Z"/>
        <path class="cls-33" d="M197.34,179.95c-4.6,1.19-9.37.52-14.05.56-.28,0-.83-.67-.83-1.07-.04-1.27.99-1.19,1.83-1.19h12.98v1.71h.08Z"/>
        <path class="cls-44" d="M182.62,191.3c3.33-2.1,6.75-.99,10.16-.28-3.33,1.43-6.75,1.39-10.16.28Z"/>
        <path class="cls-53" d="M200.8,147.24c-.2,1.27-.2,2.58-.64,3.69-.75,1.91-.71,4.88-3.02,5.2-2.26.32-2.18-2.78-3.33-4.21-.56-.67-.87-1.55-1.39-2.26-.79-1.07-1.03-2.98-2.78-2.86-1.63.12-1.91,1.87-2.58,3.06-1.23,2.1-.99,6.23-4.49,5.44-2.82-.67-3.29-4.41-3.77-7.11-.64-3.73,1.47-6.95,3.61-9.65,1.63-2.06,3.45,0,4.84,1.35,1.19,1.15,1.98,3.1,4.21,1.11,4.33-3.81,6.91-3.02,8.73,2.58.36,1.15.4,2.42.6,3.65Z"/>
      </g>
      <g>
        <path class="cls-100" d="M823.59,384.53c-2.14.95-4.45.75-6.71.75h-51.64c-2.5,1.59-5.04,1.55-7.58.16-16.71-.04-33.38-.08-50.09-.16-1.59,0-3.22,0-4.8-.08-4.45-.28-5.95-1.75-5.99-6.19-.08-7.74.32-15.48-.16-23.18-.75-12.31-.28-24.57-.4-36.84-.12-10.56,0-21.12,0-31.68,1.07-2.58.52-5.24.52-7.86.12-12.38.08-12.38,12.27-12.38h48.74c2.7-1.51,5.36-1.55,8.06-.04,17.11,0,34.22,0,51.28.04,6.11,0,7.14.95,7.78,7.07.12,1.07.12,2.14.12,3.22,0,33.54,0,67.12.08,100.66,0,2.34-.2,4.53-1.47,6.51h0Z"/>
        <path class="cls-3" d="M757.66,385.44c2.5-.64,5.04-.28,7.58-.16v57c-.32,2.02-1.71,3.02-3.57,3.06-2.02.08-3.49-.99-4.01-3.1v-56.8h0Z"/>
        <path class="cls-190" d="M765.8,267.04c-2.7.44-5.4.48-8.06.04,0-1.59.04-3.18.08-4.72.04-2.5,1.31-3.93,3.85-4.05,2.42-.08,3.57,1.51,3.93,3.61.28,1.67.16,3.41.2,5.12h0Z"/>
        <path class="cls-148" d="M761.08,381.91c-18.7,0-37.39-.08-56.13.08-3.77,0-5.16-.99-5.12-4.92.16-33.94.16-67.84.08-101.77,0-3.77,1.27-4.76,4.88-4.72,36.04.12,72.12.04,108.17.08,8.42,0,8.42.04,8.42,8.42,0,32.63-.04,65.22.12,97.85,0,3.93-.87,5.24-5.08,5.2-18.42-.24-36.88-.12-55.29-.12h0l-.04-.08Z"/>
        <path class="cls-98" d="M760.36,330.67c-2.66-2.46-.52-5.44-.87-8.18,2.02,1.15,4.09,1.87,6.31.48.71-.24,1.43-.44,1.55-.4-.28,0-1.19.16-2.06.36-1.79,0-3.65.32-5.04-1.27.79-.99.79-1.98,0-2.94,1.11-1.59,3.53-1.23,4.53-3.02.12-.24.44-.32.67-.32.71,0,.99-.2,1.03-.71l2.58-.08c.79,2.86,2.66,3.57,5.32,2.58.83-.32,1.63-.79,2.58-.56,2.62,1.15,5.36.2,8.02.44,1.23-.2,2.22-1.47,3.65-.52-1.67-2.02-2.58-.2-3.73.56-1.67-.24-1.43-1.51-1.47-2.66.83-1.35,2.1-1.55,3.49-1.39,4.72.48,9.45.95,14.17,1.43-2.06,2.42-5.36.16-7.9,2.1,2.82,1.79,6.23.28,8.69,2.14.52,1.07,1.07,2.14,1.59,3.22.52.95.6,1.67-.87,1.55h.08c-1.91-.91-3.97.4-5.87-.6,1.07.75,2.62.2,3.41,1.51.28.44.52.87.79,1.27-1.27,1.87-3.29,1.98-5.16,1.79-1.83-.16-3.61,0-5.44,0-.48-.28-.95-.56-1.47-.83-.75-.36-1.19-.91-.83-1.79.91-1.15,1.79-2.26-.71-2.42-.91-.04-1.79-.28-2.7-.32-3.14.64-6.23-.36-9.37-.36-.2,1.31,1.75,2.18.64,3.61-1.95,1.07-5.04.2-5.8,3.37-2.94,2.54-6.43,2.3-9.92,1.95h.12Z"/>
        <path class="cls-35" d="M708.08,329.83c-3.25-2.74-3.22-3.93.6-5.4,1.79-.67,2.46-1.59,2.74-3.37.28-1.67.91-3.33,1.59-4.92,1.51-3.45,4.09-4.21,7.78-3.49,3.89.75,8.22,1.35,11.79-.24,3.1-1.35,4.45,0,6.07,1.63,1.51,1.55,2.38,3.53,3.06,5.56.75,2.3.83,5,4.41,4.92,1.07,0,1.95,1.35,2.02,2.66.08,1.63-.79,2.46-2.38,2.58-9.96.75-19.97.28-29.93.36-2.58,0-5.12-1.63-7.78-.36l.04.08Z"/>
        <path class="cls-125" d="M743.45,331.42c-.28,2.98-1.95,5.87.4,8.93.99,1.31-.79,2.14-2.14,2.42-4.6-1.15-9.25-.36-13.89-.56-4.37-.16-8.73.2-13.22-.28,2.06,1.55,4.33,1.95,6.71,1.95,5.04,0,10.12.2,15.16-.16,1.07-.08,2.14-.32,3.06.48-.95,1.87-2.42,2.5-4.53,2.46-5.32-.12-10.64-.2-15.92.04-4.6.2-6.43-3.81-9.61-5.68-.48-.28-.32-.95.08-1.39,1.79-1.95,1.07-4.37.79-6.47-.32-2.5.71-2.66,2.54-2.54,2.9.95,1.23,3.61,2.38,5.76-.16-.16,0-.24.08-.6.58-3.63,2.74-5.45,6.47-5.48,2.42,0,4.8-.08,7.22.04,1.47.08,3.02.24,3.69,1.91.75,1.95.4,3.93-.2,5.87-.12.4-.56.64-.95.48-1.19-.52-.91-1.83-1.47-2.74,0,1.19-.2,2.66,1.27,2.82,1.87.2,1.23-1.59,1.63-2.58.71-1.98-.44-5.28,3.49-5.08,2.38,1.75.6,4.37,1.23,7.26,1.15-3.25.24-5.52-.67-7.74,2.26-.71,4.6-2.02,6.39.87h0Z"/>
        <path class="cls-98" d="M799.02,342.69c1.51-.28,3.02-.56,4.53-.83.79.71.08,1.91.87,2.62-3.85-1.19-6.15,2.38-9.41,3.02-.6-.16-.87-.6-1.19-1.07-1.91-1.98-4.45-1.83-6.83-1.75-1.15.04-2.26.6-3.37-.12-.67-.95-1.39-2.14-2.78-1.39-2.26,1.23-1.23,3.33-1.11,5.24.87-.71,1.59-1.75,2.94-1.55,1.03.2,1.71.79,2.02,1.75-.16,1.27.87,2.38.44,3.65-3.22-.56-6.47,1.39-9.69-.04-.48-.99-.32-2.06-.36-3.1,0-1.63.87-3.14.64-4.76-1.23-2.86-3.77-1.03-5.64-1.55h-1.07c-1.43-.04-2.86-.08-4.25.24-.36.08-.71.08-1.07.08-1.43-.12-2.94-.16-4.13-1.19.83-2.14-2.02-4.6.6-6.55,4.49-.91,9.09-.95,13.61-1.63,1.51-.24,2.14.64,2.58,1.83-.28.6-2.5,1.87,0,1.59,2.42-.24,3.77.64,5.04,2.14,1.95,2.26,4.56,1.47,6.95,1.63,1.98.16,3.97,0,5.44,1.67,1.75,0,3.53.4,5.28,0l-.04.08Z"/>
        <path class="cls-124" d="M734.6,373.06c-5.99.04-11.99.08-18.02.16-1.63,0-2.78-.2-3.1-2.18-.87-5.64-1.95-11.27-2.9-16.95-.28-1.75.71-2.5,2.26-2.54,5.99-.16,12.03-.36,18.02-.32,2.5,0,1.31,1.39.44,2.22-1.67,1.59-1.59,2.3.87,2.18.71.44,1.07,1.07,1.07,1.91-.08.4-.16.75-.4,1.11-.83,1.35-.36,3.97-2.54,4.01-2.06,0-1.07-2.62-2.1-3.73-.2-.2-.44-.32-.83-.28-1.15.91-.04,3.25-2.1,3.69-.36.08-.75,0-1.11-.08-1.23-.67-1.39-1.83-1.31-3.06.16-2.06-.95-1.35-1.98-.87-.36.12-.71.2-1.11.2-1.95-.56-4.84,1.15-5.8-2.26.24,3.61,1.19,7.14,1.51,10.76.08,1.23-.12,2.54,1.19,3.29,1.35.32,2.22.08,2.02-1.59.04-.99.44-1.79,1.35-2.26.4-.08.75,0,1.11.12.79.52,1.15,1.39,1.59,2.58.56-2.62,1.87-3.37,4.05-2.54,2.02.79,1.23,1.83.12,3.1,1.91-.52,1.23-2.82,2.82-3.22,2.22.28,1.19,2.74,2.54,3.61.91.56,2.1.48,2.98,1.15.64.91.04,1.35-.67,1.79h.04Z"/>
        <path class="cls-20" d="M776.32,324.95c-1.07-.95-2.54-2.14-1.63-3.53.56-.87,2.46-1.15,3.69-.56,2.34,1.15,4.68-.16,7.03.28-.36,2.34,2.7,1.79,3.02,3.57.24.64.48,1.27.75,1.91-1.47.99-.2,2.94-1.39,4.05-.71-.6-.99-1.98-2.42-1.23-1.95,1.03-4.05,1.43-6.23,1.47.67.28,1.55-.24,2.06.6-.12.71,1.71.4.79,1.51-4.09,1.19-8.26,1.35-12.42.79-.99-.12-1.79.16-2.7.28-1.55.24-3.77.95-4.05-1.11-.32-2.3,2.1-2.22,3.77-2.34,1.75-.12,3.45-.24,5.16-.48.52-.67,3.41,1.87,1.95-1.63-.83-1.98,2.38-1.91,2.66-3.61l-.04.04Z"/>
        <path class="cls-128" d="M736.98,331.42c-1.59-.12-2.46.4-2.5,2.22-.04,1.43-.44,2.9-.71,4.33-.4,1.98-2.06,1.63-3.18,1.35-2.7-.71-1.19-3.06-1.51-4.68-.16-.83-.24-2.02,1.11-2.14.79-.08,1.15.6,1.15,1.35,0,1.31,0,2.62.16,3.93,1.39-6.07,1.27-6.27-4.56-6.23-1.19,0-2.42.16-3.61,0-4.25-.67-7.38-.12-7.03,5.32.04.83.24,2.5-1.31,2.46-1.87-.04-1.11-1.75-1.31-2.82-.36-1.91.75-4.01-.75-5.76-1.39-1.47-3.22-.56-4.8-.83.79-.99,1.91-.79,2.94-.79h31.83c1.03,0,2.14-.24,2.9.83-.79.52-1.55,1.07-2.34,1.59-2.18-1.19-4.33-1.15-6.51,0h0l.04-.12Z"/>
        <path class="cls-216" d="M761.04,357.1h47.83c-.95,2.18-2.46,1.75-3.73,1.75-14.05,0-28.06,0-42.12-.08-2.18,0-3.81.28-5.64,1.98-2.14,2.06-5.2,3.14-7.98,4.72-1.07-2.78-.95-4.56,2.34-4.8.91-.08,1.87-.32,2.7-.71,1.15-.6,3.37-.24,2.98-2.46-.32-1.91-1.59-3.02-3.69-2.9-1.07.08-2.14,0-3.22-.08,1.23-2.14,3.49-.71,5.12-1.55,2.54.32,3.53,2.74,5.36,4.05l.04.08Z"/>
        <path class="cls-203" d="M756.95,293.04c.34,4.68,2.78,7.03,7.3,7.03h34.77c1.43,0,2.94-.36,4.29.99-18.5.71-36.99,1.03-56.33-.56,3.14-3.14,6.35-5.16,9.92-7.5l.04.04Z"/>
        <path class="cls-151" d="M739.56,344.2c-7.11,1.75-14.33.87-21.51.67-2.5-.08-4.84-1.75-6.43-4.41,9.49,1.19,18.7.28,27.87.64.91,0,3.18-1.11,2.26,1.67-.71.48-1.47.95-2.18,1.43h0Z"/>
        <path class="cls-11" d="M733.17,357.22c-.67-.32-.91-.87-.95-1.59.56-.91,1.11-1.83,1.71-2.7,1.98-2.78,4.17-2.94,6.43-.36,1.59,1.83,2.86,3.89,3.61,6.15.75,2.38,1.03,4.76-2.82,4.05-1.47-.28-1.75.48-1.95,1.71-.32,2.06-.95,4.09-1.27,6.19-.32,2.06-1.43,2.7-3.33,2.34.24-.52.48-1.03.75-1.55-.28-3.1.2-6.11.83-9.09.08-.36.2-.71.32-1.03,1.35-3.33-.87-3.81-3.29-4.13h-.04Z"/>
        <path class="cls-99" d="M771.83,330.71c-1.98,1.51-4.25.79-6.43.83-.87,0-2.06.28-1.91,1.35.16.99,1.15.44,1.95.44,5.48-.2,10.96-.2,16.43-.28-.12,4.72-3.93,1.31-5.64,2.58-3.06-.52-6.03-.24-9.13.08-2.26.24-4.8,1.47-7.11-.24-.6-1.63,2.1-3.06.28-4.8,2.94-2.02,6.87-.16,9.72-2.42,1.03-.36,2.14-.24,2.78.6.83,1.11.99,2.18-1.03,1.87h.08Z"/>
        <path class="cls-181" d="M740.24,292.24c.64,3.61-1.15,4.53-4.25,3.73-2.1-.52-4.09-.08-6.15.16-.87-.6-1.83-1.03-2.9-.95-.6-.08-1.07-.28-1.43-.75-.4-1.03,0-1.87.75-2.54,1.15-.75,2.7-.95,3.57-2.18,1.51.83,2.9,2.3,4.6,0,1.07-1.51,2.46-.24,3.25.67.56.67.6,1.75,1.79,1.75.32-.24.6-.2.79.16l-.04-.04Z"/>
        <path class="cls-39" d="M756.51,353.81c-1.95.36-4.09-.6-5.91.79-.48-.08-1.15.24-1.31-.52-.2-.99.67-1.15,1.23-1.07,4.13.44,3.93-2.26,3.93-5.04,0-12.54,0-25.05.12-37.59,0-1.27-.95-2.98.99-3.81.56,5.32.12,10.64.24,15.96v23.58c0,2.14.16,4.25.83,6.27.12.52.08.99-.12,1.47v-.04Z"/>
        <path class="cls-16" d="M773.02,297.64c-3.18,0-6.39-.04-9.57.12-1.98.12-2.58-.64-2.42-2.54.16-1.75.32-2.5,2.62-1.95,1.95.48,4.05.56,6.07,1.03,2.78-.52,3.85.6,3.25,3.37l.04-.04Z"/>
        <path class="cls-12" d="M790.57,327.41c2.26-3.06,5.4-.36,8.1-1.19.75-.24,1.67-.56,2.54-.64,2.22.32,1.71,2.02,1.55,3.37-.16,1.43-1.43.83-2.22.87-2.5.08-5-.12-7.5.16-2.18.24-2.34-1.03-2.46-2.54v-.04Z"/>
        <path class="cls-135" d="M794.82,292.92c-.6-1.27-3.69-.64-2.58-3.1,1.03-2.18,2.5-1.91,3.85-.12,1.71-1.75,4.21,0,5.95-1.23,1.71-1.19,2.86,0,4.09.67.48.28.91,1.23.44,1.79-.95,1.11-2.46.56-3.69.87-2.42.67-5.16-.99-7.42,1.07-.2.28-.4.28-.6,0l-.04.04Z"/>
        <path class="cls-173" d="M785.01,369.96c-1.47,0-2.54-.04-3.61,0-1.31.08-2.1-.32-1.79-1.79.28-1.27,1.15-1.87,2.34-1.43,2.62.99,5.32.32,7.78,0,2.06-.28,4.05,2.74,6.03.04.16-.2.79.52.79,1.11,0,.91-.2,1.51-1.35,1.35-3.61-.6-7.03,1.27-10.2.71h0Z"/>
        <path class="cls-92" d="M777.11,369.17c-.24.28-.48.56-.71.83-.4.36-.52.95-.99,1.27-1.67.83-3.29,1.63-3.93,3.57-1.55,1.47-1.87-1.39-3.1-.87-1.15-.91-2.26-1.63-3.93-1.35s-3.41.16-4.92-.95c.28-1.19,1.83-.71,2.26-1.71.52-1.15,1.55-1.71,2.46-2.46.16-.04.36-.08.52-.08,2.54,1.67,5.2,1.03,7.9.56,1.59-.04,3.18-.12,4.45,1.15v.04Z"/>
        <path class="cls-142" d="M801.96,318.64c-2.66-.08-5.36-.2-8.02-.2-1.87,0-2.18-1.23-2.26-2.62-.08-1.71,1.35-1.31,2.34-1.35,2.38-.08,4.76-.08,7.14-.08,1.23,1.23.91,2.74.79,4.25h0Z"/>
        <path class="cls-199" d="M709.67,282.28c.16-1.03-.32-2.26.83-3.02,1.63-.44,3.29-.75,5-.87,1.35-.75,2.9-.12,4.33-.95,2.1-1.23,1.95.52,1.87,1.83-.91,1.31-2.06,2.38-3.18,3.53-1.83,1.07-3.77,1.75-5.91,1.23-1.11-.36-2.34-.52-2.98-1.75h.04Z"/>
        <path class="cls-197" d="M726.54,292.2c-.28.71-.56,1.43-.79,2.14-1.11,1.43-2.46,1.51-3.97.75-1.87-.83-3.69-.2-5.52.28-2.18.28-4.41.48-6.59-.16-.99-.79.52-1.59,0-2.38,2.86-2.7,6.51-2.58,9.92-2.3,1.79.16,3.69.36,5.52.67.6.16,1.11.4,1.43.95v.04Z"/>
        <path class="cls-96" d="M724.95,292.16c-5.12-.2-10.24-.87-15.24.75-1.83-2.1-1.71-3.33,1.43-3.29,1.95,0,3.85,0,5.8-.08,2.34-1.11,4.76.12,7.14-.2,1.67.52,1.63,1.59.87,2.82h0Z"/>
        <path class="cls-130" d="M723.6,277.76c3.65.32,7.3-.99,11-.08.64.87.75,1.75-.08,2.58-2.42-.6-4.72.75-7.14.44-1.19.87-2.46,1.19-3.65.12-.99-.91-1.19-1.98-.12-3.06h0Z"/>
        <path class="cls-198" d="M712.93,283.43c2.14.99,3.57-1.59,5.64-1.11,3.69-.64,4.05-.24,3.18,3.37-2.86,1.47-5.83.44-8.77.56-.44-.91-.48-1.87,0-2.82h-.04Z"/>
        <path class="cls-21" d="M792.47,284.66c-2.98-.08-5.95-.2-8.93-.12-.91,0-1.98.71-2.22-.56-.24-1.07.87-1.59,1.75-1.71,3.14-.36,6.27-.95,9.45-.36,1.47.95,1.43,1.91-.04,2.78v-.04Z"/>
        <path class="cls-169" d="M721.74,285.69c.95-3.02-.75-3.53-3.18-3.37.24-1.87,1.35-2.82,3.18-3.06.64-.52,1.23-.99,1.87-1.51-1.07,3.97,2.06,2.54,3.77,2.94.24.91.52,1.79.75,2.7-1.63-.12-2.98.6-4.21,1.55-.71.28-1.43.52-2.14.79l-.04-.04Z"/>
        <path class="cls-32" d="M709.67,295.26c2.02-1.67,4.45.04,6.59-.67,1.15,1.83,4.25,3.65,0,5.44-.83,0-1.71.04-2.54.08-.56-1.03-.87-2.5-2.58-1.35-.71.48-1.43.4-2.1-.12.24-1.11.44-2.22.67-3.33l-.04-.04Z"/>
        <path class="cls-147" d="M777.15,316.18c-1.31,2.22-3.37,2.46-5.72,2.38-2.94-.12-3.73-1.35-2.38-3.97,2.42.24,4.96-.79,7.18.79.83-.36.95.12.87.79h.04Z"/>
        <path class="cls-62" d="M768.22,290.34c1.15-1.39,8.69-2.38,9.33-1.11.52,1.03.6,2.86-1.07,2.66-3.1-.32-6.27,1.07-9.29-.48.16-.56.71-.67,1.03-1.07Z"/>
        <path class="cls-134" d="M777.15,316.18c-.28-.28-.6-.52-.87-.79,2.14-2.1,4.96.32,7.22-.99,1.39.36.52,2.14,1.63,2.62l-.08-.08c-2.7,2.62-7.11,2.22-7.9-.75Z"/>
        <path class="cls-98" d="M766.63,352.34c-3.06,1.71-2.82-2.46-4.76-2.7-1.87.67-1.95-1.03-1.95-1.91,0-2.06,1.75-2.18,3.29-2.5,2.06.16,3.89.67,4.25,3.14,0,1.39-.12,2.74-.83,3.97Z"/>
        <path class="cls-121" d="M721.98,294.43c1.27.99,2.5-.24,3.77-.04.56.04,1.11.12,1.67.16.67.6,1.23,1.27.83,2.26-1.98,1.79,1.35,1.27,1.03,2.42-3.65.99-6.35-2.22-9.72-2.18-.44-2.06,1.27-2.1,2.46-2.62h-.04Z"/>
        <path class="cls-49" d="M759.53,371.71c2.22-.67,4.53.44,6.87-.36,1.83-.6,1.75,1.43,1.95,2.66-2.42,1.51-5.08.67-7.62.75-2.34.04-.87-1.98-1.19-3.06Z"/>
        <path class="cls-194" d="M763.34,345.75c-2.01,1.22-2.49,2.51-1.43,3.89,0,.64.08,1.51-.67,1.71-1.19.28-1.63-.67-1.83-1.59-.64-2.58.16-5.16.08-7.74,1.43-.32,2.74.08,4.05.6.71,1.11.83,2.18-.2,3.14h0Z"/>
        <path class="cls-90" d="M766.51,314.63c.12,1.03.2,2.06.24,2.54-2.46-.28-4.29,1.95-6.51,1.51-.64-2.22-2.22-5.08,2.5-3.69,1.27.36,2.42-.95,3.77-.36h0Z"/>
        <path class="cls-115" d="M721.98,294.43c-.2,1.47-2.38,1.07-2.46,2.62,1.43,3.77-1.15,3.14-3.29,2.98-.16-.24-.28-.44-.44-.67,2.82-1.35-.16-3.22.44-4.76,1.87-.95,3.81-1.07,5.76-.16h0Z"/>
        <path class="cls-216" d="M756.15,353.17c-.24-.6-.71-1.19-.71-1.79,0-9.65.04-19.29.08-28.94.32-.16.52,0,.6.32,0,9.01.04,18.06.08,27.07.67,1.11,1.03,2.22-.08,3.29l.04.04Z"/>
        <path class="cls-52" d="M734.48,280.22c0-.87.08-1.71.08-2.58,3.02-.16,6.51-2.1,8.69,2.7-3.14-1.07-5.83,1.71-8.77-.12Z"/>
        <path class="cls-108" d="M787.47,292.05c-1.83.04-3.69.12-5.52.12-1.15,0-2.5.16-2.42-1.71.08-1.79,1.43-1.79,2.58-1.67,1.55.16,3.1.64,4.6.99.71.64,1.35,1.27.75,2.3v-.04Z"/>
        <path class="cls-60" d="M784.34,374.89c-.32,0-.6.08-.91.12-1.59.16-3.22.36-4.76-.12-1.98-.6-2.78-1.67-.75-3.29,2.18.2,4.56-1.39,6.59.67.64.91.56,1.79-.16,2.62h0Z"/>
        <path class="cls-13" d="M794.78,345.71c.08.6.16,1.19.2,1.79-2.22.24-4.45.52-6.67.75-.2-.12-.36-.28-.56-.4-1.39-2.18-.6-3.41,1.79-3.29,1.75.08,3.81-.56,5.24,1.19v-.04Z"/>
        <path class="cls-10" d="M772.27,368.1c-3.18,2.34-6.59,2.06-7.46-.64,2.54-.36,5.12-1.59,7.5.4v.24h-.04Z"/>
        <path class="cls-114" d="M740.24,292.24c-.28-.04-.52-.12-.79-.16-.83-4.17,2.66-1.87,3.85-2.14,1.43-.32,4.6-.87,4.64,1.07,0,1.79-2.7.79-4.37.87-.99.04-2.3-.36-3.33.36h0Z"/>
        <path class="cls-188" d="M787.63,370.84c3.06-.44,4.56.64,3.89,3.93-1.79.6-3.65,1.03-4.96-.75-.95-1.31-.36-2.46,1.07-3.18Z"/>
        <path class="cls-113" d="M771.48,374.89c-1.75-4.37,2.26-3.06,3.93-4.01,1.79,1.03,1.67,2.46.87,4.05h-4.84l.04-.04Z"/>
        <path class="cls-164" d="M800.37,324.32h-4.72c-.87,0-1.98.28-1.83-1.27.12-1.15.87-1.51,1.95-1.47,2.46.16,4.88.52,7.07,1.87-1.11-.48-1.79.16-2.46.87Z"/>
        <path class="cls-98" d="M756.15,353.17c0-1.11.04-2.18.08-3.29,2.78,1.63,4.09,4.25,4.84,7.22-2.74.6-2.62-2.74-4.53-3.29-.12-.2-.24-.44-.36-.64h-.04Z"/>
        <path class="cls-150" d="M807.56,291.33c-.24-1.19-.52-2.5,1.35-2.34,1.19.08,2.82-.6,3.49.95.95,2.14-2.02,1.51-2.22,2.9.2,1.15-.4,1.91-1.43,1.75-1.03-.12-.71-1.15-.6-1.91.08-.56-.24-.99-.6-1.35h0Z"/>
        <path class="cls-185" d="M723.88,284.9c.44-3.18,1.83-3.69,4.21-1.55.71,1.23.48,2.58-.71,2.94-1.19.36-3.02.67-3.49-1.39Z"/>
        <path class="cls-89" d="M712.93,283.43c.71.91.75,1.87,0,2.82-4.68.4-4.92.12-3.29-3.97,1.15.2,2.34.28,3.25,1.15h.04Z"/>
        <path class="cls-138" d="M765.88,323.28c-2.54,2.86-4.56,1.83-6.39-.79.24-.28.48-.56.71-.83,1.87.36,3.89-.36,5.64.91.2.16.24.32.2.48s-.12.24-.16.24h0Z"/>
        <path class="cls-119" d="M775.44,281.72c.91-.08,1.83-.2,2.74-.24.99-.04,1.47.48,1.47,1.47,0,.64-.2,1.83-.64,1.63-1.95-.87-4.13,1.39-5.91-.52.2-1.39,1.19-1.98,2.38-2.38l-.04.04Z"/>
        <path class="cls-59" d="M785.09,352.3c-.67-.95-2.9-1.55-.79-3.22,1.19-1.11,2.5-1.47,4.05-.83h-.04c0,.67,0,1.27.75,1.59.75.71.6,1.47.16,2.26-1.43-1.03-2.74.4-4.13.2h0Z"/>
        <path class="cls-94" d="M807.56,291.33c.75.12,1.71,0,1.31,1.27-.16.48-.67,1.11-.08,1.35.28.12.91-.75,1.39-1.15.79.83,1.87,1.47,2.18,2.7-5.68,1.31-5.76,1.23-4.8-4.17Z"/>
        <path class="cls-179" d="M787.63,370.84c-1.75,3.65-1.27,4.17,3.89,3.93-2.38,1.47-4.76,1.19-7.18.12.04-.87.12-1.75.16-2.62,1.03-.56,1.75-1.71,3.14-1.43h0Z"/>
        <path class="cls-180" d="M768.22,290.34c-.36.36-.67.71-1.03,1.07h-.79c-1.47-.28-3.18,1.39-4.37-.52-.44-.67.16-1.43.71-1.63,1.98-.64,4.05-1.31,5.48,1.07Z"/>
        <path class="cls-2" d="M794.82,292.92h.6c.79,1.07,1.79,2.78.28,3.29-1.67.56-3.85.12-5.56-.52-.71-.24-.12-1.75,1.11-1.71,1.35,0,2.5-.32,3.57-1.07Z"/>
        <path class="cls-41" d="M810.1,321.74c1.51-.16,2.86-.83,3.18,1.07.2,1.35-1.19,1.91-1.63,1.39-1.27-1.55-3.77,1.47-4.13-.99-.32-2.02,1.39-2.1,2.62-1.43l-.04-.04Z"/>
        <path class="cls-179" d="M776.32,374.89c.24-1.47-.04-2.82-.87-4.05.32-.28.64-.56.95-.83.2.83.83,1.23,1.55,1.59-1.19,2.1-.28,2.98,1.83,3.14,1.23.08,2.46.16,3.69.28-2.38.87-4.76.99-7.14-.12h0Z"/>
        <path class="cls-56" d="M766.63,352.34c-1.11-1.07-.12-2.14.04-3.22.64-.95,1.75-1.98,2.38-.64.83,1.79,1.87-.24,2.54.56.2.36.16.67-.04.99-.24,3.73-3.33,1.39-4.92,2.3Z"/>
        <path class="cls-10" d="M764.25,367.54c.04,1.67-.91,2.38-2.46,2.46-1.75-.12-2.66-1.59-1.83-2.66,1.03-1.35,2.86-.48,4.29.16v.04Z"/>
        <path class="cls-98" d="M756.15,322.81s-.4-.2-.6-.32v-15.96c1.47,5.36.4,10.84.6,16.27Z"/>
        <path class="cls-55" d="M773.02,297.64c-.67-1.51-.79-3.57-3.25-3.37,1.63-1.31,3.02-.4,4.41.44.87.56,2.18,1.19,1.71,2.38-.48,1.19-1.87.56-2.86.56h0Z"/>
        <path class="cls-38" d="M781.12,331.5c-.79-.04-1.59,0-2.34-.16-.79-.12-1.15-.79-.83-1.43.64-1.19.91.36,1.35.28,2.06-.32,3.85-1.71,6.03-1.43-.08.6-.87,1.15-.16,1.87-1.07,1.59-2.7.52-4.05.87h0Z"/>
        <path class="cls-168" d="M771.55,350.04c-.08-.24-.16-.52-.2-.75,1.35-1.51,2.78-1.27,4.25-.24.71,1.11.95,2.22-.2,3.22-1.83.24-3.29-.24-3.85-2.22Z"/>
        <path class="cls-57" d="M724.95,292.16c0-.99,0-2.02-1.07-2.58-.12-.32,0-.56.24-.71,1.87.32,3.65,1.35,5.64.83.56,2.9-1.83,2.1-3.22,2.5-.52,0-1.07,0-1.59-.04h0Z"/>
        <path class="cls-8" d="M772.27,368.1l.04-.24c1.23-1.83,3.25-1.15,4.72-.95,1.95.24.24,1.47.08,2.26-1.71.08-3.45.36-4.84-1.07Z"/>
        <path class="cls-204" d="M792.47,284.66c.99-.91,1.11-1.83.04-2.78,1.03-.08,2.1-1.55,3.06-.08.36.6.56,1.63.28,2.18-.75,1.59-2.26.32-3.41.64l.04.04Z"/>
        <path class="cls-17" d="M775.44,281.72c-.79.79-1.59,1.59-2.38,2.38-2.42,1.31-3.29,0-3.73-2.38h6.11Z"/>
        <path class="cls-126" d="M787.47,292.05c-.24-.75-.52-1.55-.75-2.3,1.11-1.51,2.66-.04,4.05-.48,1.15-.36.83,1.31.12,1.91-.95.75-2.14.99-3.41.87Z"/>
        <path class="cls-82" d="M709,298.59c.64-.12,1.31-.16,1.91-.44,1.95-.83,3.33-.91,2.78,1.91-1.43-.87-3.97,1.71-4.68-1.47Z"/>
        <path class="cls-153" d="M715.51,278.39c-1.47,1.43-2.94,2.9-5,.87,1.31-2.34,3.06-2.26,5-.87Z"/>
        <path class="cls-64" d="M785.17,330.67c-1.03-.71-.87-1.31.16-1.87,1.83.36-.48-2.38,1.98-1.67.6.75-.08,2.3.4,3.49-.2.28-.4.79-.64.83-.56.12-.79-.2-.95-.87-.2-1.07-.64-.24-.99,0l.04.08Z"/>
        <path class="cls-169" d="M724.12,288.83c-.08.24-.16.48-.24.71h-6.95c2.14-2.86,4.84.08,7.18-.67v-.04Z"/>
        <path class="cls-24" d="M789.22,352.1c-.04-.75-.12-1.51-.16-2.26,1.35-1.03,2.9-.83,3.18.64.44,2.54-2.34.32-3.02,1.63h0Z"/>
        <path class="cls-63" d="M799.02,342.69c-1.79,1.79-3.53,1.55-5.28,0,1.79-1.43,3.53-1.35,5.28,0Z"/>
        <path class="cls-183" d="M804.42,344.48c-1.47-.48-.79-1.67-.87-2.62.4,0,.79-.08,1.15,0,.99.28,2.9-.75,2.78,1.07-.12,2.1-1.75.2-2.58.52-.28.12-.36.67-.52.99l.04.04Z"/>
        <path class="cls-88" d="M728.21,296.81c-.44-.71-1.11-1.31-.83-2.26,2.3-1.75,2.54-.32,2.42,1.59-.52.24-1.07.44-1.59.67h0Z"/>
        <path class="cls-192" d="M763.66,284.66c-.36,0-.75.04-1.11.08-.56-.6-.79-1.39-1.27-2.06-.32-.36-.67-.67-.99-.99,1.03-1.39,2.1-.75,3.18-.08.71.99.4,2.02.2,3.06Z"/>
        <path class="cls-118" d="M763.66,284.66c-.08-1.03-.12-2.02-.2-3.06,3.29.83.2,2.02.2,3.06Z"/>
        <path class="cls-30" d="M760.28,281.69c.52.08,1.03.16,1.55.24.16.16.2.36.2.56s-.04.32-.08.32c-.2.75-.2,1.55-.99,1.98-1.39-.75-.36-2.1-.67-3.1Z"/>
        <path class="cls-206" d="M761.79,282.64c0-.24,0-.44.04-.67,1.95.52.44,1.87.67,2.78l-.28.08-.28-.08c-.79-.67-.56-1.39-.16-2.14v.04Z"/>
        <path class="cls-177" d="M802.71,323.36c.95-.16.71-.95.87-1.55,1.19.44,1.03,1.35.48,2.06-.52.6-1.07.2-1.35-.52Z"/>
        <path class="cls-192" d="M761.79,282.64c.04.71.12,1.43.16,2.14h-.99c.12-.79-.24-1.75.83-2.18v.04Z"/>
        <path class="cls-25" d="M771.83,330.71c2.18-2.74-1.67-1.27-1.75-2.46-.71-2.38.08-3.49,2.66-3.25,1.15.12,2.34,0,3.53-.04,0,.4.16,1.07,0,1.11-3.33,1.43-2.98,2.94.64,4.76-2.22-.6-3.61,1.67-5.12-.12h.04Z"/>
        <path class="cls-67" d="M788.38,324.71c-.36-.12-.67-.28-1.07-.36-1.75-.4-4.6-.12-1.95-3.18,1.15,0,2.26.52,3.49.12,1.43-.44,2.02,0,1.98,1.83-.04,2.18-.95,2.1-2.46,1.63v-.04Z"/>
        <path class="cls-201" d="M785.13,317.01c-.28-2.38,1.47-2.42,3.02-2.46.87,0,1.98-.24,2.22.99.2.95-.16,2.06-.95,2.42-1.63.75-2.98-.4-4.37-1.03l.08.08h0Z"/>
        <path class="cls-158" d="M765.88,323.28v-.71c2.09-.87,4.01-.83,5.76.12-1.91,1.31-3.85.75-5.72.64l-.04-.04Z"/>
        <path class="cls-184" d="M728.53,324.99c-3.97-.28-7.94-.56-11.87-.79-1.19-.08-1.98-.4-2.1-1.79-.16-1.83.56-3.37,1.03-5.04.95-3.18,2.62-.4,3.93-.4,4.41-.04,8.77,0,13.18,0,.4,0,.79-.16,1.19-.16,1.31,0,1.75-3.33,3.37-1.19,1.55,2.02,1.71,4.76,1.27,7.26-.4,2.1-2.38,1.03-3.65,1.47-2.06.71-4.17.67-6.31.67l-.04-.04Z"/>
        <path class="cls-77" d="M726.94,328.21h-17.23c-.75,0-1.83.24-1.95-.83-.12-1.23.99-1.55,1.91-1.47,2.38.16,4.76.71,7.11.64,9.33-.24,18.66.83,27.94-.52.71-.12,1.43-.12,1.59.71.24,1.39-.83,1.47-1.79,1.47h-17.62.04Z"/>
        <path class="cls-128" d="M736.98,331.46c1.31-.08,2.54.04,2.38,1.75-.16,2.14.75,4.49-.87,6.43-.2.24-1.03.24-1.39.08-.79-.4-.91-1.27-.83-2.06.2-2.06.52-4.13.75-6.23h0l-.04.04Z"/>
        <path class="cls-110" d="M727.49,335.35c-.64,1.23.95,3.85-1.47,3.69-1.91-.12-.87-2.62-1.03-4.05-.12-1.11-.4-2.74,1.43-2.66,2.5.12.4,2.06,1.11,3.06l-.04-.04Z"/>
        <path class="cls-95" d="M722.65,335.15c-.52,1.35.83,3.89-1.23,3.93-2.26.08-1.07-2.46-1.27-3.85-.16-1.19-.48-3.02,1.59-2.9,2.18.12.36,1.91.91,2.82h0Z"/>
        <path class="cls-139" d="M775.6,349.05c-1.43.08-2.82.16-4.25.24-.99.4-2.38,3.14-2.7-.6-.08-.83-1.31.16-1.98.44.48-2.7-2.26-2.22-3.33-3.37.08-1.03.16-2.1.2-3.14.2,0,.4.04.6,0,1.59-.12,3.33.95,4.72-.64.32,0,.67-.08.99-.08,1.75,1.87,4.92.12,6.43,2.58,1.55,1.83-.79,3.02-.71,4.6l.04-.04Z"/>
        <path class="cls-148" d="M788.34,348.29c-1.23.83-2.62.91-4.05.83-.32-.83-.91-1.39-1.75-1.67-.83-.99-3.29-.91-2.42-3.02.67-1.67,1.98-1.51,3.18-.28,3.18-.48,6.31-.83,9.53.08.95.28,1.75.36,1.95,1.51-1.23-.24-2.46-.48-3.69-.67-2.7-.44-3.89.44-2.7,3.25l-.04-.04Z"/>
        <path class="cls-146" d="M783.3,344.16c-.95-.08-2.18-1.03-2.78.32-.6,1.39.91,1.19,1.63,1.59.6.32.44.87.44,1.39-2.86-.08-1.67,2.5-2.62,4.17-1.07-2.94-2.78-5.4-.99-8.38,1.11-1.83,3.06-1.71,4.64-1.19,1.43.48.2,1.43-.28,2.1h-.04Z"/>
        <path class="cls-212" d="M776.36,344.48c-1.87.52-3.61-1.95-5.72,0-.48.4-.71-1.55-.71-2.54,1.59,0,3.18-.08,4.76-.12,1.98,0,2.58.87,1.67,2.66Z"/>
        <path class="cls-212" d="M768.89,341.98c-.48.71,1.63,4.29-1.83,1.63-.4-.32-.87-.64-1.19.08-.24.56-.2,1.51-1.11,1.03-.79-.4-.56-1.35-.64-2.1,1.39-1.51,3.14-.52,4.72-.64h.04Z"/>
        <path class="cls-29" d="M737.02,361.91c-.75,3.18-.2,6.55-1.71,9.57-1.27,0-2.5,0-3.77-.04-1.07-.83-.67-1.95-.36-2.86.44-1.35.56-1.35-1.35-1.79-.95.95-.79,2.18-.83,3.33,0,.91-.48,1.47-1.47,1.47-.79,0-1.71,0-1.79-1.07-.04-.71-.71-1.47.16-2.14.4-.32,1.51.24,1.23-.56-.16-.48-1.35-.67-2.1-.79s-1.31.36-1.35,1.11c-.04.48.24,1.03.28,1.55.04.79.16,1.71-.95,1.83-1.43.2-1.43-.83-1.43-1.79,0-1.07.12-2.14-.79-2.94-.56-2.98-.87-5.95-.04-8.93.79-.67.87-2.62,2.34-1.95,1.11.48,1.31,1.95.87,3.1-.4,1.11-.36,1.98.36,2.86.36.67.04,1.55.75,2.18-.4-.67-.75-1.39-.2-2.1.6-.28,1.47-.67,1.19-1.35-.64-1.75-1.63-3.33,1.51-3.49,3.1-.16,2.06,2.02,2.22,3.53.08.52.08,1.03.12,1.98,1.87-1.63.75-4.64,3.25-5.32,1.47,0,3.1-2.1,4.29-.36.99,1.47.95,3.49-.44,5.12-1.03-.2-1.11-1.67-2.5-1.75.16,1.79,1.79,1.07,2.5,1.67v-.08Z"/>
        <path class="cls-29" d="M714.55,367.5c-.2-4.01-1.98-7.9-.99-12.42,1.07,4.09,4.76.91,6.51,2.86.56,2.94.64,5.87.32,8.85-.56.67-1.39,1.23-1.03,2.34-.32.2-.64.24-.99.16-1.19-.75-2.74-.67-3.77-1.79h-.04Z"/>
        <path class="cls-143" d="M729.84,366.79c.16-1.03-1.55-2.54.36-2.98,1.71-.4.91,1.43,1.23,2.26.6,1.67,2.62.91,3.77,2.14-.87,1.51-5.16-.6-3.61,3.22-2.06-.99,0-3.53-1.75-4.64h0Z"/>
        <path class="cls-187" d="M720.35,366.83c-.99-2.94-.99-5.87-.32-8.85.24-.08.44-.12.67-.12.83,2.98,1.11,5.95.04,8.93h-.44l.04.04Z"/>
        <path class="cls-68" d="M714.55,367.5c1.31.44,3.53-1.35,3.85,1.59,0,1.43-1.31,1.75-2.22,2.42-1.98-.75-1.59-2.46-1.63-4.01Z"/>
        <path class="cls-143" d="M724.87,361.91c-.12,2.14,2.22,1.31,3.29,2.82-1.47.28-3.06,1.11-3.93.6-1.39-.79.48-2.26.12-3.53.2,0,.36,0,.56.08l-.04.04Z"/>
        <path class="cls-61" d="M716.18,371.51c.4-1.11,1.23-1.83,2.22-2.42.32,0,.6.04.91.08.53,1.69-.52,2.47-3.14,2.34Z"/>
        <path class="cls-75" d="M737.02,361.91c-1.31.44-2.82,1.63-3.85-.16-.71-1.23.08-2.5,1.31-2.9,3.18-.95.95,2.66,2.5,3.14v-.08h.04Z"/>
        <path class="cls-124" d="M716.1,361.91c-.52-.08-1.31-.12-1.31-.91,0-.87.71-1.31,1.51-1.43.79-.08,1.15.48,1.15,1.19,0,.75-.44,1.15-1.39,1.15h.04Z"/>
      </g>
    </g>
  </g>
</svg>