<?xml version="1.0" encoding="UTF-8"?>
<svg id="Livello_2" data-name="Livello 2" xmlns="http://www.w3.org/2000/svg" viewBox="0 0 805.98 392.83">
  <defs>
    <style>
      .cls-1 {
        fill: #fbfbfa;
      }

      .cls-1, .cls-2, .cls-3, .cls-4, .cls-5, .cls-6, .cls-7, .cls-8, .cls-9, .cls-10, .cls-11, .cls-12, .cls-13, .cls-14, .cls-15, .cls-16, .cls-17, .cls-18, .cls-19, .cls-20, .cls-21, .cls-22, .cls-23, .cls-24, .cls-25 {
        stroke-width: 0px;
      }

      .cls-2 {
        fill: #255463;
      }

      .cls-3, .cls-21 {
        fill: #7b4249;
      }

      .cls-4 {
        fill: #467469;
      }

      .cls-5 {
        fill: #21233c;
      }

      .cls-6 {
        fill: #67acca;
      }

      .cls-7 {
        fill: #f0af95;
      }

      .cls-8 {
        fill: #eec6b0;
      }

      .cls-9 {
        fill: #87bcb1;
      }

      .cls-10 {
        fill: #fdfdfc;
      }

      .cls-11 {
        fill: #c3bb67;
      }

      .cls-12 {
        fill: #83bab0;
      }

      .cls-13 {
        fill: #447f7a;
      }

      .cls-14 {
        fill: #e2e4e4;
      }

      .cls-15 {
        fill: #a59a89;
      }

      .cls-16 {
        fill: #d68d64;
      }

      .cls-17 {
        fill: #2d3f50;
      }

      .cls-18 {
        fill: #f2f4f3;
      }

      .cls-19 {
        fill: #e4817a;
      }

      .cls-20 {
        fill: #d66955;
      }

      .cls-21 {
        opacity: .09;
      }

      .cls-22 {
        fill: #4c302e;
      }

      .cls-23 {
        fill: #e1d8d3;
      }

      .cls-24 {
        fill: #efbd69;
      }

      .cls-25 {
        fill: #427d79;
      }
    </style>
  </defs>
  <g id="illustrazioni">
    <g>
      <path class="cls-24" d="M103.81,44.22C161.27,18.22,212.64-5.03,274.41.95c74.84,7.25,75.27,48.73,150.82,67.99,112.77,28.75,154.99-52.65,241.06-21.02,84.22,30.96,126.37,139.26,134.75,212.63,2.86,25.06,8.34,73.04-11.13,114.97l-719.47,1.24c-16.48-24.21-44.42-79.46-59.34-147.11C.24,180.42-7.18,144.35,11.1,109.73c16.02-30.34,43.05-43.05,92.72-65.52Z"/>
      <rect class="cls-10" x="32.89" y="127.68" width="146.56" height="84.41"/>
      <path class="cls-24" d="M351.79,325.29c-7.48-11.29-16.28-21.67-22.51-33.82-12.51-24.42-18.83-50.7-23.87-77.43-2.97-15.73-4.43-31.73-8.64-47.22-1.74-6.4-4.39-12.4-8.33-17.77-8.56-11.67-24.13-13.66-35.35-4.51-9.59,7.82-14.04,18.56-16.83,30.13-2.97,12.31-7.36,23.92-15.02,34.17-15.83,21.16-37.66,32.14-63.12,36.04-26.72,4.09-53.73,2.76-80.66,2.42,4.35-10.39,7.64-21.35,15.76-29.75,2.19-.27,4.38-.67,6.58-.79,2.59-.14,4.91-.47,5.48-3.59,3.71-.04,7.42-.08,11.12-.12,1.26,1.72,3.07,2.67,5.01,3.29,9.53,3.04,19.31,1.1,28.99,1.29,1.78.03,2.77-1.52,2.69-3.43,7.41,0,14.82,0,22.24-.02,8.15-.02,8.94-.76,8.95-8.73.03-18.94.05-37.89.07-56.83,19.36-7.88,39.55-11.59,60.31-13.77,36.9-3.88,66.17,11.62,93,34.3,10.04,8.49,19.69,17.41,28.15,27.52-3.16,11.81,16.43,28.95,15.29,40.94-5.47,7.02-25.78,9.62-21.57,17.87,2.31,4.52,6,8.24,11.16,6.55,4.51-1.47,5.47.02,6.19,3.63.4,2,.91,3.99,1.59,5.91,4.93,13.75,20.49,24.69,35.23,29.66,4.45,1.5-.5,23.18-1.09,27.31-1.28-.28-7.06-7.99-8.33-8.27-5.05-.19-7.72-10.85-12.28-8.16-12.29,2.33-21.26,8.82-25.79,20.76-.6,1.57-1.07,3.08-2.73,3.82-3.9-3.8-7.79-7.6-11.69-11.4Z"/>
      <path class="cls-25" d="M490.7,361.25c-8.68-10.26-8.08-19.46-1.31-28.64,1.08-1.46,1.76-3.2,2.63-4.81,6.05-10.26,12.1-20.52,18.17-30.77,1.22-2.06,1.35-4.15,1.05-6.51-1.17-9.17-2.07-18.38-3.22-27.55-.48-3.79.3-5.59,4.76-5.46,10.28.28,20.57,0,30.86-.01,2.41,0,5.53-.61,3.79,3.68-.62,1.53-.16,2.16,1.48,2.43,6.72,1.12,5.8,5.95,4.57,10.4-2.4,8.69-5.02,17.32-7.87,25.87-1,2.99-.87,5.18.89,7.9,5.47,8.45,10.25,17.34,15.91,25.66,5.01,7.37,4.8,14.47.92,21.97-.85,1.63-1.69,3.27-2.81,5.43,2.45.14,4.55.27,6.66.39,19.99-.06,39.98-.11,59.97-.17,3.89-.38,7.8-2.27,11.65.17,39.38.03,78.76.04,118.13.11,2.11,0,4.03-.47,5.95-1.21,3.28,2.54,7.04.98,10.55,1.08M351.79,325.29c-2.99.69-5.67-.52-8.41-1.34-11.13-3.33-27.41,1.53-33.03,10.66-3.34,5.42-7.23,7.45-13.53,7.07-8.41-.51-13.81,4.65-16.27,12.86M188.05,314.36c-10.51-2.6-21.22-.32-31.79-1.37-3.13-6.89-8.52-9.81-16.04-9.84-7.74-.03-13.32,2.97-16.69,9.97-7.79.03-15.58.04-23.36.09q-10.06.07-10.91,10.02M540.82,297.93c1.39-4.65,2.55-8.77,3.85-12.85,1.31-4.09,2.9-8.09,4.06-12.21.34-1.19,2.63-3.01-.19-4-2.33-.81-3.79.19-4.54,2.67-2.1,6.83-4.29,13.64-6.63,20.4-1.13,3.27,1.03,4.32,3.45,5.99Z"/>
      <path class="cls-2" d="M638.8,361.23c-.77-5.93,1.8-7.36,7.64-7.31,34.37.28,68.74.12,103.11.03,3.99-.01,8.46.69,10.51-4.29,1.87-8.5,3.25-16.98-1.1-25.21.25-.96-.21-1.4-1.11-1.53l.06.06c-4.37-2.54-9.07-.95-13.64-1.1-3.94-1.73-8.1-.86-12.15-.85-18.52.04-37.04.57-55.56.34-16.68-.2-33.34-.37-50.01.34-2.69.12-5.5.2-6.4,3.59-2.4,3.35-3.2,7.16-3.18,11.19.08,1.48.16,2.95.24,4.43-.05,10.92.6,11.82,9.37,13.09.18,2.35.37,4.7.55,7.05-19.99.06-39.98.11-59.97.17.08-13.98.3-27.96.15-41.94-.04-3.9.86-5.38,5.04-5.17,7.18.36,14.4-.05,21.59.16,3.47.1,4.66-.74,4.14-4.49-1.95-14.24-3.41-28.56-5.44-42.79-.62-4.32.66-5.27,4.67-5.21,14.8.22,29.61.2,44.42.21,2.45,0,4.89-.31,7.34-.47,7.13,1.53,14.33.31,21.5.54,2.94.09,4.21.8,4.75,4.03,2.07,12.35,5.92,34.75,8.26,47.06M635.23,284.78c-2.55.6-3.85,2.11-3.63,4.78.2,2.41,1.5,3.78,3.91,3.72,2.68-.07,4.1-1.69,4.01-4.32-.09-2.64-1.68-3.99-4.29-4.18Z"/>
      <path class="cls-19" d="M740.1,314.21c-15.54-.05-31.07-.11-46.61-.16.83-3.13,1.66-6.26,2.49-9.4,4.48-.54,9-.91,13.44-1.67,3.29-.56,8.2.75,9.42-2.5,1.28-3.43-2.59-6.58-4.86-9.41-1.43-1.79-3.29-4.84-5.87-3.25-2.28,1.4.18,4.09.41,6.23.1.92.98,1.88-.03,2.76-6.56.59-13.09,1.14-18.11,6.13-2.71.03-5.43.06-8.14.09-2.34-12.3-4.84-24.58-6.91-36.93-.54-3.23-1.81-3.94-4.75-4.03-7.17-.23-14.37,1-21.5-.54.92-2.07,1.84-4.13,2.75-6.2,2.39-.04,4.25-1.34,6.08-2.64,3.95-2.81,8.26-4.45,13.16-4.36,2.74,5.55,7.18,8.51,13.37,7.86,5.76-.61,9.08-4.32,10.51-9.82,8.26-.39,14.78,4.16,21.71,7.59,6.04,11.84,12.18,23.62,16.68,36.17,2.82,7.86,7.15,15.31,6.75,24.08Z"/>
      <path class="cls-8" d="M694.96,246.38c-1.44,5.49-4.76,9.21-10.51,9.82-6.2.65-10.63-2.31-13.37-7.86,2.72-4.51,2.11-7.36-3.09-10.07-6.86-3.56-12.35-8.9-12.85-17.5-.08-1.42-1.01-1.57-2.11-1.52,2.6-5.38-.85-10.15-1.54-15.19,1.93-12.81,12.29-19.86,19.79-28.85,1.02-1.22,2.16-.62,3.16.34,10.2,9.85,22.88,15.72,35.3,22.01,2.06,3.33-.31,7.78,3.29,11.09,1.4,1.28-.18,5.48-3.07,5.38-5.42-.19-4.49,2.72-4.04,6.05.3,2.21.12,4.49.15,6.74-1.25,4.91-4.82,8.16-8.91,10.27-4.91,2.54-4.5,5.49-2.2,9.3ZM682.49,225.34c2.73-.41-3.98.16-3.96-2.72.01-1.59-.8-2.37-1.82-1.68-4.12,2.75,2.37-2.98-1.68-.67-2.73.45-3.35,1.29-1.12,2.81,3.75,2.55,4.09,5.23,8.58,2.27ZM665.05,207.27c1.66-.08,2.25-1.37,2.39-2.81.19-1.94-.25-3.84-2.62-3.92-1.77-.06-2.15,1.45-2.16,2.99-.02,1.72.23,3.24,2.4,3.74ZM690.82,206.87c2.22.24,2.93-.86,3.09-2.42.19-1.89.08-3.76-2.41-3.95-1.9-.15-2.24,1.47-2.43,2.81-.24,1.65.1,3.2,1.75,3.56Z"/>
      <path class="cls-2" d="M694.96,246.38c-2.3-3.81-2.71-6.76,2.2-9.3,4.09-2.12,7.65-5.37,8.91-10.27,2.14-4.3,3.85-8.65,7.32-12.42,5.09-5.54,3.05-12.87-3.66-16.83-12.42-6.29-25.1-12.16-35.3-22.01-.99-.96-2.14-1.55-3.16-.34-7.5,8.99-17.85,16.04-19.79,28.85-6.17-11.5-4.77-24.69,4.31-35.43,9.57-11.33,21.61-16.13,36.34-12.01,20,5.59,32.07,24.34,28.83,44.85-1.73,10.93,1.01,21.23,3.66,31.6,1.17,4.57,2.07,9.23,3.44,13.74,1.07,3.53.46,5.39-3.52,5.73-2.65.23-5.25.93-7.88,1.42-6.93-3.43-13.45-7.98-21.71-7.59Z"/>
      <path class="cls-6" d="M575.68,130.28c22.11,0,38.16.11,54.21-.08,4.13-.05,5.76.95,5.73,5.45-.21,26.13-.2,52.27-.05,78.41.02,4.07-1.23,5.21-5.25,5.24-41.35.32-82.71.74-124.06,1.37-5.02.08-6.71-1.2-6.68-6.45.14-25.52-.04-51.04-.32-76.55-.05-4.49.72-6.51,5.95-6.47,25.51.19,51-1.43,70.47-.92ZM589.88,135.23c0,.39,0,.79,0,1.18-26.96,0-53.91.11-80.87-.1-5.01-.04-5.71,2.09-5.63,6.31.44,23.04.78,46.09.88,69.14.02,4.34,1.73,5.11,5.5,4.99,14.19-.44,28.38-.79,42.58-.94,24.29-.26,48.58-.44,72.88-.4,4.73,0,6.47-1.22,6.41-6.25-.25-22.64-.2-45.29-.01-67.94.04-4.49-1.2-6.19-5.92-6.08-11.93.29-23.88.09-35.82.09Z"/>
      <path class="cls-24" d="M64.14,323.69c8.36-.91,16.74-.46,25.12-.45.28,8.79-.57,17.58.93,26.38.63,3.69,1.03,7.79-.88,11.48-8.24.02-16.48.04-24.71.06-.15-12.49-.3-24.98-.45-37.47Z"/>
      <path class="cls-19" d="M116.42,213.05c-3.71.04-7.42.08-11.13.12-4.66-2.44-9.71-1.54-14.54-1.32-9.58.44-19.28-1.41-28.76,1.27-8.81.27-17.62.42-26.42.85-4.5.22-6.51-1.79-6.52-6.07-.04-25.24-.03-50.47-.06-75.71,0-3.95,2.12-5.45,5.85-5.37,6.97.15,13.94.22,20.91.33,0,0,0-.05,0-.05-5.13.07-10.26.25-15.39.15-3.18-.06-4.32,1.2-4.31,4.35.09,24.64.11,49.28.03,73.92-.01,3.31,1.35,4.22,4.41,4.18,13.34-.17,26.69-.2,40.03-.28,3.3.03,6.59.05,9.89.08,2.83.05,5.65.1,8.48.15,4.15,1.01,8.34.61,12.53.45,1.3.13,2.59.27,3.89.4.48.38.96.76,1.43,1.13-.11.47-.22.94-.33,1.4Z"/>
      <path class="cls-19" d="M184.36,148.62c-.02,18.94-.03,37.89-.07,56.83-.01,7.97-.8,8.72-8.95,8.73-7.41.01-14.82.02-22.23.02-6.16-2.06-12.38-.84-18.62-.45-4.22.26-8.94,2.38-12.44-2.07,7.16-1.75,14.69.33,21.78-2.1.29.02.57-.01.84-.1,0,0,0-.07,0-.07.14.74.63.88,1.28.73,9.94-.03,19.88-.06,29.83-.08.29-.24.57-.48.86-.72.12-27.2.24-54.4.36-81.61,0,0-.02.06-.02.06,5.6-1.61,7.34.95,7.16,6.22-.16,4.86.13,9.74.22,14.61Z"/>
      <path class="cls-17" d="M653.02,219.26c1.1-.05,2.03.1,2.11,1.52.49,8.6,5.99,13.93,12.85,17.5,5.2,2.7,5.81,5.55,3.09,10.07-4.9-.1-9.21,1.55-13.16,4.36-1.83,1.3-3.69,2.6-6.08,2.64-2.75-.66-5.51-1.32-8.46-2.02,2.97-11.5,8.5-22.17,9.65-34.05Z"/>
      <path class="cls-1" d="M137.38,157.38c-.43,3.01-2.77,2.45-4.72,2.46-6.11.04-12.22-.02-18.33.05-1.5.02-3.81-.48-3.69,1.92.11,2.29,2.43,1.43,3.89,1.78,3.47.84,7.74-2.19,10.49,2.14-11.13.03-22.25.06-33.38.09-.63-3.73-3.06-3.87-5.96-2.96-3.22,1.01-6.48,1.33-9.52-.31-4.06-2.21-4.5-.03-4.29,3.22-2.48.02-4.95.03-7.43.05.41-2.73.82-5.46,1.24-8.19,23.9-.08,47.79-.17,71.69-.25Z"/>
      <path class="cls-24" d="M442.81,325.21c-.95-4.64-2.3-24.43,2.56-25.75,5.03-1.37,13.76-6.62,19.25-7.18.78,6.27,3.8,12.17,3.06,18.68-.96.85-1.75-.03-2.6-.26-4.84-2.06-8.06,3.01-13.04,2.75-1.24-.05-7.99,11.81-9.23,11.76Z"/>
      <path class="cls-6" d="M55.76,127.11s0,.05,0,.05c1.38-2.51,2.66-4.5,6.34-4.41,12.08.3,24.17.1,36.25.09.82,0,1.64.04,2.45.1,2,.15,3.02,1.46,2.98,3.24-.05,2.24-2.05,1.55-3.28,1.56-11.26.08-22.53.13-33.79.05-3.65-.03-7.38.64-10.96-.69Z"/>
      <path class="cls-6" d="M155.85,127.68h-46.53c.09-3.91,1.85-5.06,5.1-5.05,12.28.05,24.57-.01,36.85-.16,2.9-.03,4.75.8,5.02,3.91-.15.43-.29.86-.44,1.3Z"/>
      <path class="cls-9" d="M62,213.12c9.48-2.68,19.17-.83,28.76-1.27,4.83-.22,9.88-1.12,14.54,1.32-.57,3.12-2.89,3.46-5.48,3.6-2.2.12-4.39.52-6.58.79-8.17-1.98-16.48-.26-24.71-.87-2.71-.2-6,.65-6.52-3.56Z"/>
      <path class="cls-1" d="M133.46,177.08c3.45,2.85-.59,5.87.21,8.79-14.11-.11-28.22-.23-42.33-.34,1.83-3.16,5.07-1.78,7.61-2.06,4.23-.46,8.57-.4,12.82-.05,4.5.37,6.6-1.08,5.84-5.75,5.29-.19,10.57-.39,15.86-.58Z"/>
      <path class="cls-4" d="M137.38,157.38c-23.9.08-47.79.17-71.69.25-2.37-2.81.49-2.29,1.64-2.31,4.94-.09,9.89-.02,14.83.04,18.53.2,37.07.43,55.6.61.77,0,1.54-.41,2.31-.63.13.4.26.79.39,1.19-1.22-.43-2.33-.43-3.08.85Z"/>
      <path class="cls-4" d="M91.64,165.81c11.13-.03,22.25-.06,33.38-.09,1.23,0,2.47,0,3.7.01,7.42.05,14.83.09,22.25.14.19.06.41.09.58.19.28.17.54.38.81.57-3.52,1.25-7.17.46-10.76.66-3.46.2-6.94.22-10.4.32-3.71,0-7.42.02-11.13.03-17.02.12-34.03.29-51.05.29-1.77,0-4.08,1.17-5.33-1.3-.05-.09.13-.34.26-.47.14-.14.33-.23.5-.35,2.48-.02,4.95-.03,7.43-.05,6.59.02,13.18.03,19.77.05Z"/>
      <path class="cls-2" d="M143.83,209.58c-7.09,2.43-14.62.34-21.77,2.1-1.77,0-3.54-.02-5.31-.03-.48-.38-.96-.76-1.43-1.13.02-1.35.04-2.7.07-4.04.39-.09.56-.34.49-.74.58-.16,1.15-.31,1.73-.47,2.88.05,5.77.1,8.65.15.82,0,1.65,0,2.47.01,4.53.04,9.07.07,13.6.11.49.84.98,1.69,1.46,2.53l.04,1.5Z"/>
      <path class="cls-4" d="M91.34,185.52c14.11.11,28.22.23,42.33.34.33,1.1.26,2.22-1.13,2.23-16.02.05-32.04.03-49.29.03,2.98-3.65,5.85-1.84,8.08-2.6Z"/>
      <path class="cls-12" d="M110.24,142.66h49.43c-16.52,2.93-33.11,2.79-49.73,1.83.1-.61.19-1.22.29-1.83Z"/>
      <path class="cls-23" d="M475.67,310.94c1.15.23,2.21,1.11,3.5.26.39.33.78.67,1.17,1-1.06,3.36-2.41,6.68-3.12,10.08-1.43,6.86-5.44,11.11-15.86,11.31-4.01.07-8.12.58-12.22.54.71-1.15,1.43-2.3,2.14-3.45,10.86,2.69,18.99-.18,21.95-7.78,1.52-3.9,2.7-7.85,2.44-11.96Z"/>
      <path class="cls-17" d="M110.24,142.66c-.1.61-.2,1.22-.29,1.83-15.75,0-31.5,0-47.24,0,0-.61,0-1.22-.01-1.83h47.55Z"/>
      <path class="cls-1" d="M150.98,165.88c-7.42-.05-14.83-.09-22.25-.14,2.67-4.37,7.41-1.75,11.07-3.04,2.44-.86,5.71,1.1,8.87.13,1.39-.43,2.18,1.5,2.31,3.05Z"/>
      <path class="cls-4" d="M131.48,195.36h-45.88c0-.21,0-.43,0-.64h45.88c0,.21,0,.43,0,.64Z"/>
      <path class="cls-12" d="M105.21,177.52c-6.52,1.54-13.02.9-19.54-.34,6.41-1.87,12.93-1.48,19.45-1.17.03.5.05,1.01.08,1.51Z"/>
      <path class="cls-17" d="M105.21,177.52c-.03-.5-.05-1.01-.08-1.51,4.1-.11,8.2-.21,12.3-.32,4.59,0,9.18,0,13.77,0,.81.36,1.96.16,2.26,1.38-5.29.19-10.57.39-15.86.58-4.13-.05-8.26-.09-12.39-.14Z"/>
      <path class="cls-1" d="M131.2,175.7c-4.59,0-9.18,0-13.77,0,4-3.2,10.17-3.19,13.77,0Z"/>
      <path class="cls-1" d="M142.33,205.55c-4.53-.04-9.07-.07-13.6-.11,3.51-3.4,10.3-3.35,13.6.11Z"/>
      <path class="cls-1" d="M111.42,210.11c-4.19.16-8.38.56-12.53-.45,4.26-2.23,8.48-3.26,12.53.45Z"/>
      <path class="cls-1" d="M140.45,156.53c-.13-.4-.26-.8-.39-1.19,3.34-.4,6.73-1.15,9.85,1.02-3.17.1-6.22,4.32-9.46.18Z"/>
      <path class="cls-8" d="M155.85,127.68c.15-.43.29-.87.44-1.3,6.86,1,13.94-1.29,20.69,1.4,0,0,.02-.06.03-.06-7.05-.02-14.1-.03-21.15-.05Z"/>
      <path class="cls-1" d="M120.07,167.65c3.71,0,7.42-.02,11.13-.03-3.08,2.51-8,2.52-11.13.03Z"/>
      <path class="cls-1" d="M90.41,209.51c-3.3-.03-6.59-.05-9.89-.08,3.03-3.71,6.99-3.68,9.89.08Z"/>
      <path class="cls-1" d="M126.25,205.42c-2.88-.05-5.77-.1-8.65-.15,2.95-3.39,5.84-3.65,8.65.15Z"/>
      <path class="cls-19" d="M115.87,205.74c.07.41-.1.65-.49.74,0,0,.01-.52.01-.52l.48-.22Z"/>
      <path class="cls-1" d="M143.83,209.58l-.04-1.5c.29.46.59.93.88,1.39-.27.09-.55.13-.84.11Z"/>
      <path class="cls-1" d="M145.96,210.14c-.65.14-1.14,0-1.28-.73.43.25.85.49,1.28.73Z"/>
      <path class="cls-1" d="M176.64,209.34c-.29.24-.57.48-.86.71.21-.34.49-.57.86-.71Z"/>
      <path class="cls-4" d="M363.48,336.69c.81,8.32-2.8,16.25-2.18,24.56-25.11.02-50.21-.01-75.32.13-5.13.03-7.14-1.15-5.44-6.84,2.46-8.22,7.86-13.37,16.27-12.86,6.29.38,10.19-1.64,13.53-7.07,5.62-9.13,21.91-13.99,33.03-10.66,2.74.82,5.43,2.03,8.41,1.34,3.9,3.8,7.8,7.6,11.69,11.4Z"/>
      <path class="cls-19" d="M89.3,361.1c1.92-3.69,1.51-7.79.88-11.48-1.5-8.8-.64-17.59-.93-26.38q.85-9.93,10.91-10.02c7.79-.06,15.58-.06,23.37-.09,10.92,2.35,21.83,2.14,32.72-.13,10.57,1.04,21.29-1.23,31.79,1.37,0,4.14.02,8.28.03,12.42.16,9.65-1.55,19.26-.48,28.93.36,3.22-.29,5.56-4.49,5.55-31.27-.13-62.54-.12-93.81-.15ZM158.42,338.86h.13c0-5.15-.19-10.3.06-15.43.19-3.9-1.03-5.61-5.18-5.5-9.67.26-19.35.32-29.02.17-3.7-.06-4.51,1.53-4.45,4.81.19,10.29.25,20.58.21,30.87-.01,3.84,1.28,5.54,5.43,5.43,8.84-.25,17.71-.32,26.54.06,5.32.22,6.79-1.85,6.35-6.81-.39-4.49-.08-9.05-.08-13.58ZM164.64,335.11s-.06,0-.09,0c0,4.52-.04,9.04.02,13.56.02,1.53-.58,3.63,1.71,4.03,5.06.87,10.18,1.31,15.32.89,1.35-.11,2.37-.98,2.45-2.36.27-4.51.55-9.02-.36-13.5-.26-1.26-.78-2.42-2.27-2.51-1.25-.07-1.42,1.03-1.97,1.91-1.7,2.73-9.17,3.65-11.56,1.65-1.32-1.11-1.21-2.52-1.02-3.94.23-1.68,1.96-3.02,2.9-2.72,3.45,1.11,7.5-.57,10.22,1.03,3.31,1.94,3.49.22,4.04-1.81,2.85-10.53.61-13.49-10.1-13.32-11.31.18-9.14-.64-9.3,9.08-.04,2.67,0,5.34,0,8.01ZM116.35,335.64h.13c0-4.53.01-9.06,0-13.59,0-1.38.45-3.44-1.37-3.62-5.52-.54-11.09-.83-16.59.14-1.63.29-1.79,2.08-1.79,3.56,0,9.06.06,18.12.02,27.18-.01,2.6,1.15,3.45,3.69,3.74,15.25,1.72,15.76,1.34,15.91-13.7.01-1.24,0-2.47,0-3.71Z"/>
      <path class="cls-12" d="M156.26,313c-10.9,2.27-21.8,2.48-32.72.13,3.36-7.01,8.94-10.01,16.68-9.97,7.52.03,12.91,2.95,16.04,9.84Z"/>
      <path class="cls-18" d="M540.82,297.93c-2.42-1.67-4.58-2.72-3.45-5.99,2.34-6.75,4.53-13.56,6.63-20.4.76-2.48,2.22-3.48,4.54-2.67,2.82.99.53,2.81.19,4-1.16,4.12-2.75,8.12-4.06,12.21-1.31,4.08-2.47,8.2-3.85,12.85Z"/>
      <path class="cls-23" d="M394.76,333c-3.31-.45-7.53-3.14-10.83-3.59,0,0,.07.04.07.04-.59-.44-1.17-.87-1.76-1.31,0,0,.1.1.1.1-1.96-.03-3.57-.24-1.74-3.98.89-4.27-3.27-7.78-3.28-11.91,6.13-2.69,12.89-2.68,19.68-2.49,2.62,5.05,1.89,10.36,2.25,15.58,3.1,1.15,1.24,1.48,3.1,2.54-.02.43-1.31,3.41-1.33,3.84-2.14.04-4.12,1.12-6.27,1.16Z"/>
      <path class="cls-9" d="M116.75,211.65c1.77,0,3.55.02,5.31.03,3.5,4.45,8.21,2.33,12.43,2.07,6.24-.38,12.45-1.61,18.62.45.07,1.92-.91,3.47-2.69,3.43-9.67-.19-19.46,1.76-28.99-1.29-1.94-.62-3.75-1.58-5.01-3.29.11-.47.22-.94.33-1.4Z"/>
      <path class="cls-8" d="M695.98,304.65c-.83,3.13-1.66,6.26-2.49,9.4-1.81.06-3.61.23-5.42.16-6.72-.24-8.8-4.26-5.83-11.19,2.71-.03,5.43-.06,8.14-.09,1.87.57,3.73,1.15,5.6,1.72Z"/>
      <path class="cls-18" d="M635.23,284.78c2.6.19,4.2,1.54,4.29,4.18.09,2.63-1.32,4.25-4.01,4.32-2.41.06-3.71-1.31-3.91-3.72-.22-2.67,1.09-4.18,3.63-4.78Z"/>
      <path class="cls-8" d="M757.91,322.98c-4.53-.59-9.22.8-13.64-1.1,4.56.15,9.27-1.44,13.64,1.1Z"/>
      <path class="cls-8" d="M758.59,324.54c-.25-.54-.5-1.08-.74-1.62.9.13,1.35.57,1.11,1.53,0,0-.36.09-.36.09Z"/>
      <path class="cls-23" d="M394.44,324.02c1.15,1.09,1.25,2.52,1.29,3.98-1.3-1.04-1.08-2.58-1.29-3.98Z"/>
      <path class="cls-19" d="M395.66,327.9c.44.44.87.87,1.31,1.31-.44-.44-.87-.87-1.31-1.31Z"/>
      <path class="cls-4" d="M695.98,304.65c-1.87-.57-3.74-1.15-5.6-1.72,5.02-4.99,11.55-5.54,18.12-6.13,1.01-.89.13-1.84.03-2.76-.23-2.13-2.69-4.83-.41-6.23,2.58-1.58,4.44,1.46,5.87,3.25,2.26,2.83,6.14,5.98,4.86,9.41-1.22,3.26-6.13,1.94-9.42,2.5-4.44.76-8.96,1.13-13.44,1.67Z"/>
      <path class="cls-8" d="M709.72,197.56c6.71,3.96,8.75,11.29,3.66,16.83-3.47,3.77-5.18,8.12-7.32,12.42-.03-2.25.16-4.53-.15-6.74-.46-3.32-1.38-6.24,4.04-6.05,2.89.1,4.47-4.1,3.07-5.38-3.6-3.3-1.23-7.75-3.29-11.09Z"/>
      <path class="cls-18" d="M670.26,219.2c4.05-2.31,3.21.11,8.09-.55,1.22-.16,5.25,2.55,5.24,4.14-.02,2.88-1.98.7-4.71,1.1-4.25-.49-6.38.41-8.62-4.69Z"/>
      <path class="cls-17" d="M665.05,207.27c-2.17-.5-2.42-2.02-2.4-3.74.02-1.54.4-3.05,2.16-2.99,2.37.08,2.81,1.98,2.62,3.92-.14,1.44-.73,2.73-2.39,2.81Z"/>
      <path class="cls-19" d="M671.24,220.45c2.24,5.1,9.92,2.73,14.17,3.22,0,3.74-10.91,4.91-15.28.31-1.86-1.96-1.61-3.08,1.11-3.53Z"/>
      <path class="cls-17" d="M690.82,206.87c-1.65-.36-1.98-1.91-1.75-3.56.19-1.34.53-2.96,2.43-2.81,2.49.19,2.6,2.06,2.41,3.95-.16,1.56-.87,2.66-3.09,2.42Z"/>
      <path class="cls-1" d="M589.88,135.23c11.94,0,23.89.19,35.82-.09,4.71-.11,5.95,1.59,5.92,6.08-.19,22.64-.23,45.29.01,67.94.05,5.03-1.68,6.26-6.41,6.25-24.29-.04-48.58.15-72.88.4-14.19.15-28.39.49-42.58.94-3.76.12-5.48-.65-5.5-4.99-.1-23.05-.44-46.1-.88-69.14-.08-4.22.62-6.35,5.63-6.31,26.95.22,53.91.1,80.87.1,0-.39,0-.79,0-1.18ZM577.4,164.51h19.56c0-.24,0-.48,0-.71h-70.62v.71h51.07ZM587.29,150.05h-60.06c0,.36,0,.72,0,1.08h81.29c0-.36-.02-.72-.02-1.08h-21.21ZM608.52,170.66c-5.89-3.43-11.83-6.48-18.74-2.61-8.55,2.04-13.33,6.84-13.18,13.2.18,7.69,5.39,13.4,13.85,14.96,4.07.75,8.15.44,12.28-.18,6.81-1.02,10.8-5.08,12.38-11.33,1.56-6.17-1.64-10.64-6.58-14.04ZM515.62,178.38c-4.32,6.49-.76,13.49-1.2,20.23-.14,2.2,2.2,1.99,3.82,1.99,13.75.03,27.5-.03,41.24.09,3.16.03,4.44-1.01,4.33-4.27-.19-5.55-.06-11.12-.06-16.68-.36-3.63-3.19-2.52-5.2-2.54-14.32-.11-28.65-.29-42.93,1.18Z"/>
      <path class="cls-10" d="M91.64,165.81c-6.59-.02-13.18-.03-19.77-.05-.21-3.26.23-5.43,4.29-3.22,3.03,1.65,6.3,1.32,9.52.31,2.9-.91,5.33-.77,5.96,2.96Z"/>
      <path class="cls-23" d="M451.28,330.68c2.13-6.91,4.9-13.75,4.31-20.97,6.71.26,13.57-.82,20.07,1.24.27,4.11-.91,8.06-2.43,11.96-2.96,7.59-11.09,10.46-21.95,7.78Z"/>
      <path class="cls-18" d="M158.42,338.86c0,4.53-.31,9.08.08,13.58.44,4.97-1.04,7.04-6.35,6.81-8.83-.37-17.7-.3-26.54-.06-4.15.12-5.45-1.59-5.43-5.43.04-10.29-.02-20.58-.21-30.87-.06-3.27.75-4.86,4.45-4.81,9.67.15,19.35.09,29.02-.17,4.15-.11,5.37,1.6,5.18,5.5-.25,5.13-.06,10.29-.06,15.43h-.13ZM129.94,345.22l.12.14c.63,2.01-.98,4.57,1.83,6.45-.03-10.1,8.38-1.01,11.19-5.35-1.39-3.12-4.3-4.86-7.03-6.39-3.27-1.83-8.1-.93-9.77.99-2.74,3.14-1.89,8.3-.6,12.28.93,2.85,4.17,1.8,7.7,1.49-8.15-2.75-8.55-4.32-3.44-9.62ZM144.7,342.83c.7,2.96,2.87,4.24,5.55,5.19,1.54.55,2.87,1.81,2.82,3.63-.04,1.33-1.39,1.24-2.38,1.31-1.7.11-3.76,1.33-4.61-1.38-.3-.95-.33-2.07-2.15-2.39-1.28,1.66-2.71,3.51-4.34,5.62,16.3,1.09,17.04.27,14.13-14.99-.04-.19.03-.41.05-.61,1.28-2.96,1.6-5.87.1-8.58-2.67-.21-3.1,4.59-5.71,2.14-1.95-1.83.53-3.46,1.57-5.01,1.37-.77,3.25-.82,3.88-2.63.19-.55.37-1.26.17-1.74-.37-.9-1.09-.84-2-.46-6.9,2.97-14.18,1.26-21.27,1.33-4.41.04-5.97,1.4-5.45,5.64.2,1.62-.05,3.28,0,4.92.11,3.75,2.25,3.75,4.36,1.84,2.41-2.18,4.68-4.37,7.99-5.04-1.67,6.41,4.3,7.84,7.3,11.2Z"/>
      <path class="cls-18" d="M164.64,335.11c0-2.67-.04-5.34,0-8.01.16-9.72-2.01-8.9,9.3-9.08,10.71-.17,12.95,2.79,10.1,13.32-.55,2.03-.74,3.75-4.04,1.81-2.72-1.6-6.77.08-10.22-1.03-.94-.3-2.67,1.04-2.9,2.72-.19,1.42-.31,2.83,1.02,3.94,2.39,2.01,9.86,1.08,11.56-1.65.54-.87.71-1.98,1.97-1.91,1.48.09,2.01,1.25,2.27,2.51.91,4.48.63,8.99.36,13.5-.08,1.37-1.1,2.25-2.45,2.36-5.14.41-10.26-.03-15.32-.89-2.29-.39-1.69-2.5-1.71-4.03-.07-4.52-.02-9.04-.02-13.56.03,0,.06,0,.09,0Z"/>
      <path class="cls-1" d="M116.35,335.64c0,1.24.01,2.47,0,3.71-.14,15.04-.66,15.42-15.91,13.7-2.54-.29-3.7-1.14-3.69-3.74.04-9.06-.02-18.12-.02-27.18,0-1.48.16-3.27,1.79-3.56,5.5-.97,11.07-.68,16.59-.14,1.82.18,1.37,2.23,1.37,3.62.02,4.53,0,9.06,0,13.59h-.13ZM106.86,339.43c.6.11,1.41.44,2.19.36,2.08-.19,4.19-.72,4.84-3.01.43-1.5.69-3.28-1-4.43-2.2-1.5-3.95-.49-5.24,1.27-1.51,2.05-2.09.71-2.97-.48-.97-1.31-2.13-1.69-3.67-.65-1.35.91-1.92,2.13-1.79,3.62.13,1.53.99,2.74,2.58,2.99,1.6.25,3.24.22,5.06.32Z"/>
      <path class="cls-23" d="M404.29,330.52c1.59-.04,3.19-.09,4.78-.13-1.53,2.32-3.15,1.45-4.78.13Z"/>
      <path class="cls-23" d="M409.1,329.09c-1.38-1.06-1.03-2.49-.8-3.89,1.09,1.12,1.1,2.47.8,3.89Z"/>
      <path class="cls-6" d="M729.14,330.58c8.86-2.52,17.58-2.69,26.31-2.87,1.2-.02,2.7-.42,2.97,1.19.3,1.85-1.34,1.66-2.48,1.67-8.93.03-17.86.02-26.79.02Z"/>
      <path class="cls-18" d="M638.89,343.33c-4.4.91-8.77,1.49-12.88-1.71h13.01c-.05.57-.09,1.14-.14,1.71Z"/>
      <path class="cls-8" d="M563.74,179.74c0,5.56-.13,11.12.06,16.68.11,3.26-1.17,4.3-4.33,4.27-13.75-.12-27.49-.06-41.24-.09-1.61,0-3.96.21-3.82-1.99.44-6.74-3.12-13.74,1.2-20.23-.27,3.61-.39,6.87,5.03,5.01,1.59-.54,2.92.91,3.63,2.5,1.56.89,2.97,2.13,4.34-.5,1.02-1.97,3.2-2.2,5.29-2.08,1.56.1,2.64-.85,3.85-1.62,1.47-.93,3.47-1.45,4.4.15,1.27,2.19-.69,2.45-2.39,2.98-.59.18-.81,2.05-.85,3.16-.01.26,1.67,1.04,2.07.79,1.64-1.05,4.59-2.79,4.38-3.58-2-7.78,4.95-4.44,6.22-4.04,3.71,1.15,11.51-3.63,9.82,6.69,2.18-2.91-.17-6.1,2.34-8.07ZM561.38,191.4c.87,7.64-5.15,5.97-8.95,6.68-5.61,1.04-11.51-1.95-17.4.91.72.21,1.11.41,1.49.41,6.54.03,13.09.05,19.63.04,6.95,0,7.17-.34,5.23-8.04Z"/>
      <path class="cls-24" d="M608.52,170.66c4.93,3.4,8.14,7.88,6.58,14.04-1.58,6.25-5.56,10.31-12.38,11.33-4.13.62-8.2.93-12.28.18-8.46-1.56-13.66-7.27-13.85-14.96-.15-6.37,4.63-11.16,13.18-13.2.92.88,1.84,1.76,2.76,2.63-2.83.95-4.82,2.93-6.51,5.28-2.04,4.99-2.42,9.71,2.26,13.58.75,2.42,3.04,2.67,4.92,3.49,1.43.02,3,.48,3.92-1.18l-.37-.09c1.3,0,2.6,0,3.9,0,.62.16,1.24.32,1.85.47,1.1,1.53,1.54.56,1.96-.51,4.42-2.56,5.65-6.45,4.64-11.25.02-3.83-1.51-6.87-5.92-9.25,2.62-.28,3.97-.43,5.33-.57Z"/>
      <path class="cls-8" d="M592.53,170.68c-.92-.88-1.84-1.76-2.76-2.63,6.91-3.86,12.85-.82,18.74,2.61-1.35.14-2.71.29-5.32.57,4.41,2.37,5.94,5.42,5.92,9.24-.57-.07-1.13-.13-1.7-.19.66,5.54-3.11,8.48-6.76,11.49-1.3,0-2.6,0-3.89,0,3.22-4.18,3.59-8.07-1.3-11.27-1.71-1.12-1.84-2.09-.67-3.8,2-2.89.95-4.94-2.27-6.02Z"/>
      <path class="cls-14" d="M524.28,185.89c-.71-1.58-2.04-3.04-3.63-2.5-5.43,1.86-5.3-1.4-5.03-5.01,14.28-1.47,28.61-1.29,42.93-1.18,2,.01,4.84-1.09,5.2,2.54-2.51,1.97-.16,5.17-2.34,8.07,1.69-10.31-6.11-5.53-9.82-6.69-1.27-.4-8.23-3.74-6.22,4.04.21.8-2.74,2.53-4.38,3.58-.4.25-2.08-.53-2.07-.79.04-1.11.26-2.97.85-3.16,1.69-.53,3.66-.79,2.39-2.98-.92-1.59-2.93-1.08-4.4-.15-1.21.77-2.29,1.73-3.85,1.62-4.88-5.38-6.5,1.42-9.63,2.58Z"/>
      <path class="cls-17" d="M587.3,151.13h-60.07c0-.36,0-.72,0-1.08h60.06c.06.36.06.72.01,1.08Z"/>
      <path class="cls-17" d="M577.4,164.51h-51.06v-.71h51.05c-.09.24-.09.48,0,.71Z"/>
      <path class="cls-4" d="M587.3,151.13c.05-.36.05-.72-.01-1.08h21.21c0,.36.02.72.02,1.08h-21.22Z"/>
      <path class="cls-13" d="M577.4,164.51c-.09-.24-.09-.47,0-.71h19.56c0,.24,0,.48,0,.71h-19.56Z"/>
      <path class="cls-9" d="M137.4,331.63c-3.31.67-5.57,2.86-7.99,5.04-2.11,1.91-4.26,1.91-4.36-1.84-.05-1.64.2-3.3,0-4.92-.52-4.24,1.04-5.59,5.45-5.64,7.09-.07,14.36,1.63,21.27-1.33.91-.39,1.62-.44,2,.46.2.48.02,1.2-.17,1.74-.63,1.81-2.51,1.87-3.88,2.63-1.83-4.31-5.01.42-7.26-1.08-2.17.35-4.29.76-3.86,3.77l.05-.06c-.95-.09-1.36.36-1.29,1.29l.04-.06Z"/>
      <path class="cls-12" d="M142.46,326.68c2.25,1.51,5.43-3.23,7.26,1.08-1.04,1.55-3.52,3.17-1.57,5,2.62,2.45,3.04-2.35,5.71-2.14,1.5,2.7,1.19,5.62-.1,8.58-3.34-1.05-7.05-3.01-7.45,3.1-.01.21-1.05.35-1.62.53-3-3.37-8.97-4.79-7.3-11.2,0,0-.04.06-.04.06.43-.43.86-.86,1.29-1.29,0,0-.05.06-.05.06,1.85-.68,2.86-2.22,3.86-3.77Z"/>
      <path class="cls-9" d="M129.94,345.22c-5.11,5.29-4.71,6.87,3.44,9.62-3.53.31-6.77,1.36-7.7-1.49-1.3-3.98-2.14-9.14.6-12.28,1.67-1.92,6.5-2.82,9.77-.99,2.74,1.53,5.64,3.27,7.03,6.39-2.81,4.34-11.22-4.75-11.19,5.35-2.81-1.88-1.2-4.44-1.83-6.46.51-.13,1.02-.25,1.53-.38-.13-.22-.27-.44-.4-.65-.42.3-.83.59-1.25.89Z"/>
      <path class="cls-9" d="M144.7,342.83c.56-.17,1.6-.32,1.62-.53.4-6.11,4.11-4.16,7.45-3.1-.02.21-.09.42-.05.61,2.91,15.26,2.17,16.08-14.13,14.99,1.63-2.11,3.06-3.96,4.34-5.62,1.82.32,1.85,1.44,2.15,2.39.85,2.72,2.91,1.5,4.61,1.38.99-.07,2.35.01,2.38-1.31.05-1.82-1.28-3.08-2.82-3.63-2.67-.95-4.85-2.22-5.55-5.19Z"/>
      <path class="cls-19" d="M106.86,339.43c-1.82-.1-3.46-.07-5.06-.32-1.59-.25-2.45-1.46-2.58-2.99-.13-1.49.44-2.7,1.79-3.62,1.53-1.04,2.7-.66,3.67.65.88,1.19,1.46,2.53,2.97.48,1.29-1.75,3.04-2.76,5.24-1.27,1.69,1.15,1.43,2.93,1,4.43-.65,2.28-2.76,2.81-4.84,3.01-.78.07-1.59-.26-2.19-.36Z"/>
      <path class="cls-14" d="M561.38,191.4c1.94,7.71,1.72,8.04-5.23,8.04-6.54,0-13.09-.01-19.63-.04-.38,0-.77-.21-1.49-.41,5.89-2.86,11.79.13,17.4-.91,3.8-.71,9.82.96,8.95-6.68Z"/>
      <path class="cls-19" d="M524.28,185.89c3.13-1.16,4.75-7.96,9.63-2.58-2.09-.11-4.27.12-5.3,2.08-1.37,2.63-2.78,1.39-4.34.5Z"/>
      <path class="cls-17" d="M592.53,170.68c3.22,1.08,4.26,3.13,2.27,6.02-1.18,1.71-1.04,2.68.67,3.8,4.88,3.2,4.52,7.09,1.3,11.27,0,0,.37.09.37.09-1.31.39-2.61.79-3.92,1.19-1.88-.82-4.17-1.07-4.92-3.49.56-1.91.89-3.93,1.74-5.69,1.61-3.34,1.81-5.65-2.85-5.93-.42-.03-.77-1.28-1.15-1.96,1.69-2.36,3.68-4.34,6.51-5.28Z"/>
      <path class="cls-11" d="M586.03,175.96c.38.68.73,1.93,1.15,1.96,4.66.28,4.46,2.6,2.85,5.93-.85,1.77-1.18,3.79-1.74,5.69-4.68-3.87-4.3-8.59-2.26-13.58Z"/>
      <path class="cls-4" d="M600.66,191.77c3.65-3.01,7.42-5.94,6.76-11.49.57.06,1.13.13,1.7.19,1.01,4.81-.22,8.69-4.64,11.26-.65.17-1.31.34-1.96.51-.62-.16-1.24-.32-1.85-.47Z"/>
      <path class="cls-8" d="M593.21,193.04c1.31-.4,2.61-.79,3.92-1.19-.92,1.66-2.49,1.2-3.92,1.19Z"/>
      <path class="cls-8" d="M602.51,192.24c.65-.17,1.31-.34,1.96-.51-.42,1.08-.86,2.04-1.96.51Z"/>
      <path class="cls-18" d="M142.46,326.68c-1,1.55-2.01,3.09-3.86,3.77-.42-3.01,1.69-3.42,3.86-3.77Z"/>
      <path class="cls-18" d="M138.65,330.4c-.43.43-.86.86-1.29,1.29-.07-.93.34-1.38,1.29-1.29Z"/>
      <path class="cls-18" d="M129.94,345.22c.42-.3.83-.59,1.25-.89.13.22.27.44.4.65-.51.12-1.02.25-1.53.38,0,0-.12-.14-.12-.14Z"/>
      <g>
        <path class="cls-3" d="M372.35,237.14c-.26-6.69-2.39-13.09-3.14-19.71-.15-1.32-.37-2.64-.56-3.96-.21-.26-.42-.52-.63-.79,0,0,0,0,0,0-.48-2.73-1.36-5.46-1.34-8.19.03-3.37-1.21-5.62-4.14-7.01-1.76-.84-2.02-2.26-1.87-3.94.45-.56.89-1.11,1.34-1.67,2.08.21,4.16.37,6.68-.12-1.77-1.53-3.27-2.26-4.95-2.65-1.52-2.07-.87-3.46,1.17-4.81,4.66-3.09,9.2-6.35,13.8-9.55-.86-1.32-2.08-.92-3.12-1.07-1.22-.17-2.63-.3-2.97-1.68-.32-1.28.6-2.34,1.55-3.12,4.05-3.33,8.26-6.49,12.19-9.96,3.1-2.74,6.82-1.95,10.73-2.3-1.38-1.53-3.15-1.42-4.44-2.25-1.09-.7-2.85-1.05-2.3-2.8.56-1.76,2.05-1.95,3.87-1.75,4.71.51,9.46.74,14.44,1.09-.19-2.57-2.01-4.05-2.88-5.95-.46-1-1.36-1.89-.44-2.97.94-1.1,2.28-.98,3.4-.47,3.12,1.41,6.18,2.96,9.25,4.48,3.68,1.83,7.35,3.69,11.75,5.9-.88-1.68-1.36-2.6-1.84-3.52-.67-1.3-1.55-2.56-.12-3.98,1.55-1.54,2.7-.28,3.83.52,3.68,2.62,7.31,5.31,10.97,7.96.97.7,1.99,1.33,3.07,2.04.78-1.89-.26-3.3-.73-4.73-.53-1.6-.05-2.69,1.26-3.4,1.37-.74,2.44-.26,3.48.96,5.01,5.83,10.11,11.57,15.23,17.39,1.35-.95,1.21-2.61,1.94-3.84.61-1.03,1.22-1.74,2.55-1.69,1.42.05,1.92,1.02,2.2,2.09.64,2.48,1.14,4.99,1.7,7.48,0,.37-.05.75.03,1.1q1.78,8.13,9.86,6.07c.81-.21,1.74-.83,2.28.14.3.53.19,1.45-.03,2.09-.35,1.03-.94,1.98-1.44,2.96-.84,1.66-3.45,3.1-2.24,4.94,1.31,1.99,3.72.15,5.64-.07.91-.1,1.72-.26,2.32.52.74.96.32,1.81-.38,2.61-1.55,1.78-2.77,3.71-2.86,6.17-1.8,3.96-1.58,8.29-2.06,12.46-.22,1.93-1.59,4-.11,6.01-2.05,1.43-1.4,3.76-1.71,5.68-.88,5.59-2.28,11.14-2.03,16.87-.81.64-1.15,2.3-2.45,1.77-1-.41-.96-1.84-1.13-2.9-1.22-7.44-2.43-14.88-3.64-22.31-.53-3.87-1.1-7.74-1.56-11.61-.24-1.97-1.04-2.51-2.93-1.71-2.02.85-4.14,1.49-6.23,2.16-5.17,1.67-5.85,1.16-5.63-4.16.08-1.83.09-3.67.26-5.5.21-2.36-.42-3.25-2.85-2.13-2.77,1.27-5.6,2.47-8.46,3.52-3.35,1.23-4.95-.22-4.28-3.73.09-.47.4-.92.44-1.39.09-1.02,1.53-2.12.35-2.96-.94-.68-2.04.39-3.01.84-2.88,1.34-5.74,2.73-8.59,4.14-1.19.59-2.34.79-3.39-.19-1.07-1-.77-2.22-.37-3.41.61-1.83,2.16-3.3,2.06-5.4.34-.14.37-.27.08-.35-.03,0-.11.17-.17.27-7.29,2.31-15.33,3.65-16.94,13.23-1.01,1.94-1.99,3.9-3.03,5.82-1.8,3.33-2.93,3.48-5.34.66-1.91-2.24-3.69-4.57-5.58-6.83-2.75-3.3-2.75-3.28-4.7.37-1.44,2.7-2.83,5.43-4.43,8.04-1.56,2.55-3.01,2.44-4.65-.01-1.09-1.62-1.03-3.89-2.94-5.38-.87,6.64-1.65,12.95-2.52,19.26-.89,6.42-1.87,12.83-2.83,19.25-.16,1.06-.14,2.5-1.22,2.81-1.13.33-1.82-.95-2.5-1.8Z"/>
        <path class="cls-7" d="M473.3,213.34c1.21,7.44,2.42,14.88,3.64,22.31.17,1.06.13,2.49,1.13,2.9,1.29.53,1.64-1.13,2.45-1.77,10.16-2.55,16.37,6.69,14.18,15.1-2.06,7.91-7.46,13.53-15.45,14.57-1.84.24-2.52,1.1-2.91,2.66-4.5,17.93-15.3,30.33-32.54,37.08-5.66,1.47-11.38,2.22-17.27,2.26-5.29.04-10.37-1.12-15.55-1.65-3.71-1.83-7.55-3.44-11.11-5.51-12.19-7.1-19.34-18-22.91-31.4-.62-2.32-1.36-3.37-4.02-3.54-9.94-.65-18.06-12.86-15.07-22.33,1.86-5.9,7.45-8.56,14.48-6.89.68.84,1.37,2.12,2.5,1.8,1.08-.31,1.06-1.76,1.22-2.81.96-6.41,1.94-12.83,2.83-19.25.88-6.3,1.66-12.62,2.52-19.26,1.91,1.49,1.85,3.76,2.94,5.38,1.65,2.46,3.09,2.56,4.65.01,1.59-2.61,2.99-5.34,4.43-8.04,1.95-3.65,1.95-3.67,4.7-.37,1.88,2.26,3.67,4.59,5.58,6.83,2.4,2.82,3.53,2.67,5.34-.66,1.04-1.92,2.02-3.88,3.03-5.82,5.55,2.83,10.78,6.21,16.52,8.74,14.27,6.29,28.98,10.21,44.7,9.65Z"/>
        <path class="cls-7" d="M481.29,245.15c-1.83.32-3.22,1.23-2.79,3.47-.03,2.18-.15,4.37-.06,6.55.05,1.24-.72,2.89.84,3.6,1.51.69,3.18.3,4.49-.68,2.02-1.52,4.17-3.04,3.91-6.06-.17-.38-.34-.75-.5-1.13l.05.08c.12-1.1.19-2.18-.41-3.19"/>
        <path class="cls-7" d="M423.17,258.87c-.58.39-.68.96-.59,1.6-1.34,1.07-.39,1.77.54,2.03,2.21.61,4.45,1.29,6.81.78,3.58-.77,4.52-2.29,3.87-6-.44-2.5-.64-5.05-1.06-7.55-.92-5.54-1.92-11.07-2.88-16.61-1.6,2.25-2.04,4.57-2.06,6.99.1,2.38.21,4.76.31,7.13-.34.31-1.02.75-.96.9,1.47,3.64-.29,6.18-2.77,8.53-.61.57-1.2,1.24-1.21,2.19Z"/>
        <path class="cls-7" d="M365.22,252.21c-.04,3.82,2.36,5.66,5.61,6.59,2.19.63,3.9.07,3.79-2.75-.09-2.3-.14-4.59-.22-6.89.54-3.22-1.44-4.09-4.03-4.11-3.48-.03-5.35,2.67-5.15,7.15Z"/>
        <path class="cls-7" d="M440.03,277.33c.47-.48,1.4-.68.96-1.91-8.9,3.15-17.89,3.2-26.91.43-.5-.15-1.26-.75-1.45.25-.12.61.49,1.05,1.07,1.32-.08,4.57,4.58,8.97,10.9,10.13,6.77,1.23,14.66-3.99,15.42-10.21Z"/>
        <path class="cls-7" d="M394.49,227.89c.24.26.44.68.74.76,6.26,1.71,12.64.95,18.96.74,2.79-.09,2.74-2.26,1.5-4.32.19-4.32-1.18-6-5.36-5.7-5.44.38-10.87,1.12-16.29,1.82-2.51.33-6.09-.2-5.95,3.7.15,4.39,3.91,2.7,6.4,3Z"/>
        <path class="cls-7" d="M456.41,263.44c5.98.01,7.95-.31,10.53-1.64,4.2-2.16,4.64-7.07.52-9.21-6.55-3.39-13.38-2.85-20.02-.07-1.9.79-2.87,2.62-2.85,4.76.01,2.2,1.26,3.54,3.17,4.5,2.93,1.47,6.01,1.89,8.66,1.67Z"/>
        <path class="cls-7" d="M397.44,250.87c-2.78.2-5.58-.26-8.33.74-2.62.96-4.65,2.4-4.79,5.34-.15,2.91,2.03,4.51,4.33,5.28,5.8,1.95,11.71,2,17.51-.21,2.21-.84,3.82-2.31,3.73-4.87-.1-2.71-1.62-4.47-4.12-5.49-2.71-1.1-5.55-.58-8.33-.79Z"/>
        <path class="cls-7" d="M451.21,227.3c3.65.31,7.3.96,10.96.37,1.6-.26,2.82-.98,2.85-2.78.02-1.84-1.02-3.08-2.8-3.3-6.66-.83-13.32-1.61-20-2.24-2.59-.25-4.69.9-4.95,3.73-.28,3,1.86,4.08,4.42,4.19,3.17.15,6.35.03,9.52.03Z"/>
        <path class="cls-7" d="M407.63,240.72c0-2.94-1.97-5.19-4.55-5.2-2.91,0-4.97,2.38-4.9,5.67.06,3.02,1.92,5,4.69,4.98,2.73-.02,4.75-2.34,4.75-5.46Z"/>
        <path class="cls-7" d="M451.29,246.26c2.84-.07,4.74-2.28,4.68-5.42-.06-3.12-2.19-5.42-4.87-5.25-2.72.17-4.5,2.45-4.43,5.67.07,3.05,1.93,5.06,4.62,5Z"/>
        <path class="cls-7" d="M443.92,335.21c-1.45,4.6-3.39,6.16-8.19,6.25-5.13.1-10.27-.13-15.39.09-4.79.21-7.91-1.8-9.68-6.15.09-6.1.17-12.2.26-18.29,10.3,5.34,21.08,8.34,32.8,6.64.07,3.82.13,7.64.2,11.46Z"/>
        <path class="cls-16" d="M443.72,323.75c-11.73,1.7-22.5-1.3-32.8-6.64.02-3.43.04-6.87.06-10.3,5.18.53,10.26,1.69,15.55,1.65,5.9-.04,11.61-.79,17.27-2.26-.03,5.85-.06,11.7-.08,17.56Z"/>
        <path class="cls-7" d="M473.3,213.34c-15.72.56-30.43-3.36-44.7-9.65-5.73-2.53-10.97-5.91-16.52-8.74,1.61-9.58,9.66-10.92,16.94-13.23l.08.08c.11,2.1-1.44,3.58-2.06,5.4-.4,1.19-.7,2.41.37,3.41,1.05.99,2.2.78,3.39.19,2.85-1.41,5.71-2.79,8.59-4.14.96-.45,2.06-1.52,3.01-.84,1.17.84-.26,1.94-.35,2.96-.04.47-.35.91-.44,1.39-.67,3.52.93,4.96,4.28,3.73,2.87-1.05,5.69-2.24,8.46-3.52,2.43-1.12,3.07-.23,2.85,2.13-.17,1.83-.18,3.67-.26,5.5-.22,5.32.45,5.83,5.63,4.16,2.09-.67,4.2-1.31,6.23-2.16,1.9-.79,2.69-.26,2.93,1.71.47,3.88,1.04,7.74,1.56,11.61Z"/>
        <path class="cls-7" d="M456.41,263.44c-2.64.22-5.73-.2-8.66-1.67-1.9-.96-3.15-2.29-3.17-4.5-.01-2.14.96-3.96,2.85-4.76,6.65-2.77,13.48-3.32,20.02.07,4.12,2.13,3.68,7.05-.52,9.21-2.59,1.33-4.55,1.66-10.53,1.64Z"/>
        <path class="cls-7" d="M397.44,250.88c2.78.21,5.62-.32,8.33.78,2.5,1.02,4.02,2.78,4.12,5.49.1,2.56-1.51,4.03-3.73,4.87-5.8,2.21-11.71,2.16-17.51.21-2.3-.77-4.48-2.37-4.33-5.28.15-2.94,2.17-4.38,4.79-5.34,2.75-1.01,5.55-.54,8.33-.74Z"/>
        <path class="cls-3" d="M451.21,227.3c-3.17,0-6.35.11-9.52-.03-2.56-.12-4.69-1.19-4.42-4.19.26-2.82,2.36-3.97,4.95-3.73,6.68.63,13.34,1.42,20,2.24,1.78.22,2.82,1.46,2.8,3.3-.02,1.8-1.25,2.52-2.85,2.78-3.66.59-7.31-.06-10.96-.37Z"/>
        <path class="cls-3" d="M394.49,227.89c-2.49-.3-6.25,1.38-6.4-3-.14-3.9,3.44-3.38,5.95-3.7,5.42-.7,10.84-1.44,16.29-1.82,4.19-.3,5.55,1.38,5.36,5.7-1.16,1.18-2.56,1.65-4.22,1.74-5.66.3-11.32.71-16.98,1.08Z"/>
        <path class="cls-20" d="M440.03,277.33c-.76,6.23-8.65,11.45-15.42,10.21-6.32-1.15-10.99-5.56-10.91-10.13,8.78,1.96,17.56,2.27,26.33-.09Z"/>
        <path class="cls-16" d="M374.4,249.17c.07,2.3.13,4.59.22,6.89.11,2.82-1.6,3.38-3.79,2.75-3.24-.93-5.64-2.78-5.61-6.59.37-.76.76-1.51,1.12-2.27,2.13-4.56,5.18-4.86,8.06-.78Z"/>
        <path class="cls-16" d="M487.68,252.02c.26,3.02-1.89,4.55-3.91,6.06-1.31.98-2.98,1.37-4.49.68-1.56-.71-.79-2.36-.84-3.6-.09-2.18.03-4.36.06-6.55,3.01-3.02,5.35-3.06,7.3-.1.52.79.96,1.63,1.43,2.45,0,0-.05-.08-.05-.08.17.38.34.75.5,1.13Z"/>
        <path class="cls-7" d="M427.79,240.11c.01-2.42.46-4.74,2.06-6.99.97,5.54,1.96,11.07,2.88,16.61.42,2.51.61,5.05,1.06,7.55.65,3.7-.29,5.22-3.87,6-2.36.51-4.6-.17-6.81-.78-.93-.26-1.88-.96-.54-2.03,2.05.2,4.11.49,6.17.58,2.16.09,3.38-.51,2.83-3.23-1.02-5.12-1.65-10.32-2.44-15.49-.14-.92.04-2.05-1.35-2.22Z"/>
        <path class="cls-5" d="M407.63,240.72c0,3.12-2.02,5.44-4.75,5.46-2.77.02-4.63-1.96-4.69-4.98-.07-3.3,1.99-5.68,4.9-5.67,2.57,0,4.55,2.26,4.55,5.2Z"/>
        <path class="cls-5" d="M451.29,246.26c-2.69.07-4.55-1.95-4.62-5-.07-3.22,1.7-5.5,4.43-5.67,2.68-.17,4.81,2.13,4.87,5.25.06,3.15-1.84,5.36-4.68,5.42Z"/>
        <path class="cls-7" d="M394.49,227.89c5.66-.37,11.31-.78,16.98-1.08,1.66-.09,3.06-.56,4.22-1.74,1.24,2.06,1.29,4.23-1.5,4.32-6.32.21-12.71.97-18.96-.74-.29-.08-.49-.5-.74-.76Z"/>
        <path class="cls-22" d="M427.79,240.11c1.39.16,1.21,1.29,1.35,2.22.79,5.17,1.42,10.36,2.44,15.49.54,2.72-.67,3.32-2.83,3.23-2.06-.09-4.11-.38-6.17-.58-.09-.64.01-1.21.59-1.6q7.1.82,6.03-5.91c-.31-1.91-.73-3.81-1.09-5.71-.1-2.38-.21-4.76-.31-7.13Z"/>
        <path class="cls-22" d="M440.03,277.33c-8.77,2.36-17.55,2.05-26.33.09-.58-.27-1.19-.71-1.07-1.32.19-1,.95-.4,1.45-.25,9.02,2.78,18.01,2.73,26.91-.43.44,1.23-.49,1.43-.96,1.91Z"/>
        <path class="cls-22" d="M374.4,249.17c-2.88-4.08-5.93-3.79-8.06.78-.36.76-.74,1.51-1.12,2.27-.21-4.48,1.67-7.19,5.15-7.15,2.59.02,4.57.89,4.03,4.11Z"/>
        <path class="cls-22" d="M487.23,250.97c-.47-.82-.91-1.66-1.43-2.45-1.95-2.96-4.29-2.92-7.3.1-.43-2.25.95-3.16,2.79-3.47,2.39-.41,4.28.5,5.53,2.63.59,1.01.53,2.1.41,3.19Z"/>
      </g>
      <path class="cls-23" d="M338.93,336.93c2.24-.74,2.87-2.25,3.68-3.82,6.1-11.93,18.18-18.42,34.72-20.76.01,4.13,4.17,7.64,3.28,11.91.29,1.4-.01,2.93,1.74,3.98l-.1-.1c.59.44,1.17.87,1.76,1.31l-.07-.04c1.72,4.31,6.63,3.65,10.83,3.59,4.01-.05,7.17.37,10.35,2.63,12.57,8.96,32.08,8.16,44.03-1.5,4.1.04,8.21-.46,12.22-.54,10.42-.19,14.43-4.45,15.86-11.31.71-3.4,2.06-6.72,3.12-10.08,14.37,1.05,25.03,5.43,31.82,14.82,2.44,2.5,10.2,11.6,12.24,19.55,3.54,13.84,5.2,14.92-14.26,14.92-59.54,0-116.85,0-174.16,0-.83-8.31,4.03-16.24,2.94-24.56Z"/>
      <path class="cls-23" d="M451.28,330.68c-.72,1.15-1.43,2.3-2.14,3.45-11.94,9.66-31.45,10.46-44.02,1.5-3.18-2.27-6.35-2.69-10.35-2.63-4.2.06-9.11.72-10.83-3.59,3.31.45,6.61.9,9.92,1.35,2.19,1.32,4.37,2.19,6.43-.13.02-.43.04-.86.06-1.29.41-1.41.4-2.76-1.07-3.89-.37-5.22.37-10.54-2.26-15.58,1.72.28,3.44.56,5.16.84,2.26,9.32,10.66,16.11,17.94,23.24,2.99,2.94,8.72,2.8,11.7-.1,7.66-7.44,16.06-14.69,18.81-24.28,1.66.05,3.33.09,4.99.14.59,7.22-2.18,14.06-4.31,20.97Z"/>
      <path class="cls-19" d="M683.59,222.79c.58-2.93-8.96-4.45-13.36-2.89-.47.17-.77-.6-.5-1.02,1.83-2.86,11.28-2.79,14.96,1.69,1.71,2.09-.06,2.46-1.1,2.23Z"/>
      <rect class="cls-3" x="607.93" y="314.31" width="162.89" height="47.02" rx="11.61" ry="11.61"/>
      <g>
        <path class="cls-19" d="M627.15,361.06c-.18-2.35-.37-4.7-.55-7.04,1.54-1.63-.52-3.54.41-5.21,3.91-.05,7.82-.11,11.73-.16-.28,3.86,2.06,4.06,5.11,4.05,32.84-.16,65.68-.1,98.52-.43,5.15-.05,10.65.91,15.53-1.98.72-.21,1.45-.42,2.17-.62-2.04,4.99-6.52,4.28-10.51,4.29-34.37.09-68.74.25-103.11-.03-5.84-.05-8.41,1.38-7.64,7.31-3.85-2.44-7.76-.55-11.65-.17Z"/>
        <path class="cls-18" d="M760.06,349.66c-.72.21-1.45.42-2.17.62-.05-3.47,1.94-6.73,1.05-10.28.4-2.27,1.14-4.67-2.68-4.49-8.13.38-16.32-.6-24.4.95-26.38.09-52.76.18-79.14.28-11.91-.08-23.82-.16-35.74-.24-.02-4.04.78-7.84,3.18-11.19,1.22.09,2.45.24,3.67.25,39.68.23,79.35-2.21,119.04-.43,5.19.23,10.56,1.48,15.72-.57l.36-.09c4.35,8.23,2.97,16.7,1.1,25.2ZM729.14,330.58c8.93,0,17.86.01,26.79-.02,1.13,0,2.78.18,2.48-1.67-.26-1.61-1.77-1.21-2.97-1.19-8.73.18-17.45.35-26.31,2.87Z"/>
        <path class="cls-19" d="M758.59,324.54c-5.16,2.04-10.53.8-15.72.57-39.69-1.77-79.36.66-119.04.43-1.22,0-2.45-.16-3.67-.25.9-3.38,3.71-3.47,6.4-3.59,16.67-.71,33.33-.54,50.01-.34,18.51.23,37.04-.3,55.56-.34,4.04,0,8.21-.88,12.15.85,4.42,1.9,9.11.52,13.64,1.1,0,0-.06-.06-.06-.06.25.54.5,1.08.74,1.62Z"/>
        <path class="cls-17" d="M616.98,336.49c11.91.08,23.82.16,35.74.24-1.19,1.77-3.53.61-5.38,1.55,1.31.84,2.11,1.36,2.91,1.87-6.24-.42-7.23,6.28-11.52,8.49-3.91.05-7.82.11-11.73.16-2.01-1.56-4.16-2.98-5.11-5.55-.81-2.21-2.35-3.09-4.67-2.33-.08-1.48-.16-2.95-.24-4.43ZM638.89,343.33c.05-.57.09-1.14.14-1.71h-13.01c4.1,3.2,8.48,2.62,12.88,1.71Z"/>
        <path class="cls-14" d="M617.22,340.92c2.32-.76,3.86.12,4.67,2.33.94,2.57,3.1,3.98,5.11,5.55-.93,1.68,1.13,3.58-.4,5.21-8.78-1.27-9.42-2.17-9.37-13.09Z"/>
        <path class="cls-1" d="M638.73,348.65c4.29-2.22,5.28-8.92,11.52-8.49,18.99,0,37.97-.01,56.96-.02,17.24-.05,34.49-.09,51.73-.14.89,3.55-1.1,6.81-1.05,10.28-4.88,2.9-10.38,1.93-15.53,1.98-32.84.33-65.68.27-98.52.43-3.05.02-5.38-.19-5.11-4.05Z"/>
        <path class="cls-2" d="M707.21,340.14c-18.99,0-37.97.01-56.96.02-.8-.51-1.6-1.03-2.91-1.87,1.86-.93,4.19.22,5.38-1.55,26.38-.09,52.76-.18,79.14-.28-1.43,2.15-3.66,1.18-5.57,1.42-6.36.77-12.72,1.51-19.08,2.27Z"/>
        <path class="cls-13" d="M707.21,340.14c6.36-.75,12.72-1.5,19.08-2.27,1.92-.23,4.14.73,5.57-1.42,8.09-1.55,16.27-.56,24.4-.95,3.82-.18,3.08,2.22,2.68,4.49-17.24.05-34.49.09-51.73.14Z"/>
      </g>
      <path class="cls-21" d="M378.41,250.77c3.77-2.18,15.08,10.91,21.75,23.4,4.73,8.86,13.3,21.32,17.77,20.49,1.73-.32,2.61-2.64,6.74-3.83,1.13-.33,4.03-.22,5.78.23,2.85.73,3.03,3.14,7.09,2.99,6.88-.26,30.69-47.89,37.83-45.85,4.35,1.25,4.31,25.18-7.2,41.16-10.69,14.85-33.01,18.43-37.72,18.88-21.88,2.06-36.85-11.7-38.87-13.75-16.76-16.99-16.28-41.92-13.16-43.73Z"/>
      <path class="cls-21" d="M428.73,264.62c11.14.21,23.54,5.72,20.74,8.32-2.07,1.92-10.24-3.23-21.56-2.08-12.78,1.29-22.63,4.69-22.6,1.6.01-1.41,14.94-8,23.42-7.84Z"/>
      <rect class="cls-15" x="53.13" y="358.21" width="752.85" height="34.61" rx="7.38" ry="7.38"/>
    </g>
  </g>
</svg>