<?xml version="1.0" encoding="UTF-8"?>
<svg id="Layer_1" data-name="Layer 1" xmlns="http://www.w3.org/2000/svg" viewBox="0 0 800 800">
  <defs>
    <style>
      .cls-1 {
        fill: #fcd99e;
      }

      .cls-1, .cls-2, .cls-3, .cls-4, .cls-5, .cls-6, .cls-7, .cls-8, .cls-9, .cls-10, .cls-11, .cls-12, .cls-13, .cls-14, .cls-15, .cls-16, .cls-17, .cls-18, .cls-19, .cls-20, .cls-21, .cls-22, .cls-23, .cls-24, .cls-25, .cls-26, .cls-27, .cls-28, .cls-29, .cls-30, .cls-31, .cls-32, .cls-33, .cls-34, .cls-35, .cls-36, .cls-37 {
        stroke-width: 0px;
      }

      .cls-2 {
        fill: #ebb899;
      }

      .cls-3 {
        fill: #b9bcaa;
      }

      .cls-4 {
        fill: #49555d;
      }

      .cls-5 {
        fill: #7b4249;
      }

      .cls-6 {
        fill: #f4c17e;
      }

      .cls-7 {
        fill: #bb907f;
      }

      .cls-8 {
        fill: #aeb3a5;
      }

      .cls-9 {
        fill: #4f855b;
      }

      .cls-10 {
        fill: #5f7d78;
      }

      .cls-11 {
        fill: #40678a;
      }

      .cls-12 {
        fill: #472355;
      }

      .cls-13 {
        fill: #5c5176;
      }

      .cls-14 {
        fill: #d3d8c4;
      }

      .cls-15 {
        fill: #6b4334;
      }

      .cls-16 {
        fill: #d1d6c3;
      }

      .cls-17 {
        fill: #80a76d;
      }

      .cls-18 {
        fill: #f1b498;
      }

      .cls-19 {
        fill: #8f7074;
      }

      .cls-20 {
        fill: #2c6b81;
      }

      .cls-21 {
        fill: #edeceb;
      }

      .cls-22 {
        fill: #aeb2a4;
      }

      .cls-23 {
        fill: #f6b89c;
      }

      .cls-24 {
        fill: #af8150;
      }

      .cls-25 {
        fill: #6e432d;
      }

      .cls-26 {
        fill: #fefffe;
      }

      .cls-27 {
        fill: #2f3e57;
      }

      .cls-28 {
        fill: #fefefe;
      }

      .cls-29 {
        fill: #7c4449;
      }

      .cls-30 {
        fill: #703f47;
      }

      .cls-31 {
        fill: #f7c057;
      }

      .cls-32 {
        fill: #3d4c3b;
      }

      .cls-33 {
        fill: #f0b398;
      }

      .cls-34 {
        fill: #2a394e;
      }

      .cls-35 {
        fill: #f2ba94;
      }

      .cls-36 {
        fill: #a2d1b4;
      }

      .cls-37 {
        fill: #4b7ba8;
      }
    </style>
  </defs>
  <path class="cls-9" d="M441.48,438.39s42.02-46.45,58.65-38.62c16.62,7.83,51.15,32.75,59.83,27.08s20.98-14.58,32.73-12.98c11.75,1.59,25.75,27.74,33.04,20.27,7.3-7.46-.61,65.06-.61,65.06l-156.6-10.73-27.04-50.07Z"/>
  <path class="cls-17" d="M599.74,416.01c-2.56-.79-3.6-2.85-4.05-5.21-.66-3.49-.22-6.79,2.37-9.51.47-.73,1.11-1.07,1.99-.92.98.06,1.92.28,2.83.66,3.28,3.3,3.42,7.24,2.28,11.42-.1.38-.26.75-.39,1.12-.27,1.32-1.28,1.95-2.34,2.53-.36.15-.74.24-1.13.24-.55.03-1.1.08-1.55-.33Z"/>
  <path class="cls-25" d="M601.42,416.02c-.38,1.42-.06,2.88-.19,4.31-.04.46.39,1.24-.6,1.25-1,0-.5-.79-.64-1.24-.02-.08-.02-.16-.03-.24-.01-1.36.16-2.74-.21-4.08.56,0,1.12,0,1.68,0Z"/>
  <path class="cls-17" d="M616.56,462.84c-1.62,0-3.23-.09-4.75-.7-1.43-.57-2.53-1.48-2.95-3.05-.54-2.02.24-3.26,2.36-3.73-.02-.31-.31-.36-.48-.53-1.08-1.03-1.33-2.59-.63-3.9,1.44-2.71,6.46-3.35,8.52-1.09.73.8,1.08,1.8,1.37,2.82.26-.04.35-.26.51-.41,1.58-1.45,3.59-1.26,4.82.51,1,1.44,1.46,3.06,1.28,4.81-.18,1.79-1.09,3.12-2.7,3.94-1.61.82-3.35,1.13-5.13,1.29-.42-.76-.25-1.58-.15-2.36.18-1.4.21-2.82.42-4.22.02-.11.01-.22-.11-.37-.5.52-.81,1.14-1.11,1.78-.68,1.5-.72,1.5-1.88.38-.29-.28-.6-.55-.98-.81.77,1.49,1.43,2.99,1.74,4.6.07.34.22.71-.15,1Z"/>
  <path class="cls-19" d="M616.56,462.84c-.05-2.09-.95-3.9-1.9-5.69-.07-.13-.27-.23-.11-.48.78.46,1.44,1.07,2.05,1.72.34.35.51.45.71-.12.31-.89.81-1.7,1.32-2.49.12-.18.24-.45.48-.4.29.07.18.37.16.57-.11,1.41-.2,2.82-.39,4.21-.12.89-.07,1.77-.11,2.66-.2.88-.39,1.75-.14,2.65.08.51.24,1.01-.22,1.45-.78.74-1.67.42-2.14-.8.09-1.1.32-2.18.29-3.29Z"/>
  <path class="cls-9" d="M152.89,459.77s46.52-37.48,64.92-31.16c18.4,6.32,56.62,26.43,66.22,21.85,9.61-4.58,23.22-11.76,36.23-10.48,13.01,1.29,28.5,22.38,36.58,16.36,8.08-6.02-46.97,59.27-46.97,59.27l-127.05-15.43-29.93-40.4Z"/>
  <path class="cls-36" d="M251.28,274.18c-13.57-.04-27.13-.08-40.7-.12-6.28-.03-12.57-.04-18.85-.11-.75,0-1.88.53-2.17-.55-.2-.72.77-1.11,1.36-1.49,6.25-3.95,13.16-5.91,20.45-6.63,1.98-.19,3.79.7,5.52,1.54,2.77,1.35,5.34,1.59,8.24.06,4.88-2.58,10.15-3.58,15.74-3.23,4.57.29,9.27.64,13.75-.04,9.27-1.41,14.92,4.84,21.52,9.21.26.17.63.6.57.77-.28.75-1.01.41-1.53.42-5.44.02-10.88-.02-16.31,0-2.53,0-5.07.11-7.6.17Z"/>
  <path class="cls-36" d="M294.88,304.73c-13.57-.04-27.13-.08-40.7-.12-6.28-.03-12.57-.04-18.85-.11-.75,0-1.88.53-2.17-.55-.2-.72.77-1.11,1.36-1.49,6.25-3.95,13.16-5.91,20.45-6.63,1.98-.19,3.79.7,5.52,1.54,2.77,1.35,5.34,1.59,8.24.06,4.88-2.58,10.15-3.58,15.74-3.23,4.57.29,9.27.64,13.75-.04,9.27-1.41,14.92,4.84,21.52,9.21.26.17.63.6.57.77-.28.75-1.01.41-1.53.42-5.44.02-10.88-.02-16.31,0-2.53,0-5.07.11-7.6.17Z"/>
  <path class="cls-36" d="M212.27,352.85c-7.72-.04-15.45-.08-23.17-.12-3.58-.03-7.15-.04-10.73-.11-.43,0-1.07.53-1.24-.55-.11-.72.44-1.11.77-1.49,3.56-3.95,7.49-5.91,11.64-6.63,1.13-.19,2.16.7,3.14,1.54,1.58,1.35,3.04,1.59,4.69.06,2.78-2.58,5.78-3.58,8.96-3.23,2.6.29,5.28.64,7.83-.04,5.28-1.41,8.5,4.84,12.25,9.21.15.17.36.6.33.77-.16.75-.57.41-.87.42-3.1.02-6.19-.02-9.29,0-1.44,0-2.88.11-4.33.17Z"/>
  <path class="cls-36" d="M488.23,268.79c-13.57-.04-27.13-.08-40.7-.12-6.28-.03-12.57-.04-18.85-.11-.75,0-1.88.53-2.17-.55-.2-.72.77-1.11,1.36-1.49,6.25-3.95,13.16-5.91,20.45-6.63,1.98-.19,3.79.7,5.52,1.54,2.77,1.35,5.34,1.59,8.24.06,4.88-2.58,10.15-3.58,15.74-3.23,4.57.29,9.27.64,13.75-.04,9.27-1.41,14.92,4.84,21.52,9.21.26.17.63.6.57.77-.28.75-1.01.41-1.53.42-5.44.02-10.88-.02-16.31,0-2.53,0-5.07.11-7.6.17Z"/>
  <path class="cls-36" d="M592.88,301.52c-8.28-.06-16.57-.12-24.85-.17-3.84-.04-7.67-.06-11.51-.16-.46-.01-1.15.74-1.33-.77-.12-1.01.47-1.57.83-2.09,3.82-5.54,8.03-8.3,12.49-9.3,1.21-.27,2.32.98,3.37,2.16,1.69,1.89,3.26,2.23,5.03.08,2.98-3.62,6.2-5.02,9.61-4.53,2.79.4,5.66.9,8.4-.06,5.66-1.98,9.11,6.79,13.14,12.93.16.24.39.85.35,1.08-.17,1.05-.61.58-.94.58-3.32.03-6.64-.02-9.96,0-1.55.01-3.09.16-4.64.24Z"/>
  <path class="cls-36" d="M546.34,351.92c-11.21-.03-22.43-.07-33.64-.1-5.19-.02-10.39-.03-15.58-.09-.62,0-1.55.44-1.8-.45-.16-.6.63-.92,1.12-1.23,5.17-3.26,10.88-4.89,16.91-5.48,1.64-.16,3.14.58,4.56,1.27,2.29,1.12,4.41,1.31,6.81.05,4.04-2.13,8.39-2.96,13.02-2.67,3.78.24,7.66.53,11.37-.03,7.67-1.17,12.34,4,17.79,7.61.22.14.52.5.47.63-.23.62-.83.34-1.27.34-4.5.02-8.99-.01-13.49,0-2.09,0-4.19.09-6.28.14Z"/>
  <path class="cls-1" d="M152.89,470.82c-.44-1.09-1.02-2.14-1.3-3.27-1.39-5.49-2.34-11.03-2.88-16.69-.76-7.96.59-15.59,2.65-23.14,2.86-10.46,7.06-20.43,11.28-30.4,4.88-11.54,9.65-23.15,12.35-35.45.98-4.49,1.45-9.09,2.14-13.65.89-5.95.47-11.94.35-17.9-.07-3.62-.75-7.24-1.2-10.85-.86-6.95-2.34-13.79-4.12-20.56-1.19-4.54-2.61-9.03-3.63-13.6-.7-3.18-1.07-6.46-1.27-9.71-.3-4.69-.49-9.39-.42-14.09.1-6.92,1.46-13.63,4.43-19.92,1.95-4.13,4.56-7.89,7.5-11.37,2.36-2.79,4.7-5.64,7.37-8.12,3.49-3.25,7.19-6.28,10.97-9.19,7.28-5.62,15.53-9.46,24.08-12.71,3.29-1.25,6.61-2.33,10.09-2.86,2.06-.31,4.13-.71,6.2-.7,5.22.03,10.47,0,15.66.48,5.84.53,11.63,1.62,17.45,2.4,1.55.21,3.13.23,4.69.2.54,0,1.11-.37,1.6-.68,6.69-4.17,13.99-6.64,21.74-7.85,5.62-.88,11.29-1.13,16.96-.83,8.08.43,15.94,2.15,23.49,5.08,5.15,2,10.22,4.18,15.33,6.28,9.24,3.8,18.41,7.81,28.26,9.88,4.59.96,9.21,1.63,13.89,2.1,6.43.66,12.84.31,19.26.31,2.96,0,5.92-.5,8.88-.77,3.48-.32,6.97-.57,10.45-.98,4.65-.55,9.3-1.16,13.93-1.85,4.19-.63,8.36-1.37,12.53-2.13,4.17-.76,8.34-1.55,12.49-2.43,7.79-1.65,15.54-3.5,23.35-5.04,5.91-1.16,11.88-2,17.83-2.92,4.8-.74,9.65-1.08,14.49-.82,9.27.49,18.31,2.13,27.04,5.47,7.57,2.89,14.78,6.46,21.47,11.03,5.12,3.51,9.82,7.54,14.13,12.02,3.33,3.46,5.77,7.54,8.3,11.56,2.95,4.68,5.76,9.48,7.2,14.87,1.55,5.82,3.27,11.66,4.02,17.61.62,4.9.11,9.98-.21,14.97-.7,11.13-4.24,21.74-6.22,32.63-.76,4.17-1.28,8.38-1.94,12.56-1.03,6.49-1.51,13.03-1.27,19.6.28,7.82,1.05,15.6,3.34,23.14,1.95,6.42,3.94,12.83,5.99,19.22,1.71,5.34,4.13,10.38,6.54,15.44,2.95,6.2,5.57,12.55,8.28,18.85,1.12,2.6,2.14,5.25,3.15,7.9,1.81,4.75,2.93,9.67,3.69,14.7.97,6.46.88,12.94.79,19.43-.03,1.83-.48,3.65-.74,5.48-1.77-.14-3.21-.99-4.51-2.13-.41-1.08-.3-2.21-.3-3.32,0-8.65-.09-17.31.04-25.96.05-3.31-.56-6.36-2.05-9.27-.75-1.46-1.27-3.02-1.99-4.5-.3-.54-.65-1.06-1-1.57-1.14-3.74-3.17-7.1-4.87-10.57-3.25-6.65-6.32-13.39-9.68-19.98-1.43-2.8-2.38-5.81-3.34-8.8-.62-1.91-1.68-2.76-3.77-2.68-3.58.14-7.18.09-10.77,0-.83-.02-2.02.45-2.3-.99.84-.85,1.94-.69,2.96-.7,2.99-.03,5.98,0,8.97-.02.81,0,1.65.12,2.41-.35.49-.63.2-1.29,0-1.91-.94-3-2.04-5.94-2.91-8.96-.49-1.71-1.78-1.77-3.18-1.77-7.48,0-14.96,0-22.43,0-7.33,0-14.66.05-21.98-.03-2.69-.03-3.16-.65-2.57-2.99,1.13-.82,2.44-.6,3.69-.6,13.91-.02,27.82,0,41.74-.01,3.38,0,3.49-.09,3.06-3.39-1.01-7.76-.3-15.53.19-23.26.87-13.81,3.86-27.38,4.9-41.18.46-6.03.75-12.08,1.01-18.12.16-3.66.43-7.32.43-10.97-.02-7.11-.66-14.19-2.93-21.01q-1.17-4.53-5.81-4.53c-45.99,0-91.97,0-137.96,0-4.7,0-4.88.17-4.89,4.94,0,48.59,0,97.18-.01,145.78,0,1.48.23,3-.42,4.42-1.53.99-1.74-.55-2.16-1.27-1.93-3.32-4.23-6.33-7.05-8.95-1.1-1.02-2.28-1.94-3.45-2.86-.77-.61-1.65-1.16-2.64-1.14-2.55.06-4.64-1.12-6.61-2.46-4.49-3.05-9.48-3.36-14.64-2.95-.83.07-1.8.18-2.27.83-1.39,1.9-3.45,2.15-5.48,2.65-6.75,1.65-11.8,5.58-15.28,11.56-2.38,4.08-1.97,8.43-1.46,12.86.26,2.26,1.07,4.53.35,6.85-4.28,3.34-4,9.34.59,12.06.82.49,1.35,1.12,1.72,1.97,2.14,4.92,4.9,9.37,9.38,12.55,1.02.72,1.41,1.7.96,2.93-.26.5-.67.88-1.08,1.25-8.49,5.73-16.94,11.5-25.15,17.63-.38.5-.52,1.13-.91,1.63-6.83,6.25-13.86,12.26-20.61,18.6-1,.94-2.02,2.23-3.54.7.26-2.16-1.54-2.83-2.82-3.88-1.03-1.48-1.61-3.19-2.29-4.83-3.19-7.69-6.53-15.32-9.57-23.08-.95-2.42-1.62-4.95-1.06-7.63.2-6.28,0-12.56,0-18.84,0-57.8,0-115.6,0-173.4,0-1.79.05-3.59-.32-5.36-.48-2.31-1.08-2.82-3.48-2.97-.45-.03-.9-.02-1.35-.02-51.46,0-102.91,0-154.37,0-3.27,0-3.73.29-4.22,2.48-.03.14.03.3.09.5.93.79,2.09.49,3.17.49,18.85.02,37.7,0,56.54.03,1.28,0,2.74-.39,3.72.93-.98,1.35-2.45.89-3.72.89-18.78.04-37.55.02-56.33.02-5.04,0-5.19-.02-5.93,5.06-1.4,9.62-1.2,19.22,1.04,28.73,2.64,11.21,5.1,22.46,8,33.61,2.11,8.09,2.15,16.39,1.6,24.73-.5,7.64-1.55,15.16-3.16,22.63-.45,2.08-.17,2.34,2.25,2.35,10.02.02,20.05,0,30.07,0,7.71,0,15.41,0,23.12,0,1.18,0,2.41-.19,3.48.55.74,1.49.12,2.25-1.37,2.5-.96.16-1.94.11-2.91.11-17.39,0-34.78,0-52.17,0-3.86,0-3.91,0-4.83,3.73-.89,3.62-2.36,7.08-3.08,10.75-2.54,4.95-4.34,10.21-6.31,15.4-.4.64-.67,1.33-.88,2.05-.12.36-.15.75-.31,1.08-3.24,6.74-3.53,13.9-3.43,21.23.2,14.42.06,28.85.05,43.28,0,1.25.2,2.56-.53,3.72-3.15,1.01-6.34.95-9.56.41Z"/>
  <path class="cls-1" d="M195.17,642.78c-1.4-5.31-1.87-10.69-1.12-16.15.07-.52.09-1.04.09-1.56-.02-5.76.83-11.42,2.09-17.02,1.57-6.97,3.33-13.9,4.82-20.88.77-3.62,1.2-7.33,1.64-11.01.29-2.51.36-5.05.47-7.57.24-5.48-.87-10.82-1.85-16.16-1.35-7.37-3.76-14.4-6.98-21.17-2.24-4.7-5.4-8.74-8.73-12.68-2.5-2.96-4.96-5.96-7.45-8.92-2.35-2.79-4.69-5.6-7.12-8.32-3.53-3.95-7.02-7.93-9.81-12.46-.34-.55-.53-1.2-.79-1.81,1.16-1.18,2.66-.8,4.03-.8,30.17-.02,60.33-.02,90.5-.01,1.19,0,2.4-.11,3.54.34.78.4.9,1.16.92,1.9.05,1.57.52,3.11.45,4.66-.08,1.69.67,2.82,1.92,3.77.62,2.07.69,4.14-.06,6.19-1.23,1-2.7.63-4.08.67-1.78.06-3.57.03-5.36.02-1.65,0-2.48.81-2.59,2.41-.17,2.45,0,4.91-.16,7.36-.08,1.31.9,1.38,1.81,1.41,2.75.08,5.51,0,8.26.04,1.03.02,2.1-.11,2.98.64.93,2.04.71,4.28.82,6.39.34,6.56.74,13.12,1.04,19.68.36,7.75.72,15.51,1.25,23.25.23,3.28.33,6.57.45,9.84.38,10.22,1.05,20.43,1.53,30.64.44,9.47.88,18.94,1.55,28.4.03.45.01.9-.05,1.34-.56,2-1.28,3.96-1.26,6.08,0,.66-.15,1.34-.82,1.73-.91.43-1.89.39-2.86.39-21.95,0-43.9.01-65.85,0-1.1,0-2.26.15-3.21-.65Z"/>
  <path class="cls-1" d="M630.96,486.98c-1.25,4.13-2.21,8.37-3.81,12.35-2.66,6.64-5.59,13.18-8.67,19.64-3.47,7.29-8.03,13.95-12.44,20.7-4.65,7.12-9.68,13.96-15,20.59-4.01,4.99-8.27,9.8-12.1,14.93-2.85,3.81-5.28,7.94-7.72,12.04-2.48,4.17-4.86,8.4-7.05,12.72-4.18,8.27-7.76,16.8-9.63,25.92-.91,4.43-1.46,8.93-2.18,13.4-.19,1.18-.38,2.35-.57,3.52-.89.75-1.97.62-3,.62-8.97.02-17.93.02-26.9,0-1.04,0-2.1.08-3.04-.52-.36-.33-.52-.79-.36-1.21.74-2.07.04-3.94-.74-5.81-.27-7.47-.43-14.94.1-22.4.32-4.48.14-8.97.14-13.45.01-13.08.67-26.15.54-39.23-.04-3.56.43-7.15.4-10.74,0-.67.08-1.35.44-1.94.53-.64,1.29-.68,2.04-.75.52-.05,1.05-.03,1.57-.08,5.18-.48,7.28-2.57,7.57-7.71.18-3.21.07-6.42.05-9.64-.04-6.28.78-12.51,1.23-18.76.49-6.94.62-13.87.59-20.82,0-1.24-.26-2.57.75-3.62,1.03-.6,2.17-.48,3.29-.49,30.36,0,60.73-.01,91.09,0,1.17,0,2.42-.22,3.41.71Z"/>
  <path class="cls-22" d="M518.71,642.25c.76.16,1.53.46,2.29.47,9.37.03,18.75.02,28.12.02.89,0,1.78.04,2.67.06-.56,5.55-1.12,11.11-1.69,16.79-.65.06-1.22.13-1.8.17-.45.03-.9,0-1.35,0-114.64,0-229.28,0-343.93,0-3.42,0-3,.56-4.29-2.91-1.7-4.56-2.78-9.28-3.59-14.06,1.27-.02,2.54-.05,3.81-.05,22.79,0,45.58,0,68.37,0,4.4-.18,8.8-.31,13.2-.23,1.04.02,2.1-.08,3.1.3,2.48,2.03,4.91,2.19,7.95.49,1.51-.46,3.05-.36,4.55-.05,1.44.3,2.75.12,3.98-.67.27-.03.52.02.76.15.99.66,2.11.67,3.23.67,4.03,0,8.05.11,12.08-.03,4.11-.14,8.18.41,12.28.51,2.15.05,4.15-.2,5.89-1.56,1.01-.35,2.06-.31,3.11-.31,12.47,0,24.94,0,37.41,0,1.04,0,2.09-.04,3.11.28,1.52.91,3.17,1.14,4.93,1.13,8.35-.02,16.71.16,25.02-1.01.7.03,1.34.24,1.96.57.72.41,1.45.69,2.33.62,5.66-.42,11.33,0,16.99-.23,3.24-.13,6.55-.05,9.67-1.25,1.76.44,3.55.34,5.33.37,6.69.1,13.39-.24,20.08.18,1.14.3,2.02,1.2,3.2,1.42,3.35.48,6.73.1,10.09.26,1.48-.03,2.96.02,4.42.31,3.37.67,6.26-.26,8.75-2.58,1.14-.05,2.28,0,3.4.23,2.1.87,4.28,1.2,6.55,1.15,3.87-.09,7.74-.05,11.57.68,1.69.32,3.24-.12,4.68-1.04.55-.35.99-.94,1.76-.83Z"/>
  <path class="cls-6" d="M258.64,487c-7.55-.01-15.1-.03-22.65-.03-24.22,0-48.45,0-72.67,0-.97,0-1.94.06-2.91.09-1.02-.19-1.46-.97-1.83-1.8-1.8-4.01-3.62-8.02-5.35-12.06-.31-.71-.24-1.59-.34-2.39,3.12-.15,6.25-.31,9.37-.46,1.77-.4,3.59-.11,5.37-.39,5.66.41,11.31.35,16.98.19,15.75-.44,31.5.57,47.25.42.6,0,1.19.03,1.79.08q3.39.31,4.08-2.9c.63-1.22,1.4-.46,2-.04,3.75,2.58,7.82,4.61,11.72,6.94,1.73,1.03,3.53,1.92,5.41,2.65,1.41.55,2.14,1.51,2.09,3.07-.05,1.49.05,2.97.31,4.45.13.77.3,1.66-.62,2.18Z"/>
  <path class="cls-6" d="M630.96,486.98c-32.6,0-65.2.01-97.8.02-.7-.44-.97-1.16-1.01-1.89-.16-3.11-.63-6.19-.8-9.3-.02-.38.11-.73.33-1.04,2.41-.99,5.01-.89,7.49-.93,6.5-.1,13-.45,18.6-.32-1.37-.01-3.66.05-5.94-.03-.63-.02-1.8.39-1.52-1.07,1.09-.68,2.31-.51,3.49-.51,11.65-.01,23.29-.13,34.94.03,9.26.13,18.49-.58,27.75-.53,2.53.01,5.04-.62,7.59-.35,1.72.09,3.52-.47,5.1.66,1.67-.06,2.89.92,4.14,1.82-.11,4.6-1.04,9.05-2.35,13.44Z"/>
  <path class="cls-4" d="M258.64,487c-.11-2.44-.24-4.88-.31-7.33-.03-.9-.54-1.27-1.25-1.64-4.27-2.24-8.55-4.46-12.78-6.8-2.13-1.18-4.15-2.57-6.22-3.87-2.04-.2-3.17-1.86-4.63-2.95-1.37-1.02-2.38-2.46-3.75-3.52-1.02-.79-1.1-2.05-1.15-3.27-.73-18,1.35-35.62,7.32-52.69.69-1.97,1.34-3.96,1.85-5.99,3.02-5.81,6.19-11.52,9.86-16.98,4.27-6.35,9.36-11.57,16.54-14.51.76-.31,1.47-.72,2.15-1.19,1.5-.81,2.9-1.93,4.78-1.56.97.55,1.39,1.53,1.86,2.46,1.29,2.53,2.58,5.06,3.82,7.61.72,1.5,1.59,2.81,3.07,3.74,1.6,1.01,2.15,2.85,2.75,4.51,2.11,5.75,4.32,11.46,6.53,17.17,2.99,7.74,5.42,15.66,8,23.53.22.68.3,1.46,1.1,2.01.79-1.66.95-3.38,1.22-5.04,1.73-10.63,3.87-21.15,7.94-31.19.87-2.15,1.19-4.47,1.91-6.67.29-.88.6-1.75,1.56-2.05,2.39-.76,3.68-2.67,5.01-4.58.84-1.21,1.38-2.68,2.78-3.44.99-.23,1.68.35,2.41.86,3.51,2.46,6.04,5.81,8.43,9.29.11.18.21.37.3.56.15.28.3.56.46.84,1.38,2.22,2.27,4.66,3.2,7.08.17.58.45,1.12.65,1.7,1.92,5.62,2.69,11.47,3.02,17.34.65,11.44,1.08,22.9,1.19,34.36,0,3.66,1.27,7,2.66,10.31,3.47,8.23,6.96,16.45,10.44,24.68,0,1.1-.87,1.75-1.55,2.29-3.21,2.57-6.66,4.82-10.19,6.95-1.09-.27-1.52-1.3-2.27-1.97-3.78-4.8-7.72-9.48-10.28-14.31.33,1.68.07,4.11.1,6.52.03,2.54.08,5.08-.04,7.61-.04.36-.15.7-.36,1-.26.26-.59.36-.95.37-1.42-.35-2.55-1.27-3.83-1.91-2.86-4.19-2.5-3.4-6.49-1.5-3.94,1.88-7.09,4.88-10.57,7.43-.88.65-1.04,1.4-.25,2.26.58.63.62,1.17-.28,1.54-2.66.99-5.47.66-8.2.87-8.01.62-16.04,1.25-24.09,1.04-2.9-.08-5.78-.54-8.7-.46-.67.02-1.34-.11-1.87-.61-2.25-.42-2.21-.42-2.34-2.63-.15-2.42-.37-4.84-.56-7.26Z"/>
  <path class="cls-6" d="M238.01,366.6c.02-.82.07-1.64.07-2.46,0-37.34,0-74.68-.01-112.01,0-1.33-.23-2.67-.35-4-.86-.13-1.73-.36-2.59-.36-19.74-.02-39.49-.02-59.23-.02h-2.67c-.23-1.85.45-3.17,1.24-4.42.18-.29.75-.42,1.16-.47.66-.08,1.34-.02,2.02-.02,52.05,0,104.1,0,156.15,0,.6,0,1.2-.05,1.79.02,1.66.19,2.53,1.04,2.67,2.73.19,2.3.42,4.6.42,6.9.02,63.18.02,126.35,0,189.53,0,.93-.27,1.85-.41,2.78-.12-.42-.33-.83-.35-1.25-.2-4.32-.37-8.64-.56-12.96-.3-6.85-.51-13.71-.94-20.55-.37-5.88-1.37-11.67-3.05-17.34.14-.56-.07-1.1-.11-1.65-.92-2.19-.41-4.5-.55-6.74-.06-.39-.25-.62-.7-.56-.2.04-.39.06-.6.08-.77.04-1.53.05-2.15-.52-1.11-1.39-2.25-2.76-3.33-4.18-1.91-2.52-4.23-4.58-6.92-6.22-.9-1.21-1.66-2.54-3.19-3.13-.5-.19-.78-.64-.51-1.24.47-.51,1.06-.46,1.66-.4,4.25.36,8.49.18,12.73-.07,1.18-.07,2.92.34,2.94-1.81-.03-11.72-.11-23.44.04-35.15.01-1.06.19-2.08.41-3.09.05-1.22.17-2.44-.25-3.63-.07-.28-.11-.56-.13-.84-.16-1.34-.12-2.68-.12-4.03,0-22.31,0-44.61,0-66.92,0-1.18.19-2.4-.38-3.51-.67-.83-1.6-.68-2.49-.68-22.27,0-44.53,0-66.8,0-.8,0-1.66-.17-2.32.51-.53,1.47-.17,2.97-.17,4.45-.02,35.55-.02,71.09-.02,106.64,0,.75,0,1.49,0,2.24q.01,3.59,3.51,3.76c.89.04,1.81-.02,2.51.71-1.04.58-2.03,1.26-3.11,1.73-5.3,2.28-9.56,5.86-12.88,10.49-3.53,4.91-7.07,9.84-9.69,15.34-.51,1.08-.92,2.21-1.45,3.28-.21.43-.63.75-.95,1.12-.9-.45-.85-1.34-.85-2.12-.05-3.75,0-7.5-.36-11.24.03-.22.07-.43.04-.66-.18.14-.29.36-.53.44-1.01.35-2.06.26-3.1.26-6.47.01-12.93-.03-19.4.02-3.06.02-6.09-.13-9.1-.61-.98-.27-1.97-.52-2.99-.11-1.03.2-2.06.19-3.08-.02-3.5-.45-7-.38-10.5-.03-.53.11-1.05.11-1.58.02-2.59-.38-5.17-.44-7.75.08-1.89.03-3.87.78-5.6-.62-.52-.57-.44-1.14-.22-1.86,1.2-3.91,2.33-7.85,3.49-11.78.56-1.91.59-1.93,2.9-1.93,18.47,0,36.95,0,55.42,0,.88,0,1.76,0,2.87,0v-1.91Z"/>
  <path class="cls-6" d="M588.75,384.05c-1.22.83-2.57,1.05-4.03,1.04-10.59-.02-21.18,0-31.77,0-.81,0-1.62,0-2.72,0-.05,5.65-.11,11.13-.16,16.61-1.37-.4-1.24-1.73-1.58-2.7-1.45-4.14-2.7-8.35-4.51-12.36-2.56-5.69-5.87-10.84-10.55-15.05-.79-.71-2.1-1.32-1.57-2.84,1.08-.57,2.34-.47,3.46-.88,5.89-2.15,8.45-6.15,5.52-12.2-1.24-2.56-2.91-4.86-4.16-7.43-2.66-5.5-3.46-11.39-4.17-17.34-.71-5.95-1.7-11.84-4.2-17.36-.31-.68-.55-1.39-.39-2.17-.08-19.6,0-39.19-.04-58.78,0-3.05-.14-3.19-3.13-3.2-21.09-.01-42.19-.01-63.28,0-2.91,0-3.07.15-3.07,3.02,0,37.17,0,74.33,0,111.5,0,.6.04,1.2.07,1.79.1,1.71.92,2.51,2.7,2.54,3.13.06,6.28-.29,9.4.23.63.2,1.02.68,1.04,1.3.05,2.23,1.51,3.02,3.39,3.4.77.86.1,1.55-.36,2.16-2.21,2.91-4.54,5.73-6.65,8.71-.45.63-1.06,1.04-1.84,1.17-1.57.19-3.09.08-4.62-.4-2.56-.8-3.14-.31-3.17,2.47-.05,4.54.08,9.08-.07,13.61-1.15,4.09-3.09,7.88-4.58,11.84-.16.43-.46,1.03-1.15.53-.76-1.31-.23-2.64.01-3.92.49-2.62.33-5.18-.31-7.73-.18-.7-.5-1.44.06-2.13.14-.93.4-1.86.4-2.79.02-49.56.01-99.12.04-148.69,0-1.17.24-2.35.44-3.52.15-.87.78-1.21,1.63-1.2,1.27.01,2.54.03,3.81.03,46.58,0,93.17,0,139.75,0,3.14,0,3.15,0,3.92,3.15.17.72.25,1.45.36,2.18-17.39,0-34.79,0-52.31,0-.08.79-.19,1.36-.19,1.93,0,38.55,0,77.1,0,115.64,0,.3.03.6.04.89,0,.66,0,1.31,0,2.2h49.95c1.33,4.85,3.23,9.34,4.49,14.44h-2.52c-3.73,0-7.47-.02-11.2.01-.72,0-1.45.19-2.17.29Z"/>
  <path class="cls-2" d="M322.14,486.03c1.19.64,2.38,1.28,3.57,1.91.37.23.8.14,1.19.26.92.35,1.64,1.01,2.4,1.6,2.49,1.94,2.64,3.08.73,5.56.5,1.36,1.56,2.47,2.13,3.83.37.87,1.04.93,1.85.67,2.48-.78,4.91-1.73,7.36-2.59,1.38-.49,2.03-1.88,2.82-3.05-.11-1.08-1.61-1.49-1.23-2.74,1.58-2.48,4.52-3.32,6.49-5.35.77-.79,1.71-1.42,2.54-2.17.52-.47,1.05-1.16,1.92-.58.76.77,1.47.51,2.15-.11,1.61-1.45,3.2-2.91,4.81-4.35,4.16-3.73,8.34-7.45,12.49-11.18.89-.8,1.67-1.72,2.57-2.5.54-.47,1.21-.8,1.82-1.2.47.09.82.38,1.05.76,2.29,3.8,4.76,7.5,6.91,11.38.22.39.34.82.3,1.28-.38,1.09-1.42,1.48-2.24,2.09-5.02,3.76-10.41,6.99-15.36,10.84-.14.15-.3.28-.46.4-.33.24-.68.46-1.01.7-3.75,2.48-7.15,5.43-10.9,7.92-1.02.76-2.04,1.52-3.03,2.32-.48.34-1.04.57-1.45,1.01-.39.44-.9.83-.64,1.57.95.62,2.02.37,3.04.37,19.6.05,39.2,0,58.79.01,2.09,0,4.19-.05,6.27.32,1.39.25,2.66-.07,3.84-.84.87-.57,1.75-1.16,2.82-1.32,6.65.1,13.29.02,19.94.06.68,0,1.35.01,1.92-.44.52-.24,1.07-.28,1.63-.2,2.94.53,5.91.05,8.87.2.81.04,1.63,0,2.44.13.28.04.55.1.82.18,1.03.27,2.08.17,3.13.17,12.18,0,24.36,0,36.54,0,1.12,0,2.24-.1,3.35.18,1.22.47,1.32,1.47,1.26,2.58-.13,2.46-.15,4.92.01,7.38.17,2.53-.4,3.23-2.99,3.27-4.7.08-9.4.08-14.11,0-1.27.13-2.54.06-3.81.06-69.94,0-139.89,0-209.83,0-.97,0-1.95.05-2.91-.06-2.35.09-4.7.04-7.05.03-.88,0-1.78-.01-2.5-.66-3.74-.01-7.48-.03-11.22-.04-.52,0-1.05.02-1.57-.05-.79-.11-1.11-.58-1.05-1.41.15-2.3.23-4.61.34-6.91.03-.67-.08-1.39.12-2,.63-1.95.51-2.21,2.72-2.19,3.29.02,6.58-.01,9.87-.02,1.09-.94,2.41-.63,3.65-.63,14.71-.02,29.41-.01,44.12-.02.8,0,1.63.17,2.58-.25-1.06-2.45-3.5-3.8-4.75-6.03-.29-1.08.53-1.47,1.23-1.84,3.7-1.98,7.07-4.44,10.32-7.08.92-.75,1.87-1.84,3.36-1.22Z"/>
  <path class="cls-31" d="M378.23,462.32c3.58-2.55,7.17-5.09,10.75-7.64,3.46-2.47,6.88-5,10.38-7.42,1.39-.96,2.96-1.67,4.45-2.49.88.26,1.19,1.08,1.68,1.73,3,4.03,6.86,6.73,11.97,6.98,4.46.22,8.13-1.58,10.77-5.28.39-.55.59-1.21,1.06-1.71.9-.49,1.76-.09,2.6.15,9.29,2.6,16.68,7.78,21.73,16.11.23.39.51.73.79,1.09,1.64,2.43,2.57,5.21,3.79,7.85.22.78.56,1.56.04,2.35-5.11,1.61-10.33,2.83-15.51,4.15-.65.17-1.31.28-1.93.56-1.01.45-.56,1.01-.07,1.55,1.42,2.14,2.35,4.51,3.21,6.89.83,2.28,0,3.39-2.46,3.54-1.42.09-2.86.17-4.26-.02-6.89-.95-13.85-.97-20.74-1.79-1.62-.19-3.29-.19-4.82-.85-.76-1,.31-1.12.76-1.39,2.43-1.47,4.66-3.22,7.01-4.8.52-.35,1.23-.58,1.35-1.92-4.34,2.31-7.83,5.36-11.7,7.79-3.14.59-5.96,2.01-8.81,3.37-1.61.34-3.14.36-4.34-1.03-.53-1.29-.5-2.68-.29-3.97.67-4.06.04-8.2.79-12.25.09-.5.16-1.04-.12-1.73-2.05,1.4-3.87,3.02-5.77,4.52-.64.5-1.18,1.17-2.1,1.13-1.03-.34-1.33-1.33-1.84-2.11-2.89-4.39-5.3-9.08-8.34-13.38Z"/>
  <path class="cls-33" d="M404.73,443.8c.03-1.06-.1-1.95-1.14-2.66-4.67-3.17-7.39-7.83-9.53-12.87-.36-.84-.73-1.33-1.63-1.58-1.37-.38-2.34-1.35-2.81-2.67-.97-2.73-1.1-5.49.17-8.19.48-1.03,1.21-1.68,2.43-1.57.98.04.75,1.23,1.49,1.54.77-.26.73-1.05.9-1.64,1.56-5.34,4.49-9.9,8.06-14.1.49-.57,1.01-1.11,1.63-1.53,1.07-.72,1.81-.69,2.41.69,1.42,3.29,3.02,3.87,6.36,2.53.55-.22,1.08-.51,1.63-.75,2.11-.93,2.76-.74,4.12,1.2,2.28,3.25,3.37,3.53,6.91,1.81,3.46-1.67,4.2-1.51,6.39,1.4,1.8,2.39,2.69,2.68,5.56,1.81,2.96-.9,3.75-.34,3.93,2.78.14,2.53-.21,5.09.23,7.61.61,3.5,2.13,4.41,5.53,3.42,1.15-.34,2.19-.97,3.33-1.34,3.16-.13,4.69,1.46,4.36,4.52-.11,1.04-.5,2-.84,2.97-1.3,2.94-2.57,5.9-6.3,6.48-2.09-.3-3.45.62-4.65,2.32-2.79,3.94-6.58,6.67-11.15,8.25-1.23.42-2.37.91-3.06,2.1-.46.49-1.05.85-1.44,1.4-4.04,5.66-11.86,6.51-17.88,1.96-2.1-1.58-3.9-3.46-5-5.9Z"/>
  <path class="cls-5" d="M450.5,420.12c-1.45,1.34-3.28,1.73-5.15,1.92-1.91.2-3.61-1-3.83-2.95-.32-2.81-.33-5.65-.53-8.47-.08-1.15-.31-2.29-.52-3.71-1.29.44-2.28.72-3.22,1.1-2.03.81-3.64.25-4.94-1.41-.51-.65-.98-1.31-1.47-1.98-.95-1.3-1.55-1.52-3.03-.93-.97.39-1.87.92-2.82,1.36-2.69,1.27-4.51.76-6.15-1.69q-1.9-2.84-5.09-1.29c-.4.2-.82.35-1.23.53-2.93,1.28-6.23-.28-6.43-3.61-.01-.22-.08-.43-.2-1-.79.66-1.49,1.14-2.08,1.74-4.37,4.47-7.32,9.76-9.01,15.75-.2.71-.21,1.51-1.47,1.68-.36-.95-.75-1.94-1.13-2.94-.36-3.49-.7-6.98-1.09-10.46-.46-4.18.47-7.99,2.9-11.44,3.99-5.66,9.44-9.03,16.19-10.33,1.25-.24,2.39-.24,3.11-1.72.35-.72,1.72-1.22,2.68-1.33,4.65-.54,9.26-.5,13.5,1.93,1.04.59,2.08,1.18,3.11,1.78,1.53.89,2.97,1.76,4.96,1.65,1.12-.07,2.47.67,3.42,1.42,4.76,3.73,8.72,8.16,11.31,13.7.29,1.14.61,2.28.87,3.42.61,2.66.2,5.28-.27,7.91-.16.87-.24,1.76-.36,2.64.49,2.59.38,5-2.05,6.7Z"/>
  <path class="cls-6" d="M167.18,400.36c.02.22.05.45.05.67,0,23.11-.01,46.23-.02,69.34-1.65.68-3.3.68-4.95-.01,0-17.68.11-35.36-.06-53.03-.04-4.61,1.06-8.81,2.61-13.01.49-1.32,1.02-2.63,1.53-3.95.28-.27.56-.27.84,0Z"/>
  <path class="cls-6" d="M624.1,471.68c.02-6.28.05-12.56.06-18.83.02-8.37.03-16.74.04-25.11.16-.16.31-.16.47,0,1.45,3.25,2.95,6.48,4.33,9.75.27.64.15,1.47.15,2.21.01,10.67.01,21.35.02,32.02-1.69-.01-3.38-.02-5.07-.03Z"/>
  <path class="cls-8" d="M353.93,483.38c-1.22.92-2.45,1.84-3.67,2.77-2.36,1.78-4.73,3.55-7.09,5.33-1.12.83-2.23.69-3.21-.17-.78-.68-1.11-1.55-.36-2.51,1.61-1.18,3.16-2.45,4.85-3.52,2.51-1.59,4.93-3.26,6.91-5.5.54.23,1.12.38,1.6.7,1.34.87,1.41,1.19.97,2.91Z"/>
  <path class="cls-28" d="M404.73,443.8c.59.64,1.23,1.24,1.77,1.92,3.11,3.95,6.9,6.55,12.19,6.32,3.35-.14,5.96-1.62,8.1-4.13.6-.71,1.4-1.25,2.11-1.87.46-.02.68.18.62.65-1.6,4.02-4.78,6.23-8.83,7.01-6.48,1.26-11.38-1.62-15.35-6.48-.6-.74-1.03-1.63-1.54-2.45.31-.32.62-.65.93-.97Z"/>
  <path class="cls-28" d="M378.23,462.32c.45.35,1.06.6,1.34,1.05,2.88,4.71,5.7,9.46,8.54,14.2.46.91-.04,1.44-.84,1.5-.95.08-1.37-.59-1.37-1.52-2.71-4.51-5.41-9.01-8.12-13.52.15-.57.3-1.15.45-1.72Z"/>
  <path class="cls-3" d="M167.18,400.36c-.28,0-.56,0-.84,0,.3-.45.59-.91.89-1.36-.02.45-.03.91-.05,1.36Z"/>
  <path class="cls-3" d="M624.68,427.73c-.16,0-.32,0-.47,0-.09-.28-.17-.55-.26-.83.24.27.49.55.73.82Z"/>
  <path class="cls-15" d="M262.41,515.74c3.14.02,6.28.05,9.42.07,1.18,1.61.63,3.46.69,5.21.11,3.55.29,3.79,3.86,3.84,1.94.02,3.88-.06,5.83.07,1.51.1,2.31.88,2.4,2.4.04.67.06,1.34.06,2.01,0,33.76,0,67.52,0,101.28,0,1.11.1,2.25-.37,3.31-.58.9-1.52.95-2.39.81-4.28-.71-8.46-.26-12.6.9-.22.06-.44-.03-.65-.09-.33-5.88-.66-11.77-.98-17.65-.53-9.68-1.08-19.37-1.58-29.05-.4-7.68-.72-15.36-1.12-23.03-.5-9.61-1.07-19.22-1.57-28.83-.36-7.08-.65-14.16-.98-21.24Z"/>
  <path class="cls-15" d="M307.18,495.53c2.21,2.4,4.42,4.81,6.86,7.46-.75.12-1.2.26-1.65.26-16.4.01-32.8.01-49.21,0-.52,0-1.04-.09-1.56-.13-.03-2.08-.06-4.15-.08-6.23,3.35.14,6.69.26,10.04.41,3.48.15,6.96-.12,10.44-.07,2.88.04,5.76-.47,8.64-.74.3-.03.59-.06.89-.07,3.35-.16,6.69-.27,10.04-.48,1.18-.07,2.35-.38,3.52-.57.73-.45,1.42-.47,2.06.17Z"/>
  <path class="cls-24" d="M268.64,635.55c2.2-1.48,4.76-1.63,7.25-1.71,2.66-.09,5.33.23,8,.37,1.2,3.01,1.29,6.02-.05,9.02-4-.01-7.99-.04-11.99-.02-.8,0-1.6.22-2.4.32-.83.1-1.65.15-2.1-.79-.1-2.49-.08-4.96,1.3-7.19Z"/>
  <path class="cls-12" d="M488.65,515.81c4.63-.03,9.26-.06,13.88-.09.52,0,1.05.03,1.57-.03.79-.1,1.04-.54,1.02-1.39-.08-3.18-.03-6.37-.1-9.56,0-.39-.43-.78-.67-1.16-.26-.17-.55-.22-.85-.22-14.2.04-28.41-.09-42.61.07-.07-.15-.19-.22-.35-.22-.47-1.01-.26-2.03-.11-3.07.65-4.42,1.69-8.77,2.16-13.22.52-3.85,0-7.77.68-11.61.12-.66.05-1.34.3-1.98.57-1.16,1.71-1.38,2.8-1.57,6.68-1.17,13.21-2.94,19.77-4.63.83-.15,1.66-.48,2.5-.06,2.44,4.84,4.26,5.56,9.58,3.79,2.53-.84,5.14-1.54,7.2-3.39,7.02-1.95,13.14-5.87,19.62-9.01.75-.36,1.45-.79,2.32-.38,1.1.88,1,2.34,1.69,3.42,1.03,3.57,2.11,7.12,2.77,10.78.15.85.53,1.73-.02,2.59.46,4.04.92,8.09,1.37,12.13.03,2.02.16,4.04.08,6.05-.25,6.27-.57,12.54-.88,18.81-.38,7.76-1.31,15.49-1.11,23.28.07,2.75-.28,5.52-.42,8.28-.05,1.04-.48,1.66-1.43,2.28-3.03,2-6.35,2.48-9.84,2.42-1.05.82-2.3.67-3.45.56-5.5-.54-11-.65-16.51-.45-2.78,0-5.51.45-8.26.79-4.3.19-8.52,1.04-12.77,1.59-.94.12-1.92.41-2.72-.43-.48-.81-.46-1.72-.46-2.62-.01-6.35-.04-12.7,0-19.05.02-3.1.53-3.56,3.73-3.62,2.02-.04,4.04.03,6.05-.02,2.44-.06,2.69-.32,2.77-2.72.04-1.27-.02-2.54.03-3.81.03-.89-.04-1.81.69-2.51Z"/>
  <path class="cls-23" d="M499.43,547.62c5.08-.44,10.14-.3,15.21.26,1.63.18,3.28.15,4.92.22-.12,3.72-.23,7.44-.34,11.16-.02.6-.02,1.2-.02,1.79-.01,6.88.03,13.75-.04,20.63-.11,10.22-.01,20.46-.53,30.66-.41,7.99-.18,15.96-.31,23.94-.59.86-1.44.6-2.22.49-3.31-.44-6.48-.12-9.5,1.46-1.59.83-3.36,1.16-5.18,1.03-1.15-.08-2.23-.33-2.57-1.67.5-1.59,1.98-1.96,3.26-2.46,1.93-.76,2.41-1.96,2.26-4-.58-7.58-1.05-15.17-1.6-22.75-.53-7.43-1.07-14.87-1.6-22.3-.53-7.36-1.06-14.72-1.51-22.09-.27-4.46-.79-8.91-.88-13.39-.02-1.03-.13-2.11.67-2.97Z"/>
  <path class="cls-12" d="M498.92,637.66c1.4,1.66,3.25,1.11,4.97.9.93-.11,1.9-.46,2.72-.92,3-1.69,6.19-1.82,9.48-1.39.73.1,1.47.03,2.21.03,1.43,1.9,1.43,3.89.41,5.96-1.82,2.21-4.11,2.78-6.95,2.46-4.2-.47-8.44-.56-12.66-.82-1.68-.11-3.45.11-4.84-1.19-1.06-1.5-.99-2.84.4-3.98,1.21-.99,2.55-1.87,4.25-1.04Z"/>
  <path class="cls-1" d="M378.32,642.75c-14.7,0-29.41-.01-44.11-.02-.71-.72-.77-1.74-1.21-2.59-1.03-2.01-2.21-3.83-4.38-4.81-1.03-.47-1.87-1.2-2.16-2.39-.45-1.83-.59-3.69-.59-5.57.01-6.21-.06-12.41.01-18.61.3-26.39-.73-52.76-.45-79.15.01-1.4-.26-2.86.6-4.15.98-.73,2.12-.62,3.23-.62,20.82-.01,41.65-.01,62.47,0,.97,0,1.95-.04,2.86.39.89.6.82,1.52.77,2.42-.54,8.49-1.43,16.95-2.29,25.42-1.43,13.97-3.69,27.83-5.38,41.77-.76,6.25-1.25,12.62-.35,18.99.41,2.9,1.58,4.75,4.61,5.11,1.32.46,1.67,1.52,1.7,2.78.02.88.11,1.75.23,2.62-.01,2.29-1.39,3.8-2.99,5.17-.61.38-1.16.85-1.68,1.35-.53.45-1.14.79-1.66,1.26-.15.14-.3.27-.46.39-.16.13-.32.24-.49.35-1.14.83-2.41,1.53-3.18,2.79-.19.25-.41.47-.65.66-2.22,1.64-2.85,4.38-4.45,6.45Z"/>
  <path class="cls-13" d="M394.77,525.59c-4.56.01-9.11.04-13.67.04-18.3,0-36.6,0-54.9.01-.76.58-1.65.64-2.55.64-8.34-.02-16.68.09-25.01-.05-1.32.02-2.64.07-3.95,0-1.78-.11-2.61.57-2.45,2.41.06.73.06,1.46,0,2.2-.02,33.59.14,67.18.08,100.77,0,.97.04,1.94-.06,2.91.09,2.2.04,4.41.03,6.61,0,.88-.04,1.77-.66,2.5-.48.97-1.26,1.37-2.33,1.33-1.18-.04-2.36.02-3.53-.03-1.06-.05-1.84-.5-1.91-1.7.02-3.01.04-6.01.05-9.02.02-.75.04-1.49.04-2.24,0-34.48,0-68.96,0-103.45v-2.93c-1.5,0-2.75,0-4,0-1.72,0-3.44,0-5.16,0-2.57-.02-2.93-.39-2.95-3.04-.01-2.24,0-4.49,0-6.73.82-.03,1.64-.08,2.46-.09,70.63,0,141.26,0,211.9,0,.82,0,1.64.06,2.46.08,0,2.24,0,4.48,0,6.72q0,3.04-3.16,3.05c-2.32,0-4.63,0-6.95,0-.73,0-1.45.07-2.37.12v24.74c.64.74.62,1.66.62,2.55,0,28.38.08,56.77-.03,85.15.03,2.28-.53,4.67,1.13,6.69-3.08.07-6.16.16-9.25.17-.51,0-1.03-.36-1.54-.55-.87-1.72.1-3.51-.22-5.25-.13-12.86-.04-25.71-.05-38.57-.02-15.62,0-31.24,0-46.86,0-.82-.04-1.64.06-2.46-.09-7.32,0-14.64-.05-21.96-.02-2.89-.18-3.03-3.04-3.06-2.61-.03-5.23.06-7.85-.05-2.01.04-4.02.13-6.03-.11-1.26-.19-2.52-.29-3.8-.29-16.38.02-32.77-.03-49.15.03-.75,0-1.5.07-2.2-.28Z"/>
  <path class="cls-1" d="M467.52,551.26c-.03.67-.08,1.34-.08,2.01,0,28.06,0,56.12,0,84.17,0,.67.05,1.34.08,2.01-1.17,1.04-2.05,2.29-2.71,3.7-7.93,0-15.85,0-23.78-.02-.92,0-2.03.32-2.39-1.03-.67-1-.5-2.14-.47-3.23.1-3.48-.25-6.93-.74-10.37-.18-1.23-.62-2.26-1.55-3.08-1.02-1.95-.62-3.86.19-5.76,2.02-.64,2.84-2.05,2.51-4.11-.98-6.23.96-12.13,1.91-18.16,1.42-9.07,2.3-18.21,3.07-27.36.46-5.51,1.63-10.93,2.3-16.41,1.09-8.89,2.86-17.69,3.55-26.64.04-.52.13-1.04.53-1.44,1.93.02,3.86.04,5.79.05.92.74.41,1.66.26,2.48-.5,2.79-.83,5.62-1.47,8.36-1.39,5.94,2.16,12.45,9.72,13.83.78.29,1.6.26,2.41.39.36.09.65.28.85.59Z"/>
  <path class="cls-1" d="M498.92,637.66c-.71.17-1.43.29-2.12.53-2.36.81-3.01,1.98-2.54,4.5-1.21-.12-2.55.55-3.57-.61-.59-1.74-.4-3.72-1.63-5.26-.39-5.52-.36-11.05,0-16.57.05-.82.23-1.63.21-2.46-.29-10.84.46-21.66.48-32.5.02-10.16.63-20.31.48-30.48-.03-2.13.04-4.34,1.02-6.35,2.72-.28,5.45-.56,8.17-.84-.12,4.77.32,9.51.84,14.24.24,2.21.35,4.45.47,6.67.18,3.34.27,6.69.5,10.03.2,2.89.53,5.76.8,8.64.03.37.04.74.06,1.12.16,3.34.28,6.69.49,10.03.26,4.23.59,8.45.89,12.67.3,4.22.57,8.45.9,12.67.22,2.81.52,5.62.83,8.42.2,1.8-.22,2.46-1.97,3.28-1.47.68-2.88,1.49-4.32,2.25Z"/>
  <path class="cls-1" d="M291.59,530.51v-4.87h6.42c1.1.3.91,1.26.97,2.02.12,1.49.07,2.99.04,4.48-.21,12.25.74,24.46,1,36.7.18,8.5.56,17,.88,25.49.47,12.37,1.14,24.74,1.26,37.12,0,.82.04,1.64-.06,2.46-.48,2.94-.45,5.97-1.62,8.79h-.15s-.15,0-.15,0c-1.39-3.21-3.62-5.9-5.56-8.78-.47-2.28-.62-4.59-.62-6.91.02-13.22-.73-26.43-.99-39.65-.2-10.38-.61-20.75-.81-31.13-.15-8.21-.17-16.43-.4-24.64-.01-.37,0-.75-.22-1.08Z"/>
  <path class="cls-1" d="M409.49,643.14c-.42-.17-.85-.34-1.27-.51-.77-.51-.99-1.33-.96-2.15.1-3.13-.57-6.23-.5-9.35.05-2.29-.27-4.44-1.59-6.37-.32-1.52-.41-3.03.14-4.52,2.71-2.33,2.69-5.61,2.68-8.69-.02-5.52.93-10.85,2.23-16.16,2.06-8.45,2.9-17.08,3.67-25.72.75-8.48,1.45-16.97,2.89-25.37.2-1.16.07-3.02,1.72-2.94,1.36.06,1.47,1.82,1.48,2.94,0,5.14.81,10.25.35,15.42-.51,5.8-.57,11.63-1.04,17.43-.61,7.59-1.05,15.19-1.64,22.78-.4,5.14-.2,10.31-.07,15.46.03,1.12.32,2.22,1.05,3.14,1.12,1.3,2.95.16,4.14,1.19.94,1.72.39,3.47.09,5.22-.05,1.58-.57,2.98-1.6,4.18-.56.58-1.42.8-1.88,1.52-.3.38-.6.77-.94,1.12-.54.47-1.51.36-1.71,1.29-.27.54-.64,1.01-1.09,1.4-.81.55-1.72,1-2.12,1.99-1.99,1.84-3.3,4.09-4.04,6.68Z"/>
  <path class="cls-27" d="M405.35,624.81c1.54.51,1.85,1.81,1.94,3.18.26,3.92.46,7.85.69,11.77.06.96.16,1.91.24,2.86-.54.19-1.07.5-1.62.56-8.63,1.01-17.29.71-25.95.84-1.06.02-1.93-.17-2.34-1.28.54-2.19,1.66-4.08,3.07-5.8.3-.37.8-.57,1.2-.86,1.85.25,3.72.16,5.58.16.77,0,1.5-.05,1.81-.93,1.31-1.44,3.15-.46,4.64-1.02.34-.48-.06-.61-.37-.78-1.85-.14-3.7.02-5.54-.09-.82-.05-1.86.15-2.06-1.11h.03c.26-.04.37-.24.5-.43.59-.4,1.17-.8,1.76-1.2,2.23.45,4.46.97,7.06.41-2.03-.89-4.51.5-5.74-1.84,1.67-1.08,2.74-2.62,3.45-4.45.34-.46.84-.63,1.36-.65,2.97-.16,5.95-.16,8.92,0,.53.03,1.02.19,1.37.65Z"/>
  <path class="cls-27" d="M409.49,643.14c-.31-2.34.69-4.14,2.32-5.7.53-.51.97-1.1,1.45-1.65,3.85-.34,7.72-.49,11.6-.74-2.29-.19-4.59-.2-6.88-.22-1.03,0-2.1.23-3.08-.32.49-.55.99-1.11,1.48-1.66.2-.15.42-.23.67-.23,3.1.04,6.2.26,9.26-.12-1.64-.8-3.36-.21-5.03-.38-1.06-.11-2.21.24-3.15-.57.32-.37.64-.73.95-1.1,3.25-.2,6.51.11,9.78-.28-1.59-.35-3.22-.21-4.83-.28-1.08-.05-2.25.26-3.15-.68.5-1.33.99-2.66,1.49-3.99,1.4-1.08,3.1-1.21,4.69-1.07,3.02.27,6.11-.08,9.04,1,.55.23,1.09.46,1.64.69.75,5.4,1.4,10.8.88,16.26-.29,1.15-.92,1.6-2.21,1.62-7.6.08-15.2.27-22.8.43-.59.01-1.18.11-1.77.19-1.08.15-1.91-.16-2.37-1.21Z"/>
  <path class="cls-24" d="M300.48,642.7c-.04-2.92.38-5.78,1.18-8.59,1.34-1.31,3.06-1.47,4.78-1.46,3.72.02,7.45-.2,11.17.33,1.98.28,4.02.17,6.02-.15,1.19-.19,2.41-.29,3.23.9.91.51,1.85.97,2.72,1.53,2.71,1.76,4.29,4.23,4.62,7.48-.7,1.35-1.79,1.79-3.31,1.75-9.53-.19-19.07-.32-28.61-.44-1-.01-1.81-.1-1.81-1.36Z"/>
  <path class="cls-12" d="M489.58,637.24c1.01.42,1.34,1.26,1.33,2.26-.01.86-.14,1.72-.21,2.57-1.21,2.68-3.54,3.46-6.19,3.39-2.21-.06-4.41-.41-6.61-.63-.53-.21-1.06-.41-1.76-.69v-5.6c1.63-1.3,3.49-1.99,5.56-1.87,2.63.16,5.33-.6,7.89.56Z"/>
  <path class="cls-24" d="M295,634.63c2.93,1.92,4.52,4.69,5.17,8.07-.21,1.29-1.14,1.38-2.17,1.32-2.13-.13-4.26-.26-6.39-.39,0-3,0-6.01-.01-9.01,1.14-.75,2.27-.84,3.4.01Z"/>
  <path class="cls-12" d="M464.82,643.15c-.43-2.21.99-3.06,2.71-3.7-.14,1.67-.29,3.33-.43,5-.76-.43-1.52-.87-2.28-1.3Z"/>
  <path class="cls-6" d="M531.78,474.86c-1.06-4.48-2.12-8.96-3.18-13.44-.49-1-.43-2.09-.5-3.16.12-1.18,1.01-1.81,1.88-2.36,4.42-2.81,8.15-6.47,12.08-9.88,2.15-1.86,3.64-4.34,5.79-6.19.65-.56,1.13-1.44,2.19-1.33.03.89.1,1.79.1,2.68.01,10.46.01,20.92.02,31.38.69.17,1.37.47,2.06.48,2.46.06,4.92.01,7.39.03.64,0,1.27.08,1.97.51-.35.13-.69.35-1.04.36-6.4.17-12.79.29-19.19.48-3.19.09-6.38.29-9.57.44Z"/>
  <path class="cls-22" d="M572.46,473.39h-7.01c0-.07,0-.15,0-.22h7.08c-.02.07-.05.15-.07.22Z"/>
  <path class="cls-10" d="M270.89,364.8c-.03-.81.36-1.11,1.16-1.29,1.58-.35,3.12-.88,4.68-1.33.76-.43,1.24.03,1.31.66.51,4.53,3.79,7.73,5.58,11.64.62,1.36,1.32,2.68,1.82,4.09,2.39,6.76,5.21,13.36,7.82,20.03,1.02,3.71.71,7.7,2.31,11.3.24.53.28,1.16,1.04,1.84,1.53-3.44,1.81-6.99,2.32-10.48,1.61-3.79,2.45-7.81,3.31-11.81.88-4.08,1.56-8.2,3.4-12.02.66-1.37,1.34-2.68,2.5-3.66,1.6-1.35,2.45-2.96,2.11-5.1-.07-.43-.04-.9.35-1.23,1.18-.49,2.16.19,3.19.56.29.12.57.26.85.39.29.12.52.31.72.55.44.22.88.47,1.33.67,1.43.64,2.41,1.59,2.33,3.3-.93,1.24-1.83,2.5-2.79,3.72-.91,1.17-1.82,2.36-2.83,3.45-.42.46-1.07.82-1.68.96-1.08.24-1.54.76-1.87,1.86-1.32,4.42-2.7,8.82-4.25,13.17-1.9,5.35-3.07,10.87-4.13,16.42-.82,4.3-1.54,8.62-2.27,12.93-.12.73-.33,1.45-1.15,1.31-.41-.07-.9-.71-1.05-1.18-3.61-11.9-7.67-23.65-12.4-35.16-1.33-3.24-2.52-6.53-3.81-9.78-.36-.91-.9-1.54-1.92-2-.84-.38-1.52-1.4-1.99-2.29-1.45-2.7-2.75-5.47-4.14-8.2-.57-1.13-1.23-2.21-1.85-3.32Z"/>
  <path class="cls-6" d="M258.02,418.35c-.15,2-.3,3.99-.43,5.99-.09,1.27-.16,2.54-.21,3.8-.31,8.06-.61,16.12-.92,24.18-.01.27-.12.55-.23,1.01-.57-.27-1.05-.43-1.45-.7-1.78-1.24-3.51-2.55-5.31-3.75-.82-.54-1.03-1.16-.89-2.08,1.52-9.74,4.58-19,8.63-27.96.09-.19.24-.36.36-.53.15.01.3.02.44.03Z"/>
  <path class="cls-1" d="M339.6,488.79c.19,2.5.41,2.68,3.57,2.68.6.8,1.19,1.6,1.94,2.6-1.37,1.82-2.68,3.9-5.61,4.47-2.38.46-4.63,1.58-6.95,2.41-1.22-2.11-2.37-4.08-3.56-6.13.36-.13.66-.19.9-.34,1.29-.84,1.53-1.57.58-2.76-.78-.97-1.85-1.71-2.8-2.53-.34-.29-.71-.54-1.06-.81-.27-.16-.28-.33-.01-.51.01-.3.03-.59.04-.89.5-.51,1.15-.71,1.82-.68,3.13.14,6.33-.67,9.39.63.58.62,1.17,1.23,1.75,1.85Z"/>
  <path class="cls-8" d="M307.18,495.53c-.69-.05-1.38-.11-2.06-.17-.26-.15-.53-.28-.77-.45-1.39-1.02-1.49-1.71-.1-2.79,4.1-3.2,8.08-6.59,12.89-8.77,2.36-1.07,3.28-.82,4.43,1.49.2.39.38.8.57,1.19-2.31.49-3.81,2.26-5.53,3.62-2.93,2.33-6.07,4.26-9.43,5.87Z"/>
  <path class="cls-8" d="M337.85,486.95c-3.74.02-7.47.03-11.21.05,0-5.05,0-10.11,0-15.5.37.4.57.56.7.78,2.85,4.72,6.11,9.15,9.64,13.38.33.4.58.86.86,1.3Z"/>
  <path class="cls-28" d="M332,383.35c.14-.02.28-.06.41-.09.3-.21.61-.18.93-.05.1,2.69.2,5.37.29,8.06-.19.4-.43.36-.7.09-1.08-2.38-2.16-4.76-3.24-7.14-.18-.2-.17-.39.02-.57.73-.3,1.56.11,2.28-.3Z"/>
  <path class="cls-14" d="M332,383.35c-.75.13-1.5.27-2.25.4-.14.17-.27.15-.39-.03-.08-.13-.11-.26-.1-.41.91.01,1.83.03,2.74.04Z"/>
  <path class="cls-16" d="M332.94,391.36c.23-.03.47-.06.7-.09-.09.48-.19.95-.28,1.43-.14-.45-.28-.89-.42-1.34Z"/>
  <path class="cls-8" d="M326.6,487.88c0,.17,0,.34.01.51-.3-.15-.6-.3-.9-.44.3-.02.59-.04.89-.06Z"/>
  <path class="cls-8" d="M329.37,383.72c.13.01.26.02.39.03-.02.16-.03.31-.05.47-.11-.17-.23-.33-.34-.5Z"/>
  <path class="cls-7" d="M550.05,438.49c-1.73,1.83-3.43,3.68-5.2,5.47-1.09,1.11-2.35,2.05-3.4,3.19-3.8,4.11-8.52,7.09-12.85,10.56-.29.55-.8.58-1.33.55-.43.09-.9.11-1.28.3-4.32,2.19-8.64,4.38-12.94,6.62-2.33,1.21-4.71,2.22-7.35,2.48-1.2-3.35-3.07-6.27-5.65-8.73-.04-1.22.85-1.85,1.63-2.53,3.04-2.65,6.19-5.17,9.25-7.8,1.31-1.12,1.75-2.25,1.4-3.9-1.57-7.38-3.12-14.76-4.54-22.17-.32-1.69-.67-3.37-.9-5.07-.2-1.51-.9-2.01-2.43-1.78-4.01.61-7.87,1.8-11.74,2.93-4.89,1.42-9.89,2.33-14.79,3.68-.92.21-1.84.47-2.78.59-.59.04-1.17,0-1.71-.27-1.18-1-1.14-2.32-.91-3.66.16-.92.23-1.85.39-2.93-1.77,2.52-3.39,4.97-4.65,7.63-.22.2.13.05-.13.18-4.56,2.3-9.42,3.31-14.49,3.49.19-.7.37-1.41.57-2.11.98-3.39-.25-5.06-3.73-5.08,1.22-1.6,1.72-3.43,1.79-5.41.01-.43.17-.86.27-1.28.5-1.04,1.05-2.06,1.49-3.12,1.26-3.07,2.47-6.16,3.7-9.25,2.23-5.37,5.58-10.15,8.06-15.38.2-.41.55-.69.87-1.01,2.08-2.69,4.18-5.36,6.25-8.07.81-1.06,1.53-2.17,2.29-3.26-.02-.15-.04-.35.06-.42,2.98-2.12,5.38-4.87,8.1-7.27,2.02-1.78,4.45-2.67,7.03-3.22,3.57-.75,7.12-1.6,10.53-2.94.55-.22,1.13-.42,1.71-.07.44,2.42.51,4.86.51,7.31,0,.67-.02,1.35.07,2.02.33,2.31,1.48,2.77,3.37,1.36,2.68-1.99,4.76-4.51,6.58-7.28.65-.99,1.14-2.13,2.28-2.71.69-.22,1.33-.09,1.91.3,4.65,3.15,9.27,6.34,14.42,8.65,1.3,1.34,2.56,2.72,3.91,4.01,4.13,3.95,6.91,8.79,9.03,13.99,1.74,4.27,3.12,8.68,4.67,13.02.2.55.46,1.08.7,1.62,1.14,4.16,2.39,8.3,3.37,12.5.75,3.25,1.33,6.57,1.67,9.89.51,4.93-1.34,9.2-4.22,13.1-.31.42-.56.87-.83,1.31Z"/>
  <path class="cls-28" d="M333.64,327.76c-.08,2.23-.22,4.46-.22,6.7-.02,9.85,0,19.71-.01,29.56,0,.89-.05,1.79-.08,2.68-.59.53-1.32.69-2.08.68-6.79-.06-13.58.3-20.36-.22-.97.13-1.88.03-2.67-.62-.97-2.38-.59-3.59,1.76-3.93,8.44-1.21,12.73-6.74,15.29-14.21,1.06-3.11,2.1-6.22,2.59-9.48.14-.91.4-1.82,1.08-2.41,2.26-1.95,2.98-4.56,3.33-7.35.06-.52.14-1.04.47-1.48.33-.24.64-.29.91.08Z"/>
  <path class="cls-1" d="M310.39,366.79c4.45-.04,8.91-.09,13.36-.11,3.19-.01,6.39,0,9.58.01-.04.51-.08,1.01-.14,1.74-2.24.16-4.42.45-6.6.45-3.49,0-6.98-.21-10.47-.3-.25,0-.51.23-.76.36-.28-.05-.57-.11-.85-.16-.2-.04-.37-.13-.53-.26-1.03-.32-2.06-.65-3.09-.97-.33-.15-.6-.33-.5-.76Z"/>
  <path class="cls-14" d="M333.33,248.16c-21.64.01-43.28.02-64.92.03-2.91,0-5.82-.04-8.73-.07.71-.12,1.43-.36,2.14-.36,23.13-.02,46.26-.02,69.4,0,.7,0,1.41.26,2.11.39Z"/>
  <path class="cls-14" d="M199.11,384.1c-3.6,0-7.2,0-10.8,0,.49-.12.99-.32,1.48-.33,2.61-.03,5.23-.03,7.84,0,.5,0,.99.21,1.48.33Z"/>
  <path class="cls-14" d="M186.99,384.1c-2.55,0-5.11,0-7.66,0,2.55-.57,5.11-.57,7.66,0Z"/>
  <path class="cls-14" d="M333.64,327.76c-.24-.02-.47-.05-.71-.07-.92-.93-.35-1.87-.02-2.81.11-.2.28-.35.49-.45.08,1.11.15,2.22.23,3.33Z"/>
  <path class="cls-14" d="M204.5,384.12c-.76,0-1.52-.01-2.28-.02.76-.5,1.52-.51,2.28.02Z"/>
  <path class="cls-16" d="M333.35,383.21c-.31.02-.62.03-.93.05.31-.02.62-.03.93-.05Z"/>
  <path class="cls-14" d="M332.9,324.04c.15.03.31.05.46.08,0,.11.02.21.04.31,0,0-.13.11-.13.11-.36,0-.52-.13-.37-.51Z"/>
  <path class="cls-14" d="M237.73,384.58c-.17-.03-.34-.06-.51-.09.17.03.34.06.51.09Z"/>
  <path class="cls-29" d="M470.95,368.86c.48-3.86,1.01-7.73.22-11.6-.43-2.11-1.02-4.2-1.64-6.27-1.22-4.09-1.98-8.27-2.41-12.51-.17-1.7-.42-3.43-.95-5.05-.55-1.68-1.2-3.46-2.29-4.79-3.26-3.97-4.45-8.38-3.51-13.38,1.08-5.76,2.96-11.14,7.51-15.16,1.03-.91,2.36-1.49,3.53-2.25.48-.32.96-.68,1.36-1.09,1.29-1.35,2.58-2.7,3.81-4.1,2.62-2.97,5.98-4.53,9.83-4.75,8.84-.51,17.45.28,25.33,4.94,4.4,2.6,8.01,6.02,10.92,10.14,2.02,2.86,3.72,5.94,5.57,8.92,2.95,6.12,4.16,12.67,4.93,19.35.35,3.03.8,6.04,1.29,9.05.15.94.52,1.86.87,2.75,1.35,3.47,2.62,6.97,4.82,10.05.73,1.02,1.29,2.2,1.73,3.38,2.01,5.35.48,8.26-4.08,11.04-1.82,1.11-3.92,1.35-6.01,1.53-1.65-.18-3.16-.7-4.56-1.63-3.39-2.27-6.83-4.47-10.27-6.67-.35-.22-.82-.24-1.24-.35-.6-.32-.96-.87-1.37-1.38-3.19-4.42-2.93-8.92-.24-13.44,1.88-3.16,2.4-6.74,3.2-10.23.65-2.83,1.89-5.07,4.4-6.72,2.55-1.67,3.06-5.94,1.28-8.46-1.03-1.46-2.53-1.75-3.5-.26-2.68,4.1-6.1,3.19-9.69,1.81-1.76-.67-3.33-1.68-4.88-2.74-1.48-1.01-2.86-2.16-4.45-3.37-.17,1.46.28,2.72.38,4,.1,1.24.03,2.48-1.23,3.13-1.23.63-2.17-.18-2.98-.95-1.57-1.48-3.22-2.91-4.39-4.84.34,1.1.71,2.15,1.05,3.21.57,1.73.52,3.19-1.32,4.23-2.48,1.4-4.1,1.44-5.69-.22-3.08-3.2-5.54-6.85-7.74-10.83-.25,1.99.15,3.83.3,5.7.11,1.3.37,2.9-1.27,3.47-1.7.59-2.66-.67-3.36-1.94-1.46-2.62-2.5-5.4-2.63-7.99-.07,1.86-.69,4.1-.78,6.44-.31,8.57,2.83,16.24,5.93,23.95,1.77,4.4,4.67,7.85,8.74,10.18,5.31,3.04,10.95,3.11,16.68,1.31,1-.31,1.96-.73,2.97-1.02.68-.19,1.35-.17,1.85.42.59.7.32,1.4-.07,2.08-.41.72-1.01,1.29-1.6,1.87-.86.69-1.51,1.73-2.8,1.68-4.14,1.66-8.44,2.75-12.8,3.65-3.37.69-6,2.62-8.37,5.11-1.82,1.91-4.07,3.4-6.13,5.08-.66.01-1.34.12-1.99.02-1.11-.18-1.93-1.11-2.09-2.29-.1-.73-.12-1.47-.18-2.21Z"/>
  <path class="cls-18" d="M400.16,490.64c.46-.22.94-.4,1.37-.67,2.42-1.51,5.06-2.37,7.89-2.62.69-.4,1.37-.57,1.98.15,1.3.23,2.59.51,3.89.68,1.84.24,3.68.49,5.53.58,5.19.24,10.37.57,15.52,1.27,1.83.25,3.73.13,5.59.09,1.71-.04,2.19-.67,1.55-2.28-1.01-2.56-2.22-5.03-3.34-7.55.5-.75,1.33-.93,2.1-1.13,4.5-1.21,9.02-2.34,13.52-3.54.57-.15,1.16-.27,1.75-.05,1.74,3.65,2.85,7.5,3.44,11.5.25,3.32-.19,6.53-1.49,9.62-1.81,4.31-5.84,6.68-10.3,6.02-.44,0-.89,0-1.33,0-5.26.76-10.3-.63-15.39-1.55-.94-.17-1.87-.44-2.82-.59-.99-.19-1.91-.61-2.89-.83-4.89-1.69-9.99-1.07-15.01-1.35-3.63-.2-7.31-.28-10.49-2.46-.73-.7-.92-1.68-1.33-2.54-.12-.34-.19-.69-.21-1.05-.03-.61.05-1.19.47-1.67Z"/>
  <path class="cls-26" d="M355.77,499.1c3.73-2.71,7.46-5.42,11.2-8.13.26-.22.68-.11.9-.44h0c4.16-2.67,8.83-3.03,13.55-2.83,3.94.17,7.85.79,11.72,1.56.66.13,1.31.3,1.81.81.42.98-.04,1.77-.62,2.46-1.67,2.01-3.25,4.08-4.96,6.06-.95,1.1-2.07,1.61-3.51,1.62-9.24,0-18.49.03-27.73-.03-.87,0-2.03.27-2.35-1.08Z"/>
  <path class="cls-21" d="M355.77,499.1c.62.15,1.25.42,1.87.43,9.48.03,18.96,0,28.43.05,1.17,0,1.91-.36,2.63-1.26,1.71-2.15,3.56-4.18,5.29-6.32.4-.49.54-1.2.79-1.81.45-.5.94-.41,1.46-.12,1.22.74,2.51,1.04,3.91.57,0,.58,0,1.16-.01,1.74-4.73.39-6.43,4.47-9.29,7.59,3.48,1.46,6.99,1.99,10.51,2.05,5.66.1,11.3.37,16.93.91,1.69.16,3.22-.15,4.66-1.14,1.34-.93,2.84-1.63,4.18-2.58.8.26,1.6.52,2.4.78-.51,1.9-1.9,2.79-3.71,3.16-1.12.73-2.28,1.4-3.36,2.19-1.18.85-2.44.45-3.68.39-1.33-.06-2.66-.33-3.99-.33-20.78-.01-41.56,0-62.35,0-.94,0-1.88-.05-2.88-.09-.02-1.9.77-2.91,2.24-3.46,4.7.31,9.41.1,14.12.14,1.29.01,2.54.1,3.68.76.39.22.8.42,1.26.44,5.06.24,10.12.11,15.21-.12-.38-.6-.94-.57-1.48-.6-.45-.02-.9-.02-1.35,0-9.57.32-19.11-.77-28.68-.5-.53.01-1.42.43-1.51-.69.91-.73,1.82-1.46,2.72-2.19Z"/>
  <path class="cls-1" d="M396.25,490.07c-.48.04-.97.08-1.45.12-2.27-.36-4.54-.7-6.8-1.08-6.45-1.06-12.84-1.44-19.03,1.31-.32.14-.73.08-1.1.11,1.09-.96,2.1-2.05,3.29-2.87,4.89-3.41,9.82-6.74,14.74-10.1.14.16.28.31.43.47.98,1.05,1.06,1.03,1.79-.46,1.42-1.05,2.85-2.09,4.25-3.17,1.45-1.11,2.88-2.25,4.63-3.62,0,1.61.05,2.77-.01,3.93-.08,1.48-.3,2.95-.36,4.43-.15,3.64-.25,7.28-.37,10.92Z"/>
  <path class="cls-1" d="M449.17,502.69c5.33-.28,8.87-3.06,10.21-7.4.85-2.74,1.12-5.49,1.02-8.32.92-.69,1.83-.77,2.75,0-.52,3.36-1.03,6.72-1.57,10.08-.33,2.05-.68,4.09-1.03,6.13-3.1-.02-6.2,0-9.3-.07-.69-.01-1.38-.28-2.07-.43Z"/>
  <path class="cls-28" d="M353.05,501.29c.84.17,1.68.48,2.52.48,9.72.03,19.45.02,29.17.02.82,0,1.63,0,2.68,0,.06.73.11,1.33.16,1.91-.4.15-.61.3-.81.3-5.31.02-10.62.05-15.93,0-.59,0-1.3-.3-1.72-.71-.9-.85-1.91-1.07-3.07-1.06-4.04.02-8.08.02-12.12-.01-.71,0-1.43-.23-2.14-.35.42-.19.84-.38,1.26-.57Z"/>
  <path class="cls-31" d="M425.81,503.16c1.24-1.05,2.47-2.11,3.71-3.16,1.81.31,3.63.59,5.44.95,3.85.76,7.69,1.53,11.66,1.35.4-.02.81.26,1.22.39-.12.77-.67.87-1.32.88-6.58,0-13.15.02-19.73,0-.33,0-.65-.27-.98-.41Z"/>
  <path class="cls-16" d="M460.89,503.42c.59-.04,1.18-.1,1.78-.1,13.32,0,26.65,0,39.97,0,.57,0,1.14.16,1.71.25-13.67,0-27.34-.02-41.01-.03-.82,0-1.64-.08-2.45-.12Z"/>
  <path class="cls-14" d="M367.87,490.54c-.3.15-.6.29-.9.44.3-.15.6-.29.9-.44Z"/>
  <path class="cls-37" d="M453.67,427.31c3.97-.92,7.95-1.79,11.9-2.78.88-.22,1.66-.83,2.49-1.26,1.66-1.03,3.45-1.31,5.36-.97l1.76.11c1.18,1.89,1.32,4.09,1.82,6.17,2.94,12.33,5.44,24.77,9.24,36.89.22.7.53,1.42.15,2.17-7,1.65-14.01,3.3-21.01,4.97-.5.12-.97.34-1.46.52-2.28,1.82-4.36,1.32-6.23-1.5-1.2-2.52-2.41-5.04-3.61-7.55-1.86-3.53-3.1-7.23-3.22-11.26.7-.61,1.53-.51,2.34-.4,3.31.45,6.55-.12,9.77-.76,2.28-.46,2.35-.87,1.92-3.16-.4-2.16-.39-4.41-.38-6.57.01-1.99-.96-2.35-2.28-2.6-2.36-.45-4.79-.4-7.15-.09-1.96.26-3.68.32-5.13-1.28-.65-.71-1.88-.56-2.47-1.45-.42-1.17-.5-2.31.26-3.38,2.2-.13,3.45-1.63,4.56-3.25.54-.79.92-1.71,1.37-2.57Z"/>
  <path class="cls-1" d="M447.74,433.13c-.03,1.22-.05,2.43-.08,3.65-1.75,4.33-.59,8.61.31,12.87.2.97,1.05,1.59,1.93,2.08.48.27,1.22.35,1.09,1.19,1.03,3.72,2.06,7.44,3.08,11.16-1.4-1.81-2.8-3.63-4.21-5.44-3.53-4.51-7.98-7.78-13.35-9.74-2.3-.84-4.66-1.48-7-2.21-.21-.22-.41-.43-.62-.65-.07-1.04.67-1.4,1.45-1.71,1.17-.46,2.39-.81,3.52-1.35,3.67-1.74,6.87-4.13,9.11-7.56,1.19-1.82,2.59-2.74,4.77-2.3Z"/>
  <path class="cls-1" d="M457.69,471.63c.13.07.3.11.37.22,1.57,2.2,3.66,2,5.86,1.28-.16,4.2-.31,8.39-.49,12.58-.02.43-.19.85-.29,1.27-.92,0-1.83,0-2.75,0-.85-3.04-1.72-6.07-2.52-9.12-.18-.67-.11-1.39-.16-2.09.2-.64.49-1.27.38-1.97-.13-.72-.27-1.44-.4-2.16Z"/>
  <path class="cls-28" d="M458.08,473.79q1.13,1.08-.38,1.97c-5.85,1.51-11.7,3.02-17.56,4.53-.37-.31-.73-.61-1.1-.92.42-.36.78-.91,1.26-1.04,3.16-.89,6.33-1.7,9.51-2.51,2.75-.7,5.5-1.35,8.25-2.02Z"/>
  <path class="cls-27" d="M411.4,487.49c-.66-.05-1.32-.1-1.98-.15.74-.61,1.45-1.27,2.23-1.83,2.37-1.69,4.78-3.35,7.17-5.02.43-.3.84-.67,1.32-.83.35-.11.79.07,1.2.12-.07.46-.1.93-.23,1.37-.05.17-.33.29-.51.41-2.52,1.75-5.02,3.52-7.56,5.24-.48.32-1.08.45-1.63.67Z"/>
  <path class="cls-34" d="M429.71,419.43c.04,1.84-1.53,3.4-3.42,3.4-1.95,0-3.19-1.11-3.26-2.91-.08-2.01,1.41-3.72,3.31-3.8,1.49-.06,3.34,1.75,3.37,3.31Z"/>
  <path class="cls-34" d="M406.13,420.1c-1.46-.01-2.67-1.27-2.66-2.74.01-1.71,1.46-3.19,3.11-3.16,1.67.03,2.78,1.19,2.73,2.85-.05,1.77-1.41,3.07-3.17,3.05Z"/>
  <path class="cls-29" d="M436.44,413.84c-2.83-3.81-6.78-3.77-10.79-3.12-.61-.96-.11-1.37.56-1.67,2.91-1.29,8.71.22,10.67,2.77.5.65.87,1.27-.44,2.02Z"/>
  <path class="cls-29" d="M411.76,409.92c-.67-.24-1.09-.34-1.47-.53-2.82-1.42-5.59-1.4-8.31.24-.71.43-1.39,1.05-2.08-.16.74-1.3,2.03-1.86,3.36-2.29,2.2-.73,4.43-.58,6.6.15,1.01.34,2.14.75,1.9,2.6Z"/>
  <path class="cls-7" d="M410.83,432.44c.8-.49,1.25.21,1.74.58,1.45,1.13,2.92,1.36,4.57.44.46-.26,1.08-.23,1.77-.36-.75,1.93-2.36,2.87-4.27,2.68-1.72-.16-3.48-1.7-3.81-3.34Z"/>
  <path class="cls-7" d="M413.8,426.72c-.18-.44-.58-.91-.51-1.3.35-1.89.81-3.77,1.26-5.64.05-.2.19-.44.36-.55.23-.14.56-.29.77-.22.22.08.54.46.5.64-.53,2.36-1.12,4.7-1.69,7.05l-.7.02Z"/>
  <path class="cls-23" d="M489.58,637.24c-2.29.03-4.58.16-6.86.04-1.74-.09-3.37-.02-4.91.89-.47.28-1.12.26-1.68.37.03-.67.08-1.34.08-2.01,0-28.47,0-56.95,0-85.42,0-.22-.02-.45-.03-.67,5.03-.66,10.06-1.32,15.08-1.98-.1,1.55-.21,3.1-.29,4.66-.05.89-.05,1.79-.06,2.69-.16,13.43-.06,26.87-.58,40.29-.29,7.46.1,14.93-.42,22.36-.44,6.27-.23,12.52-.33,18.78Z"/>
  <path class="cls-11" d="M486.38,467.64c-2.24-6.29-3.87-12.75-5.38-19.25-1.21-5.19-2.53-10.36-3.71-15.55-.79-3.46-1.41-6.95-2.11-10.42.89-.19,1.77-.37,2.66-.56,1.2.01,1.12,1.06,1.3,1.76,3.44,13.51,7.09,26.95,10.59,40.44.21.79.42,1.59.19,2.42-.2.52-.56.83-1.15.81-.8.12-1.59.24-2.39.35Z"/>
  <path class="cls-23" d="M488.77,467.29l.78-.55c.34-.28.62-.59.77-1.04,1.07-3.34,5.87-6.82,9.41-6.86.22,0,.41.16.58.3,3.34,1.86,4.94,4.82,5.4,8.51-2.38,2.51-9.73,5.08-12.94,4.53-2.62-.45-4.35-2.56-4-4.9Z"/>
  <path class="cls-14" d="M527.27,458.26c.44-.18.88-.37,1.33-.55,0,1.24,0,2.47,0,3.71-.44-1.05-.89-2.11-1.33-3.16Z"/>
  <path class="cls-34" d="M418.19,619.35c-1.15-.77-1.27-2.04-1.27-3.2,0-5.97,0-11.95.21-17.92.17-4.85.66-9.69.97-14.53.56-8.64,1.27-17.29,1.59-25.94.17-4.68-.31-9.39-.55-14.09-.04-.72-.31-1.42-.91-2.2-.17.56-.43,1.1-.5,1.67-.9,7.19-1.93,14.36-2.61,21.57-1.11,11.83-2.15,23.66-5.16,35.2-.92,3.5-1.02,7.08-1.17,10.66-.08,2.01-.31,4.02-.51,6.03-.17,1.72-.75,3.17-2.59,3.74-4.58.41-9.13.48-13.59-.9-.52-.04-1.05-.03-1.56-.11-1.86-.32-3.24-1.21-3.44-3.24-.3-2.96-.7-5.93-.74-8.89-.09-8.38,1.13-16.64,2.36-24.91,1.36-9.14,2.34-18.34,3.44-27.52.53-4.44,1-8.89,1.45-13.34.28-2.82.49-5.65.7-8.47.18-2.45.31-4.9.46-7.35.87-.15,1.74-.44,2.61-.44,16.66-.03,33.32-.03,49.98-.01.87,0,1.74.27,2.61.41.22,5.94-1.08,11.72-1.89,17.55-1.2,8.65-2.63,17.27-3.71,25.93-.96,7.7-1.47,15.46-2.4,23.17-.54,4.44-1.52,8.82-2.33,13.22-.46,2.5-.8,5-.41,7.56.17,1.1.19,2.23.2,3.35.02,2.9-.46,3.39-3.32,3.47-1.75,1.23-3.75.69-5.63.66-2.58-.03-5.18-.2-7.72-.8-1.5-.31-3.07.25-4.55-.32Z"/>
  <path class="cls-15" d="M326.86,633.73c-1.16-.07-2.33-.18-3.49-.18-2.23,0-4.46.11-6.68.07-3.86-.06-7.72-.28-11.59-.28-1.15,0-2.29.5-3.44.77-.13-3.66-.26-7.32-.4-10.98-.36-9.33-.75-18.67-1.09-28-.27-7.32-.45-14.65-.71-21.97-.34-9.41-.76-18.82-1.08-28.23-.16-4.78-.16-9.57-.24-14.35-.03-1.64-.09-3.29-.14-4.93,9.4,0,18.79,0,28.19,0,0,7.77-.04,15.55.01,23.32.08,11.06.27,22.12.34,33.18.1,15.32.13,30.65.2,45.97,0,1.87.07,3.73.11,5.6Z"/>
  <path class="cls-21" d="M392.1,619.44c4.53.3,9.06.6,13.59.9-.11,1.49-.23,2.98-.34,4.47-3.88,0-7.77,0-11.65,0-.24-1.04-.52-2.07-.7-3.12-.14-.83.12-1.79-.9-2.26Z"/>
  <path class="cls-13" d="M386.64,632.33c.69.16,1.37.43,2.07.47,1.62.08,3.25.02,4.88.08.56.02,1.12.21,1.68.33-1.18,1.16-2.68.62-4.05.73-1.11.09-2.24-.05-3.08.04,2.34.36,5.04-.63,7.58.65-.83.16-1.65.34-2.48.48-.98.17-1.96.3-2.94.45-2.38.95-4.75,1.1-7.1-.08.58-1.67,2.18-2.22,3.44-3.15Z"/>
  <path class="cls-21" d="M390.25,629.27c.23.93,1.03.71,1.64.75,1.4.1,2.82.07,4.22.19.35.03.66.44.99.67-.26.31-.53.91-.77.89-2.35-.12-4.69-.34-7.02-.56-.14-.01-.26-.34-.38-.52.44-.48.88-.95,1.33-1.43Z"/>
  <path class="cls-28" d="M383.2,635.47c2.37.03,4.73.05,7.1.08.21.61.32,1.31-.56,1.32-2.23.04-4.46-.02-6.69-.1-.16,0-.31-.44-.46-.68.2-.21.41-.42.61-.63Z"/>
  <path class="cls-13" d="M387.17,631.89c-.17.14-.33.28-.5.42.17-.14.33-.28.5-.42Z"/>
  <path class="cls-12" d="M467.52,551.26l-.86-.22c-.78-.26-1.62.02-2.4-.24-7.56-.94-11.41-7.43-10.44-13.33.65-3.96,1.29-7.91,1.94-11.87,3.79,0,7.57,0,11.62,0,.3,2.22.11,4.35.15,6.47.03,2.16,0,4.31,0,6.47s0,4.16,0,6.25c0,2.16,0,4.31-.01,6.47Z"/>
  <path class="cls-15" d="M295,634.63c-1.13,0-2.27,0-3.4-.01,0-6.21-.03-12.41-.03-18.62,0-28.49.01-56.99.02-85.48.15.95.39,1.9.42,2.85.2,6.42.35,12.85.53,19.27.3,10.38.6,20.76.91,31.14.3,10.16.59,20.31.9,30.47.21,6.79.43,13.59.65,20.38Z"/>
  <path class="cls-21" d="M422.66,619.41c4.48.13,8.96.26,13.43.39.01,1.78.02,3.56.03,5.35-2.36-.11-4.73-.32-7.09-.32-2.21,0-4.43.24-6.64.38.06-1.76.13-3.52.19-5.28-.2-.21-.18-.38.07-.52Z"/>
  <path class="cls-13" d="M464.26,550.8c.8.08,1.6.16,2.4.24-.8-.08-1.6-.16-2.4-.24Z"/>
  <path class="cls-21" d="M414.91,634.5c2.97-.12,5.94-.24,8.91-.36.52-.02,1.06-.1,1.56,0,.37.07.69.37,1.04.57-.32.33-.59.78-.98.94-.46.19-1.02.16-1.54.18-2.82.11-5.65.23-8.48.29-.72.01-1.44-.22-2.16-.33.36-.66.8-1.22,1.64-1.28Z"/>
  <path class="cls-21" d="M420.91,629.2c3.26.1,6.57-.26,9.79.34.13.3.26.59.39.89-.38.17-.77.49-1.15.49-3.33-.02-6.67-.09-10-.17-.28,0-.55-.2-.83-.31.09-1.15.94-1.2,1.8-1.24Z"/>
  <path class="cls-28" d="M418.15,631.54c2.82,0,5.63-.02,8.45-.01.88,0,1.76.04.97,1.3-3.61.44-7.22.25-10.83.1-.12-.02-.24-.05-.35-.09-.06-1.31,1-1.11,1.76-1.3Z"/>
  <path class="cls-10" d="M422.66,619.41c-.02.17-.05.35-.07.52-.72-.03-1.44-.02-2.15-.11-.76-.1-1.5-.31-2.25-.48,1.49.02,2.98.04,4.47.06Z"/>
  <path class="cls-28" d="M395.72,634.62c-7.27.29-9.12.14-10.25-1.05,3.36-.84,6.62.05,9.79-.36.73.29.89.76.45,1.42Z"/>
  <path class="cls-3" d="M416.74,632.93c3.61-.03,7.22-.07,10.83-.1-.32.16-.64.44-.96.45-3.04.04-6.08.04-9.12.02-.25,0-.51-.24-.76-.37Z"/>
  <path class="cls-35" d="M332.9,324.04c.12.17.25.34.37.51-.11,1.05-.23,2.1-.34,3.15-.2,1.47-.32,2.96-.62,4.41-.32,1.54-.87,2.99-2.27,3.97-1.03.72-1.48,1.78-1.66,3.03-.57,4-1.82,7.82-3.43,11.5-.86,1.96-1.97,3.82-3.03,5.69-2.06,3.66-5.62,5.15-9.37,6.32-.78.24-1.59.35-2.4.5-1.87.34-1.89.37-1.96,2.29-.01.3,0,.6,0,.89-.24,1.14-1.29,1.12-2.08,1.36-2.21.68-4.46,1.24-6.81.89-2.27-.82-4.59-1.42-7.04-1.26-4.92-.33-8.12-3.43-11.07-6.92,1.03-3.93.25-7.81-.3-11.71-.26-1.83-.32-3.69-.52-5.54-.06-.58-.29-1.15-.45-1.72-.3-1.07-1-1.59-2.12-1.63-.66-.02-1.34-.09-1.98-.24-6.46-1.49-7.68-6.5-7.1-11.57.1-.88.86-1.69,1.31-2.54.73-1.74,2.24-1.41,3.54-1.16,4.45.86,7.6,3.6,10.07,7.26.4.6.55,1.4,1.63,1.93.69-3.04,1.37-5.99,2.09-8.91,1-4.06,1.58-8.21,2.66-12.26.17-.65.27-1.32.5-1.95,1.09-3.07,3.24-3.71,5.64-1.53,2,1.81,4.2,3.06,6.89,3.46,6.27.92,12-.53,17.28-3.93,4-2.57,4.06-2.56,5.77,1.89,2.38,6.19,3.67,12.59,3.67,18.92.7-1.72-.45-4.06.91-6.01.87-.02,1.74-.07,2.21.9Z"/>
  <path class="cls-15" d="M330.7,323.14c-.2,2.92-.4,5.85-.59,8.77-.15,0-.31,0-.46,0-.49-4.3-.78-8.64-1.53-12.9-.75-4.26-2.29-8.31-4.09-12.31-2.36,1.4-4.51,2.85-6.81,4-4.76,2.38-9.82,2.97-15.04,2.03-2.01-.36-3.84-1.21-5.38-2.6-.33-.3-.66-.6-1-.9-2.36-2.11-3.89-1.69-4.72,1.47-.84,3.17-1.47,6.4-2.19,9.6-.94,4.22-1.86,8.45-2.84,12.67-.14.61-.56,1.17-1.02,2.1-.47-.8-.76-1.26-1.02-1.74-2.33-4.35-5.62-7.48-10.61-8.55-1.24-.26-2.33-.07-3.35.65-.96-.28-.92-1.14-.93-1.84-.03-1.42-.06-2.86.17-4.25.88-5.3,1.77-10.61,2.85-15.88.89-4.33,4.13-6.61,7.96-8.11,1.45-.57,3.01-.94,4.55-1.13,1.5-.19,2.61-.82,3.72-1.81,2.56-2.29,5-4.72,8.05-6.41,5.1-2.81,10.3-2.93,15.42-.3,3.25,1.67,6.38,3.61,9.39,5.67,1.83,1.25,3.43,2.86,4.97,4.47,1.94,2.02,2.13,4.35.67,6.78-.19.32-.33.67-.53,1.06,2.72,6.19,4.75,12.56,4.35,19.46Z"/>
  <path class="cls-8" d="M281.2,360.37c.83.6,1.83,1.07,2.47,1.84,2.22,2.63,5.05,4.07,8.39,4.61.01,1.3-1.06,1.9-1.77,2.72-.67.77-1.37,1.63-.65,2.58,2.54,3.37,2.07,7.4,2.47,11.2.46,4.37.87,8.76,1.16,13.15.05.73.28,1.5-.44,2.06-.58-1.18-1.25-2.33-1.73-3.56-2.39-6.11-4.59-12.3-7.13-18.34-1.2-2.86-3.12-5.42-4.52-8.21-.79-1.57-1.26-3.31-1.75-5-.17-.61-.18-1.17-.96-1.24,1.3-1.05,2.66-1.99,4.46-1.81Z"/>
  <path class="cls-15" d="M292.83,398.53c-.54-5.72-1.08-11.43-1.61-17.15-.08-.82-.1-1.64-.1-2.46,0-2.3-.56-4.4-1.95-6.29-1.06-1.43-.95-1.82.25-3.08.87-.92,1.76-1.82,2.64-2.73,2.43-.24,4.82-.25,6.9,1.34,1.06.38,1.54,1.37,2.21,2.16.85.99.88,2.09.03,3.06-1.94,2.19-2.27,4.84-2.22,7.56.11,5.97-.41,11.96.4,17.92.11.82.06,1.64-.19,2.44.49,3.51-.96,6.74-1.54,10.09-.09.52-.56.97-.95,1.6-.44-.36-.87-.52-.96-.8-.68-2.11-1.45-4.21-1.9-6.37-.5-2.39-.68-4.85-1.01-7.28Z"/>
  <path class="cls-22" d="M299.19,401.29c-.27-1.97-.73-3.94-.77-5.91-.1-5.29-.02-10.59,0-15.89,0-2.52.38-4.9,2.45-6.67.26-.22.38-.61.55-.9-.85-1.3-1.65-2.53-2.45-3.77,3.19-.08,6.28-.62,9.24-1.86.73.16,1.46.33,2.18.49.17.25.33.51.5.76.61,3.27-.9,5.48-3.21,7.68-1.35,1.29-2.05,3.44-2.64,5.33-.93,2.98-1.5,6.06-2.24,9.09-.89,3.61-1.79,7.22-2.74,10.82-.09.33-.58.55-.88.82Z"/>
  <path class="cls-8" d="M313.98,368.52c.18.09.35.17.53.26-.18-.09-.35-.17-.53-.26Z"/>
  <path class="cls-37" d="M500.3,459.14c-2.95.84-5.84,1.78-8.15,3.96-.92.87-1.69,1.75-.72,3.3-.8.14-1.35.23-1.9.33-.5-2.31-.92-4.64-1.51-6.93-1.4-5.46-2.89-10.89-4.32-16.34-1.84-7.03-3.65-14.06-5.48-21.09-.05-.19-.26-.35-.4-.52,2.65-.7,5.31-1.39,7.96-2.09,4.68-1.24,9.35-2.53,14.05-3.72,2.22-.56,4.5-.93,7.04-1.44.37,1.83.71,3.47,1.04,5.12.72,3.65,1.4,7.31,2.14,10.95,1.03,5.11,2.09,10.21,3.17,15.3.2.93-.08,1.57-.78,2.15-3.38,2.81-6.76,5.63-10.1,8.49-.82.7-1.96,1.19-2.03,2.52Z"/>
  <path class="cls-6" d="M528.57,418.84c.01-.3-.05-.62.04-.89,1.07-3.13,2.17-6.25,3.26-9.38.16.02.32.04.48.05.69,2.76,1.4,5.51,2.07,8.28.7,2.88,1.33,5.79,2.07,8.66.37,1.45.21,2.64-1.02,3.59-2.29,1.77-4.58,3.54-6.87,5.31-.36-.31-.59-.72-.59-1.17-.07-4.83-.63-9.68.55-14.46Z"/>
  <path class="cls-28" d="M514.77,358.92c.31.49.62.98.92,1.48-1.64,2.18-3.17,4.46-4.96,6.51-1.35,1.55-2.95,2.93-4.61,4.16-1.74,1.3-2.78.78-3.29-1.38-.1-.43-.2-.87-.21-1.31-.05-2.96-.08-5.91-.11-8.87.77-.57,1.53-1.15,2.3-1.72,2.86,1.88,5.91,2.04,9.1,1.01.29-.09.58.02.86.14Z"/>
  <path class="cls-21" d="M528.57,418.84c.01,5.21.03,10.42.04,15.63-.81,1.18-1.99,1.87-3.57,2.97.17-2.34.16-4.18.48-5.96.69-3.86,1.55-7.7,2.37-11.54.09-.4.45-.74.68-1.11Z"/>
  <path class="cls-28" d="M473.41,422.31c-1.79.32-3.57.65-5.36.97,1.16-3.08,3.24-5.58,5.16-8.68.41,2.89-.86,5.34.2,7.71Z"/>
  <path class="cls-23" d="M514.77,358.92c-1.83.99-3.8,1.18-5.85,1.09-1.78-.07-3.19-.67-4.11-2.24.5-.64,1-1.28,1.49-1.93.41-.53,1-1.15.33-1.74-.32-.27-1.08-.19-1.59-.06-2.52.64-4.99,1.67-7.55,1.97-5.36.64-10.34-.47-14.71-3.95-3.59-2.86-5.78-6.59-7.44-10.72-2.12-5.28-4-10.65-4.9-16.27-.74-4.61-.33-9.23,1.01-13.74.03-.12.2-.19.44-.41.24,2.98.96,5.74,2.24,8.34.36.73.78,1.45,1.25,2.11.52.73,1.28,1.07,2.16.75.88-.32.86-1.12.81-1.89-.15-2.46-.3-4.91-.45-7.37-.02-.3,0-.59,0-1.33.5.66.83.99,1.04,1.38,2.13,3.97,4.75,7.59,7.76,10.94,1.24,1.38,2.04,1.51,3.73.63,3.09-1.63,3.05-1.62,2.01-4.91-.43-1.36-1.25-2.67-1.04-4.32,1.6,1.86,3.08,3.61,4.6,5.32.49.55,1.07,1.06,1.68,1.47,1.39.94,2.43.41,2.56-1.31.05-.66-.07-1.34-.16-2-.19-1.4-.4-2.8-.67-4.69.93.74,1.53,1.22,2.13,1.71,2.92,2.34,5.87,4.64,9.49,5.84.92.3,1.86.55,2.81.71,1.82.3,3.43.05,4.29-1.9.12-.26.36-.47.55-.71,1.89-2.3,3.88-2.06,5.13.68.98,2.14,1.1,4.39.13,6.52-.43.95-1.31,1.86-2.22,2.38-2.05,1.18-3.15,2.86-3.6,5.12-.33,1.68-.7,3.37-1.24,5-.76,2.33-1.45,4.73-2.6,6.87-2.17,4.04-2.49,7.91.04,11.85.16.25.27.53.4.8Z"/>
  <path class="cls-28" d="M427.12,499.21c-.05.22-.03.53-.17.63-2.91,2.19-5.76,4.53-9.83,3.63-.86-.19-1.76-.3-2.64-.33-4.77-.18-9.55-.13-14.29-.53-3.37-.28-6.81-.66-10.2-2.4,1.27-1.62,2.49-3.16,3.71-4.7.14-.17.37-.3.46-.49,1.24-2.62,3.44-3.01,5.99-2.65.03.36.07.73.1,1.09-.01.85-1.22,1.02-1.12,1.95.65.44,1.24-.27,1.86-.07,3.8,2.01,7.91,2.47,12.1,2.37,2.51-.06,5,.2,7.52.15,2.16-.04,4.34.85,6.51,1.33Z"/>
  <path class="cls-27" d="M400.99,495.36c-.5.29-.98.65-1.51.83-.26.09-.83-.06-.93-.26-.16-.32-.22-.94-.02-1.15.48-.52,1.13-.88,1.71-1.31.25.63.49,1.26.74,1.89Z"/>
  <path class="cls-23" d="M450.99,452.91c-.32-.17-.61-.4-.95-.48-1.42-.38-2.37-1.3-2.71-2.67-.41-1.64-.65-3.33-.89-5.01-.19-1.39-.22-2.8-.41-4.19-.22-1.62.11-2.95,1.62-3.8,1.82-.23,3.2.43,3.78,1.79,3.3,0,6.28-.05,9.26.03,1.1.03,2.24.24,3.28.6,1.73.6,1.86,1.33.75,3.02.32.52.85,1.03.92,1.6.06.49-.4,1.05-.68,1.68.87.75,1.13,1.65.07,2.54,1.89,2.13,1.64,3.29-.97,3.96-3.62.94-7.3,1.45-11.07.99-.66-.08-1.34-.05-2.01-.07Z"/>
  <path class="cls-15" d="M314.73,341.51c-1.43.1-2.49.18-3.85.28-.04-3.59.05-6.89.46-10.17.15-.03.3-.06.45-.08.95,3.22,1.9,6.45,2.94,9.98Z"/>
  <path class="cls-15" d="M311.47,352.92c-2.34-.17-4.03-1.07-5.35-2.6-.24-.28-.08-.9-.11-1.37.42,0,.87-.12,1.24.02.4.15.71.53,1.06.81,1.46,1.14,3.02,1.52,4.81.77.76-.32,1.87-1.03,2.32.17.47,1.26-.93,1.28-1.67,1.59-.82.34-1.72.46-2.31.61Z"/>
  <path class="cls-15" d="M303.58,326.99c-.02,1.06-1.01,2.03-2.02,1.98-.91-.04-1.63-.82-1.64-1.78,0-.98,1.03-2,2.03-2,.84,0,1.65.9,1.63,1.8Z"/>
  <path class="cls-15" d="M318.67,324.5c.96-.04,1.92.76,2.02,1.68.1.95-.85,2.16-1.74,2.22-.93.06-1.78-.95-1.8-2.11-.01-1.06.58-1.75,1.52-1.79Z"/>
  <path class="cls-11" d="M507.5,433.37c.01,1.91-.2,2.3-1.75,2.81-2.54.84-5.12,1.57-7.66,2.4-2.05.67-4.06,1.45-6.09,2.16-2.18.76-3.15.25-3.77-1.97-.63-2.29-1.25-4.58-1.88-6.87-.04-.14-.08-.29-.13-.43-.83-2.45-.82-2.41,1.54-3.08,4.99-1.43,9.97-2.94,14.97-4.36,2.09-.59,2.53-.22,3,1.92.46,2.1,1.03,4.17,1.54,6.26.12.5.2,1.01.23,1.15Z"/>
  <path class="cls-28" d="M490.27,346.49c.46-.42.64-.7.89-.79,2.81-1.08,5.2-2.85,7.54-4.68.18-.14.35-.28.54-.39,1.3-.76,2.15-.34,2.32,1.13.41,3.52-2.05,6.62-5.67,6.9-1.29.1-2.66-.2-3.91-.59-.64-.2-1.1-.99-1.71-1.57Z"/>
  <path class="cls-5" d="M494.63,340.04c-.36.61-.63,1.31-1.1,1.82-1.2,1.3-2.83,1.01-3.62-.59-.16-.33-.33-.69-.35-1.05-.19-2.96-.37-5.93-.5-8.89-.03-.62.2-1.2,1.32-1.02,0,1.19,0,2.42,0,3.66.01,1.41,0,2.83.06,4.24.04,1.11-.02,2.37,1.27,2.84,1.21.45,1.89-.53,2.53-1.41.13.14.26.27.39.41Z"/>
  <path class="cls-15" d="M480.81,330.79c1.42.84,1.83,2.27,1.86,3.75.01.5-.59,1.2-1.1,1.45-.27.14-1.07-.36-1.37-.76-1.14-1.56-.88-3.26.6-4.44Z"/>
  <path class="cls-15" d="M501.3,326.8c1.38,1.35,1.88,3.76,1.16,5.19-.3.6-.95.65-1.47.12-1.19-1.21-1.09-3.8.3-5.31Z"/>
  <path class="cls-32" d="M591.86,413.52c-1.62,0-3.23-.09-4.75-.7-1.43-.57-2.53-1.48-2.95-3.05-.54-2.02.24-3.26,2.36-3.73-.02-.31-.31-.36-.48-.53-1.08-1.03-1.33-2.59-.63-3.9,1.44-2.71,6.46-3.35,8.52-1.09.73.8,1.08,1.8,1.37,2.82.26-.04.35-.26.51-.41,1.58-1.45,3.59-1.26,4.82.51,1,1.44,1.46,3.06,1.28,4.81-.18,1.79-1.09,3.12-2.7,3.94-1.61.82-3.35,1.13-5.13,1.29-.42-.76-.25-1.58-.15-2.36.18-1.4.21-2.82.42-4.22.02-.11.01-.22-.11-.37-.5.52-.81,1.14-1.11,1.78-.68,1.5-.72,1.5-1.88.38-.29-.28-.6-.55-.98-.81.77,1.49,1.43,2.99,1.74,4.6.07.34.22.71-.15,1Z"/>
  <path class="cls-30" d="M591.86,413.52c-.05-2.09-.95-3.9-1.9-5.69-.07-.13-.27-.23-.11-.48.78.46,1.44,1.07,2.05,1.72.34.35.51.45.71-.12.31-.89.81-1.7,1.32-2.49.12-.18.24-.45.48-.4.29.07.18.37.16.57-.11,1.41-.2,2.82-.39,4.21-.12.89-.07,1.77-.11,2.66-.2.88-.39,1.75-.14,2.65.08.51.24,1.01-.22,1.45-.78.74-1.67.42-2.14-.8.09-1.1.32-2.18.29-3.29Z"/>
  <path class="cls-17" d="M572.86,426.4c-1.62,0-3.23-.09-4.75-.7-1.43-.57-2.53-1.48-2.95-3.05-.54-2.02.24-3.26,2.36-3.73-.02-.31-.31-.36-.48-.53-1.08-1.03-1.33-2.59-.63-3.9,1.44-2.71,6.46-3.35,8.52-1.09.73.8,1.08,1.8,1.37,2.82.26-.04.35-.26.51-.41,1.58-1.45,3.59-1.26,4.82.51,1,1.44,1.46,3.06,1.28,4.81-.18,1.79-1.09,3.12-2.7,3.94-1.61.82-3.35,1.13-5.13,1.29-.42-.76-.25-1.58-.15-2.36.18-1.4.21-2.82.42-4.22.02-.11.01-.22-.11-.37-.5.52-.81,1.14-1.11,1.78-.68,1.5-.72,1.5-1.88.38-.29-.28-.6-.55-.98-.81.77,1.49,1.43,2.99,1.74,4.6.07.34.22.71-.15,1Z"/>
  <path class="cls-19" d="M572.86,426.4c-.05-2.09-.95-3.9-1.9-5.69-.07-.13-.27-.23-.11-.48.78.46,1.44,1.07,2.05,1.72.34.35.51.45.71-.12.31-.89.81-1.7,1.32-2.49.12-.18.24-.45.48-.4.29.07.18.37.16.57-.11,1.41-.2,2.82-.39,4.21-.12.89-.07,1.77-.11,2.66-.2.88-.39,1.75-.14,2.65.08.51.24,1.01-.22,1.45-.78.74-1.67.42-2.14-.8.09-1.1.32-2.18.29-3.29Z"/>
  <path class="cls-20" d="M602.48,443.87c-1.62,0-3.23-.09-4.75-.7-1.43-.57-2.53-1.48-2.95-3.05-.54-2.02.24-3.26,2.36-3.73-.02-.31-.31-.36-.48-.53-1.08-1.03-1.33-2.59-.63-3.9,1.44-2.71,6.46-3.35,8.52-1.09.73.8,1.08,1.8,1.37,2.82.26-.04.35-.26.51-.41,1.58-1.45,3.59-1.26,4.82.51,1,1.44,1.46,3.06,1.28,4.81-.18,1.79-1.09,3.12-2.7,3.94-1.61.82-3.35,1.13-5.13,1.29-.42-.76-.25-1.58-.15-2.36.18-1.4.21-2.82.42-4.22.02-.11.01-.22-.11-.37-.5.52-.81,1.14-1.11,1.78-.68,1.5-.72,1.5-1.88.38-.29-.28-.6-.55-.98-.81.77,1.49,1.43,2.99,1.74,4.6.07.34.22.71-.15,1Z"/>
  <path class="cls-30" d="M602.48,443.87c-.05-2.09-.95-3.9-1.9-5.69-.07-.13-.27-.23-.11-.48.78.46,1.44,1.07,2.05,1.72.34.35.51.45.71-.12.31-.89.81-1.7,1.32-2.49.12-.18.24-.45.48-.4.29.07.18.37.16.57-.11,1.41-.2,2.82-.39,4.21-.12.89-.07,1.77-.11,2.66-.2.88-.39,1.75-.14,2.65.08.51.24,1.01-.22,1.45-.78.74-1.67.42-2.14-.8.09-1.1.32-2.18.29-3.29Z"/>
  <path class="cls-20" d="M562.45,452.19c-1.62,0-3.23-.09-4.75-.7-1.43-.57-2.53-1.48-2.95-3.05-.54-2.02.24-3.26,2.36-3.73-.02-.31-.31-.36-.48-.53-1.08-1.03-1.33-2.59-.63-3.9,1.44-2.71,6.46-3.35,8.52-1.09.73.8,1.08,1.8,1.37,2.82.26-.04.35-.26.51-.41,1.58-1.45,3.59-1.26,4.82.51,1,1.44,1.46,3.06,1.28,4.81-.18,1.79-1.09,3.12-2.7,3.94-1.61.82-3.35,1.13-5.13,1.29-.42-.76-.25-1.58-.15-2.36.18-1.4.21-2.82.42-4.22.02-.11.01-.22-.11-.37-.5.52-.81,1.14-1.11,1.78-.68,1.5-.72,1.5-1.88.38-.29-.28-.6-.55-.98-.81.77,1.49,1.43,2.99,1.74,4.6.07.34.22.71-.15,1Z"/>
  <path class="cls-30" d="M562.45,452.19c-.05-2.09-.95-3.9-1.9-5.69-.07-.13-.27-.23-.11-.48.78.46,1.44,1.07,2.05,1.72.34.35.51.45.71-.12.31-.89.81-1.7,1.32-2.49.12-.18.24-.45.48-.4.29.07.18.37.16.57-.11,1.41-.2,2.82-.39,4.21-.12.89-.07,1.77-.11,2.66-.2.88-.39,1.75-.14,2.65.08.51.24,1.01-.22,1.45-.78.74-1.67.42-2.14-.8.09-1.1.32-2.18.29-3.29Z"/>
  <path class="cls-20" d="M182.05,440.1c-1.62,0-3.23-.09-4.75-.7-1.43-.57-2.53-1.48-2.95-3.05-.54-2.02.24-3.26,2.36-3.73-.02-.31-.31-.36-.48-.53-1.08-1.03-1.33-2.59-.63-3.9,1.44-2.71,6.46-3.35,8.52-1.09.73.8,1.08,1.8,1.37,2.82.26-.04.35-.26.51-.41,1.58-1.45,3.59-1.26,4.82.51,1,1.44,1.46,3.06,1.28,4.81-.18,1.79-1.09,3.12-2.7,3.94-1.61.82-3.35,1.13-5.13,1.29-.42-.76-.25-1.58-.15-2.36.18-1.4.21-2.82.42-4.22.02-.11.01-.22-.11-.37-.5.52-.81,1.14-1.11,1.78-.68,1.5-.72,1.5-1.88.38-.29-.28-.6-.55-.98-.81.77,1.49,1.43,2.99,1.74,4.6.07.34.22.71-.15,1Z"/>
  <path class="cls-19" d="M182.05,440.1c-.05-2.09-.95-3.9-1.9-5.69-.07-.13-.27-.23-.11-.48.78.46,1.44,1.07,2.05,1.72.34.35.51.45.71-.12.31-.89.81-1.7,1.32-2.49.12-.18.24-.45.48-.4.29.07.18.37.16.57-.11,1.41-.2,2.82-.39,4.21-.12.89-.07,1.77-.11,2.66-.2.88-.39,1.75-.14,2.65.08.51.24,1.01-.22,1.45-.78.74-1.67.42-2.14-.8.09-1.1.32-2.18.29-3.29Z"/>
  <path class="cls-32" d="M213.72,460.89c-1.62,0-3.23-.09-4.75-.7-1.43-.57-2.53-1.48-2.95-3.05-.54-2.02.24-3.26,2.36-3.73-.02-.31-.31-.36-.48-.53-1.08-1.03-1.33-2.59-.63-3.9,1.44-2.71,6.46-3.35,8.52-1.09.73.8,1.08,1.8,1.37,2.82.26-.04.35-.26.51-.41,1.58-1.45,3.59-1.26,4.82.51,1,1.44,1.46,3.06,1.28,4.81-.18,1.79-1.09,3.12-2.7,3.94-1.61.82-3.35,1.13-5.13,1.29-.42-.76-.25-1.58-.15-2.36.18-1.4.21-2.82.42-4.22.02-.11.01-.22-.11-.37-.5.52-.81,1.14-1.11,1.78-.68,1.5-.72,1.5-1.88.38-.29-.28-.6-.55-.98-.81.77,1.49,1.43,2.99,1.74,4.6.07.34.22.71-.15,1Z"/>
  <path class="cls-19" d="M213.72,460.89c-.05-2.09-.95-3.9-1.9-5.69-.07-.13-.27-.23-.11-.48.78.46,1.44,1.07,2.05,1.72.34.35.51.45.71-.12.31-.89.81-1.7,1.32-2.49.12-.18.24-.45.48-.4.29.07.18.37.16.57-.11,1.41-.2,2.82-.39,4.21-.12.89-.07,1.77-.11,2.66-.2.88-.39,1.75-.14,2.65.08.51.24,1.01-.22,1.45-.78.74-1.67.42-2.14-.8.09-1.1.32-2.18.29-3.29Z"/>
  <path class="cls-17" d="M215.57,428.13c-1.62,0-3.23-.09-4.75-.7-1.43-.57-2.53-1.48-2.95-3.05-.54-2.02.24-3.26,2.36-3.73-.02-.31-.31-.36-.48-.53-1.08-1.03-1.33-2.59-.63-3.9,1.44-2.71,6.46-3.35,8.52-1.09.73.8,1.08,1.8,1.37,2.82.26-.04.35-.26.51-.41,1.58-1.45,3.59-1.26,4.82.51,1,1.44,1.46,3.06,1.28,4.81-.18,1.79-1.09,3.12-2.7,3.94-1.61.82-3.35,1.13-5.13,1.29-.42-.76-.25-1.58-.15-2.36.18-1.4.21-2.82.42-4.22.02-.11.01-.22-.11-.37-.5.52-.81,1.14-1.11,1.78-.68,1.5-.72,1.5-1.88.38-.29-.28-.6-.55-.98-.81.77,1.49,1.43,2.99,1.74,4.6.07.34.22.71-.15,1Z"/>
  <path class="cls-30" d="M215.57,428.13c-.05-2.09-.95-3.9-1.9-5.69-.07-.13-.27-.23-.11-.48.78.46,1.44,1.07,2.05,1.72.34.35.51.45.71-.12.31-.89.81-1.7,1.32-2.49.12-.18.24-.45.48-.4.29.07.18.37.16.57-.11,1.41-.2,2.82-.39,4.21-.12.89-.07,1.77-.11,2.66-.2.88-.39,1.75-.14,2.65.08.51.24,1.01-.22,1.45-.78.74-1.67.42-2.14-.8.09-1.1.32-2.18.29-3.29Z"/>
  <path class="cls-32" d="M173.93,449.85c-2.56-.79-3.6-2.85-4.05-5.21-.66-3.49-.22-6.79,2.37-9.51.47-.73,1.11-1.07,1.99-.92.98.06,1.92.28,2.83.66,3.28,3.3,3.42,7.24,2.28,11.42-.1.38-.26.75-.39,1.12-.27,1.32-1.28,1.95-2.34,2.53-.36.15-.74.24-1.13.24-.55.03-1.1.08-1.55-.33Z"/>
  <path class="cls-25" d="M175.61,449.85c-.38,1.42-.06,2.88-.19,4.31-.04.46.39,1.24-.6,1.25-1,0-.5-.79-.64-1.24-.02-.08-.02-.16-.03-.24-.01-1.36.16-2.74-.21-4.08.56,0,1.12,0,1.68,0Z"/>
  <path class="cls-32" d="M222.86,430.49c-1.48-.59-2.08-2.11-2.34-3.86-.38-2.58-.13-5.03,1.37-7.05.27-.54.64-.79,1.15-.68.57.04,1.11.21,1.63.49,1.9,2.45,1.98,5.36,1.32,8.46-.06.28-.15.55-.23.83-.16.97-.74,1.44-1.35,1.88-.21.11-.43.18-.65.18-.32.02-.63.06-.9-.25Z"/>
  <path class="cls-25" d="M223.83,430.49c-.22,1.05-.03,2.13-.11,3.19-.02.34.23.92-.35.92-.58,0-.29-.58-.37-.92-.01-.06-.01-.12-.02-.18,0-1.01.09-2.03-.12-3.02.32,0,.65,0,.97,0Z"/>
  <path class="cls-32" d="M572.33,450.07c-2.56-.79-3.6-2.85-4.05-5.21-.66-3.49-.22-6.79,2.37-9.51.47-.73,1.11-1.07,1.99-.92.98.06,1.92.28,2.83.66,3.28,3.3,3.42,7.24,2.28,11.42-.1.38-.26.75-.39,1.12-.27,1.32-1.28,1.95-2.34,2.53-.36.15-.74.24-1.13.24-.55.03-1.1.08-1.55-.33Z"/>
  <path class="cls-25" d="M574.01,450.07c-.38,1.42-.06,2.88-.19,4.31-.04.46.39,1.24-.6,1.25-1,0-.5-.79-.64-1.24-.02-.08-.02-.16-.03-.24-.01-1.36.16-2.74-.21-4.08.56,0,1.12,0,1.68,0Z"/>
</svg>