<?xml version="1.0" encoding="UTF-8"?>
<svg id="Livello_1" data-name="Livello 1" xmlns="http://www.w3.org/2000/svg" viewBox="0 0 283.46 283.46">
  <defs>
    <style>
      .cls-1 {
        fill: #f6f6f6;
        font-family: MyriadPro-Regular, 'Myriad Pro';
        font-size: 9.61px;
      }

      .cls-2 {
        fill: #f3f8f9;
      }

      .cls-3 {
        fill: #f3eceb;
      }

      .cls-4 {
        fill: #f9bf69;
      }

      .cls-5 {
        fill: #f7b478;
      }

      .cls-6 {
        fill: #f7f1e8;
      }

      .cls-7 {
        fill: #f8c26f;
      }

      .cls-8 {
        fill: #f9f4f4;
      }

      .cls-9 {
        fill: #f7c26e;
      }

      .cls-10 {
        fill: #f8f2e6;
      }

      .cls-11 {
        fill: #f9b233;
      }

      .cls-12 {
        fill: #f8f7f8;
      }

      .cls-13 {
        fill: #fac172;
      }

      .cls-14 {
        fill: #fad3a0;
      }

      .cls-15 {
        fill: #6a6f72;
      }

      .cls-16 {
        fill: #696a6c;
      }

      .cls-17 {
        fill: #683a45;
      }

      .cls-18 {
        fill: #6a6e73;
      }

      .cls-19 {
        fill: #efab92;
      }

      .cls-20 {
        fill: #efd1c9;
      }

      .cls-21 {
        fill: #ed7c68;
      }

      .cls-22 {
        fill: #f0eede;
      }

      .cls-23 {
        fill: #f1bb53;
      }

      .cls-24 {
        fill: #f5b274;
      }

      .cls-25 {
        fill: #eaaaa2;
      }

      .cls-26 {
        fill: #eab9b0;
      }

      .cls-27 {
        fill: #f4f0f0;
      }

      .cls-28 {
        fill: #f3c0ab;
      }

      .cls-29 {
        fill: #e98e7c;
      }

      .cls-30 {
        fill: #fafbfa;
      }

      .cls-31 {
        fill: #fcfcfd;
      }

      .cls-32 {
        fill: #fcfcfc;
      }

      .cls-33 {
        fill: #fcfdfd;
      }

      .cls-34 {
        fill: #e8a59d;
      }

      .cls-35 {
        fill: #e3e7ea;
      }

      .cls-36 {
        fill: #e4dccf;
      }

      .cls-37 {
        fill: #e59282;
      }

      .cls-38 {
        fill: #e4d3b8;
      }

      .cls-39 {
        fill: #eebe5e;
      }

      .cls-40 {
        fill: #ef7972;
      }

      .cls-41 {
        fill: #edeef0;
      }

      .cls-42 {
        fill: #e2e6e7;
      }

      .cls-43 {
        fill: #f5bea4;
      }

      .cls-44 {
        fill: #f5bfa8;
      }

      .cls-45 {
        fill: #f5c1a8;
      }

      .cls-46 {
        fill: #f2c258;
      }

      .cls-47 {
        fill: #ee9082;
      }

      .cls-48 {
        fill: #fefefe;
      }

      .cls-49 {
        fill: #e5c7c3;
      }

      .cls-50 {
        fill: #fafafa;
      }

      .cls-51 {
        fill: #faf5f4;
      }

      .cls-52 {
        fill: #fefdfe;
      }

      .cls-53 {
        fill: #fefdfc;
      }

      .cls-54 {
        fill: #fbfbfb;
      }

      .cls-55 {
        fill: #e5e6e7;
      }

      .cls-56 {
        fill: #e5eff3;
      }

      .cls-57 {
        fill: #e6c9b4;
      }

      .cls-58 {
        fill: #ee8c76;
      }

      .cls-59 {
        fill: #fcfbfb;
      }

      .cls-60 {
        fill: #f0bd53;
      }

      .cls-61 {
        fill: #e69183;
      }

      .cls-62 {
        fill: #fdfdfd;
      }

      .cls-63 {
        fill: #fdfaf9;
      }

      .cls-64 {
        fill: #fdfcfa;
      }

      .cls-65 {
        fill: #fdfcfc;
      }

      .cls-66 {
        fill: #7d8185;
      }

      .cls-67 {
        fill: #7e7f83;
      }

      .cls-68 {
        fill: #7dbd9a;
      }

      .cls-69 {
        fill: #7e878c;
      }

      .cls-70 {
        fill: #808689;
      }

      .cls-71 {
        fill: #808486;
      }

      .cls-72 {
        fill: #979ea3;
      }

      .cls-73 {
        fill: #6b5953;
      }

      .cls-74 {
        fill: #999ea3;
      }

      .cls-75 {
        fill: #7c8182;
      }

      .cls-76 {
        fill: #7c858b;
      }

      .cls-77 {
        fill: #7f8287;
      }

      .cls-78 {
        fill: #7ebd9a;
      }

      .cls-79 {
        fill: #7f8689;
      }

      .cls-80 {
        fill: #7f8184;
      }

      .cls-81 {
        fill: #9ca0a2;
      }

      .cls-82 {
        fill: #92999d;
      }

      .cls-83 {
        fill: #84888a;
      }

      .cls-84 {
        fill: #b5b9ba;
      }

      .cls-85 {
        fill: #b7babb;
      }

      .cls-86 {
        fill: #8a8f91;
      }

      .cls-87 {
        fill: #8b8e8f;
      }

      .cls-88 {
        fill: #8b8e91;
      }

      .cls-89 {
        fill: #8b9295;
      }

      .cls-90 {
        fill: #909495;
      }

      .cls-91 {
        fill: #909294;
      }

      .cls-92 {
        fill: #b3b3b5;
      }

      .cls-93 {
        fill: #8f9394;
      }

      .cls-94 {
        fill: #b6cac0;
      }

      .cls-95 {
        fill: #c1c6c8;
      }

      .cls-96 {
        fill: #666a6a;
      }

      .cls-97 {
        fill: #324856;
      }

      .cls-98 {
        fill: #b9bbbe;
      }

      .cls-99 {
        fill: #b9bcbf;
      }

      .cls-100 {
        fill: #858990;
      }

      .cls-101 {
        fill: #858a8f;
      }

      .cls-102 {
        fill: #cde4e9;
      }

      .cls-103 {
        fill: #a4a7a9;
      }

      .cls-104 {
        fill: #a6abac;
      }

      .cls-105 {
        fill: #a5bbc3;
      }

      .cls-106 {
        fill: #a9adb2;
      }

      .cls-107 {
        fill: #a6a6a8;
      }

      .cls-108 {
        fill: #a4cbd0;
      }

      .cls-109 {
        fill: #d7e2e7;
      }

      .cls-110 {
        fill: #d7e2e5;
      }

      .cls-111 {
        fill: #d9734f;
      }

      .cls-112 {
        fill: #d7e3e6;
      }

      .cls-113 {
        fill: #a4d2b5;
      }

      .cls-114 {
        fill: #bbded8;
      }

      .cls-115 {
        fill: #a7adaf;
      }

      .cls-116 {
        fill: #d9e3e7;
      }

      .cls-117 {
        fill: #bec1c1;
      }

      .cls-118 {
        fill: #bed7d6;
      }

      .cls-119 {
        fill: #c4dce2;
      }

      .cls-120 {
        fill: #c6dfe2;
      }

      .cls-121 {
        fill: #d0e0e4;
      }

      .cls-122 {
        fill: #d0cdbc;
      }

      .cls-123 {
        fill: #c7cbcb;
      }

      .cls-124 {
        fill: #dde1e3;
      }

      .cls-125 {
        fill: #ddaa9a;
      }

      .cls-126 {
        fill: #d2e0e3;
      }

      .cls-127 {
        fill: #d2e3e5;
      }

      .cls-128 {
        fill: #d2e4e6;
      }

      .cls-129 {
        fill: #d1bfa3;
      }

      .cls-130 {
        fill: #c3e0e0;
      }

      .cls-131 {
        fill: #d0e2ea;
      }

      .cls-132 {
        fill: #d6d8da;
      }

      .cls-133 {
        fill: #d6e3ea;
      }

      .cls-134 {
        fill: #d6e3e8;
      }

      .cls-135 {
        fill: #d6e2e7;
      }

      .cls-136 {
        fill: #d6dbde;
      }

      .cls-137 {
        fill: #d3e4e5;
      }

      .cls-138 {
        fill: #d3e3e7;
      }

      .cls-139 {
        fill: #dbe5e9;
      }

      .cls-140 {
        fill: #daeaef;
      }

      .cls-141 {
        fill: #d8e3ea;
      }

      .cls-142 {
        fill: #d8e3e6;
      }

      .cls-143 {
        fill: #d8e6ea;
      }

      .cls-144 {
        fill: #dadada;
      }

      .cls-145 {
        fill: #d4e0e7;
      }

      .cls-146 {
        fill: #d9e4e7;
      }

      .cls-147 {
        fill: #d9e1e7;
      }

      .cls-148 {
        fill: #d4e2e8;
      }

      .cls-149 {
        fill: #d4e2e7;
      }

      .cls-150 {
        fill: #d6e4e6;
      }

      .cls-151 {
        fill: #d8e2e6;
      }

      .cls-152 {
        fill: #d8c7a9;
      }

      .cls-153 {
        fill: #e39a6a;
      }

      .cls-154 {
        fill: #df8789;
      }

      .cls-155 {
        fill: #e0e2e3;
      }

      .cls-156 {
        fill: #d5e3e9;
      }

      .cls-157 {
        fill: #d5e2e5;
      }

      .cls-158 {
        fill: #d4e4e9;
      }

      .cls-159 {
        fill: #d5e4ea;
      }

      .cls-160 {
        fill: #a8acad;
      }

      .cls-161 {
        fill: #17191f;
      }

      .cls-162 {
        fill: #1f263d;
      }

      .cls-163 {
        fill: #424447;
      }

      .cls-164 {
        fill: #419692;
      }

      .cls-165 {
        fill: #413f4a;
      }

      .cls-166 {
        fill: #436f88;
      }

      .cls-167 {
        fill: #375170;
      }

      .cls-168 {
        fill: #363f49;
      }

      .cls-169 {
        fill: #354f63;
      }

      .cls-170 {
        fill: #436a80;
      }

      .cls-171 {
        fill: #3e3d47;
      }

      .cls-172 {
        fill: #3f4560;
      }

      .cls-173 {
        fill: #3f445e;
      }

      .cls-174 {
        fill: #94989b;
      }

      .cls-175 {
        fill: #a2d5d8;
      }

      .cls-176 {
        fill: #95999a;
      }

      .cls-177 {
        fill: #459b94;
      }

      .cls-178 {
        fill: #459996;
      }

      .cls-179 {
        fill: #868d8f;
      }

      .cls-180 {
        fill: #868a8b;
      }

      .cls-181 {
        fill: #878c90;
      }

      .cls-182 {
        fill: #9aa0a1;
      }

      .cls-183 {
        fill: #9a9a9b;
      }

      .cls-184 {
        fill: #88a5b0;
      }

      .cls-185 {
        fill: #888b8f;
      }

      .cls-186 {
        fill: #888f94;
      }

      .cls-187 {
        fill: #87888e;
      }

      .cls-188 {
        fill: #878b8e;
      }

      .cls-189 {
        fill: #878a90;
      }

      .cls-190 {
        fill: #6d7478;
      }

      .cls-191 {
        fill: #6d7379;
      }

      .cls-192 {
        fill: #57ac91;
      }

      .cls-193 {
        fill: #2a8176;
      }

      .cls-194 {
        fill: #2d4452;
      }

      .cls-195 {
        fill: #479a93;
      }

      .cls-196 {
        fill: #2c6c82;
      }

      .cls-197 {
        fill: #2b8175;
      }

      .cls-198 {
        fill: #3a4051;
      }

      .cls-199 {
        fill: #3b6580;
      }

      .cls-200 {
        fill: #38526e;
      }

      .cls-201 {
        fill: #272c35;
      }

      .cls-202 {
        fill: #394351;
      }

      .cls-203 {
        fill: #5a4543;
      }

      .cls-204 {
        fill: #828487;
      }

      .cls-205 {
        fill: #83878c;
      }

      .cls-206 {
        fill: #3c6880;
      }

      .cls-207 {
        fill: #606063;
      }

      .cls-208 {
        fill: #767a7c;
      }

      .cls-209 {
        fill: #5e5e61;
      }

      .cls-210 {
        fill: #5cad92;
      }

      .cls-211 {
        fill: #72787c;
      }

      .cls-212 {
        fill: #469283;
      }

      .cls-213 {
        fill: #469a95;
      }

      .cls-214 {
        fill: #787878;
      }

      .cls-215 {
        fill: #787a7a;
      }

      .cls-216 {
        fill: #7b4149;
      }

      .cls-217 {
        fill: #515255;
      }
    </style>
  </defs>
  <g>
    <path class="cls-23" d="M77.3,183.67c-.86-.49-1.7-.62-2.49,.16-.68-.37-.58-1.4-1.21-1.82,0-12.85-43.99-16.95,0-38.56,.48,.73,.99,1.43,1.44,2.18,1.1,1.81,3.13,1.67,4.13-.23,5.2-9.88,13.09-15.11,22.98-16.8,1.1-.19,2.23-.22,3.35-.32,.53,.51,.61,1.23,.6,1.93-.1,6.4,0,12.81-.05,19.21,0,.21-.07,.41-.11,.61-.67,1.48-1.35,.42-1.89-.09-1.25-1.18-2.48-2.35-4.1-2.86-7.46-2.33-14.1,4.74-12.49,13.3,.3,1.59,.81,3.1,1.46,4.55,.36,.8,.84,1.59,.66,2.58-.55,1.2-1.64,1.69-2.53,2.41-3.8,3.09-5.86,7.15-5.7,12.52,.01,.43-.03,.84-.39,1.11-1.21,.51-2.43,.44-3.66,.12Z"/>
    <path class="cls-108" d="M105.38,150.58c.01-7.43,.03-14.87,.04-22.3,.03-1.72,.06-3.45,.09-5.17,.66-.68,1.53-.66,2.37-.68,7.39-.2,14.78-.57,22.19-.46,6.84,.1,13.68,.21,20.51-.02,14.59-.48,29.17-.37,43.76-.37,1.23,0,2.57-.29,3.62,.72,.11,2.09,.21,4.18,.32,6.28,.87,1.02,.7,2.25,.7,3.44,.02,8.26,.03,16.51-.08,24.77-.01,.91-.09,1.84,.24,2.72,.24,1.12,1.13,2.14,.53,3.4-1.41,1.15-3.1,.67-4.67,.7-5.45,.11-4.9-.57-4.94,5.04-.02,3.23,.05,6.47-.04,9.7-.02,.91,.24,2.05-1.04,2.47-.86-.85-.67-1.96-.68-2.99-.03-4.44,.01-8.88-.03-13.31-.02-2.33-.25-2.56-2.54-2.58-3.38-.03-6.76-.02-10.15,0-.92,0-1.84,.05-2.62,.63-1.35,.92-2.85,1.1-4.42,.83-.65-.11-1.26-.41-1.34-1.14-.09-.83,.62-.98,1.22-1.18,.47-.15,.94-.27,1.41-.4,1.14-.32,.81-.89,.24-1.5-3.98-3.26-8.01-6.49-12.51-8.98-5.53-3.06-11.26-2.94-16.68,.31-4.03,2.42-7.9,5.13-11.39,8.32-.2,.79,.52,1.49,.24,2.3-.39,.61-1.05,.63-1.65,.73-1.06,.16-1.39,.78-1.22,1.78,.05,4.84,.05,9.67,0,14.5-.01,.98,.26,2.17-1.03,2.71-.91-.83-.71-1.95-.72-2.98-.04-4.31,.01-8.62-.03-12.92-.02-2.33-.24-2.57-2.56-2.55-4.24,.04-8.48-.21-12.71,.16-1.44,.32-2.78,.4-3.37-1.37,.07-3.19,.39-6.41-1.22-9.4-.2-.36-.17-.81,.12-1.18Z"/>
    <path class="cls-172" d="M197.96,122.3c-13.05,.05-26.09,.07-39.14,.15-10.3,.06-20.59,.17-30.89,.3-7.47,.09-14.95,.24-22.42,.36-2.3-.11-4.61-.21-7.11-.33,.64-1.1,1.62-1.38,2.44-1.8,8.44-4.36,16.89-8.7,25.34-13.03,.75-.39,1.54-.67,2-1.47,3.05-5.31,7.97-7.83,13.76-8.19,7.09-.44,14.25-.77,21.33,.24,5.1,.73,9.27,3.26,11.95,7.84,.51,.87,1.27,1.24,2.09,1.64,8.13,4.04,16.26,8.09,24.38,12.15,.8,.4,1.67,.75,2.33,1.64-2.05,.62-4.11,0-6.06,.48Z"/>
    <path class="cls-129" d="M200.77,193.5c-31.47,0-62.94,0-94.41,0,.85-3.19,.22-6.52,.98-9.72,.17-.21,.37-.37,.62-.47,2.44-.54,4.91-.22,7.37-.26,4.01-.06,8.02-.02,12.04,.04,1.71,.02,3.46-.32,5.12,.39,.73,.68,.7,1.52,.47,2.39-.26,.62-.82,.82-1.36,.62-2.08-.8-3.34,.4-4.56,1.72,14.6,0,29.18,0,43.75,0,.19,0,.29,0,.27-.13,0-.03-.11-.03-.2-.05-.57-.12-1.08-.33-1.56-.6-1.71-.97-1.85-1.95-.52-3.6,1.99-.57,4.02-.19,6.03-.28,1.25-.05,2.51,.07,3.73-.35,6.56-.37,13.13-.13,19.7-.14,.57,0,1.12,.12,1.62,.43,.48,.37,.68,.9,.7,1.47,.11,2.85,.14,5.69,.22,8.54Z"/>
    <path class="cls-192" d="M199.55,162.53c-.28-.81-.55-1.63-.83-2.44-.53-4.36-.15-8.47,2.44-12.27,4.06-5.95,13.88-6.96,18.27-1.13,1.2,1.59,2.3,1.66,3.87,.63,1.1-.72,2.34-1.36,3.78-.89,1.27,.05,2.56-.05,3.8,.18,6.71,1.23,10.78,7.92,9.03,14.73-2.83,.73-5.59,1.76-8.57,1.91-1.54,.07-2.2-.46-2.25-1.97-.05-1.6,.15-3.21-.15-4.79-.24-.34-.48-.34-.72,.02-.21,1.48-.06,2.96-.09,4.44-.07,2.91-.72,3.33-3.24,2.02-1.25-.65-2.54-1.21-3.76-1.92-2.12-1.23-4.31-1.53-6.7-.98-2.22,.51-2.6,.12-2.73-2.12-.07-1.25,.25-2.53-.25-3.73-1.13,.1-.68,1-.7,1.53-.07,2.11,0,4.22-.04,6.33-.01,.75,.15,1.71-.66,2.08-.74,.35-1.22-.46-1.78-.85-.3-.22-.62-1.01-1.06-.1-.75,2.16-2.73,2.61-4.54,3.3-1.9-.19-2.29-1.74-2.85-3.15-.08-.27-.04-.58-.26-.82Z"/>
    <path class="cls-60" d="M227.08,146.42c-1.78,.65-3.64,1.08-5.15,2.34-.74,.62-1.33,.51-1.88-.37-2.73-4.37-6.82-5.83-11.65-4.79-4.86,1.05-7.6,4.5-8.95,9.17-.7,2.41-.69,4.86-.73,7.32-.49-.52-.41-1.17-.41-1.8-.02-9.91-.03-19.81-.04-29.72,8.2,.39,15.07,3.93,21.17,9.13,2.96,2.52,5.62,5.35,7.64,8.72Z"/>
    <path class="cls-68" d="M200.77,193.5c-1.17-1.48-.74-3.22-.8-4.88-.06-1.62-.05-3.24-.07-4.86,.09-.1,.19-.2,.28-.3,2.82-.89,5.71-.36,8.57-.41,7.79-.11,15.58,.1,23.37-.11,1.22,.19,2.54-.09,3.65,.7-.77,4.54-5.03,9-10.31,9.63-8.19,.97-16.46,.68-24.7,.22Z"/>
    <path class="cls-78" d="M107.38,183.75c.14,3.3,1.08,6.68-1.01,9.74-7.78,.31-15.61,1.13-23.28-.53-4.83-1.05-8.47-4-9.49-9.28,1.34-.68,2.81-.09,4.19-.41,.75-.21,1.52-.26,2.3-.26,8.03,0,16.07,.05,24.1,.02,1.1,0,2.29-.21,3.19,.72Z"/>
    <path class="cls-177" d="M229.22,155.32c.94,1.92,.29,3.96,.42,5.94,.07,1.06,.06,1.56,1.51,1.37,2.35-.32,4.7-.51,6.89-1.53,.67-.31,1.33-.49,1.88,.23-.14,3.27-1.54,6.05-3.38,8.66-.71,1.6-2.31,1.82-3.69,2.38-1.33,.14-2.72,.99-3.92-.34-.58-1.57-.31-3.21-.35-4.81-.08-3.17,.07-6.34,.04-9.51,0-.85-.03-1.7,.61-2.39Z"/>
    <path class="cls-39" d="M233.11,171.88c1.14-.63,2.28-1.26,3.42-1.89,1.72,2.04,1.29,4.48,.98,6.75-.32,2.34-1.13,4.6-1.73,6.9-1.07-.17-2.22,.35-3.22-.39,.7-3.77,.74-7.56,.54-11.37Z"/>
    <path class="cls-212" d="M220.3,108.36c.82,1.08,0,1.21-.77,1.2-4.89-.11-8.26,2.35-10.79,6.27-.61,.94-1.17,1.25-1.7-.07-1.54-3.83-3.9-6.69-8.39-7.02-.37-.03-.76-.19-.69-.62,.1-.63,.65-.68,1.16-.62,2.96,.3,5.41,1.54,7.12,4.02,.63,.92,1.13,1.93,1.77,3.04,1.56-2,3.37-3.71,5.48-5.1,2.12-1.3,4.29-2.32,6.81-1.1Z"/>
    <path class="cls-120" d="M220.3,108.36c-2.36-.18-4.56,.62-6.81,1.1-1.91-.73-3.89-.14-5.82-.32-.47-.05-1.06,.12-1.23-.53-.12-.46,.22-.78,.49-1.11,1.74-2.1,3.62-2.13,5.53-.14,.37,.39,.5,1.03,1.12,1.16,2.4-3.19,4.52-3.23,6.72-.17Z"/>
    <path class="cls-197" d="M107.38,183.75c-9.06-.02-18.12-.04-27.17-.08-.81,0-1.7,.26-2.42-.4-.83-5.31,1.39-9.41,5.24-12.78,1.26-1.1,2.75-1.94,4.13-2.9,.38-.3,.81-.4,1.28-.27,1.99,1.4,4.36,2.14,6.34,3.55,.59,2.64,.15,5.31,.29,7.97,.05,.89-.13,1.8,.24,2.99,.52-3.59-.29-6.95,.51-10.22,2.31-1.06,4.51-2.61,7.29-1.78,3.86,3.3,4.72,7.8,4.99,12.53,.03,.51-.18,.96-.53,1.34l-.19,.06Z"/>
    <path class="cls-210" d="M88.49,167.64c-.44-.02-.89-.04-1.33-.06-.17-1.3-.98-2.31-1.53-3.44-3.22-6.6-.85-14.31,5.47-17.08,4.42-1.94,8.66-1.38,12.4,1.84,.64,.55,1.26,1.12,1.88,1.68,1.26,2.61,2.15,5.31,1.84,8.26-.09,.82-.24,1.63-.36,2.45,.03,.24-.05,.43-.27,.55-.76,.25-1.39-.12-1.98-.49-1.99-1.26-4.05-1.52-6.26-.62-.7,.29-1.46,.6-2.25,.23-.81-.97-.4-2.14-.55-3.22-.08-.56,.36-1.44-.75-1.47-.5,1.75-.16,3.51-.22,5.26-.05,1.3-.42,2.35-1.61,2.99-1.62,.87-2.75,2.43-4.49,3.12Z"/>
    <path class="cls-108" d="M199.55,162.53c.15,.14,.3,.28,.45,.42,1.13,3.62,.58,7.35,.68,11.03,.06,2.38,.03,4.76,0,7.13,0,.91,.01,1.83-.62,2.6,0,0-.15,.04-.15,.04-7.2,.02-14.39,.03-21.59,.05-3.37,.34-6.76-.04-10.14,.2-1.41,.1-1.63-1.25-1.73-2.26-.24-2.52-.55-5.05-.62-7.58,.11-1.05-.06-2.11,.08-3.16,.1-.8,.32-1.52,1.16-1.86,1.93,.38,4.11-.06,5.67,1.61,.68,2.21,.24,4.48,.35,6.72,.11,2.3,.29,2.56,2.57,2.59,3.45,.05,6.91,0,10.36,.03,.97,0,1.99-.14,2.83,.58,.91-.5,.53-1.37,.53-2.08,.04-3.93,.02-7.87,.02-11.8q0-3.84,3.95-3.84c1.48,0,2.95,.02,4.43,0,.61,0,1.28,.18,1.77-.41Z"/>
    <path class="cls-173" d="M128.8,158.73c.68-1.31,2.04-1.85,3.13-2.68,2.07-1.58,4.34-2.89,6.34-4.55,6.26-5.21,16.07-5.18,22.47-.06,3.12,2.5,6.56,4.61,9.58,7.26-.19,.21-.42,.37-.69,.47-.82,.28-1.67,.24-2.51,.24-11.69,0-23.39,.01-35.08,0-1.11,0-2.28,.16-3.22-.67Z"/>
    <path class="cls-59" d="M189.01,140.79c0,2.54-.05,5.07,.02,7.61,.04,1.31-.31,1.91-1.76,1.88-4.3-.07-8.6-.06-12.89,.01-1.37,.02-1.88-.46-1.87-1.83,.04-5.14,.02-10.28,0-15.43,0-2.32,1.31-3.74,3.34-4.34,3.23-.96,6.56-.92,9.79,0,2.49,.71,3.35,2.07,3.37,4.69,.02,2.47,0,4.93,0,7.4Z"/>
    <path class="cls-59" d="M188.86,180.66c-4.65,0-9.3-.1-13.95,.06-2.04,.07-2.52-.68-2.44-2.54,.12-2.53-.02-5.07-.04-7.6-1.06-2.69-1.08-5.37,0-8.05,.1-1.02,.77-1.19,1.65-1.18,4.45,.02,8.89,.02,13.34,0,.96,0,1.64,.13,1.61,1.35-.14,5.99,.19,11.98-.17,17.97Z"/>
    <path class="cls-65" d="M109.29,132.02c1.15-2.63,3.28-3.77,6.02-3.82,2.31-.04,4.66-.36,6.94,.34,2.66,.81,3.57,2.01,3.59,4.73,.03,4.94-.01,9.87,.06,14.81,.02,1.39-.45,1.81-1.82,1.82-4.79,.04-9.58,.21-14.37,.32-.92-.52-1.09-1.42-1.1-2.35-.06-4.56-.05-9.12,0-13.68,0-.79,.25-1.52,.69-2.17Z"/>
    <path class="cls-62" d="M109.27,162.1c.45-.62,1.12-.49,1.74-.49,4.37-.01,8.73-.02,13.1-.01,.83,0,1.79-.15,1.76,1.17-.12,5.98,.25,11.96-.19,17.93-.18,.22-.4,.39-.67,.5-4.65,.5-9.31,.23-13.96,.16-1.38-.02-2.31-.81-2.37-2.22-.21-5.15-.15-10.31-.03-15.46,.01-.58,.33-1.07,.62-1.56Z"/>
    <path class="cls-108" d="M125.37,180.75c.1-.06,.2-.07,.31-.06,.92-.5,.54-1.37,.55-2.08,.04-5.21,.04-10.41,.05-15.62,2.13-1.16,4.29-1.02,6.45-.1,.57,.8,.54,1.73,.54,2.65,.02,5.15,.02,10.29,0,15.44,0,.97,.1,2-.73,2.77-1.69-.02-3.37-.04-5.06-.06-2.51-.5-2.78-.88-2.12-2.95Z"/>
    <path class="cls-108" d="M125.37,180.75c-.22,1.65,.58,2.56,2.12,2.95-6.64,0-13.29,0-19.93-.01-.23-4.07-.35-8.18-3.11-11.57-.57-.71-1.18-1.39-1.77-2.09-.08-.42-.24-.9,.06-1.23,1.87-2.08,2.76-4.69,3.95-7.13,.07-.12,.12-.25,.17-.38,.6,.88,1.38,1.21,2.4,.81,.02,5.35,.13,10.7,.03,16.05-.03,1.96,.43,2.71,2.56,2.63,4.5-.17,9.01-.04,13.51-.03Z"/>
    <path class="cls-33" d="M167.43,138.48c0,2.19-.04,4.37,.01,6.56,.03,1.1-.39,1.49-1.48,1.48-4.09-.03-8.18-.04-12.27,.01-1.23,.02-1.56-.47-1.54-1.63,.06-4.23,.07-8.46,.01-12.69-.02-1.37,.44-1.87,1.83-1.85,3.95,.06,7.9,.04,11.85-.02,1.17-.02,1.65,.36,1.61,1.58-.07,2.18-.02,4.37-.02,6.56Z"/>
    <path class="cls-32" d="M151.27,138.59c0,2.11-.04,4.23,.02,6.34,.03,1.05-.25,1.52-1.4,1.54-3.52,.05-7.04,.15-10.55,.31-1.5,.07-2.14-.36-2.1-2,.11-4.15,.09-8.31,.02-12.47-.03-1.49,.51-1.96,1.97-1.93,3.45,.07,6.91,.05,10.36-.03,1.28-.03,1.76,.38,1.71,1.68-.08,2.18-.02,4.37-.02,6.55Z"/>
    <path class="cls-46" d="M128.8,158.73c12.94-.02,25.87-.04,38.81-.05,.76,0,1.55-.11,2.28,.28,.71,1.07,.24,1.75-.79,2.09-1.39,.46-2.79,1.04-4.31,.63-1.48-.46-3-.21-4.5-.23-6.63-.05-13.26,.16-19.89,0-1.71-.04-3.41-.02-5.12-.02-1.67-.08-3.34,.14-5-.17-.25-.1-.46-.24-.63-.44-.36-.66-1.06-1.19-.83-2.09Z"/>
    <path class="cls-108" d="M109.29,132.02c-.01,5.26-.02,10.52-.03,15.78,0,.83-.14,1.7,.44,2.43-3.06-1.19-4.03-2.4-3.89-5.05,.23-4.26,.06-8.54,.07-12.81,0-.12,.09-.25,.21-.56,1.01,1.05,2.1,1.33,3.2,.21Z"/>
    <path class="cls-108" d="M164.88,161.26c1.09-.08,2.19-.11,3.27-.24,1.19-.14,1.88-.77,1.73-2.06,.14-.09,.28-.17,.42-.26,.65,.42,1.41,.83,1.15,1.77-.24,.88-1.13,.61-1.74,.84-.72,.28-2.14,.04-2.06,.91,.12,1.18,1.48,.69,2.31,.69,.82,0,1.64-.25,2.47-.39,0,2.68,0,5.37,0,8.05-1.62-.71-3.6-.01-5.08-1.27-.96-2.03-1.22-4.4-2.9-6.1-.18-.72-.25-1.42,.43-1.95Z"/>
    <path class="cls-154" d="M129.63,160.82c.14,.01,.28,.03,.42,.03,1.69,.52,3.45-.1,5.15,.34,.81,1.12,.53,2.38,.49,3.61-.04,.34-.13,.67-.32,.96-1.07,.42-1.09-.46-1.14-1.05-.1-1.06-.64-1.61-1.64-1.78-2.1,.02-4.2,.04-6.3,.06-.17-1.25,.4-1.78,1.63-1.75,.6,.01,1.26,.16,1.72-.42Z"/>
    <path class="cls-152" d="M125.8,187.95c.9-.56,2.03-.7,2.58-1.86,.4-.83,1.23-.65,2.03-.35,.71,.26,1.49,.34,2.23,.49,1.62-.88,1.43-2.42,1.46-3.91,.03-1.79,.05-1.79,1.19-2.33,.91,1.63,.27,3.43,.6,5.12,.14,.97,.87,.96,1.59,.95,5.89-.08,11.8,.3,17.68-.37,1.13-.13,2.24,.15,3.35,.24,1.73,.14,3.51,.46,5.03-.76,.59-2.1-.28-4.34,.63-6.41,.15-.2,.35-.28,.6-.24,1.05,1.21,.51,2.69,.64,4.05,.06,.63-.05,1.28,.09,1.9,.18,.8,.57,1.23,1.24,.37,.5-.65,.95-1.28,1.88-.69-1.08,2.59,.96,2.81,2.56,3.37-.17,1.04-1.01,.82-1.65,.82-14.04,.03-28.08,.02-42.13,0-.56,0-1.14,.05-1.59-.41Z"/>
    <path class="cls-153" d="M135.07,179.85c-.64,1.4-.37,2.89-.3,4.31,.08,1.67-.49,2.33-2.13,2.06-.03-.82-.06-1.65-.09-2.47,0-6.94,.02-13.88,.03-20.82,1.53-.89,2.19-.41,2.15,1.32-.01,.55,.15,1.1,.23,1.65,.73,.4,.8,1.12,.82,1.81,.09,3.49,.1,6.97,0,10.46-.02,.63-.15,1.25-.7,1.68Z"/>
    <path class="cls-38" d="M125.8,187.95c14.32,0,28.64,0,42.95-.01,.81,0,1.71,.31,2.41-.41,.07,0,.14-.01,.21,0,.7,.13,1.94-.37,1.94,.63,0,.99-1.23,.62-1.93,.62-14.83,.02-29.66,.02-44.49,.01-.49,0-1.11,.11-1.44-.13-.68-.49,0-.58,.35-.71Z"/>
    <path class="cls-108" d="M168.61,184.15c-.7-.05-1.29,.05-1.27,.95,.03,1.15-.74,1.16-1.56,1.12-1.06-.05-.95-.82-.96-1.52-.02-2.03-.04-4.06-.05-6.09-.88-1.61-.66-3.27-.2-4.93,.77-.75,1.4-.52,1.94,.28,.25,2.78,.52,5.56,.74,8.34,.09,1.19,.73,1.47,1.82,1.46,3.09-.03,6.18,.03,9.27,.06-3.22,.74-6.48,.1-9.72,.35Z"/>
    <path class="cls-193" d="M200.06,183.71c-.02-6.92-.04-13.84-.06-20.76,.72,1.23,1.11,2.71,2.53,3.41,2.3,2.08,5.35,2.71,8,4.11,.57,2.79,.15,5.61,.28,8.42,.04,.87-.14,1.76,.25,2.91,.47-4.12-.27-7.99,.45-11.8,1.81-1.44,4.04-1.79,6.19-2.33,.87-.22,1.58,.46,2.21,1.03,1.45,1.32,3.26,1.89,5.05,2.51,1.28,.45,2.02,.17,2.06-1.34,.02-.56-.07-1.33,.82-1.47,.88,.64,.74,1.61,.74,2.5,.02,3.51,.14,7.02-.24,10.51,.29-2.14,.23-4.29,.28-6.44,.02-.95-.2-2,.71-2.74,1.26-.12,2.52-.24,3.78-.36,1.34,3.86,1.17,7.65-.54,11.37-.75,.54-1.61,.44-2.45,.44-10.02,.01-20.04,.02-30.05,.02Z"/>
    <path class="cls-178" d="M227.59,168.46c-.14,4.43-.12,4.39-4.27,2.78-1.59-.62-3.14-1.22-4.27-2.58-.64-.77-1.41-.71-2.29-.33-1.54,.66-3.07,1.4-4.81,1.39-.77-.6-.75-1.48-.76-2.31-.04-4.01-.05-8.02,0-12.03,0-.77,.03-1.56,.65-2.16,.94,1.71,.21,3.57,.44,5.34,.08,.57-.14,1.56,.9,1.15,4.85-1.94,8.57,.92,12.39,2.98,1.82,.98,1.91,.46,1.98-1.17,.09-2.07-.52-4.19,.4-6.2,1.11,3.29,.72,6.59,.01,9.87-.24,1.09-.98,.69-1.69,.29,.2,1.16,1.55,1.74,1.31,3Z"/>
    <path class="cls-200" d="M211.84,153.22c.04,5.5,.07,11,.11,16.5-.02,3.95-.03,7.89-.08,11.84,0,.63,.32,1.6-.75,1.67-1.27,.08-.93-1-.94-1.69-.04-3.8-.04-7.61-.06-11.42-.28-2.78-2.37-4.71-3.37-7.15-.05-.43-.58-.95,.16-1.25,.42-.17,.82-.04,1.12,.34,.54,.7,.98,1.51,2.18,2.03,0-3.3,0-6.43,0-9.55,0-1.07,.03-2.17,1.62-1.33Z"/>
    <path class="cls-169" d="M227.59,168.46c-.65-.83-1.3-1.65-1.94-2.48-.37-.47-1.1-1.01-.41-1.58,.65-.53,1.12,.23,1.54,.66,.18,.19,.23,.52,.53,1.25,.92-4.16,.4-7.61,.65-11.01,.42,0,.84,0,1.26,.01,.04,5.64,.07,11.28,.11,16.92-.03,3.03-.03,6.06-.11,9.09-.02,.68,.43,1.83-.75,1.85-1.36,.02-.92-1.26-.85-1.94,.4-3.58,.32-7.17,.31-10.76,0-.68,.23-1.42-.34-2.02Z"/>
    <path class="cls-164" d="M206.75,162.97c.84,1.01,1.6,2.11,2.53,3.02,1.26,1.23,.8,2.71,.83,4.13-3.17,.03-5.76-1.09-7.59-3.76,.31-.92,1.27-.66,1.86-1.04,.93-.61,2.24-.91,2.36-2.35Z"/>
    <path class="cls-213" d="M106.7,161.67c-.09,2.59-1.24,4.72-2.96,6.58-.49,.53-.92,1.06-1.05,1.78-1.5-.52-2.56,.74-3.87,.95-.87,.14-1.75,.29-2.62,.44-.44-.31-.62-.78-.65-1.28-.18-2.74-.21-5.49,.02-8.23,.04-.42,.23-.81,.58-1.1,2.9-.89,5.79-2.23,8.69,.01,.55,.43,1.15,.79,1.87,.84Z"/>
    <path class="cls-167" d="M96.14,160.82c.02,3.53,.04,7.07,.05,10.6-.02,3.38-.03,6.77-.08,10.15,0,.64,.32,1.6-.74,1.67-1.26,.08-.93-.99-.95-1.69-.06-3.66-.08-7.33-.11-10.99-1-1.71-.77-3.64-.49-5.38,.48-2.96,.32-5.9,.39-8.85,0-.35,0-.71,.21-1.02,1.05-.66,1.59-.32,1.63,.86,.05,1.54,.05,3.09,.08,4.63Z"/>
    <path class="cls-195" d="M94.43,155.32c-.04,5.08-.08,10.16-.11,15.24-2.38-.1-4.17-1.38-5.83-2.92,.97-1.61,2.52-2.61,4.08-3.48,1.17-.66,1.42-1.46,1.47-2.69,.09-2.05-.52-4.15,.39-6.15Z"/>
    <path class="cls-108" d="M166.5,173.95c-.55-.14-1.09-.29-1.64-.43-.51-.37-.61-.93-.62-1.5-.06-2.38-.06-4.77,0-7.15,.01-.57,.11-1.12,.61-1.5,2.2,1.4,2.41,3.64,2.5,5.93-1.64,1.3-.49,3.11-.85,4.65Z"/>
    <path class="cls-156" d="M187.27,140.38q0,3.08-2.77,3.08t-2.73-2.95c0-2.73,0-2.84,4.33-2.87,2.3-.02,.59,2.01,1.17,2.75Z"/>
    <path class="cls-109" d="M184.14,135.83c-1.79,.42-2.79-.36-2.37-2.57,.22-1.16-.9-3.04,1.69-2.97,2.39,.07,3.8,1.26,3.81,3.48q0,2.05-3.13,2.06Z"/>
    <path class="cls-149" d="M179.64,140.8c0,2.66-.02,2.47-2.81,2.71-2.7,.23-2.14-1.43-2.33-3.02-.28-2.31,.76-2.72,2.75-2.59,2.39,.15,2.39,.04,2.39,2.9Z"/>
    <path class="cls-134" d="M179.64,133.03c0,2.8,0,2.76-2.68,2.82-1.47,.04-2.61,.06-2.46-2.02,.18-2.51,.96-3.46,3.45-3.51,1.66-.03,1.69,.01,1.69,2.71Z"/>
    <path class="cls-135" d="M184.75,144.72c.8,.33,2.41-.81,2.54,1.32,.09,1.48-.26,2.32-1.93,2.08-.48-.07-.98-.03-1.47,0-1.17,.04-2.16,.13-2.18-1.64-.03-1.88,1.03-1.81,2.28-1.75,.21,0,.42,0,.77,0Z"/>
    <path class="cls-148" d="M176.99,144.74c1.42,0,2.72-.38,2.69,1.73-.03,2.39-1.67,1.54-2.8,1.62-1.13,.09-2.36,.4-2.39-1.6-.03-2.32,1.49-1.66,2.5-1.74Z"/>
    <path class="cls-159" d="M184.41,174.39q-2.65,0-2.65-2.81t2.97-2.7q2.55,0,2.54,2.91,0,2.6-2.86,2.6Z"/>
    <path class="cls-158" d="M179.57,171.7c.48,2.06-.23,2.91-2.47,2.73-2.53-.2-2.39-.06-2.59-2.95-.15-2.2,.61-2.65,2.69-2.69,2.37-.05,2.78,.95,2.37,2.91Z"/>
    <path class="cls-139" d="M184.46,167.19c-.94-.32-2.7,.85-2.74-1.59-.03-1.71,.41-2.53,2.21-2.24,.2,.03,.42,0,.63,0,1.31,.06,2.78-.52,2.79,1.89,0,2.4-1.45,1.87-2.89,1.93Z"/>
    <path class="cls-143" d="M177.12,163.38c1.32-.03,2.59-.35,2.6,1.86,.02,2.37-1.41,1.88-2.75,1.95-1.45,.08-2.49,.08-2.49-1.99,0-2.26,1.37-1.8,2.64-1.82Z"/>
    <path class="cls-145" d="M184.46,178.2c-.56,0-1.12,0-1.68,0-.87,0-1.01-.56-1.01-1.27,0-.71,.15-1.26,1.02-1.26,.91,0,1.82-.02,2.73,0,.83,0,1.72-.16,1.76,1.17,.05,1.39-.79,1.42-1.77,1.38-.35-.01-.7,0-1.05,0h0Z"/>
    <path class="cls-131" d="M177.12,178.18c-.56,0-1.12,.02-1.68,0-.75-.03-.88-.55-.88-1.16,0-.67,.04-1.31,.93-1.33,.84-.02,1.68,0,2.52-.03,.93-.03,1.65,.06,1.64,1.3,0,1.28-.8,1.27-1.69,1.25-.28,0-.56,0-.84,0,0,0,0-.01,0-.02Z"/>
    <path class="cls-112" d="M124.1,140.15q0,3.3-2.99,3.3t-2.94-2.95c0-2.98,.02-2.78,3.49-3.04,2.74-.21,2.59,1.31,2.45,2.69Z"/>
    <path class="cls-148" d="M116.47,140.49q0,2.97-2.93,2.96-2.58,0-2.58-3.1,0-2.83,3.21-2.82,2.29,0,2.29,2.96Z"/>
    <path class="cls-151" d="M121.18,135.83c-3.01,0-3.05,0-3-2.54,.03-1.39-.69-3.23,2.03-3.02,2.58,.2,3.75,1.25,3.92,3.57,.21,2.77-1.75,1.81-2.95,1.99Z"/>
    <path class="cls-141" d="M116.46,132.97c0,2.82-.8,3.41-4.2,3.24-1.52-.07-1.3-1.21-1.3-2.18,0-2.45,1.31-3.63,3.86-3.73,2.46-.1,1.37,1.71,1.64,2.67Z"/>
    <path class="cls-112" d="M121.34,144.72c.78,.49,2.56-1.01,2.77,1.26,.13,1.42-.14,2.37-1.88,2.13-.62-.08-1.26-.04-1.9,0-1.27,.06-2.15-.14-2.2-1.77-.06-1.81,1.04-1.65,2.19-1.62,.28,0,.56,0,1.01,0Z"/>
    <path class="cls-133" d="M113.45,148.11c-.81-.31-2.4,.79-2.52-1.34-.08-1.5,.29-2.3,1.95-2.06,.48,.07,.98,.03,1.47,0,1.19-.06,2.17-.09,2.16,1.66,0,1.67-.82,1.85-2.09,1.73-.28-.03-.56,0-.98,0Z"/>
    <path class="cls-142" d="M121.23,174.38c-1.54,.02-3.22,.41-3.09-2.16,.15-3.04,.34-3.34,3.36-3.34q2.6,0,2.59,2.9,0,2.62-2.87,2.61Z"/>
    <path class="cls-109" d="M113.69,168.88q2.78,0,2.78,2.67,0,2.84-2.82,2.84t-2.68-2.99q0-2.52,2.72-2.52Z"/>
    <path class="cls-146" d="M121.48,163.37c2.66,0,2.88,.26,2.64,2.62-.09,.92-.49,1.23-1.33,1.19-.42-.02-.85,.04-1.26,0-1.27-.16-3,.77-3.02-1.87-.01-2.6,1.65-1.81,2.97-1.93Z"/>
    <path class="cls-116" d="M113.77,167.19c-1.31-.11-2.93,.61-2.86-1.86,.07-2.29,1.49-1.96,2.87-1.95,1.34,0,2.77-.45,2.76,1.93,0,2.46-1.54,1.78-2.78,1.88Z"/>
    <path class="cls-147" d="M113.52,178.62c-.71-.13-1.67,.35-2.31-.33-.49-.53-.29-1.33-.16-2.01,.13-.64,.69-.6,1.18-.61,.77-.02,1.54,0,2.31,0,1.01-.01,1.93-.12,1.96,1.42,.03,1.65-.94,1.59-2.04,1.55-.28-.01-.56,0-.94,0Z"/>
    <path class="cls-110" d="M121.29,178.62c-.72-.1-1.64,.28-2.36-.24-.64-.48-.35-1.3-.3-1.98,.04-.63,.56-.73,1.08-.74,.84,0,1.69,.02,2.53-.02,1.07-.04,1.9,0,1.9,1.49,0,1.49-.83,1.55-1.9,1.48-.28-.02-.56,0-.95,0Z"/>
    <path class="cls-128" d="M160.57,141.49c0-.07,0-.14,0-.21,0-3.2,1.51-4.26,4.68-3.31,.36,.11,.72,.23,.73,.63,.05,1.96,.6,4.05-.38,5.82-.88,1.6-2.68,.54-4.06,.67-1.19,.11-.93-.97-.97-1.69-.03-.63,0-1.27,0-1.9Z"/>
    <path class="cls-102" d="M153.77,141.55c0-.14,0-.28,0-.42,0-3.18,.98-3.91,4.18-3.18,.71,.16,.92,.53,.92,1.16,0,1.05,.01,2.11,0,3.16q0,2.88-2.82,2.87-2.29,0-2.29-3.59Z"/>
    <path class="cls-150" d="M163.34,136.61c-1.9,.4-2.83-.01-2.87-2.37-.04-2.52,1.34-2.18,2.9-2.25,1.76-.09,2.81,.03,2.79,2.36-.02,2.28-.98,2.6-2.82,2.27Z"/>
    <path class="cls-138" d="M156.5,132.06c1.7-.22,2.86-.21,2.89,2.22,.03,2.52-1.22,2.38-2.96,2.44-1.82,.06-2.75-.16-2.76-2.42-.01-2.38,1.12-2.49,2.83-2.24Z"/>
    <path class="cls-121" d="M143.62,141.48c0,.28,0,.56,0,.84,0,2.67-1.37,3.62-3.93,2.8-.86-.27-.72-.91-.76-1.52-.1-1.54,.22-3.09-.26-4.61-.18-.57,.06-1,.69-1.02,1.12-.03,2.25-.03,3.38,0,.75,.02,.88,.57,.88,1.18,0,.77,0,1.55,0,2.32Z"/>
    <path class="cls-127" d="M145.3,141.45c0-.14,0-.28,0-.42,0-3.27,.21-3.41,3.43-3.1,1.95,.19,1.31,1.69,1.16,2.54-.28,1.56,1.4,3.98-1.16,4.59-3.21,.76-3.43,.34-3.43-3.61Z"/>
    <path class="cls-157" d="M140.96,136.63c-1.6,.27-2.49-.02-2.52-2.09-.03-2.34,1.01-2.61,2.92-2.58,1.71,.03,2.68,.2,2.72,2.35,.05,2.56-1.38,2.48-3.13,2.32Z"/>
    <path class="cls-137" d="M149.9,134.26c.44,1.95-.34,2.49-2.22,2.47-1.75-.02-2.47-.34-2.45-2.31,.02-2.05,.8-2.45,2.64-2.47,1.87-.02,2.45,.65,2.03,2.31Z"/>
    <path class="cls-126" d="M135.12,165.06c-.06-1.27-.13-2.54-.19-3.81-.04-.16,0-.31,.1-.44,1.72,.01,3.45,.03,5.17,.04-.36,1.39-1.58,.74-2.4,1.06,3.87-.81,7.73,.34,11.6,0,3.31,.05,6.61-.05,9.92,.06,1.23,.04,2.24,.59,2.6,1.79,.3,1,.35,2.1-.9,2.66-.86-.81-1.87-1.14-3.07-1.14-5.36,.03-10.72,0-16.09,.02-.93,0-1.83,.11-2.63,.65-1.52,.41-2.9,.15-4.11-.88Z"/>
    <path class="cls-175" d="M149.11,162.51c-4.44-.1-8.88-.21-13.32-.31,1.29-1.58,3.09-.35,4.4-1.35,6.79,0,13.59,0,20.38,0,1,.39,2.05,.08,3.07,.19,.49,.06,1.05,.07,.69,.84-.86,1.01-1.97,.87-3.1,.72-4.04-.55-8.08-.39-12.12-.09Z"/>
    <path class="cls-122" d="M164.35,161.7c-1.07-1.11-2.67,.12-3.77-.84,1.44,.04,2.94-.54,4.29,.4,0,.71-.02,1.41-.03,2.12,0,3.38,0,6.77,.01,10.15-.03,1.69-.07,3.39-.1,5.08-.12,.02-.23,.03-.35,.03-.32-.23-.46-.57-.54-.95-.07-.37-.08-.75-.1-1.12-.06-1.91-.07-3.82,0-5.73-.07-2.11-.08-4.21-.07-6.32,0-1,.09-1.96,.66-2.83Z"/>
    <path class="cls-153" d="M135.03,160.81c-.03,.15-.07,.3-.1,.44-1.63-.17-3.31,.41-4.88-.41,1.66-.01,3.32-.02,4.98-.04Z"/>
    <path class="cls-119" d="M135.12,165.06c1.27,.28,2.53,.57,3.8,.85,.67,.58,.67,1.38,.64,2.13-.13,2.99,.3,5.98-.37,8.99-.3,1.34,.53,2.83,.41,4.32-.1,1.18,.11,2.38-.24,3.55-1.53,1.58-2.71,1.72-4.17,.49-.04-1.85-.07-3.7-.11-5.55-.04-4.65-.08-9.3-.11-13.95,.05-.28,.11-.56,.16-.83Z"/>
    <path class="cls-36" d="M135.18,185.4c1.39,.79,2.6,.19,3.82-.45,.95-.3,1.97-.24,2.93-.51,2.28-.11,4.56-.2,6.84,.06,.8,.2,1.61,.21,2.41,0,2.46-.22,4.92-.25,7.38,0,.81,.18,1.63,.31,2.47,.32,1.21,0,2.45-.08,3.33,1.02-1.2,.6-2.5,.9-3.82,.82-7.86-.5-15.71,.44-23.57,.03-.87-.05-2,.27-1.79-1.28Z"/>
    <path class="cls-118" d="M164.36,185.83c-1.09-.34-2.21-.51-3.35-.42-1.24-2.16-.83-4.47-.4-6.68,.3-1.56,1.74-1.82,3.75-.96,.02,.29,.04,.59,.06,.88-.02,2.4-.03,4.79-.05,7.19Z"/>
    <path class="cls-59" d="M164.35,177.76q-3.34,.06-3.34,3.48c0,1.39,0,2.78,0,4.17-.75-.09-1.61,.32-2.19-.51-.75-.82-.61-1.84-.62-2.81-.03-4.09,0-8.18-.02-12.27-.01-2.63-.17-2.76-2.73-2.8q-3.96-.06-3.96,3.91c0,3.74,.01,7.48,0,11.21,0,.98,.09,2-.65,2.81-.56,.63-1.13,.64-1.71,.03-.78-.88-.67-1.97-.67-3.01-.02-4.08,.01-8.16-.02-12.25-.02-2.5-.19-2.65-2.62-2.69-.28,0-.56,0-.84,0-2.61,.03-2.78,.17-2.8,2.73-.03,4.08,0,8.16-.02,12.25,0,1.04,.11,2.14-.71,2.99-.82,.51-1.64,.57-2.44-.04-.01-1.62-.06-3.24-.03-4.86,.03-1.21,.14-2.4-1.72-2.75,1.65-.25,1.74-1.2,1.72-2.34-.06-3.03-.04-6.06-.05-9.08-.05-1.03,.49-1.29,1.44-1.29,6.4,.03,12.8,.04,19.19,0,1.33-.01,1.51,.68,1.47,1.71,.69,1.17,.62,2.82,2.36,3.36,.56,.17,.17,.97-.17,1.43-1.88,.58-1.64,2.1-1.63,3.56,0,1.45,1.06,1.6,2.09,1.83,.28,.06,.49,.25,.68,.46,0,.26,0,.53,0,.79Z"/>
    <path class="cls-130" d="M163.08,170.98c-.04-.38,.37-1.11-.06-1.1-3,.07-1.79-2.12-2-3.55,1.05-3.05,.54-3.8-2.64-3.81-3.09,0-6.18,0-9.27,0,.64-.66,1.46-.39,2.2-.4,3.52-.03,7.05-.02,10.57-.02,.85,0,1.7,.07,2.46-.4,0,3.1,0,6.21,0,9.31-.43,.32-.86,.36-1.28-.03Z"/>
    <path class="cls-114" d="M163.08,170.98c.43,0,.85,.02,1.28,.03,0,1.99,0,3.97-.01,5.96-1.05-.23-2.54,.53-3.08-.64-.66-1.44-.39-3.16-.14-4.73,.16-1.02,1.26-.51,1.95-.62Z"/>
    <path class="cls-108" d="M150.83,184.94c0-5.64,.05-11.28-.01-16.91-.02-1.4,.43-1.88,1.8-1.78,1.96,.15,4.47-.84,5.75,.29,1.32,1.17,.37,3.73,.41,5.67,.08,4.23,.03,8.46,.04,12.68-2.66,.32-5.33,.19-7.99,.04Z"/>
    <path class="cls-108" d="M141.44,184.98c0-5.63,.04-11.25-.05-16.88-.02-1.51,.45-2,1.91-1.85,1.87,.19,4.3-.79,5.49,.37,1.2,1.17,.35,3.6,.37,5.47,.04,4.29-.02,8.58-.04,12.87-2.56,0-5.12,0-7.68,.01Z"/>
  </g>
  <path class="cls-113" d="M86.9,110.07c-4.33-.04-8.66-.08-12.99-.12-2.01-.03-4.01-.04-6.01-.11-.24,0-.6,.5-.69-.52-.06-.69,.24-1.06,.43-1.42,1.99-3.77,4.2-5.64,6.53-6.32,.63-.19,1.21,.66,1.76,1.47,.88,1.29,1.7,1.52,2.63,.05,1.56-2.46,3.24-3.41,5.02-3.08,1.46,.27,2.96,.61,4.39-.04,2.96-1.35,4.76,4.62,6.87,8.79,.08,.17,.2,.58,.18,.73-.09,.71-.32,.4-.49,.4-1.74,.02-3.47-.02-5.21,0-.81,0-1.62,.11-2.43,.16Z"/>
  <path class="cls-113" d="M132.04,84.09c-4.33-.04-8.66-.08-12.99-.12-2.01-.03-4.01-.04-6.01-.11-.24,0-.6,.5-.69-.52-.06-.69,.24-1.06,.43-1.42,1.99-3.77,4.2-5.64,6.53-6.32,.63-.19,1.21,.66,1.76,1.47,.88,1.29,1.7,1.52,2.63,.05,1.56-2.46,3.24-3.41,5.02-3.08,1.46,.27,2.96,.61,4.39-.04,2.96-1.35,4.76,4.62,6.87,8.79,.08,.17,.2,.58,.18,.73-.09,.71-.32,.4-.49,.4-1.74,.02-3.47-.02-5.21,0-.81,0-1.62,.11-2.43,.16Z"/>
  <path class="cls-113" d="M194.83,95.43c-4.33-.04-8.66-.08-12.99-.12-2.01-.03-4.01-.04-6.01-.11-.24,0-.6,.5-.69-.52-.06-.69,.24-1.06,.43-1.42,1.99-3.77,4.2-5.64,6.53-6.32,.63-.19,1.21,.66,1.76,1.47,.88,1.29,1.7,1.52,2.63,.05,1.56-2.46,3.24-3.41,5.02-3.08,1.46,.27,2.96,.61,4.39-.04,2.96-1.35,4.76,4.62,6.87,8.79,.08,.17,.2,.58,.18,.73-.09,.71-.32,.4-.49,.4-1.74,.02-3.47-.02-5.21,0-.81,0-1.62,.11-2.43,.16Z"/>
  <path class="cls-196" d="M59.71,118.45c-.2,.21,.01,.28,.15,.36"/>
  <g>
    <path class="cls-196" d="M206.91,186.9c-1.09,1.89-2.68,3.16-4.74,3.87-.24,.11-.42,0-.58-.16-.43-1.52-.57-3.02,.31-4.46,1.04-1.71,2.02-3.45,3.01-5.19,.18-.31,.38-.62,.43-1.11-.46,.25-.59,.64-.77,.96-.71,1.28-1.51,2.51-2.22,3.79-.09,.17-.2,.34-.31,.5-.16,.23-.34,.53-.65,.43-.27-.09-.22-.42-.26-.67-.31-1.81-.19-3.65-.29-5.47-.11-1.93-.25-3.87-.24-5.82,0-.77,.19-1.42,.63-2.05,.45-.65,.99-1.27,1.31-2.16-.51,.17-.64,.53-.87,.79-.26,.3-.41,.89-.91,.71-.47-.17-.29-.73-.3-1.14-.02-.79,0-1.58-.01-2.37,0-.3,.06-.62-.18-.89-.35,.03-.26,.59-.64,.56-.41-.03-.63-.35-.89-.6-.53-.5-1.01-1.05-1.64-1.46,.54,.82,1.16,1.62,1.9,2.23,1.43,1.18,1.05,2.68,.98,4.13-.03,.66-.51,.36-.76,.08-.48-.55-.97-1.1-1.5-1.6-.2-.19-.36-.43-.8-.56,.23,.52,.54,.85,.85,1.17,.62,.65,1.27,1.28,1.91,1.92,.33,.33,.53,.72,.53,1.2,0,.79,.01,1.58,0,2.37,0,.25,.02,.56-.24,.68-.26,.12-.47-.12-.65-.29-.73-.7-1.44-1.43-2.16-2.14-.14-.14-.26-.3-.48-.33-.12,.21,.07,.31,.17,.41,1,.92,1.77,2.05,2.78,2.95,.57,.51,.83,1.11,.77,1.87-.03,.39,0,.79-.01,1.18-.01,.27,.05,.62-.25,.75-.29,.13-.52-.15-.74-.31-.65-.45-1.12-1.1-1.79-1.61-.07,.34,.15,.46,.28,.61,.31,.33,.59,.71,.96,.95,2,1.31,1.86,3.34,1.86,5.33,0,.22,0,.49-.22,.6-.28,.14-.47-.1-.65-.27-.88-.84-1.71-1.71-2.58-2.56-.24-.23-.43-.52-.83-.66-.01,.28,.18,.4,.31,.54,1.11,1.12,2.19,2.27,3.36,3.33,.58,.52,.85,1.09,.79,1.85-.04,.59,.07,1.18-.09,1.77-.09,.17-.21,.28-.42,.22-.16-.21-.4-.27-.64-.35-1.32-.46-2.34-1.33-3.29-2.33-1.13-1.4-1.45-3.07-1.65-4.79-.6-5.25-1.26-10.5-1.7-15.77-.41-4.99,3.95-8.48,8.48-6.83,2.01,.73,3.28,2.19,3.77,4.22"/>
    <path class="cls-17" d="M201.67,190.63c.17,.05,.34,.09,.5,.14,.65,.53,.69,1.19,.36,1.89-.3,.62-.84,.79-1.48,.7-.68-.09-1.05-.53-1.17-1.15-.11-.56,.13-1.04,.51-1.45,.1-.04,.2-.09,.29-.13,.33-.21,.66-.09,.99,0Z"/>
    <path class="cls-162" d="M201.67,190.63c-.33,.26-.66,.05-.99,0,.32-1.96-.24-3.52-1.9-4.73-.9-.66-1.62-1.56-2.41-2.37-.19-.2-.64-.4-.32-.73,.33-.33,.61,.04,.84,.28,1.11,1.15,2.22,2.32,3.46,3.62,.22-.93,.12-1.61,.11-2.28,0-.03-.02-.06-.01-.08,.31-1.88-1.04-2.85-2.16-3.96-.3-.3-.6-.6-.9-.9-.21-.21-.42-.44-.13-.71,.28-.26,.45,.04,.62,.2,.7,.67,1.33,1.43,2.27,2.03,0-.98,0-1.87,0-2.75,0-.26-.2-.38-.35-.55-1.11-1.16-2.22-2.31-3.32-3.48-.17-.18-.55-.36-.25-.68,.32-.34,.55-.02,.77,.19,.95,.94,1.9,1.89,2.97,2.96,0-1.29,0-2.4,0-3.51,0-.29-.24-.43-.41-.61-.92-.98-1.85-1.97-2.77-2.95-.18-.19-.39-.36-.1-.63,.28-.26,.44-.02,.63,.14,.87,.74,1.75,1.48,2.5,2.11,0-.64,0-1.59,0-2.53,0-.32-.2-.51-.4-.71-.79-.84-1.58-1.68-2.35-2.54-.21-.23-.63-.5-.32-.84,.37-.39,.58,.12,.79,.32,.7,.67,1.36,1.38,2.03,2.07,.4-.32,.04-1.05,.64-.96,.55,.08,.42,.65,.43,1.06,0,1.23,0,2.45,0,3.85,.72-.48,.9-1.1,1.3-1.54,.21-.23,.36-.58,.73-.3,.36,.28,.08,.54-.09,.8-.13,.19-.22,.4-.38,.56-1.59,1.66-1.48,3.67-1.29,5.75,.19,1.98,.16,3.99,.25,5.98,.05,1.08,.13,2.16,.38,3.3,.66-1.12,1.33-2.24,1.99-3.37,.43-.73,.85-1.46,1.28-2.18,.14-.24,.26-.57,.62-.41,.44,.2,.19,.54,.05,.78-1.16,2.05-2.29,4.13-3.54,6.14-.74,1.19-.33,2.39-.37,3.6,0,.19,.05,.39,.08,.58Z"/>
  </g>
  <g>
    <path class="cls-196" d="M63.73,181.94c-1.09,1.89-2.68,3.16-4.74,3.87-.24,.11-.42,0-.58-.16-.43-1.52-.57-3.02,.31-4.46,1.04-1.71,2.02-3.45,3.01-5.19,.18-.31,.38-.62,.43-1.11-.46,.25-.59,.64-.77,.96-.71,1.28-1.51,2.51-2.22,3.79-.09,.17-.2,.34-.31,.5-.16,.23-.34,.53-.65,.43-.27-.09-.22-.42-.26-.67-.31-1.81-.19-3.65-.29-5.47-.11-1.93-.25-3.87-.24-5.82,0-.77,.19-1.42,.63-2.05,.45-.65,.99-1.27,1.31-2.16-.51,.17-.64,.53-.87,.79-.26,.3-.41,.89-.91,.71-.47-.17-.29-.73-.3-1.14-.02-.79,0-1.58-.01-2.37,0-.3,.06-.62-.18-.89-.35,.03-.26,.59-.64,.56-.41-.03-.63-.35-.89-.6-.53-.5-1.01-1.05-1.64-1.46,.54,.82,1.16,1.62,1.9,2.23,1.43,1.18,1.05,2.68,.98,4.13-.03,.66-.51,.36-.76,.08-.48-.55-.97-1.1-1.5-1.6-.2-.19-.36-.43-.8-.56,.23,.52,.54,.85,.85,1.17,.62,.65,1.27,1.28,1.91,1.92,.33,.33,.53,.72,.53,1.2,0,.79,.01,1.58,0,2.37,0,.25,.02,.56-.24,.68-.26,.12-.47-.12-.65-.29-.73-.7-1.44-1.43-2.16-2.14-.14-.14-.26-.3-.48-.33-.12,.21,.07,.31,.17,.41,1,.92,1.77,2.05,2.78,2.95,.57,.51,.83,1.11,.77,1.87-.03,.39,0,.79-.01,1.18-.01,.27,.05,.62-.25,.75-.29,.13-.52-.15-.74-.31-.65-.45-1.12-1.1-1.79-1.61-.07,.34,.15,.46,.28,.61,.31,.33,.59,.71,.96,.95,2,1.31,1.86,3.34,1.86,5.33,0,.22,0,.49-.22,.6-.28,.14-.47-.1-.65-.27-.88-.84-1.71-1.71-2.58-2.56-.24-.23-.43-.52-.83-.66-.01,.28,.18,.4,.31,.54,1.11,1.12,2.19,2.27,3.36,3.33,.58,.52,.85,1.09,.79,1.85-.04,.59,.07,1.18-.09,1.77-.09,.17-.21,.28-.42,.22-.16-.21-.4-.27-.64-.35-1.32-.46-2.34-1.33-3.29-2.33-1.13-1.4-1.45-3.07-1.65-4.79-.6-5.25-1.26-10.5-1.7-15.77-.41-4.99,3.95-8.48,8.48-6.83,2.01,.73,3.28,2.19,3.77,4.22"/>
    <path class="cls-17" d="M58.49,185.68c.17,.05,.34,.09,.5,.14,.65,.53,.69,1.19,.36,1.89-.3,.62-.84,.79-1.48,.7-.68-.09-1.05-.53-1.17-1.15-.11-.56,.13-1.04,.51-1.45,.1-.04,.2-.09,.29-.13,.33-.21,.66-.09,.99,0Z"/>
    <path class="cls-162" d="M58.49,185.68c-.33,.26-.66,.05-.99,0,.32-1.96-.24-3.52-1.9-4.73-.9-.66-1.62-1.56-2.41-2.37-.19-.2-.64-.4-.32-.73,.33-.33,.61,.04,.84,.28,1.11,1.15,2.22,2.32,3.46,3.62,.22-.93,.12-1.61,.11-2.28,0-.03-.02-.06-.01-.08,.31-1.88-1.04-2.85-2.16-3.96-.3-.3-.6-.6-.9-.9-.21-.21-.42-.44-.13-.71,.28-.26,.45,.04,.62,.2,.7,.67,1.33,1.43,2.27,2.03,0-.98,0-1.87,0-2.75,0-.26-.2-.38-.35-.55-1.11-1.16-2.22-2.31-3.32-3.48-.17-.18-.55-.36-.25-.68,.32-.34,.55-.02,.77,.19,.95,.94,1.9,1.89,2.97,2.96,0-1.29,0-2.4,0-3.51,0-.29-.24-.43-.41-.61-.92-.98-1.85-1.97-2.77-2.95-.18-.19-.39-.36-.1-.63,.28-.26,.44-.02,.63,.14,.87,.74,1.75,1.48,2.5,2.11,0-.64,0-1.59,0-2.53,0-.32-.2-.51-.4-.71-.79-.84-1.58-1.68-2.35-2.54-.21-.23-.63-.5-.32-.84,.37-.39,.58,.12,.79,.32,.7,.67,1.36,1.38,2.03,2.07,.4-.32,.04-1.05,.64-.96,.55,.08,.42,.65,.43,1.06,0,1.23,0,2.45,0,3.85,.72-.48,.9-1.1,1.3-1.54,.21-.23,.36-.58,.73-.3,.36,.28,.08,.54-.09,.8-.13,.19-.22,.4-.38,.56-1.59,1.66-1.48,3.67-1.29,5.75,.19,1.98,.16,3.99,.25,5.98,.05,1.08,.13,2.16,.38,3.3,.66-1.12,1.33-2.24,1.99-3.37,.43-.73,.85-1.46,1.28-2.18,.14-.24,.26-.57,.62-.41,.44,.2,.19,.54,.05,.78-1.16,2.05-2.29,4.13-3.54,6.14-.74,1.19-.33,2.39-.37,3.6,0,.19,.05,.39,.08,.58Z"/>
  </g>
  <g>
    <path class="cls-196" d="M56.6,190.79c-1.09,1.89-2.68,3.16-4.74,3.87-.24,.11-.42,0-.58-.16-.43-1.52-.57-3.02,.31-4.46,1.04-1.71,2.02-3.45,3.01-5.19,.18-.31,.38-.62,.43-1.11-.46,.25-.59,.64-.77,.96-.71,1.28-1.51,2.51-2.22,3.79-.09,.17-.2,.34-.31,.5-.16,.23-.34,.53-.65,.43-.27-.09-.22-.42-.26-.67-.31-1.81-.19-3.65-.29-5.47-.11-1.93-.25-3.87-.24-5.82,0-.77,.19-1.42,.63-2.05,.45-.65,.99-1.27,1.31-2.16-.51,.17-.64,.53-.87,.79-.26,.3-.41,.89-.91,.71-.47-.17-.29-.73-.3-1.14-.02-.79,0-1.58-.01-2.37,0-.3,.06-.62-.18-.89-.35,.03-.26,.59-.64,.56-.41-.03-.63-.35-.89-.6-.53-.5-1.01-1.05-1.64-1.46,.54,.82,1.16,1.62,1.9,2.23,1.43,1.18,1.05,2.68,.98,4.13-.03,.66-.51,.36-.76,.08-.48-.55-.97-1.1-1.5-1.6-.2-.19-.36-.43-.8-.56,.23,.52,.54,.85,.85,1.17,.62,.65,1.27,1.28,1.91,1.92,.33,.33,.53,.72,.53,1.2,0,.79,.01,1.58,0,2.37,0,.25,.02,.56-.24,.68-.26,.12-.47-.12-.65-.29-.73-.7-1.44-1.43-2.16-2.14-.14-.14-.26-.3-.48-.33-.12,.21,.07,.31,.17,.41,1,.92,1.77,2.05,2.78,2.95,.57,.51,.83,1.11,.77,1.87-.03,.39,0,.79-.01,1.18-.01,.27,.05,.62-.25,.75-.29,.13-.52-.15-.74-.31-.65-.45-1.12-1.1-1.79-1.61-.07,.34,.15,.46,.28,.61,.31,.33,.59,.71,.96,.95,2,1.31,1.86,3.34,1.86,5.33,0,.22,0,.49-.22,.6-.28,.14-.47-.1-.65-.27-.88-.84-1.71-1.71-2.58-2.56-.24-.23-.43-.52-.83-.66-.01,.28,.18,.4,.31,.54,1.11,1.12,2.19,2.27,3.36,3.33,.58,.52,.85,1.09,.79,1.85-.04,.59,.07,1.18-.09,1.77-.09,.17-.21,.28-.42,.22-.16-.21-.4-.27-.64-.35-1.32-.46-2.34-1.33-3.29-2.33-1.13-1.4-1.45-3.07-1.65-4.79-.6-5.25-1.26-10.5-1.7-15.77-.41-4.99,3.95-8.48,8.48-6.83,2.01,.73,3.28,2.19,3.77,4.22"/>
    <path class="cls-17" d="M51.36,194.53c.17,.05,.34,.09,.5,.14,.65,.53,.69,1.19,.36,1.89-.3,.62-.84,.79-1.48,.7-.68-.09-1.05-.53-1.17-1.15-.11-.56,.13-1.04,.51-1.45,.1-.04,.2-.09,.29-.13,.33-.21,.66-.09,.99,0Z"/>
    <path class="cls-162" d="M51.36,194.53c-.33,.26-.66,.05-.99,0,.32-1.96-.24-3.52-1.9-4.73-.9-.66-1.62-1.56-2.41-2.37-.19-.2-.64-.4-.32-.73,.33-.33,.61,.04,.84,.28,1.11,1.15,2.22,2.32,3.46,3.62,.22-.93,.12-1.61,.11-2.28,0-.03-.02-.06-.01-.08,.31-1.88-1.04-2.85-2.16-3.96-.3-.3-.6-.6-.9-.9-.21-.21-.42-.44-.13-.71,.28-.26,.45,.04,.62,.2,.7,.67,1.33,1.43,2.27,2.03,0-.98,0-1.87,0-2.75,0-.26-.2-.38-.35-.55-1.11-1.16-2.22-2.31-3.32-3.48-.17-.18-.55-.36-.25-.68,.32-.34,.55-.02,.77,.19,.95,.94,1.9,1.89,2.97,2.96,0-1.29,0-2.4,0-3.51,0-.29-.24-.43-.41-.61-.92-.98-1.85-1.97-2.77-2.95-.18-.19-.39-.36-.1-.63,.28-.26,.44-.02,.63,.14,.87,.74,1.75,1.48,2.5,2.11,0-.64,0-1.59,0-2.53,0-.32-.2-.51-.4-.71-.79-.84-1.58-1.68-2.35-2.54-.21-.23-.63-.5-.32-.84,.37-.39,.58,.12,.79,.32,.7,.67,1.36,1.38,2.03,2.07,.4-.32,.04-1.05,.64-.96,.55,.08,.42,.65,.43,1.06,0,1.23,0,2.45,0,3.85,.72-.48,.9-1.1,1.3-1.54,.21-.23,.36-.58,.73-.3,.36,.28,.08,.54-.09,.8-.13,.19-.22,.4-.38,.56-1.59,1.66-1.48,3.67-1.29,5.75,.19,1.98,.16,3.99,.25,5.98,.05,1.08,.13,2.16,.38,3.3,.66-1.12,1.33-2.24,1.99-3.37,.43-.73,.85-1.46,1.28-2.18,.14-.24,.26-.57,.62-.41,.44,.2,.19,.54,.05,.78-1.16,2.05-2.29,4.13-3.54,6.14-.74,1.19-.33,2.39-.37,3.6,0,.19,.05,.39,.08,.58Z"/>
  </g>
  <path class="cls-108" d="M90.65,143.41c-5.87-8.47,.1-9.57-6.32-16.13-6.42-6.56-16.63-5.97-20.58-3.18-3.95,2.79-4.07,12.72-.39,17.76s15.03,1.59,20.01-1.25c4.98-2.84,7.27,2.81,7.27,2.81Z"/>
  <path class="cls-108" d="M97.16,132.46c.43-10.3,5.85-7.57,4.69-16.68-1.16-9.11-9.66-14.8-14.49-14.95s-10.92,7.69-11.02,13.93c-.1,6.24,11.03,10.34,16.71,11.08,5.69,.74,4.11,6.63,4.11,6.63Z"/>
  <g>
    <path class="cls-52" d="M45.63,197.24c1.37-.02,2.74-.04,4.11-.05,.92-.69,1.99-.45,3-.45,29.87-.01,59.73-.01,89.6,0,.57,0,1.14-.03,1.71,.05,1.2,.06,2.45-.33,3.55,.46,0,1.35,.53,3.22-.15,3.89-.67,.67-2.55,.15-3.89,.15-32.23,0-64.46,0-96.69,.03-1.06,0-1.4-.2-1.27-1.28,.11-.92,.02-1.86,.02-2.79Z"/>
    <path class="cls-216" d="M115.87,151.84c-1.16,3.09-2.81,5.77-5.96,7.23-.83-.23-.85-.9-.86-1.58,.11-1.46,.65-2.45,2.26-2.88,1.33-.35,2.11-1.99,1.81-3.24-.33-1.37-1.33-1.88-2.65-1.92-1.31-.03-2.38-.57-3.28-1.52-.93-.97-1.87-1.92-2.68-3-2.51-3.34-4.46-3.85-8.3-2.21-1.05,.63-2.12,1.24-2.75,2.37-.83,1.49-1.44,3.07-1.7,4.76-.06,.4-.07,.83-.49,1.07-1.45-1.6-1.7-3.59-1.86-5.62,.55-3.69,2.23-6.4,6.2-7.13,.4-.07,.6-.36,.84-.63,2.97-3.48,6.8-4.36,11.07-3.35,4.24,1.01,6.8,3.9,8.08,7.98,1,3.19,.7,6.43,.28,9.67Z"/>
    <path class="cls-40" d="M127.96,167.45c.02-2.17,.04-4.34,.06-6.51,1.35-.29,2.73-.1,4.09-.15,.5-.02,.91,.11,1.01,.68,.23,.38,.31,.79,.31,1.23,.03,.53,.21,1.03,.28,1.55,0,1.12,.35,2.29-.43,3.32-1.78,.41-3.56,.67-5.31-.11Z"/>
    <path class="cls-9" d="M133.1,162.76c0-.43,0-.86,.02-1.29,2.29,.08,3.3,1.78,4.34,3.44,.31,1.49,.25,2.96-.1,4.44-.43,1.84-1.6,2.93-3.41,3.35-2.18,.78-4.36,.81-6.54-.01,0-.28,0-.56,0-.83,.43-.58,1.07-.49,1.67-.51,1.47-.06,2.95,.11,4.41-.12,1.84-.53,2.22-2.58,2.11-4.35-.04-.66-.23-1.32-.4-1.96-.18-1.22-1.44-1.39-2.1-2.14Z"/>
    <path class="cls-206" d="M143.9,184.8c.42,.42,.28,.96,.28,1.46,0,3.65-.03,7.3-.05,10.95-1.03,.02-2.07,.07-3.1,.07-29.71,0-59.41,0-89.12,0-.72,0-1.45-.06-2.17-.08-.02-3.65-.04-7.29-.05-10.94,0-.4-.08-.83,.24-1.17,.64,1.22,1.69,1.42,2.98,1.42,29.31-.02,58.63-.03,87.94,0,1.45,0,2.5-.31,3.05-1.71Z"/>
    <path class="cls-97" d="M83.35,183.7c8.49-.03,16.99,0,25.48-.02,.98,0,1.97,0,2.94-.16,1.39-.07,2.8-.48,4.11,.36,3.84,.15,7.68,.17,11.52,.01,2.26-.8,4.52-.81,6.78,0,2.31,.04,4.61,.06,6.92,.12,.98,.03,2.09-.3,2.79,.78q-.02,2.18-2.16,2.18c-29.93,0-59.86-.02-89.79,.03-1.54,0-2.23-.35-2.01-1.93,.35-1.23,1.4-1.07,2.29-1.07,3.26,0,6.52,.06,9.79,.1"/>
    <path class="cls-44" d="M95.99,142.51c3.05-1.87,5.91-1.41,8.21,1.36,1.12,1.35,2.11,2.8,3.42,3.99,.8,.72,1.65,1.16,2.76,1.17,1.92,.02,2.91,.77,3.19,2.26,.27,1.47-.6,3.43-2.1,3.72-1.54,.3-1.83,1.22-2.09,2.37-.01,.06,0,.14-.06,.17-2.51,1.25-2.66,1.15-6.57,3.3-.85,.77-4.9,.03-5.88-.27-2.87-.66-4.64-5.3-5.59-9.55-.01-.06-.02-.13-.02-.2,.12-2.09,.62-4.05,1.8-5.79,.17-.24,.48-.36,.76-.27,.21,.07,.41,.16,.62,.16,.6-.1,1.39,.23,1.59-.73-.64-.54-.87-1.1-.06-1.69Z"/>
    <path class="cls-11" d="M110.32,162.14c4.01,1.79,5.52,5.27,6.18,9.28,.16,.96,.21,1.93,.27,2.9,.04,.57-.03,1.14-.61,1.47-.13,.12-.27,.2-.43,.26-1.45,.01-2.88-.2-4.29-.49-.74-.15-1.24,.02-1.71,.68-2.12,3-5.82,3.95-9.44,2.48-.79-.89-.82-2.07-1.2-3.12-.19-.53-.27-1.09-.43-1.63-1.31-4.37-.57-3.59-4.76-3.64-1.36-.19-2.81,.41-4.1-.45,.68-1.67,2.12-2.71,3.39-3.83,2.38-2.09,5.05-3.69,8.39-3.67,.13,.1,.22,.22,.28,.37,.18,1.59,1.12,2.62,2.62,2.88,1.72,.3,3.48,.43,4.99-.92,.82-.74,.26-1.81,.85-2.56Z"/>
    <path class="cls-30" d="M94.13,169.87c4.37-.2,3.75-.36,4.71,3.23,.49,1.84,1.02,3.67,1.54,5.5,.77,.66,.85,1.61,1.02,2.5,.18,.97,.71,1.39,1.69,1.39,1.64,0,3.27-.03,4.91,0,.96,.03,1.93-.06,2.89,.04,.75,.08,1.45,.33,1.02,1.36-.28,.47-.74,.28-1.12,.28-9.17,0-18.34-.02-27.51-.04-.69-.26-.76-.94-1-1.5-.32-1.12-.91-2.2-.59-3.43-.12-1.97-.91-3.79-1.31-5.7-.71-3.38-.57-3.64,2.87-3.62,.41,0,.83,.02,1.24,.02,.11,.1,.15,.21,.12,.35-.28,.47-.2,1.04-.42,1.53-.62,.74-1.8-.16-2.33,.81,.6,2.79,1.39,5.52,2.15,8.26,.33,1.18,1,1.67,2.24,1.66,3.88-.04,7.76,0,11.64-.02,1.51,0,1.61-.16,1.27-1.64-.67-2.92-1.66-5.76-2.27-8.7-.06-.34,0-.72-.31-.98-.68-.42-1.54-.29-2.21-.74-.18-.15-.33-.3-.21-.56Z"/>
    <path class="cls-43" d="M72.34,180.75c.94-1.03,1.94-1.77,3.39-1.35,2,0,3.94-.14,5.95-.18,.3,1.13,.6,2.26,.91,3.39-2.41,1.06-5.23,.99-7.82,1.25-1.43,.22-3.56-1.44-2.43-3.1Z"/>
    <path class="cls-125" d="M101.65,162.74c-.02-.12-.04-.24-.06-.36,.03-.6,.82-.75,.85-1.36,2.54-1.15,3.77-2.37,6.92-3.55,.15,.54,.06,1.17,.56,1.6-.42,1.04-.08,2.05,.11,3.06-1.66,2.33-6.65,2.69-8.38,.61Z"/>
    <path class="cls-140" d="M94.13,169.87c.12,.13,.24,.25,.36,.38,.29,.72,.1,1.04-.71,.85-2.74,.09-5.43-.87-8.2-.39-.45,.08-.95,.04-1.11-.56,0-.08,0-.16,0-.24,1.78-.01,3.55-.02,5.33-.04,1.44,0,2.89,0,4.33,0Z"/>
    <path class="cls-144" d="M127.41,172.68c2.18,0,4.36,0,6.54,.01,.09,2.01,.18,4.02,.26,6.03,.02,.56,.09,1.15-.29,1.64-2.16,.99-4.33,.87-6.51,.05,0-2.58,0-5.16,0-7.74Z"/>
    <path class="cls-13" d="M127.4,180.42c2.17-.02,4.34-.03,6.51-.05,.57,1.14,.23,2.35,.28,3.53-2.26,.12-4.52,.12-6.78,0,0-1.16,0-2.32,0-3.48Z"/>
    <path class="cls-166" d="M111.9,183.9c-.02-.75-.37-1.06-1.14-1.01-.95,.06-1.91,.03-2.86,.03-.14-.65,.43-.61,.75-.67,3.27-.67,5.43-2.59,6.55-5.71,.11-.3,.33-.52,.58-.7,.13-.02,.25-.03,.38-.05,.06,2.7,.02,5.4-.27,8.09-1.33,0-2.66,.01-3.99,.02Z"/>
    <path class="cls-28" d="M101.65,162.74c2.93,1.68,5.69,1.05,8.38-.61,.1,0,.19,0,.29,0,.36,2.56-.68,3.85-3.31,4.04-1.35,.1-2.72,.16-3.9-.66-.96-.66-1.86-1.39-1.46-2.78Z"/>
    <path class="cls-10" d="M127.44,170.22c-.04-.38-.08-.76,.31-1.02,1.94-.43,3.87-.83,5.87-.37,.55,.66,.49,1.39,.23,2.14-.19,.35-.51,.42-.88,.38-.15-.04-.27-.13-.37-.25-.95-1.06-2.19-.27-3.27-.49-.65-.03-1.33,.1-1.88-.4Z"/>
    <path class="cls-6" d="M127.96,167.45c1.78-.04,3.56-.08,5.34-.11,.69,.21,.6,.64,.3,1.12-1.47,.23-2.93,.57-4.43,.51-.5-.02-1.05,.1-1.44-.38,0-.39-.14-.81,.22-1.12Z"/>
    <path class="cls-2" d="M132.65,171.11c.34,0,.68,0,1.02,.01,.22-.02,.35,.04,.25,.29-.67,.76-1.55,.33-2.32,.38-1.39,.08-2.79,.04-4.19,.04,0-.24,0-.48,.01-.72,1.74-.66,3.48-.65,5.23,0Z"/>
    <path class="cls-24" d="M127.74,168.57c1.95,.16,3.89-.2,5.83-.23,.2,.2,.2,.4,0,.6-1.94,.12-3.88,.38-5.83,.26,0-.21,0-.42,0-.63Z"/>
    <path class="cls-14" d="M132.65,171.11c-1.74,0-3.49,0-5.23,0,0-.3,.01-.6,.02-.9,.71,0,1.43,.01,2.14,.02-.11,.71-.68,.29-1.02,.43,1.38,.08,2.8-.59,4.15,.19-.02,.09-.04,.17-.07,.26Z"/>
    <path class="cls-57" d="M94.13,145.33c-.28-.2-.56-.4-.84-.6,.61-1.09,1.61-1.71,2.7-2.22-.6,.84-.07,1.21,.63,1.52-.7,.68-1.87,.47-2.49,1.3Z"/>
    <path class="cls-94" d="M133.57,168.94c0-.2,0-.4,0-.6,.03-.37,.06-.74-.27-1.01,.02-1.11,.05-2.23,.07-3.34,.93-.64,1.52-.12,2.05,.59,.82,1.65,.71,3.37,.29,5.08-.23,.91-.9,1.46-1.79,1.75-.08-.1-.17-.2-.25-.29-.03-.73-.06-1.45-.1-2.18Z"/>
    <path class="cls-22" d="M135.42,164.58c-.64-.35-1.28-.7-2.05-.59-.23-.38-.39-.77-.28-1.23,1.12,.17,2.01,.64,2.33,1.82Z"/>
    <path class="cls-61" d="M109.68,152.09c.02-.89-.12-1.76,1.05-1.78,1.02-.02,1.38,.68,1.35,1.48-.04,.9-.68,1.5-1.59,1.58-1.18,.11-.63-.89-.81-1.28Z"/>
    <path class="cls-198" d="M96.63,149.74c0,.6-.11,1.19-.88,1.16-.68-.03-.74-.59-.73-1.14,.02-.58,.06-1.26,.79-1.27,.72,0,.82,.64,.81,1.25Z"/>
    <path class="cls-202" d="M102.96,149.98c.69,.03,.82,.5,.84,1.06,.02,.64-.16,1.16-.88,1.21-.7,.05-.86-.51-.86-1.03,0-.57,.16-1.14,.89-1.24Z"/>
    <path class="cls-165" d="M94.13,145.33c.3-1.45,1.45-1.27,2.49-1.3,.49,.45,.18,.77-.24,.91-.73,.23-1.46,.54-2.25,.4Z"/>
    <path class="cls-171" d="M105.38,148.15c-.87-.63-1.45-1.03-2.01-1.46-.23-.17-.58-.35-.35-.72,.25-.42,.59-.27,.93-.08,.73,.41,1.35,.88,1.43,2.26Z"/>
    <path class="cls-203" d="M97.94,154.16c.59-.36,1.11-.08,1.81,0q-.96,.58-1.81,0Z"/>
    <path class="cls-73" d="M99.4,152.51c-.07,.27-.26,.49-.59,.54-.28,.04-.36-.19-.33-.38,.06-.36,.24-.69,.67-.66,.23,.01,.28,.24,.25,.5Z"/>
    <path class="cls-45" d="M115.79,175.84c-1,3.85-3.42,6.15-7.36,6.82-.18,.03-.35,.17-.52,.26-1.76,.02-3.52-.04-5.27,.07-1.1,.07-1.44-.47-1.61-1.38-.19-1.01-.42-2.01-.64-3.02,1.74,.26,3.47,.35,5.23,.09,1.85-.27,3.21-1.12,3.86-2.88,.32-.88,.75-1,1.63-.79,1.54,.37,3.13,.56,4.7,.82Z"/>
    <path class="cls-194" d="M97.21,171.83c.97,3.66,1.94,7.33,2.95,11.13-5.17,0-10.17-.02-15.18,.02-.87,0-.99-.53-1.15-1.14-.79-2.93-1.58-5.86-2.38-8.79-.08-.29-.05-.63-.34-.83,1.55-.53,3.18-.46,4.77-.55,3.5-.19,7.01,.12,10.51-.16,.32-.03,.61,.07,.83,.33Z"/>
    <path class="cls-184" d="M84.48,170.15c.86,.44,1.74,.09,2.61,.1,1.56,.01,3.15-.36,4.61,.5,.23-.68,.84,.09,1.23-.34,.42-.46,.67,.09,.88,.42,.17,.28,.19,.54-.08,.77-3.2,.25-6.4,.34-9.59-.1-.56-.61-.31-1.02,.32-1.33Z"/>
    <path class="cls-56" d="M84.16,171.49c3.21-.03,6.43-.06,9.64-.09,.98-.46,2.08-.28,3.1-.56,.44,.23,.34,.62,.31,.99-4.76,.06-9.52,.11-14.28,.18-.61,0-1.25-.15-1.82,.2,.29-.75,.94-.39,1.45-.47,.53-.09,1.12,.18,1.6-.26Z"/>
    <path class="cls-105" d="M96.9,170.84c-.13,1.01-.91,.54-1.43,.59-.55,.05-1.11-.02-1.67-.04,0-.19,.02-.39,.03-.58,.74,.41,.57-.23,.67-.57,.77,.32,1.68,.08,2.4,.59Z"/>
    <path class="cls-29" d="M133.26,178.01c.22,1.26-.38,1.7-1.66,1.59-.81-.07-1.26-.1-1.33-1.18-.11-1.61,.41-2.11,1.97-2.06,1.29,.04,1.08,.79,1.02,1.65Z"/>
    <path class="cls-5" d="M132.71,170.85h-4.91c.68-.57,1.37-.12,1.77-.61,1.03-.02,2.06-.04,3.09-.05,.24,0,.56,0,.52,.37-.02,.27-.3,.23-.48,.29Z"/>
    <path class="cls-50" d="M91.68,177.43c-.04,1.09-.62,1.6-1.56,1.57-1.01-.02-1.59-.63-1.61-1.67-.01-1.08,.6-1.62,1.63-1.57,1.05,.05,1.48,.76,1.54,1.66Z"/>
  </g>
  <text class="cls-1" transform="translate(67.49 136.09)"><tspan x="0" y="0">10!!</tspan></text>
  <g>
    <path class="cls-4" d="M90.58,116.27c-1.18,.11-2.16,.2-2.28-1.44-.07-.9-1.07-1.5-1.65-2.23-1.64-2.1-1.48-4.92,.4-6.52,1.98-1.69,5.78-1.46,7.52,.44,1.74,1.9,1.54,4.71-.5,6.59-.47,.43-1.04,.84-1.09,1.47-.13,1.65-1.09,1.95-2.4,1.69Z"/>
    <path class="cls-168" d="M88.61,117.38c1.2-.42,2.47-.2,3.72-.24,.09,0,.24,.14,.25,.23,.05,.32-.23,.35-.43,.36-1.18,.02-2.35,0-3.53,0,0-.12,0-.24-.01-.36Z"/>
    <path class="cls-161" d="M92.43,120.69h-3.67c0-.09,0-.19-.01-.28h3.69c0,.09,0,.19-.01,.28Z"/>
    <path class="cls-201" d="M92.48,119.14c-1.16,.3-2.36,.13-3.54,.14-.07,0-.21-.17-.21-.27-.01-.32,.25-.3,.46-.3,1.09,0,2.18,0,3.27,0v.43Z"/>
    <path class="cls-163" d="M88.77,122c.84-.53,1.7-.25,2.56-.07-.84,.36-1.7,.35-2.56,.07Z"/>
    <path class="cls-64" d="M93.35,110.9c-.05,.32-.05,.65-.16,.93-.19,.48-.18,1.23-.76,1.31-.57,.08-.55-.7-.84-1.06-.14-.17-.22-.39-.35-.57-.2-.27-.26-.75-.7-.72-.41,.03-.48,.47-.65,.77-.31,.53-.25,1.57-1.13,1.37-.71-.17-.83-1.11-.95-1.79-.16-.94,.37-1.75,.91-2.43,.41-.52,.87,0,1.22,.34,.3,.29,.5,.78,1.06,.28,1.09-.96,1.74-.76,2.2,.65,.09,.29,.1,.61,.15,.92Z"/>
  </g>
  <g>
    <path class="cls-7" d="M250.25,170.68c-.54,.24-1.12,.19-1.69,.19-4.34,0-8.67,0-13.01,0-.63,.4-1.27,.39-1.91,.04-4.21-.01-8.41-.02-12.62-.04-.4,0-.81,0-1.21-.02-1.12-.07-1.5-.44-1.51-1.56-.02-1.95,.08-3.9-.04-5.84-.19-3.1-.07-6.19-.1-9.28-.03-2.66,0-5.32,0-7.98,.27-.65,.13-1.32,.13-1.98,.03-3.12,.02-3.12,3.09-3.12,4.09,0,8.19,0,12.28,0,.68-.38,1.35-.39,2.03-.01,4.31,0,8.62,0,12.92,.01,1.54,0,1.8,.24,1.96,1.78,.03,.27,.03,.54,.03,.81,0,8.45,0,16.91,.02,25.36,0,.59-.05,1.14-.37,1.64Z"/>
    <path class="cls-199" d="M233.64,170.91c.63-.16,1.27-.07,1.91-.04,0,4.79,0,9.57,0,14.36-.08,.51-.43,.76-.9,.77-.51,.02-.88-.25-1.01-.78,0-4.77,0-9.54,0-14.31Z"/>
    <path class="cls-170" d="M235.69,141.08c-.68,.11-1.36,.12-2.03,.01,0-.4,.01-.8,.02-1.19,.01-.63,.33-.99,.97-1.02,.61-.02,.9,.38,.99,.91,.07,.42,.04,.86,.05,1.29Z"/>
    <path class="cls-48" d="M234.5,170.02c-4.71,0-9.42-.02-14.14,.02-.95,0-1.3-.25-1.29-1.24,.04-8.55,.04-17.09,.02-25.64,0-.95,.32-1.2,1.23-1.19,9.08,.03,18.17,.01,27.25,.02,2.12,0,2.12,.01,2.12,2.12,0,8.22-.01,16.43,.03,24.65,0,.99-.22,1.32-1.28,1.31-4.64-.06-9.29-.03-13.93-.03,0,0,0,0,0,0Z"/>
    <path class="cls-12" d="M234.32,157.11c-.67-.62-.13-1.37-.22-2.06,.51,.29,1.03,.47,1.59,.12,.18-.06,.36-.11,.39-.1-.07,0-.3,.04-.52,.09-.45,0-.92,.08-1.27-.32,.2-.25,.2-.5,0-.74,.28-.4,.89-.31,1.14-.76,.03-.06,.11-.08,.17-.08,.18,0,.25-.05,.26-.18l.65-.02c.2,.72,.67,.9,1.34,.65,.21-.08,.41-.2,.65-.14,.66,.29,1.35,.05,2.02,.11,.31-.05,.56-.37,.92-.13-.42-.51-.65-.05-.94,.14-.42-.06-.36-.38-.37-.67,.21-.34,.53-.39,.88-.35,1.19,.12,2.38,.24,3.57,.36-.52,.61-1.35,.04-1.99,.53,.71,.45,1.57,.07,2.19,.54,.13,.27,.27,.54,.4,.81,.13,.24,.15,.42-.22,.39h.02c-.48-.23-1,.1-1.48-.15,.27,.19,.66,.05,.86,.38,.07,.11,.13,.22,.2,.32-.32,.47-.83,.5-1.3,.45-.46-.04-.91,0-1.37,0-.12-.07-.24-.14-.37-.21-.19-.09-.3-.23-.21-.45,.23-.29,.45-.57-.18-.61-.23-.01-.45-.07-.68-.08-.79,.16-1.57-.09-2.36-.09-.05,.33,.44,.55,.16,.91-.49,.27-1.27,.05-1.46,.85-.74,.64-1.62,.58-2.5,.49Z"/>
    <path class="cls-20" d="M221.15,156.9c-.82-.69-.81-.99,.15-1.36,.45-.17,.62-.4,.69-.85,.07-.42,.23-.84,.4-1.24,.38-.87,1.03-1.06,1.96-.88,.98,.19,2.07,.34,2.97-.06,.78-.34,1.12,0,1.53,.41,.38,.39,.6,.89,.77,1.4,.19,.58,.21,1.26,1.11,1.24,.27,0,.49,.34,.51,.67,.02,.41-.2,.62-.6,.65-2.51,.19-5.03,.07-7.54,.09-.65,0-1.29-.41-1.96-.09Z"/>
    <path class="cls-49" d="M230.06,157.3c-.07,.75-.49,1.48,.1,2.25,.25,.33-.2,.54-.54,.61-1.16-.29-2.33-.09-3.5-.14-1.1-.04-2.2,.05-3.33-.07,.52,.39,1.09,.49,1.69,.49,1.27,0,2.55,.05,3.82-.04,.27-.02,.54-.08,.77,.12-.24,.47-.61,.63-1.14,.62-1.34-.03-2.68-.05-4.01,.01-1.16,.05-1.62-.96-2.42-1.43-.12-.07-.08-.24,.02-.35,.45-.49,.27-1.1,.2-1.63-.08-.63,.18-.67,.64-.64,.73,.24,.31,.91,.6,1.45-.04-.04,0-.06,.02-.15q.22-1.37,1.63-1.38c.61,0,1.21-.02,1.82,.01,.37,.02,.76,.06,.93,.48,.19,.49,.1,.99-.05,1.48-.03,.1-.14,.16-.24,.12-.3-.13-.23-.46-.37-.69,0,.3-.05,.67,.32,.71,.47,.05,.31-.4,.41-.65,.18-.5-.11-1.33,.88-1.28,.6,.44,.15,1.1,.31,1.83,.29-.82,.06-1.39-.17-1.95,.57-.18,1.16-.51,1.61,.22Z"/>
    <path class="cls-12" d="M244.06,160.14c.38-.07,.76-.14,1.14-.21,.2,.18,.02,.48,.22,.66-.97-.3-1.55,.6-2.37,.76-.15-.04-.22-.15-.3-.27-.48-.5-1.12-.46-1.72-.44-.29,.01-.57,.15-.85-.03-.17-.24-.35-.54-.7-.35-.57,.31-.31,.84-.28,1.32,.22-.18,.4-.44,.74-.39,.26,.05,.43,.2,.51,.44-.04,.32,.22,.6,.11,.92-.81-.14-1.63,.35-2.44-.01-.12-.25-.08-.52-.09-.78,0-.41,.22-.79,.16-1.2-.31-.72-.95-.26-1.42-.39-.09,0-.18,0-.27,0-.36-.01-.72-.02-1.07,.06-.09,.02-.18,.02-.27,.02-.36-.03-.74-.04-1.04-.3,.21-.54-.51-1.16,.15-1.65,1.13-.23,2.29-.24,3.43-.41,.38-.06,.54,.16,.65,.46-.07,.15-.63,.47,0,.4,.61-.06,.95,.16,1.27,.54,.49,.57,1.15,.37,1.75,.41,.5,.04,1,0,1.37,.42,.44,0,.89,.1,1.33,0Z"/>
    <path class="cls-58" d="M227.83,167.79c-1.51,.01-3.02,.02-4.54,.04-.41,0-.7-.05-.78-.55-.22-1.42-.49-2.84-.73-4.27-.07-.44,.18-.63,.57-.64,1.51-.04,3.03-.09,4.54-.08,.63,0,.33,.35,.11,.56-.42,.4-.4,.58,.22,.55,.18,.11,.27,.27,.27,.48-.02,.1-.04,.19-.1,.28-.21,.34-.09,1-.64,1.01-.52,0-.27-.66-.53-.94-.05-.05-.11-.08-.21-.07-.29,.23-.01,.82-.53,.93-.09,.02-.19,0-.28-.02-.31-.17-.35-.46-.33-.77,.04-.52-.24-.34-.5-.22-.09,.03-.18,.05-.28,.05-.49-.14-1.22,.29-1.46-.57,.06,.91,.3,1.8,.38,2.71,.02,.31-.03,.64,.3,.83,.34,.08,.56,.02,.51-.4,.01-.25,.11-.45,.34-.57,.1-.02,.19,0,.28,.03,.2,.13,.29,.35,.4,.65,.14-.66,.47-.85,1.02-.64,.51,.2,.31,.46,.03,.78,.48-.13,.31-.71,.71-.81,.56,.07,.3,.69,.64,.91,.23,.14,.53,.12,.75,.29,.16,.23,.01,.34-.17,.45Z"/>
    <path class="cls-35" d="M238.34,155.67c-.27-.24-.64-.54-.41-.89,.14-.22,.62-.29,.93-.14,.59,.29,1.18-.04,1.77,.07-.09,.59,.68,.45,.76,.9,.06,.16,.12,.32,.19,.48-.37,.25-.05,.74-.35,1.02-.18-.15-.25-.5-.61-.31-.49,.26-1.02,.36-1.57,.37,.17,.07,.39-.06,.52,.15-.03,.18,.43,.1,.2,.38-1.03,.3-2.08,.34-3.13,.2-.25-.03-.45,.04-.68,.07-.39,.06-.95,.24-1.02-.28-.08-.58,.53-.56,.95-.59,.44-.03,.87-.06,1.3-.12,.13-.17,.86,.47,.49-.41-.21-.5,.6-.48,.67-.91Z"/>
    <path class="cls-8" d="M228.43,157.3c-.4-.03-.62,.1-.63,.56-.01,.36-.11,.73-.18,1.09-.1,.5-.52,.41-.8,.34-.68-.18-.3-.77-.38-1.18-.04-.21-.06-.51,.28-.54,.2-.02,.29,.15,.29,.34,0,.33,0,.66,.04,.99,.35-1.53,.32-1.58-1.15-1.57-.3,0-.61,.04-.91,0-1.07-.17-1.86-.03-1.77,1.34,.01,.21,.06,.63-.33,.62-.47-.01-.28-.44-.33-.71-.09-.48,.19-1.01-.19-1.45-.35-.37-.81-.14-1.21-.21,.2-.25,.48-.2,.74-.2,2.67,0,5.35,0,8.02,0,.26,0,.54-.06,.73,.21-.2,.13-.39,.27-.59,.4-.55-.3-1.09-.29-1.64,0h0Z"/>
    <path class="cls-47" d="M234.49,163.77h12.05c-.24,.55-.62,.44-.94,.44-3.54,0-7.07,0-10.61-.02-.55,0-.96,.07-1.42,.5-.54,.52-1.31,.79-2.01,1.19-.27-.7-.24-1.15,.59-1.21,.23-.02,.47-.08,.68-.18,.29-.15,.85-.06,.75-.62-.08-.48-.4-.76-.93-.73-.27,.02-.54,0-.81-.02,.31-.54,.88-.18,1.29-.39,.64,.08,.89,.69,1.35,1.02Z"/>
    <path class="cls-37" d="M233.46,147.63q.13,1.77,1.84,1.77c2.92,0,5.84,0,8.76,0,.36,0,.74-.09,1.08,.25-4.66,.18-9.32,.26-14.19-.14,.79-.79,1.6-1.3,2.5-1.89Z"/>
    <path class="cls-63" d="M229.08,160.52c-1.79,.44-3.61,.22-5.42,.17-.63-.02-1.22-.44-1.62-1.11,2.39,.3,4.71,.07,7.02,.16,.23,0,.8-.28,.57,.42-.18,.12-.37,.24-.55,.36Z"/>
    <path class="cls-21" d="M227.47,163.8c-.17-.08-.23-.22-.24-.4,.14-.23,.28-.46,.43-.68,.5-.7,1.05-.74,1.62-.09,.4,.46,.72,.98,.91,1.55,.19,.6,.26,1.2-.71,1.02-.37-.07-.44,.12-.49,.43-.08,.52-.24,1.03-.32,1.56-.08,.52-.36,.68-.84,.59,.06-.13,.12-.26,.19-.39-.07-.78,.05-1.54,.21-2.29,.02-.09,.05-.18,.08-.26,.34-.84-.22-.96-.83-1.04Z"/>
    <path class="cls-72" d="M237.21,157.12c-.5,.38-1.07,.2-1.62,.21-.22,0-.52,.07-.48,.34,.04,.25,.29,.11,.49,.11,1.38-.05,2.76-.05,4.14-.07-.03,1.19-.99,.33-1.42,.65-.77-.13-1.52-.06-2.3,.02-.57,.06-1.21,.37-1.79-.06-.15-.41,.53-.77,.07-1.21,.74-.51,1.73-.04,2.45-.61,.26-.09,.54-.06,.7,.15,.21,.28,.25,.55-.26,.47Z"/>
    <path class="cls-155" d="M229.25,147.43c.16,.91-.29,1.14-1.07,.94-.53-.13-1.03-.02-1.55,.04-.22-.15-.46-.26-.73-.24-.15-.02-.27-.07-.36-.19-.1-.26,0-.47,.19-.64,.29-.19,.68-.24,.9-.55,.38,.21,.73,.58,1.16,0,.27-.38,.62-.06,.82,.17,.14,.17,.15,.44,.45,.44,.08-.06,.15-.05,.2,.04Z"/>
    <path class="cls-111" d="M233.35,162.94c-.49,.09-1.03-.15-1.49,.2-.12-.02-.29,.06-.33-.13-.05-.25,.17-.29,.31-.27,1.04,.11,.99-.57,.99-1.27,0-3.16,0-6.31,.03-9.47,0-.32-.24-.75,.25-.96,.14,1.34,.03,2.68,.06,4.02,0,1.98,0,3.96,0,5.94,0,.54,.04,1.07,.21,1.58,.03,.13,.02,.25-.03,.37Z"/>
    <path class="cls-82" d="M237.51,148.79c-.8,0-1.61-.01-2.41,.03-.5,.03-.65-.16-.61-.64,.04-.44,.08-.63,.66-.49,.49,.12,1.02,.14,1.53,.26,.7-.13,.97,.15,.82,.85Z"/>
    <path class="cls-69" d="M241.93,156.29c.57-.77,1.36-.09,2.04-.3,.19-.06,.42-.14,.64-.16,.56,.08,.43,.51,.39,.85-.04,.36-.36,.21-.56,.22-.63,.02-1.26-.03-1.89,.04-.55,.06-.59-.26-.62-.64Z"/>
    <path class="cls-189" d="M243,147.6c-.15-.32-.93-.16-.65-.78,.26-.55,.63-.48,.97-.03,.43-.44,1.06,0,1.5-.31,.43-.3,.72,0,1.03,.17,.12,.07,.23,.31,.11,.45-.24,.28-.62,.14-.93,.22-.61,.17-1.3-.25-1.87,.27-.05,.07-.1,.07-.15,0Z"/>
    <path class="cls-75" d="M240.53,167.01c-.37,0-.64-.01-.91,0-.33,.02-.53-.08-.45-.45,.07-.32,.29-.47,.59-.36,.66,.25,1.34,.08,1.96,0,.52-.07,1.02,.69,1.52,.01,.04-.05,.2,.13,.2,.28,0,.23-.05,.38-.34,.34-.91-.15-1.77,.32-2.57,.18Z"/>
    <path class="cls-124" d="M238.54,166.81c-.06,.07-.12,.14-.18,.21-.1,.09-.13,.24-.25,.32-.42,.21-.83,.41-.99,.9-.39,.37-.47-.35-.78-.22-.29-.23-.57-.41-.99-.34-.42,.07-.86,.04-1.24-.24,.07-.3,.46-.18,.57-.43,.13-.29,.39-.43,.62-.62,.04-.01,.09-.02,.13-.02,.64,.42,1.31,.26,1.99,.14,.4-.01,.8-.03,1.12,.29Z"/>
    <path class="cls-66" d="M244.8,154.08c-.67-.02-1.35-.05-2.02-.05-.47,0-.55-.31-.57-.66-.02-.43,.34-.33,.59-.34,.6-.02,1.2-.02,1.8-.02,.31,.31,.23,.69,.2,1.07Z"/>
    <path class="cls-136" d="M221.55,144.92c.04-.26-.08-.57,.21-.76,.41-.11,.83-.19,1.26-.22,.34-.19,.73-.03,1.09-.24,.53-.31,.49,.13,.47,.46-.23,.33-.52,.6-.8,.89-.46,.27-.95,.44-1.49,.31-.28-.09-.59-.13-.75-.44Z"/>
    <path class="cls-55" d="M225.8,147.42c-.07,.18-.14,.36-.2,.54-.28,.36-.62,.38-1,.19-.47-.21-.93-.05-1.39,.07-.55,.07-1.11,.12-1.66-.04-.25-.2,.13-.4,0-.6,.72-.68,1.64-.65,2.5-.58,.45,.04,.93,.09,1.39,.17,.15,.04,.28,.1,.36,.24Z"/>
    <path class="cls-204" d="M225.4,147.41c-1.29-.05-2.58-.22-3.84,.19-.46-.53-.43-.84,.36-.83,.49,0,.97,0,1.46-.02,.59-.28,1.2,.03,1.8-.05,.42,.13,.41,.4,.22,.71Z"/>
    <path class="cls-182" d="M225.06,143.78c.92,.08,1.84-.25,2.77-.02,.16,.22,.19,.44-.02,.65-.61-.15-1.19,.19-1.8,.11-.3,.22-.62,.3-.92,.03-.25-.23-.3-.5-.03-.77Z"/>
    <path class="cls-190" d="M222.37,145.21c.54,.25,.9-.4,1.42-.28,.93-.16,1.02-.06,.8,.85-.72,.37-1.47,.11-2.21,.14-.11-.23-.12-.47,0-.71Z"/>
    <path class="cls-107" d="M242.41,145.52c-.75-.02-1.5-.05-2.25-.03-.23,0-.5,.18-.56-.14-.06-.27,.22-.4,.44-.43,.79-.09,1.58-.24,2.38-.09,.37,.24,.36,.48-.01,.7Z"/>
    <path class="cls-41" d="M224.59,145.78c.24-.76-.19-.89-.8-.85,.06-.47,.34-.71,.8-.77,.16-.13,.31-.25,.47-.38-.27,1,.52,.64,.95,.74,.06,.23,.13,.45,.19,.68-.41-.03-.75,.15-1.06,.39-.18,.07-.36,.13-.54,.2Z"/>
    <path class="cls-123" d="M221.55,148.19c.51-.42,1.12,.01,1.66-.17,.29,.46,1.07,.92,0,1.37-.21,0-.43,.01-.64,.02-.14-.26-.22-.63-.65-.34-.18,.12-.36,.1-.53-.03,.06-.28,.11-.56,.17-.84Z"/>
    <path class="cls-103" d="M238.55,153.46c-.33,.56-.85,.62-1.44,.6-.74-.03-.94-.34-.6-1,.61,.06,1.25-.2,1.81,.2,.21-.09,.24,.03,.22,.2Z"/>
    <path class="cls-208" d="M236.3,146.95c.29-.35,2.19-.6,2.35-.28,.13,.26,.15,.72-.27,.67-.78-.08-1.58,.27-2.34-.12,.04-.14,.18-.17,.26-.27Z"/>
    <path class="cls-174" d="M238.55,153.46c-.07-.07-.15-.13-.22-.2,.54-.53,1.25,.08,1.82-.25,.35,.09,.13,.54,.41,.66l-.02-.02c-.68,.66-1.79,.56-1.99-.19Z"/>
    <path class="cls-12" d="M235.9,162.57c-.77,.43-.71-.62-1.2-.68-.47,.17-.49-.26-.49-.48,0-.52,.44-.55,.83-.63,.52,.04,.98,.17,1.07,.79,0,.35-.03,.69-.21,1Z"/>
    <path class="cls-99" d="M224.65,147.98c.32,.25,.63-.06,.95-.01,.14,.01,.28,.03,.42,.04,.17,.15,.31,.32,.21,.57-.5,.45,.34,.32,.26,.61-.92,.25-1.6-.56-2.45-.55-.11-.52,.32-.53,.62-.66Z"/>
    <path class="cls-89" d="M234.11,167.45c.56-.17,1.14,.11,1.73-.09,.46-.15,.44,.36,.49,.67-.61,.38-1.28,.17-1.92,.19-.59,.01-.22-.5-.3-.77Z"/>
    <path class="cls-115" d="M235.07,160.91q-.76,.46-.36,.98c0,.16,.02,.38-.17,.43-.3,.07-.41-.17-.46-.4-.16-.65,.04-1.3,.02-1.95,.36-.08,.69,.02,1.02,.15,.18,.28,.21,.55-.05,.79Z"/>
    <path class="cls-188" d="M235.87,153.07c.03,.26,.05,.52,.06,.64-.62-.07-1.08,.49-1.64,.38-.16-.56-.56-1.28,.63-.93,.32,.09,.61-.24,.95-.09Z"/>
    <path class="cls-70" d="M224.65,147.98c-.05,.37-.6,.27-.62,.66,.36,.95-.29,.79-.83,.75-.04-.06-.07-.11-.11-.17,.71-.34-.04-.81,.11-1.2,.47-.24,.96-.27,1.45-.04Z"/>
    <path class="cls-47" d="M233.26,162.78c-.06-.15-.18-.3-.18-.45,0-2.43,.01-4.86,.02-7.29,.08-.04,.13,0,.15,.08,0,2.27,.01,4.55,.02,6.82,.17,.28,.26,.56-.02,.83Z"/>
    <path class="cls-79" d="M227.8,144.4c0-.22,.02-.43,.02-.65,.76-.04,1.64-.53,2.19,.68-.79-.27-1.47,.43-2.21-.03Z"/>
    <path class="cls-93" d="M241.15,147.38c-.46,.01-.93,.03-1.39,.03-.29,0-.63,.04-.61-.43,.02-.45,.36-.45,.65-.42,.39,.04,.78,.16,1.16,.25,.18,.16,.34,.32,.19,.58Z"/>
    <path class="cls-179" d="M240.36,168.25c-.08,0-.15,.02-.23,.03-.4,.04-.81,.09-1.2-.03-.5-.15-.7-.42-.19-.83,.55,.05,1.15-.35,1.66,.17,.16,.23,.14,.45-.04,.66Z"/>
    <path class="cls-104" d="M242.99,160.9c.02,.15,.04,.3,.05,.45-.56,.06-1.12,.13-1.68,.19-.05-.03-.09-.07-.14-.1-.35-.55-.15-.86,.45-.83,.44,.02,.96-.14,1.32,.3Z"/>
    <path class="cls-81" d="M237.32,166.54c-.8,.59-1.66,.52-1.88-.16,.64-.09,1.29-.4,1.89,.1v.06Z"/>
    <path class="cls-91" d="M229.25,147.43c-.07-.01-.13-.03-.2-.04-.21-1.05,.67-.47,.97-.54,.36-.08,1.16-.22,1.17,.27,0,.45-.68,.2-1.1,.22-.25,.01-.58-.09-.84,.09Z"/>
    <path class="cls-76" d="M241.19,167.23c.77-.11,1.15,.16,.98,.99-.45,.15-.92,.26-1.25-.19-.24-.33-.09-.62,.27-.8Z"/>
    <path class="cls-84" d="M237.12,168.25c-.44-1.1,.57-.77,.99-1.01,.45,.26,.42,.62,.22,1.02h-1.22Z"/>
    <path class="cls-67" d="M244.4,155.51c-.4,0-.8,0-1.19,0-.22,0-.5,.07-.46-.32,.03-.29,.22-.38,.49-.37,.62,.04,1.23,.13,1.78,.47-.28-.12-.45,.04-.62,.22Z"/>
    <path class="cls-12" d="M233.26,162.78c0-.28,.01-.55,.02-.83,.7,.41,1.03,1.07,1.22,1.82-.69,.15-.66-.69-1.14-.83-.03-.05-.06-.11-.09-.16Z"/>
    <path class="cls-100" d="M246.21,147.2c-.06-.3-.13-.63,.34-.59,.3,.02,.71-.15,.88,.24,.24,.54-.51,.38-.56,.73,.05,.29-.1,.48-.36,.44-.26-.03-.18-.29-.15-.48,.02-.14-.06-.25-.15-.34Z"/>
    <path class="cls-101" d="M225.13,145.58c.11-.8,.46-.93,1.06-.39,.18,.31,.12,.65-.18,.74-.3,.09-.76,.17-.88-.35Z"/>
    <path class="cls-15" d="M222.37,145.21c.18,.23,.19,.47,0,.71-1.18,.1-1.24,.03-.83-1,.29,.05,.59,.07,.82,.29Z"/>
    <path class="cls-106" d="M235.71,155.25c-.64,.72-1.15,.46-1.61-.2,.06-.07,.12-.14,.18-.21,.47,.09,.98-.09,1.42,.23,.05,.04,.06,.08,.05,.12-.01,.04-.03,.06-.04,.06Z"/>
    <path class="cls-183" d="M238.12,144.78c.23-.02,.46-.05,.69-.06,.25-.01,.37,.12,.37,.37,0,.16-.05,.46-.16,.41-.49-.22-1.04,.35-1.49-.13,.05-.35,.3-.5,.6-.6Z"/>
    <path class="cls-85" d="M240.55,162.56c-.17-.24-.73-.39-.2-.81,.3-.28,.63-.37,1.02-.21,0,0-.01,0-.01,0,0,.17,0,.32,.19,.4,.19,.18,.15,.37,.04,.57-.36-.26-.69,.1-1.04,.05Z"/>
    <path class="cls-98" d="M246.21,147.2c.19,.03,.43,0,.33,.32-.04,.12-.17,.28-.02,.34,.07,.03,.23-.19,.35-.29,.2,.21,.47,.37,.55,.68-1.43,.33-1.45,.31-1.21-1.05Z"/>
    <path class="cls-42" d="M241.19,167.23c-.44,.92-.32,1.05,.98,.99-.6,.37-1.2,.3-1.81,.03,.01-.22,.03-.44,.04-.66,.26-.14,.44-.43,.79-.36Z"/>
    <path class="cls-71" d="M236.3,146.95c-.09,.09-.17,.18-.26,.27-.07,0-.14,0-.2,0-.37-.07-.8,.35-1.1-.13-.11-.17,.04-.36,.18-.41,.5-.16,1.02-.33,1.38,.27Z"/>
    <path class="cls-211" d="M243,147.6c.05,0,.1,0,.15,0,.2,.27,.45,.7,.07,.83-.42,.14-.97,.03-1.4-.13-.18-.06-.03-.44,.28-.43,.34,0,.63-.08,.9-.27Z"/>
    <path class="cls-215" d="M246.85,154.86c.38-.04,.72-.21,.8,.27,.05,.34-.3,.48-.41,.35-.32-.39-.95,.37-1.04-.25-.08-.51,.35-.53,.66-.36Z"/>
    <path class="cls-42" d="M238.34,168.25c.06-.37-.01-.71-.22-1.02,.08-.07,.16-.14,.24-.21,.05,.21,.21,.31,.39,.4-.3,.53-.07,.75,.46,.79,.31,.02,.62,.04,.93,.07-.6,.22-1.2,.25-1.8-.03Z"/>
    <path class="cls-181" d="M235.9,162.57c-.28-.27-.03-.54,.01-.81,.16-.24,.44-.5,.6-.16,.21,.45,.47-.06,.64,.14,.05,.09,.04,.17-.01,.25-.06,.94-.84,.35-1.24,.58Z"/>
    <path class="cls-81" d="M235.3,166.4c.01,.42-.23,.6-.62,.62-.44-.03-.67-.4-.46-.67,.26-.34,.72-.12,1.08,.04Z"/>
    <path class="cls-12" d="M233.26,155.13s-.1-.05-.15-.08c0-1.34,0-2.68,0-4.02,.37,1.35,.1,2.73,.15,4.1Z"/>
    <path class="cls-95" d="M237.51,148.79c-.17-.38-.2-.9-.82-.85,.41-.33,.76-.1,1.11,.11,.22,.14,.55,.3,.43,.6-.12,.3-.47,.14-.72,.14Z"/>
    <path class="cls-186" d="M239.55,157.32c-.2-.01-.4,0-.59-.04-.2-.03-.29-.2-.21-.36,.16-.3,.23,.09,.34,.07,.52-.08,.97-.43,1.52-.36-.02,.15-.22,.29-.04,.47-.27,.4-.68,.13-1.02,.22Z"/>
    <path class="cls-160" d="M237.14,161.99c-.02-.06-.04-.13-.05-.19,.34-.38,.7-.32,1.07-.06,.18,.28,.24,.56-.05,.81-.46,.06-.83-.06-.97-.56Z"/>
    <path class="cls-80" d="M225.4,147.41c0-.25,0-.51-.27-.65-.03-.08,0-.14,.06-.18,.47,.08,.92,.34,1.42,.21,.14,.73-.46,.53-.81,.63-.13,0-.27,0-.4-.01Z"/>
    <path class="cls-176" d="M237.32,166.54s.01-.06,.01-.06c.31-.46,.82-.29,1.19-.24,.49,.06,.06,.37,.02,.57-.43,.02-.87,.09-1.22-.27Z"/>
    <path class="cls-16" d="M242.41,145.52c.25-.23,.28-.46,.01-.7,.26-.02,.53-.39,.77-.02,.09,.15,.14,.41,.07,.55-.19,.4-.57,.08-.86,.16Z"/>
    <path class="cls-214" d="M238.12,144.78c-.2,.2-.4,.4-.6,.6-.61,.33-.83,0-.94-.6h1.54Z"/>
    <path class="cls-117" d="M241.15,147.38c-.06-.19-.13-.39-.19-.58,.28-.38,.67-.01,1.02-.12,.29-.09,.21,.33,.03,.48-.24,.19-.54,.25-.86,.22Z"/>
    <path class="cls-90" d="M221.38,149.03c.16-.03,.33-.04,.48-.11,.49-.21,.84-.23,.7,.48-.36-.22-1,.43-1.18-.37Z"/>
    <path class="cls-86" d="M223.02,143.94c-.37,.36-.74,.73-1.26,.22,.33-.59,.77-.57,1.26-.22Z"/>
    <path class="cls-191" d="M240.57,157.11c-.26-.18-.22-.33,.04-.47,.46,.09-.12-.6,.5-.42,.15,.19-.02,.58,.1,.88-.05,.07-.1,.2-.16,.21-.14,.03-.2-.05-.24-.22-.05-.27-.16-.06-.25,0Z"/>
    <path class="cls-41" d="M225.19,146.57c-.02,.06-.04,.12-.06,.18-.58,0-1.17,0-1.75,0,.54-.72,1.22,.02,1.81-.17Z"/>
    <path class="cls-87" d="M241.59,162.51c-.01-.19-.03-.38-.04-.57,.34-.26,.73-.21,.8,.16,.11,.64-.59,.08-.76,.41Z"/>
    <path class="cls-185" d="M244.06,160.14c-.45,.45-.89,.39-1.33,0,.45-.36,.89-.34,1.33,0Z"/>
    <path class="cls-18" d="M245.42,160.59c-.37-.12-.2-.42-.22-.66,.1,0,.2-.02,.29,0,.25,.07,.73-.19,.7,.27-.03,.53-.44,.05-.65,.13-.07,.03-.09,.17-.13,.25Z"/>
    <path class="cls-180" d="M226.22,148.58c-.11-.18-.28-.33-.21-.57,.58-.44,.64-.08,.61,.4-.13,.06-.27,.11-.4,.17Z"/>
    <path class="cls-92" d="M235.15,145.52c-.09,0-.19,.01-.28,.02-.14-.15-.2-.35-.32-.52-.08-.09-.17-.17-.25-.25,.26-.35,.53-.19,.8-.02,.18,.25,.1,.51,.05,.77Z"/>
    <path class="cls-217" d="M235.15,145.52c-.02-.26-.03-.51-.05-.77,.83,.21,.05,.51,.05,.77Z"/>
    <path class="cls-207" d="M234.3,144.77c.13,.02,.26,.04,.39,.06,.04,.04,.05,.09,.05,.14,0,.05-.01,.08-.02,.08-.05,.19-.05,.39-.25,.5-.35-.19-.09-.53-.17-.78Z"/>
    <path class="cls-209" d="M234.68,145.01c0-.06,0-.11,.01-.17,.49,.13,.11,.47,.17,.7,0,0-.07,.02-.07,.02l-.07-.02c-.2-.17-.14-.35-.04-.54Z"/>
    <path class="cls-96" d="M244.99,155.27c.24-.04,.18-.24,.22-.39,.3,.11,.26,.34,.12,.52-.13,.15-.27,.05-.34-.13Z"/>
    <path class="cls-92" d="M234.68,145.01c.01,.18,.03,.36,.04,.54-.08,0-.17,0-.25,0,.03-.2-.06-.44,.21-.55Z"/>
    <path class="cls-187" d="M237.21,157.12c.55-.69-.42-.32-.44-.62-.18-.6,.02-.88,.67-.82,.29,.03,.59,0,.89-.01,0,.1,.04,.27,0,.28-.84,.36-.75,.74,.16,1.2-.56-.15-.91,.42-1.29-.03Z"/>
    <path class="cls-77" d="M241.38,155.61c-.09-.03-.17-.07-.27-.09-.44-.1-1.16-.03-.49-.8,.29,0,.57,.13,.88,.03,.36-.11,.51,0,.5,.46-.01,.55-.24,.53-.62,.41Z"/>
    <path class="cls-205" d="M240.56,153.67c-.07-.6,.37-.61,.76-.62,.22,0,.5-.06,.56,.25,.05,.24-.04,.52-.24,.61-.41,.19-.75-.1-1.1-.26,0,0,.02,.02,.02,.02Z"/>
    <path class="cls-74" d="M235.71,155.25c0-.06,0-.12,0-.18q.79-.33,1.45,.03c-.48,.33-.97,.19-1.44,.16Z"/>
    <path class="cls-53" d="M226.3,155.68c-1-.07-2-.14-2.99-.2-.3-.02-.5-.1-.53-.45-.04-.46,.14-.85,.26-1.27,.24-.8,.66-.1,.99-.1,1.11-.01,2.21,0,3.32,0,.1,0,.2-.04,.3-.04,.33,0,.44-.84,.85-.3,.39,.51,.43,1.2,.32,1.83-.1,.53-.6,.26-.92,.37-.52,.18-1.05,.17-1.59,.17Z"/>
    <path class="cls-51" d="M225.9,156.49c-1.45,0-2.89,0-4.34,0-.19,0-.46,.06-.49-.21-.03-.31,.25-.39,.48-.37,.6,.04,1.2,.18,1.79,.16,2.35-.06,4.7,.21,7.04-.13,.18-.03,.36-.03,.4,.18,.06,.35-.21,.37-.45,.37-1.48,0-2.96,0-4.44,0Z"/>
    <path class="cls-8" d="M228.43,157.31c.33-.02,.64,.01,.6,.44-.04,.54,.19,1.13-.22,1.62-.05,.06-.26,.06-.35,.02-.2-.1-.23-.32-.21-.52,.05-.52,.13-1.04,.19-1.57,0,0,0,0,0,0Z"/>
    <path class="cls-54" d="M226.04,158.29c-.16,.31,.24,.97-.37,.93-.48-.03-.22-.66-.26-1.02-.03-.28-.1-.69,.36-.67,.63,.03,.1,.52,.28,.77Z"/>
    <path class="cls-31" d="M224.82,158.24c-.13,.34,.21,.98-.31,.99-.57,.02-.27-.62-.32-.97-.04-.3-.12-.76,.4-.73,.55,.03,.09,.48,.23,.71Z"/>
    <path class="cls-132" d="M238.16,161.74c-.36,.02-.71,.04-1.07,.06-.25,.1-.6,.79-.68-.15-.02-.21-.33,.04-.5,.11,.12-.68-.57-.56-.84-.85,.02-.26,.04-.53,.05-.79,.05,0,.1,.01,.15,0,.4-.03,.84,.24,1.19-.16,.08,0,.17-.02,.25-.02,.44,.47,1.24,.03,1.62,.65,.39,.46-.2,.76-.18,1.16Z"/>
    <path class="cls-48" d="M241.37,161.55c-.31,.21-.66,.23-1.02,.21-.08-.21-.23-.35-.44-.42-.21-.25-.83-.23-.61-.76,.17-.42,.5-.38,.8-.07,.8-.12,1.59-.21,2.4,.02,.24,.07,.44,.09,.49,.38-.31-.06-.62-.12-.93-.17-.68-.11-.98,.11-.68,.82Z"/>
    <path class="cls-83" d="M240.1,160.51c-.24-.02-.55-.26-.7,.08-.15,.35,.23,.3,.41,.4,.15,.08,.11,.22,.11,.35-.72-.02-.42,.63-.66,1.05-.27-.74-.7-1.36-.25-2.11,.28-.46,.77-.43,1.17-.3,.36,.12,.05,.36-.07,.53Z"/>
    <path class="cls-88" d="M238.35,160.59c-.47,.13-.91-.49-1.44,0-.12,.1-.18-.39-.18-.64,.4,0,.8-.02,1.2-.03,.5,0,.65,.22,.42,.67Z"/>
    <path class="cls-88" d="M236.47,159.96c-.12,.18,.41,1.08-.46,.41-.1-.08-.22-.16-.3,.02-.06,.14-.05,.38-.28,.26-.2-.1-.14-.34-.16-.53,.35-.38,.79-.13,1.19-.16Z"/>
    <path class="cls-3" d="M228.44,164.98c-.19,.8-.05,1.65-.43,2.41-.32,0-.63,0-.95-.01-.27-.21-.17-.49-.09-.72,.11-.34,.14-.34-.34-.45-.24,.24-.2,.55-.21,.84,0,.23-.12,.37-.37,.37-.2,0-.43,0-.45-.27-.01-.18-.18-.37,.04-.54,.1-.08,.38,.06,.31-.14-.04-.12-.34-.17-.53-.2-.19-.03-.33,.09-.34,.28-.01,.12,.06,.26,.07,.39,.01,.2,.04,.43-.24,.46-.36,.05-.36-.21-.36-.45,0-.27,.03-.54-.2-.74-.14-.75-.22-1.5-.01-2.25,.2-.17,.22-.66,.59-.49,.28,.12,.33,.49,.22,.78-.1,.28-.09,.5,.09,.72,.09,.17,.01,.39,.19,.55-.1-.17-.19-.35-.05-.53,.15-.07,.37-.17,.3-.34-.16-.44-.41-.84,.38-.88,.78-.04,.52,.51,.56,.89,.02,.13,.02,.26,.03,.5,.47-.41,.19-1.17,.82-1.34,.37,0,.78-.53,1.08-.09,.25,.37,.24,.88-.11,1.29-.26-.05-.28-.42-.63-.44,.04,.45,.45,.27,.63,.42Z"/>
    <path class="cls-3" d="M222.78,166.39c-.05-1.01-.5-1.99-.25-3.13,.27,1.03,1.2,.23,1.64,.72,.14,.74,.16,1.48,.08,2.23-.14,.17-.35,.31-.26,.59-.08,.05-.16,.06-.25,.04-.3-.19-.69-.17-.95-.45Z"/>
    <path class="cls-34" d="M226.63,166.21c.04-.26-.39-.64,.09-.75,.43-.1,.23,.36,.31,.57,.15,.42,.66,.23,.95,.54-.22,.38-1.3-.15-.91,.81-.52-.25,0-.89-.44-1.17Z"/>
    <path class="cls-19" d="M224.24,166.22c-.25-.74-.25-1.48-.08-2.23,.06-.02,.11-.03,.17-.03,.21,.75,.28,1.5,.01,2.25-.04,0-.07,0-.11,0Z"/>
    <path class="cls-25" d="M222.78,166.39c.33,.11,.89-.34,.97,.4,0,.36-.33,.44-.56,.61-.5-.19-.4-.62-.41-1.01Z"/>
    <path class="cls-34" d="M225.38,164.98c-.03,.54,.56,.33,.83,.71-.37,.07-.77,.28-.99,.15-.35-.2,.12-.57,.03-.89,.05,0,.09,0,.14,.02Z"/>
    <path class="cls-27" d="M223.19,167.4c.1-.28,.31-.46,.56-.61,.08,0,.15,.01,.23,.02q.2,.64-.79,.59Z"/>
    <path class="cls-26" d="M228.44,164.98c-.33,.11-.71,.41-.97-.04-.18-.31,.02-.63,.33-.73,.8-.24,.24,.67,.63,.79,0,0,0-.02,0-.02Z"/>
    <path class="cls-58" d="M223.17,164.98c-.13-.02-.33-.03-.33-.23,0-.22,.18-.33,.38-.36,.2-.02,.29,.12,.29,.3,0,.19-.11,.29-.35,.29Z"/>
  </g>
</svg>