<?xml version="1.0" encoding="utf-8"?>
<!-- Generator: Adobe Illustrator 26.3.1, SVG Export Plug-In . SVG Version: 6.00 Build 0)  -->
<svg version="1.1" id="Livello_1" xmlns="http://www.w3.org/2000/svg" xmlns:xlink="http://www.w3.org/1999/xlink" x="0px" y="0px"
	 viewBox="0 0 327 169" style="enable-background:new 0 0 327 169;" xml:space="preserve">
<style type="text/css">
	.st0{fill:#FFFFFF;}
	.st1{enable-background:new    ;}
	.st2{fill:#643A2A;}
</style>
<g id="Livello_2_00000148656244930085757740000015366969592272925599_">
	<g id="illustrazioni">
		<path class="st0" d="M0,103c0,32.6,45.4,59,101.5,59c20.3,0,39.3-3.5,55.2-9.5c17.4,10.2,41.4,16.5,67.8,16.5
			c53.3,0,96.5-25.5,96.5-57c0-12.6-6.9-24.2-18.6-33.6C317.3,70.6,327,57.7,327,43c0-23.8-25.5-43-57-43c-23.8,0-44.2,11-52.8,26.7
			C206.9,19.5,192.7,15,177,15c-26.6,0-49,12.8-55.3,30.2c-6.7-0.8-13.5-1.2-20.2-1.2C45.4,44,0,70.4,0,103z"/>
		<g>
			<g class="st1">
				<path class="st2" d="M78,115l13.3-30.6h0.3l13.3,30.6h-6.7l-8.5-21.5l4.2-2.9L83.7,115H78z M87.1,104.3h8.8l2,4.9H85.3
					L87.1,104.3z"/>
				<path class="st2" d="M133.9,85.5V115h-5.8v-12H115v12h-5.8V85.5h5.8v11.9h13.2V85.5H133.9z"/>
				<path class="st2" d="M141.5,115V84.3h0l16.4,23.2l-2.5-0.6l16.3-22.6h0.1V115H166V97.4l0.4,3l-10,14.2h-0.1l-10.2-14.2l1-2.8
					V115H141.5z"/>
				<path class="st2" d="M179.4,85.5h20.1v5.6h-14.3v6.3h12.6v5.6h-12.6v6.4h14.8v5.6h-20.6V85.5z"/>
				<path class="st2" d="M206.1,115V85.5h8.8c3,0,5.5,0.4,7.6,1.3c2.1,0.9,3.8,2.1,5,3.5c1.3,1.5,2.2,3.1,2.8,4.9
					c0.6,1.8,0.9,3.6,0.9,5.5c0,2.2-0.4,4.2-1.2,5.9c-0.8,1.7-1.9,3.2-3.2,4.5s-2.9,2.2-4.7,2.8c-1.8,0.7-3.7,1-5.7,1H206.1z
					 M211.9,109.4h3.4c1.5,0,2.8-0.2,4-0.6c1.2-0.4,2.2-1,3.1-1.7c0.9-0.7,1.5-1.7,2-2.8c0.5-1.1,0.7-2.4,0.7-3.9
					c0-1.9-0.3-3.5-0.9-4.7c-0.6-1.2-1.4-2.2-2.3-2.8c-0.9-0.7-1.9-1.1-2.8-1.4c-1-0.3-1.8-0.4-2.4-0.4h-4.7V109.4z"/>
			</g>
		</g>
	</g>
</g>
</svg>
