<svg xmlns="http://www.w3.org/2000/svg" viewBox="0 0 327 169"><defs><style>.cls-1{fill:#fff;}.cls-2{font-size:40px;fill:#643a2a;font-family:JosefinSansRoman-Bold, Josefin Sans;font-weight:700;}</style></defs><g id="Livello_2" data-name="Livello 2"><g id="illustrazioni"><path class="cls-1" d="M0,103c0,32.58,45.44,59,101.5,59,20.34,0,39.29-3.48,55.17-9.46C174.09,162.72,198.06,169,224.5,169c53.3,0,96.5-25.52,96.5-57,0-12.58-6.9-24.21-18.59-33.63C317.27,70.61,327,57.66,327,43c0-23.75-25.52-43-57-43-23.82,0-44.23,11-52.75,26.68C206.94,19.47,192.71,15,177,15c-26.64,0-49,12.83-55.27,30.17A173.11,173.11,0,0,0,101.5,44C45.44,44,0,70.42,0,103Z"/><text class="cls-2" transform="translate(77.52 114.98)">AHMED</text></g></g></svg>