<svg xmlns="http://www.w3.org/2000/svg" viewBox="0 0 327 169"><defs><style>.cls-1{fill:#fff;}.cls-2{font-size:40px;fill:#643a2a;font-family:JosefinSansRoman-Bold, Josefin Sans;font-weight:700;}.cls-3{letter-spacing:-0.06em;}</style></defs><g id="Livello_2" data-name="Livello 2"><g id="illustrazioni"><path class="cls-1" d="M327,103c0,32.58-45.44,59-101.5,59-20.34,0-39.29-3.48-55.17-9.46C152.91,162.72,128.94,169,102.5,169,49.2,169,6,143.48,6,112c0-12.58,6.9-24.21,18.59-33.63C9.73,70.61,0,57.66,0,43,0,19.25,25.52,0,57,0c23.82,0,44.23,11,52.75,26.68C120.06,19.47,134.29,15,150,15c26.64,0,49,12.83,55.27,30.17A173.11,173.11,0,0,1,225.5,44C281.56,44,327,70.42,327,103Z"/><text class="cls-2" transform="translate(91.36 114.94)">M<tspan class="cls-3" x="37.92" y="0">A</tspan><tspan x="63.36" y="0">TTIA</tspan></text></g></g></svg>