<svg xmlns="http://www.w3.org/2000/svg" viewBox="0 0 672 234"><defs><style>.cls-1{fill:#fff;}.cls-2{fill:#846b4a;}</style></defs><title>ahmed testo 15</title><g id="Livello_2" data-name="Livello 2"><g id="illustrazioni"><rect class="cls-1" width="672" height="234" rx="21.32"/></g><g id="testi"><path class="cls-2" d="M21.12,20H34v2.64H24v6.52h8.73v2.64H24v8.7H21.12Z"/><path class="cls-2" d="M36.51,24.49a1.33,1.33,0,0,1,.53-1A1.77,1.77,0,0,1,38.19,23a1.75,1.75,0,0,1,1.14.42,1.33,1.33,0,0,1,.51,1,1.32,1.32,0,0,1-.51,1.07,1.79,1.79,0,0,1-1.14.41A1.82,1.82,0,0,1,37,25.56,1.31,1.31,0,0,1,36.51,24.49Zm.18,4.26h2.82V40.48H36.69Z"/><path class="cls-2" d="M46.89,28.75l.21,2.86L47,31.16a4.45,4.45,0,0,1,1.92-2.09,6.18,6.18,0,0,1,3.15-.78,4.23,4.23,0,0,1,2.87,1,3.29,3.29,0,0,1,1.15,2.54v8.67H53.28V32.71a2.37,2.37,0,0,0-.58-1.54A2.24,2.24,0,0,0,51,30.56a3.49,3.49,0,0,0-1.93.57,3.83,3.83,0,0,0-1.39,1.56A5,5,0,0,0,47.16,35v5.5H44.34V28.75Z"/><path class="cls-2" d="M66.12,40.77A7,7,0,0,1,63,40.06,5.38,5.38,0,0,1,60.69,38a6.3,6.3,0,0,1-.84-3.36,6.39,6.39,0,0,1,.87-3.4A5.92,5.92,0,0,1,63.06,29a6.85,6.85,0,0,1,3.21-.77,5.5,5.5,0,0,1,3,.75A5.27,5.27,0,0,1,71,30.79l-.18.42.27-2.46h2.58V40.48H70.92V37.42l.33.68a3.49,3.49,0,0,1-.57.72,7.11,7.11,0,0,1-1.06.9,6.34,6.34,0,0,1-1.52.75A6.06,6.06,0,0,1,66.12,40.77Zm.75-2.19a4.75,4.75,0,0,0,1.89-.36,3.66,3.66,0,0,0,1.39-1,3.81,3.81,0,0,0,.77-1.59v-2.3a3.56,3.56,0,0,0-.84-1.49,4.3,4.3,0,0,0-1.44-1,4.59,4.59,0,0,0-1.83-.35,4.23,4.23,0,0,0-2.07.51,3.84,3.84,0,0,0-2,3.54,3.88,3.88,0,0,0,.57,2.07A4.07,4.07,0,0,0,64.8,38,4.15,4.15,0,0,0,66.87,38.58Z"/><path class="cls-2" d="M78.54,18.54h2.82V40.48H78.54Z"/><path class="cls-2" d="M88.74,28.75,89,31.38l-.15-.22a5.27,5.27,0,0,1,2-2.12,5.57,5.57,0,0,1,3-.78,4.81,4.81,0,0,1,1.83.33,3.54,3.54,0,0,1,1.33.91,2.75,2.75,0,0,1,.68,1.4l-.15.11a5.09,5.09,0,0,1,2-2,5.31,5.31,0,0,1,2.69-.73,4,4,0,0,1,2.89,1,3.49,3.49,0,0,1,1.13,2.52v8.7h-2.82V32.74a2.68,2.68,0,0,0-.47-1.51,1.78,1.78,0,0,0-1.51-.64,3.24,3.24,0,0,0-1.94.61,4,4,0,0,0-1.32,1.59,5.21,5.21,0,0,0-.49,2.14v5.55H94.77V32.74a2.55,2.55,0,0,0-.5-1.51,1.87,1.87,0,0,0-1.54-.64,3.16,3.16,0,0,0-1.92.61,4.16,4.16,0,0,0-1.32,1.6A4.87,4.87,0,0,0,89,35v5.53H86.19V28.75Z"/><path class="cls-2" d="M116.73,40.77a7.73,7.73,0,0,1-3.66-.81,6,6,0,0,1-2.37-2.21,6.16,6.16,0,0,1-.84-3.22,5.57,5.57,0,0,1,.94-3.15,7.05,7.05,0,0,1,2.51-2.27,7.23,7.23,0,0,1,3.48-.85,6.16,6.16,0,0,1,4.08,1.36,7,7,0,0,1,2.22,3.75l-10.26,3.4-.66-1.56,8.37-2.92-.57.4a3.79,3.79,0,0,0-1.2-1.62,3.39,3.39,0,0,0-2.19-.68,4,4,0,0,0-2,.51,3.74,3.74,0,0,0-1.39,1.4,4.15,4.15,0,0,0-.51,2.09,4.24,4.24,0,0,0,.52,2.12A3.69,3.69,0,0,0,114.64,38a4.36,4.36,0,0,0,2.15.53,4.68,4.68,0,0,0,1.57-.28,7.42,7.42,0,0,0,1.46-.74l1.26,2a8.92,8.92,0,0,1-2.09,1A7.57,7.57,0,0,1,116.73,40.77Z"/><path class="cls-2" d="M129.09,28.75l.21,2.86-.09-.45a4.45,4.45,0,0,1,1.92-2.09,6.18,6.18,0,0,1,3.15-.78,4.21,4.21,0,0,1,2.86,1,3.3,3.3,0,0,1,1.16,2.54v8.67h-2.82V32.71a2.33,2.33,0,0,0-.59-1.54,2.2,2.2,0,0,0-1.72-.61,3.52,3.52,0,0,0-1.94.57,3.81,3.81,0,0,0-1.38,1.56,5,5,0,0,0-.49,2.29v5.5h-2.82V28.75Z"/><path class="cls-2" d="M144.33,23.58h2.85V28.8h3.39v2.07h-3.39v9.61h-2.85V30.87h-2.25V28.8h2.25Z"/><path class="cls-2" d="M159.72,40.77a7.73,7.73,0,0,1-3.66-.81,6,6,0,0,1-2.37-2.21,6.16,6.16,0,0,1-.84-3.22,5.57,5.57,0,0,1,.94-3.15,7.05,7.05,0,0,1,2.51-2.27,7.23,7.23,0,0,1,3.48-.85,6.16,6.16,0,0,1,4.08,1.36,7,7,0,0,1,2.22,3.75l-10.26,3.4-.66-1.56,8.37-2.92-.57.4a3.79,3.79,0,0,0-1.2-1.62,3.39,3.39,0,0,0-2.19-.68,4,4,0,0,0-2,.51,3.74,3.74,0,0,0-1.39,1.4,4.15,4.15,0,0,0-.51,2.09,4.24,4.24,0,0,0,.52,2.12A3.69,3.69,0,0,0,157.63,38a4.36,4.36,0,0,0,2.15.53,4.68,4.68,0,0,0,1.57-.28,7.42,7.42,0,0,0,1.46-.74l1.26,2a8.92,8.92,0,0,1-2.09,1A7.57,7.57,0,0,1,159.72,40.77Z"/><path class="cls-2" d="M177.93,34.5a5.84,5.84,0,0,1,.88-3.17,6.13,6.13,0,0,1,2.46-2.24,7.63,7.63,0,0,1,3.59-.83,7.35,7.35,0,0,1,3.54.83,6,6,0,0,1,3.24,5.41,6.07,6.07,0,0,1-.86,3.18,6.22,6.22,0,0,1-2.38,2.25,7.3,7.3,0,0,1-3.57.84,7.81,7.81,0,0,1-3.56-.78,6.09,6.09,0,0,1-2.44-2.19A6,6,0,0,1,177.93,34.5Zm2.82,0a4,4,0,0,0,2,3.51,3.89,3.89,0,0,0,2,.54,3.94,3.94,0,0,0,2.07-.54,3.83,3.83,0,0,0,1.42-1.46,4,4,0,0,0,.53-2A4.08,4.08,0,0,0,186.84,31a3.86,3.86,0,0,0-2.07-.55,3.91,3.91,0,0,0-2.06.56,4.19,4.19,0,0,0-1.44,1.49A4,4,0,0,0,180.75,34.53Z"/><path class="cls-2" d="M197.88,28.75l.27,3.4-.12-.48a5.21,5.21,0,0,1,1.38-1.82,6.61,6.61,0,0,1,1.92-1.16,5.47,5.47,0,0,1,1.74-.43L203,30.93a4.29,4.29,0,0,0-2.51.49A4.76,4.76,0,0,0,198.76,33a3.89,3.89,0,0,0-.61,2.11v5.36h-2.79V28.75Z"/><path class="cls-2" d="M211.38,40.77a7,7,0,0,1-3.17-.71A5.42,5.42,0,0,1,206,38a6.21,6.21,0,0,1-.84-3.36,6.3,6.3,0,0,1,.87-3.4A5.85,5.85,0,0,1,208.32,29a6.82,6.82,0,0,1,3.21-.77,5.5,5.5,0,0,1,2.95.75,5.32,5.32,0,0,1,1.81,1.78l-.17.42.26-2.46H219V40.48h-2.78V37.42l.33.68a3.87,3.87,0,0,1-.57.72,6.74,6.74,0,0,1-1.07.9,6,6,0,0,1-3.49,1.05Zm.75-2.19a4.75,4.75,0,0,0,1.89-.36,3.74,3.74,0,0,0,1.39-1,3.93,3.93,0,0,0,.77-1.59v-2.3a3.56,3.56,0,0,0-.84-1.49,4.3,4.3,0,0,0-1.44-1,4.59,4.59,0,0,0-1.83-.35A4.21,4.21,0,0,0,210,31a4,4,0,0,0-1.49,1.41A4,4,0,0,0,208,34.5a3.8,3.8,0,0,0,.57,2.07A4.12,4.12,0,0,0,210.05,38,4.19,4.19,0,0,0,212.13,38.58Z"/><path class="cls-2" d="M238.46,40.77a7,7,0,0,1-3.16-.71A5.36,5.36,0,0,1,233,38a6.21,6.21,0,0,1-.84-3.36,6.39,6.39,0,0,1,.86-3.4A5.92,5.92,0,0,1,235.4,29a6.89,6.89,0,0,1,3.22-.77,5.53,5.53,0,0,1,2.95.75,5.32,5.32,0,0,1,1.81,1.78l-.17.42.26-2.46h2.58V40.48h-2.79V37.42l.33.68a3.74,3.74,0,0,1-.56.72,7.22,7.22,0,0,1-1.07.9,6.26,6.26,0,0,1-1.51.75A6.12,6.12,0,0,1,238.46,40.77Zm.75-2.19a4.84,4.84,0,0,0,1.9-.36,3.7,3.7,0,0,0,2.15-2.64v-2.3a3.56,3.56,0,0,0-.84-1.49,4.3,4.3,0,0,0-1.44-1,4.59,4.59,0,0,0-1.83-.35,4.26,4.26,0,0,0-2.07.51,3.93,3.93,0,0,0-1.48,1.41A4,4,0,0,0,235,34.5a3.8,3.8,0,0,0,.58,2.07A4,4,0,0,0,237.14,38,4.18,4.18,0,0,0,239.21,38.58Z"/><path class="cls-2" d="M253.43,28.75l.21,2.86-.09-.45a4.45,4.45,0,0,1,1.92-2.09,6.18,6.18,0,0,1,3.15-.78,4.23,4.23,0,0,1,2.87,1,3.29,3.29,0,0,1,1.15,2.54v8.67h-2.82V32.71a2.32,2.32,0,0,0-.58-1.54,2.22,2.22,0,0,0-1.73-.61,3.49,3.49,0,0,0-1.93.57,3.81,3.81,0,0,0-1.38,1.56,5,5,0,0,0-.5,2.29v5.5h-2.82V28.75Z"/><path class="cls-2" d="M277.58,39.38a6.55,6.55,0,0,1-2,1,8.15,8.15,0,0,1-5.89-.4,5.88,5.88,0,0,1-2.42-2.15,6,6,0,0,1-.87-3.26,5.67,5.67,0,0,1,.93-3.25,6.29,6.29,0,0,1,2.42-2.13,7,7,0,0,1,3.22-.75,8.81,8.81,0,0,1,2.66.38,6.21,6.21,0,0,1,2.05,1.1l-1.41,1.7a6.22,6.22,0,0,0-1.3-.7,4.75,4.75,0,0,0-1.76-.32,4,4,0,0,0-2,.52,3.85,3.85,0,0,0-1.44,1.42A3.95,3.95,0,0,0,271.25,38a4.45,4.45,0,0,0,2.22.54,4.6,4.6,0,0,0,1.46-.22,4.22,4.22,0,0,0,1.21-.63Z"/><path class="cls-2" d="M281.15,40.48V18.54h2.76V31.47l-.06-.49a5,5,0,0,1,1.94-1.92,6,6,0,0,1,3.1-.77,4.23,4.23,0,0,1,2.87,1,3.29,3.29,0,0,1,1.15,2.54v8.67h-2.82V32.71a2.32,2.32,0,0,0-.58-1.54,2.22,2.22,0,0,0-1.73-.61,3.42,3.42,0,0,0-1.93.58,4,4,0,0,0-1.38,1.57A5.05,5.05,0,0,0,284,35v5.5Z"/><path class="cls-2" d="M303.53,40.77a7.73,7.73,0,0,1-3.66-.81,6,6,0,0,1-2.37-2.21,6.16,6.16,0,0,1-.84-3.22,5.58,5.58,0,0,1,.95-3.15,7,7,0,0,1,2.5-2.27,7.23,7.23,0,0,1,3.48-.85,6.16,6.16,0,0,1,4.08,1.36,7,7,0,0,1,2.22,3.75l-10.26,3.4L299,35.21l8.37-2.92-.57.4a3.79,3.79,0,0,0-1.2-1.62,3.39,3.39,0,0,0-2.19-.68,4,4,0,0,0-2,.51,3.76,3.76,0,0,0-1.4,1.4,4.15,4.15,0,0,0-.51,2.09,4.25,4.25,0,0,0,.53,2.12A3.69,3.69,0,0,0,301.45,38a4.33,4.33,0,0,0,2.14.53,4.74,4.74,0,0,0,1.58-.28,7.34,7.34,0,0,0,1.45-.74l1.26,2a8.84,8.84,0,0,1-2.08,1A7.64,7.64,0,0,1,303.53,40.77Z"/><path class="cls-2" d="M321.38,40.48l9.45-21.35H331l9.48,21.35h-3.33l-7.08-17,2.07-1.27-7.89,18.31Zm5.55-7.77H335l1,2.39h-9.87Z"/><path class="cls-2" d="M343.85,40.48V18.54h2.76V31.47l-.06-.49a5,5,0,0,1,1.94-1.92,6,6,0,0,1,3.1-.77,4.23,4.23,0,0,1,2.87,1,3.29,3.29,0,0,1,1.15,2.54v8.67h-2.82V32.71a2.32,2.32,0,0,0-.58-1.54,2.22,2.22,0,0,0-1.73-.61,3.42,3.42,0,0,0-1.93.58,4,4,0,0,0-1.38,1.57,5.05,5.05,0,0,0-.5,2.27v5.5Z"/><path class="cls-2" d="M363,28.75l.24,2.63-.15-.22a5.29,5.29,0,0,1,2-2.12,5.53,5.53,0,0,1,2.95-.78,4.81,4.81,0,0,1,1.83.33,3.58,3.58,0,0,1,1.34.91,2.74,2.74,0,0,1,.67,1.4l-.15.11a5.11,5.11,0,0,1,2-2,5.27,5.27,0,0,1,2.68-.73,4.06,4.06,0,0,1,2.9,1,3.48,3.48,0,0,1,1.12,2.52v8.7h-2.82V32.74a2.68,2.68,0,0,0-.46-1.51,1.8,1.8,0,0,0-1.52-.64,3.21,3.21,0,0,0-1.93.61,4,4,0,0,0-1.32,1.59,5.22,5.22,0,0,0-.5,2.14v5.55H369V32.74a2.55,2.55,0,0,0-.49-1.51,1.89,1.89,0,0,0-1.55-.64,3.16,3.16,0,0,0-1.92.61,4.16,4.16,0,0,0-1.32,1.6,4.87,4.87,0,0,0-.48,2.15v5.53h-2.82V28.75Z"/><path class="cls-2" d="M391,40.77a7.73,7.73,0,0,1-3.66-.81A6,6,0,0,1,385,37.75a6.16,6.16,0,0,1-.84-3.22,5.58,5.58,0,0,1,.95-3.15,7,7,0,0,1,2.5-2.27,7.23,7.23,0,0,1,3.48-.85,6.16,6.16,0,0,1,4.08,1.36,7,7,0,0,1,2.22,3.75l-10.26,3.4-.66-1.56,8.37-2.92-.57.4a3.79,3.79,0,0,0-1.2-1.62,3.39,3.39,0,0,0-2.19-.68,4,4,0,0,0-2,.51,3.76,3.76,0,0,0-1.4,1.4,4.15,4.15,0,0,0-.51,2.09,4.25,4.25,0,0,0,.53,2.12A3.69,3.69,0,0,0,388.9,38a4.33,4.33,0,0,0,2.14.53,4.74,4.74,0,0,0,1.58-.28,7.34,7.34,0,0,0,1.45-.74l1.26,2a8.84,8.84,0,0,1-2.08,1A7.64,7.64,0,0,1,391,40.77Z"/><path class="cls-2" d="M405.86,40.77a6.23,6.23,0,0,1-3.12-.78,5.84,5.84,0,0,1-2.2-2.21,6.53,6.53,0,0,1-.83-3.31,6.15,6.15,0,0,1,.87-3.34A5.72,5.72,0,0,1,402.92,29a7.28,7.28,0,0,1,3.3-.74,6.79,6.79,0,0,1,2.81.6,5,5,0,0,1,2.08,1.64l-.15.94V18.54h2.79V40.48H411V37.56l.33.74a7,7,0,0,1-5.43,2.47Zm.87-2.24a4.56,4.56,0,0,0,2-.4,4.28,4.28,0,0,0,1.44-1.06,3.85,3.85,0,0,0,.82-1.58V33.25a3.63,3.63,0,0,0-.85-1.5,4.34,4.34,0,0,0-1.47-1,5.08,5.08,0,0,0-1.91-.35,4.35,4.35,0,0,0-2.07.51,4,4,0,0,0-1.53,1.42,4.12,4.12,0,0,0,0,4.18A4.23,4.23,0,0,0,404.66,38,4.07,4.07,0,0,0,406.73,38.53Z"/><path class="cls-2" d="M433.85,40.77a7.73,7.73,0,0,1-3.66-.81,6,6,0,0,1-2.37-2.21,6.16,6.16,0,0,1-.84-3.22,5.51,5.51,0,0,1,.95-3.15,6.94,6.94,0,0,1,2.5-2.27,7.23,7.23,0,0,1,3.48-.85A6.16,6.16,0,0,1,438,29.62a7,7,0,0,1,2.22,3.75L430,36.77l-.66-1.56,8.37-2.92-.57.4a3.79,3.79,0,0,0-1.2-1.62,3.39,3.39,0,0,0-2.19-.68,4,4,0,0,0-2,.51,3.76,3.76,0,0,0-1.4,1.4,4.15,4.15,0,0,0-.51,2.09,4.35,4.35,0,0,0,.52,2.12A3.65,3.65,0,0,0,431.77,38a4.33,4.33,0,0,0,2.14.53,4.74,4.74,0,0,0,1.58-.28,7.34,7.34,0,0,0,1.45-.74l1.26,2a9,9,0,0,1-2.08,1A7.64,7.64,0,0,1,433.85,40.77Zm-4.5-18.23h3.09l2.19,3.79h-1.77Z"/><path class="cls-2" d="M457.13,40.94a4.14,4.14,0,0,1-2.84-1,3.43,3.43,0,0,1-1.15-2.54V28.75H456v7.74a2.5,2.5,0,0,0,.6,1.54,2.2,2.2,0,0,0,1.68.64,3.07,3.07,0,0,0,1.84-.58,4.29,4.29,0,0,0,1.34-1.59,5,5,0,0,0,.51-2.28V28.75h2.79V40.48h-2.55l-.24-2.89.18.54A4.57,4.57,0,0,1,461,39.56a5.32,5.32,0,0,1-1.72,1A6.39,6.39,0,0,1,457.13,40.94Z"/><path class="cls-2" d="M472.07,28.75l.21,2.86-.09-.45a4.45,4.45,0,0,1,1.92-2.09,6.18,6.18,0,0,1,3.15-.78,4.23,4.23,0,0,1,2.87,1,3.29,3.29,0,0,1,1.15,2.54v8.67h-2.82V32.71a2.37,2.37,0,0,0-.58-1.54,2.24,2.24,0,0,0-1.73-.61,3.52,3.52,0,0,0-1.94.57,3.88,3.88,0,0,0-1.38,1.56,5,5,0,0,0-.49,2.29v5.5h-2.82V28.75Z"/><path class="cls-2" d="M505.7,39.38a6.55,6.55,0,0,1-2,1,8.18,8.18,0,0,1-5.9-.4,5.85,5.85,0,0,1-2.41-2.15,6,6,0,0,1-.87-3.26,5.67,5.67,0,0,1,.93-3.25,6.27,6.27,0,0,1,2.41-2.13,7.07,7.07,0,0,1,3.23-.75,8.74,8.74,0,0,1,2.65.38,6.26,6.26,0,0,1,2.06,1.1l-1.41,1.7a6.32,6.32,0,0,0-1.31-.7,4.7,4.7,0,0,0-1.75-.32,4,4,0,0,0-2,.52,3.85,3.85,0,0,0-1.44,1.42A4,4,0,0,0,499.37,38a4.45,4.45,0,0,0,2.22.54,4.54,4.54,0,0,0,1.45-.22,4.28,4.28,0,0,0,1.22-.63Z"/><path class="cls-2" d="M509.27,40.48V18.54H512V31.47L512,31a5,5,0,0,1,1.93-1.92,6.05,6.05,0,0,1,3.11-.77,4.21,4.21,0,0,1,2.86,1A3.3,3.3,0,0,1,521,31.81v8.67h-2.82V32.71a2.33,2.33,0,0,0-.59-1.54,2.2,2.2,0,0,0-1.72-.61,3.45,3.45,0,0,0-1.94.58,4,4,0,0,0-1.38,1.57,5,5,0,0,0-.49,2.27v5.5Z"/><path class="cls-2" d="M525.68,24.49a1.32,1.32,0,0,1,.52-1,1.82,1.82,0,0,1,1.16-.42,1.75,1.75,0,0,1,1.14.42,1.33,1.33,0,0,1,.51,1,1.32,1.32,0,0,1-.51,1.07,1.79,1.79,0,0,1-1.14.41,1.87,1.87,0,0,1-1.16-.41A1.3,1.3,0,0,1,525.68,24.49Zm.18,4.26h2.82V40.48h-2.82Z"/><path class="cls-2" d="M536,28.75l.27,3.4-.12-.48a5.21,5.21,0,0,1,1.38-1.82,6.61,6.61,0,0,1,1.92-1.16,5.47,5.47,0,0,1,1.74-.43l-.12,2.67a4.29,4.29,0,0,0-2.51.49A4.76,4.76,0,0,0,536.91,33a3.89,3.89,0,0,0-.61,2.11v5.36h-2.79V28.75Z"/><path class="cls-2" d="M548.78,40.94a4.12,4.12,0,0,1-2.84-1,3.43,3.43,0,0,1-1.15-2.54V28.75h2.82v7.74a2.5,2.5,0,0,0,.6,1.54,2.2,2.2,0,0,0,1.68.64,3.1,3.1,0,0,0,1.84-.58,4.29,4.29,0,0,0,1.34-1.59,5,5,0,0,0,.51-2.28V28.75h2.79V40.48h-2.55l-.24-2.89.18.54a4.57,4.57,0,0,1-1.11,1.43,5.37,5.37,0,0,1-1.73,1A6.29,6.29,0,0,1,548.78,40.94Z"/><path class="cls-2" d="M563.69,28.75l.27,3.4-.12-.48a5.21,5.21,0,0,1,1.38-1.82,6.61,6.61,0,0,1,1.92-1.16,5.47,5.47,0,0,1,1.74-.43l-.12,2.67a4.29,4.29,0,0,0-2.51.49A4.76,4.76,0,0,0,564.57,33a3.89,3.89,0,0,0-.61,2.11v5.36h-2.79V28.75Z"/><path class="cls-2" d="M577.94,46.32a8.68,8.68,0,0,1-2.45-.31,7.61,7.61,0,0,1-1.92-.85A16.87,16.87,0,0,1,571.91,44l1.65-1.81a9.2,9.2,0,0,0,2,1.33,5.29,5.29,0,0,0,2.28.48,5.81,5.81,0,0,0,2.38-.44,3.28,3.28,0,0,0,1.47-1.2,3.42,3.42,0,0,0,.53-1.79l0-3.18.24.52a4.6,4.6,0,0,1-2,2,6.57,6.57,0,0,1-3.42.84,6.17,6.17,0,0,1-3.12-.83,6.39,6.39,0,0,1-2.31-2.22,6.26,6.26,0,0,1,0-6.42,6.37,6.37,0,0,1,2.38-2.23,6.65,6.65,0,0,1,3.23-.81,7.09,7.09,0,0,1,3,.64,4.84,4.84,0,0,1,2,1.63l-.18.48.27-2.26h2.58V40.57a5.16,5.16,0,0,1-.86,2.89,6,6,0,0,1-2.46,2.08A8.58,8.58,0,0,1,577.94,46.32ZM573.65,34.5a3.8,3.8,0,0,0,.58,2.07A4.16,4.16,0,0,0,575.79,38a4.37,4.37,0,0,0,2.15.54,4.87,4.87,0,0,0,2-.38,4.13,4.13,0,0,0,1.49-1.06,4,4,0,0,0,.84-1.51V33.28a3.49,3.49,0,0,0-.9-1.47,4.75,4.75,0,0,0-1.5-1,5,5,0,0,0-1.92-.36,4.47,4.47,0,0,0-2.15.52,4.21,4.21,0,0,0-1.56,1.43A3.81,3.81,0,0,0,573.65,34.5Z"/><path class="cls-2" d="M588.8,34.5a5.84,5.84,0,0,1,.88-3.17,6.13,6.13,0,0,1,2.46-2.24,7.63,7.63,0,0,1,3.59-.83,7.35,7.35,0,0,1,3.54.83,6,6,0,0,1,3.24,5.41,6.07,6.07,0,0,1-.86,3.18,6.22,6.22,0,0,1-2.38,2.25,7.3,7.3,0,0,1-3.57.84,7.81,7.81,0,0,1-3.56-.78,6.09,6.09,0,0,1-2.44-2.19A6,6,0,0,1,588.8,34.5Zm2.82,0a4,4,0,0,0,2,3.51,3.89,3.89,0,0,0,2,.54,3.94,3.94,0,0,0,2.07-.54,3.83,3.83,0,0,0,1.42-1.46,4,4,0,0,0,.53-2A4.08,4.08,0,0,0,597.71,31a3.86,3.86,0,0,0-2.07-.55,3.91,3.91,0,0,0-2.06.56,4.19,4.19,0,0,0-1.44,1.49A4,4,0,0,0,591.62,34.53Z"/><path class="cls-2" d="M22.92,62.77l.27,3.4-.12-.48a5.17,5.17,0,0,1,1.38-1.81,6.65,6.65,0,0,1,1.92-1.17,5.7,5.7,0,0,1,1.74-.42L28,65a4.26,4.26,0,0,0-2.5.5A4.62,4.62,0,0,0,23.8,67a3.87,3.87,0,0,0-.61,2.11v5.36H20.4V62.77Z"/><path class="cls-2" d="M31.5,58.52A1.27,1.27,0,0,1,32,57.47,1.75,1.75,0,0,1,33.18,57a1.71,1.71,0,0,1,1.14.43,1.35,1.35,0,0,1,0,2.11,1.79,1.79,0,0,1-1.14.41A1.84,1.84,0,0,1,32,59.58,1.26,1.26,0,0,1,31.5,58.52Zm.18,4.25H34.5V74.51H31.68Z"/><path class="cls-2" d="M42.84,74.73a7.51,7.51,0,0,1-2.57-.44A5,5,0,0,1,38.22,73l1.17-1.53A6.51,6.51,0,0,0,41,72.51a4.13,4.13,0,0,0,2.73.21,1.65,1.65,0,0,0,.82-.48,1.38,1.38,0,0,0-.12-1.89,3.62,3.62,0,0,0-1.09-.58q-.66-.22-1.44-.42A5.37,5.37,0,0,1,39.57,68a2.87,2.87,0,0,1-.81-2.07,3.27,3.27,0,0,1,.49-1.74,3.74,3.74,0,0,1,1.49-1.33,5.06,5.06,0,0,1,2.4-.53,8.19,8.19,0,0,1,2.31.3,5.73,5.73,0,0,1,1.92,1l-1.11,1.64A3.49,3.49,0,0,0,45,64.48a4.14,4.14,0,0,0-1.33-.27,3.29,3.29,0,0,0-1,.16,2,2,0,0,0-.75.45,1.05,1.05,0,0,0-.28.76,1.09,1.09,0,0,0,.4,1,3.68,3.68,0,0,0,1.1.58l1.35.45a7,7,0,0,1,1.62.68,3.65,3.65,0,0,1,1.15,1.05,2.68,2.68,0,0,1,.44,1.56,3.75,3.75,0,0,1-.53,1.94,3.63,3.63,0,0,1-1.59,1.42A6.12,6.12,0,0,1,42.84,74.73Z"/><path class="cls-2" d="M58.89,74.79a6.32,6.32,0,0,1-2.72-.62,4.81,4.81,0,0,1-2-1.68l.15-.82v8.48H51.54V62.6H54l.39,3-.3-.85A7.27,7.27,0,0,1,56.34,63a6.81,6.81,0,0,1,3.09-.69,6.29,6.29,0,0,1,3.13.78,5.66,5.66,0,0,1,2.21,2.21,6.62,6.62,0,0,1,.81,3.33,6.05,6.05,0,0,1-.87,3.27A5.74,5.74,0,0,1,62.32,74,7.62,7.62,0,0,1,58.89,74.79Zm-.54-2.1a4.6,4.6,0,0,0,2.19-.52,4.29,4.29,0,0,0,1.6-1.45,3.66,3.66,0,0,0,.62-2.08,3.9,3.9,0,0,0-.57-2.11,4.07,4.07,0,0,0-1.52-1.45,4.26,4.26,0,0,0-2.11-.52,4.71,4.71,0,0,0-2,.38A3.86,3.86,0,0,0,55.17,66a4.06,4.06,0,0,0-.81,1.62v2a3.38,3.38,0,0,0,.72,1.56,4,4,0,0,0,1.42,1.12A4.14,4.14,0,0,0,58.35,72.69Z"/><path class="cls-2" d="M75.12,74.79A7.73,7.73,0,0,1,71.46,74a5.89,5.89,0,0,1-2.37-2.21,6.14,6.14,0,0,1-.84-3.22,5.52,5.52,0,0,1,.94-3.14,6.87,6.87,0,0,1,2.51-2.27,7.12,7.12,0,0,1,3.48-.85,6.11,6.11,0,0,1,4.08,1.36,6.93,6.93,0,0,1,2.22,3.74l-10.26,3.4-.66-1.56,8.37-2.92-.57.4a3.91,3.91,0,0,0-1.2-1.62A3.39,3.39,0,0,0,75,64.41a4,4,0,0,0-2,.51,3.69,3.69,0,0,0-1.39,1.41A4.11,4.11,0,0,0,71,68.41a4.28,4.28,0,0,0,.52,2.13A3.71,3.71,0,0,0,73,72a4.29,4.29,0,0,0,2.14.52,4.44,4.44,0,0,0,1.57-.28,7.42,7.42,0,0,0,1.46-.74l1.26,2a8.9,8.9,0,0,1-2.09,1A7.27,7.27,0,0,1,75.12,74.79Z"/><path class="cls-2" d="M86.13,57.61H89v5.22h3.39V64.9H89v9.61H86.13V64.9H83.88V62.83h2.25Z"/><path class="cls-2" d="M96.93,57.61h2.85v5.22h3.39V64.9H99.78v9.61H96.93V64.9H94.68V62.83h2.25Z"/><path class="cls-2" d="M111.72,74.79a7.06,7.06,0,0,1-3.17-.71A5.39,5.39,0,0,1,106.29,72a7.11,7.11,0,0,1,0-6.76,5.87,5.87,0,0,1,2.34-2.19,6.84,6.84,0,0,1,3.21-.76,5.5,5.5,0,0,1,2.95.75,5.24,5.24,0,0,1,1.82,1.77l-.18.43.27-2.47h2.58V74.51h-2.79V71.45l.33.68a3.77,3.77,0,0,1-.57.72,7.3,7.3,0,0,1-1.07.89,6,6,0,0,1-3.49,1.05Zm.75-2.18a4.75,4.75,0,0,0,1.89-.37,3.74,3.74,0,0,0,1.39-1,3.81,3.81,0,0,0,.77-1.59V67.31a3.5,3.5,0,0,0-.84-1.49,4.19,4.19,0,0,0-1.44-1,4.77,4.77,0,0,0-1.83-.35,4.23,4.23,0,0,0-2.07.51,3.91,3.91,0,0,0-1.49,1.42,4,4,0,0,0-.55,2.12,3.88,3.88,0,0,0,.57,2.07,4.1,4.1,0,0,0,1.53,1.48A4.15,4.15,0,0,0,112.47,72.61Z"/><path class="cls-2" d="M125.34,57.61h2.85v5.22h3.39V64.9h-3.39v9.61h-2.85V64.9h-2.25V62.83h2.25Z"/><path class="cls-2" d="M133.86,68.52a5.84,5.84,0,0,1,.88-3.17,6.21,6.21,0,0,1,2.46-2.24,7.63,7.63,0,0,1,3.59-.82,7.34,7.34,0,0,1,3.54.82,6.13,6.13,0,0,1,0,10.84,7.3,7.3,0,0,1-3.57.84A7.81,7.81,0,0,1,137.2,74a6.14,6.14,0,0,1-2.44-2.18A6,6,0,0,1,133.86,68.52Zm2.82,0a4,4,0,0,0,.54,2.06,4.11,4.11,0,0,0,1.44,1.46,3.89,3.89,0,0,0,2,.54,3.89,3.89,0,0,0,3.49-2,4.25,4.25,0,0,0,0-4.11A4,4,0,0,0,142.77,65a4.09,4.09,0,0,0-4.13,0,4.11,4.11,0,0,0-1.44,1.49A4,4,0,0,0,136.68,68.55Z"/><path class="cls-2" d="M160.59,58.52a1.29,1.29,0,0,1,.52-1.05,1.78,1.78,0,0,1,1.16-.43,1.71,1.71,0,0,1,1.14.43,1.35,1.35,0,0,1,0,2.11,1.79,1.79,0,0,1-1.14.41,1.87,1.87,0,0,1-1.16-.41A1.28,1.28,0,0,1,160.59,58.52Zm.18,4.25h2.82V74.51h-2.82Z"/><path class="cls-2" d="M171,62.77l.21,2.86-.09-.45A4.38,4.38,0,0,1,173,63.1a6.18,6.18,0,0,1,3.15-.78,4.2,4.2,0,0,1,2.86,1,3.32,3.32,0,0,1,1.16,2.54v8.68h-2.82V66.74a2.33,2.33,0,0,0-.59-1.55,2.23,2.23,0,0,0-1.72-.61,3.52,3.52,0,0,0-1.94.57,3.87,3.87,0,0,0-1.38,1.56,5.09,5.09,0,0,0-.49,2.3v5.5h-2.82V62.77Z"/><path class="cls-2" d="M198.47,75a4.09,4.09,0,0,1-2.83-1,3.42,3.42,0,0,1-1.15-2.53V62.77h2.81v7.74a2.48,2.48,0,0,0,.61,1.54,2.19,2.19,0,0,0,1.68.64,3.1,3.1,0,0,0,1.84-.58,4.29,4.29,0,0,0,1.34-1.59,5,5,0,0,0,.51-2.28V62.77h2.79V74.51h-2.55l-.24-2.89.18.53a4.72,4.72,0,0,1-1.11,1.44,5.35,5.35,0,0,1-1.73,1A6.11,6.11,0,0,1,198.47,75Z"/><path class="cls-2" d="M213.42,62.77l.21,2.86-.09-.45a4.33,4.33,0,0,1,1.92-2.08,6.18,6.18,0,0,1,3.15-.78,4.2,4.2,0,0,1,2.86,1,3.32,3.32,0,0,1,1.16,2.54v8.68H219.8V66.74a2.28,2.28,0,0,0-.58-1.55,2.23,2.23,0,0,0-1.72-.61,3.5,3.5,0,0,0-1.94.57,3.87,3.87,0,0,0-1.38,1.56,5.09,5.09,0,0,0-.49,2.3v5.5h-2.82V62.77Z"/><path class="cls-2" d="M235.86,68.52a5.84,5.84,0,0,1,.88-3.17,6.21,6.21,0,0,1,2.46-2.24,7.63,7.63,0,0,1,3.59-.82,7.3,7.3,0,0,1,3.53.82,6.08,6.08,0,0,1,2.39,2.24,6.35,6.35,0,0,1,0,6.35A6.1,6.1,0,0,1,246.32,74a7.27,7.27,0,0,1-3.57.84A7.76,7.76,0,0,1,239.2,74a6.23,6.23,0,0,1-2.45-2.18A6,6,0,0,1,235.86,68.52Zm2.81,0a4,4,0,0,0,2,3.52,3.9,3.9,0,0,0,2,.54,3.89,3.89,0,0,0,3.49-2,4.32,4.32,0,0,0,0-4.11A4,4,0,0,0,244.77,65a3.91,3.91,0,0,0-2.07-.55,3.8,3.8,0,0,0-2.06.57,4.11,4.11,0,0,0-1.44,1.49A4,4,0,0,0,238.67,68.55Z"/><path class="cls-2" d="M256.79,74.73a7.45,7.45,0,0,1-2.56-.44A5,5,0,0,1,252.17,73l1.17-1.53A6.51,6.51,0,0,0,255,72.51a4.13,4.13,0,0,0,2.73.21,1.68,1.68,0,0,0,.83-.48,1.4,1.4,0,0,0-.12-1.89,3.68,3.68,0,0,0-1.1-.58c-.44-.15-.92-.29-1.43-.42A5.35,5.35,0,0,1,253.52,68a2.87,2.87,0,0,1-.81-2.07,3.28,3.28,0,0,1,.5-1.74,3.78,3.78,0,0,1,1.48-1.33,5.06,5.06,0,0,1,2.4-.53,8.19,8.19,0,0,1,2.31.3,5.73,5.73,0,0,1,1.92,1l-1.11,1.64a3.45,3.45,0,0,0-1.27-.81,4.19,4.19,0,0,0-1.34-.27,3.22,3.22,0,0,0-1,.16,2,2,0,0,0-.75.45,1.06,1.06,0,0,0-.29.76,1.1,1.1,0,0,0,.41,1,3.74,3.74,0,0,0,1.09.58l1.35.45a7.25,7.25,0,0,1,1.63.68,3.76,3.76,0,0,1,1.15,1.05,2.68,2.68,0,0,1,.44,1.56,3.75,3.75,0,0,1-.53,1.94,3.63,3.63,0,0,1-1.59,1.42A6.16,6.16,0,0,1,256.79,74.73Z"/><path class="cls-2" d="M272.84,74.79a6.28,6.28,0,0,1-2.71-.62,4.84,4.84,0,0,1-2-1.68l.16-.82v8.48h-2.8V62.6h2.43l.39,3-.3-.85A7.38,7.38,0,0,1,270.29,63a6.81,6.81,0,0,1,3.09-.69,6.33,6.33,0,0,1,3.14.78,5.63,5.63,0,0,1,2.2,2.21,6.63,6.63,0,0,1,.82,3.33,6.06,6.06,0,0,1-.88,3.27A5.72,5.72,0,0,1,276.28,74,7.66,7.66,0,0,1,272.84,74.79Zm-.54-2.1a4.6,4.6,0,0,0,2.19-.52,4.32,4.32,0,0,0,1.61-1.45,3.65,3.65,0,0,0,.61-2.08,3.9,3.9,0,0,0-.57-2.11,4,4,0,0,0-1.51-1.45,4.3,4.3,0,0,0-2.12-.52,4.71,4.71,0,0,0-1.95.38A3.75,3.75,0,0,0,269.13,66a4,4,0,0,0-.82,1.62v2a3.3,3.3,0,0,0,.73,1.56,3.93,3.93,0,0,0,1.42,1.12A4.1,4.1,0,0,0,272.3,72.69Z"/><path class="cls-2" d="M289.07,74.79a7.73,7.73,0,0,1-3.66-.81A5.89,5.89,0,0,1,283,71.77a6.13,6.13,0,0,1-.83-3.22,5.52,5.52,0,0,1,.94-3.14,6.84,6.84,0,0,1,2.5-2.27,7.12,7.12,0,0,1,3.48-.85,6.11,6.11,0,0,1,4.08,1.36,6.93,6.93,0,0,1,2.22,3.74l-10.26,3.4-.66-1.56,8.37-2.92-.57.4a4,4,0,0,0-1.19-1.62,3.44,3.44,0,0,0-2.2-.68,4,4,0,0,0-2,.51,3.72,3.72,0,0,0-1.4,1.41,4.11,4.11,0,0,0-.51,2.08,4.29,4.29,0,0,0,.53,2.13A3.75,3.75,0,0,0,287,72a4.32,4.32,0,0,0,2.14.52,4.5,4.5,0,0,0,1.58-.28,7.34,7.34,0,0,0,1.45-.74l1.26,2a8.82,8.82,0,0,1-2.08,1A7.33,7.33,0,0,1,289.07,74.79Z"/><path class="cls-2" d="M304,74.79a6.23,6.23,0,0,1-3.12-.78,5.84,5.84,0,0,1-2.2-2.21,6.5,6.5,0,0,1-.83-3.3,6.19,6.19,0,0,1,.87-3.35A5.79,5.79,0,0,1,301,63a7.27,7.27,0,0,1,3.3-.73,6.94,6.94,0,0,1,2.81.59,5,5,0,0,1,2.08,1.65l-.15.93V52.56h2.79v22h-2.79V71.59l.33.73a7.08,7.08,0,0,1-2.29,1.78A7,7,0,0,1,304,74.79Zm.87-2.24a4.56,4.56,0,0,0,2-.4,4.15,4.15,0,0,0,1.44-1.06,3.81,3.81,0,0,0,.82-1.57V67.28a3.61,3.61,0,0,0-.85-1.51,4.17,4.17,0,0,0-1.47-1,4.89,4.89,0,0,0-1.91-.36,4.35,4.35,0,0,0-2.07.51,4,4,0,0,0-1.53,1.42,4.12,4.12,0,0,0,0,4.18A4.26,4.26,0,0,0,302.75,72,4.06,4.06,0,0,0,304.82,72.55Z"/><path class="cls-2" d="M321.86,74.79a7,7,0,0,1-3.16-.71A5.42,5.42,0,0,1,316.43,72a7.11,7.11,0,0,1,0-6.76,5.87,5.87,0,0,1,2.34-2.19,6.84,6.84,0,0,1,3.21-.76,5.54,5.54,0,0,1,3,.75,5.21,5.21,0,0,1,1.81,1.77l-.18.43.27-2.47h2.58V74.51h-2.79V71.45l.33.68a3.77,3.77,0,0,1-.57.72,7.18,7.18,0,0,1-1.06.89,6.16,6.16,0,0,1-1.52.75A6.06,6.06,0,0,1,321.86,74.79Zm.75-2.18a4.75,4.75,0,0,0,1.89-.37,3.68,3.68,0,0,0,2.16-2.64V67.31a3.5,3.5,0,0,0-.84-1.49,4.19,4.19,0,0,0-1.44-1,4.77,4.77,0,0,0-1.83-.35,4.23,4.23,0,0,0-2.07.51A3.88,3.88,0,0,0,319,66.4a4,4,0,0,0-.56,2.12,3.88,3.88,0,0,0,.57,2.07,4.1,4.1,0,0,0,1.53,1.48A4.15,4.15,0,0,0,322.61,72.61Z"/><path class="cls-2" d="M334.28,52.56h2.82v22h-2.82Z"/><path class="cls-2" d="M347.72,74.79a7.73,7.73,0,0,1-3.66-.81,5.89,5.89,0,0,1-2.37-2.21,6.14,6.14,0,0,1-.84-3.22,5.53,5.53,0,0,1,.95-3.14,6.84,6.84,0,0,1,2.5-2.27,7.12,7.12,0,0,1,3.48-.85,6.11,6.11,0,0,1,4.08,1.36,6.93,6.93,0,0,1,2.22,3.74l-10.26,3.4-.66-1.56,8.37-2.92-.57.4a3.91,3.91,0,0,0-1.2-1.62,3.39,3.39,0,0,0-2.19-.68,4,4,0,0,0-2,.51,3.72,3.72,0,0,0-1.4,1.41,4.11,4.11,0,0,0-.51,2.08,4.29,4.29,0,0,0,.53,2.13A3.75,3.75,0,0,0,345.64,72a4.32,4.32,0,0,0,2.14.52,4.5,4.5,0,0,0,1.58-.28,7.34,7.34,0,0,0,1.45-.74l1.26,2a8.82,8.82,0,0,1-2.08,1A7.33,7.33,0,0,1,347.72,74.79Z"/><path class="cls-2" d="M369.53,62.77l.27,3.4-.12-.48a5.17,5.17,0,0,1,1.38-1.81A6.65,6.65,0,0,1,373,62.71a5.7,5.7,0,0,1,1.74-.42L374.6,65a4.26,4.26,0,0,0-2.5.5A4.59,4.59,0,0,0,370.42,67a3.88,3.88,0,0,0-.62,2.11v5.36H367V62.77Z"/><path class="cls-2" d="M378.11,58.52a1.3,1.3,0,0,1,.53-1.05,1.75,1.75,0,0,1,1.15-.43,1.71,1.71,0,0,1,1.14.43,1.35,1.35,0,0,1,0,2.11,1.79,1.79,0,0,1-1.14.41,1.84,1.84,0,0,1-1.15-.41A1.29,1.29,0,0,1,378.11,58.52Zm.18,4.25h2.82V74.51h-2.82Z"/><path class="cls-2" d="M388.49,62.77l.21,2.86-.09-.45a4.43,4.43,0,0,1,1.92-2.08,6.18,6.18,0,0,1,3.15-.78,4.2,4.2,0,0,1,2.86,1,3.32,3.32,0,0,1,1.16,2.54v8.68h-2.82V66.74a2.29,2.29,0,0,0-.59-1.55,2.22,2.22,0,0,0-1.72-.61,3.52,3.52,0,0,0-1.94.57,3.85,3.85,0,0,0-1.37,1.56,5.09,5.09,0,0,0-.5,2.3v5.5h-2.82V62.77Z"/><path class="cls-2" d="M401.45,68.52a5.85,5.85,0,0,1,.89-3.17,6.25,6.25,0,0,1,2.45-2.24,7.66,7.66,0,0,1,3.59-.82,7.34,7.34,0,0,1,3.54.82,6,6,0,0,1,2.38,2.24,6.29,6.29,0,0,1,0,6.35A6,6,0,0,1,411.92,74a7.3,7.3,0,0,1-3.57.84,7.83,7.83,0,0,1-3.56-.78,6.2,6.2,0,0,1-2.44-2.18A6,6,0,0,1,401.45,68.52Zm2.82,0a4,4,0,0,0,.54,2.06,4.11,4.11,0,0,0,1.44,1.46,3.89,3.89,0,0,0,2,.54,3.94,3.94,0,0,0,2.07-.54,4,4,0,0,0,1.43-1.46,4.32,4.32,0,0,0,0-4.11A4.06,4.06,0,0,0,410.36,65a3.86,3.86,0,0,0-2.07-.55,3.79,3.79,0,0,0-2.05.57,4.05,4.05,0,0,0-2,3.51Z"/><path class="cls-2" d="M421.43,62.77l.24,2.64-.15-.23a5.24,5.24,0,0,1,2-2.11,5.57,5.57,0,0,1,3-.78,5,5,0,0,1,1.83.32,3.66,3.66,0,0,1,1.34.91,2.82,2.82,0,0,1,.67,1.4l-.15.12a5.14,5.14,0,0,1,2-2,5.34,5.34,0,0,1,2.68-.72,4.11,4.11,0,0,1,2.9,1,3.52,3.52,0,0,1,1.12,2.52v8.71H436V66.77a2.71,2.71,0,0,0-.47-1.52,1.78,1.78,0,0,0-1.51-.64,3.26,3.26,0,0,0-1.93.61,4,4,0,0,0-1.32,1.59,5.1,5.1,0,0,0-.5,2.14v5.56h-2.82V66.77a2.52,2.52,0,0,0-.5-1.52,1.87,1.87,0,0,0-1.54-.64,3.23,3.23,0,0,0-1.92.61,4.23,4.23,0,0,0-1.32,1.6A4.92,4.92,0,0,0,421.7,69v5.53h-2.82V62.77Z"/><path class="cls-2" d="M448.82,74.79a7.09,7.09,0,0,1-3.17-.71A5.45,5.45,0,0,1,443.39,72a7.11,7.11,0,0,1,0-6.76,5.87,5.87,0,0,1,2.34-2.19,6.84,6.84,0,0,1,3.21-.76,5.54,5.54,0,0,1,3,.75,5.3,5.3,0,0,1,1.81,1.77l-.18.43.27-2.47h2.58V74.51h-2.79V71.45l.33.68a3.77,3.77,0,0,1-.57.72,7.3,7.3,0,0,1-1.07.89,6,6,0,0,1-3.49,1.05Zm.75-2.18a4.75,4.75,0,0,0,1.89-.37,3.86,3.86,0,0,0,1.4-1,3.92,3.92,0,0,0,.76-1.59V67.31a3.5,3.5,0,0,0-.84-1.49,4.19,4.19,0,0,0-1.44-1,4.77,4.77,0,0,0-1.83-.35,4.23,4.23,0,0,0-2.07.51A3.81,3.81,0,0,0,446,66.4a4.17,4.17,0,0,0,0,4.19,4.1,4.1,0,0,0,1.53,1.48A4.15,4.15,0,0,0,449.57,72.61Z"/><path class="cls-2" d="M462.44,57.61h2.85v5.22h3.39V64.9h-3.39v9.61h-2.85V64.9h-2.25V62.83h2.25Z"/><path class="cls-2" d="M471,68.52a5.84,5.84,0,0,1,.88-3.17,6.21,6.21,0,0,1,2.46-2.24,7.63,7.63,0,0,1,3.59-.82,7.34,7.34,0,0,1,3.54.82,6.13,6.13,0,0,1,0,10.84,7.3,7.3,0,0,1-3.57.84A7.81,7.81,0,0,1,474.3,74a6.14,6.14,0,0,1-2.44-2.18A6,6,0,0,1,471,68.52Zm2.82,0a4,4,0,0,0,.54,2.06,4.11,4.11,0,0,0,1.44,1.46,3.89,3.89,0,0,0,2,.54,3.89,3.89,0,0,0,3.49-2,4.25,4.25,0,0,0,0-4.11A4,4,0,0,0,479.87,65a4.09,4.09,0,0,0-4.13,0,4.11,4.11,0,0,0-1.44,1.49A4,4,0,0,0,473.78,68.55Z"/><path class="cls-2" d="M497.69,58.52a1.29,1.29,0,0,1,.52-1.05,1.78,1.78,0,0,1,1.16-.43,1.71,1.71,0,0,1,1.14.43,1.35,1.35,0,0,1,0,2.11,1.79,1.79,0,0,1-1.14.41,1.87,1.87,0,0,1-1.16-.41A1.28,1.28,0,0,1,497.69,58.52Zm.18,4.25h2.82V74.51h-2.82Z"/><path class="cls-2" d="M508.07,62.77l.21,2.86-.09-.45a4.43,4.43,0,0,1,1.92-2.08,6.18,6.18,0,0,1,3.15-.78,4.2,4.2,0,0,1,2.86,1,3.32,3.32,0,0,1,1.16,2.54v8.68h-2.82V66.74a2.33,2.33,0,0,0-.59-1.55,2.23,2.23,0,0,0-1.72-.61,3.52,3.52,0,0,0-1.94.57,3.87,3.87,0,0,0-1.38,1.56,5.09,5.09,0,0,0-.49,2.3v5.5h-2.82V62.77Z"/><path class="cls-2" d="M532.31,54h2.91v20.5h-2.91Z"/><path class="cls-2" d="M541.94,57.61h2.85v5.22h3.39V64.9h-3.39v9.61h-2.85V64.9h-2.25V62.83h2.25Z"/><path class="cls-2" d="M556.73,74.79a7.06,7.06,0,0,1-3.17-.71A5.39,5.39,0,0,1,551.3,72a7.11,7.11,0,0,1,0-6.76,5.87,5.87,0,0,1,2.34-2.19,6.84,6.84,0,0,1,3.21-.76,5.5,5.5,0,0,1,3,.75,5.24,5.24,0,0,1,1.82,1.77l-.18.43.27-2.47h2.58V74.51h-2.79V71.45l.33.68a3.77,3.77,0,0,1-.57.72,7.3,7.3,0,0,1-1.07.89,6,6,0,0,1-3.49,1.05Zm.75-2.18a4.75,4.75,0,0,0,1.89-.37,3.74,3.74,0,0,0,1.39-1,3.81,3.81,0,0,0,.77-1.59V67.31a3.5,3.5,0,0,0-.84-1.49,4.19,4.19,0,0,0-1.44-1,4.77,4.77,0,0,0-1.83-.35,4.23,4.23,0,0,0-2.07.51,3.91,3.91,0,0,0-1.49,1.42,4,4,0,0,0-.55,2.12,3.88,3.88,0,0,0,.57,2.07,4.1,4.1,0,0,0,1.53,1.48A4.15,4.15,0,0,0,557.48,72.61Z"/><path class="cls-2" d="M569.15,52.56H572v22h-2.81Z"/><path class="cls-2" d="M576.62,58.52a1.29,1.29,0,0,1,.52-1.05,1.77,1.77,0,0,1,1.15-.43,1.75,1.75,0,0,1,1.15.43,1.35,1.35,0,0,1,0,2.11,1.84,1.84,0,0,1-1.15.41,1.86,1.86,0,0,1-1.15-.41A1.28,1.28,0,0,1,576.62,58.52Zm.17,4.25h2.83V74.51h-2.83Z"/><path class="cls-2" d="M589.63,74.79a7,7,0,0,1-3.16-.71A5.34,5.34,0,0,1,584.21,72a6.26,6.26,0,0,1-.84-3.36,6.36,6.36,0,0,1,.86-3.4,5.87,5.87,0,0,1,2.34-2.19,6.89,6.89,0,0,1,3.22-.76,5.53,5.53,0,0,1,3,.75,5.21,5.21,0,0,1,1.81,1.77l-.17.43.26-2.47h2.58V74.51h-2.79V71.45l.33.68a4.07,4.07,0,0,1-.56.72,7.88,7.88,0,0,1-1.07.89,6.26,6.26,0,0,1-1.51.75A6.12,6.12,0,0,1,589.63,74.79Zm.75-2.18a4.84,4.84,0,0,0,1.9-.37,3.7,3.7,0,0,0,2.15-2.64V67.31a3.5,3.5,0,0,0-.84-1.49,4.19,4.19,0,0,0-1.44-1,4.77,4.77,0,0,0-1.83-.35,4.26,4.26,0,0,0-2.07.51,3.88,3.88,0,0,0-1.48,1.42,4,4,0,0,0-.56,2.12,3.8,3.8,0,0,0,.58,2.07,4,4,0,0,0,1.52,1.48A4.18,4.18,0,0,0,590.38,72.61Z"/><path class="cls-2" d="M601.17,71.93a1.59,1.59,0,0,1,1.09-.46,1.55,1.55,0,0,1,1,.46,1.4,1.4,0,0,1,.49,1.07,1.36,1.36,0,0,1-.49,1.1,1.63,1.63,0,0,1-1,.41,1.68,1.68,0,0,1-1.09-.41,1.37,1.37,0,0,1-.5-1.1A1.41,1.41,0,0,1,601.17,71.93Z"/><path class="cls-2" d="M19.77,98.3a9.57,9.57,0,0,1,.86-4A10.55,10.55,0,0,1,23,90.91a11.4,11.4,0,0,1,3.53-2.28,11.58,11.58,0,0,1,8.56,0,11.53,11.53,0,0,1,3.56,2.28,10.65,10.65,0,0,1,2.41,3.36,9.89,9.89,0,0,1,0,8.11,10.43,10.43,0,0,1-2.4,3.33A11.22,11.22,0,0,1,35.13,108a11.37,11.37,0,0,1-4.29.81,11.5,11.5,0,0,1-4.3-.8A11.06,11.06,0,0,1,23,105.74a10.39,10.39,0,0,1-2.38-3.32A9.72,9.72,0,0,1,19.77,98.3Zm3,0a7.47,7.47,0,0,0,.61,3,7.56,7.56,0,0,0,1.75,2.48,8.13,8.13,0,0,0,2.58,1.69,8,8,0,0,0,3.16.61,8.1,8.1,0,0,0,3.17-.61,8,8,0,0,0,2.55-1.67,8.11,8.11,0,0,0,1.72-2.48,7.7,7.7,0,0,0,0-6.1,8.5,8.5,0,0,0-1.72-2.51A8,8,0,0,0,34,91.05a8.4,8.4,0,0,0-3.17-.61,8,8,0,0,0-3.19.63,7.89,7.89,0,0,0-2.58,1.7,7.59,7.59,0,0,0-1.7,2.51A7.71,7.71,0,0,0,22.77,98.3Z"/><path class="cls-2" d="M52.14,114.37a8.56,8.56,0,0,1-2.44-.31,7.46,7.46,0,0,1-1.92-.85A18.85,18.85,0,0,1,46.11,112l1.65-1.82a9.26,9.26,0,0,0,2,1.34,5.29,5.29,0,0,0,2.28.48,5.86,5.86,0,0,0,2.39-.44,3.3,3.3,0,0,0,1.47-1.21,3.38,3.38,0,0,0,.52-1.78l0-3.18.24.51a4.57,4.57,0,0,1-2,2.06,6.57,6.57,0,0,1-3.42.83,6.17,6.17,0,0,1-3.12-.82,6.47,6.47,0,0,1-2.31-2.22,5.89,5.89,0,0,1-.87-3.16,6,6,0,0,1,.9-3.27,6.46,6.46,0,0,1,2.39-2.22,6.58,6.58,0,0,1,3.22-.81,6.94,6.94,0,0,1,3,.64,4.77,4.77,0,0,1,2,1.63l-.18.48.27-2.27h2.58v11.83a5.18,5.18,0,0,1-.86,2.89,5.87,5.87,0,0,1-2.45,2.08A8.62,8.62,0,0,1,52.14,114.37Zm-4.29-11.82a3.75,3.75,0,0,0,.59,2.07A4.24,4.24,0,0,0,50,106.09a4.31,4.31,0,0,0,2.14.54,5,5,0,0,0,2-.38,4.25,4.25,0,0,0,1.49-1.06,4,4,0,0,0,.84-1.51v-2.35a3.59,3.59,0,0,0-.9-1.48,4.9,4.9,0,0,0-1.5-1,5,5,0,0,0-1.92-.37A4.41,4.41,0,0,0,50,99a4.21,4.21,0,0,0-1.56,1.43A3.71,3.71,0,0,0,47.85,102.55Z"/><path class="cls-2" d="M66.63,96.79l.21,2.87-.09-.46a4.43,4.43,0,0,1,1.92-2.08,6.18,6.18,0,0,1,3.15-.78,4.23,4.23,0,0,1,2.87,1,3.29,3.29,0,0,1,1.15,2.53v8.68H73v-7.77a2.35,2.35,0,0,0-.58-1.54,2.24,2.24,0,0,0-1.73-.61,3.56,3.56,0,0,0-1.93.56,3.9,3.9,0,0,0-1.39,1.56,5.12,5.12,0,0,0-.49,2.3v5.5H64.08V96.79Z"/><path class="cls-2" d="M80.49,92.54A1.27,1.27,0,0,1,81,91.49a1.79,1.79,0,0,1,1.15-.42,1.75,1.75,0,0,1,1.14.42,1.31,1.31,0,0,1,.51,1.05,1.28,1.28,0,0,1-.51,1.06,1.74,1.74,0,0,1-1.14.41A1.78,1.78,0,0,1,81,93.6,1.25,1.25,0,0,1,80.49,92.54Zm.18,4.25h2.82v11.74H80.67Z"/><path class="cls-2" d="M103.83,114.37a8.68,8.68,0,0,1-2.45-.31,7.61,7.61,0,0,1-1.92-.85A18.71,18.71,0,0,1,97.8,112l1.65-1.82a9.26,9.26,0,0,0,2,1.34,5.29,5.29,0,0,0,2.28.48,5.81,5.81,0,0,0,2.38-.44,3.3,3.3,0,0,0,1.47-1.21,3.39,3.39,0,0,0,.53-1.78l0-3.18.24.51a4.57,4.57,0,0,1-2,2.06,6.57,6.57,0,0,1-3.42.83A6.17,6.17,0,0,1,99.9,108a6.47,6.47,0,0,1-2.31-2.22,5.89,5.89,0,0,1-.87-3.16,6,6,0,0,1,.9-3.27A6.43,6.43,0,0,1,100,97.12a6.65,6.65,0,0,1,3.23-.81,6.94,6.94,0,0,1,3,.64,4.77,4.77,0,0,1,2,1.63l-.18.48.27-2.27h2.58v11.83a5.18,5.18,0,0,1-.86,2.89,6,6,0,0,1-2.46,2.08A8.58,8.58,0,0,1,103.83,114.37Zm-4.29-11.82a3.83,3.83,0,0,0,.58,2.07,4.24,4.24,0,0,0,1.56,1.47,4.37,4.37,0,0,0,2.15.54,5,5,0,0,0,2-.38,4.25,4.25,0,0,0,1.49-1.06,4,4,0,0,0,.84-1.51v-2.35a3.59,3.59,0,0,0-.9-1.48,4.9,4.9,0,0,0-1.5-1,5,5,0,0,0-1.92-.37,4.47,4.47,0,0,0-2.15.53,4.21,4.21,0,0,0-1.56,1.43A3.79,3.79,0,0,0,99.54,102.55Z"/><path class="cls-2" d="M115.59,92.54a1.29,1.29,0,0,1,.52-1.05,1.82,1.82,0,0,1,1.16-.42,1.75,1.75,0,0,1,1.14.42,1.31,1.31,0,0,1,.51,1.05,1.28,1.28,0,0,1-.51,1.06,1.74,1.74,0,0,1-1.14.41,1.81,1.81,0,0,1-1.16-.41A1.27,1.27,0,0,1,115.59,92.54Zm.18,4.25h2.82v11.74h-2.82Z"/><path class="cls-2" d="M122.34,102.55a5.9,5.9,0,0,1,.88-3.18,6.28,6.28,0,0,1,2.46-2.24,7.63,7.63,0,0,1,3.59-.82,7.34,7.34,0,0,1,3.54.82,6,6,0,0,1,3.24,5.42,6,6,0,0,1-.86,3.17,6.17,6.17,0,0,1-2.38,2.26,7.3,7.3,0,0,1-3.57.83,7.93,7.93,0,0,1-3.56-.77,6.09,6.09,0,0,1-2.44-2.19A6,6,0,0,1,122.34,102.55Zm2.82,0a4,4,0,0,0,.54,2,4,4,0,0,0,1.44,1.46,3.89,3.89,0,0,0,2,.54,3.94,3.94,0,0,0,2.07-.54,3.9,3.9,0,0,0,1.42-1.46,4.14,4.14,0,0,0-1.42-5.58,3.87,3.87,0,0,0-2.07-.56,3.82,3.82,0,0,0-2.06.57,4.19,4.19,0,0,0-1.44,1.49A4,4,0,0,0,125.16,102.58Z"/><path class="cls-2" d="M142.29,96.79l.27,3.41-.12-.49a5.17,5.17,0,0,1,1.38-1.81,6.61,6.61,0,0,1,1.92-1.16,5.47,5.47,0,0,1,1.74-.43L147.36,99a4.29,4.29,0,0,0-2.51.49,4.76,4.76,0,0,0-1.68,1.59,3.89,3.89,0,0,0-.61,2.11v5.36h-2.79V96.79Z"/><path class="cls-2" d="M153.6,96.79l.21,2.87-.09-.46a4.43,4.43,0,0,1,1.92-2.08,6.18,6.18,0,0,1,3.15-.78,4.21,4.21,0,0,1,2.86,1,3.3,3.3,0,0,1,1.16,2.53v8.68H160v-7.77a2.31,2.31,0,0,0-.59-1.54,2.2,2.2,0,0,0-1.72-.61,3.59,3.59,0,0,0-1.94.56,3.87,3.87,0,0,0-1.38,1.56,5.12,5.12,0,0,0-.49,2.3v5.5h-2.82V96.79Z"/><path class="cls-2" d="M166.56,102.55a5.9,5.9,0,0,1,.88-3.18,6.28,6.28,0,0,1,2.46-2.24,7.63,7.63,0,0,1,3.59-.82,7.34,7.34,0,0,1,3.54.82,6,6,0,0,1,3.24,5.42,6,6,0,0,1-.86,3.17A6.17,6.17,0,0,1,177,108a7.3,7.3,0,0,1-3.57.83,7.93,7.93,0,0,1-3.56-.77,6.09,6.09,0,0,1-2.44-2.19A6,6,0,0,1,166.56,102.55Zm2.82,0a4,4,0,0,0,.54,2,4,4,0,0,0,1.44,1.46,3.89,3.89,0,0,0,2,.54,3.94,3.94,0,0,0,2.07-.54,3.9,3.9,0,0,0,1.42-1.46,4.14,4.14,0,0,0-1.42-5.58,3.87,3.87,0,0,0-2.07-.56,3.82,3.82,0,0,0-2.06.57,4.19,4.19,0,0,0-1.44,1.49A4,4,0,0,0,169.38,102.58Z"/><path class="cls-2" d="M186.57,106l-1.31,3c-.43,1-.86,2-1.3,3h-2.31c.42-1,.82-2,1.2-3s.76-2,1.14-3Z"/><path class="cls-2" d="M205.59,114.37a8.68,8.68,0,0,1-2.45-.31,7.61,7.61,0,0,1-1.92-.85,18.71,18.71,0,0,1-1.66-1.19l1.65-1.82a9.45,9.45,0,0,0,2,1.34,5.33,5.33,0,0,0,2.29.48,5.81,5.81,0,0,0,2.38-.44,3.3,3.3,0,0,0,1.47-1.21,3.39,3.39,0,0,0,.53-1.78l0-3.18.24.51a4.62,4.62,0,0,1-2,2.06,6.57,6.57,0,0,1-3.42.83,6.17,6.17,0,0,1-3.12-.82,6.47,6.47,0,0,1-2.31-2.22,5.89,5.89,0,0,1-.87-3.16,6,6,0,0,1,.9-3.27,6.43,6.43,0,0,1,2.38-2.22,6.65,6.65,0,0,1,3.23-.81,6.94,6.94,0,0,1,3,.64,4.77,4.77,0,0,1,2,1.63l-.18.48.27-2.27h2.58v11.83a5.18,5.18,0,0,1-.86,2.89,6,6,0,0,1-2.46,2.08A8.61,8.61,0,0,1,205.59,114.37Zm-4.3-11.82a3.84,3.84,0,0,0,.59,2.07,4.24,4.24,0,0,0,1.56,1.47,4.37,4.37,0,0,0,2.15.54,5,5,0,0,0,2-.38,4.25,4.25,0,0,0,1.49-1.06,4.11,4.11,0,0,0,.84-1.51v-2.35a3.59,3.59,0,0,0-.9-1.48,4.9,4.9,0,0,0-1.5-1,5,5,0,0,0-1.92-.37,4.47,4.47,0,0,0-2.15.53,4.21,4.21,0,0,0-1.56,1.43A3.79,3.79,0,0,0,201.29,102.55Z"/><path class="cls-2" d="M220,96.79l.28,3.41-.12-.49a5.06,5.06,0,0,1,1.38-1.81,6.49,6.49,0,0,1,1.92-1.16,5.47,5.47,0,0,1,1.74-.43L225.12,99a4.29,4.29,0,0,0-2.51.49,4.76,4.76,0,0,0-1.68,1.59,3.89,3.89,0,0,0-.61,2.11v5.36h-2.79V96.79Z"/><path class="cls-2" d="M233.54,108.81a7,7,0,0,1-3.16-.7,5.42,5.42,0,0,1-2.26-2.09,6.21,6.21,0,0,1-.84-3.36,6.39,6.39,0,0,1,.86-3.4,5.85,5.85,0,0,1,2.34-2.18,6.89,6.89,0,0,1,3.22-.77,5.53,5.53,0,0,1,3,.75,5.21,5.21,0,0,1,1.81,1.77l-.17.43.26-2.47h2.58v11.74h-2.79v-3.06l.33.68a3.74,3.74,0,0,1-.56.72,7.89,7.89,0,0,1-1.07.9,6.26,6.26,0,0,1-1.51.75A6.13,6.13,0,0,1,233.54,108.81Zm.75-2.18a4.63,4.63,0,0,0,1.9-.37,3.61,3.61,0,0,0,1.39-1.05,3.69,3.69,0,0,0,.76-1.58v-2.3a3.56,3.56,0,0,0-.84-1.49,4.07,4.07,0,0,0-1.44-1,4.6,4.6,0,0,0-1.83-.36,4.26,4.26,0,0,0-2.07.51,4,4,0,0,0-1.48,1.42,4,4,0,0,0-.55,2.13,3.82,3.82,0,0,0,.57,2.07,4,4,0,0,0,1.52,1.47A4.18,4.18,0,0,0,234.29,106.63Z"/><path class="cls-2" d="M247.13,99a2.36,2.36,0,0,1-1.57-.54,2,2,0,0,1-.65-1.62V95.66H247V96c0,.32.08.53.23.62a1.44,1.44,0,0,0,.76.14h8l-7.44,10.1-.57-.54h7.89v2.18H244.4L252,98.21l.48.74Z"/><path class="cls-2" d="M259.67,92.54a1.3,1.3,0,0,1,.53-1.05,1.79,1.79,0,0,1,1.15-.42,1.75,1.75,0,0,1,1.14.42,1.31,1.31,0,0,1,.51,1.05,1.28,1.28,0,0,1-.51,1.06,1.74,1.74,0,0,1-1.14.41,1.78,1.78,0,0,1-1.15-.41A1.28,1.28,0,0,1,259.67,92.54Zm.18,4.25h2.82v11.74h-2.82Z"/><path class="cls-2" d="M273.29,108.81a7.73,7.73,0,0,1-3.66-.8,5.91,5.91,0,0,1-2.37-2.22,6.1,6.1,0,0,1-.84-3.21,5.56,5.56,0,0,1,.95-3.15,6.93,6.93,0,0,1,2.5-2.27,7.12,7.12,0,0,1,3.48-.85,6.11,6.11,0,0,1,4.08,1.36,7,7,0,0,1,2.22,3.74l-10.26,3.41-.66-1.56,8.37-2.92-.57.39a3.82,3.82,0,0,0-1.2-1.61,3.33,3.33,0,0,0-2.19-.68,4,4,0,0,0-2,.51,3.76,3.76,0,0,0-1.4,1.4,4.15,4.15,0,0,0-.51,2.09,4.25,4.25,0,0,0,.53,2.12,3.69,3.69,0,0,0,1.47,1.46,4.33,4.33,0,0,0,2.14.53,4.51,4.51,0,0,0,1.58-.29,7.3,7.3,0,0,0,1.45-.73l1.26,2a8.84,8.84,0,0,1-2.08,1A7.62,7.62,0,0,1,273.29,108.81Z"/><path class="cls-2" d="M297.77,108.81a7,7,0,0,1-3.16-.7,5.51,5.51,0,0,1-2.27-2.09,6.3,6.3,0,0,1-.84-3.36,6.39,6.39,0,0,1,.87-3.4,5.85,5.85,0,0,1,2.34-2.18,6.85,6.85,0,0,1,3.21-.77,5.54,5.54,0,0,1,3,.75,5.21,5.21,0,0,1,1.81,1.77l-.18.43.27-2.47h2.58v11.74h-2.79v-3.06l.33.68a3.49,3.49,0,0,1-.57.72,7.19,7.19,0,0,1-1.06.9,6.16,6.16,0,0,1-1.52.75A6.07,6.07,0,0,1,297.77,108.81Zm.75-2.18a4.59,4.59,0,0,0,1.89-.37,3.57,3.57,0,0,0,1.4-1.05,3.81,3.81,0,0,0,.76-1.58v-2.3a3.56,3.56,0,0,0-.84-1.49,4.16,4.16,0,0,0-1.44-1,4.6,4.6,0,0,0-1.83-.36,4.23,4.23,0,0,0-2.07.51,4,4,0,0,0-1.48,1.42,4,4,0,0,0-.56,2.13,3.91,3.91,0,0,0,.57,2.07,4.22,4.22,0,0,0,3.6,2Z"/><path class="cls-2" d="M310.19,86.59H313v21.94h-2.82Z"/><path class="cls-2" d="M317.84,86.59h2.82v21.94h-2.82Z"/><path class="cls-2" d="M330.68,108.81a7,7,0,0,1-3.16-.7,5.45,5.45,0,0,1-2.27-2.09,6.3,6.3,0,0,1-.84-3.36,6.39,6.39,0,0,1,.87-3.4,5.85,5.85,0,0,1,2.34-2.18,6.85,6.85,0,0,1,3.21-.77,5.56,5.56,0,0,1,3,.75,5.21,5.21,0,0,1,1.81,1.77l-.18.43.27-2.47h2.58v11.74h-2.79v-3.06l.33.68a3.49,3.49,0,0,1-.57.72,7.19,7.19,0,0,1-1.06.9,6.34,6.34,0,0,1-1.52.75A6.07,6.07,0,0,1,330.68,108.81Zm.75-2.18a4.59,4.59,0,0,0,1.89-.37,3.47,3.47,0,0,0,1.39-1.05,3.71,3.71,0,0,0,.77-1.58v-2.3a3.56,3.56,0,0,0-.84-1.49,4.16,4.16,0,0,0-1.44-1,4.6,4.6,0,0,0-1.83-.36,4.23,4.23,0,0,0-2.07.51,4.06,4.06,0,0,0-1.49,1.42,4.12,4.12,0,0,0-.55,2.13,3.91,3.91,0,0,0,.57,2.07,4.22,4.22,0,0,0,3.6,2Z"/><path class="cls-2" d="M356.09,108.76a7.76,7.76,0,0,1-2.57-.44,4.92,4.92,0,0,1-2-1.32l1.17-1.53a6.24,6.24,0,0,0,1.62,1.06,4,4,0,0,0,1.62.36,4.32,4.32,0,0,0,1.11-.14,1.74,1.74,0,0,0,.82-.49,1.24,1.24,0,0,0,.32-.88,1.21,1.21,0,0,0-.44-1,3.41,3.41,0,0,0-1.09-.58c-.44-.15-.92-.3-1.44-.43a5.36,5.36,0,0,1-2.34-1.33A2.9,2.9,0,0,1,352,100a3.28,3.28,0,0,1,.49-1.75A3.81,3.81,0,0,1,354,96.89a5.07,5.07,0,0,1,2.4-.52,8.19,8.19,0,0,1,2.31.3,5.53,5.53,0,0,1,1.92,1l-1.11,1.65a3.49,3.49,0,0,0-1.28-.81,3.89,3.89,0,0,0-1.33-.27,3,3,0,0,0-1,.16,1.75,1.75,0,0,0-.75.45,1,1,0,0,0-.28.75,1.08,1.08,0,0,0,.4,1,3.46,3.46,0,0,0,1.1.58l1.35.45a6.59,6.59,0,0,1,1.62.69,3.62,3.62,0,0,1,1.15,1,2.68,2.68,0,0,1,.44,1.56,3.81,3.81,0,0,1-.53,1.95,3.67,3.67,0,0,1-1.59,1.41A6.11,6.11,0,0,1,356.09,108.76Z"/><path class="cls-2" d="M368.78,109a4.11,4.11,0,0,1-2.84-1,3.45,3.45,0,0,1-1.15-2.54V96.79h2.82v7.74a2.5,2.5,0,0,0,.6,1.55,2.2,2.2,0,0,0,1.68.64,3.17,3.17,0,0,0,1.84-.58,4.29,4.29,0,0,0,1.34-1.59,5,5,0,0,0,.51-2.28V96.79h2.79v11.74h-2.55l-.24-2.89.18.54a4.69,4.69,0,0,1-1.11,1.43,5.37,5.37,0,0,1-1.73,1A6.28,6.28,0,0,1,368.78,109Z"/><path class="cls-2" d="M386.36,108.81a7.06,7.06,0,0,1-3.17-.7,5.48,5.48,0,0,1-2.26-2.09,6.3,6.3,0,0,1-.84-3.36,6.39,6.39,0,0,1,.87-3.4,5.85,5.85,0,0,1,2.34-2.18,6.85,6.85,0,0,1,3.21-.77,5.5,5.5,0,0,1,2.95.75,5.24,5.24,0,0,1,1.82,1.77l-.18.43.27-2.47H394v11.74h-2.79v-3.06l.33.68a3.49,3.49,0,0,1-.57.72,7.32,7.32,0,0,1-1.07.9,5.87,5.87,0,0,1-3.49,1Zm.75-2.18a4.59,4.59,0,0,0,1.89-.37,3.54,3.54,0,0,0,1.39-1.05,3.83,3.83,0,0,0,.77-1.58v-2.3a3.56,3.56,0,0,0-.84-1.49,4.16,4.16,0,0,0-1.44-1,4.6,4.6,0,0,0-1.83-.36A4.23,4.23,0,0,0,385,99a4,4,0,0,0-1.49,1.42,4,4,0,0,0-.55,2.13,3.91,3.91,0,0,0,.57,2.07,4.22,4.22,0,0,0,3.6,2Z"/><path class="cls-2" d="M414.05,108.81a7.73,7.73,0,0,1-3.66-.8,5.91,5.91,0,0,1-2.37-2.22,6.1,6.1,0,0,1-.84-3.21,5.55,5.55,0,0,1,.94-3.15,7,7,0,0,1,2.51-2.27,7.12,7.12,0,0,1,3.48-.85,6.11,6.11,0,0,1,4.08,1.36,7,7,0,0,1,2.22,3.74l-10.26,3.41-.66-1.56,8.37-2.92-.57.39a3.82,3.82,0,0,0-1.2-1.61,3.33,3.33,0,0,0-2.19-.68,4,4,0,0,0-2,.51,3.74,3.74,0,0,0-1.39,1.4,4.15,4.15,0,0,0-.51,2.09,4.24,4.24,0,0,0,.52,2.12A3.69,3.69,0,0,0,412,106a4.36,4.36,0,0,0,2.15.53,4.45,4.45,0,0,0,1.57-.29,7.38,7.38,0,0,0,1.46-.73l1.26,2a8.92,8.92,0,0,1-2.09,1A7.56,7.56,0,0,1,414.05,108.81Z"/><path class="cls-2" d="M427.37,108.76a7.76,7.76,0,0,1-2.57-.44,4.92,4.92,0,0,1-2.05-1.32l1.17-1.53a6.24,6.24,0,0,0,1.62,1.06,4,4,0,0,0,1.62.36,4.32,4.32,0,0,0,1.11-.14,1.74,1.74,0,0,0,.82-.49,1.24,1.24,0,0,0,.32-.88,1.21,1.21,0,0,0-.44-1,3.41,3.41,0,0,0-1.09-.58c-.44-.15-.92-.3-1.44-.43A5.36,5.36,0,0,1,424.1,102a2.9,2.9,0,0,1-.81-2.07,3.28,3.28,0,0,1,.49-1.75,3.81,3.81,0,0,1,1.49-1.33,5.07,5.07,0,0,1,2.4-.52,8.19,8.19,0,0,1,2.31.3,5.53,5.53,0,0,1,1.92,1l-1.11,1.65a3.49,3.49,0,0,0-1.28-.81,3.89,3.89,0,0,0-1.33-.27,3,3,0,0,0-1,.16,1.75,1.75,0,0,0-.75.45,1,1,0,0,0-.28.75,1.08,1.08,0,0,0,.4,1,3.46,3.46,0,0,0,1.1.58l1.35.45a6.59,6.59,0,0,1,1.62.69,3.62,3.62,0,0,1,1.15,1,2.68,2.68,0,0,1,.44,1.56,3.81,3.81,0,0,1-.53,1.95,3.67,3.67,0,0,1-1.59,1.41A6.11,6.11,0,0,1,427.37,108.76Z"/><path class="cls-2" d="M443.42,108.81a6.18,6.18,0,0,1-2.72-.62,4.72,4.72,0,0,1-2-1.67l.15-.82v8.47h-2.79V96.62h2.43l.39,3-.3-.85A7,7,0,0,1,440.87,97a6.69,6.69,0,0,1,3.09-.7,6.29,6.29,0,0,1,3.13.78,5.72,5.72,0,0,1,2.21,2.21,6.68,6.68,0,0,1,.81,3.33,6.11,6.11,0,0,1-.87,3.28,5.79,5.79,0,0,1-2.39,2.15A7.62,7.62,0,0,1,443.42,108.81Zm-.54-2.09a4.6,4.6,0,0,0,2.19-.53,4.35,4.35,0,0,0,1.6-1.44,3.69,3.69,0,0,0,.62-2.09,3.92,3.92,0,0,0-.57-2.11,4.15,4.15,0,0,0-1.52-1.45,4.26,4.26,0,0,0-2.11-.52,4.88,4.88,0,0,0-1.95.38A3.89,3.89,0,0,0,439.7,100a4,4,0,0,0-.81,1.61v2a3.47,3.47,0,0,0,.72,1.56,4.14,4.14,0,0,0,1.42,1.12A4.28,4.28,0,0,0,442.88,106.72Z"/><path class="cls-2" d="M459.65,108.81A7.73,7.73,0,0,1,456,108a5.91,5.91,0,0,1-2.37-2.22,6.1,6.1,0,0,1-.84-3.21,5.55,5.55,0,0,1,.94-3.15,7,7,0,0,1,2.51-2.27,7.12,7.12,0,0,1,3.48-.85,6.11,6.11,0,0,1,4.08,1.36,7,7,0,0,1,2.22,3.74l-10.26,3.41-.66-1.56,8.37-2.92-.57.39a3.82,3.82,0,0,0-1.2-1.61,3.33,3.33,0,0,0-2.19-.68,4,4,0,0,0-2,.51,3.74,3.74,0,0,0-1.39,1.4,4.15,4.15,0,0,0-.51,2.09,4.24,4.24,0,0,0,.52,2.12,3.69,3.69,0,0,0,1.47,1.46,4.36,4.36,0,0,0,2.15.53,4.45,4.45,0,0,0,1.57-.29,7.38,7.38,0,0,0,1.46-.73l1.26,2a8.92,8.92,0,0,1-2.09,1A7.56,7.56,0,0,1,459.65,108.81Z"/><path class="cls-2" d="M472,96.79l.27,3.41-.12-.49a5.17,5.17,0,0,1,1.38-1.81,6.61,6.61,0,0,1,1.92-1.16,5.47,5.47,0,0,1,1.74-.43L477.05,99a4.29,4.29,0,0,0-2.51.49,4.76,4.76,0,0,0-1.68,1.59,3.89,3.89,0,0,0-.61,2.11v5.36h-2.79V96.79Z"/><path class="cls-2" d="M480.56,92.54a1.29,1.29,0,0,1,.52-1.05,1.82,1.82,0,0,1,1.16-.42,1.75,1.75,0,0,1,1.14.42,1.31,1.31,0,0,1,.51,1.05,1.28,1.28,0,0,1-.51,1.06,1.74,1.74,0,0,1-1.14.41,1.81,1.81,0,0,1-1.16-.41A1.27,1.27,0,0,1,480.56,92.54Zm.18,4.25h2.82v11.74h-2.82Z"/><path class="cls-2" d="M494.18,108.81a7.73,7.73,0,0,1-3.66-.8,5.91,5.91,0,0,1-2.37-2.22,6.1,6.1,0,0,1-.84-3.21,5.55,5.55,0,0,1,.94-3.15,6.88,6.88,0,0,1,2.51-2.27,7.09,7.09,0,0,1,3.48-.85,6.11,6.11,0,0,1,4.08,1.36,7,7,0,0,1,2.22,3.74l-10.26,3.41-.66-1.56,8.37-2.92-.57.39a3.82,3.82,0,0,0-1.2-1.61,3.33,3.33,0,0,0-2.19-.68,4,4,0,0,0-2,.51,3.74,3.74,0,0,0-1.39,1.4,4.15,4.15,0,0,0-.51,2.09,4.24,4.24,0,0,0,.52,2.12,3.69,3.69,0,0,0,1.47,1.46,4.36,4.36,0,0,0,2.15.53,4.45,4.45,0,0,0,1.57-.29,7.66,7.66,0,0,0,1.46-.73l1.26,2a8.92,8.92,0,0,1-2.09,1A7.56,7.56,0,0,1,494.18,108.81Z"/><path class="cls-2" d="M506.54,96.79l.21,2.87-.09-.46a4.43,4.43,0,0,1,1.92-2.08,6.15,6.15,0,0,1,3.14-.78,4.23,4.23,0,0,1,2.87,1,3.33,3.33,0,0,1,1.16,2.53v8.68h-2.82v-7.77a2.31,2.31,0,0,0-.59-1.54,2.21,2.21,0,0,0-1.72-.61,3.59,3.59,0,0,0-1.94.56,3.87,3.87,0,0,0-1.38,1.56,5.12,5.12,0,0,0-.5,2.3v5.5H504V96.79Z"/><path class="cls-2" d="M521.75,99a2.38,2.38,0,0,1-1.58-.54,2,2,0,0,1-.64-1.62V95.66h2.13V96c0,.32.07.53.22.62a1.46,1.46,0,0,0,.76.14h8l-7.44,10.1-.57-.54h7.89v2.18H519l7.59-10.32.48.74Z"/><path class="cls-2" d="M539.65,108.81a7,7,0,0,1-3.16-.7,5.57,5.57,0,0,1-2.27-2.09,7.07,7.07,0,0,1,0-6.76,5.78,5.78,0,0,1,2.34-2.18,6.78,6.78,0,0,1,3.2-.77,5.54,5.54,0,0,1,3,.75,5.21,5.21,0,0,1,1.81,1.77l-.18.43.27-2.47h2.58v11.74h-2.78v-3.06l.33.68a3.61,3.61,0,0,1-.58.72,6.7,6.7,0,0,1-1.06.9,6.16,6.16,0,0,1-1.52.75A6.07,6.07,0,0,1,539.65,108.81Zm.75-2.18a4.55,4.55,0,0,0,1.89-.37,3.5,3.5,0,0,0,1.4-1.05,4,4,0,0,0,.77-1.58v-2.3a3.67,3.67,0,0,0-.84-1.49,4.36,4.36,0,0,0-1.44-1,4.6,4.6,0,0,0-1.83-.36,4.18,4.18,0,0,0-2.07.51,3.91,3.91,0,0,0-1.49,1.42,4,4,0,0,0-.56,2.13,3.91,3.91,0,0,0,.57,2.07,4.31,4.31,0,0,0,1.53,1.47A4.15,4.15,0,0,0,540.4,106.63Z"/><path class="cls-2" d="M27.75,142.84a6.15,6.15,0,0,1-2.71-.63,4.75,4.75,0,0,1-2-1.67l.15-.82v8.48H20.4V130.65h2.43l.39,3-.3-.85A7,7,0,0,1,25.2,131a6.82,6.82,0,0,1,3.09-.7,6.33,6.33,0,0,1,3.14.78,5.66,5.66,0,0,1,2.2,2.22,6.62,6.62,0,0,1,.81,3.33,6.05,6.05,0,0,1-.87,3.27,5.72,5.72,0,0,1-2.38,2.16A7.66,7.66,0,0,1,27.75,142.84Zm-.54-2.1a4.6,4.6,0,0,0,2.19-.52A4.41,4.41,0,0,0,31,138.77a3.65,3.65,0,0,0,.61-2.08,4,4,0,0,0-.57-2.12,4.09,4.09,0,0,0-1.51-1.44,4.3,4.3,0,0,0-2.12-.53,4.72,4.72,0,0,0-2,.39A3.86,3.86,0,0,0,24,134.05a4,4,0,0,0-.81,1.62v2a3.38,3.38,0,0,0,.72,1.56,4,4,0,0,0,1.43,1.12A4.24,4.24,0,0,0,27.21,140.74Z"/><path class="cls-2" d="M44,142.84a7.73,7.73,0,0,1-3.66-.81A6,6,0,0,1,38,139.82a6.16,6.16,0,0,1-.84-3.22,5.65,5.65,0,0,1,.94-3.15,7,7,0,0,1,2.51-2.26,7.12,7.12,0,0,1,3.48-.86,6.12,6.12,0,0,1,4.08,1.37,6.89,6.89,0,0,1,2.22,3.74l-10.26,3.4-.66-1.56,8.37-2.92-.57.4a3.85,3.85,0,0,0-1.2-1.62,3.39,3.39,0,0,0-2.19-.68,4,4,0,0,0-2,.51,3.69,3.69,0,0,0-1.39,1.41,4.11,4.11,0,0,0-.51,2.08,4.31,4.31,0,0,0,.53,2.13,3.75,3.75,0,0,0,1.47,1.46,4.32,4.32,0,0,0,2.14.52,4.5,4.5,0,0,0,1.58-.28,7.34,7.34,0,0,0,1.45-.74l1.26,2a9.24,9.24,0,0,1-2.08,1A7.38,7.38,0,0,1,44,142.84Z"/><path class="cls-2" d="M56.31,130.82l.27,3.4-.12-.48a5.21,5.21,0,0,1,1.38-1.82,6.61,6.61,0,0,1,1.92-1.16,5.76,5.76,0,0,1,1.74-.43L61.38,133a4.17,4.17,0,0,0-2.5.5,4.57,4.57,0,0,0-1.68,1.58,3.94,3.94,0,0,0-.62,2.12v5.36H53.79V130.82Z"/><path class="cls-2" d="M68.58,142.78a7.51,7.51,0,0,1-2.57-.44A4.92,4.92,0,0,1,64,141l1.17-1.53a6.3,6.3,0,0,0,1.62,1.07,4.11,4.11,0,0,0,1.62.35,4.32,4.32,0,0,0,1.11-.14,1.81,1.81,0,0,0,.82-.48,1.25,1.25,0,0,0,.32-.88,1.23,1.23,0,0,0-.44-1,3.62,3.62,0,0,0-1.09-.58q-.66-.23-1.44-.42a5.47,5.47,0,0,1-2.34-1.34A2.87,2.87,0,0,1,64.5,134a3.27,3.27,0,0,1,.49-1.74,3.74,3.74,0,0,1,1.49-1.33,5.06,5.06,0,0,1,2.4-.53,8.19,8.19,0,0,1,2.31.3,5.55,5.55,0,0,1,1.92,1L72,133.34a3.49,3.49,0,0,0-1.28-.81,3.89,3.89,0,0,0-1.33-.27,3.29,3.29,0,0,0-1,.16,1.75,1.75,0,0,0-.75.45,1,1,0,0,0-.28.75,1.07,1.07,0,0,0,.4.95,3.46,3.46,0,0,0,1.1.58c.44.16.89.31,1.35.46a7,7,0,0,1,1.62.68A3.53,3.53,0,0,1,73,137.34a2.64,2.64,0,0,1,.44,1.56,3.77,3.77,0,0,1-.53,1.94,3.58,3.58,0,0,1-1.59,1.42A6.12,6.12,0,0,1,68.58,142.78Z"/><path class="cls-2" d="M76.2,136.57a5.84,5.84,0,0,1,.88-3.17,6.21,6.21,0,0,1,2.46-2.24,7.63,7.63,0,0,1,3.59-.83,7.35,7.35,0,0,1,3.54.83,6,6,0,0,1,2.38,2.24,6.29,6.29,0,0,1,0,6.35A6.22,6.22,0,0,1,86.67,142a7.3,7.3,0,0,1-3.57.84,7.81,7.81,0,0,1-3.56-.78,6.14,6.14,0,0,1-2.44-2.18A6,6,0,0,1,76.2,136.57Zm2.82,0a4,4,0,0,0,.54,2.06A4.11,4.11,0,0,0,81,140.12a3.89,3.89,0,0,0,2,.54,3.94,3.94,0,0,0,2.07-.54,4.08,4.08,0,0,0,1.43-1.46,4.32,4.32,0,0,0,0-4.11,4.14,4.14,0,0,0-1.43-1.48,3.86,3.86,0,0,0-2.07-.55,3.91,3.91,0,0,0-2.06.56,4.28,4.28,0,0,0-1.44,1.49A4,4,0,0,0,79,136.6Z"/><path class="cls-2" d="M96.18,130.82l.21,2.86-.09-.45a4.45,4.45,0,0,1,1.92-2.09,6.18,6.18,0,0,1,3.15-.78,4.21,4.21,0,0,1,2.86,1,3.3,3.3,0,0,1,1.16,2.54v8.68h-2.82v-7.77a2.33,2.33,0,0,0-.59-1.55,2.2,2.2,0,0,0-1.72-.61,3.52,3.52,0,0,0-1.94.57,3.87,3.87,0,0,0-1.38,1.56,5.08,5.08,0,0,0-.49,2.29v5.51H93.63V130.82Z"/><path class="cls-2" d="M115.41,142.84a7.06,7.06,0,0,1-3.17-.71,5.46,5.46,0,0,1-2.26-2.08,7.13,7.13,0,0,1,0-6.77,5.92,5.92,0,0,1,2.34-2.18,6.85,6.85,0,0,1,3.21-.77,5.51,5.51,0,0,1,3,.76,5.24,5.24,0,0,1,1.82,1.77l-.18.42.27-2.46H123v11.74h-2.79v-3.07l.33.68a3.77,3.77,0,0,1-.57.73,7.3,7.3,0,0,1-1.07.89,6,6,0,0,1-3.49,1.05Zm.75-2.18a4.75,4.75,0,0,0,1.89-.37,3.74,3.74,0,0,0,1.39-1,3.87,3.87,0,0,0,.77-1.59v-2.3a3.62,3.62,0,0,0-.84-1.49,4.3,4.3,0,0,0-1.44-1,4.77,4.77,0,0,0-1.83-.35A4.23,4.23,0,0,0,114,133a3.91,3.91,0,0,0-1.49,1.42,4,4,0,0,0-.55,2.12,3.88,3.88,0,0,0,.57,2.07,4.1,4.1,0,0,0,1.53,1.48A4.15,4.15,0,0,0,116.16,140.66Z"/><path class="cls-2" d="M127.83,120.61h2.82v22h-2.82Z"/><path class="cls-2" d="M141.27,142.84a7.73,7.73,0,0,1-3.66-.81,6,6,0,0,1-2.37-2.21,6.16,6.16,0,0,1-.84-3.22,5.57,5.57,0,0,1,.94-3.15,6.93,6.93,0,0,1,2.51-2.26,7.12,7.12,0,0,1,3.48-.86,6.12,6.12,0,0,1,4.08,1.37,6.89,6.89,0,0,1,2.22,3.74l-10.26,3.4-.66-1.56,8.37-2.92-.57.4a3.85,3.85,0,0,0-1.2-1.62,3.39,3.39,0,0,0-2.19-.68,4,4,0,0,0-2,.51,3.69,3.69,0,0,0-1.39,1.41,4.11,4.11,0,0,0-.51,2.08,4.31,4.31,0,0,0,.52,2.13,3.75,3.75,0,0,0,1.47,1.46,4.36,4.36,0,0,0,2.15.52,4.44,4.44,0,0,0,1.57-.28,7.42,7.42,0,0,0,1.46-.74l1.26,2a9.32,9.32,0,0,1-2.09,1A7.27,7.27,0,0,1,141.27,142.84Z"/><path class="cls-2" d="M153.66,140.06l-1.31,3-1.3,3h-2.31c.42-1,.82-2,1.2-3s.76-2,1.14-3Z"/><path class="cls-2" d="M167.85,125.66h2.85v5.21h3.39v2.07H170.7v9.62h-2.85v-9.62H165.6v-2.07h2.25Z"/><path class="cls-2" d="M180,130.82l.27,3.4-.12-.48a5.21,5.21,0,0,1,1.38-1.82,6.61,6.61,0,0,1,1.92-1.16,5.76,5.76,0,0,1,1.74-.43L185,133a4.22,4.22,0,0,0-2.51.5,4.65,4.65,0,0,0-1.68,1.58,3.93,3.93,0,0,0-.61,2.12v5.36h-2.79V130.82Z"/><path class="cls-2" d="M193.46,142.84a7,7,0,0,1-3.16-.71,5.46,5.46,0,0,1-2.26-2.08,7.13,7.13,0,0,1,0-6.77,5.85,5.85,0,0,1,2.34-2.18,6.82,6.82,0,0,1,3.21-.77,5.51,5.51,0,0,1,2.95.76,5.21,5.21,0,0,1,1.81,1.77l-.17.42.26-2.46h2.58v11.74h-2.78v-3.07l.33.68a4.22,4.22,0,0,1-.57.73,7.3,7.3,0,0,1-1.07.89,6,6,0,0,1-3.5,1.05Zm.75-2.18a4.8,4.8,0,0,0,1.9-.37,3.74,3.74,0,0,0,1.39-1,3.87,3.87,0,0,0,.77-1.59v-2.3a3.62,3.62,0,0,0-.84-1.49,4.41,4.41,0,0,0-1.44-1,4.77,4.77,0,0,0-1.83-.35,4.21,4.21,0,0,0-2.07.51,3.84,3.84,0,0,0-1.49,1.42,4,4,0,0,0-.56,2.12,3.8,3.8,0,0,0,.58,2.07,4.17,4.17,0,0,0,3.59,2Z"/><path class="cls-2" d="M207.08,125.66h2.86v5.21h3.38v2.07h-3.38v9.62h-2.86v-9.62h-2.25v-2.07h2.25Z"/><path class="cls-2" d="M217.88,125.66h2.85v5.21h3.4v2.07h-3.4v9.62h-2.85v-9.62h-2.25v-2.07h2.25Z"/><path class="cls-2" d="M232.67,142.84a7,7,0,0,1-3.16-.71,5.49,5.49,0,0,1-2.27-2.08,7.09,7.09,0,0,1,0-6.77,5.79,5.79,0,0,1,2.34-2.18,6.78,6.78,0,0,1,3.2-.77,5.54,5.54,0,0,1,3,.76,5.21,5.21,0,0,1,1.81,1.77l-.18.42.27-2.46h2.58v11.74h-2.79v-3.07l.33.68a3.41,3.41,0,0,1-.57.73,6.69,6.69,0,0,1-1.06.89,6.16,6.16,0,0,1-1.52.75A6.06,6.06,0,0,1,232.67,142.84Zm.75-2.18a4.72,4.72,0,0,0,1.89-.37,3.7,3.7,0,0,0,1.4-1,3.85,3.85,0,0,0,.76-1.59v-2.3a3.52,3.52,0,0,0-.84-1.49,4.36,4.36,0,0,0-1.43-1,4.81,4.81,0,0,0-1.83-.35,4.24,4.24,0,0,0-2.08.51,3.88,3.88,0,0,0-1.48,1.42,4,4,0,0,0-.56,2.12,3.88,3.88,0,0,0,.57,2.07,4.2,4.2,0,0,0,3.6,2Z"/><path class="cls-2" d="M253.49,136.57a5.85,5.85,0,0,1,.89-3.17,6.21,6.21,0,0,1,2.46-2.24,7.59,7.59,0,0,1,3.58-.83,7.35,7.35,0,0,1,3.54.83,6.08,6.08,0,0,1,2.39,2.24,6,6,0,0,1,.85,3.17,6.06,6.06,0,0,1-.85,3.18A6.25,6.25,0,0,1,264,142a7.3,7.3,0,0,1-3.57.84,7.76,7.76,0,0,1-3.55-.78,6.16,6.16,0,0,1-2.45-2.18A6,6,0,0,1,253.49,136.57Zm2.82,0a4,4,0,0,0,.54,2.06,4.11,4.11,0,0,0,1.44,1.46,3.89,3.89,0,0,0,2,.54,3.94,3.94,0,0,0,2.07-.54,4,4,0,0,0,1.43-1.46,4.15,4.15,0,0,0-1.43-5.59,4.1,4.1,0,0,0-4.12,0,4.19,4.19,0,0,0-1.44,1.49A4,4,0,0,0,256.31,136.6Z"/><path class="cls-2" d="M277,148.4a8.59,8.59,0,0,1-2.44-.32,7.27,7.27,0,0,1-1.92-.85,17,17,0,0,1-1.67-1.19l1.65-1.81a9.2,9.2,0,0,0,2,1.33,5.29,5.29,0,0,0,2.28.48,5.7,5.7,0,0,0,2.39-.44,3.28,3.28,0,0,0,1.47-1.2,3.42,3.42,0,0,0,.52-1.79l0-3.17.24.51a4.6,4.6,0,0,1-1.95,2.05,6.57,6.57,0,0,1-3.42.84A6.27,6.27,0,0,1,273,142a6.41,6.41,0,0,1-2.31-2.23,6.26,6.26,0,0,1,0-6.42,6.4,6.4,0,0,1,2.39-2.23,6.61,6.61,0,0,1,3.22-.81,7.14,7.14,0,0,1,3,.64,4.81,4.81,0,0,1,2,1.63l-.18.48.27-2.26h2.58v11.82a5.15,5.15,0,0,1-.85,2.89,6,6,0,0,1-2.46,2.09A8.62,8.62,0,0,1,277,148.4Zm-4.29-11.83a3.81,3.81,0,0,0,.59,2.07,4.18,4.18,0,0,0,1.56,1.48,4.33,4.33,0,0,0,2.14.54,4.92,4.92,0,0,0,2-.39,4.09,4.09,0,0,0,1.48-1.06,3.86,3.86,0,0,0,.84-1.5v-2.36a3.55,3.55,0,0,0-.9-1.47,4.56,4.56,0,0,0-1.5-1,4.8,4.8,0,0,0-1.92-.37,4.43,4.43,0,0,0-2.14.52,4.21,4.21,0,0,0-1.56,1.43A3.82,3.82,0,0,0,272.66,136.57Z"/><path class="cls-2" d="M291.44,130.82l.21,2.86-.09-.45a4.45,4.45,0,0,1,1.92-2.09,6.18,6.18,0,0,1,3.15-.78,4.23,4.23,0,0,1,2.87,1,3.29,3.29,0,0,1,1.15,2.54v8.68h-2.82v-7.77a2.33,2.33,0,0,0-.58-1.55,2.22,2.22,0,0,0-1.73-.61,3.49,3.49,0,0,0-1.93.57,3.87,3.87,0,0,0-1.38,1.56,5.08,5.08,0,0,0-.5,2.29v5.51h-2.82V130.82Z"/><path class="cls-2" d="M305.3,126.56a1.33,1.33,0,0,1,.53-1,1.79,1.79,0,0,1,1.15-.42,1.75,1.75,0,0,1,1.14.42,1.33,1.33,0,0,1,.51,1,1.32,1.32,0,0,1-.51,1.07A1.79,1.79,0,0,1,307,128a1.84,1.84,0,0,1-1.15-.41A1.31,1.31,0,0,1,305.3,126.56Zm.18,4.26h2.82v11.74h-2.82Z"/><path class="cls-2" d="M330,142.84a6.15,6.15,0,0,1-2.71-.63,4.75,4.75,0,0,1-2-1.67l.15-.82v8.48h-2.79V130.65H325l.39,3-.3-.85a7,7,0,0,1,2.28-1.77,6.82,6.82,0,0,1,3.09-.7,6.33,6.33,0,0,1,3.14.78,5.66,5.66,0,0,1,2.2,2.22,6.62,6.62,0,0,1,.81,3.33,6.05,6.05,0,0,1-.87,3.27,5.72,5.72,0,0,1-2.38,2.16A7.66,7.66,0,0,1,330,142.84Zm-.54-2.1a4.6,4.6,0,0,0,2.19-.52,4.41,4.41,0,0,0,1.61-1.45,3.65,3.65,0,0,0,.61-2.08,4,4,0,0,0-.57-2.12,4.09,4.09,0,0,0-1.51-1.44,4.3,4.3,0,0,0-2.12-.53,4.72,4.72,0,0,0-1.95.39,3.86,3.86,0,0,0-1.44,1.06,4,4,0,0,0-.81,1.62v2a3.38,3.38,0,0,0,.72,1.56,4.06,4.06,0,0,0,1.43,1.12A4.24,4.24,0,0,0,329.42,140.74Z"/><path class="cls-2" d="M345.59,142.84a7,7,0,0,1-3.16-.71,5.49,5.49,0,0,1-2.27-2.08,7.13,7.13,0,0,1,0-6.77,5.92,5.92,0,0,1,2.34-2.18,6.85,6.85,0,0,1,3.21-.77,5.54,5.54,0,0,1,3,.76,5.21,5.21,0,0,1,1.81,1.77l-.18.42.27-2.46h2.58v11.74h-2.79v-3.07l.33.68a3.77,3.77,0,0,1-.57.73,7.18,7.18,0,0,1-1.06.89,6.16,6.16,0,0,1-1.52.75A6.06,6.06,0,0,1,345.59,142.84Zm.75-2.18a4.75,4.75,0,0,0,1.89-.37,3.78,3.78,0,0,0,1.4-1,3.85,3.85,0,0,0,.76-1.59v-2.3a3.62,3.62,0,0,0-.84-1.49,4.3,4.3,0,0,0-1.44-1,4.77,4.77,0,0,0-1.83-.35,4.23,4.23,0,0,0-2.07.51,3.88,3.88,0,0,0-1.48,1.42,4,4,0,0,0-.56,2.12,3.88,3.88,0,0,0,.57,2.07,4.1,4.1,0,0,0,1.53,1.48A4.15,4.15,0,0,0,346.34,140.66Z"/><path class="cls-2" d="M359.18,133a2.36,2.36,0,0,1-1.57-.54,2,2,0,0,1-.65-1.61v-1.14h2.13v.37a.72.72,0,0,0,.23.63,1.54,1.54,0,0,0,.76.14h8l-7.44,10.09-.57-.54h7.89v2.19H356.45L364,132.23l.48.74Z"/><path class="cls-2" d="M371.72,126.56a1.3,1.3,0,0,1,.53-1,1.79,1.79,0,0,1,1.15-.42,1.75,1.75,0,0,1,1.14.42,1.33,1.33,0,0,1,.51,1,1.32,1.32,0,0,1-.51,1.07,1.79,1.79,0,0,1-1.14.41,1.84,1.84,0,0,1-1.15-.41A1.28,1.28,0,0,1,371.72,126.56Zm.18,4.26h2.82v11.74H371.9Z"/><path class="cls-2" d="M385.34,142.84a7.73,7.73,0,0,1-3.66-.81,6,6,0,0,1-2.37-2.21,6.16,6.16,0,0,1-.84-3.22,5.65,5.65,0,0,1,.94-3.15,6.93,6.93,0,0,1,2.51-2.26,7.12,7.12,0,0,1,3.48-.86,6.12,6.12,0,0,1,4.08,1.37,6.89,6.89,0,0,1,2.22,3.74l-10.26,3.4-.66-1.56,8.37-2.92-.57.4a3.85,3.85,0,0,0-1.2-1.62,3.39,3.39,0,0,0-2.19-.68,4,4,0,0,0-2,.51,3.69,3.69,0,0,0-1.39,1.41,4.11,4.11,0,0,0-.51,2.08,4.31,4.31,0,0,0,.53,2.13,3.69,3.69,0,0,0,1.47,1.46,4.29,4.29,0,0,0,2.14.52,4.44,4.44,0,0,0,1.57-.28,7.42,7.42,0,0,0,1.46-.74l1.26,2a9.24,9.24,0,0,1-2.08,1A7.38,7.38,0,0,1,385.34,142.84Z"/><path class="cls-2" d="M397.7,130.82l.21,2.86-.09-.45a4.45,4.45,0,0,1,1.92-2.09,6.18,6.18,0,0,1,3.15-.78,4.21,4.21,0,0,1,2.86,1,3.3,3.3,0,0,1,1.16,2.54v8.68h-2.82v-7.77a2.29,2.29,0,0,0-.59-1.55,2.2,2.2,0,0,0-1.72-.61,3.52,3.52,0,0,0-1.94.57,3.87,3.87,0,0,0-1.38,1.56,5.08,5.08,0,0,0-.49,2.29v5.51h-2.82V130.82Z"/><path class="cls-2" d="M412.94,125.66h2.85v5.21h3.39v2.07h-3.39v9.62h-2.85v-9.62h-2.25v-2.07h2.25Z"/><path class="cls-2" d="M428.33,142.84a7.73,7.73,0,0,1-3.66-.81,6,6,0,0,1-2.37-2.21,6.16,6.16,0,0,1-.84-3.22,5.57,5.57,0,0,1,.94-3.15,6.93,6.93,0,0,1,2.51-2.26,7.12,7.12,0,0,1,3.48-.86,6.12,6.12,0,0,1,4.08,1.37,6.89,6.89,0,0,1,2.22,3.74l-10.26,3.4-.66-1.56,8.37-2.92-.57.4a3.85,3.85,0,0,0-1.2-1.62,3.39,3.39,0,0,0-2.19-.68,4,4,0,0,0-2,.51,3.69,3.69,0,0,0-1.39,1.41,4.11,4.11,0,0,0-.51,2.08,4.31,4.31,0,0,0,.52,2.13,3.75,3.75,0,0,0,1.47,1.46,4.64,4.64,0,0,0,3.72.24,7.42,7.42,0,0,0,1.46-.74l1.26,2a9.32,9.32,0,0,1-2.09,1A7.27,7.27,0,0,1,428.33,142.84Z"/><path class="cls-2" d="M457.73,141.45a6.55,6.55,0,0,1-2,1,7.62,7.62,0,0,1-2.34.37,7.93,7.93,0,0,1-3.56-.77,5.85,5.85,0,0,1-2.41-2.15,6,6,0,0,1-.87-3.26,5.67,5.67,0,0,1,.93-3.25,6.35,6.35,0,0,1,2.41-2.13,7.07,7.07,0,0,1,3.23-.75,8.43,8.43,0,0,1,2.65.39,6.24,6.24,0,0,1,2.06,1.09l-1.41,1.7a6.32,6.32,0,0,0-1.31-.7,4.7,4.7,0,0,0-1.75-.32,4,4,0,0,0-2,.52,3.85,3.85,0,0,0-2,3.45,3.83,3.83,0,0,0,.54,2,4,4,0,0,0,1.5,1.45,4.45,4.45,0,0,0,2.22.54,4.54,4.54,0,0,0,1.45-.23,4.28,4.28,0,0,0,1.22-.63Z"/><path class="cls-2" d="M460.22,136.57a5.84,5.84,0,0,1,.88-3.17,6.21,6.21,0,0,1,2.46-2.24,7.63,7.63,0,0,1,3.59-.83,7.35,7.35,0,0,1,3.54.83,6.19,6.19,0,0,1,2.38,8.59,6.22,6.22,0,0,1-2.38,2.25,7.3,7.3,0,0,1-3.57.84,7.81,7.81,0,0,1-3.56-.78,6.14,6.14,0,0,1-2.44-2.18A6,6,0,0,1,460.22,136.57Zm2.82,0a4,4,0,0,0,.54,2.06,4.11,4.11,0,0,0,1.44,1.46,3.89,3.89,0,0,0,2,.54,3.89,3.89,0,0,0,3.49-2,4.25,4.25,0,0,0,0-4.11,4,4,0,0,0-1.42-1.48,3.86,3.86,0,0,0-2.07-.55,3.91,3.91,0,0,0-2.06.56,4.19,4.19,0,0,0-1.44,1.49A4,4,0,0,0,463,136.6Z"/><path class="cls-2" d="M480.2,130.82l.21,2.86-.09-.45a4.45,4.45,0,0,1,1.92-2.09,6.18,6.18,0,0,1,3.15-.78,4.21,4.21,0,0,1,2.86,1,3.3,3.3,0,0,1,1.16,2.54v8.68h-2.82v-7.77a2.33,2.33,0,0,0-.59-1.55,2.2,2.2,0,0,0-1.72-.61,3.52,3.52,0,0,0-1.94.57,3.87,3.87,0,0,0-1.38,1.56,5.08,5.08,0,0,0-.49,2.29v5.51h-2.82V130.82Z"/><path class="cls-2" d="M509.51,142.84a7.73,7.73,0,0,1-3.66-.81,6,6,0,0,1-2.37-2.21,6.16,6.16,0,0,1-.84-3.22,5.57,5.57,0,0,1,.94-3.15,6.93,6.93,0,0,1,2.51-2.26,7.12,7.12,0,0,1,3.48-.86,6.12,6.12,0,0,1,4.08,1.37,6.89,6.89,0,0,1,2.22,3.74l-10.26,3.4-.66-1.56,8.37-2.92-.57.4a3.85,3.85,0,0,0-1.2-1.62,3.39,3.39,0,0,0-2.19-.68,4,4,0,0,0-2,.51,3.69,3.69,0,0,0-1.39,1.41,4.11,4.11,0,0,0-.51,2.08,4.31,4.31,0,0,0,.52,2.13,3.75,3.75,0,0,0,1.47,1.46,4.36,4.36,0,0,0,2.15.52,4.44,4.44,0,0,0,1.57-.28,7.42,7.42,0,0,0,1.46-.74l1.26,2a9.32,9.32,0,0,1-2.09,1A7.27,7.27,0,0,1,509.51,142.84Z"/><path class="cls-2" d="M521.87,130.82l.24,2.63-.15-.22a5.27,5.27,0,0,1,2-2.12,5.57,5.57,0,0,1,3-.78,4.81,4.81,0,0,1,1.83.33,3.54,3.54,0,0,1,1.33.91,2.79,2.79,0,0,1,.68,1.4l-.15.11a5.15,5.15,0,0,1,2-2,5.41,5.41,0,0,1,2.69-.73,4.08,4.08,0,0,1,2.89,1,3.49,3.49,0,0,1,1.13,2.52v8.71h-2.82v-7.75a2.68,2.68,0,0,0-.47-1.51,1.78,1.78,0,0,0-1.51-.64,3.24,3.24,0,0,0-1.94.61,4.09,4.09,0,0,0-1.32,1.59,5.21,5.21,0,0,0-.49,2.14v5.56H527.9v-7.75a2.55,2.55,0,0,0-.5-1.51,1.87,1.87,0,0,0-1.54-.64,3.16,3.16,0,0,0-1.92.61,4.23,4.23,0,0,0-1.32,1.6,4.88,4.88,0,0,0-.48,2.16v5.53h-2.82V130.82Z"/><path class="cls-2" d="M551.42,142.84a6.19,6.19,0,0,1-2.72-.63,4.72,4.72,0,0,1-2-1.67l.15-.82v8.48h-2.79V130.65h2.43l.39,3-.3-.85a7,7,0,0,1,2.28-1.77,6.82,6.82,0,0,1,3.09-.7,6.29,6.29,0,0,1,3.13.78,5.68,5.68,0,0,1,2.21,2.22,6.62,6.62,0,0,1,.81,3.33,6.05,6.05,0,0,1-.87,3.27,5.74,5.74,0,0,1-2.39,2.16A7.62,7.62,0,0,1,551.42,142.84Zm-.54-2.1a4.6,4.6,0,0,0,2.19-.52,4.38,4.38,0,0,0,1.6-1.45,3.66,3.66,0,0,0,.62-2.08,4,4,0,0,0-.57-2.12,4.12,4.12,0,0,0-1.52-1.44,4.26,4.26,0,0,0-2.11-.53,4.72,4.72,0,0,0-2,.39,3.86,3.86,0,0,0-1.44,1.06,4,4,0,0,0-.81,1.62v2a3.38,3.38,0,0,0,.72,1.56,4,4,0,0,0,1.42,1.12A4.28,4.28,0,0,0,550.88,140.74Z"/><path class="cls-2" d="M567.05,142.84a7.06,7.06,0,0,1-3.17-.71,5.46,5.46,0,0,1-2.26-2.08,7.13,7.13,0,0,1,0-6.77A5.92,5.92,0,0,1,564,131.1a6.85,6.85,0,0,1,3.21-.77,5.51,5.51,0,0,1,2.95.76,5.24,5.24,0,0,1,1.82,1.77l-.18.42.27-2.46h2.58v11.74h-2.79v-3.07l.33.68a3.77,3.77,0,0,1-.57.73,7.3,7.3,0,0,1-1.07.89,6,6,0,0,1-3.49,1.05Zm.75-2.18a4.75,4.75,0,0,0,1.89-.37,3.74,3.74,0,0,0,1.39-1,3.87,3.87,0,0,0,.77-1.59v-2.3a3.62,3.62,0,0,0-.84-1.49,4.3,4.3,0,0,0-1.44-1,4.77,4.77,0,0,0-1.83-.35,4.23,4.23,0,0,0-2.07.51,3.91,3.91,0,0,0-1.49,1.42,4,4,0,0,0-.55,2.12,3.88,3.88,0,0,0,.57,2.07,4.1,4.1,0,0,0,1.53,1.48A4.15,4.15,0,0,0,567.8,140.66Z"/><path class="cls-2" d="M580.67,125.66h2.85v5.21h3.39v2.07h-3.39v9.62h-2.85v-9.62h-2.25v-2.07h2.25Z"/><path class="cls-2" d="M590.09,126.56a1.32,1.32,0,0,1,.52-1,1.82,1.82,0,0,1,1.16-.42,1.77,1.77,0,0,1,1.14.42,1.33,1.33,0,0,1,.51,1,1.32,1.32,0,0,1-.51,1.07,1.81,1.81,0,0,1-1.14.41,1.87,1.87,0,0,1-1.16-.41A1.3,1.3,0,0,1,590.09,126.56Zm.18,4.26h2.82v11.74h-2.82Z"/><path class="cls-2" d="M603.11,142.84a7.06,7.06,0,0,1-3.17-.71,5.4,5.4,0,0,1-2.26-2.08,7.13,7.13,0,0,1,0-6.77A5.89,5.89,0,0,1,600,131.1a6.92,6.92,0,0,1,3.22-.77,5.53,5.53,0,0,1,3,.76,5.24,5.24,0,0,1,1.82,1.77l-.18.42.27-2.46h2.58v11.74h-2.8v-3.07l.33.68a3.64,3.64,0,0,1-.56.73,7.88,7.88,0,0,1-1.07.89,6.26,6.26,0,0,1-1.51.75A6.1,6.1,0,0,1,603.11,142.84Zm.75-2.18a4.79,4.79,0,0,0,1.89-.37,3.82,3.82,0,0,0,1.39-1,3.73,3.73,0,0,0,.76-1.59v-2.3a3.62,3.62,0,0,0-.84-1.49,4.26,4.26,0,0,0-1.43-1,4.82,4.82,0,0,0-1.84-.35,4.29,4.29,0,0,0-2.07.51,3.89,3.89,0,0,0-2,3.54,3.88,3.88,0,0,0,.57,2.07,4,4,0,0,0,1.53,1.48A4.15,4.15,0,0,0,603.86,140.66Z"/><path class="cls-2" d="M630.79,142.84a7.73,7.73,0,0,1-3.66-.81,6,6,0,0,1-2.37-2.21,6.16,6.16,0,0,1-.84-3.22,5.58,5.58,0,0,1,1-3.15,6.9,6.9,0,0,1,2.5-2.26,7.12,7.12,0,0,1,3.48-.86,6.12,6.12,0,0,1,4.08,1.37,6.89,6.89,0,0,1,2.22,3.74l-10.26,3.4-.66-1.56,8.37-2.92-.57.4a3.85,3.85,0,0,0-1.2-1.62,3.39,3.39,0,0,0-2.19-.68,4,4,0,0,0-2,.51,3.72,3.72,0,0,0-1.4,1.41,4.11,4.11,0,0,0-.51,2.08,4.31,4.31,0,0,0,.53,2.13,3.75,3.75,0,0,0,1.47,1.46,4.32,4.32,0,0,0,2.14.52,4.5,4.5,0,0,0,1.58-.28,7.34,7.34,0,0,0,1.45-.74l1.26,2a9.24,9.24,0,0,1-2.08,1A7.33,7.33,0,0,1,630.79,142.84Z"/><path class="cls-2" d="M22.92,164.84l.27,3.4-.12-.48A5.17,5.17,0,0,1,24.45,166a6.88,6.88,0,0,1,1.92-1.17,5.7,5.7,0,0,1,1.74-.42L28,167a4.26,4.26,0,0,0-2.5.5,4.79,4.79,0,0,0-1.69,1.59,3.87,3.87,0,0,0-.61,2.11v5.36H20.4V164.84Z"/><path class="cls-2" d="M31.5,160.59a1.27,1.27,0,0,1,.53-1.05,1.81,1.81,0,0,1,1.15-.43,1.76,1.76,0,0,1,1.14.43,1.35,1.35,0,0,1,0,2.11,1.74,1.74,0,0,1-1.14.41,1.78,1.78,0,0,1-1.15-.41A1.26,1.26,0,0,1,31.5,160.59Zm.18,4.25H34.5v11.74H31.68Z"/><path class="cls-2" d="M42.84,176.81a7.76,7.76,0,0,1-2.57-.44,5.12,5.12,0,0,1-2.05-1.32l1.17-1.53A6.51,6.51,0,0,0,41,174.58a4.13,4.13,0,0,0,2.73.21,1.65,1.65,0,0,0,.82-.48,1.25,1.25,0,0,0,.32-.88,1.21,1.21,0,0,0-.44-1,3.63,3.63,0,0,0-1.09-.59q-.66-.22-1.44-.42a5.46,5.46,0,0,1-2.34-1.33,2.9,2.9,0,0,1-.81-2.07,3.28,3.28,0,0,1,.49-1.75,3.74,3.74,0,0,1,1.49-1.33,5.07,5.07,0,0,1,2.4-.52,8.2,8.2,0,0,1,2.31.29,5.73,5.73,0,0,1,1.92,1l-1.11,1.64a3.6,3.6,0,0,0-1.28-.8,3.89,3.89,0,0,0-1.33-.27,3.29,3.29,0,0,0-1,.15,1.87,1.87,0,0,0-.75.46,1,1,0,0,0-.28.75,1.09,1.09,0,0,0,.4.95,3.68,3.68,0,0,0,1.1.58l1.35.45a7,7,0,0,1,1.62.68,3.77,3.77,0,0,1,1.15,1.05,2.68,2.68,0,0,1,.44,1.56,3.75,3.75,0,0,1-.53,1.94,3.63,3.63,0,0,1-1.59,1.42A6.11,6.11,0,0,1,42.84,176.81Z"/><path class="cls-2" d="M58.89,176.86a6.32,6.32,0,0,1-2.72-.62,4.79,4.79,0,0,1-2-1.67l.15-.83v8.48H51.54V164.67H54l.39,3-.3-.85a7.15,7.15,0,0,1,2.28-1.78,6.81,6.81,0,0,1,3.09-.69,6.29,6.29,0,0,1,3.13.78,5.72,5.72,0,0,1,2.21,2.21,6.65,6.65,0,0,1,.81,3.33,6.11,6.11,0,0,1-.87,3.28,5.79,5.79,0,0,1-2.39,2.15A7.62,7.62,0,0,1,58.89,176.86Zm-.54-2.1a4.6,4.6,0,0,0,2.19-.52,4.29,4.29,0,0,0,1.6-1.45,3.64,3.64,0,0,0,.62-2.08,3.92,3.92,0,0,0-.57-2.11,4.07,4.07,0,0,0-1.52-1.45,4.26,4.26,0,0,0-2.11-.52,4.71,4.71,0,0,0-2,.38,4,4,0,0,0-1.44,1.06,4.12,4.12,0,0,0-.81,1.62v2a3.38,3.38,0,0,0,.72,1.56,3.91,3.91,0,0,0,1.42,1.12A4.14,4.14,0,0,0,58.35,174.76Z"/><path class="cls-2" d="M75.12,176.86a7.73,7.73,0,0,1-3.66-.81,5.82,5.82,0,0,1-2.37-2.21,6.13,6.13,0,0,1-.84-3.21,5.53,5.53,0,0,1,.94-3.15,7,7,0,0,1,2.51-2.27,7.12,7.12,0,0,1,3.48-.85,6.11,6.11,0,0,1,4.08,1.36,6.93,6.93,0,0,1,2.22,3.74l-10.26,3.4-.66-1.55,8.37-2.93-.57.4a3.82,3.82,0,0,0-1.2-1.61,3.33,3.33,0,0,0-2.19-.68,4,4,0,0,0-2,.51,3.67,3.67,0,0,0-1.39,1.4,4.11,4.11,0,0,0-.51,2.08,4.25,4.25,0,0,0,.52,2.13A3.71,3.71,0,0,0,73,174.07a4.29,4.29,0,0,0,2.14.52,4.44,4.44,0,0,0,1.57-.28,6.91,6.91,0,0,0,1.46-.74l1.26,2a8.51,8.51,0,0,1-2.09,1A7.27,7.27,0,0,1,75.12,176.86Z"/><path class="cls-2" d="M86.13,159.68H89v5.22h3.39V167H89v9.61H86.13V167H83.88V164.9h2.25Z"/><path class="cls-2" d="M96.93,159.68h2.85v5.22h3.39V167H99.78v9.61H96.93V167H94.68V164.9h2.25Z"/><path class="cls-2" d="M105.45,170.6a5.88,5.88,0,0,1,.88-3.18,6.28,6.28,0,0,1,2.46-2.24,7.63,7.63,0,0,1,3.59-.82,7.34,7.34,0,0,1,3.54.82,6.12,6.12,0,0,1,2.38,2.24,6.29,6.29,0,0,1,0,6.35,6.17,6.17,0,0,1-2.38,2.26,7.41,7.41,0,0,1-3.57.83,7.81,7.81,0,0,1-3.56-.78,6.06,6.06,0,0,1-2.44-2.18A6,6,0,0,1,105.45,170.6Zm2.82,0a4,4,0,0,0,.54,2.05,4.11,4.11,0,0,0,1.44,1.46,3.89,3.89,0,0,0,2,.54,3.89,3.89,0,0,0,3.49-2,4.25,4.25,0,0,0,0-4.11,4.11,4.11,0,0,0-1.42-1.48,4,4,0,0,0-2.07-.55,3.82,3.82,0,0,0-2.06.57,4.11,4.11,0,0,0-1.44,1.49A4,4,0,0,0,108.27,170.63Z"/><path class="cls-2" d="M125.46,174.08c-.44,1-.88,2-1.31,3s-.86,2-1.3,3h-2.31c.42-1,.82-2,1.2-3s.76-2,1.14-3Z"/><path class="cls-2" d="M141,164.84l.27,3.4-.12-.48A5.17,5.17,0,0,1,142.5,166a6.88,6.88,0,0,1,1.92-1.17,5.7,5.7,0,0,1,1.74-.42L146,167a4.29,4.29,0,0,0-2.51.5,4.76,4.76,0,0,0-1.68,1.59,3.87,3.87,0,0,0-.61,2.11v5.36h-2.79V164.84Z"/><path class="cls-2" d="M149.55,160.59a1.29,1.29,0,0,1,.52-1.05,1.83,1.83,0,0,1,1.16-.43,1.76,1.76,0,0,1,1.14.43,1.35,1.35,0,0,1,0,2.11,1.74,1.74,0,0,1-1.14.41,1.81,1.81,0,0,1-1.16-.41A1.28,1.28,0,0,1,149.55,160.59Zm.18,4.25h2.82v11.74h-2.82Z"/><path class="cls-2" d="M167.49,175.47a6.14,6.14,0,0,1-2,1,7.62,7.62,0,0,1-2.34.37,7.93,7.93,0,0,1-3.56-.76,5.81,5.81,0,0,1-2.41-2.16,6,6,0,0,1-.87-3.26,5.61,5.61,0,0,1,.93-3.24,6.27,6.27,0,0,1,2.41-2.13,7.07,7.07,0,0,1,3.23-.75,8.74,8.74,0,0,1,2.65.38,6.43,6.43,0,0,1,2.06,1.09l-1.41,1.7a6.85,6.85,0,0,0-1.31-.69,4.51,4.51,0,0,0-1.75-.33,4,4,0,0,0-2,.53,3.9,3.9,0,0,0-1.44,1.41,4,4,0,0,0-.52,2,3.83,3.83,0,0,0,.54,2,4,4,0,0,0,1.5,1.45,4.45,4.45,0,0,0,2.22.54,4.55,4.55,0,0,0,2.67-.85Z"/><path class="cls-2" d="M170,170.6a5.88,5.88,0,0,1,.88-3.18,6.28,6.28,0,0,1,2.46-2.24,7.63,7.63,0,0,1,3.59-.82,7.34,7.34,0,0,1,3.54.82,6.19,6.19,0,0,1,2.38,2.24,6.29,6.29,0,0,1,0,6.35,6.24,6.24,0,0,1-2.38,2.26,7.41,7.41,0,0,1-3.57.83,7.81,7.81,0,0,1-3.56-.78,6.06,6.06,0,0,1-2.44-2.18A6,6,0,0,1,170,170.6Zm2.81,0a4,4,0,0,0,.55,2.05,4.11,4.11,0,0,0,1.44,1.46,3.86,3.86,0,0,0,2,.54,3.89,3.89,0,0,0,3.49-2,4.25,4.25,0,0,0,0-4.11,4.11,4.11,0,0,0-1.42-1.48,4,4,0,0,0-2.07-.55,3.8,3.8,0,0,0-2.06.57,4.11,4.11,0,0,0-1.44,1.49A4,4,0,0,0,172.79,170.63Z"/><path class="cls-2" d="M189.93,164.84l.27,3.4-.12-.48a5.06,5.06,0,0,1,1.38-1.81,6.74,6.74,0,0,1,1.92-1.17,5.57,5.57,0,0,1,1.74-.42L195,167a4.29,4.29,0,0,0-2.51.5,4.76,4.76,0,0,0-1.68,1.59,3.87,3.87,0,0,0-.61,2.11v5.36h-2.79V164.84Z"/><path class="cls-2" d="M203.21,176.86a6.23,6.23,0,0,1-3.12-.78,5.77,5.77,0,0,1-2.2-2.21,6.47,6.47,0,0,1-.83-3.3,6.11,6.11,0,0,1,.88-3.35,5.65,5.65,0,0,1,2.34-2.12,7.08,7.08,0,0,1,3.29-.74,6.94,6.94,0,0,1,2.81.59,5,5,0,0,1,2.08,1.65l-.15.93v-12.9h2.8v22h-2.8v-2.92l.33.74a7.06,7.06,0,0,1-2.29,1.77A7,7,0,0,1,203.21,176.86Zm.87-2.24a4.71,4.71,0,0,0,2-.39,4.31,4.31,0,0,0,1.44-1.07,3.81,3.81,0,0,0,.82-1.57v-2.24a3.51,3.51,0,0,0-.85-1.5,4.2,4.2,0,0,0-1.47-1,4.85,4.85,0,0,0-1.91-.35A4.35,4.35,0,0,0,202,167a4.14,4.14,0,0,0-1.53,1.41,4.14,4.14,0,0,0,0,4.19,4.49,4.49,0,0,0,1.53,1.47A4.06,4.06,0,0,0,204.08,174.62Z"/><path class="cls-2" d="M221.13,176.86a6.9,6.9,0,0,1-3.17-.71,5.34,5.34,0,0,1-2.26-2.08,6.26,6.26,0,0,1-.84-3.36,6.36,6.36,0,0,1,.86-3.4,5.87,5.87,0,0,1,2.34-2.19,6.89,6.89,0,0,1,3.22-.76,5.53,5.53,0,0,1,2.95.75,5.21,5.21,0,0,1,1.81,1.77l-.17.43.26-2.47h2.58v11.74h-2.79v-3.06l.33.68a3.74,3.74,0,0,1-.56.72,7.88,7.88,0,0,1-1.07.89,5.61,5.61,0,0,1-1.51.75A6.1,6.1,0,0,1,221.13,176.86Zm.75-2.18a4.62,4.62,0,0,0,1.89-.37,3.61,3.61,0,0,0,1.39-1.05,3.68,3.68,0,0,0,.76-1.59v-2.29a3.5,3.5,0,0,0-.84-1.49,4,4,0,0,0-1.44-1,4.6,4.6,0,0,0-1.83-.36,4.26,4.26,0,0,0-2.07.51,3.89,3.89,0,0,0-2,3.55,3.84,3.84,0,0,0,.57,2.07,4,4,0,0,0,1.52,1.47A4.19,4.19,0,0,0,221.88,174.68Z"/><path class="cls-2" d="M236.09,164.84l.21,2.86-.09-.45a4.43,4.43,0,0,1,1.92-2.08,6.18,6.18,0,0,1,3.15-.78,4.18,4.18,0,0,1,2.87,1,3.27,3.27,0,0,1,1.15,2.53v8.68h-2.82v-7.77a2.3,2.3,0,0,0-.58-1.54,2.22,2.22,0,0,0-1.73-.61,3.48,3.48,0,0,0-1.93.56,3.87,3.87,0,0,0-1.38,1.56,5.09,5.09,0,0,0-.5,2.3v5.5h-2.82V164.84Z"/><path class="cls-2" d="M255.2,176.86a6.23,6.23,0,0,1-3.12-.78,5.77,5.77,0,0,1-2.2-2.21,6.47,6.47,0,0,1-.83-3.3,6.19,6.19,0,0,1,.87-3.35,5.77,5.77,0,0,1,2.34-2.12,7.15,7.15,0,0,1,3.3-.74,6.94,6.94,0,0,1,2.81.59,5,5,0,0,1,2.08,1.65l-.15.93v-12.9h2.79v22H260.3v-2.92l.33.74a7,7,0,0,1-5.43,2.46Zm.87-2.24a4.71,4.71,0,0,0,2-.39,4.31,4.31,0,0,0,1.44-1.07,3.81,3.81,0,0,0,.82-1.57v-2.24a3.51,3.51,0,0,0-.85-1.5,4.2,4.2,0,0,0-1.47-1,4.89,4.89,0,0,0-1.91-.35A4.35,4.35,0,0,0,254,167a4,4,0,0,0-1.53,1.41,4.14,4.14,0,0,0,0,4.19,4.31,4.31,0,0,0,1.53,1.47A4.06,4.06,0,0,0,256.07,174.62Z"/><path class="cls-2" d="M266.84,170.6a5.89,5.89,0,0,1,.89-3.18,6.28,6.28,0,0,1,2.46-2.24,7.59,7.59,0,0,1,3.58-.82,7.34,7.34,0,0,1,3.54.82,6.15,6.15,0,0,1,2.39,2.24,6.35,6.35,0,0,1,0,6.35,6.2,6.2,0,0,1-2.39,2.26,7.41,7.41,0,0,1-3.57.83,7.76,7.76,0,0,1-3.55-.78,6.09,6.09,0,0,1-2.45-2.18A6,6,0,0,1,266.84,170.6Zm2.82,0a4,4,0,0,0,.54,2.05,4.11,4.11,0,0,0,1.44,1.46,3.89,3.89,0,0,0,2,.54,3.94,3.94,0,0,0,2.07-.54,4,4,0,0,0,1.43-1.46,4.32,4.32,0,0,0,0-4.11,4.14,4.14,0,0,0-1.43-1.48,4,4,0,0,0-2.07-.55,3.79,3.79,0,0,0-2.05.57,4.11,4.11,0,0,0-1.44,1.49A4,4,0,0,0,269.66,170.63Z"/><path class="cls-2" d="M297.26,176.81a7.7,7.7,0,0,1-2.56-.44,5.16,5.16,0,0,1-2.06-1.32l1.17-1.53a6.51,6.51,0,0,0,1.62,1.06,4.13,4.13,0,0,0,2.73.21,1.68,1.68,0,0,0,.83-.48,1.25,1.25,0,0,0,.31-.88,1.21,1.21,0,0,0-.43-1,3.69,3.69,0,0,0-1.1-.59q-.66-.22-1.44-.42a5.46,5.46,0,0,1-2.34-1.33,2.9,2.9,0,0,1-.81-2.07,3.29,3.29,0,0,1,.5-1.75,3.71,3.71,0,0,1,1.48-1.33,5.07,5.07,0,0,1,2.4-.52,8.2,8.2,0,0,1,2.31.29,5.73,5.73,0,0,1,1.92,1l-1.11,1.64a3.56,3.56,0,0,0-1.27-.8,3.94,3.94,0,0,0-1.34-.27,3.22,3.22,0,0,0-1,.15,1.87,1.87,0,0,0-.75.46,1,1,0,0,0-.29.75,1.1,1.1,0,0,0,.41.95,3.62,3.62,0,0,0,1.09.58l1.35.45a7,7,0,0,1,1.62.68,3.81,3.81,0,0,1,1.16,1.05,2.68,2.68,0,0,1,.43,1.56,3.74,3.74,0,0,1-.52,1.94,3.63,3.63,0,0,1-1.59,1.42A6.16,6.16,0,0,1,297.26,176.81Z"/><path class="cls-2" d="M311.75,176.86a7.73,7.73,0,0,1-3.66-.81,5.82,5.82,0,0,1-2.37-2.21,6.13,6.13,0,0,1-.84-3.21,5.54,5.54,0,0,1,.95-3.15,6.93,6.93,0,0,1,2.5-2.27,7.12,7.12,0,0,1,3.48-.85,6.11,6.11,0,0,1,4.08,1.36,6.93,6.93,0,0,1,2.22,3.74l-10.26,3.4-.66-1.55,8.37-2.93-.57.4a3.82,3.82,0,0,0-1.2-1.61,3.33,3.33,0,0,0-2.19-.68,4,4,0,0,0-2,.51,3.69,3.69,0,0,0-1.4,1.4,4.11,4.11,0,0,0-.51,2.08,4.26,4.26,0,0,0,.53,2.13,3.75,3.75,0,0,0,1.47,1.46,4.32,4.32,0,0,0,2.14.52,4.5,4.5,0,0,0,1.58-.28,6.84,6.84,0,0,0,1.45-.74l1.26,2a8.44,8.44,0,0,1-2.08,1A7.33,7.33,0,0,1,311.75,176.86Z"/><path class="cls-2" d="M324.11,164.84l.24,2.64-.15-.23a5.27,5.27,0,0,1,2-2.11,5.53,5.53,0,0,1,2.95-.78,4.81,4.81,0,0,1,1.83.33,3.56,3.56,0,0,1,1.34.9A2.81,2.81,0,0,1,333,167l-.15.11a5.14,5.14,0,0,1,2-2,5.36,5.36,0,0,1,2.68-.72,4.1,4.1,0,0,1,2.9,1,3.48,3.48,0,0,1,1.12,2.52v8.71h-2.82v-7.74a2.71,2.71,0,0,0-.46-1.52,1.83,1.83,0,0,0-1.52-.64,3.28,3.28,0,0,0-1.93.61,4.09,4.09,0,0,0-1.32,1.59A5.25,5.25,0,0,0,333,171v5.56h-2.82v-7.74a2.58,2.58,0,0,0-.49-1.52,1.92,1.92,0,0,0-1.55-.64,3.23,3.23,0,0,0-1.92.61,4.19,4.19,0,0,0-1.32,1.61,4.87,4.87,0,0,0-.48,2.15v5.53h-2.82V164.84Z"/><path class="cls-2" d="M353.66,176.86a6.28,6.28,0,0,1-2.71-.62,4.82,4.82,0,0,1-2-1.67l.15-.83v8.48h-2.79V164.67h2.43l.39,3-.3-.85a7.15,7.15,0,0,1,2.28-1.78,6.81,6.81,0,0,1,3.09-.69,6.33,6.33,0,0,1,3.14.78,5.7,5.7,0,0,1,2.2,2.21,6.65,6.65,0,0,1,.81,3.33,6.11,6.11,0,0,1-.87,3.28,5.76,5.76,0,0,1-2.38,2.15A7.66,7.66,0,0,1,353.66,176.86Zm-.54-2.1a4.6,4.6,0,0,0,2.19-.52,4.32,4.32,0,0,0,1.61-1.45,3.63,3.63,0,0,0,.61-2.08,3.92,3.92,0,0,0-.57-2.11,4,4,0,0,0-1.51-1.45,4.3,4.3,0,0,0-2.12-.52,4.71,4.71,0,0,0-1.95.38,4,4,0,0,0-1.44,1.06,4.12,4.12,0,0,0-.81,1.62v2a3.38,3.38,0,0,0,.72,1.56,4,4,0,0,0,1.43,1.12A4.1,4.1,0,0,0,353.12,174.76Z"/><path class="cls-2" d="M366.62,164.84l.27,3.4-.12-.48a5.17,5.17,0,0,1,1.38-1.81,6.88,6.88,0,0,1,1.92-1.17,5.7,5.7,0,0,1,1.74-.42l-.12,2.66a4.26,4.26,0,0,0-2.5.5,4.76,4.76,0,0,0-1.68,1.59,3.88,3.88,0,0,0-.62,2.11v5.36H364.1V164.84Z"/><path class="cls-2" d="M380.63,176.86a7.73,7.73,0,0,1-3.66-.81,5.82,5.82,0,0,1-2.37-2.21,6.13,6.13,0,0,1-.84-3.21,5.54,5.54,0,0,1,.95-3.15,6.93,6.93,0,0,1,2.5-2.27,7.12,7.12,0,0,1,3.48-.85,6.11,6.11,0,0,1,4.08,1.36,6.93,6.93,0,0,1,2.22,3.74l-10.26,3.4-.66-1.55,8.37-2.93-.57.4a3.82,3.82,0,0,0-1.2-1.61,3.33,3.33,0,0,0-2.19-.68,4,4,0,0,0-2,.51,3.69,3.69,0,0,0-1.4,1.4,4.11,4.11,0,0,0-.51,2.08,4.26,4.26,0,0,0,.53,2.13,3.75,3.75,0,0,0,1.47,1.46,4.32,4.32,0,0,0,2.14.52,4.5,4.5,0,0,0,1.58-.28,6.84,6.84,0,0,0,1.45-.74l1.26,2a8.44,8.44,0,0,1-2.08,1A7.33,7.33,0,0,1,380.63,176.86Z"/><path class="cls-2" d="M399.74,160.59a1.3,1.3,0,0,1,.53-1.05,1.81,1.81,0,0,1,1.15-.43,1.76,1.76,0,0,1,1.14.43,1.35,1.35,0,0,1,0,2.11,1.74,1.74,0,0,1-1.14.41,1.78,1.78,0,0,1-1.15-.41A1.29,1.29,0,0,1,399.74,160.59Zm.18,4.25h2.82v11.74h-2.82Z"/><path class="cls-2" d="M407.57,154.63h2.82v22h-2.82Z"/><path class="cls-2" d="M428.21,176.81a7.76,7.76,0,0,1-2.57-.44,5.12,5.12,0,0,1-2.05-1.32l1.17-1.53a6.51,6.51,0,0,0,1.62,1.06,4.13,4.13,0,0,0,2.73.21,1.72,1.72,0,0,0,.83-.48,1.29,1.29,0,0,0,.31-.88,1.19,1.19,0,0,0-.44-1,3.51,3.51,0,0,0-1.09-.59q-.66-.22-1.44-.42a5.46,5.46,0,0,1-2.34-1.33,2.9,2.9,0,0,1-.81-2.07,3.21,3.21,0,0,1,.5-1.75,3.71,3.71,0,0,1,1.48-1.33,5.07,5.07,0,0,1,2.4-.52,8.2,8.2,0,0,1,2.31.29,5.73,5.73,0,0,1,1.92,1l-1.11,1.64a3.56,3.56,0,0,0-1.27-.8,3.94,3.94,0,0,0-1.34-.27,3.18,3.18,0,0,0-1,.15,1.87,1.87,0,0,0-.75.46,1,1,0,0,0-.29.75,1.12,1.12,0,0,0,.4.95,3.8,3.8,0,0,0,1.1.58l1.35.45a7,7,0,0,1,1.62.68,3.93,3.93,0,0,1,1.16,1.05,2.75,2.75,0,0,1,.43,1.56,3.74,3.74,0,0,1-.52,1.94,3.69,3.69,0,0,1-1.59,1.42A6.19,6.19,0,0,1,428.21,176.81Z"/><path class="cls-2" d="M440.9,177a4.07,4.07,0,0,1-2.84-1,3.41,3.41,0,0,1-1.15-2.53v-8.68h2.82v7.74a2.5,2.5,0,0,0,.6,1.55,2.2,2.2,0,0,0,1.68.63,3.15,3.15,0,0,0,1.85-.58,4.24,4.24,0,0,0,1.33-1.58,5,5,0,0,0,.51-2.29v-5.47h2.79v11.74h-2.55l-.24-2.89.18.54a4.69,4.69,0,0,1-1.11,1.43,5.35,5.35,0,0,1-1.73,1A6,6,0,0,1,440.9,177Z"/><path class="cls-2" d="M452.21,170.6a5.89,5.89,0,0,1,.89-3.18,6.32,6.32,0,0,1,2.45-2.24,7.66,7.66,0,0,1,3.59-.82,7.34,7.34,0,0,1,3.54.82,6.15,6.15,0,0,1,0,10.85,7.41,7.41,0,0,1-3.57.83,7.83,7.83,0,0,1-3.56-.78,6.13,6.13,0,0,1-2.44-2.18A6,6,0,0,1,452.21,170.6Zm2.82,0a4,4,0,0,0,.54,2.05,4.11,4.11,0,0,0,1.44,1.46,3.89,3.89,0,0,0,2,.54,3.94,3.94,0,0,0,2.07-.54,3.9,3.9,0,0,0,1.42-1.46,4.17,4.17,0,0,0-1.42-5.59,4,4,0,0,0-2.07-.55,3.79,3.79,0,0,0-2.05.57,4.06,4.06,0,0,0-1.45,1.49A4.11,4.11,0,0,0,455,170.63Z"/><path class="cls-2" d="M479.12,154.63h2.82v22h-2.82Z"/><path class="cls-2" d="M490.76,177a4.07,4.07,0,0,1-2.84-1,3.41,3.41,0,0,1-1.15-2.53v-8.68h2.82v7.74a2.5,2.5,0,0,0,.6,1.55,2.2,2.2,0,0,0,1.68.63,3.1,3.1,0,0,0,1.84-.58,4.18,4.18,0,0,0,1.34-1.58,5,5,0,0,0,.51-2.29v-5.47h2.79v11.74H495.8l-.24-2.89.18.54a4.69,4.69,0,0,1-1.11,1.43,5.35,5.35,0,0,1-1.73,1A6.06,6.06,0,0,1,490.76,177Z"/><path class="cls-2" d="M505.7,164.84l.21,2.86-.09-.45a4.43,4.43,0,0,1,1.92-2.08,6.18,6.18,0,0,1,3.15-.78,4.16,4.16,0,0,1,2.86,1,3.28,3.28,0,0,1,1.16,2.53v8.68h-2.82v-7.77a2.31,2.31,0,0,0-.59-1.54,2.2,2.2,0,0,0-1.72-.61,3.51,3.51,0,0,0-1.94.56,3.87,3.87,0,0,0-1.38,1.56,5.09,5.09,0,0,0-.49,2.3v5.5h-2.82V164.84Z"/><path class="cls-2" d="M525.77,182.42a8.68,8.68,0,0,1-2.45-.31,7.61,7.61,0,0,1-1.92-.85,18.71,18.71,0,0,1-1.66-1.19l1.65-1.82a8.85,8.85,0,0,0,2,1.33,5.15,5.15,0,0,0,2.28.49,5.81,5.81,0,0,0,2.38-.44,3.22,3.22,0,0,0,2-3l0-3.18.24.51a4.62,4.62,0,0,1-2,2.06,6.66,6.66,0,0,1-3.42.83,6.17,6.17,0,0,1-3.12-.82,6.41,6.41,0,0,1-2.31-2.23,5.84,5.84,0,0,1-.87-3.16,6,6,0,0,1,.9-3.26,6.43,6.43,0,0,1,2.38-2.22,6.65,6.65,0,0,1,3.23-.81,6.94,6.94,0,0,1,3,.64,4.77,4.77,0,0,1,2,1.63l-.18.48.27-2.27h2.58v11.82a5.19,5.19,0,0,1-.86,2.9,6,6,0,0,1-2.46,2.08A8.58,8.58,0,0,1,525.77,182.42Zm-4.29-11.82a3.85,3.85,0,0,0,.58,2.07,4.24,4.24,0,0,0,1.56,1.47,4.37,4.37,0,0,0,2.15.54,5,5,0,0,0,2-.38,4.15,4.15,0,0,0,1.49-1.07,3.86,3.86,0,0,0,.84-1.5v-2.35a3.59,3.59,0,0,0-.9-1.48,4.9,4.9,0,0,0-1.5-1,5,5,0,0,0-1.92-.37,4.47,4.47,0,0,0-2.15.53,4.13,4.13,0,0,0-1.56,1.43A3.76,3.76,0,0,0,521.48,170.6Z"/><path class="cls-2" d="M536.63,170.6a5.88,5.88,0,0,1,.88-3.18,6.28,6.28,0,0,1,2.46-2.24,7.63,7.63,0,0,1,3.59-.82,7.34,7.34,0,0,1,3.54.82,6.12,6.12,0,0,1,2.38,2.24,6.29,6.29,0,0,1,0,6.35A6.17,6.17,0,0,1,547.1,176a7.41,7.41,0,0,1-3.57.83,7.81,7.81,0,0,1-3.56-.78,6.06,6.06,0,0,1-2.44-2.18A6,6,0,0,1,536.63,170.6Zm2.82,0a4,4,0,0,0,.54,2.05,4.11,4.11,0,0,0,1.44,1.46,3.89,3.89,0,0,0,2,.54,3.89,3.89,0,0,0,3.49-2,4.25,4.25,0,0,0,0-4.11,4.11,4.11,0,0,0-1.42-1.48,4,4,0,0,0-2.07-.55,3.82,3.82,0,0,0-2.06.57A4.11,4.11,0,0,0,540,168.6,4,4,0,0,0,539.45,170.63Z"/><path class="cls-2" d="M25.47,210.94l-6.9-12.08H21.9l4.65,9.33-1.71-.08,4.29-9.25h3.12l-6.63,12.08Z"/><path class="cls-2" d="M35,194.61a1.32,1.32,0,0,1,.52-1.05,1.82,1.82,0,0,1,1.16-.42,1.75,1.75,0,0,1,1.14.42,1.33,1.33,0,0,1,.51,1.05,1.28,1.28,0,0,1-.51,1.06,1.75,1.75,0,0,1-1.14.42,1.82,1.82,0,0,1-1.16-.42A1.27,1.27,0,0,1,35,194.61Zm.18,4.25H38V210.6H35.22Z"/><path class="cls-2" d="M48.06,210.89a7.06,7.06,0,0,1-3.17-.71,5.42,5.42,0,0,1-2.26-2.09,6.3,6.3,0,0,1-.84-3.36,6.39,6.39,0,0,1,.87-3.4A5.92,5.92,0,0,1,45,199.15a6.85,6.85,0,0,1,3.21-.77,5.5,5.5,0,0,1,2.95.75A5.36,5.36,0,0,1,53,200.91l-.18.42.27-2.47h2.58V210.6H52.86v-3.06l.33.68a3.49,3.49,0,0,1-.57.72,6.74,6.74,0,0,1-1.07.9,6,6,0,0,1-3.49,1Zm.75-2.19a4.59,4.59,0,0,0,1.89-.37,3.62,3.62,0,0,0,1.39-1,3.93,3.93,0,0,0,.77-1.59v-2.3a3.56,3.56,0,0,0-.84-1.49,4.3,4.3,0,0,0-1.44-1,4.59,4.59,0,0,0-1.83-.35,4.23,4.23,0,0,0-2.07.51,4,4,0,0,0-1.49,1.41,4,4,0,0,0-.55,2.13,3.88,3.88,0,0,0,.57,2.07,4.07,4.07,0,0,0,1.53,1.47A4.15,4.15,0,0,0,48.81,208.7Z"/><path class="cls-2" d="M66.51,216.44a8.68,8.68,0,0,1-2.45-.31,7.61,7.61,0,0,1-1.92-.85,18.71,18.71,0,0,1-1.66-1.19l1.65-1.81a9.2,9.2,0,0,0,2,1.33,5.29,5.29,0,0,0,2.28.48,5.81,5.81,0,0,0,2.38-.44,3.28,3.28,0,0,0,1.47-1.2,3.42,3.42,0,0,0,.53-1.79l0-3.18.24.51a4.57,4.57,0,0,1-1.95,2.06,6.57,6.57,0,0,1-3.42.84,6.17,6.17,0,0,1-3.12-.83,6.39,6.39,0,0,1-2.31-2.22,6.26,6.26,0,0,1,0-6.42,6.37,6.37,0,0,1,2.38-2.23,6.65,6.65,0,0,1,3.23-.81,7.09,7.09,0,0,1,3,.64,4.84,4.84,0,0,1,2,1.63l-.18.48.27-2.27h2.58v11.83a5.16,5.16,0,0,1-.86,2.89,6,6,0,0,1-2.46,2.08A8.58,8.58,0,0,1,66.51,216.44Zm-4.29-11.82a3.8,3.8,0,0,0,.58,2.07,4.16,4.16,0,0,0,1.56,1.47,4.37,4.37,0,0,0,2.15.54,4.87,4.87,0,0,0,2-.38A4.13,4.13,0,0,0,70,207.26a4,4,0,0,0,.84-1.51V203.4a3.49,3.49,0,0,0-.9-1.47,4.75,4.75,0,0,0-1.5-1,5,5,0,0,0-1.92-.36,4.47,4.47,0,0,0-2.15.52,4.21,4.21,0,0,0-1.56,1.43A3.81,3.81,0,0,0,62.22,204.62Z"/><path class="cls-2" d="M84.48,216.44a8.68,8.68,0,0,1-2.45-.31,7.61,7.61,0,0,1-1.92-.85,18.71,18.71,0,0,1-1.66-1.19l1.65-1.81a9.2,9.2,0,0,0,2,1.33,5.29,5.29,0,0,0,2.28.48,5.81,5.81,0,0,0,2.38-.44,3.28,3.28,0,0,0,1.47-1.2,3.42,3.42,0,0,0,.53-1.79l0-3.18L89,208a4.57,4.57,0,0,1-2,2.06,6.57,6.57,0,0,1-3.42.84,6.17,6.17,0,0,1-3.12-.83,6.39,6.39,0,0,1-2.31-2.22,6.26,6.26,0,0,1,0-6.42,6.37,6.37,0,0,1,2.38-2.23,6.65,6.65,0,0,1,3.23-.81,7.09,7.09,0,0,1,3,.64,4.84,4.84,0,0,1,2,1.63l-.18.48.27-2.27h2.58v11.83a5.16,5.16,0,0,1-.86,2.89,6,6,0,0,1-2.46,2.08A8.58,8.58,0,0,1,84.48,216.44Zm-4.29-11.82a3.8,3.8,0,0,0,.58,2.07,4.16,4.16,0,0,0,1.56,1.47,4.37,4.37,0,0,0,2.15.54,4.87,4.87,0,0,0,2-.38A4.13,4.13,0,0,0,88,207.26a4,4,0,0,0,.84-1.51V203.4a3.49,3.49,0,0,0-.9-1.47,4.75,4.75,0,0,0-1.5-1,5,5,0,0,0-1.92-.36,4.47,4.47,0,0,0-2.15.52,4.21,4.21,0,0,0-1.56,1.43A3.81,3.81,0,0,0,80.19,204.62Z"/><path class="cls-2" d="M96.24,194.61a1.32,1.32,0,0,1,.52-1.05,1.82,1.82,0,0,1,1.16-.42,1.75,1.75,0,0,1,1.14.42,1.33,1.33,0,0,1,.51,1.05,1.28,1.28,0,0,1-.51,1.06,1.75,1.75,0,0,1-1.14.42,1.82,1.82,0,0,1-1.16-.42A1.27,1.27,0,0,1,96.24,194.61Zm.18,4.25h2.82V210.6H96.42Z"/><path class="cls-2" d="M103,204.62a5.9,5.9,0,0,1,.88-3.18,6.18,6.18,0,0,1,2.46-2.23,7.63,7.63,0,0,1,3.59-.83,7.35,7.35,0,0,1,3.54.83,6.19,6.19,0,0,1,2.38,8.59,6.22,6.22,0,0,1-2.38,2.25,7.3,7.3,0,0,1-3.57.84,7.81,7.81,0,0,1-3.56-.78,6.09,6.09,0,0,1-2.44-2.19A6,6,0,0,1,103,204.62Zm2.82,0a4,4,0,0,0,2,3.51,3.89,3.89,0,0,0,2,.54,3.94,3.94,0,0,0,2.07-.54,3.83,3.83,0,0,0,1.42-1.46,4,4,0,0,0,.53-2,4.08,4.08,0,0,0-1.95-3.53,3.86,3.86,0,0,0-2.07-.55,3.82,3.82,0,0,0-2.06.56,4.19,4.19,0,0,0-1.44,1.49A4,4,0,0,0,105.81,204.65Z"/><path class="cls-2" d="M119.53,208a1.6,1.6,0,0,1,1.1-.45,1.52,1.52,0,0,1,1,.45,1.43,1.43,0,0,1,.5,1.08,1.35,1.35,0,0,1-.5,1.09,1.56,1.56,0,0,1-1,.41,1.65,1.65,0,0,1-1.1-.41,1.34,1.34,0,0,1-.49-1.09A1.42,1.42,0,0,1,119.53,208Z"/></g></g></svg>