<svg xmlns="http://www.w3.org/2000/svg" viewBox="0 0 672 252"><defs><style>.cls-1{fill:#fff;}.cls-2{fill:#846b4a;}</style></defs><title>ahmed testo 1</title><g id="Livello_2" data-name="Livello 2"><g id="illustrazioni"><rect class="cls-1" width="672" height="252" rx="21.32"/></g><g id="testi"><path class="cls-2" d="M31,51.48l9.45-21.35h.18l9.48,21.35H46.74l-7.08-17,2.07-1.27L33.84,51.48Zm5.55-7.77h8.07l1,2.39H35.67Z"/><path class="cls-2" d="M53.43,51.48V29.54h2.76V42.47L56.13,42a5,5,0,0,1,1.93-1.92,6.08,6.08,0,0,1,3.11-.77,4.21,4.21,0,0,1,2.86,1,3.3,3.3,0,0,1,1.16,2.54v8.67H62.37V43.71a2.33,2.33,0,0,0-.59-1.54,2.2,2.2,0,0,0-1.72-.61,3.45,3.45,0,0,0-1.94.58,4,4,0,0,0-1.38,1.57A5,5,0,0,0,56.25,46v5.5Z"/><path class="cls-2" d="M72.57,39.75l.24,2.63-.15-.22a5.27,5.27,0,0,1,2-2.12,5.57,5.57,0,0,1,3-.78,4.81,4.81,0,0,1,1.83.33,3.54,3.54,0,0,1,1.33.91,2.75,2.75,0,0,1,.68,1.4l-.15.11a5,5,0,0,1,2-2A5.25,5.25,0,0,1,86,39.26a4,4,0,0,1,2.89,1A3.49,3.49,0,0,1,90,42.78v8.7H87.15V43.74a2.76,2.76,0,0,0-.46-1.51,1.82,1.82,0,0,0-1.52-.64,3.24,3.24,0,0,0-1.94.61,4,4,0,0,0-1.32,1.59,5.21,5.21,0,0,0-.49,2.14v5.55H78.6V43.74a2.55,2.55,0,0,0-.5-1.51,1.87,1.87,0,0,0-1.54-.64,3.16,3.16,0,0,0-1.92.61,4.16,4.16,0,0,0-1.32,1.6A4.87,4.87,0,0,0,72.84,46v5.53H70V39.75Z"/><path class="cls-2" d="M100.56,51.77A7.73,7.73,0,0,1,96.9,51a6,6,0,0,1-2.37-2.21,6.16,6.16,0,0,1-.84-3.22,5.57,5.57,0,0,1,.94-3.15,7.05,7.05,0,0,1,2.51-2.27,7.23,7.23,0,0,1,3.48-.85,6.16,6.16,0,0,1,4.08,1.36,7,7,0,0,1,2.22,3.75l-10.26,3.4L96,46.21l8.37-2.92-.57.4a3.79,3.79,0,0,0-1.2-1.62,3.39,3.39,0,0,0-2.19-.68,4,4,0,0,0-2,.51A3.74,3.74,0,0,0,97,43.3a4.15,4.15,0,0,0-.51,2.09A4.24,4.24,0,0,0,97,47.51,3.65,3.65,0,0,0,98.48,49a4.3,4.3,0,0,0,2.14.53,4.64,4.64,0,0,0,1.57-.28,7.42,7.42,0,0,0,1.46-.74l1.26,2a8.92,8.92,0,0,1-2.09,1A7.57,7.57,0,0,1,100.56,51.77Z"/><path class="cls-2" d="M115.44,51.77a6.23,6.23,0,0,1-3.12-.78,5.86,5.86,0,0,1-2.21-2.21,6.53,6.53,0,0,1-.82-3.31,6.15,6.15,0,0,1,.87-3.34A5.72,5.72,0,0,1,112.5,40a7.28,7.28,0,0,1,3.3-.74,6.74,6.74,0,0,1,2.8.6,5,5,0,0,1,2.09,1.64l-.15.94V29.54h2.79V51.48h-2.79V48.56l.33.74a7,7,0,0,1-2.3,1.77A6.83,6.83,0,0,1,115.44,51.77Zm.87-2.24a4.52,4.52,0,0,0,2-.4,4.28,4.28,0,0,0,1.44-1.06,3.87,3.87,0,0,0,.83-1.58V44.25a3.65,3.65,0,0,0-.86-1.5,4.34,4.34,0,0,0-1.47-1,5,5,0,0,0-1.9-.35,4.35,4.35,0,0,0-2.07.51,4,4,0,0,0-1.53,1.42,4.12,4.12,0,0,0,0,4.18A4.23,4.23,0,0,0,114.24,49,4.07,4.07,0,0,0,116.31,49.53Z"/><path class="cls-2" d="M143.43,51.77a7.73,7.73,0,0,1-3.66-.81,6,6,0,0,1-2.37-2.21,6.16,6.16,0,0,1-.84-3.22,5.57,5.57,0,0,1,.94-3.15A7.05,7.05,0,0,1,140,40.11a7.23,7.23,0,0,1,3.48-.85,6.16,6.16,0,0,1,4.08,1.36,7,7,0,0,1,2.22,3.75l-10.26,3.4-.66-1.56,8.37-2.92-.57.4a3.79,3.79,0,0,0-1.2-1.62,3.39,3.39,0,0,0-2.19-.68,4,4,0,0,0-2,.51,3.74,3.74,0,0,0-1.39,1.4,4.15,4.15,0,0,0-.51,2.09,4.24,4.24,0,0,0,.52,2.12A3.69,3.69,0,0,0,141.34,49a4.36,4.36,0,0,0,2.15.53,4.68,4.68,0,0,0,1.57-.28,7.42,7.42,0,0,0,1.46-.74l1.26,2a8.92,8.92,0,0,1-2.09,1A7.57,7.57,0,0,1,143.43,51.77Zm-4.5-18.23H142l2.19,3.79h-1.77Z"/><path class="cls-2" d="M165.27,39.75l.21,2.86-.09-.45a4.45,4.45,0,0,1,1.92-2.09,6.18,6.18,0,0,1,3.15-.78,4.21,4.21,0,0,1,2.86,1,3.3,3.3,0,0,1,1.16,2.54v8.67h-2.82V43.71a2.33,2.33,0,0,0-.59-1.54,2.2,2.2,0,0,0-1.72-.61,3.52,3.52,0,0,0-1.94.57A3.81,3.81,0,0,0,166,43.69a5,5,0,0,0-.49,2.29v5.5h-2.82V39.75Z"/><path class="cls-2" d="M184.5,51.77a7.06,7.06,0,0,1-3.17-.71A5.42,5.42,0,0,1,179.07,49a6.3,6.3,0,0,1-.84-3.36,6.39,6.39,0,0,1,.87-3.4A5.92,5.92,0,0,1,181.44,40a6.85,6.85,0,0,1,3.21-.77,5.5,5.5,0,0,1,2.95.75,5.36,5.36,0,0,1,1.82,1.78l-.18.42.27-2.46h2.58V51.48H189.3V48.42l.33.68a3.49,3.49,0,0,1-.57.72,6.74,6.74,0,0,1-1.07.9,6,6,0,0,1-3.49,1.05Zm.75-2.19a4.75,4.75,0,0,0,1.89-.36,3.74,3.74,0,0,0,1.39-1,3.93,3.93,0,0,0,.77-1.59v-2.3a3.56,3.56,0,0,0-.84-1.49,4.3,4.3,0,0,0-1.44-1,4.59,4.59,0,0,0-1.83-.35,4.23,4.23,0,0,0-2.07.51,4,4,0,0,0-1.49,1.41,4,4,0,0,0-.55,2.13,3.88,3.88,0,0,0,.57,2.07A4.07,4.07,0,0,0,183.18,49,4.15,4.15,0,0,0,185.25,49.58Z"/><path class="cls-2" d="M198.12,34.58H201V39.8h3.39v2.07H201v9.61h-2.85V41.87h-2.25V39.8h2.25Z"/><path class="cls-2" d="M206.64,45.5a5.84,5.84,0,0,1,.88-3.17A6.13,6.13,0,0,1,210,40.09a7.63,7.63,0,0,1,3.59-.83,7.35,7.35,0,0,1,3.54.83,6,6,0,0,1,3.24,5.41,6.07,6.07,0,0,1-.86,3.18,6.22,6.22,0,0,1-2.38,2.25,7.3,7.3,0,0,1-3.57.84A7.81,7.81,0,0,1,210,51a6.09,6.09,0,0,1-2.44-2.19A6,6,0,0,1,206.64,45.5Zm2.82,0a4,4,0,0,0,2,3.51,3.89,3.89,0,0,0,2,.54,3.94,3.94,0,0,0,2.07-.54A3.83,3.83,0,0,0,217,47.58a4,4,0,0,0,.53-2A4.08,4.08,0,0,0,215.55,42a3.86,3.86,0,0,0-2.07-.55,3.91,3.91,0,0,0-2.06.56A4.19,4.19,0,0,0,210,43.5,4,4,0,0,0,209.46,45.53Z"/><path class="cls-2" d="M233.37,35.49a1.32,1.32,0,0,1,.52-1.05,1.82,1.82,0,0,1,1.16-.42,1.75,1.75,0,0,1,1.14.42,1.33,1.33,0,0,1,.51,1.05,1.32,1.32,0,0,1-.51,1.07,1.79,1.79,0,0,1-1.14.41,1.87,1.87,0,0,1-1.16-.41A1.3,1.3,0,0,1,233.37,35.49Zm.18,4.26h2.82V51.48h-2.82Z"/><path class="cls-2" d="M243.75,39.75l.21,2.86-.09-.45a4.4,4.4,0,0,1,1.92-2.09,6.18,6.18,0,0,1,3.15-.78,4.21,4.21,0,0,1,2.86,1A3.3,3.3,0,0,1,253,42.81v8.67h-2.82V43.71a2.33,2.33,0,0,0-.59-1.54,2.21,2.21,0,0,0-1.72-.61,3.52,3.52,0,0,0-1.94.57,3.81,3.81,0,0,0-1.38,1.56A5,5,0,0,0,244,46v5.5H241.2V39.75Z"/><path class="cls-2" d="M271.25,51.94a4.09,4.09,0,0,1-2.83-1,3.39,3.39,0,0,1-1.15-2.54V39.75h2.81v7.74a2.45,2.45,0,0,0,.61,1.54,2.16,2.16,0,0,0,1.67.64,3.13,3.13,0,0,0,1.85-.58,4.26,4.26,0,0,0,1.33-1.59,5,5,0,0,0,.52-2.28V39.75h2.79V51.48h-2.56l-.23-2.89.17.54a4.43,4.43,0,0,1-1.11,1.43,5.21,5.21,0,0,1-1.72,1A6.35,6.35,0,0,1,271.25,51.94Z"/><path class="cls-2" d="M286.19,39.75l.21,2.86-.09-.45a4.45,4.45,0,0,1,1.92-2.09,6.21,6.21,0,0,1,3.15-.78,4.23,4.23,0,0,1,2.87,1,3.29,3.29,0,0,1,1.15,2.54v8.67h-2.82V43.71a2.32,2.32,0,0,0-.58-1.54,2.22,2.22,0,0,0-1.73-.61,3.49,3.49,0,0,0-1.93.57A3.81,3.81,0,0,0,287,43.69a5,5,0,0,0-.5,2.29v5.5h-2.81V39.75Z"/><path class="cls-2" d="M305.42,51.77a7,7,0,0,1-3.16-.71A5.44,5.44,0,0,1,300,49a6.3,6.3,0,0,1-.84-3.36,6.39,6.39,0,0,1,.87-3.4A5.92,5.92,0,0,1,302.36,40a6.85,6.85,0,0,1,3.21-.77,5.54,5.54,0,0,1,3,.75,5.32,5.32,0,0,1,1.81,1.78l-.18.42.27-2.46H313V51.48h-2.79V48.42l.33.68a3.49,3.49,0,0,1-.57.72,6.63,6.63,0,0,1-1.06.9,6.16,6.16,0,0,1-1.52.75A6.06,6.06,0,0,1,305.42,51.77Zm.75-2.19a4.75,4.75,0,0,0,1.89-.36,3.78,3.78,0,0,0,1.4-1,3.91,3.91,0,0,0,.76-1.59v-2.3a3.56,3.56,0,0,0-.84-1.49,4.3,4.3,0,0,0-1.44-1,4.59,4.59,0,0,0-1.83-.35A4.23,4.23,0,0,0,304,42a3.93,3.93,0,0,0-1.48,1.41A4,4,0,0,0,302,45.5a3.88,3.88,0,0,0,.57,2.07A4.07,4.07,0,0,0,304.1,49,4.15,4.15,0,0,0,306.17,49.58Z"/><path class="cls-2" d="M334.67,51.77a6.15,6.15,0,0,1-2.71-.63,4.75,4.75,0,0,1-2-1.67l.15-.82v8.48h-2.79V39.58h2.43l.39,3-.3-.85A7,7,0,0,1,332.12,40a6.69,6.69,0,0,1,3.09-.7,6.33,6.33,0,0,1,3.14.78,5.7,5.7,0,0,1,2.2,2.21,6.69,6.69,0,0,1,.81,3.34,6.08,6.08,0,0,1-.87,3.27A5.72,5.72,0,0,1,338.11,51,7.66,7.66,0,0,1,334.67,51.77Zm-.54-2.1a4.6,4.6,0,0,0,2.19-.53,4.38,4.38,0,0,0,1.61-1.44,3.69,3.69,0,0,0,.61-2.09A4,4,0,0,0,338,43.5a4.09,4.09,0,0,0-1.51-1.44,4.3,4.3,0,0,0-2.12-.53,4.88,4.88,0,0,0-1.95.38A3.89,3.89,0,0,0,331,43a4,4,0,0,0-.81,1.61v2a3.38,3.38,0,0,0,.72,1.56,4.17,4.17,0,0,0,1.43,1.12A4.24,4.24,0,0,0,334.13,49.67Z"/><path class="cls-2" d="M344.93,35.49a1.33,1.33,0,0,1,.53-1.05,1.79,1.79,0,0,1,1.15-.42,1.75,1.75,0,0,1,1.14.42,1.33,1.33,0,0,1,.51,1.05,1.32,1.32,0,0,1-.51,1.07,1.79,1.79,0,0,1-1.14.41,1.84,1.84,0,0,1-1.15-.41A1.31,1.31,0,0,1,344.93,35.49Zm.18,4.26h2.82V51.48h-2.82Z"/><path class="cls-2" d="M362.87,50.38a6.55,6.55,0,0,1-2,1A8.15,8.15,0,0,1,355,51a5.88,5.88,0,0,1-2.42-2.15,6,6,0,0,1-.87-3.26,5.67,5.67,0,0,1,.93-3.25A6.29,6.29,0,0,1,355,40.21a7,7,0,0,1,3.22-.75,8.81,8.81,0,0,1,2.66.38,6.21,6.21,0,0,1,2,1.1l-1.41,1.7a6.22,6.22,0,0,0-1.3-.7,4.75,4.75,0,0,0-1.76-.32,4,4,0,0,0-2,.52A3.85,3.85,0,0,0,355,43.56,3.95,3.95,0,0,0,356.54,49a4.45,4.45,0,0,0,2.22.54,4.6,4.6,0,0,0,1.46-.22,4.22,4.22,0,0,0,1.21-.63Z"/><path class="cls-2" d="M376.55,50.38a6.55,6.55,0,0,1-2,1,8.15,8.15,0,0,1-5.89-.4,5.88,5.88,0,0,1-2.42-2.15,6,6,0,0,1-.87-3.26,5.67,5.67,0,0,1,.93-3.25,6.29,6.29,0,0,1,2.42-2.13,7,7,0,0,1,3.22-.75,8.81,8.81,0,0,1,2.66.38,6.21,6.21,0,0,1,2.05,1.1l-1.41,1.7a6.22,6.22,0,0,0-1.3-.7,4.75,4.75,0,0,0-1.76-.32,4,4,0,0,0-2,.52,3.85,3.85,0,0,0-1.44,1.42A3.95,3.95,0,0,0,370.22,49a4.45,4.45,0,0,0,2.22.54,4.6,4.6,0,0,0,1.46-.22,4.22,4.22,0,0,0,1.21-.63Z"/><path class="cls-2" d="M379,45.5a5.85,5.85,0,0,1,.89-3.17,6.13,6.13,0,0,1,2.46-2.24,7.59,7.59,0,0,1,3.58-.83,7.35,7.35,0,0,1,3.54.83,6.21,6.21,0,0,1,2.39,8.59,6.25,6.25,0,0,1-2.39,2.25,7.3,7.3,0,0,1-3.57.84,7.76,7.76,0,0,1-3.55-.78,6.11,6.11,0,0,1-2.45-2.19A6,6,0,0,1,379,45.5Zm2.82,0a4,4,0,0,0,2,3.51,3.89,3.89,0,0,0,2,.54A3.94,3.94,0,0,0,388,49a3.86,3.86,0,0,0,1.43-1.46,4,4,0,0,0,.52-2A4,4,0,0,0,388,42a4.1,4.1,0,0,0-4.12,0,4.19,4.19,0,0,0-1.44,1.49A4,4,0,0,0,381.86,45.53Z"/><path class="cls-2" d="M396.47,29.54h2.82V51.48h-2.82Z"/><path class="cls-2" d="M409.31,51.77a7,7,0,0,1-3.16-.71A5.44,5.44,0,0,1,403.88,49a6.3,6.3,0,0,1-.84-3.36,6.39,6.39,0,0,1,.87-3.4A5.92,5.92,0,0,1,406.25,40a6.85,6.85,0,0,1,3.21-.77,5.54,5.54,0,0,1,3,.75,5.32,5.32,0,0,1,1.81,1.78l-.18.42.27-2.46h2.58V51.48h-2.79V48.42l.33.68a3.49,3.49,0,0,1-.57.72,6.63,6.63,0,0,1-1.06.9,6.16,6.16,0,0,1-1.52.75A6.06,6.06,0,0,1,409.31,51.77Zm.75-2.19a4.75,4.75,0,0,0,1.89-.36,3.78,3.78,0,0,0,1.4-1,3.91,3.91,0,0,0,.76-1.59v-2.3a3.56,3.56,0,0,0-.84-1.49,4.3,4.3,0,0,0-1.44-1,4.59,4.59,0,0,0-1.83-.35,4.23,4.23,0,0,0-2.07.51,3.93,3.93,0,0,0-1.48,1.41,4,4,0,0,0-.56,2.13,3.88,3.88,0,0,0,.57,2.07A4.07,4.07,0,0,0,408,49,4.15,4.15,0,0,0,410.06,49.58Z"/><path class="cls-2" d="M441.32,50.38a6.55,6.55,0,0,1-2,1,8.15,8.15,0,0,1-5.89-.4A5.82,5.82,0,0,1,431,48.85a6,6,0,0,1-.87-3.26,5.67,5.67,0,0,1,.93-3.25,6.22,6.22,0,0,1,2.42-2.13,7,7,0,0,1,3.22-.75,8.74,8.74,0,0,1,2.65.38,6.16,6.16,0,0,1,2.06,1.1L440,42.64a6.07,6.07,0,0,0-1.31-.7,4.7,4.7,0,0,0-1.75-.32,4,4,0,0,0-2,.52,3.78,3.78,0,0,0-1.44,1.42,3.82,3.82,0,0,0-.53,2A3.88,3.88,0,0,0,435,49a4.45,4.45,0,0,0,2.22.54,4.6,4.6,0,0,0,1.46-.22,4.35,4.35,0,0,0,1.21-.63Z"/><path class="cls-2" d="M444.71,35.49a1.32,1.32,0,0,1,.52-1.05,1.82,1.82,0,0,1,1.16-.42,1.75,1.75,0,0,1,1.14.42,1.33,1.33,0,0,1,.51,1.05,1.32,1.32,0,0,1-.51,1.07,1.79,1.79,0,0,1-1.14.41,1.87,1.87,0,0,1-1.16-.41A1.3,1.3,0,0,1,444.71,35.49Zm.18,4.26h2.82V51.48h-2.82Z"/><path class="cls-2" d="M453.74,34.58h2.85V39.8H460v2.07h-3.39v9.61h-2.85V41.87h-2.25V39.8h2.25Z"/><path class="cls-2" d="M464.54,34.58h2.85V39.8h3.39v2.07h-3.39v9.61h-2.85V41.87h-2.25V39.8h2.25Z"/><path class="cls-2" d="M479.33,51.77a7.06,7.06,0,0,1-3.17-.71A5.42,5.42,0,0,1,473.9,49a6.3,6.3,0,0,1-.84-3.36,6.39,6.39,0,0,1,.87-3.4A5.92,5.92,0,0,1,476.27,40a6.85,6.85,0,0,1,3.21-.77,5.5,5.5,0,0,1,2.95.75,5.36,5.36,0,0,1,1.82,1.78l-.18.42.27-2.46h2.58V51.48h-2.79V48.42l.33.68a3.49,3.49,0,0,1-.57.72,6.74,6.74,0,0,1-1.07.9,6,6,0,0,1-3.49,1.05Zm.75-2.19a4.75,4.75,0,0,0,1.89-.36,3.74,3.74,0,0,0,1.39-1,3.93,3.93,0,0,0,.77-1.59v-2.3a3.56,3.56,0,0,0-.84-1.49,4.3,4.3,0,0,0-1.44-1,4.59,4.59,0,0,0-1.83-.35A4.23,4.23,0,0,0,478,42a4,4,0,0,0-1.49,1.41,4,4,0,0,0-.55,2.13,3.88,3.88,0,0,0,.57,2.07A4.07,4.07,0,0,0,478,49,4.15,4.15,0,0,0,480.08,49.58Zm-3.51-16h3.09l2.19,3.8h-1.77Z"/><path class="cls-2" d="M506.3,51.77a6.23,6.23,0,0,1-3.12-.78A5.86,5.86,0,0,1,501,48.78a6.53,6.53,0,0,1-.82-3.31,6.15,6.15,0,0,1,.87-3.34A5.72,5.72,0,0,1,503.36,40a7.28,7.28,0,0,1,3.3-.74,6.74,6.74,0,0,1,2.8.6,5,5,0,0,1,2.09,1.64l-.15.94V29.54h2.79V51.48H511.4V48.56l.33.74a7,7,0,0,1-2.3,1.77A6.83,6.83,0,0,1,506.3,51.77Zm.87-2.24a4.52,4.52,0,0,0,2-.4,4.28,4.28,0,0,0,1.44-1.06,3.87,3.87,0,0,0,.83-1.58V44.25a3.65,3.65,0,0,0-.86-1.5,4.34,4.34,0,0,0-1.47-1,5,5,0,0,0-1.9-.35,4.35,4.35,0,0,0-2.07.51,4,4,0,0,0-1.53,1.42,4.12,4.12,0,0,0,0,4.18A4.23,4.23,0,0,0,505.1,49,4.07,4.07,0,0,0,507.17,49.53Z"/><path class="cls-2" d="M524.81,51.77a7.73,7.73,0,0,1-3.66-.81,6,6,0,0,1-2.37-2.21,6.16,6.16,0,0,1-.84-3.22,5.57,5.57,0,0,1,.94-3.15,7.05,7.05,0,0,1,2.51-2.27,7.23,7.23,0,0,1,3.48-.85A6.16,6.16,0,0,1,529,40.62a7,7,0,0,1,2.22,3.75l-10.26,3.4-.66-1.56,8.37-2.92-.57.4a3.79,3.79,0,0,0-1.2-1.62,3.39,3.39,0,0,0-2.19-.68,4,4,0,0,0-2,.51,3.74,3.74,0,0,0-1.39,1.4,4.15,4.15,0,0,0-.51,2.09,4.24,4.24,0,0,0,.52,2.12A3.69,3.69,0,0,0,522.72,49a4.36,4.36,0,0,0,2.15.53,4.68,4.68,0,0,0,1.57-.28,7.42,7.42,0,0,0,1.46-.74l1.26,2a8.92,8.92,0,0,1-2.09,1A7.57,7.57,0,0,1,524.81,51.77Z"/><path class="cls-2" d="M534.62,29.54h2.82V51.48h-2.82Z"/><path class="cls-2" d="M33.12,85.51V64.36h0L44.52,79.64l-1.23-.26,11.37-15h0V85.51H51.78V70.59L52,72l-8.16,11h-.06L35.46,72l.48-1.27v14.8Z"/><path class="cls-2" d="M65.4,85.79a7.09,7.09,0,0,1-3.17-.71A5.39,5.39,0,0,1,60,83a7.11,7.11,0,0,1,0-6.76,5.87,5.87,0,0,1,2.34-2.19,6.84,6.84,0,0,1,3.21-.76,5.56,5.56,0,0,1,3,.75,5.3,5.3,0,0,1,1.81,1.77l-.18.43.27-2.47H73V85.51H70.2V82.45l.33.68a3.77,3.77,0,0,1-.57.72,7.74,7.74,0,0,1-1.06.89,6.34,6.34,0,0,1-1.52.75A6.06,6.06,0,0,1,65.4,85.79Zm.75-2.18A4.75,4.75,0,0,0,68,83.24a3.86,3.86,0,0,0,1.4-1,3.79,3.79,0,0,0,.76-1.59V78.31a3.5,3.5,0,0,0-.84-1.49,4.19,4.19,0,0,0-1.44-1,4.77,4.77,0,0,0-1.83-.35A4.23,4.23,0,0,0,64,76a3.91,3.91,0,0,0-1.49,1.42A4,4,0,0,0,62,79.52a3.88,3.88,0,0,0,.57,2.07,4.1,4.1,0,0,0,1.53,1.48A4.15,4.15,0,0,0,66.15,83.61Z"/><path class="cls-2" d="M80.34,73.77l.27,3.4-.12-.48a5.17,5.17,0,0,1,1.38-1.81,6.65,6.65,0,0,1,1.92-1.17,5.7,5.7,0,0,1,1.74-.42L85.41,76a4.29,4.29,0,0,0-2.51.5A4.59,4.59,0,0,0,81.22,78a3.87,3.87,0,0,0-.61,2.11v5.36H77.82V73.77Z"/><path class="cls-2" d="M87.48,79.52a5.84,5.84,0,0,1,.88-3.17,6.21,6.21,0,0,1,2.46-2.24,7.63,7.63,0,0,1,3.59-.82,7.34,7.34,0,0,1,3.54.82A6.13,6.13,0,0,1,98,85a7.3,7.3,0,0,1-3.57.84A7.81,7.81,0,0,1,90.82,85a6.14,6.14,0,0,1-2.44-2.18A6,6,0,0,1,87.48,79.52Zm2.82,0a4,4,0,0,0,.54,2.06,4.11,4.11,0,0,0,1.44,1.46,3.89,3.89,0,0,0,2,.54,3.89,3.89,0,0,0,3.49-2,4.25,4.25,0,0,0,0-4.11A4,4,0,0,0,96.39,76a4.09,4.09,0,0,0-4.13,0,4.11,4.11,0,0,0-1.44,1.49A4,4,0,0,0,90.3,79.55Z"/><path class="cls-2" d="M115,84.4a6.14,6.14,0,0,1-2,1,7.62,7.62,0,0,1-2.34.37,7.93,7.93,0,0,1-3.56-.76,5.81,5.81,0,0,1-2.41-2.16,6,6,0,0,1-.87-3.26,5.67,5.67,0,0,1,.93-3.25,6.32,6.32,0,0,1,2.41-2.12,7.07,7.07,0,0,1,3.23-.75,8.44,8.44,0,0,1,2.65.38A6.24,6.24,0,0,1,115.11,75l-1.41,1.7a6.33,6.33,0,0,0-1.31-.69,4.51,4.51,0,0,0-1.75-.33,4,4,0,0,0-2,.53,3.82,3.82,0,0,0-1.44,1.41,3.93,3.93,0,0,0-.52,2,3.83,3.83,0,0,0,.54,2,4,4,0,0,0,1.5,1.45,4.45,4.45,0,0,0,2.22.54,4.55,4.55,0,0,0,2.67-.85Z"/><path class="cls-2" d="M128.7,84.4a6.14,6.14,0,0,1-2,1,7.62,7.62,0,0,1-2.34.37,7.93,7.93,0,0,1-3.56-.76,5.81,5.81,0,0,1-2.41-2.16,6,6,0,0,1-.87-3.26,5.67,5.67,0,0,1,.93-3.25,6.32,6.32,0,0,1,2.41-2.12,7.07,7.07,0,0,1,3.23-.75,8.44,8.44,0,0,1,2.65.38A6.24,6.24,0,0,1,128.79,75l-1.41,1.7a6.33,6.33,0,0,0-1.31-.69,4.51,4.51,0,0,0-1.75-.33,4,4,0,0,0-2,.53,3.82,3.82,0,0,0-1.44,1.41,3.93,3.93,0,0,0-.52,2,3.83,3.83,0,0,0,.54,2,4,4,0,0,0,1.5,1.45,4.45,4.45,0,0,0,2.22.54,4.55,4.55,0,0,0,2.67-.85Z"/><path class="cls-2" d="M131.19,79.52a5.84,5.84,0,0,1,.88-3.17,6.21,6.21,0,0,1,2.46-2.24,7.63,7.63,0,0,1,3.59-.82,7.34,7.34,0,0,1,3.54.82,6.13,6.13,0,0,1,0,10.84,7.3,7.3,0,0,1-3.57.84,7.81,7.81,0,0,1-3.56-.78,6.14,6.14,0,0,1-2.44-2.18A6,6,0,0,1,131.19,79.52Zm2.82,0a4,4,0,0,0,.54,2.06A4.11,4.11,0,0,0,136,83.07a3.89,3.89,0,0,0,2,.54,3.89,3.89,0,0,0,3.49-2,4.25,4.25,0,0,0,0-4.11A4,4,0,0,0,140.1,76,4.09,4.09,0,0,0,136,76a4.11,4.11,0,0,0-1.44,1.49A4,4,0,0,0,134,79.55Z"/><path class="cls-2" d="M151.2,83l-1.31,3c-.43,1-.86,2-1.3,3h-2.31c.42-1,.82-2,1.2-3s.76-2,1.14-3Z"/><path class="cls-2" d="M164,69.52a1.29,1.29,0,0,1,.52-1,1.78,1.78,0,0,1,1.16-.43,1.71,1.71,0,0,1,1.14.43,1.35,1.35,0,0,1,0,2.11,1.79,1.79,0,0,1-1.14.41,1.87,1.87,0,0,1-1.16-.41A1.28,1.28,0,0,1,164,69.52Zm.18,4.25H167V85.51h-2.82Z"/><path class="cls-2" d="M174.39,73.77l.21,2.86-.09-.45a4.43,4.43,0,0,1,1.92-2.08,6.18,6.18,0,0,1,3.15-.78,4.2,4.2,0,0,1,2.86,1,3.32,3.32,0,0,1,1.16,2.54v8.68h-2.82V77.74a2.33,2.33,0,0,0-.59-1.55,2.23,2.23,0,0,0-1.72-.61,3.52,3.52,0,0,0-1.94.57,3.87,3.87,0,0,0-1.38,1.56,5.09,5.09,0,0,0-.49,2.3v5.5h-2.82V73.77Z"/><path class="cls-2" d="M201.9,86a4.1,4.1,0,0,1-2.84-1,3.39,3.39,0,0,1-1.15-2.53V73.77h2.82v7.74a2.48,2.48,0,0,0,.6,1.54,2.19,2.19,0,0,0,1.68.64,3.1,3.1,0,0,0,1.84-.58,4.29,4.29,0,0,0,1.34-1.59,5.1,5.1,0,0,0,.51-2.28V73.77h2.79V85.51h-2.55l-.24-2.89.18.53a4.72,4.72,0,0,1-1.11,1.44,5.35,5.35,0,0,1-1.73,1A6.1,6.1,0,0,1,201.9,86Z"/><path class="cls-2" d="M216.84,73.77l.21,2.86-.09-.45a4.38,4.38,0,0,1,1.92-2.08,6.15,6.15,0,0,1,3.14-.78,4.21,4.21,0,0,1,2.87,1,3.35,3.35,0,0,1,1.16,2.54v8.68h-2.82V77.74a2.33,2.33,0,0,0-.59-1.55,2.25,2.25,0,0,0-1.72-.61,3.52,3.52,0,0,0-1.94.57,3.87,3.87,0,0,0-1.38,1.56,5.09,5.09,0,0,0-.5,2.3v5.5h-2.81V73.77Z"/><path class="cls-2" d="M236.06,85.79a7,7,0,0,1-3.16-.71A5.34,5.34,0,0,1,230.64,83a7.11,7.11,0,0,1,0-6.76A5.74,5.74,0,0,1,233,74.05a6.82,6.82,0,0,1,3.21-.76,5.53,5.53,0,0,1,2.95.75A5.21,5.21,0,0,1,241,75.81l-.17.43.26-2.47h2.58V85.51h-2.79V82.45l.33.68a3.64,3.64,0,0,1-.56.72,7.3,7.3,0,0,1-1.07.89,6.26,6.26,0,0,1-1.51.75A6.12,6.12,0,0,1,236.06,85.79Zm.75-2.18a4.77,4.77,0,0,0,1.9-.37,3.74,3.74,0,0,0,1.39-1,3.68,3.68,0,0,0,.76-1.59V78.31a3.4,3.4,0,0,0-.84-1.49,4.15,4.15,0,0,0-1.43-1,4.81,4.81,0,0,0-1.83-.35,4.21,4.21,0,0,0-2.07.51,3.84,3.84,0,0,0-1.49,1.42,4,4,0,0,0-.55,2.12,3.8,3.8,0,0,0,.57,2.07,4.07,4.07,0,0,0,1.52,1.48A4.18,4.18,0,0,0,236.81,83.61Z"/><path class="cls-2" d="M259,85.51V76.12h-2.16V73.74H259V68.81a5.72,5.72,0,0,1,1.22-3.92,4.61,4.61,0,0,1,3.61-1.36,6.49,6.49,0,0,1,1.38.17,3.94,3.94,0,0,1,1.32.57l-1.17,1.9a1.22,1.22,0,0,0-.57-.35,2.26,2.26,0,0,0-.69-.1,2.09,2.09,0,0,0-1.71.71,3.79,3.79,0,0,0-.6,2.43v4.88h3.93v2.38H261.8v9.39Z"/><path class="cls-2" d="M273.92,85.79a7,7,0,0,1-3.16-.71A5.42,5.42,0,0,1,268.49,83a7.11,7.11,0,0,1,0-6.76,5.87,5.87,0,0,1,2.34-2.19,6.84,6.84,0,0,1,3.21-.76,5.54,5.54,0,0,1,3,.75,5.21,5.21,0,0,1,1.81,1.77l-.18.43.27-2.47h2.58V85.51h-2.79V82.45l.33.68a3.77,3.77,0,0,1-.57.72,7.18,7.18,0,0,1-1.06.89,6.16,6.16,0,0,1-1.52.75A6.06,6.06,0,0,1,273.92,85.79Zm.75-2.18a4.75,4.75,0,0,0,1.89-.37,3.68,3.68,0,0,0,2.16-2.64V78.31a3.5,3.5,0,0,0-.84-1.49,4.19,4.19,0,0,0-1.44-1,4.77,4.77,0,0,0-1.83-.35,4.23,4.23,0,0,0-2.07.51,3.88,3.88,0,0,0-1.48,1.42,4,4,0,0,0-.56,2.12,3.88,3.88,0,0,0,.57,2.07,4.1,4.1,0,0,0,1.53,1.48A4.15,4.15,0,0,0,274.67,83.61Z"/><path class="cls-2" d="M288.89,73.77l.24,2.64-.15-.23a5.27,5.27,0,0,1,2-2.11,5.53,5.53,0,0,1,2.95-.78,5,5,0,0,1,1.83.32,3.58,3.58,0,0,1,1.34.91,2.82,2.82,0,0,1,.67,1.4l-.15.12a5.14,5.14,0,0,1,2-2,5.36,5.36,0,0,1,2.68-.72,4.1,4.1,0,0,1,2.9,1,3.48,3.48,0,0,1,1.12,2.52v8.71h-2.82V77.77a2.71,2.71,0,0,0-.46-1.52,1.8,1.8,0,0,0-1.52-.64,3.28,3.28,0,0,0-1.93.61,4.09,4.09,0,0,0-1.32,1.59,5.25,5.25,0,0,0-.5,2.14v5.56h-2.82V77.77a2.58,2.58,0,0,0-.49-1.52,1.89,1.89,0,0,0-1.55-.64,3.23,3.23,0,0,0-1.92.61,4.23,4.23,0,0,0-1.32,1.6,4.92,4.92,0,0,0-.48,2.16v5.53h-2.82V73.77Z"/><path class="cls-2" d="M310.91,69.52a1.3,1.3,0,0,1,.53-1,1.75,1.75,0,0,1,1.15-.43,1.71,1.71,0,0,1,1.14.43,1.35,1.35,0,0,1,0,2.11,1.79,1.79,0,0,1-1.14.41,1.84,1.84,0,0,1-1.15-.41A1.29,1.29,0,0,1,310.91,69.52Zm.18,4.25h2.82V85.51h-2.82Z"/><path class="cls-2" d="M324.77,91.35a9,9,0,0,1-2.44-.31,8,8,0,0,1-1.92-.85,17.11,17.11,0,0,1-1.67-1.2l1.65-1.81a8.85,8.85,0,0,0,2,1.33,5.29,5.29,0,0,0,2.28.48,5.87,5.87,0,0,0,2.39-.43,3.37,3.37,0,0,0,1.47-1.21,3.42,3.42,0,0,0,.52-1.79l0-3.17.24.51a4.55,4.55,0,0,1-1.95,2,6.57,6.57,0,0,1-3.42.84,6.17,6.17,0,0,1-3.12-.82,6.41,6.41,0,0,1-2.31-2.23,5.86,5.86,0,0,1-.87-3.16,6,6,0,0,1,.9-3.26A6.37,6.37,0,0,1,321,74.1a6.61,6.61,0,0,1,3.22-.81,7.13,7.13,0,0,1,3,.63,4.75,4.75,0,0,1,2,1.64L329,76l.27-2.27h2.58V85.59a5.15,5.15,0,0,1-.85,2.89,6,6,0,0,1-2.46,2.09A8.62,8.62,0,0,1,324.77,91.35Zm-4.29-11.83a3.81,3.81,0,0,0,.59,2.07,4.18,4.18,0,0,0,1.56,1.48,4.33,4.33,0,0,0,2.14.54,5.09,5.09,0,0,0,2-.38,4.12,4.12,0,0,0,1.48-1.07,3.86,3.86,0,0,0,.84-1.5V78.31a3.59,3.59,0,0,0-.9-1.48,4.72,4.72,0,0,0-1.5-1,4.8,4.8,0,0,0-1.92-.37,4.54,4.54,0,0,0-2.14.52,4.16,4.16,0,0,0-1.56,1.44A3.76,3.76,0,0,0,320.48,79.52Z"/><path class="cls-2" d="M336.71,63.56h2.82v22h-2.82Z"/><path class="cls-2" d="M344.18,69.52a1.3,1.3,0,0,1,.53-1,1.75,1.75,0,0,1,1.15-.43,1.71,1.71,0,0,1,1.14.43,1.35,1.35,0,0,1,0,2.11,1.79,1.79,0,0,1-1.14.41,1.84,1.84,0,0,1-1.15-.41A1.29,1.29,0,0,1,344.18,69.52Zm.18,4.25h2.82V85.51h-2.82Z"/><path class="cls-2" d="M357.2,85.79a7,7,0,0,1-3.16-.71A5.42,5.42,0,0,1,351.77,83a7.11,7.11,0,0,1,0-6.76,5.87,5.87,0,0,1,2.34-2.19,6.84,6.84,0,0,1,3.21-.76,5.54,5.54,0,0,1,3,.75,5.21,5.21,0,0,1,1.81,1.77l-.18.43.27-2.47h2.58V85.51H362V82.45l.33.68a3.77,3.77,0,0,1-.57.72,7.18,7.18,0,0,1-1.06.89,6.16,6.16,0,0,1-1.52.75A6.06,6.06,0,0,1,357.2,85.79Zm.75-2.18a4.75,4.75,0,0,0,1.89-.37A3.68,3.68,0,0,0,362,80.6V78.31a3.5,3.5,0,0,0-.84-1.49,4.19,4.19,0,0,0-1.44-1,4.77,4.77,0,0,0-1.83-.35,4.23,4.23,0,0,0-2.07.51,3.88,3.88,0,0,0-1.48,1.42,4,4,0,0,0-.56,2.12,3.88,3.88,0,0,0,.57,2.07,4.1,4.1,0,0,0,1.53,1.48A4.15,4.15,0,0,0,358,83.61Z"/><path class="cls-2" d="M381.65,73.77l.24,2.64-.15-.23a5.24,5.24,0,0,1,2-2.11,5.57,5.57,0,0,1,3-.78,5,5,0,0,1,1.83.32,3.54,3.54,0,0,1,1.33.91,2.83,2.83,0,0,1,.68,1.4l-.15.12a5.07,5.07,0,0,1,2-2,5.34,5.34,0,0,1,2.68-.72,4.07,4.07,0,0,1,2.89,1,3.49,3.49,0,0,1,1.13,2.52v8.71h-2.82V77.77a2.79,2.79,0,0,0-.46-1.52,1.82,1.82,0,0,0-1.52-.64,3.31,3.31,0,0,0-1.94.61A4.09,4.09,0,0,0,391,77.81,5.25,5.25,0,0,0,390.5,80v5.56h-2.82V77.77a2.65,2.65,0,0,0-.49-1.52,1.91,1.91,0,0,0-1.55-.64,3.23,3.23,0,0,0-1.92.61,4.23,4.23,0,0,0-1.32,1.6,4.92,4.92,0,0,0-.48,2.16v5.53H379.1V73.77Z"/><path class="cls-2" d="M402.77,79.52a5.84,5.84,0,0,1,.88-3.17,6.21,6.21,0,0,1,2.46-2.24,7.63,7.63,0,0,1,3.59-.82,7.34,7.34,0,0,1,3.54.82,6.13,6.13,0,0,1,0,10.84,7.3,7.3,0,0,1-3.57.84,7.83,7.83,0,0,1-3.56-.78,6.14,6.14,0,0,1-2.44-2.18A6,6,0,0,1,402.77,79.52Zm2.82,0a4,4,0,0,0,.54,2.06,4.11,4.11,0,0,0,1.44,1.46,3.89,3.89,0,0,0,2,.54,3.89,3.89,0,0,0,3.49-2,4.25,4.25,0,0,0,0-4.11A4,4,0,0,0,411.68,76a3.86,3.86,0,0,0-2.07-.55,3.77,3.77,0,0,0-2.05.57,4.06,4.06,0,0,0-1.45,1.49A4,4,0,0,0,405.59,79.55Z"/><path class="cls-2" d="M425.27,85.79a6.23,6.23,0,0,1-3.12-.78,5.86,5.86,0,0,1-2.21-2.21,6.49,6.49,0,0,1-.82-3.3,6.19,6.19,0,0,1,.87-3.35A5.79,5.79,0,0,1,422.33,74a7.27,7.27,0,0,1,3.3-.73,6.9,6.9,0,0,1,2.8.59,5,5,0,0,1,2.09,1.65l-.15.93V63.56h2.79v22h-2.79V82.59l.33.73a7.12,7.12,0,0,1-2.3,1.78A7,7,0,0,1,425.27,85.79Zm.87-2.24a4.52,4.52,0,0,0,2-.4,4.15,4.15,0,0,0,1.44-1.06,3.83,3.83,0,0,0,.83-1.57V78.28a3.63,3.63,0,0,0-.86-1.51,4.17,4.17,0,0,0-1.47-1,4.84,4.84,0,0,0-1.9-.36,4.35,4.35,0,0,0-2.07.51,4,4,0,0,0-1.53,1.42,4.12,4.12,0,0,0,0,4.18A4.26,4.26,0,0,0,424.07,83,4.06,4.06,0,0,0,426.14,83.55Z"/><path class="cls-2" d="M443.78,85.79a7.73,7.73,0,0,1-3.66-.81,5.89,5.89,0,0,1-2.37-2.21,6.14,6.14,0,0,1-.84-3.22,5.52,5.52,0,0,1,.94-3.14,6.87,6.87,0,0,1,2.51-2.27,7.12,7.12,0,0,1,3.48-.85,6.11,6.11,0,0,1,4.08,1.36,6.93,6.93,0,0,1,2.22,3.74l-10.26,3.4-.66-1.56,8.37-2.92-.57.4a3.91,3.91,0,0,0-1.2-1.62,3.39,3.39,0,0,0-2.19-.68,4,4,0,0,0-2,.51,3.69,3.69,0,0,0-1.39,1.41,4.11,4.11,0,0,0-.51,2.08,4.28,4.28,0,0,0,.52,2.13A3.75,3.75,0,0,0,441.69,83a4.36,4.36,0,0,0,2.15.52,4.44,4.44,0,0,0,1.57-.28,7.42,7.42,0,0,0,1.46-.74l1.26,2a8.9,8.9,0,0,1-2.09,1A7.27,7.27,0,0,1,443.78,85.79Z"/><path class="cls-2" d="M457.1,85.73a7.51,7.51,0,0,1-2.57-.44,5,5,0,0,1-2-1.31l1.17-1.53a6.51,6.51,0,0,0,1.62,1.06,4.13,4.13,0,0,0,2.73.21,1.65,1.65,0,0,0,.82-.48,1.38,1.38,0,0,0-.12-1.89,3.62,3.62,0,0,0-1.09-.58q-.66-.22-1.44-.42A5.37,5.37,0,0,1,453.83,79a2.87,2.87,0,0,1-.81-2.07,3.27,3.27,0,0,1,.49-1.74A3.74,3.74,0,0,1,455,73.87a5.06,5.06,0,0,1,2.4-.53,8.19,8.19,0,0,1,2.31.3,5.73,5.73,0,0,1,1.92,1l-1.11,1.64a3.49,3.49,0,0,0-1.28-.81,4.14,4.14,0,0,0-1.33-.27,3.29,3.29,0,0,0-1,.16,2,2,0,0,0-.75.45,1.05,1.05,0,0,0-.28.76,1.09,1.09,0,0,0,.4,1,3.68,3.68,0,0,0,1.1.58l1.35.45a7,7,0,0,1,1.62.68,3.65,3.65,0,0,1,1.15,1.05,2.68,2.68,0,0,1,.44,1.56,3.75,3.75,0,0,1-.53,1.94,3.63,3.63,0,0,1-1.59,1.42A6.12,6.12,0,0,1,457.1,85.73Z"/><path class="cls-2" d="M467,68.61h2.85v5.22h3.39V75.9h-3.39v9.61H467V75.9h-2.25V73.83H467Z"/><path class="cls-2" d="M481.79,85.79a7.06,7.06,0,0,1-3.17-.71A5.39,5.39,0,0,1,476.36,83a7.11,7.11,0,0,1,0-6.76,5.87,5.87,0,0,1,2.34-2.19,6.84,6.84,0,0,1,3.21-.76,5.5,5.5,0,0,1,2.95.75,5.24,5.24,0,0,1,1.82,1.77l-.18.43.27-2.47h2.58V85.51h-2.79V82.45l.33.68a3.77,3.77,0,0,1-.57.72,7.3,7.3,0,0,1-1.07.89,6,6,0,0,1-3.49,1.05Zm.75-2.18a4.75,4.75,0,0,0,1.89-.37,3.74,3.74,0,0,0,1.39-1,3.81,3.81,0,0,0,.77-1.59V78.31a3.5,3.5,0,0,0-.84-1.49,4.19,4.19,0,0,0-1.44-1,4.77,4.77,0,0,0-1.83-.35,4.23,4.23,0,0,0-2.07.51,3.91,3.91,0,0,0-1.49,1.42,4,4,0,0,0-.55,2.12,3.88,3.88,0,0,0,.57,2.07,4.1,4.1,0,0,0,1.53,1.48A4.15,4.15,0,0,0,482.54,83.61Z"/><path class="cls-2" d="M493.32,82.93a1.62,1.62,0,0,1,1.1-.46,1.53,1.53,0,0,1,1,.46A1.41,1.41,0,0,1,496,84a1.37,1.37,0,0,1-.5,1.1,1.61,1.61,0,0,1-1,.41,1.71,1.71,0,0,1-1.1-.41,1.36,1.36,0,0,1-.49-1.1A1.4,1.4,0,0,1,493.32,82.93Z"/><path class="cls-2" d="M520.67,68.67a15.75,15.75,0,0,0-2.43-.94,9.1,9.1,0,0,0-2.58-.4,4.58,4.58,0,0,0-2.78.77,2.41,2.41,0,0,0-1,2,2.2,2.2,0,0,0,.67,1.63,6,6,0,0,0,1.74,1.15c.71.32,1.47.62,2.27.91a18.23,18.23,0,0,1,2,.8,8.36,8.36,0,0,1,1.78,1.15,4.92,4.92,0,0,1,1.26,1.68,5.69,5.69,0,0,1,.47,2.43,5.41,5.41,0,0,1-.86,3,5.79,5.79,0,0,1-2.44,2.1,8.72,8.72,0,0,1-3.81.76,12.74,12.74,0,0,1-2.72-.29,12.4,12.4,0,0,1-2.41-.81,18.06,18.06,0,0,1-2-1l1.29-2.16a12.6,12.6,0,0,0,1.65.93,10.74,10.74,0,0,0,2,.69,8.16,8.16,0,0,0,2,.26,6.42,6.42,0,0,0,2-.34,3.9,3.9,0,0,0,1.65-1.08,2.83,2.83,0,0,0,.66-2,2.65,2.65,0,0,0-.59-1.73A4.92,4.92,0,0,0,516.9,77a16.86,16.86,0,0,0-2-.9,21.25,21.25,0,0,1-2.09-.79,10.6,10.6,0,0,1-1.92-1.09,5.18,5.18,0,0,1-1.44-1.58,4.33,4.33,0,0,1-.55-2.26,4.85,4.85,0,0,1,.82-2.82,5.59,5.59,0,0,1,2.27-1.9,8,8,0,0,1,3.3-.76,12.9,12.9,0,0,1,3.7.49,14.61,14.61,0,0,1,2.84,1.16Z"/><path class="cls-2" d="M530.18,86a4.12,4.12,0,0,1-2.84-1,3.42,3.42,0,0,1-1.15-2.53V73.77H529v7.74a2.48,2.48,0,0,0,.6,1.54,2.2,2.2,0,0,0,1.68.64,3.1,3.1,0,0,0,1.84-.58,4.29,4.29,0,0,0,1.34-1.59,5,5,0,0,0,.51-2.28V73.77h2.79V85.51h-2.55L535,82.62l.18.53a4.72,4.72,0,0,1-1.11,1.44,5.35,5.35,0,0,1-1.73,1A6.06,6.06,0,0,1,530.18,86Z"/><path class="cls-2" d="M541.49,79.52a5.84,5.84,0,0,1,.88-3.17,6.21,6.21,0,0,1,2.46-2.24,7.63,7.63,0,0,1,3.59-.82,7.34,7.34,0,0,1,3.54.82A6.13,6.13,0,0,1,552,85a7.3,7.3,0,0,1-3.57.84,7.81,7.81,0,0,1-3.56-.78,6.14,6.14,0,0,1-2.44-2.18A6,6,0,0,1,541.49,79.52Zm2.82,0a4,4,0,0,0,.54,2.06,4.11,4.11,0,0,0,1.44,1.46,3.89,3.89,0,0,0,2,.54,3.89,3.89,0,0,0,3.49-2,4.25,4.25,0,0,0,0-4.11A4,4,0,0,0,550.4,76a4.09,4.09,0,0,0-4.13,0,4.11,4.11,0,0,0-1.44,1.49A4,4,0,0,0,544.31,79.55Z"/><path class="cls-2" d="M575.75,85.79a6.32,6.32,0,0,1-2.72-.62,4.81,4.81,0,0,1-2-1.68l.15-.82v8.48H568.4V73.6h2.43l.39,3-.3-.85A7.27,7.27,0,0,1,573.2,74a6.81,6.81,0,0,1,3.09-.69,6.29,6.29,0,0,1,3.13.78,5.66,5.66,0,0,1,2.21,2.21,6.62,6.62,0,0,1,.81,3.33,6.05,6.05,0,0,1-.87,3.27A5.74,5.74,0,0,1,579.18,85,7.62,7.62,0,0,1,575.75,85.79Zm-.54-2.1a4.6,4.6,0,0,0,2.19-.52,4.29,4.29,0,0,0,1.6-1.45,3.66,3.66,0,0,0,.62-2.08,3.9,3.9,0,0,0-.57-2.11,4.07,4.07,0,0,0-1.52-1.45,4.26,4.26,0,0,0-2.11-.52,4.71,4.71,0,0,0-1.95.38A3.86,3.86,0,0,0,572,77a4.06,4.06,0,0,0-.81,1.62v2a3.38,3.38,0,0,0,.72,1.56,4,4,0,0,0,1.42,1.12A4.14,4.14,0,0,0,575.21,83.69Z"/><path class="cls-2" d="M591.38,85.79a7.06,7.06,0,0,1-3.17-.71A5.39,5.39,0,0,1,586,83a7.11,7.11,0,0,1,0-6.76,5.87,5.87,0,0,1,2.34-2.19,6.84,6.84,0,0,1,3.21-.76,5.5,5.5,0,0,1,3,.75,5.24,5.24,0,0,1,1.82,1.77l-.18.43.27-2.47H599V85.51h-2.79V82.45l.33.68a3.77,3.77,0,0,1-.57.72,7.3,7.3,0,0,1-1.07.89,6,6,0,0,1-3.49,1.05Zm.75-2.18a4.75,4.75,0,0,0,1.89-.37,3.74,3.74,0,0,0,1.39-1,3.81,3.81,0,0,0,.77-1.59V78.31a3.5,3.5,0,0,0-.84-1.49,4.19,4.19,0,0,0-1.44-1,4.77,4.77,0,0,0-1.83-.35A4.23,4.23,0,0,0,590,76a3.91,3.91,0,0,0-1.49,1.42,4,4,0,0,0-.55,2.12,3.88,3.88,0,0,0,.57,2.07,4.1,4.1,0,0,0,1.53,1.48A4.15,4.15,0,0,0,592.13,83.61Z"/><path class="cls-2" d="M608.87,85.79a6.23,6.23,0,0,1-3.12-.78,5.86,5.86,0,0,1-2.21-2.21,6.49,6.49,0,0,1-.82-3.3,6.19,6.19,0,0,1,.87-3.35A5.79,5.79,0,0,1,605.93,74a7.27,7.27,0,0,1,3.3-.73,6.9,6.9,0,0,1,2.8.59,5,5,0,0,1,2.09,1.65l-.15.93V63.56h2.79v22H614V82.59l.33.73A7.12,7.12,0,0,1,612,85.1,7,7,0,0,1,608.87,85.79Zm.87-2.24a4.52,4.52,0,0,0,2-.4,4.15,4.15,0,0,0,1.44-1.06,3.83,3.83,0,0,0,.83-1.57V78.28a3.63,3.63,0,0,0-.86-1.51,4.17,4.17,0,0,0-1.47-1,4.84,4.84,0,0,0-1.9-.36,4.35,4.35,0,0,0-2.07.51,4,4,0,0,0-1.53,1.42,4.12,4.12,0,0,0,0,4.18A4.26,4.26,0,0,0,607.67,83,4.06,4.06,0,0,0,609.74,83.55Z"/><path class="cls-2" d="M624.11,73.77l.27,3.4-.12-.48a5.17,5.17,0,0,1,1.38-1.81,6.65,6.65,0,0,1,1.92-1.17,5.7,5.7,0,0,1,1.74-.42L629.18,76a4.29,4.29,0,0,0-2.51.5A4.59,4.59,0,0,0,625,78a3.87,3.87,0,0,0-.61,2.11v5.36h-2.79V73.77Z"/><path class="cls-2" d="M638.12,85.79a7.73,7.73,0,0,1-3.66-.81,5.89,5.89,0,0,1-2.37-2.21,6.14,6.14,0,0,1-.84-3.22,5.52,5.52,0,0,1,.94-3.14,6.87,6.87,0,0,1,2.51-2.27,7.12,7.12,0,0,1,3.48-.85,6.11,6.11,0,0,1,4.08,1.36,6.93,6.93,0,0,1,2.22,3.74l-10.26,3.4-.66-1.56,8.37-2.92-.57.4a3.91,3.91,0,0,0-1.2-1.62,3.39,3.39,0,0,0-2.19-.68,4,4,0,0,0-2,.51,3.69,3.69,0,0,0-1.39,1.41,4.11,4.11,0,0,0-.51,2.08,4.28,4.28,0,0,0,.52,2.13A3.75,3.75,0,0,0,636,83a4.36,4.36,0,0,0,2.15.52,4.44,4.44,0,0,0,1.57-.28,7.42,7.42,0,0,0,1.46-.74l1.26,2a8.9,8.9,0,0,1-2.09,1A7.27,7.27,0,0,1,638.12,85.79Z"/><path class="cls-2" d="M38.19,119.81a7.73,7.73,0,0,1-3.66-.8,5.91,5.91,0,0,1-2.37-2.22,6.1,6.1,0,0,1-.84-3.21,5.56,5.56,0,0,1,1-3.15,6.93,6.93,0,0,1,2.5-2.27,7.12,7.12,0,0,1,3.48-.85,6.11,6.11,0,0,1,4.08,1.36,7,7,0,0,1,2.22,3.74l-10.26,3.41-.66-1.56L42,111.34l-.57.39a3.82,3.82,0,0,0-1.2-1.61,3.33,3.33,0,0,0-2.19-.68,3.94,3.94,0,0,0-2,.51,3.76,3.76,0,0,0-1.4,1.4,4.15,4.15,0,0,0-.51,2.09,4.25,4.25,0,0,0,.53,2.12A3.63,3.63,0,0,0,36.11,117a4.33,4.33,0,0,0,2.14.53,4.51,4.51,0,0,0,1.58-.29,7.3,7.3,0,0,0,1.45-.73l1.26,2a8.84,8.84,0,0,1-2.08,1A7.62,7.62,0,0,1,38.19,119.81Zm-4.5-18.23h3.09l2.19,3.8H37.2Z"/><path class="cls-2" d="M61.47,120a4.11,4.11,0,0,1-2.84-1,3.45,3.45,0,0,1-1.15-2.54v-8.68H60.3v7.74a2.5,2.5,0,0,0,.6,1.55,2.2,2.2,0,0,0,1.68.64,3.17,3.17,0,0,0,1.84-.58,4.29,4.29,0,0,0,1.34-1.59,5,5,0,0,0,.51-2.28v-5.48h2.79v11.74H66.51l-.24-2.89.18.54a4.69,4.69,0,0,1-1.11,1.43,5.37,5.37,0,0,1-1.73,1A6.28,6.28,0,0,1,61.47,120Z"/><path class="cls-2" d="M76.41,107.79l.21,2.87-.09-.46a4.43,4.43,0,0,1,1.92-2.08,6.18,6.18,0,0,1,3.15-.78,4.21,4.21,0,0,1,2.86,1,3.3,3.3,0,0,1,1.16,2.53v8.68H82.8v-7.77a2.31,2.31,0,0,0-.59-1.54,2.2,2.2,0,0,0-1.72-.61,3.59,3.59,0,0,0-1.94.56,3.87,3.87,0,0,0-1.38,1.56,5.12,5.12,0,0,0-.49,2.3v5.5H73.86V107.79Z"/><path class="cls-2" d="M105.12,119.81a7.06,7.06,0,0,1-3.17-.7A5.48,5.48,0,0,1,99.69,117a6.3,6.3,0,0,1-.84-3.36,6.39,6.39,0,0,1,.87-3.4,5.85,5.85,0,0,1,2.34-2.18,6.85,6.85,0,0,1,3.21-.77,5.5,5.5,0,0,1,3,.75,5.24,5.24,0,0,1,1.82,1.77l-.18.43.27-2.47h2.58v11.74h-2.79v-3.06l.33.68a3.49,3.49,0,0,1-.57.72,7.32,7.32,0,0,1-1.07.9,5.87,5.87,0,0,1-3.49,1Zm.75-2.18a4.59,4.59,0,0,0,1.89-.37,3.54,3.54,0,0,0,1.39-1.05,3.83,3.83,0,0,0,.77-1.58v-2.3a3.56,3.56,0,0,0-.84-1.49,4.16,4.16,0,0,0-1.44-1,4.6,4.6,0,0,0-1.83-.36,4.23,4.23,0,0,0-2.07.51,4,4,0,0,0-1.49,1.42,4,4,0,0,0-.55,2.13,3.91,3.91,0,0,0,.57,2.07,4.22,4.22,0,0,0,3.6,2Z"/><path class="cls-2" d="M123.57,125.37a8.68,8.68,0,0,1-2.45-.31,7.61,7.61,0,0,1-1.92-.85,18.71,18.71,0,0,1-1.66-1.19l1.65-1.82a9.26,9.26,0,0,0,2,1.34,5.29,5.29,0,0,0,2.28.48,5.81,5.81,0,0,0,2.38-.44,3.3,3.3,0,0,0,1.47-1.21,3.39,3.39,0,0,0,.53-1.78l0-3.18.24.51a4.57,4.57,0,0,1-1.95,2.06,6.57,6.57,0,0,1-3.42.83,6.17,6.17,0,0,1-3.12-.82,6.47,6.47,0,0,1-2.31-2.22,5.89,5.89,0,0,1-.87-3.16,6,6,0,0,1,.9-3.27,6.43,6.43,0,0,1,2.38-2.22,6.65,6.65,0,0,1,3.23-.81,6.94,6.94,0,0,1,3,.64,4.77,4.77,0,0,1,2,1.63l-.18.48.27-2.27h2.58v11.83a5.18,5.18,0,0,1-.86,2.89,6,6,0,0,1-2.46,2.08A8.58,8.58,0,0,1,123.57,125.37Zm-4.29-11.82a3.83,3.83,0,0,0,.58,2.07,4.24,4.24,0,0,0,1.56,1.47,4.37,4.37,0,0,0,2.15.54,5,5,0,0,0,2-.38,4.25,4.25,0,0,0,1.49-1.06,4,4,0,0,0,.84-1.51v-2.35a3.59,3.59,0,0,0-.9-1.48,4.9,4.9,0,0,0-1.5-1,5,5,0,0,0-1.92-.37,4.47,4.47,0,0,0-2.15.53,4.21,4.21,0,0,0-1.56,1.43A3.79,3.79,0,0,0,119.28,113.55Z"/><path class="cls-2" d="M138,107.79l.27,3.41-.12-.49a5.17,5.17,0,0,1,1.38-1.81,6.61,6.61,0,0,1,1.92-1.16,5.47,5.47,0,0,1,1.74-.43L143.1,110a4.29,4.29,0,0,0-2.51.49,4.76,4.76,0,0,0-1.68,1.59,3.89,3.89,0,0,0-.61,2.11v5.36h-2.79V107.79Z"/><path class="cls-2" d="M146.61,103.54a1.29,1.29,0,0,1,.52-1.05,1.82,1.82,0,0,1,1.16-.42,1.75,1.75,0,0,1,1.14.42,1.31,1.31,0,0,1,.51,1.05,1.28,1.28,0,0,1-.51,1.06,1.74,1.74,0,0,1-1.14.41,1.81,1.81,0,0,1-1.16-.41A1.27,1.27,0,0,1,146.61,103.54Zm.18,4.25h2.82v11.74h-2.82Z"/><path class="cls-2" d="M164.55,118.43a6.55,6.55,0,0,1-2,1,8.33,8.33,0,0,1-5.9-.4,5.81,5.81,0,0,1-2.41-2.16,6,6,0,0,1-.87-3.26,5.64,5.64,0,0,1,.93-3.24,6.27,6.27,0,0,1,2.41-2.13,7.07,7.07,0,0,1,3.23-.75,8.74,8.74,0,0,1,2.65.38,6.43,6.43,0,0,1,2.06,1.09l-1.41,1.71a6.32,6.32,0,0,0-1.31-.7,4.51,4.51,0,0,0-1.75-.33,4,4,0,0,0-2,.53,3.85,3.85,0,0,0-1.44,1.42,4.11,4.11,0,0,0,0,4,4,4,0,0,0,1.5,1.44,4.45,4.45,0,0,0,2.22.54,4.55,4.55,0,0,0,2.67-.85Z"/><path class="cls-2" d="M167,113.55a5.9,5.9,0,0,1,.88-3.18,6.28,6.28,0,0,1,2.46-2.24,7.63,7.63,0,0,1,3.59-.82,7.34,7.34,0,0,1,3.54.82,6,6,0,0,1,3.24,5.42,6,6,0,0,1-.86,3.17,6.17,6.17,0,0,1-2.38,2.26,7.3,7.3,0,0,1-3.57.83,7.93,7.93,0,0,1-3.56-.77,6.09,6.09,0,0,1-2.44-2.19A6,6,0,0,1,167,113.55Zm2.82,0a4,4,0,0,0,.54,2,4,4,0,0,0,1.44,1.46,3.89,3.89,0,0,0,2,.54,3.94,3.94,0,0,0,2.07-.54,3.9,3.9,0,0,0,1.42-1.46,4.14,4.14,0,0,0-1.42-5.58,3.87,3.87,0,0,0-2.07-.56,3.82,3.82,0,0,0-2.06.57,4.19,4.19,0,0,0-1.44,1.49A4,4,0,0,0,169.86,113.58Z"/><path class="cls-2" d="M184.47,97.59h2.82v21.94h-2.82Z"/><path class="cls-2" d="M193.31,102.63h2.86v5.22h3.39v2.07h-3.39v9.61h-2.86v-9.61h-2.25v-2.07h2.25Z"/><path class="cls-2" d="M201.84,113.55a5.9,5.9,0,0,1,.88-3.18,6.28,6.28,0,0,1,2.46-2.24,7.63,7.63,0,0,1,3.59-.82,7.37,7.37,0,0,1,3.54.82,6.19,6.19,0,0,1,2.38,2.24,6.07,6.07,0,0,1,.86,3.18,6,6,0,0,1-.86,3.17,6.24,6.24,0,0,1-2.38,2.26,7.31,7.31,0,0,1-3.58.83,7.92,7.92,0,0,1-3.55-.77,6.18,6.18,0,0,1-2.45-2.19A6,6,0,0,1,201.84,113.55Zm2.81,0a4,4,0,0,0,2,3.51,3.84,3.84,0,0,0,2,.54,3.94,3.94,0,0,0,2.07-.54,3.9,3.9,0,0,0,1.42-1.46,4.14,4.14,0,0,0-1.42-5.58,3.87,3.87,0,0,0-2.07-.56,3.8,3.8,0,0,0-2.06.57,4.19,4.19,0,0,0-1.44,1.49A4,4,0,0,0,204.65,113.58Z"/><path class="cls-2" d="M221.78,107.79l.28,3.41-.12-.49a5,5,0,0,1,1.37-1.81,6.61,6.61,0,0,1,1.92-1.16,5.46,5.46,0,0,1,1.75-.43l-.13,2.67a4.27,4.27,0,0,0-2.5.49,4.76,4.76,0,0,0-1.68,1.59,3.89,3.89,0,0,0-.61,2.11v5.36h-2.79V107.79Z"/><path class="cls-2" d="M235.79,119.81a7.73,7.73,0,0,1-3.66-.8,5.91,5.91,0,0,1-2.37-2.22,6.1,6.1,0,0,1-.84-3.21,5.56,5.56,0,0,1,1-3.15,6.93,6.93,0,0,1,2.5-2.27,7.12,7.12,0,0,1,3.48-.85,6.11,6.11,0,0,1,4.08,1.36,7,7,0,0,1,2.22,3.74l-10.26,3.41-.66-1.56,8.37-2.92-.57.39a3.82,3.82,0,0,0-1.2-1.61,3.33,3.33,0,0,0-2.19-.68,4,4,0,0,0-2,.51,3.76,3.76,0,0,0-1.4,1.4,4.15,4.15,0,0,0-.51,2.09,4.25,4.25,0,0,0,.53,2.12,3.69,3.69,0,0,0,1.47,1.46,4.33,4.33,0,0,0,2.14.53,4.51,4.51,0,0,0,1.58-.29,7.3,7.3,0,0,0,1.45-.73l1.26,2a8.84,8.84,0,0,1-2.08,1A7.62,7.62,0,0,1,235.79,119.81Z"/><path class="cls-2" d="M260.87,119.81a7.73,7.73,0,0,1-3.66-.8,5.91,5.91,0,0,1-2.37-2.22,6.1,6.1,0,0,1-.84-3.21,5.56,5.56,0,0,1,.95-3.15,6.93,6.93,0,0,1,2.5-2.27,7.12,7.12,0,0,1,3.48-.85,6.11,6.11,0,0,1,4.08,1.36,7,7,0,0,1,2.22,3.74L257,115.82l-.66-1.56,8.37-2.92-.57.39a3.82,3.82,0,0,0-1.2-1.61,3.33,3.33,0,0,0-2.19-.68,4,4,0,0,0-2,.51,3.76,3.76,0,0,0-1.4,1.4,4.15,4.15,0,0,0-.51,2.09,4.25,4.25,0,0,0,.53,2.12,3.69,3.69,0,0,0,1.47,1.46,4.33,4.33,0,0,0,2.14.53,4.51,4.51,0,0,0,1.58-.29,7.3,7.3,0,0,0,1.45-.73l1.26,2a8.84,8.84,0,0,1-2.08,1A7.62,7.62,0,0,1,260.87,119.81Z"/><path class="cls-2" d="M283.67,119.76a7.7,7.7,0,0,1-2.56-.44,5,5,0,0,1-2.06-1.32l1.17-1.53a6.24,6.24,0,0,0,1.62,1.06,4,4,0,0,0,1.62.36,4.32,4.32,0,0,0,1.11-.14,1.77,1.77,0,0,0,.83-.49,1.23,1.23,0,0,0,.31-.88,1.21,1.21,0,0,0-.43-1,3.46,3.46,0,0,0-1.1-.58c-.44-.15-.92-.3-1.44-.43A5.36,5.36,0,0,1,280.4,113a2.9,2.9,0,0,1-.81-2.07,3.29,3.29,0,0,1,.5-1.75,3.78,3.78,0,0,1,1.48-1.33,5.07,5.07,0,0,1,2.4-.52,8.19,8.19,0,0,1,2.31.3,5.53,5.53,0,0,1,1.92,1l-1.11,1.65a3.45,3.45,0,0,0-1.27-.81,3.94,3.94,0,0,0-1.34-.27,3,3,0,0,0-1,.16,1.75,1.75,0,0,0-.75.45,1.05,1.05,0,0,0-.29.75,1.09,1.09,0,0,0,.41,1,3.41,3.41,0,0,0,1.09.58l1.35.45a6.59,6.59,0,0,1,1.62.69,3.66,3.66,0,0,1,1.16,1,2.68,2.68,0,0,1,.43,1.56,3.8,3.8,0,0,1-.52,1.95,3.67,3.67,0,0,1-1.59,1.41A6.16,6.16,0,0,1,283.67,119.76Z"/><path class="cls-2" d="M296.36,120a4.09,4.09,0,0,1-2.83-1,3.46,3.46,0,0,1-1.16-2.54v-8.68h2.82v7.74a2.5,2.5,0,0,0,.6,1.55,2.2,2.2,0,0,0,1.68.64,3.2,3.2,0,0,0,1.85-.58,4.26,4.26,0,0,0,1.33-1.59,5,5,0,0,0,.51-2.28v-5.48H304v11.74H301.4l-.24-2.89.18.54a4.69,4.69,0,0,1-1.11,1.43,5.32,5.32,0,0,1-1.72,1A6.34,6.34,0,0,1,296.36,120Z"/><path class="cls-2" d="M313.94,119.81a7,7,0,0,1-3.16-.7,5.51,5.51,0,0,1-2.27-2.09,6.3,6.3,0,0,1-.84-3.36,6.39,6.39,0,0,1,.87-3.4,5.85,5.85,0,0,1,2.34-2.18,6.85,6.85,0,0,1,3.21-.77,5.54,5.54,0,0,1,3,.75,5.21,5.21,0,0,1,1.81,1.77l-.18.43.27-2.47h2.58v11.74h-2.79v-3.06l.33.68a3.49,3.49,0,0,1-.57.72,7.19,7.19,0,0,1-1.06.9,6.16,6.16,0,0,1-1.52.75A6.07,6.07,0,0,1,313.94,119.81Zm.75-2.18a4.59,4.59,0,0,0,1.89-.37,3.57,3.57,0,0,0,1.4-1.05,3.81,3.81,0,0,0,.76-1.58v-2.3a3.56,3.56,0,0,0-.84-1.49,4.16,4.16,0,0,0-1.44-1,4.6,4.6,0,0,0-1.83-.36,4.23,4.23,0,0,0-2.07.51,4,4,0,0,0-1.48,1.42,4,4,0,0,0-.56,2.13,3.91,3.91,0,0,0,.57,2.07,4.22,4.22,0,0,0,3.6,2Z"/><path class="cls-2" d="M338.39,107.79l.24,2.64-.15-.23a5.27,5.27,0,0,1,2-2.11,5.53,5.53,0,0,1,2.95-.78,4.81,4.81,0,0,1,1.83.33,3.56,3.56,0,0,1,1.34.9,2.81,2.81,0,0,1,.67,1.41l-.15.11a5.2,5.2,0,0,1,2-2,5.36,5.36,0,0,1,2.68-.72,4.1,4.1,0,0,1,2.9,1,3.52,3.52,0,0,1,1.12,2.53v8.7H353v-7.74a2.73,2.73,0,0,0-.46-1.52,1.8,1.8,0,0,0-1.52-.63,3.21,3.21,0,0,0-1.93.61,4,4,0,0,0-1.32,1.58,5.29,5.29,0,0,0-.5,2.14v5.56h-2.82v-7.74a2.6,2.6,0,0,0-.49-1.52,1.89,1.89,0,0,0-1.55-.63,3.16,3.16,0,0,0-1.92.61,4.16,4.16,0,0,0-1.32,1.6,4.87,4.87,0,0,0-.48,2.15v5.53h-2.82V107.79Z"/><path class="cls-2" d="M365.78,119.81a7,7,0,0,1-3.16-.7,5.51,5.51,0,0,1-2.27-2.09,6.3,6.3,0,0,1-.84-3.36,6.39,6.39,0,0,1,.87-3.4,5.85,5.85,0,0,1,2.34-2.18,6.85,6.85,0,0,1,3.21-.77,5.54,5.54,0,0,1,3,.75,5.21,5.21,0,0,1,1.81,1.77l-.18.43.27-2.47h2.58v11.74h-2.79v-3.06l.33.68a3.49,3.49,0,0,1-.57.72,7.19,7.19,0,0,1-1.06.9,6.16,6.16,0,0,1-1.52.75A6.07,6.07,0,0,1,365.78,119.81Zm.75-2.18a4.59,4.59,0,0,0,1.89-.37,3.57,3.57,0,0,0,1.4-1.05,3.81,3.81,0,0,0,.76-1.58v-2.3a3.56,3.56,0,0,0-.84-1.49,4.16,4.16,0,0,0-1.44-1,4.6,4.6,0,0,0-1.83-.36,4.23,4.23,0,0,0-2.07.51,4,4,0,0,0-1.48,1.42,4,4,0,0,0-.56,2.13,3.91,3.91,0,0,0,.57,2.07,4.22,4.22,0,0,0,3.6,2Z"/><path class="cls-2" d="M383.27,119.81a6.33,6.33,0,0,1-3.12-.77,5.89,5.89,0,0,1-2.21-2.22,6.57,6.57,0,0,1-.82-3.3,6.21,6.21,0,0,1,.87-3.35,5.77,5.77,0,0,1,2.34-2.12,7.28,7.28,0,0,1,3.3-.74,6.79,6.79,0,0,1,2.81.6,5,5,0,0,1,2.08,1.64l-.15.94V97.59h2.79v21.94h-2.79v-2.92l.33.74a6.92,6.92,0,0,1-2.29,1.77A7,7,0,0,1,383.27,119.81Zm.87-2.24a4.63,4.63,0,0,0,2-.39,4.25,4.25,0,0,0,1.45-1.07,3.75,3.75,0,0,0,.82-1.57V112.3a3.51,3.51,0,0,0-.85-1.5,4.29,4.29,0,0,0-1.47-1,5.08,5.08,0,0,0-1.91-.35,4.35,4.35,0,0,0-2.07.51,4,4,0,0,0-1.53,1.42,3.83,3.83,0,0,0-.57,2.09,3.9,3.9,0,0,0,.57,2.09,4.31,4.31,0,0,0,1.53,1.47A4.06,4.06,0,0,0,384.14,117.57Z"/><path class="cls-2" d="M398.51,107.79l.27,3.41-.12-.49A5.17,5.17,0,0,1,400,108.9a6.61,6.61,0,0,1,1.92-1.16,5.47,5.47,0,0,1,1.74-.43l-.12,2.67a4.24,4.24,0,0,0-2.5.49,4.67,4.67,0,0,0-1.68,1.59,3.82,3.82,0,0,0-.62,2.11v5.36H396V107.79Z"/><path class="cls-2" d="M412.52,119.81a7.73,7.73,0,0,1-3.66-.8,5.91,5.91,0,0,1-2.37-2.22,6.1,6.1,0,0,1-.84-3.21,5.56,5.56,0,0,1,1-3.15,6.93,6.93,0,0,1,2.5-2.27,7.12,7.12,0,0,1,3.48-.85,6.11,6.11,0,0,1,4.08,1.36,7,7,0,0,1,2.22,3.74l-10.26,3.41-.66-1.56,8.37-2.92-.57.39a3.82,3.82,0,0,0-1.2-1.61,3.33,3.33,0,0,0-2.19-.68,4,4,0,0,0-2,.51,3.76,3.76,0,0,0-1.4,1.4,4.15,4.15,0,0,0-.51,2.09,4.25,4.25,0,0,0,.53,2.12,3.63,3.63,0,0,0,1.47,1.46,4.33,4.33,0,0,0,2.14.53,4.51,4.51,0,0,0,1.58-.29,7.3,7.3,0,0,0,1.45-.73l1.26,2a8.84,8.84,0,0,1-2.08,1A7.62,7.62,0,0,1,412.52,119.81Z"/><path class="cls-2" d="M435.8,120a4.11,4.11,0,0,1-2.84-1,3.45,3.45,0,0,1-1.15-2.54v-8.68h2.82v7.74a2.5,2.5,0,0,0,.6,1.55,2.2,2.2,0,0,0,1.68.64,3.17,3.17,0,0,0,1.84-.58,4.29,4.29,0,0,0,1.34-1.59,5,5,0,0,0,.51-2.28v-5.48h2.79v11.74h-2.55l-.24-2.89.18.54a4.69,4.69,0,0,1-1.11,1.43,5.37,5.37,0,0,1-1.73,1A6.28,6.28,0,0,1,435.8,120Z"/><path class="cls-2" d="M450.74,107.79l.21,2.87-.09-.46a4.43,4.43,0,0,1,1.92-2.08,6.18,6.18,0,0,1,3.15-.78,4.21,4.21,0,0,1,2.86,1,3.3,3.3,0,0,1,1.16,2.53v8.68h-2.82v-7.77a2.31,2.31,0,0,0-.59-1.54,2.2,2.2,0,0,0-1.72-.61,3.59,3.59,0,0,0-1.94.56,3.87,3.87,0,0,0-1.38,1.56A5.12,5.12,0,0,0,451,114v5.5h-2.82V107.79Z"/><path class="cls-2" d="M470,119.81a7.06,7.06,0,0,1-3.17-.7,5.48,5.48,0,0,1-2.26-2.09,6.3,6.3,0,0,1-.84-3.36,6.39,6.39,0,0,1,.87-3.4,5.85,5.85,0,0,1,2.34-2.18,6.85,6.85,0,0,1,3.21-.77,5.5,5.5,0,0,1,2.95.75,5.24,5.24,0,0,1,1.82,1.77l-.18.43.27-2.47h2.58v11.74h-2.79v-3.06l.33.68a3.49,3.49,0,0,1-.57.72,7.32,7.32,0,0,1-1.07.9,5.87,5.87,0,0,1-3.49,1Zm.75-2.18a4.59,4.59,0,0,0,1.89-.37,3.54,3.54,0,0,0,1.39-1.05,3.83,3.83,0,0,0,.77-1.58v-2.3a3.56,3.56,0,0,0-.84-1.49,4.16,4.16,0,0,0-1.44-1,4.6,4.6,0,0,0-1.83-.36,4.23,4.23,0,0,0-2.07.51,4,4,0,0,0-1.49,1.42,4,4,0,0,0-.55,2.13,3.91,3.91,0,0,0,.57,2.07,4.22,4.22,0,0,0,3.6,2Z"/><path class="cls-2" d="M502,118.43a6.55,6.55,0,0,1-2,1,8.33,8.33,0,0,1-5.9-.4,5.81,5.81,0,0,1-2.41-2.16,6,6,0,0,1-.87-3.26,5.64,5.64,0,0,1,.93-3.24,6.27,6.27,0,0,1,2.41-2.13,7.07,7.07,0,0,1,3.23-.75,8.74,8.74,0,0,1,2.65.38,6.43,6.43,0,0,1,2.06,1.09l-1.41,1.71a6.32,6.32,0,0,0-1.31-.7,4.51,4.51,0,0,0-1.75-.33,4,4,0,0,0-2,.53,3.85,3.85,0,0,0-1.44,1.42,4.11,4.11,0,0,0,0,4,4,4,0,0,0,1.5,1.44,4.45,4.45,0,0,0,2.22.54,4.55,4.55,0,0,0,2.67-.85Z"/><path class="cls-2" d="M510.74,119.81a7.06,7.06,0,0,1-3.17-.7,5.48,5.48,0,0,1-2.26-2.09,6.3,6.3,0,0,1-.84-3.36,6.39,6.39,0,0,1,.87-3.4,5.85,5.85,0,0,1,2.34-2.18,6.85,6.85,0,0,1,3.21-.77,5.5,5.5,0,0,1,3,.75,5.24,5.24,0,0,1,1.82,1.77l-.18.43.27-2.47h2.58v11.74h-2.79v-3.06l.33.68a3.49,3.49,0,0,1-.57.72,7.32,7.32,0,0,1-1.07.9,5.87,5.87,0,0,1-3.49,1Zm.75-2.18a4.59,4.59,0,0,0,1.89-.37,3.54,3.54,0,0,0,1.39-1.05,3.83,3.83,0,0,0,.77-1.58v-2.3a3.56,3.56,0,0,0-.84-1.49,4.16,4.16,0,0,0-1.44-1,4.6,4.6,0,0,0-1.83-.36,4.23,4.23,0,0,0-2.07.51,4,4,0,0,0-1.49,1.42,4,4,0,0,0-.55,2.13,3.91,3.91,0,0,0,.57,2.07,4.22,4.22,0,0,0,3.6,2Z"/><path class="cls-2" d="M526.67,119.76a7.76,7.76,0,0,1-2.57-.44,4.92,4.92,0,0,1-2.05-1.32l1.17-1.53a6.24,6.24,0,0,0,1.62,1.06,4,4,0,0,0,1.62.36,4.32,4.32,0,0,0,1.11-.14,1.74,1.74,0,0,0,.82-.49,1.24,1.24,0,0,0,.32-.88,1.21,1.21,0,0,0-.44-1,3.41,3.41,0,0,0-1.09-.58c-.44-.15-.92-.3-1.44-.43A5.36,5.36,0,0,1,523.4,113a2.9,2.9,0,0,1-.81-2.07,3.28,3.28,0,0,1,.49-1.75,3.81,3.81,0,0,1,1.49-1.33,5.07,5.07,0,0,1,2.4-.52,8.19,8.19,0,0,1,2.31.3,5.53,5.53,0,0,1,1.92,1l-1.11,1.65a3.49,3.49,0,0,0-1.28-.81,3.89,3.89,0,0,0-1.33-.27,3,3,0,0,0-1,.16,1.75,1.75,0,0,0-.75.45,1,1,0,0,0-.28.75,1.08,1.08,0,0,0,.4,1,3.46,3.46,0,0,0,1.1.58l1.35.45a6.59,6.59,0,0,1,1.62.69,3.62,3.62,0,0,1,1.15,1,2.68,2.68,0,0,1,.44,1.56,3.81,3.81,0,0,1-.53,1.95,3.67,3.67,0,0,1-1.59,1.41A6.11,6.11,0,0,1,526.67,119.76Z"/><path class="cls-2" d="M540.56,119.81a7.06,7.06,0,0,1-3.17-.7,5.48,5.48,0,0,1-2.26-2.09,6.3,6.3,0,0,1-.84-3.36,6.39,6.39,0,0,1,.87-3.4,5.85,5.85,0,0,1,2.34-2.18,6.85,6.85,0,0,1,3.21-.77,5.5,5.5,0,0,1,2.95.75,5.24,5.24,0,0,1,1.82,1.77l-.18.43.27-2.47h2.58v11.74h-2.79v-3.06l.33.68a3.49,3.49,0,0,1-.57.72,7.32,7.32,0,0,1-1.07.9,5.87,5.87,0,0,1-3.49,1Zm.75-2.18a4.59,4.59,0,0,0,1.89-.37,3.54,3.54,0,0,0,1.39-1.05,3.83,3.83,0,0,0,.77-1.58v-2.3a3.56,3.56,0,0,0-.84-1.49,4.16,4.16,0,0,0-1.44-1,4.6,4.6,0,0,0-1.83-.36,4.23,4.23,0,0,0-2.07.51,4,4,0,0,0-1.49,1.42,4,4,0,0,0-.55,2.13,3.91,3.91,0,0,0,.57,2.07,4.22,4.22,0,0,0,3.6,2Z"/><path class="cls-2" d="M553,97.59h2.82v21.94H553Z"/><path class="cls-2" d="M560.45,103.54a1.29,1.29,0,0,1,.52-1.05,1.82,1.82,0,0,1,1.16-.42,1.75,1.75,0,0,1,1.14.42,1.31,1.31,0,0,1,.51,1.05,1.28,1.28,0,0,1-.51,1.06,1.74,1.74,0,0,1-1.14.41,1.81,1.81,0,0,1-1.16-.41A1.27,1.27,0,0,1,560.45,103.54Zm.18,4.25h2.82v11.74h-2.82Z"/><path class="cls-2" d="M570.83,107.79l.21,2.87-.09-.46a4.38,4.38,0,0,1,1.92-2.08,6.18,6.18,0,0,1,3.15-.78,4.21,4.21,0,0,1,2.86,1,3.3,3.3,0,0,1,1.16,2.53v8.68h-2.82v-7.77a2.31,2.31,0,0,0-.59-1.54,2.2,2.2,0,0,0-1.72-.61,3.59,3.59,0,0,0-1.94.56,3.87,3.87,0,0,0-1.38,1.56,5.12,5.12,0,0,0-.49,2.3v5.5h-2.82V107.79Z"/><path class="cls-2" d="M590.9,125.37a8.68,8.68,0,0,1-2.45-.31,7.61,7.61,0,0,1-1.92-.85,18.71,18.71,0,0,1-1.66-1.19l1.65-1.82a9.45,9.45,0,0,0,2,1.34,5.33,5.33,0,0,0,2.29.48,5.81,5.81,0,0,0,2.38-.44,3.3,3.3,0,0,0,1.47-1.21,3.39,3.39,0,0,0,.53-1.78l0-3.18.24.51a4.62,4.62,0,0,1-2,2.06,6.59,6.59,0,0,1-3.42.83A6.17,6.17,0,0,1,587,119a6.39,6.39,0,0,1-2.31-2.22,5.8,5.8,0,0,1-.87-3.16,6,6,0,0,1,.9-3.27,6.43,6.43,0,0,1,2.38-2.22,6.65,6.65,0,0,1,3.23-.81,6.94,6.94,0,0,1,3,.64,4.77,4.77,0,0,1,2,1.63l-.18.48.27-2.27H598v11.83a5.18,5.18,0,0,1-.86,2.89,6,6,0,0,1-2.46,2.08A8.61,8.61,0,0,1,590.9,125.37Zm-4.3-11.82a3.84,3.84,0,0,0,.59,2.07,4.24,4.24,0,0,0,1.56,1.47,4.37,4.37,0,0,0,2.15.54,5,5,0,0,0,2-.38,4.25,4.25,0,0,0,1.49-1.06,4.11,4.11,0,0,0,.84-1.51v-2.35a3.51,3.51,0,0,0-.91-1.48,4.67,4.67,0,0,0-1.5-1,4.93,4.93,0,0,0-1.91-.37,4.47,4.47,0,0,0-2.15.53,4.21,4.21,0,0,0-1.56,1.43A3.79,3.79,0,0,0,586.6,113.55Z"/><path class="cls-2" d="M608,119.81a7,7,0,0,1-3.16-.7A5.42,5.42,0,0,1,602.6,117a6.21,6.21,0,0,1-.84-3.36,6.3,6.3,0,0,1,.87-3.4,5.72,5.72,0,0,1,2.34-2.18,6.82,6.82,0,0,1,3.21-.77,5.53,5.53,0,0,1,3,.75,5.21,5.21,0,0,1,1.81,1.77l-.17.43.26-2.47h2.58v11.74h-2.79v-3.06l.33.68a3.37,3.37,0,0,1-.56.72,7.32,7.32,0,0,1-1.07.9,6.26,6.26,0,0,1-1.51.75A6.13,6.13,0,0,1,608,119.81Zm.75-2.18a4.63,4.63,0,0,0,1.9-.37,3.54,3.54,0,0,0,1.39-1.05,3.69,3.69,0,0,0,.76-1.58v-2.3a3.46,3.46,0,0,0-.84-1.49,4.22,4.22,0,0,0-1.43-1,4.63,4.63,0,0,0-1.83-.36,4.21,4.21,0,0,0-2.07.51,3.91,3.91,0,0,0-1.49,1.42,4,4,0,0,0-.56,2.13,3.83,3.83,0,0,0,.58,2.07,4.12,4.12,0,0,0,1.52,1.47A4.18,4.18,0,0,0,608.77,117.63Z"/><path class="cls-2" d="M619.56,117a1.58,1.58,0,0,1,1.09-.45,1.54,1.54,0,0,1,1,.45,1.4,1.4,0,0,1,.49,1.08,1.34,1.34,0,0,1-.49,1.09,1.63,1.63,0,0,1-1,.41,1.68,1.68,0,0,1-1.09-.41,1.35,1.35,0,0,1-.5-1.09A1.41,1.41,0,0,1,619.56,117Z"/><path class="cls-2" d="M51.9,154.21,35.13,138.13l.84.2L36,153.56H33.12V132.43h.15l16.56,16.13-.66-.14-.06-15.36H52v21.15Z"/><path class="cls-2" d="M56.46,147.57a5.85,5.85,0,0,1,.89-3.17,6.21,6.21,0,0,1,2.46-2.24,7.56,7.56,0,0,1,3.58-.83,7.35,7.35,0,0,1,3.54.83,6,6,0,0,1,2.38,2.24,6.29,6.29,0,0,1,0,6.35A6.15,6.15,0,0,1,66.93,153a7.3,7.3,0,0,1-3.57.84,7.76,7.76,0,0,1-3.55-.78,6.1,6.1,0,0,1-2.45-2.18A6,6,0,0,1,56.46,147.57Zm2.82,0a4,4,0,0,0,.54,2.06,4.11,4.11,0,0,0,1.44,1.46,3.89,3.89,0,0,0,2,.54,3.94,3.94,0,0,0,2.07-.54,4.2,4.2,0,0,0,1.43-5.57,4.14,4.14,0,0,0-1.43-1.48,4.1,4.1,0,0,0-4.12,0,4.11,4.11,0,0,0-1.44,1.49A4,4,0,0,0,59.28,147.6Z"/><path class="cls-2" d="M76.44,141.82l.21,2.86-.09-.45a4.45,4.45,0,0,1,1.92-2.09,6.18,6.18,0,0,1,3.15-.78,4.21,4.21,0,0,1,2.86,1,3.3,3.3,0,0,1,1.16,2.54v8.68H82.83v-7.77a2.33,2.33,0,0,0-.59-1.55,2.2,2.2,0,0,0-1.72-.61,3.52,3.52,0,0,0-1.94.57,3.87,3.87,0,0,0-1.38,1.56,5.08,5.08,0,0,0-.49,2.29v5.51H73.89V141.82Z"/><path class="cls-2" d="M89.4,147.57a5.84,5.84,0,0,1,.88-3.17,6.21,6.21,0,0,1,2.46-2.24,7.63,7.63,0,0,1,3.59-.83,7.35,7.35,0,0,1,3.54.83,6,6,0,0,1,3.24,5.41,6.07,6.07,0,0,1-.86,3.18A6.15,6.15,0,0,1,99.87,153a7.3,7.3,0,0,1-3.57.84,7.81,7.81,0,0,1-3.56-.78,6.14,6.14,0,0,1-2.44-2.18A6,6,0,0,1,89.4,147.57Zm2.82,0a4,4,0,0,0,.54,2.06,4.11,4.11,0,0,0,1.44,1.46,3.89,3.89,0,0,0,2,.54,3.89,3.89,0,0,0,3.49-2,4.25,4.25,0,0,0,0-4.11,4,4,0,0,0-1.42-1.48,4.1,4.1,0,0,0-4.12,0,4.14,4.14,0,0,0-1.45,1.49A4,4,0,0,0,92.22,147.6Z"/><path class="cls-2" d="M110.34,153.78a7.51,7.51,0,0,1-2.57-.44,4.92,4.92,0,0,1-2-1.32l1.17-1.53a6.3,6.3,0,0,0,1.62,1.07,4.11,4.11,0,0,0,1.62.35,4.32,4.32,0,0,0,1.11-.14,1.81,1.81,0,0,0,.82-.48,1.25,1.25,0,0,0,.32-.88,1.23,1.23,0,0,0-.44-1,3.62,3.62,0,0,0-1.09-.58q-.66-.23-1.44-.42a5.47,5.47,0,0,1-2.34-1.34,2.87,2.87,0,0,1-.81-2.07,3.27,3.27,0,0,1,.49-1.74,3.74,3.74,0,0,1,1.49-1.33,5.06,5.06,0,0,1,2.4-.53,8.19,8.19,0,0,1,2.31.3,5.55,5.55,0,0,1,1.92,1l-1.11,1.64a3.49,3.49,0,0,0-1.28-.81,3.89,3.89,0,0,0-1.33-.27,3.29,3.29,0,0,0-1,.16,1.75,1.75,0,0,0-.75.45,1,1,0,0,0-.28.75,1.07,1.07,0,0,0,.4.95,3.46,3.46,0,0,0,1.1.58c.44.16.89.31,1.35.46a7,7,0,0,1,1.62.68,3.53,3.53,0,0,1,1.15,1.05,2.64,2.64,0,0,1,.44,1.56,3.77,3.77,0,0,1-.53,1.94,3.63,3.63,0,0,1-1.59,1.42A6.12,6.12,0,0,1,110.34,153.78Z"/><path class="cls-2" d="M120.24,136.66h2.85v5.21h3.39v2.07h-3.39v9.62h-2.85v-9.62H118v-2.07h2.25Z"/><path class="cls-2" d="M135,153.84a7.06,7.06,0,0,1-3.17-.71,5.46,5.46,0,0,1-2.26-2.08,7.13,7.13,0,0,1,0-6.77A5.92,5.92,0,0,1,132,142.1a6.85,6.85,0,0,1,3.21-.77,5.51,5.51,0,0,1,2.95.76,5.24,5.24,0,0,1,1.82,1.77l-.18.42.27-2.46h2.58v11.74h-2.79v-3.07l.33.68a3.77,3.77,0,0,1-.57.73,7.3,7.3,0,0,1-1.07.89,6,6,0,0,1-3.49,1.05Zm.75-2.18a4.75,4.75,0,0,0,1.89-.37,3.74,3.74,0,0,0,1.39-1,3.87,3.87,0,0,0,.77-1.59v-2.3a3.62,3.62,0,0,0-.84-1.49,4.3,4.3,0,0,0-1.44-1,4.77,4.77,0,0,0-1.83-.35,4.23,4.23,0,0,0-2.07.51,3.91,3.91,0,0,0-1.49,1.42,4,4,0,0,0-.55,2.12,3.88,3.88,0,0,0,.57,2.07,4.1,4.1,0,0,0,1.53,1.48A4.15,4.15,0,0,0,135.78,151.66Z"/><path class="cls-2" d="M150,141.82l.21,2.86-.09-.45a4.45,4.45,0,0,1,1.92-2.09,6.18,6.18,0,0,1,3.15-.78,4.21,4.21,0,0,1,2.86,1,3.3,3.3,0,0,1,1.16,2.54v8.68h-2.82v-7.77a2.33,2.33,0,0,0-.59-1.55,2.2,2.2,0,0,0-1.72-.61,3.52,3.52,0,0,0-1.94.57,3.87,3.87,0,0,0-1.38,1.56,5.08,5.08,0,0,0-.49,2.29v5.51h-2.82V141.82Z"/><path class="cls-2" d="M165.24,136.66h2.85v5.21h3.39v2.07h-3.39v9.62h-2.85v-9.62H163v-2.07h2.25Z"/><path class="cls-2" d="M180.63,153.84A7.73,7.73,0,0,1,177,153a6,6,0,0,1-2.37-2.21,6.16,6.16,0,0,1-.84-3.22,5.57,5.57,0,0,1,.94-3.15,6.93,6.93,0,0,1,2.51-2.26,7.12,7.12,0,0,1,3.48-.86,6.12,6.12,0,0,1,4.08,1.37,6.89,6.89,0,0,1,2.22,3.74l-10.26,3.4-.66-1.56,8.37-2.92-.57.4a3.85,3.85,0,0,0-1.2-1.62,3.39,3.39,0,0,0-2.19-.68,4,4,0,0,0-2,.51,3.69,3.69,0,0,0-1.39,1.41,4.11,4.11,0,0,0-.51,2.08,4.31,4.31,0,0,0,.52,2.13,3.75,3.75,0,0,0,1.47,1.46,4.36,4.36,0,0,0,2.15.52,4.44,4.44,0,0,0,1.57-.28,7.42,7.42,0,0,0,1.46-.74l1.26,2a9.32,9.32,0,0,1-2.09,1A7.27,7.27,0,0,1,180.63,153.84Z"/><path class="cls-2" d="M199.92,131.61h2.82v21.95h-2.82Z"/><path class="cls-2" d="M213.36,153.84a7.73,7.73,0,0,1-3.66-.81,6,6,0,0,1-2.37-2.21,6.16,6.16,0,0,1-.84-3.22,5.57,5.57,0,0,1,.94-3.15,6.93,6.93,0,0,1,2.51-2.26,7.12,7.12,0,0,1,3.48-.86,6.12,6.12,0,0,1,4.08,1.37,6.89,6.89,0,0,1,2.22,3.74l-10.26,3.4-.66-1.56,8.37-2.92-.57.4a3.85,3.85,0,0,0-1.2-1.62,3.39,3.39,0,0,0-2.19-.68,4,4,0,0,0-2,.51,3.69,3.69,0,0,0-1.39,1.41,4.11,4.11,0,0,0-.51,2.08,4.31,4.31,0,0,0,.52,2.13,3.75,3.75,0,0,0,1.47,1.46,4.36,4.36,0,0,0,2.15.52,4.44,4.44,0,0,0,1.57-.28,7.42,7.42,0,0,0,1.46-.74l1.26,2a9.32,9.32,0,0,1-2.09,1A7.27,7.27,0,0,1,213.36,153.84Z"/><path class="cls-2" d="M235.17,141.82l.27,3.4-.12-.48a5.21,5.21,0,0,1,1.38-1.82,6.61,6.61,0,0,1,1.92-1.16,5.76,5.76,0,0,1,1.74-.43l-.12,2.67a4.22,4.22,0,0,0-2.51.5,4.65,4.65,0,0,0-1.68,1.58,3.93,3.93,0,0,0-.61,2.12v5.36h-2.79V141.82Z"/><path class="cls-2" d="M243.74,137.56a1.33,1.33,0,0,1,.53-1.05,1.82,1.82,0,0,1,1.16-.42,1.72,1.72,0,0,1,1.13.42,1.33,1.33,0,0,1,.51,1.05,1.32,1.32,0,0,1-.51,1.07,1.77,1.77,0,0,1-1.13.41,1.87,1.87,0,0,1-1.16-.41A1.31,1.31,0,0,1,243.74,137.56Zm.19,4.26h2.81v11.74h-2.81Z"/><path class="cls-2" d="M255.08,153.78a7.45,7.45,0,0,1-2.56-.44,5,5,0,0,1-2.06-1.32l1.17-1.53a6.3,6.3,0,0,0,1.62,1.07,4.11,4.11,0,0,0,1.62.35,4.32,4.32,0,0,0,1.11-.14,1.84,1.84,0,0,0,.83-.48,1.25,1.25,0,0,0,.31-.88,1.23,1.23,0,0,0-.43-1,3.68,3.68,0,0,0-1.1-.58q-.66-.23-1.44-.42a5.47,5.47,0,0,1-2.34-1.34A2.87,2.87,0,0,1,251,145a3.28,3.28,0,0,1,.5-1.74,3.71,3.71,0,0,1,1.48-1.33,5.06,5.06,0,0,1,2.4-.53,8.19,8.19,0,0,1,2.31.3,5.55,5.55,0,0,1,1.92,1l-1.11,1.64a3.45,3.45,0,0,0-1.27-.81,3.94,3.94,0,0,0-1.34-.27,3.22,3.22,0,0,0-1,.16,1.75,1.75,0,0,0-.75.45,1.05,1.05,0,0,0-.29.75,1.08,1.08,0,0,0,.41.95,3.41,3.41,0,0,0,1.09.58c.44.16.89.31,1.35.46a7,7,0,0,1,1.62.68,3.57,3.57,0,0,1,1.16,1.05,2.64,2.64,0,0,1,.43,1.56,3.76,3.76,0,0,1-.52,1.94,3.63,3.63,0,0,1-1.59,1.42A6.16,6.16,0,0,1,255.08,153.78Z"/><path class="cls-2" d="M262.7,147.57a5.85,5.85,0,0,1,.89-3.17,6.21,6.21,0,0,1,2.46-2.24,7.59,7.59,0,0,1,3.58-.83,7.35,7.35,0,0,1,3.54.83,6.08,6.08,0,0,1,2.39,2.24,6,6,0,0,1,.85,3.17,6.06,6.06,0,0,1-.85,3.18,6.25,6.25,0,0,1-2.39,2.25,7.3,7.3,0,0,1-3.57.84,7.76,7.76,0,0,1-3.55-.78,6.16,6.16,0,0,1-2.45-2.18A6,6,0,0,1,262.7,147.57Zm2.82,0a4,4,0,0,0,.54,2.06,4.11,4.11,0,0,0,1.44,1.46,3.89,3.89,0,0,0,2,.54,3.94,3.94,0,0,0,2.07-.54,4,4,0,0,0,1.43-1.46,4.15,4.15,0,0,0-1.43-5.59,4.1,4.1,0,0,0-4.12,0,4.19,4.19,0,0,0-1.44,1.49A4,4,0,0,0,265.52,147.6Z"/><path class="cls-2" d="M282.65,141.82l.27,3.4-.12-.48a5.21,5.21,0,0,1,1.38-1.82,6.61,6.61,0,0,1,1.92-1.16,5.76,5.76,0,0,1,1.74-.43l-.12,2.67a4.18,4.18,0,0,0-2.5.5,4.65,4.65,0,0,0-1.68,1.58,3.94,3.94,0,0,0-.62,2.12v5.36h-2.79V141.82Z"/><path class="cls-2" d="M294.92,153.78a7.45,7.45,0,0,1-2.56-.44A5,5,0,0,1,290.3,152l1.17-1.53a6.3,6.3,0,0,0,1.62,1.07,4.11,4.11,0,0,0,1.62.35,4.32,4.32,0,0,0,1.11-.14,1.84,1.84,0,0,0,.83-.48,1.25,1.25,0,0,0,.31-.88,1.23,1.23,0,0,0-.43-1,3.68,3.68,0,0,0-1.1-.58q-.66-.23-1.44-.42a5.47,5.47,0,0,1-2.34-1.34,2.87,2.87,0,0,1-.81-2.07,3.28,3.28,0,0,1,.5-1.74,3.71,3.71,0,0,1,1.48-1.33,5.06,5.06,0,0,1,2.4-.53,8.19,8.19,0,0,1,2.31.3,5.55,5.55,0,0,1,1.92,1l-1.11,1.64a3.45,3.45,0,0,0-1.27-.81,3.94,3.94,0,0,0-1.34-.27,3.22,3.22,0,0,0-1,.16,1.75,1.75,0,0,0-.75.45,1.05,1.05,0,0,0-.29.75,1.08,1.08,0,0,0,.41.95,3.41,3.41,0,0,0,1.09.58c.44.16.89.31,1.35.46a7,7,0,0,1,1.62.68,3.57,3.57,0,0,1,1.16,1.05,2.64,2.64,0,0,1,.43,1.56,3.76,3.76,0,0,1-.52,1.94,3.63,3.63,0,0,1-1.59,1.42A6.16,6.16,0,0,1,294.92,153.78Z"/><path class="cls-2" d="M309.41,153.84a7.73,7.73,0,0,1-3.66-.81,6,6,0,0,1-2.37-2.21,6.16,6.16,0,0,1-.84-3.22,5.58,5.58,0,0,1,.95-3.15,6.9,6.9,0,0,1,2.5-2.26,7.12,7.12,0,0,1,3.48-.86,6.12,6.12,0,0,1,4.08,1.37,6.89,6.89,0,0,1,2.22,3.74l-10.26,3.4-.66-1.56,8.37-2.92-.57.4a3.85,3.85,0,0,0-1.2-1.62,3.39,3.39,0,0,0-2.19-.68,4,4,0,0,0-2,.51,3.72,3.72,0,0,0-1.4,1.41,4.11,4.11,0,0,0-.51,2.08,4.31,4.31,0,0,0,.53,2.13,3.75,3.75,0,0,0,1.47,1.46,4.32,4.32,0,0,0,2.14.52,4.5,4.5,0,0,0,1.58-.28,7.34,7.34,0,0,0,1.45-.74l1.26,2a9.24,9.24,0,0,1-2.08,1A7.33,7.33,0,0,1,309.41,153.84Z"/><path class="cls-2" d="M328.7,131.61h2.82v21.95H328.7Z"/><path class="cls-2" d="M336.17,137.56a1.33,1.33,0,0,1,.53-1.05,1.79,1.79,0,0,1,1.15-.42,1.75,1.75,0,0,1,1.14.42,1.33,1.33,0,0,1,.51,1.05,1.32,1.32,0,0,1-.51,1.07,1.79,1.79,0,0,1-1.14.41,1.84,1.84,0,0,1-1.15-.41A1.31,1.31,0,0,1,336.17,137.56Zm.18,4.26h2.82v11.74h-2.82Z"/><path class="cls-2" d="M346.55,141.82l.24,2.63-.15-.22a5.29,5.29,0,0,1,2-2.12,5.53,5.53,0,0,1,2.95-.78,4.81,4.81,0,0,1,1.83.33,3.58,3.58,0,0,1,1.34.91,2.78,2.78,0,0,1,.67,1.4l-.15.11a5.18,5.18,0,0,1,2-2,5.37,5.37,0,0,1,2.68-.73,4.1,4.1,0,0,1,2.9,1,3.48,3.48,0,0,1,1.12,2.52v8.71h-2.82v-7.75a2.68,2.68,0,0,0-.46-1.51,1.8,1.8,0,0,0-1.52-.64,3.21,3.21,0,0,0-1.93.61,4.09,4.09,0,0,0-1.32,1.59,5.22,5.22,0,0,0-.5,2.14v5.56h-2.82v-7.75a2.55,2.55,0,0,0-.49-1.51,1.89,1.89,0,0,0-1.55-.64,3.16,3.16,0,0,0-1.92.61,4.23,4.23,0,0,0-1.32,1.6,4.88,4.88,0,0,0-.48,2.16v5.53H344V141.82Z"/><path class="cls-2" d="M368.57,137.56a1.33,1.33,0,0,1,.53-1.05,1.79,1.79,0,0,1,1.15-.42,1.75,1.75,0,0,1,1.14.42,1.33,1.33,0,0,1,.51,1.05,1.32,1.32,0,0,1-.51,1.07,1.79,1.79,0,0,1-1.14.41,1.84,1.84,0,0,1-1.15-.41A1.31,1.31,0,0,1,368.57,137.56Zm.18,4.26h2.82v11.74h-2.82Z"/><path class="cls-2" d="M377.6,136.66h2.85v5.21h3.39v2.07h-3.39v9.62H377.6v-9.62h-2.25v-2.07h2.25Z"/><path class="cls-2" d="M392.39,153.84a7,7,0,0,1-3.16-.71,5.43,5.43,0,0,1-2.27-2.08,7.13,7.13,0,0,1,0-6.77,5.92,5.92,0,0,1,2.34-2.18,6.85,6.85,0,0,1,3.21-.77,5.54,5.54,0,0,1,3,.76,5.21,5.21,0,0,1,1.81,1.77l-.18.42.27-2.46H400v11.74h-2.79v-3.07l.33.68a3.77,3.77,0,0,1-.57.73,7.74,7.74,0,0,1-1.06.89,6.34,6.34,0,0,1-1.52.75A6.06,6.06,0,0,1,392.39,153.84Zm.75-2.18a4.75,4.75,0,0,0,1.89-.37,3.78,3.78,0,0,0,1.4-1,3.85,3.85,0,0,0,.76-1.59v-2.3a3.62,3.62,0,0,0-.84-1.49,4.3,4.3,0,0,0-1.44-1,4.77,4.77,0,0,0-1.83-.35A4.23,4.23,0,0,0,391,144a3.87,3.87,0,0,0-2,3.54,3.88,3.88,0,0,0,.57,2.07,4.1,4.1,0,0,0,1.53,1.48A4.15,4.15,0,0,0,393.14,151.66Z"/><path class="cls-2" d="M406,136.66h2.85v5.21h3.39v2.07h-3.39v9.62H406v-9.62h-2.25v-2.07H406Z"/><path class="cls-2" d="M421.4,153.84a7.73,7.73,0,0,1-3.66-.81,6,6,0,0,1-2.37-2.21,6.16,6.16,0,0,1-.84-3.22,5.57,5.57,0,0,1,.94-3.15,6.93,6.93,0,0,1,2.51-2.26,7.12,7.12,0,0,1,3.48-.86,6.12,6.12,0,0,1,4.08,1.37,6.89,6.89,0,0,1,2.22,3.74l-10.26,3.4-.66-1.56,8.37-2.92-.57.4a3.85,3.85,0,0,0-1.2-1.62,3.39,3.39,0,0,0-2.19-.68,4,4,0,0,0-2,.51,3.69,3.69,0,0,0-1.39,1.41,4.11,4.11,0,0,0-.51,2.08,4.31,4.31,0,0,0,.52,2.13,3.75,3.75,0,0,0,1.47,1.46,4.36,4.36,0,0,0,2.15.52,4.44,4.44,0,0,0,1.57-.28,7.42,7.42,0,0,0,1.46-.74l1.26,2a9.32,9.32,0,0,1-2.09,1A7.27,7.27,0,0,1,421.4,153.84Z"/><path class="cls-2" d="M433.79,151.06l-1.31,3-1.3,3h-2.31c.42-1,.82-2,1.2-3s.76-2,1.14-3Z"/><path class="cls-2" d="M446.78,131.61h2.82v21.95h-2.82Z"/><path class="cls-2" d="M459.62,153.84a7.06,7.06,0,0,1-3.17-.71,5.46,5.46,0,0,1-2.26-2.08,7.13,7.13,0,0,1,0-6.77,5.92,5.92,0,0,1,2.34-2.18,6.85,6.85,0,0,1,3.21-.77,5.51,5.51,0,0,1,3,.76,5.24,5.24,0,0,1,1.82,1.77l-.18.42.27-2.46h2.58v11.74h-2.79v-3.07l.33.68a3.77,3.77,0,0,1-.57.73,7.3,7.3,0,0,1-1.07.89,6,6,0,0,1-3.49,1.05Zm.75-2.18a4.75,4.75,0,0,0,1.89-.37,3.74,3.74,0,0,0,1.39-1,3.87,3.87,0,0,0,.77-1.59v-2.3a3.62,3.62,0,0,0-.84-1.49,4.3,4.3,0,0,0-1.44-1,4.77,4.77,0,0,0-1.83-.35,4.23,4.23,0,0,0-2.07.51,3.91,3.91,0,0,0-1.49,1.42,4,4,0,0,0-.55,2.12,3.88,3.88,0,0,0,.57,2.07,4.1,4.1,0,0,0,1.53,1.48A4.15,4.15,0,0,0,460.37,151.66Z"/><path class="cls-2" d="M485,153.78a7.51,7.51,0,0,1-2.57-.44,4.92,4.92,0,0,1-2-1.32l1.17-1.53a6.3,6.3,0,0,0,1.62,1.07,4.11,4.11,0,0,0,1.62.35,4.32,4.32,0,0,0,1.11-.14,1.81,1.81,0,0,0,.82-.48,1.25,1.25,0,0,0,.32-.88,1.23,1.23,0,0,0-.44-1,3.62,3.62,0,0,0-1.09-.58q-.66-.23-1.44-.42a5.47,5.47,0,0,1-2.34-1.34A2.87,2.87,0,0,1,481,145a3.27,3.27,0,0,1,.49-1.74,3.74,3.74,0,0,1,1.49-1.33,5.06,5.06,0,0,1,2.4-.53,8.19,8.19,0,0,1,2.31.3,5.55,5.55,0,0,1,1.92,1l-1.11,1.64a3.49,3.49,0,0,0-1.28-.81,3.89,3.89,0,0,0-1.33-.27,3.29,3.29,0,0,0-1,.16,1.75,1.75,0,0,0-.75.45,1,1,0,0,0-.28.75,1.07,1.07,0,0,0,.4.95,3.46,3.46,0,0,0,1.1.58c.44.16.89.31,1.35.46a7,7,0,0,1,1.62.68,3.53,3.53,0,0,1,1.15,1.05,2.64,2.64,0,0,1,.44,1.56,3.77,3.77,0,0,1-.53,1.94,3.63,3.63,0,0,1-1.59,1.42A6.12,6.12,0,0,1,485,153.78Z"/><path class="cls-2" d="M497.72,154a4.12,4.12,0,0,1-2.84-1,3.43,3.43,0,0,1-1.15-2.54v-8.67h2.82v7.74a2.48,2.48,0,0,0,.6,1.54,2.2,2.2,0,0,0,1.68.64,3.1,3.1,0,0,0,1.84-.58,4.29,4.29,0,0,0,1.34-1.59,5,5,0,0,0,.51-2.28v-5.47h2.79v11.74h-2.55l-.24-2.9.18.54a4.57,4.57,0,0,1-1.11,1.43,5.19,5.19,0,0,1-1.73,1A6.06,6.06,0,0,1,497.72,154Z"/><path class="cls-2" d="M515.3,153.84a7.06,7.06,0,0,1-3.17-.71,5.46,5.46,0,0,1-2.26-2.08,7.13,7.13,0,0,1,0-6.77,5.92,5.92,0,0,1,2.34-2.18,6.85,6.85,0,0,1,3.21-.77,5.51,5.51,0,0,1,2.95.76,5.24,5.24,0,0,1,1.82,1.77l-.18.42.27-2.46h2.58v11.74H520.1v-3.07l.33.68a3.77,3.77,0,0,1-.57.73,7.3,7.3,0,0,1-1.07.89,6,6,0,0,1-3.49,1.05Zm.75-2.18a4.75,4.75,0,0,0,1.89-.37,3.74,3.74,0,0,0,1.39-1,3.87,3.87,0,0,0,.77-1.59v-2.3a3.62,3.62,0,0,0-.84-1.49,4.3,4.3,0,0,0-1.44-1,4.77,4.77,0,0,0-1.83-.35,4.23,4.23,0,0,0-2.07.51,3.91,3.91,0,0,0-1.49,1.42,4,4,0,0,0-.55,2.12,3.88,3.88,0,0,0,.57,2.07,4.1,4.1,0,0,0,1.53,1.48A4.15,4.15,0,0,0,516.05,151.66Z"/><path class="cls-2" d="M538.25,153.56v-9.39h-2.16v-2.38h2.16v-4.94a5.69,5.69,0,0,1,1.21-3.91,4.63,4.63,0,0,1,3.62-1.36,6.49,6.49,0,0,1,1.38.17,3.58,3.58,0,0,1,1.32.57l-1.18,1.9a1.29,1.29,0,0,0-.56-.36,2.68,2.68,0,0,0-.69-.1,2.11,2.11,0,0,0-1.71.71,3.78,3.78,0,0,0-.6,2.44v4.88H545v2.38H541v9.39Z"/><path class="cls-2" d="M553.15,153.84a7,7,0,0,1-3.16-.71,5.4,5.4,0,0,1-2.26-2.08,7.13,7.13,0,0,1,0-6.77,5.79,5.79,0,0,1,2.34-2.18,6.82,6.82,0,0,1,3.21-.77,5.53,5.53,0,0,1,3,.76,5.21,5.21,0,0,1,1.81,1.77l-.17.42.26-2.46h2.58v11.74H558v-3.07l.33.68a3.64,3.64,0,0,1-.56.73,7.3,7.3,0,0,1-1.07.89,6.26,6.26,0,0,1-1.51.75A6.12,6.12,0,0,1,553.15,153.84Zm.75-2.18a4.84,4.84,0,0,0,1.9-.37,3.7,3.7,0,0,0,2.15-2.64v-2.3a3.52,3.52,0,0,0-.84-1.49,4.36,4.36,0,0,0-1.43-1,4.81,4.81,0,0,0-1.83-.35,4.27,4.27,0,0,0-2.08.51,3.88,3.88,0,0,0-1.48,1.42,4,4,0,0,0-.56,2.12,3.8,3.8,0,0,0,.58,2.07,4.07,4.07,0,0,0,1.52,1.48A4.18,4.18,0,0,0,553.9,151.66Z"/><path class="cls-2" d="M568.12,141.82l.24,2.63-.15-.22a5.29,5.29,0,0,1,2-2.12,5.53,5.53,0,0,1,3-.78,4.81,4.81,0,0,1,1.83.33,3.58,3.58,0,0,1,1.34.91A2.78,2.78,0,0,1,577,144l-.15.11a5.18,5.18,0,0,1,2-2,5.37,5.37,0,0,1,2.68-.73,4.1,4.1,0,0,1,2.9,1,3.48,3.48,0,0,1,1.12,2.52v8.71H582.7v-7.75a2.68,2.68,0,0,0-.46-1.51,1.8,1.8,0,0,0-1.52-.64,3.21,3.21,0,0,0-1.93.61,4.09,4.09,0,0,0-1.32,1.59A5.22,5.22,0,0,0,577,148v5.56h-2.82v-7.75a2.55,2.55,0,0,0-.49-1.51,1.89,1.89,0,0,0-1.55-.64,3.16,3.16,0,0,0-1.92.61,4.23,4.23,0,0,0-1.32,1.6,4.88,4.88,0,0,0-.48,2.16v5.53h-2.82V141.82Z"/><path class="cls-2" d="M590.14,137.56a1.33,1.33,0,0,1,.53-1.05,1.79,1.79,0,0,1,1.15-.42,1.75,1.75,0,0,1,1.14.42,1.33,1.33,0,0,1,.51,1.05,1.32,1.32,0,0,1-.51,1.07,1.79,1.79,0,0,1-1.14.41,1.84,1.84,0,0,1-1.15-.41A1.31,1.31,0,0,1,590.14,137.56Zm.18,4.26h2.82v11.74h-2.82Z"/><path class="cls-2" d="M604,159.4a8.59,8.59,0,0,1-2.44-.32,7.27,7.27,0,0,1-1.92-.85A17,17,0,0,1,598,157l1.65-1.81a9.2,9.2,0,0,0,2,1.33,5.29,5.29,0,0,0,2.28.48,5.7,5.7,0,0,0,2.39-.44,3.28,3.28,0,0,0,1.47-1.2,3.42,3.42,0,0,0,.52-1.79l0-3.17.24.51a4.6,4.6,0,0,1-1.95,2.05,6.57,6.57,0,0,1-3.42.84,6.27,6.27,0,0,1-3.12-.82,6.41,6.41,0,0,1-2.31-2.23,6.26,6.26,0,0,1,0-6.42,6.4,6.4,0,0,1,2.39-2.23,6.61,6.61,0,0,1,3.22-.81,7.14,7.14,0,0,1,3,.64,4.81,4.81,0,0,1,2,1.63l-.18.48.27-2.26h2.58v11.82a5.15,5.15,0,0,1-.85,2.89,6,6,0,0,1-2.46,2.09A8.62,8.62,0,0,1,604,159.4Zm-4.29-11.83a3.81,3.81,0,0,0,.59,2.07,4.18,4.18,0,0,0,1.56,1.48,4.33,4.33,0,0,0,2.14.54,4.92,4.92,0,0,0,2-.39,4.09,4.09,0,0,0,1.48-1.06,3.86,3.86,0,0,0,.84-1.5v-2.36a3.55,3.55,0,0,0-.9-1.47,4.56,4.56,0,0,0-1.5-1,4.8,4.8,0,0,0-1.92-.37,4.43,4.43,0,0,0-2.14.52,4.21,4.21,0,0,0-1.56,1.43A3.82,3.82,0,0,0,599.71,147.57Z"/><path class="cls-2" d="M615.94,131.61h2.82v21.95h-2.82Z"/><path class="cls-2" d="M623.41,137.56a1.33,1.33,0,0,1,.53-1.05,1.79,1.79,0,0,1,1.15-.42,1.75,1.75,0,0,1,1.14.42,1.33,1.33,0,0,1,.51,1.05,1.32,1.32,0,0,1-.51,1.07,1.79,1.79,0,0,1-1.14.41,1.84,1.84,0,0,1-1.15-.41A1.31,1.31,0,0,1,623.41,137.56Zm.18,4.26h2.82v11.74h-2.82Z"/><path class="cls-2" d="M636.43,153.84a7,7,0,0,1-3.16-.71,5.49,5.49,0,0,1-2.27-2.08,7.13,7.13,0,0,1,0-6.77,5.92,5.92,0,0,1,2.34-2.18,6.85,6.85,0,0,1,3.21-.77,5.54,5.54,0,0,1,3,.76,5.21,5.21,0,0,1,1.81,1.77l-.18.42.27-2.46H644v11.74h-2.79v-3.07l.33.68a3.77,3.77,0,0,1-.57.73,7.18,7.18,0,0,1-1.06.89,6.16,6.16,0,0,1-1.52.75A6.06,6.06,0,0,1,636.43,153.84Zm.75-2.18a4.75,4.75,0,0,0,1.89-.37,3.78,3.78,0,0,0,1.4-1,3.85,3.85,0,0,0,.76-1.59v-2.3a3.62,3.62,0,0,0-.84-1.49,4.3,4.3,0,0,0-1.44-1,4.77,4.77,0,0,0-1.83-.35,4.23,4.23,0,0,0-2.07.51,3.88,3.88,0,0,0-1.48,1.42,4,4,0,0,0-.56,2.12,3.88,3.88,0,0,0,.57,2.07,4.1,4.1,0,0,0,1.53,1.48A4.15,4.15,0,0,0,637.18,151.66Z"/><path class="cls-2" d="M35.91,187.81a7.7,7.7,0,0,1-2.56-.44,5.16,5.16,0,0,1-2.06-1.32l1.17-1.53a6.51,6.51,0,0,0,1.62,1.06,4.13,4.13,0,0,0,2.73.21,1.68,1.68,0,0,0,.83-.48,1.25,1.25,0,0,0,.31-.88,1.21,1.21,0,0,0-.43-1,3.69,3.69,0,0,0-1.1-.59q-.66-.22-1.44-.42a5.46,5.46,0,0,1-2.34-1.33,2.9,2.9,0,0,1-.81-2.07,3.29,3.29,0,0,1,.5-1.75,3.71,3.71,0,0,1,1.48-1.33,5.07,5.07,0,0,1,2.4-.52,8.2,8.2,0,0,1,2.31.29,5.73,5.73,0,0,1,1.92,1l-1.11,1.64a3.56,3.56,0,0,0-1.27-.8,4,4,0,0,0-1.34-.27,3.18,3.18,0,0,0-1,.15,1.81,1.81,0,0,0-.75.46,1,1,0,0,0-.29.75,1.1,1.1,0,0,0,.41.95,3.62,3.62,0,0,0,1.09.58l1.35.45a7,7,0,0,1,1.62.68,3.81,3.81,0,0,1,1.16,1.05,2.68,2.68,0,0,1,.43,1.56,3.83,3.83,0,0,1-.52,1.94,3.63,3.63,0,0,1-1.59,1.42A6.16,6.16,0,0,1,35.91,187.81Z"/><path class="cls-2" d="M49.8,187.86a6.89,6.89,0,0,1-3.16-.71,5.42,5.42,0,0,1-2.27-2.08,7.11,7.11,0,0,1,0-6.76,5.87,5.87,0,0,1,2.34-2.19,6.84,6.84,0,0,1,3.21-.76,5.54,5.54,0,0,1,3,.75,5.21,5.21,0,0,1,1.81,1.77l-.18.43.27-2.47h2.58v11.74H54.6v-3.06l.33.68a3.49,3.49,0,0,1-.57.72,7.18,7.18,0,0,1-1.06.89,5.67,5.67,0,0,1-1.52.75A6.06,6.06,0,0,1,49.8,187.86Zm.75-2.18a4.59,4.59,0,0,0,1.89-.37,3.57,3.57,0,0,0,1.4-1.05,3.79,3.79,0,0,0,.76-1.59v-2.29a3.5,3.5,0,0,0-.84-1.49,4,4,0,0,0-1.44-1,4.6,4.6,0,0,0-1.83-.36,4.23,4.23,0,0,0-2.07.51,4,4,0,0,0-1.48,1.42,4.18,4.18,0,0,0,0,4.2,4.22,4.22,0,0,0,3.6,2Z"/><path class="cls-2" d="M72.33,186.47a6.14,6.14,0,0,1-2,1,7.62,7.62,0,0,1-2.34.37,7.86,7.86,0,0,1-3.55-.76A5.78,5.78,0,0,1,62,184.94a6,6,0,0,1-.87-3.26,5.61,5.61,0,0,1,.93-3.24,6.27,6.27,0,0,1,2.41-2.13,7.1,7.1,0,0,1,3.23-.75,8.74,8.74,0,0,1,2.65.38A6.43,6.43,0,0,1,72.42,177L71,178.73A6.85,6.85,0,0,0,69.7,178a4.51,4.51,0,0,0-1.75-.33,4,4,0,0,0-2,.53,3.85,3.85,0,0,0-1.45,1.41,4,4,0,0,0-.52,2,3.83,3.83,0,0,0,.54,2,4,4,0,0,0,1.5,1.45,4.45,4.45,0,0,0,2.22.54,4.49,4.49,0,0,0,2.67-.85Z"/><path class="cls-2" d="M78.42,175.84l.27,3.4-.12-.48A5.17,5.17,0,0,1,80,177a6.88,6.88,0,0,1,1.92-1.17,5.7,5.7,0,0,1,1.74-.42L83.49,178a4.29,4.29,0,0,0-2.51.5,4.76,4.76,0,0,0-1.68,1.59,3.87,3.87,0,0,0-.61,2.11v5.36H75.9V175.84Z"/><path class="cls-2" d="M87,171.59a1.29,1.29,0,0,1,.52-1.05,1.83,1.83,0,0,1,1.16-.43,1.76,1.76,0,0,1,1.14.43,1.35,1.35,0,0,1,0,2.11,1.74,1.74,0,0,1-1.14.41,1.81,1.81,0,0,1-1.16-.41A1.28,1.28,0,0,1,87,171.59Zm.18,4.25H90v11.74H87.18Z"/><path class="cls-2" d="M95.88,187.58v-9.39H93.72v-2.38h2.16v-4.93A5.67,5.67,0,0,1,97.09,167a4.6,4.6,0,0,1,3.62-1.36,5.9,5.9,0,0,1,1.38.17,3.74,3.74,0,0,1,1.32.56l-1.17,1.9a1.22,1.22,0,0,0-.57-.35,2.26,2.26,0,0,0-.69-.1,2.09,2.09,0,0,0-1.71.71,3.8,3.8,0,0,0-.6,2.44v4.87h3.57v2.38H98.67v9.39Zm8.55-16a1.32,1.32,0,0,1,.52-1.08,1.79,1.79,0,0,1,1.13-.43,1.69,1.69,0,0,1,1.15.44,1.39,1.39,0,0,1,.5,1.07,1.32,1.32,0,0,1-.5,1.06,1.76,1.76,0,0,1-1.15.41,1.78,1.78,0,0,1-1.13-.42A1.32,1.32,0,0,1,104.43,171.62Zm.18,4.22h2.82v11.74h-2.82Z"/><path class="cls-2" d="M122.34,186.47a6.14,6.14,0,0,1-2,1,7.62,7.62,0,0,1-2.34.37,7.93,7.93,0,0,1-3.56-.76,5.81,5.81,0,0,1-2.41-2.16,6,6,0,0,1-.87-3.26,5.61,5.61,0,0,1,.93-3.24,6.27,6.27,0,0,1,2.41-2.13,7.07,7.07,0,0,1,3.23-.75,8.74,8.74,0,0,1,2.65.38,6.43,6.43,0,0,1,2.06,1.09l-1.41,1.7a6.85,6.85,0,0,0-1.31-.69,4.51,4.51,0,0,0-1.75-.33,4,4,0,0,0-2,.53,3.9,3.9,0,0,0-1.44,1.41,4,4,0,0,0-.52,2,3.83,3.83,0,0,0,.54,2,4,4,0,0,0,1.5,1.45,4.45,4.45,0,0,0,2.22.54,4.55,4.55,0,0,0,2.67-.85Z"/><path class="cls-2" d="M131.1,187.86a6.93,6.93,0,0,1-3.17-.71,5.39,5.39,0,0,1-2.26-2.08,7.11,7.11,0,0,1,0-6.76,5.87,5.87,0,0,1,2.34-2.19,6.84,6.84,0,0,1,3.21-.76,5.5,5.5,0,0,1,2.95.75,5.24,5.24,0,0,1,1.82,1.77l-.18.43.27-2.47h2.58v11.74H135.9v-3.06l.33.68a3.49,3.49,0,0,1-.57.72,7.3,7.3,0,0,1-1.07.89,5.47,5.47,0,0,1-1.51.75A6.06,6.06,0,0,1,131.1,187.86Zm.75-2.18a4.59,4.59,0,0,0,1.89-.37,3.54,3.54,0,0,0,1.39-1.05,3.81,3.81,0,0,0,.77-1.59v-2.29a3.5,3.5,0,0,0-.84-1.49,4,4,0,0,0-1.44-1,4.6,4.6,0,0,0-1.83-.36,4.23,4.23,0,0,0-2.07.51,3.87,3.87,0,0,0-2,3.55,3.93,3.93,0,0,0,.57,2.07,4.22,4.22,0,0,0,3.6,2Z"/><path class="cls-2" d="M155.55,175.84l.24,2.64-.15-.23a5.24,5.24,0,0,1,2-2.11,5.57,5.57,0,0,1,3-.78,4.81,4.81,0,0,1,1.83.33,3.52,3.52,0,0,1,1.33.9,2.83,2.83,0,0,1,.68,1.41l-.15.11a5.11,5.11,0,0,1,2-2,5.4,5.4,0,0,1,2.69-.72,4.07,4.07,0,0,1,2.89,1,3.49,3.49,0,0,1,1.13,2.52v8.71h-2.82v-7.74a2.71,2.71,0,0,0-.47-1.52,1.81,1.81,0,0,0-1.51-.64,3.31,3.31,0,0,0-1.94.61,4.09,4.09,0,0,0-1.32,1.59,5.25,5.25,0,0,0-.49,2.14v5.56h-2.82v-7.74a2.58,2.58,0,0,0-.5-1.52,1.9,1.9,0,0,0-1.54-.64,3.23,3.23,0,0,0-1.92.61,4.19,4.19,0,0,0-1.32,1.61,4.87,4.87,0,0,0-.48,2.15v5.53H153V175.84Z"/><path class="cls-2" d="M176.67,181.6a5.88,5.88,0,0,1,.88-3.18,6.28,6.28,0,0,1,2.46-2.24,7.63,7.63,0,0,1,3.59-.82,7.34,7.34,0,0,1,3.54.82,6.12,6.12,0,0,1,2.38,2.24,6.29,6.29,0,0,1,0,6.35,6.17,6.17,0,0,1-2.38,2.26,7.41,7.41,0,0,1-3.57.83,7.81,7.81,0,0,1-3.56-.78,6.06,6.06,0,0,1-2.44-2.18A6,6,0,0,1,176.67,181.6Zm2.82,0a4,4,0,0,0,.54,2.05,4.11,4.11,0,0,0,1.44,1.46,3.89,3.89,0,0,0,2,.54,3.89,3.89,0,0,0,3.49-2,4.25,4.25,0,0,0,0-4.11,4.11,4.11,0,0,0-1.42-1.48,4,4,0,0,0-2.07-.55,3.82,3.82,0,0,0-2.06.57A4.11,4.11,0,0,0,180,179.6,4,4,0,0,0,179.49,181.63Z"/><path class="cls-2" d="M194.1,165.63h2.82v22H194.1Z"/><path class="cls-2" d="M202.94,170.68h2.86v5.22h3.39V178H205.8v9.61h-2.86V178h-2.25V175.9h2.25Z"/><path class="cls-2" d="M211.47,181.6a5.88,5.88,0,0,1,.88-3.18,6.28,6.28,0,0,1,2.46-2.24,7.63,7.63,0,0,1,3.59-.82,7.37,7.37,0,0,1,3.54.82,6.19,6.19,0,0,1,2.38,2.24,6.29,6.29,0,0,1,0,6.35,6.24,6.24,0,0,1-2.38,2.26,7.42,7.42,0,0,1-3.58.83,7.76,7.76,0,0,1-3.55-.78,6.16,6.16,0,0,1-2.45-2.18A6.08,6.08,0,0,1,211.47,181.6Zm2.81,0a4.07,4.07,0,0,0,.54,2.05,4.14,4.14,0,0,0,1.45,1.46,3.84,3.84,0,0,0,2,.54,3.89,3.89,0,0,0,3.49-2,4.32,4.32,0,0,0,0-4.11,4.11,4.11,0,0,0-1.42-1.48,4,4,0,0,0-2.07-.55,3.8,3.8,0,0,0-2.06.57,4.11,4.11,0,0,0-1.44,1.49A4,4,0,0,0,214.28,181.63Z"/><path class="cls-2" d="M248.48,186.47a6.14,6.14,0,0,1-2,1,7.62,7.62,0,0,1-2.34.37,7.89,7.89,0,0,1-3.55-.76,5.84,5.84,0,0,1-2.42-2.16,6,6,0,0,1-.87-3.26,5.61,5.61,0,0,1,.93-3.24,6.29,6.29,0,0,1,2.42-2.13,7,7,0,0,1,3.22-.75,8.81,8.81,0,0,1,2.66.38,6.38,6.38,0,0,1,2,1.09l-1.41,1.7a6.74,6.74,0,0,0-1.3-.69,4.56,4.56,0,0,0-1.76-.33,4,4,0,0,0-2,.53,3.9,3.9,0,0,0-1.44,1.41,4,4,0,0,0-.53,2,3.83,3.83,0,0,0,.54,2,4,4,0,0,0,1.5,1.45,4.45,4.45,0,0,0,2.22.54,4.61,4.61,0,0,0,1.46-.23,4.46,4.46,0,0,0,1.21-.62Z"/><path class="cls-2" d="M257.84,187.86a7.73,7.73,0,0,1-3.66-.81,5.82,5.82,0,0,1-2.37-2.21,6.13,6.13,0,0,1-.84-3.21,5.54,5.54,0,0,1,.95-3.15,6.93,6.93,0,0,1,2.5-2.27,7.12,7.12,0,0,1,3.48-.85,6.11,6.11,0,0,1,4.08,1.36,6.93,6.93,0,0,1,2.22,3.74l-10.26,3.4-.66-1.55,8.37-2.93-.57.4a3.82,3.82,0,0,0-1.2-1.61,3.33,3.33,0,0,0-2.19-.68,4,4,0,0,0-2,.51,3.69,3.69,0,0,0-1.4,1.4,4.11,4.11,0,0,0-.51,2.08,4.26,4.26,0,0,0,.53,2.13,3.75,3.75,0,0,0,1.47,1.46,4.32,4.32,0,0,0,2.14.52,4.5,4.5,0,0,0,1.58-.28,6.84,6.84,0,0,0,1.45-.74l1.26,2a8.44,8.44,0,0,1-2.08,1A7.33,7.33,0,0,1,257.84,187.86Z"/><path class="cls-2" d="M270.17,175.84l.27,3.4-.12-.48A5.17,5.17,0,0,1,271.7,177a6.88,6.88,0,0,1,1.92-1.17,5.7,5.7,0,0,1,1.74-.42l-.12,2.66a4.26,4.26,0,0,0-2.5.5,4.76,4.76,0,0,0-1.68,1.59,3.88,3.88,0,0,0-.62,2.11v5.36h-2.79V175.84Z"/><path class="cls-2" d="M288.5,186.47a6.14,6.14,0,0,1-2,1,7.62,7.62,0,0,1-2.34.37,7.89,7.89,0,0,1-3.55-.76,5.84,5.84,0,0,1-2.42-2.16,6,6,0,0,1-.87-3.26,5.61,5.61,0,0,1,.93-3.24,6.29,6.29,0,0,1,2.42-2.13,7,7,0,0,1,3.22-.75,8.81,8.81,0,0,1,2.66.38,6.38,6.38,0,0,1,2,1.09l-1.41,1.7a6.74,6.74,0,0,0-1.3-.69,4.56,4.56,0,0,0-1.76-.33,4,4,0,0,0-2,.53,3.9,3.9,0,0,0-1.44,1.41,4,4,0,0,0-.53,2,3.83,3.83,0,0,0,.54,2,4,4,0,0,0,1.5,1.45,4.45,4.45,0,0,0,2.22.54,4.61,4.61,0,0,0,1.46-.23,4.46,4.46,0,0,0,1.21-.62Z"/><path class="cls-2" d="M297.26,187.86a6.89,6.89,0,0,1-3.16-.71,5.42,5.42,0,0,1-2.27-2.08,7.11,7.11,0,0,1,0-6.76,5.87,5.87,0,0,1,2.34-2.19,6.84,6.84,0,0,1,3.21-.76,5.54,5.54,0,0,1,3,.75,5.21,5.21,0,0,1,1.81,1.77l-.18.43.27-2.47h2.58v11.74h-2.79v-3.06l.33.68a3.49,3.49,0,0,1-.57.72,7.18,7.18,0,0,1-1.06.89,5.53,5.53,0,0,1-1.52.75A6.06,6.06,0,0,1,297.26,187.86Zm.75-2.18a4.59,4.59,0,0,0,1.89-.37,3.57,3.57,0,0,0,1.4-1.05,3.79,3.79,0,0,0,.76-1.59v-2.29a3.5,3.5,0,0,0-.84-1.49,4,4,0,0,0-1.44-1,4.6,4.6,0,0,0-1.83-.36,4.23,4.23,0,0,0-2.07.51,4,4,0,0,0-1.48,1.42,4,4,0,0,0-.56,2.13,3.93,3.93,0,0,0,.57,2.07,4.22,4.22,0,0,0,3.6,2Z"/><path class="cls-2" d="M312.23,175.84l.21,2.86-.09-.45a4.43,4.43,0,0,1,1.92-2.08,6.18,6.18,0,0,1,3.15-.78,4.18,4.18,0,0,1,2.87,1,3.27,3.27,0,0,1,1.15,2.53v8.68h-2.82v-7.77a2.3,2.3,0,0,0-.58-1.54,2.22,2.22,0,0,0-1.73-.61,3.48,3.48,0,0,0-1.93.56,3.87,3.87,0,0,0-1.38,1.56,5.09,5.09,0,0,0-.5,2.3v5.5h-2.82V175.84Z"/><path class="cls-2" d="M331.34,187.86a6.23,6.23,0,0,1-3.12-.78,5.77,5.77,0,0,1-2.2-2.21,6.47,6.47,0,0,1-.83-3.3,6.19,6.19,0,0,1,.87-3.35,5.77,5.77,0,0,1,2.34-2.12,7.15,7.15,0,0,1,3.3-.74,6.94,6.94,0,0,1,2.81.59,5,5,0,0,1,2.08,1.65l-.15.93v-12.9h2.79v22h-2.79v-2.92l.33.74a7,7,0,0,1-5.43,2.46Zm.87-2.24a4.71,4.71,0,0,0,2-.39,4.31,4.31,0,0,0,1.44-1.07,3.81,3.81,0,0,0,.82-1.57v-2.24a3.51,3.51,0,0,0-.85-1.5,4.2,4.2,0,0,0-1.47-1,4.89,4.89,0,0,0-1.91-.35,4.35,4.35,0,0,0-2.07.51,4,4,0,0,0-1.53,1.41,4.14,4.14,0,0,0,0,4.19,4.31,4.31,0,0,0,1.53,1.47A4.06,4.06,0,0,0,332.21,185.62Z"/><path class="cls-2" d="M343,181.6a5.89,5.89,0,0,1,.89-3.18,6.28,6.28,0,0,1,2.46-2.24,7.59,7.59,0,0,1,3.58-.82,7.34,7.34,0,0,1,3.54.82,6.15,6.15,0,0,1,2.39,2.24,6.35,6.35,0,0,1,0,6.35,6.2,6.2,0,0,1-2.39,2.26,7.41,7.41,0,0,1-3.57.83,7.76,7.76,0,0,1-3.55-.78,6.09,6.09,0,0,1-2.45-2.18A6,6,0,0,1,343,181.6Zm2.82,0a4,4,0,0,0,.54,2.05,4.11,4.11,0,0,0,1.44,1.46,3.89,3.89,0,0,0,2,.54,3.94,3.94,0,0,0,2.07-.54,4,4,0,0,0,1.43-1.46,4.32,4.32,0,0,0,0-4.11,4.14,4.14,0,0,0-1.43-1.48,4,4,0,0,0-2.07-.55,3.79,3.79,0,0,0-2.05.57,4.11,4.11,0,0,0-1.44,1.49A4,4,0,0,0,345.8,181.63Z"/><path class="cls-2" d="M375,187.86a6.23,6.23,0,0,1-3.12-.78,5.77,5.77,0,0,1-2.2-2.21,6.47,6.47,0,0,1-.83-3.3,6.19,6.19,0,0,1,.87-3.35A5.77,5.77,0,0,1,372,176.1a7.15,7.15,0,0,1,3.3-.74,6.94,6.94,0,0,1,2.81.59,5,5,0,0,1,2.08,1.65l-.15.93v-12.9h2.79v22h-2.79v-2.92l.33.74a7,7,0,0,1-5.43,2.46Zm.87-2.24a4.71,4.71,0,0,0,2-.39,4.31,4.31,0,0,0,1.44-1.07,3.81,3.81,0,0,0,.82-1.57v-2.24a3.51,3.51,0,0,0-.85-1.5,4.2,4.2,0,0,0-1.47-1,4.89,4.89,0,0,0-1.91-.35,4.35,4.35,0,0,0-2.07.51,4,4,0,0,0-1.53,1.41,4.14,4.14,0,0,0,0,4.19,4.31,4.31,0,0,0,1.53,1.47A4.06,4.06,0,0,0,375.83,185.62Z"/><path class="cls-2" d="M387.5,171.59a1.3,1.3,0,0,1,.53-1.05,1.81,1.81,0,0,1,1.15-.43,1.76,1.76,0,0,1,1.14.43,1.35,1.35,0,0,1,0,2.11,1.74,1.74,0,0,1-1.14.41,1.78,1.78,0,0,1-1.15-.41A1.29,1.29,0,0,1,387.5,171.59Zm.18,4.25h2.82v11.74h-2.82Z"/><path class="cls-2" d="M407.36,175.84l.21,2.86-.09-.45a4.43,4.43,0,0,1,1.92-2.08,6.18,6.18,0,0,1,3.15-.78,4.16,4.16,0,0,1,2.86,1,3.28,3.28,0,0,1,1.16,2.53v8.68h-2.82v-7.77a2.31,2.31,0,0,0-.59-1.54,2.2,2.2,0,0,0-1.72-.61,3.51,3.51,0,0,0-1.94.56,3.87,3.87,0,0,0-1.38,1.56,5.09,5.09,0,0,0-.49,2.3v5.5h-2.82V175.84Z"/><path class="cls-2" d="M420.32,181.6a5.88,5.88,0,0,1,.88-3.18,6.28,6.28,0,0,1,2.46-2.24,7.63,7.63,0,0,1,3.59-.82,7.34,7.34,0,0,1,3.54.82,6.12,6.12,0,0,1,2.38,2.24,6.29,6.29,0,0,1,0,6.35,6.17,6.17,0,0,1-2.38,2.26,7.41,7.41,0,0,1-3.57.83,7.81,7.81,0,0,1-3.56-.78,6.06,6.06,0,0,1-2.44-2.18A6,6,0,0,1,420.32,181.6Zm2.82,0a4,4,0,0,0,.54,2.05,4.11,4.11,0,0,0,1.44,1.46,3.89,3.89,0,0,0,2,.54,3.89,3.89,0,0,0,3.49-2,4.25,4.25,0,0,0,0-4.11,4.11,4.11,0,0,0-1.42-1.48,4,4,0,0,0-2.07-.55,3.82,3.82,0,0,0-2.06.57,4.11,4.11,0,0,0-1.44,1.49A4,4,0,0,0,423.14,181.63Z"/><path class="cls-2" d="M440.3,175.84l.21,2.86-.09-.45a4.43,4.43,0,0,1,1.92-2.08,6.18,6.18,0,0,1,3.15-.78,4.16,4.16,0,0,1,2.86,1,3.28,3.28,0,0,1,1.16,2.53v8.68h-2.82v-7.77a2.31,2.31,0,0,0-.59-1.54,2.2,2.2,0,0,0-1.72-.61,3.51,3.51,0,0,0-1.94.56,3.87,3.87,0,0,0-1.38,1.56,5.09,5.09,0,0,0-.49,2.3v5.5h-2.82V175.84Z"/><path class="cls-2" d="M464.87,187.58v-9.39h-2.16v-2.38h2.16v-4.93a5.67,5.67,0,0,1,1.21-3.91,4.6,4.6,0,0,1,3.62-1.36,5.9,5.9,0,0,1,1.38.17,3.74,3.74,0,0,1,1.32.56l-1.17,1.9a1.22,1.22,0,0,0-.57-.35,2.26,2.26,0,0,0-.69-.1,2.09,2.09,0,0,0-1.71.71,3.8,3.8,0,0,0-.6,2.44v4.87h3.93v2.38h-3.93v9.39Z"/><path class="cls-2" d="M479.78,187.86a6.93,6.93,0,0,1-3.17-.71,5.39,5.39,0,0,1-2.26-2.08,7.11,7.11,0,0,1,0-6.76,5.87,5.87,0,0,1,2.34-2.19,6.84,6.84,0,0,1,3.21-.76,5.5,5.5,0,0,1,2.95.75,5.24,5.24,0,0,1,1.82,1.77l-.18.43.27-2.47h2.58v11.74h-2.79v-3.06l.33.68a3.49,3.49,0,0,1-.57.72,7.3,7.3,0,0,1-1.07.89,5.47,5.47,0,0,1-1.51.75A6.06,6.06,0,0,1,479.78,187.86Zm.75-2.18a4.59,4.59,0,0,0,1.89-.37,3.54,3.54,0,0,0,1.39-1.05,3.81,3.81,0,0,0,.77-1.59v-2.29a3.5,3.5,0,0,0-.84-1.49,4,4,0,0,0-1.44-1,4.6,4.6,0,0,0-1.83-.36,4.23,4.23,0,0,0-2.07.51,3.87,3.87,0,0,0-2,3.55,3.93,3.93,0,0,0,.57,2.07,4.22,4.22,0,0,0,3.6,2Z"/><path class="cls-2" d="M494.72,175.84l.27,3.4-.12-.48a5.17,5.17,0,0,1,1.38-1.81,6.88,6.88,0,0,1,1.92-1.17,5.7,5.7,0,0,1,1.74-.42l-.12,2.66a4.29,4.29,0,0,0-2.51.5,4.76,4.76,0,0,0-1.68,1.59,3.87,3.87,0,0,0-.61,2.11v5.36H492.2V175.84Z"/><path class="cls-2" d="M509,193.42a8.68,8.68,0,0,1-2.45-.31,7.61,7.61,0,0,1-1.92-.85,18.71,18.71,0,0,1-1.66-1.19l1.65-1.82a8.85,8.85,0,0,0,2,1.33,5.15,5.15,0,0,0,2.28.49,5.81,5.81,0,0,0,2.38-.44,3.22,3.22,0,0,0,2-3l0-3.18.24.51a4.62,4.62,0,0,1-1.95,2.06,6.66,6.66,0,0,1-3.42.83A6.17,6.17,0,0,1,505,187a6.41,6.41,0,0,1-2.31-2.23,5.84,5.84,0,0,1-.87-3.16,6,6,0,0,1,.9-3.26,6.43,6.43,0,0,1,2.38-2.22,6.65,6.65,0,0,1,3.23-.81,6.94,6.94,0,0,1,3,.64,4.77,4.77,0,0,1,2,1.63l-.18.48.27-2.27h2.58v11.82a5.19,5.19,0,0,1-.86,2.9,6,6,0,0,1-2.46,2.08A8.58,8.58,0,0,1,509,193.42Zm-4.29-11.82a3.85,3.85,0,0,0,.58,2.07,4.24,4.24,0,0,0,1.56,1.47,4.37,4.37,0,0,0,2.15.54,5,5,0,0,0,2-.38,4.15,4.15,0,0,0,1.49-1.07,3.86,3.86,0,0,0,.84-1.5v-2.35a3.59,3.59,0,0,0-.9-1.48,4.9,4.9,0,0,0-1.5-1,5,5,0,0,0-1.92-.37,4.47,4.47,0,0,0-2.15.53,4.13,4.13,0,0,0-1.56,1.43A3.76,3.76,0,0,0,504.68,181.6Z"/><path class="cls-2" d="M520.91,165.63h2.82v22h-2.82Z"/><path class="cls-2" d="M528.38,171.59a1.29,1.29,0,0,1,.52-1.05,1.83,1.83,0,0,1,1.16-.43,1.76,1.76,0,0,1,1.14.43,1.35,1.35,0,0,1,0,2.11,1.74,1.74,0,0,1-1.14.41,1.81,1.81,0,0,1-1.16-.41A1.28,1.28,0,0,1,528.38,171.59Zm.18,4.25h2.82v11.74h-2.82Z"/><path class="cls-2" d="M35,209.86l.24,2.64-.15-.23a5.26,5.26,0,0,1,2-2.11,5.51,5.51,0,0,1,3-.78,4.81,4.81,0,0,1,1.83.33,3.66,3.66,0,0,1,1.34.91,2.74,2.74,0,0,1,.67,1.4l-.15.11a5.11,5.11,0,0,1,2-2,5.27,5.27,0,0,1,2.68-.73,4.06,4.06,0,0,1,2.9,1,3.48,3.48,0,0,1,1.12,2.52v8.7H49.53v-7.74a2.76,2.76,0,0,0-.46-1.51,1.82,1.82,0,0,0-1.52-.64,3.21,3.21,0,0,0-1.93.61,3.88,3.88,0,0,0-1.32,1.59,5.06,5.06,0,0,0-.5,2.14v5.55H41v-7.74a2.55,2.55,0,0,0-.49-1.51,1.89,1.89,0,0,0-1.55-.64,3.16,3.16,0,0,0-1.92.61,4.16,4.16,0,0,0-1.32,1.6,4.87,4.87,0,0,0-.48,2.15v5.53H32.4V209.86Z"/><path class="cls-2" d="M62.34,221.89a7,7,0,0,1-3.16-.71,5.44,5.44,0,0,1-2.27-2.09,6.3,6.3,0,0,1-.84-3.36,6.39,6.39,0,0,1,.87-3.4,5.92,5.92,0,0,1,2.34-2.18,6.85,6.85,0,0,1,3.21-.77,5.54,5.54,0,0,1,3,.75,5.32,5.32,0,0,1,1.81,1.78l-.18.42.27-2.47h2.58V221.6H67.14v-3.06l.33.68a3.49,3.49,0,0,1-.57.72,6.63,6.63,0,0,1-1.06.9,6.34,6.34,0,0,1-1.52.75A6.06,6.06,0,0,1,62.34,221.89Zm.75-2.19a4.59,4.59,0,0,0,1.89-.37,3.65,3.65,0,0,0,1.4-1,3.91,3.91,0,0,0,.76-1.59v-2.3a3.56,3.56,0,0,0-.84-1.49,4.3,4.3,0,0,0-1.44-1,4.59,4.59,0,0,0-1.83-.35,4.23,4.23,0,0,0-2.07.51,3.89,3.89,0,0,0-2,3.54,3.88,3.88,0,0,0,.57,2.07A4.07,4.07,0,0,0,61,219.16,4.15,4.15,0,0,0,63.09,219.7Z"/><path class="cls-2" d="M77.31,209.86l.21,2.87-.09-.46a4.47,4.47,0,0,1,1.92-2.08,6.18,6.18,0,0,1,3.15-.78,4.21,4.21,0,0,1,2.86,1,3.3,3.3,0,0,1,1.16,2.54v8.67H83.7v-7.77a2.33,2.33,0,0,0-.59-1.54,2.2,2.2,0,0,0-1.72-.61,3.52,3.52,0,0,0-1.94.57,3.81,3.81,0,0,0-1.38,1.56,5,5,0,0,0-.49,2.29v5.5H74.76V209.86Z"/><path class="cls-2" d="M101.46,220.5a6.55,6.55,0,0,1-2,1,8.15,8.15,0,0,1-5.89-.4A5.82,5.82,0,0,1,91.14,219a6,6,0,0,1-.87-3.26,5.67,5.67,0,0,1,.93-3.25,6.27,6.27,0,0,1,2.41-2.13,7.07,7.07,0,0,1,3.23-.75,8.74,8.74,0,0,1,2.65.38,6.26,6.26,0,0,1,2.06,1.1l-1.41,1.7a6.32,6.32,0,0,0-1.31-.7,4.7,4.7,0,0,0-1.75-.32,4,4,0,0,0-2,.52,3.8,3.8,0,0,0-1.45,1.42,4,4,0,0,0,1.52,5.48,4.45,4.45,0,0,0,2.22.54,4.65,4.65,0,0,0,1.46-.22,4.35,4.35,0,0,0,1.21-.63Z"/><path class="cls-2" d="M110.22,221.89a7.06,7.06,0,0,1-3.17-.71,5.42,5.42,0,0,1-2.26-2.09,6.3,6.3,0,0,1-.84-3.36,6.39,6.39,0,0,1,.87-3.4,5.92,5.92,0,0,1,2.34-2.18,6.85,6.85,0,0,1,3.21-.77,5.5,5.5,0,0,1,2.95.75,5.36,5.36,0,0,1,1.82,1.78l-.18.42.27-2.47h2.58V221.6H115v-3.06l.33.68a3.49,3.49,0,0,1-.57.72,6.74,6.74,0,0,1-1.07.9,6,6,0,0,1-3.49,1Zm.75-2.19a4.59,4.59,0,0,0,1.89-.37,3.62,3.62,0,0,0,1.39-1,3.93,3.93,0,0,0,.77-1.59v-2.3a3.56,3.56,0,0,0-.84-1.49,4.3,4.3,0,0,0-1.44-1,4.59,4.59,0,0,0-1.83-.35,4.23,4.23,0,0,0-2.07.51,4,4,0,0,0-1.49,1.41,4,4,0,0,0-.55,2.13,3.88,3.88,0,0,0,.57,2.07,4.07,4.07,0,0,0,1.53,1.47A4.15,4.15,0,0,0,111,219.7Z"/><path class="cls-2" d="M125.16,209.86l.27,3.41-.12-.48a5.21,5.21,0,0,1,1.38-1.82,6.61,6.61,0,0,1,1.92-1.16,5.47,5.47,0,0,1,1.74-.43l-.12,2.67a4.29,4.29,0,0,0-2.51.49,4.76,4.76,0,0,0-1.68,1.59,3.89,3.89,0,0,0-.61,2.11v5.36h-2.79V209.86Z"/><path class="cls-2" d="M139.17,221.89a7.73,7.73,0,0,1-3.66-.81,6,6,0,0,1-2.37-2.21,6.16,6.16,0,0,1-.84-3.22,5.57,5.57,0,0,1,.94-3.15,7.05,7.05,0,0,1,2.51-2.27,7.23,7.23,0,0,1,3.48-.85,6.16,6.16,0,0,1,4.08,1.36,7,7,0,0,1,2.22,3.75l-10.26,3.4-.66-1.56,8.37-2.92-.57.4a3.79,3.79,0,0,0-1.2-1.62,3.39,3.39,0,0,0-2.19-.68,4,4,0,0,0-2,.51,3.74,3.74,0,0,0-1.39,1.4,4.15,4.15,0,0,0-.51,2.09,4.24,4.24,0,0,0,.52,2.12,3.69,3.69,0,0,0,1.47,1.46,4.36,4.36,0,0,0,2.15.53,4.45,4.45,0,0,0,1.57-.29,6.87,6.87,0,0,0,1.46-.73l1.26,2a8.92,8.92,0,0,1-2.09,1A7.57,7.57,0,0,1,139.17,221.89Z"/><path class="cls-2" d="M161,209.86l.21,2.87-.09-.46a4.47,4.47,0,0,1,1.92-2.08,6.18,6.18,0,0,1,3.15-.78,4.21,4.21,0,0,1,2.86,1,3.3,3.3,0,0,1,1.16,2.54v8.67H167.4v-7.77a2.33,2.33,0,0,0-.59-1.54,2.2,2.2,0,0,0-1.72-.61,3.52,3.52,0,0,0-1.94.57,3.81,3.81,0,0,0-1.38,1.56,5,5,0,0,0-.49,2.29v5.5h-2.82V209.86Z"/><path class="cls-2" d="M179,222.06a4.12,4.12,0,0,1-2.84-1,3.43,3.43,0,0,1-1.15-2.54v-8.68h2.82v7.74a2.5,2.5,0,0,0,.6,1.55,2.2,2.2,0,0,0,1.68.64,3.17,3.17,0,0,0,1.84-.58,4.29,4.29,0,0,0,1.34-1.59,5,5,0,0,0,.51-2.28v-5.48h2.79V221.6h-2.55l-.24-2.89.18.54a4.57,4.57,0,0,1-1.11,1.43,5.37,5.37,0,0,1-1.73,1A6.29,6.29,0,0,1,179,222.06Z"/><path class="cls-2" d="M191.43,199.66h2.82V221.6h-2.82Z"/><path class="cls-2" d="M199.08,199.66h2.82V221.6h-2.82Z"/><path class="cls-2" d="M211.92,221.89a7.06,7.06,0,0,1-3.17-.71,5.42,5.42,0,0,1-2.26-2.09,6.3,6.3,0,0,1-.84-3.36,6.39,6.39,0,0,1,.87-3.4,5.92,5.92,0,0,1,2.34-2.18,6.85,6.85,0,0,1,3.21-.77,5.5,5.5,0,0,1,3,.75,5.36,5.36,0,0,1,1.82,1.78l-.18.42.27-2.47h2.58V221.6h-2.79v-3.06l.33.68a3.49,3.49,0,0,1-.57.72,6.74,6.74,0,0,1-1.07.9,6,6,0,0,1-3.49,1Zm.75-2.19a4.59,4.59,0,0,0,1.89-.37,3.62,3.62,0,0,0,1.39-1,3.93,3.93,0,0,0,.77-1.59v-2.3a3.56,3.56,0,0,0-.84-1.49,4.3,4.3,0,0,0-1.44-1,4.59,4.59,0,0,0-1.83-.35,4.23,4.23,0,0,0-2.07.51,4,4,0,0,0-1.49,1.41,4,4,0,0,0-.55,2.13,3.88,3.88,0,0,0,.57,2.07,4.07,4.07,0,0,0,1.53,1.47A4.15,4.15,0,0,0,212.67,219.7Z"/><path class="cls-2" d="M223.45,219a1.6,1.6,0,0,1,1.1-.45,1.54,1.54,0,0,1,1,.45,1.42,1.42,0,0,1,.49,1.08,1.34,1.34,0,0,1-.49,1.09,1.58,1.58,0,0,1-1,.41,1.65,1.65,0,0,1-1.1-.41,1.35,1.35,0,0,1-.5-1.09A1.43,1.43,0,0,1,223.45,219Z"/></g></g></svg>