<svg xmlns="http://www.w3.org/2000/svg" viewBox="0 0 672 285"><defs><style>.cls-1{fill:#fff;}.cls-2{fill:#846b4a;}</style></defs><title>ahmed testo 13</title><g id="Livello_2" data-name="Livello 2"><g id="illustrazioni"><rect class="cls-1" width="672" height="285" rx="21.32"/></g><g id="testi"><path class="cls-2" d="M27.12,46.48V26H33a14.38,14.38,0,0,1,5.49.93,9.56,9.56,0,0,1,5.67,5.85,11.43,11.43,0,0,1,.63,3.71A9.63,9.63,0,0,1,44,40.64a9.25,9.25,0,0,1-2.33,3.15,10.55,10.55,0,0,1-3.42,2,12.13,12.13,0,0,1-4.1.69ZM30,43.85h3.51a10.31,10.31,0,0,0,3.29-.51,7.87,7.87,0,0,0,2.63-1.48,6.63,6.63,0,0,0,1.76-2.37,7.73,7.73,0,0,0,.63-3.21A7.85,7.85,0,0,0,41.19,33a6.83,6.83,0,0,0-1.8-2.39,7.84,7.84,0,0,0-2.58-1.46,9.17,9.17,0,0,0-3-.5H30Z"/><path class="cls-2" d="M47.91,40.5a5.93,5.93,0,0,1,.88-3.17,6.16,6.16,0,0,1,2.47-2.24,7.56,7.56,0,0,1,3.58-.83,7.35,7.35,0,0,1,3.54.83,6.21,6.21,0,0,1,2.39,8.59,6.25,6.25,0,0,1-2.39,2.25,7.3,7.3,0,0,1-3.57.84A7.76,7.76,0,0,1,51.26,46a6,6,0,0,1-2.45-2.19A6,6,0,0,1,47.91,40.5Zm2.82,0a4,4,0,0,0,2,3.51,3.89,3.89,0,0,0,2,.54,3.92,3.92,0,0,0,3.5-2,4,4,0,0,0,.52-2,4.1,4.1,0,0,0-.52-2.06A4.19,4.19,0,0,0,56.82,37a3.86,3.86,0,0,0-2.07-.55,3.76,3.76,0,0,0-2,.56,4.19,4.19,0,0,0-1.44,1.49A4,4,0,0,0,50.73,40.53Z"/><path class="cls-2" d="M72.69,46.77A6.23,6.23,0,0,1,70,46.14a4.78,4.78,0,0,1-2-1.67l.15-.82v8.48H65.34V34.58h2.43l.39,3-.3-.85A7,7,0,0,1,70.14,35a6.69,6.69,0,0,1,3.09-.7,6.33,6.33,0,0,1,3.14.78,5.77,5.77,0,0,1,2.2,2.21,6.69,6.69,0,0,1,.81,3.34,6.08,6.08,0,0,1-.87,3.27A5.78,5.78,0,0,1,76.13,46,7.66,7.66,0,0,1,72.69,46.77Zm-.54-2.1a4.6,4.6,0,0,0,2.19-.53A4.38,4.38,0,0,0,76,42.7a3.69,3.69,0,0,0,.61-2.09A4,4,0,0,0,76,38.5a4,4,0,0,0-1.52-1.44,4.24,4.24,0,0,0-2.11-.53,4.88,4.88,0,0,0-2,.38A3.89,3.89,0,0,0,69,38a4,4,0,0,0-.81,1.61v2a3.38,3.38,0,0,0,.72,1.56,4.14,4.14,0,0,0,1.42,1.12A4.31,4.31,0,0,0,72.15,44.67Z"/><path class="cls-2" d="M82.05,40.5a5.85,5.85,0,0,1,.89-3.17,6.17,6.17,0,0,1,2.45-2.24A7.66,7.66,0,0,1,89,34.26a7.35,7.35,0,0,1,3.54.83,5.91,5.91,0,0,1,2.38,2.24,6,6,0,0,1,.86,3.17,6.07,6.07,0,0,1-.86,3.18,6.15,6.15,0,0,1-2.38,2.25,7.3,7.3,0,0,1-3.57.84A7.83,7.83,0,0,1,85.39,46,6.15,6.15,0,0,1,83,43.8,6,6,0,0,1,82.05,40.5Zm2.82,0a4,4,0,0,0,2,3.51,3.89,3.89,0,0,0,2,.54A3.94,3.94,0,0,0,91,44a3.76,3.76,0,0,0,1.42-1.46,4,4,0,0,0,.53-2,4.1,4.1,0,0,0-.53-2.06A4,4,0,0,0,91,37a3.86,3.86,0,0,0-2.07-.55,3.78,3.78,0,0,0-2,.56,4.14,4.14,0,0,0-1.45,1.49A4,4,0,0,0,84.87,40.53Z"/><path class="cls-2" d="M114.15,46.77a7.06,7.06,0,0,1-3.17-.71A5.42,5.42,0,0,1,108.72,44a6.3,6.3,0,0,1-.84-3.36,6.39,6.39,0,0,1,.87-3.4A5.92,5.92,0,0,1,111.09,35a6.85,6.85,0,0,1,3.21-.77,5.5,5.5,0,0,1,3,.75,5.36,5.36,0,0,1,1.82,1.78l-.18.42.27-2.46h2.58V46.48H119V43.42l.33.68a3.49,3.49,0,0,1-.57.72,6.74,6.74,0,0,1-1.07.9,6,6,0,0,1-3.49,1.05Zm.75-2.19a4.59,4.59,0,0,0,1.89-.37,3.62,3.62,0,0,0,1.39-1,3.93,3.93,0,0,0,.77-1.59v-2.3a3.56,3.56,0,0,0-.84-1.49,4.3,4.3,0,0,0-1.44-1,4.59,4.59,0,0,0-1.83-.35,4.23,4.23,0,0,0-2.07.51,3.91,3.91,0,0,0-1.49,1.42,4,4,0,0,0-.55,2.12,3.88,3.88,0,0,0,.57,2.07A4.07,4.07,0,0,0,112.83,44,4.15,4.15,0,0,0,114.9,44.58Z"/><path class="cls-2" d="M129.12,34.75l.21,2.86-.09-.45a4.45,4.45,0,0,1,1.92-2.09,6.18,6.18,0,0,1,3.15-.78,4.21,4.21,0,0,1,2.86,1,3.3,3.3,0,0,1,1.16,2.54v8.67h-2.82V38.71a2.33,2.33,0,0,0-.59-1.54,2.2,2.2,0,0,0-1.72-.61,3.52,3.52,0,0,0-1.94.57,3.87,3.87,0,0,0-1.38,1.56,5,5,0,0,0-.49,2.29v5.5h-2.82V34.75Z"/><path class="cls-2" d="M145.71,34.75l.21,2.86-.09-.45a4.45,4.45,0,0,1,1.92-2.09,6.18,6.18,0,0,1,3.15-.78,4.21,4.21,0,0,1,2.86,1,3.3,3.3,0,0,1,1.16,2.54v8.67H152.1V38.71a2.33,2.33,0,0,0-.59-1.54,2.2,2.2,0,0,0-1.72-.61,3.52,3.52,0,0,0-1.94.57,3.87,3.87,0,0,0-1.38,1.56A5,5,0,0,0,146,41v5.5h-2.82V34.75Z"/><path class="cls-2" d="M159.57,30.49a1.32,1.32,0,0,1,.52-1,1.82,1.82,0,0,1,1.16-.42,1.75,1.75,0,0,1,1.14.42,1.33,1.33,0,0,1,.51,1,1.28,1.28,0,0,1-.51,1.06,1.75,1.75,0,0,1-1.14.42,1.82,1.82,0,0,1-1.16-.42A1.27,1.27,0,0,1,159.57,30.49Zm.18,4.26h2.82V46.48h-2.82Z"/><path class="cls-2" d="M182,46.77a6.23,6.23,0,0,1-3.12-.78,5.86,5.86,0,0,1-2.21-2.21,6.53,6.53,0,0,1-.82-3.31,6.15,6.15,0,0,1,.87-3.34A5.72,5.72,0,0,1,179,35a7.28,7.28,0,0,1,3.3-.74,6.74,6.74,0,0,1,2.8.6,5,5,0,0,1,2.09,1.64l-.15.94V24.54h2.79V46.48h-2.79V43.56l.33.74a7,7,0,0,1-2.3,1.77A6.83,6.83,0,0,1,182,46.77Zm.87-2.24a4.67,4.67,0,0,0,2-.4,4.28,4.28,0,0,0,1.44-1.06,3.87,3.87,0,0,0,.83-1.58V39.25a3.65,3.65,0,0,0-.86-1.5,4.34,4.34,0,0,0-1.47-1,5,5,0,0,0-1.9-.35,4.35,4.35,0,0,0-2.07.51,4,4,0,0,0-1.53,1.42,4.12,4.12,0,0,0,0,4.18A4.23,4.23,0,0,0,180.75,44,4.07,4.07,0,0,0,182.82,44.53Z"/><path class="cls-2" d="M194.49,30.49a1.32,1.32,0,0,1,.52-1,1.82,1.82,0,0,1,1.16-.42,1.75,1.75,0,0,1,1.14.42,1.33,1.33,0,0,1,.51,1,1.28,1.28,0,0,1-.51,1.06,1.75,1.75,0,0,1-1.14.42,1.82,1.82,0,0,1-1.16-.42A1.27,1.27,0,0,1,194.49,30.49Zm.18,4.26h2.82V46.48h-2.82Z"/><path class="cls-2" d="M216.87,46.77a6.23,6.23,0,0,1-3.12-.78,5.86,5.86,0,0,1-2.21-2.21,6.53,6.53,0,0,1-.82-3.31,6.15,6.15,0,0,1,.87-3.34A5.72,5.72,0,0,1,213.93,35a7.28,7.28,0,0,1,3.3-.74,6.74,6.74,0,0,1,2.8.6,5,5,0,0,1,2.09,1.64l-.15.94V24.54h2.79V46.48H222V43.56l.33.74a7,7,0,0,1-2.3,1.77A6.83,6.83,0,0,1,216.87,46.77Zm.87-2.24a4.67,4.67,0,0,0,2-.4,4.28,4.28,0,0,0,1.44-1.06,3.87,3.87,0,0,0,.83-1.58V39.25a3.65,3.65,0,0,0-.86-1.5,4.34,4.34,0,0,0-1.47-1,5,5,0,0,0-1.9-.35,4.35,4.35,0,0,0-2.07.51,4,4,0,0,0-1.53,1.42,4.12,4.12,0,0,0,0,4.18A4.23,4.23,0,0,0,215.67,44,4.07,4.07,0,0,0,217.74,44.53Z"/><path class="cls-2" d="M233.58,46.94a4.12,4.12,0,0,1-2.84-1,3.43,3.43,0,0,1-1.15-2.54V34.75h2.82v7.74A2.48,2.48,0,0,0,233,44a2.2,2.2,0,0,0,1.68.64,3.17,3.17,0,0,0,1.84-.58,4.29,4.29,0,0,0,1.34-1.59,5,5,0,0,0,.51-2.28V34.75h2.79V46.48h-2.55l-.24-2.89.18.54a4.57,4.57,0,0,1-1.11,1.43,5.37,5.37,0,0,1-1.73,1A6.29,6.29,0,0,1,233.58,46.94Z"/><path class="cls-2" d="M248.49,34.75l.27,3.4-.12-.48A5.21,5.21,0,0,1,250,35.85a6.61,6.61,0,0,1,1.92-1.16,5.47,5.47,0,0,1,1.74-.43l-.12,2.67a4.29,4.29,0,0,0-2.51.49A4.76,4.76,0,0,0,249.37,39a3.9,3.9,0,0,0-.61,2.12v5.35H246V34.75Z"/><path class="cls-2" d="M255.63,40.5a5.84,5.84,0,0,1,.88-3.17A6.13,6.13,0,0,1,259,35.09a7.59,7.59,0,0,1,3.58-.83,7.39,7.39,0,0,1,3.55.83,6,6,0,0,1,3.24,5.41,6.07,6.07,0,0,1-.86,3.18,6.22,6.22,0,0,1-2.38,2.25,7.33,7.33,0,0,1-3.57.84A7.81,7.81,0,0,1,259,46a6.09,6.09,0,0,1-2.44-2.19A6,6,0,0,1,255.63,40.5Zm2.82,0a4,4,0,0,0,.53,2A4,4,0,0,0,260.43,44a3.88,3.88,0,0,0,2,.54,4,4,0,0,0,2.08-.54A3.9,3.9,0,0,0,266,42.58a4,4,0,0,0,.52-2,4.1,4.1,0,0,0-.52-2.06A4.17,4.17,0,0,0,264.54,37a3.87,3.87,0,0,0-2.08-.55,3.81,3.81,0,0,0-2,.56A4.19,4.19,0,0,0,259,38.5,4,4,0,0,0,258.45,40.53Z"/><path class="cls-2" d="M282.54,24.54h2.81V46.48h-2.81Z"/><path class="cls-2" d="M295.37,46.77a7,7,0,0,1-3.16-.71A5.44,5.44,0,0,1,289.94,44a6.3,6.3,0,0,1-.84-3.36,6.39,6.39,0,0,1,.87-3.4A5.92,5.92,0,0,1,292.31,35a6.85,6.85,0,0,1,3.21-.77,5.54,5.54,0,0,1,3,.75,5.32,5.32,0,0,1,1.81,1.78l-.18.42.27-2.46H303V46.48h-2.79V43.42l.33.68a3.49,3.49,0,0,1-.57.72,6.63,6.63,0,0,1-1.06.9,6.16,6.16,0,0,1-1.52.75A6.06,6.06,0,0,1,295.37,46.77Zm.75-2.19a4.59,4.59,0,0,0,1.89-.37,3.65,3.65,0,0,0,1.4-1,3.91,3.91,0,0,0,.76-1.59v-2.3a3.56,3.56,0,0,0-.84-1.49,4.3,4.3,0,0,0-1.44-1,4.59,4.59,0,0,0-1.83-.35A4.23,4.23,0,0,0,294,37a3.88,3.88,0,0,0-1.48,1.42A4,4,0,0,0,292,40.5a3.88,3.88,0,0,0,.57,2.07A4.07,4.07,0,0,0,294.05,44,4.15,4.15,0,0,0,296.12,44.58Z"/><path class="cls-2" d="M312.86,46.82,306,34.75h3.33l4.65,9.32L312.23,44l4.29-9.24h3.12L313,46.82Z"/><path class="cls-2" d="M321.23,40.5a5.85,5.85,0,0,1,.89-3.17,6.13,6.13,0,0,1,2.46-2.24,7.59,7.59,0,0,1,3.58-.83,7.35,7.35,0,0,1,3.54.83,6.21,6.21,0,0,1,2.39,8.59,6.25,6.25,0,0,1-2.39,2.25,7.3,7.3,0,0,1-3.57.84,7.76,7.76,0,0,1-3.55-.78,6.11,6.11,0,0,1-2.45-2.19A6,6,0,0,1,321.23,40.5Zm2.82,0A4,4,0,0,0,326,44a3.89,3.89,0,0,0,2,.54,3.94,3.94,0,0,0,2.07-.54,3.86,3.86,0,0,0,1.43-1.46,4,4,0,0,0,.52-2A4,4,0,0,0,330.14,37a3.86,3.86,0,0,0-2.07-.55A3.78,3.78,0,0,0,326,37a4.19,4.19,0,0,0-1.44,1.49A4,4,0,0,0,324.05,40.53Z"/><path class="cls-2" d="M341.18,34.75l.27,3.4-.12-.48a5.21,5.21,0,0,1,1.38-1.82,6.61,6.61,0,0,1,1.92-1.16,5.47,5.47,0,0,1,1.74-.43l-.12,2.67a4.26,4.26,0,0,0-2.5.49A4.76,4.76,0,0,0,342.07,39a3.91,3.91,0,0,0-.62,2.12v5.35h-2.79V34.75Z"/><path class="cls-2" d="M348.32,40.5a5.85,5.85,0,0,1,.89-3.17,6.13,6.13,0,0,1,2.46-2.24,7.59,7.59,0,0,1,3.58-.83,7.35,7.35,0,0,1,3.54.83,6.21,6.21,0,0,1,2.39,8.59,6.25,6.25,0,0,1-2.39,2.25,7.3,7.3,0,0,1-3.57.84,7.76,7.76,0,0,1-3.55-.78,6.11,6.11,0,0,1-2.45-2.19A6,6,0,0,1,348.32,40.5Zm2.82,0a4,4,0,0,0,2,3.51,3.89,3.89,0,0,0,2,.54,3.94,3.94,0,0,0,2.07-.54,3.86,3.86,0,0,0,1.43-1.46,4,4,0,0,0,.52-2A4,4,0,0,0,357.23,37a3.86,3.86,0,0,0-2.07-.55,3.78,3.78,0,0,0-2.05.56,4.19,4.19,0,0,0-1.44,1.49A4,4,0,0,0,351.14,40.53Z"/><path class="cls-2" d="M368.33,44,367,47c-.43,1-.87,2-1.31,3h-2.31c.42-1,.82-2,1.2-3s.76-2,1.14-3Z"/><path class="cls-2" d="M379.88,46.48l9.45-21.35h.18L399,46.48h-3.33l-7.08-17,2.07-1.27-7.89,18.31Zm5.55-7.77h8.07l1,2.39h-9.87Z"/><path class="cls-2" d="M402.35,46.48V24.54h2.76V37.47l-.06-.49A5,5,0,0,1,407,35.06a6,6,0,0,1,3.1-.77,4.23,4.23,0,0,1,2.87,1,3.29,3.29,0,0,1,1.15,2.54v8.67h-2.82V38.71a2.32,2.32,0,0,0-.58-1.54,2.22,2.22,0,0,0-1.73-.61,3.45,3.45,0,0,0-1.94.58,4,4,0,0,0-1.37,1.57,5.05,5.05,0,0,0-.5,2.27v5.5Z"/><path class="cls-2" d="M421.49,34.75l.24,2.63-.15-.22a5.34,5.34,0,0,1,2-2.12,5.57,5.57,0,0,1,3-.78,4.81,4.81,0,0,1,1.83.33,3.66,3.66,0,0,1,1.34.91,2.74,2.74,0,0,1,.67,1.4l-.15.11a5.11,5.11,0,0,1,2-2,5.27,5.27,0,0,1,2.68-.73,4.07,4.07,0,0,1,2.9,1,3.52,3.52,0,0,1,1.12,2.52v8.7h-2.82V38.74a2.76,2.76,0,0,0-.46-1.51,1.82,1.82,0,0,0-1.52-.64,3.19,3.19,0,0,0-1.93.61,3.88,3.88,0,0,0-1.32,1.59,5.22,5.22,0,0,0-.5,2.14v5.55h-2.82V38.74a2.55,2.55,0,0,0-.49-1.51,1.91,1.91,0,0,0-1.55-.64,3.16,3.16,0,0,0-1.92.61,4.16,4.16,0,0,0-1.32,1.6,4.88,4.88,0,0,0-.48,2.16v5.52h-2.82V34.75Z"/><path class="cls-2" d="M449.48,46.77a7.73,7.73,0,0,1-3.66-.81,6,6,0,0,1-2.37-2.21,6.16,6.16,0,0,1-.84-3.22,5.65,5.65,0,0,1,.94-3.15,7.14,7.14,0,0,1,2.51-2.27,7.23,7.23,0,0,1,3.48-.85,6.16,6.16,0,0,1,4.08,1.36,7,7,0,0,1,2.22,3.75l-10.26,3.4-.66-1.56,8.37-2.92-.57.4a3.79,3.79,0,0,0-1.2-1.62,3.39,3.39,0,0,0-2.19-.68,4,4,0,0,0-2,.51,3.74,3.74,0,0,0-1.39,1.4,4.15,4.15,0,0,0-.51,2.09,4.25,4.25,0,0,0,.53,2.12A3.63,3.63,0,0,0,447.4,44a4.33,4.33,0,0,0,2.14.53,4.51,4.51,0,0,0,1.58-.29,6.8,6.8,0,0,0,1.45-.73l1.26,2a8.84,8.84,0,0,1-2.08,1A7.69,7.69,0,0,1,449.48,46.77Z"/><path class="cls-2" d="M464.36,46.77a6.23,6.23,0,0,1-3.12-.78,5.84,5.84,0,0,1-2.2-2.21,6.43,6.43,0,0,1-.83-3.31,6.15,6.15,0,0,1,.87-3.34A5.72,5.72,0,0,1,461.42,35a7.28,7.28,0,0,1,3.3-.74,6.82,6.82,0,0,1,2.81.6,5.05,5.05,0,0,1,2.08,1.64l-.15.94V24.54h2.79V46.48h-2.79V43.56l.33.74a7,7,0,0,1-5.43,2.47Zm.87-2.24a4.71,4.71,0,0,0,2-.4,4.14,4.14,0,0,0,1.43-1.06,3.75,3.75,0,0,0,.83-1.58V39.25a3.63,3.63,0,0,0-.85-1.5,4.28,4.28,0,0,0-1.48-1,5,5,0,0,0-1.9-.35,4.35,4.35,0,0,0-2.07.51,4,4,0,0,0-1.53,1.42,4.12,4.12,0,0,0,0,4.18A4.23,4.23,0,0,0,463.16,44,4.07,4.07,0,0,0,465.23,44.53Z"/><path class="cls-2" d="M490.07,46.71a7.76,7.76,0,0,1-2.57-.44A4.92,4.92,0,0,1,485.45,45l1.17-1.53a6.24,6.24,0,0,0,1.62,1.06,4,4,0,0,0,1.62.36A4.32,4.32,0,0,0,491,44.7a1.74,1.74,0,0,0,.82-.49,1.21,1.21,0,0,0,.32-.87,1.23,1.23,0,0,0-.44-1,3.41,3.41,0,0,0-1.09-.58c-.44-.15-.92-.29-1.44-.43A5.36,5.36,0,0,1,486.8,40a2.9,2.9,0,0,1-.81-2.07,3.27,3.27,0,0,1,.49-1.74A3.76,3.76,0,0,1,488,34.84a5.07,5.07,0,0,1,2.4-.52,8.19,8.19,0,0,1,2.31.3,5.7,5.7,0,0,1,1.92,1l-1.11,1.65a3.41,3.41,0,0,0-1.28-.81,3.89,3.89,0,0,0-1.33-.27,2.91,2.91,0,0,0-1,.16,1.64,1.64,0,0,0-.75.45,1,1,0,0,0-.29.75,1.1,1.1,0,0,0,.4,1,3.58,3.58,0,0,0,1.1.58l1.35.46a6.57,6.57,0,0,1,1.62.68,3.53,3.53,0,0,1,1.15,1.05,2.64,2.64,0,0,1,.44,1.56,3.86,3.86,0,0,1-.52,1.94,3.75,3.75,0,0,1-1.59,1.42A6.19,6.19,0,0,1,490.07,46.71Z"/><path class="cls-2" d="M498.59,30.49a1.3,1.3,0,0,1,.53-1,1.77,1.77,0,0,1,1.15-.42,1.75,1.75,0,0,1,1.14.42,1.33,1.33,0,0,1,.51,1,1.28,1.28,0,0,1-.51,1.06,1.75,1.75,0,0,1-1.14.42,1.77,1.77,0,0,1-1.15-.42A1.25,1.25,0,0,1,498.59,30.49Zm.18,4.26h2.82V46.48h-2.82Z"/><path class="cls-2" d="M515.9,24.54h2.82V46.48H515.9Z"/><path class="cls-2" d="M528.74,46.77a7.06,7.06,0,0,1-3.17-.71A5.42,5.42,0,0,1,523.31,44a6.3,6.3,0,0,1-.84-3.36,6.39,6.39,0,0,1,.87-3.4A5.92,5.92,0,0,1,525.68,35a6.85,6.85,0,0,1,3.21-.77,5.5,5.5,0,0,1,3,.75,5.36,5.36,0,0,1,1.82,1.78l-.18.42.27-2.46h2.58V46.48h-2.79V43.42l.33.68a3.49,3.49,0,0,1-.57.72,6.74,6.74,0,0,1-1.07.9,6,6,0,0,1-3.49,1.05Zm.75-2.19a4.59,4.59,0,0,0,1.89-.37,3.62,3.62,0,0,0,1.39-1,3.93,3.93,0,0,0,.77-1.59v-2.3a3.56,3.56,0,0,0-.84-1.49,4.3,4.3,0,0,0-1.44-1,4.59,4.59,0,0,0-1.83-.35,4.23,4.23,0,0,0-2.07.51,3.91,3.91,0,0,0-1.49,1.42,4,4,0,0,0-.55,2.12,3.88,3.88,0,0,0,.57,2.07A4.07,4.07,0,0,0,527.42,44,4.15,4.15,0,0,0,529.49,44.58Z"/><path class="cls-2" d="M545.15,46.94a4.12,4.12,0,0,1-2.84-1,3.43,3.43,0,0,1-1.15-2.54V34.75H544v7.74a2.48,2.48,0,0,0,.6,1.54,2.2,2.2,0,0,0,1.68.64,3.17,3.17,0,0,0,1.84-.58,4.29,4.29,0,0,0,1.34-1.59,5,5,0,0,0,.51-2.28V34.75h2.79V46.48h-2.55L550,43.59l.18.54A4.57,4.57,0,0,1,549,45.56a5.37,5.37,0,0,1-1.73,1A6.29,6.29,0,0,1,545.15,46.94Z"/><path class="cls-2" d="M560.06,34.75l.27,3.4-.12-.48a5.21,5.21,0,0,1,1.38-1.82,6.61,6.61,0,0,1,1.92-1.16,5.47,5.47,0,0,1,1.74-.43l-.12,2.67a4.29,4.29,0,0,0-2.51.49A4.76,4.76,0,0,0,560.94,39a3.9,3.9,0,0,0-.61,2.12v5.35h-2.79V34.75Z"/><path class="cls-2" d="M574.07,46.77a7.73,7.73,0,0,1-3.66-.81A6,6,0,0,1,568,43.75a6.16,6.16,0,0,1-.84-3.22,5.57,5.57,0,0,1,.94-3.15,7.05,7.05,0,0,1,2.51-2.27,7.23,7.23,0,0,1,3.48-.85,6.16,6.16,0,0,1,4.08,1.36,7,7,0,0,1,2.22,3.75l-10.26,3.4-.66-1.56,8.37-2.92-.57.4a3.79,3.79,0,0,0-1.2-1.62,3.39,3.39,0,0,0-2.19-.68,4,4,0,0,0-2,.51,3.74,3.74,0,0,0-1.39,1.4,4.15,4.15,0,0,0-.51,2.09,4.24,4.24,0,0,0,.52,2.12A3.63,3.63,0,0,0,572,44a4.36,4.36,0,0,0,2.15.53,4.45,4.45,0,0,0,1.57-.29,6.87,6.87,0,0,0,1.46-.73l1.26,2a8.92,8.92,0,0,1-2.09,1A7.57,7.57,0,0,1,574.07,46.77Z"/><path class="cls-2" d="M589.07,46.77a7.06,7.06,0,0,1-3.17-.71A5.42,5.42,0,0,1,583.64,44a6.3,6.3,0,0,1-.84-3.36,6.39,6.39,0,0,1,.87-3.4A5.92,5.92,0,0,1,586,35a6.85,6.85,0,0,1,3.21-.77,5.5,5.5,0,0,1,2.95.75A5.36,5.36,0,0,1,594,36.79l-.18.42.27-2.46h2.58V46.48h-2.79V43.42l.33.68a3.49,3.49,0,0,1-.57.72,6.74,6.74,0,0,1-1.07.9,6,6,0,0,1-3.49,1.05Zm.75-2.19a4.59,4.59,0,0,0,1.89-.37,3.62,3.62,0,0,0,1.39-1,3.93,3.93,0,0,0,.77-1.59v-2.3a3.56,3.56,0,0,0-.84-1.49,4.3,4.3,0,0,0-1.44-1,4.59,4.59,0,0,0-1.83-.35,4.23,4.23,0,0,0-2.07.51,3.91,3.91,0,0,0-1.49,1.42,4,4,0,0,0-.55,2.12,3.88,3.88,0,0,0,.57,2.07A4.07,4.07,0,0,0,587.75,44,4.15,4.15,0,0,0,589.82,44.58Z"/><path class="cls-2" d="M610.79,30.49a1.32,1.32,0,0,1,.52-1,1.78,1.78,0,0,1,2.3,0,1.33,1.33,0,0,1,.51,1,1.28,1.28,0,0,1-.51,1.06,1.78,1.78,0,0,1-2.3,0A1.27,1.27,0,0,1,610.79,30.49Zm.17,4.26h2.83V46.48H611Z"/><path class="cls-2" d="M621.16,34.75l.22,2.86-.09-.45a4.35,4.35,0,0,1,1.92-2.09,6.12,6.12,0,0,1,3.14-.78,4.23,4.23,0,0,1,2.87,1,3.33,3.33,0,0,1,1.16,2.54v8.67h-2.83V38.71a2.27,2.27,0,0,0-.58-1.54,2.22,2.22,0,0,0-1.73-.61,3.49,3.49,0,0,0-1.93.57,3.87,3.87,0,0,0-1.38,1.56,5,5,0,0,0-.5,2.29v5.5h-2.81V34.75Z"/><path class="cls-2" d="M29,68.77l.24,2.64L29,71.18a5.2,5.2,0,0,1,2-2.11A5.53,5.53,0,0,1,34,68.29a5,5,0,0,1,1.83.32,3.58,3.58,0,0,1,1.34.91,2.91,2.91,0,0,1,.67,1.4l-.15.12a5.07,5.07,0,0,1,2-2,5.36,5.36,0,0,1,2.68-.72,4.05,4.05,0,0,1,2.89,1,3.45,3.45,0,0,1,1.13,2.52v8.71H43.53V72.77a2.71,2.71,0,0,0-.46-1.52,1.8,1.8,0,0,0-1.52-.64,3.28,3.28,0,0,0-1.93.61,4.12,4.12,0,0,0-1.33,1.59A5.25,5.25,0,0,0,37.8,75v5.56H35V72.77a2.65,2.65,0,0,0-.49-1.52,1.89,1.89,0,0,0-1.55-.64,3.23,3.23,0,0,0-1.92.61,4.23,4.23,0,0,0-1.32,1.6A4.92,4.92,0,0,0,29.22,75v5.53H26.4V68.77Z"/><path class="cls-2" d="M56.94,80.79A7.73,7.73,0,0,1,53.28,80a5.89,5.89,0,0,1-2.37-2.21,6.14,6.14,0,0,1-.84-3.22,5.45,5.45,0,0,1,1-3.14,6.85,6.85,0,0,1,2.5-2.27A7.12,7.12,0,0,1,57,68.29a6.11,6.11,0,0,1,4.08,1.36,6.89,6.89,0,0,1,2.22,3.74L53,76.79l-.66-1.56,8.37-2.92-.57.4A3.91,3.91,0,0,0,59,71.09a3.39,3.39,0,0,0-2.19-.68,4,4,0,0,0-2,.51,3.72,3.72,0,0,0-1.4,1.41,4.11,4.11,0,0,0-.51,2.08,4.39,4.39,0,0,0,.52,2.13A3.71,3.71,0,0,0,54.86,78a4.32,4.32,0,0,0,2.14.52,4.5,4.5,0,0,0,1.58-.28A7.34,7.34,0,0,0,60,77.5l1.26,2a8.61,8.61,0,0,1-2.08,1A7.33,7.33,0,0,1,56.94,80.79Z"/><path class="cls-2" d="M71.82,80.79A6.23,6.23,0,0,1,68.7,80a5.86,5.86,0,0,1-2.21-2.21,6.59,6.59,0,0,1-.82-3.3,6.19,6.19,0,0,1,.87-3.35A5.79,5.79,0,0,1,68.88,69a7.27,7.27,0,0,1,3.3-.73,6.86,6.86,0,0,1,2.8.59,5,5,0,0,1,2.09,1.65l-.15.93V58.56h2.79v22H76.92V77.59l.33.73A7.19,7.19,0,0,1,75,80.1,7,7,0,0,1,71.82,80.79Zm.87-2.24a4.49,4.49,0,0,0,2-.4,4.19,4.19,0,0,0,1.45-1.06,3.94,3.94,0,0,0,.82-1.57V73.28a3.63,3.63,0,0,0-.86-1.51,4.13,4.13,0,0,0-1.46-1,4.89,4.89,0,0,0-1.91-.36,4.35,4.35,0,0,0-2.07.51,4,4,0,0,0-1.53,1.42,4.12,4.12,0,0,0,0,4.18A4.26,4.26,0,0,0,70.62,78,4.06,4.06,0,0,0,72.69,78.55Z"/><path class="cls-2" d="M84.36,64.52a1.32,1.32,0,0,1,.52-1A1.78,1.78,0,0,1,86,63a1.71,1.71,0,0,1,1.14.43,1.35,1.35,0,0,1,0,2.11A1.79,1.79,0,0,1,86,66a1.87,1.87,0,0,1-1.16-.41A1.31,1.31,0,0,1,84.36,64.52Zm.18,4.25h2.82V80.51H84.54Z"/><path class="cls-2" d="M102.3,79.4a6.14,6.14,0,0,1-2,1,7.62,7.62,0,0,1-2.34.37A7.93,7.93,0,0,1,94.39,80,5.81,5.81,0,0,1,92,77.87a6,6,0,0,1-.87-3.26A5.67,5.67,0,0,1,92,71.36a6.28,6.28,0,0,1,2.42-2.12,7,7,0,0,1,3.22-.75,8.44,8.44,0,0,1,2.65.38A6.14,6.14,0,0,1,102.39,70L101,71.66A6.08,6.08,0,0,0,99.67,71a4.51,4.51,0,0,0-1.75-.33,4,4,0,0,0-2,.53,3.8,3.8,0,0,0-1.43,1.41,4.08,4.08,0,0,0,0,4A4,4,0,0,0,96,78.07a4.45,4.45,0,0,0,2.22.54,4.55,4.55,0,0,0,2.67-.85Z"/><path class="cls-2" d="M105.69,64.52a1.29,1.29,0,0,1,.52-1,1.78,1.78,0,0,1,1.16-.43,1.71,1.71,0,0,1,1.14.43,1.35,1.35,0,0,1,0,2.11,1.79,1.79,0,0,1-1.14.41,1.87,1.87,0,0,1-1.16-.41A1.28,1.28,0,0,1,105.69,64.52Zm.18,4.25h2.82V80.51h-2.82Z"/><path class="cls-2" d="M116.07,68.77l.21,2.86-.09-.45a4.43,4.43,0,0,1,1.92-2.08,6.18,6.18,0,0,1,3.15-.78,4.2,4.2,0,0,1,2.86,1,3.32,3.32,0,0,1,1.16,2.54v8.68h-2.82V72.74a2.35,2.35,0,0,0-.59-1.55,2.23,2.23,0,0,0-1.72-.61,3.52,3.52,0,0,0-1.94.57,3.87,3.87,0,0,0-1.38,1.56,5.09,5.09,0,0,0-.49,2.3v5.5h-2.82V68.77Z"/><path class="cls-2" d="M135.3,80.79a7.06,7.06,0,0,1-3.17-.71A5.39,5.39,0,0,1,129.87,78a7.11,7.11,0,0,1,0-6.76,5.87,5.87,0,0,1,2.34-2.19,6.84,6.84,0,0,1,3.21-.76,5.5,5.5,0,0,1,3,.75,5.24,5.24,0,0,1,1.82,1.77l-.18.43.27-2.47h2.58V80.51H140.1V77.45l.33.68a3.77,3.77,0,0,1-.57.72,7.3,7.3,0,0,1-1.07.89,6,6,0,0,1-3.49,1.05Zm.75-2.18a4.75,4.75,0,0,0,1.89-.37,3.74,3.74,0,0,0,1.39-1,3.81,3.81,0,0,0,.77-1.59V73.31a3.5,3.5,0,0,0-.84-1.49,4.19,4.19,0,0,0-1.44-1,4.77,4.77,0,0,0-1.83-.35,4.23,4.23,0,0,0-2.07.51,3.91,3.91,0,0,0-1.49,1.42,4,4,0,0,0-.55,2.13,3.87,3.87,0,0,0,.57,2.06A4.1,4.1,0,0,0,134,78.07,4.15,4.15,0,0,0,136.05,78.61Z"/><path class="cls-2" d="M167.31,79.4a6.14,6.14,0,0,1-2,1,7.62,7.62,0,0,1-2.34.37A7.93,7.93,0,0,1,159.4,80,5.81,5.81,0,0,1,157,77.87a6,6,0,0,1-.87-3.26,5.67,5.67,0,0,1,.93-3.25,6.32,6.32,0,0,1,2.41-2.12,7.07,7.07,0,0,1,3.23-.75,8.44,8.44,0,0,1,2.65.38A6.24,6.24,0,0,1,167.4,70L166,71.66a6.33,6.33,0,0,0-1.31-.69,4.51,4.51,0,0,0-1.75-.33,4,4,0,0,0-2,.53,3.82,3.82,0,0,0-1.44,1.41,3.93,3.93,0,0,0-.52,2,3.83,3.83,0,0,0,.54,2,4,4,0,0,0,1.5,1.45,4.45,4.45,0,0,0,2.22.54,4.55,4.55,0,0,0,2.67-.85Z"/><path class="cls-2" d="M169.8,74.53a5.85,5.85,0,0,1,.88-3.18,6.21,6.21,0,0,1,2.46-2.24,7.63,7.63,0,0,1,3.59-.82,7.34,7.34,0,0,1,3.54.82,6.19,6.19,0,0,1,2.38,8.59A6.17,6.17,0,0,1,180.27,80a7.41,7.41,0,0,1-3.57.83,7.81,7.81,0,0,1-3.56-.78,6.14,6.14,0,0,1-2.44-2.18A6,6,0,0,1,169.8,74.53Zm2.82,0a4,4,0,0,0,.54,2.06,4.11,4.11,0,0,0,1.44,1.46,3.89,3.89,0,0,0,2,.54,3.89,3.89,0,0,0,3.49-2,4.25,4.25,0,0,0,0-4.11A4,4,0,0,0,178.71,71a4.09,4.09,0,0,0-4.13,0,4.11,4.11,0,0,0-1.44,1.49A4,4,0,0,0,172.62,74.55Z"/><path class="cls-2" d="M189.78,68.77l.21,2.86-.09-.45a4.43,4.43,0,0,1,1.92-2.08,6.18,6.18,0,0,1,3.15-.78,4.2,4.2,0,0,1,2.86,1A3.32,3.32,0,0,1,199,71.83v8.68h-2.82V72.74a2.35,2.35,0,0,0-.59-1.55,2.23,2.23,0,0,0-1.72-.61,3.52,3.52,0,0,0-1.94.57,3.87,3.87,0,0,0-1.38,1.56,5.09,5.09,0,0,0-.49,2.3v5.5h-2.82V68.77Z"/><path class="cls-2" d="M213.3,58.56h2.82v22H213.3Z"/><path class="cls-2" d="M219.87,74.53a5.85,5.85,0,0,1,.88-3.18,6.21,6.21,0,0,1,2.46-2.24,7.62,7.62,0,0,1,3.58-.82,7.38,7.38,0,0,1,3.55.82,6.19,6.19,0,0,1,2.38,8.59A6.17,6.17,0,0,1,230.34,80a7.41,7.41,0,0,1-3.57.83,7.81,7.81,0,0,1-3.56-.78,6.14,6.14,0,0,1-2.44-2.18A6,6,0,0,1,219.87,74.53Zm2.82,0a4,4,0,0,0,2,3.52,3.89,3.89,0,0,0,2,.54,3.89,3.89,0,0,0,3.49-2,4.32,4.32,0,0,0,0-4.11A4,4,0,0,0,228.78,71a4.09,4.09,0,0,0-4.13,0,4.11,4.11,0,0,0-1.44,1.49A4,4,0,0,0,222.69,74.55Z"/><path class="cls-2" d="M242.37,80.79a6.27,6.27,0,0,1-3.13-.78A5.84,5.84,0,0,1,237,77.8a6.5,6.5,0,0,1-.83-3.3,6.11,6.11,0,0,1,.88-3.35A5.73,5.73,0,0,1,239.43,69a7.2,7.2,0,0,1,3.29-.73,6.91,6.91,0,0,1,2.81.59,5,5,0,0,1,2.09,1.65l-.16.93V58.56h2.8v22h-2.8V77.59l.33.73a6.94,6.94,0,0,1-5.42,2.47Zm.86-2.24a4.56,4.56,0,0,0,2-.4,4.15,4.15,0,0,0,1.44-1.06,3.81,3.81,0,0,0,.82-1.57V73.28a3.61,3.61,0,0,0-.85-1.51,4.17,4.17,0,0,0-1.47-1,4.85,4.85,0,0,0-1.91-.36,4.35,4.35,0,0,0-2.07.51,4.17,4.17,0,0,0-1.53,1.42,4.12,4.12,0,0,0,0,4.18A4.42,4.42,0,0,0,241.16,78,4.06,4.06,0,0,0,243.23,78.55Z"/><path class="cls-2" d="M260.88,80.79a7.77,7.77,0,0,1-3.67-.81,5.86,5.86,0,0,1-2.36-2.21,6.14,6.14,0,0,1-.84-3.22,5.52,5.52,0,0,1,.94-3.14,6.88,6.88,0,0,1,2.51-2.27,7.06,7.06,0,0,1,3.48-.85A6.13,6.13,0,0,1,265,69.65a6.88,6.88,0,0,1,2.21,3.74L257,76.79l-.66-1.56,8.38-2.92-.57.4a4,4,0,0,0-1.2-1.62,3.4,3.4,0,0,0-2.2-.68,4,4,0,0,0-2,.51,3.72,3.72,0,0,0-1.4,1.41,4.11,4.11,0,0,0-.51,2.08,4.29,4.29,0,0,0,.53,2.13A3.75,3.75,0,0,0,258.79,78a4.33,4.33,0,0,0,2.15.52,4.48,4.48,0,0,0,1.57-.28A7.34,7.34,0,0,0,264,77.5l1.26,2a8.27,8.27,0,0,1-2.08,1A7.27,7.27,0,0,1,260.88,80.79Z"/><path class="cls-2" d="M269.8,77.93a1.59,1.59,0,0,1,1.09-.46,1.55,1.55,0,0,1,1,.46,1.4,1.4,0,0,1,.49,1.07,1.36,1.36,0,0,1-.49,1.1,1.63,1.63,0,0,1-1,.41,1.68,1.68,0,0,1-1.09-.41,1.37,1.37,0,0,1-.5-1.1A1.41,1.41,0,0,1,269.8,77.93Z"/><path class="cls-2" d="M285.92,80.51V60h5.91a14.59,14.59,0,0,1,5.49.92A9.62,9.62,0,0,1,303,66.78a11.46,11.46,0,0,1,.64,3.72,9.81,9.81,0,0,1-.86,4.17,9.37,9.37,0,0,1-2.34,3.14,10.45,10.45,0,0,1-3.42,2,11.89,11.89,0,0,1-4.1.7Zm2.91-2.64h3.51a10.27,10.27,0,0,0,3.29-.51,7.9,7.9,0,0,0,2.64-1.47A6.78,6.78,0,0,0,300,73.52,8.56,8.56,0,0,0,300,67a6.78,6.78,0,0,0-1.8-2.4,8,8,0,0,0-2.58-1.46,9.17,9.17,0,0,0-3-.5h-3.78Z"/><path class="cls-2" d="M313.58,80.79a7.73,7.73,0,0,1-3.66-.81,5.89,5.89,0,0,1-2.37-2.21,6.14,6.14,0,0,1-.84-3.22,5.53,5.53,0,0,1,1-3.14,6.93,6.93,0,0,1,2.5-2.27,7.12,7.12,0,0,1,3.48-.85,6.11,6.11,0,0,1,4.08,1.36,6.89,6.89,0,0,1,2.22,3.74l-10.26,3.4L309,75.23l8.37-2.92-.57.4a4,4,0,0,0-1.19-1.62,3.44,3.44,0,0,0-2.2-.68,4,4,0,0,0-2,.51,3.72,3.72,0,0,0-1.4,1.41,4.11,4.11,0,0,0-.51,2.08,4.29,4.29,0,0,0,.53,2.13A3.75,3.75,0,0,0,311.5,78a4.32,4.32,0,0,0,2.14.52,4.5,4.5,0,0,0,1.58-.28,7.34,7.34,0,0,0,1.45-.74l1.26,2a8.44,8.44,0,0,1-2.08,1A7.33,7.33,0,0,1,313.58,80.79Z"/><path class="cls-2" d="M333.5,79.4a6.14,6.14,0,0,1-2,1,7.62,7.62,0,0,1-2.34.37A7.89,7.89,0,0,1,325.6,80a5.84,5.84,0,0,1-2.42-2.16,6,6,0,0,1-.87-3.26,5.67,5.67,0,0,1,.93-3.25,6.35,6.35,0,0,1,2.42-2.12,7,7,0,0,1,3.22-.75,8.5,8.5,0,0,1,2.66.38,6.19,6.19,0,0,1,2,1.09l-1.41,1.7a6.23,6.23,0,0,0-1.3-.69,4.56,4.56,0,0,0-1.76-.33,4,4,0,0,0-2,.53,3.82,3.82,0,0,0-1.44,1.41,3.94,3.94,0,0,0-.53,2,3.83,3.83,0,0,0,.54,2,4,4,0,0,0,1.5,1.45,4.45,4.45,0,0,0,2.22.54,4.61,4.61,0,0,0,1.46-.23,4.46,4.46,0,0,0,1.21-.62Z"/><path class="cls-2" d="M336.89,64.52a1.3,1.3,0,0,1,.53-1,1.75,1.75,0,0,1,1.15-.43,1.71,1.71,0,0,1,1.14.43,1.35,1.35,0,0,1,0,2.11,1.79,1.79,0,0,1-1.14.41,1.84,1.84,0,0,1-1.15-.41A1.29,1.29,0,0,1,336.89,64.52Zm.18,4.25h2.82V80.51h-2.82Z"/><path class="cls-2" d="M349.79,80.79a6.23,6.23,0,0,1-3.12-.78,5.84,5.84,0,0,1-2.2-2.21,6.5,6.5,0,0,1-.83-3.3,6.19,6.19,0,0,1,.87-3.35A5.79,5.79,0,0,1,346.85,69a7.27,7.27,0,0,1,3.3-.73,6.94,6.94,0,0,1,2.81.59A5,5,0,0,1,355,70.53l-.15.93V58.56h2.79v22h-2.79V77.59l.33.73a7.08,7.08,0,0,1-2.29,1.78A7,7,0,0,1,349.79,80.79Zm.87-2.24a4.56,4.56,0,0,0,2-.4,4.15,4.15,0,0,0,1.44-1.06,3.81,3.81,0,0,0,.82-1.57V73.28a3.61,3.61,0,0,0-.85-1.51,4.17,4.17,0,0,0-1.47-1,4.89,4.89,0,0,0-1.91-.36,4.35,4.35,0,0,0-2.07.51,4,4,0,0,0-1.53,1.42,4.12,4.12,0,0,0,0,4.18A4.26,4.26,0,0,0,348.59,78,4.06,4.06,0,0,0,350.66,78.55Z"/><path class="cls-2" d="M368.3,80.79a7.73,7.73,0,0,1-3.66-.81,5.89,5.89,0,0,1-2.37-2.21,6.14,6.14,0,0,1-.84-3.22,5.53,5.53,0,0,1,.95-3.14,6.93,6.93,0,0,1,2.5-2.27,7.12,7.12,0,0,1,3.48-.85,6.11,6.11,0,0,1,4.08,1.36,6.89,6.89,0,0,1,2.22,3.74l-10.26,3.4-.66-1.56,8.37-2.92-.57.4a3.91,3.91,0,0,0-1.2-1.62,3.39,3.39,0,0,0-2.19-.68,4,4,0,0,0-2,.51,3.72,3.72,0,0,0-1.4,1.41,4.11,4.11,0,0,0-.51,2.08,4.29,4.29,0,0,0,.53,2.13A3.75,3.75,0,0,0,366.22,78a4.32,4.32,0,0,0,2.14.52,4.5,4.5,0,0,0,1.58-.28,7.34,7.34,0,0,0,1.45-.74l1.26,2a8.44,8.44,0,0,1-2.08,1A7.33,7.33,0,0,1,368.3,80.79Z"/><path class="cls-2" d="M392.66,80.79a6.23,6.23,0,0,1-3.12-.78,5.84,5.84,0,0,1-2.2-2.21,6.5,6.5,0,0,1-.83-3.3,6.19,6.19,0,0,1,.87-3.35A5.79,5.79,0,0,1,389.72,69a7.27,7.27,0,0,1,3.3-.73,6.94,6.94,0,0,1,2.81.59,5,5,0,0,1,2.08,1.65l-.15.93V58.56h2.79v22h-2.79V77.59l.33.73a7.08,7.08,0,0,1-2.29,1.78A7,7,0,0,1,392.66,80.79Zm.87-2.24a4.56,4.56,0,0,0,2-.4,4.15,4.15,0,0,0,1.44-1.06,3.81,3.81,0,0,0,.82-1.57V73.28a3.61,3.61,0,0,0-.85-1.51,4.17,4.17,0,0,0-1.47-1,4.89,4.89,0,0,0-1.91-.36,4.35,4.35,0,0,0-2.07.51,4,4,0,0,0-1.53,1.42,4.12,4.12,0,0,0,0,4.18A4.26,4.26,0,0,0,391.46,78,4.06,4.06,0,0,0,393.53,78.55Z"/><path class="cls-2" d="M405.2,64.52a1.3,1.3,0,0,1,.53-1,1.75,1.75,0,0,1,1.15-.43,1.71,1.71,0,0,1,1.14.43,1.35,1.35,0,0,1,0,2.11,1.79,1.79,0,0,1-1.14.41,1.84,1.84,0,0,1-1.15-.41A1.29,1.29,0,0,1,405.2,64.52Zm.18,4.25h2.82V80.51h-2.82Z"/><path class="cls-2" d="M426,80.73a7.45,7.45,0,0,1-2.56-.44A5,5,0,0,1,421.4,79l1.17-1.53a6.51,6.51,0,0,0,1.62,1.06,4.13,4.13,0,0,0,2.73.21,1.68,1.68,0,0,0,.83-.48,1.4,1.4,0,0,0-.12-1.89,3.68,3.68,0,0,0-1.1-.58q-.66-.22-1.44-.42A5.37,5.37,0,0,1,422.75,74a2.86,2.86,0,0,1-.81-2.06,3.29,3.29,0,0,1,.5-1.75,3.71,3.71,0,0,1,1.48-1.33,5.06,5.06,0,0,1,2.4-.53,8.19,8.19,0,0,1,2.31.3,5.73,5.73,0,0,1,1.92,1l-1.11,1.64a3.45,3.45,0,0,0-1.27-.81,3.94,3.94,0,0,0-1.34-.27,3.18,3.18,0,0,0-1,.16,1.86,1.86,0,0,0-.75.45,1,1,0,0,0-.29.76,1.1,1.1,0,0,0,.41,1,3.62,3.62,0,0,0,1.09.58l1.35.45a7,7,0,0,1,1.62.68,3.81,3.81,0,0,1,1.16,1.05,2.68,2.68,0,0,1,.43,1.56,3.74,3.74,0,0,1-.52,1.94,3.63,3.63,0,0,1-1.59,1.42A6.16,6.16,0,0,1,426,80.73Z"/><path class="cls-2" d="M442.07,80.79a6.28,6.28,0,0,1-2.71-.62,4.84,4.84,0,0,1-2-1.68l.15-.82v8.48h-2.79V68.6h2.43l.39,3-.3-.85A7.27,7.27,0,0,1,439.52,69a6.81,6.81,0,0,1,3.09-.69,6.33,6.33,0,0,1,3.14.78,5.63,5.63,0,0,1,2.2,2.21,6.62,6.62,0,0,1,.81,3.33,6.05,6.05,0,0,1-.87,3.27A5.72,5.72,0,0,1,445.51,80,7.66,7.66,0,0,1,442.07,80.79Zm-.54-2.1a4.6,4.6,0,0,0,2.19-.52,4.32,4.32,0,0,0,1.61-1.45,3.65,3.65,0,0,0,.61-2.08,3.9,3.9,0,0,0-.57-2.11,4,4,0,0,0-1.51-1.45,4.3,4.3,0,0,0-2.12-.53,4.72,4.72,0,0,0-1.95.39A3.86,3.86,0,0,0,438.35,72a4.06,4.06,0,0,0-.81,1.62v2a3.38,3.38,0,0,0,.72,1.56,4.06,4.06,0,0,0,1.43,1.12A4.1,4.1,0,0,0,441.53,78.69Z"/><path class="cls-2" d="M458.3,80.79a7.73,7.73,0,0,1-3.66-.81,5.89,5.89,0,0,1-2.37-2.21,6.14,6.14,0,0,1-.84-3.22,5.53,5.53,0,0,1,.95-3.14,6.93,6.93,0,0,1,2.5-2.27,7.12,7.12,0,0,1,3.48-.85,6.11,6.11,0,0,1,4.08,1.36,6.89,6.89,0,0,1,2.22,3.74l-10.26,3.4-.66-1.56,8.37-2.92-.57.4a3.91,3.91,0,0,0-1.2-1.62,3.39,3.39,0,0,0-2.19-.68,3.94,3.94,0,0,0-2,.51,3.72,3.72,0,0,0-1.4,1.41,4.11,4.11,0,0,0-.51,2.08,4.29,4.29,0,0,0,.53,2.13A3.75,3.75,0,0,0,456.22,78a4.32,4.32,0,0,0,2.14.52,4.5,4.5,0,0,0,1.58-.28,7.34,7.34,0,0,0,1.45-.74l1.26,2a8.44,8.44,0,0,1-2.08,1A7.38,7.38,0,0,1,458.3,80.79Z"/><path class="cls-2" d="M478.22,79.4a6.14,6.14,0,0,1-2,1,7.62,7.62,0,0,1-2.34.37,7.89,7.89,0,0,1-3.55-.76,5.84,5.84,0,0,1-2.42-2.16,6,6,0,0,1-.87-3.26,5.67,5.67,0,0,1,.93-3.25,6.28,6.28,0,0,1,2.42-2.12,7,7,0,0,1,3.22-.75,8.55,8.55,0,0,1,2.66.38A6.29,6.29,0,0,1,478.31,70l-1.41,1.7a6.23,6.23,0,0,0-1.3-.69,4.6,4.6,0,0,0-1.76-.33,4,4,0,0,0-2,.53,3.75,3.75,0,0,0-1.44,1.41,3.94,3.94,0,0,0-.53,2,3.83,3.83,0,0,0,.54,2,4,4,0,0,0,1.5,1.45,4.45,4.45,0,0,0,2.22.54,4.61,4.61,0,0,0,1.46-.23,4.46,4.46,0,0,0,1.21-.62Z"/><path class="cls-2" d="M481.61,64.52a1.32,1.32,0,0,1,.52-1,1.78,1.78,0,0,1,1.16-.43,1.71,1.71,0,0,1,1.14.43,1.35,1.35,0,0,1,0,2.11,1.79,1.79,0,0,1-1.14.41,1.87,1.87,0,0,1-1.16-.41A1.31,1.31,0,0,1,481.61,64.52Zm.18,4.25h2.82V80.51h-2.82Z"/><path class="cls-2" d="M494.63,80.79a7.06,7.06,0,0,1-3.17-.71A5.39,5.39,0,0,1,489.2,78a7.11,7.11,0,0,1,0-6.76,5.87,5.87,0,0,1,2.34-2.19,6.84,6.84,0,0,1,3.21-.76,5.5,5.5,0,0,1,3,.75,5.24,5.24,0,0,1,1.82,1.77l-.18.43.27-2.47h2.58V80.51h-2.79V77.45l.33.68a3.77,3.77,0,0,1-.57.72,7.74,7.74,0,0,1-1.06.89,6.34,6.34,0,0,1-1.52.75A6.06,6.06,0,0,1,494.63,80.79Zm.75-2.18a4.75,4.75,0,0,0,1.89-.37,3.74,3.74,0,0,0,1.39-1,3.69,3.69,0,0,0,.77-1.59V73.31a3.5,3.5,0,0,0-.84-1.49,4.19,4.19,0,0,0-1.44-1,4.77,4.77,0,0,0-1.83-.35,4.23,4.23,0,0,0-2.07.51,3.91,3.91,0,0,0-1.49,1.42,4,4,0,0,0-.55,2.13,3.87,3.87,0,0,0,.57,2.06,4.1,4.1,0,0,0,1.53,1.48A4.15,4.15,0,0,0,495.38,78.61Z"/><path class="cls-2" d="M507.05,58.56h2.82v22h-2.82Z"/><path class="cls-2" d="M514.52,64.52a1.29,1.29,0,0,1,.52-1A1.78,1.78,0,0,1,516.2,63a1.71,1.71,0,0,1,1.14.43,1.35,1.35,0,0,1,0,2.11,1.79,1.79,0,0,1-1.14.41,1.87,1.87,0,0,1-1.16-.41A1.28,1.28,0,0,1,514.52,64.52Zm.18,4.25h2.82V80.51H514.7Z"/><path class="cls-2" d="M523.52,70.92a2.38,2.38,0,0,1-1.58-.54,2,2,0,0,1-.64-1.61V67.63h2.13V68c0,.33.07.53.22.63a1.59,1.59,0,0,0,.77.14h8L525,78.86l-.57-.54h7.89v2.19H520.79l7.59-10.32.48.73Z"/><path class="cls-2" d="M537.41,70.92a2.38,2.38,0,0,1-1.58-.54,2,2,0,0,1-.64-1.61V67.63h2.13V68c0,.33.07.53.22.63a1.59,1.59,0,0,0,.77.14h8l-7.44,10.09-.57-.54h7.89v2.19H534.68l7.59-10.32.48.73Z"/><path class="cls-2" d="M555.32,80.79a7.06,7.06,0,0,1-3.17-.71A5.39,5.39,0,0,1,549.89,78a7.11,7.11,0,0,1,0-6.76,5.87,5.87,0,0,1,2.34-2.19,6.84,6.84,0,0,1,3.21-.76,5.5,5.5,0,0,1,2.95.75,5.24,5.24,0,0,1,1.82,1.77l-.18.43.27-2.47h2.58V80.51h-2.79V77.45l.33.68a3.77,3.77,0,0,1-.57.72,7.3,7.3,0,0,1-1.07.89,6,6,0,0,1-3.49,1.05Zm.75-2.18a4.75,4.75,0,0,0,1.89-.37,3.74,3.74,0,0,0,1.39-1,3.81,3.81,0,0,0,.77-1.59V73.31a3.5,3.5,0,0,0-.84-1.49,4.19,4.19,0,0,0-1.44-1,4.77,4.77,0,0,0-1.83-.35,4.23,4.23,0,0,0-2.07.51,3.91,3.91,0,0,0-1.49,1.42,4,4,0,0,0-.55,2.13,3.87,3.87,0,0,0,.57,2.06A4.1,4.1,0,0,0,554,78.07,4.15,4.15,0,0,0,556.07,78.61Z"/><path class="cls-2" d="M570.26,68.77l.27,3.4-.12-.48a5.09,5.09,0,0,1,1.38-1.81,6.65,6.65,0,0,1,1.92-1.17,5.7,5.7,0,0,1,1.74-.42L575.33,71a4.29,4.29,0,0,0-2.51.5A4.67,4.67,0,0,0,571.14,73a3.87,3.87,0,0,0-.61,2.11v5.36h-2.79V68.77Z"/><path class="cls-2" d="M582.53,80.73a7.47,7.47,0,0,1-2.57-.44A5,5,0,0,1,577.91,79l1.17-1.53a6.51,6.51,0,0,0,1.62,1.06,4.13,4.13,0,0,0,2.73.21,1.65,1.65,0,0,0,.82-.48,1.38,1.38,0,0,0-.12-1.89,3.74,3.74,0,0,0-1.09-.58q-.66-.22-1.44-.42A5.31,5.31,0,0,1,579.26,74a2.82,2.82,0,0,1-.81-2.06,3.28,3.28,0,0,1,.49-1.75,3.74,3.74,0,0,1,1.49-1.33,5,5,0,0,1,2.4-.53,8.19,8.19,0,0,1,2.31.3,5.73,5.73,0,0,1,1.92,1L586,71.29a3.49,3.49,0,0,0-1.28-.81,3.89,3.89,0,0,0-1.33-.27,3.29,3.29,0,0,0-1,.16,1.86,1.86,0,0,0-.75.45,1.06,1.06,0,0,0-.29.76,1.13,1.13,0,0,0,.41,1,3.74,3.74,0,0,0,1.09.58l1.36.45a7,7,0,0,1,1.62.68,3.77,3.77,0,0,1,1.15,1.05,2.68,2.68,0,0,1,.44,1.56,3.75,3.75,0,0,1-.53,1.94,3.63,3.63,0,0,1-1.59,1.42A6.12,6.12,0,0,1,582.53,80.73Z"/><path class="cls-2" d="M591,64.52a1.3,1.3,0,0,1,.53-1,1.78,1.78,0,0,1,1.16-.43,1.71,1.71,0,0,1,1.14.43,1.35,1.35,0,0,1,0,2.11,1.79,1.79,0,0,1-1.14.41,1.87,1.87,0,0,1-1.16-.41A1.29,1.29,0,0,1,591,64.52Zm.19,4.25H594V80.51h-2.81Z"/><path class="cls-2" d="M608.17,64.52a1.3,1.3,0,0,1,.53-1,1.78,1.78,0,0,1,1.16-.43,1.68,1.68,0,0,1,1.13.43,1.35,1.35,0,0,1,0,2.11,1.77,1.77,0,0,1-1.13.41,1.87,1.87,0,0,1-1.16-.41A1.29,1.29,0,0,1,608.17,64.52Zm.19,4.25h2.81V80.51h-2.81Z"/><path class="cls-2" d="M618.55,68.77l.21,2.86-.09-.45a4.43,4.43,0,0,1,1.92-2.08,6.18,6.18,0,0,1,3.15-.78,4.23,4.23,0,0,1,2.87,1,3.31,3.31,0,0,1,1.15,2.54v8.68h-2.82V72.74a2.35,2.35,0,0,0-.58-1.55,2.26,2.26,0,0,0-1.73-.61,3.49,3.49,0,0,0-1.93.57,3.87,3.87,0,0,0-1.38,1.56,5.09,5.09,0,0,0-.5,2.3v5.5H616V68.77Z"/><path class="cls-2" d="M36.51,113.43a6.55,6.55,0,0,1-2,1,8.3,8.3,0,0,1-5.89-.4,5.78,5.78,0,0,1-2.42-2.16,6,6,0,0,1-.87-3.26,5.64,5.64,0,0,1,.93-3.24,6.29,6.29,0,0,1,2.42-2.13,7,7,0,0,1,3.22-.75,8.69,8.69,0,0,1,2.65.38A6.32,6.32,0,0,1,36.6,104l-1.41,1.71a6.07,6.07,0,0,0-1.31-.7,4.47,4.47,0,0,0-1.75-.33,4,4,0,0,0-2,.53,3.85,3.85,0,0,0-1.44,1.42,3.81,3.81,0,0,0-.53,2,3.89,3.89,0,0,0,.54,2,4,4,0,0,0,1.5,1.44,4.45,4.45,0,0,0,2.22.54,4.49,4.49,0,0,0,2.67-.85Z"/><path class="cls-2" d="M40.08,114.53V92.59h2.76v12.93l-.06-.49a5.08,5.08,0,0,1,1.93-1.92,6,6,0,0,1,3.11-.77,4.23,4.23,0,0,1,2.87,1,3.29,3.29,0,0,1,1.15,2.54v8.67H49v-7.77a2.35,2.35,0,0,0-.58-1.54,2.24,2.24,0,0,0-1.73-.61,3.42,3.42,0,0,0-1.93.58,4,4,0,0,0-1.39,1.57A5,5,0,0,0,42.9,109v5.5Z"/><path class="cls-2" d="M56.49,98.54A1.28,1.28,0,0,1,57,97.49a1.79,1.79,0,0,1,1.15-.42,1.75,1.75,0,0,1,1.14.42,1.32,1.32,0,0,1,.51,1.05,1.3,1.3,0,0,1-.51,1.06,1.74,1.74,0,0,1-1.14.41A1.78,1.78,0,0,1,57,99.6,1.26,1.26,0,0,1,56.49,98.54Zm.18,4.25h2.82v11.74H56.67Z"/><path class="cls-2" d="M66.84,102.79l.27,3.41-.12-.49a5.17,5.17,0,0,1,1.38-1.81,6.61,6.61,0,0,1,1.92-1.16,5.47,5.47,0,0,1,1.74-.43L71.91,105a4.29,4.29,0,0,0-2.51.49,4.76,4.76,0,0,0-1.68,1.59,3.89,3.89,0,0,0-.61,2.11v5.36H64.32V102.79Z"/><path class="cls-2" d="M79.59,115a4.11,4.11,0,0,1-2.84-1,3.45,3.45,0,0,1-1.15-2.54v-8.68h2.82v7.74a2.5,2.5,0,0,0,.6,1.55,2.2,2.2,0,0,0,1.68.64,3.1,3.1,0,0,0,1.84-.59,4.18,4.18,0,0,0,1.34-1.58,5,5,0,0,0,.51-2.28v-5.48h2.79v11.74H84.63l-.24-2.89.18.54a4.69,4.69,0,0,1-1.11,1.43,5.37,5.37,0,0,1-1.73,1A6.28,6.28,0,0,1,79.59,115Z"/><path class="cls-2" d="M94.5,102.79l.27,3.41-.12-.49A5.17,5.17,0,0,1,96,103.9,6.61,6.61,0,0,1,98,102.74a5.47,5.47,0,0,1,1.74-.43L99.57,105a4.29,4.29,0,0,0-2.51.49,4.76,4.76,0,0,0-1.68,1.59,3.89,3.89,0,0,0-.61,2.11v5.36H92V102.79Z"/><path class="cls-2" d="M108.75,120.37a8.68,8.68,0,0,1-2.45-.31,7.61,7.61,0,0,1-1.92-.85,18.71,18.71,0,0,1-1.66-1.19l1.65-1.82a9.26,9.26,0,0,0,2,1.34,5.29,5.29,0,0,0,2.28.48,5.81,5.81,0,0,0,2.38-.44,3.3,3.3,0,0,0,1.47-1.21,3.39,3.39,0,0,0,.53-1.78l0-3.18.24.51a4.57,4.57,0,0,1-2,2.06,6.57,6.57,0,0,1-3.42.83,6.17,6.17,0,0,1-3.12-.82,6.47,6.47,0,0,1-2.31-2.22,5.89,5.89,0,0,1-.87-3.16,6,6,0,0,1,.9-3.27,6.43,6.43,0,0,1,2.38-2.22,6.65,6.65,0,0,1,3.23-.81,6.94,6.94,0,0,1,3,.64,4.77,4.77,0,0,1,2,1.63l-.18.48.27-2.27h2.58v11.83a5.18,5.18,0,0,1-.86,2.89,6,6,0,0,1-2.46,2.08A8.58,8.58,0,0,1,108.75,120.37Zm-4.29-11.82a3.85,3.85,0,0,0,.58,2.07,4.24,4.24,0,0,0,1.56,1.47,4.37,4.37,0,0,0,2.15.54,5,5,0,0,0,2-.38,4.25,4.25,0,0,0,1.49-1.06,4,4,0,0,0,.84-1.51v-2.35a3.49,3.49,0,0,0-.9-1.47,4.75,4.75,0,0,0-1.5-1,5,5,0,0,0-1.92-.37,4.47,4.47,0,0,0-2.15.53,4.21,4.21,0,0,0-1.56,1.43A3.79,3.79,0,0,0,104.46,108.55Z"/><path class="cls-2" d="M120.51,98.54a1.3,1.3,0,0,1,.52-1.05,1.82,1.82,0,0,1,1.16-.42,1.75,1.75,0,0,1,1.14.42,1.32,1.32,0,0,1,.51,1.05,1.3,1.3,0,0,1-.51,1.06,1.74,1.74,0,0,1-1.14.41A1.81,1.81,0,0,1,121,99.6,1.28,1.28,0,0,1,120.51,98.54Zm.18,4.25h2.82v11.74h-2.82Z"/><path class="cls-2" d="M133.53,114.81a7.06,7.06,0,0,1-3.17-.7A5.48,5.48,0,0,1,128.1,112a6.3,6.3,0,0,1-.84-3.36,6.39,6.39,0,0,1,.87-3.4,5.85,5.85,0,0,1,2.34-2.18,6.85,6.85,0,0,1,3.21-.77,5.5,5.5,0,0,1,2.95.75,5.24,5.24,0,0,1,1.82,1.77l-.18.43.27-2.47h2.58v11.74h-2.79v-3.06l.33.68a3.49,3.49,0,0,1-.57.72,7.32,7.32,0,0,1-1.07.9,6.08,6.08,0,0,1-1.51.75A6.35,6.35,0,0,1,133.53,114.81Zm.75-2.18a4.59,4.59,0,0,0,1.89-.37,3.54,3.54,0,0,0,1.39-1.05,3.83,3.83,0,0,0,.77-1.58v-2.3a3.56,3.56,0,0,0-.84-1.49,4.16,4.16,0,0,0-1.44-1,4.6,4.6,0,0,0-1.83-.36,4.23,4.23,0,0,0-2.07.51,4,4,0,0,0-1.49,1.42,4,4,0,0,0-.55,2.13,3.93,3.93,0,0,0,.57,2.07,4.22,4.22,0,0,0,3.6,2Z"/><path class="cls-2" d="M161.46,120.37a8.68,8.68,0,0,1-2.45-.31,7.61,7.61,0,0,1-1.92-.85,18.71,18.71,0,0,1-1.66-1.19l1.65-1.82a9.26,9.26,0,0,0,2,1.34,5.29,5.29,0,0,0,2.28.48,5.81,5.81,0,0,0,2.38-.44,3.3,3.3,0,0,0,1.47-1.21,3.39,3.39,0,0,0,.53-1.78l0-3.18.24.51a4.57,4.57,0,0,1-2,2.06,6.57,6.57,0,0,1-3.42.83,6.17,6.17,0,0,1-3.12-.82,6.39,6.39,0,0,1-2.31-2.22,5.8,5.8,0,0,1-.87-3.16,6,6,0,0,1,.9-3.27,6.43,6.43,0,0,1,2.38-2.22,6.65,6.65,0,0,1,3.23-.81,6.94,6.94,0,0,1,3,.64,4.77,4.77,0,0,1,2,1.63l-.18.48.27-2.27h2.58v11.83a5.18,5.18,0,0,1-.86,2.89,6,6,0,0,1-2.46,2.08A8.58,8.58,0,0,1,161.46,120.37Zm-4.29-11.82a3.85,3.85,0,0,0,.58,2.07,4.24,4.24,0,0,0,1.56,1.47,4.37,4.37,0,0,0,2.15.54,5,5,0,0,0,2-.38,4.25,4.25,0,0,0,1.49-1.06,4,4,0,0,0,.84-1.51v-2.35a3.49,3.49,0,0,0-.9-1.47,4.75,4.75,0,0,0-1.5-1,5,5,0,0,0-1.92-.37,4.47,4.47,0,0,0-2.15.53,4.21,4.21,0,0,0-1.56,1.43A3.79,3.79,0,0,0,157.17,108.55Z"/><path class="cls-2" d="M179.19,114.81a7.82,7.82,0,0,1-3.66-.8,5.85,5.85,0,0,1-2.37-2.22,6.1,6.1,0,0,1-.84-3.21,5.55,5.55,0,0,1,.94-3.15,6.88,6.88,0,0,1,2.51-2.27,7.06,7.06,0,0,1,3.48-.85,6.13,6.13,0,0,1,4.08,1.36,7,7,0,0,1,2.21,3.74l-10.25,3.41-.66-1.56,8.37-2.92-.57.39a3.82,3.82,0,0,0-1.2-1.61,3.33,3.33,0,0,0-2.19-.68,4,4,0,0,0-2,.51,3.74,3.74,0,0,0-1.39,1.4,4.15,4.15,0,0,0-.51,2.09,4.24,4.24,0,0,0,.52,2.12A3.69,3.69,0,0,0,177.1,112a4.36,4.36,0,0,0,2.15.53,4.45,4.45,0,0,0,1.57-.29,7.66,7.66,0,0,0,1.46-.73l1.26,2a8.92,8.92,0,0,1-2.09,1A7.56,7.56,0,0,1,179.19,114.81Z"/><path class="cls-2" d="M191.54,102.79l.22,2.87-.09-.46a4.38,4.38,0,0,1,1.92-2.08,6.15,6.15,0,0,1,3.14-.78,4.23,4.23,0,0,1,2.87,1,3.33,3.33,0,0,1,1.16,2.54v8.67h-2.82v-7.77a2.31,2.31,0,0,0-.59-1.54,2.21,2.21,0,0,0-1.72-.61,3.59,3.59,0,0,0-1.94.56,3.87,3.87,0,0,0-1.38,1.56,5.12,5.12,0,0,0-.5,2.3v5.5H189V102.79Z"/><path class="cls-2" d="M211.38,114.81a7.89,7.89,0,0,1-3.67-.8,5.88,5.88,0,0,1-2.36-2.22,6.1,6.1,0,0,1-.84-3.21,5.55,5.55,0,0,1,.94-3.15,6.88,6.88,0,0,1,2.51-2.27,7.06,7.06,0,0,1,3.48-.85,6.13,6.13,0,0,1,4.08,1.36,7,7,0,0,1,2.21,3.74l-10.26,3.41-.66-1.56,8.38-2.92-.57.39a3.9,3.9,0,0,0-1.2-1.61,3.34,3.34,0,0,0-2.2-.68,4,4,0,0,0-2,.51,3.76,3.76,0,0,0-1.4,1.4,4.15,4.15,0,0,0-.51,2.09,4.25,4.25,0,0,0,.53,2.12,3.69,3.69,0,0,0,1.47,1.46,4.34,4.34,0,0,0,2.15.53,4.5,4.5,0,0,0,1.57-.29,7.3,7.3,0,0,0,1.45-.73l1.26,2a8.66,8.66,0,0,1-2.08,1A7.56,7.56,0,0,1,211.38,114.81Z"/><path class="cls-2" d="M223.71,102.79l.26,3.41-.11-.49a5,5,0,0,1,1.37-1.81,6.61,6.61,0,0,1,1.92-1.16,5.47,5.47,0,0,1,1.74-.43l-.11,2.67a4.27,4.27,0,0,0-2.51.49,4.76,4.76,0,0,0-1.68,1.59,3.9,3.9,0,0,0-.62,2.11v5.36h-2.78V102.79Z"/><path class="cls-2" d="M237.21,114.81a7,7,0,0,1-3.17-.7,5.42,5.42,0,0,1-2.26-2.09,6.21,6.21,0,0,1-.84-3.36,6.39,6.39,0,0,1,.86-3.4,5.85,5.85,0,0,1,2.34-2.18,6.92,6.92,0,0,1,3.22-.77,5.53,5.53,0,0,1,2.95.75,5.33,5.33,0,0,1,1.82,1.77l-.18.43.26-2.47h2.58v11.74H242v-3.06l.33.68a3.74,3.74,0,0,1-.56.72,7.89,7.89,0,0,1-1.07.9,6.26,6.26,0,0,1-1.51.75A6.39,6.39,0,0,1,237.21,114.81Zm.75-2.18a4.62,4.62,0,0,0,1.89-.37,3.61,3.61,0,0,0,1.39-1.05,3.69,3.69,0,0,0,.76-1.58v-2.3a3.56,3.56,0,0,0-.84-1.49,4.07,4.07,0,0,0-1.44-1,4.6,4.6,0,0,0-1.83-.36,4.26,4.26,0,0,0-2.07.51,3.89,3.89,0,0,0-2,3.55,3.84,3.84,0,0,0,.57,2.07,4,4,0,0,0,1.52,1.47A4.19,4.19,0,0,0,238,112.63Z"/><path class="cls-2" d="M249.63,92.59h2.81v21.94h-2.81Z"/><path class="cls-2" d="M263.06,114.81a7.85,7.85,0,0,1-3.66-.8,5.91,5.91,0,0,1-2.37-2.22,6.1,6.1,0,0,1-.84-3.21,5.56,5.56,0,0,1,.95-3.15,6.93,6.93,0,0,1,2.5-2.27,7.12,7.12,0,0,1,3.48-.85,6.11,6.11,0,0,1,4.08,1.36,7,7,0,0,1,2.22,3.74l-10.26,3.41-.66-1.56,8.37-2.92-.57.39a3.82,3.82,0,0,0-1.2-1.61,3.33,3.33,0,0,0-2.19-.68,4,4,0,0,0-2,.51,3.76,3.76,0,0,0-1.4,1.4,4.15,4.15,0,0,0-.51,2.09,4.25,4.25,0,0,0,.53,2.12A3.69,3.69,0,0,0,261,112a4.33,4.33,0,0,0,2.14.53,4.51,4.51,0,0,0,1.58-.29,7.3,7.3,0,0,0,1.45-.73l1.26,2a8.84,8.84,0,0,1-2.08,1A7.62,7.62,0,0,1,263.06,114.81Z"/><path class="cls-2" d="M275.45,112l-1.3,3c-.43,1-.87,2-1.31,3h-2.31c.42-1,.82-2,1.2-3s.76-2,1.14-3Z"/><path class="cls-2" d="M292.43,115a4.09,4.09,0,0,1-2.83-1,3.46,3.46,0,0,1-1.16-2.54v-8.68h2.82v7.74a2.5,2.5,0,0,0,.6,1.55,2.2,2.2,0,0,0,1.68.64,3.13,3.13,0,0,0,1.85-.59,4.15,4.15,0,0,0,1.33-1.58,5,5,0,0,0,.51-2.28v-5.48H300v11.74h-2.55l-.24-2.89.18.54a4.69,4.69,0,0,1-1.11,1.43,5.32,5.32,0,0,1-1.72,1A6.34,6.34,0,0,1,292.43,115Z"/><path class="cls-2" d="M307.37,102.79l.21,2.87-.09-.46a4.43,4.43,0,0,1,1.92-2.08,6.18,6.18,0,0,1,3.15-.78,4.23,4.23,0,0,1,2.87,1,3.29,3.29,0,0,1,1.15,2.54v8.67h-2.82v-7.77a2.3,2.3,0,0,0-.58-1.54,2.22,2.22,0,0,0-1.73-.61,3.56,3.56,0,0,0-1.93.56,3.87,3.87,0,0,0-1.38,1.56,5.12,5.12,0,0,0-.5,2.3v5.5h-2.82V102.79Z"/><path class="cls-2" d="M341,113.43a6.55,6.55,0,0,1-2,1,8.3,8.3,0,0,1-5.89-.4,5.84,5.84,0,0,1-2.42-2.16,6,6,0,0,1-.87-3.26,5.64,5.64,0,0,1,.93-3.24,6.29,6.29,0,0,1,2.42-2.13,7,7,0,0,1,3.22-.75,8.81,8.81,0,0,1,2.66.38,6.38,6.38,0,0,1,2,1.09l-1.41,1.71a6.22,6.22,0,0,0-1.3-.7,4.56,4.56,0,0,0-1.76-.33,4,4,0,0,0-2,.53,3.85,3.85,0,0,0-1.44,1.42,4.08,4.08,0,0,0,0,4,4,4,0,0,0,1.5,1.44,4.45,4.45,0,0,0,2.22.54,4.34,4.34,0,0,0,1.46-.23,4.19,4.19,0,0,0,1.21-.62Z"/><path class="cls-2" d="M349.76,114.81a7,7,0,0,1-3.16-.7,5.51,5.51,0,0,1-2.27-2.09,6.3,6.3,0,0,1-.84-3.36,6.39,6.39,0,0,1,.87-3.4,5.85,5.85,0,0,1,2.34-2.18,6.85,6.85,0,0,1,3.21-.77,5.54,5.54,0,0,1,3,.75,5.21,5.21,0,0,1,1.81,1.77l-.18.43.27-2.47h2.58v11.74h-2.79v-3.06l.33.68a3.49,3.49,0,0,1-.57.72,7.19,7.19,0,0,1-1.06.9,6.16,6.16,0,0,1-1.52.75A6.35,6.35,0,0,1,349.76,114.81Zm.75-2.18a4.59,4.59,0,0,0,1.89-.37,3.57,3.57,0,0,0,1.4-1.05,3.81,3.81,0,0,0,.76-1.58v-2.3a3.56,3.56,0,0,0-.84-1.49,4.16,4.16,0,0,0-1.44-1,4.6,4.6,0,0,0-1.83-.36,4.23,4.23,0,0,0-2.07.51,4,4,0,0,0-1.48,1.42,4,4,0,0,0-.56,2.13,3.93,3.93,0,0,0,.57,2.07,4.22,4.22,0,0,0,3.6,2Z"/><path class="cls-2" d="M364.73,102.79l.24,2.64-.15-.23a5.27,5.27,0,0,1,2-2.11,5.51,5.51,0,0,1,2.95-.78,4.81,4.81,0,0,1,1.83.33,3.64,3.64,0,0,1,1.34.9,2.81,2.81,0,0,1,.67,1.41l-.15.11a5.2,5.2,0,0,1,2-2,5.36,5.36,0,0,1,2.68-.72,4.11,4.11,0,0,1,2.9,1,3.55,3.55,0,0,1,1.12,2.53v8.7h-2.82v-7.74a2.82,2.82,0,0,0-.46-1.52,1.81,1.81,0,0,0-1.52-.63,3.19,3.19,0,0,0-1.93.61,3.91,3.91,0,0,0-1.32,1.58,5.29,5.29,0,0,0-.5,2.14v5.56h-2.82v-7.74a2.6,2.6,0,0,0-.49-1.52,1.89,1.89,0,0,0-1.55-.63,3.16,3.16,0,0,0-1.92.61,4.16,4.16,0,0,0-1.32,1.6A4.87,4.87,0,0,0,365,109v5.53h-2.82V102.79Z"/><path class="cls-2" d="M394.28,114.81a6.14,6.14,0,0,1-2.71-.62,4.75,4.75,0,0,1-2-1.67l.15-.82v8.47h-2.79V102.62h2.43l.39,3-.3-.85a7,7,0,0,1,2.28-1.77,6.69,6.69,0,0,1,3.09-.7,6.33,6.33,0,0,1,3.14.78,5.7,5.7,0,0,1,2.2,2.21,6.68,6.68,0,0,1,.81,3.33,6.11,6.11,0,0,1-.87,3.28,5.79,5.79,0,0,1-2.39,2.15A7.59,7.59,0,0,1,394.28,114.81Zm-.54-2.09a4.6,4.6,0,0,0,2.19-.53,4.38,4.38,0,0,0,1.61-1.44,3.69,3.69,0,0,0,.61-2.09,3.92,3.92,0,0,0-.57-2.11,4.12,4.12,0,0,0-1.51-1.45,4.3,4.3,0,0,0-2.12-.52A4.88,4.88,0,0,0,392,105a3.89,3.89,0,0,0-1.44,1.07,4,4,0,0,0-.81,1.61v2a3.47,3.47,0,0,0,.72,1.56,4.19,4.19,0,0,0,3.27,1.53Z"/><path class="cls-2" d="M403.64,108.55a5.91,5.91,0,0,1,.89-3.18,6.28,6.28,0,0,1,2.46-2.24,7.59,7.59,0,0,1,3.58-.82,7.34,7.34,0,0,1,3.54.82,6.15,6.15,0,0,1,2.39,2.24,6.06,6.06,0,0,1,.85,3.18,6,6,0,0,1-.85,3.17,6.2,6.2,0,0,1-2.39,2.26,7.3,7.3,0,0,1-3.57.83A7.89,7.89,0,0,1,407,114a6.11,6.11,0,0,1-2.45-2.19A6,6,0,0,1,403.64,108.55Zm2.82,0a4,4,0,0,0,.54,2,4,4,0,0,0,1.44,1.46,3.89,3.89,0,0,0,2,.54,3.92,3.92,0,0,0,3.5-2,4.32,4.32,0,0,0,0-4.11,4.11,4.11,0,0,0-1.43-1.47,3.87,3.87,0,0,0-2.07-.56,3.79,3.79,0,0,0-2.05.57,4.19,4.19,0,0,0-1.44,1.49A3.92,3.92,0,0,0,406.46,108.58Z"/><path class="cls-2" d="M440.66,113.43a6.55,6.55,0,0,1-2,1,8.3,8.3,0,0,1-5.89-.4,5.78,5.78,0,0,1-2.42-2.16,6,6,0,0,1-.87-3.26,5.64,5.64,0,0,1,.93-3.24,6.27,6.27,0,0,1,2.41-2.13,7.07,7.07,0,0,1,3.23-.75,8.85,8.85,0,0,1,2.66.38,6.48,6.48,0,0,1,2.05,1.09l-1.41,1.71a6.49,6.49,0,0,0-1.3-.7,4.6,4.6,0,0,0-1.76-.33,4,4,0,0,0-2,.53,3.8,3.8,0,0,0-1.45,1.42,4.11,4.11,0,0,0,0,4,4,4,0,0,0,1.5,1.44,4.45,4.45,0,0,0,2.22.54,4.38,4.38,0,0,0,1.46-.23,4.19,4.19,0,0,0,1.21-.62Z"/><path class="cls-2" d="M444.23,114.53V92.59H447v12.93l-.06-.49a5,5,0,0,1,1.94-1.92,5.89,5.89,0,0,1,3.1-.77,4.21,4.21,0,0,1,2.86,1,3.3,3.3,0,0,1,1.16,2.54v8.67h-2.82v-7.77a2.26,2.26,0,0,0-.59-1.54,2.2,2.2,0,0,0-1.72-.61,3.45,3.45,0,0,0-1.94.58,4,4,0,0,0-1.38,1.57,5,5,0,0,0-.49,2.27v5.5Z"/><path class="cls-2" d="M466.61,114.81A7.85,7.85,0,0,1,463,114a5.91,5.91,0,0,1-2.37-2.22,6.1,6.1,0,0,1-.84-3.21,5.55,5.55,0,0,1,.94-3.15,7,7,0,0,1,2.51-2.27,7.12,7.12,0,0,1,3.48-.85,6.11,6.11,0,0,1,4.08,1.36,7,7,0,0,1,2.22,3.74l-10.26,3.41-.66-1.56,8.37-2.92-.57.39a3.82,3.82,0,0,0-1.2-1.61,3.33,3.33,0,0,0-2.19-.68,4,4,0,0,0-2,.51,3.74,3.74,0,0,0-1.39,1.4,4.15,4.15,0,0,0-.51,2.09,4.35,4.35,0,0,0,.52,2.12,3.65,3.65,0,0,0,1.48,1.46,4.3,4.3,0,0,0,2.14.53,4.45,4.45,0,0,0,1.57-.29,7.38,7.38,0,0,0,1.46-.73l1.26,2a9,9,0,0,1-2.08,1A7.67,7.67,0,0,1,466.61,114.81Z"/><path class="cls-2" d="M488.42,102.79l.27,3.41-.12-.49A5.17,5.17,0,0,1,490,103.9a6.61,6.61,0,0,1,1.92-1.16,5.47,5.47,0,0,1,1.74-.43l-.12,2.67a4.29,4.29,0,0,0-2.51.49,4.76,4.76,0,0,0-1.68,1.59,3.89,3.89,0,0,0-.61,2.11v5.36H485.9V102.79Z"/><path class="cls-2" d="M497,98.54a1.3,1.3,0,0,1,.52-1.05,1.82,1.82,0,0,1,1.16-.42,1.75,1.75,0,0,1,1.14.42,1.32,1.32,0,0,1,.51,1.05,1.3,1.3,0,0,1-.51,1.06,1.74,1.74,0,0,1-1.14.41,1.81,1.81,0,0,1-1.16-.41A1.28,1.28,0,0,1,497,98.54Zm.18,4.25H500v11.74h-2.82Z"/><path class="cls-2" d="M514.94,113.43a6.55,6.55,0,0,1-2,1,8.33,8.33,0,0,1-5.9-.4,5.81,5.81,0,0,1-2.41-2.16,6,6,0,0,1-.87-3.26,5.64,5.64,0,0,1,.93-3.24,6.27,6.27,0,0,1,2.41-2.13,7.07,7.07,0,0,1,3.23-.75,8.74,8.74,0,0,1,2.65.38A6.43,6.43,0,0,1,515,104l-1.41,1.71a6.32,6.32,0,0,0-1.31-.7,4.51,4.51,0,0,0-1.75-.33,4,4,0,0,0-2,.53,3.85,3.85,0,0,0-1.44,1.42,4.11,4.11,0,0,0,0,4,4,4,0,0,0,1.5,1.44,4.45,4.45,0,0,0,2.22.54,4.55,4.55,0,0,0,2.67-.85Z"/><path class="cls-2" d="M518.51,114.53V92.59h2.76v12.93l-.06-.49a5,5,0,0,1,1.93-1.92,6,6,0,0,1,3.11-.77,4.21,4.21,0,0,1,2.86,1,3.3,3.3,0,0,1,1.16,2.54v8.67h-2.82v-7.77a2.31,2.31,0,0,0-.59-1.54,2.2,2.2,0,0,0-1.72-.61,3.45,3.45,0,0,0-1.94.58,4,4,0,0,0-1.38,1.57,5,5,0,0,0-.49,2.27v5.5Z"/><path class="cls-2" d="M534.92,98.54a1.3,1.3,0,0,1,.52-1.05,1.82,1.82,0,0,1,1.16-.42,1.75,1.75,0,0,1,1.14.42,1.32,1.32,0,0,1,.51,1.05,1.3,1.3,0,0,1-.51,1.06,1.74,1.74,0,0,1-1.14.41,1.81,1.81,0,0,1-1.16-.41A1.28,1.28,0,0,1,534.92,98.54Zm.18,4.25h2.82v11.74H535.1Z"/><path class="cls-2" d="M548.54,114.81a7.85,7.85,0,0,1-3.66-.8,5.91,5.91,0,0,1-2.37-2.22,6.1,6.1,0,0,1-.84-3.21,5.55,5.55,0,0,1,.94-3.15,7,7,0,0,1,2.51-2.27,7.12,7.12,0,0,1,3.48-.85,6.11,6.11,0,0,1,4.08,1.36,7,7,0,0,1,2.22,3.74l-10.26,3.41-.66-1.56,8.37-2.92-.57.39a3.82,3.82,0,0,0-1.2-1.61,3.33,3.33,0,0,0-2.19-.68,4,4,0,0,0-2,.51,3.74,3.74,0,0,0-1.39,1.4,4.15,4.15,0,0,0-.51,2.09,4.24,4.24,0,0,0,.52,2.12,3.69,3.69,0,0,0,1.47,1.46,4.36,4.36,0,0,0,2.15.53,4.45,4.45,0,0,0,1.57-.29,7.38,7.38,0,0,0,1.46-.73l1.26,2a8.92,8.92,0,0,1-2.09,1A7.56,7.56,0,0,1,548.54,114.81Z"/><path class="cls-2" d="M563.42,114.81a6.37,6.37,0,0,1-3.13-.77,5.86,5.86,0,0,1-2.2-2.22,6.46,6.46,0,0,1-.82-3.3,6.13,6.13,0,0,1,.87-3.35,5.71,5.71,0,0,1,2.34-2.12,7.25,7.25,0,0,1,3.3-.74,6.74,6.74,0,0,1,2.8.6,4.94,4.94,0,0,1,2.09,1.64l-.15.94V92.59h2.79v21.94h-2.79v-2.92l.33.74a7,7,0,0,1-5.43,2.46Zm.87-2.24a4.66,4.66,0,0,0,2-.39,4.42,4.42,0,0,0,1.44-1.06,3.87,3.87,0,0,0,.83-1.58V107.3a3.53,3.53,0,0,0-.86-1.5,4.2,4.2,0,0,0-1.47-1,5,5,0,0,0-1.9-.35,4.38,4.38,0,0,0-2.08.51,4,4,0,0,0-1.52,1.42,3.75,3.75,0,0,0-.57,2.09,3.82,3.82,0,0,0,.57,2.09,4.37,4.37,0,0,0,1.52,1.47A4.1,4.1,0,0,0,564.29,112.57Z"/><path class="cls-2" d="M581.93,114.81a7.85,7.85,0,0,1-3.66-.8,5.91,5.91,0,0,1-2.37-2.22,6.1,6.1,0,0,1-.84-3.21,5.55,5.55,0,0,1,.94-3.15,6.88,6.88,0,0,1,2.51-2.27,7.09,7.09,0,0,1,3.48-.85,6.11,6.11,0,0,1,4.08,1.36,7,7,0,0,1,2.22,3.74L578,110.82l-.66-1.56,8.37-2.92-.57.39a3.82,3.82,0,0,0-1.2-1.61,3.33,3.33,0,0,0-2.19-.68,4,4,0,0,0-2,.51,3.74,3.74,0,0,0-1.39,1.4,4.15,4.15,0,0,0-.51,2.09,4.24,4.24,0,0,0,.52,2.12,3.69,3.69,0,0,0,1.47,1.46,4.36,4.36,0,0,0,2.15.53,4.45,4.45,0,0,0,1.57-.29,7.66,7.66,0,0,0,1.46-.73l1.26,2a8.92,8.92,0,0,1-2.09,1A7.56,7.56,0,0,1,581.93,114.81Z"/><path class="cls-2" d="M31.47,148.84a6.23,6.23,0,0,1-3.12-.78,5.93,5.93,0,0,1-2.21-2.21,6.63,6.63,0,0,1-.82-3.31,6.18,6.18,0,0,1,.87-3.34,5.72,5.72,0,0,1,2.34-2.13,7.28,7.28,0,0,1,3.3-.74,6.71,6.71,0,0,1,2.8.6,5,5,0,0,1,2.09,1.64l-.15.94v-12.9h2.79v21.94H36.57v-2.92l.33.74a7,7,0,0,1-5.43,2.47Zm.87-2.24a4.49,4.49,0,0,0,2-.4,4.22,4.22,0,0,0,1.45-1.06,3.91,3.91,0,0,0,.82-1.58v-2.23a3.52,3.52,0,0,0-.86-1.51,4.13,4.13,0,0,0-1.46-1,4.89,4.89,0,0,0-1.91-.36,4.35,4.35,0,0,0-2.07.51,4,4,0,0,0-1.53,1.42,4.12,4.12,0,0,0,0,4.18,4.26,4.26,0,0,0,1.53,1.48A4.16,4.16,0,0,0,32.34,146.6Z"/><path class="cls-2" d="M50,148.84a7.73,7.73,0,0,1-3.66-.81A6,6,0,0,1,44,145.82a6.16,6.16,0,0,1-.84-3.22,5.65,5.65,0,0,1,.94-3.15,7,7,0,0,1,2.51-2.26,7.12,7.12,0,0,1,3.48-.86,6.12,6.12,0,0,1,4.08,1.37,6.89,6.89,0,0,1,2.22,3.74l-10.26,3.4-.66-1.56,8.37-2.92-.57.4a3.85,3.85,0,0,0-1.2-1.62,3.39,3.39,0,0,0-2.19-.68,4,4,0,0,0-2,.51,3.69,3.69,0,0,0-1.39,1.41,4.11,4.11,0,0,0-.51,2.08,4.31,4.31,0,0,0,.53,2.13,3.75,3.75,0,0,0,1.47,1.46,4.32,4.32,0,0,0,2.14.52,4.5,4.5,0,0,0,1.58-.28,7.34,7.34,0,0,0,1.45-.74l1.26,2a9.24,9.24,0,0,1-2.08,1A7.69,7.69,0,0,1,50,148.84Z"/><path class="cls-2" d="M64.86,148.84a6.23,6.23,0,0,1-3.12-.78,5.84,5.84,0,0,1-2.2-2.21,6.43,6.43,0,0,1-.83-3.31,6.18,6.18,0,0,1,.87-3.34,5.72,5.72,0,0,1,2.34-2.13,7.28,7.28,0,0,1,3.3-.74,6.82,6.82,0,0,1,2.81.6,5.13,5.13,0,0,1,2.08,1.64l-.15.94v-12.9h2.79v21.94H70v-2.92l.33.74a7,7,0,0,1-5.43,2.47Zm.87-2.24a4.56,4.56,0,0,0,2-.4,4.14,4.14,0,0,0,1.43-1.06,3.7,3.7,0,0,0,.83-1.58v-2.23a3.61,3.61,0,0,0-.85-1.51,4.12,4.12,0,0,0-1.48-1,4.84,4.84,0,0,0-1.9-.36,4.35,4.35,0,0,0-2.07.51,4,4,0,0,0-1.53,1.42,4.12,4.12,0,0,0,0,4.18,4.26,4.26,0,0,0,1.53,1.48A4.16,4.16,0,0,0,65.73,146.6Z"/><path class="cls-2" d="M77.4,132.56a1.3,1.3,0,0,1,.53-1.05,1.79,1.79,0,0,1,1.15-.42,1.75,1.75,0,0,1,1.14.42,1.33,1.33,0,0,1,.51,1.05,1.32,1.32,0,0,1-.51,1.07,1.79,1.79,0,0,1-1.14.41,1.84,1.84,0,0,1-1.15-.41A1.28,1.28,0,0,1,77.4,132.56Zm.18,4.26H80.4v11.73H77.58Z"/><path class="cls-2" d="M86.4,139a2.38,2.38,0,0,1-1.58-.54,2,2,0,0,1-.64-1.61v-1.14h2.13v.37c0,.32.07.53.23.63a1.54,1.54,0,0,0,.76.14h8l-7.44,10.09-.57-.54h7.89v2.18H83.67l7.59-10.32.48.74Z"/><path class="cls-2" d="M98.94,132.56a1.32,1.32,0,0,1,.52-1.05,1.82,1.82,0,0,1,1.16-.42,1.75,1.75,0,0,1,1.14.42,1.33,1.33,0,0,1,.51,1.05,1.32,1.32,0,0,1-.51,1.07,1.79,1.79,0,0,1-1.14.41,1.87,1.87,0,0,1-1.16-.41A1.3,1.3,0,0,1,98.94,132.56Zm.18,4.26h2.82v11.73H99.12Z"/><path class="cls-2" d="M105.69,142.57a5.84,5.84,0,0,1,.88-3.17,6.21,6.21,0,0,1,2.46-2.24,7.63,7.63,0,0,1,3.59-.83,7.35,7.35,0,0,1,3.54.83,6.19,6.19,0,0,1,2.38,8.59,6.14,6.14,0,0,1-2.38,2.25,7.3,7.3,0,0,1-3.57.84,7.81,7.81,0,0,1-3.56-.78,6.14,6.14,0,0,1-2.44-2.18A6,6,0,0,1,105.69,142.57Zm2.82,0a4,4,0,0,0,.54,2.06,4.11,4.11,0,0,0,1.44,1.46,3.89,3.89,0,0,0,2,.54,3.89,3.89,0,0,0,3.49-2,4.15,4.15,0,0,0-1.42-5.59,3.86,3.86,0,0,0-2.07-.55,3.91,3.91,0,0,0-2.06.56,4.19,4.19,0,0,0-1.44,1.49A4,4,0,0,0,108.51,142.6Z"/><path class="cls-2" d="M125.67,136.82l.21,2.86-.09-.45a4.45,4.45,0,0,1,1.92-2.09,6.18,6.18,0,0,1,3.15-.78,4.21,4.21,0,0,1,2.86,1,3.3,3.3,0,0,1,1.16,2.54v8.67h-2.82v-7.76a2.33,2.33,0,0,0-.59-1.55,2.2,2.2,0,0,0-1.72-.61,3.52,3.52,0,0,0-1.94.57,3.87,3.87,0,0,0-1.38,1.56,5.08,5.08,0,0,0-.49,2.29v5.5h-2.82V136.82Z"/><path class="cls-2" d="M145.5,148.84a7.73,7.73,0,0,1-3.66-.81,6,6,0,0,1-2.37-2.21,6.16,6.16,0,0,1-.84-3.22,5.57,5.57,0,0,1,.94-3.15,6.93,6.93,0,0,1,2.51-2.26,7.12,7.12,0,0,1,3.48-.86,6.12,6.12,0,0,1,4.08,1.37,6.89,6.89,0,0,1,2.22,3.74l-10.26,3.4-.66-1.56,8.37-2.92-.57.4a3.85,3.85,0,0,0-1.2-1.62,3.39,3.39,0,0,0-2.19-.68,4,4,0,0,0-2,.51,3.69,3.69,0,0,0-1.39,1.41,4.11,4.11,0,0,0-.51,2.08,4.31,4.31,0,0,0,.52,2.13,3.75,3.75,0,0,0,1.47,1.46,4.36,4.36,0,0,0,2.15.52,4.44,4.44,0,0,0,1.57-.28,7.42,7.42,0,0,0,1.46-.74l1.26,2a9.32,9.32,0,0,1-2.09,1A7.57,7.57,0,0,1,145.5,148.84Z"/><path class="cls-2" d="M166,131.66h2.85v5.21h3.39v2.07h-3.39v9.61H166v-9.61h-2.25v-2.07H166Z"/><path class="cls-2" d="M174.51,142.57a5.84,5.84,0,0,1,.88-3.17,6.21,6.21,0,0,1,2.46-2.24,7.63,7.63,0,0,1,3.59-.83,7.35,7.35,0,0,1,3.54.83,6.19,6.19,0,0,1,2.38,8.59A6.14,6.14,0,0,1,185,148a7.3,7.3,0,0,1-3.57.84,7.81,7.81,0,0,1-3.56-.78,6.14,6.14,0,0,1-2.44-2.18A6,6,0,0,1,174.51,142.57Zm2.82,0a4,4,0,0,0,.54,2.06,4.11,4.11,0,0,0,1.44,1.46,3.89,3.89,0,0,0,2,.54,3.89,3.89,0,0,0,3.49-2,4.15,4.15,0,0,0-1.42-5.59,3.86,3.86,0,0,0-2.07-.55,3.91,3.91,0,0,0-2.06.56,4.19,4.19,0,0,0-1.44,1.49A4,4,0,0,0,177.33,142.6Z"/><path class="cls-2" d="M193.14,131.66H196v5.21h3.39v2.07H196v9.61h-2.85v-9.61h-2.25v-2.07h2.25Z"/><path class="cls-2" d="M207.93,148.84a7.06,7.06,0,0,1-3.17-.71,5.46,5.46,0,0,1-2.26-2.08,7.13,7.13,0,0,1,0-6.77,5.92,5.92,0,0,1,2.34-2.18,6.85,6.85,0,0,1,3.21-.77,5.51,5.51,0,0,1,2.95.76,5.24,5.24,0,0,1,1.82,1.77l-.18.42.27-2.46h2.58v11.73h-2.79v-3.06l.33.68a3.77,3.77,0,0,1-.57.73,7.3,7.3,0,0,1-1.07.89,6,6,0,0,1-3.49,1.05Zm.75-2.18a4.75,4.75,0,0,0,1.89-.37,3.74,3.74,0,0,0,1.39-1,3.87,3.87,0,0,0,.77-1.59v-2.3a3.53,3.53,0,0,0-.84-1.48,4.19,4.19,0,0,0-1.44-1,4.77,4.77,0,0,0-1.83-.35,4.23,4.23,0,0,0-2.07.51,3.91,3.91,0,0,0-1.49,1.42,4,4,0,0,0-.55,2.12,3.88,3.88,0,0,0,.57,2.07,4.1,4.1,0,0,0,1.53,1.48A4.15,4.15,0,0,0,208.68,146.66Z"/><path class="cls-2" d="M220.35,126.61h2.82v21.94h-2.82Z"/><path class="cls-2" d="M233.79,148.84a7.7,7.7,0,0,1-3.66-.81,5.89,5.89,0,0,1-2.37-2.21,6.16,6.16,0,0,1-.84-3.22,5.57,5.57,0,0,1,.94-3.15,6.85,6.85,0,0,1,2.51-2.26,7.07,7.07,0,0,1,3.48-.86,6.14,6.14,0,0,1,4.08,1.37,6.88,6.88,0,0,1,2.21,3.74l-10.26,3.4-.66-1.56,8.38-2.92-.57.4a3.93,3.93,0,0,0-1.2-1.62,3.4,3.4,0,0,0-2.2-.68,4,4,0,0,0-2,.51,3.72,3.72,0,0,0-1.4,1.41,4.21,4.21,0,0,0-.5,2.08,4.31,4.31,0,0,0,.52,2.13,3.75,3.75,0,0,0,1.47,1.46,4.33,4.33,0,0,0,2.15.52,4.48,4.48,0,0,0,1.57-.28,7.71,7.71,0,0,0,1.46-.74l1.25,2a9,9,0,0,1-2.08,1A7.57,7.57,0,0,1,233.79,148.84Z"/><path class="cls-2" d="M242.71,146a1.58,1.58,0,0,1,1.09-.45,1.54,1.54,0,0,1,1,.45,1.43,1.43,0,0,1,.49,1.08,1.33,1.33,0,0,1-.49,1.09,1.58,1.58,0,0,1-1,.41,1.63,1.63,0,0,1-1.09-.41,1.33,1.33,0,0,1-.5-1.09A1.45,1.45,0,0,1,242.71,146Z"/><path class="cls-2" d="M25,182.58l9.45-21.35h.18l9.48,21.35H40.74l-7.08-17,2.07-1.28-7.89,18.32Zm5.55-7.77h8.07l1,2.38H29.67Z"/><path class="cls-2" d="M48.48,182.58v-9.39H46.32v-2.38h2.16v-4.93A5.62,5.62,0,0,1,49.7,162a4.56,4.56,0,0,1,3.61-1.36,5.9,5.9,0,0,1,1.38.17,3.74,3.74,0,0,1,1.32.56l-1.17,1.9a1.22,1.22,0,0,0-.57-.35,2.26,2.26,0,0,0-.69-.1,2.12,2.12,0,0,0-1.71.71,3.8,3.8,0,0,0-.6,2.44v4.87H55.2v2.38H51.27v9.39Zm9.18,0v-9.39H55.5v-2.38h2.16v-4.93A5.62,5.62,0,0,1,58.88,162a4.58,4.58,0,0,1,3.61-1.36,5.9,5.9,0,0,1,1.38.17,3.74,3.74,0,0,1,1.32.56L64,163.24a1.22,1.22,0,0,0-.57-.35,2.26,2.26,0,0,0-.69-.1,2.12,2.12,0,0,0-1.71.71,3.8,3.8,0,0,0-.6,2.44v4.87h3.93v2.38H60.45v9.39Z"/><path class="cls-2" d="M70.35,170.84l.27,3.4-.12-.48A5.17,5.17,0,0,1,71.88,172a6.88,6.88,0,0,1,1.92-1.17,5.7,5.7,0,0,1,1.74-.42L75.42,173a4.29,4.29,0,0,0-2.51.5,4.76,4.76,0,0,0-1.68,1.59,3.87,3.87,0,0,0-.61,2.11v5.36H67.83V170.84Z"/><path class="cls-2" d="M77.49,176.6a5.88,5.88,0,0,1,.88-3.18,6.28,6.28,0,0,1,2.46-2.24,7.63,7.63,0,0,1,3.59-.82,7.34,7.34,0,0,1,3.54.82,6.12,6.12,0,0,1,2.38,2.24,6.29,6.29,0,0,1,0,6.35A6.17,6.17,0,0,1,88,182a7.41,7.41,0,0,1-3.57.83,7.81,7.81,0,0,1-3.56-.78,6.06,6.06,0,0,1-2.44-2.18A6,6,0,0,1,77.49,176.6Zm2.82,0a4,4,0,0,0,.54,2.05,4.11,4.11,0,0,0,1.44,1.46,3.89,3.89,0,0,0,2,.54,3.89,3.89,0,0,0,3.49-2,4.25,4.25,0,0,0,0-4.11,4.11,4.11,0,0,0-1.42-1.48,4,4,0,0,0-2.07-.55,3.82,3.82,0,0,0-2.06.57,4.11,4.11,0,0,0-1.44,1.49A4,4,0,0,0,80.31,176.63Z"/><path class="cls-2" d="M97.47,170.84l.21,2.87-.09-.46a4.43,4.43,0,0,1,1.92-2.08,6.18,6.18,0,0,1,3.15-.78,4.16,4.16,0,0,1,2.86,1,3.28,3.28,0,0,1,1.16,2.53v8.68h-2.82v-7.77a2.31,2.31,0,0,0-.59-1.54,2.2,2.2,0,0,0-1.72-.61,3.51,3.51,0,0,0-1.94.56,3.87,3.87,0,0,0-1.38,1.56,5.09,5.09,0,0,0-.49,2.3v5.5H94.92V170.84Z"/><path class="cls-2" d="M112.71,165.68h2.85v5.22H119V173h-3.39v9.61h-2.85V173h-2.25V170.9h2.25Z"/><path class="cls-2" d="M127.5,182.86a6.93,6.93,0,0,1-3.17-.71,5.39,5.39,0,0,1-2.26-2.08,7.11,7.11,0,0,1,0-6.76,5.78,5.78,0,0,1,2.34-2.18,6.73,6.73,0,0,1,3.21-.77,5.5,5.5,0,0,1,2.95.75,5.24,5.24,0,0,1,1.82,1.77l-.18.43.27-2.47h2.58v11.74H132.3v-3.06l.33.68a3.49,3.49,0,0,1-.57.72,7.3,7.3,0,0,1-1.07.89,5.47,5.47,0,0,1-1.51.75A6.06,6.06,0,0,1,127.5,182.86Zm.75-2.18a4.59,4.59,0,0,0,1.89-.37,3.64,3.64,0,0,0,1.39-1.05,3.81,3.81,0,0,0,.77-1.59v-2.29a3.5,3.5,0,0,0-.84-1.49,4,4,0,0,0-1.44-1,4.6,4.6,0,0,0-1.83-.36,4.23,4.23,0,0,0-2.07.51,3.87,3.87,0,0,0-2,3.55,3.93,3.93,0,0,0,.57,2.07,4.22,4.22,0,0,0,3.6,2Z"/><path class="cls-2" d="M153.39,183a4.07,4.07,0,0,1-2.84-1,3.41,3.41,0,0,1-1.15-2.53v-8.68h2.82v7.74a2.5,2.5,0,0,0,.6,1.55,2.2,2.2,0,0,0,1.68.63,3.1,3.1,0,0,0,1.84-.58,4.18,4.18,0,0,0,1.34-1.58,5,5,0,0,0,.51-2.29v-5.47H161v11.74h-2.55l-.24-2.89.18.54a4.69,4.69,0,0,1-1.11,1.43,5.35,5.35,0,0,1-1.73,1A6.06,6.06,0,0,1,153.39,183Z"/><path class="cls-2" d="M168.33,170.84l.21,2.87-.09-.46a4.43,4.43,0,0,1,1.92-2.08,6.18,6.18,0,0,1,3.15-.78,4.16,4.16,0,0,1,2.86,1,3.28,3.28,0,0,1,1.16,2.53v8.68h-2.82v-7.77a2.31,2.31,0,0,0-.59-1.54,2.2,2.2,0,0,0-1.72-.61,3.51,3.51,0,0,0-1.94.56,3.87,3.87,0,0,0-1.38,1.56,5.09,5.09,0,0,0-.49,2.3v5.5h-2.82V170.84Z"/><path class="cls-2" d="M187.56,182.86a6.93,6.93,0,0,1-3.17-.71,5.39,5.39,0,0,1-2.26-2.08,7.11,7.11,0,0,1,0-6.76,5.78,5.78,0,0,1,2.34-2.18,6.73,6.73,0,0,1,3.21-.77,5.5,5.5,0,0,1,2.95.75,5.24,5.24,0,0,1,1.82,1.77l-.18.43.27-2.47h2.58v11.74h-2.79v-3.06l.33.68a3.49,3.49,0,0,1-.57.72,7.3,7.3,0,0,1-1.07.89,5.47,5.47,0,0,1-1.51.75A6.06,6.06,0,0,1,187.56,182.86Zm.75-2.18a4.59,4.59,0,0,0,1.89-.37,3.64,3.64,0,0,0,1.39-1.05,3.81,3.81,0,0,0,.77-1.59v-2.29a3.5,3.5,0,0,0-.84-1.49,4,4,0,0,0-1.44-1,4.6,4.6,0,0,0-1.83-.36,4.23,4.23,0,0,0-2.07.51,3.87,3.87,0,0,0-2,3.55,3.93,3.93,0,0,0,.57,2.07,4.22,4.22,0,0,0,3.6,2Z"/><path class="cls-2" d="M219.56,181.47a6,6,0,0,1-2,1,7.53,7.53,0,0,1-2.34.37,7.92,7.92,0,0,1-3.55-.76,5.75,5.75,0,0,1-2.41-2.16,5.91,5.91,0,0,1-.87-3.26,5.68,5.68,0,0,1,.92-3.24,6.37,6.37,0,0,1,2.42-2.13,7.07,7.07,0,0,1,3.23-.75,8.74,8.74,0,0,1,2.65.38,6.38,6.38,0,0,1,2.05,1.09l-1.4,1.7a7.17,7.17,0,0,0-1.31-.69,4.55,4.55,0,0,0-1.75-.33,4,4,0,0,0-2,.53,3.9,3.9,0,0,0-1.44,1.41,4.17,4.17,0,0,0,0,4,4.15,4.15,0,0,0,1.5,1.44,4.52,4.52,0,0,0,2.23.54,4.59,4.59,0,0,0,1.45-.23,4.52,4.52,0,0,0,1.22-.62Z"/><path class="cls-2" d="M222.05,176.6a5.89,5.89,0,0,1,.89-3.18,6.28,6.28,0,0,1,2.46-2.24,7.59,7.59,0,0,1,3.58-.82,7.38,7.38,0,0,1,3.55.82,6.19,6.19,0,0,1,2.38,2.24,6.29,6.29,0,0,1,0,6.35,6.24,6.24,0,0,1-2.38,2.26,7.44,7.44,0,0,1-3.57.83,7.81,7.81,0,0,1-3.56-.78,5.93,5.93,0,0,1-3.35-5.48Zm2.83,0a4,4,0,0,0,.53,2.05,4.14,4.14,0,0,0,1.45,1.46,3.85,3.85,0,0,0,2,.54,3.89,3.89,0,0,0,2.07-.54,4,4,0,0,0,1.43-1.46,4.32,4.32,0,0,0,0-4.11,4.14,4.14,0,0,0-1.43-1.48,3.9,3.9,0,0,0-2.07-.55,3.79,3.79,0,0,0-2,.57,4.11,4.11,0,0,0-1.44,1.49A4,4,0,0,0,224.88,176.63Z"/><path class="cls-2" d="M242,170.84l.24,2.64-.15-.23a5.18,5.18,0,0,1,2-2.11,5.53,5.53,0,0,1,2.95-.78,4.9,4.9,0,0,1,1.84.33,3.6,3.6,0,0,1,1.33.9,2.73,2.73,0,0,1,.67,1.41l-.15.11a5.14,5.14,0,0,1,2-2,5.36,5.36,0,0,1,2.68-.72,4.1,4.1,0,0,1,2.9,1,3.49,3.49,0,0,1,1.12,2.53v8.7h-2.81v-7.74a2.79,2.79,0,0,0-.47-1.52,1.82,1.82,0,0,0-1.52-.64,3.28,3.28,0,0,0-1.93.61,4.09,4.09,0,0,0-1.32,1.59,5.25,5.25,0,0,0-.5,2.14v5.56h-2.82v-7.74a2.58,2.58,0,0,0-.49-1.52,1.92,1.92,0,0,0-1.54-.64,3.24,3.24,0,0,0-1.93.61,4.08,4.08,0,0,0-1.31,1.61,4.75,4.75,0,0,0-.49,2.15v5.53h-2.82V170.84Z"/><path class="cls-2" d="M271.58,182.86a6.28,6.28,0,0,1-2.71-.62,4.73,4.73,0,0,1-2-1.67l.15-.83v8.48h-2.8V170.67h2.43l.39,3-.3-.85a7.19,7.19,0,0,1,2.29-1.78,6.78,6.78,0,0,1,3.09-.69,6.29,6.29,0,0,1,3.13.78,5.7,5.7,0,0,1,2.2,2.21,6.65,6.65,0,0,1,.82,3.33,6.12,6.12,0,0,1-.88,3.28,5.76,5.76,0,0,1-2.38,2.15A7.66,7.66,0,0,1,271.58,182.86Zm-.54-2.1a4.6,4.6,0,0,0,2.19-.52,4.32,4.32,0,0,0,1.61-1.45,3.64,3.64,0,0,0,.62-2.08,3.93,3.93,0,0,0-.58-2.11,4,4,0,0,0-1.51-1.45,4.27,4.27,0,0,0-2.12-.52,4.75,4.75,0,0,0-1.95.38,3.85,3.85,0,0,0-1.43,1.06,4,4,0,0,0-.82,1.62v2a3.3,3.3,0,0,0,.73,1.56,3.83,3.83,0,0,0,1.42,1.12A4.1,4.1,0,0,0,271,180.76Z"/><path class="cls-2" d="M287.81,182.86a7.73,7.73,0,0,1-3.66-.81,5.73,5.73,0,0,1-2.36-2.21,6,6,0,0,1-.84-3.21,5.53,5.53,0,0,1,.94-3.15,6.93,6.93,0,0,1,2.5-2.27,7.13,7.13,0,0,1,3.49-.85,6.13,6.13,0,0,1,4.08,1.36,7,7,0,0,1,2.21,3.74l-10.26,3.41-.66-1.57,8.38-2.92-.58.4a3.88,3.88,0,0,0-1.19-1.61,3.38,3.38,0,0,0-2.2-.68,4,4,0,0,0-2,.51,3.69,3.69,0,0,0-1.4,1.4,4.11,4.11,0,0,0-.51,2.08,4.26,4.26,0,0,0,.53,2.13,3.75,3.75,0,0,0,1.47,1.46,4.33,4.33,0,0,0,2.15.52,4.48,4.48,0,0,0,1.57-.28,6.84,6.84,0,0,0,1.45-.74l1.26,2a8.44,8.44,0,0,1-2.08,1A7.33,7.33,0,0,1,287.81,182.86Z"/><path class="cls-2" d="M298.82,165.68h2.85v5.22h3.39V173h-3.39v9.61h-2.85V173h-2.25V170.9h2.25Z"/><path class="cls-2" d="M308.24,166.59a1.3,1.3,0,0,1,.53-1.05,1.81,1.81,0,0,1,1.15-.43,1.76,1.76,0,0,1,1.14.43,1.35,1.35,0,0,1,0,2.11,1.74,1.74,0,0,1-1.14.41,1.78,1.78,0,0,1-1.15-.41A1.29,1.29,0,0,1,308.24,166.59Zm.18,4.25h2.82v11.74h-2.82Z"/><path class="cls-2" d="M317.24,173a2.36,2.36,0,0,1-1.57-.54,2,2,0,0,1-.65-1.62v-1.13h2.13v.37a.69.69,0,0,0,.23.62,1.54,1.54,0,0,0,.76.14h8l-7.44,10.09-.57-.53H326v2.18H314.51l7.59-10.32.48.74Z"/><path class="cls-2" d="M329.78,166.59a1.3,1.3,0,0,1,.53-1.05,1.81,1.81,0,0,1,1.15-.43,1.76,1.76,0,0,1,1.14.43,1.35,1.35,0,0,1,0,2.11,1.74,1.74,0,0,1-1.14.41,1.78,1.78,0,0,1-1.15-.41A1.29,1.29,0,0,1,329.78,166.59Zm.18,4.25h2.82v11.74H330Z"/><path class="cls-2" d="M336.53,176.6a5.89,5.89,0,0,1,.89-3.18,6.28,6.28,0,0,1,2.46-2.24,7.59,7.59,0,0,1,3.58-.82,7.34,7.34,0,0,1,3.54.82,6.15,6.15,0,0,1,2.39,2.24,6.35,6.35,0,0,1,0,6.35A6.2,6.2,0,0,1,347,182a7.41,7.41,0,0,1-3.57.83,7.76,7.76,0,0,1-3.55-.78,6.09,6.09,0,0,1-2.45-2.18A6,6,0,0,1,336.53,176.6Zm2.82,0a4,4,0,0,0,.54,2.05,4.11,4.11,0,0,0,1.44,1.46,3.89,3.89,0,0,0,2,.54,3.94,3.94,0,0,0,2.07-.54,4,4,0,0,0,1.43-1.46,4.32,4.32,0,0,0,0-4.11,4.14,4.14,0,0,0-1.43-1.48,4,4,0,0,0-2.07-.55,3.79,3.79,0,0,0-2.05.57,4.11,4.11,0,0,0-1.44,1.49A4,4,0,0,0,339.35,176.63Z"/><path class="cls-2" d="M356.51,170.84l.21,2.87-.09-.46a4.43,4.43,0,0,1,1.92-2.08,6.18,6.18,0,0,1,3.15-.78,4.18,4.18,0,0,1,2.87,1,3.27,3.27,0,0,1,1.15,2.53v8.68H362.9v-7.77a2.3,2.3,0,0,0-.58-1.54,2.22,2.22,0,0,0-1.73-.61,3.48,3.48,0,0,0-1.93.56,3.87,3.87,0,0,0-1.38,1.56,5.09,5.09,0,0,0-.5,2.3v5.5H354V170.84Z"/><path class="cls-2" d="M376.34,182.86a7.73,7.73,0,0,1-3.66-.81,5.82,5.82,0,0,1-2.37-2.21,6.13,6.13,0,0,1-.84-3.21,5.54,5.54,0,0,1,.95-3.15,6.93,6.93,0,0,1,2.5-2.27,7.12,7.12,0,0,1,3.48-.85,6.11,6.11,0,0,1,4.08,1.36,7,7,0,0,1,2.22,3.74l-10.26,3.41-.66-1.57,8.37-2.92-.57.4a3.82,3.82,0,0,0-1.2-1.61,3.33,3.33,0,0,0-2.19-.68,4,4,0,0,0-2,.51,3.69,3.69,0,0,0-1.4,1.4,4.11,4.11,0,0,0-.51,2.08,4.26,4.26,0,0,0,.53,2.13,3.75,3.75,0,0,0,1.47,1.46,4.32,4.32,0,0,0,2.14.52,4.5,4.5,0,0,0,1.58-.28,6.84,6.84,0,0,0,1.45-.74l1.26,2a8.44,8.44,0,0,1-2.08,1A7.33,7.33,0,0,1,376.34,182.86Z"/><path class="cls-2" d="M400.82,182.86a6.89,6.89,0,0,1-3.16-.71,5.42,5.42,0,0,1-2.27-2.08,7.11,7.11,0,0,1,0-6.76,5.78,5.78,0,0,1,2.34-2.18,6.73,6.73,0,0,1,3.21-.77,5.54,5.54,0,0,1,3,.75,5.21,5.21,0,0,1,1.81,1.77l-.18.43.27-2.47h2.58v11.74h-2.79v-3.06l.33.68a3.49,3.49,0,0,1-.57.72,7.18,7.18,0,0,1-1.06.89,5.67,5.67,0,0,1-1.52.75A6.06,6.06,0,0,1,400.82,182.86Zm.75-2.18a4.59,4.59,0,0,0,1.89-.37,3.67,3.67,0,0,0,1.4-1.05,3.79,3.79,0,0,0,.76-1.59v-2.29a3.5,3.5,0,0,0-.84-1.49,4,4,0,0,0-1.44-1,4.6,4.6,0,0,0-1.83-.36,4.23,4.23,0,0,0-2.07.51,4,4,0,0,0-1.48,1.42,4,4,0,0,0-.56,2.13,3.93,3.93,0,0,0,.57,2.07,4.22,4.22,0,0,0,3.6,2Z"/><path class="cls-2" d="M419.27,188.42a8.61,8.61,0,0,1-2.44-.31,7.46,7.46,0,0,1-1.92-.85,18.85,18.85,0,0,1-1.67-1.19l1.65-1.82a8.85,8.85,0,0,0,2,1.33,5.15,5.15,0,0,0,2.28.49,5.78,5.78,0,0,0,2.38-.44,3.18,3.18,0,0,0,2-3l0-3.18.24.51a4.62,4.62,0,0,1-1.95,2.06,6.66,6.66,0,0,1-3.42.83,6.17,6.17,0,0,1-3.12-.82,6.41,6.41,0,0,1-2.31-2.23,5.84,5.84,0,0,1-.87-3.16,6,6,0,0,1,.9-3.26,6.46,6.46,0,0,1,2.39-2.22,6.61,6.61,0,0,1,3.22-.81,7,7,0,0,1,3,.64,4.73,4.73,0,0,1,2,1.63l-.18.48.27-2.27h2.58v11.82a5.18,5.18,0,0,1-.85,2.9,6,6,0,0,1-2.47,2.08A8.54,8.54,0,0,1,419.27,188.42ZM415,176.6a3.94,3.94,0,0,0,.58,2.07,4.26,4.26,0,0,0,1.57,1.47,4.33,4.33,0,0,0,2.14.54,5.09,5.09,0,0,0,2-.38,4.12,4.12,0,0,0,1.48-1.07,3.86,3.86,0,0,0,.84-1.5v-2.35a3.59,3.59,0,0,0-.9-1.48,4.9,4.9,0,0,0-1.5-1,5,5,0,0,0-1.92-.37,4.44,4.44,0,0,0-2.14.53,4.16,4.16,0,0,0-1.57,1.43A3.85,3.85,0,0,0,415,176.6Z"/><path class="cls-2" d="M437.24,188.42a8.68,8.68,0,0,1-2.45-.31,7.54,7.54,0,0,1-1.91-.85,17.49,17.49,0,0,1-1.67-1.19l1.65-1.82a8.85,8.85,0,0,0,2,1.33,5.15,5.15,0,0,0,2.28.49,5.9,5.9,0,0,0,2.39-.44,3.19,3.19,0,0,0,2-3l0-3.18.24.51a4.62,4.62,0,0,1-1.95,2.06,6.66,6.66,0,0,1-3.42.83,6.17,6.17,0,0,1-3.12-.82,6.41,6.41,0,0,1-2.31-2.23,5.84,5.84,0,0,1-.87-3.16,6,6,0,0,1,.9-3.26,6.46,6.46,0,0,1,2.39-2.22,6.58,6.58,0,0,1,3.22-.81,6.94,6.94,0,0,1,3,.64,4.77,4.77,0,0,1,2,1.63l-.18.48.27-2.27h2.58v11.82a5.19,5.19,0,0,1-.86,2.9,5.87,5.87,0,0,1-2.45,2.08A8.65,8.65,0,0,1,437.24,188.42ZM433,176.6a3.78,3.78,0,0,0,.59,2.07,4.24,4.24,0,0,0,1.56,1.47,4.31,4.31,0,0,0,2.14.54,5,5,0,0,0,2-.38,4.15,4.15,0,0,0,1.49-1.07,3.86,3.86,0,0,0,.84-1.5v-2.35a3.59,3.59,0,0,0-.9-1.48,4.9,4.9,0,0,0-1.5-1,5,5,0,0,0-1.92-.37,4.41,4.41,0,0,0-2.14.53,4.13,4.13,0,0,0-1.56,1.43A3.69,3.69,0,0,0,433,176.6Z"/><path class="cls-2" d="M453.17,183a4.07,4.07,0,0,1-2.84-1,3.41,3.41,0,0,1-1.15-2.53v-8.68H452v7.74a2.5,2.5,0,0,0,.6,1.55,2.2,2.2,0,0,0,1.68.63,3.15,3.15,0,0,0,1.85-.58,4.24,4.24,0,0,0,1.33-1.58,5,5,0,0,0,.51-2.29v-5.47h2.79v11.74h-2.55l-.24-2.89.18.54a4.69,4.69,0,0,1-1.11,1.43,5.35,5.35,0,0,1-1.73,1A6.06,6.06,0,0,1,453.17,183Z"/><path class="cls-2" d="M471.35,182.86a7.73,7.73,0,0,1-3.66-.81,5.82,5.82,0,0,1-2.37-2.21,6.13,6.13,0,0,1-.84-3.21,5.53,5.53,0,0,1,.94-3.15,7,7,0,0,1,2.51-2.27,7.12,7.12,0,0,1,3.48-.85,6.11,6.11,0,0,1,4.08,1.36,7,7,0,0,1,2.22,3.74l-10.26,3.41-.66-1.57,8.37-2.92-.57.4a3.82,3.82,0,0,0-1.2-1.61,3.33,3.33,0,0,0-2.19-.68,4,4,0,0,0-2,.51,3.67,3.67,0,0,0-1.39,1.4,4.11,4.11,0,0,0-.51,2.08,4.36,4.36,0,0,0,.52,2.13,3.71,3.71,0,0,0,1.48,1.46,4.29,4.29,0,0,0,2.14.52,4.44,4.44,0,0,0,1.57-.28,6.91,6.91,0,0,0,1.46-.74l1.26,2a8.61,8.61,0,0,1-2.08,1A7.38,7.38,0,0,1,471.35,182.86Z"/><path class="cls-2" d="M483.68,170.84l.27,3.4-.12-.48a5.17,5.17,0,0,1,1.38-1.81,6.88,6.88,0,0,1,1.92-1.17,5.7,5.7,0,0,1,1.74-.42l-.12,2.66a4.29,4.29,0,0,0-2.51.5,4.76,4.76,0,0,0-1.68,1.59,3.87,3.87,0,0,0-.61,2.11v5.36h-2.79V170.84Z"/><path class="cls-2" d="M495,170.84l.27,3.4-.12-.48a5.17,5.17,0,0,1,1.38-1.81,6.88,6.88,0,0,1,1.92-1.17,5.7,5.7,0,0,1,1.74-.42L500,173a4.29,4.29,0,0,0-2.51.5,4.76,4.76,0,0,0-1.68,1.59,3.87,3.87,0,0,0-.61,2.11v5.36h-2.79V170.84Z"/><path class="cls-2" d="M503.54,166.59a1.29,1.29,0,0,1,.52-1.05,1.83,1.83,0,0,1,1.16-.43,1.76,1.76,0,0,1,1.14.43,1.35,1.35,0,0,1,0,2.11,1.74,1.74,0,0,1-1.14.41,1.81,1.81,0,0,1-1.16-.41A1.28,1.28,0,0,1,503.54,166.59Zm.18,4.25h2.82v11.74h-2.82Z"/><path class="cls-2" d="M512.57,165.68h2.85v5.22h3.39V173h-3.39v9.61h-2.85V173h-2.25V170.9h2.25Z"/><path class="cls-2" d="M527.36,182.86a6.93,6.93,0,0,1-3.17-.71,5.39,5.39,0,0,1-2.26-2.08,7.11,7.11,0,0,1,0-6.76,5.78,5.78,0,0,1,2.34-2.18,6.73,6.73,0,0,1,3.21-.77,5.5,5.5,0,0,1,3,.75,5.24,5.24,0,0,1,1.82,1.77l-.18.43.27-2.47H535v11.74h-2.79v-3.06l.33.68a3.49,3.49,0,0,1-.57.72,7.3,7.3,0,0,1-1.07.89,5.47,5.47,0,0,1-1.51.75A6.06,6.06,0,0,1,527.36,182.86Zm.75-2.18a4.59,4.59,0,0,0,1.89-.37,3.64,3.64,0,0,0,1.39-1.05,3.81,3.81,0,0,0,.77-1.59v-2.29a3.5,3.5,0,0,0-.84-1.49,4,4,0,0,0-1.44-1,4.6,4.6,0,0,0-1.83-.36,4.23,4.23,0,0,0-2.07.51,3.87,3.87,0,0,0-2,3.55,3.93,3.93,0,0,0,.57,2.07,4.22,4.22,0,0,0,3.6,2Z"/><path class="cls-2" d="M556.61,182.86a6.32,6.32,0,0,1-2.72-.62,4.79,4.79,0,0,1-2-1.67l.15-.83v8.48h-2.79V170.67h2.43l.39,3-.3-.85a7.15,7.15,0,0,1,2.28-1.78,6.81,6.81,0,0,1,3.09-.69,6.29,6.29,0,0,1,3.13.78,5.72,5.72,0,0,1,2.21,2.21,6.65,6.65,0,0,1,.81,3.33,6.11,6.11,0,0,1-.87,3.28,5.79,5.79,0,0,1-2.39,2.15A7.65,7.65,0,0,1,556.61,182.86Zm-.54-2.1a4.6,4.6,0,0,0,2.19-.52,4.29,4.29,0,0,0,1.6-1.45,3.64,3.64,0,0,0,.62-2.08,3.92,3.92,0,0,0-.57-2.11,4.07,4.07,0,0,0-1.52-1.45,4.26,4.26,0,0,0-2.11-.52,4.71,4.71,0,0,0-1.95.38,4,4,0,0,0-1.44,1.06,4.12,4.12,0,0,0-.81,1.62v2a3.38,3.38,0,0,0,.72,1.56,3.91,3.91,0,0,0,1.42,1.12A4.14,4.14,0,0,0,556.07,180.76Z"/><path class="cls-2" d="M572.84,182.86a7.73,7.73,0,0,1-3.66-.81,5.82,5.82,0,0,1-2.37-2.21,6.13,6.13,0,0,1-.84-3.21,5.53,5.53,0,0,1,.94-3.15,7,7,0,0,1,2.51-2.27,7.12,7.12,0,0,1,3.48-.85,6.11,6.11,0,0,1,4.08,1.36,7,7,0,0,1,2.22,3.74l-10.26,3.41-.66-1.57,8.37-2.92-.57.4a3.82,3.82,0,0,0-1.2-1.61,3.33,3.33,0,0,0-2.19-.68,4,4,0,0,0-2,.51,3.67,3.67,0,0,0-1.39,1.4,4.11,4.11,0,0,0-.51,2.08,4.25,4.25,0,0,0,.52,2.13,3.75,3.75,0,0,0,1.47,1.46,4.36,4.36,0,0,0,2.15.52,4.44,4.44,0,0,0,1.57-.28,7.16,7.16,0,0,0,1.46-.74l1.26,2a8.51,8.51,0,0,1-2.09,1A7.27,7.27,0,0,1,572.84,182.86Z"/><path class="cls-2" d="M585.17,170.84l.27,3.4-.12-.48A5.06,5.06,0,0,1,586.7,172a6.74,6.74,0,0,1,1.92-1.17,5.64,5.64,0,0,1,1.74-.42l-.12,2.66a4.29,4.29,0,0,0-2.51.5,4.76,4.76,0,0,0-1.68,1.59,3.87,3.87,0,0,0-.61,2.11v5.36h-2.79V170.84Z"/><path class="cls-2" d="M31.59,216.89a7,7,0,0,1-3.16-.71,5.38,5.38,0,0,1-2.27-2.09,6.3,6.3,0,0,1-.84-3.36,6.39,6.39,0,0,1,.87-3.4,5.92,5.92,0,0,1,2.34-2.18,6.85,6.85,0,0,1,3.21-.77,5.56,5.56,0,0,1,3,.75,5.23,5.23,0,0,1,1.81,1.78l-.18.42.27-2.46h2.58V216.6H36.39v-3.06l.33.68a3.49,3.49,0,0,1-.57.72,6.63,6.63,0,0,1-1.06.9,6.34,6.34,0,0,1-1.52.75A6.06,6.06,0,0,1,31.59,216.89Zm.75-2.19a4.59,4.59,0,0,0,1.89-.37,3.65,3.65,0,0,0,1.4-1,3.91,3.91,0,0,0,.76-1.59v-2.3a3.56,3.56,0,0,0-.84-1.49,4.3,4.3,0,0,0-1.44-1,4.59,4.59,0,0,0-1.83-.35,4.23,4.23,0,0,0-2.07.51,4,4,0,0,0-1.49,1.41,4.12,4.12,0,0,0-.55,2.13,3.88,3.88,0,0,0,.57,2.07,4.07,4.07,0,0,0,1.53,1.47A4.15,4.15,0,0,0,32.34,214.7Z"/><path class="cls-2" d="M54.12,215.5a6.55,6.55,0,0,1-2,1,8.18,8.18,0,0,1-5.9-.4A5.85,5.85,0,0,1,43.8,214a6,6,0,0,1-.87-3.26,5.67,5.67,0,0,1,.93-3.25,6.29,6.29,0,0,1,2.42-2.13,7,7,0,0,1,3.22-.75,8.69,8.69,0,0,1,2.65.38,6.16,6.16,0,0,1,2.06,1.1l-1.41,1.7a6.07,6.07,0,0,0-1.31-.7,4.7,4.7,0,0,0-1.75-.32,4,4,0,0,0-2,.52,3.9,3.9,0,0,0-1.43,1.42,3.82,3.82,0,0,0-.53,2,3.88,3.88,0,0,0,2,3.45,4.45,4.45,0,0,0,2.22.54,4.5,4.5,0,0,0,1.45-.22,4.28,4.28,0,0,0,1.22-.63Z"/><path class="cls-2" d="M67.8,215.5a6.55,6.55,0,0,1-2,1,8.18,8.18,0,0,1-5.9-.4A5.85,5.85,0,0,1,57.48,214a6,6,0,0,1-.87-3.26,5.67,5.67,0,0,1,.93-3.25A6.22,6.22,0,0,1,60,205.33a7,7,0,0,1,3.22-.75,8.74,8.74,0,0,1,2.65.38,6.16,6.16,0,0,1,2.06,1.1l-1.41,1.7a6.07,6.07,0,0,0-1.31-.7,4.7,4.7,0,0,0-1.75-.32,4,4,0,0,0-2,.52,3.9,3.9,0,0,0-2,3.45,3.88,3.88,0,0,0,2,3.45,4.45,4.45,0,0,0,2.22.54,4.5,4.5,0,0,0,1.45-.22,4.28,4.28,0,0,0,1.22-.63Z"/><path class="cls-2" d="M77.16,216.89a7.73,7.73,0,0,1-3.66-.81,6,6,0,0,1-2.37-2.21,6.16,6.16,0,0,1-.84-3.22,5.57,5.57,0,0,1,.94-3.15,7.05,7.05,0,0,1,2.51-2.27,7.23,7.23,0,0,1,3.48-.85,6.16,6.16,0,0,1,4.08,1.36,7,7,0,0,1,2.22,3.75l-10.26,3.4-.66-1.56L81,208.41l-.57.4a3.79,3.79,0,0,0-1.2-1.62,3.39,3.39,0,0,0-2.19-.68,4,4,0,0,0-2,.51,3.74,3.74,0,0,0-1.39,1.4,4.15,4.15,0,0,0-.51,2.09,4.24,4.24,0,0,0,.52,2.12,3.69,3.69,0,0,0,1.47,1.46,4.53,4.53,0,0,0,3.72.24,6.87,6.87,0,0,0,1.46-.73l1.26,2a8.92,8.92,0,0,1-2.09,1A7.57,7.57,0,0,1,77.16,216.89Z"/><path class="cls-2" d="M92,216.89a6.23,6.23,0,0,1-3.12-.78,5.86,5.86,0,0,1-2.21-2.21,6.53,6.53,0,0,1-.82-3.31,6.15,6.15,0,0,1,.87-3.34,5.72,5.72,0,0,1,2.34-2.13,7.28,7.28,0,0,1,3.3-.74,6.74,6.74,0,0,1,2.8.6,5,5,0,0,1,2.09,1.64l-.15.94v-12.9h2.79V216.6H97.14v-2.92l.33.74A7.06,7.06,0,0,1,92,216.89Zm.87-2.24a4.67,4.67,0,0,0,2-.4,4.28,4.28,0,0,0,1.44-1.06,3.87,3.87,0,0,0,.83-1.58v-2.24a3.59,3.59,0,0,0-.86-1.5,4.34,4.34,0,0,0-1.47-1,5,5,0,0,0-1.9-.35,4.35,4.35,0,0,0-2.07.51,4,4,0,0,0-1.53,1.42,4.12,4.12,0,0,0,0,4.18,4.31,4.31,0,0,0,1.53,1.47A4.07,4.07,0,0,0,92.91,214.65Z"/><path class="cls-2" d="M110.55,216.89a7.73,7.73,0,0,1-3.66-.81,6,6,0,0,1-2.37-2.21,6.16,6.16,0,0,1-.84-3.22,5.57,5.57,0,0,1,.94-3.15,7.05,7.05,0,0,1,2.51-2.27,7.23,7.23,0,0,1,3.48-.85,6.16,6.16,0,0,1,4.08,1.36,7,7,0,0,1,2.22,3.75l-10.26,3.4-.66-1.56,8.37-2.92-.57.4a3.79,3.79,0,0,0-1.2-1.62,3.39,3.39,0,0,0-2.19-.68,4,4,0,0,0-2,.51,3.74,3.74,0,0,0-1.39,1.4,4.15,4.15,0,0,0-.51,2.09,4.24,4.24,0,0,0,.52,2.12,3.69,3.69,0,0,0,1.47,1.46,4.36,4.36,0,0,0,2.15.53,4.45,4.45,0,0,0,1.57-.29,6.87,6.87,0,0,0,1.46-.73l1.26,2a8.92,8.92,0,0,1-2.09,1A7.57,7.57,0,0,1,110.55,216.89Z"/><path class="cls-2" d="M122.88,204.87l.27,3.4-.12-.48a5.21,5.21,0,0,1,1.38-1.82,6.61,6.61,0,0,1,1.92-1.16,5.47,5.47,0,0,1,1.74-.43l-.12,2.67a4.29,4.29,0,0,0-2.51.49,4.76,4.76,0,0,0-1.68,1.59,3.89,3.89,0,0,0-.61,2.11v5.36h-2.79V204.87Z"/><path class="cls-2" d="M136.89,216.89a7.73,7.73,0,0,1-3.66-.81,6,6,0,0,1-2.37-2.21,6.16,6.16,0,0,1-.84-3.22,5.57,5.57,0,0,1,.94-3.15,7.05,7.05,0,0,1,2.51-2.27,7.23,7.23,0,0,1,3.48-.85,6.16,6.16,0,0,1,4.08,1.36,7,7,0,0,1,2.22,3.75L133,212.89l-.66-1.56,8.37-2.92-.57.4a3.79,3.79,0,0,0-1.2-1.62,3.39,3.39,0,0,0-2.19-.68,4,4,0,0,0-2,.51,3.74,3.74,0,0,0-1.39,1.4,4.15,4.15,0,0,0-.51,2.09,4.24,4.24,0,0,0,.52,2.12,3.69,3.69,0,0,0,1.47,1.46,4.36,4.36,0,0,0,2.15.53,4.45,4.45,0,0,0,1.57-.29,6.87,6.87,0,0,0,1.46-.73l1.26,2a8.92,8.92,0,0,1-2.09,1A7.57,7.57,0,0,1,136.89,216.89Z"/><path class="cls-2" d="M161.37,216.89a7.06,7.06,0,0,1-3.17-.71,5.42,5.42,0,0,1-2.26-2.09,6.3,6.3,0,0,1-.84-3.36,6.39,6.39,0,0,1,.87-3.4,5.92,5.92,0,0,1,2.34-2.18,6.85,6.85,0,0,1,3.21-.77,5.5,5.5,0,0,1,2.95.75,5.27,5.27,0,0,1,1.82,1.78l-.18.42.27-2.46H169V216.6h-2.79v-3.06l.33.68a3.49,3.49,0,0,1-.57.72,6.74,6.74,0,0,1-1.07.9,6,6,0,0,1-3.49,1Zm.75-2.19a4.59,4.59,0,0,0,1.89-.37,3.62,3.62,0,0,0,1.39-1,3.93,3.93,0,0,0,.77-1.59v-2.3a3.56,3.56,0,0,0-.84-1.49,4.3,4.3,0,0,0-1.44-1,4.59,4.59,0,0,0-1.83-.35,4.23,4.23,0,0,0-2.07.51,4,4,0,0,0-1.49,1.41,4,4,0,0,0-.55,2.13,3.88,3.88,0,0,0,.57,2.07,4.07,4.07,0,0,0,1.53,1.47A4.15,4.15,0,0,0,162.12,214.7Z"/><path class="cls-2" d="M173.79,194.66h2.82V216.6h-2.82Z"/><path class="cls-2" d="M181.44,194.66h2.82V216.6h-2.82Z"/><path class="cls-2" d="M194.28,216.89a7.06,7.06,0,0,1-3.17-.71,5.36,5.36,0,0,1-2.26-2.09,7.11,7.11,0,0,1,0-6.76,5.89,5.89,0,0,1,2.33-2.18,6.92,6.92,0,0,1,3.22-.77,5.53,5.53,0,0,1,2.95.75,5.36,5.36,0,0,1,1.82,1.78l-.18.42.27-2.46h2.58V216.6h-2.8v-3.06l.33.68a3.37,3.37,0,0,1-.56.72,7.22,7.22,0,0,1-1.07.9,6.26,6.26,0,0,1-1.51.75A6.1,6.1,0,0,1,194.28,216.89Zm.75-2.19a4.62,4.62,0,0,0,1.89-.37,3.69,3.69,0,0,0,1.39-1,3.79,3.79,0,0,0,.76-1.59v-2.3a3.56,3.56,0,0,0-.84-1.49,4.21,4.21,0,0,0-1.44-1,4.56,4.56,0,0,0-1.83-.35,4.29,4.29,0,0,0-2.07.51,3.86,3.86,0,0,0-2,3.54,3.8,3.8,0,0,0,.57,2.07,3.93,3.93,0,0,0,1.53,1.47A4.15,4.15,0,0,0,195,214.7Z"/><path class="cls-2" d="M219.68,216.83a7.7,7.7,0,0,1-2.56-.44,5,5,0,0,1-2.06-1.32l1.17-1.53a6.24,6.24,0,0,0,1.62,1.06,4,4,0,0,0,1.62.36,4.32,4.32,0,0,0,1.11-.14,1.77,1.77,0,0,0,.83-.49,1.39,1.39,0,0,0-.12-1.88,3.46,3.46,0,0,0-1.1-.58c-.44-.15-.92-.29-1.44-.43a5.36,5.36,0,0,1-2.34-1.33,2.9,2.9,0,0,1-.81-2.07,3.28,3.28,0,0,1,.5-1.74,3.73,3.73,0,0,1,1.48-1.34,5.07,5.07,0,0,1,2.4-.52,8.19,8.19,0,0,1,2.31.3,5.7,5.7,0,0,1,1.92,1l-1.11,1.65a3.45,3.45,0,0,0-1.27-.81,3.94,3.94,0,0,0-1.34-.27,3,3,0,0,0-1,.16,1.75,1.75,0,0,0-.75.45,1.05,1.05,0,0,0-.29.75,1.09,1.09,0,0,0,.41,1,3.41,3.41,0,0,0,1.09.58l1.35.46a6.57,6.57,0,0,1,1.62.68,3.57,3.57,0,0,1,1.16,1,2.64,2.64,0,0,1,.43,1.56,3.79,3.79,0,0,1-.52,1.94,3.61,3.61,0,0,1-1.59,1.41A6.16,6.16,0,0,1,219.68,216.83Z"/><path class="cls-2" d="M235.73,216.89a6.15,6.15,0,0,1-2.71-.63,4.75,4.75,0,0,1-2-1.67l.15-.82v8.48h-2.79V204.7h2.43l.39,3-.3-.85a7,7,0,0,1,2.28-1.77,6.69,6.69,0,0,1,3.09-.7,6.33,6.33,0,0,1,3.14.78,5.7,5.7,0,0,1,2.2,2.21,6.69,6.69,0,0,1,.81,3.34,6.1,6.1,0,0,1-.87,3.27,5.69,5.69,0,0,1-2.38,2.15A7.53,7.53,0,0,1,235.73,216.89Zm-.54-2.1a4.6,4.6,0,0,0,2.19-.53,4.38,4.38,0,0,0,1.61-1.44,3.69,3.69,0,0,0,.61-2.09,4,4,0,0,0-.57-2.11,4.09,4.09,0,0,0-1.51-1.44,4.3,4.3,0,0,0-2.12-.53,4.88,4.88,0,0,0-2,.38A3.89,3.89,0,0,0,232,208.1a4,4,0,0,0-.81,1.61v2a3.38,3.38,0,0,0,.72,1.56,4.17,4.17,0,0,0,1.43,1.12A4.24,4.24,0,0,0,235.19,214.79Z"/><path class="cls-2" d="M252,216.89a7.73,7.73,0,0,1-3.66-.81,6,6,0,0,1-2.37-2.21,6.16,6.16,0,0,1-.84-3.22,5.58,5.58,0,0,1,.95-3.15,7,7,0,0,1,2.5-2.27,7.23,7.23,0,0,1,3.48-.85,6.16,6.16,0,0,1,4.08,1.36,7,7,0,0,1,2.22,3.75l-10.26,3.4-.66-1.56,8.37-2.92-.57.4a3.79,3.79,0,0,0-1.2-1.62,3.39,3.39,0,0,0-2.19-.68,4,4,0,0,0-2,.51,3.76,3.76,0,0,0-1.4,1.4,4.15,4.15,0,0,0-.51,2.09,4.25,4.25,0,0,0,.53,2.12,3.69,3.69,0,0,0,1.47,1.46,4.33,4.33,0,0,0,2.14.53,4.51,4.51,0,0,0,1.58-.29,6.8,6.8,0,0,0,1.45-.73l1.26,2a8.84,8.84,0,0,1-2.08,1A7.64,7.64,0,0,1,252,216.89Z"/><path class="cls-2" d="M271.88,215.5a6.55,6.55,0,0,1-2,1,8.15,8.15,0,0,1-5.89-.4,5.88,5.88,0,0,1-2.42-2.15,6,6,0,0,1-.87-3.26,5.67,5.67,0,0,1,.93-3.25,6.29,6.29,0,0,1,2.42-2.13,7,7,0,0,1,3.22-.75,8.81,8.81,0,0,1,2.66.38,6.21,6.21,0,0,1,2.05,1.1l-1.41,1.7a6.22,6.22,0,0,0-1.3-.7,4.75,4.75,0,0,0-1.76-.32,4,4,0,0,0-2,.52,3.85,3.85,0,0,0-1.44,1.42,3.95,3.95,0,0,0,1.51,5.48,4.45,4.45,0,0,0,2.22.54,4.6,4.6,0,0,0,1.46-.22,4.22,4.22,0,0,0,1.21-.63Z"/><path class="cls-2" d="M275.27,200.61a1.33,1.33,0,0,1,.53-1.05,1.79,1.79,0,0,1,1.15-.42,1.75,1.75,0,0,1,1.14.42,1.33,1.33,0,0,1,.51,1.05,1.28,1.28,0,0,1-.51,1.06,1.75,1.75,0,0,1-1.14.42,1.79,1.79,0,0,1-1.15-.42A1.28,1.28,0,0,1,275.27,200.61Zm.18,4.26h2.82V216.6h-2.82Z"/><path class="cls-2" d="M288.29,216.89a7,7,0,0,1-3.16-.71,5.44,5.44,0,0,1-2.27-2.09,6.3,6.3,0,0,1-.84-3.36,6.39,6.39,0,0,1,.87-3.4,5.92,5.92,0,0,1,2.34-2.18,6.85,6.85,0,0,1,3.21-.77,5.54,5.54,0,0,1,3,.75,5.23,5.23,0,0,1,1.81,1.78l-.18.42.27-2.46h2.58V216.6h-2.79v-3.06l.33.68a3.49,3.49,0,0,1-.57.72,6.63,6.63,0,0,1-1.06.9,6.16,6.16,0,0,1-1.52.75A6.06,6.06,0,0,1,288.29,216.89Zm.75-2.19a4.59,4.59,0,0,0,1.89-.37,3.65,3.65,0,0,0,1.4-1,3.91,3.91,0,0,0,.76-1.59v-2.3a3.56,3.56,0,0,0-.84-1.49,4.3,4.3,0,0,0-1.44-1,4.59,4.59,0,0,0-1.83-.35,4.23,4.23,0,0,0-2.07.51,3.93,3.93,0,0,0-1.48,1.41,4,4,0,0,0-.56,2.13,3.88,3.88,0,0,0,.57,2.07,4.07,4.07,0,0,0,1.53,1.47A4.15,4.15,0,0,0,289,214.7Z"/><path class="cls-2" d="M300.71,194.66h2.82V216.6h-2.82Z"/><path class="cls-2" d="M308.18,200.61a1.33,1.33,0,0,1,.53-1.05,1.79,1.79,0,0,1,1.15-.42,1.75,1.75,0,0,1,1.14.42,1.33,1.33,0,0,1,.51,1.05,1.28,1.28,0,0,1-.51,1.06,1.75,1.75,0,0,1-1.14.42,1.79,1.79,0,0,1-1.15-.42A1.28,1.28,0,0,1,308.18,200.61Zm.18,4.26h2.82V216.6h-2.82Z"/><path class="cls-2" d="M317.18,207a2.36,2.36,0,0,1-1.57-.54,2,2,0,0,1-.65-1.61v-1.14h2.13v.37c0,.32.08.53.23.62a1.42,1.42,0,0,0,.76.15h8L318.62,215l-.57-.54h7.89v2.18H314.45L322,206.28l.48.74Z"/><path class="cls-2" d="M331.07,207a2.36,2.36,0,0,1-1.57-.54,2,2,0,0,1-.65-1.61v-1.14H331v.37c0,.32.07.53.23.62a1.42,1.42,0,0,0,.76.15h8L332.51,215l-.57-.54h7.89v2.18H328.34l7.59-10.32.48.74Z"/><path class="cls-2" d="M349,216.89a7.09,7.09,0,0,1-3.17-.71,5.48,5.48,0,0,1-2.26-2.09,6.3,6.3,0,0,1-.84-3.36,6.39,6.39,0,0,1,.87-3.4,5.92,5.92,0,0,1,2.34-2.18,6.85,6.85,0,0,1,3.21-.77,5.54,5.54,0,0,1,3,.75,5.32,5.32,0,0,1,1.81,1.78l-.18.42.27-2.46h2.58V216.6h-2.79v-3.06l.33.68a3.49,3.49,0,0,1-.57.72,6.74,6.74,0,0,1-1.07.9,6,6,0,0,1-3.49,1Zm.75-2.19a4.59,4.59,0,0,0,1.89-.37,3.73,3.73,0,0,0,1.4-1,4,4,0,0,0,.76-1.59v-2.3a3.56,3.56,0,0,0-.84-1.49,4.3,4.3,0,0,0-1.44-1,4.59,4.59,0,0,0-1.83-.35,4.23,4.23,0,0,0-2.07.51,3.86,3.86,0,0,0-1.48,1.41,3.94,3.94,0,0,0-.56,2.13,3.88,3.88,0,0,0,.57,2.07,4.07,4.07,0,0,0,1.53,1.47A4.15,4.15,0,0,0,349.73,214.7Z"/><path class="cls-2" d="M362.57,207a2.38,2.38,0,0,1-1.58-.54,2,2,0,0,1-.64-1.61v-1.14h2.13v.37c0,.32.07.53.23.62a1.42,1.42,0,0,0,.76.15h8L364,215l-.57-.54h7.89v2.18H359.84l7.59-10.32.48.74Z"/><path class="cls-2" d="M375.11,200.61a1.32,1.32,0,0,1,.52-1.05,1.82,1.82,0,0,1,1.16-.42,1.75,1.75,0,0,1,1.14.42,1.33,1.33,0,0,1,.51,1.05,1.28,1.28,0,0,1-.51,1.06,1.75,1.75,0,0,1-1.14.42,1.82,1.82,0,0,1-1.16-.42A1.27,1.27,0,0,1,375.11,200.61Zm.18,4.26h2.82V216.6h-2.82Z"/><path class="cls-2" d="M381.86,210.62a5.84,5.84,0,0,1,.88-3.17,6.13,6.13,0,0,1,2.46-2.24,7.63,7.63,0,0,1,3.59-.83,7.35,7.35,0,0,1,3.54.83,6,6,0,0,1,3.24,5.41,6.07,6.07,0,0,1-.86,3.18,6.22,6.22,0,0,1-2.38,2.25,7.3,7.3,0,0,1-3.57.84,7.81,7.81,0,0,1-3.56-.78,6.09,6.09,0,0,1-2.44-2.19A6,6,0,0,1,381.86,210.62Zm2.82,0a4,4,0,0,0,2,3.51,3.89,3.89,0,0,0,2,.54,3.94,3.94,0,0,0,2.07-.54,3.88,3.88,0,0,0,1.42-1.45,4.15,4.15,0,0,0-1.42-5.59,3.86,3.86,0,0,0-2.07-.55,3.82,3.82,0,0,0-2.06.56,4.19,4.19,0,0,0-1.44,1.49A4,4,0,0,0,384.68,210.65Z"/><path class="cls-2" d="M401.84,204.87l.21,2.86-.09-.45a4.45,4.45,0,0,1,1.92-2.09,6.18,6.18,0,0,1,3.15-.78,4.21,4.21,0,0,1,2.86,1,3.3,3.3,0,0,1,1.16,2.54v8.67h-2.82v-7.77a2.33,2.33,0,0,0-.59-1.54,2.2,2.2,0,0,0-1.72-.61,3.52,3.52,0,0,0-1.94.57,3.81,3.81,0,0,0-1.38,1.56,5,5,0,0,0-.49,2.29v5.5h-2.82V204.87Z"/><path class="cls-2" d="M421.67,216.89a7.73,7.73,0,0,1-3.66-.81,6,6,0,0,1-2.37-2.21,6.16,6.16,0,0,1-.84-3.22,5.57,5.57,0,0,1,.94-3.15,7.05,7.05,0,0,1,2.51-2.27,7.23,7.23,0,0,1,3.48-.85,6.16,6.16,0,0,1,4.08,1.36,7,7,0,0,1,2.22,3.75l-10.26,3.4-.66-1.56,8.37-2.92-.57.4a3.79,3.79,0,0,0-1.2-1.62,3.39,3.39,0,0,0-2.19-.68,4,4,0,0,0-2,.51,3.74,3.74,0,0,0-1.39,1.4,4.15,4.15,0,0,0-.51,2.09,4.24,4.24,0,0,0,.52,2.12,3.69,3.69,0,0,0,1.47,1.46,4.36,4.36,0,0,0,2.15.53,4.45,4.45,0,0,0,1.57-.29,6.87,6.87,0,0,0,1.46-.73l1.26,2a8.92,8.92,0,0,1-2.09,1A7.57,7.57,0,0,1,421.67,216.89Z"/><path class="cls-2" d="M434.06,214.11l-1.31,3c-.43,1-.86,2-1.3,3h-2.31c.42-1,.82-2,1.2-3s.76-2,1.14-3Z"/><path class="cls-2" d="M449.6,204.87l.21,2.86-.09-.45a4.45,4.45,0,0,1,1.92-2.09,6.18,6.18,0,0,1,3.15-.78,4.21,4.21,0,0,1,2.86,1,3.3,3.3,0,0,1,1.16,2.54v8.67H456v-7.77a2.33,2.33,0,0,0-.59-1.54,2.2,2.2,0,0,0-1.72-.61,3.52,3.52,0,0,0-1.94.57,3.81,3.81,0,0,0-1.38,1.56,5,5,0,0,0-.49,2.29v5.5h-2.82V204.87Z"/><path class="cls-2" d="M462.56,210.62a5.84,5.84,0,0,1,.88-3.17,6.13,6.13,0,0,1,2.46-2.24,7.63,7.63,0,0,1,3.59-.83,7.35,7.35,0,0,1,3.54.83,6,6,0,0,1,3.24,5.41,6.07,6.07,0,0,1-.86,3.18,6.22,6.22,0,0,1-2.38,2.25,7.3,7.3,0,0,1-3.57.84,7.81,7.81,0,0,1-3.56-.78,6.09,6.09,0,0,1-2.44-2.19A6,6,0,0,1,462.56,210.62Zm2.82,0a4,4,0,0,0,2,3.51,3.89,3.89,0,0,0,2,.54,3.94,3.94,0,0,0,2.07-.54,3.88,3.88,0,0,0,1.42-1.45,4.15,4.15,0,0,0-1.42-5.59,3.86,3.86,0,0,0-2.07-.55,3.82,3.82,0,0,0-2.06.56,4.19,4.19,0,0,0-1.44,1.49A4,4,0,0,0,465.38,210.65Z"/><path class="cls-2" d="M482.54,204.87l.21,2.86-.09-.45a4.45,4.45,0,0,1,1.92-2.09,6.18,6.18,0,0,1,3.15-.78,4.21,4.21,0,0,1,2.86,1,3.3,3.3,0,0,1,1.16,2.54v8.67h-2.82v-7.77a2.33,2.33,0,0,0-.59-1.54,2.2,2.2,0,0,0-1.72-.61,3.52,3.52,0,0,0-1.94.57,3.81,3.81,0,0,0-1.38,1.56,5,5,0,0,0-.49,2.29v5.5H480V204.87Z"/><path class="cls-2" d="M495.5,210.62a5.84,5.84,0,0,1,.88-3.17,6.13,6.13,0,0,1,2.46-2.24,7.63,7.63,0,0,1,3.59-.83,7.35,7.35,0,0,1,3.54.83,6,6,0,0,1,3.24,5.41,6.07,6.07,0,0,1-.86,3.18,6.22,6.22,0,0,1-2.38,2.25,7.3,7.3,0,0,1-3.57.84,7.81,7.81,0,0,1-3.56-.78,6.09,6.09,0,0,1-2.44-2.19A6,6,0,0,1,495.5,210.62Zm2.82,0a4,4,0,0,0,2,3.51,3.89,3.89,0,0,0,2,.54,3.94,3.94,0,0,0,2.07-.54,3.88,3.88,0,0,0,1.42-1.45,4.15,4.15,0,0,0-1.42-5.59,3.86,3.86,0,0,0-2.07-.55,3.82,3.82,0,0,0-2.06.56,4.19,4.19,0,0,0-1.44,1.49A4,4,0,0,0,498.32,210.65Z"/><path class="cls-2" d="M516.44,216.83a7.71,7.71,0,0,1-2.57-.44,4.92,4.92,0,0,1-2.05-1.32l1.17-1.53a6.24,6.24,0,0,0,1.62,1.06,4,4,0,0,0,1.62.36,4.32,4.32,0,0,0,1.11-.14,1.74,1.74,0,0,0,.82-.49,1.36,1.36,0,0,0-.12-1.88,3.52,3.52,0,0,0-1.09-.58c-.44-.15-.92-.29-1.44-.43a5.36,5.36,0,0,1-2.34-1.33,2.9,2.9,0,0,1-.81-2.07,3.27,3.27,0,0,1,.49-1.74,3.76,3.76,0,0,1,1.49-1.34,5,5,0,0,1,2.4-.52,8.19,8.19,0,0,1,2.31.3,5.7,5.7,0,0,1,1.92,1l-1.11,1.65a3.49,3.49,0,0,0-1.28-.81,3.89,3.89,0,0,0-1.33-.27,3,3,0,0,0-1,.16,1.75,1.75,0,0,0-.75.45,1,1,0,0,0-.28.75,1.08,1.08,0,0,0,.4,1,3.46,3.46,0,0,0,1.1.58l1.35.46a6.57,6.57,0,0,1,1.62.68,3.53,3.53,0,0,1,1.15,1,2.64,2.64,0,0,1,.44,1.56,3.8,3.8,0,0,1-.53,1.94,3.61,3.61,0,0,1-1.59,1.41A6.11,6.11,0,0,1,516.44,216.83Z"/><path class="cls-2" d="M526.34,199.71h2.85v5.21h3.39V207h-3.39v9.61h-2.85V207h-2.25v-2.07h2.25Z"/><path class="cls-2" d="M541.13,216.89a7,7,0,0,1-3.17-.71,5.42,5.42,0,0,1-2.26-2.09,6.21,6.21,0,0,1-.84-3.36,6.3,6.3,0,0,1,.87-3.4,5.85,5.85,0,0,1,2.34-2.18,6.82,6.82,0,0,1,3.21-.77,5.5,5.5,0,0,1,3,.75,5.23,5.23,0,0,1,1.81,1.78l-.17.42.26-2.46h2.58V216.6h-2.78v-3.06l.33.68a3.87,3.87,0,0,1-.57.72,6.74,6.74,0,0,1-1.07.9,6,6,0,0,1-3.49,1Zm.75-2.19a4.59,4.59,0,0,0,1.89-.37,3.62,3.62,0,0,0,1.39-1,3.93,3.93,0,0,0,.77-1.59v-2.3a3.56,3.56,0,0,0-.84-1.49,4.3,4.3,0,0,0-1.44-1,4.59,4.59,0,0,0-1.83-.35,4.21,4.21,0,0,0-2.07.51,4,4,0,0,0-1.49,1.41,4,4,0,0,0-.55,2.13,3.8,3.8,0,0,0,.57,2.07,4.12,4.12,0,0,0,1.52,1.47A4.19,4.19,0,0,0,541.88,214.7Z"/><path class="cls-2" d="M556.1,204.87l.2,2.86-.09-.45a4.45,4.45,0,0,1,1.92-2.09,6.25,6.25,0,0,1,3.16-.78,4.21,4.21,0,0,1,2.86,1,3.26,3.26,0,0,1,1.15,2.54v8.67h-2.82v-7.77a2.32,2.32,0,0,0-.58-1.54,2.2,2.2,0,0,0-1.72-.61,3.5,3.5,0,0,0-1.94.57,3.81,3.81,0,0,0-1.38,1.56,5,5,0,0,0-.49,2.29v5.5h-2.83V204.87Z"/><path class="cls-2" d="M571.33,199.71h2.86v5.21h3.38V207h-3.38v9.61h-2.86V207h-2.25v-2.07h2.25Z"/><path class="cls-2" d="M586.72,216.89a7.73,7.73,0,0,1-3.66-.81,5.86,5.86,0,0,1-2.36-2.21,6.07,6.07,0,0,1-.84-3.22,5.57,5.57,0,0,1,.94-3.15,7,7,0,0,1,2.5-2.27,7.24,7.24,0,0,1,3.49-.85,6.18,6.18,0,0,1,4.08,1.36,7,7,0,0,1,2.21,3.75l-10.26,3.4-.66-1.56,8.38-2.92-.58.4a3.85,3.85,0,0,0-1.19-1.62,3.42,3.42,0,0,0-2.2-.68,4,4,0,0,0-2,.51,3.76,3.76,0,0,0-1.4,1.4,4.15,4.15,0,0,0-.51,2.09,4.25,4.25,0,0,0,.53,2.12,3.69,3.69,0,0,0,1.47,1.46,4.34,4.34,0,0,0,2.15.53,4.5,4.5,0,0,0,1.57-.29,6.8,6.8,0,0,0,1.45-.73l1.26,2a8.66,8.66,0,0,1-2.08,1A7.64,7.64,0,0,1,586.72,216.89Z"/><path class="cls-2" d="M610,217.06a4.09,4.09,0,0,1-2.83-1,3.44,3.44,0,0,1-1.16-2.54v-8.67h2.82v7.74a2.5,2.5,0,0,0,.6,1.54,2.2,2.2,0,0,0,1.68.64,3.2,3.2,0,0,0,1.85-.58,4.26,4.26,0,0,0,1.33-1.59,5,5,0,0,0,.51-2.28v-5.47h2.79V216.6H615l-.24-2.89.18.54a4.57,4.57,0,0,1-1.11,1.43,5.32,5.32,0,0,1-1.72,1A6.35,6.35,0,0,1,610,217.06Z"/><path class="cls-2" d="M624.94,204.87l.21,2.86-.09-.45a4.45,4.45,0,0,1,1.92-2.09,6.18,6.18,0,0,1,3.15-.78,4.23,4.23,0,0,1,2.87,1,3.29,3.29,0,0,1,1.15,2.54v8.67h-2.82v-7.77a2.32,2.32,0,0,0-.58-1.54,2.22,2.22,0,0,0-1.73-.61,3.49,3.49,0,0,0-1.93.57,3.81,3.81,0,0,0-1.38,1.56,5,5,0,0,0-.5,2.29v5.5h-2.82V204.87Z"/><path class="cls-2" d="M29.91,250.85a7.45,7.45,0,0,1-2.56-.44,5,5,0,0,1-2.06-1.31l1.17-1.54a6.3,6.3,0,0,0,1.62,1.07,4.13,4.13,0,0,0,2.73.21,1.6,1.6,0,0,0,.82-.48,1.21,1.21,0,0,0,.32-.88,1.26,1.26,0,0,0-.43-1,3.8,3.8,0,0,0-1.1-.58q-.66-.22-1.44-.42a5.37,5.37,0,0,1-2.34-1.34,2.87,2.87,0,0,1-.81-2.07,3.28,3.28,0,0,1,.5-1.74A3.71,3.71,0,0,1,27.81,239a5.06,5.06,0,0,1,2.4-.53,8.19,8.19,0,0,1,2.31.3,5.55,5.55,0,0,1,1.92,1l-1.11,1.64a3.49,3.49,0,0,0-1.28-.81,3.89,3.89,0,0,0-1.33-.27,3.34,3.34,0,0,0-1,.16,1.93,1.93,0,0,0-.75.45,1.09,1.09,0,0,0-.28.76,1.08,1.08,0,0,0,.41,1,3.62,3.62,0,0,0,1.09.58l1.35.45a7,7,0,0,1,1.62.68,3.44,3.44,0,0,1,1.15,1,2.61,2.61,0,0,1,.44,1.56,3.75,3.75,0,0,1-.53,1.94,3.55,3.55,0,0,1-1.58,1.42A6.16,6.16,0,0,1,29.91,250.85Z"/><path class="cls-2" d="M42.6,251.08a4.09,4.09,0,0,1-2.83-1,3.44,3.44,0,0,1-1.16-2.54v-8.67h2.82v7.74a2.48,2.48,0,0,0,.6,1.54,2.2,2.2,0,0,0,1.68.64,3.07,3.07,0,0,0,1.84-.58,4.2,4.2,0,0,0,1.34-1.59,5,5,0,0,0,.51-2.28v-5.47h2.79v11.74H47.64l-.24-2.9.18.54a4.72,4.72,0,0,1-1.11,1.44,5.3,5.3,0,0,1-1.72,1A6.15,6.15,0,0,1,42.6,251.08Z"/><path class="cls-2" d="M62.34,250.91a6.28,6.28,0,0,1-2.71-.62,4.84,4.84,0,0,1-2-1.68l.15-.82v8.48H55V238.72h2.43l.39,3-.3-.85a7.12,7.12,0,0,1,2.28-1.77,6.81,6.81,0,0,1,3.09-.69,6.33,6.33,0,0,1,3.14.78,5.63,5.63,0,0,1,2.2,2.21,6.62,6.62,0,0,1,.81,3.33,6.05,6.05,0,0,1-.87,3.27,5.72,5.72,0,0,1-2.38,2.16A7.66,7.66,0,0,1,62.34,250.91Zm-.54-2.1a4.6,4.6,0,0,0,2.19-.52,4.32,4.32,0,0,0,1.61-1.45,3.65,3.65,0,0,0,.61-2.08,3.9,3.9,0,0,0-.57-2.11,4,4,0,0,0-1.51-1.45,4.3,4.3,0,0,0-2.12-.53,4.72,4.72,0,0,0-1.95.39,3.86,3.86,0,0,0-1.44,1.06,4,4,0,0,0-.81,1.62v2a3.38,3.38,0,0,0,.72,1.56A4,4,0,0,0,60,248.4,4.1,4.1,0,0,0,61.8,248.81Z"/><path class="cls-2" d="M80.13,250.91a6.28,6.28,0,0,1-2.71-.62,4.78,4.78,0,0,1-2-1.68l.15-.82v8.48H72.78V238.72h2.43l.39,3-.3-.85a7.12,7.12,0,0,1,2.28-1.77,6.81,6.81,0,0,1,3.09-.69,6.27,6.27,0,0,1,3.13.78A5.59,5.59,0,0,1,86,241.4a6.62,6.62,0,0,1,.81,3.33A6.05,6.05,0,0,1,86,248a5.74,5.74,0,0,1-2.39,2.16A7.62,7.62,0,0,1,80.13,250.91Zm-.54-2.1a4.6,4.6,0,0,0,2.19-.52,4.29,4.29,0,0,0,1.6-1.45,3.66,3.66,0,0,0,.62-2.08,3.9,3.9,0,0,0-.57-2.11,4.11,4.11,0,0,0-1.51-1.45,4.3,4.3,0,0,0-2.12-.53,4.72,4.72,0,0,0-2,.39,3.86,3.86,0,0,0-1.44,1.06,4,4,0,0,0-.81,1.62v2a3.38,3.38,0,0,0,.72,1.56,4.19,4.19,0,0,0,3.27,1.53Z"/><path class="cls-2" d="M89.49,244.64a5.85,5.85,0,0,1,.89-3.17,6.14,6.14,0,0,1,2.46-2.24,7.56,7.56,0,0,1,3.58-.82,7.34,7.34,0,0,1,3.54.82,6.08,6.08,0,0,1,2.39,2.24,6.35,6.35,0,0,1,0,6.35,6.1,6.1,0,0,1-2.39,2.25,7.3,7.3,0,0,1-3.57.84,7.76,7.76,0,0,1-3.55-.78A6.1,6.1,0,0,1,90.39,248,6,6,0,0,1,89.49,244.64Zm2.82,0a4,4,0,0,0,.54,2.06,4.11,4.11,0,0,0,1.44,1.46,3.89,3.89,0,0,0,2,.54,3.94,3.94,0,0,0,2.07-.54,4.2,4.2,0,0,0,1.43-5.57,4.14,4.14,0,0,0-1.43-1.48,3.86,3.86,0,0,0-2.07-.55,3.77,3.77,0,0,0-2,.57,4.11,4.11,0,0,0-1.44,1.49A3.91,3.91,0,0,0,92.31,244.67Z"/><path class="cls-2" d="M109.44,238.89l.27,3.4-.12-.48A5.21,5.21,0,0,1,111,240a6.84,6.84,0,0,1,1.92-1.16,5.7,5.7,0,0,1,1.74-.42l-.12,2.66a4.24,4.24,0,0,0-2.5.5,4.54,4.54,0,0,0-1.69,1.59,3.87,3.87,0,0,0-.61,2.11v5.36h-2.79V238.89Z"/><path class="cls-2" d="M119.4,233.73h2.85V239h3.39V241h-3.39v9.61H119.4V241h-2.25V239h2.25Z"/><path class="cls-2" d="M127.92,244.64a5.84,5.84,0,0,1,.88-3.17,6.21,6.21,0,0,1,2.46-2.24,7.63,7.63,0,0,1,3.59-.82,7.34,7.34,0,0,1,3.54.82,6.13,6.13,0,0,1,0,10.84,7.3,7.3,0,0,1-3.57.84,7.81,7.81,0,0,1-3.56-.78,6.14,6.14,0,0,1-2.44-2.18A6,6,0,0,1,127.92,244.64Zm2.82,0a4,4,0,0,0,.54,2.06,4.11,4.11,0,0,0,1.44,1.46,3.89,3.89,0,0,0,2,.54,3.89,3.89,0,0,0,3.49-2,4.25,4.25,0,0,0,0-4.11,4,4,0,0,0-1.42-1.48,3.86,3.86,0,0,0-2.07-.55,3.77,3.77,0,0,0-2,.57,4.06,4.06,0,0,0-1.45,1.49A4,4,0,0,0,130.74,244.67Z"/><path class="cls-2" d="M155.88,250.63v-9.39h-2.16v-2.38h2.16v-4.93a5.71,5.71,0,0,1,1.21-3.92,4.63,4.63,0,0,1,3.62-1.36,6.49,6.49,0,0,1,1.38.17,3.94,3.94,0,0,1,1.32.57l-1.17,1.9a1.22,1.22,0,0,0-.57-.35,2.26,2.26,0,0,0-.69-.1,2.12,2.12,0,0,0-1.71.7,3.84,3.84,0,0,0-.6,2.44v4.88h3.93v2.38h-3.93v9.39Z"/><path class="cls-2" d="M170.79,250.91a7.06,7.06,0,0,1-3.17-.71,5.39,5.39,0,0,1-2.26-2.08,7.11,7.11,0,0,1,0-6.76,5.87,5.87,0,0,1,2.34-2.19,6.84,6.84,0,0,1,3.21-.76,5.5,5.5,0,0,1,2.95.75,5.24,5.24,0,0,1,1.82,1.77l-.18.43.27-2.47h2.58v11.74h-2.79v-3.07l.33.69a3.77,3.77,0,0,1-.57.72,7.3,7.3,0,0,1-1.07.89,6,6,0,0,1-3.49,1Zm.75-2.18a4.75,4.75,0,0,0,1.89-.37,3.74,3.74,0,0,0,1.39-1.05,3.81,3.81,0,0,0,.77-1.59v-2.29a3.5,3.5,0,0,0-.84-1.49,4.19,4.19,0,0,0-1.44-1,4.77,4.77,0,0,0-1.83-.35,4.23,4.23,0,0,0-2.07.51,3.91,3.91,0,0,0-1.49,1.42,4,4,0,0,0-.55,2.12,3.88,3.88,0,0,0,.57,2.07,4.1,4.1,0,0,0,1.53,1.48A4.15,4.15,0,0,0,171.54,248.73Z"/><path class="cls-2" d="M185.76,238.89l.24,2.64-.15-.23a5.24,5.24,0,0,1,2-2.11,5.57,5.57,0,0,1,3-.78,5,5,0,0,1,1.83.32,3.54,3.54,0,0,1,1.33.91,2.83,2.83,0,0,1,.68,1.4l-.15.12a5.11,5.11,0,0,1,2-2,5.4,5.4,0,0,1,2.69-.72,4.07,4.07,0,0,1,2.89,1,3.49,3.49,0,0,1,1.13,2.52v8.71h-2.82v-7.74a2.71,2.71,0,0,0-.47-1.52,1.78,1.78,0,0,0-1.51-.64,3.31,3.31,0,0,0-1.94.61,4.09,4.09,0,0,0-1.32,1.59,5.21,5.21,0,0,0-.49,2.14v5.56h-2.82v-7.74a2.58,2.58,0,0,0-.5-1.52,1.87,1.87,0,0,0-1.54-.64,3.23,3.23,0,0,0-1.92.61,4.23,4.23,0,0,0-1.32,1.6,4.92,4.92,0,0,0-.48,2.16v5.53h-2.82V238.89Z"/><path class="cls-2" d="M207.78,234.64a1.29,1.29,0,0,1,.52-1,1.78,1.78,0,0,1,1.16-.43,1.71,1.71,0,0,1,1.14.43,1.35,1.35,0,0,1,0,2.11,1.79,1.79,0,0,1-1.14.41,1.87,1.87,0,0,1-1.16-.41A1.28,1.28,0,0,1,207.78,234.64Zm.18,4.25h2.82v11.74H208Z"/><path class="cls-2" d="M215.61,228.68h2.82v21.95h-2.82Z"/><path class="cls-2" d="M223.08,234.64a1.29,1.29,0,0,1,.52-1,1.78,1.78,0,0,1,1.16-.43,1.73,1.73,0,0,1,1.14.43,1.35,1.35,0,0,1,0,2.11,1.81,1.81,0,0,1-1.14.41,1.87,1.87,0,0,1-1.16-.41A1.28,1.28,0,0,1,223.08,234.64Zm.18,4.25h2.82v11.74h-2.82Z"/><path class="cls-2" d="M236.1,250.91a7.06,7.06,0,0,1-3.17-.71,5.34,5.34,0,0,1-2.26-2.08,7.11,7.11,0,0,1,0-6.76,5.81,5.81,0,0,1,2.34-2.19,6.84,6.84,0,0,1,3.21-.76,5.53,5.53,0,0,1,2.95.75,5.24,5.24,0,0,1,1.82,1.77l-.18.43.27-2.47h2.58v11.74h-2.8v-3.07l.33.69a3.29,3.29,0,0,1-.56.72,7.3,7.3,0,0,1-1.07.89,6.26,6.26,0,0,1-1.51.75A6.1,6.1,0,0,1,236.1,250.91Zm.75-2.18a4.79,4.79,0,0,0,1.89-.37,3.82,3.82,0,0,0,1.39-1.05,3.68,3.68,0,0,0,.76-1.59v-2.29a3.4,3.4,0,0,0-.84-1.49,4.15,4.15,0,0,0-1.43-1,4.81,4.81,0,0,0-1.83-.35,4.3,4.3,0,0,0-2.08.51,3.89,3.89,0,0,0-2,3.54,3.88,3.88,0,0,0,.57,2.07,4,4,0,0,0,1.53,1.48A4.15,4.15,0,0,0,236.85,248.73Z"/><path class="cls-2" d="M251,238.89l.26,3.4-.11-.48a5.06,5.06,0,0,1,1.37-1.82,6.84,6.84,0,0,1,1.92-1.16,5.7,5.7,0,0,1,1.74-.42l-.11,2.66a4.28,4.28,0,0,0-2.51.5,4.59,4.59,0,0,0-1.68,1.59,3.88,3.88,0,0,0-.62,2.11v5.36h-2.78V238.89Z"/><path class="cls-2" d="M265,250.91a7.73,7.73,0,0,1-3.66-.81,5.89,5.89,0,0,1-2.37-2.21,6.14,6.14,0,0,1-.84-3.22,5.53,5.53,0,0,1,.95-3.14,6.84,6.84,0,0,1,2.5-2.27,7.12,7.12,0,0,1,3.48-.85,6.11,6.11,0,0,1,4.08,1.36,6.89,6.89,0,0,1,2.22,3.74l-10.26,3.4-.66-1.56,8.37-2.92-.57.4a3.91,3.91,0,0,0-1.2-1.62,3.39,3.39,0,0,0-2.19-.68,4,4,0,0,0-2,.51,3.72,3.72,0,0,0-1.4,1.41,4.11,4.11,0,0,0-.51,2.08,4.31,4.31,0,0,0,.53,2.13,3.75,3.75,0,0,0,1.47,1.46,4.32,4.32,0,0,0,2.14.52,4.5,4.5,0,0,0,1.58-.28,7.34,7.34,0,0,0,1.45-.74l1.26,2a8.82,8.82,0,0,1-2.08,1A7.33,7.33,0,0,1,265,250.91Z"/><path class="cls-2" d="M290.12,250.91a7.73,7.73,0,0,1-3.66-.81,5.89,5.89,0,0,1-2.37-2.21,6.14,6.14,0,0,1-.84-3.22,5.53,5.53,0,0,1,.95-3.14,6.84,6.84,0,0,1,2.5-2.27,7.12,7.12,0,0,1,3.48-.85,6.11,6.11,0,0,1,4.08,1.36,6.89,6.89,0,0,1,2.22,3.74l-10.26,3.4-.66-1.56,8.37-2.92-.57.4a3.91,3.91,0,0,0-1.2-1.62,3.39,3.39,0,0,0-2.19-.68,4,4,0,0,0-2,.51,3.72,3.72,0,0,0-1.4,1.41,4.11,4.11,0,0,0-.51,2.08,4.31,4.31,0,0,0,.53,2.13,3.75,3.75,0,0,0,1.47,1.46,4.32,4.32,0,0,0,2.14.52,4.5,4.5,0,0,0,1.58-.28,7.34,7.34,0,0,0,1.45-.74l1.26,2a8.82,8.82,0,0,1-2.08,1A7.33,7.33,0,0,1,290.12,250.91Z"/><path class="cls-2" d="M310.46,250.63v-9.39H308.3v-2.38h2.16v-4.93a5.72,5.72,0,0,1,1.22-3.92,4.61,4.61,0,0,1,3.61-1.36,6.49,6.49,0,0,1,1.38.17,3.94,3.94,0,0,1,1.32.57l-1.17,1.9a1.22,1.22,0,0,0-.57-.35,2.26,2.26,0,0,0-.69-.1,2.12,2.12,0,0,0-1.71.7,3.84,3.84,0,0,0-.6,2.44v4.88h3.57v2.38h-3.57v9.39Zm8.55-16a1.32,1.32,0,0,1,.53-1.07,1.71,1.71,0,0,1,2.28,0,1.36,1.36,0,0,1,.49,1.06,1.33,1.33,0,0,1-.49,1.07,1.79,1.79,0,0,1-1.16.41,1.71,1.71,0,0,1-1.12-.43A1.3,1.3,0,0,1,319,234.66Zm.18,4.23H322v11.74h-2.82Z"/><path class="cls-2" d="M329.36,238.89l.21,2.86-.09-.45a4.45,4.45,0,0,1,1.92-2.09,6.28,6.28,0,0,1,3.15-.77,4.23,4.23,0,0,1,2.87,1,3.31,3.31,0,0,1,1.15,2.54v8.68h-2.82v-7.77a2.33,2.33,0,0,0-.58-1.55,2.26,2.26,0,0,0-1.73-.61,3.49,3.49,0,0,0-1.93.57,3.87,3.87,0,0,0-1.38,1.56,5.09,5.09,0,0,0-.5,2.3v5.5h-2.82V238.89Z"/><path class="cls-2" d="M348.59,250.91a7,7,0,0,1-3.16-.71,5.42,5.42,0,0,1-2.27-2.08,7.11,7.11,0,0,1,0-6.76,5.87,5.87,0,0,1,2.34-2.19,6.84,6.84,0,0,1,3.21-.76,5.54,5.54,0,0,1,3,.75,5.21,5.21,0,0,1,1.81,1.77l-.18.43.27-2.47h2.58v11.74h-2.79v-3.07l.33.69a3.77,3.77,0,0,1-.57.72,7.18,7.18,0,0,1-1.06.89,6.16,6.16,0,0,1-1.52.75A6.06,6.06,0,0,1,348.59,250.91Zm.75-2.18a4.75,4.75,0,0,0,1.89-.37,3.68,3.68,0,0,0,2.16-2.64v-2.29a3.5,3.5,0,0,0-.84-1.49,4.19,4.19,0,0,0-1.44-1,4.77,4.77,0,0,0-1.83-.35,4.23,4.23,0,0,0-2.07.51,3.88,3.88,0,0,0-1.48,1.42,4,4,0,0,0-.56,2.12,3.88,3.88,0,0,0,.57,2.07,4.1,4.1,0,0,0,1.53,1.48A4.15,4.15,0,0,0,349.34,248.73Z"/><path class="cls-2" d="M363.56,238.89l.21,2.86-.09-.45a4.45,4.45,0,0,1,1.92-2.09,6.28,6.28,0,0,1,3.15-.77,4.23,4.23,0,0,1,2.87,1,3.31,3.31,0,0,1,1.15,2.54v8.68H370v-7.77a2.33,2.33,0,0,0-.58-1.55,2.26,2.26,0,0,0-1.73-.61,3.46,3.46,0,0,0-1.93.57,3.87,3.87,0,0,0-1.38,1.56,5.09,5.09,0,0,0-.5,2.3v5.5H361V238.89Z"/><path class="cls-2" d="M378.77,241a2.36,2.36,0,0,1-1.57-.54,2,2,0,0,1-.65-1.61v-1.14h2.13v.37a.7.7,0,0,0,.23.63,1.54,1.54,0,0,0,.76.14h8L380.21,249l-.57-.54h7.89v2.19H376l7.59-10.32.48.73Z"/><path class="cls-2" d="M391.31,234.64a1.27,1.27,0,0,1,.53-1,1.75,1.75,0,0,1,1.15-.43,1.71,1.71,0,0,1,1.14.43,1.35,1.35,0,0,1,0,2.11,1.79,1.79,0,0,1-1.14.41,1.84,1.84,0,0,1-1.15-.41A1.26,1.26,0,0,1,391.31,234.64Zm.18,4.25h2.82v11.74h-2.82Z"/><path class="cls-2" d="M404.33,250.91a7.09,7.09,0,0,1-3.17-.71,5.39,5.39,0,0,1-2.26-2.08,7.11,7.11,0,0,1,0-6.76,5.87,5.87,0,0,1,2.34-2.19,6.84,6.84,0,0,1,3.21-.76,5.54,5.54,0,0,1,3,.75,5.3,5.3,0,0,1,1.81,1.77l-.18.43.27-2.47h2.58v11.74h-2.79v-3.07l.33.69a3.77,3.77,0,0,1-.57.72,7.3,7.3,0,0,1-1.07.89,6,6,0,0,1-3.49,1Zm.75-2.18a4.75,4.75,0,0,0,1.89-.37,3.86,3.86,0,0,0,1.4-1.05,3.92,3.92,0,0,0,.76-1.59v-2.29a3.5,3.5,0,0,0-.84-1.49,4.19,4.19,0,0,0-1.44-1,4.77,4.77,0,0,0-1.83-.35,4.23,4.23,0,0,0-2.07.51,3.91,3.91,0,0,0-1.49,1.42,4,4,0,0,0-.55,2.12,3.88,3.88,0,0,0,.57,2.07,4.1,4.1,0,0,0,1.53,1.48A4.15,4.15,0,0,0,405.08,248.73Z"/><path class="cls-2" d="M419.27,238.89l.27,3.4-.12-.48A5.21,5.21,0,0,1,420.8,240a6.84,6.84,0,0,1,1.92-1.16,5.7,5.7,0,0,1,1.74-.42l-.12,2.66a4.29,4.29,0,0,0-2.51.5,4.59,4.59,0,0,0-1.68,1.59,3.87,3.87,0,0,0-.61,2.11v5.36h-2.79V238.89Z"/><path class="cls-2" d="M427.85,234.64a1.29,1.29,0,0,1,.52-1,1.78,1.78,0,0,1,1.16-.43,1.71,1.71,0,0,1,1.14.43,1.35,1.35,0,0,1,0,2.11,1.79,1.79,0,0,1-1.14.41,1.87,1.87,0,0,1-1.16-.41A1.28,1.28,0,0,1,427.85,234.64Zm.18,4.25h2.82v11.74H428Z"/><path class="cls-2" d="M434.6,244.64a5.84,5.84,0,0,1,.88-3.17,6.21,6.21,0,0,1,2.46-2.24,7.63,7.63,0,0,1,3.59-.82,7.34,7.34,0,0,1,3.54.82,6.13,6.13,0,0,1,0,10.84,7.3,7.3,0,0,1-3.57.84,7.81,7.81,0,0,1-3.56-.78A6.14,6.14,0,0,1,435.5,248,6,6,0,0,1,434.6,244.64Zm2.82,0a4,4,0,0,0,.54,2.06,4.11,4.11,0,0,0,1.44,1.46,3.89,3.89,0,0,0,2,.54,3.89,3.89,0,0,0,3.49-2,4.25,4.25,0,0,0,0-4.11,4,4,0,0,0-1.42-1.48,4.09,4.09,0,0,0-4.13,0,4.11,4.11,0,0,0-1.44,1.49A4,4,0,0,0,437.42,244.67Z"/><path class="cls-2" d="M464.06,238.89l.24,2.64-.15-.23a5.24,5.24,0,0,1,2-2.11,5.57,5.57,0,0,1,3-.78,5,5,0,0,1,1.83.32,3.54,3.54,0,0,1,1.33.91,2.83,2.83,0,0,1,.68,1.4l-.15.12a5.11,5.11,0,0,1,2-2,5.4,5.4,0,0,1,2.69-.72,4.07,4.07,0,0,1,2.89,1,3.49,3.49,0,0,1,1.13,2.52v8.71h-2.82v-7.74a2.71,2.71,0,0,0-.47-1.52,1.78,1.78,0,0,0-1.51-.64,3.31,3.31,0,0,0-1.94.61,4.09,4.09,0,0,0-1.32,1.59,5.21,5.21,0,0,0-.49,2.14v5.56h-2.82v-7.74a2.58,2.58,0,0,0-.5-1.52,1.87,1.87,0,0,0-1.54-.64,3.23,3.23,0,0,0-1.92.61,4.23,4.23,0,0,0-1.32,1.6,4.92,4.92,0,0,0-.48,2.16v5.53h-2.82V238.89Z"/><path class="cls-2" d="M486.08,234.64a1.29,1.29,0,0,1,.52-1,1.78,1.78,0,0,1,1.16-.43,1.71,1.71,0,0,1,1.14.43,1.35,1.35,0,0,1,0,2.11,1.79,1.79,0,0,1-1.14.41,1.87,1.87,0,0,1-1.16-.41A1.28,1.28,0,0,1,486.08,234.64Zm.18,4.25h2.82v11.74h-2.82Z"/><path class="cls-2" d="M496.46,238.89l.21,2.86-.09-.45a4.45,4.45,0,0,1,1.92-2.09,6.28,6.28,0,0,1,3.15-.77,4.2,4.2,0,0,1,2.86,1,3.32,3.32,0,0,1,1.16,2.54v8.68h-2.82v-7.77a2.33,2.33,0,0,0-.59-1.55,2.23,2.23,0,0,0-1.72-.61,3.52,3.52,0,0,0-1.94.57,3.87,3.87,0,0,0-1.38,1.56,5.09,5.09,0,0,0-.49,2.3v5.5h-2.82V238.89Z"/><path class="cls-2" d="M510.32,234.64a1.29,1.29,0,0,1,.52-1,1.78,1.78,0,0,1,1.16-.43,1.73,1.73,0,0,1,1.14.43,1.35,1.35,0,0,1,0,2.11,1.81,1.81,0,0,1-1.14.41,1.87,1.87,0,0,1-1.16-.41A1.28,1.28,0,0,1,510.32,234.64Zm.18,4.25h2.82v11.74H510.5Z"/><path class="cls-2" d="M520.7,238.89l.24,2.64-.15-.23a5.24,5.24,0,0,1,2-2.11,5.57,5.57,0,0,1,3-.78,5.05,5.05,0,0,1,1.83.32,3.54,3.54,0,0,1,1.33.91,2.74,2.74,0,0,1,.67,1.4l-.14.12a5.11,5.11,0,0,1,2-2,5.37,5.37,0,0,1,2.69-.72,4.09,4.09,0,0,1,2.89,1,3.53,3.53,0,0,1,1.13,2.52v8.71h-2.82v-7.74a2.71,2.71,0,0,0-.47-1.52,1.79,1.79,0,0,0-1.52-.64,3.3,3.3,0,0,0-1.93.61,4.09,4.09,0,0,0-1.32,1.59,5.22,5.22,0,0,0-.5,2.14v5.56h-2.81v-7.74a2.58,2.58,0,0,0-.5-1.52,1.87,1.87,0,0,0-1.54-.64,3.21,3.21,0,0,0-1.92.61,4.23,4.23,0,0,0-1.32,1.6,4.92,4.92,0,0,0-.49,2.16v5.53h-2.81V238.89Z"/><path class="cls-2" d="M541.82,244.64a5.84,5.84,0,0,1,.88-3.17,6.21,6.21,0,0,1,2.46-2.24,7.63,7.63,0,0,1,3.59-.82,7.34,7.34,0,0,1,3.54.82,6.12,6.12,0,0,1,2.38,2.24,6.29,6.29,0,0,1,0,6.35,6.14,6.14,0,0,1-2.38,2.25,7.31,7.31,0,0,1-3.58.84,7.79,7.79,0,0,1-3.55-.78,6.23,6.23,0,0,1-2.45-2.18A6.09,6.09,0,0,1,541.82,244.64Zm2.81,0a4,4,0,0,0,.55,2.06,4.11,4.11,0,0,0,1.44,1.46,3.84,3.84,0,0,0,2,.54,3.89,3.89,0,0,0,3.49-2,4.25,4.25,0,0,0,0-4.11,4,4,0,0,0-1.42-1.48,3.86,3.86,0,0,0-2.07-.55,3.8,3.8,0,0,0-2.06.57,4.11,4.11,0,0,0-1.44,1.49A4,4,0,0,0,544.63,244.67Z"/><path class="cls-2" d="M558.36,248.05a1.55,1.55,0,0,1,1.1-.46,1.5,1.5,0,0,1,1,.46,1.4,1.4,0,0,1,.49,1.07,1.36,1.36,0,0,1-.49,1.1,1.63,1.63,0,0,1-1,.41,1.69,1.69,0,0,1-1.1-.41,1.36,1.36,0,0,1-.49-1.1A1.4,1.4,0,0,1,558.36,248.05Z"/></g></g></svg>