<svg xmlns="http://www.w3.org/2000/svg" viewBox="0 0 672 251.75"><defs><style>.cls-1{fill:#fff;}.cls-2{fill:#846b4a;}</style></defs><title>ahmed testo 7</title><g id="Livello_2" data-name="Livello 2"><g id="testi"><rect class="cls-1" width="672" height="251.75" rx="21.32"/><path class="cls-2" d="M26.73,61.25a4.54,4.54,0,0,0,.7,2.48,5,5,0,0,0,1.9,1.72,5.6,5.6,0,0,0,2.62.62,5.9,5.9,0,0,0,2.73-.62,4.74,4.74,0,0,0,1.88-1.72,4.61,4.61,0,0,0,.67-2.48V48h2.88V61.34A7.06,7.06,0,0,1,39,65.25a7.23,7.23,0,0,1-2.94,2.58,9.8,9.8,0,0,1-8.25,0,7.23,7.23,0,0,1-2.94-2.58,7.06,7.06,0,0,1-1.08-3.91V48h2.91Z"/><path class="cls-2" d="M47.88,56.77l.21,2.86L48,59.18a4.43,4.43,0,0,1,1.92-2.08,6.18,6.18,0,0,1,3.15-.78,4.2,4.2,0,0,1,2.86,1,3.32,3.32,0,0,1,1.16,2.54v8.68H54.27V60.74a2.31,2.31,0,0,0-.59-1.55A2.23,2.23,0,0,0,52,58.58a3.52,3.52,0,0,0-1.94.57,3.87,3.87,0,0,0-1.38,1.56,5.09,5.09,0,0,0-.49,2.3v5.5H45.33V56.77Z"/><path class="cls-2" d="M78.75,68.79A6.32,6.32,0,0,1,76,68.17a4.86,4.86,0,0,1-2-1.67l.15-.83v8.48H71.4V56.6h2.43l.39,3-.3-.84A7.15,7.15,0,0,1,76.2,57a6.81,6.81,0,0,1,3.09-.69,6.29,6.29,0,0,1,3.13.78,5.72,5.72,0,0,1,2.21,2.21,6.65,6.65,0,0,1,.81,3.33,6.11,6.11,0,0,1-.87,3.28A5.79,5.79,0,0,1,82.18,68,7.62,7.62,0,0,1,78.75,68.79Zm-.54-2.1a4.6,4.6,0,0,0,2.19-.52A4.29,4.29,0,0,0,82,64.72a3.66,3.66,0,0,0,.62-2.08,3.92,3.92,0,0,0-.57-2.11,4.07,4.07,0,0,0-1.52-1.45,4.26,4.26,0,0,0-2.11-.52,4.71,4.71,0,0,0-2,.38A3.86,3.86,0,0,0,75,60a4.06,4.06,0,0,0-.81,1.62v2a3.38,3.38,0,0,0,.72,1.56,3.91,3.91,0,0,0,1.42,1.12A4.14,4.14,0,0,0,78.21,66.69Z"/><path class="cls-2" d="M91.71,56.77l.27,3.4-.12-.48a5.17,5.17,0,0,1,1.38-1.81,6.65,6.65,0,0,1,1.92-1.17,5.7,5.7,0,0,1,1.74-.42L96.78,59a4.29,4.29,0,0,0-2.51.5A4.76,4.76,0,0,0,92.59,61,3.87,3.87,0,0,0,92,63.15v5.36H89.19V56.77Z"/><path class="cls-2" d="M98.85,62.53a5.88,5.88,0,0,1,.88-3.18,6.28,6.28,0,0,1,2.46-2.24,7.63,7.63,0,0,1,3.59-.82,7.34,7.34,0,0,1,3.54.82,6.12,6.12,0,0,1,2.38,2.24,6.29,6.29,0,0,1,0,6.35A6.17,6.17,0,0,1,109.32,68a7.41,7.41,0,0,1-3.57.83,7.81,7.81,0,0,1-3.56-.78,6.06,6.06,0,0,1-2.44-2.18A6,6,0,0,1,98.85,62.53Zm2.82,0a4,4,0,0,0,.54,2.06,4.11,4.11,0,0,0,1.44,1.46,3.89,3.89,0,0,0,2,.54,3.89,3.89,0,0,0,3.49-2,4.25,4.25,0,0,0,0-4.11A4,4,0,0,0,107.76,59a4,4,0,0,0-2.07-.55,3.82,3.82,0,0,0-2.06.57,4.11,4.11,0,0,0-1.44,1.49A4,4,0,0,0,101.67,62.55Z"/><path class="cls-2" d="M117.33,68.51V59.12h-2.16V56.74h2.16V51.81a5.67,5.67,0,0,1,1.21-3.91,4.6,4.6,0,0,1,3.62-1.37,6.49,6.49,0,0,1,1.38.17,3.94,3.94,0,0,1,1.32.57l-1.17,1.9a1.22,1.22,0,0,0-.57-.35,2.26,2.26,0,0,0-.69-.1,2.09,2.09,0,0,0-1.71.71,3.79,3.79,0,0,0-.6,2.43v4.88h3.93v2.38h-3.93v9.39Z"/><path class="cls-2" d="M132.81,68.79a7.73,7.73,0,0,1-3.66-.81,5.89,5.89,0,0,1-2.37-2.21,6.14,6.14,0,0,1-.84-3.22,5.52,5.52,0,0,1,.94-3.14,7,7,0,0,1,2.51-2.27,7.12,7.12,0,0,1,3.48-.85A6.11,6.11,0,0,1,137,57.65a6.93,6.93,0,0,1,2.22,3.74l-10.26,3.4-.66-1.56,8.37-2.92-.57.4a3.82,3.82,0,0,0-1.2-1.61,3.34,3.34,0,0,0-2.19-.69,3.91,3.91,0,0,0-2,.52,3.67,3.67,0,0,0-1.39,1.4,4.11,4.11,0,0,0-.51,2.08,4.25,4.25,0,0,0,.52,2.13A3.75,3.75,0,0,0,130.72,66a4.36,4.36,0,0,0,2.15.52,4.44,4.44,0,0,0,1.57-.28,6.91,6.91,0,0,0,1.46-.74l1.26,2a8.51,8.51,0,0,1-2.09,1A7.27,7.27,0,0,1,132.81,68.79Z"/><path class="cls-2" d="M146.13,68.74a7.76,7.76,0,0,1-2.57-.44A5.12,5.12,0,0,1,141.51,67l1.17-1.53a6.51,6.51,0,0,0,1.62,1.06,4.13,4.13,0,0,0,2.73.21,1.65,1.65,0,0,0,.82-.48,1.38,1.38,0,0,0-.12-1.89,3.85,3.85,0,0,0-1.09-.58q-.66-.23-1.44-.42A5.46,5.46,0,0,1,142.86,62a2.9,2.9,0,0,1-.81-2.07,3.28,3.28,0,0,1,.49-1.75A3.74,3.74,0,0,1,144,56.87a5.07,5.07,0,0,1,2.4-.52,8.2,8.2,0,0,1,2.31.29,5.73,5.73,0,0,1,1.92,1l-1.11,1.64a3.6,3.6,0,0,0-1.28-.8,3.89,3.89,0,0,0-1.33-.27,3.29,3.29,0,0,0-1,.15,1.87,1.87,0,0,0-.75.46,1,1,0,0,0-.28.75,1.09,1.09,0,0,0,.4,1,3.68,3.68,0,0,0,1.1.58l1.35.45a7,7,0,0,1,1.62.68,3.77,3.77,0,0,1,1.15,1,2.68,2.68,0,0,1,.44,1.56,3.75,3.75,0,0,1-.53,1.94,3.63,3.63,0,0,1-1.59,1.42A6.11,6.11,0,0,1,146.13,68.74Z"/><path class="cls-2" d="M158.34,68.74a7.76,7.76,0,0,1-2.57-.44A5.12,5.12,0,0,1,153.72,67l1.17-1.53a6.51,6.51,0,0,0,1.62,1.06,4.13,4.13,0,0,0,2.73.21,1.65,1.65,0,0,0,.82-.48,1.38,1.38,0,0,0-.12-1.89,3.85,3.85,0,0,0-1.09-.58q-.66-.23-1.44-.42A5.46,5.46,0,0,1,155.07,62a2.9,2.9,0,0,1-.81-2.07,3.28,3.28,0,0,1,.49-1.75,3.74,3.74,0,0,1,1.49-1.33,5.07,5.07,0,0,1,2.4-.52,8.2,8.2,0,0,1,2.31.29,5.73,5.73,0,0,1,1.92,1l-1.11,1.64a3.6,3.6,0,0,0-1.28-.8,3.89,3.89,0,0,0-1.33-.27,3.29,3.29,0,0,0-1,.15,1.87,1.87,0,0,0-.75.46,1,1,0,0,0-.28.75,1.09,1.09,0,0,0,.4,1,3.68,3.68,0,0,0,1.1.58l1.35.45a7,7,0,0,1,1.62.68,3.77,3.77,0,0,1,1.15,1,2.68,2.68,0,0,1,.44,1.56,3.75,3.75,0,0,1-.53,1.94,3.63,3.63,0,0,1-1.59,1.42A6.11,6.11,0,0,1,158.34,68.74Z"/><path class="cls-2" d="M166,62.53a5.88,5.88,0,0,1,.88-3.18,6.28,6.28,0,0,1,2.46-2.24,7.63,7.63,0,0,1,3.59-.82,7.34,7.34,0,0,1,3.54.82,6.12,6.12,0,0,1,2.38,2.24,6.29,6.29,0,0,1,0,6.35A6.17,6.17,0,0,1,176.43,68a7.41,7.41,0,0,1-3.57.83A7.81,7.81,0,0,1,169.3,68a6.06,6.06,0,0,1-2.44-2.18A6,6,0,0,1,166,62.53Zm2.82,0a4,4,0,0,0,.54,2.06,4.11,4.11,0,0,0,1.44,1.46,3.89,3.89,0,0,0,2,.54,3.89,3.89,0,0,0,3.49-2,4.25,4.25,0,0,0,0-4.11A4,4,0,0,0,174.87,59a4,4,0,0,0-2.07-.55,3.82,3.82,0,0,0-2.06.57,4.11,4.11,0,0,0-1.44,1.49A4,4,0,0,0,168.78,62.55Z"/><path class="cls-2" d="M185.91,56.77l.27,3.4-.12-.48a5.17,5.17,0,0,1,1.38-1.81,6.65,6.65,0,0,1,1.92-1.17,5.7,5.7,0,0,1,1.74-.42L191,59a4.29,4.29,0,0,0-2.51.5A4.76,4.76,0,0,0,186.79,61a3.87,3.87,0,0,0-.61,2.11v5.36h-2.79V56.77Z"/><path class="cls-2" d="M199.92,68.79a7.73,7.73,0,0,1-3.66-.81,5.89,5.89,0,0,1-2.37-2.21,6.14,6.14,0,0,1-.84-3.22,5.52,5.52,0,0,1,.94-3.14,7,7,0,0,1,2.51-2.27,7.12,7.12,0,0,1,3.48-.85,6.11,6.11,0,0,1,4.08,1.36,6.93,6.93,0,0,1,2.22,3.74L196,64.79l-.66-1.56,8.37-2.92-.57.4A3.82,3.82,0,0,0,202,59.1a3.34,3.34,0,0,0-2.19-.69,3.91,3.91,0,0,0-2,.52,3.67,3.67,0,0,0-1.39,1.4,4.11,4.11,0,0,0-.51,2.08,4.25,4.25,0,0,0,.52,2.13A3.75,3.75,0,0,0,197.83,66a4.36,4.36,0,0,0,2.15.52,4.44,4.44,0,0,0,1.57-.28A6.91,6.91,0,0,0,203,65.5l1.26,2a8.51,8.51,0,0,1-2.09,1A7.27,7.27,0,0,1,199.92,68.79Z"/><path class="cls-2" d="M224.28,68.79a6.23,6.23,0,0,1-3.12-.78A5.79,5.79,0,0,1,219,65.8a6.46,6.46,0,0,1-.82-3.3,6.19,6.19,0,0,1,.87-3.35A5.86,5.86,0,0,1,221.34,57a7.27,7.27,0,0,1,3.3-.73,6.9,6.9,0,0,1,2.8.59,5,5,0,0,1,2.09,1.65l-.15.93V46.56h2.79v22h-2.79V65.59l.33.74a7.24,7.24,0,0,1-2.3,1.77A7,7,0,0,1,224.28,68.79Zm.87-2.24a4.52,4.52,0,0,0,2-.4,4.15,4.15,0,0,0,1.44-1.06,3.83,3.83,0,0,0,.83-1.57V61.28a3.63,3.63,0,0,0-.86-1.51,4.31,4.31,0,0,0-1.47-1,4.84,4.84,0,0,0-1.9-.36,4.24,4.24,0,0,0-2.07.52,4,4,0,0,0-1.53,1.41,3.89,3.89,0,0,0-.57,2.1,3.84,3.84,0,0,0,.57,2.08A4.26,4.26,0,0,0,223.08,66,4.06,4.06,0,0,0,225.15,66.55Z"/><path class="cls-2" d="M236.82,52.52a1.29,1.29,0,0,1,.52-1.05A1.83,1.83,0,0,1,238.5,51a1.76,1.76,0,0,1,1.14.43,1.35,1.35,0,0,1,0,2.11,1.79,1.79,0,0,1-1.14.41,1.87,1.87,0,0,1-1.16-.41A1.28,1.28,0,0,1,236.82,52.52Zm.18,4.25h2.82V68.51H237Z"/><path class="cls-2" d="M257.64,68.74a7.71,7.71,0,0,1-2.57-.44A5.12,5.12,0,0,1,253,67l1.16-1.53a6.56,6.56,0,0,0,1.63,1.06,4,4,0,0,0,1.62.35,3.9,3.9,0,0,0,1.1-.14,1.68,1.68,0,0,0,.83-.48,1.38,1.38,0,0,0-.12-1.89,3.92,3.92,0,0,0-1.1-.58c-.44-.15-.92-.29-1.43-.42A5.44,5.44,0,0,1,254.36,62a2.89,2.89,0,0,1-.8-2.07,3.28,3.28,0,0,1,.49-1.75,3.78,3.78,0,0,1,1.48-1.33,5.07,5.07,0,0,1,2.4-.52,8.32,8.32,0,0,1,2.32.29,5.83,5.83,0,0,1,1.92,1l-1.11,1.64a3.69,3.69,0,0,0-1.28-.8,3.89,3.89,0,0,0-1.34-.27,3.27,3.27,0,0,0-1,.15,1.87,1.87,0,0,0-.75.46,1,1,0,0,0-.29.75,1.13,1.13,0,0,0,.41,1,3.74,3.74,0,0,0,1.09.58l1.36.45a7.37,7.37,0,0,1,1.62.68,3.89,3.89,0,0,1,1.15,1,2.68,2.68,0,0,1,.44,1.56,3.75,3.75,0,0,1-.53,1.94,3.63,3.63,0,0,1-1.59,1.42A6.14,6.14,0,0,1,257.64,68.74Z"/><path class="cls-2" d="M276.44,67.4a6,6,0,0,1-2,1,7.56,7.56,0,0,1-2.33.37,7.93,7.93,0,0,1-3.56-.76,5.75,5.75,0,0,1-2.41-2.16,5.93,5.93,0,0,1-.87-3.26,5.66,5.66,0,0,1,.92-3.25,6.43,6.43,0,0,1,2.42-2.12,7,7,0,0,1,3.22-.75,8.46,8.46,0,0,1,2.66.38,6.19,6.19,0,0,1,2,1.09l-1.4,1.7a7.17,7.17,0,0,0-1.31-.69,4.56,4.56,0,0,0-1.76-.33,4,4,0,0,0-2,.53,3.9,3.9,0,0,0-1.44,1.41,4,4,0,0,0,1.51,5.49,4.49,4.49,0,0,0,2.23.54,4.59,4.59,0,0,0,1.45-.23,4.67,4.67,0,0,0,1.22-.62Z"/><path class="cls-2" d="M279.83,52.52a1.3,1.3,0,0,1,.53-1.05,1.83,1.83,0,0,1,1.16-.43,1.75,1.75,0,0,1,1.13.43,1.35,1.35,0,0,1,0,2.11,1.79,1.79,0,0,1-1.13.41,1.87,1.87,0,0,1-1.16-.41A1.29,1.29,0,0,1,279.83,52.52Zm.19,4.25h2.81V68.51H280Z"/><path class="cls-2" d="M293.45,68.79a7.73,7.73,0,0,1-3.66-.81,5.89,5.89,0,0,1-2.37-2.21,6.14,6.14,0,0,1-.84-3.22,5.53,5.53,0,0,1,.95-3.14,6.93,6.93,0,0,1,2.5-2.27,7.12,7.12,0,0,1,3.48-.85,6.11,6.11,0,0,1,4.08,1.36,6.93,6.93,0,0,1,2.22,3.74l-10.26,3.4-.66-1.56,8.37-2.92-.57.4a3.82,3.82,0,0,0-1.2-1.61,3.34,3.34,0,0,0-2.19-.69,3.87,3.87,0,0,0-2,.52,3.69,3.69,0,0,0-1.4,1.4,4.11,4.11,0,0,0-.51,2.08,4.26,4.26,0,0,0,.53,2.13A3.75,3.75,0,0,0,291.37,66a4.32,4.32,0,0,0,2.14.52,4.5,4.5,0,0,0,1.58-.28,6.84,6.84,0,0,0,1.45-.74l1.26,2a8.44,8.44,0,0,1-2.08,1A7.33,7.33,0,0,1,293.45,68.79Z"/><path class="cls-2" d="M305.81,56.77l.21,2.86-.09-.45a4.43,4.43,0,0,1,1.92-2.08,6.18,6.18,0,0,1,3.15-.78,4.23,4.23,0,0,1,2.87,1A3.31,3.31,0,0,1,315,59.83v8.68H312.2V60.74a2.35,2.35,0,0,0-.58-1.55,2.26,2.26,0,0,0-1.73-.61,3.49,3.49,0,0,0-1.93.57,3.87,3.87,0,0,0-1.38,1.56,5.09,5.09,0,0,0-.5,2.3v5.5h-2.82V56.77Z"/><path class="cls-2" d="M321,58.93a2.36,2.36,0,0,1-1.57-.54,2,2,0,0,1-.65-1.62V55.64h2.13V56a.7.7,0,0,0,.23.63,1.54,1.54,0,0,0,.76.14h8l-7.44,10.09-.57-.53h7.89v2.18H318.29l7.59-10.32.48.74Z"/><path class="cls-2" d="M339.53,68.79a7.73,7.73,0,0,1-3.66-.81,5.89,5.89,0,0,1-2.37-2.21,6.14,6.14,0,0,1-.84-3.22,5.53,5.53,0,0,1,.95-3.14,6.93,6.93,0,0,1,2.5-2.27,7.12,7.12,0,0,1,3.48-.85,6.11,6.11,0,0,1,4.08,1.36,6.93,6.93,0,0,1,2.22,3.74l-10.26,3.4L335,63.23l8.37-2.92-.57.4a3.82,3.82,0,0,0-1.2-1.61,3.34,3.34,0,0,0-2.19-.69,3.87,3.87,0,0,0-2,.52,3.69,3.69,0,0,0-1.4,1.4,4.11,4.11,0,0,0-.51,2.08,4.26,4.26,0,0,0,.53,2.13A3.75,3.75,0,0,0,337.45,66a4.32,4.32,0,0,0,2.14.52,4.5,4.5,0,0,0,1.58-.28,6.84,6.84,0,0,0,1.45-.74l1.26,2a8.44,8.44,0,0,1-2.08,1A7.33,7.33,0,0,1,339.53,68.79Z"/><path class="cls-2" d="M363.89,68.85,357,56.77h3.33L365,66.1,363.26,66l4.29-9.24h3.12L364,68.85Z"/><path class="cls-2" d="M379.13,68.79a7.73,7.73,0,0,1-3.66-.81,5.89,5.89,0,0,1-2.37-2.21,6.14,6.14,0,0,1-.84-3.22,5.53,5.53,0,0,1,.95-3.14,6.93,6.93,0,0,1,2.5-2.27,7.12,7.12,0,0,1,3.48-.85,6.11,6.11,0,0,1,4.08,1.36,6.93,6.93,0,0,1,2.22,3.74l-10.26,3.4-.66-1.56,8.37-2.92-.57.4a3.82,3.82,0,0,0-1.2-1.61,3.34,3.34,0,0,0-2.19-.69,3.87,3.87,0,0,0-2,.52,3.69,3.69,0,0,0-1.4,1.4,4.11,4.11,0,0,0-.51,2.08,4.26,4.26,0,0,0,.53,2.13A3.75,3.75,0,0,0,377.05,66a4.32,4.32,0,0,0,2.14.52,4.5,4.5,0,0,0,1.58-.28,6.84,6.84,0,0,0,1.45-.74l1.26,2a8.44,8.44,0,0,1-2.08,1A7.33,7.33,0,0,1,379.13,68.79Z"/><path class="cls-2" d="M394,68.79a6.23,6.23,0,0,1-3.12-.78,5.77,5.77,0,0,1-2.2-2.21,6.47,6.47,0,0,1-.83-3.3,6.19,6.19,0,0,1,.87-3.35A5.86,5.86,0,0,1,391.07,57a7.27,7.27,0,0,1,3.3-.73,6.94,6.94,0,0,1,2.81.59,5,5,0,0,1,2.08,1.65l-.15.93V46.56h2.79v22h-2.79V65.59l.33.74a7.2,7.2,0,0,1-2.29,1.77A7,7,0,0,1,394,68.79Zm.87-2.24a4.56,4.56,0,0,0,2-.4,4.15,4.15,0,0,0,1.44-1.06,3.81,3.81,0,0,0,.82-1.57V61.28a3.61,3.61,0,0,0-.85-1.51,4.31,4.31,0,0,0-1.47-1,4.89,4.89,0,0,0-1.91-.36,4.24,4.24,0,0,0-2.07.52,4,4,0,0,0-1.53,1.41,3.89,3.89,0,0,0-.57,2.1,3.84,3.84,0,0,0,.57,2.08A4.26,4.26,0,0,0,392.81,66,4.06,4.06,0,0,0,394.88,66.55Z"/><path class="cls-2" d="M412.52,68.79a7.73,7.73,0,0,1-3.66-.81,5.89,5.89,0,0,1-2.37-2.21,6.14,6.14,0,0,1-.84-3.22,5.53,5.53,0,0,1,1-3.14,6.93,6.93,0,0,1,2.5-2.27,7.12,7.12,0,0,1,3.48-.85,6.11,6.11,0,0,1,4.08,1.36,6.93,6.93,0,0,1,2.22,3.74l-10.26,3.4L408,63.23l8.37-2.92-.57.4a3.82,3.82,0,0,0-1.2-1.61,3.34,3.34,0,0,0-2.19-.69,3.87,3.87,0,0,0-2,.52,3.69,3.69,0,0,0-1.4,1.4,4.11,4.11,0,0,0-.51,2.08,4.26,4.26,0,0,0,.53,2.13A3.75,3.75,0,0,0,410.44,66a4.32,4.32,0,0,0,2.14.52,4.5,4.5,0,0,0,1.58-.28,6.84,6.84,0,0,0,1.45-.74l1.26,2a8.44,8.44,0,0,1-2.08,1A7.33,7.33,0,0,1,412.52,68.79Z"/><path class="cls-2" d="M431.63,52.52a1.3,1.3,0,0,1,.53-1.05,1.81,1.81,0,0,1,1.15-.43,1.76,1.76,0,0,1,1.14.43,1.35,1.35,0,0,1,0,2.11,1.79,1.79,0,0,1-1.14.41,1.84,1.84,0,0,1-1.15-.41A1.29,1.29,0,0,1,431.63,52.52Zm.18,4.25h2.82V68.51h-2.82Z"/><path class="cls-2" d="M439.46,46.56h2.82v22h-2.82Z"/><path class="cls-2" d="M460.1,68.74a7.76,7.76,0,0,1-2.57-.44,5.12,5.12,0,0,1-2-1.32l1.17-1.53a6.51,6.51,0,0,0,1.62,1.06,4.13,4.13,0,0,0,2.73.21,1.65,1.65,0,0,0,.82-.48,1.38,1.38,0,0,0-.12-1.89,3.85,3.85,0,0,0-1.09-.58q-.66-.23-1.44-.42A5.46,5.46,0,0,1,456.83,62,2.9,2.9,0,0,1,456,60a3.28,3.28,0,0,1,.49-1.75A3.74,3.74,0,0,1,458,56.87a5.07,5.07,0,0,1,2.4-.52,8.2,8.2,0,0,1,2.31.29,5.73,5.73,0,0,1,1.92,1l-1.11,1.64a3.6,3.6,0,0,0-1.28-.8,3.89,3.89,0,0,0-1.33-.27,3.29,3.29,0,0,0-1,.15,1.87,1.87,0,0,0-.75.46,1,1,0,0,0-.28.75,1.09,1.09,0,0,0,.4,1,3.68,3.68,0,0,0,1.1.58l1.35.45a7,7,0,0,1,1.62.68,3.77,3.77,0,0,1,1.15,1,2.68,2.68,0,0,1,.44,1.56,3.75,3.75,0,0,1-.53,1.94,3.63,3.63,0,0,1-1.59,1.42A6.11,6.11,0,0,1,460.1,68.74Z"/><path class="cls-2" d="M472.79,69A4.07,4.07,0,0,1,470,68a3.41,3.41,0,0,1-1.15-2.53V56.77h2.82v7.74a2.53,2.53,0,0,0,.6,1.55,2.2,2.2,0,0,0,1.68.63,3.1,3.1,0,0,0,1.84-.58,4.13,4.13,0,0,0,1.34-1.59,5,5,0,0,0,.51-2.28V56.77h2.79V68.51h-2.55l-.24-2.89.18.53a4.61,4.61,0,0,1-1.11,1.44,5.35,5.35,0,0,1-1.73,1A6.06,6.06,0,0,1,472.79,69Z"/><path class="cls-2" d="M484.1,62.53a5.88,5.88,0,0,1,.88-3.18,6.28,6.28,0,0,1,2.46-2.24,7.63,7.63,0,0,1,3.59-.82,7.34,7.34,0,0,1,3.54.82A6.12,6.12,0,0,1,497,59.35a6.29,6.29,0,0,1,0,6.35A6.17,6.17,0,0,1,494.57,68a7.41,7.41,0,0,1-3.57.83,7.81,7.81,0,0,1-3.56-.78A6.06,6.06,0,0,1,485,65.83,6,6,0,0,1,484.1,62.53Zm2.82,0a4,4,0,0,0,.54,2.06,4.11,4.11,0,0,0,1.44,1.46,3.89,3.89,0,0,0,2,.54,3.89,3.89,0,0,0,3.49-2,4.25,4.25,0,0,0,0-4.11A4,4,0,0,0,493,59a4,4,0,0,0-2.07-.55,3.82,3.82,0,0,0-2.06.57,4.11,4.11,0,0,0-1.44,1.49A4,4,0,0,0,486.92,62.55Z"/><path class="cls-2" d="M518.36,68.79a6.32,6.32,0,0,1-2.72-.62,4.86,4.86,0,0,1-2-1.67l.15-.83v8.48H511V56.6h2.43l.39,3-.3-.84A7.15,7.15,0,0,1,515.81,57a6.81,6.81,0,0,1,3.09-.69,6.29,6.29,0,0,1,3.13.78,5.72,5.72,0,0,1,2.21,2.21,6.65,6.65,0,0,1,.81,3.33,6.11,6.11,0,0,1-.87,3.28A5.79,5.79,0,0,1,521.79,68,7.62,7.62,0,0,1,518.36,68.79Zm-.54-2.1a4.6,4.6,0,0,0,2.19-.52,4.29,4.29,0,0,0,1.6-1.45,3.66,3.66,0,0,0,.62-2.08,3.92,3.92,0,0,0-.57-2.11,4.07,4.07,0,0,0-1.52-1.45,4.26,4.26,0,0,0-2.11-.52,4.71,4.71,0,0,0-1.95.38A3.86,3.86,0,0,0,514.64,60a4.06,4.06,0,0,0-.81,1.62v2a3.38,3.38,0,0,0,.72,1.56A3.91,3.91,0,0,0,516,66.28,4.14,4.14,0,0,0,517.82,66.69Z"/><path class="cls-2" d="M527.72,62.53a5.88,5.88,0,0,1,.88-3.18,6.28,6.28,0,0,1,2.46-2.24,7.63,7.63,0,0,1,3.59-.82,7.34,7.34,0,0,1,3.54.82,6.12,6.12,0,0,1,2.38,2.24,6.29,6.29,0,0,1,0,6.35A6.17,6.17,0,0,1,538.19,68a7.41,7.41,0,0,1-3.57.83,7.81,7.81,0,0,1-3.56-.78,6.06,6.06,0,0,1-2.44-2.18A6,6,0,0,1,527.72,62.53Zm2.82,0a4,4,0,0,0,.54,2.06,4.11,4.11,0,0,0,1.44,1.46,3.89,3.89,0,0,0,2,.54,3.89,3.89,0,0,0,3.49-2,4.25,4.25,0,0,0,0-4.11A4,4,0,0,0,536.63,59a4,4,0,0,0-2.07-.55,3.82,3.82,0,0,0-2.06.57,4.11,4.11,0,0,0-1.44,1.49A4,4,0,0,0,530.54,62.55Z"/><path class="cls-2" d="M546.35,51.61h2.85v5.22h3.39V58.9H549.2v9.61h-2.85V58.9H544.1V56.83h2.25Z"/><path class="cls-2" d="M561.74,68.79a7.73,7.73,0,0,1-3.66-.81,5.89,5.89,0,0,1-2.37-2.21,6.14,6.14,0,0,1-.84-3.22,5.52,5.52,0,0,1,.94-3.14,7,7,0,0,1,2.51-2.27,7.12,7.12,0,0,1,3.48-.85,6.11,6.11,0,0,1,4.08,1.36,6.93,6.93,0,0,1,2.22,3.74l-10.26,3.4-.66-1.56,8.37-2.92-.57.4a3.82,3.82,0,0,0-1.2-1.61,3.34,3.34,0,0,0-2.19-.69,3.91,3.91,0,0,0-2,.52,3.67,3.67,0,0,0-1.39,1.4,4.11,4.11,0,0,0-.51,2.08,4.25,4.25,0,0,0,.52,2.13A3.75,3.75,0,0,0,559.65,66a4.36,4.36,0,0,0,2.15.52,4.44,4.44,0,0,0,1.57-.28,6.91,6.91,0,0,0,1.46-.74l1.26,2a8.51,8.51,0,0,1-2.09,1A7.27,7.27,0,0,1,561.74,68.79Z"/><path class="cls-2" d="M574.1,56.77l.21,2.86-.09-.45a4.43,4.43,0,0,1,1.92-2.08,6.18,6.18,0,0,1,3.15-.78,4.2,4.2,0,0,1,2.86,1,3.32,3.32,0,0,1,1.16,2.54v8.68h-2.82V60.74a2.35,2.35,0,0,0-.59-1.55,2.23,2.23,0,0,0-1.72-.61,3.52,3.52,0,0,0-1.94.57,3.87,3.87,0,0,0-1.38,1.56,5.09,5.09,0,0,0-.49,2.3v5.5h-2.82V56.77Z"/><path class="cls-2" d="M589.31,58.93a2.38,2.38,0,0,1-1.58-.54,2,2,0,0,1-.64-1.62V55.64h2.13V56c0,.33.07.53.22.63a1.59,1.59,0,0,0,.77.14h8l-7.44,10.09-.57-.53h7.89v2.18H586.58l7.59-10.32.48.74Z"/><path class="cls-2" d="M601.85,52.52a1.29,1.29,0,0,1,.52-1.05,1.83,1.83,0,0,1,1.16-.43,1.76,1.76,0,0,1,1.14.43,1.35,1.35,0,0,1,0,2.11,1.79,1.79,0,0,1-1.14.41,1.87,1.87,0,0,1-1.16-.41A1.28,1.28,0,0,1,601.85,52.52Zm.18,4.25h2.82V68.51H602Z"/><path class="cls-2" d="M614.87,68.79a6.93,6.93,0,0,1-3.17-.71A5.39,5.39,0,0,1,609.44,66a7.11,7.11,0,0,1,0-6.76,5.87,5.87,0,0,1,2.34-2.19,6.84,6.84,0,0,1,3.21-.76,5.5,5.5,0,0,1,3,.75,5.24,5.24,0,0,1,1.82,1.77l-.18.43.27-2.47h2.58V68.51h-2.79V65.45l.33.68a3.49,3.49,0,0,1-.57.72,7.3,7.3,0,0,1-1.07.89,5.47,5.47,0,0,1-1.51.75A6.06,6.06,0,0,1,614.87,68.79Zm.75-2.18a4.59,4.59,0,0,0,1.89-.37,3.74,3.74,0,0,0,1.39-1,3.81,3.81,0,0,0,.77-1.59V61.31a3.5,3.5,0,0,0-.84-1.49,4,4,0,0,0-1.44-1,4.6,4.6,0,0,0-1.83-.36,4.23,4.23,0,0,0-2.07.51A3.91,3.91,0,0,0,612,60.4a4,4,0,0,0-.55,2.13A3.93,3.93,0,0,0,612,64.6a4.22,4.22,0,0,0,3.6,2Z"/><path class="cls-2" d="M627.29,46.56h2.81v22h-2.81Z"/><path class="cls-2" d="M640.72,68.79a7.73,7.73,0,0,1-3.66-.81,5.89,5.89,0,0,1-2.37-2.21,6.14,6.14,0,0,1-.84-3.22,5.53,5.53,0,0,1,.95-3.14,6.93,6.93,0,0,1,2.5-2.27,7.12,7.12,0,0,1,3.48-.85,6.11,6.11,0,0,1,4.08,1.36,6.93,6.93,0,0,1,2.22,3.74l-10.26,3.4-.66-1.56,8.37-2.92-.57.4a3.88,3.88,0,0,0-1.19-1.61,3.39,3.39,0,0,0-2.2-.69,3.87,3.87,0,0,0-2,.52,3.69,3.69,0,0,0-1.4,1.4,4.11,4.11,0,0,0-.51,2.08,4.26,4.26,0,0,0,.53,2.13A3.75,3.75,0,0,0,638.64,66a4.32,4.32,0,0,0,2.14.52,4.5,4.5,0,0,0,1.58-.28,6.84,6.84,0,0,0,1.45-.74l1.26,2a8.44,8.44,0,0,1-2.08,1A7.33,7.33,0,0,1,640.72,68.79Z"/><path class="cls-2" d="M29.19,102.82a7.73,7.73,0,0,1-3.66-.81,6,6,0,0,1-2.37-2.21,6.16,6.16,0,0,1-.84-3.22,5.58,5.58,0,0,1,.95-3.15,6.94,6.94,0,0,1,2.5-2.27,7.23,7.23,0,0,1,3.48-.85,6.16,6.16,0,0,1,4.08,1.36,7,7,0,0,1,2.22,3.75l-10.26,3.4-.66-1.56L33,94.34l-.57.39a3.82,3.82,0,0,0-1.2-1.61A3.39,3.39,0,0,0,29,92.44,3.94,3.94,0,0,0,27,93a3.76,3.76,0,0,0-1.4,1.4,4.15,4.15,0,0,0-.51,2.09,4.25,4.25,0,0,0,.53,2.12A3.57,3.57,0,0,0,27.11,100a4.33,4.33,0,0,0,2.14.53,4.51,4.51,0,0,0,1.58-.29,6.8,6.8,0,0,0,1.45-.73l1.26,2a9,9,0,0,1-2.08,1A7.69,7.69,0,0,1,29.19,102.82Z"/><path class="cls-2" d="M48.48,80.59H51.3v21.94H48.48Z"/><path class="cls-2" d="M55.05,96.55a5.9,5.9,0,0,1,.88-3.18,6.28,6.28,0,0,1,2.46-2.24A7.75,7.75,0,0,1,62,90.31a7.46,7.46,0,0,1,3.54.82,6.2,6.2,0,0,1,2.38,8.6A6.22,6.22,0,0,1,65.52,102a7.3,7.3,0,0,1-3.57.84,7.81,7.81,0,0,1-3.56-.78A6.09,6.09,0,0,1,56,99.85,6,6,0,0,1,55.05,96.55Zm2.82,0a4,4,0,0,0,.54,2,4,4,0,0,0,1.44,1.46,3.89,3.89,0,0,0,2,.54,3.94,3.94,0,0,0,2.07-.54,3.9,3.9,0,0,0,1.42-1.46A4.14,4.14,0,0,0,64,93.05a3.86,3.86,0,0,0-2.07-.55,3.82,3.82,0,0,0-2.06.56,4.19,4.19,0,0,0-1.44,1.49A4,4,0,0,0,57.87,96.58Z"/><path class="cls-2" d="M81.78,86.54a1.3,1.3,0,0,1,.52-1.05,1.82,1.82,0,0,1,1.16-.42,1.75,1.75,0,0,1,1.14.42,1.32,1.32,0,0,1,.51,1.05,1.28,1.28,0,0,1-.51,1.06,1.75,1.75,0,0,1-1.14.42,1.82,1.82,0,0,1-1.16-.42A1.27,1.27,0,0,1,81.78,86.54ZM82,90.79h2.82v11.74H82Z"/><path class="cls-2" d="M92.16,90.79l.21,2.87-.09-.46a4.47,4.47,0,0,1,1.92-2.08,6.18,6.18,0,0,1,3.15-.78,4.21,4.21,0,0,1,2.86,1,3.3,3.3,0,0,1,1.16,2.54v8.67H98.55V94.76A2.31,2.31,0,0,0,98,93.22a2.2,2.2,0,0,0-1.72-.61,3.52,3.52,0,0,0-1.94.57,3.78,3.78,0,0,0-1.38,1.55,5.12,5.12,0,0,0-.49,2.3v5.5H89.61V90.79Z"/><path class="cls-2" d="M116.31,101.43a6.55,6.55,0,0,1-2,1,8.18,8.18,0,0,1-5.9-.4A5.85,5.85,0,0,1,106,99.9a6.05,6.05,0,0,1-.87-3.27,5.66,5.66,0,0,1,.93-3.24,6.27,6.27,0,0,1,2.41-2.13,7.07,7.07,0,0,1,3.23-.75,8.74,8.74,0,0,1,2.65.38A6.43,6.43,0,0,1,116.4,92L115,93.69a6.32,6.32,0,0,0-1.31-.7,4.51,4.51,0,0,0-1.75-.32,4,4,0,0,0-2,.52,3.85,3.85,0,0,0-1.44,1.42,4.11,4.11,0,0,0,0,4,4,4,0,0,0,1.5,1.44,4.45,4.45,0,0,0,2.22.54,4.54,4.54,0,0,0,1.45-.22,4.28,4.28,0,0,0,1.22-.63Z"/><path class="cls-2" d="M118.8,96.55a5.9,5.9,0,0,1,.88-3.18,6.28,6.28,0,0,1,2.46-2.24,7.75,7.75,0,0,1,3.59-.82,7.46,7.46,0,0,1,3.54.82,6.2,6.2,0,0,1,2.38,8.6,6.22,6.22,0,0,1-2.38,2.25,7.3,7.3,0,0,1-3.57.84,7.81,7.81,0,0,1-3.56-.78,6.09,6.09,0,0,1-2.44-2.19A6,6,0,0,1,118.8,96.55Zm2.82,0a4,4,0,0,0,.54,2,4,4,0,0,0,1.44,1.46,3.89,3.89,0,0,0,2,.54,3.94,3.94,0,0,0,2.07-.54,3.9,3.9,0,0,0,1.42-1.46,4.14,4.14,0,0,0-1.42-5.58,3.86,3.86,0,0,0-2.07-.55,3.82,3.82,0,0,0-2.06.56,4.19,4.19,0,0,0-1.44,1.49A4,4,0,0,0,121.62,96.58Z"/><path class="cls-2" d="M138.75,90.79,139,94.2l-.12-.49a5.27,5.27,0,0,1,1.38-1.81,6.61,6.61,0,0,1,1.92-1.16,5.47,5.47,0,0,1,1.74-.43L143.82,93a4.29,4.29,0,0,0-2.51.49,4.76,4.76,0,0,0-1.68,1.59,3.89,3.89,0,0,0-.61,2.11v5.36h-2.79V90.79Z"/><path class="cls-2" d="M152.25,102.82a7.06,7.06,0,0,1-3.17-.71,5.48,5.48,0,0,1-2.26-2.09,6.3,6.3,0,0,1-.84-3.36,6.39,6.39,0,0,1,.87-3.4,5.92,5.92,0,0,1,2.34-2.18,6.85,6.85,0,0,1,3.21-.77,5.5,5.5,0,0,1,2.95.75,5.18,5.18,0,0,1,1.82,1.78l-.18.42.27-2.47h2.58v11.74h-2.79V99.47l.33.68a3.49,3.49,0,0,1-.57.72,7.32,7.32,0,0,1-1.07.9,6,6,0,0,1-3.49,1Zm.75-2.19a4.59,4.59,0,0,0,1.89-.37,3.54,3.54,0,0,0,1.39-1.05,3.83,3.83,0,0,0,.77-1.58v-2.3a3.56,3.56,0,0,0-.84-1.49,4.3,4.3,0,0,0-1.44-1,4.59,4.59,0,0,0-1.83-.35,4.23,4.23,0,0,0-2.07.51,4,4,0,0,0-1.49,1.41,4,4,0,0,0-.55,2.13,3.88,3.88,0,0,0,.57,2.07,4.22,4.22,0,0,0,3.6,2Z"/><path class="cls-2" d="M170.69,108.37a8.61,8.61,0,0,1-2.44-.31,7.61,7.61,0,0,1-1.92-.85,18.71,18.71,0,0,1-1.66-1.19l1.64-1.82a8.91,8.91,0,0,0,2,1.34,5.32,5.32,0,0,0,2.28.48,5.83,5.83,0,0,0,2.39-.44,3.24,3.24,0,0,0,1.47-1.21,3.29,3.29,0,0,0,.52-1.78l0-3.18.24.51a4.68,4.68,0,0,1-1.95,2.06,6.62,6.62,0,0,1-3.42.84,6.15,6.15,0,0,1-3.12-.83,6.39,6.39,0,0,1-2.31-2.22,5.8,5.8,0,0,1-.87-3.16,6,6,0,0,1,.89-3.26,6.48,6.48,0,0,1,2.39-2.23,6.62,6.62,0,0,1,3.23-.81,7,7,0,0,1,3,.64,4.83,4.83,0,0,1,2,1.63l-.18.48.26-2.27h2.59v11.83a5.16,5.16,0,0,1-.86,2.89,6,6,0,0,1-2.46,2.08A8.62,8.62,0,0,1,170.69,108.37ZM166.4,96.55a3.81,3.81,0,0,0,.59,2.07,4.24,4.24,0,0,0,1.56,1.47,4.36,4.36,0,0,0,2.14.54,4.92,4.92,0,0,0,2-.38,4.35,4.35,0,0,0,1.49-1.06,4.26,4.26,0,0,0,.84-1.51V95.33a3.41,3.41,0,0,0-.91-1.47,4.75,4.75,0,0,0-1.5-1,5,5,0,0,0-1.92-.36,4.46,4.46,0,0,0-2.14.52A4.21,4.21,0,0,0,167,94.45,3.82,3.82,0,0,0,166.4,96.55Z"/><path class="cls-2" d="M188.66,108.37a8.61,8.61,0,0,1-2.44-.31,7.61,7.61,0,0,1-1.92-.85,18.71,18.71,0,0,1-1.66-1.19l1.64-1.82a8.91,8.91,0,0,0,2,1.34,5.29,5.29,0,0,0,2.28.48,5.83,5.83,0,0,0,2.39-.44,3.24,3.24,0,0,0,1.47-1.21,3.38,3.38,0,0,0,.52-1.78l0-3.18.24.51a4.57,4.57,0,0,1-1.95,2.06,6.57,6.57,0,0,1-3.42.84,6.17,6.17,0,0,1-3.12-.83,6.36,6.36,0,0,1-2.3-2.22,5.8,5.8,0,0,1-.87-3.16,5.93,5.93,0,0,1,.89-3.26,6.48,6.48,0,0,1,2.39-2.23,6.61,6.61,0,0,1,3.22-.81,7,7,0,0,1,3,.64,4.73,4.73,0,0,1,2,1.63l-.17.48.26-2.27h2.58v11.83a5.15,5.15,0,0,1-.85,2.89,6,6,0,0,1-2.46,2.08A8.62,8.62,0,0,1,188.66,108.37Zm-4.29-11.82a3.81,3.81,0,0,0,.59,2.07,4.24,4.24,0,0,0,1.56,1.47,4.36,4.36,0,0,0,2.14.54,4.92,4.92,0,0,0,2-.38,4.22,4.22,0,0,0,1.48-1.06,4,4,0,0,0,.84-1.51V95.33a3.3,3.3,0,0,0-.9-1.47,4.75,4.75,0,0,0-1.5-1,5,5,0,0,0-1.92-.36,4.46,4.46,0,0,0-2.14.52A4.21,4.21,0,0,0,185,94.45,3.82,3.82,0,0,0,184.37,96.55Z"/><path class="cls-2" d="M200.42,86.54a1.31,1.31,0,0,1,.53-1.05,1.79,1.79,0,0,1,1.15-.42,1.75,1.75,0,0,1,1.14.42,1.32,1.32,0,0,1,.51,1.05,1.28,1.28,0,0,1-.51,1.06,1.75,1.75,0,0,1-1.14.42A1.79,1.79,0,0,1,201,87.6,1.28,1.28,0,0,1,200.42,86.54Zm.18,4.25h2.82v11.74H200.6Z"/><path class="cls-2" d="M213.44,102.82a7,7,0,0,1-3.16-.71A5.51,5.51,0,0,1,208,100a6.3,6.3,0,0,1-.84-3.36,6.39,6.39,0,0,1,.87-3.4,5.92,5.92,0,0,1,2.34-2.18,6.85,6.85,0,0,1,3.21-.77,5.54,5.54,0,0,1,3,.75,5.15,5.15,0,0,1,1.81,1.78l-.18.42.27-2.47H221v11.74h-2.79V99.47l.33.68a3.49,3.49,0,0,1-.57.72,7.19,7.19,0,0,1-1.06.9,6.16,6.16,0,0,1-1.52.75A6.06,6.06,0,0,1,213.44,102.82Zm.75-2.19a4.59,4.59,0,0,0,1.89-.37,3.57,3.57,0,0,0,1.4-1.05,3.81,3.81,0,0,0,.76-1.58v-2.3a3.56,3.56,0,0,0-.84-1.49,4.3,4.3,0,0,0-1.44-1,4.59,4.59,0,0,0-1.83-.35,4.23,4.23,0,0,0-2.07.51,3.93,3.93,0,0,0-1.48,1.41,4,4,0,0,0-.56,2.13,3.88,3.88,0,0,0,.57,2.07,4.22,4.22,0,0,0,3.6,2Z"/><path class="cls-2" d="M240.53,102.82a7,7,0,0,1-3.16-.71A5.51,5.51,0,0,1,235.1,100a6.3,6.3,0,0,1-.84-3.36,6.39,6.39,0,0,1,.87-3.4,5.92,5.92,0,0,1,2.34-2.18,6.85,6.85,0,0,1,3.21-.77,5.54,5.54,0,0,1,3,.75,5.15,5.15,0,0,1,1.81,1.78l-.18.42.27-2.47h2.58v11.74h-2.79V99.47l.33.68a3.49,3.49,0,0,1-.57.72,7.19,7.19,0,0,1-1.06.9,6.16,6.16,0,0,1-1.52.75A6.06,6.06,0,0,1,240.53,102.82Zm.75-2.19a4.59,4.59,0,0,0,1.89-.37,3.57,3.57,0,0,0,1.4-1.05,3.81,3.81,0,0,0,.76-1.58v-2.3a3.56,3.56,0,0,0-.84-1.49,4.3,4.3,0,0,0-1.44-1,4.59,4.59,0,0,0-1.83-.35,4.23,4.23,0,0,0-2.07.51,3.93,3.93,0,0,0-1.48,1.41,4,4,0,0,0-.56,2.13,3.88,3.88,0,0,0,.57,2.07,4.22,4.22,0,0,0,3.6,2Z"/><path class="cls-2" d="M265,90.79l.27,3.41-.12-.49a5.27,5.27,0,0,1,1.38-1.81,6.61,6.61,0,0,1,1.92-1.16,5.47,5.47,0,0,1,1.74-.43L270,93a4.26,4.26,0,0,0-2.5.49,4.76,4.76,0,0,0-1.68,1.59,3.9,3.9,0,0,0-.62,2.11v5.36h-2.79V90.79Z"/><path class="cls-2" d="M273.53,86.54a1.31,1.31,0,0,1,.53-1.05,1.79,1.79,0,0,1,1.15-.42,1.75,1.75,0,0,1,1.14.42,1.32,1.32,0,0,1,.51,1.05,1.28,1.28,0,0,1-.51,1.06,1.75,1.75,0,0,1-1.14.42,1.79,1.79,0,0,1-1.15-.42A1.28,1.28,0,0,1,273.53,86.54Zm.18,4.25h2.82v11.74h-2.82Z"/><path class="cls-2" d="M286.55,102.82a7,7,0,0,1-3.16-.71,5.45,5.45,0,0,1-2.27-2.09,6.3,6.3,0,0,1-.84-3.36,6.39,6.39,0,0,1,.87-3.4,5.92,5.92,0,0,1,2.34-2.18,6.85,6.85,0,0,1,3.21-.77,5.54,5.54,0,0,1,3,.75,5.15,5.15,0,0,1,1.81,1.78l-.18.42.27-2.47h2.58v11.74h-2.79V99.47l.33.68a3.49,3.49,0,0,1-.57.72,7.75,7.75,0,0,1-1.06.9,6.34,6.34,0,0,1-1.52.75A6.06,6.06,0,0,1,286.55,102.82Zm.75-2.19a4.59,4.59,0,0,0,1.89-.37,3.57,3.57,0,0,0,1.4-1.05,3.81,3.81,0,0,0,.76-1.58v-2.3a3.56,3.56,0,0,0-.84-1.49,4.3,4.3,0,0,0-1.44-1,4.59,4.59,0,0,0-1.83-.35,4.23,4.23,0,0,0-2.07.51,3.84,3.84,0,0,0-2,3.54,3.88,3.88,0,0,0,.57,2.07,4.22,4.22,0,0,0,3.6,2Z"/><path class="cls-2" d="M309.08,101.43a6.55,6.55,0,0,1-2,1,8.15,8.15,0,0,1-5.89-.4,5.82,5.82,0,0,1-2.42-2.15,6.05,6.05,0,0,1-.87-3.27,5.66,5.66,0,0,1,.93-3.24,6.27,6.27,0,0,1,2.41-2.13,7.07,7.07,0,0,1,3.23-.75,8.74,8.74,0,0,1,2.65.38A6.43,6.43,0,0,1,309.17,92l-1.41,1.71a6.32,6.32,0,0,0-1.31-.7,4.51,4.51,0,0,0-1.75-.32,4,4,0,0,0-2,.52,3.8,3.8,0,0,0-1.45,1.42,4.11,4.11,0,0,0,0,4,4,4,0,0,0,1.5,1.44,4.45,4.45,0,0,0,2.22.54,4.65,4.65,0,0,0,1.46-.22,4.35,4.35,0,0,0,1.21-.63Z"/><path class="cls-2" d="M322.76,101.43a6.55,6.55,0,0,1-2,1,8.18,8.18,0,0,1-5.9-.4,5.85,5.85,0,0,1-2.41-2.15,6.05,6.05,0,0,1-.87-3.27,5.66,5.66,0,0,1,.93-3.24,6.27,6.27,0,0,1,2.41-2.13,7.07,7.07,0,0,1,3.23-.75,8.74,8.74,0,0,1,2.65.38A6.43,6.43,0,0,1,322.85,92l-1.41,1.71a6.32,6.32,0,0,0-1.31-.7,4.51,4.51,0,0,0-1.75-.32,4,4,0,0,0-2,.52,3.85,3.85,0,0,0-1.44,1.42,4.11,4.11,0,0,0,0,4,4,4,0,0,0,1.5,1.44,4.45,4.45,0,0,0,2.22.54,4.54,4.54,0,0,0,1.45-.22,4.28,4.28,0,0,0,1.22-.63Z"/><path class="cls-2" d="M332.12,102.82a7.73,7.73,0,0,1-3.66-.81,6,6,0,0,1-2.37-2.21,6.16,6.16,0,0,1-.84-3.22,5.57,5.57,0,0,1,.94-3.15,7.05,7.05,0,0,1,2.51-2.27,7.23,7.23,0,0,1,3.48-.85,6.16,6.16,0,0,1,4.08,1.36,7,7,0,0,1,2.22,3.75l-10.26,3.4-.66-1.56,8.37-2.92-.57.39a3.82,3.82,0,0,0-1.2-1.61,3.39,3.39,0,0,0-2.19-.68,4,4,0,0,0-2,.51,3.74,3.74,0,0,0-1.39,1.4,4.15,4.15,0,0,0-.51,2.09,4.24,4.24,0,0,0,.52,2.12A3.69,3.69,0,0,0,330,100a4.36,4.36,0,0,0,2.15.53,4.45,4.45,0,0,0,1.57-.29,6.87,6.87,0,0,0,1.46-.73l1.26,2a8.92,8.92,0,0,1-2.09,1A7.57,7.57,0,0,1,332.12,102.82Z"/><path class="cls-2" d="M344.48,90.79l.21,2.87-.09-.46a4.47,4.47,0,0,1,1.92-2.08,6.18,6.18,0,0,1,3.15-.78,4.21,4.21,0,0,1,2.86,1,3.3,3.3,0,0,1,1.16,2.54v8.67h-2.82V94.76a2.31,2.31,0,0,0-.59-1.54,2.2,2.2,0,0,0-1.72-.61,3.52,3.52,0,0,0-1.94.57,3.78,3.78,0,0,0-1.38,1.55,5.12,5.12,0,0,0-.49,2.3v5.5h-2.82V90.79Z"/><path class="cls-2" d="M363.59,102.82a6.23,6.23,0,0,1-3.12-.78,5.82,5.82,0,0,1-2.21-2.22,6.46,6.46,0,0,1-.82-3.3,6.15,6.15,0,0,1,.87-3.34,5.72,5.72,0,0,1,2.34-2.13,7.28,7.28,0,0,1,3.3-.74,6.74,6.74,0,0,1,2.8.6,4.94,4.94,0,0,1,2.09,1.64l-.15.94V80.59h2.79v21.94h-2.79V99.61l.33.74a7.06,7.06,0,0,1-5.43,2.47Zm.87-2.24a4.67,4.67,0,0,0,2-.4,4.42,4.42,0,0,0,1.44-1.06,3.87,3.87,0,0,0,.83-1.58V95.3a3.53,3.53,0,0,0-.86-1.5,4.2,4.2,0,0,0-1.47-1,5,5,0,0,0-1.9-.35,4.35,4.35,0,0,0-2.07.51,4,4,0,0,0-1.53,1.42,3.83,3.83,0,0,0-.57,2.09,3.88,3.88,0,0,0,.57,2.09,4.31,4.31,0,0,0,1.53,1.47A4.07,4.07,0,0,0,364.46,100.58Z"/><path class="cls-2" d="M382.1,102.82a7.73,7.73,0,0,1-3.66-.81,6,6,0,0,1-2.37-2.21,6.16,6.16,0,0,1-.84-3.22,5.57,5.57,0,0,1,.94-3.15,7.05,7.05,0,0,1,2.51-2.27,7.23,7.23,0,0,1,3.48-.85,6.16,6.16,0,0,1,4.08,1.36,7,7,0,0,1,2.22,3.75l-10.26,3.4-.66-1.56,8.37-2.92-.57.39a3.82,3.82,0,0,0-1.2-1.61,3.39,3.39,0,0,0-2.19-.68,4,4,0,0,0-2,.51,3.74,3.74,0,0,0-1.39,1.4,4.15,4.15,0,0,0-.51,2.09,4.24,4.24,0,0,0,.52,2.12A3.69,3.69,0,0,0,380,100a4.36,4.36,0,0,0,2.15.53,4.45,4.45,0,0,0,1.57-.29,6.87,6.87,0,0,0,1.46-.73l1.26,2a8.92,8.92,0,0,1-2.09,1A7.57,7.57,0,0,1,382.1,102.82Z"/><path class="cls-2" d="M394.43,90.79l.27,3.41-.12-.49A5.27,5.27,0,0,1,396,91.9a6.61,6.61,0,0,1,1.92-1.16,5.47,5.47,0,0,1,1.74-.43L399.5,93a4.29,4.29,0,0,0-2.51.49,4.76,4.76,0,0,0-1.68,1.59,3.89,3.89,0,0,0-.61,2.11v5.36h-2.79V90.79Z"/><path class="cls-2" d="M408.44,102.82a7.73,7.73,0,0,1-3.66-.81,6,6,0,0,1-2.37-2.21,6.16,6.16,0,0,1-.84-3.22,5.57,5.57,0,0,1,.94-3.15A7.05,7.05,0,0,1,405,91.16a7.23,7.23,0,0,1,3.48-.85,6.16,6.16,0,0,1,4.08,1.36,7,7,0,0,1,2.22,3.75l-10.26,3.4-.66-1.56,8.37-2.92-.57.39a3.82,3.82,0,0,0-1.2-1.61,3.39,3.39,0,0,0-2.19-.68,4,4,0,0,0-2,.51,3.74,3.74,0,0,0-1.39,1.4,4.15,4.15,0,0,0-.51,2.09,4.24,4.24,0,0,0,.52,2.12,3.69,3.69,0,0,0,1.47,1.46,4.36,4.36,0,0,0,2.15.53,4.45,4.45,0,0,0,1.57-.29,6.87,6.87,0,0,0,1.46-.73l1.26,2a8.92,8.92,0,0,1-2.09,1A7.57,7.57,0,0,1,408.44,102.82Z"/><path class="cls-2" d="M427.73,80.59h2.82v21.94h-2.82Z"/><path class="cls-2" d="M440.57,102.82a7.06,7.06,0,0,1-3.17-.71,5.48,5.48,0,0,1-2.26-2.09,6.3,6.3,0,0,1-.84-3.36,6.39,6.39,0,0,1,.87-3.4,5.92,5.92,0,0,1,2.34-2.18,6.85,6.85,0,0,1,3.21-.77,5.5,5.5,0,0,1,2.95.75,5.18,5.18,0,0,1,1.82,1.78l-.18.42.27-2.47h2.58v11.74h-2.79V99.47l.33.68a3.49,3.49,0,0,1-.57.72,7.32,7.32,0,0,1-1.07.9,6,6,0,0,1-3.49,1Zm.75-2.19a4.59,4.59,0,0,0,1.89-.37,3.54,3.54,0,0,0,1.39-1.05,3.83,3.83,0,0,0,.77-1.58v-2.3a3.56,3.56,0,0,0-.84-1.49,4.3,4.3,0,0,0-1.44-1,4.59,4.59,0,0,0-1.83-.35,4.23,4.23,0,0,0-2.07.51,4,4,0,0,0-1.49,1.41,4,4,0,0,0-.55,2.13,3.88,3.88,0,0,0,.57,2.07,4.22,4.22,0,0,0,3.6,2Z"/><path class="cls-2" d="M469.82,102.82a6.19,6.19,0,0,1-2.72-.63,4.72,4.72,0,0,1-2-1.67l.15-.82v8.47h-2.79V90.62h2.43l.39,3-.3-.85A7,7,0,0,1,467.27,91a6.69,6.69,0,0,1,3.09-.7,6.29,6.29,0,0,1,3.13.78,5.72,5.72,0,0,1,2.21,2.21,6.68,6.68,0,0,1,.81,3.33,6.11,6.11,0,0,1-.87,3.28,5.72,5.72,0,0,1-2.39,2.15A7.62,7.62,0,0,1,469.82,102.82Zm-.54-2.1a4.6,4.6,0,0,0,2.19-.53,4.35,4.35,0,0,0,1.6-1.44,3.69,3.69,0,0,0,.62-2.09,4,4,0,0,0-.57-2.11,4.15,4.15,0,0,0-1.52-1.45,4.37,4.37,0,0,0-2.11-.52,4.88,4.88,0,0,0-1.95.38A3.89,3.89,0,0,0,466.1,94a4,4,0,0,0-.81,1.61v2a3.47,3.47,0,0,0,.72,1.56,4.14,4.14,0,0,0,1.42,1.12A4.28,4.28,0,0,0,469.28,100.72Z"/><path class="cls-2" d="M485.45,102.82a7.06,7.06,0,0,1-3.17-.71A5.48,5.48,0,0,1,480,100a6.3,6.3,0,0,1-.84-3.36,6.39,6.39,0,0,1,.87-3.4,5.92,5.92,0,0,1,2.34-2.18,6.85,6.85,0,0,1,3.21-.77,5.5,5.5,0,0,1,2.95.75,5.18,5.18,0,0,1,1.82,1.78l-.18.42.27-2.47H493v11.74h-2.79V99.47l.33.68a3.49,3.49,0,0,1-.57.72,7.32,7.32,0,0,1-1.07.9,6,6,0,0,1-3.49,1Zm.75-2.19a4.59,4.59,0,0,0,1.89-.37,3.54,3.54,0,0,0,1.39-1.05,3.83,3.83,0,0,0,.77-1.58v-2.3a3.56,3.56,0,0,0-.84-1.49,4.3,4.3,0,0,0-1.44-1,4.59,4.59,0,0,0-1.83-.35,4.23,4.23,0,0,0-2.07.51,4,4,0,0,0-1.49,1.41,4,4,0,0,0-.55,2.13,3.88,3.88,0,0,0,.57,2.07,4.22,4.22,0,0,0,3.6,2Z"/><path class="cls-2" d="M501.38,102.76a7.71,7.71,0,0,1-2.57-.44,4.92,4.92,0,0,1-2.05-1.32l1.17-1.53a6.24,6.24,0,0,0,1.62,1.06,4,4,0,0,0,1.62.36,4.3,4.3,0,0,0,1.1-.14,1.77,1.77,0,0,0,.83-.49,1.24,1.24,0,0,0,.32-.88,1.21,1.21,0,0,0-.44-1,3.52,3.52,0,0,0-1.09-.58c-.45-.15-.92-.3-1.44-.43A5.4,5.4,0,0,1,498.1,96a2.89,2.89,0,0,1-.8-2.07,3.27,3.27,0,0,1,.49-1.74,3.8,3.8,0,0,1,1.48-1.34,5.08,5.08,0,0,1,2.41-.52,8.24,8.24,0,0,1,2.31.3,5.53,5.53,0,0,1,1.92,1l-1.11,1.65a3.58,3.58,0,0,0-1.28-.81,3.89,3.89,0,0,0-1.34-.27,3,3,0,0,0-1,.16,1.75,1.75,0,0,0-.75.45,1.05,1.05,0,0,0-.29.75,1.12,1.12,0,0,0,.41,1,3.52,3.52,0,0,0,1.09.58l1.36.46a6.57,6.57,0,0,1,1.62.68,3.53,3.53,0,0,1,1.15,1,2.63,2.63,0,0,1,.44,1.55,3.81,3.81,0,0,1-.53,1.95,3.67,3.67,0,0,1-1.59,1.41A6.14,6.14,0,0,1,501.38,102.76Z"/><path class="cls-2" d="M513.59,102.76a7.71,7.71,0,0,1-2.57-.44,4.92,4.92,0,0,1-2-1.32l1.17-1.53a6.24,6.24,0,0,0,1.62,1.06,4,4,0,0,0,1.62.36,4.3,4.3,0,0,0,1.1-.14,1.77,1.77,0,0,0,.83-.49,1.24,1.24,0,0,0,.32-.88,1.21,1.21,0,0,0-.44-1,3.52,3.52,0,0,0-1.09-.58c-.45-.15-.92-.3-1.44-.43A5.4,5.4,0,0,1,510.31,96a2.89,2.89,0,0,1-.8-2.07,3.27,3.27,0,0,1,.49-1.74,3.8,3.8,0,0,1,1.48-1.34,5.08,5.08,0,0,1,2.41-.52,8.24,8.24,0,0,1,2.31.3,5.53,5.53,0,0,1,1.92,1L517,93.32a3.58,3.58,0,0,0-1.28-.81,3.89,3.89,0,0,0-1.34-.27,3,3,0,0,0-1,.16,1.75,1.75,0,0,0-.75.45,1.05,1.05,0,0,0-.29.75,1.12,1.12,0,0,0,.41,1,3.52,3.52,0,0,0,1.09.58l1.36.46a6.57,6.57,0,0,1,1.62.68,3.53,3.53,0,0,1,1.15,1,2.63,2.63,0,0,1,.44,1.55,3.81,3.81,0,0,1-.53,1.95,3.67,3.67,0,0,1-1.59,1.41A6.14,6.14,0,0,1,513.59,102.76Z"/><path class="cls-2" d="M522.1,86.54a1.31,1.31,0,0,1,.53-1.05,1.82,1.82,0,0,1,1.16-.42,1.77,1.77,0,0,1,1.14.42,1.31,1.31,0,0,1,.5,1.05,1.28,1.28,0,0,1-.5,1.06,1.77,1.77,0,0,1-1.14.42,1.82,1.82,0,0,1-1.16-.42A1.28,1.28,0,0,1,522.1,86.54Zm.19,4.25h2.81v11.74h-2.81Z"/><path class="cls-2" d="M528.85,96.55a5.91,5.91,0,0,1,.89-3.18,6.28,6.28,0,0,1,2.46-2.24,7.71,7.71,0,0,1,3.58-.82,7.43,7.43,0,0,1,3.54.82,6.15,6.15,0,0,1,2.39,2.24,6.37,6.37,0,0,1,0,6.36,6.25,6.25,0,0,1-2.39,2.25,7.27,7.27,0,0,1-3.57.84,7.76,7.76,0,0,1-3.55-.78,6.11,6.11,0,0,1-2.45-2.19A6,6,0,0,1,528.85,96.55Zm2.82,0a4,4,0,0,0,.54,2,4,4,0,0,0,1.44,1.46,3.89,3.89,0,0,0,2,.54,3.89,3.89,0,0,0,3.5-2,4.32,4.32,0,0,0,0-4.11,4.17,4.17,0,0,0-1.42-1.47,3.92,3.92,0,0,0-2.08-.55,3.78,3.78,0,0,0-2.05.56,4.19,4.19,0,0,0-1.44,1.49A4,4,0,0,0,531.67,96.58Z"/><path class="cls-2" d="M548.83,90.79l.21,2.87L549,93.2a4.47,4.47,0,0,1,1.92-2.08,6.18,6.18,0,0,1,3.15-.78,4.23,4.23,0,0,1,2.87,1A3.29,3.29,0,0,1,558,93.86v8.67h-2.82V94.76a2.3,2.3,0,0,0-.58-1.54,2.22,2.22,0,0,0-1.73-.61,3.49,3.49,0,0,0-1.93.57,3.78,3.78,0,0,0-1.38,1.55,5.12,5.12,0,0,0-.5,2.3v5.5h-2.82V90.79Z"/><path class="cls-2" d="M568.66,102.82A7.73,7.73,0,0,1,565,102a6,6,0,0,1-2.37-2.21,6.16,6.16,0,0,1-.84-3.22,5.58,5.58,0,0,1,1-3.15,7,7,0,0,1,2.5-2.27,7.23,7.23,0,0,1,3.48-.85,6.16,6.16,0,0,1,4.08,1.36A7,7,0,0,1,575,95.42l-10.26,3.4-.66-1.56,8.37-2.92-.57.39a3.82,3.82,0,0,0-1.2-1.61,3.39,3.39,0,0,0-2.19-.68,4,4,0,0,0-2,.51,3.76,3.76,0,0,0-1.4,1.4,4.15,4.15,0,0,0-.51,2.09,4.25,4.25,0,0,0,.53,2.12,3.69,3.69,0,0,0,1.47,1.46,4.33,4.33,0,0,0,2.14.53,4.51,4.51,0,0,0,1.58-.29,6.8,6.8,0,0,0,1.45-.73l1.26,2a8.84,8.84,0,0,1-2.08,1A7.64,7.64,0,0,1,568.66,102.82Z"/><path class="cls-2" d="M595.3,102.82a6.15,6.15,0,0,1-2.71-.63,4.75,4.75,0,0,1-2-1.67l.15-.82v8.47H588V90.62h2.43l.39,3-.3-.85A7,7,0,0,1,592.75,91a6.69,6.69,0,0,1,3.09-.7,6.33,6.33,0,0,1,3.14.78,5.7,5.7,0,0,1,2.2,2.21,6.68,6.68,0,0,1,.81,3.33,6.11,6.11,0,0,1-.87,3.28,5.69,5.69,0,0,1-2.38,2.15A7.66,7.66,0,0,1,595.3,102.82Zm-.54-2.1a4.6,4.6,0,0,0,2.19-.53,4.38,4.38,0,0,0,1.61-1.44,3.69,3.69,0,0,0,.61-2.09,4,4,0,0,0-.57-2.11,4.12,4.12,0,0,0-1.51-1.45,4.41,4.41,0,0,0-2.12-.52,4.88,4.88,0,0,0-2,.38A3.89,3.89,0,0,0,591.58,94a4,4,0,0,0-.81,1.61v2a3.47,3.47,0,0,0,.72,1.56,4.17,4.17,0,0,0,1.43,1.12A4.24,4.24,0,0,0,594.76,100.72Z"/><path class="cls-2" d="M611.53,102.82a7.73,7.73,0,0,1-3.66-.81,6,6,0,0,1-2.37-2.21,6.16,6.16,0,0,1-.84-3.22,5.58,5.58,0,0,1,1-3.15,7,7,0,0,1,2.5-2.27,7.23,7.23,0,0,1,3.48-.85,6.16,6.16,0,0,1,4.08,1.36,7,7,0,0,1,2.22,3.75l-10.26,3.4L607,97.26l8.37-2.92-.57.39a3.82,3.82,0,0,0-1.2-1.61,3.39,3.39,0,0,0-2.19-.68,4,4,0,0,0-2,.51,3.76,3.76,0,0,0-1.4,1.4,4.15,4.15,0,0,0-.51,2.09,4.25,4.25,0,0,0,.53,2.12,3.69,3.69,0,0,0,1.47,1.46,4.33,4.33,0,0,0,2.14.53,4.51,4.51,0,0,0,1.58-.29,6.8,6.8,0,0,0,1.45-.73l1.26,2a8.84,8.84,0,0,1-2.08,1A7.64,7.64,0,0,1,611.53,102.82Z"/><path class="cls-2" d="M623.86,90.79l.27,3.41-.12-.49a5.27,5.27,0,0,1,1.38-1.81,6.61,6.61,0,0,1,1.92-1.16,5.47,5.47,0,0,1,1.74-.43L628.93,93a4.26,4.26,0,0,0-2.5.49,4.76,4.76,0,0,0-1.68,1.59,3.9,3.9,0,0,0-.62,2.11v5.36h-2.79V90.79Z"/><path class="cls-2" d="M23.4,114.61h2.82v22H23.4Z"/><path class="cls-2" d="M30,130.57a5.93,5.93,0,0,1,.88-3.17,6.27,6.27,0,0,1,2.46-2.24,7.63,7.63,0,0,1,3.59-.82,7.34,7.34,0,0,1,3.54.82,6.19,6.19,0,0,1,2.38,8.59A6.08,6.08,0,0,1,40.44,136a7.3,7.3,0,0,1-3.57.84,7.83,7.83,0,0,1-3.56-.78,6.14,6.14,0,0,1-2.44-2.18A6,6,0,0,1,30,130.57Zm2.82,0a4,4,0,0,0,.54,2.06,4.11,4.11,0,0,0,1.44,1.46,3.89,3.89,0,0,0,2,.54,3.94,3.94,0,0,0,2.07-.54,4.08,4.08,0,0,0,1.43-1.46,4.32,4.32,0,0,0,0-4.11,4.14,4.14,0,0,0-1.43-1.48,3.86,3.86,0,0,0-2.07-.55,3.77,3.77,0,0,0-2.05.57,4,4,0,0,0-2,3.51Z"/><path class="cls-2" d="M60.39,136.78a7.51,7.51,0,0,1-2.57-.44,4.92,4.92,0,0,1-2-1.32l1.17-1.53a6.3,6.3,0,0,0,1.62,1.07,4.11,4.11,0,0,0,1.62.35,4.32,4.32,0,0,0,1.11-.14,1.65,1.65,0,0,0,.82-.48,1.25,1.25,0,0,0,.32-.88,1.23,1.23,0,0,0-.44-1,3.62,3.62,0,0,0-1.09-.58q-.66-.23-1.44-.42a5.47,5.47,0,0,1-2.34-1.34,2.87,2.87,0,0,1-.81-2.07,3.27,3.27,0,0,1,.49-1.74,3.74,3.74,0,0,1,1.49-1.33,5.06,5.06,0,0,1,2.4-.53,8.19,8.19,0,0,1,2.31.3,5.55,5.55,0,0,1,1.92,1l-1.11,1.64a3.49,3.49,0,0,0-1.28-.81,3.89,3.89,0,0,0-1.33-.27,3.29,3.29,0,0,0-1,.16,1.86,1.86,0,0,0-.75.45,1,1,0,0,0-.28.75,1.07,1.07,0,0,0,.4.95,3.48,3.48,0,0,0,1.1.59l1.35.45a7,7,0,0,1,1.62.68,3.53,3.53,0,0,1,1.15,1.05,2.66,2.66,0,0,1,.44,1.56,3.75,3.75,0,0,1-.53,1.94,3.63,3.63,0,0,1-1.59,1.42A6.12,6.12,0,0,1,60.39,136.78Z"/><path class="cls-2" d="M70.29,119.66h2.85v5.21h3.39v2.07H73.14v9.62H70.29v-9.62H68v-2.07h2.25Z"/><path class="cls-2" d="M83.88,137A4.12,4.12,0,0,1,81,136a3.43,3.43,0,0,1-1.15-2.54v-8.67h2.82v7.74a2.48,2.48,0,0,0,.6,1.54,2.2,2.2,0,0,0,1.68.64,3.1,3.1,0,0,0,1.84-.58,4.29,4.29,0,0,0,1.34-1.59,5,5,0,0,0,.51-2.28v-5.47h2.79v11.74H88.92l-.24-2.9.18.54a4.57,4.57,0,0,1-1.11,1.43,5.19,5.19,0,0,1-1.73,1A6.06,6.06,0,0,1,83.88,137Z"/><path class="cls-2" d="M101.34,136.84a6.23,6.23,0,0,1-3.12-.78A5.86,5.86,0,0,1,96,133.85a6.52,6.52,0,0,1-.82-3.3,6.19,6.19,0,0,1,.87-3.35,5.72,5.72,0,0,1,2.34-2.13,7.27,7.27,0,0,1,3.3-.73,6.73,6.73,0,0,1,2.8.59,5,5,0,0,1,2.09,1.65l-.15.93v-12.9h2.79v22h-2.79v-2.92l.33.73a7.12,7.12,0,0,1-2.3,1.78A7,7,0,0,1,101.34,136.84Zm.87-2.24a4.52,4.52,0,0,0,2-.4,4.28,4.28,0,0,0,1.44-1.06,3.83,3.83,0,0,0,.83-1.57v-2.24a3.63,3.63,0,0,0-.86-1.51,4.17,4.17,0,0,0-1.47-1,4.84,4.84,0,0,0-1.9-.36,4.35,4.35,0,0,0-2.07.51,4,4,0,0,0-1.53,1.42,4.12,4.12,0,0,0,0,4.18,4.26,4.26,0,0,0,1.53,1.48A4.06,4.06,0,0,0,102.21,134.6Z"/><path class="cls-2" d="M113.88,120.56a1.28,1.28,0,0,1,.52-1,1.78,1.78,0,0,1,1.16-.43,1.71,1.71,0,0,1,1.14.43,1.3,1.3,0,0,1,.51,1,1.32,1.32,0,0,1-.51,1.07,1.79,1.79,0,0,1-1.14.41,1.87,1.87,0,0,1-1.16-.41A1.3,1.3,0,0,1,113.88,120.56Zm.18,4.26h2.82v11.74h-2.82Z"/><path class="cls-2" d="M120.63,130.57a5.84,5.84,0,0,1,.88-3.17,6.21,6.21,0,0,1,2.46-2.24,7.63,7.63,0,0,1,3.59-.82,7.34,7.34,0,0,1,3.54.82,6.19,6.19,0,0,1,2.38,8.59A6.14,6.14,0,0,1,131.1,136a7.3,7.3,0,0,1-3.57.84,7.81,7.81,0,0,1-3.56-.78,6.14,6.14,0,0,1-2.44-2.18A6,6,0,0,1,120.63,130.57Zm2.82,0a4,4,0,0,0,.54,2.06,4.11,4.11,0,0,0,1.44,1.46,3.89,3.89,0,0,0,2,.54,3.89,3.89,0,0,0,3.49-2,4.25,4.25,0,0,0,0-4.11,4,4,0,0,0-1.42-1.48,4.09,4.09,0,0,0-4.13,0,4.08,4.08,0,0,0-1.44,1.48A4,4,0,0,0,123.45,130.6Z"/><path class="cls-2" d="M137.17,134a1.57,1.57,0,0,1,1.1-.46,1.49,1.49,0,0,1,1,.46,1.41,1.41,0,0,1,.5,1.07,1.37,1.37,0,0,1-.5,1.1,1.61,1.61,0,0,1-1,.41,1.71,1.71,0,0,1-1.1-.41,1.36,1.36,0,0,1-.49-1.1A1.4,1.4,0,0,1,137.17,134Z"/><path class="cls-2" d="M172.08,137.21l-16.77-16.08.84.2.06,15.23H153.3V115.43h.15L170,131.57l-.66-.15-.06-15.36h2.91v21.15Z"/><path class="cls-2" d="M176.64,130.57a5.84,5.84,0,0,1,.88-3.17,6.21,6.21,0,0,1,2.46-2.24,7.63,7.63,0,0,1,3.59-.82,7.34,7.34,0,0,1,3.54.82,6.19,6.19,0,0,1,2.38,8.59,6.14,6.14,0,0,1-2.38,2.25,7.3,7.3,0,0,1-3.57.84,7.81,7.81,0,0,1-3.56-.78,6.14,6.14,0,0,1-2.44-2.18A6,6,0,0,1,176.64,130.57Zm2.82,0a4,4,0,0,0,.54,2.06,4.11,4.11,0,0,0,1.44,1.46,3.89,3.89,0,0,0,2,.54,3.89,3.89,0,0,0,3.49-2,4.25,4.25,0,0,0,0-4.11,4,4,0,0,0-1.42-1.48,4.09,4.09,0,0,0-4.13,0,4.08,4.08,0,0,0-1.44,1.48A4,4,0,0,0,179.46,130.6Z"/><path class="cls-2" d="M195.27,119.66h2.85v5.21h3.39v2.07h-3.39v9.62h-2.85v-9.62H193v-2.07h2.25Z"/><path class="cls-2" d="M210.06,136.84a7.06,7.06,0,0,1-3.17-.71,5.46,5.46,0,0,1-2.26-2.08,7.13,7.13,0,0,1,0-6.77A5.92,5.92,0,0,1,207,125.1a6.84,6.84,0,0,1,3.21-.76,5.5,5.5,0,0,1,2.95.75,5.24,5.24,0,0,1,1.82,1.77l-.18.42.27-2.46h2.58v11.74h-2.79v-3.07l.33.68a3.77,3.77,0,0,1-.57.73,7.3,7.3,0,0,1-1.07.89,6,6,0,0,1-3.49,1.05Zm.75-2.18a4.75,4.75,0,0,0,1.89-.37,3.74,3.74,0,0,0,1.39-1,3.87,3.87,0,0,0,.77-1.59v-2.3a3.53,3.53,0,0,0-.84-1.48,4.19,4.19,0,0,0-1.44-1,4.77,4.77,0,0,0-1.83-.35,4.23,4.23,0,0,0-2.07.51,3.91,3.91,0,0,0-1.49,1.42,4,4,0,0,0-.55,2.12,3.88,3.88,0,0,0,.57,2.07,4.1,4.1,0,0,0,1.53,1.48A4.15,4.15,0,0,0,210.81,134.66Z"/><path class="cls-2" d="M225,124.82l.21,2.86-.09-.45a4.4,4.4,0,0,1,1.92-2.09,6.18,6.18,0,0,1,3.15-.78,4.21,4.21,0,0,1,2.86,1,3.3,3.3,0,0,1,1.16,2.54v8.68h-2.82v-7.77a2.33,2.33,0,0,0-.59-1.55,2.23,2.23,0,0,0-1.72-.61,3.52,3.52,0,0,0-1.94.57,3.87,3.87,0,0,0-1.38,1.56,5.09,5.09,0,0,0-.49,2.3v5.5h-2.82V124.82Z"/><path class="cls-2" d="M244.14,136.84a6.18,6.18,0,0,1-3.12-.78,5.86,5.86,0,0,1-2.21-2.21,6.52,6.52,0,0,1-.82-3.3,6.1,6.1,0,0,1,.87-3.35,5.66,5.66,0,0,1,2.34-2.13,7.24,7.24,0,0,1,3.3-.73,6.77,6.77,0,0,1,2.8.59,5,5,0,0,1,2.09,1.65l-.15.93v-12.9H252v22h-2.79v-2.92l.33.73a7.12,7.12,0,0,1-2.3,1.78A7,7,0,0,1,244.14,136.84Zm.87-2.24a4.52,4.52,0,0,0,2-.4,4.28,4.28,0,0,0,1.44-1.06,3.83,3.83,0,0,0,.83-1.57v-2.24a3.63,3.63,0,0,0-.86-1.51,4.17,4.17,0,0,0-1.47-1,4.84,4.84,0,0,0-1.9-.36,4.41,4.41,0,0,0-2.08.51,4.07,4.07,0,0,0-1.52,1.42,4.12,4.12,0,0,0,0,4.18,4.31,4.31,0,0,0,1.52,1.48A4.12,4.12,0,0,0,245,134.6Z"/><path class="cls-2" d="M255.78,130.57a5.84,5.84,0,0,1,.88-3.17,6.21,6.21,0,0,1,2.46-2.24,7.63,7.63,0,0,1,3.59-.82,7.34,7.34,0,0,1,3.54.82,6.19,6.19,0,0,1,2.38,8.59,6.14,6.14,0,0,1-2.38,2.25,7.3,7.3,0,0,1-3.57.84,7.81,7.81,0,0,1-3.56-.78,6.14,6.14,0,0,1-2.44-2.18A6,6,0,0,1,255.78,130.57Zm2.82,0a4,4,0,0,0,2,3.52,3.86,3.86,0,0,0,2,.54,3.89,3.89,0,0,0,3.49-2,4.25,4.25,0,0,0,0-4.11,4,4,0,0,0-1.42-1.48,3.86,3.86,0,0,0-2.07-.55,3.8,3.8,0,0,0-2.06.57,4.08,4.08,0,0,0-1.44,1.48A4,4,0,0,0,258.6,130.6Z"/><path class="cls-2" d="M282.5,120.56a1.29,1.29,0,0,1,.53-1,1.77,1.77,0,0,1,1.15-.43,1.71,1.71,0,0,1,1.14.43,1.3,1.3,0,0,1,.51,1,1.32,1.32,0,0,1-.51,1.07,1.79,1.79,0,0,1-1.14.41,1.86,1.86,0,0,1-1.15-.41A1.31,1.31,0,0,1,282.5,120.56Zm.18,4.26h2.82v11.74h-2.82Z"/><path class="cls-2" d="M290.33,114.61h2.82v22h-2.82Z"/><path class="cls-2" d="M311,136.78a7.45,7.45,0,0,1-2.56-.44,5,5,0,0,1-2.06-1.32l1.17-1.53a6.3,6.3,0,0,0,1.62,1.07,4.11,4.11,0,0,0,1.62.35,4.32,4.32,0,0,0,1.11-.14,1.68,1.68,0,0,0,.83-.48,1.25,1.25,0,0,0,.31-.88,1.23,1.23,0,0,0-.43-1,3.68,3.68,0,0,0-1.1-.58q-.66-.23-1.44-.42a5.47,5.47,0,0,1-2.34-1.34,2.87,2.87,0,0,1-.81-2.07,3.28,3.28,0,0,1,.5-1.74,3.71,3.71,0,0,1,1.48-1.33,5.06,5.06,0,0,1,2.4-.53,8.19,8.19,0,0,1,2.31.3,5.55,5.55,0,0,1,1.92,1l-1.11,1.64a3.45,3.45,0,0,0-1.27-.81,3.94,3.94,0,0,0-1.34-.27,3.22,3.22,0,0,0-1,.16,1.86,1.86,0,0,0-.75.45,1.05,1.05,0,0,0-.29.75,1.08,1.08,0,0,0,.41.95,3.42,3.42,0,0,0,1.09.59l1.35.45a7,7,0,0,1,1.62.68,3.57,3.57,0,0,1,1.16,1.05,2.66,2.66,0,0,1,.43,1.56,3.74,3.74,0,0,1-.52,1.94,3.63,3.63,0,0,1-1.59,1.42A6.16,6.16,0,0,1,311,136.78Z"/><path class="cls-2" d="M323.66,137a4.09,4.09,0,0,1-2.83-1,3.44,3.44,0,0,1-1.16-2.54v-8.67h2.82v7.74a2.48,2.48,0,0,0,.6,1.54,2.2,2.2,0,0,0,1.68.64,3.13,3.13,0,0,0,1.85-.58,4.26,4.26,0,0,0,1.33-1.59,5,5,0,0,0,.51-2.28v-5.47h2.79v11.74H328.7l-.24-2.9.18.54a4.57,4.57,0,0,1-1.11,1.43,5.15,5.15,0,0,1-1.72,1A6.11,6.11,0,0,1,323.66,137Z"/><path class="cls-2" d="M335,130.57a5.85,5.85,0,0,1,.89-3.17,6.21,6.21,0,0,1,2.46-2.24,7.59,7.59,0,0,1,3.58-.82,7.34,7.34,0,0,1,3.54.82,6.08,6.08,0,0,1,2.39,2.24,6.35,6.35,0,0,1,0,6.35,6.17,6.17,0,0,1-2.39,2.25,7.3,7.3,0,0,1-3.57.84,7.76,7.76,0,0,1-3.55-.78,6.16,6.16,0,0,1-2.45-2.18A6,6,0,0,1,335,130.57Zm2.82,0a4,4,0,0,0,.54,2.06,4.11,4.11,0,0,0,1.44,1.46,3.89,3.89,0,0,0,2,.54,3.94,3.94,0,0,0,2.07-.54,4,4,0,0,0,1.43-1.46,4.15,4.15,0,0,0-1.43-5.59,3.86,3.86,0,0,0-2.07-.55,3.79,3.79,0,0,0-2.05.57,4.08,4.08,0,0,0-2,3.51Z"/><path class="cls-2" d="M361.7,120.56a1.29,1.29,0,0,1,.53-1,1.75,1.75,0,0,1,1.15-.43,1.71,1.71,0,0,1,1.14.43,1.3,1.3,0,0,1,.51,1,1.32,1.32,0,0,1-.51,1.07,1.79,1.79,0,0,1-1.14.41,1.84,1.84,0,0,1-1.15-.41A1.31,1.31,0,0,1,361.7,120.56Zm.18,4.26h2.82v11.74h-2.82Z"/><path class="cls-2" d="M372.08,124.82l.21,2.86-.09-.45a4.45,4.45,0,0,1,1.92-2.09,6.18,6.18,0,0,1,3.15-.78,4.23,4.23,0,0,1,2.87,1,3.29,3.29,0,0,1,1.15,2.54v8.68h-2.82v-7.77a2.33,2.33,0,0,0-.58-1.55,2.26,2.26,0,0,0-1.73-.61,3.49,3.49,0,0,0-1.93.57,3.87,3.87,0,0,0-1.38,1.56,5.09,5.09,0,0,0-.5,2.3v5.5h-2.82V124.82Z"/><path class="cls-2" d="M387.32,119.66h2.85v5.21h3.39v2.07h-3.39v9.62h-2.85v-9.62h-2.25v-2.07h2.25Z"/><path class="cls-2" d="M402.71,136.84a7.73,7.73,0,0,1-3.66-.81,5.89,5.89,0,0,1-2.37-2.21,6.16,6.16,0,0,1-.84-3.22,5.58,5.58,0,0,1,1-3.15,6.9,6.9,0,0,1,2.5-2.26,7.12,7.12,0,0,1,3.48-.85,6.11,6.11,0,0,1,4.08,1.36,6.89,6.89,0,0,1,2.22,3.74l-10.26,3.4-.66-1.56,8.37-2.92-.57.4a3.91,3.91,0,0,0-1.2-1.62,3.39,3.39,0,0,0-2.19-.68,4,4,0,0,0-2,.51,3.72,3.72,0,0,0-1.4,1.41,4.11,4.11,0,0,0-.51,2.08,4.31,4.31,0,0,0,.53,2.13,3.75,3.75,0,0,0,1.47,1.46,4.32,4.32,0,0,0,2.14.52,4.5,4.5,0,0,0,1.58-.28,7.34,7.34,0,0,0,1.45-.74l1.26,2a8.82,8.82,0,0,1-2.08,1A7.33,7.33,0,0,1,402.71,136.84Z"/><path class="cls-2" d="M415,124.82l.27,3.4-.12-.48a5.21,5.21,0,0,1,1.38-1.82,6.84,6.84,0,0,1,1.92-1.16,5.42,5.42,0,0,1,1.74-.42l-.12,2.66a4.24,4.24,0,0,0-2.5.5,4.51,4.51,0,0,0-1.68,1.59,3.88,3.88,0,0,0-.62,2.11v5.36h-2.79V124.82Z"/><path class="cls-2" d="M429.05,136.84a7.73,7.73,0,0,1-3.66-.81,5.89,5.89,0,0,1-2.37-2.21,6.16,6.16,0,0,1-.84-3.22,5.57,5.57,0,0,1,.94-3.15,6.93,6.93,0,0,1,2.51-2.26,7.12,7.12,0,0,1,3.48-.85,6.11,6.11,0,0,1,4.08,1.36,6.89,6.89,0,0,1,2.22,3.74l-10.26,3.4-.66-1.56,8.37-2.92-.57.4a3.91,3.91,0,0,0-1.2-1.62,3.39,3.39,0,0,0-2.19-.68,4,4,0,0,0-2,.51,3.69,3.69,0,0,0-1.39,1.41,4.11,4.11,0,0,0-.51,2.08,4.31,4.31,0,0,0,.52,2.13,3.71,3.71,0,0,0,1.48,1.46,4.32,4.32,0,0,0,2.14.52,4.4,4.4,0,0,0,1.57-.28,7.42,7.42,0,0,0,1.46-.74l1.26,2a8.9,8.9,0,0,1-2.09,1A7.27,7.27,0,0,1,429.05,136.84Z"/><path class="cls-2" d="M442.37,136.78a7.51,7.51,0,0,1-2.57-.44,4.92,4.92,0,0,1-2.05-1.32l1.17-1.53a6.3,6.3,0,0,0,1.62,1.07,4.11,4.11,0,0,0,1.62.35,4.32,4.32,0,0,0,1.11-.14,1.65,1.65,0,0,0,.82-.48,1.25,1.25,0,0,0,.32-.88,1.23,1.23,0,0,0-.44-1,3.62,3.62,0,0,0-1.09-.58q-.66-.23-1.44-.42a5.47,5.47,0,0,1-2.34-1.34,2.87,2.87,0,0,1-.81-2.07,3.27,3.27,0,0,1,.49-1.74,3.74,3.74,0,0,1,1.49-1.33,5.06,5.06,0,0,1,2.4-.53,8.19,8.19,0,0,1,2.31.3,5.55,5.55,0,0,1,1.92,1l-1.11,1.64a3.49,3.49,0,0,0-1.28-.81,3.89,3.89,0,0,0-1.33-.27,3.29,3.29,0,0,0-1,.16,1.86,1.86,0,0,0-.75.45,1,1,0,0,0-.28.75,1.07,1.07,0,0,0,.4.95,3.48,3.48,0,0,0,1.1.59l1.35.45a7,7,0,0,1,1.62.68,3.53,3.53,0,0,1,1.15,1.05,2.66,2.66,0,0,1,.44,1.56,3.75,3.75,0,0,1-.53,1.94,3.63,3.63,0,0,1-1.59,1.42A6.12,6.12,0,0,1,442.37,136.78Z"/><path class="cls-2" d="M454.58,136.78a7.51,7.51,0,0,1-2.57-.44A4.92,4.92,0,0,1,450,135l1.17-1.53a6.3,6.3,0,0,0,1.62,1.07,4.11,4.11,0,0,0,1.62.35,4.32,4.32,0,0,0,1.11-.14,1.65,1.65,0,0,0,.82-.48,1.25,1.25,0,0,0,.32-.88,1.23,1.23,0,0,0-.44-1,3.62,3.62,0,0,0-1.09-.58q-.66-.23-1.44-.42a5.47,5.47,0,0,1-2.34-1.34,2.87,2.87,0,0,1-.81-2.07,3.27,3.27,0,0,1,.49-1.74,3.74,3.74,0,0,1,1.49-1.33,5.06,5.06,0,0,1,2.4-.53,8.19,8.19,0,0,1,2.31.3,5.55,5.55,0,0,1,1.92,1L458,127.34a3.49,3.49,0,0,0-1.28-.81,3.89,3.89,0,0,0-1.33-.27,3.29,3.29,0,0,0-1,.16,1.86,1.86,0,0,0-.75.45,1,1,0,0,0-.28.75,1.07,1.07,0,0,0,.4.95,3.48,3.48,0,0,0,1.1.59l1.35.45a7,7,0,0,1,1.62.68,3.53,3.53,0,0,1,1.15,1.05,2.66,2.66,0,0,1,.44,1.56,3.75,3.75,0,0,1-.53,1.94,3.63,3.63,0,0,1-1.59,1.42A6.12,6.12,0,0,1,454.58,136.78Z"/><path class="cls-2" d="M469.07,136.84a7.73,7.73,0,0,1-3.66-.81,5.89,5.89,0,0,1-2.37-2.21,6.16,6.16,0,0,1-.84-3.22,5.57,5.57,0,0,1,.94-3.15,6.93,6.93,0,0,1,2.51-2.26,7.12,7.12,0,0,1,3.48-.85,6.11,6.11,0,0,1,4.08,1.36,6.89,6.89,0,0,1,2.22,3.74l-10.26,3.4-.66-1.56,8.37-2.92-.57.4a3.91,3.91,0,0,0-1.2-1.62,3.39,3.39,0,0,0-2.19-.68,4,4,0,0,0-2,.51,3.69,3.69,0,0,0-1.39,1.41,4.11,4.11,0,0,0-.51,2.08,4.31,4.31,0,0,0,.52,2.13,3.75,3.75,0,0,0,1.47,1.46,4.36,4.36,0,0,0,2.15.52,4.44,4.44,0,0,0,1.57-.28,7.42,7.42,0,0,0,1.46-.74l1.26,2a8.9,8.9,0,0,1-2.09,1A7.27,7.27,0,0,1,469.07,136.84Z"/><path class="cls-2" d="M495.71,136.84a6.32,6.32,0,0,1-2.72-.62,4.81,4.81,0,0,1-2-1.68l.15-.82v8.48h-2.79V124.65h2.43l.39,3-.3-.85a7,7,0,0,1,2.28-1.77,6.81,6.81,0,0,1,3.09-.69,6.29,6.29,0,0,1,3.13.78,5.66,5.66,0,0,1,2.21,2.21,6.62,6.62,0,0,1,.81,3.33,6.05,6.05,0,0,1-.87,3.27,5.74,5.74,0,0,1-2.39,2.16A7.62,7.62,0,0,1,495.71,136.84Zm-.54-2.1a4.6,4.6,0,0,0,2.19-.52,4.29,4.29,0,0,0,1.6-1.45,3.66,3.66,0,0,0,.62-2.08,4,4,0,0,0-.57-2.12,4.12,4.12,0,0,0-1.52-1.44,4.26,4.26,0,0,0-2.11-.53,4.72,4.72,0,0,0-1.95.39,3.86,3.86,0,0,0-1.44,1.06,4,4,0,0,0-.81,1.62v2a3.38,3.38,0,0,0,.72,1.56,4,4,0,0,0,1.42,1.12A4.28,4.28,0,0,0,495.17,134.74Z"/><path class="cls-2" d="M511.94,136.84a7.73,7.73,0,0,1-3.66-.81,5.89,5.89,0,0,1-2.37-2.21,6.16,6.16,0,0,1-.84-3.22,5.57,5.57,0,0,1,.94-3.15,6.93,6.93,0,0,1,2.51-2.26,7.12,7.12,0,0,1,3.48-.85,6.11,6.11,0,0,1,4.08,1.36,6.89,6.89,0,0,1,2.22,3.74L508,132.84l-.66-1.56,8.37-2.92-.57.4a3.91,3.91,0,0,0-1.2-1.62,3.39,3.39,0,0,0-2.19-.68,4,4,0,0,0-2,.51,3.69,3.69,0,0,0-1.39,1.41,4.11,4.11,0,0,0-.51,2.08,4.31,4.31,0,0,0,.52,2.13,3.75,3.75,0,0,0,1.47,1.46,4.36,4.36,0,0,0,2.15.52,4.44,4.44,0,0,0,1.57-.28,7.42,7.42,0,0,0,1.46-.74l1.26,2a8.9,8.9,0,0,1-2.09,1A7.27,7.27,0,0,1,511.94,136.84Z"/><path class="cls-2" d="M524.27,124.82l.27,3.4-.12-.48a5.21,5.21,0,0,1,1.38-1.82,6.84,6.84,0,0,1,1.92-1.16,5.42,5.42,0,0,1,1.74-.42l-.12,2.66a4.29,4.29,0,0,0-2.51.5,4.59,4.59,0,0,0-1.68,1.59,3.87,3.87,0,0,0-.61,2.11v5.36h-2.79V124.82Z"/><path class="cls-2" d="M542.51,114.61h2.82v22h-2.82Z"/><path class="cls-2" d="M556,136.84a7.73,7.73,0,0,1-3.66-.81,5.89,5.89,0,0,1-2.37-2.21,6.16,6.16,0,0,1-.84-3.22,5.57,5.57,0,0,1,.94-3.15,6.93,6.93,0,0,1,2.51-2.26,7.12,7.12,0,0,1,3.48-.85,6.11,6.11,0,0,1,4.08,1.36,6.89,6.89,0,0,1,2.22,3.74l-10.26,3.4-.66-1.56,8.37-2.92-.57.4a3.91,3.91,0,0,0-1.2-1.62,3.39,3.39,0,0,0-2.19-.68,4,4,0,0,0-2,.51,3.69,3.69,0,0,0-1.39,1.41,4.11,4.11,0,0,0-.51,2.08,4.31,4.31,0,0,0,.52,2.13,3.75,3.75,0,0,0,1.47,1.46,4.36,4.36,0,0,0,2.15.52,4.44,4.44,0,0,0,1.57-.28,7.42,7.42,0,0,0,1.46-.74l1.26,2a8.9,8.9,0,0,1-2.09,1A7.27,7.27,0,0,1,556,136.84Z"/><path class="cls-2" d="M26,158.84l.24,2.64-.15-.23a5.2,5.2,0,0,1,2-2.11,5.51,5.51,0,0,1,2.95-.78,4.81,4.81,0,0,1,1.83.33,3.64,3.64,0,0,1,1.34.9A2.9,2.9,0,0,1,34.8,161l-.15.11a5.14,5.14,0,0,1,2-2,5.36,5.36,0,0,1,2.68-.72,4.05,4.05,0,0,1,2.89,1,3.5,3.5,0,0,1,1.13,2.53v8.7H40.53v-7.74a2.79,2.79,0,0,0-.46-1.52,1.81,1.81,0,0,0-1.52-.63,3.25,3.25,0,0,0-1.93.6,4,4,0,0,0-1.32,1.59,5.1,5.1,0,0,0-.5,2.14v5.56H32v-7.74a2.58,2.58,0,0,0-.49-1.52,1.89,1.89,0,0,0-1.55-.63,3.22,3.22,0,0,0-1.92.6,4.19,4.19,0,0,0-1.32,1.61,4.87,4.87,0,0,0-.48,2.15v5.53H23.4V158.84Z"/><path class="cls-2" d="M53.34,170.86a6.89,6.89,0,0,1-3.16-.71,5.36,5.36,0,0,1-2.27-2.08,7.11,7.11,0,0,1,0-6.76,5.85,5.85,0,0,1,2.34-2.18,6.73,6.73,0,0,1,3.21-.77,5.54,5.54,0,0,1,3,.75,5.21,5.21,0,0,1,1.81,1.77l-.18.43.27-2.47h2.58v11.74H58.14v-3.06l.33.68a3.49,3.49,0,0,1-.57.72,7.18,7.18,0,0,1-1.06.89,6,6,0,0,1-1.52.76A6.35,6.35,0,0,1,53.34,170.86Zm.75-2.18a4.59,4.59,0,0,0,1.89-.37,3.57,3.57,0,0,0,1.4-1.05,3.81,3.81,0,0,0,.76-1.58v-2.3a3.5,3.5,0,0,0-.84-1.49,4,4,0,0,0-1.44-1,4.6,4.6,0,0,0-1.83-.36,4.23,4.23,0,0,0-2.07.51,4.06,4.06,0,0,0-1.49,1.42,4,4,0,0,0-.55,2.13,3.93,3.93,0,0,0,.57,2.07,4.22,4.22,0,0,0,3.6,2Z"/><path class="cls-2" d="M67,153.68h2.85v5.22H73.2V161H69.81v9.61H67V161H64.71V158.9H67Z"/><path class="cls-2" d="M82.35,170.86a7.85,7.85,0,0,1-3.66-.8,5.91,5.91,0,0,1-2.37-2.22,6.1,6.1,0,0,1-.84-3.21,5.53,5.53,0,0,1,.94-3.15,7,7,0,0,1,2.51-2.27,7.12,7.12,0,0,1,3.48-.85,6.11,6.11,0,0,1,4.08,1.36,7,7,0,0,1,2.22,3.74l-10.26,3.41-.66-1.56,8.37-2.92-.57.39a3.82,3.82,0,0,0-1.2-1.61,3.33,3.33,0,0,0-2.19-.68,4,4,0,0,0-2,.51,3.67,3.67,0,0,0-1.39,1.4,4.14,4.14,0,0,0-.51,2.08,4.25,4.25,0,0,0,.52,2.13,3.71,3.71,0,0,0,1.48,1.46,4.3,4.3,0,0,0,2.14.53,4.45,4.45,0,0,0,1.57-.29,6.91,6.91,0,0,0,1.46-.74l1.26,2a8.92,8.92,0,0,1-2.09,1A7.56,7.56,0,0,1,82.35,170.86Z"/><path class="cls-2" d="M94.68,158.84l.27,3.4-.12-.48A5.17,5.17,0,0,1,96.21,160a6.88,6.88,0,0,1,1.92-1.17,5.7,5.7,0,0,1,1.74-.42L99.75,161a4.29,4.29,0,0,0-2.51.5,4.76,4.76,0,0,0-1.68,1.59,3.89,3.89,0,0,0-.61,2.11v5.36H92.16V158.84Z"/><path class="cls-2" d="M103.26,154.59a1.29,1.29,0,0,1,.52-1.05,1.83,1.83,0,0,1,1.16-.43,1.76,1.76,0,0,1,1.14.43,1.35,1.35,0,0,1,0,2.11,1.74,1.74,0,0,1-1.14.41,1.81,1.81,0,0,1-1.16-.41A1.28,1.28,0,0,1,103.26,154.59Zm.18,4.25h2.82v11.74h-2.82Z"/><path class="cls-2" d="M116.88,170.86a7.85,7.85,0,0,1-3.66-.8,5.91,5.91,0,0,1-2.37-2.22,6.1,6.1,0,0,1-.84-3.21,5.53,5.53,0,0,1,.94-3.15,7,7,0,0,1,2.51-2.27,7.12,7.12,0,0,1,3.48-.85,6.11,6.11,0,0,1,4.08,1.36,7,7,0,0,1,2.22,3.74L113,166.87l-.66-1.56,8.37-2.92-.57.39a3.82,3.82,0,0,0-1.2-1.61,3.33,3.33,0,0,0-2.19-.68,4,4,0,0,0-2,.51,3.67,3.67,0,0,0-1.39,1.4,4.14,4.14,0,0,0-.51,2.08,4.25,4.25,0,0,0,.52,2.13,3.75,3.75,0,0,0,1.47,1.46,4.36,4.36,0,0,0,2.15.53,4.45,4.45,0,0,0,1.57-.29,6.91,6.91,0,0,0,1.46-.74l1.26,2a8.92,8.92,0,0,1-2.09,1A7.56,7.56,0,0,1,116.88,170.86Z"/><path class="cls-2" d="M139.68,170.81a7.76,7.76,0,0,1-2.57-.44,5,5,0,0,1-2.05-1.32l1.17-1.53a6.24,6.24,0,0,0,1.62,1.06,4,4,0,0,0,1.62.36,3.92,3.92,0,0,0,1.11-.15,1.65,1.65,0,0,0,.82-.48,1.24,1.24,0,0,0,.32-.88,1.21,1.21,0,0,0-.44-1,3.41,3.41,0,0,0-1.09-.58,14.57,14.57,0,0,0-1.44-.43,5.46,5.46,0,0,1-2.34-1.33,2.9,2.9,0,0,1-.81-2.07,3.28,3.28,0,0,1,.49-1.75,3.74,3.74,0,0,1,1.49-1.33,5.07,5.07,0,0,1,2.4-.52,8.58,8.58,0,0,1,2.31.29,5.73,5.73,0,0,1,1.92,1l-1.11,1.64a3.6,3.6,0,0,0-1.28-.8,3.89,3.89,0,0,0-1.33-.27,3.29,3.29,0,0,0-1,.15,1.87,1.87,0,0,0-.75.46,1,1,0,0,0-.28.75,1.08,1.08,0,0,0,.4.95,3.46,3.46,0,0,0,1.1.58l1.35.45a7,7,0,0,1,1.62.68,3.77,3.77,0,0,1,1.15,1.05,2.68,2.68,0,0,1,.44,1.56,3.75,3.75,0,0,1-.53,1.94,3.63,3.63,0,0,1-1.59,1.42A6.11,6.11,0,0,1,139.68,170.81Z"/><path class="cls-2" d="M158.49,169.47a6.35,6.35,0,0,1-2,1,8.33,8.33,0,0,1-5.9-.4,5.81,5.81,0,0,1-2.41-2.16,6,6,0,0,1-.87-3.26,5.64,5.64,0,0,1,.93-3.24,6.27,6.27,0,0,1,2.41-2.13,7.07,7.07,0,0,1,3.23-.75,8.74,8.74,0,0,1,2.65.38,6.43,6.43,0,0,1,2.06,1.09l-1.41,1.7a6.85,6.85,0,0,0-1.31-.69,4.51,4.51,0,0,0-1.75-.33,4,4,0,0,0-2,.53,3.85,3.85,0,0,0-1.44,1.42,4.11,4.11,0,0,0,0,4,4,4,0,0,0,1.5,1.44,4.45,4.45,0,0,0,2.22.54,4.54,4.54,0,0,0,1.45-.23,4.25,4.25,0,0,0,1.22-.62Z"/><path class="cls-2" d="M161.88,154.59a1.29,1.29,0,0,1,.52-1.05,1.83,1.83,0,0,1,1.16-.43,1.76,1.76,0,0,1,1.14.43,1.35,1.35,0,0,1,0,2.11,1.74,1.74,0,0,1-1.14.41,1.81,1.81,0,0,1-1.16-.41A1.28,1.28,0,0,1,161.88,154.59Zm.18,4.25h2.82v11.74h-2.82Z"/><path class="cls-2" d="M175.5,170.86a7.85,7.85,0,0,1-3.66-.8,5.91,5.91,0,0,1-2.37-2.22,6.1,6.1,0,0,1-.84-3.21,5.53,5.53,0,0,1,.94-3.15,7,7,0,0,1,2.51-2.27,7.12,7.12,0,0,1,3.48-.85,6.11,6.11,0,0,1,4.08,1.36,7,7,0,0,1,2.22,3.74l-10.26,3.41-.66-1.56,8.37-2.92-.57.39a3.82,3.82,0,0,0-1.2-1.61,3.33,3.33,0,0,0-2.19-.68,4,4,0,0,0-2,.51,3.67,3.67,0,0,0-1.39,1.4,4.14,4.14,0,0,0-.51,2.08,4.25,4.25,0,0,0,.52,2.13,3.75,3.75,0,0,0,1.47,1.46,4.36,4.36,0,0,0,2.15.53,4.45,4.45,0,0,0,1.57-.29,6.91,6.91,0,0,0,1.46-.74l1.26,2a8.92,8.92,0,0,1-2.09,1A7.56,7.56,0,0,1,175.5,170.86Z"/><path class="cls-2" d="M187.86,158.84l.21,2.87-.09-.46a4.38,4.38,0,0,1,1.92-2.08,6.18,6.18,0,0,1,3.15-.78,4.16,4.16,0,0,1,2.86,1,3.28,3.28,0,0,1,1.16,2.53v8.68h-2.82v-7.77a2.31,2.31,0,0,0-.59-1.54,2.2,2.2,0,0,0-1.72-.61,3.59,3.59,0,0,0-1.94.56,3.87,3.87,0,0,0-1.38,1.56,5.09,5.09,0,0,0-.49,2.3v5.5h-2.82V158.84Z"/><path class="cls-2" d="M203.1,153.68H206v5.22h3.39V161H206v9.61H203.1V161h-2.25V158.9h2.25Z"/><path class="cls-2" d="M212.52,154.59a1.29,1.29,0,0,1,.52-1.05,1.83,1.83,0,0,1,1.16-.43,1.78,1.78,0,0,1,1.14.43,1.35,1.35,0,0,1,0,2.11,1.76,1.76,0,0,1-1.14.41,1.81,1.81,0,0,1-1.16-.41A1.28,1.28,0,0,1,212.52,154.59Zm.18,4.25h2.82v11.74H212.7Z"/><path class="cls-2" d="M221.39,170.58v-9.39h-2.16v-2.38h2.16v-4.93a5.67,5.67,0,0,1,1.22-3.91,4.58,4.58,0,0,1,3.61-1.36,5.9,5.9,0,0,1,1.38.17,3.87,3.87,0,0,1,1.33.56l-1.18,1.9a1.22,1.22,0,0,0-.57-.35,2.26,2.26,0,0,0-.69-.1,2.12,2.12,0,0,0-1.71.71,3.8,3.8,0,0,0-.6,2.44v4.87h3.57v2.38h-3.57v9.39Zm8.55-16a1.33,1.33,0,0,1,.53-1.08,1.77,1.77,0,0,1,1.13-.43,1.71,1.71,0,0,1,1.15.44,1.38,1.38,0,0,1,.49,1.07,1.31,1.31,0,0,1-.49,1.06,1.78,1.78,0,0,1-1.15.41,1.76,1.76,0,0,1-1.13-.42A1.33,1.33,0,0,1,229.94,154.62Zm.18,4.22h2.82v11.74h-2.82Z"/><path class="cls-2" d="M247.85,169.47a6.35,6.35,0,0,1-2,1,8.3,8.3,0,0,1-5.89-.4,5.84,5.84,0,0,1-2.42-2.16,6,6,0,0,1-.87-3.26,5.64,5.64,0,0,1,.93-3.24,6.29,6.29,0,0,1,2.42-2.13,7,7,0,0,1,3.22-.75,8.81,8.81,0,0,1,2.66.38,6.38,6.38,0,0,1,2.05,1.09l-1.41,1.7a6.74,6.74,0,0,0-1.3-.69,4.56,4.56,0,0,0-1.76-.33,4,4,0,0,0-2,.53,3.85,3.85,0,0,0-1.44,1.42,4.08,4.08,0,0,0,0,4,4,4,0,0,0,1.5,1.44,4.45,4.45,0,0,0,2.22.54,4.61,4.61,0,0,0,1.46-.23,4.19,4.19,0,0,0,1.21-.62Z"/><path class="cls-2" d="M251.42,170.58v-22h2.76v12.93l-.06-.48a5.06,5.06,0,0,1,1.94-1.93,6,6,0,0,1,3.1-.76,4.18,4.18,0,0,1,2.87,1,3.27,3.27,0,0,1,1.15,2.53v8.68h-2.82v-7.77a2.3,2.3,0,0,0-.58-1.54,2.22,2.22,0,0,0-1.73-.61,3.42,3.42,0,0,0-1.93.58,4,4,0,0,0-1.38,1.57,5,5,0,0,0-.5,2.27v5.5Z"/><path class="cls-2" d="M273.8,170.86a7.85,7.85,0,0,1-3.66-.8,5.91,5.91,0,0,1-2.37-2.22,6.1,6.1,0,0,1-.84-3.21,5.54,5.54,0,0,1,.95-3.15,6.93,6.93,0,0,1,2.5-2.27,7.12,7.12,0,0,1,3.48-.85,6.11,6.11,0,0,1,4.08,1.36,7,7,0,0,1,2.22,3.74l-10.26,3.41-.66-1.56,8.37-2.92-.57.39a3.82,3.82,0,0,0-1.2-1.61,3.33,3.33,0,0,0-2.19-.68,4,4,0,0,0-2,.51,3.69,3.69,0,0,0-1.4,1.4,4.14,4.14,0,0,0-.51,2.08,4.26,4.26,0,0,0,.53,2.13,3.75,3.75,0,0,0,1.47,1.46,4.33,4.33,0,0,0,2.14.53,4.51,4.51,0,0,0,1.58-.29,6.84,6.84,0,0,0,1.45-.74l1.26,2a8.84,8.84,0,0,1-2.08,1A7.62,7.62,0,0,1,273.8,170.86Z"/><path class="cls-2" d="M286.19,168.09l-1.3,3c-.43,1-.87,2-1.31,3h-2.31c.42-1,.82-2,1.2-3s.76-2,1.14-3Z"/><path class="cls-2" d="M305.21,176.42a8.61,8.61,0,0,1-2.44-.31,7.61,7.61,0,0,1-1.92-.85,18.85,18.85,0,0,1-1.67-1.19l1.65-1.82a9.26,9.26,0,0,0,2,1.34,5.29,5.29,0,0,0,2.28.48,5.86,5.86,0,0,0,2.39-.44,3.3,3.3,0,0,0,1.47-1.21,3.38,3.38,0,0,0,.52-1.78l0-3.18.24.51a4.62,4.62,0,0,1-1.95,2.06,6.66,6.66,0,0,1-3.42.83,6.17,6.17,0,0,1-3.12-.82,6.47,6.47,0,0,1-2.31-2.22,5.9,5.9,0,0,1-.87-3.17,6,6,0,0,1,.9-3.26,6.46,6.46,0,0,1,2.39-2.22,6.61,6.61,0,0,1,3.22-.81,7,7,0,0,1,3,.64,4.73,4.73,0,0,1,2,1.63l-.18.48.27-2.27h2.58v11.83a5.17,5.17,0,0,1-.85,2.89,6,6,0,0,1-2.46,2.08A8.62,8.62,0,0,1,305.21,176.42Zm-4.29-11.82a3.86,3.86,0,0,0,.59,2.07,4.24,4.24,0,0,0,1.56,1.47,4.33,4.33,0,0,0,2.14.54,5.09,5.09,0,0,0,2-.38,4.12,4.12,0,0,0,1.48-1.07,3.86,3.86,0,0,0,.84-1.5v-2.35a3.59,3.59,0,0,0-.9-1.48,4.9,4.9,0,0,0-1.5-1,5,5,0,0,0-1.92-.37,4.44,4.44,0,0,0-2.14.53,4.13,4.13,0,0,0-1.56,1.43A3.77,3.77,0,0,0,300.92,164.6Z"/><path class="cls-2" d="M317.15,148.63H320v22h-2.82Z"/><path class="cls-2" d="M324.62,154.59a1.3,1.3,0,0,1,.53-1.05,1.81,1.81,0,0,1,1.15-.43,1.76,1.76,0,0,1,1.14.43,1.35,1.35,0,0,1,0,2.11,1.74,1.74,0,0,1-1.14.41,1.78,1.78,0,0,1-1.15-.41A1.29,1.29,0,0,1,324.62,154.59Zm.18,4.25h2.82v11.74H324.8Z"/><path class="cls-2" d="M345.44,170.81a7.7,7.7,0,0,1-2.56-.44,5.05,5.05,0,0,1-2.06-1.32l1.17-1.53a6.24,6.24,0,0,0,1.62,1.06,4,4,0,0,0,1.62.36,3.92,3.92,0,0,0,1.11-.15,1.68,1.68,0,0,0,.83-.48,1.23,1.23,0,0,0,.31-.88,1.21,1.21,0,0,0-.43-1,3.46,3.46,0,0,0-1.1-.58,14.57,14.57,0,0,0-1.44-.43,5.46,5.46,0,0,1-2.34-1.33,2.9,2.9,0,0,1-.81-2.07,3.29,3.29,0,0,1,.5-1.75,3.71,3.71,0,0,1,1.48-1.33,5.07,5.07,0,0,1,2.4-.52,8.58,8.58,0,0,1,2.31.29,5.73,5.73,0,0,1,1.92,1l-1.11,1.64a3.56,3.56,0,0,0-1.27-.8,3.94,3.94,0,0,0-1.34-.27,3.22,3.22,0,0,0-1,.15,1.81,1.81,0,0,0-.75.46,1.05,1.05,0,0,0-.29.75,1.09,1.09,0,0,0,.41.95,3.41,3.41,0,0,0,1.09.58l1.35.45a7,7,0,0,1,1.62.68,3.81,3.81,0,0,1,1.16,1.05,2.68,2.68,0,0,1,.43,1.56,3.74,3.74,0,0,1-.52,1.94,3.63,3.63,0,0,1-1.59,1.42A6.16,6.16,0,0,1,345.44,170.81Z"/><path class="cls-2" d="M358.13,171a4.09,4.09,0,0,1-2.83-1,3.42,3.42,0,0,1-1.16-2.54v-8.68H357v7.74a2.5,2.5,0,0,0,.6,1.55,2.24,2.24,0,0,0,1.68.64,3.13,3.13,0,0,0,1.85-.59,4.15,4.15,0,0,0,1.33-1.58,5,5,0,0,0,.51-2.29v-5.47h2.79v11.74h-2.55l-.24-2.89.18.54a4.69,4.69,0,0,1-1.11,1.43,5.5,5.5,0,0,1-1.72,1A6.38,6.38,0,0,1,358.13,171Z"/><path class="cls-2" d="M376.55,176.42a8.56,8.56,0,0,1-2.44-.31,7.46,7.46,0,0,1-1.92-.85,18.85,18.85,0,0,1-1.67-1.19l1.65-1.82a9.26,9.26,0,0,0,2,1.34,5.29,5.29,0,0,0,2.28.48,5.86,5.86,0,0,0,2.39-.44,3.3,3.3,0,0,0,1.47-1.21,3.38,3.38,0,0,0,.52-1.78l0-3.18.24.51a4.62,4.62,0,0,1-1.95,2.06,6.66,6.66,0,0,1-3.42.83,6.17,6.17,0,0,1-3.12-.82,6.47,6.47,0,0,1-2.31-2.22,5.9,5.9,0,0,1-.87-3.17,6,6,0,0,1,.9-3.26,6.46,6.46,0,0,1,2.39-2.22,6.61,6.61,0,0,1,3.22-.81,7,7,0,0,1,3,.64,4.73,4.73,0,0,1,2,1.63l-.18.48.27-2.27h2.58v11.83a5.17,5.17,0,0,1-.85,2.89,6,6,0,0,1-2.46,2.08A8.62,8.62,0,0,1,376.55,176.42Zm-4.29-11.82a3.86,3.86,0,0,0,.59,2.07,4.24,4.24,0,0,0,1.56,1.47,4.33,4.33,0,0,0,2.14.54,5.09,5.09,0,0,0,2-.38,4.12,4.12,0,0,0,1.48-1.07,3.86,3.86,0,0,0,.84-1.5v-2.35a3.59,3.59,0,0,0-.9-1.48,4.9,4.9,0,0,0-1.5-1,5,5,0,0,0-1.92-.37,4.44,4.44,0,0,0-2.14.53,4.13,4.13,0,0,0-1.56,1.43A3.77,3.77,0,0,0,372.26,164.6Z"/><path class="cls-2" d="M394.52,176.42a8.56,8.56,0,0,1-2.44-.31,7.31,7.31,0,0,1-1.92-.85,18.85,18.85,0,0,1-1.67-1.19l1.65-1.82a9.26,9.26,0,0,0,2,1.34,5.29,5.29,0,0,0,2.28.48,5.78,5.78,0,0,0,2.38-.44,3.28,3.28,0,0,0,1.48-1.21,3.38,3.38,0,0,0,.52-1.78l0-3.18.24.51a4.62,4.62,0,0,1-1.95,2.06,6.66,6.66,0,0,1-3.42.83,6.17,6.17,0,0,1-3.12-.82,6.47,6.47,0,0,1-2.31-2.22,5.9,5.9,0,0,1-.87-3.17,6,6,0,0,1,.9-3.26,6.46,6.46,0,0,1,2.39-2.22,6.58,6.58,0,0,1,3.22-.81,6.94,6.94,0,0,1,3,.64,4.71,4.71,0,0,1,2,1.63l-.18.48.27-2.27h2.58v11.83a5.1,5.1,0,0,1-.86,2.89,5.84,5.84,0,0,1-2.46,2.08A8.54,8.54,0,0,1,394.52,176.42Zm-4.29-11.82a3.94,3.94,0,0,0,.58,2.07,4.36,4.36,0,0,0,3.71,2,5.09,5.09,0,0,0,2-.38,4.21,4.21,0,0,0,1.48-1.07,3.86,3.86,0,0,0,.84-1.5v-2.35a3.59,3.59,0,0,0-.9-1.48,4.9,4.9,0,0,0-1.5-1,5,5,0,0,0-1.92-.37,4.41,4.41,0,0,0-2.14.53,4.16,4.16,0,0,0-1.57,1.43A3.85,3.85,0,0,0,390.23,164.6Z"/><path class="cls-2" d="M412.25,170.86a7.85,7.85,0,0,1-3.66-.8,5.91,5.91,0,0,1-2.37-2.22,6.1,6.1,0,0,1-.84-3.21,5.53,5.53,0,0,1,.94-3.15,7,7,0,0,1,2.51-2.27,7.12,7.12,0,0,1,3.48-.85,6.11,6.11,0,0,1,4.08,1.36,7,7,0,0,1,2.22,3.74l-10.26,3.41-.66-1.56,8.37-2.92-.57.39a3.82,3.82,0,0,0-1.2-1.61,3.33,3.33,0,0,0-2.19-.68,4,4,0,0,0-2,.51,3.67,3.67,0,0,0-1.39,1.4,4.14,4.14,0,0,0-.51,2.08,4.36,4.36,0,0,0,.52,2.13,3.71,3.71,0,0,0,1.48,1.46,4.33,4.33,0,0,0,2.14.53,4.51,4.51,0,0,0,1.58-.29,7.09,7.09,0,0,0,1.45-.74l1.26,2a9,9,0,0,1-2.08,1A7.67,7.67,0,0,1,412.25,170.86Z"/><path class="cls-2" d="M424.58,158.84l.27,3.4-.12-.48a5.17,5.17,0,0,1,1.38-1.81,6.88,6.88,0,0,1,1.92-1.17,5.7,5.7,0,0,1,1.74-.42l-.12,2.66a4.29,4.29,0,0,0-2.51.5,4.76,4.76,0,0,0-1.68,1.59,3.89,3.89,0,0,0-.61,2.11v5.36h-2.79V158.84Z"/><path class="cls-2" d="M433.16,154.59a1.29,1.29,0,0,1,.52-1.05,1.83,1.83,0,0,1,1.16-.43,1.76,1.76,0,0,1,1.14.43,1.35,1.35,0,0,1,0,2.11,1.74,1.74,0,0,1-1.14.41,1.81,1.81,0,0,1-1.16-.41A1.28,1.28,0,0,1,433.16,154.59Zm.18,4.25h2.82v11.74h-2.82Z"/><path class="cls-2" d="M444.5,170.81a7.76,7.76,0,0,1-2.57-.44,5,5,0,0,1-2.05-1.32l1.17-1.53a6.24,6.24,0,0,0,1.62,1.06,4,4,0,0,0,1.62.36,3.92,3.92,0,0,0,1.11-.15,1.65,1.65,0,0,0,.82-.48,1.24,1.24,0,0,0,.32-.88,1.21,1.21,0,0,0-.44-1,3.41,3.41,0,0,0-1.09-.58,14.57,14.57,0,0,0-1.44-.43,5.46,5.46,0,0,1-2.34-1.33,2.9,2.9,0,0,1-.81-2.07,3.28,3.28,0,0,1,.49-1.75,3.74,3.74,0,0,1,1.49-1.33,5.07,5.07,0,0,1,2.4-.52,8.58,8.58,0,0,1,2.31.29,5.73,5.73,0,0,1,1.92,1l-1.11,1.64a3.6,3.6,0,0,0-1.28-.8,3.89,3.89,0,0,0-1.33-.27,3.29,3.29,0,0,0-1,.15,1.87,1.87,0,0,0-.75.46,1,1,0,0,0-.28.75,1.08,1.08,0,0,0,.4.95,3.46,3.46,0,0,0,1.1.58l1.35.45a7,7,0,0,1,1.62.68,3.77,3.77,0,0,1,1.15,1.05,2.68,2.68,0,0,1,.44,1.56,3.75,3.75,0,0,1-.53,1.94,3.63,3.63,0,0,1-1.59,1.42A6.11,6.11,0,0,1,444.5,170.81Z"/><path class="cls-2" d="M463.31,169.47a6.35,6.35,0,0,1-2,1,8.33,8.33,0,0,1-5.9-.4,5.81,5.81,0,0,1-2.41-2.16,6,6,0,0,1-.87-3.26,5.64,5.64,0,0,1,.93-3.24,6.27,6.27,0,0,1,2.41-2.13,7.07,7.07,0,0,1,3.23-.75,8.74,8.74,0,0,1,2.65.38A6.43,6.43,0,0,1,463.4,160l-1.41,1.7a6.85,6.85,0,0,0-1.31-.69,4.51,4.51,0,0,0-1.75-.33,4,4,0,0,0-2,.53,3.85,3.85,0,0,0-1.44,1.42,4.11,4.11,0,0,0,0,4,4,4,0,0,0,1.5,1.44,4.45,4.45,0,0,0,2.22.54,4.54,4.54,0,0,0,1.45-.23,4.25,4.25,0,0,0,1.22-.62Z"/><path class="cls-2" d="M472.67,170.86a7.85,7.85,0,0,1-3.66-.8,5.91,5.91,0,0,1-2.37-2.22,6.1,6.1,0,0,1-.84-3.21,5.53,5.53,0,0,1,.94-3.15,7,7,0,0,1,2.51-2.27,7.12,7.12,0,0,1,3.48-.85,6.11,6.11,0,0,1,4.08,1.36,7,7,0,0,1,2.22,3.74l-10.26,3.41-.66-1.56,8.37-2.92-.57.39a3.82,3.82,0,0,0-1.2-1.61,3.33,3.33,0,0,0-2.19-.68,4,4,0,0,0-2,.51,3.67,3.67,0,0,0-1.39,1.4,4.14,4.14,0,0,0-.51,2.08,4.25,4.25,0,0,0,.52,2.13,3.75,3.75,0,0,0,1.47,1.46,4.36,4.36,0,0,0,2.15.53,4.45,4.45,0,0,0,1.57-.29,6.91,6.91,0,0,0,1.46-.74l1.26,2a8.92,8.92,0,0,1-2.09,1A7.56,7.56,0,0,1,472.67,170.86Z"/><path class="cls-2" d="M497,170.86a6.23,6.23,0,0,1-3.12-.78,5.79,5.79,0,0,1-2.21-2.21,6.46,6.46,0,0,1-.82-3.3,6.21,6.21,0,0,1,.87-3.35,5.77,5.77,0,0,1,2.34-2.12,7.15,7.15,0,0,1,3.3-.74,6.9,6.9,0,0,1,2.8.59,5,5,0,0,1,2.09,1.65l-.15.93v-12.9h2.79v22h-2.79v-2.92l.33.74a7.1,7.1,0,0,1-2.3,1.77A7,7,0,0,1,497,170.86Zm.87-2.24a4.66,4.66,0,0,0,2-.39,4.31,4.31,0,0,0,1.44-1.07,3.83,3.83,0,0,0,.83-1.57v-2.24a3.53,3.53,0,0,0-.86-1.5,4.2,4.2,0,0,0-1.47-1,4.84,4.84,0,0,0-1.9-.35,4.35,4.35,0,0,0-2.07.51,4,4,0,0,0-1.53,1.41,4.14,4.14,0,0,0,0,4.19,4.31,4.31,0,0,0,1.53,1.47A4.06,4.06,0,0,0,497.9,168.62Z"/><path class="cls-2" d="M509.57,154.59a1.29,1.29,0,0,1,.52-1.05,1.83,1.83,0,0,1,1.16-.43,1.76,1.76,0,0,1,1.14.43,1.35,1.35,0,0,1,0,2.11,1.74,1.74,0,0,1-1.14.41,1.81,1.81,0,0,1-1.16-.41A1.28,1.28,0,0,1,509.57,154.59Zm.18,4.25h2.82v11.74h-2.82Z"/><path class="cls-2" d="M526.7,154.59a1.29,1.29,0,0,1,.52-1.05,1.83,1.83,0,0,1,1.16-.43,1.76,1.76,0,0,1,1.14.43,1.35,1.35,0,0,1,0,2.11,1.74,1.74,0,0,1-1.14.41,1.81,1.81,0,0,1-1.16-.41A1.28,1.28,0,0,1,526.7,154.59Zm.18,4.25h2.82v11.74h-2.82Z"/><path class="cls-2" d="M538,170.81a7.71,7.71,0,0,1-2.57-.44,5,5,0,0,1-2.05-1.32l1.17-1.53a6.24,6.24,0,0,0,1.62,1.06,4,4,0,0,0,1.62.36,3.85,3.85,0,0,0,1.1-.15,1.68,1.68,0,0,0,.83-.48,1.24,1.24,0,0,0,.32-.88,1.21,1.21,0,0,0-.44-1,3.52,3.52,0,0,0-1.09-.58c-.45-.16-.92-.3-1.44-.43a5.46,5.46,0,0,1-2.34-1.33A2.86,2.86,0,0,1,534,162a3.28,3.28,0,0,1,.49-1.75,3.78,3.78,0,0,1,1.48-1.33,5.11,5.11,0,0,1,2.41-.52,8.64,8.64,0,0,1,2.31.29,5.73,5.73,0,0,1,1.92,1l-1.11,1.64a3.6,3.6,0,0,0-1.28-.8,3.89,3.89,0,0,0-1.33-.27,3.29,3.29,0,0,0-1,.15,1.87,1.87,0,0,0-.75.46,1,1,0,0,0-.28.75,1.08,1.08,0,0,0,.4.95,3.46,3.46,0,0,0,1.1.58l1.35.45a7,7,0,0,1,1.62.68,3.77,3.77,0,0,1,1.15,1.05,2.68,2.68,0,0,1,.44,1.56,3.75,3.75,0,0,1-.53,1.94,3.63,3.63,0,0,1-1.59,1.42A6.11,6.11,0,0,1,538,170.81Z"/><path class="cls-2" d="M556.85,169.47a6.35,6.35,0,0,1-2,1,8.33,8.33,0,0,1-5.9-.4,5.75,5.75,0,0,1-2.41-2.16,5.91,5.91,0,0,1-.87-3.26,5.64,5.64,0,0,1,.93-3.24,6.27,6.27,0,0,1,2.41-2.13,7,7,0,0,1,3.22-.75,8.76,8.76,0,0,1,2.66.38,6.38,6.38,0,0,1,2,1.09l-1.4,1.7a7.17,7.17,0,0,0-1.31-.69,4.55,4.55,0,0,0-1.75-.33,4,4,0,0,0-2,.53,3.85,3.85,0,0,0-1.44,1.42,4,4,0,0,0,0,4,4,4,0,0,0,1.5,1.44,4.42,4.42,0,0,0,2.22.54,4.54,4.54,0,0,0,1.45-.23,4.25,4.25,0,0,0,1.22-.62Z"/><path class="cls-2" d="M562.93,158.84l.28,3.4-.12-.48a5,5,0,0,1,1.38-1.81,6.6,6.6,0,0,1,1.92-1.17,5.57,5.57,0,0,1,1.74-.42L568,161a4.29,4.29,0,0,0-2.51.5,4.76,4.76,0,0,0-1.68,1.59,3.89,3.89,0,0,0-.61,2.11v5.36h-2.79V158.84Z"/><path class="cls-2" d="M571.51,154.59a1.3,1.3,0,0,1,.53-1.05,1.81,1.81,0,0,1,1.15-.43,1.76,1.76,0,0,1,1.14.43,1.35,1.35,0,0,1,0,2.11,1.74,1.74,0,0,1-1.14.41,1.78,1.78,0,0,1-1.15-.41A1.29,1.29,0,0,1,571.51,154.59Zm.18,4.25h2.82v11.74h-2.82Z"/><path class="cls-2" d="M584.41,170.92l-6.9-12.08h3.33l4.65,9.33-1.71-.08,4.29-9.25h3.12l-6.63,12.08Z"/><path class="cls-2" d="M599.65,170.86a7.85,7.85,0,0,1-3.66-.8,5.91,5.91,0,0,1-2.37-2.22,6.1,6.1,0,0,1-.84-3.21,5.54,5.54,0,0,1,1-3.15,6.93,6.93,0,0,1,2.5-2.27,7.12,7.12,0,0,1,3.48-.85,6.11,6.11,0,0,1,4.08,1.36,7,7,0,0,1,2.22,3.74l-10.26,3.41-.66-1.56,8.37-2.92-.57.39a3.82,3.82,0,0,0-1.2-1.61,3.33,3.33,0,0,0-2.19-.68,4,4,0,0,0-2,.51,3.69,3.69,0,0,0-1.4,1.4,4.14,4.14,0,0,0-.51,2.08,4.26,4.26,0,0,0,.53,2.13,3.75,3.75,0,0,0,1.47,1.46,4.33,4.33,0,0,0,2.14.53,4.51,4.51,0,0,0,1.58-.29,6.84,6.84,0,0,0,1.45-.74l1.26,2a8.84,8.84,0,0,1-2.08,1A7.62,7.62,0,0,1,599.65,170.86Z"/><path class="cls-2" d="M612,158.84l.27,3.4-.12-.48a5.17,5.17,0,0,1,1.38-1.81,6.88,6.88,0,0,1,1.92-1.17,5.7,5.7,0,0,1,1.74-.42l-.12,2.66a4.26,4.26,0,0,0-2.5.5,4.76,4.76,0,0,0-1.68,1.59,3.9,3.9,0,0,0-.62,2.11v5.36h-2.79V158.84Z"/><path class="cls-2" d="M624.25,170.81a7.7,7.7,0,0,1-2.56-.44,5.05,5.05,0,0,1-2.06-1.32l1.17-1.53a6.24,6.24,0,0,0,1.62,1.06,4,4,0,0,0,1.62.36,3.92,3.92,0,0,0,1.11-.15,1.68,1.68,0,0,0,.83-.48,1.23,1.23,0,0,0,.31-.88,1.21,1.21,0,0,0-.43-1,3.46,3.46,0,0,0-1.1-.58,14.57,14.57,0,0,0-1.44-.43,5.46,5.46,0,0,1-2.34-1.33,2.9,2.9,0,0,1-.81-2.07,3.29,3.29,0,0,1,.5-1.75,3.71,3.71,0,0,1,1.48-1.33,5.07,5.07,0,0,1,2.4-.52,8.58,8.58,0,0,1,2.31.29,5.73,5.73,0,0,1,1.92,1l-1.11,1.64a3.56,3.56,0,0,0-1.27-.8,3.94,3.94,0,0,0-1.34-.27,3.22,3.22,0,0,0-1,.15,1.87,1.87,0,0,0-.75.46,1.05,1.05,0,0,0-.29.75,1.09,1.09,0,0,0,.41.95,3.41,3.41,0,0,0,1.09.58l1.35.45a7,7,0,0,1,1.62.68,3.81,3.81,0,0,1,1.16,1.05,2.68,2.68,0,0,1,.43,1.56,3.74,3.74,0,0,1-.52,1.94,3.63,3.63,0,0,1-1.59,1.42A6.16,6.16,0,0,1,624.25,170.81Z"/><path class="cls-2" d="M632.77,154.59a1.3,1.3,0,0,1,.53-1.05,1.81,1.81,0,0,1,1.15-.43,1.76,1.76,0,0,1,1.14.43,1.35,1.35,0,0,1,0,2.11,1.74,1.74,0,0,1-1.14.41,1.78,1.78,0,0,1-1.15-.41A1.29,1.29,0,0,1,632.77,154.59Zm.18,4.25h2.82v11.74H633Z"/><path class="cls-2" d="M23.22,188.61a1.3,1.3,0,0,1,.53-1.05,1.79,1.79,0,0,1,1.15-.42,1.75,1.75,0,0,1,1.14.42,1.33,1.33,0,0,1,.51,1.05,1.32,1.32,0,0,1-.51,1.07,1.79,1.79,0,0,1-1.14.41,1.84,1.84,0,0,1-1.15-.41A1.28,1.28,0,0,1,23.22,188.61Zm.18,4.26h2.82V204.6H23.4Z"/><path class="cls-2" d="M33.6,192.87l.21,2.86-.09-.45a4.45,4.45,0,0,1,1.92-2.09,6.18,6.18,0,0,1,3.15-.78,4.21,4.21,0,0,1,2.86,1,3.3,3.3,0,0,1,1.16,2.54v8.67H40v-7.76a2.33,2.33,0,0,0-.59-1.55,2.2,2.2,0,0,0-1.72-.61,3.52,3.52,0,0,0-1.94.57,3.87,3.87,0,0,0-1.38,1.56,5,5,0,0,0-.49,2.29v5.5H31.05V192.87Z"/><path class="cls-2" d="M61.11,205.06a4.12,4.12,0,0,1-2.84-1,3.43,3.43,0,0,1-1.15-2.54v-8.67h2.82v7.74a2.48,2.48,0,0,0,.6,1.54,2.2,2.2,0,0,0,1.68.64,3.1,3.1,0,0,0,1.84-.58,4.29,4.29,0,0,0,1.34-1.59,5,5,0,0,0,.51-2.28v-5.47H68.7V204.6H66.15l-.24-2.89.18.54A4.57,4.57,0,0,1,65,203.68a5.37,5.37,0,0,1-1.73,1A6.06,6.06,0,0,1,61.11,205.06Z"/><path class="cls-2" d="M76.05,192.87l.21,2.86-.09-.45a4.45,4.45,0,0,1,1.92-2.09,6.18,6.18,0,0,1,3.15-.78,4.21,4.21,0,0,1,2.86,1,3.3,3.3,0,0,1,1.16,2.54v8.67H82.44v-7.76a2.33,2.33,0,0,0-.59-1.55,2.2,2.2,0,0,0-1.72-.61,3.52,3.52,0,0,0-1.94.57,3.87,3.87,0,0,0-1.38,1.56,5,5,0,0,0-.49,2.29v5.5H73.5V192.87Z"/><path class="cls-2" d="M107.19,204.89a6.33,6.33,0,0,1-3-.71,6.08,6.08,0,0,1-2.08-1.79l.33-.79v3H99.57V182.66h2.79v12.9l-.06-1a5.3,5.3,0,0,1,2.11-1.55,7.89,7.89,0,0,1,3.14-.61,6.15,6.15,0,0,1,3,.77,5.79,5.79,0,0,1,2.2,2.14,6.21,6.21,0,0,1,.83,3.25,6.34,6.34,0,0,1-.89,3.41,5.82,5.82,0,0,1-2.35,2.19A6.9,6.9,0,0,1,107.19,204.89Zm-.6-2.24a4.29,4.29,0,0,0,2.17-.54,3.92,3.92,0,0,0,1.49-1.48,4.09,4.09,0,0,0,.54-2.09,3.93,3.93,0,0,0-.56-2.06,4,4,0,0,0-1.5-1.45,4.43,4.43,0,0,0-2.14-.52,5.08,5.08,0,0,0-1.89.35,4.22,4.22,0,0,0-1.46,1,3.83,3.83,0,0,0-.85,1.48v2.41a3.94,3.94,0,0,0,2.26,2.54A4.94,4.94,0,0,0,106.59,202.65Z"/><path class="cls-2" d="M121.35,205.06a4.12,4.12,0,0,1-2.84-1,3.43,3.43,0,0,1-1.15-2.54v-8.67h2.82v7.74a2.48,2.48,0,0,0,.6,1.54,2.2,2.2,0,0,0,1.68.64,3.1,3.1,0,0,0,1.84-.58,4.29,4.29,0,0,0,1.34-1.59,5,5,0,0,0,.51-2.28v-5.47h2.79V204.6h-2.55l-.24-2.89.18.54a4.57,4.57,0,0,1-1.11,1.43,5.37,5.37,0,0,1-1.73,1A6.06,6.06,0,0,1,121.35,205.06Z"/><path class="cls-2" d="M132.66,198.62a5.84,5.84,0,0,1,.88-3.17,6.13,6.13,0,0,1,2.46-2.24,7.63,7.63,0,0,1,3.59-.83,7.35,7.35,0,0,1,3.54.83,6,6,0,0,1,3.24,5.41,6.07,6.07,0,0,1-.86,3.18,6.22,6.22,0,0,1-2.38,2.25,7.3,7.3,0,0,1-3.57.84,7.81,7.81,0,0,1-3.56-.78,6.14,6.14,0,0,1-2.44-2.18A6,6,0,0,1,132.66,198.62Zm2.82,0a4,4,0,0,0,.54,2.06,4.11,4.11,0,0,0,1.44,1.46,4,4,0,0,0,2,.53,4,4,0,0,0,2.07-.53,4,4,0,0,0,1.42-1.46,4.15,4.15,0,0,0-1.42-5.59,3.86,3.86,0,0,0-2.07-.55,3.91,3.91,0,0,0-2.06.56,4.19,4.19,0,0,0-1.44,1.49A4,4,0,0,0,135.48,198.65Z"/><path class="cls-2" d="M152.64,192.87l.21,2.86-.09-.45a4.45,4.45,0,0,1,1.92-2.09,6.18,6.18,0,0,1,3.15-.78,4.21,4.21,0,0,1,2.86,1,3.3,3.3,0,0,1,1.16,2.54v8.67H159v-7.76a2.33,2.33,0,0,0-.59-1.55,2.2,2.2,0,0,0-1.72-.61,3.52,3.52,0,0,0-1.94.57,3.87,3.87,0,0,0-1.38,1.56,5,5,0,0,0-.49,2.29v5.5h-2.82V192.87Z"/><path class="cls-2" d="M176.16,182.66H179V204.6h-2.82Z"/><path class="cls-2" d="M183.63,188.61a1.32,1.32,0,0,1,.52-1.05,1.82,1.82,0,0,1,1.16-.42,1.75,1.75,0,0,1,1.14.42,1.33,1.33,0,0,1,.51,1.05,1.32,1.32,0,0,1-.51,1.07,1.79,1.79,0,0,1-1.14.41,1.87,1.87,0,0,1-1.16-.41A1.3,1.3,0,0,1,183.63,188.61Zm.18,4.26h2.82V204.6h-2.82Z"/><path class="cls-2" d="M201.57,203.5a6.55,6.55,0,0,1-2,1,8.18,8.18,0,0,1-5.9-.4,5.85,5.85,0,0,1-2.41-2.15,6,6,0,0,1-.87-3.26,5.67,5.67,0,0,1,.93-3.25,6.27,6.27,0,0,1,2.41-2.13,7.07,7.07,0,0,1,3.23-.75,8.74,8.74,0,0,1,2.65.38,6.26,6.26,0,0,1,2.06,1.1l-1.41,1.7a6.32,6.32,0,0,0-1.31-.7,4.7,4.7,0,0,0-1.75-.32,4,4,0,0,0-2,.52,3.85,3.85,0,0,0-1.44,1.42,4.11,4.11,0,0,0,0,4,4,4,0,0,0,1.5,1.45,4.9,4.9,0,0,0,3.67.31,4.28,4.28,0,0,0,1.22-.63Z"/><path class="cls-2" d="M210.93,204.89a7.73,7.73,0,0,1-3.66-.81,6,6,0,0,1-2.37-2.21,6.16,6.16,0,0,1-.84-3.22,5.57,5.57,0,0,1,.94-3.15,7.05,7.05,0,0,1,2.51-2.27,7.23,7.23,0,0,1,3.48-.85,6.16,6.16,0,0,1,4.08,1.36,7,7,0,0,1,2.22,3.75L207,200.89l-.66-1.56,8.37-2.92-.57.4a3.79,3.79,0,0,0-1.2-1.62,3.39,3.39,0,0,0-2.19-.68,4,4,0,0,0-2,.51,3.74,3.74,0,0,0-1.39,1.4,4.15,4.15,0,0,0-.51,2.09,4.24,4.24,0,0,0,.52,2.12,3.71,3.71,0,0,0,1.47,1.47,4.47,4.47,0,0,0,2.15.52,4.68,4.68,0,0,0,1.57-.28,7.42,7.42,0,0,0,1.46-.74l1.26,2a8.92,8.92,0,0,1-2.09,1A7.57,7.57,0,0,1,210.93,204.89Z"/><path class="cls-2" d="M219.66,198.62a5.84,5.84,0,0,1,.88-3.17,6.13,6.13,0,0,1,2.46-2.24,7.63,7.63,0,0,1,3.59-.83,7.35,7.35,0,0,1,3.54.83,6.19,6.19,0,0,1,2.38,8.59,6.29,6.29,0,0,1-2.38,2.25,7.3,7.3,0,0,1-3.57.84,7.81,7.81,0,0,1-3.56-.78,6.14,6.14,0,0,1-2.44-2.18A6,6,0,0,1,219.66,198.62Zm2.81,0a4.09,4.09,0,0,0,2,3.52,4,4,0,0,0,2,.53,4,4,0,0,0,2.07-.53,4,4,0,0,0,1.42-1.46,4.15,4.15,0,0,0-1.42-5.59,4.12,4.12,0,0,0-4.13,0,4.19,4.19,0,0,0-1.44,1.49A4,4,0,0,0,222.47,198.65Z"/><path class="cls-2" d="M250.07,204.83a7.7,7.7,0,0,1-2.56-.44,5,5,0,0,1-2.06-1.32l1.17-1.53a6,6,0,0,0,1.62,1.06,4,4,0,0,0,1.62.36,4.32,4.32,0,0,0,1.11-.14,1.84,1.84,0,0,0,.83-.48,1.25,1.25,0,0,0,.31-.88,1.23,1.23,0,0,0-.43-1,3.46,3.46,0,0,0-1.1-.58c-.44-.15-.92-.29-1.44-.43a5.36,5.36,0,0,1-2.34-1.33A2.9,2.9,0,0,1,246,196a3.28,3.28,0,0,1,.5-1.74A3.73,3.73,0,0,1,248,193a5.07,5.07,0,0,1,2.4-.52,8.19,8.19,0,0,1,2.31.3,5.7,5.7,0,0,1,1.92,1l-1.11,1.65a3.45,3.45,0,0,0-1.27-.81,3.94,3.94,0,0,0-1.34-.27,3,3,0,0,0-1,.16,1.75,1.75,0,0,0-.75.45,1.05,1.05,0,0,0-.29.75,1.08,1.08,0,0,0,.41,1,3.41,3.41,0,0,0,1.09.58l1.35.46a6.57,6.57,0,0,1,1.62.68,3.57,3.57,0,0,1,1.16,1,2.64,2.64,0,0,1,.43,1.56,3.76,3.76,0,0,1-.52,1.94,3.69,3.69,0,0,1-1.59,1.42A6.16,6.16,0,0,1,250.07,204.83Z"/><path class="cls-2" d="M268.88,203.5a6.55,6.55,0,0,1-2,1,8.15,8.15,0,0,1-5.89-.4,5.88,5.88,0,0,1-2.42-2.15,6,6,0,0,1-.87-3.26,5.67,5.67,0,0,1,.93-3.25,6.29,6.29,0,0,1,2.42-2.13,7,7,0,0,1,3.22-.75,8.81,8.81,0,0,1,2.66.38,6.21,6.21,0,0,1,2.05,1.1l-1.41,1.7a6.22,6.22,0,0,0-1.3-.7,4.75,4.75,0,0,0-1.76-.32,4,4,0,0,0-2,.52,3.85,3.85,0,0,0-1.44,1.42,4.08,4.08,0,0,0,0,4,4,4,0,0,0,1.5,1.45,4.55,4.55,0,0,0,2.22.53,4.6,4.6,0,0,0,1.46-.22,4.22,4.22,0,0,0,1.21-.63Z"/><path class="cls-2" d="M272.27,188.61a1.33,1.33,0,0,1,.53-1.05,1.79,1.79,0,0,1,1.15-.42,1.75,1.75,0,0,1,1.14.42,1.33,1.33,0,0,1,.51,1.05,1.32,1.32,0,0,1-.51,1.07,1.79,1.79,0,0,1-1.14.41,1.84,1.84,0,0,1-1.15-.41A1.31,1.31,0,0,1,272.27,188.61Zm.18,4.26h2.82V204.6h-2.82Z"/><path class="cls-2" d="M285.89,204.89a7.73,7.73,0,0,1-3.66-.81,6,6,0,0,1-2.37-2.21,6.16,6.16,0,0,1-.84-3.22,5.58,5.58,0,0,1,1-3.15,7,7,0,0,1,2.5-2.27,7.23,7.23,0,0,1,3.48-.85,6.16,6.16,0,0,1,4.08,1.36,7,7,0,0,1,2.22,3.75L282,200.89l-.66-1.56,8.37-2.92-.57.4a3.79,3.79,0,0,0-1.2-1.62,3.39,3.39,0,0,0-2.19-.68,4,4,0,0,0-2,.51,3.76,3.76,0,0,0-1.4,1.4,4.15,4.15,0,0,0-.51,2.09,4.25,4.25,0,0,0,.53,2.12,3.71,3.71,0,0,0,1.47,1.47,4.43,4.43,0,0,0,2.14.52,4.74,4.74,0,0,0,1.58-.28,7.34,7.34,0,0,0,1.45-.74l1.26,2a8.84,8.84,0,0,1-2.08,1A7.64,7.64,0,0,1,285.89,204.89Z"/><path class="cls-2" d="M298.25,192.87l.21,2.86-.09-.45a4.45,4.45,0,0,1,1.92-2.09,6.18,6.18,0,0,1,3.15-.78,4.23,4.23,0,0,1,2.87,1,3.29,3.29,0,0,1,1.15,2.54v8.67h-2.82v-7.76a2.33,2.33,0,0,0-.58-1.55,2.22,2.22,0,0,0-1.73-.61,3.49,3.49,0,0,0-1.93.57,3.87,3.87,0,0,0-1.38,1.56,5,5,0,0,0-.5,2.29v5.5H295.7V192.87Z"/><path class="cls-2" d="M313.49,187.71h2.85v5.21h3.39V195h-3.39v9.61h-2.85V195h-2.25v-2.07h2.25Z"/><path class="cls-2" d="M322.91,188.61a1.33,1.33,0,0,1,.53-1.05,1.79,1.79,0,0,1,1.15-.42,1.75,1.75,0,0,1,1.14.42,1.33,1.33,0,0,1,.51,1.05,1.32,1.32,0,0,1-.51,1.07,1.79,1.79,0,0,1-1.14.41,1.84,1.84,0,0,1-1.15-.41A1.31,1.31,0,0,1,322.91,188.61Zm.18,4.26h2.82V204.6h-2.82Z"/><path class="cls-2" d="M331.79,204.6v-9.38h-2.16v-2.38h2.16V187.9A5.69,5.69,0,0,1,333,184a4.58,4.58,0,0,1,3.61-1.36,6.49,6.49,0,0,1,1.38.17,3.58,3.58,0,0,1,1.32.57l-1.17,1.9a1.32,1.32,0,0,0-.57-.36,2.61,2.61,0,0,0-.69-.1,2.12,2.12,0,0,0-1.71.71,3.84,3.84,0,0,0-.6,2.44v4.88h3.57v2.38h-3.57v9.38Zm8.55-16a1.35,1.35,0,0,1,.53-1.08,1.76,1.76,0,0,1,1.12-.42,1.67,1.67,0,0,1,1.16.44,1.36,1.36,0,0,1,.49,1.06,1.3,1.3,0,0,1-.49,1.06,1.73,1.73,0,0,1-1.16.41,1.76,1.76,0,0,1-1.12-.42A1.3,1.3,0,0,1,340.34,188.64Zm.18,4.23h2.82V204.6h-2.82Z"/><path class="cls-2" d="M358.25,203.5a6.55,6.55,0,0,1-2,1,8.15,8.15,0,0,1-5.89-.4,5.88,5.88,0,0,1-2.42-2.15,6,6,0,0,1-.87-3.26,5.67,5.67,0,0,1,.93-3.25,6.29,6.29,0,0,1,2.42-2.13,7,7,0,0,1,3.22-.75,8.81,8.81,0,0,1,2.66.38,6.21,6.21,0,0,1,2,1.1l-1.41,1.7a6.22,6.22,0,0,0-1.3-.7,4.75,4.75,0,0,0-1.76-.32,4,4,0,0,0-2,.52,3.85,3.85,0,0,0-1.44,1.42,4.08,4.08,0,0,0,0,4,4,4,0,0,0,1.5,1.45,4.55,4.55,0,0,0,2.22.53,4.6,4.6,0,0,0,1.46-.22,4.22,4.22,0,0,0,1.21-.63Z"/><path class="cls-2" d="M360.74,198.62a5.85,5.85,0,0,1,.89-3.17,6.13,6.13,0,0,1,2.46-2.24,7.59,7.59,0,0,1,3.58-.83,7.35,7.35,0,0,1,3.54.83,6.21,6.21,0,0,1,2.39,8.59,6.25,6.25,0,0,1-2.39,2.25,7.3,7.3,0,0,1-3.57.84,7.76,7.76,0,0,1-3.55-.78,6.16,6.16,0,0,1-2.45-2.18A6,6,0,0,1,360.74,198.62Zm2.82,0a4,4,0,0,0,.54,2.06,4.11,4.11,0,0,0,1.44,1.46,4,4,0,0,0,2,.53,3.88,3.88,0,0,0,3.5-2,4.14,4.14,0,0,0-1.43-5.59,4.1,4.1,0,0,0-4.12,0,4.19,4.19,0,0,0-1.44,1.49A4,4,0,0,0,363.56,198.65Z"/><path class="cls-2" d="M392.72,204.89a6.23,6.23,0,0,1-3.12-.78,5.93,5.93,0,0,1-2.21-2.21,6.63,6.63,0,0,1-.82-3.31,6.15,6.15,0,0,1,.87-3.34,5.72,5.72,0,0,1,2.34-2.13,7.28,7.28,0,0,1,3.3-.74,6.79,6.79,0,0,1,2.81.6,5.05,5.05,0,0,1,2.08,1.64l-.15.94v-12.9h2.79V204.6h-2.79v-2.92l.33.74a7,7,0,0,1-5.43,2.47Zm.87-2.24a4.56,4.56,0,0,0,2-.4,4.28,4.28,0,0,0,1.44-1.06,3.85,3.85,0,0,0,.82-1.58v-2.24a3.63,3.63,0,0,0-.85-1.5,4.34,4.34,0,0,0-1.47-1,5.08,5.08,0,0,0-1.91-.35,4.35,4.35,0,0,0-2.07.51,4,4,0,0,0-1.53,1.42,4.12,4.12,0,0,0,0,4.18,4.34,4.34,0,0,0,1.53,1.48A4.16,4.16,0,0,0,393.59,202.65Z"/><path class="cls-2" d="M411.23,204.89a7.73,7.73,0,0,1-3.66-.81,6,6,0,0,1-2.37-2.21,6.16,6.16,0,0,1-.84-3.22,5.58,5.58,0,0,1,.95-3.15,6.94,6.94,0,0,1,2.5-2.27,7.23,7.23,0,0,1,3.48-.85,6.16,6.16,0,0,1,4.08,1.36,7,7,0,0,1,2.22,3.75l-10.26,3.4-.66-1.56,8.37-2.92-.57.4a3.79,3.79,0,0,0-1.2-1.62,3.39,3.39,0,0,0-2.19-.68,3.94,3.94,0,0,0-2,.51,3.76,3.76,0,0,0-1.4,1.4,4.15,4.15,0,0,0-.51,2.09,4.25,4.25,0,0,0,.53,2.12,3.65,3.65,0,0,0,1.47,1.47,4.43,4.43,0,0,0,2.14.52,4.74,4.74,0,0,0,1.58-.28,7.34,7.34,0,0,0,1.45-.74l1.26,2a8.84,8.84,0,0,1-2.08,1A7.69,7.69,0,0,1,411.23,204.89Z"/><path class="cls-2" d="M421,182.66h2.82V204.6H421Z"/><path class="cls-2" d="M428.69,182.66h2.82V204.6h-2.82Z"/><path class="cls-2" d="M441.53,204.89a7.06,7.06,0,0,1-3.17-.71,5.46,5.46,0,0,1-2.26-2.08,7.13,7.13,0,0,1,0-6.77,5.92,5.92,0,0,1,2.34-2.18,6.85,6.85,0,0,1,3.21-.77,5.42,5.42,0,0,1,2.95.76,5.24,5.24,0,0,1,1.82,1.77l-.18.42.27-2.46h2.58V204.6h-2.79v-3.06l.33.68a3.49,3.49,0,0,1-.57.72,6.74,6.74,0,0,1-1.07.9,6,6,0,0,1-3.49,1Zm.75-2.19a4.75,4.75,0,0,0,1.89-.36,3.74,3.74,0,0,0,1.39-1.05,3.93,3.93,0,0,0,.77-1.59v-2.3a3.62,3.62,0,0,0-.84-1.49,4.3,4.3,0,0,0-1.44-1,4.77,4.77,0,0,0-1.83-.35,4.23,4.23,0,0,0-2.07.51,3.91,3.91,0,0,0-1.49,1.42,4,4,0,0,0-.55,2.12,3.88,3.88,0,0,0,.57,2.07,4.18,4.18,0,0,0,1.53,1.48A4.25,4.25,0,0,0,442.28,202.7Z"/><path class="cls-2" d="M473.54,203.5a6.55,6.55,0,0,1-2,1,8.18,8.18,0,0,1-5.9-.4,5.85,5.85,0,0,1-2.41-2.15,6,6,0,0,1-.87-3.26,5.67,5.67,0,0,1,.93-3.25,6.27,6.27,0,0,1,2.41-2.13,7.07,7.07,0,0,1,3.23-.75,8.74,8.74,0,0,1,2.65.38,6.26,6.26,0,0,1,2.06,1.1l-1.41,1.7a6.32,6.32,0,0,0-1.31-.7,4.7,4.7,0,0,0-1.75-.32,4,4,0,0,0-2,.52,3.85,3.85,0,0,0-1.44,1.42,4.11,4.11,0,0,0,0,4,4,4,0,0,0,1.5,1.45,4.9,4.9,0,0,0,3.67.31,4.28,4.28,0,0,0,1.22-.63Z"/><path class="cls-2" d="M476.93,188.61a1.32,1.32,0,0,1,.52-1.05,1.82,1.82,0,0,1,1.16-.42,1.75,1.75,0,0,1,1.14.42,1.33,1.33,0,0,1,.51,1.05,1.32,1.32,0,0,1-.51,1.07,1.79,1.79,0,0,1-1.14.41,1.87,1.87,0,0,1-1.16-.41A1.3,1.3,0,0,1,476.93,188.61Zm.18,4.26h2.82V204.6h-2.82Z"/><path class="cls-2" d="M486,187.71h2.85v5.21h3.39V195h-3.39v9.61H486V195h-2.25v-2.07H486Z"/><path class="cls-2" d="M496.76,187.71h2.85v5.21H503V195h-3.39v9.61h-2.85V195h-2.25v-2.07h2.25Z"/><path class="cls-2" d="M511.55,204.89a7.06,7.06,0,0,1-3.17-.71,5.46,5.46,0,0,1-2.26-2.08,7.13,7.13,0,0,1,0-6.77,5.92,5.92,0,0,1,2.34-2.18,6.85,6.85,0,0,1,3.21-.77,5.42,5.42,0,0,1,2.95.76,5.24,5.24,0,0,1,1.82,1.77l-.18.42.27-2.46h2.58V204.6h-2.79v-3.06l.33.68a3.49,3.49,0,0,1-.57.72,6.74,6.74,0,0,1-1.07.9,6,6,0,0,1-3.49,1Zm.75-2.19a4.75,4.75,0,0,0,1.89-.36,3.74,3.74,0,0,0,1.39-1.05,3.93,3.93,0,0,0,.77-1.59v-2.3a3.62,3.62,0,0,0-.84-1.49,4.3,4.3,0,0,0-1.44-1,4.77,4.77,0,0,0-1.83-.35,4.23,4.23,0,0,0-2.07.51,3.91,3.91,0,0,0-1.49,1.42,4,4,0,0,0-.55,2.12,3.88,3.88,0,0,0,.57,2.07,4.18,4.18,0,0,0,1.53,1.48A4.25,4.25,0,0,0,512.3,202.7Zm-3.51-16h3.09l2.19,3.79H512.3Z"/><path class="cls-2" d="M523.08,202a1.6,1.6,0,0,1,1.1-.45,1.52,1.52,0,0,1,1,.45,1.45,1.45,0,0,1,.5,1.08,1.35,1.35,0,0,1-.5,1.09,1.56,1.56,0,0,1-1,.41,1.65,1.65,0,0,1-1.1-.41,1.34,1.34,0,0,1-.49-1.09A1.43,1.43,0,0,1,523.08,202Z"/></g></g></svg>