<svg xmlns="http://www.w3.org/2000/svg" viewBox="0 0 672 181"><defs><style>.cls-1{fill:#fff;}.cls-2{fill:#846b4a;}</style></defs><title>ahmed testo 5</title><g id="Livello_2" data-name="Livello 2"><g id="illustrazioni"><rect class="cls-1" width="672" height="181" rx="21.32"/></g><g id="testi"><path class="cls-2" d="M21.12,28H24v20.5H21.12Z"/><path class="cls-2" d="M42.54,48.71A7.76,7.76,0,0,1,40,48.27a4.92,4.92,0,0,1-2-1.32l1.17-1.53a6.24,6.24,0,0,0,1.62,1.06,4,4,0,0,0,1.62.36,4.32,4.32,0,0,0,1.11-.14,1.74,1.74,0,0,0,.82-.49,1.21,1.21,0,0,0,.32-.87,1.23,1.23,0,0,0-.44-1,3.41,3.41,0,0,0-1.09-.58c-.44-.15-.92-.29-1.44-.43A5.36,5.36,0,0,1,39.27,42a2.9,2.9,0,0,1-.81-2.07A3.27,3.27,0,0,1,39,38.18a3.76,3.76,0,0,1,1.49-1.34,5.07,5.07,0,0,1,2.4-.52,8.19,8.19,0,0,1,2.31.3,5.7,5.7,0,0,1,1.92,1L46,39.27a3.49,3.49,0,0,0-1.28-.81,3.89,3.89,0,0,0-1.33-.27,3,3,0,0,0-1,.16,1.75,1.75,0,0,0-.75.45,1,1,0,0,0-.28.75,1.07,1.07,0,0,0,.4,1,3.46,3.46,0,0,0,1.1.58l1.35.46a6.57,6.57,0,0,1,1.62.68,3.53,3.53,0,0,1,1.15,1.05,2.64,2.64,0,0,1,.44,1.56,3.77,3.77,0,0,1-.53,1.94,3.69,3.69,0,0,1-1.59,1.42A6.12,6.12,0,0,1,42.54,48.71Z"/><path class="cls-2" d="M55.23,48.94a4.12,4.12,0,0,1-2.84-1,3.43,3.43,0,0,1-1.15-2.54V36.75h2.82v7.74a2.48,2.48,0,0,0,.6,1.54,2.2,2.2,0,0,0,1.68.64,3.17,3.17,0,0,0,1.84-.58,4.29,4.29,0,0,0,1.34-1.59A5,5,0,0,0,60,42.22V36.75h2.79V48.48H60.27L60,45.59l.18.54a4.57,4.57,0,0,1-1.11,1.43,5.37,5.37,0,0,1-1.73,1A6.29,6.29,0,0,1,55.23,48.94Z"/><path class="cls-2" d="M66.54,42.5a5.84,5.84,0,0,1,.88-3.17,6.13,6.13,0,0,1,2.46-2.24,7.63,7.63,0,0,1,3.59-.83,7.35,7.35,0,0,1,3.54.83,6,6,0,0,1,3.24,5.41,6.07,6.07,0,0,1-.86,3.18A6.22,6.22,0,0,1,77,47.93a7.3,7.3,0,0,1-3.57.84A7.81,7.81,0,0,1,69.88,48a6.09,6.09,0,0,1-2.44-2.19A6,6,0,0,1,66.54,42.5Zm2.82,0a4,4,0,0,0,2,3.51,3.89,3.89,0,0,0,2,.54A3.94,3.94,0,0,0,75.45,46a3.83,3.83,0,0,0,1.42-1.46,4,4,0,0,0,.53-2,4.08,4.08,0,0,0-2-3.53,3.86,3.86,0,0,0-2.07-.55,3.82,3.82,0,0,0-2.06.56,4.19,4.19,0,0,0-1.44,1.49A4,4,0,0,0,69.36,42.53Z"/><path class="cls-2" d="M83.79,32.49a1.32,1.32,0,0,1,.52-1.05A1.82,1.82,0,0,1,85.47,31a1.75,1.75,0,0,1,1.14.42,1.33,1.33,0,0,1,.51,1.05,1.28,1.28,0,0,1-.51,1.06,1.75,1.75,0,0,1-1.14.42,1.82,1.82,0,0,1-1.16-.42A1.27,1.27,0,0,1,83.79,32.49ZM84,36.75h2.82V48.48H84Z"/><path class="cls-2" d="M107.13,54.32a8.68,8.68,0,0,1-2.45-.31,7.61,7.61,0,0,1-1.92-.85A16.87,16.87,0,0,1,101.1,52l1.65-1.81a9.2,9.2,0,0,0,2,1.33A5.29,5.29,0,0,0,107,52a5.81,5.81,0,0,0,2.38-.44,3.28,3.28,0,0,0,1.47-1.2,3.42,3.42,0,0,0,.53-1.79l0-3.17.24.51a4.6,4.6,0,0,1-2,2,6.57,6.57,0,0,1-3.42.84A6.27,6.27,0,0,1,103.2,48a6.5,6.5,0,0,1-2.31-2.23,6.26,6.26,0,0,1,0-6.42,6.37,6.37,0,0,1,2.38-2.23,6.65,6.65,0,0,1,3.23-.81,7.09,7.09,0,0,1,3,.64,4.84,4.84,0,0,1,2,1.63l-.18.48.27-2.26h2.58V48.57a5.16,5.16,0,0,1-.86,2.89,6,6,0,0,1-2.46,2.08A8.58,8.58,0,0,1,107.13,54.32ZM102.84,42.5a3.8,3.8,0,0,0,.58,2.07A4.16,4.16,0,0,0,105,46a4.37,4.37,0,0,0,2.15.54,4.87,4.87,0,0,0,2-.38,4.13,4.13,0,0,0,1.49-1.06,4,4,0,0,0,.84-1.51V41.28a3.49,3.49,0,0,0-.9-1.47,4.75,4.75,0,0,0-1.5-1,5,5,0,0,0-1.92-.36A4.47,4.47,0,0,0,105,39a4.21,4.21,0,0,0-1.56,1.43A3.81,3.81,0,0,0,102.84,42.5Z"/><path class="cls-2" d="M124.86,48.77A7.73,7.73,0,0,1,121.2,48a6,6,0,0,1-2.37-2.21,6.16,6.16,0,0,1-.84-3.22,5.57,5.57,0,0,1,.94-3.15,7.05,7.05,0,0,1,2.51-2.27,7.23,7.23,0,0,1,3.48-.85A6.16,6.16,0,0,1,129,37.62a7,7,0,0,1,2.22,3.75L121,44.77l-.66-1.56,8.37-2.92-.57.4a3.79,3.79,0,0,0-1.2-1.62,3.39,3.39,0,0,0-2.19-.68,4,4,0,0,0-2,.51,3.74,3.74,0,0,0-1.39,1.4,4.15,4.15,0,0,0-.51,2.09,4.24,4.24,0,0,0,.52,2.12A3.63,3.63,0,0,0,122.77,46a4.36,4.36,0,0,0,2.15.53,4.45,4.45,0,0,0,1.57-.29,6.87,6.87,0,0,0,1.46-.73l1.26,2a8.92,8.92,0,0,1-2.09,1A7.57,7.57,0,0,1,124.86,48.77Z"/><path class="cls-2" d="M137.22,36.75l.21,2.86-.09-.45a4.45,4.45,0,0,1,1.92-2.09,6.18,6.18,0,0,1,3.15-.78,4.21,4.21,0,0,1,2.86,1,3.3,3.3,0,0,1,1.16,2.54v8.67h-2.82V40.71a2.33,2.33,0,0,0-.59-1.54,2.2,2.2,0,0,0-1.72-.61,3.52,3.52,0,0,0-1.94.57A3.87,3.87,0,0,0,138,40.69a5,5,0,0,0-.49,2.29v5.5h-2.82V36.75Z"/><path class="cls-2" d="M151.08,32.49a1.32,1.32,0,0,1,.52-1.05,1.82,1.82,0,0,1,1.16-.42,1.75,1.75,0,0,1,1.14.42,1.33,1.33,0,0,1,.51,1.05,1.28,1.28,0,0,1-.51,1.06,1.75,1.75,0,0,1-1.14.42,1.82,1.82,0,0,1-1.16-.42A1.27,1.27,0,0,1,151.08,32.49Zm.18,4.26h2.82V48.48h-2.82Z"/><path class="cls-2" d="M160.11,31.58H163V36.8h3.39v2.07H163v9.61h-2.85V38.87h-2.25V36.8h2.25Z"/><path class="cls-2" d="M168.63,42.5a5.84,5.84,0,0,1,.88-3.17A6.13,6.13,0,0,1,172,37.09a7.63,7.63,0,0,1,3.59-.83,7.35,7.35,0,0,1,3.54.83,6,6,0,0,1,3.24,5.41,6.07,6.07,0,0,1-.86,3.18,6.22,6.22,0,0,1-2.38,2.25,7.3,7.3,0,0,1-3.57.84A7.81,7.81,0,0,1,172,48a6.09,6.09,0,0,1-2.44-2.19A6,6,0,0,1,168.63,42.5Zm2.82,0a4,4,0,0,0,2,3.51,3.89,3.89,0,0,0,2,.54,3.94,3.94,0,0,0,2.07-.54A3.83,3.83,0,0,0,179,44.58a4,4,0,0,0,.53-2,4.08,4.08,0,0,0-2-3.53,3.86,3.86,0,0,0-2.07-.55,3.82,3.82,0,0,0-2.06.56A4.19,4.19,0,0,0,172,40.5,4,4,0,0,0,171.45,42.53Z"/><path class="cls-2" d="M188.58,36.75l.27,3.4-.12-.48a5.21,5.21,0,0,1,1.38-1.82A6.61,6.61,0,0,1,192,36.69a5.47,5.47,0,0,1,1.74-.43l-.12,2.67a4.29,4.29,0,0,0-2.51.49A4.76,4.76,0,0,0,189.46,41a3.9,3.9,0,0,0-.61,2.12v5.35h-2.79V36.75Z"/><path class="cls-2" d="M197.15,32.49a1.33,1.33,0,0,1,.53-1.05,1.82,1.82,0,0,1,1.16-.42,1.77,1.77,0,0,1,1.14.42,1.35,1.35,0,0,1,.5,1.05,1.3,1.3,0,0,1-.5,1.06,1.77,1.77,0,0,1-1.14.42,1.82,1.82,0,0,1-1.16-.42A1.28,1.28,0,0,1,197.15,32.49Zm.19,4.26h2.81V48.48h-2.81Z"/><path class="cls-2" d="M207.56,46l-1.3,3c-.43,1-.87,2-1.31,3h-2.31c.42-1,.82-2,1.2-3s.76-2,1.14-3Z"/><path class="cls-2" d="M225.74,48.77a7,7,0,0,1-3.16-.71A5.44,5.44,0,0,1,220.31,46a6.3,6.3,0,0,1-.84-3.36,6.39,6.39,0,0,1,.87-3.4A5.92,5.92,0,0,1,222.68,37a6.85,6.85,0,0,1,3.21-.77,5.54,5.54,0,0,1,3,.75,5.32,5.32,0,0,1,1.81,1.78l-.18.42.27-2.46h2.58V48.48h-2.79V45.42l.33.68a3.49,3.49,0,0,1-.57.72,6.63,6.63,0,0,1-1.06.9,6.16,6.16,0,0,1-1.52.75A6.06,6.06,0,0,1,225.74,48.77Zm.75-2.19a4.59,4.59,0,0,0,1.89-.37,3.65,3.65,0,0,0,1.4-1,3.91,3.91,0,0,0,.76-1.59v-2.3a3.56,3.56,0,0,0-.84-1.49,4.3,4.3,0,0,0-1.44-1,4.59,4.59,0,0,0-1.83-.35,4.23,4.23,0,0,0-2.07.51,3.88,3.88,0,0,0-1.48,1.42,4,4,0,0,0-.56,2.12,3.88,3.88,0,0,0,.57,2.07A4.07,4.07,0,0,0,224.42,46,4.15,4.15,0,0,0,226.49,46.58Z"/><path class="cls-2" d="M257.75,47.38a6.55,6.55,0,0,1-2,1,8.15,8.15,0,0,1-5.89-.4,5.88,5.88,0,0,1-2.42-2.15,6,6,0,0,1-.87-3.26,5.67,5.67,0,0,1,.93-3.25,6.29,6.29,0,0,1,2.42-2.13,7,7,0,0,1,3.22-.75,8.81,8.81,0,0,1,2.66.38,6.21,6.21,0,0,1,2,1.1l-1.41,1.7a6.22,6.22,0,0,0-1.3-.7,4.75,4.75,0,0,0-1.76-.32,4,4,0,0,0-2,.52,3.85,3.85,0,0,0-1.44,1.42A3.95,3.95,0,0,0,251.42,46a4.45,4.45,0,0,0,2.22.54,4.6,4.6,0,0,0,1.46-.22,4.22,4.22,0,0,0,1.21-.63Z"/><path class="cls-2" d="M266.51,48.77a7,7,0,0,1-3.16-.71A5.44,5.44,0,0,1,261.08,46a6.3,6.3,0,0,1-.84-3.36,6.39,6.39,0,0,1,.87-3.4A5.92,5.92,0,0,1,263.45,37a6.85,6.85,0,0,1,3.21-.77,5.54,5.54,0,0,1,3,.75,5.32,5.32,0,0,1,1.81,1.78l-.18.42.27-2.46h2.58V48.48h-2.79V45.42l.33.68a3.49,3.49,0,0,1-.57.72,6.63,6.63,0,0,1-1.06.9,6.16,6.16,0,0,1-1.52.75A6.06,6.06,0,0,1,266.51,48.77Zm.75-2.19a4.59,4.59,0,0,0,1.89-.37,3.65,3.65,0,0,0,1.4-1,3.91,3.91,0,0,0,.76-1.59v-2.3a3.56,3.56,0,0,0-.84-1.49,4.3,4.3,0,0,0-1.44-1,4.59,4.59,0,0,0-1.83-.35,4.23,4.23,0,0,0-2.07.51,3.88,3.88,0,0,0-1.48,1.42,4,4,0,0,0-.56,2.12,3.88,3.88,0,0,0,.57,2.07A4.07,4.07,0,0,0,265.19,46,4.15,4.15,0,0,0,267.26,46.58Z"/><path class="cls-2" d="M282.92,48.94a4.09,4.09,0,0,1-2.83-1,3.44,3.44,0,0,1-1.16-2.54V36.75h2.82v7.74a2.48,2.48,0,0,0,.6,1.54,2.2,2.2,0,0,0,1.68.64,3.2,3.2,0,0,0,1.85-.58,4.26,4.26,0,0,0,1.33-1.59,5,5,0,0,0,.51-2.28V36.75h2.79V48.48H288l-.24-2.89.18.54a4.57,4.57,0,0,1-1.11,1.43,5.32,5.32,0,0,1-1.72,1A6.35,6.35,0,0,1,282.92,48.94Z"/><path class="cls-2" d="M298.82,48.71a7.7,7.7,0,0,1-2.56-.44A5,5,0,0,1,294.2,47l1.17-1.53A6.24,6.24,0,0,0,297,46.48a4,4,0,0,0,1.62.36,4.32,4.32,0,0,0,1.11-.14,1.77,1.77,0,0,0,.83-.49,1.2,1.2,0,0,0,.31-.87,1.23,1.23,0,0,0-.43-1,3.46,3.46,0,0,0-1.1-.58c-.44-.15-.92-.29-1.44-.43A5.36,5.36,0,0,1,295.55,42a2.9,2.9,0,0,1-.81-2.07,3.28,3.28,0,0,1,.5-1.74,3.73,3.73,0,0,1,1.48-1.34,5.07,5.07,0,0,1,2.4-.52,8.19,8.19,0,0,1,2.31.3,5.7,5.7,0,0,1,1.92,1l-1.11,1.65a3.45,3.45,0,0,0-1.27-.81,3.94,3.94,0,0,0-1.34-.27,3,3,0,0,0-1,.16,1.75,1.75,0,0,0-.75.45,1.05,1.05,0,0,0-.29.75,1.08,1.08,0,0,0,.41,1,3.41,3.41,0,0,0,1.09.58l1.35.46a6.57,6.57,0,0,1,1.62.68,3.57,3.57,0,0,1,1.16,1.05,2.64,2.64,0,0,1,.43,1.56,3.76,3.76,0,0,1-.52,1.94,3.69,3.69,0,0,1-1.59,1.42A6.16,6.16,0,0,1,298.82,48.71Z"/><path class="cls-2" d="M312.71,48.77a7,7,0,0,1-3.16-.71A5.44,5.44,0,0,1,307.28,46a6.3,6.3,0,0,1-.84-3.36,6.39,6.39,0,0,1,.87-3.4A5.92,5.92,0,0,1,309.65,37a6.85,6.85,0,0,1,3.21-.77,5.54,5.54,0,0,1,3,.75,5.32,5.32,0,0,1,1.81,1.78l-.18.42.27-2.46h2.58V48.48h-2.79V45.42l.33.68a3.49,3.49,0,0,1-.57.72,6.63,6.63,0,0,1-1.06.9,6.16,6.16,0,0,1-1.52.75A6.06,6.06,0,0,1,312.71,48.77Zm.75-2.19a4.59,4.59,0,0,0,1.89-.37,3.65,3.65,0,0,0,1.4-1,3.91,3.91,0,0,0,.76-1.59v-2.3a3.56,3.56,0,0,0-.84-1.49,4.3,4.3,0,0,0-1.44-1,4.59,4.59,0,0,0-1.83-.35,4.23,4.23,0,0,0-2.07.51,3.88,3.88,0,0,0-1.48,1.42,4,4,0,0,0-.56,2.12,3.88,3.88,0,0,0,.57,2.07A4.07,4.07,0,0,0,311.39,46,4.15,4.15,0,0,0,313.46,46.58Z"/><path class="cls-2" d="M339.68,48.77a6.23,6.23,0,0,1-3.12-.78,5.93,5.93,0,0,1-2.21-2.21,6.63,6.63,0,0,1-.82-3.31,6.15,6.15,0,0,1,.87-3.34A5.72,5.72,0,0,1,336.74,37a7.28,7.28,0,0,1,3.3-.74,6.79,6.79,0,0,1,2.81.6,5.05,5.05,0,0,1,2.08,1.64l-.15.94V26.54h2.79V48.48h-2.79V45.56l.33.74a7,7,0,0,1-5.43,2.47Zm.87-2.24a4.71,4.71,0,0,0,2-.4A4.28,4.28,0,0,0,344,45.07a3.85,3.85,0,0,0,.82-1.58V41.25a3.63,3.63,0,0,0-.85-1.5,4.34,4.34,0,0,0-1.47-1,5.08,5.08,0,0,0-1.91-.35,4.35,4.35,0,0,0-2.07.51A4,4,0,0,0,337,40.32a4.12,4.12,0,0,0,0,4.18A4.23,4.23,0,0,0,338.48,46,4.07,4.07,0,0,0,340.55,46.53Z"/><path class="cls-2" d="M358.19,48.77a7.73,7.73,0,0,1-3.66-.81,6,6,0,0,1-2.37-2.21,6.16,6.16,0,0,1-.84-3.22,5.58,5.58,0,0,1,.95-3.15,7,7,0,0,1,2.5-2.27,7.23,7.23,0,0,1,3.48-.85,6.16,6.16,0,0,1,4.08,1.36,7,7,0,0,1,2.22,3.75l-10.26,3.4-.66-1.56L362,40.29l-.57.4a3.79,3.79,0,0,0-1.2-1.62,3.39,3.39,0,0,0-2.19-.68,3.94,3.94,0,0,0-2,.51,3.76,3.76,0,0,0-1.4,1.4,4.15,4.15,0,0,0-.51,2.09,4.25,4.25,0,0,0,.53,2.12A3.57,3.57,0,0,0,356.11,46a4.33,4.33,0,0,0,2.14.53,4.51,4.51,0,0,0,1.58-.29,6.8,6.8,0,0,0,1.45-.73l1.26,2a8.84,8.84,0,0,1-2.08,1A7.64,7.64,0,0,1,358.19,48.77Z"/><path class="cls-2" d="M368,26.54h2.82V48.48H368Z"/><path class="cls-2" d="M375.65,26.54h2.82V48.48h-2.82Z"/><path class="cls-2" d="M389.09,48.77a7.73,7.73,0,0,1-3.66-.81,6,6,0,0,1-2.37-2.21,6.16,6.16,0,0,1-.84-3.22,5.57,5.57,0,0,1,.94-3.15,7.05,7.05,0,0,1,2.51-2.27,7.23,7.23,0,0,1,3.48-.85,6.16,6.16,0,0,1,4.08,1.36,7,7,0,0,1,2.22,3.75l-10.26,3.4-.66-1.56,8.37-2.92-.57.4a3.79,3.79,0,0,0-1.2-1.62,3.39,3.39,0,0,0-2.19-.68,4,4,0,0,0-2,.51,3.74,3.74,0,0,0-1.39,1.4,4.15,4.15,0,0,0-.51,2.09,4.24,4.24,0,0,0,.52,2.12A3.63,3.63,0,0,0,387,46a4.36,4.36,0,0,0,2.15.53,4.45,4.45,0,0,0,1.57-.29,6.87,6.87,0,0,0,1.46-.73l1.26,2a8.92,8.92,0,0,1-2.09,1A7.57,7.57,0,0,1,389.09,48.77Z"/><path class="cls-2" d="M413.45,48.77a6.23,6.23,0,0,1-3.12-.78,5.86,5.86,0,0,1-2.21-2.21,6.53,6.53,0,0,1-.82-3.31,6.15,6.15,0,0,1,.87-3.34A5.72,5.72,0,0,1,410.51,37a7.28,7.28,0,0,1,3.3-.74,6.74,6.74,0,0,1,2.8.6,5,5,0,0,1,2.09,1.64l-.15.94V26.54h2.79V48.48h-2.79V45.56l.33.74a7,7,0,0,1-2.3,1.77A6.83,6.83,0,0,1,413.45,48.77Zm.87-2.24a4.67,4.67,0,0,0,2-.4,4.28,4.28,0,0,0,1.44-1.06,3.87,3.87,0,0,0,.83-1.58V41.25a3.65,3.65,0,0,0-.86-1.5,4.34,4.34,0,0,0-1.47-1,5,5,0,0,0-1.9-.35,4.35,4.35,0,0,0-2.07.51,4,4,0,0,0-1.53,1.42,4.12,4.12,0,0,0,0,4.18A4.23,4.23,0,0,0,412.25,46,4.07,4.07,0,0,0,414.32,46.53Z"/><path class="cls-2" d="M426,32.49a1.32,1.32,0,0,1,.52-1.05,1.82,1.82,0,0,1,1.16-.42,1.75,1.75,0,0,1,1.14.42,1.33,1.33,0,0,1,.51,1.05,1.28,1.28,0,0,1-.51,1.06,1.75,1.75,0,0,1-1.14.42,1.82,1.82,0,0,1-1.16-.42A1.27,1.27,0,0,1,426,32.49Zm.18,4.26H429V48.48h-2.82Z"/><path class="cls-2" d="M434.87,48.48V39.1h-2.16V36.72h2.16V31.78a5.69,5.69,0,0,1,1.21-3.91,4.6,4.6,0,0,1,3.62-1.36,6.49,6.49,0,0,1,1.38.17,3.58,3.58,0,0,1,1.32.57l-1.17,1.9a1.32,1.32,0,0,0-.57-.36,2.61,2.61,0,0,0-.69-.1,2.12,2.12,0,0,0-1.71.71,3.84,3.84,0,0,0-.6,2.44v4.88h3.93V39.1h-3.93v9.38Zm9.18,0V39.1h-2.16V36.72h2.16V31.78a5.69,5.69,0,0,1,1.21-3.91,4.6,4.6,0,0,1,3.62-1.36,6.49,6.49,0,0,1,1.38.17,3.58,3.58,0,0,1,1.32.57l-1.17,1.9a1.32,1.32,0,0,0-.57-.36,2.61,2.61,0,0,0-.69-.1,2.12,2.12,0,0,0-1.71.71,3.84,3.84,0,0,0-.6,2.44v4.88h3.93V39.1h-3.93v9.38Zm8.76-16a1.32,1.32,0,0,1,.52-1.05,1.82,1.82,0,0,1,1.16-.42,1.75,1.75,0,0,1,1.14.42,1.33,1.33,0,0,1,.51,1.05,1.28,1.28,0,0,1-.51,1.06,1.75,1.75,0,0,1-1.14.42,1.82,1.82,0,0,1-1.16-.42A1.27,1.27,0,0,1,452.81,32.49Zm.18,4.26h2.82V48.48H453Z"/><path class="cls-2" d="M470.72,47.38a6.55,6.55,0,0,1-2,1,8.18,8.18,0,0,1-5.9-.4,5.85,5.85,0,0,1-2.41-2.15,6,6,0,0,1-.87-3.26,5.67,5.67,0,0,1,.93-3.25,6.27,6.27,0,0,1,2.41-2.13,7.07,7.07,0,0,1,3.23-.75,8.74,8.74,0,0,1,2.65.38,6.26,6.26,0,0,1,2.06,1.1l-1.41,1.7a6.32,6.32,0,0,0-1.31-.7,4.7,4.7,0,0,0-1.75-.32,4,4,0,0,0-2,.52,3.85,3.85,0,0,0-1.44,1.42A4,4,0,0,0,464.39,46a4.45,4.45,0,0,0,2.22.54,4.54,4.54,0,0,0,1.45-.22,4.28,4.28,0,0,0,1.22-.63Z"/><path class="cls-2" d="M473.21,42.5a5.84,5.84,0,0,1,.88-3.17,6.13,6.13,0,0,1,2.46-2.24,7.63,7.63,0,0,1,3.59-.83,7.35,7.35,0,0,1,3.54.83,6,6,0,0,1,3.24,5.41,6.07,6.07,0,0,1-.86,3.18,6.22,6.22,0,0,1-2.38,2.25,7.3,7.3,0,0,1-3.57.84,7.81,7.81,0,0,1-3.56-.78,6.09,6.09,0,0,1-2.44-2.19A6,6,0,0,1,473.21,42.5Zm2.82,0A4,4,0,0,0,478,46a3.89,3.89,0,0,0,2,.54,3.94,3.94,0,0,0,2.07-.54,3.83,3.83,0,0,0,1.42-1.46,4,4,0,0,0,.53-2A4.08,4.08,0,0,0,482.12,39a3.86,3.86,0,0,0-2.07-.55A3.82,3.82,0,0,0,478,39a4.19,4.19,0,0,0-1.44,1.49A4,4,0,0,0,476,42.53Z"/><path class="cls-2" d="M490.64,26.54h2.82V48.48h-2.82Z"/><path class="cls-2" d="M499.49,31.58h2.85V36.8h3.39v2.07h-3.39v9.61h-2.85V38.87h-2.25V36.8h2.25Z"/><path class="cls-2" d="M514.28,48.77a7.06,7.06,0,0,1-3.17-.71A5.42,5.42,0,0,1,508.85,46a6.3,6.3,0,0,1-.84-3.36,6.39,6.39,0,0,1,.87-3.4A5.92,5.92,0,0,1,511.22,37a6.85,6.85,0,0,1,3.21-.77,5.5,5.5,0,0,1,3,.75,5.36,5.36,0,0,1,1.82,1.78l-.18.42.27-2.46h2.58V48.48h-2.79V45.42l.33.68a3.49,3.49,0,0,1-.57.72,6.74,6.74,0,0,1-1.07.9,6,6,0,0,1-3.49,1.05Zm.75-2.19a4.59,4.59,0,0,0,1.89-.37,3.62,3.62,0,0,0,1.39-1,3.93,3.93,0,0,0,.77-1.59v-2.3a3.56,3.56,0,0,0-.84-1.49,4.3,4.3,0,0,0-1.44-1,4.59,4.59,0,0,0-1.83-.35,4.23,4.23,0,0,0-2.07.51,3.91,3.91,0,0,0-1.49,1.42,4,4,0,0,0-.55,2.12,3.88,3.88,0,0,0,.57,2.07A4.07,4.07,0,0,0,513,46,4.15,4.15,0,0,0,515,46.58Zm-3.51-16h3.09l2.19,3.8H515Z"/><path class="cls-2" d="M546.28,47.38a6.33,6.33,0,0,1-2,1,8.15,8.15,0,0,1-5.89-.4A5.79,5.79,0,0,1,536,45.85a6,6,0,0,1-.87-3.26,5.66,5.66,0,0,1,.92-3.25,6.37,6.37,0,0,1,2.42-2.13,7,7,0,0,1,3.22-.75,8.76,8.76,0,0,1,2.66.38,6.21,6.21,0,0,1,2,1.1l-1.4,1.7a6.59,6.59,0,0,0-1.31-.7,4.75,4.75,0,0,0-1.76-.32,4,4,0,0,0-2,.52,3.85,3.85,0,0,0-1.44,1.42,3.91,3.91,0,0,0-.53,2,4,4,0,0,0,.54,2A3.92,3.92,0,0,0,540,46a4.49,4.49,0,0,0,2.23.54,4.59,4.59,0,0,0,1.45-.22,4.41,4.41,0,0,0,1.22-.63Z"/><path class="cls-2" d="M548.77,42.5a5.85,5.85,0,0,1,.89-3.17,6.13,6.13,0,0,1,2.46-2.24,7.59,7.59,0,0,1,3.58-.83,7.32,7.32,0,0,1,3.54.83,6.21,6.21,0,0,1,2.39,8.59,6.25,6.25,0,0,1-2.39,2.25,7.27,7.27,0,0,1-3.57.84,7.76,7.76,0,0,1-3.55-.78,6.11,6.11,0,0,1-2.45-2.19A6,6,0,0,1,548.77,42.5Zm2.82,0a4,4,0,0,0,2,3.51,3.89,3.89,0,0,0,2,.54,4,4,0,0,0,2.08-.54,3.9,3.9,0,0,0,1.42-1.46,4,4,0,0,0,.52-2,4.1,4.1,0,0,0-.52-2.06A4.17,4.17,0,0,0,557.69,39a3.89,3.89,0,0,0-2.08-.55,3.78,3.78,0,0,0-2.05.56,4.19,4.19,0,0,0-1.44,1.49A4,4,0,0,0,551.59,42.53Z"/><path class="cls-2" d="M568.75,36.75l.21,2.86-.09-.45a4.45,4.45,0,0,1,1.92-2.09,6.18,6.18,0,0,1,3.15-.78,4.23,4.23,0,0,1,2.87,1A3.29,3.29,0,0,1,578,39.81v8.67h-2.82V40.71a2.32,2.32,0,0,0-.58-1.54,2.22,2.22,0,0,0-1.73-.61,3.49,3.49,0,0,0-1.93.57,3.87,3.87,0,0,0-1.38,1.56A5,5,0,0,0,569,43v5.5H566.2V36.75Z"/><path class="cls-2" d="M592.27,26.54h2.82V48.48h-2.82Z"/><path class="cls-2" d="M605.11,48.77a7,7,0,0,1-3.16-.71A5.44,5.44,0,0,1,599.68,46a6.3,6.3,0,0,1-.84-3.36,6.39,6.39,0,0,1,.87-3.4A5.92,5.92,0,0,1,602.05,37a6.85,6.85,0,0,1,3.21-.77,5.54,5.54,0,0,1,3,.75A5.32,5.32,0,0,1,610,38.79l-.18.42.27-2.46h2.58V48.48h-2.79V45.42l.33.68a3.49,3.49,0,0,1-.57.72,6.63,6.63,0,0,1-1.06.9,6.16,6.16,0,0,1-1.52.75A6.06,6.06,0,0,1,605.11,48.77Zm.75-2.19a4.59,4.59,0,0,0,1.89-.37,3.65,3.65,0,0,0,1.4-1,3.91,3.91,0,0,0,.76-1.59v-2.3a3.56,3.56,0,0,0-.84-1.49,4.3,4.3,0,0,0-1.44-1,4.59,4.59,0,0,0-1.83-.35,4.23,4.23,0,0,0-2.07.51,3.88,3.88,0,0,0-1.48,1.42,4,4,0,0,0-.56,2.12,3.88,3.88,0,0,0,.57,2.07A4.07,4.07,0,0,0,603.79,46,4.15,4.15,0,0,0,605.86,46.58Z"/><path class="cls-2" d="M20.4,60.56h2.82v22H20.4Z"/><path class="cls-2" d="M27.87,66.52a1.27,1.27,0,0,1,.53-1A1.73,1.73,0,0,1,29.55,65a1.71,1.71,0,0,1,1.14.43,1.35,1.35,0,0,1,0,2.11,1.79,1.79,0,0,1-1.14.41,1.82,1.82,0,0,1-1.15-.41A1.26,1.26,0,0,1,27.87,66.52Zm.18,4.25h2.82V82.51H28.05Z"/><path class="cls-2" d="M38.25,70.77l.21,2.86-.09-.45a4.43,4.43,0,0,1,1.92-2.08,6.18,6.18,0,0,1,3.15-.78,4.2,4.2,0,0,1,2.86,1,3.32,3.32,0,0,1,1.16,2.54v8.68H44.64V74.74a2.35,2.35,0,0,0-.59-1.55,2.23,2.23,0,0,0-1.72-.61,3.52,3.52,0,0,0-1.94.57A3.87,3.87,0,0,0,39,74.71a5.09,5.09,0,0,0-.49,2.3v5.5H35.7V70.77Z"/><path class="cls-2" d="M58.32,88.35A9.06,9.06,0,0,1,55.87,88,8,8,0,0,1,54,87.19,17,17,0,0,1,52.29,86l1.65-1.81a8.85,8.85,0,0,0,2,1.33,5.29,5.29,0,0,0,2.28.48,5.65,5.65,0,0,0,2.38-.44,3.28,3.28,0,0,0,1.47-1.2,3.42,3.42,0,0,0,.53-1.79l0-3.17.24.51a4.62,4.62,0,0,1-2,2.06,6.66,6.66,0,0,1-3.42.83A6.17,6.17,0,0,1,54.39,82a6.41,6.41,0,0,1-2.31-2.23,5.86,5.86,0,0,1-.87-3.16,6,6,0,0,1,.9-3.26,6.35,6.35,0,0,1,2.38-2.22,6.65,6.65,0,0,1,3.23-.81,7.09,7.09,0,0,1,3,.63,4.84,4.84,0,0,1,2,1.63l-.18.49.27-2.27h2.58V82.59a5.14,5.14,0,0,1-.86,2.89,6,6,0,0,1-2.46,2.09A8.58,8.58,0,0,1,58.32,88.35ZM54,76.53a3.79,3.79,0,0,0,.58,2.06,4.18,4.18,0,0,0,1.56,1.48,4.37,4.37,0,0,0,2.15.54,4.87,4.87,0,0,0,2-.39,4,4,0,0,0,1.49-1.06,3.86,3.86,0,0,0,.84-1.5V75.31a3.59,3.59,0,0,0-.9-1.48,4.72,4.72,0,0,0-1.5-1,4.8,4.8,0,0,0-1.92-.37,4.47,4.47,0,0,0-2.15.52,4.16,4.16,0,0,0-1.56,1.44A3.76,3.76,0,0,0,54,76.53Z"/><path class="cls-2" d="M74.25,83a4.12,4.12,0,0,1-2.84-1,3.42,3.42,0,0,1-1.15-2.53V70.77h2.82v7.74a2.48,2.48,0,0,0,.6,1.54,2.2,2.2,0,0,0,1.68.64,3.1,3.1,0,0,0,1.84-.58,4.21,4.21,0,0,0,1.34-1.59,5,5,0,0,0,.51-2.28V70.77h2.79V82.51H79.29l-.24-2.89.18.53a4.72,4.72,0,0,1-1.11,1.44,5.35,5.35,0,0,1-1.73,1A6.06,6.06,0,0,1,74.25,83Z"/><path class="cls-2" d="M91.83,82.79a7.06,7.06,0,0,1-3.17-.71A5.39,5.39,0,0,1,86.4,80a7.11,7.11,0,0,1,0-6.76,5.87,5.87,0,0,1,2.34-2.19A6.84,6.84,0,0,1,92,70.29a5.5,5.5,0,0,1,3,.75,5.24,5.24,0,0,1,1.82,1.77l-.18.43.27-2.47h2.58V82.51H96.63V79.45l.33.68a3.77,3.77,0,0,1-.57.72,7.3,7.3,0,0,1-1.07.89,6,6,0,0,1-3.49,1.05Zm.75-2.18a4.75,4.75,0,0,0,1.89-.37,3.74,3.74,0,0,0,1.39-1,3.81,3.81,0,0,0,.77-1.59V75.31a3.5,3.5,0,0,0-.84-1.49,4.19,4.19,0,0,0-1.44-1,4.77,4.77,0,0,0-1.83-.35,4.23,4.23,0,0,0-2.07.51A3.91,3.91,0,0,0,89,74.4a4,4,0,0,0-.55,2.13A3.87,3.87,0,0,0,89,78.59a4.1,4.1,0,0,0,1.53,1.48A4.15,4.15,0,0,0,92.58,80.61Z"/><path class="cls-2" d="M119.52,82.79a7.73,7.73,0,0,1-3.66-.81,5.89,5.89,0,0,1-2.37-2.21,6.14,6.14,0,0,1-.84-3.22,5.52,5.52,0,0,1,.94-3.14,7,7,0,0,1,2.51-2.27,7.12,7.12,0,0,1,3.48-.85,6.11,6.11,0,0,1,4.08,1.36,6.89,6.89,0,0,1,2.22,3.74l-10.26,3.4L115,77.23l8.37-2.92-.57.4a3.91,3.91,0,0,0-1.2-1.62,3.39,3.39,0,0,0-2.19-.68,4,4,0,0,0-2,.51A3.69,3.69,0,0,0,116,74.33a4.11,4.11,0,0,0-.51,2.08,4.28,4.28,0,0,0,.52,2.13A3.75,3.75,0,0,0,117.43,80a4.36,4.36,0,0,0,2.15.52,4.44,4.44,0,0,0,1.57-.28,7.42,7.42,0,0,0,1.46-.74l1.26,2a8.51,8.51,0,0,1-2.09,1A7.27,7.27,0,0,1,119.52,82.79Z"/><path class="cls-2" d="M143.88,82.79a6.23,6.23,0,0,1-3.12-.78,5.86,5.86,0,0,1-2.21-2.21,6.49,6.49,0,0,1-.82-3.3,6.19,6.19,0,0,1,.87-3.35A5.79,5.79,0,0,1,140.94,71a7.27,7.27,0,0,1,3.3-.73,6.9,6.9,0,0,1,2.8.59,5,5,0,0,1,2.09,1.65l-.15.93V60.56h2.79v22H149V79.59l.33.73A7.12,7.12,0,0,1,147,82.1,7,7,0,0,1,143.88,82.79Zm.87-2.24a4.52,4.52,0,0,0,2-.4,4.15,4.15,0,0,0,1.44-1.06,3.83,3.83,0,0,0,.83-1.57V75.28a3.63,3.63,0,0,0-.86-1.51,4.17,4.17,0,0,0-1.47-1,4.84,4.84,0,0,0-1.9-.36,4.35,4.35,0,0,0-2.07.51,4,4,0,0,0-1.53,1.42,4.12,4.12,0,0,0,0,4.18A4.26,4.26,0,0,0,142.68,80,4.06,4.06,0,0,0,144.75,80.55Z"/><path class="cls-2" d="M162.39,82.79a7.73,7.73,0,0,1-3.66-.81,5.89,5.89,0,0,1-2.37-2.21,6.14,6.14,0,0,1-.84-3.22,5.52,5.52,0,0,1,.94-3.14A7,7,0,0,1,159,71.14a7.12,7.12,0,0,1,3.48-.85,6.11,6.11,0,0,1,4.08,1.36,6.89,6.89,0,0,1,2.22,3.74l-10.26,3.4-.66-1.56,8.37-2.92-.57.4a3.91,3.91,0,0,0-1.2-1.62,3.39,3.39,0,0,0-2.19-.68,4,4,0,0,0-2,.51,3.69,3.69,0,0,0-1.39,1.41,4.11,4.11,0,0,0-.51,2.08,4.28,4.28,0,0,0,.52,2.13A3.75,3.75,0,0,0,160.3,80a4.36,4.36,0,0,0,2.15.52,4.44,4.44,0,0,0,1.57-.28,7.42,7.42,0,0,0,1.46-.74l1.26,2a8.51,8.51,0,0,1-2.09,1A7.27,7.27,0,0,1,162.39,82.79Z"/><path class="cls-2" d="M172.2,60.56H175v22H172.2Z"/><path class="cls-2" d="M179.85,60.56h2.82v22h-2.82Z"/><path class="cls-2" d="M192.69,82.79a7,7,0,0,1-3.17-.71A5.34,5.34,0,0,1,187.26,80a7.11,7.11,0,0,1,0-6.76,5.81,5.81,0,0,1,2.34-2.19,6.82,6.82,0,0,1,3.21-.76,5.53,5.53,0,0,1,2.95.75,5.21,5.21,0,0,1,1.81,1.77l-.17.43.26-2.47h2.58V82.51h-2.79V79.45l.33.68a3.64,3.64,0,0,1-.56.72,7.3,7.3,0,0,1-1.07.89,6.26,6.26,0,0,1-1.51.75A6.1,6.1,0,0,1,192.69,82.79Zm.75-2.18a4.75,4.75,0,0,0,1.89-.37,3.74,3.74,0,0,0,1.39-1,3.68,3.68,0,0,0,.76-1.59V75.31a3.48,3.48,0,0,0-.83-1.49,4.29,4.29,0,0,0-1.44-1,4.77,4.77,0,0,0-1.83-.35,4.21,4.21,0,0,0-2.07.51,3.91,3.91,0,0,0-1.49,1.42,4,4,0,0,0-.55,2.13,3.79,3.79,0,0,0,.57,2.06,4.15,4.15,0,0,0,1.52,1.48A4.19,4.19,0,0,0,193.44,80.61Z"/><path class="cls-2" d="M214.58,60.56h2.82v22h-2.82Z"/><path class="cls-2" d="M221.15,76.53a5.86,5.86,0,0,1,.89-3.18,6.21,6.21,0,0,1,2.46-2.24,7.59,7.59,0,0,1,3.58-.82,7.34,7.34,0,0,1,3.54.82A6.08,6.08,0,0,1,234,73.35a6.35,6.35,0,0,1,0,6.35A6.2,6.2,0,0,1,231.62,82a7.41,7.41,0,0,1-3.57.83A7.76,7.76,0,0,1,224.5,82a6.16,6.16,0,0,1-2.45-2.18A6,6,0,0,1,221.15,76.53Zm2.82,0a4,4,0,0,0,.54,2.06A4.11,4.11,0,0,0,226,80.07a3.89,3.89,0,0,0,2,.54,3.94,3.94,0,0,0,2.07-.54,4,4,0,0,0,1.43-1.46A4.15,4.15,0,0,0,230.06,73a3.86,3.86,0,0,0-2.07-.55,3.79,3.79,0,0,0-2.05.57,4.11,4.11,0,0,0-1.44,1.49A4,4,0,0,0,224,76.55Z"/><path class="cls-2" d="M241.1,70.77l.27,3.4-.12-.48a5.09,5.09,0,0,1,1.38-1.81,6.65,6.65,0,0,1,1.92-1.17,5.7,5.7,0,0,1,1.74-.42L246.17,73a4.26,4.26,0,0,0-2.5.5A4.67,4.67,0,0,0,242,75a3.88,3.88,0,0,0-.62,2.11v5.36h-2.79V70.77Z"/><path class="cls-2" d="M248.24,76.53a5.86,5.86,0,0,1,.89-3.18,6.21,6.21,0,0,1,2.46-2.24,7.59,7.59,0,0,1,3.58-.82,7.34,7.34,0,0,1,3.54.82,6.08,6.08,0,0,1,2.39,2.24,6.35,6.35,0,0,1,0,6.35A6.2,6.2,0,0,1,258.71,82a7.41,7.41,0,0,1-3.57.83,7.76,7.76,0,0,1-3.55-.78,6.16,6.16,0,0,1-2.45-2.18A6,6,0,0,1,248.24,76.53Zm2.82,0a4,4,0,0,0,.54,2.06A4.11,4.11,0,0,0,253,80.07a3.89,3.89,0,0,0,2,.54,3.94,3.94,0,0,0,2.07-.54,4,4,0,0,0,1.43-1.46A4.15,4.15,0,0,0,257.15,73a3.86,3.86,0,0,0-2.07-.55A3.79,3.79,0,0,0,253,73a4.11,4.11,0,0,0-1.44,1.49A4,4,0,0,0,251.06,76.55Z"/><path class="cls-2" d="M275.15,60.56H278v22h-2.82Z"/><path class="cls-2" d="M282.62,66.52a1.3,1.3,0,0,1,.53-1A1.75,1.75,0,0,1,284.3,65a1.71,1.71,0,0,1,1.14.43,1.35,1.35,0,0,1,0,2.11,1.79,1.79,0,0,1-1.14.41,1.84,1.84,0,0,1-1.15-.41A1.29,1.29,0,0,1,282.62,66.52Zm.18,4.25h2.82V82.51H282.8Z"/><path class="cls-2" d="M293,70.77l.24,2.64-.15-.23a5.2,5.2,0,0,1,2-2.11,5.51,5.51,0,0,1,2.95-.78,5,5,0,0,1,1.83.32,3.66,3.66,0,0,1,1.34.91,2.91,2.91,0,0,1,.67,1.4l-.15.12a5.14,5.14,0,0,1,2-2,5.36,5.36,0,0,1,2.68-.72,4.07,4.07,0,0,1,2.89,1,3.49,3.49,0,0,1,1.13,2.52v8.71h-2.82V74.77a2.79,2.79,0,0,0-.46-1.52,1.82,1.82,0,0,0-1.52-.64,3.26,3.26,0,0,0-1.93.61,4,4,0,0,0-1.32,1.59,5.1,5.1,0,0,0-.5,2.14v5.56H299V74.77a2.58,2.58,0,0,0-.49-1.52,1.89,1.89,0,0,0-1.55-.64,3.23,3.23,0,0,0-1.92.61,4.23,4.23,0,0,0-1.32,1.6,4.92,4.92,0,0,0-.48,2.16v5.53h-2.82V70.77Z"/><path class="cls-2" d="M315,66.52a1.27,1.27,0,0,1,.53-1A1.75,1.75,0,0,1,316.7,65a1.71,1.71,0,0,1,1.14.43,1.35,1.35,0,0,1,0,2.11,1.79,1.79,0,0,1-1.14.41,1.84,1.84,0,0,1-1.15-.41A1.26,1.26,0,0,1,315,66.52Zm.18,4.25H318V82.51H315.2Z"/><path class="cls-2" d="M324.05,65.61h2.85v5.22h3.39V72.9H326.9v9.61h-2.85V72.9H321.8V70.83h2.25Z"/><path class="cls-2" d="M338.84,82.79a7.06,7.06,0,0,1-3.17-.71A5.39,5.39,0,0,1,333.41,80a7.11,7.11,0,0,1,0-6.76,5.87,5.87,0,0,1,2.34-2.19,6.84,6.84,0,0,1,3.21-.76,5.5,5.5,0,0,1,2.95.75,5.24,5.24,0,0,1,1.82,1.77l-.18.43.27-2.47h2.58V82.51h-2.79V79.45l.33.68a3.77,3.77,0,0,1-.57.72,7.3,7.3,0,0,1-1.07.89,6,6,0,0,1-3.49,1.05Zm.75-2.18a4.75,4.75,0,0,0,1.89-.37,3.74,3.74,0,0,0,1.39-1,3.81,3.81,0,0,0,.77-1.59V75.31a3.5,3.5,0,0,0-.84-1.49,4.19,4.19,0,0,0-1.44-1,4.77,4.77,0,0,0-1.83-.35,4.23,4.23,0,0,0-2.07.51A3.91,3.91,0,0,0,336,74.4a4,4,0,0,0-.55,2.13,3.87,3.87,0,0,0,.57,2.06,4.1,4.1,0,0,0,1.53,1.48A4.15,4.15,0,0,0,339.59,80.61Z"/><path class="cls-2" d="M352.46,65.61h2.85v5.22h3.39V72.9h-3.39v9.61h-2.85V72.9h-2.25V70.83h2.25Z"/><path class="cls-2" d="M367.25,82.79a7.06,7.06,0,0,1-3.17-.71A5.39,5.39,0,0,1,361.82,80a7.11,7.11,0,0,1,0-6.76,5.87,5.87,0,0,1,2.34-2.19,6.84,6.84,0,0,1,3.21-.76,5.5,5.5,0,0,1,3,.75,5.24,5.24,0,0,1,1.82,1.77l-.18.43.27-2.47h2.58V82.51h-2.79V79.45l.33.68a3.77,3.77,0,0,1-.57.72,7.3,7.3,0,0,1-1.07.89,6,6,0,0,1-3.49,1.05Zm.75-2.18a4.75,4.75,0,0,0,1.89-.37,3.74,3.74,0,0,0,1.39-1,3.81,3.81,0,0,0,.77-1.59V75.31a3.5,3.5,0,0,0-.84-1.49,4.19,4.19,0,0,0-1.44-1,4.77,4.77,0,0,0-1.83-.35,4.23,4.23,0,0,0-2.07.51,3.91,3.91,0,0,0-1.49,1.42,4,4,0,0,0-.55,2.13,3.87,3.87,0,0,0,.57,2.06,4.1,4.1,0,0,0,1.53,1.48A4.15,4.15,0,0,0,368,80.61Z"/><path class="cls-2" d="M389,66.52a1.29,1.29,0,0,1,.52-1,1.78,1.78,0,0,1,1.16-.43,1.71,1.71,0,0,1,1.14.43,1.35,1.35,0,0,1,0,2.11,1.79,1.79,0,0,1-1.14.41,1.87,1.87,0,0,1-1.16-.41A1.28,1.28,0,0,1,389,66.52Zm.18,4.25H392V82.51h-2.82Z"/><path class="cls-2" d="M400.31,82.73a7.51,7.51,0,0,1-2.57-.44A5,5,0,0,1,395.69,81l1.17-1.53a6.51,6.51,0,0,0,1.62,1.06,4.13,4.13,0,0,0,2.73.21,1.65,1.65,0,0,0,.82-.48,1.38,1.38,0,0,0-.12-1.89,3.62,3.62,0,0,0-1.09-.58q-.66-.22-1.44-.42A5.37,5.37,0,0,1,397,76a2.86,2.86,0,0,1-.81-2.06,3.28,3.28,0,0,1,.49-1.75,3.74,3.74,0,0,1,1.49-1.33,5.06,5.06,0,0,1,2.4-.53,8.19,8.19,0,0,1,2.31.3,5.73,5.73,0,0,1,1.92,1l-1.11,1.64a3.49,3.49,0,0,0-1.28-.81,3.89,3.89,0,0,0-1.33-.27,3.29,3.29,0,0,0-1,.16,1.86,1.86,0,0,0-.75.45,1.05,1.05,0,0,0-.28.76,1.09,1.09,0,0,0,.4,1,3.68,3.68,0,0,0,1.1.58l1.35.45a7,7,0,0,1,1.62.68,3.77,3.77,0,0,1,1.15,1.05,2.68,2.68,0,0,1,.44,1.56,3.75,3.75,0,0,1-.53,1.94A3.63,3.63,0,0,1,403,82.21,6.12,6.12,0,0,1,400.31,82.73Z"/><path class="cls-2" d="M410.21,65.61h2.85v5.22h3.39V72.9h-3.39v9.61h-2.85V72.9H408V70.83h2.25Z"/><path class="cls-2" d="M422.33,70.77l.27,3.4-.12-.48a5.09,5.09,0,0,1,1.38-1.81,6.65,6.65,0,0,1,1.92-1.17,5.7,5.7,0,0,1,1.74-.42L427.4,73a4.29,4.29,0,0,0-2.51.5A4.67,4.67,0,0,0,423.21,75a3.87,3.87,0,0,0-.61,2.11v5.36h-2.79V70.77Z"/><path class="cls-2" d="M435.08,83a4.12,4.12,0,0,1-2.84-1,3.42,3.42,0,0,1-1.15-2.53V70.77h2.82v7.74a2.48,2.48,0,0,0,.6,1.54,2.2,2.2,0,0,0,1.68.64,3.1,3.1,0,0,0,1.84-.58,4.21,4.21,0,0,0,1.34-1.59,5,5,0,0,0,.51-2.28V70.77h2.79V82.51h-2.55l-.24-2.89.18.53A4.72,4.72,0,0,1,439,81.59a5.35,5.35,0,0,1-1.73,1A6.06,6.06,0,0,1,435.08,83Z"/><path class="cls-2" d="M448.64,72.92a2.38,2.38,0,0,1-1.58-.54,2,2,0,0,1-.64-1.61V69.63h2.13V70c0,.33.07.53.22.63a1.59,1.59,0,0,0,.77.14h8l-7.44,10.09-.57-.54h7.89v2.19H445.91l7.59-10.32.48.73Z"/><path class="cls-2" d="M461.18,66.52a1.29,1.29,0,0,1,.52-1,1.78,1.78,0,0,1,1.16-.43,1.73,1.73,0,0,1,1.14.43,1.35,1.35,0,0,1,0,2.11,1.81,1.81,0,0,1-1.14.41,1.87,1.87,0,0,1-1.16-.41A1.28,1.28,0,0,1,461.18,66.52Zm.18,4.25h2.82V82.51h-2.82Z"/><path class="cls-2" d="M467.93,76.53a5.85,5.85,0,0,1,.88-3.18,6.21,6.21,0,0,1,2.46-2.24,7.62,7.62,0,0,1,3.58-.82,7.38,7.38,0,0,1,3.55.82,6.12,6.12,0,0,1,2.38,2.24,6.29,6.29,0,0,1,0,6.35A6.24,6.24,0,0,1,478.4,82a7.42,7.42,0,0,1-3.58.83,7.76,7.76,0,0,1-3.55-.78,6.23,6.23,0,0,1-2.45-2.18A6.08,6.08,0,0,1,467.93,76.53Zm2.81,0a4,4,0,0,0,2,3.52,3.84,3.84,0,0,0,2,.54,3.89,3.89,0,0,0,3.49-2,4.32,4.32,0,0,0,0-4.11A4,4,0,0,0,476.84,73a3.88,3.88,0,0,0-2.07-.55,3.8,3.8,0,0,0-2.06.57,4.11,4.11,0,0,0-1.44,1.49A4,4,0,0,0,470.74,76.55Z"/><path class="cls-2" d="M487.9,70.77l.21,2.86-.09-.45a4.43,4.43,0,0,1,1.92-2.08,6.21,6.21,0,0,1,3.15-.78,4.23,4.23,0,0,1,2.87,1,3.31,3.31,0,0,1,1.15,2.54v8.68h-2.82V74.74a2.35,2.35,0,0,0-.58-1.55,2.26,2.26,0,0,0-1.73-.61,3.49,3.49,0,0,0-1.93.57,3.87,3.87,0,0,0-1.38,1.56,5.09,5.09,0,0,0-.5,2.3v5.5h-2.82V70.77Z"/><path class="cls-2" d="M507.73,82.79a7.73,7.73,0,0,1-3.66-.81,5.89,5.89,0,0,1-2.37-2.21,6.14,6.14,0,0,1-.84-3.22,5.53,5.53,0,0,1,.95-3.14,6.93,6.93,0,0,1,2.5-2.27,7.12,7.12,0,0,1,3.48-.85,6.11,6.11,0,0,1,4.08,1.36,6.89,6.89,0,0,1,2.22,3.74l-10.26,3.4-.66-1.56,8.37-2.92-.57.4a3.91,3.91,0,0,0-1.2-1.62,3.39,3.39,0,0,0-2.19-.68,4,4,0,0,0-2,.51,3.72,3.72,0,0,0-1.4,1.41,4.11,4.11,0,0,0-.51,2.08,4.29,4.29,0,0,0,.53,2.13A3.75,3.75,0,0,0,505.65,80a4.32,4.32,0,0,0,2.14.52,4.5,4.5,0,0,0,1.58-.28,7.34,7.34,0,0,0,1.45-.74l1.26,2a8.44,8.44,0,0,1-2.08,1A7.33,7.33,0,0,1,507.73,82.79Z"/><path class="cls-2" d="M520.12,80l-1.3,3c-.43,1-.87,2-1.31,3H515.2q.63-1.53,1.2-3c.38-1,.76-2,1.14-3Z"/><path class="cls-2" d="M535.66,70.77l.21,2.86-.09-.45a4.43,4.43,0,0,1,1.92-2.08,6.18,6.18,0,0,1,3.15-.78,4.23,4.23,0,0,1,2.87,1,3.31,3.31,0,0,1,1.15,2.54v8.68h-2.82V74.74a2.35,2.35,0,0,0-.58-1.55,2.26,2.26,0,0,0-1.73-.61,3.49,3.49,0,0,0-1.93.57,3.87,3.87,0,0,0-1.38,1.56,5.09,5.09,0,0,0-.5,2.3v5.5h-2.82V70.77Z"/><path class="cls-2" d="M548.62,76.53a5.86,5.86,0,0,1,.89-3.18A6.21,6.21,0,0,1,552,71.11a7.59,7.59,0,0,1,3.58-.82,7.34,7.34,0,0,1,3.54.82,6.08,6.08,0,0,1,2.39,2.24,6.35,6.35,0,0,1,0,6.35A6.2,6.2,0,0,1,559.09,82a7.41,7.41,0,0,1-3.57.83A7.76,7.76,0,0,1,552,82a6.16,6.16,0,0,1-2.45-2.18A6,6,0,0,1,548.62,76.53Zm2.82,0a4,4,0,0,0,.54,2.06,4.11,4.11,0,0,0,1.44,1.46,3.89,3.89,0,0,0,2,.54,3.94,3.94,0,0,0,2.07-.54A4,4,0,0,0,559,78.61,4.15,4.15,0,0,0,557.53,73a3.86,3.86,0,0,0-2.07-.55,3.79,3.79,0,0,0-2.05.57A4.11,4.11,0,0,0,552,74.53,4,4,0,0,0,551.44,76.55Z"/><path class="cls-2" d="M568.6,70.77l.21,2.86-.09-.45a4.43,4.43,0,0,1,1.92-2.08,6.18,6.18,0,0,1,3.15-.78,4.23,4.23,0,0,1,2.87,1,3.31,3.31,0,0,1,1.15,2.54v8.68H575V74.74a2.35,2.35,0,0,0-.58-1.55,2.26,2.26,0,0,0-1.73-.61,3.49,3.49,0,0,0-1.93.57,3.87,3.87,0,0,0-1.38,1.56,5.09,5.09,0,0,0-.5,2.3v5.5h-2.82V70.77Z"/><path class="cls-2" d="M22.92,104.79l.27,3.41-.12-.49a5.17,5.17,0,0,1,1.38-1.81,6.61,6.61,0,0,1,1.92-1.16,5.47,5.47,0,0,1,1.74-.43L28,107a4.24,4.24,0,0,0-2.5.49,4.67,4.67,0,0,0-1.68,1.59,3.9,3.9,0,0,0-.62,2.11v5.36H20.4V104.79Z"/><path class="cls-2" d="M31.5,100.54A1.3,1.3,0,0,1,32,99.49a1.82,1.82,0,0,1,1.16-.42,1.75,1.75,0,0,1,1.14.42,1.32,1.32,0,0,1,.51,1.05,1.3,1.3,0,0,1-.51,1.06,1.74,1.74,0,0,1-1.14.41A1.81,1.81,0,0,1,32,101.6,1.28,1.28,0,0,1,31.5,100.54Zm.18,4.25H34.5v11.74H31.68Z"/><path class="cls-2" d="M45.12,116.81a7.85,7.85,0,0,1-3.66-.8,5.91,5.91,0,0,1-2.37-2.22,6.1,6.1,0,0,1-.84-3.21,5.55,5.55,0,0,1,.94-3.15,7,7,0,0,1,2.51-2.27,7.12,7.12,0,0,1,3.48-.85,6.11,6.11,0,0,1,4.08,1.36,7,7,0,0,1,2.22,3.74l-10.26,3.41-.66-1.56,8.37-2.92-.57.39a3.82,3.82,0,0,0-1.2-1.61,3.33,3.33,0,0,0-2.19-.68,4,4,0,0,0-2,.51,3.74,3.74,0,0,0-1.39,1.4,4.15,4.15,0,0,0-.51,2.09,4.24,4.24,0,0,0,.52,2.12A3.69,3.69,0,0,0,43,114a4.36,4.36,0,0,0,2.15.53,4.45,4.45,0,0,0,1.57-.29,7.38,7.38,0,0,0,1.46-.73l1.26,2a8.92,8.92,0,0,1-2.09,1A7.56,7.56,0,0,1,45.12,116.81Z"/><path class="cls-2" d="M58.44,116.76a7.76,7.76,0,0,1-2.57-.44,4.92,4.92,0,0,1-2-1.32L55,113.47a6.24,6.24,0,0,0,1.62,1.06,4,4,0,0,0,1.62.36,4.32,4.32,0,0,0,1.11-.14,1.74,1.74,0,0,0,.82-.49,1.24,1.24,0,0,0,.32-.88,1.21,1.21,0,0,0-.44-1A3.41,3.41,0,0,0,59,111.8a14.57,14.57,0,0,0-1.44-.43A5.36,5.36,0,0,1,55.17,110a2.9,2.9,0,0,1-.81-2.07,3.28,3.28,0,0,1,.49-1.75,3.81,3.81,0,0,1,1.49-1.33,5.07,5.07,0,0,1,2.4-.52,8.19,8.19,0,0,1,2.31.3,5.53,5.53,0,0,1,1.92,1l-1.11,1.65a3.49,3.49,0,0,0-1.28-.81,3.89,3.89,0,0,0-1.33-.27,3.29,3.29,0,0,0-1,.15,1.87,1.87,0,0,0-.75.46,1,1,0,0,0-.28.75,1.08,1.08,0,0,0,.4,1,3.46,3.46,0,0,0,1.1.58l1.35.45a6.59,6.59,0,0,1,1.62.69,3.62,3.62,0,0,1,1.15,1,2.68,2.68,0,0,1,.44,1.56,3.81,3.81,0,0,1-.53,1.95,3.67,3.67,0,0,1-1.59,1.41A6.11,6.11,0,0,1,58.44,116.76Z"/><path class="cls-2" d="M77.25,115.43a6.55,6.55,0,0,1-2,1,8.33,8.33,0,0,1-5.9-.4,5.81,5.81,0,0,1-2.41-2.16,6,6,0,0,1-.87-3.26,5.64,5.64,0,0,1,.93-3.24,6.27,6.27,0,0,1,2.41-2.13,7.07,7.07,0,0,1,3.23-.75,8.74,8.74,0,0,1,2.65.38A6.43,6.43,0,0,1,77.34,106l-1.41,1.71a6.32,6.32,0,0,0-1.31-.7,4.51,4.51,0,0,0-1.75-.33,4,4,0,0,0-2,.53,3.85,3.85,0,0,0-1.44,1.42,4.11,4.11,0,0,0,0,4,4,4,0,0,0,1.5,1.44,4.45,4.45,0,0,0,2.22.54,4.55,4.55,0,0,0,2.67-.85Z"/><path class="cls-2" d="M79.74,110.55a5.9,5.9,0,0,1,.88-3.18,6.28,6.28,0,0,1,2.46-2.24,7.63,7.63,0,0,1,3.59-.82,7.34,7.34,0,0,1,3.54.82,6,6,0,0,1,3.24,5.42,6,6,0,0,1-.86,3.17A6.17,6.17,0,0,1,90.21,116a7.3,7.3,0,0,1-3.57.83,7.93,7.93,0,0,1-3.56-.77,6.09,6.09,0,0,1-2.44-2.19A6,6,0,0,1,79.74,110.55Zm2.82,0a4,4,0,0,0,.54,2,4,4,0,0,0,1.44,1.46,3.89,3.89,0,0,0,2,.54,3.94,3.94,0,0,0,2.07-.54,3.9,3.9,0,0,0,1.42-1.46,4.14,4.14,0,0,0-1.42-5.58,3.87,3.87,0,0,0-2.07-.56,3.82,3.82,0,0,0-2.06.57,4.19,4.19,0,0,0-1.44,1.49A4,4,0,0,0,82.56,110.58Z"/><path class="cls-2" d="M99.72,104.79l.21,2.87-.09-.46a4.43,4.43,0,0,1,1.92-2.08,6.18,6.18,0,0,1,3.15-.78,4.21,4.21,0,0,1,2.86,1,3.3,3.3,0,0,1,1.16,2.54v8.67h-2.82v-7.77a2.31,2.31,0,0,0-.59-1.54,2.2,2.2,0,0,0-1.72-.61,3.59,3.59,0,0,0-1.94.56,3.87,3.87,0,0,0-1.38,1.56A5.12,5.12,0,0,0,100,111v5.5H97.17V104.79Z"/><path class="cls-2" d="M112.68,110.55a5.9,5.9,0,0,1,.88-3.18,6.28,6.28,0,0,1,2.46-2.24,7.63,7.63,0,0,1,3.59-.82,7.34,7.34,0,0,1,3.54.82,6,6,0,0,1,3.24,5.42,6,6,0,0,1-.86,3.17,6.17,6.17,0,0,1-2.38,2.26,7.3,7.3,0,0,1-3.57.83A7.93,7.93,0,0,1,116,116a6.09,6.09,0,0,1-2.44-2.19A6,6,0,0,1,112.68,110.55Zm2.82,0a4,4,0,0,0,.54,2,4,4,0,0,0,1.44,1.46,3.89,3.89,0,0,0,2,.54,3.94,3.94,0,0,0,2.07-.54,3.9,3.9,0,0,0,1.42-1.46,4.14,4.14,0,0,0-1.42-5.58,3.87,3.87,0,0,0-2.07-.56,3.82,3.82,0,0,0-2.06.57,4.19,4.19,0,0,0-1.44,1.49A4,4,0,0,0,115.5,110.58Z"/><path class="cls-2" d="M144.78,116.81a7.06,7.06,0,0,1-3.17-.7,5.48,5.48,0,0,1-2.26-2.09,6.3,6.3,0,0,1-.84-3.36,6.39,6.39,0,0,1,.87-3.4,5.85,5.85,0,0,1,2.34-2.18,6.85,6.85,0,0,1,3.21-.77,5.5,5.5,0,0,1,2.95.75,5.24,5.24,0,0,1,1.82,1.77l-.18.43.27-2.47h2.58v11.74h-2.79v-3.06l.33.68a3.49,3.49,0,0,1-.57.72,7.32,7.32,0,0,1-1.07.9,6.08,6.08,0,0,1-1.51.75A6.35,6.35,0,0,1,144.78,116.81Zm.75-2.18a4.59,4.59,0,0,0,1.89-.37,3.54,3.54,0,0,0,1.39-1.05,3.83,3.83,0,0,0,.77-1.58v-2.3a3.56,3.56,0,0,0-.84-1.49,4.16,4.16,0,0,0-1.44-1,4.6,4.6,0,0,0-1.83-.36,4.23,4.23,0,0,0-2.07.51,4,4,0,0,0-1.49,1.42,4,4,0,0,0-.55,2.13,3.93,3.93,0,0,0,.57,2.07,4.22,4.22,0,0,0,3.6,2Z"/><path class="cls-2" d="M162.27,116.81a6.33,6.33,0,0,1-3.12-.77,5.82,5.82,0,0,1-2.21-2.22,6.46,6.46,0,0,1-.82-3.3,6.21,6.21,0,0,1,.87-3.35,5.77,5.77,0,0,1,2.34-2.12,7.28,7.28,0,0,1,3.3-.74,6.74,6.74,0,0,1,2.8.6,4.94,4.94,0,0,1,2.09,1.64l-.15.94V94.59h2.79v21.94h-2.79v-2.92l.33.74a7,7,0,0,1-5.43,2.46Zm.87-2.24a4.66,4.66,0,0,0,2-.39,4.42,4.42,0,0,0,1.44-1.06,3.87,3.87,0,0,0,.83-1.58V109.3a3.53,3.53,0,0,0-.86-1.5,4.2,4.2,0,0,0-1.47-1,5,5,0,0,0-1.9-.35,4.35,4.35,0,0,0-2.07.51,4,4,0,0,0-1.53,1.42,3.83,3.83,0,0,0-.57,2.09,3.9,3.9,0,0,0,.57,2.09,4.31,4.31,0,0,0,1.53,1.47A4.06,4.06,0,0,0,163.14,114.57Z"/><path class="cls-2" d="M189.66,116.81a7.06,7.06,0,0,1-3.17-.7,5.48,5.48,0,0,1-2.26-2.09,6.3,6.3,0,0,1-.84-3.36,6.39,6.39,0,0,1,.87-3.4,5.85,5.85,0,0,1,2.34-2.18,6.85,6.85,0,0,1,3.21-.77,5.5,5.5,0,0,1,2.95.75,5.24,5.24,0,0,1,1.82,1.77l-.18.43.27-2.47h2.58v11.74h-2.79v-3.06l.33.68a3.49,3.49,0,0,1-.57.72,7.32,7.32,0,0,1-1.07.9,6.08,6.08,0,0,1-1.51.75A6.35,6.35,0,0,1,189.66,116.81Zm.75-2.18a4.59,4.59,0,0,0,1.89-.37,3.54,3.54,0,0,0,1.39-1.05,3.83,3.83,0,0,0,.77-1.58v-2.3a3.56,3.56,0,0,0-.84-1.49,4.16,4.16,0,0,0-1.44-1,4.6,4.6,0,0,0-1.83-.36,4.23,4.23,0,0,0-2.07.51,4,4,0,0,0-1.49,1.42,4,4,0,0,0-.55,2.13,3.93,3.93,0,0,0,.57,2.07,4.22,4.22,0,0,0,3.6,2Z"/><path class="cls-2" d="M201.9,100.54a1.3,1.3,0,0,1,.52-1.05,1.82,1.82,0,0,1,1.16-.42,1.77,1.77,0,0,1,1.14.42,1.32,1.32,0,0,1,.51,1.05,1.3,1.3,0,0,1-.51,1.06,1.76,1.76,0,0,1-1.14.41,1.81,1.81,0,0,1-1.16-.41A1.28,1.28,0,0,1,201.9,100.54Zm.18,4.25h2.82v11.74h-2.82Z"/><path class="cls-2" d="M213.71,117a4.09,4.09,0,0,1-2.83-1,3.41,3.41,0,0,1-1.15-2.54v-8.68h2.81v7.74a2.46,2.46,0,0,0,.61,1.55,2.16,2.16,0,0,0,1.67.64,3.13,3.13,0,0,0,1.85-.59,4.15,4.15,0,0,0,1.33-1.58,5,5,0,0,0,.52-2.28v-5.48h2.79v11.74h-2.56l-.23-2.89.17.54a4.54,4.54,0,0,1-1.11,1.43,5.32,5.32,0,0,1-1.72,1A6.34,6.34,0,0,1,213.71,117Z"/><path class="cls-2" d="M227.3,99.63h2.85v5.22h3.39v2.07h-3.39v9.61H227.3v-9.61h-2.25v-2.07h2.25Z"/><path class="cls-2" d="M242.09,116.81a7,7,0,0,1-3.16-.7,5.51,5.51,0,0,1-2.27-2.09,6.3,6.3,0,0,1-.84-3.36,6.39,6.39,0,0,1,.87-3.4,5.85,5.85,0,0,1,2.34-2.18,6.85,6.85,0,0,1,3.21-.77,5.54,5.54,0,0,1,3,.75,5.21,5.21,0,0,1,1.81,1.77l-.18.43.27-2.47h2.58v11.74h-2.79v-3.06l.33.68a3.49,3.49,0,0,1-.57.72,7.19,7.19,0,0,1-1.06.9,6.16,6.16,0,0,1-1.52.75A6.35,6.35,0,0,1,242.09,116.81Zm.75-2.18a4.59,4.59,0,0,0,1.89-.37,3.57,3.57,0,0,0,1.4-1.05,3.81,3.81,0,0,0,.76-1.58v-2.3a3.56,3.56,0,0,0-.84-1.49,4.16,4.16,0,0,0-1.44-1,4.6,4.6,0,0,0-1.83-.36,4.23,4.23,0,0,0-2.07.51,4,4,0,0,0-1.48,1.42,4,4,0,0,0-.56,2.13,3.93,3.93,0,0,0,.57,2.07,4.22,4.22,0,0,0,3.6,2Z"/><path class="cls-2" d="M257,104.79l.27,3.41-.12-.49a5.17,5.17,0,0,1,1.38-1.81,6.61,6.61,0,0,1,1.92-1.16,5.47,5.47,0,0,1,1.74-.43L262.1,107a4.26,4.26,0,0,0-2.5.49,4.76,4.76,0,0,0-1.68,1.59,3.9,3.9,0,0,0-.62,2.11v5.36h-2.79V104.79Z"/><path class="cls-2" d="M265.79,94.59h2.82v21.94h-2.82Z"/><path class="cls-2" d="M272.36,110.55a5.91,5.91,0,0,1,.89-3.18,6.28,6.28,0,0,1,2.46-2.24,7.59,7.59,0,0,1,3.58-.82,7.34,7.34,0,0,1,3.54.82,6.15,6.15,0,0,1,2.39,2.24,6.06,6.06,0,0,1,.85,3.18,6,6,0,0,1-.85,3.17,6.2,6.2,0,0,1-2.39,2.26,7.3,7.3,0,0,1-3.57.83,7.89,7.89,0,0,1-3.55-.77,6.11,6.11,0,0,1-2.45-2.19A6,6,0,0,1,272.36,110.55Zm2.82,0a4,4,0,0,0,.54,2,4,4,0,0,0,1.44,1.46,3.89,3.89,0,0,0,2,.54,3.92,3.92,0,0,0,3.5-2,4.32,4.32,0,0,0,0-4.11,4.11,4.11,0,0,0-1.43-1.47,3.87,3.87,0,0,0-2.07-.56,3.79,3.79,0,0,0-2.05.57,4.19,4.19,0,0,0-1.44,1.49A4,4,0,0,0,275.18,110.58Z"/><path class="cls-2" d="M309.38,115.43a6.55,6.55,0,0,1-2,1,8.3,8.3,0,0,1-5.89-.4,5.84,5.84,0,0,1-2.42-2.16,6,6,0,0,1-.87-3.26,5.64,5.64,0,0,1,.93-3.24,6.29,6.29,0,0,1,2.42-2.13,7,7,0,0,1,3.22-.75,8.81,8.81,0,0,1,2.66.38,6.38,6.38,0,0,1,2.05,1.09l-1.41,1.71a6.22,6.22,0,0,0-1.3-.7,4.56,4.56,0,0,0-1.76-.33,4,4,0,0,0-2,.53,3.85,3.85,0,0,0-1.44,1.42,4.08,4.08,0,0,0,0,4,4,4,0,0,0,1.5,1.44,4.45,4.45,0,0,0,2.22.54,4.34,4.34,0,0,0,1.46-.23,4.19,4.19,0,0,0,1.21-.62Z"/><path class="cls-2" d="M311.87,110.55a5.91,5.91,0,0,1,.89-3.18,6.28,6.28,0,0,1,2.46-2.24,7.59,7.59,0,0,1,3.58-.82,7.34,7.34,0,0,1,3.54.82,6.15,6.15,0,0,1,2.39,2.24,6.06,6.06,0,0,1,.85,3.18,6,6,0,0,1-.85,3.17,6.2,6.2,0,0,1-2.39,2.26,7.3,7.3,0,0,1-3.57.83,7.89,7.89,0,0,1-3.55-.77,6.11,6.11,0,0,1-2.45-2.19A6,6,0,0,1,311.87,110.55Zm2.82,0a4,4,0,0,0,.54,2,4,4,0,0,0,1.44,1.46,3.89,3.89,0,0,0,2,.54,3.92,3.92,0,0,0,3.5-2,4.32,4.32,0,0,0,0-4.11,4.11,4.11,0,0,0-1.43-1.47,3.87,3.87,0,0,0-2.07-.56,3.79,3.79,0,0,0-2,.57,4.19,4.19,0,0,0-1.44,1.49A4,4,0,0,0,314.69,110.58Z"/><path class="cls-2" d="M331.85,104.79l.24,2.64-.15-.23a5.27,5.27,0,0,1,2-2.11,5.53,5.53,0,0,1,2.95-.78,4.81,4.81,0,0,1,1.83.33,3.56,3.56,0,0,1,1.34.9,2.81,2.81,0,0,1,.67,1.41l-.15.11a5.2,5.2,0,0,1,2-2,5.36,5.36,0,0,1,2.68-.72,4.1,4.1,0,0,1,2.9,1,3.51,3.51,0,0,1,1.12,2.53v8.7h-2.82v-7.74a2.73,2.73,0,0,0-.46-1.52,1.8,1.8,0,0,0-1.52-.63,3.21,3.21,0,0,0-1.93.61,4,4,0,0,0-1.32,1.58,5.29,5.29,0,0,0-.5,2.14v5.56h-2.82v-7.74a2.6,2.6,0,0,0-.49-1.52,1.89,1.89,0,0,0-1.55-.63,3.16,3.16,0,0,0-1.92.61,4.16,4.16,0,0,0-1.32,1.6,4.87,4.87,0,0,0-.48,2.15v5.53H329.3V104.79Z"/><path class="cls-2" d="M359.84,116.81a7.85,7.85,0,0,1-3.66-.8,5.91,5.91,0,0,1-2.37-2.22,6.1,6.1,0,0,1-.84-3.21,5.56,5.56,0,0,1,.95-3.15,6.93,6.93,0,0,1,2.5-2.27,7.12,7.12,0,0,1,3.48-.85,6.11,6.11,0,0,1,4.08,1.36,7,7,0,0,1,2.22,3.74l-10.26,3.41-.66-1.56,8.37-2.92-.57.39a3.82,3.82,0,0,0-1.2-1.61,3.33,3.33,0,0,0-2.19-.68,4,4,0,0,0-2,.51,3.76,3.76,0,0,0-1.4,1.4,4.15,4.15,0,0,0-.51,2.09,4.25,4.25,0,0,0,.53,2.12,3.69,3.69,0,0,0,1.47,1.46,4.33,4.33,0,0,0,2.14.53,4.51,4.51,0,0,0,1.58-.29,7.3,7.3,0,0,0,1.45-.73l1.26,2a8.84,8.84,0,0,1-2.08,1A7.62,7.62,0,0,1,359.84,116.81Z"/><path class="cls-2" d="M384.2,116.87l-6.9-12.08h3.33l4.65,9.33-1.71-.08,4.29-9.25H391l-6.63,12.08Z"/><path class="cls-2" d="M392.57,110.55a5.9,5.9,0,0,1,.88-3.18,6.28,6.28,0,0,1,2.46-2.24,7.63,7.63,0,0,1,3.59-.82,7.34,7.34,0,0,1,3.54.82,6,6,0,0,1,3.24,5.42,6,6,0,0,1-.86,3.17A6.17,6.17,0,0,1,403,116a7.3,7.3,0,0,1-3.57.83,7.93,7.93,0,0,1-3.56-.77,6.09,6.09,0,0,1-2.44-2.19A6,6,0,0,1,392.57,110.55Zm2.82,0a4,4,0,0,0,.54,2,4,4,0,0,0,1.44,1.46,3.89,3.89,0,0,0,2,.54,3.94,3.94,0,0,0,2.07-.54,3.9,3.9,0,0,0,1.42-1.46,4.14,4.14,0,0,0-1.42-5.58,3.87,3.87,0,0,0-2.07-.56,3.82,3.82,0,0,0-2.06.57,4.19,4.19,0,0,0-1.44,1.49A4,4,0,0,0,395.39,110.58Z"/><path class="cls-2" d="M412.52,104.79l.27,3.41-.12-.49a5.17,5.17,0,0,1,1.38-1.81,6.61,6.61,0,0,1,1.92-1.16,5.47,5.47,0,0,1,1.74-.43l-.12,2.67a4.29,4.29,0,0,0-2.51.49,4.76,4.76,0,0,0-1.68,1.59,3.89,3.89,0,0,0-.61,2.11v5.36H410V104.79Z"/><path class="cls-2" d="M423.8,104.79l.27,3.41-.12-.49a5.17,5.17,0,0,1,1.38-1.81,6.61,6.61,0,0,1,1.92-1.16,5.47,5.47,0,0,1,1.74-.43l-.12,2.67a4.29,4.29,0,0,0-2.51.49,4.76,4.76,0,0,0-1.68,1.59,3.89,3.89,0,0,0-.61,2.11v5.36h-2.79V104.79Z"/><path class="cls-2" d="M437.81,116.81a7.85,7.85,0,0,1-3.66-.8,5.91,5.91,0,0,1-2.37-2.22,6.1,6.1,0,0,1-.84-3.21,5.55,5.55,0,0,1,.94-3.15,7,7,0,0,1,2.51-2.27,7.12,7.12,0,0,1,3.48-.85,6.11,6.11,0,0,1,4.08,1.36,7,7,0,0,1,2.22,3.74l-10.26,3.41-.66-1.56,8.37-2.92-.57.39a3.82,3.82,0,0,0-1.2-1.61,3.33,3.33,0,0,0-2.19-.68,4,4,0,0,0-2,.51,3.74,3.74,0,0,0-1.39,1.4,4.15,4.15,0,0,0-.51,2.09,4.24,4.24,0,0,0,.52,2.12,3.69,3.69,0,0,0,1.47,1.46,4.36,4.36,0,0,0,2.15.53,4.45,4.45,0,0,0,1.57-.29,7.38,7.38,0,0,0,1.46-.73l1.26,2a8.92,8.92,0,0,1-2.09,1A7.56,7.56,0,0,1,437.81,116.81Z"/><path class="cls-2" d="M455.24,116.81a6.33,6.33,0,0,1-3.05-.7,6.19,6.19,0,0,1-2.08-1.79l.33-.79v3h-2.82V94.59h2.79v12.9l-.06-1a5.21,5.21,0,0,1,2.11-1.55,7.72,7.72,0,0,1,3.14-.61,6.15,6.15,0,0,1,3,.77,5.79,5.79,0,0,1,2.2,2.14,6.17,6.17,0,0,1,.83,3.24,6.36,6.36,0,0,1-.89,3.42,5.87,5.87,0,0,1-2.35,2.18A6.9,6.9,0,0,1,455.24,116.81Zm-.6-2.24a4.28,4.28,0,0,0,2.17-.53,3.92,3.92,0,0,0,1.49-1.48,4.1,4.1,0,0,0,.54-2.1,3.9,3.9,0,0,0-.56-2,3.94,3.94,0,0,0-1.5-1.45,4.32,4.32,0,0,0-2.14-.52,5.08,5.08,0,0,0-1.89.35,4.08,4.08,0,0,0-1.46,1,3.86,3.86,0,0,0-.85,1.47v2.41a4,4,0,0,0,.81,1.49,3.8,3.8,0,0,0,1.45,1A4.76,4.76,0,0,0,454.64,114.57Z"/><path class="cls-2" d="M473,116.81a6.33,6.33,0,0,1-3-.7,6.19,6.19,0,0,1-2.08-1.79l.33-.79v3h-2.82V94.59h2.79v12.9l-.06-1a5.21,5.21,0,0,1,2.11-1.55,7.72,7.72,0,0,1,3.14-.61,6.15,6.15,0,0,1,3,.77,5.79,5.79,0,0,1,2.2,2.14,6.17,6.17,0,0,1,.83,3.24,6.36,6.36,0,0,1-.89,3.42,5.87,5.87,0,0,1-2.35,2.18A6.9,6.9,0,0,1,473,116.81Zm-.6-2.24a4.28,4.28,0,0,0,2.17-.53,3.92,3.92,0,0,0,1.49-1.48,4.1,4.1,0,0,0,.54-2.1,3.9,3.9,0,0,0-.56-2,3.94,3.94,0,0,0-1.5-1.45,4.32,4.32,0,0,0-2.14-.52,5.08,5.08,0,0,0-1.89.35,4.08,4.08,0,0,0-1.46,1,3.86,3.86,0,0,0-.85,1.47v2.41a4,4,0,0,0,.81,1.49,3.8,3.8,0,0,0,1.45,1A4.76,4.76,0,0,0,472.43,114.57Z"/><path class="cls-2" d="M489,116.81a7.85,7.85,0,0,1-3.66-.8,5.91,5.91,0,0,1-2.37-2.22,6.1,6.1,0,0,1-.84-3.21,5.55,5.55,0,0,1,.94-3.15,7,7,0,0,1,2.51-2.27,7.12,7.12,0,0,1,3.48-.85,6.11,6.11,0,0,1,4.08,1.36,7,7,0,0,1,2.22,3.74l-10.26,3.41-.66-1.56,8.37-2.92-.57.39a3.82,3.82,0,0,0-1.2-1.61,3.33,3.33,0,0,0-2.19-.68,4,4,0,0,0-2,.51,3.74,3.74,0,0,0-1.39,1.4,4.15,4.15,0,0,0-.51,2.09,4.24,4.24,0,0,0,.52,2.12A3.69,3.69,0,0,0,486.9,114a4.36,4.36,0,0,0,2.15.53,4.45,4.45,0,0,0,1.57-.29,7.38,7.38,0,0,0,1.46-.73l1.26,2a8.92,8.92,0,0,1-2.09,1A7.56,7.56,0,0,1,489,116.81Z"/><path class="cls-2" d="M501.32,104.79l.27,3.41-.12-.49a5.17,5.17,0,0,1,1.38-1.81,6.61,6.61,0,0,1,1.92-1.16,5.47,5.47,0,0,1,1.74-.43l-.12,2.67a4.29,4.29,0,0,0-2.51.49,4.76,4.76,0,0,0-1.68,1.59,3.89,3.89,0,0,0-.61,2.11v5.36H498.8V104.79Z"/><path class="cls-2" d="M508.46,110.55a5.9,5.9,0,0,1,.88-3.18,6.28,6.28,0,0,1,2.46-2.24,7.63,7.63,0,0,1,3.59-.82,7.34,7.34,0,0,1,3.54.82,6,6,0,0,1,3.24,5.42,6,6,0,0,1-.86,3.17,6.17,6.17,0,0,1-2.38,2.26,7.3,7.3,0,0,1-3.57.83,7.93,7.93,0,0,1-3.56-.77,6.09,6.09,0,0,1-2.44-2.19A6,6,0,0,1,508.46,110.55Zm2.82,0a4,4,0,0,0,.54,2,4,4,0,0,0,1.44,1.46,3.89,3.89,0,0,0,2,.54,3.94,3.94,0,0,0,2.07-.54,3.9,3.9,0,0,0,1.42-1.46,4.14,4.14,0,0,0-1.42-5.58,3.87,3.87,0,0,0-2.07-.56,3.82,3.82,0,0,0-2.06.57,4.19,4.19,0,0,0-1.44,1.49A4,4,0,0,0,511.28,110.58Z"/><path class="cls-2" d="M545.48,115.43a6.55,6.55,0,0,1-2,1,8.33,8.33,0,0,1-5.9-.4,5.81,5.81,0,0,1-2.41-2.16,6,6,0,0,1-.87-3.26,5.64,5.64,0,0,1,.93-3.24,6.27,6.27,0,0,1,2.41-2.13,7.07,7.07,0,0,1,3.23-.75,8.74,8.74,0,0,1,2.65.38,6.43,6.43,0,0,1,2.06,1.09l-1.41,1.71a6.32,6.32,0,0,0-1.31-.7,4.51,4.51,0,0,0-1.75-.33,4,4,0,0,0-2,.53,3.85,3.85,0,0,0-1.44,1.42,4.11,4.11,0,0,0,0,4,4,4,0,0,0,1.5,1.44,4.45,4.45,0,0,0,2.22.54,4.55,4.55,0,0,0,2.67-.85Z"/><path class="cls-2" d="M548,110.55a5.9,5.9,0,0,1,.88-3.18,6.28,6.28,0,0,1,2.46-2.24,7.63,7.63,0,0,1,3.59-.82,7.34,7.34,0,0,1,3.54.82,6,6,0,0,1,3.24,5.42,6,6,0,0,1-.86,3.17,6.17,6.17,0,0,1-2.38,2.26,7.3,7.3,0,0,1-3.57.83,7.93,7.93,0,0,1-3.56-.77,6.09,6.09,0,0,1-2.44-2.19A6,6,0,0,1,548,110.55Zm2.82,0a4,4,0,0,0,.54,2,4,4,0,0,0,1.44,1.46,3.89,3.89,0,0,0,2,.54,3.94,3.94,0,0,0,2.07-.54,3.9,3.9,0,0,0,1.42-1.46,4.14,4.14,0,0,0-1.42-5.58,3.87,3.87,0,0,0-2.07-.56,3.82,3.82,0,0,0-2.06.57,4.19,4.19,0,0,0-1.44,1.49A4,4,0,0,0,550.79,110.58Z"/><path class="cls-2" d="M568,104.79l.21,2.87-.09-.46a4.38,4.38,0,0,1,1.92-2.08,6.18,6.18,0,0,1,3.15-.78,4.21,4.21,0,0,1,2.86,1,3.3,3.3,0,0,1,1.16,2.54v8.67h-2.82v-7.77a2.31,2.31,0,0,0-.59-1.54,2.2,2.2,0,0,0-1.72-.61,3.59,3.59,0,0,0-1.94.56,3.87,3.87,0,0,0-1.38,1.56,5.12,5.12,0,0,0-.49,2.3v5.5H565.4V104.79Z"/><path class="cls-2" d="M591.28,100.54a1.31,1.31,0,0,1,.53-1.05,1.82,1.82,0,0,1,1.16-.42,1.72,1.72,0,0,1,1.13.42,1.32,1.32,0,0,1,.51,1.05,1.3,1.3,0,0,1-.51,1.06A1.71,1.71,0,0,1,593,102a1.81,1.81,0,0,1-1.16-.41A1.29,1.29,0,0,1,591.28,100.54Zm.19,4.25h2.81v11.74h-2.81Z"/><path class="cls-2" d="M30.51,149.45a6.55,6.55,0,0,1-2,1,8.15,8.15,0,0,1-5.89-.4,5.82,5.82,0,0,1-2.42-2.15,6,6,0,0,1-.87-3.26,5.67,5.67,0,0,1,.93-3.25,6.27,6.27,0,0,1,2.42-2.12,6.91,6.91,0,0,1,3.22-.76,8.5,8.5,0,0,1,2.66.39A6.19,6.19,0,0,1,30.6,140l-1.41,1.7a6.22,6.22,0,0,0-1.3-.7,4.79,4.79,0,0,0-1.76-.32,4,4,0,0,0-2,.52,3.92,3.92,0,0,0-1.44,1.42,4.08,4.08,0,0,0,0,4,4,4,0,0,0,1.5,1.45,4.45,4.45,0,0,0,2.22.54,4.61,4.61,0,0,0,1.46-.23,4.22,4.22,0,0,0,1.21-.63Z"/><path class="cls-2" d="M33,144.57a5.85,5.85,0,0,1,.89-3.17,6.21,6.21,0,0,1,2.46-2.24,7.59,7.59,0,0,1,3.58-.83,7.35,7.35,0,0,1,3.54.83,6,6,0,0,1,2.38,2.24,6.29,6.29,0,0,1,0,6.35A6.08,6.08,0,0,1,43.47,150a7.3,7.3,0,0,1-3.57.84,7.76,7.76,0,0,1-3.55-.78,6.1,6.1,0,0,1-2.45-2.18A6,6,0,0,1,33,144.57Zm2.82,0a4,4,0,0,0,.54,2.06,4.11,4.11,0,0,0,1.44,1.46,3.89,3.89,0,0,0,2,.54,3.94,3.94,0,0,0,2.07-.54,4.21,4.21,0,0,0,1.43-5.58,4.19,4.19,0,0,0-1.43-1.47,4.1,4.1,0,0,0-4.12,0,4.11,4.11,0,0,0-1.44,1.49A4,4,0,0,0,35.82,144.6Z"/><path class="cls-2" d="M53,138.82l.24,2.63-.15-.22a5.18,5.18,0,0,1,2-2.11,5.48,5.48,0,0,1,3-.79,4.81,4.81,0,0,1,1.83.33,3.54,3.54,0,0,1,1.33.91,2.79,2.79,0,0,1,.68,1.4l-.15.11a5.11,5.11,0,0,1,2-2,5.35,5.35,0,0,1,2.68-.73,4.08,4.08,0,0,1,2.89,1,3.49,3.49,0,0,1,1.13,2.52v8.7H67.56v-7.74a2.78,2.78,0,0,0-.46-1.51,1.82,1.82,0,0,0-1.52-.64,3.19,3.19,0,0,0-1.93.61,4,4,0,0,0-1.33,1.59,5.21,5.21,0,0,0-.49,2.14v5.55H59v-7.74a2.64,2.64,0,0,0-.49-1.51,1.91,1.91,0,0,0-1.55-.64,3.16,3.16,0,0,0-1.92.61,4.23,4.23,0,0,0-1.32,1.6,4.88,4.88,0,0,0-.48,2.16v5.52H50.43V138.82Z"/><path class="cls-2" d="M82.53,150.84a6.23,6.23,0,0,1-2.72-.63,4.72,4.72,0,0,1-2-1.67l.15-.82v8.48H75.18V138.65h2.43l.39,3-.3-.85A7,7,0,0,1,80,139a6.82,6.82,0,0,1,3.09-.7,6.2,6.2,0,0,1,3.13.79,5.53,5.53,0,0,1,2.21,2.21,6.62,6.62,0,0,1,.81,3.33,6.05,6.05,0,0,1-.87,3.27A5.74,5.74,0,0,1,86,150.09,7.62,7.62,0,0,1,82.53,150.84Zm-.54-2.1a4.6,4.6,0,0,0,2.19-.52,4.38,4.38,0,0,0,1.6-1.45,3.66,3.66,0,0,0,.62-2.08,4,4,0,0,0-.57-2.12,4.12,4.12,0,0,0-1.52-1.44,4.24,4.24,0,0,0-2.11-.53,4.72,4.72,0,0,0-2,.39,3.86,3.86,0,0,0-1.44,1.06,4,4,0,0,0-.81,1.62v2a3.38,3.38,0,0,0,.72,1.56,4,4,0,0,0,1.43,1.12A4.2,4.2,0,0,0,82,148.74Z"/><path class="cls-2" d="M92.79,134.56a1.32,1.32,0,0,1,.52-1.05,1.82,1.82,0,0,1,1.16-.42,1.75,1.75,0,0,1,1.14.42,1.33,1.33,0,0,1,.51,1.05,1.32,1.32,0,0,1-.51,1.07,1.79,1.79,0,0,1-1.14.41,1.87,1.87,0,0,1-1.16-.41A1.3,1.3,0,0,1,92.79,134.56Zm.18,4.26h2.82v11.73H93Z"/><path class="cls-2" d="M101.82,133.66h2.85v5.21h3.39v2.07h-3.39v9.61h-2.85v-9.61H99.57v-2.07h2.25Z"/><path class="cls-2" d="M111.24,134.56a1.32,1.32,0,0,1,.52-1.05,1.82,1.82,0,0,1,1.16-.42,1.75,1.75,0,0,1,1.14.42,1.33,1.33,0,0,1,.51,1.05,1.32,1.32,0,0,1-.51,1.07,1.79,1.79,0,0,1-1.14.41,1.87,1.87,0,0,1-1.16-.41A1.3,1.3,0,0,1,111.24,134.56Zm.18,4.26h2.82v11.73h-2.82Z"/><path class="cls-2" d="M133.74,150.84a7.06,7.06,0,0,1-3.17-.71,5.46,5.46,0,0,1-2.26-2.08,7.13,7.13,0,0,1,0-6.77,5.92,5.92,0,0,1,2.34-2.18,6.85,6.85,0,0,1,3.21-.77,5.51,5.51,0,0,1,3,.76,5.24,5.24,0,0,1,1.82,1.77l-.18.42.27-2.46h2.58v11.73h-2.79v-3.06l.33.68a3.77,3.77,0,0,1-.57.73,7.3,7.3,0,0,1-1.07.89,6,6,0,0,1-3.49,1.05Zm.75-2.18a4.75,4.75,0,0,0,1.89-.37,3.74,3.74,0,0,0,1.39-1,3.87,3.87,0,0,0,.77-1.59v-2.3a3.53,3.53,0,0,0-.84-1.48,4.19,4.19,0,0,0-1.44-1,4.77,4.77,0,0,0-1.83-.35,4.23,4.23,0,0,0-2.07.51,3.91,3.91,0,0,0-1.49,1.42,4,4,0,0,0-.55,2.12,3.88,3.88,0,0,0,.57,2.07,4.1,4.1,0,0,0,1.53,1.48A4.15,4.15,0,0,0,134.49,148.66Z"/><path class="cls-2" d="M165.75,149.45a6.55,6.55,0,0,1-2,1,8.18,8.18,0,0,1-5.9-.4,5.85,5.85,0,0,1-2.41-2.15,6,6,0,0,1-.87-3.26,5.67,5.67,0,0,1,.93-3.25,6.24,6.24,0,0,1,2.41-2.12,7,7,0,0,1,3.23-.76,8.43,8.43,0,0,1,2.65.39,6.24,6.24,0,0,1,2.06,1.09l-1.41,1.7a6.32,6.32,0,0,0-1.31-.7,4.7,4.7,0,0,0-1.75-.32,4,4,0,0,0-2,.52,3.85,3.85,0,0,0-2,3.45,3.86,3.86,0,0,0,.54,2,4,4,0,0,0,1.5,1.45,4.45,4.45,0,0,0,2.22.54,4.54,4.54,0,0,0,1.45-.23,4.28,4.28,0,0,0,1.22-.63Z"/><path class="cls-2" d="M174.51,150.84a7.06,7.06,0,0,1-3.17-.71,5.46,5.46,0,0,1-2.26-2.08,7.13,7.13,0,0,1,0-6.77,5.92,5.92,0,0,1,2.34-2.18,6.85,6.85,0,0,1,3.21-.77,5.51,5.51,0,0,1,3,.76,5.24,5.24,0,0,1,1.82,1.77l-.18.42.27-2.46h2.58v11.73h-2.79v-3.06l.33.68a3.77,3.77,0,0,1-.57.73,7.3,7.3,0,0,1-1.07.89,6,6,0,0,1-3.49,1.05Zm.75-2.18a4.75,4.75,0,0,0,1.89-.37,3.74,3.74,0,0,0,1.39-1,3.87,3.87,0,0,0,.77-1.59v-2.3a3.53,3.53,0,0,0-.84-1.48,4.19,4.19,0,0,0-1.44-1,4.77,4.77,0,0,0-1.83-.35,4.23,4.23,0,0,0-2.07.51,3.91,3.91,0,0,0-1.49,1.42,4,4,0,0,0-.55,2.12,3.88,3.88,0,0,0,.57,2.07,4.1,4.1,0,0,0,1.53,1.48A4.15,4.15,0,0,0,175.26,148.66Z"/><path class="cls-2" d="M190.44,150.78a7.76,7.76,0,0,1-2.57-.44,4.92,4.92,0,0,1-2.05-1.32l1.17-1.53a6.3,6.3,0,0,0,1.62,1.07,4.11,4.11,0,0,0,1.62.35,4.32,4.32,0,0,0,1.11-.14,1.81,1.81,0,0,0,.82-.48,1.25,1.25,0,0,0,.32-.88,1.23,1.23,0,0,0-.44-1,3.62,3.62,0,0,0-1.09-.58c-.44-.15-.92-.29-1.44-.43a5.36,5.36,0,0,1-2.34-1.33,2.88,2.88,0,0,1-.81-2.07,3.27,3.27,0,0,1,.49-1.74,3.74,3.74,0,0,1,1.49-1.33,5.06,5.06,0,0,1,2.4-.53,8.19,8.19,0,0,1,2.31.3,5.55,5.55,0,0,1,1.92,1l-1.11,1.64a3.49,3.49,0,0,0-1.28-.81,3.89,3.89,0,0,0-1.33-.27,3.29,3.29,0,0,0-1,.16,1.75,1.75,0,0,0-.75.45,1,1,0,0,0-.28.75,1.07,1.07,0,0,0,.4.95,3.46,3.46,0,0,0,1.1.58c.44.16.89.31,1.35.46a7,7,0,0,1,1.62.68,3.53,3.53,0,0,1,1.15,1.05,2.64,2.64,0,0,1,.44,1.56,3.77,3.77,0,0,1-.53,1.94,3.63,3.63,0,0,1-1.59,1.42A6.12,6.12,0,0,1,190.44,150.78Z"/><path class="cls-2" d="M204.33,150.84a7.06,7.06,0,0,1-3.17-.71,5.46,5.46,0,0,1-2.26-2.08,7.13,7.13,0,0,1,0-6.77,5.92,5.92,0,0,1,2.34-2.18,6.85,6.85,0,0,1,3.21-.77,5.51,5.51,0,0,1,3,.76,5.24,5.24,0,0,1,1.82,1.77l-.18.42.27-2.46h2.58v11.73h-2.79v-3.06l.33.68a3.77,3.77,0,0,1-.57.73,7.3,7.3,0,0,1-1.07.89,6,6,0,0,1-3.49,1.05Zm.75-2.18a4.75,4.75,0,0,0,1.89-.37,3.74,3.74,0,0,0,1.39-1,3.87,3.87,0,0,0,.77-1.59v-2.3a3.53,3.53,0,0,0-.84-1.48,4.19,4.19,0,0,0-1.44-1,4.77,4.77,0,0,0-1.83-.35A4.23,4.23,0,0,0,203,141a3.91,3.91,0,0,0-1.49,1.42,4,4,0,0,0-.55,2.12,3.88,3.88,0,0,0,.57,2.07,4.1,4.1,0,0,0,1.53,1.48A4.15,4.15,0,0,0,205.08,148.66Z"/><path class="cls-2" d="M215.86,148a1.6,1.6,0,0,1,1.1-.45,1.54,1.54,0,0,1,1,.45,1.43,1.43,0,0,1,.49,1.08,1.33,1.33,0,0,1-.49,1.09,1.58,1.58,0,0,1-1,.41,1.65,1.65,0,0,1-1.1-.41,1.33,1.33,0,0,1-.5-1.09A1.45,1.45,0,0,1,215.86,148Z"/></g></g></svg>