<svg xmlns="http://www.w3.org/2000/svg" viewBox="0 0 672 207"><defs><style>.cls-1{fill:#fff;}.cls-2{fill:#846b4a;}</style></defs><title>ahmed testo 3</title><g id="Livello_2" data-name="Livello 2"><g id="illustrazioni"><rect class="cls-1" width="672" height="207" rx="21.32"/></g><g id="testi"><path class="cls-2" d="M19,45.48l9.45-21.35h.18l9.48,21.35H34.74l-7.08-17,2.07-1.27L21.84,45.48Zm5.55-7.77h8.07l1,2.39H23.67Z"/><path class="cls-2" d="M55.56,39.39a5.66,5.66,0,0,1-2.88-.78,6.2,6.2,0,0,1-2.19-2.13,5.64,5.64,0,0,1-.84-3,6.11,6.11,0,0,1,1-3.44,6.49,6.49,0,0,1,2.53-2.26,7.95,7.95,0,0,1,7,.05,6.58,6.58,0,0,1,2.53,2.29,6.13,6.13,0,0,1,1,3.39,9.06,9.06,0,0,1-.89,4,12.72,12.72,0,0,1-2.32,3.3,23.06,23.06,0,0,1-3.17,2.72c-1.15.82-2.3,1.61-3.46,2.34l-1.95-2a27.85,27.85,0,0,0,4.32-2.57A14.55,14.55,0,0,0,59,38.59a5.22,5.22,0,0,0,1.2-2.52h.87A7,7,0,0,1,59,38.54,6,6,0,0,1,55.56,39.39ZM56.64,37a4.29,4.29,0,0,0,2.89-1,3.1,3.1,0,0,0,1.13-2.47v-.54a3.77,3.77,0,0,0-2-3.17,4.16,4.16,0,0,0-2-.48,4.32,4.32,0,0,0-2,.48,3.59,3.59,0,0,0-1.46,1.35,3.8,3.8,0,0,0-.52,2,3.69,3.69,0,0,0,.54,2,3.57,3.57,0,0,0,1.45,1.3A4.48,4.48,0,0,0,56.64,37Z"/><path class="cls-2" d="M81.72,45.77a7.06,7.06,0,0,1-3.17-.71A5.42,5.42,0,0,1,76.29,43a6.3,6.3,0,0,1-.84-3.36,6.39,6.39,0,0,1,.87-3.4A5.92,5.92,0,0,1,78.66,34a6.85,6.85,0,0,1,3.21-.77,5.5,5.5,0,0,1,2.95.75,5.36,5.36,0,0,1,1.82,1.78l-.18.42.27-2.46h2.58V45.48H86.52V42.42l.33.68a3.49,3.49,0,0,1-.57.72,6.74,6.74,0,0,1-1.07.9,6,6,0,0,1-3.49,1.05Zm.75-2.19a4.59,4.59,0,0,0,1.89-.37,3.62,3.62,0,0,0,1.39-1,3.93,3.93,0,0,0,.77-1.59v-2.3a3.56,3.56,0,0,0-.84-1.49,4.3,4.3,0,0,0-1.44-1,4.59,4.59,0,0,0-1.83-.35,4.23,4.23,0,0,0-2.07.51,3.91,3.91,0,0,0-1.49,1.42,4,4,0,0,0-.55,2.12,3.88,3.88,0,0,0,.57,2.07A4.07,4.07,0,0,0,80.4,43,4.15,4.15,0,0,0,82.47,43.58Z"/><path class="cls-2" d="M96.69,33.75l.21,2.86-.09-.45a4.45,4.45,0,0,1,1.92-2.09,6.18,6.18,0,0,1,3.15-.78,4.21,4.21,0,0,1,2.86,1,3.3,3.3,0,0,1,1.16,2.54v8.67h-2.82V37.71a2.33,2.33,0,0,0-.59-1.54,2.2,2.2,0,0,0-1.72-.61,3.52,3.52,0,0,0-1.94.57,3.87,3.87,0,0,0-1.38,1.56A5,5,0,0,0,97,40v5.5H94.14V33.75Z"/><path class="cls-2" d="M113.28,33.75l.21,2.86-.09-.45a4.45,4.45,0,0,1,1.92-2.09,6.18,6.18,0,0,1,3.15-.78,4.21,4.21,0,0,1,2.86,1,3.3,3.3,0,0,1,1.16,2.54v8.67h-2.82V37.71a2.33,2.33,0,0,0-.59-1.54,2.2,2.2,0,0,0-1.72-.61,3.52,3.52,0,0,0-1.94.57A3.87,3.87,0,0,0,114,37.69a5,5,0,0,0-.49,2.29v5.5h-2.82V33.75Z"/><path class="cls-2" d="M127.14,29.49a1.32,1.32,0,0,1,.52-1,1.82,1.82,0,0,1,1.16-.42,1.75,1.75,0,0,1,1.14.42,1.33,1.33,0,0,1,.51,1,1.28,1.28,0,0,1-.51,1.06,1.75,1.75,0,0,1-1.14.42,1.82,1.82,0,0,1-1.16-.42A1.27,1.27,0,0,1,127.14,29.49Zm.18,4.26h2.82V45.48h-2.82Z"/><path class="cls-2" d="M137.55,43l-1.31,3c-.43,1-.86,2-1.3,3h-2.31c.42-1,.82-2,1.2-3s.76-2,1.14-3Z"/><path class="cls-2" d="M150.54,23.54h2.82V45.48h-2.82Z"/><path class="cls-2" d="M163.38,45.77a7.06,7.06,0,0,1-3.17-.71A5.42,5.42,0,0,1,158,43a6.3,6.3,0,0,1-.84-3.36,6.39,6.39,0,0,1,.87-3.4A5.92,5.92,0,0,1,160.32,34a6.85,6.85,0,0,1,3.21-.77,5.5,5.5,0,0,1,2.95.75,5.36,5.36,0,0,1,1.82,1.78l-.18.42.27-2.46H171V45.48h-2.79V42.42l.33.68a3.49,3.49,0,0,1-.57.72,6.74,6.74,0,0,1-1.07.9,6,6,0,0,1-3.49,1.05Zm.75-2.19a4.59,4.59,0,0,0,1.89-.37,3.62,3.62,0,0,0,1.39-1,3.93,3.93,0,0,0,.77-1.59v-2.3a3.56,3.56,0,0,0-.84-1.49,4.3,4.3,0,0,0-1.44-1,4.59,4.59,0,0,0-1.83-.35A4.23,4.23,0,0,0,162,36a3.91,3.91,0,0,0-1.49,1.42A4,4,0,0,0,160,39.5a3.88,3.88,0,0,0,.57,2.07A4.07,4.07,0,0,0,162.06,43,4.15,4.15,0,0,0,164.13,43.58Z"/><path class="cls-2" d="M186.32,45.48V36.1h-2.16V33.72h2.16V28.78a5.69,5.69,0,0,1,1.22-3.91,4.58,4.58,0,0,1,3.61-1.36,6.49,6.49,0,0,1,1.38.17,3.58,3.58,0,0,1,1.32.57l-1.17,1.9a1.32,1.32,0,0,0-.57-.36,2.61,2.61,0,0,0-.69-.1,2.12,2.12,0,0,0-1.71.71,3.84,3.84,0,0,0-.6,2.44v4.88H193V36.1h-3.93v9.38Z"/><path class="cls-2" d="M201.23,45.77a7,7,0,0,1-3.16-.71A5.44,5.44,0,0,1,195.8,43a6.3,6.3,0,0,1-.84-3.36,6.39,6.39,0,0,1,.87-3.4A5.92,5.92,0,0,1,198.17,34a6.85,6.85,0,0,1,3.21-.77,5.54,5.54,0,0,1,3,.75,5.32,5.32,0,0,1,1.81,1.78l-.18.42.27-2.46h2.58V45.48H206V42.42l.33.68a3.49,3.49,0,0,1-.57.72,6.63,6.63,0,0,1-1.06.9,6.16,6.16,0,0,1-1.52.75A6.06,6.06,0,0,1,201.23,45.77Zm.75-2.19a4.59,4.59,0,0,0,1.89-.37,3.65,3.65,0,0,0,1.4-1,3.91,3.91,0,0,0,.76-1.59v-2.3a3.56,3.56,0,0,0-.84-1.49,4.3,4.3,0,0,0-1.44-1,4.59,4.59,0,0,0-1.83-.35,4.23,4.23,0,0,0-2.07.51,3.88,3.88,0,0,0-1.48,1.42,4,4,0,0,0-.56,2.12,3.88,3.88,0,0,0,.57,2.07A4.07,4.07,0,0,0,199.91,43,4.15,4.15,0,0,0,202,43.58Z"/><path class="cls-2" d="M216.2,33.75l.24,2.63-.15-.22a5.29,5.29,0,0,1,2-2.12,5.53,5.53,0,0,1,3-.78,4.81,4.81,0,0,1,1.83.33,3.58,3.58,0,0,1,1.34.91,2.74,2.74,0,0,1,.67,1.4l-.15.11a5.11,5.11,0,0,1,2-2,5.27,5.27,0,0,1,2.68-.73,4.06,4.06,0,0,1,2.9,1,3.48,3.48,0,0,1,1.12,2.52v8.7h-2.82V37.74a2.68,2.68,0,0,0-.46-1.51,1.8,1.8,0,0,0-1.52-.64,3.21,3.21,0,0,0-1.93.61,4,4,0,0,0-1.32,1.59,5.22,5.22,0,0,0-.5,2.14v5.55h-2.82V37.74a2.55,2.55,0,0,0-.49-1.51,1.89,1.89,0,0,0-1.55-.64,3.16,3.16,0,0,0-1.92.61A4.16,4.16,0,0,0,217,37.8a4.88,4.88,0,0,0-.48,2.16v5.52h-2.82V33.75Z"/><path class="cls-2" d="M238.22,29.49a1.33,1.33,0,0,1,.53-1A1.79,1.79,0,0,1,239.9,28a1.75,1.75,0,0,1,1.14.42,1.33,1.33,0,0,1,.51,1,1.28,1.28,0,0,1-.51,1.06,1.75,1.75,0,0,1-1.14.42,1.79,1.79,0,0,1-1.15-.42A1.28,1.28,0,0,1,238.22,29.49Zm.18,4.26h2.82V45.48H238.4Z"/><path class="cls-2" d="M252.08,51.32a8.61,8.61,0,0,1-2.44-.31,7.61,7.61,0,0,1-1.92-.85A17,17,0,0,1,246.05,49l1.65-1.81a9.2,9.2,0,0,0,2,1.33A5.29,5.29,0,0,0,252,49a5.86,5.86,0,0,0,2.39-.44,3.28,3.28,0,0,0,1.47-1.2,3.42,3.42,0,0,0,.52-1.79l0-3.17.24.51a4.6,4.6,0,0,1-1.95,2,6.57,6.57,0,0,1-3.42.84,6.27,6.27,0,0,1-3.12-.82,6.5,6.5,0,0,1-2.31-2.23,6.26,6.26,0,0,1,0-6.42,6.4,6.4,0,0,1,2.39-2.23,6.61,6.61,0,0,1,3.22-.81,7.14,7.14,0,0,1,3,.64,4.81,4.81,0,0,1,2,1.63l-.18.48.27-2.26h2.58V45.57a5.15,5.15,0,0,1-.85,2.89,6,6,0,0,1-2.46,2.08A8.62,8.62,0,0,1,252.08,51.32ZM247.79,39.5a3.81,3.81,0,0,0,.59,2.07A4.16,4.16,0,0,0,249.94,43a4.33,4.33,0,0,0,2.14.54,4.92,4.92,0,0,0,2-.38,4.09,4.09,0,0,0,1.48-1.06,4,4,0,0,0,.84-1.51V38.28a3.49,3.49,0,0,0-.9-1.47,4.75,4.75,0,0,0-1.5-1,5,5,0,0,0-1.92-.36,4.43,4.43,0,0,0-2.14.52,4.21,4.21,0,0,0-1.56,1.43A3.82,3.82,0,0,0,247.79,39.5Z"/><path class="cls-2" d="M264,23.54h2.82V45.48H264Z"/><path class="cls-2" d="M271.49,29.49a1.33,1.33,0,0,1,.53-1,1.79,1.79,0,0,1,1.15-.42,1.75,1.75,0,0,1,1.14.42,1.33,1.33,0,0,1,.51,1,1.28,1.28,0,0,1-.51,1.06,1.75,1.75,0,0,1-1.14.42,1.79,1.79,0,0,1-1.15-.42A1.28,1.28,0,0,1,271.49,29.49Zm.18,4.26h2.82V45.48h-2.82Z"/><path class="cls-2" d="M284.51,45.77a7,7,0,0,1-3.16-.71A5.44,5.44,0,0,1,279.08,43a6.3,6.3,0,0,1-.84-3.36,6.39,6.39,0,0,1,.87-3.4A5.92,5.92,0,0,1,281.45,34a6.85,6.85,0,0,1,3.21-.77,5.54,5.54,0,0,1,3,.75,5.32,5.32,0,0,1,1.81,1.78l-.18.42.27-2.46h2.58V45.48h-2.79V42.42l.33.68a3.49,3.49,0,0,1-.57.72,6.63,6.63,0,0,1-1.06.9,6.16,6.16,0,0,1-1.52.75A6.06,6.06,0,0,1,284.51,45.77Zm.75-2.19a4.59,4.59,0,0,0,1.89-.37,3.65,3.65,0,0,0,1.4-1,3.91,3.91,0,0,0,.76-1.59v-2.3a3.56,3.56,0,0,0-.84-1.49,4.3,4.3,0,0,0-1.44-1,4.59,4.59,0,0,0-1.83-.35,4.23,4.23,0,0,0-2.07.51,3.88,3.88,0,0,0-1.48,1.42,4,4,0,0,0-.56,2.12,3.88,3.88,0,0,0,.57,2.07A4.07,4.07,0,0,0,283.19,43,4.15,4.15,0,0,0,285.26,43.58Z"/><path class="cls-2" d="M311.48,45.77a6.23,6.23,0,0,1-3.12-.78,5.93,5.93,0,0,1-2.21-2.21,6.53,6.53,0,0,1-.82-3.31,6.15,6.15,0,0,1,.87-3.34A5.72,5.72,0,0,1,308.54,34a7.28,7.28,0,0,1,3.3-.74,6.79,6.79,0,0,1,2.81.6,5.05,5.05,0,0,1,2.08,1.64l-.15.94V23.54h2.79V45.48h-2.79V42.56l.33.74a7,7,0,0,1-5.43,2.47Zm.87-2.24a4.63,4.63,0,0,0,2-.4,4.22,4.22,0,0,0,1.45-1.06,3.85,3.85,0,0,0,.82-1.58V38.25a3.63,3.63,0,0,0-.85-1.5,4.43,4.43,0,0,0-1.47-1,5.08,5.08,0,0,0-1.91-.35,4.35,4.35,0,0,0-2.07.51,4,4,0,0,0-1.53,1.42,4.12,4.12,0,0,0,0,4.18A4.23,4.23,0,0,0,310.28,43,4.07,4.07,0,0,0,312.35,43.53Z"/><path class="cls-2" d="M324,29.49a1.3,1.3,0,0,1,.53-1A1.79,1.79,0,0,1,325.7,28a1.75,1.75,0,0,1,1.14.42,1.33,1.33,0,0,1,.51,1,1.28,1.28,0,0,1-.51,1.06,1.75,1.75,0,0,1-1.14.42,1.79,1.79,0,0,1-1.15-.42A1.25,1.25,0,0,1,324,29.49Zm.18,4.26H327V45.48H324.2Z"/><path class="cls-2" d="M339.89,45.48l9.45-21.35h.18L359,45.48h-3.33l-7.08-17,2.07-1.27-7.89,18.31Zm5.55-7.77h8.07l1,2.39H344.6Z"/><path class="cls-2" d="M362.36,45.48V23.54h2.76V36.47l-.06-.49A5,5,0,0,1,367,34.06a6.05,6.05,0,0,1,3.11-.77,4.21,4.21,0,0,1,2.86,1,3.3,3.3,0,0,1,1.16,2.54v8.67H371.3V37.71a2.33,2.33,0,0,0-.59-1.54,2.2,2.2,0,0,0-1.72-.61,3.45,3.45,0,0,0-1.94.58,4,4,0,0,0-1.38,1.57,5,5,0,0,0-.49,2.27v5.5Z"/><path class="cls-2" d="M381.5,33.75l.24,2.63-.15-.22a5.27,5.27,0,0,1,2-2.12,5.57,5.57,0,0,1,3-.78,4.81,4.81,0,0,1,1.83.33,3.54,3.54,0,0,1,1.33.91,2.75,2.75,0,0,1,.68,1.4l-.15.11a5.09,5.09,0,0,1,2-2,5.31,5.31,0,0,1,2.69-.73,4,4,0,0,1,2.89,1,3.49,3.49,0,0,1,1.13,2.52v8.7h-2.82V37.74a2.68,2.68,0,0,0-.47-1.51,1.78,1.78,0,0,0-1.51-.64,3.24,3.24,0,0,0-1.94.61,4,4,0,0,0-1.32,1.59,5.21,5.21,0,0,0-.49,2.14v5.55h-2.82V37.74a2.55,2.55,0,0,0-.5-1.51,1.87,1.87,0,0,0-1.54-.64,3.16,3.16,0,0,0-1.92.61,4.16,4.16,0,0,0-1.32,1.6,4.88,4.88,0,0,0-.48,2.16v5.52H379V33.75Z"/><path class="cls-2" d="M409.49,45.77a7.73,7.73,0,0,1-3.66-.81,6,6,0,0,1-2.37-2.21,6.16,6.16,0,0,1-.84-3.22,5.57,5.57,0,0,1,.94-3.15,7.05,7.05,0,0,1,2.51-2.27,7.23,7.23,0,0,1,3.48-.85,6.16,6.16,0,0,1,4.08,1.36,7,7,0,0,1,2.22,3.75l-10.26,3.4-.66-1.56,8.37-2.92-.57.4a3.79,3.79,0,0,0-1.2-1.62,3.39,3.39,0,0,0-2.19-.68,4,4,0,0,0-2,.51,3.74,3.74,0,0,0-1.39,1.4,4.15,4.15,0,0,0-.51,2.09,4.24,4.24,0,0,0,.52,2.12A3.63,3.63,0,0,0,407.4,43a4.36,4.36,0,0,0,2.15.53,4.45,4.45,0,0,0,1.57-.29,6.87,6.87,0,0,0,1.46-.73l1.26,2a8.92,8.92,0,0,1-2.09,1A7.57,7.57,0,0,1,409.49,45.77Z"/><path class="cls-2" d="M424.37,45.77a6.23,6.23,0,0,1-3.12-.78A5.86,5.86,0,0,1,419,42.78a6.53,6.53,0,0,1-.82-3.31,6.15,6.15,0,0,1,.87-3.34A5.72,5.72,0,0,1,421.43,34a7.28,7.28,0,0,1,3.3-.74,6.74,6.74,0,0,1,2.8.6,5,5,0,0,1,2.09,1.64l-.15.94V23.54h2.79V45.48h-2.79V42.56l.33.74a7,7,0,0,1-2.3,1.77A6.83,6.83,0,0,1,424.37,45.77Zm.87-2.24a4.67,4.67,0,0,0,2-.4,4.28,4.28,0,0,0,1.44-1.06,3.87,3.87,0,0,0,.83-1.58V38.25a3.65,3.65,0,0,0-.86-1.5,4.34,4.34,0,0,0-1.47-1,5,5,0,0,0-1.9-.35,4.35,4.35,0,0,0-2.07.51,4,4,0,0,0-1.53,1.42,4.12,4.12,0,0,0,0,4.18A4.23,4.23,0,0,0,423.17,43,4.07,4.07,0,0,0,425.24,43.53Z"/><path class="cls-2" d="M451.64,45.77a6.23,6.23,0,0,1-3.12-.78,5.86,5.86,0,0,1-2.21-2.21,6.53,6.53,0,0,1-.82-3.31,6.15,6.15,0,0,1,.87-3.34A5.72,5.72,0,0,1,448.7,34a7.28,7.28,0,0,1,3.3-.74,6.74,6.74,0,0,1,2.8.6,5,5,0,0,1,2.09,1.64l-.15.94V23.54h2.79V45.48h-2.79V42.56l.33.74a7,7,0,0,1-2.3,1.77A6.83,6.83,0,0,1,451.64,45.77Zm.87-2.24a4.67,4.67,0,0,0,2-.4,4.28,4.28,0,0,0,1.44-1.06,3.87,3.87,0,0,0,.83-1.58V38.25a3.65,3.65,0,0,0-.86-1.5,4.34,4.34,0,0,0-1.47-1,5,5,0,0,0-1.9-.35,4.35,4.35,0,0,0-2.07.51,4,4,0,0,0-1.53,1.42,4.12,4.12,0,0,0,0,4.18A4.23,4.23,0,0,0,450.44,43,4.07,4.07,0,0,0,452.51,43.53Z"/><path class="cls-2" d="M470.15,45.77a7.73,7.73,0,0,1-3.66-.81,6,6,0,0,1-2.37-2.21,6.16,6.16,0,0,1-.84-3.22,5.57,5.57,0,0,1,.94-3.15,7.05,7.05,0,0,1,2.51-2.27,7.23,7.23,0,0,1,3.48-.85,6.16,6.16,0,0,1,4.08,1.36,7,7,0,0,1,2.22,3.75l-10.26,3.4-.66-1.56L474,37.29l-.57.4a3.79,3.79,0,0,0-1.2-1.62,3.39,3.39,0,0,0-2.19-.68,4,4,0,0,0-2,.51,3.74,3.74,0,0,0-1.39,1.4,4.15,4.15,0,0,0-.51,2.09,4.24,4.24,0,0,0,.52,2.12A3.63,3.63,0,0,0,468.06,43a4.36,4.36,0,0,0,2.15.53,4.45,4.45,0,0,0,1.57-.29,6.87,6.87,0,0,0,1.46-.73l1.26,2a8.92,8.92,0,0,1-2.09,1A7.57,7.57,0,0,1,470.15,45.77Z"/><path class="cls-2" d="M490.07,44.38a6.55,6.55,0,0,1-2,1,8.18,8.18,0,0,1-5.9-.4,5.85,5.85,0,0,1-2.41-2.15,6,6,0,0,1-.87-3.26,5.67,5.67,0,0,1,.93-3.25,6.27,6.27,0,0,1,2.41-2.13,7.07,7.07,0,0,1,3.23-.75,8.74,8.74,0,0,1,2.65.38,6.26,6.26,0,0,1,2.06,1.1l-1.41,1.7a6.32,6.32,0,0,0-1.31-.7,4.7,4.7,0,0,0-1.75-.32,4,4,0,0,0-2,.52,3.85,3.85,0,0,0-1.44,1.42A4,4,0,0,0,483.74,43a4.45,4.45,0,0,0,2.22.54,4.54,4.54,0,0,0,1.45-.22,4.28,4.28,0,0,0,1.22-.63Z"/><path class="cls-2" d="M493.46,29.49a1.32,1.32,0,0,1,.52-1,1.82,1.82,0,0,1,1.16-.42,1.75,1.75,0,0,1,1.14.42,1.33,1.33,0,0,1,.51,1,1.28,1.28,0,0,1-.51,1.06,1.75,1.75,0,0,1-1.14.42,1.82,1.82,0,0,1-1.16-.42A1.27,1.27,0,0,1,493.46,29.49Zm.18,4.26h2.82V45.48h-2.82Z"/><path class="cls-2" d="M506.36,45.77a6.23,6.23,0,0,1-3.12-.78A5.86,5.86,0,0,1,501,42.78a6.53,6.53,0,0,1-.82-3.31,6.15,6.15,0,0,1,.87-3.34A5.72,5.72,0,0,1,503.42,34a7.28,7.28,0,0,1,3.3-.74,6.74,6.74,0,0,1,2.8.6,5,5,0,0,1,2.09,1.64l-.15.94V23.54h2.79V45.48h-2.79V42.56l.33.74a7,7,0,0,1-2.3,1.77A6.83,6.83,0,0,1,506.36,45.77Zm.87-2.24a4.67,4.67,0,0,0,2-.4,4.28,4.28,0,0,0,1.44-1.06,3.87,3.87,0,0,0,.83-1.58V38.25a3.65,3.65,0,0,0-.86-1.5,4.34,4.34,0,0,0-1.47-1,5,5,0,0,0-1.9-.35,4.35,4.35,0,0,0-2.07.51,4,4,0,0,0-1.53,1.42,4.12,4.12,0,0,0,0,4.18A4.23,4.23,0,0,0,505.16,43,4.07,4.07,0,0,0,507.23,43.53Z"/><path class="cls-2" d="M524.87,45.77a7.73,7.73,0,0,1-3.66-.81,6,6,0,0,1-2.37-2.21,6.16,6.16,0,0,1-.84-3.22,5.57,5.57,0,0,1,.94-3.15,7.05,7.05,0,0,1,2.51-2.27,7.23,7.23,0,0,1,3.48-.85A6.16,6.16,0,0,1,529,34.62a7,7,0,0,1,2.22,3.75L521,41.77l-.66-1.56,8.37-2.92-.57.4a3.79,3.79,0,0,0-1.2-1.62,3.39,3.39,0,0,0-2.19-.68,4,4,0,0,0-2,.51,3.74,3.74,0,0,0-1.39,1.4,4.15,4.15,0,0,0-.51,2.09,4.24,4.24,0,0,0,.52,2.12A3.63,3.63,0,0,0,522.78,43a4.36,4.36,0,0,0,2.15.53,4.45,4.45,0,0,0,1.57-.29,6.87,6.87,0,0,0,1.46-.73l1.26,2a8.92,8.92,0,0,1-2.09,1A7.57,7.57,0,0,1,524.87,45.77Z"/><path class="cls-2" d="M549.23,45.77A6.24,6.24,0,0,1,546.1,45a5.91,5.91,0,0,1-2.2-2.21,6.53,6.53,0,0,1-.82-3.31,6.07,6.07,0,0,1,.87-3.34A5.66,5.66,0,0,1,546.29,34a7.25,7.25,0,0,1,3.3-.74,6.78,6.78,0,0,1,2.8.6,5,5,0,0,1,2.09,1.64l-.15.94V23.54h2.79V45.48h-2.79V42.56l.33.74a7,7,0,0,1-2.3,1.77A6.83,6.83,0,0,1,549.23,45.77Zm.87-2.24a4.67,4.67,0,0,0,2-.4,4.28,4.28,0,0,0,1.44-1.06,3.87,3.87,0,0,0,.83-1.58V38.25a3.65,3.65,0,0,0-.86-1.5,4.34,4.34,0,0,0-1.47-1,5,5,0,0,0-1.9-.35,4.38,4.38,0,0,0-2.08.51,4,4,0,0,0-1.52,1.42,4.12,4.12,0,0,0,0,4.18A4.28,4.28,0,0,0,548,43,4.11,4.11,0,0,0,550.1,43.53Z"/><path class="cls-2" d="M561.77,29.49a1.32,1.32,0,0,1,.52-1,1.82,1.82,0,0,1,1.16-.42,1.77,1.77,0,0,1,1.14.42,1.33,1.33,0,0,1,.51,1,1.28,1.28,0,0,1-.51,1.06,1.77,1.77,0,0,1-1.14.42,1.82,1.82,0,0,1-1.16-.42A1.27,1.27,0,0,1,561.77,29.49Zm.18,4.26h2.82V45.48H562Z"/><path class="cls-2" d="M26.19,79.79A7.73,7.73,0,0,1,22.53,79a5.89,5.89,0,0,1-2.37-2.21,6.14,6.14,0,0,1-.84-3.22,5.53,5.53,0,0,1,.95-3.14,6.93,6.93,0,0,1,2.5-2.27,7.12,7.12,0,0,1,3.48-.85,6.11,6.11,0,0,1,4.08,1.36,6.89,6.89,0,0,1,2.22,3.74l-10.26,3.4-.66-1.56L30,71.31l-.57.4a3.91,3.91,0,0,0-1.2-1.62A3.39,3.39,0,0,0,26,69.41a3.94,3.94,0,0,0-2,.51,3.72,3.72,0,0,0-1.4,1.41,4.11,4.11,0,0,0-.51,2.08,4.29,4.29,0,0,0,.53,2.13A3.69,3.69,0,0,0,24.11,77a4.32,4.32,0,0,0,2.14.52,4.5,4.5,0,0,0,1.58-.28,7.34,7.34,0,0,0,1.45-.74l1.26,2a8.44,8.44,0,0,1-2.08,1A7.33,7.33,0,0,1,26.19,79.79Z"/><path class="cls-2" d="M38.55,67.77l.24,2.64-.15-.23a5.24,5.24,0,0,1,2-2.11,5.57,5.57,0,0,1,3-.78,5,5,0,0,1,1.83.32,3.66,3.66,0,0,1,1.34.91,2.91,2.91,0,0,1,.67,1.4l-.15.12a5.14,5.14,0,0,1,2-2,5.36,5.36,0,0,1,2.68-.72,4.07,4.07,0,0,1,2.89,1A3.49,3.49,0,0,1,56,70.8v8.71H53.13V71.77a2.79,2.79,0,0,0-.46-1.52,1.82,1.82,0,0,0-1.52-.64,3.26,3.26,0,0,0-1.93.61,4,4,0,0,0-1.32,1.59A5.1,5.1,0,0,0,47.4,74v5.56H44.58V71.77a2.58,2.58,0,0,0-.49-1.52,1.91,1.91,0,0,0-1.55-.64,3.23,3.23,0,0,0-1.92.61,4.23,4.23,0,0,0-1.32,1.6A4.92,4.92,0,0,0,38.82,74v5.53H36V67.77Z"/><path class="cls-2" d="M60.57,63.52a1.27,1.27,0,0,1,.53-1.05A1.73,1.73,0,0,1,62.25,62a1.71,1.71,0,0,1,1.14.43,1.35,1.35,0,0,1,0,2.11,1.79,1.79,0,0,1-1.14.41,1.82,1.82,0,0,1-1.15-.41A1.26,1.26,0,0,1,60.57,63.52Zm.18,4.25h2.82V79.51H60.75Z"/><path class="cls-2" d="M74.43,85.35A9.06,9.06,0,0,1,72,85a8,8,0,0,1-1.92-.85A17,17,0,0,1,68.4,83l1.65-1.81a8.85,8.85,0,0,0,2,1.33,5.29,5.29,0,0,0,2.28.48,5.65,5.65,0,0,0,2.38-.44,3.28,3.28,0,0,0,1.47-1.2,3.42,3.42,0,0,0,.53-1.79l0-3.17.24.51A4.62,4.62,0,0,1,77,79a6.66,6.66,0,0,1-3.42.83A6.17,6.17,0,0,1,70.5,79a6.41,6.41,0,0,1-2.31-2.23,5.86,5.86,0,0,1-.87-3.16,6,6,0,0,1,.9-3.26A6.35,6.35,0,0,1,70.6,68.1a6.65,6.65,0,0,1,3.23-.81,7.09,7.09,0,0,1,3,.63,4.84,4.84,0,0,1,2,1.63l-.18.49L79,67.77h2.58V79.59a5.14,5.14,0,0,1-.86,2.89,6,6,0,0,1-2.46,2.09A8.58,8.58,0,0,1,74.43,85.35ZM70.14,73.53a3.79,3.79,0,0,0,.58,2.06,4.18,4.18,0,0,0,1.56,1.48,4.37,4.37,0,0,0,2.15.54,4.87,4.87,0,0,0,2-.39,4,4,0,0,0,1.49-1.06,3.86,3.86,0,0,0,.84-1.5V72.31a3.59,3.59,0,0,0-.9-1.48,4.72,4.72,0,0,0-1.5-1,4.8,4.8,0,0,0-1.92-.37,4.47,4.47,0,0,0-2.15.52,4.16,4.16,0,0,0-1.56,1.44A3.76,3.76,0,0,0,70.14,73.53Z"/><path class="cls-2" d="M88.89,67.77l.27,3.4L89,70.69a5.09,5.09,0,0,1,1.38-1.81,6.65,6.65,0,0,1,1.92-1.17,5.7,5.7,0,0,1,1.74-.42L94,70a4.29,4.29,0,0,0-2.51.5A4.67,4.67,0,0,0,89.77,72a3.87,3.87,0,0,0-.61,2.11v5.36H86.37V67.77Z"/><path class="cls-2" d="M102.39,79.79a7.06,7.06,0,0,1-3.17-.71A5.39,5.39,0,0,1,97,77a7.11,7.11,0,0,1,0-6.76,5.87,5.87,0,0,1,2.34-2.19,6.84,6.84,0,0,1,3.21-.76,5.5,5.5,0,0,1,2.95.75,5.24,5.24,0,0,1,1.82,1.77l-.18.43.27-2.47H110V79.51h-2.79V76.45l.33.68a3.77,3.77,0,0,1-.57.72,7.3,7.3,0,0,1-1.07.89,6,6,0,0,1-3.49,1.05Zm.75-2.18a4.75,4.75,0,0,0,1.89-.37,3.74,3.74,0,0,0,1.39-1,3.81,3.81,0,0,0,.77-1.59V72.31a3.5,3.5,0,0,0-.84-1.49,4.19,4.19,0,0,0-1.44-1,4.77,4.77,0,0,0-1.83-.35A4.23,4.23,0,0,0,101,70a3.91,3.91,0,0,0-1.49,1.42A4,4,0,0,0,99,73.53a3.87,3.87,0,0,0,.57,2.06,4.1,4.1,0,0,0,1.53,1.48A4.15,4.15,0,0,0,103.14,77.61Z"/><path class="cls-2" d="M117.33,67.77l.27,3.4-.12-.48a5.09,5.09,0,0,1,1.38-1.81,6.65,6.65,0,0,1,1.92-1.17,5.7,5.7,0,0,1,1.74-.42L122.4,70a4.29,4.29,0,0,0-2.51.5A4.67,4.67,0,0,0,118.21,72a3.87,3.87,0,0,0-.61,2.11v5.36h-2.79V67.77Z"/><path class="cls-2" d="M131.34,79.79a7.73,7.73,0,0,1-3.66-.81,5.89,5.89,0,0,1-2.37-2.21,6.14,6.14,0,0,1-.84-3.22,5.52,5.52,0,0,1,.94-3.14,7,7,0,0,1,2.51-2.27,7.12,7.12,0,0,1,3.48-.85,6.11,6.11,0,0,1,4.08,1.36,6.89,6.89,0,0,1,2.22,3.74l-10.26,3.4-.66-1.56,8.37-2.92-.57.4a3.91,3.91,0,0,0-1.2-1.62,3.39,3.39,0,0,0-2.19-.68,4,4,0,0,0-2,.51,3.69,3.69,0,0,0-1.39,1.41,4.11,4.11,0,0,0-.51,2.08,4.28,4.28,0,0,0,.52,2.13A3.75,3.75,0,0,0,129.25,77a4.36,4.36,0,0,0,2.15.52,4.44,4.44,0,0,0,1.57-.28,7.42,7.42,0,0,0,1.46-.74l1.26,2a8.51,8.51,0,0,1-2.09,1A7.27,7.27,0,0,1,131.34,79.79Z"/><path class="cls-2" d="M155.7,79.79a6.23,6.23,0,0,1-3.12-.78,5.86,5.86,0,0,1-2.21-2.21,6.49,6.49,0,0,1-.82-3.3,6.19,6.19,0,0,1,.87-3.35A5.79,5.79,0,0,1,152.76,68a7.27,7.27,0,0,1,3.3-.73,6.9,6.9,0,0,1,2.8.59A5,5,0,0,1,161,69.53l-.15.93V57.56h2.79v22H160.8V76.59l.33.73a7.12,7.12,0,0,1-2.3,1.78A7,7,0,0,1,155.7,79.79Zm.87-2.24a4.52,4.52,0,0,0,2-.4A4.15,4.15,0,0,0,160,76.09a3.83,3.83,0,0,0,.83-1.57V72.28a3.63,3.63,0,0,0-.86-1.51,4.17,4.17,0,0,0-1.47-1,4.84,4.84,0,0,0-1.9-.36,4.35,4.35,0,0,0-2.07.51A4,4,0,0,0,153,71.34a4.12,4.12,0,0,0,0,4.18A4.26,4.26,0,0,0,154.5,77,4.06,4.06,0,0,0,156.57,77.55Z"/><path class="cls-2" d="M173.61,79.79a7.06,7.06,0,0,1-3.17-.71A5.39,5.39,0,0,1,168.18,77a7.11,7.11,0,0,1,0-6.76,5.87,5.87,0,0,1,2.34-2.19,6.84,6.84,0,0,1,3.21-.76,5.5,5.5,0,0,1,3,.75,5.24,5.24,0,0,1,1.82,1.77l-.18.43.27-2.47h2.58V79.51h-2.79V76.45l.33.68a3.77,3.77,0,0,1-.57.72,7.3,7.3,0,0,1-1.07.89,6,6,0,0,1-3.49,1.05Zm.75-2.18a4.75,4.75,0,0,0,1.89-.37,3.74,3.74,0,0,0,1.39-1,3.81,3.81,0,0,0,.77-1.59V72.31a3.5,3.5,0,0,0-.84-1.49,4.19,4.19,0,0,0-1.44-1,4.77,4.77,0,0,0-1.83-.35,4.23,4.23,0,0,0-2.07.51,3.91,3.91,0,0,0-1.49,1.42,4,4,0,0,0-.55,2.13,3.87,3.87,0,0,0,.57,2.06,4.1,4.1,0,0,0,1.53,1.48A4.15,4.15,0,0,0,174.36,77.61Z"/><path class="cls-2" d="M186,57.56h2.82v22H186Z"/><path class="cls-2" d="M203.88,79.51V58.36h0l11.37,15.28-1.23-.26,11.37-15h0V79.51h-2.91V64.59l.21,1.39-8.16,11h-.06l-8.31-11,.48-1.27v14.8Z"/><path class="cls-2" d="M236.15,79.79a7,7,0,0,1-3.16-.71A5.34,5.34,0,0,1,230.73,77a7.11,7.11,0,0,1,0-6.76,5.74,5.74,0,0,1,2.34-2.19,6.82,6.82,0,0,1,3.21-.76,5.53,5.53,0,0,1,2.95.75,5.21,5.21,0,0,1,1.81,1.77l-.17.43.26-2.47h2.58V79.51H241V76.45l.33.68a3.64,3.64,0,0,1-.56.72,7.3,7.3,0,0,1-1.07.89,6.26,6.26,0,0,1-1.51.75A6.12,6.12,0,0,1,236.15,79.79Zm.75-2.18a4.84,4.84,0,0,0,1.9-.37A3.7,3.7,0,0,0,241,74.6V72.31a3.4,3.4,0,0,0-.84-1.49,4.25,4.25,0,0,0-1.43-1,4.81,4.81,0,0,0-1.83-.35,4.27,4.27,0,0,0-2.08.51,3.88,3.88,0,0,0-1.48,1.42,4,4,0,0,0-.56,2.13,3.79,3.79,0,0,0,.58,2.06,4.07,4.07,0,0,0,1.52,1.48A4.18,4.18,0,0,0,236.9,77.61Z"/><path class="cls-2" d="M251.09,67.77l.27,3.4-.12-.48a5.09,5.09,0,0,1,1.38-1.81,6.65,6.65,0,0,1,1.92-1.17,5.7,5.7,0,0,1,1.74-.42L256.16,70a4.26,4.26,0,0,0-2.5.5A4.67,4.67,0,0,0,252,72a3.88,3.88,0,0,0-.62,2.11v5.36h-2.79V67.77Z"/><path class="cls-2" d="M258.23,73.53a5.86,5.86,0,0,1,.89-3.18,6.21,6.21,0,0,1,2.46-2.24,7.59,7.59,0,0,1,3.58-.82,7.34,7.34,0,0,1,3.54.82,6.08,6.08,0,0,1,2.39,2.24,6.35,6.35,0,0,1,0,6.35A6.2,6.2,0,0,1,268.7,79a7.41,7.41,0,0,1-3.57.83,7.76,7.76,0,0,1-3.55-.78,6.16,6.16,0,0,1-2.45-2.18A6,6,0,0,1,258.23,73.53Zm2.82,0a4,4,0,0,0,.54,2.06A4.11,4.11,0,0,0,263,77.07a3.89,3.89,0,0,0,2,.54,3.94,3.94,0,0,0,2.07-.54,4,4,0,0,0,1.43-1.46A4.15,4.15,0,0,0,267.14,70a3.86,3.86,0,0,0-2.07-.55A3.79,3.79,0,0,0,263,70a4.11,4.11,0,0,0-1.44,1.49A4,4,0,0,0,261.05,73.55Z"/><path class="cls-2" d="M285.77,78.4a6.14,6.14,0,0,1-2,1,7.62,7.62,0,0,1-2.34.37,7.89,7.89,0,0,1-3.55-.76,5.84,5.84,0,0,1-2.42-2.16,6,6,0,0,1-.87-3.26,5.67,5.67,0,0,1,.93-3.25,6.35,6.35,0,0,1,2.42-2.12,7,7,0,0,1,3.22-.75,8.5,8.5,0,0,1,2.66.38A6.19,6.19,0,0,1,285.86,69l-1.41,1.7a6.23,6.23,0,0,0-1.3-.69,4.56,4.56,0,0,0-1.76-.33,4,4,0,0,0-2,.53,3.82,3.82,0,0,0-1.44,1.41,3.94,3.94,0,0,0-.53,2,3.83,3.83,0,0,0,.54,2,4,4,0,0,0,1.5,1.45,4.45,4.45,0,0,0,2.22.54,4.61,4.61,0,0,0,1.46-.23,4.46,4.46,0,0,0,1.21-.62Z"/><path class="cls-2" d="M299.45,78.4a6.14,6.14,0,0,1-2,1,7.62,7.62,0,0,1-2.34.37,7.89,7.89,0,0,1-3.55-.76,5.84,5.84,0,0,1-2.42-2.16,6,6,0,0,1-.87-3.26,5.67,5.67,0,0,1,.93-3.25,6.35,6.35,0,0,1,2.42-2.12,7,7,0,0,1,3.22-.75,8.5,8.5,0,0,1,2.66.38A6.19,6.19,0,0,1,299.54,69l-1.41,1.7a6.23,6.23,0,0,0-1.3-.69,4.56,4.56,0,0,0-1.76-.33,4,4,0,0,0-2,.53,3.82,3.82,0,0,0-1.44,1.41,3.94,3.94,0,0,0-.53,2,3.83,3.83,0,0,0,.54,2,4,4,0,0,0,1.5,1.45,4.45,4.45,0,0,0,2.22.54,4.61,4.61,0,0,0,1.46-.23,4.46,4.46,0,0,0,1.21-.62Z"/><path class="cls-2" d="M301.94,73.53a5.86,5.86,0,0,1,.89-3.18,6.21,6.21,0,0,1,2.46-2.24,7.59,7.59,0,0,1,3.58-.82,7.34,7.34,0,0,1,3.54.82,6.08,6.08,0,0,1,2.39,2.24,6.35,6.35,0,0,1,0,6.35A6.2,6.2,0,0,1,312.41,79a7.41,7.41,0,0,1-3.57.83,7.76,7.76,0,0,1-3.55-.78,6.16,6.16,0,0,1-2.45-2.18A6,6,0,0,1,301.94,73.53Zm2.82,0a4,4,0,0,0,.54,2.06,4.11,4.11,0,0,0,1.44,1.46,3.89,3.89,0,0,0,2,.54,3.94,3.94,0,0,0,2.07-.54,4,4,0,0,0,1.43-1.46A4.15,4.15,0,0,0,310.85,70a3.86,3.86,0,0,0-2.07-.55,3.79,3.79,0,0,0-2,.57,4.11,4.11,0,0,0-1.44,1.49A4,4,0,0,0,304.76,73.55Z"/><path class="cls-2" d="M336.2,79.79a6.28,6.28,0,0,1-2.71-.62,4.84,4.84,0,0,1-2-1.68l.15-.82v8.48h-2.79V67.6h2.43l.39,3-.3-.85A7.27,7.27,0,0,1,333.65,68a6.81,6.81,0,0,1,3.09-.69,6.33,6.33,0,0,1,3.14.78,5.63,5.63,0,0,1,2.2,2.21,6.62,6.62,0,0,1,.81,3.33,6.05,6.05,0,0,1-.87,3.27A5.72,5.72,0,0,1,339.64,79,7.66,7.66,0,0,1,336.2,79.79Zm-.54-2.1a4.6,4.6,0,0,0,2.19-.52,4.32,4.32,0,0,0,1.61-1.45,3.65,3.65,0,0,0,.61-2.08,3.9,3.9,0,0,0-.57-2.11A4,4,0,0,0,338,70.08a4.3,4.3,0,0,0-2.12-.53,4.72,4.72,0,0,0-1.95.39A3.86,3.86,0,0,0,332.48,71a4.06,4.06,0,0,0-.81,1.62v2a3.38,3.38,0,0,0,.72,1.56,4.06,4.06,0,0,0,1.43,1.12A4.1,4.1,0,0,0,335.66,77.69Z"/><path class="cls-2" d="M352.43,79.79a7.73,7.73,0,0,1-3.66-.81,5.89,5.89,0,0,1-2.37-2.21,6.14,6.14,0,0,1-.84-3.22,5.53,5.53,0,0,1,.95-3.14,6.93,6.93,0,0,1,2.5-2.27,7.12,7.12,0,0,1,3.48-.85,6.11,6.11,0,0,1,4.08,1.36,6.89,6.89,0,0,1,2.22,3.74l-10.26,3.4-.66-1.56,8.37-2.92-.57.4a3.91,3.91,0,0,0-1.2-1.62,3.39,3.39,0,0,0-2.19-.68,4,4,0,0,0-2,.51,3.72,3.72,0,0,0-1.4,1.41,4.11,4.11,0,0,0-.51,2.08,4.29,4.29,0,0,0,.53,2.13A3.75,3.75,0,0,0,350.35,77a4.32,4.32,0,0,0,2.14.52,4.5,4.5,0,0,0,1.58-.28,7.34,7.34,0,0,0,1.45-.74l1.26,2a8.44,8.44,0,0,1-2.08,1A7.33,7.33,0,0,1,352.43,79.79Z"/><path class="cls-2" d="M364.76,67.77l.27,3.4-.12-.48a5.09,5.09,0,0,1,1.38-1.81,6.65,6.65,0,0,1,1.92-1.17,5.7,5.7,0,0,1,1.74-.42L369.83,70a4.26,4.26,0,0,0-2.5.5A4.67,4.67,0,0,0,365.65,72a3.88,3.88,0,0,0-.62,2.11v5.36h-2.79V67.77Z"/><path class="cls-2" d="M393.11,78.4a6.14,6.14,0,0,1-2,1,7.62,7.62,0,0,1-2.34.37,7.86,7.86,0,0,1-3.55-.76,5.78,5.78,0,0,1-2.42-2.16,6,6,0,0,1-.87-3.26,5.67,5.67,0,0,1,.93-3.25,6.28,6.28,0,0,1,2.42-2.12,7,7,0,0,1,3.22-.75,8.55,8.55,0,0,1,2.66.38A6.19,6.19,0,0,1,393.2,69l-1.41,1.7a6.08,6.08,0,0,0-1.31-.69,4.51,4.51,0,0,0-1.75-.33,4,4,0,0,0-2,.53,3.75,3.75,0,0,0-1.44,1.41,4.08,4.08,0,0,0,0,4,4,4,0,0,0,1.5,1.45,4.45,4.45,0,0,0,2.22.54,4.49,4.49,0,0,0,2.67-.85Z"/><path class="cls-2" d="M402.47,79.79a7.73,7.73,0,0,1-3.66-.81,5.89,5.89,0,0,1-2.37-2.21,6.14,6.14,0,0,1-.84-3.22,5.52,5.52,0,0,1,.94-3.14,7,7,0,0,1,2.51-2.27,7.12,7.12,0,0,1,3.48-.85,6.11,6.11,0,0,1,4.08,1.36,6.89,6.89,0,0,1,2.22,3.74l-10.26,3.4-.66-1.56,8.37-2.92-.57.4a3.91,3.91,0,0,0-1.2-1.62,3.39,3.39,0,0,0-2.19-.68,4,4,0,0,0-2,.51,3.69,3.69,0,0,0-1.39,1.41,4.11,4.11,0,0,0-.51,2.08,4.28,4.28,0,0,0,.52,2.13A3.71,3.71,0,0,0,400.39,77a4.32,4.32,0,0,0,2.14.52,4.4,4.4,0,0,0,1.57-.28,7.42,7.42,0,0,0,1.46-.74l1.26,2a8.51,8.51,0,0,1-2.09,1A7.27,7.27,0,0,1,402.47,79.79Z"/><path class="cls-2" d="M414.8,67.77l.27,3.4-.12-.48a5.09,5.09,0,0,1,1.38-1.81,6.65,6.65,0,0,1,1.92-1.17,5.7,5.7,0,0,1,1.74-.42L419.87,70a4.29,4.29,0,0,0-2.51.5A4.67,4.67,0,0,0,415.68,72a3.87,3.87,0,0,0-.61,2.11v5.36h-2.79V67.77Z"/><path class="cls-2" d="M433.13,78.4a6.14,6.14,0,0,1-2,1,7.62,7.62,0,0,1-2.34.37,7.93,7.93,0,0,1-3.56-.76,5.81,5.81,0,0,1-2.41-2.16,6,6,0,0,1-.87-3.26,5.67,5.67,0,0,1,.93-3.25,6.32,6.32,0,0,1,2.41-2.12,7.07,7.07,0,0,1,3.23-.75,8.44,8.44,0,0,1,2.65.38A6.24,6.24,0,0,1,433.22,69l-1.41,1.7A6.33,6.33,0,0,0,430.5,70a4.51,4.51,0,0,0-1.75-.33,4,4,0,0,0-2,.53,3.82,3.82,0,0,0-1.44,1.41,3.93,3.93,0,0,0-.52,2,3.83,3.83,0,0,0,.54,2,4,4,0,0,0,1.5,1.45,4.45,4.45,0,0,0,2.22.54,4.55,4.55,0,0,0,2.67-.85Z"/><path class="cls-2" d="M441.89,79.79a7.06,7.06,0,0,1-3.17-.71A5.39,5.39,0,0,1,436.46,77a7.11,7.11,0,0,1,0-6.76,5.87,5.87,0,0,1,2.34-2.19,6.84,6.84,0,0,1,3.21-.76A5.5,5.5,0,0,1,445,68a5.24,5.24,0,0,1,1.82,1.77l-.18.43.27-2.47h2.58V79.51h-2.79V76.45l.33.68a3.77,3.77,0,0,1-.57.72,7.3,7.3,0,0,1-1.07.89,6,6,0,0,1-3.49,1.05Zm.75-2.18a4.75,4.75,0,0,0,1.89-.37,3.74,3.74,0,0,0,1.39-1,3.81,3.81,0,0,0,.77-1.59V72.31a3.5,3.5,0,0,0-.84-1.49,4.19,4.19,0,0,0-1.44-1,4.77,4.77,0,0,0-1.83-.35,4.23,4.23,0,0,0-2.07.51A3.91,3.91,0,0,0,439,71.4a4,4,0,0,0-.55,2.13,3.87,3.87,0,0,0,.57,2.06,4.1,4.1,0,0,0,1.53,1.48A4.15,4.15,0,0,0,442.64,77.61Z"/><path class="cls-2" d="M456.83,67.77l.27,3.4-.12-.48a5.09,5.09,0,0,1,1.38-1.81,6.65,6.65,0,0,1,1.92-1.17,5.7,5.7,0,0,1,1.74-.42L461.9,70a4.29,4.29,0,0,0-2.51.5A4.67,4.67,0,0,0,457.71,72a3.87,3.87,0,0,0-.61,2.11v5.36h-2.79V67.77Z"/><path class="cls-2" d="M470.84,79.79a7.73,7.73,0,0,1-3.66-.81,5.89,5.89,0,0,1-2.37-2.21,6.14,6.14,0,0,1-.84-3.22,5.52,5.52,0,0,1,.94-3.14,7,7,0,0,1,2.51-2.27,7.12,7.12,0,0,1,3.48-.85A6.11,6.11,0,0,1,475,68.65a6.89,6.89,0,0,1,2.22,3.74l-10.26,3.4-.66-1.56,8.37-2.92-.57.4a3.91,3.91,0,0,0-1.2-1.62,3.39,3.39,0,0,0-2.19-.68,4,4,0,0,0-2,.51,3.69,3.69,0,0,0-1.39,1.41,4.11,4.11,0,0,0-.51,2.08,4.28,4.28,0,0,0,.52,2.13A3.75,3.75,0,0,0,468.75,77a4.36,4.36,0,0,0,2.15.52,4.44,4.44,0,0,0,1.57-.28,7.42,7.42,0,0,0,1.46-.74l1.26,2a8.51,8.51,0,0,1-2.09,1A7.27,7.27,0,0,1,470.84,79.79Z"/><path class="cls-2" d="M492.68,67.77l.24,2.64-.15-.23a5.24,5.24,0,0,1,2-2.11,5.57,5.57,0,0,1,3-.78,5,5,0,0,1,1.83.32,3.54,3.54,0,0,1,1.33.91,2.83,2.83,0,0,1,.68,1.4l-.15.12a5.11,5.11,0,0,1,2-2,5.4,5.4,0,0,1,2.69-.72,4.07,4.07,0,0,1,2.89,1,3.49,3.49,0,0,1,1.13,2.52v8.71h-2.82V71.77a2.71,2.71,0,0,0-.47-1.52,1.78,1.78,0,0,0-1.51-.64,3.31,3.31,0,0,0-1.94.61A4.09,4.09,0,0,0,502,71.81a5.25,5.25,0,0,0-.49,2.14v5.56h-2.82V71.77a2.58,2.58,0,0,0-.5-1.52,1.87,1.87,0,0,0-1.54-.64,3.23,3.23,0,0,0-1.92.61,4.23,4.23,0,0,0-1.32,1.6A4.92,4.92,0,0,0,493,74v5.53h-2.82V67.77Z"/><path class="cls-2" d="M514.7,63.52a1.29,1.29,0,0,1,.52-1.05,1.78,1.78,0,0,1,1.16-.43,1.71,1.71,0,0,1,1.14.43,1.35,1.35,0,0,1,0,2.11,1.79,1.79,0,0,1-1.14.41,1.87,1.87,0,0,1-1.16-.41A1.28,1.28,0,0,1,514.7,63.52Zm.18,4.25h2.82V79.51h-2.82Z"/><path class="cls-2" d="M528.56,85.35a9.06,9.06,0,0,1-2.45-.31,8,8,0,0,1-1.92-.85,17,17,0,0,1-1.66-1.2l1.65-1.81a8.85,8.85,0,0,0,2,1.33,5.29,5.29,0,0,0,2.28.48,5.65,5.65,0,0,0,2.38-.44,3.28,3.28,0,0,0,1.47-1.2,3.42,3.42,0,0,0,.53-1.79l0-3.17.24.51a4.62,4.62,0,0,1-2,2.06,6.66,6.66,0,0,1-3.42.83,6.17,6.17,0,0,1-3.12-.82,6.41,6.41,0,0,1-2.31-2.23,5.86,5.86,0,0,1-.87-3.16,6,6,0,0,1,.9-3.26,6.35,6.35,0,0,1,2.38-2.22,6.65,6.65,0,0,1,3.23-.81,7.09,7.09,0,0,1,3,.63,4.84,4.84,0,0,1,2,1.63l-.18.49.27-2.27h2.58V79.59a5.14,5.14,0,0,1-.86,2.89,6,6,0,0,1-2.46,2.09A8.58,8.58,0,0,1,528.56,85.35Zm-4.29-11.82a3.79,3.79,0,0,0,.58,2.06,4.18,4.18,0,0,0,1.56,1.48,4.37,4.37,0,0,0,2.15.54,4.87,4.87,0,0,0,2-.39A4,4,0,0,0,532,76.16a3.86,3.86,0,0,0,.84-1.5V72.31a3.59,3.59,0,0,0-.9-1.48,4.72,4.72,0,0,0-1.5-1,4.8,4.8,0,0,0-1.92-.37,4.47,4.47,0,0,0-2.15.52,4.16,4.16,0,0,0-1.56,1.44A3.76,3.76,0,0,0,524.27,73.53Z"/><path class="cls-2" d="M540.5,57.56h2.82v22H540.5Z"/><path class="cls-2" d="M548,63.52a1.29,1.29,0,0,1,.52-1.05,1.78,1.78,0,0,1,1.16-.43,1.73,1.73,0,0,1,1.14.43,1.35,1.35,0,0,1,0,2.11,1.81,1.81,0,0,1-1.14.41,1.87,1.87,0,0,1-1.16-.41A1.28,1.28,0,0,1,548,63.52Zm.18,4.25H551V79.51h-2.82Z"/><path class="cls-2" d="M554.72,73.53a5.85,5.85,0,0,1,.88-3.18,6.21,6.21,0,0,1,2.46-2.24,7.63,7.63,0,0,1,3.59-.82,7.37,7.37,0,0,1,3.54.82,6.12,6.12,0,0,1,2.38,2.24,6.29,6.29,0,0,1,0,6.35A6.24,6.24,0,0,1,565.19,79a7.42,7.42,0,0,1-3.58.83,7.76,7.76,0,0,1-3.55-.78,6.23,6.23,0,0,1-2.45-2.18A6.08,6.08,0,0,1,554.72,73.53Zm2.81,0a4,4,0,0,0,2,3.52,3.84,3.84,0,0,0,2,.54,3.89,3.89,0,0,0,3.49-2,4.32,4.32,0,0,0,0-4.11A4,4,0,0,0,563.63,70a3.88,3.88,0,0,0-2.07-.55,3.8,3.8,0,0,0-2.06.57,4.11,4.11,0,0,0-1.44,1.49A4,4,0,0,0,557.53,73.55Z"/><path class="cls-2" d="M574.66,67.77l.28,3.4-.13-.48a5.09,5.09,0,0,1,1.38-1.81,6.65,6.65,0,0,1,1.92-1.17,5.7,5.7,0,0,1,1.74-.42L579.73,70a4.26,4.26,0,0,0-2.5.5A4.67,4.67,0,0,0,575.55,72a3.87,3.87,0,0,0-.61,2.11v5.36h-2.79V67.77Z"/><path class="cls-2" d="M583.24,63.52a1.3,1.3,0,0,1,.53-1.05,1.75,1.75,0,0,1,1.15-.43,1.71,1.71,0,0,1,1.14.43,1.35,1.35,0,0,1,0,2.11,1.79,1.79,0,0,1-1.14.41,1.84,1.84,0,0,1-1.15-.41A1.29,1.29,0,0,1,583.24,63.52Zm.18,4.25h2.82V79.51h-2.82Z"/><path class="cls-2" d="M19.32,107.55a5.91,5.91,0,0,1,.89-3.18,6.28,6.28,0,0,1,2.46-2.24,7.59,7.59,0,0,1,3.58-.82,7.34,7.34,0,0,1,3.54.82,6.15,6.15,0,0,1,2.39,2.24,6.06,6.06,0,0,1,.85,3.18,6,6,0,0,1-.85,3.17A6.2,6.2,0,0,1,29.79,113a7.3,7.3,0,0,1-3.57.83,7.89,7.89,0,0,1-3.55-.77,6.11,6.11,0,0,1-2.45-2.19A6,6,0,0,1,19.32,107.55Zm2.82,0a4,4,0,0,0,.54,2,4,4,0,0,0,1.44,1.46,3.89,3.89,0,0,0,2,.54,3.92,3.92,0,0,0,3.5-2,4.32,4.32,0,0,0,0-4.11,4.11,4.11,0,0,0-1.43-1.47,3.87,3.87,0,0,0-2.07-.56,3.79,3.79,0,0,0-2.05.57,4.19,4.19,0,0,0-1.44,1.49A3.92,3.92,0,0,0,22.14,107.58Z"/><path class="cls-2" d="M44.1,113.81a6.14,6.14,0,0,1-2.71-.62,4.75,4.75,0,0,1-2-1.67l.15-.82v8.47H36.75V101.62h2.43l.39,3-.3-.85A7,7,0,0,1,41.55,102a6.69,6.69,0,0,1,3.09-.7,6.27,6.27,0,0,1,3.13.78A5.66,5.66,0,0,1,50,104.3a6.68,6.68,0,0,1,.81,3.33,6.11,6.11,0,0,1-.87,3.28,5.79,5.79,0,0,1-2.39,2.15A7.62,7.62,0,0,1,44.1,113.81Zm-.54-2.09a4.6,4.6,0,0,0,2.19-.53,4.35,4.35,0,0,0,1.6-1.44,3.62,3.62,0,0,0,.62-2.09,3.92,3.92,0,0,0-.57-2.11,4.12,4.12,0,0,0-1.51-1.45,4.3,4.3,0,0,0-2.12-.52,4.88,4.88,0,0,0-2,.38A3.89,3.89,0,0,0,40.38,105a4,4,0,0,0-.81,1.61v2a3.47,3.47,0,0,0,.72,1.56,4.19,4.19,0,0,0,3.27,1.53Z"/><path class="cls-2" d="M61.89,113.81a6.14,6.14,0,0,1-2.71-.62,4.75,4.75,0,0,1-2-1.67l.15-.82v8.47H54.54V101.62H57l.39,3-.3-.85A7,7,0,0,1,59.34,102a6.69,6.69,0,0,1,3.09-.7,6.27,6.27,0,0,1,3.13.78,5.66,5.66,0,0,1,2.21,2.21,6.68,6.68,0,0,1,.81,3.33,6.11,6.11,0,0,1-.87,3.28,5.79,5.79,0,0,1-2.39,2.15A7.62,7.62,0,0,1,61.89,113.81Zm-.54-2.09a4.6,4.6,0,0,0,2.19-.53,4.46,4.46,0,0,0,1.61-1.44,3.69,3.69,0,0,0,.61-2.09,3.92,3.92,0,0,0-.57-2.11,4.12,4.12,0,0,0-1.51-1.45,4.3,4.3,0,0,0-2.12-.52,4.88,4.88,0,0,0-2,.38A3.89,3.89,0,0,0,58.17,105a4,4,0,0,0-.81,1.61v2a3.47,3.47,0,0,0,.72,1.56,4.19,4.19,0,0,0,3.27,1.53Z"/><path class="cls-2" d="M71.25,107.55a5.91,5.91,0,0,1,.89-3.18,6.28,6.28,0,0,1,2.46-2.24,7.59,7.59,0,0,1,3.58-.82,7.34,7.34,0,0,1,3.54.82,6.05,6.05,0,0,1,2.38,2.24,6.29,6.29,0,0,1,0,6.35A6.1,6.1,0,0,1,81.72,113a7.3,7.3,0,0,1-3.57.83A7.89,7.89,0,0,1,74.6,113a6,6,0,0,1-2.45-2.19A6,6,0,0,1,71.25,107.55Zm2.82,0a4,4,0,0,0,.54,2,4,4,0,0,0,1.44,1.46,3.89,3.89,0,0,0,2,.54,3.94,3.94,0,0,0,2.07-.54,4,4,0,0,0,1.43-1.46,4.32,4.32,0,0,0,0-4.11,4.19,4.19,0,0,0-1.43-1.47,3.87,3.87,0,0,0-2.07-.56,3.79,3.79,0,0,0-2,.57,4.11,4.11,0,0,0-1.44,1.49A3.92,3.92,0,0,0,74.07,107.58Z"/><path class="cls-2" d="M91.2,101.79l.27,3.41-.12-.49a5.17,5.17,0,0,1,1.38-1.81,6.61,6.61,0,0,1,1.92-1.16,5.47,5.47,0,0,1,1.74-.43L96.27,104a4.24,4.24,0,0,0-2.5.49,4.71,4.71,0,0,0-1.69,1.59,3.89,3.89,0,0,0-.61,2.11v5.36H88.68V101.79Z"/><path class="cls-2" d="M101.16,96.63H104v5.22h3.39v2.07H104v9.61h-2.85v-9.61H98.91v-2.07h2.25Z"/><path class="cls-2" d="M114.75,114a4.11,4.11,0,0,1-2.84-1,3.45,3.45,0,0,1-1.15-2.54v-8.68h2.82v7.74a2.5,2.5,0,0,0,.6,1.55,2.2,2.2,0,0,0,1.68.64,3.1,3.1,0,0,0,1.84-.59,4.18,4.18,0,0,0,1.34-1.58,5,5,0,0,0,.51-2.28v-5.48h2.79v11.74h-2.55l-.24-2.89.18.54a4.69,4.69,0,0,1-1.11,1.43,5.37,5.37,0,0,1-1.73,1A6.28,6.28,0,0,1,114.75,114Z"/><path class="cls-2" d="M129.69,101.79l.21,2.87-.09-.46a4.43,4.43,0,0,1,1.92-2.08,6.18,6.18,0,0,1,3.15-.78,4.21,4.21,0,0,1,2.86,1,3.3,3.3,0,0,1,1.16,2.54v8.67h-2.82v-7.77a2.31,2.31,0,0,0-.59-1.54,2.2,2.2,0,0,0-1.72-.61,3.59,3.59,0,0,0-1.94.56,3.87,3.87,0,0,0-1.38,1.56A5.12,5.12,0,0,0,130,108v5.5h-2.82V101.79Z"/><path class="cls-2" d="M143.55,97.54a1.3,1.3,0,0,1,.52-1.05,1.82,1.82,0,0,1,1.16-.42,1.75,1.75,0,0,1,1.14.42,1.32,1.32,0,0,1,.51,1.05,1.3,1.3,0,0,1-.51,1.06,1.74,1.74,0,0,1-1.14.41,1.81,1.81,0,0,1-1.16-.41A1.28,1.28,0,0,1,143.55,97.54Zm.18,4.25h2.82v11.74h-2.82Z"/><path class="cls-2" d="M152.58,96.63h2.85v5.22h3.39v2.07h-3.39v9.61h-2.85v-9.61h-2.25v-2.07h2.25Z"/><path class="cls-2" d="M167.37,113.81a7.06,7.06,0,0,1-3.17-.7,5.48,5.48,0,0,1-2.26-2.09,6.3,6.3,0,0,1-.84-3.36,6.39,6.39,0,0,1,.87-3.4,5.85,5.85,0,0,1,2.34-2.18,6.85,6.85,0,0,1,3.21-.77,5.5,5.5,0,0,1,2.95.75,5.24,5.24,0,0,1,1.82,1.77l-.18.43.27-2.47H175v11.74h-2.79v-3.06l.33.68a3.49,3.49,0,0,1-.57.72,7.32,7.32,0,0,1-1.07.9,6.08,6.08,0,0,1-1.51.75A6.35,6.35,0,0,1,167.37,113.81Zm.75-2.18a4.59,4.59,0,0,0,1.89-.37,3.54,3.54,0,0,0,1.39-1.05,3.83,3.83,0,0,0,.77-1.58v-2.3a3.56,3.56,0,0,0-.84-1.49,4.16,4.16,0,0,0-1.44-1,4.6,4.6,0,0,0-1.83-.36A4.23,4.23,0,0,0,166,104a4,4,0,0,0-1.49,1.42,4,4,0,0,0-.55,2.13,3.93,3.93,0,0,0,.57,2.07,4.22,4.22,0,0,0,3.6,2Zm-3.51-16h3.09l2.19,3.8h-1.77Z"/><path class="cls-2" d="M178.9,111a1.6,1.6,0,0,1,1.1-.45,1.52,1.52,0,0,1,1,.45,1.41,1.41,0,0,1,.5,1.08,1.35,1.35,0,0,1-.5,1.09,1.61,1.61,0,0,1-1,.41,1.71,1.71,0,0,1-1.1-.41,1.34,1.34,0,0,1-.49-1.09A1.4,1.4,0,0,1,178.9,111Z"/><path class="cls-2" d="M26.91,127.06a9.89,9.89,0,0,1,4.05.75,5.86,5.86,0,0,1,2.6,2.17,6.16,6.16,0,0,1,.91,3.43,7.53,7.53,0,0,1-.39,2.39,5.88,5.88,0,0,1-1.24,2.13,6.26,6.26,0,0,1-2.24,1.53,8.61,8.61,0,0,1-3.36.58H24v7.51H21.12V127.06Zm.3,10.29a5.07,5.07,0,0,0,2.13-.39,3.31,3.31,0,0,0,1.32-1,4.22,4.22,0,0,0,.69-1.28,4,4,0,0,0,.21-1.22,4.34,4.34,0,0,0-.21-1.29,3.34,3.34,0,0,0-.7-1.22,3.77,3.77,0,0,0-1.29-.9,4.78,4.78,0,0,0-2-.36H24v7.66Z"/><path class="cls-2" d="M42.24,148a4.14,4.14,0,0,1-2.84-1,3.43,3.43,0,0,1-1.15-2.54v-8.67h2.82v7.74a2.48,2.48,0,0,0,.6,1.54,2.2,2.2,0,0,0,1.68.64,3.07,3.07,0,0,0,1.84-.58,4.29,4.29,0,0,0,1.34-1.59,5,5,0,0,0,.51-2.28v-5.47h2.79v11.73H47.28L47,144.66l.18.54a4.57,4.57,0,0,1-1.11,1.43,5.32,5.32,0,0,1-1.72,1A6.15,6.15,0,0,1,42.24,148Z"/><path class="cls-2" d="M57.15,135.82l.27,3.4-.12-.48a5.21,5.21,0,0,1,1.38-1.82,6.84,6.84,0,0,1,1.92-1.16,5.76,5.76,0,0,1,1.74-.43L62.22,138a4.17,4.17,0,0,0-2.5.5A4.6,4.6,0,0,0,58,140.08a3.93,3.93,0,0,0-.61,2.12v5.35H54.63V135.82Z"/><path class="cls-2" d="M67.11,130.66H70v5.21h3.39v2.07H70v9.61H67.11v-9.61H64.86v-2.07h2.25Z"/><path class="cls-2" d="M79.23,135.82l.27,3.4-.12-.48a5.21,5.21,0,0,1,1.38-1.82,6.84,6.84,0,0,1,1.92-1.16,5.76,5.76,0,0,1,1.74-.43L84.3,138a4.22,4.22,0,0,0-2.51.5,4.65,4.65,0,0,0-1.68,1.58,3.93,3.93,0,0,0-.61,2.12v5.35H76.71V135.82Z"/><path class="cls-2" d="M86.37,141.57a5.84,5.84,0,0,1,.88-3.17,6.21,6.21,0,0,1,2.46-2.24,7.63,7.63,0,0,1,3.59-.83,7.35,7.35,0,0,1,3.54.83,6.19,6.19,0,0,1,2.38,8.59A6.14,6.14,0,0,1,96.84,147a7.3,7.3,0,0,1-3.57.84,7.81,7.81,0,0,1-3.56-.78,6.14,6.14,0,0,1-2.44-2.18A6,6,0,0,1,86.37,141.57Zm2.82,0a4,4,0,0,0,.54,2.06,4.11,4.11,0,0,0,1.44,1.46,3.89,3.89,0,0,0,2,.54,3.89,3.89,0,0,0,3.49-2,4.15,4.15,0,0,0-1.42-5.59,3.86,3.86,0,0,0-2.07-.55,3.91,3.91,0,0,0-2.06.56,4.19,4.19,0,0,0-1.44,1.49A4,4,0,0,0,89.19,141.6Z"/><path class="cls-2" d="M111.15,147.84a6.19,6.19,0,0,1-2.72-.63,4.72,4.72,0,0,1-2-1.67l.15-.82v8.48H103.8V135.65h2.43l.39,3-.3-.85A7,7,0,0,1,108.6,136a6.82,6.82,0,0,1,3.09-.7,6.2,6.2,0,0,1,3.13.79,5.59,5.59,0,0,1,2.21,2.21,6.62,6.62,0,0,1,.81,3.33,6.05,6.05,0,0,1-.87,3.27,5.74,5.74,0,0,1-2.39,2.16A7.62,7.62,0,0,1,111.15,147.84Zm-.54-2.1a4.6,4.6,0,0,0,2.19-.52,4.38,4.38,0,0,0,1.6-1.45,3.66,3.66,0,0,0,.62-2.08,4,4,0,0,0-.57-2.12,4.12,4.12,0,0,0-1.52-1.44,4.26,4.26,0,0,0-2.11-.53,4.72,4.72,0,0,0-1.95.39,3.86,3.86,0,0,0-1.44,1.06,4,4,0,0,0-.81,1.62v2a3.38,3.38,0,0,0,.72,1.56,4,4,0,0,0,1.42,1.12A4.28,4.28,0,0,0,110.61,145.74Z"/><path class="cls-2" d="M128.94,147.84a6.19,6.19,0,0,1-2.72-.63,4.72,4.72,0,0,1-2-1.67l.15-.82v8.48h-2.79V135.65H124l.39,3-.3-.85a7,7,0,0,1,2.28-1.77,6.82,6.82,0,0,1,3.09-.7,6.2,6.2,0,0,1,3.13.79,5.59,5.59,0,0,1,2.21,2.21,6.62,6.62,0,0,1,.81,3.33,6.05,6.05,0,0,1-.87,3.27,5.74,5.74,0,0,1-2.39,2.16A7.62,7.62,0,0,1,128.94,147.84Zm-.54-2.1a4.6,4.6,0,0,0,2.19-.52,4.38,4.38,0,0,0,1.6-1.45,3.66,3.66,0,0,0,.62-2.08,4,4,0,0,0-.57-2.12,4.12,4.12,0,0,0-1.52-1.44,4.26,4.26,0,0,0-2.11-.53,4.72,4.72,0,0,0-2,.39,3.86,3.86,0,0,0-1.44,1.06,4,4,0,0,0-.81,1.62v2a3.38,3.38,0,0,0,.72,1.56,4,4,0,0,0,1.42,1.12A4.28,4.28,0,0,0,128.4,145.74Z"/><path class="cls-2" d="M138.3,141.57a5.84,5.84,0,0,1,.88-3.17,6.21,6.21,0,0,1,2.46-2.24,7.63,7.63,0,0,1,3.59-.83,7.35,7.35,0,0,1,3.54.83,6.19,6.19,0,0,1,2.38,8.59,6.14,6.14,0,0,1-2.38,2.25,7.3,7.3,0,0,1-3.57.84,7.81,7.81,0,0,1-3.56-.78,6.14,6.14,0,0,1-2.44-2.18A6,6,0,0,1,138.3,141.57Zm2.82,0a4,4,0,0,0,.54,2.06,4.11,4.11,0,0,0,1.44,1.46,3.89,3.89,0,0,0,2,.54,3.89,3.89,0,0,0,3.49-2,4.15,4.15,0,0,0-1.42-5.59,3.86,3.86,0,0,0-2.07-.55,3.91,3.91,0,0,0-2.06.56,4.19,4.19,0,0,0-1.44,1.49A4,4,0,0,0,141.12,141.6Z"/><path class="cls-2" d="M165.21,125.61H168v21.94h-2.82Z"/><path class="cls-2" d="M178.05,147.84a7.06,7.06,0,0,1-3.17-.71,5.46,5.46,0,0,1-2.26-2.08,7.13,7.13,0,0,1,0-6.77A5.92,5.92,0,0,1,175,136.1a6.85,6.85,0,0,1,3.21-.77,5.51,5.51,0,0,1,3,.76,5.24,5.24,0,0,1,1.82,1.77l-.18.42.27-2.46h2.58v11.73h-2.79v-3.06l.33.68a3.77,3.77,0,0,1-.57.73,7.3,7.3,0,0,1-1.07.89,6,6,0,0,1-3.49,1.05Zm.75-2.18a4.75,4.75,0,0,0,1.89-.37,3.74,3.74,0,0,0,1.39-1,3.87,3.87,0,0,0,.77-1.59v-2.3a3.53,3.53,0,0,0-.84-1.48,4.19,4.19,0,0,0-1.44-1,4.77,4.77,0,0,0-1.83-.35,4.23,4.23,0,0,0-2.07.51,3.91,3.91,0,0,0-1.49,1.42,4,4,0,0,0-.55,2.12,3.88,3.88,0,0,0,.57,2.07,4.1,4.1,0,0,0,1.53,1.48A4.15,4.15,0,0,0,178.8,145.66Z"/><path class="cls-2" d="M207.57,147.84a6.33,6.33,0,0,1-3-.71,6.08,6.08,0,0,1-2.08-1.79l.33-.79v3H200V125.61h2.79v12.9l-.06-1a5.3,5.3,0,0,1,2.11-1.55,7.89,7.89,0,0,1,3.14-.61,6.18,6.18,0,0,1,3,.77,5.79,5.79,0,0,1,2.2,2.14,6.21,6.21,0,0,1,.83,3.25,6.34,6.34,0,0,1-.89,3.41,5.82,5.82,0,0,1-2.35,2.19A6.9,6.9,0,0,1,207.57,147.84Zm-.6-2.24a4.29,4.29,0,0,0,2.17-.54,4,4,0,0,0,1.49-1.47,4.16,4.16,0,0,0,.54-2.1,3.93,3.93,0,0,0-.56-2.06,4,4,0,0,0-1.5-1.44,4.33,4.33,0,0,0-2.14-.53,4.89,4.89,0,0,0-1.89.36,4,4,0,0,0-1.46,1,3.83,3.83,0,0,0-.85,1.48v2.41a3.88,3.88,0,0,0,.81,1.49,4,4,0,0,0,1.45,1.05A4.94,4.94,0,0,0,207,145.6Z"/><path class="cls-2" d="M221.73,148a4.1,4.1,0,0,1-2.84-1,3.39,3.39,0,0,1-1.15-2.54v-8.67h2.82v7.74a2.48,2.48,0,0,0,.6,1.54,2.19,2.19,0,0,0,1.68.64,3.1,3.1,0,0,0,1.84-.58,4.29,4.29,0,0,0,1.34-1.59,5.1,5.1,0,0,0,.51-2.28v-5.47h2.79v11.73h-2.55l-.24-2.89.18.54a4.57,4.57,0,0,1-1.11,1.43,5.37,5.37,0,0,1-1.73,1A6.1,6.1,0,0,1,221.73,148Z"/><path class="cls-2" d="M236.64,135.82l.27,3.4-.12-.48a5,5,0,0,1,1.38-1.82,6.7,6.7,0,0,1,1.92-1.16,5.76,5.76,0,0,1,1.74-.43l-.12,2.67a4.22,4.22,0,0,0-2.51.5,4.65,4.65,0,0,0-1.68,1.58,3.93,3.93,0,0,0-.61,2.12v5.35h-2.79V135.82Z"/><path class="cls-2" d="M243.78,141.57a5.84,5.84,0,0,1,.88-3.17,6.21,6.21,0,0,1,2.46-2.24,7.63,7.63,0,0,1,3.59-.83,7.35,7.35,0,0,1,3.54.83,6.19,6.19,0,0,1,2.38,8.59,6.14,6.14,0,0,1-2.38,2.25,7.3,7.3,0,0,1-3.57.84,7.81,7.81,0,0,1-3.56-.78,6.14,6.14,0,0,1-2.44-2.18A6,6,0,0,1,243.78,141.57Zm2.82,0a4,4,0,0,0,.54,2.06,4.11,4.11,0,0,0,1.44,1.46,3.86,3.86,0,0,0,2,.54,3.89,3.89,0,0,0,3.49-2,4.15,4.15,0,0,0-1.42-5.59,4.12,4.12,0,0,0-4.13,0,4.19,4.19,0,0,0-1.44,1.49A4,4,0,0,0,246.6,141.6Z"/><path class="cls-2" d="M271.31,146.45a6.38,6.38,0,0,1-2,1,8.18,8.18,0,0,1-5.9-.4,5.79,5.79,0,0,1-2.41-2.15,5.93,5.93,0,0,1-.87-3.26,5.67,5.67,0,0,1,.93-3.25,6.24,6.24,0,0,1,2.41-2.12,6.91,6.91,0,0,1,3.22-.76,8.45,8.45,0,0,1,2.66.39,6.19,6.19,0,0,1,2,1.09l-1.4,1.7a6.59,6.59,0,0,0-1.31-.7,4.74,4.74,0,0,0-1.75-.32,4,4,0,0,0-2,.52,4,4,0,0,0-1.43,5.46,4.09,4.09,0,0,0,1.5,1.45,4.49,4.49,0,0,0,2.23.54,4.54,4.54,0,0,0,1.45-.23,4.28,4.28,0,0,0,1.22-.63Z"/><path class="cls-2" d="M277.4,135.82l.28,3.4-.12-.48a5,5,0,0,1,1.38-1.82,6.65,6.65,0,0,1,1.91-1.16,5.74,5.74,0,0,1,1.75-.43l-.12,2.67a4.22,4.22,0,0,0-2.51.5,4.65,4.65,0,0,0-1.68,1.58,3.93,3.93,0,0,0-.61,2.12v5.35h-2.79V135.82Z"/><path class="cls-2" d="M290.9,147.84a7,7,0,0,1-3.16-.71,5.49,5.49,0,0,1-2.27-2.08,7.13,7.13,0,0,1,0-6.77,5.92,5.92,0,0,1,2.34-2.18,6.85,6.85,0,0,1,3.21-.77,5.54,5.54,0,0,1,3,.76,5.21,5.21,0,0,1,1.81,1.77l-.18.42.27-2.46h2.58v11.73H295.7v-3.06l.33.68a3.77,3.77,0,0,1-.57.73,7.18,7.18,0,0,1-1.06.89,6.16,6.16,0,0,1-1.52.75A6.06,6.06,0,0,1,290.9,147.84Zm.75-2.18a4.75,4.75,0,0,0,1.89-.37,3.78,3.78,0,0,0,1.4-1,3.85,3.85,0,0,0,.76-1.59v-2.3a3.53,3.53,0,0,0-.84-1.48,4.19,4.19,0,0,0-1.44-1,4.77,4.77,0,0,0-1.83-.35,4.23,4.23,0,0,0-2.07.51,3.88,3.88,0,0,0-1.48,1.42,4,4,0,0,0-.56,2.12,3.88,3.88,0,0,0,.57,2.07,4.1,4.1,0,0,0,1.53,1.48A4.15,4.15,0,0,0,291.65,145.66Z"/><path class="cls-2" d="M304.49,138a2.36,2.36,0,0,1-1.57-.54,2,2,0,0,1-.65-1.61v-1.14h2.13v.37a.72.72,0,0,0,.23.63,1.54,1.54,0,0,0,.76.14h8l-7.44,10.09-.57-.54h7.89v2.18H301.76l7.59-10.32.48.74Z"/><path class="cls-2" d="M317,131.56a1.33,1.33,0,0,1,.53-1.05,1.79,1.79,0,0,1,1.15-.42,1.75,1.75,0,0,1,1.14.42,1.33,1.33,0,0,1,.51,1.05,1.32,1.32,0,0,1-.51,1.07,1.79,1.79,0,0,1-1.14.41,1.84,1.84,0,0,1-1.15-.41A1.31,1.31,0,0,1,317,131.56Zm.18,4.26H320v11.73h-2.82Z"/><path class="cls-2" d="M330.05,147.84a7,7,0,0,1-3.16-.71,5.49,5.49,0,0,1-2.27-2.08,7.13,7.13,0,0,1,0-6.77A5.92,5.92,0,0,1,327,136.1a6.85,6.85,0,0,1,3.21-.77,5.54,5.54,0,0,1,3,.76,5.21,5.21,0,0,1,1.81,1.77l-.18.42.27-2.46h2.58v11.73h-2.79v-3.06l.33.68a3.77,3.77,0,0,1-.57.73,7.18,7.18,0,0,1-1.06.89,6.16,6.16,0,0,1-1.52.75A6.06,6.06,0,0,1,330.05,147.84Zm.75-2.18a4.75,4.75,0,0,0,1.89-.37,3.78,3.78,0,0,0,1.4-1,3.85,3.85,0,0,0,.76-1.59v-2.3a3.53,3.53,0,0,0-.84-1.48,4.19,4.19,0,0,0-1.44-1,4.77,4.77,0,0,0-1.83-.35,4.23,4.23,0,0,0-2.07.51,3.88,3.88,0,0,0-1.48,1.42,4,4,0,0,0-.56,2.12,3.88,3.88,0,0,0,.57,2.07,4.1,4.1,0,0,0,1.53,1.48A4.15,4.15,0,0,0,330.8,145.66Z"/><path class="cls-2" d="M351.77,131.56a1.33,1.33,0,0,1,.53-1.05,1.79,1.79,0,0,1,1.15-.42,1.75,1.75,0,0,1,1.14.42,1.33,1.33,0,0,1,.51,1.05,1.32,1.32,0,0,1-.51,1.07,1.79,1.79,0,0,1-1.14.41,1.84,1.84,0,0,1-1.15-.41A1.31,1.31,0,0,1,351.77,131.56Zm.18,4.26h2.82v11.73H352Z"/><path class="cls-2" d="M360.8,130.66h2.85v5.21H367v2.07h-3.39v9.61H360.8v-9.61h-2.25v-2.07h2.25Z"/><path class="cls-2" d="M375.59,147.84a7,7,0,0,1-3.16-.71,5.49,5.49,0,0,1-2.27-2.08,7.13,7.13,0,0,1,0-6.77,5.92,5.92,0,0,1,2.34-2.18,6.85,6.85,0,0,1,3.21-.77,5.54,5.54,0,0,1,3,.76,5.21,5.21,0,0,1,1.81,1.77l-.18.42.27-2.46h2.58v11.73h-2.79v-3.06l.33.68a3.77,3.77,0,0,1-.57.73,7.18,7.18,0,0,1-1.06.89,6.34,6.34,0,0,1-1.52.75A6.06,6.06,0,0,1,375.59,147.84Zm.75-2.18a4.75,4.75,0,0,0,1.89-.37,3.78,3.78,0,0,0,1.4-1,3.85,3.85,0,0,0,.76-1.59v-2.3a3.53,3.53,0,0,0-.84-1.48,4.19,4.19,0,0,0-1.44-1,4.77,4.77,0,0,0-1.83-.35,4.23,4.23,0,0,0-2.07.51,4.08,4.08,0,0,0-1.47,5.61,4.1,4.1,0,0,0,1.53,1.48A4.15,4.15,0,0,0,376.34,145.66Z"/><path class="cls-2" d="M388,125.61h2.82v21.94H388Z"/><path class="cls-2" d="M395.48,131.56a1.32,1.32,0,0,1,.52-1.05,1.82,1.82,0,0,1,1.16-.42,1.75,1.75,0,0,1,1.14.42,1.33,1.33,0,0,1,.51,1.05,1.32,1.32,0,0,1-.51,1.07,1.79,1.79,0,0,1-1.14.41,1.87,1.87,0,0,1-1.16-.41A1.3,1.3,0,0,1,395.48,131.56Zm.18,4.26h2.82v11.73h-2.82Z"/><path class="cls-2" d="M408.5,147.84a7.06,7.06,0,0,1-3.17-.71,5.46,5.46,0,0,1-2.26-2.08,7.13,7.13,0,0,1,0-6.77,5.92,5.92,0,0,1,2.34-2.18,6.85,6.85,0,0,1,3.21-.77,5.51,5.51,0,0,1,3,.76,5.24,5.24,0,0,1,1.82,1.77l-.18.42.27-2.46h2.58v11.73H413.3v-3.06l.33.68a3.77,3.77,0,0,1-.57.73,7.3,7.3,0,0,1-1.07.89,6,6,0,0,1-3.49,1.05Zm.75-2.18a4.75,4.75,0,0,0,1.89-.37,3.74,3.74,0,0,0,1.39-1,3.87,3.87,0,0,0,.77-1.59v-2.3a3.53,3.53,0,0,0-.84-1.48,4.19,4.19,0,0,0-1.44-1,4.77,4.77,0,0,0-1.83-.35,4.23,4.23,0,0,0-2.07.51,3.91,3.91,0,0,0-1.49,1.42,4,4,0,0,0-.55,2.12,3.88,3.88,0,0,0,.57,2.07,4.1,4.1,0,0,0,1.53,1.48A4.15,4.15,0,0,0,409.25,145.66Z"/><path class="cls-2" d="M423.47,135.82l.21,2.86-.09-.45a4.45,4.45,0,0,1,1.92-2.09,6.18,6.18,0,0,1,3.15-.78,4.21,4.21,0,0,1,2.86,1,3.3,3.3,0,0,1,1.16,2.54v8.67h-2.82v-7.76a2.33,2.33,0,0,0-.59-1.55,2.2,2.2,0,0,0-1.72-.61,3.52,3.52,0,0,0-1.94.57,3.87,3.87,0,0,0-1.38,1.56,5.08,5.08,0,0,0-.49,2.29v5.5h-2.82V135.82Z"/><path class="cls-2" d="M442.7,147.84a7.06,7.06,0,0,1-3.17-.71,5.46,5.46,0,0,1-2.26-2.08,7.13,7.13,0,0,1,0-6.77,5.92,5.92,0,0,1,2.34-2.18,6.85,6.85,0,0,1,3.21-.77,5.51,5.51,0,0,1,2.95.76,5.24,5.24,0,0,1,1.82,1.77l-.18.42.27-2.46h2.58v11.73H447.5v-3.06l.33.68a3.77,3.77,0,0,1-.57.73,7.3,7.3,0,0,1-1.07.89,6,6,0,0,1-3.49,1.05Zm.75-2.18a4.75,4.75,0,0,0,1.89-.37,3.74,3.74,0,0,0,1.39-1,3.87,3.87,0,0,0,.77-1.59v-2.3a3.53,3.53,0,0,0-.84-1.48,4.19,4.19,0,0,0-1.44-1,4.77,4.77,0,0,0-1.83-.35,4.23,4.23,0,0,0-2.07.51,3.91,3.91,0,0,0-1.49,1.42,4,4,0,0,0-.55,2.12,3.88,3.88,0,0,0,.57,2.07,4.1,4.1,0,0,0,1.53,1.48A4.15,4.15,0,0,0,443.45,145.66Z"/><path class="cls-2" d="M472,147.84a6.19,6.19,0,0,1-2.72-.63,4.72,4.72,0,0,1-2-1.67l.15-.82v8.48H464.6V135.65H467l.39,3-.3-.85A7,7,0,0,1,469.4,136a6.82,6.82,0,0,1,3.09-.7,6.2,6.2,0,0,1,3.13.79,5.59,5.59,0,0,1,2.21,2.21,6.62,6.62,0,0,1,.81,3.33,6.05,6.05,0,0,1-.87,3.27,5.74,5.74,0,0,1-2.39,2.16A7.62,7.62,0,0,1,472,147.84Zm-.54-2.1a4.6,4.6,0,0,0,2.19-.52,4.38,4.38,0,0,0,1.6-1.45,3.66,3.66,0,0,0,.62-2.08,4,4,0,0,0-.57-2.12,4.12,4.12,0,0,0-1.52-1.44,4.26,4.26,0,0,0-2.11-.53,4.72,4.72,0,0,0-1.95.39,3.86,3.86,0,0,0-1.44,1.06,4,4,0,0,0-.81,1.62v2a3.38,3.38,0,0,0,.72,1.56,4,4,0,0,0,1.42,1.12A4.28,4.28,0,0,0,471.41,145.74Z"/><path class="cls-2" d="M488.18,147.84a7.73,7.73,0,0,1-3.66-.81,6,6,0,0,1-2.37-2.21,6.16,6.16,0,0,1-.84-3.22,5.57,5.57,0,0,1,.94-3.15,6.93,6.93,0,0,1,2.51-2.26,7.12,7.12,0,0,1,3.48-.86,6.12,6.12,0,0,1,4.08,1.37,6.89,6.89,0,0,1,2.22,3.74l-10.26,3.4-.66-1.56,8.37-2.92-.57.4a3.85,3.85,0,0,0-1.2-1.62,3.39,3.39,0,0,0-2.19-.68,4,4,0,0,0-2,.51,3.69,3.69,0,0,0-1.39,1.41,4.11,4.11,0,0,0-.51,2.08,4.31,4.31,0,0,0,.52,2.13,3.75,3.75,0,0,0,1.47,1.46,4.36,4.36,0,0,0,2.15.52,4.44,4.44,0,0,0,1.57-.28,7.42,7.42,0,0,0,1.46-.74l1.26,2a9.32,9.32,0,0,1-2.09,1A7.57,7.57,0,0,1,488.18,147.84Z"/><path class="cls-2" d="M500.51,135.82l.27,3.4-.12-.48a5.21,5.21,0,0,1,1.38-1.82,6.84,6.84,0,0,1,1.92-1.16,5.76,5.76,0,0,1,1.74-.43l-.12,2.67a4.22,4.22,0,0,0-2.51.5,4.65,4.65,0,0,0-1.68,1.58,3.93,3.93,0,0,0-.61,2.12v5.35H498V135.82Z"/><path class="cls-2" d="M20.4,159.63h2.82v22H20.4Z"/><path class="cls-2" d="M26.7,164.91a3.93,3.93,0,0,0,1-1.56,3.31,3.31,0,0,0,.14-2l2.28-.2a3.6,3.6,0,0,1-.09,1.65,5.54,5.54,0,0,1-.74,1.62,3.83,3.83,0,0,1-1.18,1.16Z"/><path class="cls-2" d="M33.42,165.59a1.29,1.29,0,0,1,.52-1.05,1.83,1.83,0,0,1,1.16-.43,1.76,1.76,0,0,1,1.14.43,1.35,1.35,0,0,1,0,2.11,1.74,1.74,0,0,1-1.14.41,1.81,1.81,0,0,1-1.16-.41A1.28,1.28,0,0,1,33.42,165.59Zm.18,4.25h2.82v11.74H33.6Z"/><path class="cls-2" d="M43.8,169.84l.24,2.64-.15-.23a5.24,5.24,0,0,1,2-2.11,5.57,5.57,0,0,1,3-.78,4.81,4.81,0,0,1,1.83.33,3.52,3.52,0,0,1,1.33.9,2.83,2.83,0,0,1,.68,1.41l-.15.11a5.11,5.11,0,0,1,2-2,5.4,5.4,0,0,1,2.69-.72,4.07,4.07,0,0,1,2.89,1,3.5,3.5,0,0,1,1.13,2.53v8.7H58.38v-7.74a2.71,2.71,0,0,0-.47-1.52,1.81,1.81,0,0,0-1.51-.64,3.31,3.31,0,0,0-1.94.61,4.09,4.09,0,0,0-1.32,1.59,5.25,5.25,0,0,0-.49,2.14v5.56H49.83v-7.74a2.58,2.58,0,0,0-.5-1.52,1.9,1.9,0,0,0-1.54-.64,3.23,3.23,0,0,0-1.92.61,4.19,4.19,0,0,0-1.32,1.61,4.87,4.87,0,0,0-.48,2.15v5.53H41.25V169.84Z"/><path class="cls-2" d="M68.55,169.84l.24,2.64-.15-.23a5.24,5.24,0,0,1,2-2.11,5.57,5.57,0,0,1,3-.78,4.81,4.81,0,0,1,1.83.33,3.52,3.52,0,0,1,1.33.9A2.83,2.83,0,0,1,77.4,172l-.15.11a5.11,5.11,0,0,1,2-2,5.4,5.4,0,0,1,2.69-.72,4.07,4.07,0,0,1,2.89,1A3.5,3.5,0,0,1,86,172.88v8.7H83.13v-7.74a2.71,2.71,0,0,0-.47-1.52,1.81,1.81,0,0,0-1.51-.64,3.31,3.31,0,0,0-1.94.61,4.09,4.09,0,0,0-1.32,1.59A5.25,5.25,0,0,0,77.4,176v5.56H74.58v-7.74a2.58,2.58,0,0,0-.5-1.52,1.9,1.9,0,0,0-1.54-.64,3.23,3.23,0,0,0-1.92.61,4.19,4.19,0,0,0-1.32,1.61,4.87,4.87,0,0,0-.48,2.15v5.53H66V169.84Z"/><path class="cls-2" d="M90.57,165.59a1.29,1.29,0,0,1,.52-1.05,1.83,1.83,0,0,1,1.16-.43,1.76,1.76,0,0,1,1.14.43,1.35,1.35,0,0,1,0,2.11,1.74,1.74,0,0,1-1.14.41,1.81,1.81,0,0,1-1.16-.41A1.28,1.28,0,0,1,90.57,165.59Zm.18,4.25h2.82v11.74H90.75Z"/><path class="cls-2" d="M104.43,187.42a8.68,8.68,0,0,1-2.45-.31,7.61,7.61,0,0,1-1.92-.85,18.71,18.71,0,0,1-1.66-1.19l1.65-1.82a8.85,8.85,0,0,0,2,1.33,5.15,5.15,0,0,0,2.28.49,5.81,5.81,0,0,0,2.38-.44,3.22,3.22,0,0,0,2-3l0-3.18.24.51A4.62,4.62,0,0,1,107,181a6.66,6.66,0,0,1-3.42.83,6.17,6.17,0,0,1-3.12-.82,6.41,6.41,0,0,1-2.31-2.23,5.84,5.84,0,0,1-.87-3.16,6,6,0,0,1,.9-3.26,6.43,6.43,0,0,1,2.38-2.22,6.65,6.65,0,0,1,3.23-.81,6.94,6.94,0,0,1,3,.64,4.77,4.77,0,0,1,2,1.63l-.18.48.27-2.27h2.58v11.82a5.19,5.19,0,0,1-.86,2.9,6,6,0,0,1-2.46,2.08A8.58,8.58,0,0,1,104.43,187.42Zm-4.29-11.82a3.85,3.85,0,0,0,.58,2.07,4.24,4.24,0,0,0,1.56,1.47,4.37,4.37,0,0,0,2.15.54,5,5,0,0,0,2-.38,4.15,4.15,0,0,0,1.49-1.07,3.86,3.86,0,0,0,.84-1.5v-2.35a3.59,3.59,0,0,0-.9-1.48,4.9,4.9,0,0,0-1.5-1,5,5,0,0,0-1.92-.37,4.47,4.47,0,0,0-2.15.53,4.13,4.13,0,0,0-1.56,1.43A3.76,3.76,0,0,0,100.14,175.6Z"/><path class="cls-2" d="M118.89,169.84l.27,3.4-.12-.48a5.17,5.17,0,0,1,1.38-1.81,6.88,6.88,0,0,1,1.92-1.17,5.7,5.7,0,0,1,1.74-.42L124,172a4.29,4.29,0,0,0-2.51.5,4.76,4.76,0,0,0-1.68,1.59,3.87,3.87,0,0,0-.61,2.11v5.36h-2.79V169.84Z"/><path class="cls-2" d="M132.39,181.86a6.93,6.93,0,0,1-3.17-.71,5.39,5.39,0,0,1-2.26-2.08,7.11,7.11,0,0,1,0-6.76,5.78,5.78,0,0,1,2.34-2.18,6.73,6.73,0,0,1,3.21-.77,5.5,5.5,0,0,1,3,.75,5.24,5.24,0,0,1,1.82,1.77l-.18.43.27-2.47H140v11.74h-2.79v-3.06l.33.68a3.49,3.49,0,0,1-.57.72,7.3,7.3,0,0,1-1.07.89,5.47,5.47,0,0,1-1.51.75A6.06,6.06,0,0,1,132.39,181.86Zm.75-2.18a4.59,4.59,0,0,0,1.89-.37,3.64,3.64,0,0,0,1.39-1.05,3.81,3.81,0,0,0,.77-1.59v-2.29a3.5,3.5,0,0,0-.84-1.49,4,4,0,0,0-1.44-1,4.6,4.6,0,0,0-1.83-.36,4.23,4.23,0,0,0-2.07.51,3.87,3.87,0,0,0-2,3.55,3.93,3.93,0,0,0,.57,2.07,4.22,4.22,0,0,0,3.6,2Z"/><path class="cls-2" d="M146,172a2.38,2.38,0,0,1-1.58-.54,2,2,0,0,1-.64-1.62v-1.13h2.13v.37c0,.32.07.52.22.62a1.59,1.59,0,0,0,.77.14h8l-7.44,10.09-.57-.53h7.89v2.18H143.25l7.59-10.32.48.74Z"/><path class="cls-2" d="M158.52,165.59a1.29,1.29,0,0,1,.52-1.05,1.83,1.83,0,0,1,1.16-.43,1.76,1.76,0,0,1,1.14.43,1.35,1.35,0,0,1,0,2.11,1.74,1.74,0,0,1-1.14.41,1.81,1.81,0,0,1-1.16-.41A1.28,1.28,0,0,1,158.52,165.59Zm.18,4.25h2.82v11.74H158.7Z"/><path class="cls-2" d="M165.27,175.6a5.88,5.88,0,0,1,.88-3.18,6.28,6.28,0,0,1,2.46-2.24,7.63,7.63,0,0,1,3.59-.82,7.34,7.34,0,0,1,3.54.82,6.12,6.12,0,0,1,2.38,2.24,6.29,6.29,0,0,1,0,6.35,6.17,6.17,0,0,1-2.38,2.26,7.41,7.41,0,0,1-3.57.83,7.81,7.81,0,0,1-3.56-.78,6.06,6.06,0,0,1-2.44-2.18A6,6,0,0,1,165.27,175.6Zm2.82,0a4,4,0,0,0,.54,2.05,4.11,4.11,0,0,0,1.44,1.46,3.89,3.89,0,0,0,2,.54,3.89,3.89,0,0,0,3.49-2,4.25,4.25,0,0,0,0-4.11,4.11,4.11,0,0,0-1.42-1.48,4,4,0,0,0-2.07-.55,3.82,3.82,0,0,0-2.06.57,4.11,4.11,0,0,0-1.44,1.49A4,4,0,0,0,168.09,175.63Z"/><path class="cls-2" d="M185.25,169.84l.21,2.87-.09-.46a4.38,4.38,0,0,1,1.92-2.08,6.18,6.18,0,0,1,3.15-.78,4.16,4.16,0,0,1,2.86,1,3.28,3.28,0,0,1,1.16,2.53v8.68h-2.82v-7.77a2.31,2.31,0,0,0-.59-1.54,2.21,2.21,0,0,0-1.72-.61,3.51,3.51,0,0,0-1.94.56,3.87,3.87,0,0,0-1.38,1.56,5.09,5.09,0,0,0-.49,2.3v5.5H182.7V169.84Z"/><path class="cls-2" d="M205.08,181.86a7.7,7.7,0,0,1-3.66-.81,5.76,5.76,0,0,1-2.37-2.21,6,6,0,0,1-.84-3.21,5.53,5.53,0,0,1,.94-3.15,6.93,6.93,0,0,1,2.5-2.27,7.13,7.13,0,0,1,3.49-.85,6.13,6.13,0,0,1,4.08,1.36,7,7,0,0,1,2.22,3.74l-10.26,3.41-.66-1.57,8.37-2.92-.58.4a3.71,3.71,0,0,0-1.19-1.61,3.33,3.33,0,0,0-2.19-.68,4,4,0,0,0-2,.51,3.67,3.67,0,0,0-1.39,1.4,4,4,0,0,0-.51,2.08,4.25,4.25,0,0,0,.52,2.13,3.75,3.75,0,0,0,1.47,1.46,4.36,4.36,0,0,0,2.15.52,4.44,4.44,0,0,0,1.57-.28,7.16,7.16,0,0,0,1.46-.74l1.26,2a8.51,8.51,0,0,1-2.09,1A7.32,7.32,0,0,1,205.08,181.86Z"/><path class="cls-2" d="M230.15,181.86a7.73,7.73,0,0,1-3.66-.81,5.82,5.82,0,0,1-2.37-2.21,6.13,6.13,0,0,1-.84-3.21,5.54,5.54,0,0,1,.95-3.15,6.93,6.93,0,0,1,2.5-2.27,7.12,7.12,0,0,1,3.48-.85,6.11,6.11,0,0,1,4.08,1.36,7,7,0,0,1,2.22,3.74l-10.26,3.41-.66-1.57,8.37-2.92-.57.4a3.82,3.82,0,0,0-1.2-1.61,3.33,3.33,0,0,0-2.19-.68,4,4,0,0,0-2,.51,3.69,3.69,0,0,0-1.4,1.4,4.11,4.11,0,0,0-.51,2.08,4.26,4.26,0,0,0,.53,2.13,3.75,3.75,0,0,0,1.47,1.46,4.32,4.32,0,0,0,2.14.52,4.5,4.5,0,0,0,1.58-.28,6.84,6.84,0,0,0,1.45-.74l1.26,2a8.44,8.44,0,0,1-2.08,1A7.33,7.33,0,0,1,230.15,181.86Zm-4.5-18.23h3.09l2.19,3.8h-1.77Z"/><path class="cls-2" d="M253,181.81a7.7,7.7,0,0,1-2.56-.44,5.16,5.16,0,0,1-2.06-1.32l1.17-1.53a6.51,6.51,0,0,0,1.62,1.06,4.13,4.13,0,0,0,2.73.21,1.68,1.68,0,0,0,.83-.48,1.25,1.25,0,0,0,.31-.88,1.21,1.21,0,0,0-.43-1,3.69,3.69,0,0,0-1.1-.59q-.66-.22-1.44-.42a5.46,5.46,0,0,1-2.34-1.33,2.9,2.9,0,0,1-.81-2.07,3.29,3.29,0,0,1,.5-1.75,3.71,3.71,0,0,1,1.48-1.33,5.07,5.07,0,0,1,2.4-.52,8.2,8.2,0,0,1,2.31.29,5.73,5.73,0,0,1,1.92,1l-1.11,1.64a3.56,3.56,0,0,0-1.27-.8,3.94,3.94,0,0,0-1.34-.27,3.22,3.22,0,0,0-1,.15,1.87,1.87,0,0,0-.75.46,1,1,0,0,0-.29.75,1.1,1.1,0,0,0,.41.95,3.62,3.62,0,0,0,1.09.58l1.35.45a7,7,0,0,1,1.62.68,3.81,3.81,0,0,1,1.16,1.05,2.68,2.68,0,0,1,.43,1.56,3.74,3.74,0,0,1-.52,1.94,3.63,3.63,0,0,1-1.59,1.42A6.16,6.16,0,0,1,253,181.81Z"/><path class="cls-2" d="M269,181.86a6.28,6.28,0,0,1-2.71-.62,4.82,4.82,0,0,1-2-1.67l.15-.83v8.48h-2.79V169.67h2.43l.39,3-.3-.85a7.15,7.15,0,0,1,2.28-1.78,6.81,6.81,0,0,1,3.09-.69,6.33,6.33,0,0,1,3.14.78,5.7,5.7,0,0,1,2.2,2.21,6.65,6.65,0,0,1,.81,3.33,6.11,6.11,0,0,1-.87,3.28,5.76,5.76,0,0,1-2.38,2.15A7.66,7.66,0,0,1,269,181.86Zm-.54-2.1a4.6,4.6,0,0,0,2.19-.52,4.32,4.32,0,0,0,1.61-1.45,3.63,3.63,0,0,0,.61-2.08,3.92,3.92,0,0,0-.57-2.11,4,4,0,0,0-1.51-1.45,4.3,4.3,0,0,0-2.12-.52,4.71,4.71,0,0,0-1.95.38,4,4,0,0,0-1.44,1.06,4.12,4.12,0,0,0-.81,1.62v2a3.38,3.38,0,0,0,.72,1.56,4,4,0,0,0,1.43,1.12A4.1,4.1,0,0,0,268.46,179.76Z"/><path class="cls-2" d="M285.23,181.86a7.73,7.73,0,0,1-3.66-.81,5.82,5.82,0,0,1-2.37-2.21,6.13,6.13,0,0,1-.84-3.21,5.54,5.54,0,0,1,.95-3.15,6.93,6.93,0,0,1,2.5-2.27,7.12,7.12,0,0,1,3.48-.85,6.11,6.11,0,0,1,4.08,1.36,7,7,0,0,1,2.22,3.74l-10.26,3.41-.66-1.57,8.37-2.92-.57.4a3.82,3.82,0,0,0-1.2-1.61,3.33,3.33,0,0,0-2.19-.68,4,4,0,0,0-2,.51,3.69,3.69,0,0,0-1.4,1.4,4.11,4.11,0,0,0-.51,2.08,4.26,4.26,0,0,0,.53,2.13,3.75,3.75,0,0,0,1.47,1.46,4.32,4.32,0,0,0,2.14.52,4.5,4.5,0,0,0,1.58-.28,6.84,6.84,0,0,0,1.45-.74l1.26,2a8.44,8.44,0,0,1-2.08,1A7.33,7.33,0,0,1,285.23,181.86Z"/><path class="cls-2" d="M298.55,181.81a7.7,7.7,0,0,1-2.56-.44,5.16,5.16,0,0,1-2.06-1.32l1.17-1.53a6.51,6.51,0,0,0,1.62,1.06,4.13,4.13,0,0,0,2.73.21,1.68,1.68,0,0,0,.83-.48,1.25,1.25,0,0,0,.31-.88,1.21,1.21,0,0,0-.43-1,3.69,3.69,0,0,0-1.1-.59q-.66-.22-1.44-.42a5.46,5.46,0,0,1-2.34-1.33,2.9,2.9,0,0,1-.81-2.07,3.29,3.29,0,0,1,.5-1.75,3.71,3.71,0,0,1,1.48-1.33,5.07,5.07,0,0,1,2.4-.52,8.2,8.2,0,0,1,2.31.29,5.73,5.73,0,0,1,1.92,1L302,172.36a3.56,3.56,0,0,0-1.27-.8,3.94,3.94,0,0,0-1.34-.27,3.22,3.22,0,0,0-1,.15,1.87,1.87,0,0,0-.75.46,1,1,0,0,0-.29.75,1.1,1.1,0,0,0,.41.95,3.62,3.62,0,0,0,1.09.58l1.35.45a7,7,0,0,1,1.62.68,3.81,3.81,0,0,1,1.16,1.05,2.68,2.68,0,0,1,.43,1.56,3.74,3.74,0,0,1-.52,1.94,3.63,3.63,0,0,1-1.59,1.42A6.16,6.16,0,0,1,298.55,181.81Z"/><path class="cls-2" d="M310.76,181.81a7.7,7.7,0,0,1-2.56-.44,5.16,5.16,0,0,1-2.06-1.32l1.17-1.53a6.51,6.51,0,0,0,1.62,1.06,4.13,4.13,0,0,0,2.73.21,1.68,1.68,0,0,0,.83-.48,1.25,1.25,0,0,0,.31-.88,1.21,1.21,0,0,0-.43-1,3.69,3.69,0,0,0-1.1-.59q-.66-.22-1.44-.42a5.46,5.46,0,0,1-2.34-1.33,2.9,2.9,0,0,1-.81-2.07,3.29,3.29,0,0,1,.5-1.75,3.71,3.71,0,0,1,1.48-1.33,5.07,5.07,0,0,1,2.4-.52,8.2,8.2,0,0,1,2.31.29,5.73,5.73,0,0,1,1.92,1l-1.11,1.64a3.56,3.56,0,0,0-1.27-.8,3.94,3.94,0,0,0-1.34-.27,3.22,3.22,0,0,0-1,.15,1.87,1.87,0,0,0-.75.46,1,1,0,0,0-.29.75,1.1,1.1,0,0,0,.41.95,3.62,3.62,0,0,0,1.09.58l1.35.45a7,7,0,0,1,1.62.68,3.81,3.81,0,0,1,1.16,1.05,2.68,2.68,0,0,1,.43,1.56,3.74,3.74,0,0,1-.52,1.94,3.63,3.63,0,0,1-1.59,1.42A6.16,6.16,0,0,1,310.76,181.81Z"/><path class="cls-2" d="M318.38,175.6a5.89,5.89,0,0,1,.89-3.18,6.28,6.28,0,0,1,2.46-2.24,7.59,7.59,0,0,1,3.58-.82,7.34,7.34,0,0,1,3.54.82,6.15,6.15,0,0,1,2.39,2.24,6.35,6.35,0,0,1,0,6.35,6.2,6.2,0,0,1-2.39,2.26,7.41,7.41,0,0,1-3.57.83,7.76,7.76,0,0,1-3.55-.78,6.09,6.09,0,0,1-2.45-2.18A6,6,0,0,1,318.38,175.6Zm2.82,0a4,4,0,0,0,.54,2.05,4.11,4.11,0,0,0,1.44,1.46,3.89,3.89,0,0,0,2,.54,3.94,3.94,0,0,0,2.07-.54,4,4,0,0,0,1.43-1.46,4.32,4.32,0,0,0,0-4.11,4.14,4.14,0,0,0-1.43-1.48,4,4,0,0,0-2.07-.55,3.79,3.79,0,0,0-2.05.57,4.11,4.11,0,0,0-1.44,1.49A4,4,0,0,0,321.2,175.63Z"/><path class="cls-2" d="M348.8,181.81a7.7,7.7,0,0,1-2.56-.44,5.16,5.16,0,0,1-2.06-1.32l1.17-1.53a6.51,6.51,0,0,0,1.62,1.06,4.13,4.13,0,0,0,2.73.21,1.68,1.68,0,0,0,.83-.48,1.25,1.25,0,0,0,.31-.88,1.21,1.21,0,0,0-.43-1,3.69,3.69,0,0,0-1.1-.59q-.66-.22-1.44-.42a5.46,5.46,0,0,1-2.34-1.33,2.9,2.9,0,0,1-.81-2.07,3.29,3.29,0,0,1,.5-1.75,3.71,3.71,0,0,1,1.48-1.33,5.07,5.07,0,0,1,2.4-.52,8.2,8.2,0,0,1,2.31.29,5.73,5.73,0,0,1,1.92,1l-1.11,1.64a3.56,3.56,0,0,0-1.27-.8,3.94,3.94,0,0,0-1.34-.27,3.22,3.22,0,0,0-1,.15,1.87,1.87,0,0,0-.75.46,1,1,0,0,0-.29.75,1.1,1.1,0,0,0,.41.95,3.62,3.62,0,0,0,1.09.58l1.35.45a7,7,0,0,1,1.62.68,3.81,3.81,0,0,1,1.16,1.05,2.68,2.68,0,0,1,.43,1.56,3.74,3.74,0,0,1-.52,1.94,3.63,3.63,0,0,1-1.59,1.42A6.16,6.16,0,0,1,348.8,181.81Z"/><path class="cls-2" d="M367.61,180.47a6.14,6.14,0,0,1-2,1,7.62,7.62,0,0,1-2.34.37,7.89,7.89,0,0,1-3.55-.76,5.84,5.84,0,0,1-2.42-2.16,6,6,0,0,1-.87-3.26,5.61,5.61,0,0,1,.93-3.24,6.29,6.29,0,0,1,2.42-2.13,7,7,0,0,1,3.22-.75,8.81,8.81,0,0,1,2.66.38A6.38,6.38,0,0,1,367.7,171l-1.41,1.7A6.74,6.74,0,0,0,365,172a4.56,4.56,0,0,0-1.76-.33,4,4,0,0,0-2,.53,3.9,3.9,0,0,0-1.44,1.41,4,4,0,0,0-.53,2,3.89,3.89,0,0,0,.54,2,4,4,0,0,0,1.5,1.44,4.45,4.45,0,0,0,2.22.54,4.61,4.61,0,0,0,1.46-.23,4.46,4.46,0,0,0,1.21-.62Z"/><path class="cls-2" d="M370.1,175.6a5.89,5.89,0,0,1,.89-3.18,6.28,6.28,0,0,1,2.46-2.24,7.59,7.59,0,0,1,3.58-.82,7.34,7.34,0,0,1,3.54.82,6.15,6.15,0,0,1,2.39,2.24,6.35,6.35,0,0,1,0,6.35,6.2,6.2,0,0,1-2.39,2.26,7.41,7.41,0,0,1-3.57.83,7.76,7.76,0,0,1-3.55-.78A6.09,6.09,0,0,1,371,178.9,6,6,0,0,1,370.1,175.6Zm2.82,0a4,4,0,0,0,.54,2.05,4.11,4.11,0,0,0,1.44,1.46,3.89,3.89,0,0,0,2,.54,3.94,3.94,0,0,0,2.07-.54,4,4,0,0,0,1.43-1.46,4.32,4.32,0,0,0,0-4.11,4.14,4.14,0,0,0-1.43-1.48,4,4,0,0,0-2.07-.55,3.79,3.79,0,0,0-2.05.57,4.11,4.11,0,0,0-1.44,1.49A4,4,0,0,0,372.92,175.63Z"/><path class="cls-2" d="M390.05,169.84l.27,3.4-.12-.48a5.17,5.17,0,0,1,1.38-1.81,6.88,6.88,0,0,1,1.92-1.17,5.7,5.7,0,0,1,1.74-.42l-.12,2.66a4.26,4.26,0,0,0-2.5.5,4.76,4.76,0,0,0-1.68,1.59,3.88,3.88,0,0,0-.62,2.11v5.36h-2.79V169.84Z"/><path class="cls-2" d="M403.55,181.86a6.89,6.89,0,0,1-3.16-.71,5.42,5.42,0,0,1-2.27-2.08,7.11,7.11,0,0,1,0-6.76,5.78,5.78,0,0,1,2.34-2.18,6.73,6.73,0,0,1,3.21-.77,5.54,5.54,0,0,1,3,.75,5.21,5.21,0,0,1,1.81,1.77l-.18.43.27-2.47h2.58v11.74h-2.79v-3.06l.33.68a3.49,3.49,0,0,1-.57.72,7.18,7.18,0,0,1-1.06.89,5.67,5.67,0,0,1-1.52.75A6.06,6.06,0,0,1,403.55,181.86Zm.75-2.18a4.59,4.59,0,0,0,1.89-.37,3.67,3.67,0,0,0,1.4-1.05,3.79,3.79,0,0,0,.76-1.59v-2.29a3.5,3.5,0,0,0-.84-1.49,4,4,0,0,0-1.44-1,4.6,4.6,0,0,0-1.83-.36,4.23,4.23,0,0,0-2.07.51,4,4,0,0,0-1.48,1.42,4.18,4.18,0,0,0,0,4.2,4.22,4.22,0,0,0,3.6,2Z"/><path class="cls-2" d="M422,187.42a8.56,8.56,0,0,1-2.44-.31,7.31,7.31,0,0,1-1.92-.85,17.49,17.49,0,0,1-1.67-1.19l1.65-1.82a8.85,8.85,0,0,0,2,1.33,5.15,5.15,0,0,0,2.28.49,5.78,5.78,0,0,0,2.38-.44,3.18,3.18,0,0,0,2-3l0-3.18.24.51a4.62,4.62,0,0,1-1.95,2.06,6.66,6.66,0,0,1-3.42.83,6.17,6.17,0,0,1-3.12-.82,6.41,6.41,0,0,1-2.31-2.23,5.84,5.84,0,0,1-.87-3.16,6,6,0,0,1,.9-3.26,6.46,6.46,0,0,1,2.39-2.22,6.58,6.58,0,0,1,3.22-.81,6.94,6.94,0,0,1,3,.64,4.77,4.77,0,0,1,2,1.63l-.18.48.27-2.27h2.58v11.82a5.19,5.19,0,0,1-.86,2.9,5.9,5.9,0,0,1-2.46,2.08A8.54,8.54,0,0,1,422,187.42Zm-4.29-11.82a3.85,3.85,0,0,0,.58,2.07,4.31,4.31,0,0,0,1.56,1.47,4.37,4.37,0,0,0,2.15.54,5,5,0,0,0,2-.38,4.15,4.15,0,0,0,1.49-1.07,3.86,3.86,0,0,0,.84-1.5v-2.35a3.59,3.59,0,0,0-.9-1.48,4.9,4.9,0,0,0-1.5-1,5,5,0,0,0-1.92-.37,4.47,4.47,0,0,0-2.15.53,4.21,4.21,0,0,0-1.56,1.43A3.76,3.76,0,0,0,417.71,175.6Z"/><path class="cls-2" d="M440,187.42a8.68,8.68,0,0,1-2.45-.31,7.61,7.61,0,0,1-1.92-.85,18.71,18.71,0,0,1-1.66-1.19l1.65-1.82a8.85,8.85,0,0,0,2,1.33,5.15,5.15,0,0,0,2.28.49,5.81,5.81,0,0,0,2.38-.44,3.22,3.22,0,0,0,2-3l0-3.18.24.51a4.62,4.62,0,0,1-1.95,2.06,6.66,6.66,0,0,1-3.42.83A6.17,6.17,0,0,1,436,181a6.41,6.41,0,0,1-2.31-2.23,5.84,5.84,0,0,1-.87-3.16,6,6,0,0,1,.9-3.26,6.38,6.38,0,0,1,2.39-2.22,6.58,6.58,0,0,1,3.22-.81,6.94,6.94,0,0,1,3,.64,4.77,4.77,0,0,1,2,1.63l-.18.48.27-2.27h2.58v11.82a5.19,5.19,0,0,1-.86,2.9,6,6,0,0,1-2.46,2.08A8.58,8.58,0,0,1,440,187.42Zm-4.29-11.82a3.85,3.85,0,0,0,.58,2.07,4.24,4.24,0,0,0,1.56,1.47,4.37,4.37,0,0,0,2.15.54,5,5,0,0,0,2-.38,4.15,4.15,0,0,0,1.49-1.07,3.86,3.86,0,0,0,.84-1.5v-2.35a3.59,3.59,0,0,0-.9-1.48,4.9,4.9,0,0,0-1.5-1,5,5,0,0,0-1.92-.37,4.47,4.47,0,0,0-2.15.53,4.13,4.13,0,0,0-1.56,1.43A3.76,3.76,0,0,0,435.68,175.6Z"/><path class="cls-2" d="M451.73,165.59a1.29,1.29,0,0,1,.52-1.05,1.83,1.83,0,0,1,1.16-.43,1.76,1.76,0,0,1,1.14.43,1.35,1.35,0,0,1,0,2.11,1.74,1.74,0,0,1-1.14.41,1.81,1.81,0,0,1-1.16-.41A1.28,1.28,0,0,1,451.73,165.59Zm.18,4.25h2.82v11.74h-2.82Z"/><path class="cls-2" d="M464.75,181.86a6.93,6.93,0,0,1-3.17-.71,5.39,5.39,0,0,1-2.26-2.08,7.11,7.11,0,0,1,0-6.76,5.78,5.78,0,0,1,2.34-2.18,6.73,6.73,0,0,1,3.21-.77,5.5,5.5,0,0,1,3,.75,5.24,5.24,0,0,1,1.82,1.77l-.18.43.27-2.47h2.58v11.74h-2.79v-3.06l.33.68a3.49,3.49,0,0,1-.57.72,7.3,7.3,0,0,1-1.07.89,5.47,5.47,0,0,1-1.51.75A6.06,6.06,0,0,1,464.75,181.86Zm.75-2.18a4.59,4.59,0,0,0,1.89-.37,3.64,3.64,0,0,0,1.39-1.05,3.81,3.81,0,0,0,.77-1.59v-2.29a3.5,3.5,0,0,0-.84-1.49,4,4,0,0,0-1.44-1,4.6,4.6,0,0,0-1.83-.36,4.23,4.23,0,0,0-2.07.51,3.87,3.87,0,0,0-2,3.55,3.93,3.93,0,0,0,.57,2.07,4.22,4.22,0,0,0,3.6,2Z"/><path class="cls-2" d="M479.72,169.84l.21,2.87-.09-.46a4.43,4.43,0,0,1,1.92-2.08,6.18,6.18,0,0,1,3.15-.78,4.16,4.16,0,0,1,2.86,1,3.28,3.28,0,0,1,1.16,2.53v8.68h-2.82v-7.77a2.31,2.31,0,0,0-.59-1.54,2.2,2.2,0,0,0-1.72-.61,3.51,3.51,0,0,0-1.94.56,3.87,3.87,0,0,0-1.38,1.56,5.09,5.09,0,0,0-.49,2.3v5.5h-2.82V169.84Z"/><path class="cls-2" d="M495,164.68h2.85v5.22h3.39V172h-3.39v9.61H495V172h-2.25V169.9H495Z"/><path class="cls-2" d="M510.35,181.86a7.73,7.73,0,0,1-3.66-.81,5.82,5.82,0,0,1-2.37-2.21,6.13,6.13,0,0,1-.84-3.21,5.53,5.53,0,0,1,.94-3.15,7,7,0,0,1,2.51-2.27,7.12,7.12,0,0,1,3.48-.85,6.11,6.11,0,0,1,4.08,1.36,7,7,0,0,1,2.22,3.74l-10.26,3.41-.66-1.57,8.37-2.92-.57.4a3.82,3.82,0,0,0-1.2-1.61,3.33,3.33,0,0,0-2.19-.68,4,4,0,0,0-2,.51,3.67,3.67,0,0,0-1.39,1.4,4.11,4.11,0,0,0-.51,2.08,4.25,4.25,0,0,0,.52,2.13,3.75,3.75,0,0,0,1.47,1.46,4.36,4.36,0,0,0,2.15.52,4.44,4.44,0,0,0,1.57-.28,6.91,6.91,0,0,0,1.46-.74l1.26,2a8.51,8.51,0,0,1-2.09,1A7.27,7.27,0,0,1,510.35,181.86Z"/><path class="cls-2" d="M519.27,179a1.62,1.62,0,0,1,1.1-.46,1.53,1.53,0,0,1,1,.46,1.41,1.41,0,0,1,.5,1.08,1.36,1.36,0,0,1-.5,1.09,1.61,1.61,0,0,1-1,.41,1.71,1.71,0,0,1-1.1-.41,1.35,1.35,0,0,1-.49-1.09A1.4,1.4,0,0,1,519.27,179Z"/></g></g></svg>