<svg xmlns="http://www.w3.org/2000/svg" viewBox="0 0 672 187"><defs><style>.cls-1{fill:#fff;}.cls-2{fill:#846b4a;}</style></defs><title>ahmed testo 12</title><g id="Livello_2" data-name="Livello 2"><g id="illustrazioni"><rect class="cls-1" width="672" height="187" rx="21.32"/></g><g id="testi"><path class="cls-2" d="M41.12,31H44V48.85H55v2.63H41.12Z"/><path class="cls-2" d="M64.25,51.77a7,7,0,0,1-3.16-.71A5.38,5.38,0,0,1,58.82,49,6.3,6.3,0,0,1,58,45.61a6.39,6.39,0,0,1,.87-3.4A5.92,5.92,0,0,1,61.19,40a6.85,6.85,0,0,1,3.21-.77,5.56,5.56,0,0,1,3,.75,5.32,5.32,0,0,1,1.81,1.78l-.18.42.27-2.46h2.58V51.48H69.05V48.42l.33.68a3.49,3.49,0,0,1-.57.72,6.63,6.63,0,0,1-1.06.9,6.34,6.34,0,0,1-1.52.75A6.06,6.06,0,0,1,64.25,51.77ZM65,49.58a4.75,4.75,0,0,0,1.89-.36,3.78,3.78,0,0,0,1.4-1,3.91,3.91,0,0,0,.76-1.59v-2.3a3.56,3.56,0,0,0-.84-1.49,4.3,4.3,0,0,0-1.44-1,4.59,4.59,0,0,0-1.83-.35,4.23,4.23,0,0,0-2.07.51,4,4,0,0,0-1.49,1.41,4.12,4.12,0,0,0-.55,2.13,3.88,3.88,0,0,0,.57,2.07A4.07,4.07,0,0,0,62.93,49,4.15,4.15,0,0,0,65,49.58Z"/><path class="cls-2" d="M81.74,51.82l-6.9-12.07h3.33l4.65,9.32L81.11,49l4.29-9.24h3.12L81.89,51.82Z"/><path class="cls-2" d="M90.11,45.5A5.84,5.84,0,0,1,91,42.33a6.1,6.1,0,0,1,2.47-2.24A7.56,7.56,0,0,1,97,39.26a7.35,7.35,0,0,1,3.54.83A6,6,0,0,1,103,42.33a6.29,6.29,0,0,1,0,6.35,6.22,6.22,0,0,1-2.38,2.25,7.3,7.3,0,0,1-3.57.84A7.73,7.73,0,0,1,93.46,51,6,6,0,0,1,91,48.8,6,6,0,0,1,90.11,45.5Zm2.82,0a4,4,0,0,0,2,3.51,3.89,3.89,0,0,0,2,.54,3.92,3.92,0,0,0,3.5-2,4.14,4.14,0,0,0,.52-2A4,4,0,0,0,99,42,3.86,3.86,0,0,0,97,41.45a3.91,3.91,0,0,0-2.06.56,4.16,4.16,0,0,0-1.43,1.49A4,4,0,0,0,92.93,45.53Z"/><path class="cls-2" d="M110.06,39.75l.27,3.4-.12-.48a5.21,5.21,0,0,1,1.38-1.82,6.61,6.61,0,0,1,1.92-1.16,5.47,5.47,0,0,1,1.74-.43l-.12,2.67a4.24,4.24,0,0,0-2.5.49A4.71,4.71,0,0,0,110.94,44a3.89,3.89,0,0,0-.61,2.11v5.36h-2.79V39.75Z"/><path class="cls-2" d="M123.56,51.77a7.06,7.06,0,0,1-3.17-.71A5.42,5.42,0,0,1,118.13,49a6.3,6.3,0,0,1-.84-3.36,6.39,6.39,0,0,1,.87-3.4A5.92,5.92,0,0,1,120.5,40a6.85,6.85,0,0,1,3.21-.77,5.5,5.5,0,0,1,3,.75,5.36,5.36,0,0,1,1.82,1.78l-.18.42.27-2.46h2.58V51.48h-2.79V48.42l.33.68a3.49,3.49,0,0,1-.57.72,6.74,6.74,0,0,1-1.07.9,6,6,0,0,1-3.49,1.05Zm.75-2.19a4.75,4.75,0,0,0,1.89-.36,3.74,3.74,0,0,0,1.39-1,3.93,3.93,0,0,0,.77-1.59v-2.3a3.56,3.56,0,0,0-.84-1.49,4.3,4.3,0,0,0-1.44-1,4.59,4.59,0,0,0-1.83-.35,4.23,4.23,0,0,0-2.07.51,4,4,0,0,0-1.49,1.41,4,4,0,0,0-.55,2.13,3.88,3.88,0,0,0,.57,2.07A4.07,4.07,0,0,0,122.24,49,4.15,4.15,0,0,0,124.31,49.58Z"/><path class="cls-2" d="M138.53,39.75l.21,2.86-.09-.45a4.45,4.45,0,0,1,1.92-2.09,6.18,6.18,0,0,1,3.15-.78,4.21,4.21,0,0,1,2.86,1,3.3,3.3,0,0,1,1.16,2.54v8.67h-2.82V43.71a2.33,2.33,0,0,0-.59-1.54,2.2,2.2,0,0,0-1.72-.61,3.52,3.52,0,0,0-1.94.57,3.81,3.81,0,0,0-1.38,1.56A5,5,0,0,0,138.8,46v5.5H136V39.75Z"/><path class="cls-2" d="M157.64,51.77a6.23,6.23,0,0,1-3.12-.78,5.86,5.86,0,0,1-2.21-2.21,6.53,6.53,0,0,1-.82-3.31,6.15,6.15,0,0,1,.87-3.34A5.72,5.72,0,0,1,154.7,40a7.28,7.28,0,0,1,3.3-.74,6.74,6.74,0,0,1,2.8.6,5,5,0,0,1,2.09,1.64l-.15.94V29.54h2.79V51.48h-2.79V48.56l.33.74a7,7,0,0,1-2.3,1.77A6.83,6.83,0,0,1,157.64,51.77Zm.87-2.24a4.52,4.52,0,0,0,2-.4,4.28,4.28,0,0,0,1.44-1.06,3.87,3.87,0,0,0,.83-1.58V44.25a3.65,3.65,0,0,0-.86-1.5,4.34,4.34,0,0,0-1.47-1,5,5,0,0,0-1.9-.35,4.35,4.35,0,0,0-2.07.51,4,4,0,0,0-1.53,1.42,4.12,4.12,0,0,0,0,4.18A4.23,4.23,0,0,0,156.44,49,4.07,4.07,0,0,0,158.51,49.53Z"/><path class="cls-2" d="M169.28,45.5a5.84,5.84,0,0,1,.88-3.17,6.13,6.13,0,0,1,2.46-2.24,7.63,7.63,0,0,1,3.59-.83,7.35,7.35,0,0,1,3.54.83A6,6,0,0,1,183,45.5a6.07,6.07,0,0,1-.86,3.18,6.22,6.22,0,0,1-2.38,2.25,7.3,7.3,0,0,1-3.57.84,7.81,7.81,0,0,1-3.56-.78,6.09,6.09,0,0,1-2.44-2.19A6,6,0,0,1,169.28,45.5Zm2.82,0a4,4,0,0,0,2,3.51,3.89,3.89,0,0,0,2,.54,3.94,3.94,0,0,0,2.07-.54,3.83,3.83,0,0,0,1.42-1.46,4,4,0,0,0,.53-2A4.08,4.08,0,0,0,178.19,42a3.86,3.86,0,0,0-2.07-.55,3.91,3.91,0,0,0-2.06.56,4.19,4.19,0,0,0-1.44,1.49A4,4,0,0,0,172.1,45.53Z"/><path class="cls-2" d="M202,51.77a7.73,7.73,0,0,1-3.66-.81A6,6,0,0,1,196,48.75a6.16,6.16,0,0,1-.84-3.22,5.57,5.57,0,0,1,.94-3.15,7.05,7.05,0,0,1,2.51-2.27,7.23,7.23,0,0,1,3.48-.85,6.16,6.16,0,0,1,4.08,1.36,7,7,0,0,1,2.22,3.75l-10.26,3.4-.66-1.56,8.37-2.92-.57.4a3.79,3.79,0,0,0-1.2-1.62,3.39,3.39,0,0,0-2.19-.68,4,4,0,0,0-2,.51,3.74,3.74,0,0,0-1.39,1.4,4.15,4.15,0,0,0-.51,2.09,4.24,4.24,0,0,0,.52,2.12A3.69,3.69,0,0,0,199.89,49a4.36,4.36,0,0,0,2.15.53,4.68,4.68,0,0,0,1.57-.28,7.42,7.42,0,0,0,1.46-.74l1.26,2a8.92,8.92,0,0,1-2.09,1A7.57,7.57,0,0,1,202,51.77Z"/><path class="cls-2" d="M222.32,51.48V42.1h-2.16V39.72h2.16V34.78a5.69,5.69,0,0,1,1.21-3.91,4.58,4.58,0,0,1,3.62-1.36,6.49,6.49,0,0,1,1.38.17,3.65,3.65,0,0,1,1.32.57l-1.17,1.9a1.32,1.32,0,0,0-.57-.36,2.68,2.68,0,0,0-.69-.1,2.12,2.12,0,0,0-1.71.71,3.76,3.76,0,0,0-.6,2.44v4.88H229V42.1h-3.93v9.38Z"/><path class="cls-2" d="M235.19,39.75l.27,3.4-.12-.48a5.18,5.18,0,0,1,1.37-1.82,6.75,6.75,0,0,1,1.92-1.16,5.46,5.46,0,0,1,1.75-.43l-.12,2.67a4.27,4.27,0,0,0-2.51.49A4.76,4.76,0,0,0,236.07,44a3.89,3.89,0,0,0-.61,2.11v5.36h-2.79V39.75Z"/><path class="cls-2" d="M249.2,51.77a7.7,7.7,0,0,1-3.66-.81,5.89,5.89,0,0,1-2.37-2.21,6.16,6.16,0,0,1-.84-3.22,5.57,5.57,0,0,1,.94-3.15,7,7,0,0,1,2.51-2.27,7.17,7.17,0,0,1,3.48-.85,6.18,6.18,0,0,1,4.08,1.36,7,7,0,0,1,2.21,3.75l-10.26,3.4-.66-1.56L253,43.29l-.57.4a3.87,3.87,0,0,0-1.2-1.62,3.4,3.4,0,0,0-2.2-.68,4,4,0,0,0-2,.51,3.66,3.66,0,0,0-1.39,1.4,4.15,4.15,0,0,0-.51,2.09,4.24,4.24,0,0,0,.52,2.12A3.69,3.69,0,0,0,247.11,49a4.36,4.36,0,0,0,2.15.53,4.72,4.72,0,0,0,1.57-.28,7.71,7.71,0,0,0,1.46-.74l1.25,2a8.66,8.66,0,0,1-2.08,1A7.57,7.57,0,0,1,249.2,51.77Z"/><path class="cls-2" d="M264,51.77a6.32,6.32,0,0,1-3-.75,5.7,5.7,0,0,1-2.22-2.14,6.35,6.35,0,0,1-.82-3.29,6,6,0,0,1,.89-3.32,6.34,6.34,0,0,1,2.39-2.21,6.83,6.83,0,0,1,3.28-.8,6.13,6.13,0,0,1,3,.7,5.65,5.65,0,0,1,2.06,1.8l-.33.82v-3H272V57.13h-2.78V48.48l.14,1.1a5.05,5.05,0,0,1-2.12,1.58A8.08,8.08,0,0,1,264,51.77Zm.93-2.1a4.83,4.83,0,0,0,2-.4,3.91,3.91,0,0,0,1.48-1.1,3.81,3.81,0,0,0,.77-1.56v-2a3.93,3.93,0,0,0-.83-1.61,4.05,4.05,0,0,0-1.44-1.07,4.83,4.83,0,0,0-2-.38,4.15,4.15,0,0,0-2.07.54,4.05,4.05,0,0,0-1.53,1.46,3.78,3.78,0,0,0-.57,2.08,3.7,3.7,0,0,0,.57,2.07,4,4,0,0,0,1.53,1.45A4.15,4.15,0,0,0,265,49.67Z"/><path class="cls-2" d="M280.79,51.94A4.12,4.12,0,0,1,278,51a3.44,3.44,0,0,1-1.16-2.54V39.75h2.83v7.74a2.49,2.49,0,0,0,.59,1.54,2.2,2.2,0,0,0,1.68.64,3.13,3.13,0,0,0,1.85-.58,4.26,4.26,0,0,0,1.33-1.59,5,5,0,0,0,.52-2.28V39.75h2.79V51.48h-2.56l-.23-2.89.18.54a4.61,4.61,0,0,1-1.12,1.43,5.21,5.21,0,0,1-1.72,1A6.33,6.33,0,0,1,280.79,51.94Z"/><path class="cls-2" d="M299,51.77A7.73,7.73,0,0,1,295.3,51a5.93,5.93,0,0,1-2.36-2.21,6.16,6.16,0,0,1-.84-3.22,5.57,5.57,0,0,1,.94-3.15,7,7,0,0,1,2.5-2.27,7.24,7.24,0,0,1,3.49-.85,6.18,6.18,0,0,1,4.08,1.36,7,7,0,0,1,2.21,3.75l-10.26,3.4-.66-1.56,8.38-2.92-.57.4a4,4,0,0,0-1.2-1.62,3.42,3.42,0,0,0-2.2-.68,4,4,0,0,0-2,.51,3.76,3.76,0,0,0-1.4,1.4,4.15,4.15,0,0,0-.51,2.09,4.25,4.25,0,0,0,.53,2.12A3.69,3.69,0,0,0,296.88,49a4.34,4.34,0,0,0,2.15.53,4.72,4.72,0,0,0,1.57-.28,7.34,7.34,0,0,0,1.45-.74l1.26,2a8.66,8.66,0,0,1-2.08,1A7.59,7.59,0,0,1,299,51.77Z"/><path class="cls-2" d="M311.32,39.75l.22,2.86-.09-.45a4.35,4.35,0,0,1,1.92-2.09,6.12,6.12,0,0,1,3.14-.78,4.23,4.23,0,0,1,2.87,1,3.33,3.33,0,0,1,1.16,2.54v8.67h-2.83V43.71a2.27,2.27,0,0,0-.58-1.54,2.22,2.22,0,0,0-1.73-.61,3.51,3.51,0,0,0-1.93.57,3.81,3.81,0,0,0-1.38,1.56,5,5,0,0,0-.5,2.29v5.5h-2.81V39.75Z"/><path class="cls-2" d="M326.56,34.58h2.85V39.8h3.39v2.07h-3.39v9.61h-2.85V41.87h-2.25V39.8h2.25Z"/><path class="cls-2" d="M341.35,51.77a7,7,0,0,1-3.16-.71A5.44,5.44,0,0,1,335.92,49a7.07,7.07,0,0,1,0-6.76A5.82,5.82,0,0,1,338.29,40a6.85,6.85,0,0,1,3.21-.77,5.54,5.54,0,0,1,3,.75,5.32,5.32,0,0,1,1.81,1.78l-.18.42.27-2.46h2.58V51.48h-2.79V48.42l.33.68a3.49,3.49,0,0,1-.57.72,6.63,6.63,0,0,1-1.06.9,6.16,6.16,0,0,1-1.52.75A6.06,6.06,0,0,1,341.35,51.77Zm.75-2.19a4.75,4.75,0,0,0,1.89-.36,3.78,3.78,0,0,0,1.4-1,3.91,3.91,0,0,0,.76-1.59v-2.3a3.56,3.56,0,0,0-.84-1.49,4.36,4.36,0,0,0-1.43-1,4.64,4.64,0,0,0-1.84-.35A4.23,4.23,0,0,0,340,42a3.93,3.93,0,0,0-1.48,1.41,4,4,0,0,0-.56,2.13,3.88,3.88,0,0,0,.57,2.07A4.07,4.07,0,0,0,340,49,4.15,4.15,0,0,0,342.1,49.58Z"/><path class="cls-2" d="M356.32,39.75l.21,2.86-.09-.45a4.45,4.45,0,0,1,1.92-2.09,6.18,6.18,0,0,1,3.15-.78,4.23,4.23,0,0,1,2.87,1,3.29,3.29,0,0,1,1.15,2.54v8.67h-2.82V43.71a2.32,2.32,0,0,0-.58-1.54,2.22,2.22,0,0,0-1.73-.61,3.49,3.49,0,0,0-1.93.57,3.81,3.81,0,0,0-1.38,1.56,5,5,0,0,0-.5,2.29v5.5h-2.82V39.75Z"/><path class="cls-2" d="M375.43,51.77a6.23,6.23,0,0,1-3.12-.78,5.84,5.84,0,0,1-2.2-2.21,6.53,6.53,0,0,1-.83-3.31,6.15,6.15,0,0,1,.87-3.34A5.72,5.72,0,0,1,372.49,40a7.28,7.28,0,0,1,3.3-.74,6.79,6.79,0,0,1,2.81.6,5,5,0,0,1,2.08,1.64l-.15.94V29.54h2.79V51.48h-2.79V48.56l.33.74a7,7,0,0,1-5.43,2.47Zm.87-2.24a4.56,4.56,0,0,0,2-.4,4.28,4.28,0,0,0,1.44-1.06,3.85,3.85,0,0,0,.82-1.58V44.25a3.63,3.63,0,0,0-.85-1.5,4.34,4.34,0,0,0-1.47-1,5.08,5.08,0,0,0-1.91-.35,4.35,4.35,0,0,0-2.07.51,4,4,0,0,0-1.53,1.42,4.12,4.12,0,0,0,0,4.18A4.23,4.23,0,0,0,374.23,49,4.07,4.07,0,0,0,376.3,49.53Z"/><path class="cls-2" d="M387.07,45.5a5.85,5.85,0,0,1,.89-3.17,6.13,6.13,0,0,1,2.46-2.24,7.59,7.59,0,0,1,3.58-.83,7.35,7.35,0,0,1,3.54.83,6.21,6.21,0,0,1,2.39,8.59,6.25,6.25,0,0,1-2.39,2.25,7.3,7.3,0,0,1-3.57.84,7.76,7.76,0,0,1-3.55-.78A6.11,6.11,0,0,1,388,48.8,6,6,0,0,1,387.07,45.5Zm2.82,0a4,4,0,0,0,2,3.51,3.89,3.89,0,0,0,2,.54A3.94,3.94,0,0,0,396,49a3.86,3.86,0,0,0,1.43-1.46,4,4,0,0,0,.52-2A4,4,0,0,0,396,42a4.1,4.1,0,0,0-4.12,0,4.19,4.19,0,0,0-1.44,1.49A4,4,0,0,0,389.89,45.53Z"/><path class="cls-2" d="M414,29.54h2.82V51.48H414Z"/><path class="cls-2" d="M420.28,34.81a4,4,0,0,0,1-1.56,3.28,3.28,0,0,0,.13-2l2.28-.2a3.56,3.56,0,0,1-.09,1.64,5.4,5.4,0,0,1-.73,1.62,3.86,3.86,0,0,1-1.19,1.16Z"/><path class="cls-2" d="M431.17,51.94a4.09,4.09,0,0,1-2.83-1,3.44,3.44,0,0,1-1.16-2.54V39.75H430v7.74a2.5,2.5,0,0,0,.6,1.54,2.2,2.2,0,0,0,1.68.64,3.13,3.13,0,0,0,1.85-.58,4.26,4.26,0,0,0,1.33-1.59,5,5,0,0,0,.51-2.28V39.75h2.79V51.48h-2.55L436,48.59l.18.54A4.57,4.57,0,0,1,435,50.56a5.32,5.32,0,0,1-1.72,1A6.35,6.35,0,0,1,431.17,51.94Z"/><path class="cls-2" d="M446.11,39.75l.21,2.86-.09-.45a4.45,4.45,0,0,1,1.92-2.09,6.18,6.18,0,0,1,3.15-.78,4.23,4.23,0,0,1,2.87,1,3.29,3.29,0,0,1,1.15,2.54v8.67H452.5V43.71a2.32,2.32,0,0,0-.58-1.54,2.22,2.22,0,0,0-1.73-.61,3.49,3.49,0,0,0-1.93.57,3.81,3.81,0,0,0-1.38,1.56,5,5,0,0,0-.5,2.29v5.5h-2.82V39.75Z"/><path class="cls-2" d="M460,35.49a1.33,1.33,0,0,1,.53-1.05,1.79,1.79,0,0,1,1.15-.42,1.75,1.75,0,0,1,1.14.42,1.33,1.33,0,0,1,.51,1.05,1.32,1.32,0,0,1-.51,1.07,1.79,1.79,0,0,1-1.14.41,1.84,1.84,0,0,1-1.15-.41A1.31,1.31,0,0,1,460,35.49Zm.18,4.26H463V51.48h-2.82Z"/><path class="cls-2" d="M472.87,51.82,466,39.75h3.33L474,49.07,472.24,49l4.29-9.24h3.12L473,51.82Z"/><path class="cls-2" d="M488.11,51.77a7.73,7.73,0,0,1-3.66-.81,6,6,0,0,1-2.37-2.21,6.16,6.16,0,0,1-.84-3.22,5.51,5.51,0,0,1,.95-3.15,6.94,6.94,0,0,1,2.5-2.27,7.23,7.23,0,0,1,3.48-.85,6.16,6.16,0,0,1,4.08,1.36,7,7,0,0,1,2.22,3.75l-10.26,3.4-.66-1.56,8.37-2.92-.57.4a3.79,3.79,0,0,0-1.2-1.62,3.39,3.39,0,0,0-2.19-.68,4,4,0,0,0-2,.51,3.76,3.76,0,0,0-1.4,1.4,4.15,4.15,0,0,0-.51,2.09,4.35,4.35,0,0,0,.52,2.12A3.65,3.65,0,0,0,486,49a4.33,4.33,0,0,0,2.14.53,4.74,4.74,0,0,0,1.58-.28,7.34,7.34,0,0,0,1.45-.74l1.26,2a9,9,0,0,1-2.08,1A7.64,7.64,0,0,1,488.11,51.77Z"/><path class="cls-2" d="M500.44,39.75l.27,3.4-.12-.48A5.21,5.21,0,0,1,502,40.85a6.61,6.61,0,0,1,1.92-1.16,5.47,5.47,0,0,1,1.74-.43l-.12,2.67a4.24,4.24,0,0,0-2.5.49A4.71,4.71,0,0,0,501.32,44a3.89,3.89,0,0,0-.61,2.11v5.36h-2.79V39.75Z"/><path class="cls-2" d="M512.71,51.71a7.76,7.76,0,0,1-2.57-.44A4.92,4.92,0,0,1,508.09,50l1.17-1.53a6.24,6.24,0,0,0,1.62,1.06,4,4,0,0,0,1.62.36,4.32,4.32,0,0,0,1.11-.14,1.81,1.81,0,0,0,.82-.48,1.25,1.25,0,0,0,.32-.88,1.23,1.23,0,0,0-.44-1,3.41,3.41,0,0,0-1.09-.58c-.44-.15-.92-.29-1.44-.43A5.36,5.36,0,0,1,509.44,45a2.9,2.9,0,0,1-.81-2.07,3.2,3.2,0,0,1,.5-1.74,3.73,3.73,0,0,1,1.48-1.34,5.07,5.07,0,0,1,2.4-.52,8.19,8.19,0,0,1,2.31.3,5.7,5.7,0,0,1,1.92,1l-1.11,1.65a3.49,3.49,0,0,0-1.28-.81,3.89,3.89,0,0,0-1.33-.27,3,3,0,0,0-1,.16,1.82,1.82,0,0,0-.75.45,1,1,0,0,0-.28.75,1.07,1.07,0,0,0,.4,1,3.46,3.46,0,0,0,1.1.58l1.35.46a6.57,6.57,0,0,1,1.62.68,3.53,3.53,0,0,1,1.15,1.05,2.64,2.64,0,0,1,.44,1.56,3.77,3.77,0,0,1-.53,1.94,3.69,3.69,0,0,1-1.59,1.42A6.12,6.12,0,0,1,512.71,51.71Z"/><path class="cls-2" d="M521.23,35.49a1.32,1.32,0,0,1,.52-1.05,1.82,1.82,0,0,1,1.16-.42,1.75,1.75,0,0,1,1.14.42,1.33,1.33,0,0,1,.51,1.05,1.32,1.32,0,0,1-.51,1.07,1.79,1.79,0,0,1-1.14.41,1.87,1.87,0,0,1-1.16-.41A1.3,1.3,0,0,1,521.23,35.49Zm.18,4.26h2.82V51.48h-2.82Z"/><path class="cls-2" d="M530.26,34.58h2.85V39.8h3.39v2.07h-3.39v9.61h-2.85V41.87H528V39.8h2.25Z"/><path class="cls-2" d="M545.05,51.77a7.06,7.06,0,0,1-3.17-.71A5.42,5.42,0,0,1,539.62,49a6.3,6.3,0,0,1-.84-3.36,6.39,6.39,0,0,1,.87-3.4A5.92,5.92,0,0,1,542,40a6.85,6.85,0,0,1,3.21-.77,5.5,5.5,0,0,1,2.95.75A5.36,5.36,0,0,1,550,41.79l-.18.42.27-2.46h2.58V51.48h-2.79V48.42l.33.68a3.49,3.49,0,0,1-.57.72,6.74,6.74,0,0,1-1.07.9,6,6,0,0,1-3.49,1.05Zm.75-2.19a4.75,4.75,0,0,0,1.89-.36,3.74,3.74,0,0,0,1.39-1,3.93,3.93,0,0,0,.77-1.59v-2.3a3.56,3.56,0,0,0-.84-1.49,4.3,4.3,0,0,0-1.44-1,4.59,4.59,0,0,0-1.83-.35,4.23,4.23,0,0,0-2.07.51,4,4,0,0,0-1.49,1.41,4,4,0,0,0-.55,2.13,3.88,3.88,0,0,0,.57,2.07A4.07,4.07,0,0,0,543.73,49,4.15,4.15,0,0,0,545.8,49.58Zm-3.51-16h3.09l2.19,3.8H545.8Z"/><path class="cls-2" d="M566.77,35.49a1.32,1.32,0,0,1,.52-1.05,1.82,1.82,0,0,1,1.16-.42,1.75,1.75,0,0,1,1.14.42,1.33,1.33,0,0,1,.51,1.05,1.32,1.32,0,0,1-.51,1.07,1.79,1.79,0,0,1-1.14.41,1.87,1.87,0,0,1-1.16-.41A1.3,1.3,0,0,1,566.77,35.49Zm.18,4.26h2.82V51.48H567Z"/><path class="cls-2" d="M577.15,39.75l.21,2.86-.09-.45a4.4,4.4,0,0,1,1.92-2.09,6.18,6.18,0,0,1,3.15-.78,4.21,4.21,0,0,1,2.86,1,3.3,3.3,0,0,1,1.16,2.54v8.67h-2.82V43.71a2.33,2.33,0,0,0-.59-1.54,2.2,2.2,0,0,0-1.72-.61,3.52,3.52,0,0,0-1.94.57,3.81,3.81,0,0,0-1.38,1.56,5,5,0,0,0-.49,2.29v5.5H574.6V39.75Z"/><path class="cls-2" d="M50.51,84.4a6.14,6.14,0,0,1-2,1,7.62,7.62,0,0,1-2.34.37A7.86,7.86,0,0,1,42.61,85a5.78,5.78,0,0,1-2.42-2.16,6,6,0,0,1-.87-3.26,5.67,5.67,0,0,1,.93-3.25,6.35,6.35,0,0,1,2.42-2.12,7,7,0,0,1,3.22-.75,8.4,8.4,0,0,1,2.65.38A6.14,6.14,0,0,1,50.6,75l-1.41,1.7A6.08,6.08,0,0,0,47.88,76a4.47,4.47,0,0,0-1.75-.33,4,4,0,0,0-2,.53,4,4,0,0,0-1.43,5.45,4,4,0,0,0,1.5,1.45,4.45,4.45,0,0,0,2.22.54,4.49,4.49,0,0,0,2.67-.85Z"/><path class="cls-2" d="M53,79.52a5.84,5.84,0,0,1,.88-3.17,6.17,6.17,0,0,1,2.47-2.24,7.56,7.56,0,0,1,3.58-.82,7.34,7.34,0,0,1,3.54.82,6.08,6.08,0,0,1,2.39,2.24,6.35,6.35,0,0,1,0,6.35A6.1,6.1,0,0,1,63.47,85a7.3,7.3,0,0,1-3.57.84A7.76,7.76,0,0,1,56.35,85a6.1,6.1,0,0,1-2.45-2.18A6,6,0,0,1,53,79.52Zm2.82,0a4,4,0,0,0,.54,2.06,4.11,4.11,0,0,0,1.44,1.46,3.89,3.89,0,0,0,2,.54,3.94,3.94,0,0,0,2.07-.54,4.2,4.2,0,0,0,1.43-5.57A4.14,4.14,0,0,0,61.91,76a3.86,3.86,0,0,0-2.07-.55,3.77,3.77,0,0,0-2.05.57,4.11,4.11,0,0,0-1.44,1.49A3.91,3.91,0,0,0,55.82,79.55Z"/><path class="cls-2" d="M73,73.77l.21,2.86-.09-.45A4.43,4.43,0,0,1,75,74.1a6.18,6.18,0,0,1,3.15-.78,4.23,4.23,0,0,1,2.87,1,3.31,3.31,0,0,1,1.15,2.54v8.68H79.37V77.74a2.38,2.38,0,0,0-.58-1.55,2.27,2.27,0,0,0-1.73-.61,3.46,3.46,0,0,0-1.93.57,3.9,3.9,0,0,0-1.39,1.56,5.09,5.09,0,0,0-.49,2.3v5.5H70.43V73.77Z"/><path class="cls-2" d="M88.22,68.61h2.85v5.22h3.39V75.9H91.07v9.61H88.22V75.9H86V73.83h2.25Z"/><path class="cls-2" d="M103.61,85.79A7.73,7.73,0,0,1,100,85a5.89,5.89,0,0,1-2.37-2.21,6.14,6.14,0,0,1-.84-3.22,5.52,5.52,0,0,1,.94-3.14,6.87,6.87,0,0,1,2.51-2.27,7.12,7.12,0,0,1,3.48-.85,6.11,6.11,0,0,1,4.08,1.36A6.93,6.93,0,0,1,110,78.39l-10.26,3.4-.66-1.56,8.37-2.92-.57.4a3.91,3.91,0,0,0-1.2-1.62,3.39,3.39,0,0,0-2.19-.68,4,4,0,0,0-2,.51A3.69,3.69,0,0,0,100,77.33a4.11,4.11,0,0,0-.51,2.08,4.39,4.39,0,0,0,.52,2.13A3.71,3.71,0,0,0,101.53,83a4.29,4.29,0,0,0,2.14.52,4.44,4.44,0,0,0,1.57-.28,7.42,7.42,0,0,0,1.46-.74l1.26,2a9,9,0,0,1-2.08,1A7.38,7.38,0,0,1,103.61,85.79Z"/><path class="cls-2" d="M116,73.77l.24,2.64-.15-.23a5.24,5.24,0,0,1,2-2.11,5.57,5.57,0,0,1,3-.78,5,5,0,0,1,1.83.32,3.54,3.54,0,0,1,1.33.91,2.83,2.83,0,0,1,.68,1.4l-.15.12a5.11,5.11,0,0,1,2-2,5.4,5.4,0,0,1,2.69-.72,4.07,4.07,0,0,1,2.89,1,3.49,3.49,0,0,1,1.13,2.52v8.71h-2.82V77.77a2.71,2.71,0,0,0-.47-1.52,1.78,1.78,0,0,0-1.51-.64,3.31,3.31,0,0,0-1.94.61,4.09,4.09,0,0,0-1.32,1.59,5.25,5.25,0,0,0-.49,2.14v5.56H122V77.77a2.58,2.58,0,0,0-.5-1.52,1.87,1.87,0,0,0-1.54-.64,3.23,3.23,0,0,0-1.92.61,4.23,4.23,0,0,0-1.32,1.6,4.92,4.92,0,0,0-.48,2.16v5.53h-2.82V73.77Z"/><path class="cls-2" d="M145.52,85.79a6.32,6.32,0,0,1-2.72-.62,4.81,4.81,0,0,1-2-1.68l.15-.82v8.48h-2.79V73.6h2.43l.39,3-.3-.85A7.27,7.27,0,0,1,143,74a6.81,6.81,0,0,1,3.09-.69,6.29,6.29,0,0,1,3.13.78,5.59,5.59,0,0,1,2.21,2.21,6.62,6.62,0,0,1,.81,3.33,6.05,6.05,0,0,1-.87,3.27A5.74,5.74,0,0,1,149,85,7.62,7.62,0,0,1,145.52,85.79Zm-.54-2.1a4.6,4.6,0,0,0,2.19-.52,4.29,4.29,0,0,0,1.6-1.45,3.66,3.66,0,0,0,.62-2.08,3.9,3.9,0,0,0-.57-2.11,4.07,4.07,0,0,0-1.52-1.45,4.26,4.26,0,0,0-2.11-.52,4.71,4.71,0,0,0-1.95.38A3.86,3.86,0,0,0,141.8,77a4.06,4.06,0,0,0-.81,1.62v2a3.38,3.38,0,0,0,.72,1.56,4,4,0,0,0,1.42,1.12A4.14,4.14,0,0,0,145,83.69Z"/><path class="cls-2" d="M154.88,79.52a5.84,5.84,0,0,1,.88-3.17,6.21,6.21,0,0,1,2.46-2.24,7.63,7.63,0,0,1,3.59-.82,7.34,7.34,0,0,1,3.54.82,6.13,6.13,0,0,1,0,10.84,7.3,7.3,0,0,1-3.57.84,7.81,7.81,0,0,1-3.56-.78,6.14,6.14,0,0,1-2.44-2.18A6,6,0,0,1,154.88,79.52Zm2.82,0a4,4,0,0,0,.54,2.06,4.11,4.11,0,0,0,1.44,1.46,3.89,3.89,0,0,0,2,.54,3.89,3.89,0,0,0,3.49-2,4.25,4.25,0,0,0,0-4.11A4,4,0,0,0,163.79,76a4.09,4.09,0,0,0-4.13,0,4.11,4.11,0,0,0-1.44,1.49A4,4,0,0,0,157.7,79.55Z"/><path class="cls-2" d="M174.83,73.77l.27,3.4-.12-.48a5.17,5.17,0,0,1,1.38-1.81,6.65,6.65,0,0,1,1.92-1.17,5.7,5.7,0,0,1,1.74-.42L179.9,76a4.29,4.29,0,0,0-2.51.5A4.59,4.59,0,0,0,175.71,78a3.87,3.87,0,0,0-.61,2.11v5.36h-2.79V73.77Z"/><path class="cls-2" d="M188.33,85.79a7.06,7.06,0,0,1-3.17-.71A5.39,5.39,0,0,1,182.9,83a7.11,7.11,0,0,1,0-6.76,5.87,5.87,0,0,1,2.34-2.19,6.84,6.84,0,0,1,3.21-.76,5.5,5.5,0,0,1,3,.75,5.24,5.24,0,0,1,1.82,1.77l-.18.43.27-2.47h2.58V85.51h-2.79V82.45l.33.68a3.77,3.77,0,0,1-.57.72,7.3,7.3,0,0,1-1.07.89,6,6,0,0,1-3.49,1.05Zm.75-2.18a4.75,4.75,0,0,0,1.89-.37,3.74,3.74,0,0,0,1.39-1,3.81,3.81,0,0,0,.77-1.59V78.31a3.5,3.5,0,0,0-.84-1.49,4.19,4.19,0,0,0-1.44-1,4.77,4.77,0,0,0-1.83-.35A4.23,4.23,0,0,0,187,76a3.91,3.91,0,0,0-1.49,1.42,4,4,0,0,0-.55,2.12,3.88,3.88,0,0,0,.57,2.07A4.1,4.1,0,0,0,187,83.07,4.15,4.15,0,0,0,189.08,83.61Z"/><path class="cls-2" d="M203.3,73.77l.21,2.86-.09-.45a4.43,4.43,0,0,1,1.92-2.08,6.18,6.18,0,0,1,3.15-.78,4.2,4.2,0,0,1,2.86,1,3.32,3.32,0,0,1,1.16,2.54v8.68h-2.82V77.74a2.33,2.33,0,0,0-.59-1.55,2.23,2.23,0,0,0-1.72-.61,3.52,3.52,0,0,0-1.94.57,3.87,3.87,0,0,0-1.38,1.56,5.09,5.09,0,0,0-.49,2.3v5.5h-2.82V73.77Z"/><path class="cls-2" d="M223.13,85.79a7.73,7.73,0,0,1-3.66-.81,5.89,5.89,0,0,1-2.37-2.21,6.14,6.14,0,0,1-.84-3.22,5.52,5.52,0,0,1,.94-3.14,6.87,6.87,0,0,1,2.51-2.27,7.12,7.12,0,0,1,3.48-.85,6.11,6.11,0,0,1,4.08,1.36,6.93,6.93,0,0,1,2.22,3.74l-10.26,3.4-.66-1.56,8.37-2.92-.57.4a3.91,3.91,0,0,0-1.2-1.62,3.39,3.39,0,0,0-2.19-.68,4,4,0,0,0-2,.51,3.69,3.69,0,0,0-1.39,1.41,4.11,4.11,0,0,0-.51,2.08,4.28,4.28,0,0,0,.52,2.13A3.75,3.75,0,0,0,221,83a4.36,4.36,0,0,0,2.15.52,4.44,4.44,0,0,0,1.57-.28,7.42,7.42,0,0,0,1.46-.74l1.26,2a8.9,8.9,0,0,1-2.09,1A7.27,7.27,0,0,1,223.13,85.79Z"/><path class="cls-2" d="M238.13,85.79a7.06,7.06,0,0,1-3.17-.71A5.39,5.39,0,0,1,232.7,83a7.11,7.11,0,0,1,0-6.76,5.87,5.87,0,0,1,2.34-2.19,6.84,6.84,0,0,1,3.21-.76,5.5,5.5,0,0,1,2.95.75,5.24,5.24,0,0,1,1.82,1.77l-.18.43.27-2.47h2.58V85.51h-2.79V82.45l.33.68a3.77,3.77,0,0,1-.57.72,7.3,7.3,0,0,1-1.07.89,6,6,0,0,1-3.49,1.05Zm.75-2.18a4.75,4.75,0,0,0,1.89-.37,3.74,3.74,0,0,0,1.39-1,3.81,3.81,0,0,0,.77-1.59V78.31a3.5,3.5,0,0,0-.84-1.49,4.19,4.19,0,0,0-1.44-1,4.77,4.77,0,0,0-1.83-.35,4.23,4.23,0,0,0-2.07.51,3.91,3.91,0,0,0-1.49,1.42,4,4,0,0,0-.55,2.12,3.88,3.88,0,0,0,.57,2.07,4.1,4.1,0,0,0,1.53,1.48A4.15,4.15,0,0,0,238.88,83.61Z"/><path class="cls-2" d="M253.13,83l-1.31,3c-.43,1-.86,2-1.3,3h-2.31c.42-1,.82-2,1.2-3l1.14-3Z"/><path class="cls-2" d="M265.94,69.52a1.29,1.29,0,0,1,.52-1,1.78,1.78,0,0,1,1.16-.43,1.73,1.73,0,0,1,1.14.43,1.35,1.35,0,0,1,0,2.11,1.81,1.81,0,0,1-1.14.41,1.87,1.87,0,0,1-1.16-.41A1.28,1.28,0,0,1,265.94,69.52Zm.18,4.25h2.82V85.51h-2.82Z"/><path class="cls-2" d="M273.77,63.56h2.81v22h-2.81Z"/><path class="cls-2" d="M294.4,85.73a7.45,7.45,0,0,1-2.56-.44A5,5,0,0,1,289.78,84L291,82.45a6.51,6.51,0,0,0,1.62,1.06,4.13,4.13,0,0,0,2.73.21,1.68,1.68,0,0,0,.83-.48,1.4,1.4,0,0,0-.12-1.89,3.68,3.68,0,0,0-1.1-.58q-.66-.22-1.44-.42A5.37,5.37,0,0,1,291.13,79a2.87,2.87,0,0,1-.81-2.07,3.28,3.28,0,0,1,.5-1.74,3.71,3.71,0,0,1,1.48-1.33,5.06,5.06,0,0,1,2.4-.53,8.19,8.19,0,0,1,2.31.3,5.73,5.73,0,0,1,1.92,1l-1.11,1.64a3.45,3.45,0,0,0-1.27-.81,4.19,4.19,0,0,0-1.34-.27,3.22,3.22,0,0,0-1,.16,2,2,0,0,0-.75.45,1.06,1.06,0,0,0-.29.76,1.1,1.1,0,0,0,.41,1,3.62,3.62,0,0,0,1.09.58l1.35.45a7,7,0,0,1,1.62.68,3.68,3.68,0,0,1,1.16,1.05,2.68,2.68,0,0,1,.43,1.56,3.74,3.74,0,0,1-.52,1.94,3.63,3.63,0,0,1-1.59,1.42A6.16,6.16,0,0,1,294.4,85.73Z"/><path class="cls-2" d="M307.09,86a4.09,4.09,0,0,1-2.83-1,3.43,3.43,0,0,1-1.16-2.53V73.77h2.82v7.74a2.48,2.48,0,0,0,.6,1.54,2.2,2.2,0,0,0,1.68.64,3.13,3.13,0,0,0,1.85-.58,4.26,4.26,0,0,0,1.33-1.59,5,5,0,0,0,.51-2.28V73.77h2.79V85.51h-2.55l-.24-2.89.18.53A4.72,4.72,0,0,1,311,84.59a5.3,5.3,0,0,1-1.72,1A6.11,6.11,0,0,1,307.09,86Z"/><path class="cls-2" d="M318.4,79.52a5.85,5.85,0,0,1,.89-3.17,6.21,6.21,0,0,1,2.46-2.24,7.59,7.59,0,0,1,3.58-.82,7.34,7.34,0,0,1,3.54.82,6.08,6.08,0,0,1,2.39,2.24,6.35,6.35,0,0,1,0,6.35A6.1,6.1,0,0,1,328.87,85a7.3,7.3,0,0,1-3.57.84,7.76,7.76,0,0,1-3.55-.78,6.16,6.16,0,0,1-2.45-2.18A6,6,0,0,1,318.4,79.52Zm2.82,0a4,4,0,0,0,.54,2.06,4.11,4.11,0,0,0,1.44,1.46,3.89,3.89,0,0,0,2,.54,3.94,3.94,0,0,0,2.07-.54,4,4,0,0,0,1.43-1.46A4.15,4.15,0,0,0,327.31,76a3.86,3.86,0,0,0-2.07-.55,3.79,3.79,0,0,0-2.05.57,4.11,4.11,0,0,0-1.44,1.49A4,4,0,0,0,321.22,79.55Z"/><path class="cls-2" d="M350.38,85.79a6.23,6.23,0,0,1-3.12-.78,5.84,5.84,0,0,1-2.2-2.21,6.5,6.5,0,0,1-.83-3.3,6.19,6.19,0,0,1,.87-3.35A5.79,5.79,0,0,1,347.44,74a7.27,7.27,0,0,1,3.3-.73,6.94,6.94,0,0,1,2.81.59,5,5,0,0,1,2.08,1.65l-.15.93V63.56h2.79v22h-2.79V82.59l.33.73a7.08,7.08,0,0,1-2.29,1.78A7,7,0,0,1,350.38,85.79Zm.87-2.24a4.56,4.56,0,0,0,2-.4,4.15,4.15,0,0,0,1.44-1.06,3.81,3.81,0,0,0,.82-1.57V78.28a3.61,3.61,0,0,0-.85-1.51,4.17,4.17,0,0,0-1.47-1,4.89,4.89,0,0,0-1.91-.36,4.35,4.35,0,0,0-2.07.51,4,4,0,0,0-1.53,1.42,4.12,4.12,0,0,0,0,4.18A4.26,4.26,0,0,0,349.18,83,4.06,4.06,0,0,0,351.25,83.55Z"/><path class="cls-2" d="M368.29,85.79a7,7,0,0,1-3.16-.71A5.42,5.42,0,0,1,362.86,83a7.11,7.11,0,0,1,0-6.76,5.87,5.87,0,0,1,2.34-2.19,6.84,6.84,0,0,1,3.21-.76,5.54,5.54,0,0,1,3,.75,5.21,5.21,0,0,1,1.81,1.77l-.18.43.27-2.47h2.58V85.51h-2.79V82.45l.33.68a3.77,3.77,0,0,1-.57.72,7.18,7.18,0,0,1-1.06.89,6.16,6.16,0,0,1-1.52.75A6.06,6.06,0,0,1,368.29,85.79Zm.75-2.18a4.75,4.75,0,0,0,1.89-.37,3.68,3.68,0,0,0,2.16-2.64V78.31a3.5,3.5,0,0,0-.84-1.49,4.19,4.19,0,0,0-1.44-1,4.77,4.77,0,0,0-1.83-.35,4.23,4.23,0,0,0-2.07.51,3.88,3.88,0,0,0-1.48,1.42,4,4,0,0,0-.56,2.12,3.88,3.88,0,0,0,.57,2.07A4.1,4.1,0,0,0,367,83.07,4.15,4.15,0,0,0,369,83.61Z"/><path class="cls-2" d="M381.91,68.61h2.85v5.22h3.39V75.9h-3.39v9.61h-2.85V75.9h-2.25V73.83h2.25Z"/><path class="cls-2" d="M390.43,79.52a5.85,5.85,0,0,1,.89-3.17,6.21,6.21,0,0,1,2.46-2.24,7.59,7.59,0,0,1,3.58-.82,7.34,7.34,0,0,1,3.54.82,6.08,6.08,0,0,1,2.39,2.24,6.35,6.35,0,0,1,0,6.35A6.1,6.1,0,0,1,400.9,85a7.3,7.3,0,0,1-3.57.84,7.76,7.76,0,0,1-3.55-.78,6.16,6.16,0,0,1-2.45-2.18A6,6,0,0,1,390.43,79.52Zm2.82,0a4,4,0,0,0,.54,2.06,4.11,4.11,0,0,0,1.44,1.46,3.89,3.89,0,0,0,2,.54,3.94,3.94,0,0,0,2.07-.54,4,4,0,0,0,1.43-1.46A4.15,4.15,0,0,0,399.34,76a3.86,3.86,0,0,0-2.07-.55,3.79,3.79,0,0,0-2,.57,4.11,4.11,0,0,0-1.44,1.49A4,4,0,0,0,393.25,79.55Z"/><path class="cls-2" d="M410.38,73.77l.27,3.4-.12-.48a5.17,5.17,0,0,1,1.38-1.81,6.65,6.65,0,0,1,1.92-1.17,5.7,5.7,0,0,1,1.74-.42L415.45,76a4.26,4.26,0,0,0-2.5.5A4.59,4.59,0,0,0,411.27,78a3.88,3.88,0,0,0-.62,2.11v5.36h-2.79V73.77Z"/><path class="cls-2" d="M424.39,85.79a7.73,7.73,0,0,1-3.66-.81,5.89,5.89,0,0,1-2.37-2.21,6.14,6.14,0,0,1-.84-3.22,5.53,5.53,0,0,1,1-3.14,6.84,6.84,0,0,1,2.5-2.27,7.12,7.12,0,0,1,3.48-.85,6.11,6.11,0,0,1,4.08,1.36,6.93,6.93,0,0,1,2.22,3.74l-10.26,3.4-.66-1.56,8.37-2.92-.57.4a3.91,3.91,0,0,0-1.2-1.62,3.39,3.39,0,0,0-2.19-.68,4,4,0,0,0-2,.51,3.72,3.72,0,0,0-1.4,1.41,4.11,4.11,0,0,0-.51,2.08,4.29,4.29,0,0,0,.53,2.13A3.75,3.75,0,0,0,422.31,83a4.32,4.32,0,0,0,2.14.52,4.5,4.5,0,0,0,1.58-.28,7.34,7.34,0,0,0,1.45-.74l1.26,2a8.82,8.82,0,0,1-2.08,1A7.33,7.33,0,0,1,424.39,85.79Z"/><path class="cls-2" d="M448.75,85.79a6.23,6.23,0,0,1-3.12-.78,5.84,5.84,0,0,1-2.2-2.21,6.5,6.5,0,0,1-.83-3.3,6.19,6.19,0,0,1,.87-3.35A5.79,5.79,0,0,1,445.81,74a7.27,7.27,0,0,1,3.3-.73,6.94,6.94,0,0,1,2.81.59A5.07,5.07,0,0,1,454,75.53l-.15.93V63.56h2.79v22h-2.79V82.59l.33.73a7.08,7.08,0,0,1-2.29,1.78A7,7,0,0,1,448.75,85.79Zm.87-2.24a4.56,4.56,0,0,0,2-.4A4.15,4.15,0,0,0,453,82.09a3.81,3.81,0,0,0,.82-1.57V78.28a3.61,3.61,0,0,0-.85-1.51,4.17,4.17,0,0,0-1.47-1,4.89,4.89,0,0,0-1.91-.36,4.35,4.35,0,0,0-2.07.51A4,4,0,0,0,446,77.34a4.12,4.12,0,0,0,0,4.18A4.26,4.26,0,0,0,447.55,83,4.06,4.06,0,0,0,449.62,83.55Z"/><path class="cls-2" d="M461.29,69.52a1.27,1.27,0,0,1,.53-1A1.75,1.75,0,0,1,463,68a1.71,1.71,0,0,1,1.14.43,1.35,1.35,0,0,1,0,2.11A1.79,1.79,0,0,1,463,71a1.84,1.84,0,0,1-1.15-.41A1.26,1.26,0,0,1,461.29,69.52Zm.18,4.25h2.82V85.51h-2.82Z"/><path class="cls-2" d="M478.6,63.56h2.82v22H478.6Z"/><path class="cls-2" d="M491.44,85.79a7.06,7.06,0,0,1-3.17-.71A5.39,5.39,0,0,1,486,83a7.11,7.11,0,0,1,0-6.76,5.87,5.87,0,0,1,2.34-2.19,6.84,6.84,0,0,1,3.21-.76,5.5,5.5,0,0,1,3,.75,5.24,5.24,0,0,1,1.82,1.77l-.18.43.27-2.47H499V85.51h-2.79V82.45l.33.68a3.77,3.77,0,0,1-.57.72,7.3,7.3,0,0,1-1.07.89,6,6,0,0,1-3.49,1.05Zm.75-2.18a4.75,4.75,0,0,0,1.89-.37,3.74,3.74,0,0,0,1.39-1,3.81,3.81,0,0,0,.77-1.59V78.31a3.5,3.5,0,0,0-.84-1.49,4.19,4.19,0,0,0-1.44-1,4.77,4.77,0,0,0-1.83-.35,4.23,4.23,0,0,0-2.07.51,3.91,3.91,0,0,0-1.49,1.42,4,4,0,0,0-.55,2.12,3.88,3.88,0,0,0,.57,2.07,4.1,4.1,0,0,0,1.53,1.48A4.15,4.15,0,0,0,492.19,83.61Z"/><path class="cls-2" d="M508.93,85.85,502,73.77h3.33L510,83.1,508.3,83l4.29-9.24h3.12l-6.63,12.08Z"/><path class="cls-2" d="M517.3,79.52a5.84,5.84,0,0,1,.88-3.17,6.21,6.21,0,0,1,2.46-2.24,7.63,7.63,0,0,1,3.59-.82,7.34,7.34,0,0,1,3.54.82,6.13,6.13,0,0,1,0,10.84,7.3,7.3,0,0,1-3.57.84,7.81,7.81,0,0,1-3.56-.78,6.14,6.14,0,0,1-2.44-2.18A6,6,0,0,1,517.3,79.52Zm2.82,0a4,4,0,0,0,.54,2.06,4.11,4.11,0,0,0,1.44,1.46,3.89,3.89,0,0,0,2,.54,3.89,3.89,0,0,0,3.49-2,4.25,4.25,0,0,0,0-4.11A4,4,0,0,0,526.21,76a4.09,4.09,0,0,0-4.13,0,4.11,4.11,0,0,0-1.44,1.49A4,4,0,0,0,520.12,79.55Z"/><path class="cls-2" d="M537.25,73.77l.27,3.4-.12-.48a5.17,5.17,0,0,1,1.38-1.81,6.65,6.65,0,0,1,1.92-1.17,5.7,5.7,0,0,1,1.74-.42L542.32,76a4.29,4.29,0,0,0-2.51.5A4.59,4.59,0,0,0,538.13,78a3.87,3.87,0,0,0-.61,2.11v5.36h-2.79V73.77Z"/><path class="cls-2" d="M544.39,79.52a5.84,5.84,0,0,1,.88-3.17,6.21,6.21,0,0,1,2.46-2.24,7.63,7.63,0,0,1,3.59-.82,7.34,7.34,0,0,1,3.54.82,6.13,6.13,0,0,1,0,10.84,7.3,7.3,0,0,1-3.57.84,7.81,7.81,0,0,1-3.56-.78,6.14,6.14,0,0,1-2.44-2.18A6,6,0,0,1,544.39,79.52Zm2.82,0a4,4,0,0,0,.54,2.06,4.11,4.11,0,0,0,1.44,1.46,3.89,3.89,0,0,0,2,.54,3.89,3.89,0,0,0,3.49-2,4.25,4.25,0,0,0,0-4.11A4,4,0,0,0,553.3,76a4.09,4.09,0,0,0-4.13,0,4.11,4.11,0,0,0-1.44,1.49A4,4,0,0,0,547.21,79.55Z"/><path class="cls-2" d="M577.09,85.79a7.73,7.73,0,0,1-3.66-.81,5.89,5.89,0,0,1-2.37-2.21,6.14,6.14,0,0,1-.84-3.22,5.52,5.52,0,0,1,.94-3.14,6.87,6.87,0,0,1,2.51-2.27,7.12,7.12,0,0,1,3.48-.85,6.11,6.11,0,0,1,4.08,1.36,7,7,0,0,1,2.22,3.74l-10.26,3.4-.66-1.56,8.37-2.92-.57.4a3.91,3.91,0,0,0-1.2-1.62,3.39,3.39,0,0,0-2.19-.68,4,4,0,0,0-2,.51,3.69,3.69,0,0,0-1.39,1.41,4.11,4.11,0,0,0-.51,2.08,4.28,4.28,0,0,0,.52,2.13A3.75,3.75,0,0,0,575,83a4.36,4.36,0,0,0,2.15.52,4.44,4.44,0,0,0,1.57-.28,7.71,7.71,0,0,0,1.46-.74l1.26,2a8.9,8.9,0,0,1-2.09,1A7.27,7.27,0,0,1,577.09,85.79Zm-4.5-18.23h3.09l2.19,3.8H576.1Z"/><path class="cls-2" d="M40.22,103.54a1.27,1.27,0,0,1,.53-1.05,1.79,1.79,0,0,1,1.15-.42,1.75,1.75,0,0,1,1.14.42,1.31,1.31,0,0,1,.51,1.05A1.28,1.28,0,0,1,43,104.6a1.74,1.74,0,0,1-1.14.41,1.78,1.78,0,0,1-1.15-.41A1.25,1.25,0,0,1,40.22,103.54Zm.18,4.25h2.82v11.74H40.4Z"/><path class="cls-2" d="M50.6,107.79l.21,2.87-.09-.46a4.43,4.43,0,0,1,1.92-2.08,6.18,6.18,0,0,1,3.15-.78,4.21,4.21,0,0,1,2.86,1,3.3,3.3,0,0,1,1.16,2.53v8.68H57v-7.77a2.26,2.26,0,0,0-.59-1.54,2.18,2.18,0,0,0-1.72-.61,3.59,3.59,0,0,0-1.94.56,3.85,3.85,0,0,0-1.37,1.56,5.12,5.12,0,0,0-.5,2.3v5.5H48.05V107.79Z"/><path class="cls-2" d="M65.69,119.53v-9.38H63.53v-2.39h2.16v-4.93a5.74,5.74,0,0,1,1.21-3.91,4.6,4.6,0,0,1,3.62-1.36,5.9,5.9,0,0,1,1.38.17,3.74,3.74,0,0,1,1.32.56l-1.17,1.9a1.3,1.3,0,0,0-.57-.35,2.26,2.26,0,0,0-.69-.1,2.12,2.12,0,0,0-1.71.71,3.82,3.82,0,0,0-.6,2.44v4.87h3.93v2.39H68.48v9.38Z"/><path class="cls-2" d="M80.6,119.81a7.06,7.06,0,0,1-3.17-.7A5.48,5.48,0,0,1,75.17,117a6.3,6.3,0,0,1-.84-3.36,6.39,6.39,0,0,1,.87-3.4,5.85,5.85,0,0,1,2.34-2.18,6.85,6.85,0,0,1,3.21-.77,5.56,5.56,0,0,1,3,.75,5.3,5.3,0,0,1,1.81,1.77l-.18.43.27-2.47h2.58v11.74H85.4v-3.06l.33.68a3.49,3.49,0,0,1-.57.72,7.32,7.32,0,0,1-1.07.9,5.87,5.87,0,0,1-3.49,1Zm.75-2.18a4.59,4.59,0,0,0,1.89-.37,3.54,3.54,0,0,0,1.39-1.05,3.83,3.83,0,0,0,.77-1.58v-2.3a3.56,3.56,0,0,0-.84-1.49,4.16,4.16,0,0,0-1.44-1,4.6,4.6,0,0,0-1.83-.36,4.23,4.23,0,0,0-2.07.51,4,4,0,0,0-1.49,1.42,4,4,0,0,0-.55,2.13,3.91,3.91,0,0,0,.57,2.07,4.22,4.22,0,0,0,3.6,2Z"/><path class="cls-2" d="M96.53,119.76a7.76,7.76,0,0,1-2.57-.44,4.92,4.92,0,0,1-2-1.32l1.17-1.53a6.24,6.24,0,0,0,1.62,1.06,4,4,0,0,0,1.62.36,4.32,4.32,0,0,0,1.11-.14,1.74,1.74,0,0,0,.82-.49,1.24,1.24,0,0,0,.32-.88,1.21,1.21,0,0,0-.44-1A3.41,3.41,0,0,0,97,114.8c-.44-.15-.92-.3-1.44-.43A5.36,5.36,0,0,1,93.26,113a2.9,2.9,0,0,1-.81-2.07,3.28,3.28,0,0,1,.49-1.75,3.81,3.81,0,0,1,1.49-1.33,5.07,5.07,0,0,1,2.4-.52,8.19,8.19,0,0,1,2.31.3,5.53,5.53,0,0,1,1.92,1L100,110.32a3.49,3.49,0,0,0-1.28-.81,3.89,3.89,0,0,0-1.33-.27,3,3,0,0,0-1,.16,1.75,1.75,0,0,0-.75.45,1,1,0,0,0-.28.75,1.08,1.08,0,0,0,.4,1,3.46,3.46,0,0,0,1.1.58l1.35.45a6.59,6.59,0,0,1,1.62.69,3.62,3.62,0,0,1,1.15,1,2.68,2.68,0,0,1,.44,1.56,3.81,3.81,0,0,1-.53,1.95,3.67,3.67,0,0,1-1.59,1.41A6.11,6.11,0,0,1,96.53,119.76Z"/><path class="cls-2" d="M106.43,102.63h2.85v5.22h3.39v2.07h-3.39v9.61h-2.85v-9.61h-2.25v-2.07h2.25Z"/><path class="cls-2" d="M115.85,103.54a1.29,1.29,0,0,1,.52-1.05,1.82,1.82,0,0,1,1.16-.42,1.75,1.75,0,0,1,1.14.42,1.31,1.31,0,0,1,.51,1.05,1.28,1.28,0,0,1-.51,1.06,1.74,1.74,0,0,1-1.14.41,1.81,1.81,0,0,1-1.16-.41A1.27,1.27,0,0,1,115.85,103.54Zm.18,4.25h2.82v11.74H116Z"/><path class="cls-2" d="M128.75,119.81a6.33,6.33,0,0,1-3.12-.77,5.82,5.82,0,0,1-2.21-2.22,6.46,6.46,0,0,1-.82-3.3,6.21,6.21,0,0,1,.87-3.35,5.77,5.77,0,0,1,2.34-2.12,7.28,7.28,0,0,1,3.3-.74,6.74,6.74,0,0,1,2.8.6,4.94,4.94,0,0,1,2.09,1.64l-.15.94V97.59h2.79v21.94h-2.79v-2.92l.33.74a7,7,0,0,1-5.43,2.46Zm.87-2.24a4.66,4.66,0,0,0,2-.39,4.31,4.31,0,0,0,1.44-1.07,3.77,3.77,0,0,0,.83-1.57V112.3a3.53,3.53,0,0,0-.86-1.5,4.2,4.2,0,0,0-1.47-1,5,5,0,0,0-1.9-.35,4.35,4.35,0,0,0-2.07.51,4,4,0,0,0-1.53,1.42,3.83,3.83,0,0,0-.57,2.09,3.9,3.9,0,0,0,.57,2.09,4.31,4.31,0,0,0,1.53,1.47A4.06,4.06,0,0,0,129.62,117.57Z"/><path class="cls-2" d="M141.29,103.54a1.29,1.29,0,0,1,.52-1.05,1.82,1.82,0,0,1,1.16-.42,1.75,1.75,0,0,1,1.14.42,1.31,1.31,0,0,1,.51,1.05,1.28,1.28,0,0,1-.51,1.06A1.74,1.74,0,0,1,143,105a1.81,1.81,0,0,1-1.16-.41A1.27,1.27,0,0,1,141.29,103.54Zm.18,4.25h2.82v11.74h-2.82Z"/><path class="cls-2" d="M150.32,102.63h2.85v5.22h3.39v2.07h-3.39v9.61h-2.85v-9.61h-2.25v-2.07h2.25Z"/><path class="cls-2" d="M158.84,113.55a5.9,5.9,0,0,1,.88-3.18,6.28,6.28,0,0,1,2.46-2.24,7.63,7.63,0,0,1,3.59-.82,7.34,7.34,0,0,1,3.54.82,6,6,0,0,1,3.24,5.42,6,6,0,0,1-.86,3.17,6.17,6.17,0,0,1-2.38,2.26,7.3,7.3,0,0,1-3.57.83,7.93,7.93,0,0,1-3.56-.77,6.09,6.09,0,0,1-2.44-2.19A6,6,0,0,1,158.84,113.55Zm2.82,0a4,4,0,0,0,.54,2,4,4,0,0,0,1.44,1.46,3.89,3.89,0,0,0,2,.54,3.94,3.94,0,0,0,2.07-.54,3.9,3.9,0,0,0,1.42-1.46,4.14,4.14,0,0,0-1.42-5.58,3.87,3.87,0,0,0-2.07-.56,3.82,3.82,0,0,0-2.06.57,4.19,4.19,0,0,0-1.44,1.49A4,4,0,0,0,161.66,113.58Z"/><path class="cls-2" d="M193.1,119.81a6.18,6.18,0,0,1-2.72-.62,4.72,4.72,0,0,1-2-1.67l.15-.82v8.47h-2.79V107.62h2.43l.39,3-.3-.85a7,7,0,0,1,2.28-1.77,6.69,6.69,0,0,1,3.09-.7,6.29,6.29,0,0,1,3.13.78A5.72,5.72,0,0,1,199,110.3a6.68,6.68,0,0,1,.81,3.33,6.11,6.11,0,0,1-.87,3.28,5.79,5.79,0,0,1-2.39,2.15A7.62,7.62,0,0,1,193.1,119.81Zm-.54-2.09a4.6,4.6,0,0,0,2.19-.53,4.35,4.35,0,0,0,1.6-1.44,3.69,3.69,0,0,0,.62-2.09,3.92,3.92,0,0,0-.57-2.11,4.15,4.15,0,0,0-1.52-1.45,4.26,4.26,0,0,0-2.11-.52,4.88,4.88,0,0,0-2,.38,3.89,3.89,0,0,0-1.44,1.07,4,4,0,0,0-.81,1.61v2a3.47,3.47,0,0,0,.72,1.56,4.14,4.14,0,0,0,1.42,1.12A4.28,4.28,0,0,0,192.56,117.72Z"/><path class="cls-2" d="M209.33,119.81a7.73,7.73,0,0,1-3.66-.8,5.91,5.91,0,0,1-2.37-2.22,6.1,6.1,0,0,1-.84-3.21,5.55,5.55,0,0,1,.94-3.15,7,7,0,0,1,2.51-2.27,7.12,7.12,0,0,1,3.48-.85,6.11,6.11,0,0,1,4.08,1.36,7,7,0,0,1,2.22,3.74l-10.26,3.41-.66-1.56,8.37-2.92-.57.39a3.82,3.82,0,0,0-1.2-1.61,3.33,3.33,0,0,0-2.19-.68,4,4,0,0,0-2,.51,3.74,3.74,0,0,0-1.39,1.4,4.15,4.15,0,0,0-.51,2.09,4.24,4.24,0,0,0,.52,2.12,3.69,3.69,0,0,0,1.47,1.46,4.36,4.36,0,0,0,2.15.53,4.45,4.45,0,0,0,1.57-.29,7.38,7.38,0,0,0,1.46-.73l1.26,2a8.92,8.92,0,0,1-2.09,1A7.56,7.56,0,0,1,209.33,119.81Z"/><path class="cls-2" d="M221.66,107.79l.27,3.41-.12-.49a5.17,5.17,0,0,1,1.38-1.81,6.61,6.61,0,0,1,1.92-1.16,5.47,5.47,0,0,1,1.74-.43l-.12,2.67a4.29,4.29,0,0,0-2.51.49,4.76,4.76,0,0,0-1.68,1.59,3.89,3.89,0,0,0-.61,2.11v5.36h-2.79V107.79Z"/><path class="cls-2" d="M240,118.43a6.33,6.33,0,0,1-2,1,8.3,8.3,0,0,1-5.89-.4,5.75,5.75,0,0,1-2.41-2.16,5.91,5.91,0,0,1-.88-3.26,5.71,5.71,0,0,1,.93-3.24,6.37,6.37,0,0,1,2.42-2.13,7.07,7.07,0,0,1,3.23-.75,8.74,8.74,0,0,1,2.65.38,6.38,6.38,0,0,1,2,1.09l-1.4,1.71a6.59,6.59,0,0,0-1.31-.7,4.55,4.55,0,0,0-1.75-.33,4,4,0,0,0-2,.53,3.85,3.85,0,0,0-1.44,1.42,4.15,4.15,0,0,0,0,4,4.15,4.15,0,0,0,1.5,1.44,4.49,4.49,0,0,0,2.23.54,4.32,4.32,0,0,0,1.45-.23,4.07,4.07,0,0,0,1.21-.62Z"/><path class="cls-2" d="M243.55,119.53V97.59h2.76v12.93l-.06-.49a5.13,5.13,0,0,1,1.94-1.93,6,6,0,0,1,3.1-.76,4.22,4.22,0,0,1,2.87,1,3.29,3.29,0,0,1,1.15,2.53v8.68h-2.82v-7.77a2.3,2.3,0,0,0-.58-1.54,2.21,2.21,0,0,0-1.72-.61,3.43,3.43,0,0,0-1.94.58,4,4,0,0,0-1.38,1.57,5,5,0,0,0-.49,2.27v5.5Z"/><path class="cls-2" d="M265.94,119.81a7.67,7.67,0,0,1-3.66-.8,5.87,5.87,0,0,1-2.38-2.22,6.1,6.1,0,0,1-.84-3.21,5.56,5.56,0,0,1,.95-3.15,6.93,6.93,0,0,1,2.5-2.27,7.12,7.12,0,0,1,3.48-.85,6.11,6.11,0,0,1,4.08,1.36,7,7,0,0,1,2.22,3.74L262,115.82l-.66-1.56,8.36-2.92-.57.39a3.66,3.66,0,0,0-1.2-1.61,3.31,3.31,0,0,0-2.18-.68,4,4,0,0,0-2,.51,3.74,3.74,0,0,0-1.39,1.4,4,4,0,0,0-.51,2.09,4.24,4.24,0,0,0,.52,2.12,3.69,3.69,0,0,0,1.47,1.46,4.35,4.35,0,0,0,2.14.53,4.47,4.47,0,0,0,1.58-.29,7.66,7.66,0,0,0,1.46-.73l1.26,2a9.11,9.11,0,0,1-2.09,1A7.6,7.6,0,0,1,265.94,119.81Zm3.29-18-3.81,3.8h-1.79l2.49-3.8Z"/><path class="cls-2" d="M283.78,119.53l9.45-21.35h.18l9.48,21.35h-3.33l-7.08-17,2.07-1.28-7.89,18.32Zm5.55-7.77h8.07l1,2.38h-9.87Z"/><path class="cls-2" d="M306.25,119.53V97.59H309v12.93L309,110a5.13,5.13,0,0,1,1.94-1.93,6,6,0,0,1,3.1-.76,4.23,4.23,0,0,1,2.87,1,3.29,3.29,0,0,1,1.15,2.53v8.68h-2.82v-7.77a2.3,2.3,0,0,0-.58-1.54,2.22,2.22,0,0,0-1.73-.61,3.42,3.42,0,0,0-1.93.58,4,4,0,0,0-1.38,1.57,5,5,0,0,0-.5,2.27v5.5Z"/><path class="cls-2" d="M325.39,107.79l.24,2.64-.15-.23a5.27,5.27,0,0,1,2-2.11,5.53,5.53,0,0,1,2.95-.78,4.81,4.81,0,0,1,1.83.33,3.56,3.56,0,0,1,1.34.9,2.81,2.81,0,0,1,.67,1.41l-.15.11a5.2,5.2,0,0,1,2-2,5.36,5.36,0,0,1,2.68-.72,4.1,4.1,0,0,1,2.9,1,3.52,3.52,0,0,1,1.12,2.53v8.7H340v-7.74a2.73,2.73,0,0,0-.46-1.52,1.8,1.8,0,0,0-1.52-.63,3.21,3.21,0,0,0-1.93.61,4,4,0,0,0-1.32,1.58,5.29,5.29,0,0,0-.5,2.14v5.56h-2.82v-7.74a2.6,2.6,0,0,0-.49-1.52,1.89,1.89,0,0,0-1.55-.63,3.16,3.16,0,0,0-1.92.61,4.16,4.16,0,0,0-1.32,1.6,4.87,4.87,0,0,0-.48,2.15v5.53h-2.82V107.79Z"/><path class="cls-2" d="M353.38,119.81a7.73,7.73,0,0,1-3.66-.8,5.91,5.91,0,0,1-2.37-2.22,6.1,6.1,0,0,1-.84-3.21,5.56,5.56,0,0,1,.95-3.15,6.93,6.93,0,0,1,2.5-2.27,7.12,7.12,0,0,1,3.48-.85,6.11,6.11,0,0,1,4.08,1.36,7,7,0,0,1,2.22,3.74l-10.26,3.41-.66-1.56,8.37-2.92-.57.39a3.82,3.82,0,0,0-1.2-1.61,3.33,3.33,0,0,0-2.19-.68,4,4,0,0,0-2,.51,3.76,3.76,0,0,0-1.4,1.4,4.15,4.15,0,0,0-.51,2.09,4.25,4.25,0,0,0,.53,2.12A3.69,3.69,0,0,0,351.3,117a4.33,4.33,0,0,0,2.14.53,4.51,4.51,0,0,0,1.58-.29,7.3,7.3,0,0,0,1.45-.73l1.26,2a8.84,8.84,0,0,1-2.08,1A7.62,7.62,0,0,1,353.38,119.81Z"/><path class="cls-2" d="M368.26,119.81a6.33,6.33,0,0,1-3.12-.77,5.79,5.79,0,0,1-2.2-2.22,6.47,6.47,0,0,1-.83-3.3,6.21,6.21,0,0,1,.87-3.35,5.77,5.77,0,0,1,2.34-2.12,7.28,7.28,0,0,1,3.3-.74,6.79,6.79,0,0,1,2.81.6,4.91,4.91,0,0,1,2.08,1.64l-.15.94V97.59h2.79v21.94h-2.79v-2.92l.33.74a6.92,6.92,0,0,1-2.29,1.77A7,7,0,0,1,368.26,119.81Zm.87-2.24a4.71,4.71,0,0,0,2-.39,4.31,4.31,0,0,0,1.44-1.07,3.75,3.75,0,0,0,.82-1.57V112.3a3.51,3.51,0,0,0-.85-1.5,4.2,4.2,0,0,0-1.47-1,5.08,5.08,0,0,0-1.91-.35,4.35,4.35,0,0,0-2.07.51,4,4,0,0,0-1.53,1.42,3.83,3.83,0,0,0-.57,2.09,3.9,3.9,0,0,0,.57,2.09,4.31,4.31,0,0,0,1.53,1.47A4.06,4.06,0,0,0,369.13,117.57Z"/><path class="cls-2" d="M394,119.76a7.7,7.7,0,0,1-2.56-.44,5,5,0,0,1-2.06-1.32l1.17-1.53a6.24,6.24,0,0,0,1.62,1.06,4,4,0,0,0,1.62.36,4.32,4.32,0,0,0,1.11-.14,1.77,1.77,0,0,0,.83-.49,1.23,1.23,0,0,0,.31-.88,1.21,1.21,0,0,0-.43-1,3.46,3.46,0,0,0-1.1-.58c-.44-.15-.92-.3-1.44-.43A5.36,5.36,0,0,1,390.7,113a2.9,2.9,0,0,1-.81-2.07,3.29,3.29,0,0,1,.5-1.75,3.78,3.78,0,0,1,1.48-1.33,5.07,5.07,0,0,1,2.4-.52,8.19,8.19,0,0,1,2.31.3,5.53,5.53,0,0,1,1.92,1l-1.11,1.65a3.45,3.45,0,0,0-1.27-.81,3.94,3.94,0,0,0-1.34-.27,3,3,0,0,0-1,.16,1.75,1.75,0,0,0-.75.45,1.05,1.05,0,0,0-.29.75,1.09,1.09,0,0,0,.41,1,3.41,3.41,0,0,0,1.09.58l1.35.45a6.59,6.59,0,0,1,1.62.69,3.66,3.66,0,0,1,1.16,1,2.68,2.68,0,0,1,.43,1.56,3.8,3.8,0,0,1-.52,1.95,3.67,3.67,0,0,1-1.59,1.41A6.16,6.16,0,0,1,394,119.76Z"/><path class="cls-2" d="M410,119.81a6.14,6.14,0,0,1-2.71-.62,4.75,4.75,0,0,1-2-1.67l.15-.82v8.47h-2.79V107.62h2.43l.39,3-.3-.85a7,7,0,0,1,2.28-1.77,6.69,6.69,0,0,1,3.09-.7,6.33,6.33,0,0,1,3.14.78,5.7,5.7,0,0,1,2.2,2.21,6.68,6.68,0,0,1,.81,3.33,6.11,6.11,0,0,1-.87,3.28,5.76,5.76,0,0,1-2.38,2.15A7.66,7.66,0,0,1,410,119.81Zm-.54-2.09a4.6,4.6,0,0,0,2.19-.53,4.38,4.38,0,0,0,1.61-1.44,3.69,3.69,0,0,0,.61-2.09,3.92,3.92,0,0,0-.57-2.11,4.12,4.12,0,0,0-1.51-1.45,4.3,4.3,0,0,0-2.12-.52,4.88,4.88,0,0,0-1.95.38A3.89,3.89,0,0,0,406.3,111a4,4,0,0,0-.81,1.61v2a3.47,3.47,0,0,0,.72,1.56,4.17,4.17,0,0,0,1.43,1.12A4.24,4.24,0,0,0,409.48,117.72Z"/><path class="cls-2" d="M426.25,119.81a7.73,7.73,0,0,1-3.66-.8,5.91,5.91,0,0,1-2.37-2.22,6.1,6.1,0,0,1-.84-3.21,5.56,5.56,0,0,1,.95-3.15,6.93,6.93,0,0,1,2.5-2.27,7.12,7.12,0,0,1,3.48-.85,6.11,6.11,0,0,1,4.08,1.36,7,7,0,0,1,2.22,3.74l-10.26,3.41-.66-1.56,8.37-2.92-.57.39a3.82,3.82,0,0,0-1.2-1.61,3.33,3.33,0,0,0-2.19-.68,4,4,0,0,0-2,.51,3.76,3.76,0,0,0-1.4,1.4,4.15,4.15,0,0,0-.51,2.09,4.25,4.25,0,0,0,.53,2.12,3.69,3.69,0,0,0,1.47,1.46,4.33,4.33,0,0,0,2.14.53,4.51,4.51,0,0,0,1.58-.29,7.3,7.3,0,0,0,1.45-.73l1.26,2a8.84,8.84,0,0,1-2.08,1A7.62,7.62,0,0,1,426.25,119.81Z"/><path class="cls-2" d="M439.57,119.76a7.7,7.7,0,0,1-2.56-.44A5,5,0,0,1,435,118l1.17-1.53a6.24,6.24,0,0,0,1.62,1.06,4,4,0,0,0,1.62.36,4.32,4.32,0,0,0,1.11-.14,1.77,1.77,0,0,0,.83-.49,1.23,1.23,0,0,0,.31-.88,1.21,1.21,0,0,0-.43-1,3.46,3.46,0,0,0-1.1-.58c-.44-.15-.92-.3-1.44-.43A5.36,5.36,0,0,1,436.3,113a2.9,2.9,0,0,1-.81-2.07,3.29,3.29,0,0,1,.5-1.75,3.78,3.78,0,0,1,1.48-1.33,5.07,5.07,0,0,1,2.4-.52,8.19,8.19,0,0,1,2.31.3,5.53,5.53,0,0,1,1.92,1L443,110.32a3.45,3.45,0,0,0-1.27-.81,3.94,3.94,0,0,0-1.34-.27,3,3,0,0,0-1,.16,1.75,1.75,0,0,0-.75.45,1.05,1.05,0,0,0-.29.75,1.09,1.09,0,0,0,.41,1,3.41,3.41,0,0,0,1.09.58l1.35.45a6.59,6.59,0,0,1,1.62.69,3.66,3.66,0,0,1,1.16,1,2.68,2.68,0,0,1,.43,1.56,3.8,3.8,0,0,1-.52,1.95,3.67,3.67,0,0,1-1.59,1.41A6.16,6.16,0,0,1,439.57,119.76Z"/><path class="cls-2" d="M451.78,119.76a7.7,7.7,0,0,1-2.56-.44,5,5,0,0,1-2.06-1.32l1.17-1.53a6.24,6.24,0,0,0,1.62,1.06,4,4,0,0,0,1.62.36,4.32,4.32,0,0,0,1.11-.14,1.77,1.77,0,0,0,.83-.49,1.23,1.23,0,0,0,.31-.88,1.21,1.21,0,0,0-.43-1,3.46,3.46,0,0,0-1.1-.58c-.44-.15-.92-.3-1.44-.43a5.36,5.36,0,0,1-2.34-1.33,2.9,2.9,0,0,1-.81-2.07,3.29,3.29,0,0,1,.5-1.75,3.78,3.78,0,0,1,1.48-1.33,5.07,5.07,0,0,1,2.4-.52,8.19,8.19,0,0,1,2.31.3,5.53,5.53,0,0,1,1.92,1l-1.11,1.65a3.45,3.45,0,0,0-1.27-.81,3.94,3.94,0,0,0-1.34-.27,3,3,0,0,0-1,.16,1.75,1.75,0,0,0-.75.45,1.05,1.05,0,0,0-.29.75,1.09,1.09,0,0,0,.41,1,3.41,3.41,0,0,0,1.09.58l1.35.45a6.59,6.59,0,0,1,1.62.69,3.66,3.66,0,0,1,1.16,1,2.68,2.68,0,0,1,.43,1.56,3.8,3.8,0,0,1-.52,1.95,3.67,3.67,0,0,1-1.59,1.41A6.16,6.16,0,0,1,451.78,119.76Z"/><path class="cls-2" d="M459.4,113.55a5.91,5.91,0,0,1,.89-3.18,6.28,6.28,0,0,1,2.46-2.24,7.59,7.59,0,0,1,3.58-.82,7.34,7.34,0,0,1,3.54.82,6.15,6.15,0,0,1,2.39,2.24,6.06,6.06,0,0,1,.85,3.18,6,6,0,0,1-.85,3.17,6.2,6.2,0,0,1-2.39,2.26,7.3,7.3,0,0,1-3.57.83,7.89,7.89,0,0,1-3.55-.77,6.11,6.11,0,0,1-2.45-2.19A6,6,0,0,1,459.4,113.55Zm2.82,0a4,4,0,0,0,.54,2,4,4,0,0,0,1.44,1.46,3.89,3.89,0,0,0,2,.54,3.92,3.92,0,0,0,3.5-2,4.32,4.32,0,0,0,0-4.11,4.11,4.11,0,0,0-1.43-1.47,3.87,3.87,0,0,0-2.07-.56,3.79,3.79,0,0,0-2.05.57,4.19,4.19,0,0,0-1.44,1.49A4,4,0,0,0,462.22,113.58Z"/><path class="cls-2" d="M486.31,119.53V97.59h2.76v12.93L489,110A5.13,5.13,0,0,1,491,108.1a6,6,0,0,1,3.1-.76,4.23,4.23,0,0,1,2.87,1,3.29,3.29,0,0,1,1.15,2.53v8.68h-2.82v-7.77a2.3,2.3,0,0,0-.58-1.54,2.24,2.24,0,0,0-1.73-.61,3.42,3.42,0,0,0-1.93.58,4,4,0,0,0-1.38,1.57,4.89,4.89,0,0,0-.5,2.27v5.5Z"/><path class="cls-2" d="M508.09,119.81a7,7,0,0,1-3.16-.7,5.45,5.45,0,0,1-2.27-2.09,6.3,6.3,0,0,1-.84-3.36,6.39,6.39,0,0,1,.87-3.4,5.85,5.85,0,0,1,2.34-2.18,6.85,6.85,0,0,1,3.21-.77,5.56,5.56,0,0,1,3,.75,5.21,5.21,0,0,1,1.81,1.77l-.18.43.27-2.47h2.58v11.74h-2.79v-3.06l.33.68a3.49,3.49,0,0,1-.57.72,7.19,7.19,0,0,1-1.06.9,6.34,6.34,0,0,1-1.52.75A6.07,6.07,0,0,1,508.09,119.81Zm.75-2.18a4.59,4.59,0,0,0,1.89-.37,3.57,3.57,0,0,0,1.4-1.05,3.81,3.81,0,0,0,.76-1.58v-2.3a3.56,3.56,0,0,0-.84-1.49,4.16,4.16,0,0,0-1.44-1,4.6,4.6,0,0,0-1.83-.36,4.23,4.23,0,0,0-2.07.51,4.06,4.06,0,0,0-1.49,1.42,4.12,4.12,0,0,0-.55,2.13,3.91,3.91,0,0,0,.57,2.07,4.22,4.22,0,0,0,3.6,2Z"/><path class="cls-2" d="M537.61,119.81a6.12,6.12,0,0,1-5.13-2.49l.33-.79v3H530V97.59h2.79v12.9l-.06-1a5.21,5.21,0,0,1,2.11-1.55,7.72,7.72,0,0,1,3.14-.61,6.15,6.15,0,0,1,3,.77,5.89,5.89,0,0,1,2.21,2.14,6.26,6.26,0,0,1,.82,3.24,6.36,6.36,0,0,1-.89,3.42,5.87,5.87,0,0,1-2.35,2.18A6.9,6.9,0,0,1,537.61,119.81Zm-.6-2.24a4.28,4.28,0,0,0,2.17-.53,3.92,3.92,0,0,0,1.49-1.48,4.1,4.1,0,0,0,.54-2.1,4,4,0,0,0-2.06-3.5,4.32,4.32,0,0,0-2.14-.52,5.08,5.08,0,0,0-1.89.35,4.08,4.08,0,0,0-1.46,1,3.86,3.86,0,0,0-.85,1.47v2.41a4,4,0,0,0,.81,1.49,3.8,3.8,0,0,0,1.45,1A4.76,4.76,0,0,0,537,117.57Z"/><path class="cls-2" d="M547.6,103.54a1.27,1.27,0,0,1,.53-1.05,1.77,1.77,0,0,1,1.15-.42,1.75,1.75,0,0,1,1.14.42,1.31,1.31,0,0,1,.51,1.05,1.28,1.28,0,0,1-.51,1.06,1.74,1.74,0,0,1-1.14.41,1.76,1.76,0,0,1-1.15-.41A1.25,1.25,0,0,1,547.6,103.54Zm.18,4.25h2.82v11.74h-2.82Z"/><path class="cls-2" d="M558.94,119.76a7.76,7.76,0,0,1-2.57-.44,4.92,4.92,0,0,1-2-1.32l1.17-1.53a6.24,6.24,0,0,0,1.62,1.06,4,4,0,0,0,1.62.36,4.32,4.32,0,0,0,1.11-.14,1.74,1.74,0,0,0,.82-.49,1.24,1.24,0,0,0,.32-.88,1.21,1.21,0,0,0-.44-1,3.41,3.41,0,0,0-1.09-.58c-.44-.15-.92-.3-1.44-.43a5.36,5.36,0,0,1-2.34-1.33,2.9,2.9,0,0,1-.81-2.07,3.28,3.28,0,0,1,.49-1.75,3.81,3.81,0,0,1,1.49-1.33,5.07,5.07,0,0,1,2.4-.52,8.19,8.19,0,0,1,2.31.3,5.53,5.53,0,0,1,1.92,1l-1.11,1.65a3.49,3.49,0,0,0-1.28-.81,3.89,3.89,0,0,0-1.33-.27,3,3,0,0,0-1,.16,1.75,1.75,0,0,0-.75.45,1,1,0,0,0-.28.75,1.08,1.08,0,0,0,.4,1,3.46,3.46,0,0,0,1.1.58l1.35.45a6.59,6.59,0,0,1,1.62.69,3.62,3.62,0,0,1,1.15,1,2.68,2.68,0,0,1,.44,1.56,3.81,3.81,0,0,1-.53,1.95,3.67,3.67,0,0,1-1.59,1.41A6.11,6.11,0,0,1,558.94,119.76Z"/><path class="cls-2" d="M566.56,113.55a5.9,5.9,0,0,1,.88-3.18,6.28,6.28,0,0,1,2.46-2.24,7.63,7.63,0,0,1,3.59-.82,7.34,7.34,0,0,1,3.54.82,6,6,0,0,1,3.24,5.42,6,6,0,0,1-.86,3.17A6.17,6.17,0,0,1,577,119a7.3,7.3,0,0,1-3.57.83,7.93,7.93,0,0,1-3.56-.77,6.09,6.09,0,0,1-2.44-2.19A6,6,0,0,1,566.56,113.55Zm2.82,0a4,4,0,0,0,.54,2,4,4,0,0,0,1.44,1.46,3.89,3.89,0,0,0,2,.54,3.94,3.94,0,0,0,2.07-.54,3.9,3.9,0,0,0,1.42-1.46,4.14,4.14,0,0,0-1.42-5.58,3.87,3.87,0,0,0-2.07-.56,3.82,3.82,0,0,0-2.06.57,4.19,4.19,0,0,0-1.44,1.49A4,4,0,0,0,569.38,113.58Z"/><path class="cls-2" d="M590,125.37a8.68,8.68,0,0,1-2.45-.31,7.61,7.61,0,0,1-1.92-.85A18.71,18.71,0,0,1,584,123l1.65-1.82a9.26,9.26,0,0,0,2,1.34,5.29,5.29,0,0,0,2.28.48,5.81,5.81,0,0,0,2.38-.44,3.3,3.3,0,0,0,1.47-1.21,3.39,3.39,0,0,0,.53-1.78l0-3.18.24.51a4.57,4.57,0,0,1-2,2.06,6.57,6.57,0,0,1-3.42.83,6.17,6.17,0,0,1-3.12-.82,6.47,6.47,0,0,1-2.31-2.22,5.89,5.89,0,0,1-.87-3.16,6,6,0,0,1,.9-3.27,6.43,6.43,0,0,1,2.38-2.22,6.65,6.65,0,0,1,3.23-.81,6.94,6.94,0,0,1,3,.64,4.77,4.77,0,0,1,2,1.63l-.18.48.27-2.27h2.58v11.83a5.18,5.18,0,0,1-.86,2.89,6,6,0,0,1-2.46,2.08A8.58,8.58,0,0,1,590,125.37Zm-4.29-11.82a3.83,3.83,0,0,0,.58,2.07,4.24,4.24,0,0,0,1.56,1.47,4.37,4.37,0,0,0,2.15.54,5,5,0,0,0,2-.38,4.25,4.25,0,0,0,1.49-1.06,4,4,0,0,0,.84-1.51v-2.35a3.59,3.59,0,0,0-.9-1.48,4.9,4.9,0,0,0-1.5-1,5,5,0,0,0-1.92-.37,4.47,4.47,0,0,0-2.15.53,4.21,4.21,0,0,0-1.56,1.43A3.79,3.79,0,0,0,585.73,113.55Z"/><path class="cls-2" d="M604.51,107.79l.21,2.87-.09-.46a4.43,4.43,0,0,1,1.92-2.08,6.18,6.18,0,0,1,3.15-.78,4.21,4.21,0,0,1,2.86,1,3.3,3.3,0,0,1,1.16,2.53v8.68H610.9v-7.77a2.31,2.31,0,0,0-.59-1.54,2.2,2.2,0,0,0-1.72-.61,3.59,3.59,0,0,0-1.94.56,3.87,3.87,0,0,0-1.38,1.56,5.12,5.12,0,0,0-.49,2.3v5.5H602V107.79Z"/><path class="cls-2" d="M617.47,113.55a5.9,5.9,0,0,1,.88-3.18,6.28,6.28,0,0,1,2.46-2.24,7.63,7.63,0,0,1,3.59-.82,7.34,7.34,0,0,1,3.54.82,6,6,0,0,1,3.24,5.42,6,6,0,0,1-.86,3.17,6.17,6.17,0,0,1-2.38,2.26,7.3,7.3,0,0,1-3.57.83,7.93,7.93,0,0,1-3.56-.77,6.09,6.09,0,0,1-2.44-2.19A6,6,0,0,1,617.47,113.55Zm2.82,0a4,4,0,0,0,.54,2,4,4,0,0,0,1.44,1.46,3.89,3.89,0,0,0,2,.54,3.94,3.94,0,0,0,2.07-.54,3.9,3.9,0,0,0,1.42-1.46,4.14,4.14,0,0,0-1.42-5.58,3.87,3.87,0,0,0-2.07-.56,3.82,3.82,0,0,0-2.06.57,4.19,4.19,0,0,0-1.44,1.49A4,4,0,0,0,620.29,113.58Z"/><path class="cls-2" d="M45.47,153.84a6.23,6.23,0,0,1-3.12-.78,5.93,5.93,0,0,1-2.21-2.21,6.63,6.63,0,0,1-.82-3.31,6.18,6.18,0,0,1,.87-3.34,5.72,5.72,0,0,1,2.34-2.13,7.28,7.28,0,0,1,3.3-.74,6.71,6.71,0,0,1,2.8.6,5,5,0,0,1,2.09,1.64l-.15.94v-12.9h2.79v21.95H50.57v-2.93l.33.74a7,7,0,0,1-5.43,2.47Zm.87-2.24a4.49,4.49,0,0,0,2-.4,4.22,4.22,0,0,0,1.45-1.06,4,4,0,0,0,.82-1.58v-2.23a3.52,3.52,0,0,0-.86-1.51,4.13,4.13,0,0,0-1.46-1,4.89,4.89,0,0,0-1.91-.36,4.35,4.35,0,0,0-2.07.51,4,4,0,0,0-1.53,1.42,4.12,4.12,0,0,0,0,4.18,4.26,4.26,0,0,0,1.53,1.48A4.16,4.16,0,0,0,46.34,151.6Z"/><path class="cls-2" d="M58,137.56a1.33,1.33,0,0,1,.53-1.05,1.77,1.77,0,0,1,1.15-.42,1.75,1.75,0,0,1,1.14.42,1.33,1.33,0,0,1,.51,1.05,1.32,1.32,0,0,1-.51,1.07,1.79,1.79,0,0,1-1.14.41,1.82,1.82,0,0,1-1.15-.41A1.31,1.31,0,0,1,58,137.56Zm.18,4.26H61v11.74H58.19Z"/><path class="cls-2" d="M80.51,153.84a7.06,7.06,0,0,1-3.17-.71,5.46,5.46,0,0,1-2.26-2.08,7.13,7.13,0,0,1,0-6.77,5.92,5.92,0,0,1,2.34-2.18,6.85,6.85,0,0,1,3.21-.77,5.57,5.57,0,0,1,3,.76,5.3,5.3,0,0,1,1.81,1.77l-.18.42.27-2.46H88.1v11.74H85.31v-3.07l.33.68a3.77,3.77,0,0,1-.57.73,7.3,7.3,0,0,1-1.07.89,6,6,0,0,1-3.49,1.05Zm.75-2.18a4.75,4.75,0,0,0,1.89-.37,3.74,3.74,0,0,0,1.39-1,3.87,3.87,0,0,0,.77-1.59v-2.3a3.62,3.62,0,0,0-.84-1.49,4.3,4.3,0,0,0-1.44-1,4.77,4.77,0,0,0-1.83-.35,4.23,4.23,0,0,0-2.07.51,3.91,3.91,0,0,0-1.49,1.42,4,4,0,0,0-.55,2.12,3.88,3.88,0,0,0,.57,2.07,4.1,4.1,0,0,0,1.53,1.48A4.15,4.15,0,0,0,81.26,151.66Z"/><path class="cls-2" d="M96.44,153.78a7.51,7.51,0,0,1-2.57-.44A4.92,4.92,0,0,1,91.82,152L93,150.49a6.3,6.3,0,0,0,1.62,1.07,4.11,4.11,0,0,0,1.62.35,4.32,4.32,0,0,0,1.11-.14,1.81,1.81,0,0,0,.82-.48,1.25,1.25,0,0,0,.32-.88,1.23,1.23,0,0,0-.44-1,3.62,3.62,0,0,0-1.09-.58q-.66-.23-1.44-.42a5.47,5.47,0,0,1-2.34-1.34,2.87,2.87,0,0,1-.81-2.07,3.27,3.27,0,0,1,.49-1.74,3.74,3.74,0,0,1,1.49-1.33,5.06,5.06,0,0,1,2.4-.53,8.19,8.19,0,0,1,2.31.3,5.55,5.55,0,0,1,1.92,1l-1.11,1.64a3.49,3.49,0,0,0-1.28-.81,3.89,3.89,0,0,0-1.33-.27,3.29,3.29,0,0,0-1,.16,1.75,1.75,0,0,0-.75.45,1,1,0,0,0-.28.75,1.07,1.07,0,0,0,.4.95,3.46,3.46,0,0,0,1.1.58c.44.16.89.31,1.35.46a7,7,0,0,1,1.62.68,3.53,3.53,0,0,1,1.15,1.05,2.64,2.64,0,0,1,.44,1.56,3.77,3.77,0,0,1-.53,1.94,3.63,3.63,0,0,1-1.59,1.42A6.12,6.12,0,0,1,96.44,153.78Z"/><path class="cls-2" d="M108.65,153.78a7.51,7.51,0,0,1-2.57-.44,4.92,4.92,0,0,1-2-1.32l1.17-1.53a6.3,6.3,0,0,0,1.62,1.07,4.11,4.11,0,0,0,1.62.35,4.32,4.32,0,0,0,1.11-.14,1.81,1.81,0,0,0,.82-.48,1.25,1.25,0,0,0,.32-.88,1.23,1.23,0,0,0-.44-1,3.62,3.62,0,0,0-1.09-.58q-.66-.23-1.44-.42a5.47,5.47,0,0,1-2.34-1.34,2.87,2.87,0,0,1-.81-2.07,3.27,3.27,0,0,1,.49-1.74,3.74,3.74,0,0,1,1.49-1.33,5.06,5.06,0,0,1,2.4-.53,8.19,8.19,0,0,1,2.31.3,5.55,5.55,0,0,1,1.92,1l-1.11,1.64a3.49,3.49,0,0,0-1.28-.81,3.89,3.89,0,0,0-1.33-.27,3.29,3.29,0,0,0-1,.16,1.75,1.75,0,0,0-.75.45,1,1,0,0,0-.28.75,1.07,1.07,0,0,0,.4.95,3.46,3.46,0,0,0,1.1.58c.44.16.89.31,1.35.46a7,7,0,0,1,1.62.68,3.53,3.53,0,0,1,1.15,1.05,2.64,2.64,0,0,1,.44,1.56,3.77,3.77,0,0,1-.53,1.94,3.63,3.63,0,0,1-1.59,1.42A6.12,6.12,0,0,1,108.65,153.78Z"/><path class="cls-2" d="M123.14,153.84a7.73,7.73,0,0,1-3.66-.81,6,6,0,0,1-2.37-2.21,6.16,6.16,0,0,1-.84-3.22,5.57,5.57,0,0,1,.94-3.15,6.93,6.93,0,0,1,2.51-2.26,7.12,7.12,0,0,1,3.48-.86,6.12,6.12,0,0,1,4.08,1.37,6.89,6.89,0,0,1,2.22,3.74l-10.26,3.4-.66-1.56,8.37-2.92-.57.4a3.85,3.85,0,0,0-1.2-1.62,3.39,3.39,0,0,0-2.19-.68,4,4,0,0,0-2,.51,3.69,3.69,0,0,0-1.39,1.41,4.11,4.11,0,0,0-.51,2.08,4.31,4.31,0,0,0,.52,2.13,3.75,3.75,0,0,0,1.47,1.46,4.36,4.36,0,0,0,2.15.52,4.44,4.44,0,0,0,1.57-.28,7.42,7.42,0,0,0,1.46-.74l1.26,2a9.32,9.32,0,0,1-2.09,1A7.27,7.27,0,0,1,123.14,153.84Z"/><path class="cls-2" d="M135.5,141.82l.21,2.86-.09-.45a4.45,4.45,0,0,1,1.92-2.09,6.18,6.18,0,0,1,3.15-.78,4.21,4.21,0,0,1,2.86,1,3.3,3.3,0,0,1,1.16,2.54v8.68h-2.82v-7.77a2.33,2.33,0,0,0-.59-1.55,2.2,2.2,0,0,0-1.72-.61,3.52,3.52,0,0,0-1.94.57,3.87,3.87,0,0,0-1.38,1.56,5.08,5.08,0,0,0-.49,2.29v5.51H133V141.82Z"/><path class="cls-2" d="M150.74,136.66h2.85v5.21H157v2.07h-3.39v9.62h-2.85v-9.62h-2.25v-2.07h2.25Z"/><path class="cls-2" d="M165.53,153.84a7.06,7.06,0,0,1-3.17-.71,5.46,5.46,0,0,1-2.26-2.08,7.13,7.13,0,0,1,0-6.77,5.92,5.92,0,0,1,2.34-2.18,6.85,6.85,0,0,1,3.21-.77,5.51,5.51,0,0,1,2.95.76,5.24,5.24,0,0,1,1.82,1.77l-.18.42.27-2.46h2.58v11.74h-2.79v-3.07l.33.68a3.77,3.77,0,0,1-.57.73,7.3,7.3,0,0,1-1.07.89,6,6,0,0,1-3.49,1.05Zm.75-2.18a4.75,4.75,0,0,0,1.89-.37,3.74,3.74,0,0,0,1.39-1,3.87,3.87,0,0,0,.77-1.59v-2.3a3.62,3.62,0,0,0-.84-1.49,4.3,4.3,0,0,0-1.44-1,4.77,4.77,0,0,0-1.83-.35,4.23,4.23,0,0,0-2.07.51,3.91,3.91,0,0,0-1.49,1.42,4,4,0,0,0-.55,2.12,3.88,3.88,0,0,0,.57,2.07,4.1,4.1,0,0,0,1.53,1.48A4.15,4.15,0,0,0,166.28,151.66Z"/><path class="cls-2" d="M180.47,141.82l.27,3.4-.12-.48a5.21,5.21,0,0,1,1.38-1.82,6.61,6.61,0,0,1,1.92-1.16,5.76,5.76,0,0,1,1.74-.43l-.12,2.67a4.22,4.22,0,0,0-2.51.5,4.65,4.65,0,0,0-1.68,1.58,3.93,3.93,0,0,0-.61,2.12v5.36H178V141.82Z"/><path class="cls-2" d="M192.74,153.78a7.51,7.51,0,0,1-2.57-.44,4.92,4.92,0,0,1-2-1.32l1.17-1.53a6.3,6.3,0,0,0,1.62,1.07,4.11,4.11,0,0,0,1.62.35,4.32,4.32,0,0,0,1.11-.14,1.81,1.81,0,0,0,.82-.48,1.25,1.25,0,0,0,.32-.88,1.23,1.23,0,0,0-.44-1,3.62,3.62,0,0,0-1.09-.58q-.66-.23-1.44-.42a5.47,5.47,0,0,1-2.34-1.34,2.87,2.87,0,0,1-.81-2.07,3.27,3.27,0,0,1,.49-1.74,3.74,3.74,0,0,1,1.49-1.33,5.06,5.06,0,0,1,2.4-.53,8.19,8.19,0,0,1,2.31.3,5.55,5.55,0,0,1,1.92,1l-1.11,1.64a3.49,3.49,0,0,0-1.28-.81,3.89,3.89,0,0,0-1.33-.27,3.29,3.29,0,0,0-1,.16,1.75,1.75,0,0,0-.75.45,1,1,0,0,0-.28.75,1.07,1.07,0,0,0,.4.95,3.46,3.46,0,0,0,1.1.58c.44.16.89.31,1.35.46a7,7,0,0,1,1.62.68,3.53,3.53,0,0,1,1.15,1.05,2.64,2.64,0,0,1,.44,1.56,3.77,3.77,0,0,1-.53,1.94,3.63,3.63,0,0,1-1.59,1.42A6.12,6.12,0,0,1,192.74,153.78Z"/><path class="cls-2" d="M201.26,137.56a1.32,1.32,0,0,1,.52-1.05,1.82,1.82,0,0,1,1.16-.42,1.75,1.75,0,0,1,1.14.42,1.33,1.33,0,0,1,.51,1.05,1.32,1.32,0,0,1-.51,1.07,1.79,1.79,0,0,1-1.14.41,1.87,1.87,0,0,1-1.16-.41A1.3,1.3,0,0,1,201.26,137.56Zm.18,4.26h2.82v11.74h-2.82Z"/><path class="cls-2" d="M223.63,153.84a6.19,6.19,0,0,1-3.11-.78,5.86,5.86,0,0,1-2.21-2.21,6.53,6.53,0,0,1-.82-3.31,6.18,6.18,0,0,1,.87-3.34,5.66,5.66,0,0,1,2.34-2.13,7.28,7.28,0,0,1,3.3-.74,6.78,6.78,0,0,1,2.8.6,5.07,5.07,0,0,1,2.08,1.64l-.14.94v-12.9h2.79v21.95h-2.79v-2.93l.33.74a7.07,7.07,0,0,1-2.3,1.77A6.87,6.87,0,0,1,223.63,153.84Zm.88-2.24a4.52,4.52,0,0,0,2-.4,4.28,4.28,0,0,0,1.44-1.06,3.87,3.87,0,0,0,.83-1.58v-2.23a3.63,3.63,0,0,0-.86-1.51,4.17,4.17,0,0,0-1.47-1,4.84,4.84,0,0,0-1.9-.36,4.35,4.35,0,0,0-2.07.51,4,4,0,0,0-1.53,5.6,4.24,4.24,0,0,0,3.6,2Z"/><path class="cls-2" d="M241.54,153.84a7,7,0,0,1-3.16-.71,5.46,5.46,0,0,1-2.26-2.08,7.13,7.13,0,0,1,0-6.77,5.85,5.85,0,0,1,2.34-2.18,6.82,6.82,0,0,1,3.21-.77,5.51,5.51,0,0,1,3,.76,5.21,5.21,0,0,1,1.81,1.77l-.17.42.26-2.46h2.58v11.74h-2.78v-3.07l.33.68a4.22,4.22,0,0,1-.57.73,7.3,7.3,0,0,1-1.07.89,6,6,0,0,1-3.5,1.05Zm.75-2.18a4.77,4.77,0,0,0,1.9-.37,3.74,3.74,0,0,0,1.39-1,3.87,3.87,0,0,0,.77-1.59v-2.3a3.62,3.62,0,0,0-.84-1.49,4.3,4.3,0,0,0-1.44-1,4.77,4.77,0,0,0-1.83-.35,4.21,4.21,0,0,0-2.07.51,3.84,3.84,0,0,0-1.49,1.42,4,4,0,0,0-.55,2.12,3.8,3.8,0,0,0,.57,2.07,4.17,4.17,0,0,0,3.59,2Z"/><path class="cls-2" d="M254,131.61h2.83v21.95H254Z"/><path class="cls-2" d="M271.09,131.61h2.82v21.95h-2.82Z"/><path class="cls-2" d="M283.93,153.84a7,7,0,0,1-3.16-.71,5.49,5.49,0,0,1-2.27-2.08,7.13,7.13,0,0,1,0-6.77,5.92,5.92,0,0,1,2.34-2.18,6.85,6.85,0,0,1,3.21-.77,5.54,5.54,0,0,1,3,.76,5.21,5.21,0,0,1,1.81,1.77l-.18.42.27-2.46h2.58v11.74h-2.79v-3.07l.33.68a3.77,3.77,0,0,1-.57.73,7.18,7.18,0,0,1-1.06.89,6.16,6.16,0,0,1-1.52.75A6.06,6.06,0,0,1,283.93,153.84Zm.75-2.18a4.75,4.75,0,0,0,1.89-.37,3.78,3.78,0,0,0,1.4-1,3.85,3.85,0,0,0,.76-1.59v-2.3a3.62,3.62,0,0,0-.84-1.49,4.3,4.3,0,0,0-1.44-1,4.77,4.77,0,0,0-1.83-.35,4.23,4.23,0,0,0-2.07.51,3.88,3.88,0,0,0-1.48,1.42,4,4,0,0,0-.56,2.12,3.88,3.88,0,0,0,.57,2.07,4.1,4.1,0,0,0,1.53,1.48A4.15,4.15,0,0,0,284.68,151.66Z"/><path class="cls-2" d="M301.42,153.9l-6.9-12.08h3.33l4.65,9.33-1.71-.09,4.29-9.24h3.12l-6.63,12.08Z"/><path class="cls-2" d="M309.79,147.57a5.85,5.85,0,0,1,.89-3.17,6.21,6.21,0,0,1,2.46-2.24,7.59,7.59,0,0,1,3.58-.83,7.35,7.35,0,0,1,3.54.83,6.08,6.08,0,0,1,2.39,2.24,6,6,0,0,1,.85,3.17,6.06,6.06,0,0,1-.85,3.18,6.25,6.25,0,0,1-2.39,2.25,7.3,7.3,0,0,1-3.57.84,7.76,7.76,0,0,1-3.55-.78,6.16,6.16,0,0,1-2.45-2.18A6,6,0,0,1,309.79,147.57Zm2.82,0a4,4,0,0,0,.54,2.06,4.11,4.11,0,0,0,1.44,1.46,3.89,3.89,0,0,0,2,.54,3.94,3.94,0,0,0,2.07-.54,4,4,0,0,0,1.43-1.46,4.15,4.15,0,0,0-1.43-5.59,4.1,4.1,0,0,0-4.12,0,4.19,4.19,0,0,0-1.44,1.49A4,4,0,0,0,312.61,147.6Z"/><path class="cls-2" d="M329.74,141.82l.27,3.4-.12-.48a5.21,5.21,0,0,1,1.38-1.82,6.61,6.61,0,0,1,1.92-1.16,5.76,5.76,0,0,1,1.74-.43l-.12,2.67a4.18,4.18,0,0,0-2.5.5,4.65,4.65,0,0,0-1.68,1.58,3.94,3.94,0,0,0-.62,2.12v5.36h-2.79V141.82Z"/><path class="cls-2" d="M336.88,147.57a5.85,5.85,0,0,1,.89-3.17,6.21,6.21,0,0,1,2.46-2.24,7.59,7.59,0,0,1,3.58-.83,7.35,7.35,0,0,1,3.54.83,6.08,6.08,0,0,1,2.39,2.24,6,6,0,0,1,.85,3.17,6.06,6.06,0,0,1-.85,3.18,6.25,6.25,0,0,1-2.39,2.25,7.3,7.3,0,0,1-3.57.84,7.76,7.76,0,0,1-3.55-.78,6.16,6.16,0,0,1-2.45-2.18A6,6,0,0,1,336.88,147.57Zm2.82,0a4,4,0,0,0,.54,2.06,4.11,4.11,0,0,0,1.44,1.46,3.89,3.89,0,0,0,2,.54,3.94,3.94,0,0,0,2.07-.54,4,4,0,0,0,1.43-1.46,4.15,4.15,0,0,0-1.43-5.59,4.1,4.1,0,0,0-4.12,0,4.19,4.19,0,0,0-1.44,1.49A4,4,0,0,0,339.7,147.6Z"/><path class="cls-2" d="M353.43,151a1.55,1.55,0,0,1,1.09-.46,1.47,1.47,0,0,1,1,.46,1.41,1.41,0,0,1,.5,1.07,1.33,1.33,0,0,1-.5,1.09,1.55,1.55,0,0,1-1,.42,1.64,1.64,0,0,1-1.09-.42,1.33,1.33,0,0,1-.5-1.09A1.41,1.41,0,0,1,353.43,151Z"/></g></g></svg>