<svg xmlns="http://www.w3.org/2000/svg" viewBox="0 0 672 190"><defs><style>.cls-1{fill:#fff;}.cls-2{fill:#846b4a;}</style></defs><title>ahmed testo 9</title><g id="Livello_2" data-name="Livello 2"><g id="illustrazioni"><rect class="cls-1" width="672" height="190" rx="21.32"/></g><g id="testi"><path class="cls-2" d="M28,48.48l9.45-21.35h.18l9.48,21.35H43.74l-7.08-17,2.07-1.27L30.84,48.48Zm5.55-7.77h8.07l1,2.39H32.67Z"/><path class="cls-2" d="M50.43,48.48V26.54h2.76V39.47L53.13,39a5.08,5.08,0,0,1,1.93-1.92,6.08,6.08,0,0,1,3.11-.77,4.23,4.23,0,0,1,2.87,1,3.29,3.29,0,0,1,1.15,2.54v8.67H59.37V40.71a2.37,2.37,0,0,0-.58-1.54,2.24,2.24,0,0,0-1.73-.61,3.39,3.39,0,0,0-1.93.58,4,4,0,0,0-1.39,1.57A5,5,0,0,0,53.25,43v5.5Z"/><path class="cls-2" d="M69.57,36.75l.24,2.63-.15-.22a5.23,5.23,0,0,1,2-2.12,5.51,5.51,0,0,1,3-.78,4.81,4.81,0,0,1,1.83.33,3.54,3.54,0,0,1,1.33.91,2.75,2.75,0,0,1,.68,1.4l-.15.11a5,5,0,0,1,2-2A5.27,5.27,0,0,1,83,36.26a4,4,0,0,1,2.89,1A3.49,3.49,0,0,1,87,39.78v8.7H84.15V40.74a2.76,2.76,0,0,0-.46-1.51,1.82,1.82,0,0,0-1.52-.64,3.24,3.24,0,0,0-1.94.61,4,4,0,0,0-1.32,1.59,5.21,5.21,0,0,0-.49,2.14v5.55H75.6V40.74a2.62,2.62,0,0,0-.49-1.51,1.91,1.91,0,0,0-1.55-.64,3.16,3.16,0,0,0-1.92.61,4.16,4.16,0,0,0-1.32,1.6A4.88,4.88,0,0,0,69.84,43v5.52H67V36.75Z"/><path class="cls-2" d="M97.56,48.77A7.73,7.73,0,0,1,93.9,48a6,6,0,0,1-2.37-2.21,6.16,6.16,0,0,1-.84-3.22,5.57,5.57,0,0,1,.94-3.15,7.05,7.05,0,0,1,2.51-2.27,7.23,7.23,0,0,1,3.48-.85,6.16,6.16,0,0,1,4.08,1.36,7,7,0,0,1,2.22,3.75l-10.26,3.4L93,43.21l8.37-2.92-.57.4a3.79,3.79,0,0,0-1.2-1.62,3.39,3.39,0,0,0-2.19-.68,4,4,0,0,0-2,.51A3.74,3.74,0,0,0,94,40.3a4.15,4.15,0,0,0-.51,2.09A4.24,4.24,0,0,0,94,44.51,3.63,3.63,0,0,0,95.47,46a4.39,4.39,0,0,0,2.15.53,4.51,4.51,0,0,0,1.58-.29,6.8,6.8,0,0,0,1.45-.73l1.26,2a8.92,8.92,0,0,1-2.09,1A7.57,7.57,0,0,1,97.56,48.77Z"/><path class="cls-2" d="M112.44,48.77a6.23,6.23,0,0,1-3.12-.78,5.86,5.86,0,0,1-2.21-2.21,6.53,6.53,0,0,1-.82-3.31,6.15,6.15,0,0,1,.87-3.34A5.72,5.72,0,0,1,109.5,37a7.28,7.28,0,0,1,3.3-.74,6.74,6.74,0,0,1,2.8.6,5,5,0,0,1,2.09,1.64l-.15.94V26.54h2.79V48.48h-2.79V45.56l.33.74a7,7,0,0,1-2.3,1.77A6.83,6.83,0,0,1,112.44,48.77Zm.87-2.24a4.63,4.63,0,0,0,2-.4,4.28,4.28,0,0,0,1.44-1.06,3.87,3.87,0,0,0,.83-1.58V41.25a3.65,3.65,0,0,0-.86-1.5,4.24,4.24,0,0,0-1.47-1,5,5,0,0,0-1.9-.35,4.35,4.35,0,0,0-2.07.51,4,4,0,0,0-1.53,1.42,4.12,4.12,0,0,0,0,4.18A4.23,4.23,0,0,0,111.24,46,4.07,4.07,0,0,0,113.31,46.53Z"/><path class="cls-2" d="M140.43,48.77a7.73,7.73,0,0,1-3.66-.81,6,6,0,0,1-2.37-2.21,6.16,6.16,0,0,1-.84-3.22,5.57,5.57,0,0,1,.94-3.15A7.05,7.05,0,0,1,137,37.11a7.23,7.23,0,0,1,3.48-.85,6.16,6.16,0,0,1,4.08,1.36,7,7,0,0,1,2.22,3.75l-10.26,3.4-.66-1.56,8.37-2.92-.57.4a3.79,3.79,0,0,0-1.2-1.62,3.39,3.39,0,0,0-2.19-.68,4,4,0,0,0-2,.51,3.74,3.74,0,0,0-1.39,1.4,4.15,4.15,0,0,0-.51,2.09,4.24,4.24,0,0,0,.52,2.12A3.63,3.63,0,0,0,138.34,46a4.36,4.36,0,0,0,2.15.53,4.45,4.45,0,0,0,1.57-.29,6.87,6.87,0,0,0,1.46-.73l1.26,2a8.92,8.92,0,0,1-2.09,1A7.57,7.57,0,0,1,140.43,48.77Z"/><path class="cls-2" d="M159.54,32.49a1.32,1.32,0,0,1,.52-1.05,1.82,1.82,0,0,1,1.16-.42,1.75,1.75,0,0,1,1.14.42,1.33,1.33,0,0,1,.51,1.05,1.28,1.28,0,0,1-.51,1.06,1.75,1.75,0,0,1-1.14.42,1.82,1.82,0,0,1-1.16-.42A1.27,1.27,0,0,1,159.54,32.49Zm.18,4.26h2.82V48.48h-2.82Z"/><path class="cls-2" d="M180.36,48.71a7.76,7.76,0,0,1-2.57-.44,4.92,4.92,0,0,1-2-1.32l1.17-1.53a6.24,6.24,0,0,0,1.62,1.06,4,4,0,0,0,1.62.36,4.32,4.32,0,0,0,1.11-.14,1.74,1.74,0,0,0,.82-.49,1.21,1.21,0,0,0,.32-.87,1.23,1.23,0,0,0-.44-1,3.41,3.41,0,0,0-1.09-.58c-.44-.15-.92-.29-1.44-.43A5.36,5.36,0,0,1,177.09,42a2.9,2.9,0,0,1-.81-2.07,3.27,3.27,0,0,1,.49-1.74,3.76,3.76,0,0,1,1.49-1.34,5.07,5.07,0,0,1,2.4-.52,8.19,8.19,0,0,1,2.31.3,5.7,5.7,0,0,1,1.92,1l-1.11,1.65a3.49,3.49,0,0,0-1.28-.81,3.89,3.89,0,0,0-1.33-.27,3,3,0,0,0-1,.16,1.75,1.75,0,0,0-.75.45,1,1,0,0,0-.28.75,1.07,1.07,0,0,0,.4,1,3.46,3.46,0,0,0,1.1.58l1.35.46a6.57,6.57,0,0,1,1.62.68,3.53,3.53,0,0,1,1.15,1.05,2.64,2.64,0,0,1,.44,1.56,3.77,3.77,0,0,1-.53,1.94,3.69,3.69,0,0,1-1.59,1.42A6.12,6.12,0,0,1,180.36,48.71Z"/><path class="cls-2" d="M193.05,48.94a4.12,4.12,0,0,1-2.84-1,3.43,3.43,0,0,1-1.15-2.54V36.75h2.82v7.74a2.48,2.48,0,0,0,.6,1.54,2.2,2.2,0,0,0,1.68.64,3.17,3.17,0,0,0,1.84-.58,4.29,4.29,0,0,0,1.34-1.59,5,5,0,0,0,.51-2.28V36.75h2.79V48.48h-2.55l-.24-2.89.18.54a4.57,4.57,0,0,1-1.11,1.43,5.37,5.37,0,0,1-1.73,1A6.29,6.29,0,0,1,193.05,48.94Z"/><path class="cls-2" d="M204.36,42.5a5.84,5.84,0,0,1,.88-3.17,6.13,6.13,0,0,1,2.46-2.24,7.63,7.63,0,0,1,3.59-.83,7.35,7.35,0,0,1,3.54.83,6,6,0,0,1,3.24,5.41,6.07,6.07,0,0,1-.86,3.18,6.22,6.22,0,0,1-2.38,2.25,7.3,7.3,0,0,1-3.57.84A7.81,7.81,0,0,1,207.7,48a6.09,6.09,0,0,1-2.44-2.19A6,6,0,0,1,204.36,42.5Zm2.82,0a4,4,0,0,0,2,3.51,3.89,3.89,0,0,0,2,.54,3.94,3.94,0,0,0,2.07-.54,3.83,3.83,0,0,0,1.42-1.46,4,4,0,0,0,.53-2A4.08,4.08,0,0,0,213.27,39a3.86,3.86,0,0,0-2.07-.55,3.82,3.82,0,0,0-2.06.56,4.19,4.19,0,0,0-1.44,1.49A4,4,0,0,0,207.18,42.53Z"/><path class="cls-2" d="M221.61,32.49a1.32,1.32,0,0,1,.52-1.05,1.82,1.82,0,0,1,1.16-.42,1.75,1.75,0,0,1,1.14.42,1.33,1.33,0,0,1,.51,1.05,1.28,1.28,0,0,1-.51,1.06,1.75,1.75,0,0,1-1.14.42,1.82,1.82,0,0,1-1.16-.42A1.27,1.27,0,0,1,221.61,32.49Zm.18,4.26h2.82V48.48h-2.82Z"/><path class="cls-2" d="M245,54.32A8.68,8.68,0,0,1,242.5,54a7.61,7.61,0,0,1-1.92-.85A16.87,16.87,0,0,1,238.92,52l1.64-1.81a9.2,9.2,0,0,0,2,1.33,5.33,5.33,0,0,0,2.29.48,5.85,5.85,0,0,0,2.38-.44,3.28,3.28,0,0,0,1.47-1.2,3.42,3.42,0,0,0,.52-1.79l0-3.17.24.51a4.68,4.68,0,0,1-2,2,6.54,6.54,0,0,1-3.42.84A6.23,6.23,0,0,1,241,48a6.42,6.42,0,0,1-2.31-2.23,6.29,6.29,0,0,1,0-6.42,6.48,6.48,0,0,1,2.39-2.23,6.65,6.65,0,0,1,3.23-.81,7.09,7.09,0,0,1,3,.64,4.74,4.74,0,0,1,2,1.63l-.17.48.26-2.26h2.58V48.57a5.15,5.15,0,0,1-.85,2.89,6,6,0,0,1-2.46,2.08A8.61,8.61,0,0,1,245,54.32Zm-4.3-11.82a3.81,3.81,0,0,0,.59,2.07A4.16,4.16,0,0,0,242.8,46a4.37,4.37,0,0,0,2.15.54,4.87,4.87,0,0,0,2-.38,4,4,0,0,0,2.33-2.57V41.28a3.49,3.49,0,0,0-.9-1.47,4.75,4.75,0,0,0-1.5-1,5,5,0,0,0-1.92-.36,4.47,4.47,0,0,0-2.15.52,4.21,4.21,0,0,0-1.56,1.43A3.82,3.82,0,0,0,240.65,42.5Z"/><path class="cls-2" d="M262.68,48.77A7.7,7.7,0,0,1,259,48a6,6,0,0,1-2.38-2.21,6.16,6.16,0,0,1-.84-3.22,5.58,5.58,0,0,1,.95-3.15,7,7,0,0,1,2.5-2.27,7.26,7.26,0,0,1,3.48-.85,6.14,6.14,0,0,1,4.08,1.36A7,7,0,0,1,269,41.37l-10.26,3.4-.66-1.56,8.36-2.92-.57.4a3.63,3.63,0,0,0-1.2-1.62,3.36,3.36,0,0,0-2.18-.68,4,4,0,0,0-2,.51,3.74,3.74,0,0,0-1.39,1.4,4,4,0,0,0-.51,2.09,4.24,4.24,0,0,0,.52,2.12A3.63,3.63,0,0,0,260.59,46a4.35,4.35,0,0,0,2.14.53,4.47,4.47,0,0,0,1.58-.29,7.12,7.12,0,0,0,1.46-.73l1.26,2a9.11,9.11,0,0,1-2.09,1A7.63,7.63,0,0,1,262.68,48.77Z"/><path class="cls-2" d="M275,36.75l.2,2.86-.09-.45a4.45,4.45,0,0,1,1.92-2.09,6.21,6.21,0,0,1,3.15-.78,4.23,4.23,0,0,1,2.87,1,3.29,3.29,0,0,1,1.15,2.54v8.67h-2.82V40.71a2.32,2.32,0,0,0-.58-1.54,2.21,2.21,0,0,0-1.72-.61,3.5,3.5,0,0,0-1.94.57,3.87,3.87,0,0,0-1.38,1.56,5,5,0,0,0-.5,2.29v5.5h-2.82V36.75Z"/><path class="cls-2" d="M288.89,32.49a1.33,1.33,0,0,1,.53-1.05,1.79,1.79,0,0,1,1.15-.42,1.75,1.75,0,0,1,1.14.42,1.33,1.33,0,0,1,.51,1.05,1.28,1.28,0,0,1-.51,1.06,1.75,1.75,0,0,1-1.14.42,1.79,1.79,0,0,1-1.15-.42A1.28,1.28,0,0,1,288.89,32.49Zm.18,4.26h2.82V48.48h-2.82Z"/><path class="cls-2" d="M297.92,31.58h2.85V36.8h3.39v2.07h-3.39v9.61h-2.85V38.87h-2.25V36.8h2.25Z"/><path class="cls-2" d="M306.44,42.5a5.85,5.85,0,0,1,.89-3.17,6.13,6.13,0,0,1,2.46-2.24,7.59,7.59,0,0,1,3.58-.83,7.35,7.35,0,0,1,3.54.83,6.21,6.21,0,0,1,2.39,8.59,6.25,6.25,0,0,1-2.39,2.25,7.3,7.3,0,0,1-3.57.84,7.76,7.76,0,0,1-3.55-.78,6.11,6.11,0,0,1-2.45-2.19A6,6,0,0,1,306.44,42.5Zm2.82,0a4,4,0,0,0,2,3.51,3.89,3.89,0,0,0,2,.54,3.94,3.94,0,0,0,2.07-.54,3.86,3.86,0,0,0,1.43-1.46,4,4,0,0,0,.52-2A4,4,0,0,0,315.35,39a3.86,3.86,0,0,0-2.07-.55,3.78,3.78,0,0,0-2,.56,4.19,4.19,0,0,0-1.44,1.49A4,4,0,0,0,309.26,42.53Z"/><path class="cls-2" d="M326.39,36.75l.27,3.4-.12-.48a5.21,5.21,0,0,1,1.38-1.82,6.61,6.61,0,0,1,1.92-1.16,5.47,5.47,0,0,1,1.74-.43l-.12,2.67a4.26,4.26,0,0,0-2.5.49A4.76,4.76,0,0,0,327.28,41a3.91,3.91,0,0,0-.62,2.12v5.35h-2.79V36.75Z"/><path class="cls-2" d="M335,32.49a1.33,1.33,0,0,1,.53-1.05,1.79,1.79,0,0,1,1.15-.42,1.75,1.75,0,0,1,1.14.42,1.33,1.33,0,0,1,.51,1.05,1.28,1.28,0,0,1-.51,1.06,1.75,1.75,0,0,1-1.14.42,1.79,1.79,0,0,1-1.15-.42A1.28,1.28,0,0,1,335,32.49Zm.18,4.26H338V48.48h-2.82Z"/><path class="cls-2" d="M354.83,36.75l.21,2.86-.09-.45a4.45,4.45,0,0,1,1.92-2.09,6.18,6.18,0,0,1,3.15-.78,4.23,4.23,0,0,1,2.87,1A3.29,3.29,0,0,1,364,39.81v8.67h-2.82V40.71a2.32,2.32,0,0,0-.58-1.54,2.22,2.22,0,0,0-1.73-.61,3.49,3.49,0,0,0-1.93.57,3.87,3.87,0,0,0-1.38,1.56,5,5,0,0,0-.5,2.29v5.5h-2.82V36.75Z"/><path class="cls-2" d="M367.79,42.5a5.85,5.85,0,0,1,.89-3.17,6.13,6.13,0,0,1,2.46-2.24,7.59,7.59,0,0,1,3.58-.83,7.35,7.35,0,0,1,3.54.83,6.21,6.21,0,0,1,2.39,8.59,6.25,6.25,0,0,1-2.39,2.25,7.3,7.3,0,0,1-3.57.84,7.76,7.76,0,0,1-3.55-.78,6.11,6.11,0,0,1-2.45-2.19A6,6,0,0,1,367.79,42.5Zm2.82,0a4,4,0,0,0,2,3.51,3.89,3.89,0,0,0,2,.54A3.94,3.94,0,0,0,376.7,46a3.86,3.86,0,0,0,1.43-1.46,4,4,0,0,0,.52-2A4,4,0,0,0,376.7,39a3.86,3.86,0,0,0-2.07-.55,3.78,3.78,0,0,0-2.05.56,4.19,4.19,0,0,0-1.44,1.49A4,4,0,0,0,370.61,42.53Z"/><path class="cls-2" d="M387.77,36.75l.21,2.86-.09-.45a4.45,4.45,0,0,1,1.92-2.09,6.18,6.18,0,0,1,3.15-.78,4.23,4.23,0,0,1,2.87,1A3.29,3.29,0,0,1,397,39.81v8.67h-2.82V40.71a2.32,2.32,0,0,0-.58-1.54,2.22,2.22,0,0,0-1.73-.61,3.49,3.49,0,0,0-1.93.57,3.87,3.87,0,0,0-1.38,1.56A5,5,0,0,0,388,43v5.5h-2.82V36.75Z"/><path class="cls-2" d="M418.64,48.77a6.12,6.12,0,0,1-2.71-.63,4.69,4.69,0,0,1-2-1.67l.15-.82v8.48h-2.79V36.58h2.43l.39,3-.3-.85A7,7,0,0,1,416.09,37a6.69,6.69,0,0,1,3.09-.7,6.29,6.29,0,0,1,3.13.78,5.66,5.66,0,0,1,2.21,2.21,6.69,6.69,0,0,1,.81,3.34,6.08,6.08,0,0,1-.87,3.27A5.74,5.74,0,0,1,422.07,48,7.62,7.62,0,0,1,418.64,48.77Zm-.54-2.1a4.6,4.6,0,0,0,2.19-.53,4.35,4.35,0,0,0,1.6-1.44,3.69,3.69,0,0,0,.62-2.09,4,4,0,0,0-.57-2.11,4.17,4.17,0,0,0-1.51-1.44,4.33,4.33,0,0,0-2.12-.53,4.88,4.88,0,0,0-1.95.38A3.89,3.89,0,0,0,414.92,40a4,4,0,0,0-.81,1.61v2a3.38,3.38,0,0,0,.72,1.56,4.19,4.19,0,0,0,3.27,1.53Z"/><path class="cls-2" d="M428,42.5a5.84,5.84,0,0,1,.88-3.17,6.1,6.1,0,0,1,2.47-2.24,7.56,7.56,0,0,1,3.58-.83,7.35,7.35,0,0,1,3.54.83,6.21,6.21,0,0,1,2.39,8.59,6.25,6.25,0,0,1-2.39,2.25,7.3,7.3,0,0,1-3.57.84,7.76,7.76,0,0,1-3.55-.78,6,6,0,0,1-2.45-2.19A6,6,0,0,1,428,42.5Zm2.82,0a4,4,0,0,0,2,3.51,3.89,3.89,0,0,0,2,.54,3.92,3.92,0,0,0,3.5-2,4,4,0,0,0,.52-2,4.1,4.1,0,0,0-.52-2.06A4.19,4.19,0,0,0,436.91,39a3.86,3.86,0,0,0-2.07-.55,3.76,3.76,0,0,0-2,.56,4.19,4.19,0,0,0-1.44,1.49A4,4,0,0,0,430.82,42.53Z"/><path class="cls-2" d="M448.94,48.71a7.7,7.7,0,0,1-2.56-.44A4.89,4.89,0,0,1,444.32,47l1.17-1.53a6.24,6.24,0,0,0,1.62,1.06,4,4,0,0,0,1.62.36,4.32,4.32,0,0,0,1.11-.14,1.69,1.69,0,0,0,.82-.49,1.17,1.17,0,0,0,.32-.87,1.23,1.23,0,0,0-.44-1,3.41,3.41,0,0,0-1.09-.58c-.44-.15-.92-.29-1.44-.43A5.36,5.36,0,0,1,445.67,42a2.9,2.9,0,0,1-.81-2.07,3.28,3.28,0,0,1,.5-1.74,3.73,3.73,0,0,1,1.48-1.34,5.07,5.07,0,0,1,2.4-.52,8.19,8.19,0,0,1,2.31.3,5.7,5.7,0,0,1,1.92,1l-1.11,1.65a3.49,3.49,0,0,0-1.28-.81,3.89,3.89,0,0,0-1.33-.27,3,3,0,0,0-1,.16,1.82,1.82,0,0,0-.75.45,1,1,0,0,0-.28.75,1.06,1.06,0,0,0,.41,1,3.3,3.3,0,0,0,1.09.58l1.35.46a6.57,6.57,0,0,1,1.62.68,3.53,3.53,0,0,1,1.15,1.05,2.57,2.57,0,0,1,.44,1.56,3.77,3.77,0,0,1-.53,1.94,3.63,3.63,0,0,1-1.59,1.42A6.09,6.09,0,0,1,448.94,48.71Z"/><path class="cls-2" d="M461.15,48.71a7.76,7.76,0,0,1-2.57-.44A4.92,4.92,0,0,1,456.53,47l1.17-1.53a6.24,6.24,0,0,0,1.62,1.06,4,4,0,0,0,1.62.36,4.32,4.32,0,0,0,1.11-.14,1.82,1.82,0,0,0,.83-.49,1.25,1.25,0,0,0,.31-.87,1.23,1.23,0,0,0-.44-1,3.41,3.41,0,0,0-1.09-.58c-.44-.15-.92-.29-1.44-.43A5.36,5.36,0,0,1,457.88,42a2.9,2.9,0,0,1-.81-2.07,3.27,3.27,0,0,1,.49-1.74,3.76,3.76,0,0,1,1.49-1.34,5.07,5.07,0,0,1,2.4-.52,8.19,8.19,0,0,1,2.31.3,5.7,5.7,0,0,1,1.92,1l-1.11,1.65a3.41,3.41,0,0,0-1.28-.81,3.89,3.89,0,0,0-1.33-.27,2.91,2.91,0,0,0-1,.16,1.64,1.64,0,0,0-.75.45,1,1,0,0,0-.29.75,1.1,1.1,0,0,0,.4,1,3.58,3.58,0,0,0,1.1.58l1.35.46a6.57,6.57,0,0,1,1.62.68,3.53,3.53,0,0,1,1.15,1.05,2.64,2.64,0,0,1,.44,1.56,3.86,3.86,0,0,1-.52,1.94,3.75,3.75,0,0,1-1.59,1.42A6.19,6.19,0,0,1,461.15,48.71Z"/><path class="cls-2" d="M468.77,42.5a5.84,5.84,0,0,1,.88-3.17,6.1,6.1,0,0,1,2.47-2.24,7.56,7.56,0,0,1,3.58-.83,7.35,7.35,0,0,1,3.54.83,6.07,6.07,0,0,1,2.39,2.24,6,6,0,0,1,.85,3.17,6.06,6.06,0,0,1-.85,3.18,6.32,6.32,0,0,1-2.39,2.25,7.3,7.3,0,0,1-3.57.84,7.73,7.73,0,0,1-3.55-.78,6,6,0,0,1-2.45-2.19A6,6,0,0,1,468.77,42.5Zm2.82,0a4,4,0,0,0,2,3.51,3.89,3.89,0,0,0,2,.54,3.92,3.92,0,0,0,3.5-2,4,4,0,0,0,.52-2,4.1,4.1,0,0,0-.52-2.06A4.19,4.19,0,0,0,477.68,39a3.86,3.86,0,0,0-2.07-.55,3.82,3.82,0,0,0-2.06.56,4.16,4.16,0,0,0-1.43,1.49A4,4,0,0,0,471.59,42.53Z"/><path class="cls-2" d="M488.75,36.75l.21,2.86-.09-.45a4.45,4.45,0,0,1,1.92-2.09,6.18,6.18,0,0,1,3.15-.78,4.21,4.21,0,0,1,2.86,1A3.3,3.3,0,0,1,498,39.81v8.67h-2.82V40.71a2.33,2.33,0,0,0-.59-1.54,2.2,2.2,0,0,0-1.72-.61,3.52,3.52,0,0,0-1.94.57,3.87,3.87,0,0,0-1.38,1.56A5,5,0,0,0,489,43v5.5H486.2V36.75Z"/><path class="cls-2" d="M501.71,42.5a5.84,5.84,0,0,1,.88-3.17,6.13,6.13,0,0,1,2.46-2.24,7.63,7.63,0,0,1,3.59-.83,7.35,7.35,0,0,1,3.54.83,6,6,0,0,1,3.24,5.41,6.07,6.07,0,0,1-.86,3.18,6.22,6.22,0,0,1-2.38,2.25,7.3,7.3,0,0,1-3.57.84,7.81,7.81,0,0,1-3.56-.78,6.09,6.09,0,0,1-2.44-2.19A6,6,0,0,1,501.71,42.5Zm2.82,0a4,4,0,0,0,2,3.51,3.89,3.89,0,0,0,2,.54,3.94,3.94,0,0,0,2.07-.54A3.83,3.83,0,0,0,512,44.58a4,4,0,0,0,.53-2,4.08,4.08,0,0,0-2-3.53,3.86,3.86,0,0,0-2.07-.55,3.82,3.82,0,0,0-2.06.56,4.19,4.19,0,0,0-1.44,1.49A4,4,0,0,0,504.53,42.53Z"/><path class="cls-2" d="M36.75,82.79A6.28,6.28,0,0,1,34,82.17a4.84,4.84,0,0,1-2-1.68l.15-.82v8.48H29.4V70.6h2.43l.39,3-.3-.85A7.27,7.27,0,0,1,34.2,71a6.81,6.81,0,0,1,3.09-.69,6.33,6.33,0,0,1,3.14.78,5.63,5.63,0,0,1,2.2,2.21,6.62,6.62,0,0,1,.81,3.33,6.05,6.05,0,0,1-.87,3.27A5.72,5.72,0,0,1,40.19,82,7.66,7.66,0,0,1,36.75,82.79Zm-.54-2.1a4.6,4.6,0,0,0,2.19-.52A4.32,4.32,0,0,0,40,78.72a3.65,3.65,0,0,0,.61-2.08,3.9,3.9,0,0,0-.57-2.11,4,4,0,0,0-1.51-1.45,4.3,4.3,0,0,0-2.12-.53,4.72,4.72,0,0,0-2,.39A3.86,3.86,0,0,0,33,74a4.06,4.06,0,0,0-.81,1.62v2a3.38,3.38,0,0,0,.72,1.56,4,4,0,0,0,1.43,1.12A4.1,4.1,0,0,0,36.21,80.69Z"/><path class="cls-2" d="M53,82.79A7.73,7.73,0,0,1,49.32,82,5.89,5.89,0,0,1,47,79.77a6.14,6.14,0,0,1-.84-3.22,5.6,5.6,0,0,1,.94-3.14,7,7,0,0,1,2.51-2.27A7.12,7.12,0,0,1,53,70.29a6.11,6.11,0,0,1,4.08,1.36,6.89,6.89,0,0,1,2.22,3.74l-10.26,3.4-.66-1.56,8.37-2.92-.57.4A3.91,3.91,0,0,0,55,73.09a3.39,3.39,0,0,0-2.19-.68,4,4,0,0,0-2,.51,3.69,3.69,0,0,0-1.39,1.41,4.11,4.11,0,0,0-.51,2.08,4.29,4.29,0,0,0,.53,2.13A3.75,3.75,0,0,0,50.9,80a4.32,4.32,0,0,0,2.14.52,4.5,4.5,0,0,0,1.58-.28,7.34,7.34,0,0,0,1.45-.74l1.26,2a8.44,8.44,0,0,1-2.08,1A7.38,7.38,0,0,1,53,82.79Z"/><path class="cls-2" d="M65.31,70.77l.27,3.4-.12-.48a5.09,5.09,0,0,1,1.38-1.81,6.65,6.65,0,0,1,1.92-1.17,5.7,5.7,0,0,1,1.74-.42L70.38,73a4.24,4.24,0,0,0-2.5.5A4.59,4.59,0,0,0,66.2,75a3.88,3.88,0,0,0-.62,2.11v5.36H62.79V70.77Z"/><path class="cls-2" d="M76.62,70.77l.24,2.64-.15-.23a5.24,5.24,0,0,1,2-2.11,5.57,5.57,0,0,1,3-.78,5,5,0,0,1,1.83.32,3.54,3.54,0,0,1,1.33.91,2.83,2.83,0,0,1,.68,1.4l-.15.12a5.11,5.11,0,0,1,2-2A5.4,5.4,0,0,1,90,70.29a4.07,4.07,0,0,1,2.89,1A3.49,3.49,0,0,1,94,73.8v8.71H91.2V74.77a2.71,2.71,0,0,0-.47-1.52,1.78,1.78,0,0,0-1.51-.64,3.26,3.26,0,0,0-1.93.61A4,4,0,0,0,86,74.81,5.25,5.25,0,0,0,85.47,77v5.56H82.65V74.77a2.58,2.58,0,0,0-.5-1.52,1.87,1.87,0,0,0-1.54-.64,3.23,3.23,0,0,0-1.92.61,4.23,4.23,0,0,0-1.32,1.6A4.92,4.92,0,0,0,76.89,77v5.53H74.07V70.77Z"/><path class="cls-2" d="M104.61,82.79A7.73,7.73,0,0,1,101,82a5.89,5.89,0,0,1-2.37-2.21,6.14,6.14,0,0,1-.84-3.22,5.52,5.52,0,0,1,.94-3.14,7,7,0,0,1,2.51-2.27,7.12,7.12,0,0,1,3.48-.85,6.11,6.11,0,0,1,4.08,1.36A6.89,6.89,0,0,1,111,75.39l-10.26,3.4-.66-1.56,8.37-2.92-.57.4a3.91,3.91,0,0,0-1.2-1.62,3.39,3.39,0,0,0-2.19-.68,4,4,0,0,0-2,.51A3.69,3.69,0,0,0,101,74.33a4.11,4.11,0,0,0-.51,2.08,4.39,4.39,0,0,0,.52,2.13A3.71,3.71,0,0,0,102.53,80a4.29,4.29,0,0,0,2.14.52,4.44,4.44,0,0,0,1.57-.28,7.42,7.42,0,0,0,1.46-.74l1.26,2a8.61,8.61,0,0,1-2.08,1A7.38,7.38,0,0,1,104.61,82.79Z"/><path class="cls-2" d="M115.62,65.61h2.85v5.22h3.39V72.9h-3.39v9.61h-2.85V72.9h-2.25V70.83h2.25Z"/><path class="cls-2" d="M126.42,65.61h2.85v5.22h3.39V72.9h-3.39v9.61h-2.85V72.9h-2.25V70.83h2.25Z"/><path class="cls-2" d="M141.81,82.79a7.73,7.73,0,0,1-3.66-.81,5.89,5.89,0,0,1-2.37-2.21,6.14,6.14,0,0,1-.84-3.22,5.52,5.52,0,0,1,.94-3.14,7,7,0,0,1,2.51-2.27,7.12,7.12,0,0,1,3.48-.85A6.11,6.11,0,0,1,146,71.65a6.89,6.89,0,0,1,2.22,3.74l-10.26,3.4-.66-1.56,8.37-2.92-.57.4a3.91,3.91,0,0,0-1.2-1.62,3.39,3.39,0,0,0-2.19-.68,4,4,0,0,0-2,.51,3.69,3.69,0,0,0-1.39,1.41,4.11,4.11,0,0,0-.51,2.08,4.28,4.28,0,0,0,.52,2.13A3.75,3.75,0,0,0,139.72,80a4.36,4.36,0,0,0,2.15.52,4.44,4.44,0,0,0,1.57-.28,7.42,7.42,0,0,0,1.46-.74l1.26,2a8.51,8.51,0,0,1-2.09,1A7.27,7.27,0,0,1,141.81,82.79Z"/><path class="cls-2" d="M154.14,70.77l.27,3.4-.12-.48a5.09,5.09,0,0,1,1.38-1.81,6.65,6.65,0,0,1,1.92-1.17,5.7,5.7,0,0,1,1.74-.42L159.21,73a4.29,4.29,0,0,0-2.51.5A4.67,4.67,0,0,0,155,75a3.87,3.87,0,0,0-.61,2.11v5.36h-2.79V70.77Z"/><path class="cls-2" d="M166.41,82.73a7.51,7.51,0,0,1-2.57-.44A5,5,0,0,1,161.79,81L163,79.45a6.51,6.51,0,0,0,1.62,1.06,4.13,4.13,0,0,0,2.73.21,1.65,1.65,0,0,0,.82-.48,1.38,1.38,0,0,0-.12-1.89,3.62,3.62,0,0,0-1.09-.58q-.66-.22-1.44-.42A5.37,5.37,0,0,1,163.14,76a2.86,2.86,0,0,1-.81-2.06,3.28,3.28,0,0,1,.49-1.75,3.74,3.74,0,0,1,1.49-1.33,5.06,5.06,0,0,1,2.4-.53,8.19,8.19,0,0,1,2.31.3,5.73,5.73,0,0,1,1.92,1l-1.11,1.64a3.49,3.49,0,0,0-1.28-.81,3.89,3.89,0,0,0-1.33-.27,3.29,3.29,0,0,0-1,.16,1.86,1.86,0,0,0-.75.45,1.05,1.05,0,0,0-.28.76,1.09,1.09,0,0,0,.4,1,3.68,3.68,0,0,0,1.1.58l1.35.45a7,7,0,0,1,1.62.68,3.77,3.77,0,0,1,1.15,1.05,2.68,2.68,0,0,1,.44,1.56,3.75,3.75,0,0,1-.53,1.94,3.63,3.63,0,0,1-1.59,1.42A6.12,6.12,0,0,1,166.41,82.73Z"/><path class="cls-2" d="M174.93,66.52a1.29,1.29,0,0,1,.52-1,1.78,1.78,0,0,1,1.16-.43,1.71,1.71,0,0,1,1.14.43,1.35,1.35,0,0,1,0,2.11,1.79,1.79,0,0,1-1.14.41,1.87,1.87,0,0,1-1.16-.41A1.28,1.28,0,0,1,174.93,66.52Zm.18,4.25h2.82V82.51h-2.82Z"/><path class="cls-2" d="M197.31,82.79a6.23,6.23,0,0,1-3.12-.78A5.86,5.86,0,0,1,192,79.8a6.49,6.49,0,0,1-.82-3.3,6.19,6.19,0,0,1,.87-3.35A5.79,5.79,0,0,1,194.37,71a7.27,7.27,0,0,1,3.3-.73,6.9,6.9,0,0,1,2.8.59,5,5,0,0,1,2.09,1.65l-.15.93V60.56h2.79v22h-2.79V79.59l.33.73a7.12,7.12,0,0,1-2.3,1.78A7,7,0,0,1,197.31,82.79Zm.87-2.24a4.52,4.52,0,0,0,2-.4,4.15,4.15,0,0,0,1.44-1.06,3.83,3.83,0,0,0,.83-1.57V75.28a3.63,3.63,0,0,0-.86-1.51,4.17,4.17,0,0,0-1.47-1,4.84,4.84,0,0,0-1.9-.36,4.35,4.35,0,0,0-2.07.51,4,4,0,0,0-1.53,1.42,4.12,4.12,0,0,0,0,4.18A4.26,4.26,0,0,0,196.11,80,4.06,4.06,0,0,0,198.18,80.55Z"/><path class="cls-2" d="M209.85,66.52a1.29,1.29,0,0,1,.52-1,1.78,1.78,0,0,1,1.16-.43,1.71,1.71,0,0,1,1.14.43,1.35,1.35,0,0,1,0,2.11,1.79,1.79,0,0,1-1.14.41,1.87,1.87,0,0,1-1.16-.41A1.28,1.28,0,0,1,209.85,66.52Zm.18,4.25h2.82V82.51H210Z"/><path class="cls-2" d="M234.51,82.79a6.29,6.29,0,0,1-2.72-.62,4.9,4.9,0,0,1-2-1.68l.16-.82v8.48h-2.79V70.6h2.43l.38,3-.29-.85A7.27,7.27,0,0,1,232,71a6.8,6.8,0,0,1,3.08-.69,6.3,6.3,0,0,1,3.14.78,5.57,5.57,0,0,1,2.2,2.21,6.53,6.53,0,0,1,.82,3.33,6.14,6.14,0,0,1-.87,3.27A5.8,5.8,0,0,1,237.94,82,7.62,7.62,0,0,1,234.51,82.79Zm-.55-2.1a4.61,4.61,0,0,0,2.2-.52,4.37,4.37,0,0,0,1.6-1.45,3.66,3.66,0,0,0,.62-2.08,3.82,3.82,0,0,0-.58-2.11,4,4,0,0,0-1.51-1.45,4.26,4.26,0,0,0-2.11-.53,4.76,4.76,0,0,0-2,.39A3.83,3.83,0,0,0,230.79,74a4,4,0,0,0-.82,1.62v2a3.4,3.4,0,0,0,.73,1.56,3.93,3.93,0,0,0,1.42,1.12A4.1,4.1,0,0,0,234,80.69Z"/><path class="cls-2" d="M250.13,82.79a7,7,0,0,1-3.16-.71A5.39,5.39,0,0,1,244.71,80a7.11,7.11,0,0,1,0-6.76,5.81,5.81,0,0,1,2.34-2.19,6.82,6.82,0,0,1,3.21-.76,5.5,5.5,0,0,1,3,.75,5.21,5.21,0,0,1,1.81,1.77l-.17.43.26-2.47h2.58V82.51h-2.78V79.45l.33.68a4.23,4.23,0,0,1-.57.72,7.3,7.3,0,0,1-1.07.89,6,6,0,0,1-3.5,1.05Zm.75-2.18a4.8,4.8,0,0,0,1.9-.37,3.74,3.74,0,0,0,1.39-1,3.93,3.93,0,0,0,.77-1.59V75.31a3.5,3.5,0,0,0-.84-1.49,4.29,4.29,0,0,0-1.44-1,4.77,4.77,0,0,0-1.83-.35,4.21,4.21,0,0,0-2.07.51,3.84,3.84,0,0,0-1.49,1.42,4,4,0,0,0-.56,2.13,3.79,3.79,0,0,0,.58,2.06,4.17,4.17,0,0,0,3.59,2Z"/><path class="cls-2" d="M268.58,88.35a9,9,0,0,1-2.44-.31,8,8,0,0,1-1.92-.85,18.41,18.41,0,0,1-1.67-1.2l1.66-1.81a9,9,0,0,0,2,1.33,5.29,5.29,0,0,0,2.28.48,5.67,5.67,0,0,0,2.39-.44,3.28,3.28,0,0,0,1.47-1.2,3.42,3.42,0,0,0,.53-1.79l0-3.17.24.51A4.59,4.59,0,0,1,271.2,82a6.69,6.69,0,0,1-3.42.83,6.2,6.2,0,0,1-3.13-.82,6.38,6.38,0,0,1-2.3-2.23,5.79,5.79,0,0,1-.88-3.16,6,6,0,0,1,.91-3.26,6.27,6.27,0,0,1,2.38-2.22,6.61,6.61,0,0,1,3.22-.81,7.13,7.13,0,0,1,3,.63,4.9,4.9,0,0,1,2,1.63l-.18.49.27-2.27h2.58V82.59a5.14,5.14,0,0,1-.86,2.89,6,6,0,0,1-2.46,2.09A8.62,8.62,0,0,1,268.58,88.35Zm-4.29-11.82a3.8,3.8,0,0,0,.59,2.06,4.18,4.18,0,0,0,1.56,1.48,4.33,4.33,0,0,0,2.14.54,4.92,4.92,0,0,0,2-.39,4,4,0,0,0,1.48-1.06,3.86,3.86,0,0,0,.84-1.5V75.31a3.49,3.49,0,0,0-.9-1.48,4.81,4.81,0,0,0-3.42-1.36,4.43,4.43,0,0,0-2.14.52,4.16,4.16,0,0,0-1.56,1.44A3.77,3.77,0,0,0,264.29,76.53Z"/><path class="cls-2" d="M285.71,82.79a7,7,0,0,1-3.16-.71A5.34,5.34,0,0,1,280.29,80a6.26,6.26,0,0,1-.84-3.36,6.36,6.36,0,0,1,.86-3.4,5.87,5.87,0,0,1,2.34-2.19,6.89,6.89,0,0,1,3.22-.76,5.53,5.53,0,0,1,2.95.75,5.21,5.21,0,0,1,1.81,1.77l-.17.43.26-2.47h2.58V82.51h-2.79V79.45l.33.68a4.07,4.07,0,0,1-.56.72,7.88,7.88,0,0,1-1.07.89,6.26,6.26,0,0,1-1.51.75A6.12,6.12,0,0,1,285.71,82.79Zm.75-2.18a4.84,4.84,0,0,0,1.9-.37,3.82,3.82,0,0,0,1.39-1,3.68,3.68,0,0,0,.76-1.59V75.31a3.5,3.5,0,0,0-.84-1.49,4.19,4.19,0,0,0-1.44-1,4.77,4.77,0,0,0-1.83-.35,4.26,4.26,0,0,0-2.07.51,3.88,3.88,0,0,0-1.48,1.42,4,4,0,0,0-.56,2.13,3.79,3.79,0,0,0,.58,2.06,4,4,0,0,0,1.52,1.48A4.18,4.18,0,0,0,286.46,80.61Z"/><path class="cls-2" d="M300.65,70.77l.27,3.4-.12-.48a5.09,5.09,0,0,1,1.38-1.81,6.65,6.65,0,0,1,1.92-1.17,5.7,5.7,0,0,1,1.74-.42L305.72,73a4.26,4.26,0,0,0-2.5.5A4.67,4.67,0,0,0,301.54,75a3.88,3.88,0,0,0-.62,2.11v5.36h-2.79V70.77Z"/><path class="cls-2" d="M314.66,82.79A7.73,7.73,0,0,1,311,82a5.89,5.89,0,0,1-2.37-2.21,6.14,6.14,0,0,1-.84-3.22,5.53,5.53,0,0,1,.95-3.14,6.93,6.93,0,0,1,2.5-2.27,7.12,7.12,0,0,1,3.48-.85,6.11,6.11,0,0,1,4.08,1.36A6.89,6.89,0,0,1,321,75.39l-10.26,3.4-.66-1.56,8.37-2.92-.57.4a3.91,3.91,0,0,0-1.2-1.62,3.39,3.39,0,0,0-2.19-.68,4,4,0,0,0-2,.51,3.72,3.72,0,0,0-1.4,1.41,4.11,4.11,0,0,0-.51,2.08,4.29,4.29,0,0,0,.53,2.13A3.75,3.75,0,0,0,312.58,80a4.32,4.32,0,0,0,2.14.52,4.5,4.5,0,0,0,1.58-.28,7.34,7.34,0,0,0,1.45-.74l1.26,2a8.44,8.44,0,0,1-2.08,1A7.33,7.33,0,0,1,314.66,82.79Z"/><path class="cls-2" d="M334,60.56h2.82v22H334Z"/><path class="cls-2" d="M347.39,82.79a7.73,7.73,0,0,1-3.66-.81,5.89,5.89,0,0,1-2.37-2.21,6.14,6.14,0,0,1-.84-3.22,5.53,5.53,0,0,1,1-3.14,6.93,6.93,0,0,1,2.5-2.27,7.12,7.12,0,0,1,3.48-.85,6.11,6.11,0,0,1,4.08,1.36,6.89,6.89,0,0,1,2.22,3.74l-10.26,3.4-.66-1.56,8.37-2.92-.57.4a3.91,3.91,0,0,0-1.2-1.62,3.39,3.39,0,0,0-2.19-.68,4,4,0,0,0-2,.51,3.72,3.72,0,0,0-1.4,1.41,4.11,4.11,0,0,0-.51,2.08,4.29,4.29,0,0,0,.53,2.13A3.75,3.75,0,0,0,345.31,80a4.32,4.32,0,0,0,2.14.52,4.5,4.5,0,0,0,1.58-.28,7.34,7.34,0,0,0,1.45-.74l1.26,2a8.44,8.44,0,0,1-2.08,1A7.33,7.33,0,0,1,347.39,82.79Z"/><path class="cls-2" d="M367.88,65.61h2.85v5.22h3.39V72.9h-3.39v9.61h-2.85V72.9h-2.25V70.83h2.25Z"/><path class="cls-2" d="M382.67,82.79a7,7,0,0,1-3.16-.71A5.36,5.36,0,0,1,377.24,80a7.11,7.11,0,0,1,0-6.76,5.87,5.87,0,0,1,2.34-2.19,6.84,6.84,0,0,1,3.21-.76,5.56,5.56,0,0,1,3,.75,5.21,5.21,0,0,1,1.81,1.77l-.18.43.27-2.47h2.58V82.51h-2.79V79.45l.33.68a3.77,3.77,0,0,1-.57.72,7.18,7.18,0,0,1-1.06.89,6.34,6.34,0,0,1-1.52.75A6.06,6.06,0,0,1,382.67,82.79Zm.75-2.18a4.75,4.75,0,0,0,1.89-.37,3.68,3.68,0,0,0,2.16-2.64V75.31a3.5,3.5,0,0,0-.84-1.49,4.19,4.19,0,0,0-1.44-1,4.77,4.77,0,0,0-1.83-.35,4.23,4.23,0,0,0-2.07.51,4,4,0,0,0-1.49,1.42,4.07,4.07,0,0,0-.55,2.13,3.87,3.87,0,0,0,.57,2.06,4.1,4.1,0,0,0,1.53,1.48A4.15,4.15,0,0,0,383.42,80.61Z"/><path class="cls-2" d="M398.6,82.73a7.45,7.45,0,0,1-2.56-.44A5,5,0,0,1,394,81l1.17-1.53a6.51,6.51,0,0,0,1.62,1.06,4.13,4.13,0,0,0,2.73.21,1.6,1.6,0,0,0,.82-.48,1.21,1.21,0,0,0,.32-.88,1.27,1.27,0,0,0-.43-1,3.8,3.8,0,0,0-1.1-.58q-.66-.22-1.44-.42A5.37,5.37,0,0,1,395.33,76a2.86,2.86,0,0,1-.81-2.06,3.29,3.29,0,0,1,.5-1.75,3.71,3.71,0,0,1,1.48-1.33,5.06,5.06,0,0,1,2.4-.53,8.19,8.19,0,0,1,2.31.3,5.73,5.73,0,0,1,1.92,1L402,73.29a3.49,3.49,0,0,0-1.28-.81,3.89,3.89,0,0,0-1.33-.27,3.29,3.29,0,0,0-1,.16,1.93,1.93,0,0,0-.75.45,1.05,1.05,0,0,0-.28.76,1.08,1.08,0,0,0,.41,1,3.5,3.5,0,0,0,1.09.58l1.35.45a7,7,0,0,1,1.62.68A3.66,3.66,0,0,1,403,77.29a2.61,2.61,0,0,1,.44,1.56,3.75,3.75,0,0,1-.53,1.94,3.58,3.58,0,0,1-1.59,1.42A6.09,6.09,0,0,1,398.6,82.73Z"/><path class="cls-2" d="M410.81,82.73a7.51,7.51,0,0,1-2.57-.44A5,5,0,0,1,406.19,81l1.17-1.53A6.51,6.51,0,0,0,409,80.51a4.13,4.13,0,0,0,2.73.21,1.72,1.72,0,0,0,.83-.48,1.29,1.29,0,0,0,.31-.88,1.22,1.22,0,0,0-.44-1,3.5,3.5,0,0,0-1.09-.58q-.66-.22-1.44-.42A5.37,5.37,0,0,1,407.54,76a2.86,2.86,0,0,1-.81-2.06,3.28,3.28,0,0,1,.49-1.75,3.74,3.74,0,0,1,1.49-1.33,5.06,5.06,0,0,1,2.4-.53,8.19,8.19,0,0,1,2.31.3,5.73,5.73,0,0,1,1.92,1l-1.11,1.64a3.45,3.45,0,0,0-1.27-.81,4,4,0,0,0-1.34-.27,3.18,3.18,0,0,0-1,.16,1.73,1.73,0,0,0-.75.45,1,1,0,0,0-.29.76,1.12,1.12,0,0,0,.4,1,3.8,3.8,0,0,0,1.1.58l1.35.45a7,7,0,0,1,1.62.68,3.93,3.93,0,0,1,1.16,1.05,2.75,2.75,0,0,1,.43,1.56,3.83,3.83,0,0,1-.52,1.94,3.69,3.69,0,0,1-1.59,1.42A6.19,6.19,0,0,1,410.81,82.73Z"/><path class="cls-2" d="M425.3,82.79a7.73,7.73,0,0,1-3.66-.81,5.89,5.89,0,0,1-2.37-2.21,6.14,6.14,0,0,1-.84-3.22,5.45,5.45,0,0,1,.95-3.14,6.85,6.85,0,0,1,2.5-2.27,7.12,7.12,0,0,1,3.48-.85,6.11,6.11,0,0,1,4.08,1.36,6.89,6.89,0,0,1,2.22,3.74l-10.26,3.4-.66-1.56,8.37-2.92-.57.4a3.91,3.91,0,0,0-1.2-1.62,3.39,3.39,0,0,0-2.19-.68,3.94,3.94,0,0,0-2,.51,3.72,3.72,0,0,0-1.4,1.41,4.11,4.11,0,0,0-.51,2.08,4.28,4.28,0,0,0,.52,2.13A3.75,3.75,0,0,0,423.21,80a4.39,4.39,0,0,0,2.15.52,4.5,4.5,0,0,0,1.58-.28,7.34,7.34,0,0,0,1.45-.74l1.26,2a8.51,8.51,0,0,1-2.09,1A7.27,7.27,0,0,1,425.3,82.79Z"/><path class="cls-2" d="M448.58,83a4.12,4.12,0,0,1-2.84-1,3.42,3.42,0,0,1-1.15-2.53V70.77h2.82v7.74a2.48,2.48,0,0,0,.6,1.54,2.2,2.2,0,0,0,1.68.64,3.1,3.1,0,0,0,1.84-.58,4.21,4.21,0,0,0,1.34-1.59,5,5,0,0,0,.51-2.28V70.77h2.79V82.51h-2.55l-.24-2.89.18.53a4.72,4.72,0,0,1-1.11,1.44,5.35,5.35,0,0,1-1.73,1A6.06,6.06,0,0,1,448.58,83Z"/><path class="cls-2" d="M463.52,70.77l.21,2.86-.09-.45a4.43,4.43,0,0,1,1.92-2.08,6.18,6.18,0,0,1,3.15-.78,4.2,4.2,0,0,1,2.86,1,3.32,3.32,0,0,1,1.16,2.54v8.68h-2.82V74.74a2.35,2.35,0,0,0-.59-1.55,2.23,2.23,0,0,0-1.72-.61,3.52,3.52,0,0,0-1.94.57,3.87,3.87,0,0,0-1.38,1.56,5.09,5.09,0,0,0-.49,2.3v5.5H461V70.77Z"/><path class="cls-2" d="M477.38,66.52a1.29,1.29,0,0,1,.52-1,1.78,1.78,0,0,1,1.16-.43,1.71,1.71,0,0,1,1.14.43,1.35,1.35,0,0,1,0,2.11,1.79,1.79,0,0,1-1.14.41,1.87,1.87,0,0,1-1.16-.41A1.28,1.28,0,0,1,477.38,66.52Zm.18,4.25h2.82V82.51h-2.82Z"/><path class="cls-2" d="M490.28,82.85l-6.9-12.08h3.33l4.65,9.33L489.65,80l4.29-9.24h3.12l-6.63,12.08Z"/><path class="cls-2" d="M505.52,82.79a7.73,7.73,0,0,1-3.66-.81,5.89,5.89,0,0,1-2.37-2.21,6.14,6.14,0,0,1-.84-3.22,5.52,5.52,0,0,1,.94-3.14,7,7,0,0,1,2.51-2.27,7.12,7.12,0,0,1,3.48-.85,6.11,6.11,0,0,1,4.08,1.36,6.89,6.89,0,0,1,2.22,3.74l-10.26,3.4L501,77.23l8.37-2.92-.57.4a3.91,3.91,0,0,0-1.2-1.62,3.39,3.39,0,0,0-2.19-.68,4,4,0,0,0-2,.51A3.69,3.69,0,0,0,502,74.33a4.11,4.11,0,0,0-.51,2.08,4.28,4.28,0,0,0,.52,2.13A3.75,3.75,0,0,0,503.43,80a4.36,4.36,0,0,0,2.15.52,4.44,4.44,0,0,0,1.57-.28,7.42,7.42,0,0,0,1.46-.74l1.26,2a8.51,8.51,0,0,1-2.09,1A7.27,7.27,0,0,1,505.52,82.79Z"/><path class="cls-2" d="M517.85,70.77l.27,3.4-.12-.48a5.09,5.09,0,0,1,1.38-1.81,6.65,6.65,0,0,1,1.92-1.17,5.7,5.7,0,0,1,1.74-.42L522.92,73a4.29,4.29,0,0,0-2.51.5A4.67,4.67,0,0,0,518.73,75a3.87,3.87,0,0,0-.61,2.11v5.36h-2.79V70.77Z"/><path class="cls-2" d="M530.12,82.73a7.51,7.51,0,0,1-2.57-.44,5,5,0,0,1-2-1.31l1.17-1.53a6.51,6.51,0,0,0,1.62,1.06,4.13,4.13,0,0,0,2.73.21,1.65,1.65,0,0,0,.82-.48,1.38,1.38,0,0,0-.12-1.89,3.62,3.62,0,0,0-1.09-.58q-.66-.22-1.44-.42A5.37,5.37,0,0,1,526.85,76,2.86,2.86,0,0,1,526,74a3.28,3.28,0,0,1,.49-1.75A3.74,3.74,0,0,1,528,70.87a5.06,5.06,0,0,1,2.4-.53,8.19,8.19,0,0,1,2.31.3,5.73,5.73,0,0,1,1.92,1l-1.11,1.64a3.49,3.49,0,0,0-1.28-.81,3.89,3.89,0,0,0-1.33-.27,3.29,3.29,0,0,0-1,.16,1.86,1.86,0,0,0-.75.45,1.05,1.05,0,0,0-.28.76,1.09,1.09,0,0,0,.4,1,3.68,3.68,0,0,0,1.1.58l1.35.45a7,7,0,0,1,1.62.68,3.77,3.77,0,0,1,1.15,1.05,2.68,2.68,0,0,1,.44,1.56,3.75,3.75,0,0,1-.53,1.94,3.63,3.63,0,0,1-1.59,1.42A6.12,6.12,0,0,1,530.12,82.73Z"/><path class="cls-2" d="M538.64,66.52a1.29,1.29,0,0,1,.52-1,1.78,1.78,0,0,1,1.16-.43,1.71,1.71,0,0,1,1.14.43,1.35,1.35,0,0,1,0,2.11,1.79,1.79,0,0,1-1.14.41,1.87,1.87,0,0,1-1.16-.41A1.28,1.28,0,0,1,538.64,66.52Zm.18,4.25h2.82V82.51h-2.82Z"/><path class="cls-2" d="M547.67,65.61h2.85v5.22h3.39V72.9h-3.39v9.61h-2.85V72.9h-2.25V70.83h2.25Z"/><path class="cls-2" d="M562.46,82.79a7,7,0,0,1-3.17-.71A5.39,5.39,0,0,1,557,80a7.11,7.11,0,0,1,0-6.76,5.81,5.81,0,0,1,2.34-2.19,6.84,6.84,0,0,1,3.21-.76,5.5,5.5,0,0,1,2.95.75,5.33,5.33,0,0,1,1.82,1.77l-.18.43.26-2.47H570V82.51h-2.78V79.45l.33.68a4.23,4.23,0,0,1-.57.72,7.3,7.3,0,0,1-1.07.89,6,6,0,0,1-3.49,1.05Zm.75-2.18a4.75,4.75,0,0,0,1.89-.37,3.74,3.74,0,0,0,1.39-1,3.81,3.81,0,0,0,.77-1.59V75.31a3.5,3.5,0,0,0-.84-1.49,4.19,4.19,0,0,0-1.44-1,4.77,4.77,0,0,0-1.83-.35,4.21,4.21,0,0,0-2.07.51,3.91,3.91,0,0,0-1.49,1.42,4,4,0,0,0-.55,2.13,3.79,3.79,0,0,0,.57,2.06,4.15,4.15,0,0,0,1.52,1.48A4.19,4.19,0,0,0,563.21,80.61Z"/><path class="cls-2" d="M577.39,70.77l.28,3.4-.13-.48a5.11,5.11,0,0,1,1.39-1.81,6.52,6.52,0,0,1,1.92-1.17,5.7,5.7,0,0,1,1.74-.42L582.46,73a4.27,4.27,0,0,0-2.5.5A4.67,4.67,0,0,0,578.28,75a3.87,3.87,0,0,0-.61,2.11v5.36h-2.79V70.77Z"/><path class="cls-2" d="M586,66.52a1.3,1.3,0,0,1,.53-1,1.75,1.75,0,0,1,1.15-.43,1.71,1.71,0,0,1,1.14.43,1.35,1.35,0,0,1,0,2.11,1.79,1.79,0,0,1-1.14.41,1.84,1.84,0,0,1-1.15-.41A1.29,1.29,0,0,1,586,66.52Zm.18,4.25H589V82.51h-2.82Z"/><path class="cls-2" d="M599.59,82.79a7.73,7.73,0,0,1-3.66-.81,5.89,5.89,0,0,1-2.37-2.21,6.14,6.14,0,0,1-.84-3.22,5.53,5.53,0,0,1,.95-3.14,6.93,6.93,0,0,1,2.5-2.27,7.12,7.12,0,0,1,3.48-.85,6.11,6.11,0,0,1,4.08,1.36A6.89,6.89,0,0,1,606,75.39l-10.26,3.4L595,77.23l8.37-2.92-.57.4a3.91,3.91,0,0,0-1.2-1.62,3.39,3.39,0,0,0-2.19-.68,4,4,0,0,0-2,.51,3.72,3.72,0,0,0-1.4,1.41,4.11,4.11,0,0,0-.51,2.08,4.29,4.29,0,0,0,.53,2.13A3.75,3.75,0,0,0,597.51,80a4.32,4.32,0,0,0,2.14.52,4.5,4.5,0,0,0,1.58-.28,7.34,7.34,0,0,0,1.45-.74l1.26,2a8.44,8.44,0,0,1-2.08,1A7.33,7.33,0,0,1,599.59,82.79Z"/><path class="cls-2" d="M612,80l-1.3,3c-.43,1-.87,2-1.31,3h-2.31q.63-1.53,1.2-3c.38-1,.76-2,1.14-3Z"/><path class="cls-2" d="M34.41,116.81a6.28,6.28,0,0,1-3-.75,5.73,5.73,0,0,1-2.23-2.14,6.4,6.4,0,0,1-.82-3.29,6,6,0,0,1,.9-3.31,6.19,6.19,0,0,1,2.39-2.21,6.83,6.83,0,0,1,3.28-.8,6.16,6.16,0,0,1,3,.7,5.62,5.62,0,0,1,2,1.8l-.33.82v-3h2.79v17.55H39.57v-8.64l.15,1.1a5.17,5.17,0,0,1-2.13,1.58A8,8,0,0,1,34.41,116.81Zm.93-2.09a4.93,4.93,0,0,0,2-.4,3.86,3.86,0,0,0,1.48-1.11,3.47,3.47,0,0,0,.77-1.56v-2A3.92,3.92,0,0,0,37.3,107a4.79,4.79,0,0,0-2-.38,4.24,4.24,0,0,0-3.6,2,3.87,3.87,0,0,0-.57,2.08,3.79,3.79,0,0,0,.57,2.07,4.26,4.26,0,0,0,3.6,2Z"/><path class="cls-2" d="M51.18,117a4.09,4.09,0,0,1-2.83-1,3.46,3.46,0,0,1-1.16-2.54v-8.68H50v7.74a2.5,2.5,0,0,0,.6,1.55,2.2,2.2,0,0,0,1.68.64,3.08,3.08,0,0,0,1.84-.59,4.09,4.09,0,0,0,1.34-1.58,5,5,0,0,0,.51-2.28v-5.48h2.79v11.74H56.22L56,113.64l.18.54a4.69,4.69,0,0,1-1.11,1.43,5.32,5.32,0,0,1-1.72,1A6.38,6.38,0,0,1,51.18,117Z"/><path class="cls-2" d="M63.39,100.54a1.28,1.28,0,0,1,.53-1.05,1.79,1.79,0,0,1,1.15-.42,1.75,1.75,0,0,1,1.14.42,1.32,1.32,0,0,1,.51,1.05,1.3,1.3,0,0,1-.51,1.06,1.74,1.74,0,0,1-1.14.41,1.78,1.78,0,0,1-1.15-.41A1.26,1.26,0,0,1,63.39,100.54Zm.18,4.25h2.82v11.74H63.57Z"/><path class="cls-2" d="M73.77,104.79l.21,2.87-.09-.46a4.43,4.43,0,0,1,1.92-2.08,6.18,6.18,0,0,1,3.15-.78,4.21,4.21,0,0,1,2.86,1A3.3,3.3,0,0,1,83,107.86v8.67H80.16v-7.77a2.26,2.26,0,0,0-.59-1.54,2.18,2.18,0,0,0-1.72-.61,3.59,3.59,0,0,0-1.94.56,3.85,3.85,0,0,0-1.37,1.56A5.12,5.12,0,0,0,74,111v5.5H71.22V104.79Z"/><path class="cls-2" d="M92.88,116.81a6.33,6.33,0,0,1-3.12-.77,5.89,5.89,0,0,1-2.21-2.22,6.46,6.46,0,0,1-.82-3.3,6.21,6.21,0,0,1,.87-3.35,5.77,5.77,0,0,1,2.34-2.12,7.28,7.28,0,0,1,3.3-.74,6.74,6.74,0,0,1,2.8.6,4.94,4.94,0,0,1,2.09,1.64l-.15.94V94.59h2.79v21.94H98v-2.92l.33.74A6.92,6.92,0,0,1,96,116.12,7,7,0,0,1,92.88,116.81Zm.87-2.24a4.66,4.66,0,0,0,2-.39,4.22,4.22,0,0,0,1.44-1.06,3.87,3.87,0,0,0,.83-1.58V109.3a3.51,3.51,0,0,0-.85-1.5,4.33,4.33,0,0,0-1.48-1,5,5,0,0,0-1.9-.35,4.35,4.35,0,0,0-2.07.51,4,4,0,0,0-1.53,1.42,3.83,3.83,0,0,0-.57,2.09,3.9,3.9,0,0,0,.57,2.09A4.31,4.31,0,0,0,91.68,114,4.06,4.06,0,0,0,93.75,114.57Z"/><path class="cls-2" d="M105.42,100.54a1.28,1.28,0,0,1,.53-1.05,1.77,1.77,0,0,1,1.15-.42,1.75,1.75,0,0,1,1.14.42,1.32,1.32,0,0,1,.51,1.05,1.3,1.3,0,0,1-.51,1.06,1.74,1.74,0,0,1-1.14.41,1.76,1.76,0,0,1-1.15-.41A1.26,1.26,0,0,1,105.42,100.54Zm.18,4.25h2.82v11.74H105.6Z"/><path class="cls-2" d="M122.73,94.59h2.82v21.94h-2.82Z"/><path class="cls-2" d="M135.57,116.81a7.06,7.06,0,0,1-3.17-.7,5.48,5.48,0,0,1-2.26-2.09,6.3,6.3,0,0,1-.84-3.36,6.39,6.39,0,0,1,.87-3.4,5.85,5.85,0,0,1,2.34-2.18,6.85,6.85,0,0,1,3.21-.77,5.5,5.5,0,0,1,2.95.75,5.24,5.24,0,0,1,1.82,1.77l-.18.43.27-2.47h2.58v11.74h-2.79v-3.06l.33.68a3.49,3.49,0,0,1-.57.72,7.32,7.32,0,0,1-1.07.9,6.08,6.08,0,0,1-1.51.75A6.35,6.35,0,0,1,135.57,116.81Zm.75-2.18a4.59,4.59,0,0,0,1.89-.37,3.54,3.54,0,0,0,1.39-1.05,3.83,3.83,0,0,0,.77-1.58v-2.3a3.56,3.56,0,0,0-.84-1.49,4.16,4.16,0,0,0-1.44-1,4.6,4.6,0,0,0-1.83-.36,4.23,4.23,0,0,0-2.07.51,4,4,0,0,0-1.49,1.42,4,4,0,0,0-.55,2.13,3.93,3.93,0,0,0,.57,2.07,4.22,4.22,0,0,0,3.6,2Z"/><path class="cls-2" d="M153.06,116.87l-6.9-12.08h3.33l4.65,9.33-1.71-.08,4.29-9.25h3.12l-6.63,12.08Z"/><path class="cls-2" d="M161.43,110.55a5.9,5.9,0,0,1,.88-3.18,6.28,6.28,0,0,1,2.46-2.24,7.63,7.63,0,0,1,3.59-.82,7.34,7.34,0,0,1,3.54.82,6,6,0,0,1,3.24,5.42,6,6,0,0,1-.86,3.17A6.17,6.17,0,0,1,171.9,116a7.3,7.3,0,0,1-3.57.83,7.93,7.93,0,0,1-3.56-.77,6.09,6.09,0,0,1-2.44-2.19A6,6,0,0,1,161.43,110.55Zm2.82,0a4,4,0,0,0,.54,2,4,4,0,0,0,1.44,1.46,3.89,3.89,0,0,0,2,.54,3.94,3.94,0,0,0,2.07-.54,3.9,3.9,0,0,0,1.42-1.46,4.14,4.14,0,0,0-1.42-5.58,3.87,3.87,0,0,0-2.07-.56,3.82,3.82,0,0,0-2.06.57,4.19,4.19,0,0,0-1.44,1.49A4,4,0,0,0,164.25,110.58Z"/><path class="cls-2" d="M181.38,104.79l.27,3.41-.12-.49a5.17,5.17,0,0,1,1.38-1.81,6.61,6.61,0,0,1,1.92-1.16,5.47,5.47,0,0,1,1.74-.43l-.12,2.67a4.29,4.29,0,0,0-2.51.49,4.76,4.76,0,0,0-1.68,1.59,3.89,3.89,0,0,0-.61,2.11v5.36h-2.79V104.79Z"/><path class="cls-2" d="M194.88,116.81a7,7,0,0,1-3.17-.7,5.48,5.48,0,0,1-2.26-2.09,6.21,6.21,0,0,1-.84-3.36,6.3,6.3,0,0,1,.87-3.4,5.78,5.78,0,0,1,2.34-2.18,6.82,6.82,0,0,1,3.21-.77,5.5,5.5,0,0,1,2.95.75,5.21,5.21,0,0,1,1.81,1.77l-.17.43.26-2.47h2.58v11.74h-2.78v-3.06l.33.68a3.87,3.87,0,0,1-.57.72,7.32,7.32,0,0,1-1.07.9,6.08,6.08,0,0,1-1.51.75A6.35,6.35,0,0,1,194.88,116.81Zm.75-2.18a4.59,4.59,0,0,0,1.89-.37,3.54,3.54,0,0,0,1.39-1.05,3.83,3.83,0,0,0,.77-1.58v-2.3a3.56,3.56,0,0,0-.84-1.49,4.16,4.16,0,0,0-1.44-1,4.6,4.6,0,0,0-1.83-.36,4.21,4.21,0,0,0-2.07.51,4,4,0,0,0-1.49,1.42,4,4,0,0,0-.55,2.13,3.84,3.84,0,0,0,.57,2.07,4.19,4.19,0,0,0,3.6,2Z"/><path class="cls-2" d="M226.88,115.43a6.61,6.61,0,0,1-2,1,8,8,0,0,1-2.34.36,7.93,7.93,0,0,1-3.56-.76,5.84,5.84,0,0,1-2.42-2.16,6,6,0,0,1-.86-3.26,5.56,5.56,0,0,1,.93-3.24,6.19,6.19,0,0,1,2.41-2.13,7,7,0,0,1,3.22-.75,8.81,8.81,0,0,1,2.66.38A6.38,6.38,0,0,1,227,106l-1.41,1.71a6.22,6.22,0,0,0-1.3-.7,4.56,4.56,0,0,0-1.76-.33,4,4,0,0,0-2,.53,3.85,3.85,0,0,0-1.44,1.42,3.9,3.9,0,0,0-.53,2,3.88,3.88,0,0,0,2,3.46,4.49,4.49,0,0,0,2.23.54,4.32,4.32,0,0,0,1.45-.23,4.39,4.39,0,0,0,1.22-.62Z"/><path class="cls-2" d="M229.38,110.55a5.9,5.9,0,0,1,.88-3.18,6.28,6.28,0,0,1,2.46-2.24,7.59,7.59,0,0,1,3.58-.82,7.34,7.34,0,0,1,3.54.82,6.15,6.15,0,0,1,2.39,2.24,6.06,6.06,0,0,1,.85,3.18,6,6,0,0,1-.85,3.17,6.2,6.2,0,0,1-2.39,2.26,7.3,7.3,0,0,1-3.57.83,7.89,7.89,0,0,1-3.55-.77,6.18,6.18,0,0,1-2.45-2.19A6,6,0,0,1,229.38,110.55Zm2.81,0a4.07,4.07,0,0,0,.54,2,4,4,0,0,0,1.44,1.46,3.89,3.89,0,0,0,2,.54,3.89,3.89,0,0,0,3.5-2,4.32,4.32,0,0,0,0-4.11,4.17,4.17,0,0,0-1.42-1.47,3.93,3.93,0,0,0-2.08-.56,3.79,3.79,0,0,0-2.05.57,4.19,4.19,0,0,0-1.44,1.49A4,4,0,0,0,232.19,110.58Z"/><path class="cls-2" d="M249.35,104.79l.24,2.64-.15-.23a5.27,5.27,0,0,1,2-2.11,5.53,5.53,0,0,1,3-.78,4.81,4.81,0,0,1,1.83.33,3.56,3.56,0,0,1,1.34.9,2.81,2.81,0,0,1,.67,1.41l-.15.11a5.2,5.2,0,0,1,2-2,5.36,5.36,0,0,1,2.68-.72,4.1,4.1,0,0,1,2.9,1,3.51,3.51,0,0,1,1.12,2.53v8.7h-2.82v-7.74a2.73,2.73,0,0,0-.46-1.52,1.8,1.8,0,0,0-1.52-.63,3.21,3.21,0,0,0-1.93.61,4,4,0,0,0-1.32,1.58,5.29,5.29,0,0,0-.5,2.14v5.56h-2.82v-7.74a2.6,2.6,0,0,0-.49-1.52,1.89,1.89,0,0,0-1.55-.63,3.16,3.16,0,0,0-1.92.61,4.16,4.16,0,0,0-1.32,1.6,4.87,4.87,0,0,0-.48,2.15v5.53H246.8V104.79Z"/><path class="cls-2" d="M277.34,116.81a7.85,7.85,0,0,1-3.66-.8,5.91,5.91,0,0,1-2.37-2.22,6.1,6.1,0,0,1-.84-3.21,5.56,5.56,0,0,1,.95-3.15,6.93,6.93,0,0,1,2.5-2.27,7.12,7.12,0,0,1,3.48-.85,6.11,6.11,0,0,1,4.08,1.36,7,7,0,0,1,2.22,3.74l-10.26,3.41-.66-1.56,8.37-2.92-.57.39a3.82,3.82,0,0,0-1.2-1.61,3.33,3.33,0,0,0-2.19-.68,4,4,0,0,0-2,.51,3.76,3.76,0,0,0-1.4,1.4,4.15,4.15,0,0,0-.51,2.09,4.25,4.25,0,0,0,.53,2.12,3.69,3.69,0,0,0,1.47,1.46,4.33,4.33,0,0,0,2.14.53,4.51,4.51,0,0,0,1.58-.29,7.3,7.3,0,0,0,1.45-.73l1.26,2a8.84,8.84,0,0,1-2.08,1A7.62,7.62,0,0,1,277.34,116.81Z"/><path class="cls-2" d="M306.74,115.43a6.55,6.55,0,0,1-2,1,8.3,8.3,0,0,1-5.89-.4,5.84,5.84,0,0,1-2.42-2.16,6,6,0,0,1-.87-3.26,5.64,5.64,0,0,1,.93-3.24,6.29,6.29,0,0,1,2.42-2.13,7,7,0,0,1,3.22-.75,8.81,8.81,0,0,1,2.66.38,6.38,6.38,0,0,1,2.05,1.09l-1.41,1.71a6.22,6.22,0,0,0-1.3-.7,4.56,4.56,0,0,0-1.76-.33,4,4,0,0,0-2,.53,3.85,3.85,0,0,0-1.44,1.42,4.08,4.08,0,0,0,0,4,4,4,0,0,0,1.5,1.44,4.45,4.45,0,0,0,2.22.54,4.34,4.34,0,0,0,1.46-.23,4.19,4.19,0,0,0,1.21-.62Z"/><path class="cls-2" d="M315.5,116.81a7,7,0,0,1-3.16-.7,5.51,5.51,0,0,1-2.27-2.09,6.3,6.3,0,0,1-.84-3.36,6.39,6.39,0,0,1,.87-3.4,5.85,5.85,0,0,1,2.34-2.18,6.85,6.85,0,0,1,3.21-.77,5.54,5.54,0,0,1,3,.75,5.21,5.21,0,0,1,1.81,1.77l-.18.43.27-2.47h2.58v11.74H320.3v-3.06l.33.68a3.49,3.49,0,0,1-.57.72,7.19,7.19,0,0,1-1.06.9,6.16,6.16,0,0,1-1.52.75A6.35,6.35,0,0,1,315.5,116.81Zm.75-2.18a4.59,4.59,0,0,0,1.89-.37,3.57,3.57,0,0,0,1.4-1.05,3.81,3.81,0,0,0,.76-1.58v-2.3a3.56,3.56,0,0,0-.84-1.49,4.16,4.16,0,0,0-1.44-1,4.6,4.6,0,0,0-1.83-.36,4.23,4.23,0,0,0-2.07.51,4,4,0,0,0-1.48,1.42,4,4,0,0,0-.56,2.13,3.93,3.93,0,0,0,.57,2.07,4.22,4.22,0,0,0,3.6,2Z"/><path class="cls-2" d="M330.47,104.79l.24,2.64-.15-.23a5.27,5.27,0,0,1,2-2.11,5.53,5.53,0,0,1,3-.78,4.81,4.81,0,0,1,1.83.33,3.56,3.56,0,0,1,1.34.9,2.81,2.81,0,0,1,.67,1.41l-.15.11a5.2,5.2,0,0,1,2-2,5.36,5.36,0,0,1,2.68-.72,4.1,4.1,0,0,1,2.9,1,3.51,3.51,0,0,1,1.12,2.53v8.7h-2.82v-7.74a2.73,2.73,0,0,0-.46-1.52,1.8,1.8,0,0,0-1.52-.63,3.21,3.21,0,0,0-1.93.61,4,4,0,0,0-1.32,1.58,5.29,5.29,0,0,0-.5,2.14v5.56H336.5v-7.74a2.6,2.6,0,0,0-.49-1.52,1.89,1.89,0,0,0-1.55-.63,3.16,3.16,0,0,0-1.92.61,4.16,4.16,0,0,0-1.32,1.6,4.87,4.87,0,0,0-.48,2.15v5.53h-2.82V104.79Z"/><path class="cls-2" d="M358.46,116.81a7.85,7.85,0,0,1-3.66-.8,5.91,5.91,0,0,1-2.37-2.22,6.1,6.1,0,0,1-.84-3.21,5.56,5.56,0,0,1,1-3.15,6.93,6.93,0,0,1,2.5-2.27,7.12,7.12,0,0,1,3.48-.85,6.11,6.11,0,0,1,4.08,1.36,7,7,0,0,1,2.22,3.74l-10.26,3.41-.66-1.56,8.37-2.92-.57.39a3.82,3.82,0,0,0-1.2-1.61,3.33,3.33,0,0,0-2.19-.68,4,4,0,0,0-2,.51,3.76,3.76,0,0,0-1.4,1.4,4.15,4.15,0,0,0-.51,2.09,4.25,4.25,0,0,0,.53,2.12,3.69,3.69,0,0,0,1.47,1.46,4.33,4.33,0,0,0,2.14.53,4.51,4.51,0,0,0,1.58-.29,7.3,7.3,0,0,0,1.45-.73l1.26,2a8.84,8.84,0,0,1-2.08,1A7.62,7.62,0,0,1,358.46,116.81Z"/><path class="cls-2" d="M370.79,104.79l.27,3.41-.12-.49a5.17,5.17,0,0,1,1.38-1.81,6.61,6.61,0,0,1,1.92-1.16,5.47,5.47,0,0,1,1.74-.43l-.12,2.67a4.26,4.26,0,0,0-2.5.49,4.76,4.76,0,0,0-1.68,1.59,3.9,3.9,0,0,0-.62,2.11v5.36h-2.79V104.79Z"/><path class="cls-2" d="M379.37,100.54a1.28,1.28,0,0,1,.53-1.05,1.79,1.79,0,0,1,1.15-.42,1.75,1.75,0,0,1,1.14.42,1.32,1.32,0,0,1,.51,1.05,1.3,1.3,0,0,1-.51,1.06,1.74,1.74,0,0,1-1.14.41,1.78,1.78,0,0,1-1.15-.41A1.26,1.26,0,0,1,379.37,100.54Zm.18,4.25h2.82v11.74h-2.82Z"/><path class="cls-2" d="M393,116.81a7.85,7.85,0,0,1-3.66-.8,5.91,5.91,0,0,1-2.37-2.22,6.1,6.1,0,0,1-.84-3.21,5.63,5.63,0,0,1,.94-3.15,7,7,0,0,1,2.51-2.27,7.12,7.12,0,0,1,3.48-.85,6.11,6.11,0,0,1,4.08,1.36,7,7,0,0,1,2.22,3.74l-10.26,3.41-.66-1.56,8.37-2.92-.57.39a3.82,3.82,0,0,0-1.2-1.61,3.33,3.33,0,0,0-2.19-.68,4,4,0,0,0-2,.51,3.74,3.74,0,0,0-1.39,1.4,4.15,4.15,0,0,0-.51,2.09,4.25,4.25,0,0,0,.53,2.12,3.69,3.69,0,0,0,1.47,1.46,4.33,4.33,0,0,0,2.14.53,4.51,4.51,0,0,0,1.58-.29,7.58,7.58,0,0,0,1.45-.73l1.26,2a8.84,8.84,0,0,1-2.08,1A7.67,7.67,0,0,1,393,116.81Z"/><path class="cls-2" d="M405.32,104.79l.27,3.41-.12-.49a5.17,5.17,0,0,1,1.38-1.81,6.61,6.61,0,0,1,1.92-1.16,5.47,5.47,0,0,1,1.74-.43l-.12,2.67a4.29,4.29,0,0,0-2.51.49,4.73,4.73,0,0,0-1.67,1.59,3.82,3.82,0,0,0-.62,2.11v5.36H402.8V104.79Z"/><path class="cls-2" d="M419.33,116.81a7.85,7.85,0,0,1-3.66-.8,5.91,5.91,0,0,1-2.37-2.22,6.1,6.1,0,0,1-.84-3.21,5.63,5.63,0,0,1,.94-3.15,7,7,0,0,1,2.51-2.27,7.12,7.12,0,0,1,3.48-.85,6.11,6.11,0,0,1,4.08,1.36,7,7,0,0,1,2.22,3.74l-10.26,3.41-.66-1.56,8.37-2.92-.57.39a3.82,3.82,0,0,0-1.2-1.61,3.33,3.33,0,0,0-2.19-.68,4,4,0,0,0-2,.51,3.74,3.74,0,0,0-1.39,1.4,4.15,4.15,0,0,0-.51,2.09,4.25,4.25,0,0,0,.53,2.12,3.69,3.69,0,0,0,1.47,1.46,4.33,4.33,0,0,0,2.14.53,4.41,4.41,0,0,0,1.57-.29,7.38,7.38,0,0,0,1.46-.73l1.26,2a8.84,8.84,0,0,1-2.08,1A7.67,7.67,0,0,1,419.33,116.81Z"/><path class="cls-2" d="M444.41,116.81a7.85,7.85,0,0,1-3.66-.8,5.91,5.91,0,0,1-2.37-2.22,6.1,6.1,0,0,1-.84-3.21,5.55,5.55,0,0,1,.94-3.15,7,7,0,0,1,2.51-2.27,7.12,7.12,0,0,1,3.48-.85,6.11,6.11,0,0,1,4.08,1.36,7,7,0,0,1,2.22,3.74l-10.26,3.41-.66-1.56,8.37-2.92-.57.39a3.82,3.82,0,0,0-1.2-1.61,3.33,3.33,0,0,0-2.19-.68,4,4,0,0,0-2,.51,3.74,3.74,0,0,0-1.39,1.4,4.15,4.15,0,0,0-.51,2.09,4.24,4.24,0,0,0,.52,2.12,3.69,3.69,0,0,0,1.47,1.46,4.53,4.53,0,0,0,3.72.24,7.38,7.38,0,0,0,1.46-.73l1.26,2a8.92,8.92,0,0,1-2.09,1A7.56,7.56,0,0,1,444.41,116.81Z"/><path class="cls-2" d="M463.7,94.59h2.82v21.94H463.7Z"/><path class="cls-2" d="M476.54,116.81a7.06,7.06,0,0,1-3.17-.7,5.48,5.48,0,0,1-2.26-2.09,6.3,6.3,0,0,1-.84-3.36,6.39,6.39,0,0,1,.87-3.4,5.85,5.85,0,0,1,2.34-2.18,6.85,6.85,0,0,1,3.21-.77,5.5,5.5,0,0,1,2.95.75,5.24,5.24,0,0,1,1.82,1.77l-.18.43.27-2.47h2.58v11.74h-2.79v-3.06l.33.68a3.49,3.49,0,0,1-.57.72,7.32,7.32,0,0,1-1.07.9,6.08,6.08,0,0,1-1.51.75A6.35,6.35,0,0,1,476.54,116.81Zm.75-2.18a4.59,4.59,0,0,0,1.89-.37,3.54,3.54,0,0,0,1.39-1.05,3.83,3.83,0,0,0,.77-1.58v-2.3a3.56,3.56,0,0,0-.84-1.49,4.16,4.16,0,0,0-1.44-1,4.6,4.6,0,0,0-1.83-.36,4.23,4.23,0,0,0-2.07.51,4,4,0,0,0-1.49,1.42,4,4,0,0,0-.55,2.13,3.93,3.93,0,0,0,.57,2.07,4.22,4.22,0,0,0,3.6,2Z"/><path class="cls-2" d="M494,116.87l-6.9-12.08h3.33l4.65,9.33L493.4,114l4.29-9.25h3.12l-6.63,12.08Z"/><path class="cls-2" d="M508.64,116.81a7.06,7.06,0,0,1-3.17-.7,5.48,5.48,0,0,1-2.26-2.09,6.3,6.3,0,0,1-.84-3.36,6.39,6.39,0,0,1,.87-3.4,5.85,5.85,0,0,1,2.34-2.18,6.85,6.85,0,0,1,3.21-.77,5.5,5.5,0,0,1,2.95.75,5.24,5.24,0,0,1,1.82,1.77l-.18.43.27-2.47h2.58v11.74h-2.79v-3.06l.33.68a3.49,3.49,0,0,1-.57.72,7.32,7.32,0,0,1-1.07.9,6.08,6.08,0,0,1-1.51.75A6.35,6.35,0,0,1,508.64,116.81Zm.75-2.18a4.59,4.59,0,0,0,1.89-.37,3.54,3.54,0,0,0,1.39-1.05,3.83,3.83,0,0,0,.77-1.58v-2.3a3.56,3.56,0,0,0-.84-1.49,4.16,4.16,0,0,0-1.44-1,4.6,4.6,0,0,0-1.83-.36,4.23,4.23,0,0,0-2.07.51,4,4,0,0,0-1.49,1.42,4,4,0,0,0-.55,2.13,3.93,3.93,0,0,0,.57,2.07,4.22,4.22,0,0,0,3.6,2Z"/><path class="cls-2" d="M528.41,116.81a6.15,6.15,0,0,1-2.72-.62,4.72,4.72,0,0,1-2-1.67l.15-.82v8.47h-2.79V104.62h2.43l.39,3-.3-.85a7,7,0,0,1,2.28-1.77,6.69,6.69,0,0,1,3.09-.7,6.29,6.29,0,0,1,3.13.78,5.72,5.72,0,0,1,2.21,2.21,6.68,6.68,0,0,1,.81,3.33,6.2,6.2,0,0,1-.87,3.28,5.85,5.85,0,0,1-2.39,2.15A7.62,7.62,0,0,1,528.41,116.81Zm-.54-2.09a4.6,4.6,0,0,0,2.19-.53,4.43,4.43,0,0,0,1.6-1.44,3.69,3.69,0,0,0,.62-2.09,3.92,3.92,0,0,0-.57-2.11,4.15,4.15,0,0,0-1.52-1.45,4.26,4.26,0,0,0-2.11-.52,4.88,4.88,0,0,0-2,.38,3.81,3.81,0,0,0-1.44,1.07,3.89,3.89,0,0,0-.81,1.61v2a3.37,3.37,0,0,0,.72,1.56,4,4,0,0,0,1.42,1.12A4.28,4.28,0,0,0,527.87,114.72Z"/><path class="cls-2" d="M538.67,100.54a1.3,1.3,0,0,1,.52-1.05,1.82,1.82,0,0,1,1.16-.42,1.77,1.77,0,0,1,1.14.42,1.32,1.32,0,0,1,.51,1.05,1.3,1.3,0,0,1-.51,1.06,1.76,1.76,0,0,1-1.14.41,1.81,1.81,0,0,1-1.16-.41A1.28,1.28,0,0,1,538.67,100.54Zm.18,4.25h2.82v11.74h-2.82Z"/><path class="cls-2" d="M551.69,116.81a7.06,7.06,0,0,1-3.17-.7,5.42,5.42,0,0,1-2.26-2.09,6.3,6.3,0,0,1-.84-3.36,6.39,6.39,0,0,1,.87-3.4,5.78,5.78,0,0,1,2.34-2.18,6.85,6.85,0,0,1,3.21-.77,5.53,5.53,0,0,1,2.95.75,5.24,5.24,0,0,1,1.82,1.77l-.18.43.27-2.47h2.58v11.74h-2.8v-3.06l.33.68a3.37,3.37,0,0,1-.56.72,7.89,7.89,0,0,1-1.07.9,6.26,6.26,0,0,1-1.51.75A6.39,6.39,0,0,1,551.69,116.81Zm.75-2.18a4.62,4.62,0,0,0,1.89-.37,3.61,3.61,0,0,0,1.39-1.05,3.69,3.69,0,0,0,.76-1.58v-2.3a3.56,3.56,0,0,0-.84-1.49,4.12,4.12,0,0,0-1.43-1,4.63,4.63,0,0,0-1.83-.36,4.3,4.3,0,0,0-2.08.51,3.89,3.89,0,0,0-2,3.55,3.93,3.93,0,0,0,.57,2.07,4,4,0,0,0,1.53,1.47A4.15,4.15,0,0,0,552.44,114.63Z"/><path class="cls-2" d="M565.3,99.63h2.85v5.22h3.39v2.07h-3.39v9.61H565.3v-9.61h-2.25v-2.07h2.25Z"/><path class="cls-2" d="M576.1,99.63H579v5.22h3.38v2.07H579v9.61H576.1v-9.61h-2.25v-2.07h2.25Z"/><path class="cls-2" d="M585.52,100.54a1.31,1.31,0,0,1,.53-1.05,1.82,1.82,0,0,1,1.16-.42,1.72,1.72,0,0,1,1.13.42,1.32,1.32,0,0,1,.51,1.05,1.3,1.3,0,0,1-.51,1.06,1.71,1.71,0,0,1-1.13.41,1.81,1.81,0,0,1-1.16-.41A1.29,1.29,0,0,1,585.52,100.54Zm.19,4.25h2.81v11.74h-2.81Z"/><path class="cls-2" d="M610.18,116.81a6.14,6.14,0,0,1-2.71-.62,4.75,4.75,0,0,1-2-1.67l.15-.82v8.47h-2.79V104.62h2.43l.39,3-.3-.85a7,7,0,0,1,2.28-1.77,6.69,6.69,0,0,1,3.09-.7,6.33,6.33,0,0,1,3.14.78,5.7,5.7,0,0,1,2.2,2.21,6.68,6.68,0,0,1,.81,3.33,6.11,6.11,0,0,1-.87,3.28,5.76,5.76,0,0,1-2.38,2.15A7.66,7.66,0,0,1,610.18,116.81Zm-.54-2.09a4.6,4.6,0,0,0,2.19-.53,4.38,4.38,0,0,0,1.61-1.44,3.69,3.69,0,0,0,.61-2.09,3.92,3.92,0,0,0-.57-2.11A4.12,4.12,0,0,0,612,107.1a4.3,4.3,0,0,0-2.12-.52,4.88,4.88,0,0,0-2,.38,3.89,3.89,0,0,0-1.44,1.07,4,4,0,0,0-.81,1.61v2a3.47,3.47,0,0,0,.72,1.56,4.17,4.17,0,0,0,1.43,1.12A4.24,4.24,0,0,0,609.64,114.72Z"/><path class="cls-2" d="M626.41,116.81a7.85,7.85,0,0,1-3.66-.8,5.91,5.91,0,0,1-2.37-2.22,6.1,6.1,0,0,1-.84-3.21,5.56,5.56,0,0,1,1-3.15,6.93,6.93,0,0,1,2.5-2.27,7.12,7.12,0,0,1,3.48-.85,6.11,6.11,0,0,1,4.08,1.36,7,7,0,0,1,2.22,3.74l-10.26,3.41-.66-1.56,8.37-2.92-.57.39a3.82,3.82,0,0,0-1.2-1.61,3.33,3.33,0,0,0-2.19-.68,4,4,0,0,0-2,.51,3.76,3.76,0,0,0-1.4,1.4,4.15,4.15,0,0,0-.51,2.09,4.25,4.25,0,0,0,.53,2.12,3.69,3.69,0,0,0,1.47,1.46,4.33,4.33,0,0,0,2.14.53,4.51,4.51,0,0,0,1.58-.29,7.3,7.3,0,0,0,1.45-.73l1.26,2a8.84,8.84,0,0,1-2.08,1A7.62,7.62,0,0,1,626.41,116.81Z"/><path class="cls-2" d="M638.74,104.79l.27,3.41-.12-.49a5.17,5.17,0,0,1,1.38-1.81,6.61,6.61,0,0,1,1.92-1.16,5.47,5.47,0,0,1,1.74-.43l-.12,2.67a4.26,4.26,0,0,0-2.5.49,4.76,4.76,0,0,0-1.68,1.59,3.9,3.9,0,0,0-.62,2.11v5.36h-2.79V104.79Z"/><path class="cls-2" d="M31.92,138.82l.27,3.4-.12-.48a5.21,5.21,0,0,1,1.38-1.82,6.84,6.84,0,0,1,1.92-1.16,5.76,5.76,0,0,1,1.74-.43L37,141a4.18,4.18,0,0,0-2.5.5,4.68,4.68,0,0,0-1.69,1.58,3.93,3.93,0,0,0-.61,2.12v5.35H29.4V138.82Z"/><path class="cls-2" d="M40.5,134.56a1.3,1.3,0,0,1,.53-1.05,1.79,1.79,0,0,1,1.15-.42,1.75,1.75,0,0,1,1.14.42,1.33,1.33,0,0,1,.51,1.05,1.32,1.32,0,0,1-.51,1.07,1.79,1.79,0,0,1-1.14.41,1.84,1.84,0,0,1-1.15-.41A1.28,1.28,0,0,1,40.5,134.56Zm.18,4.26H43.5v11.73H40.68Z"/><path class="cls-2" d="M51.84,150.78a7.76,7.76,0,0,1-2.57-.44A4.92,4.92,0,0,1,47.22,149l1.17-1.53A6.3,6.3,0,0,0,50,148.56a4.11,4.11,0,0,0,1.62.35,4.32,4.32,0,0,0,1.11-.14,1.81,1.81,0,0,0,.82-.48,1.25,1.25,0,0,0,.32-.88,1.23,1.23,0,0,0-.44-1,3.62,3.62,0,0,0-1.09-.58c-.44-.15-.92-.29-1.44-.43a5.36,5.36,0,0,1-2.34-1.33,2.88,2.88,0,0,1-.81-2.07,3.27,3.27,0,0,1,.49-1.74,3.74,3.74,0,0,1,1.49-1.33,5.06,5.06,0,0,1,2.4-.53,8.19,8.19,0,0,1,2.31.3,5.55,5.55,0,0,1,1.92,1l-1.11,1.64a3.49,3.49,0,0,0-1.28-.81,3.89,3.89,0,0,0-1.33-.27,3.29,3.29,0,0,0-1,.16,1.75,1.75,0,0,0-.75.45,1,1,0,0,0-.28.75,1.07,1.07,0,0,0,.4.95,3.46,3.46,0,0,0,1.1.58c.44.16.89.31,1.35.46a7,7,0,0,1,1.62.68,3.53,3.53,0,0,1,1.15,1.05,2.64,2.64,0,0,1,.44,1.56,3.77,3.77,0,0,1-.53,1.94,3.63,3.63,0,0,1-1.59,1.42A6.12,6.12,0,0,1,51.84,150.78Z"/><path class="cls-2" d="M67.89,150.84a6.19,6.19,0,0,1-2.72-.63,4.72,4.72,0,0,1-2-1.67l.15-.82v8.48H60.54V138.65H63l.39,3-.3-.85A7,7,0,0,1,65.34,139a6.82,6.82,0,0,1,3.09-.7,6.2,6.2,0,0,1,3.13.79,5.59,5.59,0,0,1,2.21,2.21,6.62,6.62,0,0,1,.81,3.33,6.05,6.05,0,0,1-.87,3.27,5.74,5.74,0,0,1-2.39,2.16A7.62,7.62,0,0,1,67.89,150.84Zm-.54-2.1a4.6,4.6,0,0,0,2.19-.52,4.38,4.38,0,0,0,1.6-1.45,3.66,3.66,0,0,0,.62-2.08,4,4,0,0,0-.57-2.12,4.12,4.12,0,0,0-1.52-1.44,4.26,4.26,0,0,0-2.11-.53,4.72,4.72,0,0,0-2,.39,3.86,3.86,0,0,0-1.44,1.06,4,4,0,0,0-.81,1.62v2a3.38,3.38,0,0,0,.72,1.56,4,4,0,0,0,1.42,1.12A4.28,4.28,0,0,0,67.35,148.74Z"/><path class="cls-2" d="M83.52,150.84a7.06,7.06,0,0,1-3.17-.71,5.46,5.46,0,0,1-2.26-2.08,7.13,7.13,0,0,1,0-6.77,5.92,5.92,0,0,1,2.34-2.18,6.85,6.85,0,0,1,3.21-.77,5.57,5.57,0,0,1,3,.76,5.3,5.3,0,0,1,1.81,1.77l-.18.42.27-2.46h2.58v11.73H88.32v-3.06l.33.68a3.77,3.77,0,0,1-.57.73,7.3,7.3,0,0,1-1.07.89,6,6,0,0,1-3.49,1.05Zm.75-2.18a4.75,4.75,0,0,0,1.89-.37,3.74,3.74,0,0,0,1.39-1,3.87,3.87,0,0,0,.77-1.59v-2.3a3.53,3.53,0,0,0-.84-1.48,4.19,4.19,0,0,0-1.44-1,4.77,4.77,0,0,0-1.83-.35,4.23,4.23,0,0,0-2.07.51,3.91,3.91,0,0,0-1.49,1.42,4,4,0,0,0-.55,2.12,3.88,3.88,0,0,0,.57,2.07,4.1,4.1,0,0,0,1.53,1.48A4.15,4.15,0,0,0,84.27,148.66Z"/><path class="cls-2" d="M98.46,138.82l.27,3.4-.12-.48a5.21,5.21,0,0,1,1.38-1.82,6.84,6.84,0,0,1,1.92-1.16,5.76,5.76,0,0,1,1.74-.43l-.12,2.67a4.22,4.22,0,0,0-2.51.5,4.65,4.65,0,0,0-1.68,1.58,3.93,3.93,0,0,0-.61,2.12v5.35H95.94V138.82Z"/><path class="cls-2" d="M109.77,138.82l.24,2.63-.15-.22a5.18,5.18,0,0,1,2-2.11,5.48,5.48,0,0,1,3-.79,4.81,4.81,0,0,1,1.83.33,3.54,3.54,0,0,1,1.33.91,2.79,2.79,0,0,1,.68,1.4l-.15.11a5.15,5.15,0,0,1,2-2,5.41,5.41,0,0,1,2.69-.73,4.08,4.08,0,0,1,2.89,1,3.49,3.49,0,0,1,1.13,2.52v8.7h-2.82v-7.74a2.71,2.71,0,0,0-.47-1.51,1.78,1.78,0,0,0-1.51-.64,3.24,3.24,0,0,0-1.94.61,4.09,4.09,0,0,0-1.32,1.59,5.21,5.21,0,0,0-.49,2.14v5.55H115.8v-7.74a2.58,2.58,0,0,0-.5-1.51,1.87,1.87,0,0,0-1.54-.64,3.16,3.16,0,0,0-1.92.61,4.23,4.23,0,0,0-1.32,1.6A4.88,4.88,0,0,0,110,145v5.52h-2.82V138.82Z"/><path class="cls-2" d="M131.79,134.56a1.32,1.32,0,0,1,.52-1.05,1.82,1.82,0,0,1,1.16-.42,1.75,1.75,0,0,1,1.14.42,1.33,1.33,0,0,1,.51,1.05,1.32,1.32,0,0,1-.51,1.07,1.79,1.79,0,0,1-1.14.41,1.87,1.87,0,0,1-1.16-.41A1.3,1.3,0,0,1,131.79,134.56Zm.18,4.26h2.82v11.73H132Z"/><path class="cls-2" d="M144.81,150.84a7.06,7.06,0,0,1-3.17-.71,5.46,5.46,0,0,1-2.26-2.08,7.13,7.13,0,0,1,0-6.77,5.92,5.92,0,0,1,2.34-2.18,6.85,6.85,0,0,1,3.21-.77,5.51,5.51,0,0,1,2.95.76,5.24,5.24,0,0,1,1.82,1.77l-.18.42.27-2.46h2.58v11.73h-2.79v-3.06l.33.68a3.77,3.77,0,0,1-.57.73,7.3,7.3,0,0,1-1.07.89,6,6,0,0,1-3.49,1.05Zm.75-2.18a4.75,4.75,0,0,0,1.89-.37,3.74,3.74,0,0,0,1.39-1,3.87,3.87,0,0,0,.77-1.59v-2.3a3.53,3.53,0,0,0-.84-1.48,4.19,4.19,0,0,0-1.44-1,4.77,4.77,0,0,0-1.83-.35,4.23,4.23,0,0,0-2.07.51,3.91,3.91,0,0,0-1.49,1.42,4,4,0,0,0-.55,2.12,3.88,3.88,0,0,0,.57,2.07,4.1,4.1,0,0,0,1.53,1.48A4.15,4.15,0,0,0,145.56,148.66Z"/><path class="cls-2" d="M159.75,138.82l.27,3.4-.12-.48a5.21,5.21,0,0,1,1.38-1.82,6.84,6.84,0,0,1,1.92-1.16,5.76,5.76,0,0,1,1.74-.43l-.12,2.67a4.22,4.22,0,0,0-2.51.5,4.65,4.65,0,0,0-1.68,1.58,3.93,3.93,0,0,0-.61,2.12v5.35h-2.79V138.82Z"/><path class="cls-2" d="M173.76,150.84a7.73,7.73,0,0,1-3.66-.81,6,6,0,0,1-2.37-2.21,6.16,6.16,0,0,1-.84-3.22,5.57,5.57,0,0,1,.94-3.15,6.85,6.85,0,0,1,2.51-2.26,7.12,7.12,0,0,1,3.48-.86,6.12,6.12,0,0,1,4.08,1.37,7,7,0,0,1,2.22,3.74l-10.26,3.4-.66-1.56,8.37-2.92-.57.4a3.85,3.85,0,0,0-1.2-1.62,3.39,3.39,0,0,0-2.19-.68,4,4,0,0,0-2,.51,3.69,3.69,0,0,0-1.39,1.41,4.11,4.11,0,0,0-.51,2.08,4.31,4.31,0,0,0,.52,2.13,3.75,3.75,0,0,0,1.47,1.46,4.36,4.36,0,0,0,2.15.52,4.44,4.44,0,0,0,1.57-.28,7.71,7.71,0,0,0,1.46-.74l1.26,2a9.32,9.32,0,0,1-2.09,1A7.57,7.57,0,0,1,173.76,150.84Z"/><path class="cls-2" d="M198.84,150.84a7.7,7.7,0,0,1-3.66-.81,6,6,0,0,1-2.38-2.21,6.16,6.16,0,0,1-.84-3.22,5.58,5.58,0,0,1,.95-3.15,7,7,0,0,1,2.5-2.26,7.18,7.18,0,0,1,3.48-.86A6.1,6.1,0,0,1,203,139.7a7,7,0,0,1,2.23,3.74l-10.26,3.4-.66-1.56,8.36-2.92-.57.4a3.74,3.74,0,0,0-1.19-1.62,3.41,3.41,0,0,0-2.19-.68,4,4,0,0,0-2,.51,3.69,3.69,0,0,0-1.39,1.41,4,4,0,0,0-.51,2.08,4.31,4.31,0,0,0,.52,2.13,3.75,3.75,0,0,0,1.47,1.46,4.35,4.35,0,0,0,2.14.52,4.46,4.46,0,0,0,1.58-.28,7.71,7.71,0,0,0,1.46-.74l1.26,2a9.53,9.53,0,0,1-2.09,1A7.63,7.63,0,0,1,198.84,150.84Z"/><path class="cls-2" d="M217.94,134.56a1.33,1.33,0,0,1,.53-1.05,1.82,1.82,0,0,1,1.16-.42,1.74,1.74,0,0,1,1.13.42,1.33,1.33,0,0,1,.51,1.05,1.32,1.32,0,0,1-.51,1.07,1.79,1.79,0,0,1-1.13.41,1.87,1.87,0,0,1-1.16-.41A1.31,1.31,0,0,1,217.94,134.56Zm.19,4.26h2.81v11.73h-2.81Z"/><path class="cls-2" d="M229.28,150.78a7.7,7.7,0,0,1-2.56-.44,5,5,0,0,1-2.06-1.32l1.17-1.53a6.3,6.3,0,0,0,1.62,1.07,4.11,4.11,0,0,0,1.62.35,4.32,4.32,0,0,0,1.11-.14,1.84,1.84,0,0,0,.83-.48,1.25,1.25,0,0,0,.31-.88,1.23,1.23,0,0,0-.43-1,3.68,3.68,0,0,0-1.1-.58c-.44-.15-.92-.29-1.44-.43a5.36,5.36,0,0,1-2.34-1.33,2.88,2.88,0,0,1-.81-2.07,3.28,3.28,0,0,1,.5-1.74,3.71,3.71,0,0,1,1.48-1.33,5.06,5.06,0,0,1,2.4-.53,8.19,8.19,0,0,1,2.31.3,5.55,5.55,0,0,1,1.92,1l-1.11,1.64a3.45,3.45,0,0,0-1.27-.81,3.94,3.94,0,0,0-1.34-.27,3.22,3.22,0,0,0-1,.16,1.75,1.75,0,0,0-.75.45,1.05,1.05,0,0,0-.29.75,1.08,1.08,0,0,0,.41.95,3.41,3.41,0,0,0,1.09.58c.44.16.89.31,1.35.46a7,7,0,0,1,1.62.68,3.57,3.57,0,0,1,1.16,1.05,2.64,2.64,0,0,1,.43,1.56,3.76,3.76,0,0,1-.52,1.94,3.63,3.63,0,0,1-1.59,1.42A6.16,6.16,0,0,1,229.28,150.78Z"/><path class="cls-2" d="M248.09,149.45a6.55,6.55,0,0,1-2,1,8.15,8.15,0,0,1-5.89-.4,5.88,5.88,0,0,1-2.42-2.15,6,6,0,0,1-.87-3.26,5.67,5.67,0,0,1,.93-3.25,6.27,6.27,0,0,1,2.42-2.12,6.91,6.91,0,0,1,3.22-.76,8.5,8.5,0,0,1,2.66.39,6.19,6.19,0,0,1,2.05,1.09l-1.41,1.7a6.22,6.22,0,0,0-1.3-.7,4.75,4.75,0,0,0-1.76-.32,4,4,0,0,0-2,.52,3.88,3.88,0,0,0-2,3.45,3.86,3.86,0,0,0,.54,2,4,4,0,0,0,1.5,1.45,4.45,4.45,0,0,0,2.22.54,4.61,4.61,0,0,0,1.46-.23,4.22,4.22,0,0,0,1.21-.63Z"/><path class="cls-2" d="M254.18,138.82l.27,3.4-.12-.48a5.21,5.21,0,0,1,1.38-1.82,6.84,6.84,0,0,1,1.92-1.16,5.76,5.76,0,0,1,1.74-.43l-.12,2.67a4.18,4.18,0,0,0-2.5.5,4.65,4.65,0,0,0-1.68,1.58,3.94,3.94,0,0,0-.62,2.12v5.35h-2.79V138.82Z"/><path class="cls-2" d="M262.76,134.56a1.33,1.33,0,0,1,.53-1.05,1.79,1.79,0,0,1,1.15-.42,1.75,1.75,0,0,1,1.14.42,1.33,1.33,0,0,1,.51,1.05,1.32,1.32,0,0,1-.51,1.07,1.79,1.79,0,0,1-1.14.41,1.84,1.84,0,0,1-1.15-.41A1.31,1.31,0,0,1,262.76,134.56Zm.18,4.26h2.82v11.73h-2.82Z"/><path class="cls-2" d="M275.66,150.9l-6.9-12.08h3.33l4.65,9.32-1.71-.08,4.29-9.24h3.12l-6.63,12.08Z"/><path class="cls-2" d="M290.9,150.84a7.73,7.73,0,0,1-3.66-.81,6,6,0,0,1-2.37-2.21,6.16,6.16,0,0,1-.84-3.22,5.58,5.58,0,0,1,1-3.15,6.9,6.9,0,0,1,2.5-2.26,7.12,7.12,0,0,1,3.48-.86A6.12,6.12,0,0,1,295,139.7a6.89,6.89,0,0,1,2.22,3.74L287,146.84l-.66-1.56,8.37-2.92-.57.4a3.85,3.85,0,0,0-1.2-1.62,3.39,3.39,0,0,0-2.19-.68,4,4,0,0,0-2,.51,3.72,3.72,0,0,0-1.4,1.41,4.11,4.11,0,0,0-.51,2.08,4.31,4.31,0,0,0,.53,2.13,3.75,3.75,0,0,0,1.47,1.46,4.32,4.32,0,0,0,2.14.52,4.5,4.5,0,0,0,1.58-.28,7.34,7.34,0,0,0,1.45-.74l1.26,2a9.24,9.24,0,0,1-2.08,1A7.64,7.64,0,0,1,290.9,150.84Z"/><path class="cls-2" d="M303.23,138.82l.27,3.4-.12-.48a5.21,5.21,0,0,1,1.38-1.82,6.84,6.84,0,0,1,1.92-1.16,5.76,5.76,0,0,1,1.74-.43L308.3,141a4.18,4.18,0,0,0-2.5.5,4.65,4.65,0,0,0-1.68,1.58,3.94,3.94,0,0,0-.62,2.12v5.35h-2.79V138.82Z"/><path class="cls-2" d="M315.5,150.78a7.7,7.7,0,0,1-2.56-.44,5,5,0,0,1-2.06-1.32l1.17-1.53a6.3,6.3,0,0,0,1.62,1.07,4.11,4.11,0,0,0,1.62.35,4.32,4.32,0,0,0,1.11-.14,1.76,1.76,0,0,0,.82-.48,1.21,1.21,0,0,0,.32-.88,1.26,1.26,0,0,0-.43-1,3.8,3.8,0,0,0-1.1-.58c-.44-.15-.92-.29-1.44-.43a5.36,5.36,0,0,1-2.34-1.33,2.88,2.88,0,0,1-.81-2.07,3.28,3.28,0,0,1,.5-1.74,3.71,3.71,0,0,1,1.48-1.33,5.06,5.06,0,0,1,2.4-.53,8.19,8.19,0,0,1,2.31.3,5.55,5.55,0,0,1,1.92,1l-1.11,1.64a3.49,3.49,0,0,0-1.28-.81,3.89,3.89,0,0,0-1.33-.27,3.34,3.34,0,0,0-1,.16,1.82,1.82,0,0,0-.75.45,1.09,1.09,0,0,0-.28.75,1.06,1.06,0,0,0,.41.95,3.3,3.3,0,0,0,1.09.58c.44.16.89.31,1.35.46a7,7,0,0,1,1.62.68,3.44,3.44,0,0,1,1.15,1.05,2.57,2.57,0,0,1,.44,1.56,3.77,3.77,0,0,1-.53,1.94,3.52,3.52,0,0,1-1.59,1.42A6.09,6.09,0,0,1,315.5,150.78Z"/><path class="cls-2" d="M324,134.56a1.34,1.34,0,0,1,.52-1.05,1.82,1.82,0,0,1,1.16-.42,1.75,1.75,0,0,1,1.14.42,1.33,1.33,0,0,1,.51,1.05,1.32,1.32,0,0,1-.51,1.07,1.79,1.79,0,0,1-1.14.41,1.87,1.87,0,0,1-1.16-.41A1.33,1.33,0,0,1,324,134.56Zm.18,4.26H327v11.73H324.2Z"/><path class="cls-2" d="M346.52,150.84a7.06,7.06,0,0,1-3.17-.71,5.46,5.46,0,0,1-2.26-2.08,7.13,7.13,0,0,1,0-6.77,5.92,5.92,0,0,1,2.34-2.18,6.85,6.85,0,0,1,3.21-.77,5.57,5.57,0,0,1,3,.76,5.3,5.3,0,0,1,1.81,1.77l-.18.42.27-2.46h2.58v11.73h-2.79v-3.06l.33.68a3.77,3.77,0,0,1-.57.73,7.3,7.3,0,0,1-1.07.89,6,6,0,0,1-3.49,1.05Zm.75-2.18a4.75,4.75,0,0,0,1.89-.37,3.74,3.74,0,0,0,1.39-1,3.87,3.87,0,0,0,.77-1.59v-2.3a3.53,3.53,0,0,0-.84-1.48,4.19,4.19,0,0,0-1.44-1,4.77,4.77,0,0,0-1.83-.35,4.23,4.23,0,0,0-2.07.51,3.91,3.91,0,0,0-1.49,1.42,4,4,0,0,0-.55,2.12,3.88,3.88,0,0,0,.57,2.07,4.1,4.1,0,0,0,1.53,1.48A4.15,4.15,0,0,0,347.27,148.66Z"/><path class="cls-2" d="M358.94,128.61h2.82v21.94h-2.82Z"/><path class="cls-2" d="M366.59,128.61h2.82v21.94h-2.82Z"/><path class="cls-2" d="M375.68,129.89l-.06,3.55c0,1.19,0,2.38-.06,3.59h-2.43v-7.14Z"/><path class="cls-2" d="M383.15,151a4.12,4.12,0,0,1-2.84-1,3.43,3.43,0,0,1-1.15-2.54v-8.67H382v7.74a2.48,2.48,0,0,0,.6,1.54,2.2,2.2,0,0,0,1.68.64,3.1,3.1,0,0,0,1.84-.58,4.29,4.29,0,0,0,1.34-1.59,5,5,0,0,0,.51-2.28v-5.47h2.79v11.73h-2.55l-.24-2.89.18.54a4.57,4.57,0,0,1-1.11,1.43,5.37,5.37,0,0,1-1.73,1A6.06,6.06,0,0,1,383.15,151Z"/><path class="cls-2" d="M398.09,138.82l.21,2.86-.09-.45a4.45,4.45,0,0,1,1.92-2.09,6.18,6.18,0,0,1,3.15-.78,4.21,4.21,0,0,1,2.86,1,3.3,3.3,0,0,1,1.16,2.54v8.67h-2.82v-7.76a2.33,2.33,0,0,0-.59-1.55,2.2,2.2,0,0,0-1.72-.61,3.52,3.52,0,0,0-1.94.57,3.87,3.87,0,0,0-1.38,1.56,5.08,5.08,0,0,0-.49,2.29v5.5h-2.82V138.82Z"/><path class="cls-2" d="M412,134.56a1.32,1.32,0,0,1,.52-1.05,1.82,1.82,0,0,1,1.16-.42,1.75,1.75,0,0,1,1.14.42,1.33,1.33,0,0,1,.51,1.05,1.32,1.32,0,0,1-.51,1.07,1.79,1.79,0,0,1-1.14.41,1.87,1.87,0,0,1-1.16-.41A1.3,1.3,0,0,1,412,134.56Zm.18,4.26H415v11.73h-2.82Z"/><path class="cls-2" d="M424.85,150.9,418,138.82h3.33l4.65,9.32-1.71-.08,4.29-9.24h3.12L425,150.9Z"/><path class="cls-2" d="M440.09,150.84a7.73,7.73,0,0,1-3.66-.81,6,6,0,0,1-2.37-2.21,6.16,6.16,0,0,1-.84-3.22,5.57,5.57,0,0,1,.94-3.15,6.93,6.93,0,0,1,2.51-2.26,7.12,7.12,0,0,1,3.48-.86,6.12,6.12,0,0,1,4.08,1.37,7,7,0,0,1,2.22,3.74l-10.26,3.4-.66-1.56,8.37-2.92-.57.4a3.85,3.85,0,0,0-1.2-1.62,3.39,3.39,0,0,0-2.19-.68,4,4,0,0,0-2,.51,3.69,3.69,0,0,0-1.39,1.41,4.11,4.11,0,0,0-.51,2.08,4.31,4.31,0,0,0,.52,2.13,3.75,3.75,0,0,0,1.47,1.46,4.36,4.36,0,0,0,2.15.52,4.44,4.44,0,0,0,1.57-.28,7.71,7.71,0,0,0,1.46-.74l1.26,2a9.32,9.32,0,0,1-2.09,1A7.57,7.57,0,0,1,440.09,150.84Z"/><path class="cls-2" d="M452.42,138.82l.27,3.4-.12-.48a5.09,5.09,0,0,1,1.38-1.82,6.7,6.7,0,0,1,1.92-1.16,5.69,5.69,0,0,1,1.74-.43l-.12,2.67a4.22,4.22,0,0,0-2.51.5,4.65,4.65,0,0,0-1.68,1.58,3.93,3.93,0,0,0-.61,2.12v5.35H449.9V138.82Z"/><path class="cls-2" d="M464.69,150.78a7.71,7.71,0,0,1-2.57-.44,5,5,0,0,1-2.06-1.32l1.17-1.53a6.34,6.34,0,0,0,1.63,1.07,4.07,4.07,0,0,0,1.61.35,4.27,4.27,0,0,0,1.11-.14,1.84,1.84,0,0,0,.83-.48,1.25,1.25,0,0,0,.31-.88,1.23,1.23,0,0,0-.43-1,3.74,3.74,0,0,0-1.09-.58c-.45-.15-.92-.29-1.44-.43a5.4,5.4,0,0,1-2.35-1.33,2.92,2.92,0,0,1-.8-2.07,3.27,3.27,0,0,1,.49-1.74,3.78,3.78,0,0,1,1.48-1.33,5.06,5.06,0,0,1,2.4-.53,8.14,8.14,0,0,1,2.31.3,5.47,5.47,0,0,1,1.92,1l-1.1,1.64a3.58,3.58,0,0,0-1.28-.81,3.94,3.94,0,0,0-1.34-.27,3.22,3.22,0,0,0-1,.16,1.75,1.75,0,0,0-.75.45,1,1,0,0,0-.28.75,1.07,1.07,0,0,0,.4.95,3.46,3.46,0,0,0,1.1.58c.43.16.88.31,1.34.46a7.06,7.06,0,0,1,1.63.68,3.64,3.64,0,0,1,1.15,1.05,2.64,2.64,0,0,1,.44,1.56,3.77,3.77,0,0,1-.53,1.94,3.63,3.63,0,0,1-1.59,1.42A6.12,6.12,0,0,1,464.69,150.78Z"/><path class="cls-2" d="M473.21,134.56a1.32,1.32,0,0,1,.52-1.05,1.78,1.78,0,0,1,2.3,0,1.33,1.33,0,0,1,.51,1.05,1.32,1.32,0,0,1-.51,1.07,1.82,1.82,0,0,1-2.3,0A1.3,1.3,0,0,1,473.21,134.56Zm.17,4.26h2.83v11.73h-2.83Z"/><path class="cls-2" d="M482.23,133.66h2.85v5.21h3.39v2.07h-3.39v9.61h-2.85v-9.61H480v-2.07h2.25Z"/><path class="cls-2" d="M497,150.84a7,7,0,0,1-3.16-.71,5.49,5.49,0,0,1-2.27-2.08,7.09,7.09,0,0,1,0-6.77A5.82,5.82,0,0,1,494,139.1a6.85,6.85,0,0,1,3.21-.77,5.54,5.54,0,0,1,3,.76,5.21,5.21,0,0,1,1.81,1.77l-.18.42.27-2.46h2.58v11.73h-2.79v-3.06l.33.68a3.77,3.77,0,0,1-.57.73,7.18,7.18,0,0,1-1.06.89,6.16,6.16,0,0,1-1.52.75A6.06,6.06,0,0,1,497,150.84Zm.75-2.18a4.75,4.75,0,0,0,1.89-.37,3.78,3.78,0,0,0,1.4-1,3.85,3.85,0,0,0,.76-1.59v-2.3a3.53,3.53,0,0,0-.84-1.48,4.19,4.19,0,0,0-1.44-1,4.74,4.74,0,0,0-1.83-.35,4.23,4.23,0,0,0-2.07.51,3.88,3.88,0,0,0-1.48,1.42,4,4,0,0,0-.56,2.12,3.88,3.88,0,0,0,.57,2.07,4.1,4.1,0,0,0,1.53,1.48A4.15,4.15,0,0,0,497.77,148.66Zm-3.51-16h3.09l2.19,3.8h-1.77Z"/><path class="cls-2" d="M508.56,148a1.58,1.58,0,0,1,1.09-.45,1.54,1.54,0,0,1,1,.45,1.43,1.43,0,0,1,.49,1.08,1.33,1.33,0,0,1-.49,1.09,1.58,1.58,0,0,1-1,.41,1.63,1.63,0,0,1-1.09-.41,1.33,1.33,0,0,1-.5-1.09A1.45,1.45,0,0,1,508.56,148Z"/></g></g></svg>