<svg xmlns="http://www.w3.org/2000/svg" viewBox="0 0 672 180"><defs><style>.cls-1{fill:#fff;}.cls-2{fill:#846b4a;}</style></defs><title>ahmed testo 8</title><g id="Livello_2" data-name="Livello 2"><g id="illustrazioni"><rect class="cls-1" width="672" height="180" rx="21.32"/></g><g id="testi"><path class="cls-2" d="M39.9,49.14,23.13,33.06l.84.2L24,48.48H21.12V27.36h.15L37.83,43.49l-.66-.14L37.11,28H40V49.14Z"/><path class="cls-2" d="M44.46,42.5a5.85,5.85,0,0,1,.89-3.17,6.17,6.17,0,0,1,2.45-2.24,7.66,7.66,0,0,1,3.59-.83,7.35,7.35,0,0,1,3.54.83,5.91,5.91,0,0,1,2.38,2.24,6,6,0,0,1,.86,3.17,6.07,6.07,0,0,1-.86,3.18,6.15,6.15,0,0,1-2.38,2.25,7.3,7.3,0,0,1-3.57.84A7.83,7.83,0,0,1,47.8,48a6.15,6.15,0,0,1-2.44-2.19A6,6,0,0,1,44.46,42.5Zm2.82,0a4,4,0,0,0,2,3.51,3.89,3.89,0,0,0,2,.54A3.94,3.94,0,0,0,53.37,46a3.76,3.76,0,0,0,1.42-1.46,4,4,0,0,0,.53-2,4.1,4.1,0,0,0-.53-2.06A4,4,0,0,0,53.37,39a4.1,4.1,0,0,0-4.12,0,4.05,4.05,0,0,0-2,3.52Z"/><path class="cls-2" d="M64.44,36.75l.21,2.86-.09-.45a4.45,4.45,0,0,1,1.92-2.09,6.18,6.18,0,0,1,3.15-.78,4.21,4.21,0,0,1,2.86,1,3.3,3.3,0,0,1,1.16,2.54v8.67H70.83V40.71a2.28,2.28,0,0,0-.59-1.54,2.18,2.18,0,0,0-1.72-.61,3.52,3.52,0,0,0-1.94.57,3.79,3.79,0,0,0-1.37,1.56,5,5,0,0,0-.5,2.29v5.5H61.89V36.75Z"/><path class="cls-2" d="M77.4,42.5a5.85,5.85,0,0,1,.89-3.17,6.17,6.17,0,0,1,2.45-2.24,7.63,7.63,0,0,1,3.59-.83,7.35,7.35,0,0,1,3.54.83,5.91,5.91,0,0,1,2.38,2.24,6,6,0,0,1,.86,3.17,6.07,6.07,0,0,1-.86,3.18,6.15,6.15,0,0,1-2.38,2.25,7.3,7.3,0,0,1-3.57.84A7.83,7.83,0,0,1,80.74,48,6.09,6.09,0,0,1,78.3,45.8,6,6,0,0,1,77.4,42.5Zm2.82,0a4,4,0,0,0,2,3.51,3.89,3.89,0,0,0,2,.54A3.94,3.94,0,0,0,86.31,46a3.83,3.83,0,0,0,1.42-1.46,4,4,0,0,0,.53-2,4.08,4.08,0,0,0-2-3.53,4.1,4.1,0,0,0-4.12,0,4.14,4.14,0,0,0-1.45,1.49A4,4,0,0,0,80.22,42.53Z"/><path class="cls-2" d="M98.34,48.71a7.76,7.76,0,0,1-2.57-.44,4.92,4.92,0,0,1-2-1.32l1.17-1.53a6.24,6.24,0,0,0,1.62,1.06,4,4,0,0,0,1.62.36,4.32,4.32,0,0,0,1.11-.14,1.81,1.81,0,0,0,.82-.48,1.25,1.25,0,0,0,.32-.88,1.23,1.23,0,0,0-.44-1,3.41,3.41,0,0,0-1.09-.58c-.44-.15-.92-.29-1.44-.43A5.36,5.36,0,0,1,95.07,42a2.9,2.9,0,0,1-.81-2.07,3.27,3.27,0,0,1,.49-1.74,3.76,3.76,0,0,1,1.49-1.34,5.07,5.07,0,0,1,2.4-.52,8.19,8.19,0,0,1,2.31.3,5.7,5.7,0,0,1,1.92,1l-1.11,1.65a3.49,3.49,0,0,0-1.28-.81,3.89,3.89,0,0,0-1.33-.27,3,3,0,0,0-1,.16,1.75,1.75,0,0,0-.75.45,1,1,0,0,0-.28.75,1.07,1.07,0,0,0,.4,1,3.46,3.46,0,0,0,1.1.58l1.35.46a6.57,6.57,0,0,1,1.62.68,3.53,3.53,0,0,1,1.15,1.05,2.64,2.64,0,0,1,.44,1.56,3.77,3.77,0,0,1-.53,1.94,3.69,3.69,0,0,1-1.59,1.42A6.12,6.12,0,0,1,98.34,48.71Z"/><path class="cls-2" d="M108.24,31.58h2.85V36.8h3.39v2.07h-3.39v9.61h-2.85V38.87H106V36.8h2.25Z"/><path class="cls-2" d="M123,48.77a7.06,7.06,0,0,1-3.17-.71A5.42,5.42,0,0,1,117.6,46a6.3,6.3,0,0,1-.84-3.36,6.39,6.39,0,0,1,.87-3.4A5.92,5.92,0,0,1,120,37a6.85,6.85,0,0,1,3.21-.77,5.5,5.5,0,0,1,2.95.75A5.36,5.36,0,0,1,128,38.79l-.18.42.27-2.46h2.58V48.48h-2.79V45.42l.33.68a3.49,3.49,0,0,1-.57.72,6.74,6.74,0,0,1-1.07.9A6,6,0,0,1,123,48.77Zm.75-2.19a4.75,4.75,0,0,0,1.89-.36,3.74,3.74,0,0,0,1.39-1,3.93,3.93,0,0,0,.77-1.59v-2.3a3.56,3.56,0,0,0-.84-1.49,4.3,4.3,0,0,0-1.44-1,4.59,4.59,0,0,0-1.83-.35,4.23,4.23,0,0,0-2.07.51,4,4,0,0,0-1.49,1.41,4,4,0,0,0-.55,2.13,3.88,3.88,0,0,0,.57,2.07A4.07,4.07,0,0,0,121.71,46,4.15,4.15,0,0,0,123.78,46.58Z"/><path class="cls-2" d="M138,36.75l.21,2.86-.09-.45A4.45,4.45,0,0,1,140,37.07a6.18,6.18,0,0,1,3.15-.78,4.21,4.21,0,0,1,2.86,1,3.3,3.3,0,0,1,1.16,2.54v8.67h-2.82V40.71a2.33,2.33,0,0,0-.59-1.54,2.2,2.2,0,0,0-1.72-.61,3.52,3.52,0,0,0-1.94.57,3.81,3.81,0,0,0-1.38,1.56,5,5,0,0,0-.49,2.29v5.5h-2.82V36.75Z"/><path class="cls-2" d="M153.24,31.58h2.85V36.8h3.39v2.07h-3.39v9.61h-2.85V38.87H151V36.8h2.25Z"/><path class="cls-2" d="M168.63,48.77A7.73,7.73,0,0,1,165,48a6,6,0,0,1-2.37-2.21,6.16,6.16,0,0,1-.84-3.22,5.57,5.57,0,0,1,.94-3.15,7.05,7.05,0,0,1,2.51-2.27,7.23,7.23,0,0,1,3.48-.85,6.16,6.16,0,0,1,4.08,1.36A7,7,0,0,1,175,41.37l-10.26,3.4-.66-1.56,8.37-2.92-.57.4a3.79,3.79,0,0,0-1.2-1.62,3.39,3.39,0,0,0-2.19-.68,4,4,0,0,0-2,.51,3.74,3.74,0,0,0-1.39,1.4,4.15,4.15,0,0,0-.51,2.09,4.24,4.24,0,0,0,.52,2.12A3.69,3.69,0,0,0,166.54,46a4.36,4.36,0,0,0,2.15.53,4.68,4.68,0,0,0,1.57-.28,7.42,7.42,0,0,0,1.46-.74l1.26,2a8.92,8.92,0,0,1-2.09,1A7.57,7.57,0,0,1,168.63,48.77Z"/><path class="cls-2" d="M187.92,26.54h2.82V48.48h-2.82Z"/><path class="cls-2" d="M200.76,48.77a7.06,7.06,0,0,1-3.17-.71A5.42,5.42,0,0,1,195.33,46a6.3,6.3,0,0,1-.84-3.36,6.39,6.39,0,0,1,.87-3.4A5.92,5.92,0,0,1,197.7,37a6.85,6.85,0,0,1,3.21-.77,5.5,5.5,0,0,1,3,.75,5.36,5.36,0,0,1,1.82,1.78l-.18.42.27-2.46h2.58V48.48h-2.79V45.42l.33.68a3.49,3.49,0,0,1-.57.72,6.74,6.74,0,0,1-1.07.9,6,6,0,0,1-3.49,1.05Zm.75-2.19a4.75,4.75,0,0,0,1.89-.36,3.74,3.74,0,0,0,1.39-1,3.93,3.93,0,0,0,.77-1.59v-2.3a3.56,3.56,0,0,0-.84-1.49,4.3,4.3,0,0,0-1.44-1,4.59,4.59,0,0,0-1.83-.35,4.23,4.23,0,0,0-2.07.51,4,4,0,0,0-1.49,1.41,4,4,0,0,0-.55,2.13,3.88,3.88,0,0,0,.57,2.07A4.07,4.07,0,0,0,199.44,46,4.15,4.15,0,0,0,201.51,46.58Z"/><path class="cls-2" d="M226.17,48.71a7.76,7.76,0,0,1-2.57-.44A5,5,0,0,1,221.54,47l1.17-1.53a6.29,6.29,0,0,0,1.63,1.06,4,4,0,0,0,1.62.36,4.25,4.25,0,0,0,1.1-.14,1.84,1.84,0,0,0,.83-.48,1.25,1.25,0,0,0,.32-.88,1.23,1.23,0,0,0-.44-1,3.41,3.41,0,0,0-1.09-.58c-.45-.15-.92-.29-1.44-.43A5.4,5.4,0,0,1,222.89,42a2.93,2.93,0,0,1-.8-2.07,3.27,3.27,0,0,1,.49-1.74,3.8,3.8,0,0,1,1.48-1.34,5.09,5.09,0,0,1,2.4-.52,8.26,8.26,0,0,1,2.32.3,5.7,5.7,0,0,1,1.92,1l-1.11,1.65a3.58,3.58,0,0,0-1.28-.81,3.89,3.89,0,0,0-1.34-.27,3,3,0,0,0-1,.16,1.75,1.75,0,0,0-.75.45,1,1,0,0,0-.28.75,1.07,1.07,0,0,0,.4,1,3.46,3.46,0,0,0,1.1.58c.44.15.88.31,1.35.46a6.74,6.74,0,0,1,1.62.68,3.64,3.64,0,0,1,1.15,1.05,2.64,2.64,0,0,1,.44,1.56,3.77,3.77,0,0,1-.53,1.94,3.69,3.69,0,0,1-1.59,1.42A6.12,6.12,0,0,1,226.17,48.71Z"/><path class="cls-2" d="M245,47.38a6.33,6.33,0,0,1-2,1,7.82,7.82,0,0,1-2.33.37,7.93,7.93,0,0,1-3.56-.77,5.79,5.79,0,0,1-2.41-2.15,6,6,0,0,1-.87-3.26,5.74,5.74,0,0,1,.92-3.25,6.37,6.37,0,0,1,2.42-2.13,7.07,7.07,0,0,1,3.23-.75,8.74,8.74,0,0,1,2.65.38,6.21,6.21,0,0,1,2.05,1.1l-1.4,1.7a6.59,6.59,0,0,0-1.31-.7,4.74,4.74,0,0,0-1.75-.32,4,4,0,0,0-2,.52,3.85,3.85,0,0,0-1.44,1.42,3.91,3.91,0,0,0-.52,2,4,4,0,0,0,.53,2,4.07,4.07,0,0,0,1.5,1.44,4.52,4.52,0,0,0,2.23.54,4.59,4.59,0,0,0,1.45-.22,4.28,4.28,0,0,0,1.22-.63Z"/><path class="cls-2" d="M252.54,48.94a4.12,4.12,0,0,1-2.84-1,3.44,3.44,0,0,1-1.16-2.54V36.75h2.83v7.74A2.49,2.49,0,0,0,252,46a2.2,2.2,0,0,0,1.68.64,3.13,3.13,0,0,0,1.85-.58,4.26,4.26,0,0,0,1.33-1.59,5,5,0,0,0,.52-2.28V36.75h2.79V48.48h-2.56l-.23-2.89.18.54a4.61,4.61,0,0,1-1.12,1.43,5.21,5.21,0,0,1-1.72,1A6.33,6.33,0,0,1,252.54,48.94Z"/><path class="cls-2" d="M263.85,42.5a5.84,5.84,0,0,1,.88-3.17,6.13,6.13,0,0,1,2.46-2.24,7.63,7.63,0,0,1,3.59-.83,7.31,7.31,0,0,1,3.53.83,6.21,6.21,0,0,1,2.39,8.59,6.25,6.25,0,0,1-2.39,2.25,7.27,7.27,0,0,1-3.57.84,7.76,7.76,0,0,1-3.55-.78,6.18,6.18,0,0,1-2.45-2.19A6,6,0,0,1,263.85,42.5Zm2.81,0a4,4,0,0,0,.55,2A3.86,3.86,0,0,0,268.64,46a3.9,3.9,0,0,0,2.05.54,4,4,0,0,0,2.07-.54,3.83,3.83,0,0,0,1.42-1.46,4,4,0,0,0,.53-2A4.08,4.08,0,0,0,272.76,39a4.12,4.12,0,0,0-4.13,0,4.19,4.19,0,0,0-1.44,1.49A4,4,0,0,0,266.66,42.53Z"/><path class="cls-2" d="M281.28,26.54h2.81V48.48h-2.81Z"/><path class="cls-2" d="M294.11,48.77a7,7,0,0,1-3.16-.71A5.44,5.44,0,0,1,288.68,46a6.3,6.3,0,0,1-.84-3.36,6.39,6.39,0,0,1,.87-3.4A5.92,5.92,0,0,1,291.05,37a6.85,6.85,0,0,1,3.21-.77,5.54,5.54,0,0,1,3,.75A5.32,5.32,0,0,1,299,38.79l-.18.42.27-2.46h2.58V48.48h-2.79V45.42l.33.68a3.49,3.49,0,0,1-.57.72,6.63,6.63,0,0,1-1.06.9,6.16,6.16,0,0,1-1.52.75A6.06,6.06,0,0,1,294.11,48.77Zm.75-2.19a4.75,4.75,0,0,0,1.89-.36,3.78,3.78,0,0,0,1.4-1,3.91,3.91,0,0,0,.76-1.59v-2.3a3.56,3.56,0,0,0-.84-1.49,4.3,4.3,0,0,0-1.44-1,4.59,4.59,0,0,0-1.83-.35,4.23,4.23,0,0,0-2.07.51,3.93,3.93,0,0,0-1.48,1.41,4,4,0,0,0-.56,2.13,3.88,3.88,0,0,0,.57,2.07A4.07,4.07,0,0,0,292.79,46,4.15,4.15,0,0,0,294.86,46.58Z"/><path class="cls-2" d="M319.52,48.71a7.7,7.7,0,0,1-2.56-.44A5,5,0,0,1,314.9,47l1.17-1.53a6.24,6.24,0,0,0,1.62,1.06,4,4,0,0,0,1.62.36,4.32,4.32,0,0,0,1.11-.14,1.84,1.84,0,0,0,.83-.48,1.25,1.25,0,0,0,.31-.88,1.23,1.23,0,0,0-.43-1,3.46,3.46,0,0,0-1.1-.58c-.44-.15-.92-.29-1.44-.43A5.36,5.36,0,0,1,316.25,42a2.9,2.9,0,0,1-.81-2.07,3.28,3.28,0,0,1,.5-1.74,3.73,3.73,0,0,1,1.48-1.34,5.07,5.07,0,0,1,2.4-.52,8.19,8.19,0,0,1,2.31.3,5.7,5.7,0,0,1,1.92,1l-1.11,1.65a3.45,3.45,0,0,0-1.27-.81,3.94,3.94,0,0,0-1.34-.27,3,3,0,0,0-1,.16,1.75,1.75,0,0,0-.75.45,1.05,1.05,0,0,0-.29.75,1.08,1.08,0,0,0,.41,1,3.41,3.41,0,0,0,1.09.58l1.35.46a6.57,6.57,0,0,1,1.62.68,3.57,3.57,0,0,1,1.16,1.05,2.64,2.64,0,0,1,.43,1.56,3.76,3.76,0,0,1-.52,1.94,3.69,3.69,0,0,1-1.59,1.42A6.16,6.16,0,0,1,319.52,48.71Z"/><path class="cls-2" d="M332.21,48.94a4.09,4.09,0,0,1-2.83-1,3.44,3.44,0,0,1-1.16-2.54V36.75H331v7.74a2.5,2.5,0,0,0,.6,1.54,2.2,2.2,0,0,0,1.68.64,3.13,3.13,0,0,0,1.85-.58,4.26,4.26,0,0,0,1.33-1.59,5,5,0,0,0,.51-2.28V36.75h2.79V48.48h-2.55L337,45.59l.18.54a4.57,4.57,0,0,1-1.11,1.43,5.32,5.32,0,0,1-1.72,1A6.35,6.35,0,0,1,332.21,48.94Z"/><path class="cls-2" d="M352,48.77a6.15,6.15,0,0,1-2.71-.63,4.75,4.75,0,0,1-2-1.67l.15-.82v8.48H344.6V36.58H347l.39,3-.3-.85A7,7,0,0,1,349.4,37a6.69,6.69,0,0,1,3.09-.7,6.33,6.33,0,0,1,3.14.78,5.7,5.7,0,0,1,2.2,2.21,6.69,6.69,0,0,1,.81,3.34,6.08,6.08,0,0,1-.87,3.27A5.72,5.72,0,0,1,355.39,48,7.66,7.66,0,0,1,352,48.77Zm-.54-2.1a4.6,4.6,0,0,0,2.19-.53,4.38,4.38,0,0,0,1.61-1.44,3.69,3.69,0,0,0,.61-2.09,4,4,0,0,0-.57-2.11,4.09,4.09,0,0,0-1.51-1.44,4.3,4.3,0,0,0-2.12-.53,4.88,4.88,0,0,0-1.95.38A3.89,3.89,0,0,0,348.23,40a4,4,0,0,0-.81,1.61v2a3.38,3.38,0,0,0,.72,1.56,4.17,4.17,0,0,0,1.43,1.12A4.24,4.24,0,0,0,351.41,46.67Z"/><path class="cls-2" d="M368.18,48.77a7.73,7.73,0,0,1-3.66-.81,6,6,0,0,1-2.37-2.21,6.16,6.16,0,0,1-.84-3.22,5.58,5.58,0,0,1,.95-3.15,7,7,0,0,1,2.5-2.27,7.23,7.23,0,0,1,3.48-.85,6.16,6.16,0,0,1,4.08,1.36,7,7,0,0,1,2.22,3.75l-10.26,3.4-.66-1.56L372,40.29l-.57.4a3.79,3.79,0,0,0-1.2-1.62,3.39,3.39,0,0,0-2.19-.68,4,4,0,0,0-2,.51,3.76,3.76,0,0,0-1.4,1.4,4.15,4.15,0,0,0-.51,2.09,4.25,4.25,0,0,0,.53,2.12A3.69,3.69,0,0,0,366.1,46a4.33,4.33,0,0,0,2.14.53,4.74,4.74,0,0,0,1.58-.28,7.34,7.34,0,0,0,1.45-.74l1.26,2a8.84,8.84,0,0,1-2.08,1A7.64,7.64,0,0,1,368.18,48.77Z"/><path class="cls-2" d="M380.51,36.75l.27,3.4-.12-.48A5.21,5.21,0,0,1,382,37.85,6.61,6.61,0,0,1,384,36.69a5.47,5.47,0,0,1,1.74-.43l-.12,2.67a4.26,4.26,0,0,0-2.5.49A4.76,4.76,0,0,0,381.4,41a3.9,3.9,0,0,0-.62,2.11v5.36H378V36.75Z"/><path class="cls-2" d="M389.09,32.49a1.33,1.33,0,0,1,.53-1.05,1.79,1.79,0,0,1,1.15-.42,1.75,1.75,0,0,1,1.14.42,1.33,1.33,0,0,1,.51,1.05,1.32,1.32,0,0,1-.51,1.07,1.79,1.79,0,0,1-1.14.41,1.84,1.84,0,0,1-1.15-.41A1.31,1.31,0,0,1,389.09,32.49Zm.18,4.26h2.82V48.48h-2.82Z"/><path class="cls-2" d="M395.84,42.5a5.85,5.85,0,0,1,.89-3.17,6.13,6.13,0,0,1,2.46-2.24,7.59,7.59,0,0,1,3.58-.83,7.35,7.35,0,0,1,3.54.83,6.21,6.21,0,0,1,2.39,8.59,6.25,6.25,0,0,1-2.39,2.25,7.3,7.3,0,0,1-3.57.84,7.76,7.76,0,0,1-3.55-.78,6.11,6.11,0,0,1-2.45-2.19A6,6,0,0,1,395.84,42.5Zm2.82,0a4,4,0,0,0,2,3.51,3.89,3.89,0,0,0,2,.54,3.94,3.94,0,0,0,2.07-.54,3.86,3.86,0,0,0,1.43-1.46,4,4,0,0,0,.52-2A4,4,0,0,0,404.75,39a4.1,4.1,0,0,0-4.12,0,4.19,4.19,0,0,0-1.44,1.49A4,4,0,0,0,398.66,42.53Z"/><path class="cls-2" d="M415.79,36.75l.27,3.4-.12-.48a5.21,5.21,0,0,1,1.38-1.82,6.61,6.61,0,0,1,1.92-1.16,5.47,5.47,0,0,1,1.74-.43l-.12,2.67a4.24,4.24,0,0,0-2.5.49A4.67,4.67,0,0,0,416.68,41a3.9,3.9,0,0,0-.62,2.11v5.36h-2.79V36.75Z"/><path class="cls-2" d="M429.8,48.77a7.73,7.73,0,0,1-3.66-.81,6,6,0,0,1-2.37-2.21,6.16,6.16,0,0,1-.84-3.22,5.51,5.51,0,0,1,.95-3.15,6.94,6.94,0,0,1,2.5-2.27,7.23,7.23,0,0,1,3.48-.85,6.16,6.16,0,0,1,4.08,1.36,7,7,0,0,1,2.22,3.75l-10.26,3.4-.66-1.56,8.37-2.92-.57.4a3.79,3.79,0,0,0-1.2-1.62,3.39,3.39,0,0,0-2.19-.68,3.94,3.94,0,0,0-2,.51,3.76,3.76,0,0,0-1.4,1.4,4.15,4.15,0,0,0-.51,2.09,4.24,4.24,0,0,0,.52,2.12A3.69,3.69,0,0,0,427.71,46a4.39,4.39,0,0,0,2.15.53,4.74,4.74,0,0,0,1.58-.28,7.34,7.34,0,0,0,1.45-.74l1.26,2a8.92,8.92,0,0,1-2.09,1A7.57,7.57,0,0,1,429.8,48.77Z"/><path class="cls-2" d="M452.6,48.71a7.76,7.76,0,0,1-2.57-.44A4.92,4.92,0,0,1,448,47l1.17-1.53a6.24,6.24,0,0,0,1.62,1.06,4,4,0,0,0,1.62.36,4.32,4.32,0,0,0,1.11-.14,1.81,1.81,0,0,0,.82-.48,1.25,1.25,0,0,0,.32-.88,1.23,1.23,0,0,0-.44-1,3.41,3.41,0,0,0-1.09-.58c-.44-.15-.92-.29-1.44-.43A5.36,5.36,0,0,1,449.33,42a2.9,2.9,0,0,1-.81-2.07,3.27,3.27,0,0,1,.49-1.74,3.76,3.76,0,0,1,1.49-1.34,5.07,5.07,0,0,1,2.4-.52,8.19,8.19,0,0,1,2.31.3,5.7,5.7,0,0,1,1.92,1L456,39.27a3.49,3.49,0,0,0-1.28-.81,3.89,3.89,0,0,0-1.33-.27,3,3,0,0,0-1,.16,1.75,1.75,0,0,0-.75.45,1,1,0,0,0-.28.75,1.07,1.07,0,0,0,.4,1,3.46,3.46,0,0,0,1.1.58l1.35.46a6.57,6.57,0,0,1,1.62.68A3.53,3.53,0,0,1,457,43.27a2.64,2.64,0,0,1,.44,1.56,3.77,3.77,0,0,1-.53,1.94,3.69,3.69,0,0,1-1.59,1.42A6.12,6.12,0,0,1,452.6,48.71Z"/><path class="cls-2" d="M461.12,32.49a1.32,1.32,0,0,1,.52-1.05A1.82,1.82,0,0,1,462.8,31a1.75,1.75,0,0,1,1.14.42,1.33,1.33,0,0,1,.51,1.05,1.32,1.32,0,0,1-.51,1.07,1.79,1.79,0,0,1-1.14.41,1.87,1.87,0,0,1-1.16-.41A1.3,1.3,0,0,1,461.12,32.49Zm.18,4.26h2.82V48.48H461.3Z"/><path class="cls-2" d="M474.14,48.77a7.06,7.06,0,0,1-3.17-.71A5.42,5.42,0,0,1,468.71,46a6.3,6.3,0,0,1-.84-3.36,6.39,6.39,0,0,1,.87-3.4A5.92,5.92,0,0,1,471.08,37a6.85,6.85,0,0,1,3.21-.77,5.5,5.5,0,0,1,2.95.75,5.36,5.36,0,0,1,1.82,1.78l-.18.42.27-2.46h2.58V48.48h-2.79V45.42l.33.68a3.49,3.49,0,0,1-.57.72,6.74,6.74,0,0,1-1.07.9,6,6,0,0,1-3.49,1.05Zm.75-2.19a4.75,4.75,0,0,0,1.89-.36,3.74,3.74,0,0,0,1.39-1,3.93,3.93,0,0,0,.77-1.59v-2.3a3.56,3.56,0,0,0-.84-1.49,4.3,4.3,0,0,0-1.44-1,4.59,4.59,0,0,0-1.83-.35,4.23,4.23,0,0,0-2.07.51,4,4,0,0,0-1.49,1.41,4,4,0,0,0-.55,2.13,3.88,3.88,0,0,0,.57,2.07A4.07,4.07,0,0,0,472.82,46,4.15,4.15,0,0,0,474.89,46.58Z"/><path class="cls-2" d="M497.09,48.48V39.1h-2.16V36.72h2.16V31.78a5.69,5.69,0,0,1,1.21-3.91,4.6,4.6,0,0,1,3.62-1.36,6.49,6.49,0,0,1,1.38.17,3.58,3.58,0,0,1,1.32.57l-1.17,1.9a1.32,1.32,0,0,0-.57-.36,2.61,2.61,0,0,0-.69-.1,2.12,2.12,0,0,0-1.71.71,3.82,3.82,0,0,0-.6,2.44v4.88h3.93V39.1h-3.93v9.38Z"/><path class="cls-2" d="M512,48.77a7.06,7.06,0,0,1-3.17-.71A5.42,5.42,0,0,1,506.57,46a6.3,6.3,0,0,1-.84-3.36,6.39,6.39,0,0,1,.87-3.4A5.92,5.92,0,0,1,508.94,37a6.85,6.85,0,0,1,3.21-.77,5.5,5.5,0,0,1,3,.75,5.36,5.36,0,0,1,1.82,1.78l-.18.42.27-2.46h2.58V48.48H516.8V45.42l.33.68a3.49,3.49,0,0,1-.57.72,6.74,6.74,0,0,1-1.07.9A6,6,0,0,1,512,48.77Zm.75-2.19a4.75,4.75,0,0,0,1.89-.36,3.74,3.74,0,0,0,1.39-1,3.93,3.93,0,0,0,.77-1.59v-2.3a3.56,3.56,0,0,0-.84-1.49,4.3,4.3,0,0,0-1.44-1,4.59,4.59,0,0,0-1.83-.35,4.23,4.23,0,0,0-2.07.51,4,4,0,0,0-1.49,1.41,4,4,0,0,0-.55,2.13,3.88,3.88,0,0,0,.57,2.07A4.07,4.07,0,0,0,510.68,46,4.15,4.15,0,0,0,512.75,46.58Z"/><path class="cls-2" d="M525.62,31.58h2.85V36.8h3.39v2.07h-3.39v9.61h-2.85V38.87h-2.25V36.8h2.25Z"/><path class="cls-2" d="M535,32.49a1.32,1.32,0,0,1,.52-1.05,1.82,1.82,0,0,1,1.16-.42,1.75,1.75,0,0,1,1.14.42,1.33,1.33,0,0,1,.51,1.05,1.32,1.32,0,0,1-.51,1.07,1.79,1.79,0,0,1-1.14.41,1.87,1.87,0,0,1-1.16-.41A1.3,1.3,0,0,1,535,32.49Zm.18,4.26H538V48.48h-2.82Z"/><path class="cls-2" d="M553,47.38a6.33,6.33,0,0,1-2,1,7.82,7.82,0,0,1-2.33.37,7.93,7.93,0,0,1-3.56-.77,5.79,5.79,0,0,1-2.41-2.15,6,6,0,0,1-.87-3.26,5.74,5.74,0,0,1,.92-3.25,6.37,6.37,0,0,1,2.42-2.13,7.07,7.07,0,0,1,3.23-.75,8.74,8.74,0,0,1,2.65.38,6.21,6.21,0,0,1,2,1.1l-1.4,1.7a6.59,6.59,0,0,0-1.31-.7,4.74,4.74,0,0,0-1.75-.32,4,4,0,0,0-2,.52,3.85,3.85,0,0,0-1.44,1.42,3.91,3.91,0,0,0-.52,2,4,4,0,0,0,.53,2,4.07,4.07,0,0,0,1.5,1.44,4.52,4.52,0,0,0,2.23.54,4.59,4.59,0,0,0,1.45-.22,4.28,4.28,0,0,0,1.22-.63Z"/><path class="cls-2" d="M555.46,42.5a5.85,5.85,0,0,1,.89-3.17,6.13,6.13,0,0,1,2.46-2.24,7.59,7.59,0,0,1,3.58-.83,7.39,7.39,0,0,1,3.55.83,6,6,0,0,1,3.24,5.41,6.07,6.07,0,0,1-.86,3.18,6.22,6.22,0,0,1-2.38,2.25,7.33,7.33,0,0,1-3.57.84,7.81,7.81,0,0,1-3.56-.78,6,6,0,0,1-2.44-2.19A6,6,0,0,1,555.46,42.5Zm2.83,0a3.94,3.94,0,0,0,.53,2A4,4,0,0,0,560.27,46a3.85,3.85,0,0,0,2,.54,4,4,0,0,0,2.08-.54,3.9,3.9,0,0,0,1.42-1.46,4,4,0,0,0,.52-2,4.1,4.1,0,0,0-.52-2.06A4.17,4.17,0,0,0,564.38,39a4.12,4.12,0,0,0-4.13,0,4.19,4.19,0,0,0-1.44,1.49A4,4,0,0,0,558.29,42.53Z"/><path class="cls-2" d="M576.4,48.71a7.7,7.7,0,0,1-2.56-.44A4.85,4.85,0,0,1,571.79,47L573,45.42a6.2,6.2,0,0,0,1.61,1.06,4,4,0,0,0,1.63.36,4.3,4.3,0,0,0,1.1-.14,1.84,1.84,0,0,0,.83-.48,1.25,1.25,0,0,0,.32-.88,1.23,1.23,0,0,0-.44-1,3.46,3.46,0,0,0-1.1-.58c-.44-.15-.92-.29-1.44-.43A5.42,5.42,0,0,1,573.13,42a2.9,2.9,0,0,1-.81-2.07,3.28,3.28,0,0,1,.5-1.74,3.73,3.73,0,0,1,1.48-1.34,5.08,5.08,0,0,1,2.41-.52,8.29,8.29,0,0,1,2.31.3,5.8,5.8,0,0,1,1.92,1l-1.12,1.65a3.45,3.45,0,0,0-1.27-.81,3.89,3.89,0,0,0-1.34-.27,3,3,0,0,0-1,.16,1.75,1.75,0,0,0-.75.45,1.05,1.05,0,0,0-.29.75,1.08,1.08,0,0,0,.41,1,3.41,3.41,0,0,0,1.09.58l1.36.46a6.5,6.5,0,0,1,1.61.68,3.47,3.47,0,0,1,1.16,1.05,2.64,2.64,0,0,1,.43,1.56,3.76,3.76,0,0,1-.52,1.94,3.69,3.69,0,0,1-1.59,1.42A6.16,6.16,0,0,1,576.4,48.71Z"/><path class="cls-2" d="M590.29,48.77a7,7,0,0,1-3.16-.71A5.36,5.36,0,0,1,584.87,46a6.21,6.21,0,0,1-.84-3.36,6.39,6.39,0,0,1,.86-3.4A5.92,5.92,0,0,1,587.23,37a6.89,6.89,0,0,1,3.22-.77,5.53,5.53,0,0,1,2.95.75,5.32,5.32,0,0,1,1.81,1.78l-.17.42.26-2.46h2.58V48.48h-2.79V45.42l.33.68a3.74,3.74,0,0,1-.56.72,7.22,7.22,0,0,1-1.07.9,6.26,6.26,0,0,1-1.51.75A6.12,6.12,0,0,1,590.29,48.77Zm.75-2.19a4.8,4.8,0,0,0,1.9-.36,3.7,3.7,0,0,0,2.15-2.64v-2.3a3.56,3.56,0,0,0-.84-1.49,4.21,4.21,0,0,0-1.44-1,4.59,4.59,0,0,0-1.83-.35,4.26,4.26,0,0,0-2.07.51,3.93,3.93,0,0,0-1.48,1.41,4,4,0,0,0-.55,2.13,3.8,3.8,0,0,0,.57,2.07A4,4,0,0,0,589,46,4.18,4.18,0,0,0,591,46.58Z"/><path class="cls-2" d="M605.29,46,604,49c-.43,1-.87,2-1.31,3h-2.31c.42-1,.82-2,1.2-3s.76-2,1.14-3Z"/><path class="cls-2" d="M22.92,70.77l.27,3.4-.12-.48a5.17,5.17,0,0,1,1.38-1.81,6.65,6.65,0,0,1,1.92-1.17,5.7,5.7,0,0,1,1.74-.42L28,73a4.26,4.26,0,0,0-2.5.5A4.62,4.62,0,0,0,23.8,75a3.87,3.87,0,0,0-.61,2.11v5.36H20.4V70.77Z"/><path class="cls-2" d="M31.5,66.52a1.27,1.27,0,0,1,.53-1A1.75,1.75,0,0,1,33.18,65a1.71,1.71,0,0,1,1.14.43,1.35,1.35,0,0,1,0,2.11,1.79,1.79,0,0,1-1.14.41A1.84,1.84,0,0,1,32,67.58,1.26,1.26,0,0,1,31.5,66.52Zm.18,4.25H34.5V82.51H31.68Z"/><path class="cls-2" d="M45.12,82.79A7.73,7.73,0,0,1,41.46,82a5.89,5.89,0,0,1-2.37-2.21,6.14,6.14,0,0,1-.84-3.22,5.52,5.52,0,0,1,.94-3.14,6.87,6.87,0,0,1,2.51-2.27,7.12,7.12,0,0,1,3.48-.85,6.11,6.11,0,0,1,4.08,1.36,6.93,6.93,0,0,1,2.22,3.74l-10.26,3.4-.66-1.56,8.37-2.92-.57.4a3.91,3.91,0,0,0-1.2-1.62A3.39,3.39,0,0,0,45,72.41a4,4,0,0,0-2,.51,3.69,3.69,0,0,0-1.39,1.41A4.11,4.11,0,0,0,41,76.41a4.28,4.28,0,0,0,.52,2.13A3.71,3.71,0,0,0,43,80a4.29,4.29,0,0,0,2.14.52,4.44,4.44,0,0,0,1.57-.28,7.42,7.42,0,0,0,1.46-.74l1.26,2a8.9,8.9,0,0,1-2.09,1A7.27,7.27,0,0,1,45.12,82.79Z"/><path class="cls-2" d="M58.44,82.73a7.51,7.51,0,0,1-2.57-.44,5,5,0,0,1-2-1.31L55,79.45a6.51,6.51,0,0,0,1.62,1.06,4.13,4.13,0,0,0,2.73.21,1.65,1.65,0,0,0,.82-.48A1.38,1.38,0,0,0,60,78.35,3.62,3.62,0,0,0,59,77.77q-.66-.22-1.44-.42A5.37,5.37,0,0,1,55.17,76a2.87,2.87,0,0,1-.81-2.07,3.27,3.27,0,0,1,.49-1.74,3.74,3.74,0,0,1,1.49-1.33,5.06,5.06,0,0,1,2.4-.53,8.19,8.19,0,0,1,2.31.3,5.73,5.73,0,0,1,1.92,1l-1.11,1.64a3.49,3.49,0,0,0-1.28-.81,4.14,4.14,0,0,0-1.33-.27,3.29,3.29,0,0,0-1,.16,2,2,0,0,0-.75.45,1.05,1.05,0,0,0-.28.76,1.09,1.09,0,0,0,.4,1,3.68,3.68,0,0,0,1.1.58l1.35.45a7,7,0,0,1,1.62.68,3.65,3.65,0,0,1,1.15,1.05,2.68,2.68,0,0,1,.44,1.56,3.75,3.75,0,0,1-.53,1.94,3.63,3.63,0,0,1-1.59,1.42A6.12,6.12,0,0,1,58.44,82.73Z"/><path class="cls-2" d="M77.25,81.4a6.14,6.14,0,0,1-2,1,7.62,7.62,0,0,1-2.34.37A7.93,7.93,0,0,1,69.34,82a5.81,5.81,0,0,1-2.41-2.16,6,6,0,0,1-.87-3.26A5.67,5.67,0,0,1,67,73.36a6.32,6.32,0,0,1,2.41-2.12,7.07,7.07,0,0,1,3.23-.75,8.44,8.44,0,0,1,2.65.38A6.24,6.24,0,0,1,77.34,72l-1.41,1.7A6.33,6.33,0,0,0,74.62,73a4.51,4.51,0,0,0-1.75-.33,4,4,0,0,0-2,.53,3.82,3.82,0,0,0-1.44,1.41,3.93,3.93,0,0,0-.52,2,3.83,3.83,0,0,0,.54,2,4,4,0,0,0,1.5,1.45,4.45,4.45,0,0,0,2.22.54,4.55,4.55,0,0,0,2.67-.85Z"/><path class="cls-2" d="M86.61,82.79A7.73,7.73,0,0,1,83,82a5.89,5.89,0,0,1-2.37-2.21,6.14,6.14,0,0,1-.84-3.22,5.52,5.52,0,0,1,.94-3.14,6.87,6.87,0,0,1,2.51-2.27,7.12,7.12,0,0,1,3.48-.85,6.11,6.11,0,0,1,4.08,1.36A6.93,6.93,0,0,1,93,75.39l-10.26,3.4-.66-1.56,8.37-2.92-.57.4a3.91,3.91,0,0,0-1.2-1.62,3.39,3.39,0,0,0-2.19-.68,4,4,0,0,0-2,.51A3.69,3.69,0,0,0,83,74.33a4.11,4.11,0,0,0-.51,2.08,4.28,4.28,0,0,0,.52,2.13A3.75,3.75,0,0,0,84.52,80a4.36,4.36,0,0,0,2.15.52,4.44,4.44,0,0,0,1.57-.28,7.42,7.42,0,0,0,1.46-.74l1.26,2a8.9,8.9,0,0,1-2.09,1A7.27,7.27,0,0,1,86.61,82.79Z"/><path class="cls-2" d="M111.09,82.79a7.06,7.06,0,0,1-3.17-.71A5.39,5.39,0,0,1,105.66,80a7.11,7.11,0,0,1,0-6.76A5.87,5.87,0,0,1,108,71.05a6.84,6.84,0,0,1,3.21-.76,5.5,5.5,0,0,1,3,.75A5.24,5.24,0,0,1,116,72.81l-.18.43.27-2.47h2.58V82.51h-2.79V79.45l.33.68a3.77,3.77,0,0,1-.57.72,7.3,7.3,0,0,1-1.07.89,6,6,0,0,1-3.49,1.05Zm.75-2.18a4.75,4.75,0,0,0,1.89-.37,3.74,3.74,0,0,0,1.39-1,3.81,3.81,0,0,0,.77-1.59V75.31a3.5,3.5,0,0,0-.84-1.49,4.19,4.19,0,0,0-1.44-1,4.77,4.77,0,0,0-1.83-.35,4.23,4.23,0,0,0-2.07.51,3.91,3.91,0,0,0-1.49,1.42,4,4,0,0,0-.55,2.12,3.88,3.88,0,0,0,.57,2.07,4.1,4.1,0,0,0,1.53,1.48A4.15,4.15,0,0,0,111.84,80.61Z"/><path class="cls-2" d="M134,82.51V73.12h-2.16V70.74H134V65.81a5.71,5.71,0,0,1,1.21-3.92,4.63,4.63,0,0,1,3.62-1.36,6.49,6.49,0,0,1,1.38.17,3.94,3.94,0,0,1,1.32.57l-1.17,1.9a1.22,1.22,0,0,0-.57-.35,2.26,2.26,0,0,0-.69-.1,2.09,2.09,0,0,0-1.71.71,3.79,3.79,0,0,0-.6,2.43v4.88h3.93v2.38h-3.93v9.39Z"/><path class="cls-2" d="M149,82.79a7.06,7.06,0,0,1-3.17-.71A5.39,5.39,0,0,1,143.52,80a6.35,6.35,0,0,1-.84-3.36,6.28,6.28,0,0,1,.87-3.4,5.87,5.87,0,0,1,2.34-2.19,6.84,6.84,0,0,1,3.21-.76,5.5,5.5,0,0,1,3,.75,5.33,5.33,0,0,1,1.82,1.77l-.18.43.27-2.47h2.58V82.51h-2.79V79.45l.33.68a3.77,3.77,0,0,1-.57.72,7.3,7.3,0,0,1-1.07.89A6,6,0,0,1,149,82.79Zm.75-2.18a4.75,4.75,0,0,0,1.89-.37,3.74,3.74,0,0,0,1.39-1,3.81,3.81,0,0,0,.77-1.59V75.31a3.5,3.5,0,0,0-.84-1.49,4.19,4.19,0,0,0-1.44-1,4.77,4.77,0,0,0-1.83-.35,4.23,4.23,0,0,0-2.07.51,3.91,3.91,0,0,0-1.49,1.42,4,4,0,0,0-.55,2.12,3.8,3.8,0,0,0,.57,2.07,4.1,4.1,0,0,0,1.53,1.48A4.15,4.15,0,0,0,149.7,80.61Z"/><path class="cls-2" d="M163.88,70.77l.28,3.4-.12-.48a5.06,5.06,0,0,1,1.38-1.81,6.52,6.52,0,0,1,1.92-1.17,5.7,5.7,0,0,1,1.74-.42L169,73a4.29,4.29,0,0,0-2.51.5A4.59,4.59,0,0,0,164.77,75a3.87,3.87,0,0,0-.61,2.11v5.36h-2.79V70.77Z"/><path class="cls-2" d="M177.89,82.79a7.73,7.73,0,0,1-3.66-.81,5.8,5.8,0,0,1-2.36-2.21,6,6,0,0,1-.84-3.22,5.52,5.52,0,0,1,.94-3.14,6.84,6.84,0,0,1,2.5-2.27,7.13,7.13,0,0,1,3.49-.85A6.13,6.13,0,0,1,182,71.65a6.92,6.92,0,0,1,2.21,3.74L174,78.79l-.66-1.56,8.38-2.92-.58.4a4,4,0,0,0-1.19-1.62,3.42,3.42,0,0,0-2.2-.68,4,4,0,0,0-2,.51,3.72,3.72,0,0,0-1.4,1.41,4.11,4.11,0,0,0-.51,2.08,4.29,4.29,0,0,0,.53,2.13A3.75,3.75,0,0,0,175.81,80a4.33,4.33,0,0,0,2.15.52,4.48,4.48,0,0,0,1.57-.28A7.34,7.34,0,0,0,181,79.5l1.26,2a8.64,8.64,0,0,1-2.08,1A7.33,7.33,0,0,1,177.89,82.79Z"/><path class="cls-2" d="M204.8,82.79a6.29,6.29,0,0,1-3-.71,6.2,6.2,0,0,1-2.09-1.78l.33-.8v3h-2.82v-22H200v12.9l-.06-1A5.23,5.23,0,0,1,202,70.9a7.67,7.67,0,0,1,3.13-.61,6.14,6.14,0,0,1,3,.76,5.89,5.89,0,0,1,2.21,2.14,6.2,6.2,0,0,1,.82,3.25,6.4,6.4,0,0,1-.88,3.42A5.89,5.89,0,0,1,208,82,6.9,6.9,0,0,1,204.8,82.79Zm-.6-2.24a4.32,4.32,0,0,0,2.18-.54,3.94,3.94,0,0,0,1.48-1.47,4.16,4.16,0,0,0,.54-2.1,3.92,3.92,0,0,0-.55-2.06,4,4,0,0,0-1.5-1.44,4.36,4.36,0,0,0-2.15-.53,4.89,4.89,0,0,0-1.89.36,3.92,3.92,0,0,0-1.45,1,3.74,3.74,0,0,0-.86,1.47v2.41a4,4,0,0,0,.81,1.49,4.06,4.06,0,0,0,1.46,1A4.89,4.89,0,0,0,204.2,80.55Z"/><path class="cls-2" d="M219,83a4.09,4.09,0,0,1-2.83-1A3.43,3.43,0,0,1,215,79.45V70.77h2.82v7.74a2.48,2.48,0,0,0,.6,1.54,2.2,2.2,0,0,0,1.68.64,3.13,3.13,0,0,0,1.85-.58,4.26,4.26,0,0,0,1.33-1.59,5,5,0,0,0,.51-2.28V70.77h2.79V82.51H224l-.24-2.89.18.53a4.72,4.72,0,0,1-1.11,1.44,5.3,5.3,0,0,1-1.72,1A6.11,6.11,0,0,1,219,83Z"/><path class="cls-2" d="M230.27,76.52a5.85,5.85,0,0,1,.89-3.17,6.21,6.21,0,0,1,2.46-2.24,7.59,7.59,0,0,1,3.58-.82,7.34,7.34,0,0,1,3.54.82,6.08,6.08,0,0,1,2.39,2.24,6.35,6.35,0,0,1,0,6.35A6.1,6.1,0,0,1,240.74,82a7.3,7.3,0,0,1-3.57.84,7.76,7.76,0,0,1-3.55-.78,6.16,6.16,0,0,1-2.45-2.18A6,6,0,0,1,230.27,76.52Zm2.82,0a4,4,0,0,0,.54,2.06,4.11,4.11,0,0,0,1.44,1.46,3.89,3.89,0,0,0,2,.54,3.94,3.94,0,0,0,2.07-.54,4,4,0,0,0,1.43-1.46A4.15,4.15,0,0,0,239.18,73a3.86,3.86,0,0,0-2.07-.55,3.79,3.79,0,0,0-2.05.57,4.11,4.11,0,0,0-1.44,1.49A4,4,0,0,0,233.09,76.55Z"/><path class="cls-2" d="M250.25,70.77l.21,2.86-.09-.45a4.43,4.43,0,0,1,1.92-2.08,6.18,6.18,0,0,1,3.15-.78,4.23,4.23,0,0,1,2.87,1,3.31,3.31,0,0,1,1.15,2.54v8.68h-2.82V74.74a2.33,2.33,0,0,0-.58-1.55,2.26,2.26,0,0,0-1.73-.61,3.49,3.49,0,0,0-1.93.57A3.87,3.87,0,0,0,251,74.71a5.09,5.09,0,0,0-.5,2.3v5.5H247.7V70.77Z"/><path class="cls-2" d="M264.11,66.52a1.3,1.3,0,0,1,.53-1,1.75,1.75,0,0,1,1.15-.43,1.71,1.71,0,0,1,1.14.43,1.35,1.35,0,0,1,0,2.11,1.79,1.79,0,0,1-1.14.41,1.84,1.84,0,0,1-1.15-.41A1.29,1.29,0,0,1,264.11,66.52Zm.18,4.25h2.82V82.51h-2.82Z"/><path class="cls-2" d="M286.61,82.79a7,7,0,0,1-3.16-.71A5.42,5.42,0,0,1,281.18,80a7.11,7.11,0,0,1,0-6.76,5.87,5.87,0,0,1,2.34-2.19,6.84,6.84,0,0,1,3.21-.76,5.54,5.54,0,0,1,3,.75,5.21,5.21,0,0,1,1.81,1.77l-.18.43.27-2.47h2.58V82.51h-2.79V79.45l.33.68a3.77,3.77,0,0,1-.57.72,7.18,7.18,0,0,1-1.06.89,6.16,6.16,0,0,1-1.52.75A6.06,6.06,0,0,1,286.61,82.79Zm.75-2.18a4.75,4.75,0,0,0,1.89-.37,3.68,3.68,0,0,0,2.16-2.64V75.31a3.5,3.5,0,0,0-.84-1.49,4.19,4.19,0,0,0-1.44-1,4.77,4.77,0,0,0-1.83-.35,4.23,4.23,0,0,0-2.07.51,3.88,3.88,0,0,0-1.48,1.42,4,4,0,0,0-.56,2.12,3.88,3.88,0,0,0,.57,2.07,4.1,4.1,0,0,0,1.53,1.48A4.15,4.15,0,0,0,287.36,80.61Z"/><path class="cls-2" d="M301.58,70.77l.24,2.64-.15-.23a5.27,5.27,0,0,1,2-2.11,5.53,5.53,0,0,1,2.95-.78,5,5,0,0,1,1.83.32,3.58,3.58,0,0,1,1.34.91,2.82,2.82,0,0,1,.67,1.4l-.15.12a5.14,5.14,0,0,1,2-2,5.36,5.36,0,0,1,2.68-.72,4.1,4.1,0,0,1,2.9,1A3.48,3.48,0,0,1,319,73.8v8.71h-2.82V74.77a2.71,2.71,0,0,0-.46-1.52,1.8,1.8,0,0,0-1.52-.64,3.28,3.28,0,0,0-1.93.61,4.09,4.09,0,0,0-1.32,1.59,5.25,5.25,0,0,0-.5,2.14v5.56h-2.82V74.77a2.58,2.58,0,0,0-.49-1.52,1.89,1.89,0,0,0-1.55-.64,3.23,3.23,0,0,0-1.92.61,4.23,4.23,0,0,0-1.32,1.6,4.92,4.92,0,0,0-.48,2.16v5.53H299V70.77Z"/><path class="cls-2" d="M323.6,66.52a1.3,1.3,0,0,1,.53-1,1.75,1.75,0,0,1,1.15-.43,1.71,1.71,0,0,1,1.14.43,1.35,1.35,0,0,1,0,2.11,1.79,1.79,0,0,1-1.14.41,1.84,1.84,0,0,1-1.15-.41A1.29,1.29,0,0,1,323.6,66.52Zm.18,4.25h2.82V82.51h-2.82Z"/><path class="cls-2" d="M341.54,81.4a6.14,6.14,0,0,1-2,1,7.62,7.62,0,0,1-2.34.37,7.89,7.89,0,0,1-3.55-.76,5.84,5.84,0,0,1-2.42-2.16,6,6,0,0,1-.87-3.26,5.67,5.67,0,0,1,.93-3.25,6.35,6.35,0,0,1,2.42-2.12,7,7,0,0,1,3.22-.75,8.5,8.5,0,0,1,2.66.38A6.19,6.19,0,0,1,341.63,72l-1.41,1.7a6.23,6.23,0,0,0-1.3-.69,4.6,4.6,0,0,0-1.76-.33,4,4,0,0,0-2,.53,3.75,3.75,0,0,0-1.44,1.41,3.94,3.94,0,0,0-.53,2,3.83,3.83,0,0,0,.54,2,4,4,0,0,0,1.5,1.45,4.45,4.45,0,0,0,2.22.54,4.61,4.61,0,0,0,1.46-.23,4.46,4.46,0,0,0,1.21-.62Z"/><path class="cls-2" d="M344.93,66.52a1.3,1.3,0,0,1,.53-1,1.73,1.73,0,0,1,1.15-.43,1.71,1.71,0,0,1,1.14.43,1.35,1.35,0,0,1,0,2.11,1.79,1.79,0,0,1-1.14.41,1.82,1.82,0,0,1-1.15-.41A1.29,1.29,0,0,1,344.93,66.52Zm.18,4.25h2.82V82.51h-2.82Z"/><path class="cls-2" d="M362.06,66.52a1.29,1.29,0,0,1,.52-1,1.78,1.78,0,0,1,1.16-.43,1.71,1.71,0,0,1,1.14.43,1.35,1.35,0,0,1,0,2.11,1.79,1.79,0,0,1-1.14.41,1.87,1.87,0,0,1-1.16-.41A1.28,1.28,0,0,1,362.06,66.52Zm.18,4.25h2.82V82.51h-2.82Z"/><path class="cls-2" d="M372.44,70.77l.21,2.86-.09-.45a4.43,4.43,0,0,1,1.92-2.08,6.18,6.18,0,0,1,3.15-.78,4.2,4.2,0,0,1,2.86,1,3.32,3.32,0,0,1,1.16,2.54v8.68h-2.82V74.74a2.33,2.33,0,0,0-.59-1.55,2.23,2.23,0,0,0-1.72-.61,3.52,3.52,0,0,0-1.94.57,3.87,3.87,0,0,0-1.38,1.56,5.09,5.09,0,0,0-.49,2.3v5.5h-2.82V70.77Z"/><path class="cls-2" d="M406.07,81.4a6.14,6.14,0,0,1-2,1,7.62,7.62,0,0,1-2.34.37,7.93,7.93,0,0,1-3.56-.76,5.81,5.81,0,0,1-2.41-2.16,6,6,0,0,1-.87-3.26,5.67,5.67,0,0,1,.93-3.25,6.32,6.32,0,0,1,2.41-2.12,7.07,7.07,0,0,1,3.23-.75,8.44,8.44,0,0,1,2.65.38A6.24,6.24,0,0,1,406.16,72l-1.41,1.7a6.33,6.33,0,0,0-1.31-.69,4.51,4.51,0,0,0-1.75-.33,4,4,0,0,0-2,.53,3.82,3.82,0,0,0-1.44,1.41,3.93,3.93,0,0,0-.52,2,3.83,3.83,0,0,0,.54,2,4,4,0,0,0,1.5,1.45,4.45,4.45,0,0,0,2.22.54,4.55,4.55,0,0,0,2.67-.85Z"/><path class="cls-2" d="M409.64,60.56h2.82v22h-2.82Z"/><path class="cls-2" d="M422.48,82.79a7.06,7.06,0,0,1-3.17-.71A5.39,5.39,0,0,1,417.05,80a7.11,7.11,0,0,1,0-6.76,5.87,5.87,0,0,1,2.34-2.19,6.84,6.84,0,0,1,3.21-.76,5.5,5.5,0,0,1,2.95.75,5.24,5.24,0,0,1,1.82,1.77l-.18.43.27-2.47h2.58V82.51h-2.79V79.45l.33.68a3.77,3.77,0,0,1-.57.72,7.3,7.3,0,0,1-1.07.89,6,6,0,0,1-3.49,1.05Zm.75-2.18a4.75,4.75,0,0,0,1.89-.37,3.74,3.74,0,0,0,1.39-1,3.81,3.81,0,0,0,.77-1.59V75.31a3.5,3.5,0,0,0-.84-1.49,4.19,4.19,0,0,0-1.44-1,4.77,4.77,0,0,0-1.83-.35,4.23,4.23,0,0,0-2.07.51,3.91,3.91,0,0,0-1.49,1.42,4,4,0,0,0-.55,2.12,3.88,3.88,0,0,0,.57,2.07,4.1,4.1,0,0,0,1.53,1.48A4.15,4.15,0,0,0,423.23,80.61Z"/><path class="cls-2" d="M438.41,82.73a7.51,7.51,0,0,1-2.57-.44,5,5,0,0,1-2-1.31L435,79.45a6.51,6.51,0,0,0,1.62,1.06,4.13,4.13,0,0,0,2.73.21,1.65,1.65,0,0,0,.82-.48,1.38,1.38,0,0,0-.12-1.89,3.62,3.62,0,0,0-1.09-.58q-.66-.22-1.44-.42A5.37,5.37,0,0,1,435.14,76a2.87,2.87,0,0,1-.81-2.07,3.27,3.27,0,0,1,.49-1.74,3.74,3.74,0,0,1,1.49-1.33,5.06,5.06,0,0,1,2.4-.53,8.19,8.19,0,0,1,2.31.3,5.73,5.73,0,0,1,1.92,1l-1.11,1.64a3.49,3.49,0,0,0-1.28-.81,4.14,4.14,0,0,0-1.33-.27,3.29,3.29,0,0,0-1,.16,2,2,0,0,0-.75.45,1.05,1.05,0,0,0-.28.76,1.09,1.09,0,0,0,.4,1,3.68,3.68,0,0,0,1.1.58l1.35.45a7,7,0,0,1,1.62.68,3.65,3.65,0,0,1,1.15,1.05,2.68,2.68,0,0,1,.44,1.56,3.75,3.75,0,0,1-.53,1.94,3.63,3.63,0,0,1-1.59,1.42A6.12,6.12,0,0,1,438.41,82.73Z"/><path class="cls-2" d="M450.62,82.73a7.51,7.51,0,0,1-2.57-.44A5,5,0,0,1,446,81l1.17-1.53a6.51,6.51,0,0,0,1.62,1.06,4.13,4.13,0,0,0,2.73.21,1.65,1.65,0,0,0,.82-.48,1.38,1.38,0,0,0-.12-1.89,3.62,3.62,0,0,0-1.09-.58q-.66-.22-1.44-.42A5.37,5.37,0,0,1,447.35,76a2.87,2.87,0,0,1-.81-2.07A3.27,3.27,0,0,1,447,72.2a3.74,3.74,0,0,1,1.49-1.33,5.06,5.06,0,0,1,2.4-.53,8.19,8.19,0,0,1,2.31.3,5.73,5.73,0,0,1,1.92,1L454,73.29a3.49,3.49,0,0,0-1.28-.81,4.14,4.14,0,0,0-1.33-.27,3.29,3.29,0,0,0-1,.16,2,2,0,0,0-.75.45,1.05,1.05,0,0,0-.28.76,1.09,1.09,0,0,0,.4,1,3.68,3.68,0,0,0,1.1.58l1.35.45a7,7,0,0,1,1.62.68A3.65,3.65,0,0,1,455,77.29a2.68,2.68,0,0,1,.44,1.56,3.75,3.75,0,0,1-.53,1.94,3.63,3.63,0,0,1-1.59,1.42A6.12,6.12,0,0,1,450.62,82.73Z"/><path class="cls-2" d="M465.11,82.79a7.73,7.73,0,0,1-3.66-.81,5.89,5.89,0,0,1-2.37-2.21,6.14,6.14,0,0,1-.84-3.22,5.52,5.52,0,0,1,.94-3.14,6.87,6.87,0,0,1,2.51-2.27,7.12,7.12,0,0,1,3.48-.85,6.11,6.11,0,0,1,4.08,1.36,6.93,6.93,0,0,1,2.22,3.74l-10.26,3.4-.66-1.56,8.37-2.92-.57.4a3.91,3.91,0,0,0-1.2-1.62,3.39,3.39,0,0,0-2.19-.68,4,4,0,0,0-2,.51,3.69,3.69,0,0,0-1.39,1.41,4.11,4.11,0,0,0-.51,2.08,4.28,4.28,0,0,0,.52,2.13A3.75,3.75,0,0,0,463,80a4.36,4.36,0,0,0,2.15.52,4.44,4.44,0,0,0,1.57-.28,7.42,7.42,0,0,0,1.46-.74l1.26,2a8.9,8.9,0,0,1-2.09,1A7.27,7.27,0,0,1,465.11,82.79Z"/><path class="cls-2" d="M490.19,82.79a7.7,7.7,0,0,1-3.66-.81,5.82,5.82,0,0,1-2.37-2.21,6.14,6.14,0,0,1-.84-3.22,5.52,5.52,0,0,1,.94-3.14,6.79,6.79,0,0,1,2.51-2.27,7.06,7.06,0,0,1,3.48-.85,6.13,6.13,0,0,1,4.08,1.36,6.92,6.92,0,0,1,2.21,3.74l-10.25,3.4-.66-1.56L494,74.31l-.57.4a3.91,3.91,0,0,0-1.2-1.62,3.39,3.39,0,0,0-2.19-.68,4,4,0,0,0-2,.51,3.69,3.69,0,0,0-1.39,1.41,4.11,4.11,0,0,0-.51,2.08,4.28,4.28,0,0,0,.52,2.13A3.75,3.75,0,0,0,488.1,80a4.36,4.36,0,0,0,2.15.52,4.44,4.44,0,0,0,1.57-.28,7.71,7.71,0,0,0,1.46-.74l1.26,2a8.9,8.9,0,0,1-2.09,1A7.27,7.27,0,0,1,490.19,82.79Z"/><path class="cls-2" d="M515.27,82.79a7.7,7.7,0,0,1-3.66-.81,5.85,5.85,0,0,1-2.38-2.21,6.14,6.14,0,0,1-.84-3.22,5.53,5.53,0,0,1,.95-3.14,6.84,6.84,0,0,1,2.5-2.27,7.12,7.12,0,0,1,3.48-.85,6.11,6.11,0,0,1,4.08,1.36,7,7,0,0,1,2.23,3.74l-10.26,3.4-.66-1.56,8.36-2.92-.57.4a3.74,3.74,0,0,0-1.2-1.62,3.36,3.36,0,0,0-2.18-.68,4,4,0,0,0-2,.51,3.69,3.69,0,0,0-1.39,1.41,4,4,0,0,0-.51,2.08,4.28,4.28,0,0,0,.52,2.13A3.75,3.75,0,0,0,513.18,80a4.35,4.35,0,0,0,2.14.52,4.46,4.46,0,0,0,1.58-.28,7.71,7.71,0,0,0,1.46-.74l1.26,2a9.09,9.09,0,0,1-2.09,1A7.32,7.32,0,0,1,515.27,82.79Z"/><path class="cls-2" d="M528.58,82.73a7.45,7.45,0,0,1-2.56-.44A5,5,0,0,1,524,81l1.17-1.53a6.51,6.51,0,0,0,1.62,1.06,4,4,0,0,0,1.63.35,3.9,3.9,0,0,0,1.1-.14,1.68,1.68,0,0,0,.83-.48,1.38,1.38,0,0,0-.12-1.89,3.68,3.68,0,0,0-1.1-.58q-.66-.22-1.44-.42A5.37,5.37,0,0,1,525.31,76a2.87,2.87,0,0,1-.81-2.07,3.28,3.28,0,0,1,.5-1.74,3.71,3.71,0,0,1,1.48-1.33,5.06,5.06,0,0,1,2.4-.53,8.31,8.31,0,0,1,2.32.3,5.83,5.83,0,0,1,1.92,1L532,73.29a3.45,3.45,0,0,0-1.27-.81,4.19,4.19,0,0,0-1.34-.27,3.27,3.27,0,0,0-1,.16,2,2,0,0,0-.75.45,1.06,1.06,0,0,0-.29.76,1.1,1.1,0,0,0,.41,1,3.62,3.62,0,0,0,1.09.58l1.36.45a7.09,7.09,0,0,1,1.61.68A3.68,3.68,0,0,1,533,77.29a2.68,2.68,0,0,1,.43,1.56,3.74,3.74,0,0,1-.52,1.94,3.63,3.63,0,0,1-1.59,1.42A6.16,6.16,0,0,1,528.58,82.73Z"/><path class="cls-2" d="M547.39,81.4a6.14,6.14,0,0,1-2,1,7.62,7.62,0,0,1-2.34.37,7.92,7.92,0,0,1-3.55-.76,5.84,5.84,0,0,1-2.42-2.16,6,6,0,0,1-.86-3.26,5.66,5.66,0,0,1,.92-3.25,6.35,6.35,0,0,1,2.42-2.12,7,7,0,0,1,3.22-.75,8.5,8.5,0,0,1,2.66.38A6.19,6.19,0,0,1,547.48,72l-1.41,1.7a6.23,6.23,0,0,0-1.3-.69,4.56,4.56,0,0,0-1.76-.33,4,4,0,0,0-2,.53,3.82,3.82,0,0,0-1.44,1.41,4,4,0,0,0,1.51,5.49,4.49,4.49,0,0,0,2.23.54,4.59,4.59,0,0,0,1.45-.23,4.67,4.67,0,0,0,1.22-.62Z"/><path class="cls-2" d="M556.75,82.79a7.73,7.73,0,0,1-3.66-.81,5.89,5.89,0,0,1-2.37-2.21,6.14,6.14,0,0,1-.84-3.22,5.53,5.53,0,0,1,1-3.14,6.84,6.84,0,0,1,2.5-2.27,7.12,7.12,0,0,1,3.48-.85,6.11,6.11,0,0,1,4.08,1.36,6.93,6.93,0,0,1,2.22,3.74l-10.26,3.4-.66-1.56,8.37-2.92-.57.4a3.91,3.91,0,0,0-1.2-1.62,3.39,3.39,0,0,0-2.19-.68,4,4,0,0,0-2,.51,3.72,3.72,0,0,0-1.4,1.41,4.11,4.11,0,0,0-.51,2.08,4.29,4.29,0,0,0,.53,2.13A3.75,3.75,0,0,0,554.67,80a4.32,4.32,0,0,0,2.14.52,4.5,4.5,0,0,0,1.58-.28,7.34,7.34,0,0,0,1.45-.74l1.26,2a8.82,8.82,0,0,1-2.08,1A7.33,7.33,0,0,1,556.75,82.79Z"/><path class="cls-2" d="M23.91,116.76a7.7,7.7,0,0,1-2.56-.44A5,5,0,0,1,19.29,115l1.17-1.53a6.24,6.24,0,0,0,1.62,1.06,4,4,0,0,0,1.62.36,4.32,4.32,0,0,0,1.11-.14,1.69,1.69,0,0,0,.82-.49,1.19,1.19,0,0,0,.32-.88,1.24,1.24,0,0,0-.43-1,3.58,3.58,0,0,0-1.1-.58c-.44-.15-.92-.3-1.44-.43A5.36,5.36,0,0,1,20.64,110a2.9,2.9,0,0,1-.81-2.07,3.29,3.29,0,0,1,.5-1.75,3.78,3.78,0,0,1,1.48-1.33,5.07,5.07,0,0,1,2.4-.52,8.19,8.19,0,0,1,2.31.3,5.53,5.53,0,0,1,1.92,1l-1.11,1.65a3.49,3.49,0,0,0-1.28-.81,3.89,3.89,0,0,0-1.33-.27,3.05,3.05,0,0,0-1,.16,1.82,1.82,0,0,0-.75.45,1.09,1.09,0,0,0-.28.75,1.07,1.07,0,0,0,.41,1,3.41,3.41,0,0,0,1.09.58l1.35.45a6.59,6.59,0,0,1,1.62.69,3.52,3.52,0,0,1,1.15,1,2.61,2.61,0,0,1,.44,1.56,3.81,3.81,0,0,1-.53,1.95,3.59,3.59,0,0,1-1.58,1.41A6.16,6.16,0,0,1,23.91,116.76Z"/><path class="cls-2" d="M40,116.81a6.14,6.14,0,0,1-2.71-.62,4.75,4.75,0,0,1-2-1.67l.15-.82v8.47H32.61V104.62H35l.39,3-.3-.85A7,7,0,0,1,37.41,105a6.69,6.69,0,0,1,3.09-.7,6.27,6.27,0,0,1,3.13.78,5.66,5.66,0,0,1,2.21,2.21,6.68,6.68,0,0,1,.81,3.33,6.11,6.11,0,0,1-.87,3.28,5.79,5.79,0,0,1-2.39,2.15A7.62,7.62,0,0,1,40,116.81Zm-.54-2.09a4.6,4.6,0,0,0,2.19-.53,4.35,4.35,0,0,0,1.6-1.44,3.62,3.62,0,0,0,.62-2.09,3.92,3.92,0,0,0-.57-2.11,4.12,4.12,0,0,0-1.51-1.45,4.3,4.3,0,0,0-2.12-.52,4.88,4.88,0,0,0-2,.38A3.89,3.89,0,0,0,36.24,108a4,4,0,0,0-.81,1.61v2a3.47,3.47,0,0,0,.72,1.56,4.19,4.19,0,0,0,3.27,1.53Z"/><path class="cls-2" d="M56.19,116.81a7.73,7.73,0,0,1-3.66-.8,5.91,5.91,0,0,1-2.37-2.22,6.1,6.1,0,0,1-.84-3.21,5.48,5.48,0,0,1,1-3.15,6.85,6.85,0,0,1,2.5-2.27,7.12,7.12,0,0,1,3.48-.85,6.11,6.11,0,0,1,4.08,1.36,7,7,0,0,1,2.22,3.74l-10.26,3.41-.66-1.56L60,108.34l-.57.39a3.82,3.82,0,0,0-1.2-1.61,3.33,3.33,0,0,0-2.19-.68,4,4,0,0,0-2,.51,3.76,3.76,0,0,0-1.4,1.4,4.15,4.15,0,0,0-.51,2.09,4.35,4.35,0,0,0,.52,2.12A3.65,3.65,0,0,0,54.11,114a4.33,4.33,0,0,0,2.14.53,4.51,4.51,0,0,0,1.58-.29,7.3,7.3,0,0,0,1.45-.73l1.26,2a9,9,0,0,1-2.08,1A7.62,7.62,0,0,1,56.19,116.81Z"/><path class="cls-2" d="M69.51,116.76a7.7,7.7,0,0,1-2.56-.44A5,5,0,0,1,64.89,115l1.17-1.53a6.24,6.24,0,0,0,1.62,1.06,4,4,0,0,0,1.62.36,4.32,4.32,0,0,0,1.11-.14,1.69,1.69,0,0,0,.82-.49,1.19,1.19,0,0,0,.32-.88,1.24,1.24,0,0,0-.43-1,3.58,3.58,0,0,0-1.1-.58c-.44-.15-.92-.3-1.44-.43A5.36,5.36,0,0,1,66.24,110a2.9,2.9,0,0,1-.81-2.07,3.29,3.29,0,0,1,.5-1.75,3.78,3.78,0,0,1,1.48-1.33,5.07,5.07,0,0,1,2.4-.52,8.19,8.19,0,0,1,2.31.3,5.53,5.53,0,0,1,1.92,1l-1.11,1.65a3.49,3.49,0,0,0-1.28-.81,3.89,3.89,0,0,0-1.33-.27,3.05,3.05,0,0,0-1,.16,1.82,1.82,0,0,0-.75.45,1.09,1.09,0,0,0-.28.75,1.07,1.07,0,0,0,.41,1,3.3,3.3,0,0,0,1.09.58l1.35.45a6.59,6.59,0,0,1,1.62.69,3.52,3.52,0,0,1,1.15,1,2.61,2.61,0,0,1,.44,1.56,3.81,3.81,0,0,1-.53,1.95,3.62,3.62,0,0,1-1.59,1.41A6.08,6.08,0,0,1,69.51,116.76Z"/><path class="cls-2" d="M81.72,116.76a7.76,7.76,0,0,1-2.57-.44A4.92,4.92,0,0,1,77.1,115l1.17-1.53a6.24,6.24,0,0,0,1.62,1.06,4,4,0,0,0,1.62.36,4.32,4.32,0,0,0,1.11-.14,1.82,1.82,0,0,0,.83-.49,1.27,1.27,0,0,0,.31-.88,1.19,1.19,0,0,0-.44-1,3.3,3.3,0,0,0-1.09-.58c-.44-.15-.92-.3-1.44-.43A5.36,5.36,0,0,1,78.45,110a2.9,2.9,0,0,1-.81-2.07,3.28,3.28,0,0,1,.49-1.75,3.81,3.81,0,0,1,1.49-1.33,5.07,5.07,0,0,1,2.4-.52,8.19,8.19,0,0,1,2.31.3,5.53,5.53,0,0,1,1.92,1l-1.11,1.65a3.45,3.45,0,0,0-1.27-.81,3.94,3.94,0,0,0-1.34-.27,2.91,2.91,0,0,0-1,.16,1.64,1.64,0,0,0-.75.45,1,1,0,0,0-.29.75,1.11,1.11,0,0,0,.4,1,3.58,3.58,0,0,0,1.1.58l1.35.45a6.59,6.59,0,0,1,1.62.69,3.77,3.77,0,0,1,1.16,1,2.75,2.75,0,0,1,.43,1.56,3.8,3.8,0,0,1-.52,1.95,3.73,3.73,0,0,1-1.59,1.41A6.19,6.19,0,0,1,81.72,116.76Z"/><path class="cls-2" d="M89.34,110.55a5.9,5.9,0,0,1,.88-3.18,6.24,6.24,0,0,1,2.47-2.24,7.56,7.56,0,0,1,3.58-.82,7.34,7.34,0,0,1,3.54.82,6.15,6.15,0,0,1,2.39,2.24,6.06,6.06,0,0,1,.85,3.18,6,6,0,0,1-.85,3.17A6.2,6.2,0,0,1,99.81,116a7.3,7.3,0,0,1-3.57.83,7.86,7.86,0,0,1-3.55-.77,6,6,0,0,1-2.45-2.19A6,6,0,0,1,89.34,110.55Zm2.82,0a4,4,0,0,0,.54,2,4,4,0,0,0,1.44,1.46,3.89,3.89,0,0,0,2,.54,3.94,3.94,0,0,0,2.07-.54,4,4,0,0,0,1.43-1.46,4.32,4.32,0,0,0,0-4.11,4.19,4.19,0,0,0-1.43-1.47,3.87,3.87,0,0,0-2.07-.56,3.77,3.77,0,0,0-2.05.57,4.19,4.19,0,0,0-1.44,1.49A3.92,3.92,0,0,0,92.16,110.58Z"/><path class="cls-2" d="M126.36,115.43a6.55,6.55,0,0,1-2,1,8.3,8.3,0,0,1-5.89-.4,5.78,5.78,0,0,1-2.42-2.16,6,6,0,0,1-.87-3.26,5.64,5.64,0,0,1,.93-3.24,6.27,6.27,0,0,1,2.41-2.13,7.07,7.07,0,0,1,3.23-.75,8.74,8.74,0,0,1,2.65.38,6.43,6.43,0,0,1,2.06,1.09L125,107.69a6.32,6.32,0,0,0-1.31-.7,4.51,4.51,0,0,0-1.75-.33,4,4,0,0,0-2,.53,3.8,3.8,0,0,0-1.45,1.42,4.11,4.11,0,0,0,0,4,4,4,0,0,0,1.5,1.44,4.45,4.45,0,0,0,2.22.54,4.38,4.38,0,0,0,1.46-.23,4.33,4.33,0,0,0,1.21-.62Z"/><path class="cls-2" d="M128.85,110.55a5.9,5.9,0,0,1,.88-3.18,6.28,6.28,0,0,1,2.46-2.24,7.63,7.63,0,0,1,3.59-.82,7.34,7.34,0,0,1,3.54.82,6,6,0,0,1,3.24,5.42,6,6,0,0,1-.86,3.17,6.17,6.17,0,0,1-2.38,2.26,7.3,7.3,0,0,1-3.57.83,7.93,7.93,0,0,1-3.56-.77,6.09,6.09,0,0,1-2.44-2.19A6,6,0,0,1,128.85,110.55Zm2.82,0a4,4,0,0,0,.54,2,4,4,0,0,0,1.44,1.46,3.89,3.89,0,0,0,2,.54,3.94,3.94,0,0,0,2.07-.54,3.9,3.9,0,0,0,1.42-1.46,4.14,4.14,0,0,0-1.42-5.58,3.87,3.87,0,0,0-2.07-.56,3.82,3.82,0,0,0-2.06.57,4.19,4.19,0,0,0-1.44,1.49A4,4,0,0,0,131.67,110.58Z"/><path class="cls-2" d="M148.83,104.79l.21,2.87-.09-.46a4.43,4.43,0,0,1,1.92-2.08,6.18,6.18,0,0,1,3.15-.78,4.21,4.21,0,0,1,2.86,1,3.3,3.3,0,0,1,1.16,2.53v8.68h-2.82v-7.77a2.31,2.31,0,0,0-.59-1.54,2.2,2.2,0,0,0-1.72-.61,3.59,3.59,0,0,0-1.94.56,3.87,3.87,0,0,0-1.38,1.56,5.12,5.12,0,0,0-.49,2.3v5.5h-2.82V104.79Z"/><path class="cls-2" d="M172.35,94.59h2.82v21.94h-2.82Z"/><path class="cls-2" d="M178.92,110.55a5.9,5.9,0,0,1,.88-3.18,6.28,6.28,0,0,1,2.46-2.24,7.63,7.63,0,0,1,3.59-.82,7.34,7.34,0,0,1,3.54.82,6,6,0,0,1,3.24,5.42,6,6,0,0,1-.86,3.17,6.17,6.17,0,0,1-2.38,2.26,7.3,7.3,0,0,1-3.57.83,7.93,7.93,0,0,1-3.56-.77,6.09,6.09,0,0,1-2.44-2.19A6,6,0,0,1,178.92,110.55Zm2.82,0a4,4,0,0,0,.54,2,4,4,0,0,0,1.44,1.46,3.89,3.89,0,0,0,2,.54,3.94,3.94,0,0,0,2.07-.54,3.9,3.9,0,0,0,1.42-1.46,4.14,4.14,0,0,0-1.42-5.58,3.87,3.87,0,0,0-2.07-.56,3.82,3.82,0,0,0-2.06.57,4.19,4.19,0,0,0-1.44,1.49A4,4,0,0,0,181.74,110.58Z"/><path class="cls-2" d="M198.87,104.79l.27,3.41-.12-.49a5.17,5.17,0,0,1,1.38-1.81,6.61,6.61,0,0,1,1.92-1.16,5.47,5.47,0,0,1,1.74-.43l-.12,2.67a4.29,4.29,0,0,0-2.51.49,4.76,4.76,0,0,0-1.68,1.59,3.89,3.89,0,0,0-.61,2.11v5.36h-2.79V104.79Z"/><path class="cls-2" d="M206,110.55a5.9,5.9,0,0,1,.88-3.18,6.28,6.28,0,0,1,2.46-2.24,7.63,7.63,0,0,1,3.59-.82,7.34,7.34,0,0,1,3.54.82,6,6,0,0,1,3.24,5.42,6,6,0,0,1-.86,3.17,6.17,6.17,0,0,1-2.38,2.26,7.3,7.3,0,0,1-3.57.83,7.93,7.93,0,0,1-3.56-.77,6.09,6.09,0,0,1-2.44-2.19A6,6,0,0,1,206,110.55Zm2.82,0a4,4,0,0,0,.54,2,4,4,0,0,0,1.44,1.46,3.89,3.89,0,0,0,2,.54,3.94,3.94,0,0,0,2.07-.54,3.9,3.9,0,0,0,1.42-1.46,4.14,4.14,0,0,0-1.42-5.58,3.87,3.87,0,0,0-2.07-.56,3.82,3.82,0,0,0-2.06.57,4.19,4.19,0,0,0-1.44,1.49A4,4,0,0,0,208.83,110.58Z"/><path class="cls-2" d="M222.55,114a1.6,1.6,0,0,1,1.1-.45,1.52,1.52,0,0,1,1,.45,1.41,1.41,0,0,1,.5,1.08,1.35,1.35,0,0,1-.5,1.09,1.61,1.61,0,0,1-1,.41,1.71,1.71,0,0,1-1.1-.41,1.35,1.35,0,0,1-.5-1.09A1.41,1.41,0,0,1,222.55,114Z"/><path class="cls-2" d="M244.46,96a10,10,0,0,1,4.06.75A5.9,5.9,0,0,1,251.11,99a6.21,6.21,0,0,1,.92,3.43,7.6,7.6,0,0,1-.4,2.4,5.9,5.9,0,0,1-1.24,2.13,6.26,6.26,0,0,1-2.24,1.53,8.76,8.76,0,0,1-3.36.58h-3.2v7.51h-2.91V96Zm.31,10.29a5,5,0,0,0,2.12-.38,3.26,3.26,0,0,0,1.32-1,3.79,3.79,0,0,0,.69-1.27,4,4,0,0,0,.22-1.22,4.26,4.26,0,0,0-.22-1.29,3.2,3.2,0,0,0-.7-1.22,3.79,3.79,0,0,0-1.29-.91,4.94,4.94,0,0,0-2-.35h-3.36v7.65Z"/><path class="cls-2" d="M261.6,116.81a7.7,7.7,0,0,1-3.66-.8,5.94,5.94,0,0,1-2.38-2.22,6.1,6.1,0,0,1-.84-3.21,5.56,5.56,0,0,1,.95-3.15,6.93,6.93,0,0,1,2.5-2.27,7.14,7.14,0,0,1,3.48-.85,6.11,6.11,0,0,1,4.08,1.36,7,7,0,0,1,2.23,3.74l-10.26,3.41-.66-1.56,8.36-2.92-.57.39a3.66,3.66,0,0,0-1.2-1.61,3.31,3.31,0,0,0-2.18-.68,4,4,0,0,0-2,.51,3.74,3.74,0,0,0-1.39,1.4,4,4,0,0,0-.51,2.09,4.24,4.24,0,0,0,.52,2.12,3.69,3.69,0,0,0,1.47,1.46,4.35,4.35,0,0,0,2.14.53,4.47,4.47,0,0,0,1.58-.29,7.66,7.66,0,0,0,1.46-.73l1.26,2a9.11,9.11,0,0,1-2.09,1A7.6,7.6,0,0,1,261.6,116.81Z"/><path class="cls-2" d="M273.92,104.79l.28,3.41-.13-.49a5.09,5.09,0,0,1,1.39-1.81,6.36,6.36,0,0,1,1.92-1.16,5.35,5.35,0,0,1,1.74-.43L279,107a4.27,4.27,0,0,0-2.5.49,4.76,4.76,0,0,0-1.68,1.59,3.89,3.89,0,0,0-.61,2.11v5.36h-2.8V104.79Z"/><path class="cls-2" d="M281.06,110.55a5.91,5.91,0,0,1,.89-3.18,6.28,6.28,0,0,1,2.46-2.24,7.59,7.59,0,0,1,3.58-.82,7.38,7.38,0,0,1,3.55.82,6.19,6.19,0,0,1,2.38,2.24,6.07,6.07,0,0,1,.86,3.18,6,6,0,0,1-.86,3.17,6.24,6.24,0,0,1-2.38,2.26,7.34,7.34,0,0,1-3.58.83,7.92,7.92,0,0,1-3.55-.77,6.11,6.11,0,0,1-2.45-2.19A6,6,0,0,1,281.06,110.55Zm2.52-11.94h3.09l2.2,3.8h-1.78Zm.3,12a4,4,0,0,0,.54,2,4.06,4.06,0,0,0,1.45,1.46,3.83,3.83,0,0,0,2,.54,3.92,3.92,0,0,0,3.5-2,4.32,4.32,0,0,0,0-4.11,4.11,4.11,0,0,0-1.43-1.47,4,4,0,0,0-4.12,0,4.19,4.19,0,0,0-1.44,1.49A4,4,0,0,0,283.88,110.58Z"/><path class="cls-2" d="M301.07,114l-1.3,3c-.43,1-.87,2-1.31,3h-2.31c.42-1,.82-2,1.2-3s.76-2,1.14-3Z"/><path class="cls-2" d="M313.88,100.54a1.3,1.3,0,0,1,.53-1.05,1.79,1.79,0,0,1,1.15-.42,1.75,1.75,0,0,1,1.14.42,1.31,1.31,0,0,1,.51,1.05,1.28,1.28,0,0,1-.51,1.06,1.74,1.74,0,0,1-1.14.41,1.78,1.78,0,0,1-1.15-.41A1.28,1.28,0,0,1,313.88,100.54Zm.18,4.25h2.82v11.74h-2.82Z"/><path class="cls-2" d="M324.26,104.79l.21,2.87-.09-.46a4.43,4.43,0,0,1,1.92-2.08,6.18,6.18,0,0,1,3.15-.78,4.23,4.23,0,0,1,2.87,1,3.29,3.29,0,0,1,1.15,2.53v8.68h-2.82v-7.77a2.3,2.3,0,0,0-.58-1.54,2.22,2.22,0,0,0-1.73-.61,3.56,3.56,0,0,0-1.93.56,3.87,3.87,0,0,0-1.38,1.56,5.12,5.12,0,0,0-.5,2.3v5.5h-2.82V104.79Z"/><path class="cls-2" d="M352.85,116.87,346,104.79h3.33l4.65,9.33-1.71-.08,4.29-9.25h3.12L353,116.87Z"/><path class="cls-2" d="M367.46,116.81a7,7,0,0,1-3.16-.7A5.51,5.51,0,0,1,362,114a6.3,6.3,0,0,1-.84-3.36,6.39,6.39,0,0,1,.87-3.4,5.85,5.85,0,0,1,2.34-2.18,6.85,6.85,0,0,1,3.21-.77,5.54,5.54,0,0,1,3,.75,5.21,5.21,0,0,1,1.81,1.77l-.18.43.27-2.47h2.58v11.74h-2.79v-3.06l.33.68a3.49,3.49,0,0,1-.57.72,7.19,7.19,0,0,1-1.06.9,6.16,6.16,0,0,1-1.52.75A6.07,6.07,0,0,1,367.46,116.81Zm.75-2.18a4.59,4.59,0,0,0,1.89-.37,3.57,3.57,0,0,0,1.4-1.05,3.81,3.81,0,0,0,.76-1.58v-2.3a3.56,3.56,0,0,0-.84-1.49,4.16,4.16,0,0,0-1.44-1,4.6,4.6,0,0,0-1.83-.36,4.23,4.23,0,0,0-2.07.51,4,4,0,0,0-1.48,1.42,4,4,0,0,0-.56,2.13,3.91,3.91,0,0,0,.57,2.07,4.22,4.22,0,0,0,3.6,2Z"/><path class="cls-2" d="M382.4,104.79l.27,3.41-.12-.49a5.17,5.17,0,0,1,1.38-1.81,6.61,6.61,0,0,1,1.92-1.16,5.47,5.47,0,0,1,1.74-.43l-.12,2.67a4.26,4.26,0,0,0-2.5.49,4.76,4.76,0,0,0-1.68,1.59,3.9,3.9,0,0,0-.62,2.11v5.36h-2.79V104.79Z"/><path class="cls-2" d="M391,100.54a1.27,1.27,0,0,1,.53-1.05,1.79,1.79,0,0,1,1.15-.42,1.75,1.75,0,0,1,1.14.42,1.31,1.31,0,0,1,.51,1.05,1.28,1.28,0,0,1-.51,1.06,1.74,1.74,0,0,1-1.14.41,1.78,1.78,0,0,1-1.15-.41A1.25,1.25,0,0,1,391,100.54Zm.18,4.25H394v11.74h-2.82Z"/><path class="cls-2" d="M418.4,115.43a6.55,6.55,0,0,1-2,1,8.33,8.33,0,0,1-5.9-.4,5.81,5.81,0,0,1-2.41-2.16,6,6,0,0,1-.87-3.26,5.64,5.64,0,0,1,.93-3.24,6.27,6.27,0,0,1,2.41-2.13,7.07,7.07,0,0,1,3.23-.75,8.74,8.74,0,0,1,2.65.38,6.43,6.43,0,0,1,2.06,1.09l-1.41,1.71a6.32,6.32,0,0,0-1.31-.7,4.51,4.51,0,0,0-1.75-.33,4,4,0,0,0-2,.53,3.85,3.85,0,0,0-1.44,1.42,4.11,4.11,0,0,0,0,4,4,4,0,0,0,1.5,1.44,4.45,4.45,0,0,0,2.22.54,4.55,4.55,0,0,0,2.67-.85Z"/><path class="cls-2" d="M420.89,110.55a5.9,5.9,0,0,1,.88-3.18,6.28,6.28,0,0,1,2.46-2.24,7.63,7.63,0,0,1,3.59-.82,7.34,7.34,0,0,1,3.54.82,6,6,0,0,1,3.24,5.42,6,6,0,0,1-.86,3.17,6.17,6.17,0,0,1-2.38,2.26,7.3,7.3,0,0,1-3.57.83,7.93,7.93,0,0,1-3.56-.77,6.09,6.09,0,0,1-2.44-2.19A6,6,0,0,1,420.89,110.55Zm2.82,0a4,4,0,0,0,.54,2,4,4,0,0,0,1.44,1.46,3.89,3.89,0,0,0,2,.54,3.94,3.94,0,0,0,2.07-.54,3.9,3.9,0,0,0,1.42-1.46,4.14,4.14,0,0,0-1.42-5.58,3.87,3.87,0,0,0-2.07-.56,3.82,3.82,0,0,0-2.06.57,4.19,4.19,0,0,0-1.44,1.49A4,4,0,0,0,423.71,110.58Z"/><path class="cls-2" d="M440.87,104.79l.21,2.87-.09-.46a4.43,4.43,0,0,1,1.92-2.08,6.18,6.18,0,0,1,3.15-.78,4.21,4.21,0,0,1,2.86,1,3.3,3.3,0,0,1,1.16,2.53v8.68h-2.82v-7.77a2.31,2.31,0,0,0-.59-1.54,2.2,2.2,0,0,0-1.72-.61,3.59,3.59,0,0,0-1.94.56,3.87,3.87,0,0,0-1.38,1.56,5.12,5.12,0,0,0-.49,2.3v5.5h-2.82V104.79Z"/><path class="cls-2" d="M456.11,99.63H459v5.22h3.39v2.07H459v9.61h-2.85v-9.61h-2.25v-2.07h2.25Z"/><path class="cls-2" d="M471.5,116.81a7.73,7.73,0,0,1-3.66-.8,5.91,5.91,0,0,1-2.37-2.22,6.1,6.1,0,0,1-.84-3.21,5.55,5.55,0,0,1,.94-3.15,7,7,0,0,1,2.51-2.27,7.12,7.12,0,0,1,3.48-.85,6.11,6.11,0,0,1,4.08,1.36,7,7,0,0,1,2.22,3.74l-10.26,3.41-.66-1.56,8.37-2.92-.57.39a3.82,3.82,0,0,0-1.2-1.61,3.33,3.33,0,0,0-2.19-.68,4,4,0,0,0-2,.51,3.74,3.74,0,0,0-1.39,1.4,4.15,4.15,0,0,0-.51,2.09,4.24,4.24,0,0,0,.52,2.12,3.69,3.69,0,0,0,1.47,1.46,4.36,4.36,0,0,0,2.15.53,4.45,4.45,0,0,0,1.57-.29,7.38,7.38,0,0,0,1.46-.73l1.26,2a8.92,8.92,0,0,1-2.09,1A7.56,7.56,0,0,1,471.5,116.81Z"/><path class="cls-2" d="M484.82,116.76a7.76,7.76,0,0,1-2.57-.44A4.92,4.92,0,0,1,480.2,115l1.17-1.53a6.24,6.24,0,0,0,1.62,1.06,4,4,0,0,0,1.62.36,4.32,4.32,0,0,0,1.11-.14,1.74,1.74,0,0,0,.82-.49,1.24,1.24,0,0,0,.32-.88,1.21,1.21,0,0,0-.44-1,3.41,3.41,0,0,0-1.09-.58c-.44-.15-.92-.3-1.44-.43a5.36,5.36,0,0,1-2.34-1.33,2.9,2.9,0,0,1-.81-2.07,3.28,3.28,0,0,1,.49-1.75,3.81,3.81,0,0,1,1.49-1.33,5.07,5.07,0,0,1,2.4-.52,8.19,8.19,0,0,1,2.31.3,5.53,5.53,0,0,1,1.92,1l-1.11,1.65a3.49,3.49,0,0,0-1.28-.81,3.89,3.89,0,0,0-1.33-.27,3,3,0,0,0-1,.16,1.75,1.75,0,0,0-.75.45,1,1,0,0,0-.28.75,1.08,1.08,0,0,0,.4,1,3.46,3.46,0,0,0,1.1.58l1.35.45a6.59,6.59,0,0,1,1.62.69,3.62,3.62,0,0,1,1.15,1,2.68,2.68,0,0,1,.44,1.56,3.81,3.81,0,0,1-.53,1.95,3.67,3.67,0,0,1-1.59,1.41A6.11,6.11,0,0,1,484.82,116.76Z"/><path class="cls-2" d="M494.72,99.63h2.85v5.22H501v2.07h-3.39v9.61h-2.85v-9.61h-2.25v-2.07h2.25Z"/><path class="cls-2" d="M504.14,100.54a1.29,1.29,0,0,1,.52-1.05,1.82,1.82,0,0,1,1.16-.42,1.75,1.75,0,0,1,1.14.42,1.31,1.31,0,0,1,.51,1.05,1.28,1.28,0,0,1-.51,1.06,1.74,1.74,0,0,1-1.14.41,1.81,1.81,0,0,1-1.16-.41A1.27,1.27,0,0,1,504.14,100.54Zm.18,4.25h2.82v11.74h-2.82Z"/><path class="cls-2" d="M525,116.76a7.76,7.76,0,0,1-2.57-.44,4.92,4.92,0,0,1-2-1.32l1.17-1.53a6.24,6.24,0,0,0,1.62,1.06,4,4,0,0,0,1.62.36,4.32,4.32,0,0,0,1.11-.14,1.74,1.74,0,0,0,.82-.49,1.24,1.24,0,0,0,.32-.88,1.21,1.21,0,0,0-.44-1,3.41,3.41,0,0,0-1.09-.58c-.44-.15-.92-.3-1.44-.43a5.36,5.36,0,0,1-2.34-1.33,2.9,2.9,0,0,1-.81-2.07,3.28,3.28,0,0,1,.49-1.75,3.81,3.81,0,0,1,1.49-1.33,5.07,5.07,0,0,1,2.4-.52,8.19,8.19,0,0,1,2.31.3,5.53,5.53,0,0,1,1.92,1l-1.11,1.65a3.49,3.49,0,0,0-1.28-.81,3.89,3.89,0,0,0-1.33-.27,3,3,0,0,0-1,.16,1.75,1.75,0,0,0-.75.45,1,1,0,0,0-.28.75,1.08,1.08,0,0,0,.4,1,3.46,3.46,0,0,0,1.1.58l1.35.45a6.59,6.59,0,0,1,1.62.69,3.62,3.62,0,0,1,1.15,1,2.68,2.68,0,0,1,.44,1.56,3.81,3.81,0,0,1-.53,1.95,3.67,3.67,0,0,1-1.59,1.41A6.11,6.11,0,0,1,525,116.76Z"/><path class="cls-2" d="M532.58,110.55a5.9,5.9,0,0,1,.88-3.18,6.28,6.28,0,0,1,2.46-2.24,7.63,7.63,0,0,1,3.59-.82,7.34,7.34,0,0,1,3.54.82,6,6,0,0,1,3.24,5.42,6,6,0,0,1-.86,3.17,6.17,6.17,0,0,1-2.38,2.26,7.3,7.3,0,0,1-3.57.83,7.93,7.93,0,0,1-3.56-.77,6.09,6.09,0,0,1-2.44-2.19A6,6,0,0,1,532.58,110.55Zm2.82,0a4,4,0,0,0,.54,2,4,4,0,0,0,1.44,1.46,3.89,3.89,0,0,0,2,.54,3.94,3.94,0,0,0,2.07-.54,3.9,3.9,0,0,0,1.42-1.46,4.14,4.14,0,0,0-1.42-5.58,3.87,3.87,0,0,0-2.07-.56,3.82,3.82,0,0,0-2.06.57,4.19,4.19,0,0,0-1.44,1.49A4,4,0,0,0,535.4,110.58Z"/><path class="cls-2" d="M560.12,115.43a6.55,6.55,0,0,1-2,1,8.33,8.33,0,0,1-5.9-.4,5.81,5.81,0,0,1-2.41-2.16,5.91,5.91,0,0,1-.87-3.26,5.64,5.64,0,0,1,.93-3.24,6.27,6.27,0,0,1,2.41-2.13,7.07,7.07,0,0,1,3.23-.75,8.74,8.74,0,0,1,2.65.38,6.43,6.43,0,0,1,2.06,1.09l-1.41,1.71a6.32,6.32,0,0,0-1.31-.7,4.51,4.51,0,0,0-1.75-.33,4,4,0,0,0-2,.53,3.85,3.85,0,0,0-1.44,1.42,4.11,4.11,0,0,0,0,4,4,4,0,0,0,1.5,1.44,4.45,4.45,0,0,0,2.22.54,4.55,4.55,0,0,0,2.67-.85Z"/><path class="cls-2" d="M563.51,100.54a1.29,1.29,0,0,1,.52-1.05,1.82,1.82,0,0,1,1.16-.42,1.77,1.77,0,0,1,1.14.42,1.31,1.31,0,0,1,.51,1.05,1.28,1.28,0,0,1-.51,1.06,1.76,1.76,0,0,1-1.14.41,1.81,1.81,0,0,1-1.16-.41A1.27,1.27,0,0,1,563.51,100.54Zm.18,4.25h2.82v11.74h-2.82Z"/><path class="cls-2" d="M576.53,116.81a7.06,7.06,0,0,1-3.17-.7A5.42,5.42,0,0,1,571.1,114a7.11,7.11,0,0,1,0-6.76,5.82,5.82,0,0,1,2.33-2.18,6.92,6.92,0,0,1,3.22-.77,5.53,5.53,0,0,1,3,.75,5.33,5.33,0,0,1,1.82,1.77l-.18.43.27-2.47h2.58v11.74h-2.8v-3.06l.33.68a3.37,3.37,0,0,1-.56.72,7.89,7.89,0,0,1-1.07.9,6.26,6.26,0,0,1-1.51.75A6.11,6.11,0,0,1,576.53,116.81Zm.75-2.18a4.62,4.62,0,0,0,1.89-.37,3.61,3.61,0,0,0,1.39-1.05,3.69,3.69,0,0,0,.76-1.58v-2.3a3.56,3.56,0,0,0-.84-1.49,4.07,4.07,0,0,0-1.44-1,4.56,4.56,0,0,0-1.83-.36,4.29,4.29,0,0,0-2.07.51,3.89,3.89,0,0,0-2,3.55,3.82,3.82,0,0,0,.57,2.07,4,4,0,0,0,1.53,1.47A4.15,4.15,0,0,0,577.28,114.63Z"/><path class="cls-2" d="M589,94.59h2.81v21.94H589Z"/><path class="cls-2" d="M596.41,100.54a1.3,1.3,0,0,1,.53-1.05,1.79,1.79,0,0,1,1.15-.42,1.75,1.75,0,0,1,1.14.42,1.31,1.31,0,0,1,.51,1.05,1.28,1.28,0,0,1-.51,1.06,1.74,1.74,0,0,1-1.14.41,1.78,1.78,0,0,1-1.15-.41A1.28,1.28,0,0,1,596.41,100.54Zm.18,4.25h2.82v11.74h-2.82Z"/><path class="cls-2" d="M606.82,114l-1.3,3c-.43,1-.87,2-1.31,3H601.9c.42-1,.82-2,1.2-3s.76-2,1.14-3Z"/><path class="cls-2" d="M623.32,116.76a7.7,7.7,0,0,1-2.56-.44A5,5,0,0,1,618.7,115l1.17-1.53a6.24,6.24,0,0,0,1.62,1.06,4,4,0,0,0,1.62.36,4.32,4.32,0,0,0,1.11-.14,1.77,1.77,0,0,0,.83-.49,1.23,1.23,0,0,0,.31-.88,1.21,1.21,0,0,0-.43-1,3.46,3.46,0,0,0-1.1-.58c-.44-.15-.92-.3-1.44-.43a5.36,5.36,0,0,1-2.34-1.33,2.9,2.9,0,0,1-.81-2.07,3.29,3.29,0,0,1,.5-1.75,3.78,3.78,0,0,1,1.48-1.33,5.07,5.07,0,0,1,2.4-.52,8.19,8.19,0,0,1,2.31.3,5.53,5.53,0,0,1,1.92,1l-1.11,1.65a3.45,3.45,0,0,0-1.27-.81,3.94,3.94,0,0,0-1.34-.27,3,3,0,0,0-1,.16,1.75,1.75,0,0,0-.75.45,1.05,1.05,0,0,0-.29.75,1.09,1.09,0,0,0,.41,1,3.41,3.41,0,0,0,1.09.58l1.35.45a6.59,6.59,0,0,1,1.62.69,3.66,3.66,0,0,1,1.16,1,2.68,2.68,0,0,1,.43,1.56,3.8,3.8,0,0,1-.52,1.95,3.67,3.67,0,0,1-1.59,1.41A6.16,6.16,0,0,1,623.32,116.76Z"/><path class="cls-2" d="M631.84,100.54a1.3,1.3,0,0,1,.53-1.05,1.79,1.79,0,0,1,1.15-.42,1.75,1.75,0,0,1,1.14.42,1.31,1.31,0,0,1,.51,1.05,1.28,1.28,0,0,1-.51,1.06,1.74,1.74,0,0,1-1.14.41,1.78,1.78,0,0,1-1.15-.41A1.28,1.28,0,0,1,631.84,100.54Zm.18,4.25h2.82v11.74H632Z"/><path class="cls-2" d="M23.91,150.78a7.45,7.45,0,0,1-2.56-.44A5,5,0,0,1,19.29,149l1.17-1.53a6.3,6.3,0,0,0,1.62,1.07,4.11,4.11,0,0,0,1.62.35,4.32,4.32,0,0,0,1.11-.14,1.76,1.76,0,0,0,.82-.48,1.21,1.21,0,0,0,.32-.88,1.26,1.26,0,0,0-.43-1,3.8,3.8,0,0,0-1.1-.58q-.66-.23-1.44-.42a5.47,5.47,0,0,1-2.34-1.34,2.87,2.87,0,0,1-.81-2.07,3.28,3.28,0,0,1,.5-1.74,3.71,3.71,0,0,1,1.48-1.33,5.06,5.06,0,0,1,2.4-.53,8.19,8.19,0,0,1,2.31.3,5.55,5.55,0,0,1,1.92,1l-1.11,1.64a3.49,3.49,0,0,0-1.28-.81,3.89,3.89,0,0,0-1.33-.27,3.34,3.34,0,0,0-1,.16,1.82,1.82,0,0,0-.75.45,1.09,1.09,0,0,0-.28.75,1.06,1.06,0,0,0,.41.95,3.41,3.41,0,0,0,1.09.58c.44.16.89.31,1.35.46a7,7,0,0,1,1.62.68,3.44,3.44,0,0,1,1.15,1.05,2.57,2.57,0,0,1,.44,1.56,3.77,3.77,0,0,1-.53,1.94,3.55,3.55,0,0,1-1.58,1.42A6.16,6.16,0,0,1,23.91,150.78Z"/><path class="cls-2" d="M38.4,150.84a7.73,7.73,0,0,1-3.66-.81,6,6,0,0,1-2.37-2.21,6.16,6.16,0,0,1-.84-3.22,5.65,5.65,0,0,1,.94-3.15A7,7,0,0,1,35,139.19a7.12,7.12,0,0,1,3.48-.86,6.12,6.12,0,0,1,4.08,1.37,6.89,6.89,0,0,1,2.22,3.74l-10.26,3.4-.66-1.56,8.37-2.92-.57.4a3.85,3.85,0,0,0-1.2-1.62,3.39,3.39,0,0,0-2.19-.68,4,4,0,0,0-2,.51,3.69,3.69,0,0,0-1.39,1.41,4.11,4.11,0,0,0-.51,2.08,4.31,4.31,0,0,0,.53,2.13,3.75,3.75,0,0,0,1.47,1.46,4.32,4.32,0,0,0,2.14.52,4.5,4.5,0,0,0,1.58-.28,7.63,7.63,0,0,0,1.45-.74l1.26,2a9.24,9.24,0,0,1-2.08,1A7.38,7.38,0,0,1,38.4,150.84Z"/><path class="cls-2" d="M50.76,138.82l.21,2.86-.09-.45a4.45,4.45,0,0,1,1.92-2.09,6.18,6.18,0,0,1,3.15-.78,4.21,4.21,0,0,1,2.86,1A3.3,3.3,0,0,1,60,141.88v8.68H57.15v-7.77a2.29,2.29,0,0,0-.59-1.55,2.18,2.18,0,0,0-1.72-.61,3.52,3.52,0,0,0-1.94.57,3.85,3.85,0,0,0-1.37,1.56,5.08,5.08,0,0,0-.5,2.29v5.51H48.21V138.82Z"/><path class="cls-2" d="M66,133.66h2.85v5.21h3.39v2.07H68.85v9.62H66v-9.62H63.75v-2.07H66Z"/><path class="cls-2" d="M81.39,150.84a7.73,7.73,0,0,1-3.66-.81,6,6,0,0,1-2.37-2.21,6.16,6.16,0,0,1-.84-3.22,5.57,5.57,0,0,1,.94-3.15A6.93,6.93,0,0,1,78,139.19a7.12,7.12,0,0,1,3.48-.86,6.12,6.12,0,0,1,4.08,1.37,6.89,6.89,0,0,1,2.22,3.74l-10.26,3.4-.66-1.56,8.37-2.92-.57.4a3.85,3.85,0,0,0-1.2-1.62,3.39,3.39,0,0,0-2.19-.68,4,4,0,0,0-2,.51,3.76,3.76,0,0,0-1.39,1.41,4.11,4.11,0,0,0-.51,2.08,4.31,4.31,0,0,0,.52,2.13,3.75,3.75,0,0,0,1.47,1.46,4.39,4.39,0,0,0,2.15.52,4.5,4.5,0,0,0,1.58-.28,7.34,7.34,0,0,0,1.45-.74l1.26,2a9.32,9.32,0,0,1-2.09,1A7.27,7.27,0,0,1,81.39,150.84Z"/><path class="cls-2" d="M105.87,150.84a7.06,7.06,0,0,1-3.17-.71,5.46,5.46,0,0,1-2.26-2.08,7.13,7.13,0,0,1,0-6.77,5.92,5.92,0,0,1,2.34-2.18,6.85,6.85,0,0,1,3.21-.77,5.51,5.51,0,0,1,3,.76,5.24,5.24,0,0,1,1.82,1.77l-.18.42.27-2.46h2.58v11.74h-2.79v-3.07l.33.68a3.77,3.77,0,0,1-.57.73,7.3,7.3,0,0,1-1.07.89,6,6,0,0,1-3.49,1.05Zm.75-2.18a4.75,4.75,0,0,0,1.89-.37,3.74,3.74,0,0,0,1.39-1,3.87,3.87,0,0,0,.77-1.59v-2.3a3.62,3.62,0,0,0-.84-1.49,4.3,4.3,0,0,0-1.44-1,4.77,4.77,0,0,0-1.83-.35,4.23,4.23,0,0,0-2.07.51,3.91,3.91,0,0,0-1.49,1.42,4,4,0,0,0-.55,2.12,3.88,3.88,0,0,0,.57,2.07,4.1,4.1,0,0,0,1.53,1.48A4.15,4.15,0,0,0,106.62,148.66Z"/><path class="cls-2" d="M120.84,138.82l.21,2.86-.09-.45a4.45,4.45,0,0,1,1.92-2.09,6.18,6.18,0,0,1,3.15-.78,4.21,4.21,0,0,1,2.86,1,3.3,3.3,0,0,1,1.16,2.54v8.68h-2.82v-7.77a2.33,2.33,0,0,0-.59-1.55,2.2,2.2,0,0,0-1.72-.61,3.52,3.52,0,0,0-1.94.57,3.87,3.87,0,0,0-1.38,1.56,5.08,5.08,0,0,0-.49,2.29v5.51h-2.82V138.82Z"/><path class="cls-2" d="M145,149.45a6.55,6.55,0,0,1-2,1,7.62,7.62,0,0,1-2.34.37,7.93,7.93,0,0,1-3.56-.77,5.85,5.85,0,0,1-2.41-2.15,6,6,0,0,1-.87-3.26,5.67,5.67,0,0,1,.93-3.25,6.35,6.35,0,0,1,2.41-2.13,7.07,7.07,0,0,1,3.23-.75,8.43,8.43,0,0,1,2.65.39,6.24,6.24,0,0,1,2.06,1.09l-1.41,1.7a6.32,6.32,0,0,0-1.31-.7,4.7,4.7,0,0,0-1.75-.32,4,4,0,0,0-2,.52,3.85,3.85,0,0,0-2,3.45,3.83,3.83,0,0,0,.54,2,4,4,0,0,0,1.5,1.45,4.45,4.45,0,0,0,2.22.54,4.54,4.54,0,0,0,1.45-.23,4.28,4.28,0,0,0,1.22-.63Z"/><path class="cls-2" d="M147.48,144.57a5.84,5.84,0,0,1,.88-3.17,6.21,6.21,0,0,1,2.46-2.24,7.63,7.63,0,0,1,3.59-.83,7.35,7.35,0,0,1,3.54.83,6.19,6.19,0,0,1,2.38,8.59A6.22,6.22,0,0,1,158,150a7.3,7.3,0,0,1-3.57.84,7.81,7.81,0,0,1-3.56-.78,6.14,6.14,0,0,1-2.44-2.18A6,6,0,0,1,147.48,144.57Zm2.82,0a4,4,0,0,0,.54,2.06,4.11,4.11,0,0,0,1.44,1.46,3.89,3.89,0,0,0,2,.54,3.89,3.89,0,0,0,3.49-2,4.25,4.25,0,0,0,0-4.11,4,4,0,0,0-1.42-1.48,3.86,3.86,0,0,0-2.07-.55,3.91,3.91,0,0,0-2.06.56,4.19,4.19,0,0,0-1.44,1.49A4,4,0,0,0,150.3,144.6Z"/><path class="cls-2" d="M167.43,138.82l.27,3.4-.12-.48a5.21,5.21,0,0,1,1.38-1.82,6.61,6.61,0,0,1,1.92-1.16,5.76,5.76,0,0,1,1.74-.43L172.5,141a4.22,4.22,0,0,0-2.51.5,4.65,4.65,0,0,0-1.68,1.58,3.93,3.93,0,0,0-.61,2.12v5.36h-2.79V138.82Z"/><path class="cls-2" d="M180.93,150.84a7.06,7.06,0,0,1-3.17-.71,5.46,5.46,0,0,1-2.26-2.08,7.13,7.13,0,0,1,0-6.77,5.92,5.92,0,0,1,2.34-2.18,6.85,6.85,0,0,1,3.21-.77,5.51,5.51,0,0,1,2.95.76,5.24,5.24,0,0,1,1.82,1.77l-.18.42.27-2.46h2.58v11.74h-2.79v-3.07l.33.68a3.77,3.77,0,0,1-.57.73,7.3,7.3,0,0,1-1.07.89,6,6,0,0,1-3.49,1.05Zm.75-2.18a4.75,4.75,0,0,0,1.89-.37,3.74,3.74,0,0,0,1.39-1,3.87,3.87,0,0,0,.77-1.59v-2.3a3.62,3.62,0,0,0-.84-1.49,4.3,4.3,0,0,0-1.44-1,4.77,4.77,0,0,0-1.83-.35,4.23,4.23,0,0,0-2.07.51,3.91,3.91,0,0,0-1.49,1.42,4,4,0,0,0-.55,2.12,3.88,3.88,0,0,0,.57,2.07,4.1,4.1,0,0,0,1.53,1.48A4.15,4.15,0,0,0,181.68,148.66Z"/><path class="cls-2" d="M207.89,150.84a6.19,6.19,0,0,1-3.11-.78,5.86,5.86,0,0,1-2.21-2.21,6.53,6.53,0,0,1-.82-3.31,6.18,6.18,0,0,1,.87-3.34,5.66,5.66,0,0,1,2.34-2.13,7.28,7.28,0,0,1,3.3-.74,6.78,6.78,0,0,1,2.8.6,5.07,5.07,0,0,1,2.08,1.64l-.14.94v-12.9h2.79v21.95H213v-2.93l.33.74a7.07,7.07,0,0,1-2.3,1.77A6.87,6.87,0,0,1,207.89,150.84Zm.88-2.24a4.52,4.52,0,0,0,2-.4,4.28,4.28,0,0,0,1.44-1.06,3.87,3.87,0,0,0,.83-1.58v-2.23a3.63,3.63,0,0,0-.86-1.51,4.17,4.17,0,0,0-1.47-1,4.87,4.87,0,0,0-1.9-.36,4.35,4.35,0,0,0-2.07.51,3.87,3.87,0,0,0-2.1,3.52,3.87,3.87,0,0,0,.57,2.08,4.1,4.1,0,0,0,1.53,1.48A4.16,4.16,0,0,0,208.77,148.6Z"/><path class="cls-2" d="M220.44,134.56a1.32,1.32,0,0,1,.52-1.05,1.82,1.82,0,0,1,1.16-.42,1.77,1.77,0,0,1,1.14.42,1.33,1.33,0,0,1,.51,1.05,1.32,1.32,0,0,1-.51,1.07,1.81,1.81,0,0,1-1.14.41,1.87,1.87,0,0,1-1.16-.41A1.3,1.3,0,0,1,220.44,134.56Zm.18,4.26h2.82v11.74h-2.82Z"/><path class="cls-2" d="M233.33,150.9l-6.89-12.08h3.33l4.64,9.33-1.7-.09,4.28-9.24h3.13l-6.64,12.08Z"/><path class="cls-2" d="M248.57,150.84a7.73,7.73,0,0,1-3.66-.81,6,6,0,0,1-2.37-2.21,6.16,6.16,0,0,1-.83-3.22,5.57,5.57,0,0,1,.94-3.15,6.9,6.9,0,0,1,2.5-2.26,7.12,7.12,0,0,1,3.48-.86,6.12,6.12,0,0,1,4.08,1.37,6.89,6.89,0,0,1,2.22,3.74l-10.26,3.4-.66-1.56,8.37-2.92-.57.4a3.91,3.91,0,0,0-1.19-1.62,3.44,3.44,0,0,0-2.2-.68,4,4,0,0,0-2,.51,3.72,3.72,0,0,0-1.4,1.41,4.11,4.11,0,0,0-.51,2.08,4.31,4.31,0,0,0,.53,2.13,3.75,3.75,0,0,0,1.47,1.46,4.32,4.32,0,0,0,2.14.52,4.5,4.5,0,0,0,1.58-.28,7.34,7.34,0,0,0,1.45-.74l1.26,2a9.24,9.24,0,0,1-2.08,1A7.33,7.33,0,0,1,248.57,150.84Z"/><path class="cls-2" d="M260.9,138.82l.27,3.4-.12-.48a5.21,5.21,0,0,1,1.38-1.82,6.61,6.61,0,0,1,1.92-1.16,5.76,5.76,0,0,1,1.74-.43L266,141a4.18,4.18,0,0,0-2.5.5,4.65,4.65,0,0,0-1.68,1.58,3.94,3.94,0,0,0-.62,2.12v5.36h-2.79V138.82Z"/><path class="cls-2" d="M273.17,150.78a7.45,7.45,0,0,1-2.56-.44,5,5,0,0,1-2.06-1.32l1.17-1.53a6.3,6.3,0,0,0,1.62,1.07,4.11,4.11,0,0,0,1.62.35,4.32,4.32,0,0,0,1.11-.14,1.84,1.84,0,0,0,.83-.48,1.25,1.25,0,0,0,.31-.88,1.23,1.23,0,0,0-.43-1,3.68,3.68,0,0,0-1.1-.58q-.66-.23-1.44-.42a5.47,5.47,0,0,1-2.34-1.34,2.87,2.87,0,0,1-.81-2.07,3.28,3.28,0,0,1,.5-1.74,3.71,3.71,0,0,1,1.48-1.33,5.06,5.06,0,0,1,2.4-.53,8.19,8.19,0,0,1,2.31.3,5.55,5.55,0,0,1,1.92,1l-1.11,1.64a3.45,3.45,0,0,0-1.27-.81,3.94,3.94,0,0,0-1.34-.27,3.22,3.22,0,0,0-1,.16,1.75,1.75,0,0,0-.75.45,1.05,1.05,0,0,0-.29.75,1.08,1.08,0,0,0,.41.95,3.41,3.41,0,0,0,1.09.58c.44.16.89.31,1.35.46a7,7,0,0,1,1.62.68,3.57,3.57,0,0,1,1.16,1.05,2.64,2.64,0,0,1,.43,1.56,3.76,3.76,0,0,1-.52,1.94,3.63,3.63,0,0,1-1.59,1.42A6.16,6.16,0,0,1,273.17,150.78Z"/><path class="cls-2" d="M280.79,144.57a5.85,5.85,0,0,1,.89-3.17,6.21,6.21,0,0,1,2.46-2.24,7.59,7.59,0,0,1,3.58-.83,7.35,7.35,0,0,1,3.54.83,6.08,6.08,0,0,1,2.39,2.24,6,6,0,0,1,.85,3.17,6.06,6.06,0,0,1-.85,3.18,6.25,6.25,0,0,1-2.39,2.25,7.3,7.3,0,0,1-3.57.84,7.76,7.76,0,0,1-3.55-.78,6.16,6.16,0,0,1-2.45-2.18A6,6,0,0,1,280.79,144.57Zm2.82,0a4,4,0,0,0,.54,2.06,4.11,4.11,0,0,0,1.44,1.46,3.89,3.89,0,0,0,2,.54,3.94,3.94,0,0,0,2.07-.54,4,4,0,0,0,1.43-1.46,4.15,4.15,0,0,0-1.43-5.59,4.1,4.1,0,0,0-4.12,0,4.19,4.19,0,0,0-1.44,1.49A4,4,0,0,0,283.61,144.6Z"/><path class="cls-2" d="M312.77,150.84a6.23,6.23,0,0,1-3.12-.78,5.84,5.84,0,0,1-2.2-2.21,6.53,6.53,0,0,1-.83-3.31,6.18,6.18,0,0,1,.87-3.34,5.72,5.72,0,0,1,2.34-2.13,7.28,7.28,0,0,1,3.3-.74,6.79,6.79,0,0,1,2.81.6,5.07,5.07,0,0,1,2.08,1.64l-.15.94v-12.9h2.79v21.95h-2.79v-2.93l.33.74a7,7,0,0,1-5.43,2.47Zm.87-2.24a4.56,4.56,0,0,0,2-.4,4.28,4.28,0,0,0,1.44-1.06,3.85,3.85,0,0,0,.82-1.58v-2.23a3.61,3.61,0,0,0-.85-1.51,4.17,4.17,0,0,0-1.47-1,4.89,4.89,0,0,0-1.91-.36,4.35,4.35,0,0,0-2.07.51,4,4,0,0,0-1.53,1.42,4.12,4.12,0,0,0,0,4.18,4.26,4.26,0,0,0,1.53,1.48A4.16,4.16,0,0,0,313.64,148.6Z"/><path class="cls-2" d="M330.68,150.84a7,7,0,0,1-3.16-.71,5.49,5.49,0,0,1-2.27-2.08,7.13,7.13,0,0,1,0-6.77,5.92,5.92,0,0,1,2.34-2.18,6.85,6.85,0,0,1,3.21-.77,5.54,5.54,0,0,1,3,.76,5.21,5.21,0,0,1,1.81,1.77l-.18.42.27-2.46h2.58v11.74h-2.79v-3.07l.33.68a3.77,3.77,0,0,1-.57.73,7.18,7.18,0,0,1-1.06.89,6.16,6.16,0,0,1-1.52.75A6.06,6.06,0,0,1,330.68,150.84Zm.75-2.18a4.75,4.75,0,0,0,1.89-.37,3.78,3.78,0,0,0,1.4-1,3.85,3.85,0,0,0,.76-1.59v-2.3a3.62,3.62,0,0,0-.84-1.49,4.3,4.3,0,0,0-1.44-1,4.77,4.77,0,0,0-1.83-.35,4.23,4.23,0,0,0-2.07.51,3.88,3.88,0,0,0-1.48,1.42,4,4,0,0,0-.56,2.12,3.88,3.88,0,0,0,.57,2.07,4.1,4.1,0,0,0,1.53,1.48A4.15,4.15,0,0,0,331.43,148.66Z"/><path class="cls-2" d="M349.13,156.4a8.59,8.59,0,0,1-2.44-.32,7.27,7.27,0,0,1-1.92-.85A17,17,0,0,1,343.1,154l1.65-1.81a9.2,9.2,0,0,0,2,1.33A5.29,5.29,0,0,0,349,154a5.7,5.7,0,0,0,2.39-.44,3.28,3.28,0,0,0,1.47-1.2,3.42,3.42,0,0,0,.52-1.79l0-3.17.24.51a4.6,4.6,0,0,1-1.95,2.05,6.57,6.57,0,0,1-3.42.84,6.27,6.27,0,0,1-3.12-.82,6.41,6.41,0,0,1-2.31-2.23,6.26,6.26,0,0,1,0-6.42,6.4,6.4,0,0,1,2.39-2.23,6.61,6.61,0,0,1,3.22-.81,7.14,7.14,0,0,1,3,.64,4.81,4.81,0,0,1,2,1.63l-.18.48.27-2.26h2.58v11.82a5.15,5.15,0,0,1-.85,2.89,6,6,0,0,1-2.46,2.09A8.62,8.62,0,0,1,349.13,156.4Zm-4.29-11.83a3.81,3.81,0,0,0,.59,2.07,4.18,4.18,0,0,0,1.56,1.48,4.33,4.33,0,0,0,2.14.54,4.92,4.92,0,0,0,2-.39,4.09,4.09,0,0,0,1.48-1.06,3.86,3.86,0,0,0,.84-1.5v-2.36a3.55,3.55,0,0,0-.9-1.47,4.56,4.56,0,0,0-1.5-1,4.8,4.8,0,0,0-1.92-.37A4.43,4.43,0,0,0,347,141a4.21,4.21,0,0,0-1.56,1.43A3.82,3.82,0,0,0,344.84,144.57Z"/><path class="cls-2" d="M361.07,128.61h2.82v21.95h-2.82Z"/><path class="cls-2" d="M368.54,134.56a1.3,1.3,0,0,1,.53-1.05,1.79,1.79,0,0,1,1.15-.42,1.75,1.75,0,0,1,1.14.42,1.33,1.33,0,0,1,.51,1.05,1.32,1.32,0,0,1-.51,1.07,1.79,1.79,0,0,1-1.14.41,1.84,1.84,0,0,1-1.15-.41A1.28,1.28,0,0,1,368.54,134.56Zm.18,4.26h2.82v11.74h-2.82Z"/><path class="cls-2" d="M391,150.84a7,7,0,0,1-3.16-.71,5.43,5.43,0,0,1-2.27-2.08,7.13,7.13,0,0,1,0-6.77A5.92,5.92,0,0,1,388,139.1a6.85,6.85,0,0,1,3.21-.77,5.51,5.51,0,0,1,2.95.76,5.16,5.16,0,0,1,1.82,1.77l-.18.42.27-2.46h2.58v11.74h-2.79v-3.07l.33.68a3.77,3.77,0,0,1-.57.73,7.74,7.74,0,0,1-1.06.89,6.34,6.34,0,0,1-1.52.75A6.06,6.06,0,0,1,391,150.84Zm.75-2.18a4.75,4.75,0,0,0,1.89-.37,3.66,3.66,0,0,0,1.39-1,3.75,3.75,0,0,0,.77-1.59v-2.3a3.62,3.62,0,0,0-.84-1.49,4.3,4.3,0,0,0-1.44-1,4.77,4.77,0,0,0-1.83-.35,4.23,4.23,0,0,0-2.07.51,3.91,3.91,0,0,0-1.49,1.42,4,4,0,0,0-.55,2.12,3.88,3.88,0,0,0,.57,2.07,4.1,4.1,0,0,0,1.53,1.48A4.15,4.15,0,0,0,391.79,148.66Z"/><path class="cls-2" d="M403.46,128.61h2.82v21.95h-2.82Z"/><path class="cls-2" d="M412.31,133.66h2.85v5.21h3.39v2.07h-3.39v9.62h-2.85v-9.62h-2.25v-2.07h2.25Z"/><path class="cls-2" d="M424.43,138.82l.27,3.4-.12-.48a5.21,5.21,0,0,1,1.38-1.82,6.61,6.61,0,0,1,1.92-1.16,5.76,5.76,0,0,1,1.74-.43L429.5,141a4.22,4.22,0,0,0-2.51.5,4.65,4.65,0,0,0-1.68,1.58,3.93,3.93,0,0,0-.61,2.12v5.36h-2.79V138.82Z"/><path class="cls-2" d="M433,134.56a1.32,1.32,0,0,1,.52-1.05,1.82,1.82,0,0,1,1.16-.42,1.75,1.75,0,0,1,1.14.42,1.33,1.33,0,0,1,.51,1.05,1.32,1.32,0,0,1-.51,1.07,1.79,1.79,0,0,1-1.14.41,1.87,1.87,0,0,1-1.16-.41A1.3,1.3,0,0,1,433,134.56Zm.18,4.26H436v11.74h-2.82Z"/><path class="cls-2" d="M440,148a1.57,1.57,0,0,1,1.1-.46,1.49,1.49,0,0,1,1,.46,1.41,1.41,0,0,1,.5,1.07,1.33,1.33,0,0,1-.5,1.09,1.57,1.57,0,0,1-1,.42,1.67,1.67,0,0,1-1.1-.42,1.33,1.33,0,0,1-.49-1.09A1.4,1.4,0,0,1,440,148Z"/></g></g></svg>