<svg xmlns="http://www.w3.org/2000/svg" viewBox="0 0 672 189"><defs><style>.cls-1{fill:#fff;}.cls-2{fill:#846b4a;}</style></defs><title>ahmed testo 14</title><g id="Livello_2" data-name="Livello 2"><g id="illustrazioni"><rect class="cls-1" width="672" height="189" rx="21.32"/></g><g id="testi"><path class="cls-2" d="M49.1,46.73a5.85,5.85,0,0,1-1.26.72,13.77,13.77,0,0,1-1.79.64,16,16,0,0,1-2,.45,12.25,12.25,0,0,1-2,.17A13.69,13.69,0,0,1,37.4,48a10.61,10.61,0,0,1-3.58-2.13,9.17,9.17,0,0,1-2.27-3.21,10,10,0,0,1-.78-4A11.27,11.27,0,0,1,31.66,34a10,10,0,0,1,2.41-3.41,10.27,10.27,0,0,1,3.56-2.13,12.51,12.51,0,0,1,4.24-.72,14.1,14.1,0,0,1,3.54.41,11.92,11.92,0,0,1,2.85,1.09l-1,2.52A13.93,13.93,0,0,0,44,30.69a9.05,9.05,0,0,0-1.71-.18,10.23,10.23,0,0,0-3.49.55,7.68,7.68,0,0,0-2.67,1.59,6.94,6.94,0,0,0-1.73,2.49,8.59,8.59,0,0,0-.6,3.28,7.72,7.72,0,0,0,.6,3,6.81,6.81,0,0,0,1.73,2.41,7.83,7.83,0,0,0,2.65,1.54,10.23,10.23,0,0,0,3.42.54,12.14,12.14,0,0,0,2.16-.2,5.87,5.87,0,0,0,1.83-.62v-4H41.87V38.45H49.1Z"/><path class="cls-2" d="M53.93,26.54h2.82V48.48H53.93Z"/><path class="cls-2" d="M61.4,32.49a1.3,1.3,0,0,1,.53-1.05A1.79,1.79,0,0,1,63.08,31a1.75,1.75,0,0,1,1.14.42,1.33,1.33,0,0,1,.51,1.05,1.28,1.28,0,0,1-.51,1.06,1.75,1.75,0,0,1-1.14.42,1.79,1.79,0,0,1-1.15-.42A1.25,1.25,0,0,1,61.4,32.49Zm.18,4.26H64.4V48.48H61.58Z"/><path class="cls-2" d="M88.82,47.38a6.55,6.55,0,0,1-2,1,8.18,8.18,0,0,1-5.9-.4,5.85,5.85,0,0,1-2.41-2.15,6,6,0,0,1-.87-3.26,5.67,5.67,0,0,1,.93-3.25A6.27,6.27,0,0,1,81,37.21a7.07,7.07,0,0,1,3.23-.75,8.74,8.74,0,0,1,2.65.38,6.26,6.26,0,0,1,2.06,1.1l-1.41,1.7a6.32,6.32,0,0,0-1.31-.7,4.7,4.7,0,0,0-1.75-.32,4,4,0,0,0-2,.52A3.85,3.85,0,0,0,81,40.56,4,4,0,0,0,82.49,46a4.45,4.45,0,0,0,2.22.54,4.54,4.54,0,0,0,1.45-.22,4.28,4.28,0,0,0,1.22-.63Z"/><path class="cls-2" d="M97.58,48.77a7.06,7.06,0,0,1-3.17-.71A5.42,5.42,0,0,1,92.15,46a6.3,6.3,0,0,1-.84-3.36,6.39,6.39,0,0,1,.87-3.4A5.92,5.92,0,0,1,94.52,37a6.85,6.85,0,0,1,3.21-.77,5.5,5.5,0,0,1,3,.75,5.36,5.36,0,0,1,1.82,1.78l-.18.42.27-2.46h2.58V48.48h-2.79V45.42l.33.68a3.49,3.49,0,0,1-.57.72,6.74,6.74,0,0,1-1.07.9,6,6,0,0,1-3.49,1.05Zm.75-2.19a4.59,4.59,0,0,0,1.89-.37,3.62,3.62,0,0,0,1.39-1,3.93,3.93,0,0,0,.77-1.59v-2.3a3.56,3.56,0,0,0-.84-1.49,4.3,4.3,0,0,0-1.44-1,4.59,4.59,0,0,0-1.83-.35A4.23,4.23,0,0,0,96.2,39a3.91,3.91,0,0,0-1.49,1.42,4,4,0,0,0-.55,2.12,3.88,3.88,0,0,0,.57,2.07A4.07,4.07,0,0,0,96.26,46,4.15,4.15,0,0,0,98.33,46.58Z"/><path class="cls-2" d="M117.35,48.77a6.19,6.19,0,0,1-2.72-.63,4.72,4.72,0,0,1-2-1.67l.15-.82v8.48H110V36.58h2.43l.39,3-.3-.85A7,7,0,0,1,114.8,37a6.69,6.69,0,0,1,3.09-.7A6.29,6.29,0,0,1,121,37a5.72,5.72,0,0,1,2.21,2.21,6.69,6.69,0,0,1,.81,3.34,6.08,6.08,0,0,1-.87,3.27A5.74,5.74,0,0,1,120.78,48,7.62,7.62,0,0,1,117.35,48.77Zm-.54-2.1a4.6,4.6,0,0,0,2.19-.53,4.35,4.35,0,0,0,1.6-1.44,3.69,3.69,0,0,0,.62-2.09,4,4,0,0,0-.57-2.11,4.12,4.12,0,0,0-1.52-1.44,4.26,4.26,0,0,0-2.11-.53,4.88,4.88,0,0,0-2,.38A3.89,3.89,0,0,0,113.63,40a4,4,0,0,0-.81,1.61v2a3.38,3.38,0,0,0,.72,1.56A4.14,4.14,0,0,0,115,46.26,4.28,4.28,0,0,0,116.81,46.67Z"/><path class="cls-2" d="M127.61,32.49a1.32,1.32,0,0,1,.52-1.05,1.82,1.82,0,0,1,1.16-.42,1.75,1.75,0,0,1,1.14.42,1.33,1.33,0,0,1,.51,1.05,1.28,1.28,0,0,1-.51,1.06,1.75,1.75,0,0,1-1.14.42,1.82,1.82,0,0,1-1.16-.42A1.27,1.27,0,0,1,127.61,32.49Zm.18,4.26h2.82V48.48h-2.82Z"/><path class="cls-2" d="M136.64,31.58h2.85V36.8h3.39v2.07h-3.39v9.61h-2.85V38.87h-2.25V36.8h2.25Z"/><path class="cls-2" d="M151.43,48.77a7.06,7.06,0,0,1-3.17-.71A5.42,5.42,0,0,1,146,46a6.3,6.3,0,0,1-.84-3.36,6.39,6.39,0,0,1,.87-3.4A5.92,5.92,0,0,1,148.37,37a6.85,6.85,0,0,1,3.21-.77,5.5,5.5,0,0,1,2.95.75,5.36,5.36,0,0,1,1.82,1.78l-.18.42.27-2.46H159V48.48h-2.79V45.42l.33.68a3.49,3.49,0,0,1-.57.72,6.74,6.74,0,0,1-1.07.9,6,6,0,0,1-3.49,1.05Zm.75-2.19a4.59,4.59,0,0,0,1.89-.37,3.62,3.62,0,0,0,1.39-1,3.93,3.93,0,0,0,.77-1.59v-2.3a3.56,3.56,0,0,0-.84-1.49,4.3,4.3,0,0,0-1.44-1,4.59,4.59,0,0,0-1.83-.35,4.23,4.23,0,0,0-2.07.51,3.91,3.91,0,0,0-1.49,1.42A4,4,0,0,0,148,42.5a3.88,3.88,0,0,0,.57,2.07A4.07,4.07,0,0,0,150.11,46,4.15,4.15,0,0,0,152.18,46.58Z"/><path class="cls-2" d="M173.33,26.54h2.82V48.48h-2.82Z"/><path class="cls-2" d="M182.42,27.81l-.06,3.56c0,1.18-.05,2.38-.07,3.59h-2.42V27.81Z"/><path class="cls-2" d="M184.82,42.5a5.84,5.84,0,0,1,.88-3.17,6.13,6.13,0,0,1,2.46-2.24,7.63,7.63,0,0,1,3.59-.83,7.35,7.35,0,0,1,3.54.83,6.19,6.19,0,0,1,2.38,8.59,6.29,6.29,0,0,1-2.38,2.25,7.31,7.31,0,0,1-3.58.84,7.79,7.79,0,0,1-3.55-.78,6.18,6.18,0,0,1-2.45-2.19A6,6,0,0,1,184.82,42.5Zm2.81,0a4.09,4.09,0,0,0,2,3.51,3.84,3.84,0,0,0,2,.54,3.94,3.94,0,0,0,2.07-.54,3.83,3.83,0,0,0,1.42-1.46,4,4,0,0,0,.53-2,4.08,4.08,0,0,0-2-3.53,3.86,3.86,0,0,0-2.07-.55,3.79,3.79,0,0,0-2.06.56,4.19,4.19,0,0,0-1.44,1.49A4,4,0,0,0,187.63,42.53Z"/><path class="cls-2" d="M209.6,48.77a6.16,6.16,0,0,1-2.72-.63,4.81,4.81,0,0,1-2-1.67l.16-.82v8.48h-2.79V36.58h2.43l.38,3-.29-.85A7.05,7.05,0,0,1,207,37a6.72,6.72,0,0,1,3.09-.7,6.33,6.33,0,0,1,3.14.78,5.63,5.63,0,0,1,2.2,2.21,6.59,6.59,0,0,1,.82,3.34,6.16,6.16,0,0,1-.87,3.27A5.8,5.8,0,0,1,213,48,7.62,7.62,0,0,1,209.6,48.77Zm-.55-2.1a4.62,4.62,0,0,0,2.2-.53,4.43,4.43,0,0,0,1.6-1.44,3.69,3.69,0,0,0,.61-2.09,3.86,3.86,0,0,0-.57-2.11,4,4,0,0,0-1.51-1.44,4.29,4.29,0,0,0-2.11-.53,4.89,4.89,0,0,0-2,.38A3.85,3.85,0,0,0,205.88,40a3.91,3.91,0,0,0-.82,1.61v2a3.4,3.4,0,0,0,.73,1.56,4,4,0,0,0,1.42,1.12A4.24,4.24,0,0,0,209.05,46.67Z"/><path class="cls-2" d="M227.38,48.77a6.18,6.18,0,0,1-2.71-.63,4.66,4.66,0,0,1-2-1.67l.15-.82v8.48H220V36.58h2.42l.4,3-.31-.85A7,7,0,0,1,224.84,37a6.69,6.69,0,0,1,3.09-.7,6.29,6.29,0,0,1,3.13.78,5.79,5.79,0,0,1,2.21,2.21,6.8,6.8,0,0,1,.81,3.34,6.08,6.08,0,0,1-.87,3.27A5.74,5.74,0,0,1,230.82,48,7.66,7.66,0,0,1,227.38,48.77Zm-.53-2.1a4.63,4.63,0,0,0,2.19-.53,4.35,4.35,0,0,0,1.6-1.44,3.69,3.69,0,0,0,.62-2.09,4,4,0,0,0-.57-2.11,4.2,4.2,0,0,0-1.52-1.44,4.28,4.28,0,0,0-2.12-.53,4.87,4.87,0,0,0-1.94.38A3.81,3.81,0,0,0,223.67,40a4,4,0,0,0-.81,1.61v2a3.38,3.38,0,0,0,.72,1.56A4.14,4.14,0,0,0,225,46.26,4.28,4.28,0,0,0,226.85,46.67Z"/><path class="cls-2" d="M236.75,42.5a5.84,5.84,0,0,1,.88-3.17,6.13,6.13,0,0,1,2.46-2.24,7.63,7.63,0,0,1,3.59-.83,7.28,7.28,0,0,1,3.53.83,6.18,6.18,0,0,1,2.39,8.59,6.25,6.25,0,0,1-2.39,2.25,7.25,7.25,0,0,1-3.57.84,7.76,7.76,0,0,1-3.55-.78,6.18,6.18,0,0,1-2.45-2.19A6,6,0,0,1,236.75,42.5Zm2.81,0a4.11,4.11,0,0,0,2,3.51,3.9,3.9,0,0,0,2.05.54,4,4,0,0,0,2.07-.54,3.83,3.83,0,0,0,1.42-1.46,4,4,0,0,0,.53-2,4.08,4.08,0,0,0-2-3.53,3.88,3.88,0,0,0-2.07-.55,3.79,3.79,0,0,0-2.06.56,4.19,4.19,0,0,0-1.44,1.49A4,4,0,0,0,239.56,42.53Z"/><path class="cls-2" d="M256.7,36.75l.26,3.4-.11-.48a5.18,5.18,0,0,1,1.37-1.82,6.61,6.61,0,0,1,1.92-1.16,5.47,5.47,0,0,1,1.74-.43l-.11,2.67a4.27,4.27,0,0,0-2.51.49A4.76,4.76,0,0,0,257.58,41a3.91,3.91,0,0,0-.62,2.12v5.35h-2.78V36.75Z"/><path class="cls-2" d="M266.65,31.58h2.85V36.8h3.39v2.07H269.5v9.61h-2.85V38.87H264.4V36.8h2.25Z"/><path class="cls-2" d="M280.24,48.94a4.09,4.09,0,0,1-2.83-1,3.44,3.44,0,0,1-1.16-2.54V36.75h2.82v7.74a2.48,2.48,0,0,0,.6,1.54,2.2,2.2,0,0,0,1.68.64,3.2,3.2,0,0,0,1.85-.58,4.26,4.26,0,0,0,1.33-1.59,5,5,0,0,0,.51-2.28V36.75h2.79V48.48h-2.55L285,45.59l.18.54a4.57,4.57,0,0,1-1.11,1.43,5.32,5.32,0,0,1-1.72,1A6.35,6.35,0,0,1,280.24,48.94Z"/><path class="cls-2" d="M295.18,36.75l.21,2.86-.09-.45a4.45,4.45,0,0,1,1.92-2.09,6.18,6.18,0,0,1,3.15-.78,4.23,4.23,0,0,1,2.87,1,3.29,3.29,0,0,1,1.15,2.54v8.67h-2.82V40.71a2.32,2.32,0,0,0-.58-1.54,2.22,2.22,0,0,0-1.73-.61,3.49,3.49,0,0,0-1.93.57A3.87,3.87,0,0,0,296,40.69a5,5,0,0,0-.5,2.29v5.5h-2.82V36.75Z"/><path class="cls-2" d="M309,32.49a1.33,1.33,0,0,1,.53-1.05,1.79,1.79,0,0,1,1.15-.42,1.75,1.75,0,0,1,1.14.42,1.33,1.33,0,0,1,.51,1.05,1.28,1.28,0,0,1-.51,1.06,1.75,1.75,0,0,1-1.14.42,1.79,1.79,0,0,1-1.15-.42A1.28,1.28,0,0,1,309,32.49Zm.18,4.26H312V48.48h-2.82Z"/><path class="cls-2" d="M318.07,31.58h2.85V36.8h3.39v2.07h-3.39v9.61h-2.85V38.87h-2.25V36.8h2.25Z"/><path class="cls-2" d="M332.86,48.77a7,7,0,0,1-3.16-.71A5.44,5.44,0,0,1,327.43,46a6.3,6.3,0,0,1-.84-3.36,6.39,6.39,0,0,1,.87-3.4A5.92,5.92,0,0,1,329.8,37a6.85,6.85,0,0,1,3.21-.77,5.54,5.54,0,0,1,3,.75,5.32,5.32,0,0,1,1.81,1.78l-.18.42.27-2.46h2.58V48.48h-2.79V45.42l.33.68a3.49,3.49,0,0,1-.57.72,6.63,6.63,0,0,1-1.06.9,6.16,6.16,0,0,1-1.52.75A6.06,6.06,0,0,1,332.86,48.77Zm.75-2.19a4.59,4.59,0,0,0,1.89-.37,3.65,3.65,0,0,0,1.4-1,3.91,3.91,0,0,0,.76-1.59v-2.3a3.56,3.56,0,0,0-.84-1.49,4.3,4.3,0,0,0-1.44-1,4.59,4.59,0,0,0-1.83-.35,4.23,4.23,0,0,0-2.07.51A3.88,3.88,0,0,0,330,40.38a4,4,0,0,0-.56,2.12,3.88,3.88,0,0,0,.57,2.07A4.07,4.07,0,0,0,331.54,46,4.15,4.15,0,0,0,333.61,46.58Zm-3.51-16h3.09l2.19,3.8h-1.77Z"/><path class="cls-2" d="M359.83,48.77a6.23,6.23,0,0,1-3.12-.78,5.84,5.84,0,0,1-2.2-2.21,6.53,6.53,0,0,1-.83-3.31,6.15,6.15,0,0,1,.87-3.34A5.72,5.72,0,0,1,356.89,37a7.28,7.28,0,0,1,3.3-.74,6.79,6.79,0,0,1,2.81.6,5,5,0,0,1,2.08,1.64l-.15.94V26.54h2.79V48.48h-2.79V45.56l.33.74a7,7,0,0,1-5.43,2.47Zm.87-2.24a4.71,4.71,0,0,0,2-.4,4.28,4.28,0,0,0,1.44-1.06,3.85,3.85,0,0,0,.82-1.58V41.25a3.63,3.63,0,0,0-.85-1.5,4.34,4.34,0,0,0-1.47-1,5.08,5.08,0,0,0-1.91-.35,4.35,4.35,0,0,0-2.07.51,4,4,0,0,0-1.53,1.42,4.12,4.12,0,0,0,0,4.18A4.23,4.23,0,0,0,358.63,46,4.07,4.07,0,0,0,360.7,46.53Z"/><path class="cls-2" d="M372.37,32.49a1.33,1.33,0,0,1,.53-1.05,1.79,1.79,0,0,1,1.15-.42,1.75,1.75,0,0,1,1.14.42,1.33,1.33,0,0,1,.51,1.05,1.28,1.28,0,0,1-.51,1.06,1.75,1.75,0,0,1-1.14.42,1.79,1.79,0,0,1-1.15-.42A1.28,1.28,0,0,1,372.37,32.49Zm.18,4.26h2.82V48.48h-2.82Z"/><path class="cls-2" d="M394.87,48.77a7,7,0,0,1-3.16-.71A5.44,5.44,0,0,1,389.44,46a6.3,6.3,0,0,1-.84-3.36,6.39,6.39,0,0,1,.87-3.4A5.92,5.92,0,0,1,391.81,37a6.85,6.85,0,0,1,3.21-.77,5.54,5.54,0,0,1,3,.75,5.32,5.32,0,0,1,1.81,1.78l-.18.42.27-2.46h2.58V48.48h-2.79V45.42l.33.68a3.49,3.49,0,0,1-.57.72,7.11,7.11,0,0,1-1.06.9,6.16,6.16,0,0,1-1.52.75A6.06,6.06,0,0,1,394.87,48.77Zm.75-2.19a4.59,4.59,0,0,0,1.89-.37,3.65,3.65,0,0,0,1.4-1,3.91,3.91,0,0,0,.76-1.59v-2.3a3.56,3.56,0,0,0-.84-1.49,4.3,4.3,0,0,0-1.44-1,4.59,4.59,0,0,0-1.83-.35,4.23,4.23,0,0,0-2.07.51A4.08,4.08,0,0,0,392,44.57,4.07,4.07,0,0,0,393.55,46,4.15,4.15,0,0,0,395.62,46.58Z"/><path class="cls-2" d="M409.84,36.75l.21,2.86-.09-.45a4.45,4.45,0,0,1,1.92-2.09,6.18,6.18,0,0,1,3.15-.78,4.21,4.21,0,0,1,2.86,1,3.3,3.3,0,0,1,1.16,2.54v8.67h-2.82V40.71a2.28,2.28,0,0,0-.59-1.54,2.18,2.18,0,0,0-1.72-.61,3.52,3.52,0,0,0-1.94.57,3.85,3.85,0,0,0-1.37,1.56,5,5,0,0,0-.5,2.29v5.5h-2.82V36.75Z"/><path class="cls-2" d="M429,48.77a6.23,6.23,0,0,1-3.12-.78,5.84,5.84,0,0,1-2.2-2.21,6.43,6.43,0,0,1-.83-3.31,6.15,6.15,0,0,1,.87-3.34A5.72,5.72,0,0,1,426,37a7.28,7.28,0,0,1,3.3-.74,6.82,6.82,0,0,1,2.81.6,5.05,5.05,0,0,1,2.08,1.64l-.15.94V26.54h2.79V48.48h-2.79V45.56l.33.74A7,7,0,0,1,429,48.77Zm.87-2.24a4.75,4.75,0,0,0,2-.4,4.14,4.14,0,0,0,1.43-1.06,3.75,3.75,0,0,0,.83-1.58V41.25a3.63,3.63,0,0,0-.85-1.5,4.38,4.38,0,0,0-1.48-1,5,5,0,0,0-1.9-.35,4.35,4.35,0,0,0-2.07.51,4,4,0,0,0-1.53,1.42,4.12,4.12,0,0,0,0,4.18A4.23,4.23,0,0,0,427.75,46,4.07,4.07,0,0,0,429.82,46.53Z"/><path class="cls-2" d="M446.86,48.77a7,7,0,0,1-3.16-.71A5.38,5.38,0,0,1,441.43,46a6.3,6.3,0,0,1-.84-3.36,6.39,6.39,0,0,1,.87-3.4A5.92,5.92,0,0,1,443.8,37a6.85,6.85,0,0,1,3.21-.77A5.5,5.5,0,0,1,450,37a5.27,5.27,0,0,1,1.82,1.78l-.18.42.27-2.46h2.58V48.48h-2.79V45.42l.33.68a3.49,3.49,0,0,1-.57.72,6.63,6.63,0,0,1-1.06.9,6.34,6.34,0,0,1-1.52.75A6.06,6.06,0,0,1,446.86,48.77Zm.75-2.19a4.59,4.59,0,0,0,1.89-.37,3.54,3.54,0,0,0,1.39-1,3.81,3.81,0,0,0,.77-1.59v-2.3a3.56,3.56,0,0,0-.84-1.49,4.3,4.3,0,0,0-1.44-1,4.59,4.59,0,0,0-1.83-.35,4.23,4.23,0,0,0-2.07.51A4,4,0,0,0,444,40.38a4.05,4.05,0,0,0-.55,2.12,3.88,3.88,0,0,0,.57,2.07A4.07,4.07,0,0,0,445.54,46,4.15,4.15,0,0,0,447.61,46.58Z"/><path class="cls-2" d="M461.8,36.75l.27,3.4-.12-.48a5.21,5.21,0,0,1,1.38-1.82,6.61,6.61,0,0,1,1.92-1.16,5.47,5.47,0,0,1,1.74-.43l-.12,2.67a4.24,4.24,0,0,0-2.5.49A4.71,4.71,0,0,0,462.68,41a3.9,3.9,0,0,0-.61,2.12v5.35h-2.79V36.75Z"/><path class="cls-2" d="M475.81,48.77a7.73,7.73,0,0,1-3.66-.81,6,6,0,0,1-2.37-2.21,6.16,6.16,0,0,1-.84-3.22,5.57,5.57,0,0,1,.94-3.15,7.05,7.05,0,0,1,2.51-2.27,7.23,7.23,0,0,1,3.48-.85A6.16,6.16,0,0,1,480,37.62a7,7,0,0,1,2.22,3.75l-10.26,3.4-.66-1.56,8.37-2.92-.57.4a3.79,3.79,0,0,0-1.2-1.62,3.39,3.39,0,0,0-2.19-.68,4,4,0,0,0-2,.51,3.74,3.74,0,0,0-1.39,1.4,4.15,4.15,0,0,0-.51,2.09,4.24,4.24,0,0,0,.52,2.12A3.63,3.63,0,0,0,473.72,46a4.36,4.36,0,0,0,2.15.53,4.45,4.45,0,0,0,1.57-.29,6.87,6.87,0,0,0,1.46-.73l1.26,2a8.92,8.92,0,0,1-2.09,1A7.57,7.57,0,0,1,475.81,48.77Z"/><path class="cls-2" d="M500.29,48.77a7.06,7.06,0,0,1-3.17-.71A5.42,5.42,0,0,1,494.86,46a6.3,6.3,0,0,1-.84-3.36,6.39,6.39,0,0,1,.87-3.4A5.92,5.92,0,0,1,497.23,37a6.85,6.85,0,0,1,3.21-.77,5.5,5.5,0,0,1,2.95.75,5.36,5.36,0,0,1,1.82,1.78l-.18.42.27-2.46h2.58V48.48h-2.79V45.42l.33.68a3.49,3.49,0,0,1-.57.72,6.74,6.74,0,0,1-1.07.9,6,6,0,0,1-3.49,1.05Zm.75-2.19a4.59,4.59,0,0,0,1.89-.37,3.62,3.62,0,0,0,1.39-1,3.93,3.93,0,0,0,.77-1.59v-2.3a3.56,3.56,0,0,0-.84-1.49,4.3,4.3,0,0,0-1.44-1,4.59,4.59,0,0,0-1.83-.35,4.23,4.23,0,0,0-2.07.51,3.91,3.91,0,0,0-1.49,1.42,4,4,0,0,0-.55,2.12,3.88,3.88,0,0,0,.57,2.07A4.07,4.07,0,0,0,499,46,4.15,4.15,0,0,0,501,46.58Z"/><path class="cls-2" d="M512.71,26.54h2.82V48.48h-2.82Z"/><path class="cls-2" d="M520.36,26.54h2.82V48.48h-2.82Z"/><path class="cls-2" d="M529.45,27.81l-.06,3.56c0,1.18,0,2.38-.06,3.59H526.9V27.81Z"/><path class="cls-2" d="M538.72,48.77a7.7,7.7,0,0,1-3.66-.81,6,6,0,0,1-2.37-2.21,6.16,6.16,0,0,1-.84-3.22,5.57,5.57,0,0,1,.94-3.15,7.1,7.1,0,0,1,2.5-2.27,7.3,7.3,0,0,1,3.49-.85,6.16,6.16,0,0,1,4.08,1.36,7,7,0,0,1,2.22,3.75l-10.26,3.4-.66-1.56,8.37-2.92-.57.4a3.79,3.79,0,0,0-1.2-1.62,3.39,3.39,0,0,0-2.19-.68,4,4,0,0,0-2,.51,3.74,3.74,0,0,0-1.39,1.4,4,4,0,0,0-.51,2.09,4.24,4.24,0,0,0,.52,2.12A3.63,3.63,0,0,0,536.63,46a4.36,4.36,0,0,0,2.15.53,4.45,4.45,0,0,0,1.57-.29,6.87,6.87,0,0,0,1.46-.73l1.26,2a8.92,8.92,0,0,1-2.09,1A7.57,7.57,0,0,1,538.72,48.77Z"/><path class="cls-2" d="M552,48.71a7.71,7.71,0,0,1-2.57-.44A4.92,4.92,0,0,1,547.42,47l1.17-1.53a6.24,6.24,0,0,0,1.62,1.06,4,4,0,0,0,1.62.36,4.38,4.38,0,0,0,1.11-.14,1.74,1.74,0,0,0,.82-.49,1.21,1.21,0,0,0,.32-.87,1.23,1.23,0,0,0-.44-1,3.46,3.46,0,0,0-1.1-.58c-.43-.15-.91-.29-1.43-.43A5.31,5.31,0,0,1,548.77,42a2.86,2.86,0,0,1-.81-2.07,3.27,3.27,0,0,1,.49-1.74,3.76,3.76,0,0,1,1.49-1.34,5,5,0,0,1,2.4-.52,8.24,8.24,0,0,1,2.31.3,5.8,5.8,0,0,1,1.92,1l-1.11,1.65a3.49,3.49,0,0,0-1.28-.81,3.89,3.89,0,0,0-1.33-.27,3,3,0,0,0-1,.16,1.75,1.75,0,0,0-.75.45,1.05,1.05,0,0,0-.29.75,1.1,1.1,0,0,0,.41,1,3.52,3.52,0,0,0,1.09.58l1.36.46a6.74,6.74,0,0,1,1.62.68,3.53,3.53,0,0,1,1.15,1.05,2.64,2.64,0,0,1,.44,1.56,3.77,3.77,0,0,1-.53,1.94,3.69,3.69,0,0,1-1.59,1.42A6.15,6.15,0,0,1,552,48.71Z"/><path class="cls-2" d="M561.94,31.58h2.85V36.8h3.39v2.07h-3.39v9.61h-2.85V38.87h-2.25V36.8h2.25Z"/><path class="cls-2" d="M577.33,48.77a7.7,7.7,0,0,1-3.66-.81,6,6,0,0,1-2.38-2.21,6.16,6.16,0,0,1-.83-3.22,5.57,5.57,0,0,1,.94-3.15,7.1,7.1,0,0,1,2.5-2.27,7.28,7.28,0,0,1,3.48-.85,6.14,6.14,0,0,1,4.08,1.36,7,7,0,0,1,2.23,3.75l-10.26,3.4-.66-1.56,8.36-2.92-.57.4a3.68,3.68,0,0,0-1.19-1.62,3.41,3.41,0,0,0-2.19-.68,4,4,0,0,0-2,.51,3.74,3.74,0,0,0-1.39,1.4,4,4,0,0,0-.51,2.09,4.24,4.24,0,0,0,.52,2.12A3.63,3.63,0,0,0,575.24,46a4.35,4.35,0,0,0,2.14.53,4.47,4.47,0,0,0,1.58-.29,6.87,6.87,0,0,0,1.46-.73l1.26,2a9.11,9.11,0,0,1-2.09,1A7.63,7.63,0,0,1,577.33,48.77Z"/><path class="cls-2" d="M589.65,36.75l.28,3.4-.13-.48a5.24,5.24,0,0,1,1.39-1.82,6.49,6.49,0,0,1,1.92-1.16,5.47,5.47,0,0,1,1.74-.43l-.13,2.67a4.27,4.27,0,0,0-2.5.49A4.76,4.76,0,0,0,590.54,41a3.9,3.9,0,0,0-.61,2.12v5.35h-2.8V36.75Z"/><path class="cls-2" d="M596.79,42.5a5.85,5.85,0,0,1,.89-3.17,6.13,6.13,0,0,1,2.46-2.24,7.59,7.59,0,0,1,3.58-.83,7.39,7.39,0,0,1,3.55.83,6,6,0,0,1,3.24,5.41,6.07,6.07,0,0,1-.86,3.18,6.22,6.22,0,0,1-2.38,2.25,7.33,7.33,0,0,1-3.57.84,7.81,7.81,0,0,1-3.56-.78,6,6,0,0,1-2.44-2.19A6,6,0,0,1,596.79,42.5Zm2.83,0a3.94,3.94,0,0,0,.53,2A4,4,0,0,0,601.6,46a3.88,3.88,0,0,0,2,.54,4,4,0,0,0,2.08-.54,3.9,3.9,0,0,0,1.42-1.46,4,4,0,0,0,.52-2,4.1,4.1,0,0,0-.52-2.06A4.17,4.17,0,0,0,605.71,39a3.87,3.87,0,0,0-2.08-.55,3.81,3.81,0,0,0-2,.56,4.19,4.19,0,0,0-1.44,1.49A4,4,0,0,0,599.62,42.53Z"/><path class="cls-2" d="M41.51,81.4a6.14,6.14,0,0,1-2,1,7.62,7.62,0,0,1-2.34.37A7.86,7.86,0,0,1,33.61,82a5.78,5.78,0,0,1-2.42-2.16,6,6,0,0,1-.87-3.26,5.67,5.67,0,0,1,.93-3.25,6.35,6.35,0,0,1,2.42-2.12,7,7,0,0,1,3.22-.75,8.4,8.4,0,0,1,2.65.38A6.14,6.14,0,0,1,41.6,72l-1.41,1.7A6.08,6.08,0,0,0,38.88,73a4.47,4.47,0,0,0-1.75-.33,4,4,0,0,0-2,.53,4,4,0,0,0-1.43,5.45,4,4,0,0,0,1.5,1.45,4.45,4.45,0,0,0,2.22.54,4.49,4.49,0,0,0,2.67-.85Z"/><path class="cls-2" d="M44,76.53a5.85,5.85,0,0,1,.88-3.18,6.17,6.17,0,0,1,2.47-2.24,7.56,7.56,0,0,1,3.58-.82,7.34,7.34,0,0,1,3.54.82,6.08,6.08,0,0,1,2.39,2.24,6.35,6.35,0,0,1,0,6.35A6.2,6.2,0,0,1,54.47,82a7.41,7.41,0,0,1-3.57.83A7.76,7.76,0,0,1,47.35,82a6.1,6.1,0,0,1-2.45-2.18A6,6,0,0,1,44,76.53Zm2.82,0a4,4,0,0,0,.54,2.06,4.11,4.11,0,0,0,1.44,1.46,3.89,3.89,0,0,0,2,.54,3.94,3.94,0,0,0,2.07-.54,4.2,4.2,0,0,0,1.43-5.57A4.14,4.14,0,0,0,52.91,73a3.86,3.86,0,0,0-2.07-.55,3.77,3.77,0,0,0-2.05.57,4.11,4.11,0,0,0-1.44,1.49A3.91,3.91,0,0,0,46.82,76.55Z"/><path class="cls-2" d="M64,70.77l.24,2.64-.15-.23a5.2,5.2,0,0,1,2-2.11A5.51,5.51,0,0,1,69,70.29a5,5,0,0,1,1.83.32,3.54,3.54,0,0,1,1.33.91,2.83,2.83,0,0,1,.68,1.4l-.15.12a5.07,5.07,0,0,1,2-2,5.36,5.36,0,0,1,2.68-.72,4.07,4.07,0,0,1,2.89,1,3.49,3.49,0,0,1,1.13,2.52v8.71H78.56V74.77a2.79,2.79,0,0,0-.46-1.52,1.82,1.82,0,0,0-1.52-.64,3.31,3.31,0,0,0-1.94.61,4.09,4.09,0,0,0-1.32,1.59A5.25,5.25,0,0,0,72.83,77v5.56H70V74.77a2.65,2.65,0,0,0-.49-1.52A1.89,1.89,0,0,0,68,72.61a3.23,3.23,0,0,0-1.92.61,4.23,4.23,0,0,0-1.32,1.6A4.92,4.92,0,0,0,64.25,77v5.53H61.43V70.77Z"/><path class="cls-2" d="M92,82.79A7.73,7.73,0,0,1,88.31,82a5.89,5.89,0,0,1-2.37-2.21,6.14,6.14,0,0,1-.84-3.22A5.52,5.52,0,0,1,86,73.41a7,7,0,0,1,2.51-2.27A7.12,7.12,0,0,1,92,70.29a6.11,6.11,0,0,1,4.08,1.36,6.89,6.89,0,0,1,2.22,3.74l-10.26,3.4-.66-1.56,8.37-2.92-.57.4A3.91,3.91,0,0,0,94,73.09a3.39,3.39,0,0,0-2.19-.68,4,4,0,0,0-2,.51,3.76,3.76,0,0,0-1.39,1.41,4.11,4.11,0,0,0-.51,2.08,4.28,4.28,0,0,0,.52,2.13A3.75,3.75,0,0,0,89.88,80a4.39,4.39,0,0,0,2.15.52,4.5,4.5,0,0,0,1.58-.28,7.34,7.34,0,0,0,1.45-.74l1.26,2a8.51,8.51,0,0,1-2.09,1A7.27,7.27,0,0,1,92,82.79Z"/><path class="cls-2" d="M113.81,70.77l.24,2.64-.15-.23a5.24,5.24,0,0,1,2-2.11,5.57,5.57,0,0,1,3-.78,5,5,0,0,1,1.83.32,3.54,3.54,0,0,1,1.33.91,2.83,2.83,0,0,1,.68,1.4l-.15.12a5.11,5.11,0,0,1,2-2,5.4,5.4,0,0,1,2.69-.72,4.07,4.07,0,0,1,2.89,1,3.49,3.49,0,0,1,1.13,2.52v8.71h-2.82V74.77a2.71,2.71,0,0,0-.47-1.52,1.78,1.78,0,0,0-1.51-.64,3.31,3.31,0,0,0-1.94.61,4.09,4.09,0,0,0-1.32,1.59,5.25,5.25,0,0,0-.49,2.14v5.56h-2.82V74.77a2.58,2.58,0,0,0-.5-1.52,1.87,1.87,0,0,0-1.54-.64,3.23,3.23,0,0,0-1.92.61,4.23,4.23,0,0,0-1.32,1.6,4.92,4.92,0,0,0-.48,2.16v5.53h-2.82V70.77Z"/><path class="cls-2" d="M141.8,82.79a7.73,7.73,0,0,1-3.66-.81,5.89,5.89,0,0,1-2.37-2.21,6.14,6.14,0,0,1-.84-3.22,5.52,5.52,0,0,1,.94-3.14,7,7,0,0,1,2.51-2.27,7.12,7.12,0,0,1,3.48-.85,6.11,6.11,0,0,1,4.08,1.36,6.89,6.89,0,0,1,2.22,3.74l-10.26,3.4-.66-1.56,8.37-2.92-.57.4a3.91,3.91,0,0,0-1.2-1.62,3.39,3.39,0,0,0-2.19-.68,4,4,0,0,0-2,.51,3.69,3.69,0,0,0-1.39,1.41,4.11,4.11,0,0,0-.51,2.08,4.28,4.28,0,0,0,.52,2.13A3.75,3.75,0,0,0,139.71,80a4.36,4.36,0,0,0,2.15.52,4.44,4.44,0,0,0,1.57-.28,7.42,7.42,0,0,0,1.46-.74l1.26,2a8.51,8.51,0,0,1-2.09,1A7.27,7.27,0,0,1,141.8,82.79Z"/><path class="cls-2" d="M156.68,82.79a6.23,6.23,0,0,1-3.12-.78,5.86,5.86,0,0,1-2.21-2.21,6.49,6.49,0,0,1-.82-3.3,6.19,6.19,0,0,1,.87-3.35A5.79,5.79,0,0,1,153.74,71a7.27,7.27,0,0,1,3.3-.73,6.9,6.9,0,0,1,2.8.59,5,5,0,0,1,2.09,1.65l-.15.93V60.56h2.79v22h-2.79V79.59l.33.73a7.12,7.12,0,0,1-2.3,1.78A7,7,0,0,1,156.68,82.79Zm.87-2.24a4.52,4.52,0,0,0,2-.4A4.15,4.15,0,0,0,161,79.09a3.83,3.83,0,0,0,.83-1.57V75.28a3.63,3.63,0,0,0-.86-1.51,4.17,4.17,0,0,0-1.47-1,4.84,4.84,0,0,0-1.9-.36,4.35,4.35,0,0,0-2.07.51A4,4,0,0,0,154,74.34a4.12,4.12,0,0,0,0,4.18A4.26,4.26,0,0,0,155.48,80,4.06,4.06,0,0,0,157.55,80.55Z"/><path class="cls-2" d="M169.22,66.52a1.29,1.29,0,0,1,.52-1A1.78,1.78,0,0,1,170.9,65a1.71,1.71,0,0,1,1.14.43,1.35,1.35,0,0,1,0,2.11,1.79,1.79,0,0,1-1.14.41,1.87,1.87,0,0,1-1.16-.41A1.28,1.28,0,0,1,169.22,66.52Zm.18,4.25h2.82V82.51H169.4Z"/><path class="cls-2" d="M187.16,81.4a6.14,6.14,0,0,1-2,1,7.62,7.62,0,0,1-2.34.37,7.93,7.93,0,0,1-3.56-.76,5.81,5.81,0,0,1-2.41-2.16,6,6,0,0,1-.87-3.26,5.67,5.67,0,0,1,.93-3.25,6.32,6.32,0,0,1,2.41-2.12,7.07,7.07,0,0,1,3.23-.75,8.44,8.44,0,0,1,2.65.38A6.24,6.24,0,0,1,187.25,72l-1.41,1.7a6.33,6.33,0,0,0-1.31-.69,4.51,4.51,0,0,0-1.75-.33,4,4,0,0,0-2,.53,3.82,3.82,0,0,0-1.44,1.41,3.93,3.93,0,0,0-.52,2,3.83,3.83,0,0,0,.54,2,4,4,0,0,0,1.5,1.45,4.45,4.45,0,0,0,2.22.54,4.55,4.55,0,0,0,2.67-.85Z"/><path class="cls-2" d="M189.65,76.53a5.85,5.85,0,0,1,.88-3.18A6.21,6.21,0,0,1,193,71.11a7.63,7.63,0,0,1,3.59-.82,7.34,7.34,0,0,1,3.54.82,6.19,6.19,0,0,1,2.38,8.59A6.17,6.17,0,0,1,200.12,82a7.41,7.41,0,0,1-3.57.83A7.81,7.81,0,0,1,193,82a6.14,6.14,0,0,1-2.44-2.18A6,6,0,0,1,189.65,76.53Zm2.82,0a4,4,0,0,0,.54,2.06,4.11,4.11,0,0,0,1.44,1.46,3.89,3.89,0,0,0,2,.54,3.89,3.89,0,0,0,3.49-2,4.25,4.25,0,0,0,0-4.11A4,4,0,0,0,198.56,73a4.09,4.09,0,0,0-4.13,0A4.11,4.11,0,0,0,193,74.53,4,4,0,0,0,192.47,76.55Z"/><path class="cls-2" d="M221.63,82.85l-6.9-12.08h3.33l4.65,9.33L221,80l4.29-9.24h3.12l-6.63,12.08Z"/><path class="cls-2" d="M230,76.53a5.85,5.85,0,0,1,.88-3.18,6.21,6.21,0,0,1,2.46-2.24,7.63,7.63,0,0,1,3.59-.82,7.34,7.34,0,0,1,3.54.82,6.19,6.19,0,0,1,2.38,8.59A6.17,6.17,0,0,1,240.47,82a7.41,7.41,0,0,1-3.57.83,7.81,7.81,0,0,1-3.56-.78,6.14,6.14,0,0,1-2.44-2.18A6,6,0,0,1,230,76.53Zm2.82,0a4,4,0,0,0,.54,2.06,4.11,4.11,0,0,0,1.44,1.46,3.89,3.89,0,0,0,2,.54,3.89,3.89,0,0,0,3.49-2,4.25,4.25,0,0,0,0-4.11A4,4,0,0,0,238.91,73a4.09,4.09,0,0,0-4.13,0,4.11,4.11,0,0,0-1.44,1.49A4,4,0,0,0,232.82,76.55Z"/><path class="cls-2" d="M247.43,60.56h2.82v22h-2.82Z"/><path class="cls-2" d="M254,76.53a5.85,5.85,0,0,1,.88-3.18,6.21,6.21,0,0,1,2.46-2.24,7.63,7.63,0,0,1,3.59-.82,7.27,7.27,0,0,1,3.53.82,6.08,6.08,0,0,1,2.39,2.24,6.29,6.29,0,0,1,0,6.35A6.2,6.2,0,0,1,264.46,82a7.36,7.36,0,0,1-3.57.83,7.76,7.76,0,0,1-3.55-.78,6.23,6.23,0,0,1-2.45-2.18A6,6,0,0,1,254,76.53Zm2.81,0a4,4,0,0,0,.55,2.06,4.08,4.08,0,0,0,1.43,1.46,3.9,3.9,0,0,0,2,.54,3.89,3.89,0,0,0,3.49-2,4.25,4.25,0,0,0,0-4.11A4,4,0,0,0,262.91,73a3.88,3.88,0,0,0-2.07-.55,3.8,3.8,0,0,0-2.06.57,4.11,4.11,0,0,0-1.44,1.49A4,4,0,0,0,256.81,76.55Z"/><path class="cls-2" d="M274,70.77l.22,2.86-.09-.45A4.38,4.38,0,0,1,276,71.1a6.12,6.12,0,0,1,3.14-.78,4.23,4.23,0,0,1,2.87,1,3.35,3.35,0,0,1,1.16,2.54v8.68h-2.82V74.74a2.35,2.35,0,0,0-.59-1.55,2.26,2.26,0,0,0-1.73-.61,3.51,3.51,0,0,0-1.93.57,3.87,3.87,0,0,0-1.38,1.56,5.09,5.09,0,0,0-.5,2.3v5.5h-2.81V70.77Z"/><path class="cls-2" d="M289.21,65.61h2.85v5.22h3.4V72.9h-3.4v9.61h-2.85V72.9H287V70.83h2.25Z"/><path class="cls-2" d="M304,82.79a7,7,0,0,1-3.16-.71A5.42,5.42,0,0,1,298.57,80a6.35,6.35,0,0,1-.84-3.36,6.28,6.28,0,0,1,.88-3.4A5.74,5.74,0,0,1,301,71.05a6.78,6.78,0,0,1,3.2-.76,5.54,5.54,0,0,1,3,.75,5.21,5.21,0,0,1,1.81,1.77l-.18.43.27-2.47h2.58V82.51H308.8V79.45l.33.68a3.4,3.4,0,0,1-.57.72,6.69,6.69,0,0,1-1.06.89,6.16,6.16,0,0,1-1.52.75A6.06,6.06,0,0,1,304,82.79Zm.75-2.18a4.72,4.72,0,0,0,1.89-.37,3.7,3.7,0,0,0,1.4-1,3.79,3.79,0,0,0,.76-1.59V75.31a3.4,3.4,0,0,0-.84-1.49,4.25,4.25,0,0,0-1.43-1,4.81,4.81,0,0,0-1.83-.35,4.18,4.18,0,0,0-2.07.51,3.84,3.84,0,0,0-1.49,1.42,4,4,0,0,0-.56,2.13,3.87,3.87,0,0,0,.57,2.06,4.2,4.2,0,0,0,3.6,2Z"/><path class="cls-2" d="M318.94,70.77l.27,3.4-.12-.48a5.09,5.09,0,0,1,1.38-1.81,6.65,6.65,0,0,1,1.92-1.17,5.7,5.7,0,0,1,1.74-.42L324,73a4.26,4.26,0,0,0-2.5.5A4.67,4.67,0,0,0,319.83,75a3.88,3.88,0,0,0-.62,2.11v5.36h-2.79V70.77Z"/><path class="cls-2" d="M327.52,66.52a1.3,1.3,0,0,1,.53-1A1.75,1.75,0,0,1,329.2,65a1.71,1.71,0,0,1,1.14.43,1.35,1.35,0,0,1,0,2.11,1.79,1.79,0,0,1-1.14.41,1.84,1.84,0,0,1-1.15-.41A1.29,1.29,0,0,1,327.52,66.52Zm.18,4.25h2.82V82.51H327.7Z"/><path class="cls-2" d="M334.27,76.53a5.86,5.86,0,0,1,.89-3.18,6.21,6.21,0,0,1,2.46-2.24,7.59,7.59,0,0,1,3.58-.82,7.34,7.34,0,0,1,3.54.82,6.08,6.08,0,0,1,2.39,2.24,6.35,6.35,0,0,1,0,6.35A6.2,6.2,0,0,1,344.74,82a7.41,7.41,0,0,1-3.57.83,7.76,7.76,0,0,1-3.55-.78,6.16,6.16,0,0,1-2.45-2.18A6,6,0,0,1,334.27,76.53Zm2.82,0a4,4,0,0,0,.54,2.06,4.11,4.11,0,0,0,1.44,1.46,3.89,3.89,0,0,0,2,.54,3.94,3.94,0,0,0,2.07-.54,4,4,0,0,0,1.43-1.46A4.15,4.15,0,0,0,343.18,73a3.86,3.86,0,0,0-2.07-.55,3.79,3.79,0,0,0-2.05.57,4.11,4.11,0,0,0-1.44,1.49A4,4,0,0,0,337.09,76.55Z"/><path class="cls-2" d="M354.28,80,353,83c-.43,1-.87,2-1.31,3h-2.31q.63-1.53,1.2-3c.38-1,.76-2,1.14-3Z"/><path class="cls-2" d="M369.82,70.77l.24,2.64-.15-.23a5.27,5.27,0,0,1,2-2.11,5.53,5.53,0,0,1,2.95-.78,5,5,0,0,1,1.83.32,3.58,3.58,0,0,1,1.34.91,2.82,2.82,0,0,1,.67,1.4l-.15.12a5.14,5.14,0,0,1,2-2,5.36,5.36,0,0,1,2.68-.72,4.1,4.1,0,0,1,2.9,1,3.48,3.48,0,0,1,1.12,2.52v8.71H384.4V74.77a2.71,2.71,0,0,0-.46-1.52,1.8,1.8,0,0,0-1.52-.64,3.28,3.28,0,0,0-1.93.61,4.09,4.09,0,0,0-1.32,1.59,5.25,5.25,0,0,0-.5,2.14v5.56h-2.82V74.77a2.58,2.58,0,0,0-.49-1.52,1.89,1.89,0,0,0-1.55-.64,3.23,3.23,0,0,0-1.92.61,4.23,4.23,0,0,0-1.32,1.6,4.92,4.92,0,0,0-.48,2.16v5.53h-2.82V70.77Z"/><path class="cls-2" d="M397.21,82.79a7,7,0,0,1-3.16-.71A5.42,5.42,0,0,1,391.78,80a7.11,7.11,0,0,1,0-6.76,5.87,5.87,0,0,1,2.34-2.19,6.84,6.84,0,0,1,3.21-.76,5.54,5.54,0,0,1,3,.75,5.21,5.21,0,0,1,1.81,1.77l-.18.43.27-2.47h2.58V82.51H402V79.45l.33.68a3.77,3.77,0,0,1-.57.72,7.18,7.18,0,0,1-1.06.89,6.16,6.16,0,0,1-1.52.75A6.06,6.06,0,0,1,397.21,82.79Zm.75-2.18a4.75,4.75,0,0,0,1.89-.37A3.68,3.68,0,0,0,402,77.6V75.31a3.5,3.5,0,0,0-.84-1.49,4.19,4.19,0,0,0-1.44-1,4.77,4.77,0,0,0-1.83-.35,4.23,4.23,0,0,0-2.07.51,3.88,3.88,0,0,0-1.48,1.42,4,4,0,0,0-.56,2.13,3.87,3.87,0,0,0,.57,2.06,4.1,4.1,0,0,0,1.53,1.48A4.15,4.15,0,0,0,398,80.61Z"/><path class="cls-2" d="M424.3,82.79a7.09,7.09,0,0,1-3.17-.71A5.45,5.45,0,0,1,418.87,80a7.11,7.11,0,0,1,0-6.76,5.87,5.87,0,0,1,2.34-2.19,6.84,6.84,0,0,1,3.21-.76,5.54,5.54,0,0,1,3,.75,5.3,5.3,0,0,1,1.81,1.77l-.18.43.27-2.47h2.58V82.51H429.1V79.45l.33.68a3.77,3.77,0,0,1-.57.72,7.3,7.3,0,0,1-1.07.89,5.91,5.91,0,0,1-1.51.75A6.06,6.06,0,0,1,424.3,82.79Zm.75-2.18a4.75,4.75,0,0,0,1.89-.37,3.86,3.86,0,0,0,1.4-1,3.79,3.79,0,0,0,.76-1.59V75.31a3.5,3.5,0,0,0-.84-1.49,4.19,4.19,0,0,0-1.44-1,4.77,4.77,0,0,0-1.83-.35,4.23,4.23,0,0,0-2.07.51,3.81,3.81,0,0,0-1.48,1.42,4.17,4.17,0,0,0,0,4.19A4.1,4.1,0,0,0,423,80.07,4.15,4.15,0,0,0,425.05,80.61Z"/><path class="cls-2" d="M456.31,81.4a6.14,6.14,0,0,1-2,1,7.62,7.62,0,0,1-2.34.37A7.93,7.93,0,0,1,448.4,82,5.81,5.81,0,0,1,446,79.87a6,6,0,0,1-.87-3.26,5.67,5.67,0,0,1,.93-3.25,6.32,6.32,0,0,1,2.41-2.12,7.1,7.1,0,0,1,3.23-.75,8.44,8.44,0,0,1,2.65.38A6.24,6.24,0,0,1,456.4,72L455,73.66a6.33,6.33,0,0,0-1.31-.69,4.51,4.51,0,0,0-1.75-.33,4,4,0,0,0-2,.53,3.82,3.82,0,0,0-1.44,1.41,3.93,3.93,0,0,0-.52,2,3.83,3.83,0,0,0,.54,2,4,4,0,0,0,1.5,1.45,4.45,4.45,0,0,0,2.22.54,4.55,4.55,0,0,0,2.67-.85Z"/><path class="cls-2" d="M465.07,82.79a7.06,7.06,0,0,1-3.17-.71A5.39,5.39,0,0,1,459.64,80a7.11,7.11,0,0,1,0-6.76A5.87,5.87,0,0,1,462,71.05a6.84,6.84,0,0,1,3.21-.76,5.5,5.5,0,0,1,2.95.75A5.24,5.24,0,0,1,470,72.81l-.18.43.27-2.47h2.58V82.51h-2.79V79.45l.33.68a3.77,3.77,0,0,1-.57.72,7.3,7.3,0,0,1-1.07.89,6,6,0,0,1-3.49,1.05Zm.75-2.18a4.75,4.75,0,0,0,1.89-.37,3.74,3.74,0,0,0,1.39-1,3.81,3.81,0,0,0,.77-1.59V75.31a3.5,3.5,0,0,0-.84-1.49,4.19,4.19,0,0,0-1.44-1,4.77,4.77,0,0,0-1.83-.35,4.23,4.23,0,0,0-2.07.51,3.91,3.91,0,0,0-1.49,1.42,4,4,0,0,0-.55,2.13,3.87,3.87,0,0,0,.57,2.06,4.1,4.1,0,0,0,1.53,1.48A4.15,4.15,0,0,0,465.82,80.61Z"/><path class="cls-2" d="M481.48,83a4.12,4.12,0,0,1-2.84-1,3.42,3.42,0,0,1-1.15-2.53V70.77h2.82v7.74a2.48,2.48,0,0,0,.6,1.54,2.2,2.2,0,0,0,1.68.64,3.1,3.1,0,0,0,1.84-.58,4.21,4.21,0,0,0,1.34-1.59,5,5,0,0,0,.51-2.28V70.77h2.79V82.51h-2.55l-.24-2.89.18.53a4.72,4.72,0,0,1-1.11,1.44,5.35,5.35,0,0,1-1.73,1A6.06,6.06,0,0,1,481.48,83Z"/><path class="cls-2" d="M497.38,82.73a7.51,7.51,0,0,1-2.57-.44A5,5,0,0,1,492.76,81l1.17-1.53a6.51,6.51,0,0,0,1.62,1.06,4.13,4.13,0,0,0,2.73.21,1.65,1.65,0,0,0,.82-.48,1.38,1.38,0,0,0-.12-1.89,3.62,3.62,0,0,0-1.09-.58q-.66-.22-1.44-.42A5.37,5.37,0,0,1,494.11,76,2.86,2.86,0,0,1,493.3,74a3.28,3.28,0,0,1,.49-1.75,3.74,3.74,0,0,1,1.49-1.33,5.06,5.06,0,0,1,2.4-.53,8.19,8.19,0,0,1,2.31.3,5.73,5.73,0,0,1,1.92,1l-1.11,1.64a3.49,3.49,0,0,0-1.28-.81,3.89,3.89,0,0,0-1.33-.27,3.29,3.29,0,0,0-1,.16,1.86,1.86,0,0,0-.75.45,1.05,1.05,0,0,0-.28.76,1.09,1.09,0,0,0,.4,1,3.68,3.68,0,0,0,1.1.58l1.35.45a7,7,0,0,1,1.62.68,3.77,3.77,0,0,1,1.15,1.05,2.68,2.68,0,0,1,.44,1.56,3.75,3.75,0,0,1-.53,1.94,3.63,3.63,0,0,1-1.59,1.42A6.12,6.12,0,0,1,497.38,82.73Z"/><path class="cls-2" d="M511.27,82.79a7.06,7.06,0,0,1-3.17-.71A5.39,5.39,0,0,1,505.84,80a7.11,7.11,0,0,1,0-6.76,5.87,5.87,0,0,1,2.34-2.19,6.84,6.84,0,0,1,3.21-.76,5.5,5.5,0,0,1,2.95.75,5.24,5.24,0,0,1,1.82,1.77l-.18.43.27-2.47h2.58V82.51h-2.79V79.45l.33.68a3.77,3.77,0,0,1-.57.72,7.3,7.3,0,0,1-1.07.89,6,6,0,0,1-3.49,1.05Zm.75-2.18a4.75,4.75,0,0,0,1.89-.37,3.74,3.74,0,0,0,1.39-1,3.81,3.81,0,0,0,.77-1.59V75.31a3.5,3.5,0,0,0-.84-1.49,4.19,4.19,0,0,0-1.44-1,4.77,4.77,0,0,0-1.83-.35,4.23,4.23,0,0,0-2.07.51,3.91,3.91,0,0,0-1.49,1.42,4,4,0,0,0-.55,2.13,3.87,3.87,0,0,0,.57,2.06A4.1,4.1,0,0,0,510,80.07,4.15,4.15,0,0,0,512,80.61Z"/><path class="cls-2" d="M538.24,82.79a6.23,6.23,0,0,1-3.12-.78,5.86,5.86,0,0,1-2.21-2.21,6.49,6.49,0,0,1-.82-3.3,6.19,6.19,0,0,1,.87-3.35A5.79,5.79,0,0,1,535.3,71a7.27,7.27,0,0,1,3.3-.73,6.9,6.9,0,0,1,2.8.59,5,5,0,0,1,2.09,1.65l-.15.93V60.56h2.79v22h-2.79V79.59l.33.73a7.12,7.12,0,0,1-2.3,1.78A7,7,0,0,1,538.24,82.79Zm.87-2.24a4.52,4.52,0,0,0,2-.4,4.15,4.15,0,0,0,1.44-1.06,3.83,3.83,0,0,0,.83-1.57V75.28a3.63,3.63,0,0,0-.86-1.51,4.17,4.17,0,0,0-1.47-1,4.84,4.84,0,0,0-1.9-.36,4.35,4.35,0,0,0-2.07.51,4,4,0,0,0-1.53,1.42,4.12,4.12,0,0,0,0,4.18A4.26,4.26,0,0,0,537,80,4.06,4.06,0,0,0,539.11,80.55Z"/><path class="cls-2" d="M556.75,82.79a7.73,7.73,0,0,1-3.66-.81,5.89,5.89,0,0,1-2.37-2.21,6.14,6.14,0,0,1-.84-3.22,5.52,5.52,0,0,1,.94-3.14,7,7,0,0,1,2.51-2.27,7.12,7.12,0,0,1,3.48-.85,6.11,6.11,0,0,1,4.08,1.36,6.89,6.89,0,0,1,2.22,3.74l-10.26,3.4-.66-1.56,8.37-2.92-.57.4a3.91,3.91,0,0,0-1.2-1.62,3.39,3.39,0,0,0-2.19-.68,4,4,0,0,0-2,.51,3.69,3.69,0,0,0-1.39,1.41,4.11,4.11,0,0,0-.51,2.08,4.28,4.28,0,0,0,.52,2.13A3.75,3.75,0,0,0,554.66,80a4.36,4.36,0,0,0,2.15.52,4.44,4.44,0,0,0,1.57-.28,7.42,7.42,0,0,0,1.46-.74l1.26,2a8.51,8.51,0,0,1-2.09,1A7.27,7.27,0,0,1,556.75,82.79Z"/><path class="cls-2" d="M566.56,60.56h2.82v22h-2.82Z"/><path class="cls-2" d="M587.2,82.73a7.47,7.47,0,0,1-2.57-.44,5,5,0,0,1-2-1.31l1.17-1.53a6.51,6.51,0,0,0,1.62,1.06,4.13,4.13,0,0,0,2.73.21,1.65,1.65,0,0,0,.82-.48,1.38,1.38,0,0,0-.12-1.89,3.74,3.74,0,0,0-1.09-.58q-.66-.22-1.44-.42A5.31,5.31,0,0,1,583.93,76a2.82,2.82,0,0,1-.81-2.06,3.28,3.28,0,0,1,.49-1.75,3.74,3.74,0,0,1,1.49-1.33,5,5,0,0,1,2.4-.53,8.19,8.19,0,0,1,2.31.3,5.73,5.73,0,0,1,1.92,1l-1.11,1.64a3.49,3.49,0,0,0-1.28-.81,3.89,3.89,0,0,0-1.33-.27,3.29,3.29,0,0,0-1,.16,1.86,1.86,0,0,0-.75.45,1.06,1.06,0,0,0-.29.76,1.13,1.13,0,0,0,.41,1,3.74,3.74,0,0,0,1.09.58l1.36.45a7,7,0,0,1,1.62.68,3.77,3.77,0,0,1,1.15,1.05,2.68,2.68,0,0,1,.44,1.56,3.75,3.75,0,0,1-.53,1.94,3.63,3.63,0,0,1-1.59,1.42A6.15,6.15,0,0,1,587.2,82.73Z"/><path class="cls-2" d="M599.88,83a4.09,4.09,0,0,1-2.83-1,3.42,3.42,0,0,1-1.15-2.53V70.77h2.81v7.74a2.54,2.54,0,0,0,.61,1.54,2.19,2.19,0,0,0,1.68.64,3.1,3.1,0,0,0,1.84-.58,4.21,4.21,0,0,0,1.34-1.59,5,5,0,0,0,.51-2.28V70.77h2.79V82.51h-2.55l-.24-2.89.18.53a4.72,4.72,0,0,1-1.11,1.44,5.35,5.35,0,0,1-1.73,1A6.11,6.11,0,0,1,599.88,83Z"/><path class="cls-2" d="M611.2,76.53a5.85,5.85,0,0,1,.88-3.18,6.21,6.21,0,0,1,2.46-2.24,7.63,7.63,0,0,1,3.59-.82,7.37,7.37,0,0,1,3.54.82,6.19,6.19,0,0,1,2.38,8.59A6.17,6.17,0,0,1,621.67,82a7.41,7.41,0,0,1-3.57.83,7.81,7.81,0,0,1-3.56-.78,6.14,6.14,0,0,1-2.44-2.18A6,6,0,0,1,611.2,76.53Zm2.82,0a4,4,0,0,0,2,3.52,3.89,3.89,0,0,0,2,.54,3.89,3.89,0,0,0,3.49-2,4.32,4.32,0,0,0,0-4.11A4,4,0,0,0,620.11,73,4.09,4.09,0,0,0,616,73a4.11,4.11,0,0,0-1.44,1.49A4,4,0,0,0,614,76.55Z"/><path class="cls-2" d="M38.75,116.81a6.14,6.14,0,0,1-2.71-.62,4.75,4.75,0,0,1-2-1.67l.15-.82v8.47H31.4V104.62h2.43l.39,3-.3-.85A7,7,0,0,1,36.2,105a6.69,6.69,0,0,1,3.09-.7,6.33,6.33,0,0,1,3.14.78,5.7,5.7,0,0,1,2.2,2.21,6.68,6.68,0,0,1,.81,3.33,6.11,6.11,0,0,1-.87,3.28,5.76,5.76,0,0,1-2.38,2.15A7.66,7.66,0,0,1,38.75,116.81Zm-.54-2.09a4.6,4.6,0,0,0,2.19-.53A4.38,4.38,0,0,0,42,112.75a3.69,3.69,0,0,0,.61-2.09,3.92,3.92,0,0,0-.57-2.11,4.12,4.12,0,0,0-1.51-1.45,4.3,4.3,0,0,0-2.12-.52,4.88,4.88,0,0,0-2,.38A3.89,3.89,0,0,0,35,108a4,4,0,0,0-.81,1.61v2a3.47,3.47,0,0,0,.72,1.56,4.08,4.08,0,0,0,1.43,1.12A4.24,4.24,0,0,0,38.21,114.72Z"/><path class="cls-2" d="M54.38,116.81a7.09,7.09,0,0,1-3.17-.7A5.54,5.54,0,0,1,49,114a6.3,6.3,0,0,1-.84-3.36,6.39,6.39,0,0,1,.87-3.4,5.85,5.85,0,0,1,2.34-2.18,6.85,6.85,0,0,1,3.21-.77,5.54,5.54,0,0,1,3,.75,5.3,5.3,0,0,1,1.81,1.77l-.18.43.27-2.47H62v11.74H59.18v-3.06l.33.68a3.49,3.49,0,0,1-.57.72,7.75,7.75,0,0,1-1.06.9,6.16,6.16,0,0,1-1.52.75A6.35,6.35,0,0,1,54.38,116.81Zm.75-2.18a4.59,4.59,0,0,0,1.89-.37,3.65,3.65,0,0,0,1.4-1.05,3.81,3.81,0,0,0,.76-1.58v-2.3a3.56,3.56,0,0,0-.84-1.49,4.16,4.16,0,0,0-1.44-1,4.6,4.6,0,0,0-1.83-.36A4.23,4.23,0,0,0,53,107a3.88,3.88,0,0,0-1.48,1.42,4.18,4.18,0,0,0,0,4.2,4.22,4.22,0,0,0,3.6,2Z"/><path class="cls-2" d="M70.31,116.76a7.76,7.76,0,0,1-2.57-.44,4.92,4.92,0,0,1-2-1.32l1.17-1.53a6.24,6.24,0,0,0,1.62,1.06,4,4,0,0,0,1.62.36,4.32,4.32,0,0,0,1.11-.14,1.82,1.82,0,0,0,.83-.49,1.27,1.27,0,0,0,.31-.88,1.19,1.19,0,0,0-.44-1,3.3,3.3,0,0,0-1.09-.58,14.57,14.57,0,0,0-1.44-.43A5.36,5.36,0,0,1,67,110a2.9,2.9,0,0,1-.81-2.07,3.28,3.28,0,0,1,.49-1.75,3.81,3.81,0,0,1,1.49-1.33,5.07,5.07,0,0,1,2.4-.52,8.19,8.19,0,0,1,2.31.3,5.53,5.53,0,0,1,1.92,1l-1.11,1.65a3.45,3.45,0,0,0-1.27-.81,4,4,0,0,0-1.34-.27,3.18,3.18,0,0,0-1,.15,1.74,1.74,0,0,0-.75.46,1,1,0,0,0-.29.75,1.11,1.11,0,0,0,.4,1,3.58,3.58,0,0,0,1.1.58l1.35.45a6.59,6.59,0,0,1,1.62.69,3.77,3.77,0,0,1,1.16,1,2.75,2.75,0,0,1,.43,1.56,3.9,3.9,0,0,1-.52,1.95A3.73,3.73,0,0,1,73,116.23,6.19,6.19,0,0,1,70.31,116.76Z"/><path class="cls-2" d="M82.52,116.76a7.7,7.7,0,0,1-2.56-.44A5,5,0,0,1,77.9,115l1.17-1.53a6.24,6.24,0,0,0,1.62,1.06,4,4,0,0,0,1.62.36,4.32,4.32,0,0,0,1.11-.14,1.69,1.69,0,0,0,.82-.49,1.19,1.19,0,0,0,.32-.88,1.24,1.24,0,0,0-.43-1,3.58,3.58,0,0,0-1.1-.58,14.57,14.57,0,0,0-1.44-.43A5.36,5.36,0,0,1,79.25,110a2.9,2.9,0,0,1-.81-2.07,3.29,3.29,0,0,1,.5-1.75,3.78,3.78,0,0,1,1.48-1.33,5.07,5.07,0,0,1,2.4-.52,8.19,8.19,0,0,1,2.31.3,5.53,5.53,0,0,1,1.92,1l-1.11,1.65a3.49,3.49,0,0,0-1.28-.81,3.89,3.89,0,0,0-1.33-.27,3.29,3.29,0,0,0-1,.15,1.94,1.94,0,0,0-.75.46,1,1,0,0,0-.28.75,1.07,1.07,0,0,0,.41,1,3.3,3.3,0,0,0,1.09.58l1.35.45a6.59,6.59,0,0,1,1.62.69,3.52,3.52,0,0,1,1.15,1,2.61,2.61,0,0,1,.44,1.56,3.81,3.81,0,0,1-.53,1.95,3.62,3.62,0,0,1-1.59,1.41A6.08,6.08,0,0,1,82.52,116.76Z"/><path class="cls-2" d="M96.41,116.81a7.09,7.09,0,0,1-3.17-.7A5.48,5.48,0,0,1,91,114a6.3,6.3,0,0,1-.84-3.36,6.39,6.39,0,0,1,.87-3.4,5.85,5.85,0,0,1,2.34-2.18,6.85,6.85,0,0,1,3.21-.77,5.54,5.54,0,0,1,3,.75,5.3,5.3,0,0,1,1.81,1.77l-.18.43.27-2.47H104v11.74h-2.79v-3.06l.33.68a3.49,3.49,0,0,1-.57.72,7.32,7.32,0,0,1-1.07.9,6.08,6.08,0,0,1-1.51.75A6.35,6.35,0,0,1,96.41,116.81Zm.75-2.18a4.59,4.59,0,0,0,1.89-.37,3.65,3.65,0,0,0,1.4-1.05,3.94,3.94,0,0,0,.76-1.58v-2.3a3.56,3.56,0,0,0-.84-1.49,4.16,4.16,0,0,0-1.44-1,4.6,4.6,0,0,0-1.83-.36A4.23,4.23,0,0,0,95,107a4,4,0,0,0-1.49,1.42,4,4,0,0,0-.55,2.13,3.93,3.93,0,0,0,.57,2.07,4.22,4.22,0,0,0,3.6,2Z"/><path class="cls-2" d="M116.18,116.81a6.18,6.18,0,0,1-2.72-.62,4.72,4.72,0,0,1-2-1.67l.15-.82v8.47h-2.79V104.62h2.43l.39,3-.3-.85a7,7,0,0,1,2.28-1.77,6.69,6.69,0,0,1,3.09-.7,6.29,6.29,0,0,1,3.13.78,5.66,5.66,0,0,1,2.21,2.21,6.68,6.68,0,0,1,.81,3.33,6.11,6.11,0,0,1-.87,3.28,5.79,5.79,0,0,1-2.39,2.15A7.62,7.62,0,0,1,116.18,116.81Zm-.54-2.09a4.6,4.6,0,0,0,2.19-.53,4.35,4.35,0,0,0,1.6-1.44,3.69,3.69,0,0,0,.62-2.09,3.92,3.92,0,0,0-.57-2.11A4.15,4.15,0,0,0,118,107.1a4.26,4.26,0,0,0-2.11-.52,4.88,4.88,0,0,0-1.95.38,3.89,3.89,0,0,0-1.44,1.07,4,4,0,0,0-.81,1.61v2a3.47,3.47,0,0,0,.72,1.56,4.14,4.14,0,0,0,1.42,1.12A4.28,4.28,0,0,0,115.64,114.72Z"/><path class="cls-2" d="M125.54,110.55a5.9,5.9,0,0,1,.88-3.18,6.28,6.28,0,0,1,2.46-2.24,7.63,7.63,0,0,1,3.59-.82,7.34,7.34,0,0,1,3.54.82,6,6,0,0,1,3.24,5.42,6,6,0,0,1-.86,3.17A6.17,6.17,0,0,1,136,116a7.3,7.3,0,0,1-3.57.83,7.93,7.93,0,0,1-3.56-.77,6.09,6.09,0,0,1-2.44-2.19A6,6,0,0,1,125.54,110.55Zm2.82,0a4,4,0,0,0,.54,2,4,4,0,0,0,1.44,1.46,3.89,3.89,0,0,0,2,.54,3.94,3.94,0,0,0,2.07-.54,4,4,0,0,0,1.43-1.46,4.13,4.13,0,0,0-1.43-5.58,3.87,3.87,0,0,0-2.07-.56,3.82,3.82,0,0,0-2.06.57,4.19,4.19,0,0,0-1.44,1.49A4,4,0,0,0,128.36,110.58Z"/><path class="cls-2" d="M145.49,104.79l.27,3.41-.12-.49A5.17,5.17,0,0,1,147,105.9a6.61,6.61,0,0,1,1.92-1.16,5.47,5.47,0,0,1,1.74-.43l-.12,2.67a4.29,4.29,0,0,0-2.51.49,4.76,4.76,0,0,0-1.68,1.59,3.89,3.89,0,0,0-.61,2.11v5.36H143V104.79Z"/><path class="cls-2" d="M155.45,99.63h2.85v5.22h3.39v2.07H158.3v9.61h-2.85v-9.61H153.2v-2.07h2.25Z"/><path class="cls-2" d="M164,110.55a5.9,5.9,0,0,1,.88-3.18,6.28,6.28,0,0,1,2.46-2.24,7.63,7.63,0,0,1,3.59-.82,7.34,7.34,0,0,1,3.54.82,6,6,0,0,1,3.24,5.42,6,6,0,0,1-.86,3.17,6.17,6.17,0,0,1-2.38,2.26,7.3,7.3,0,0,1-3.57.83,7.93,7.93,0,0,1-3.56-.77,6.09,6.09,0,0,1-2.44-2.19A6,6,0,0,1,164,110.55Zm2.82,0a4,4,0,0,0,.54,2,4,4,0,0,0,1.44,1.46,3.89,3.89,0,0,0,2,.54,3.94,3.94,0,0,0,2.07-.54,3.9,3.9,0,0,0,1.42-1.46,4.14,4.14,0,0,0-1.42-5.58,3.87,3.87,0,0,0-2.07-.56,3.82,3.82,0,0,0-2.06.57,4.19,4.19,0,0,0-1.44,1.49A4,4,0,0,0,166.79,110.58Z"/><path class="cls-2" d="M193.43,104.79l.24,2.64-.15-.23a5.24,5.24,0,0,1,2-2.11,5.57,5.57,0,0,1,3-.78,4.81,4.81,0,0,1,1.83.33,3.52,3.52,0,0,1,1.33.9,2.83,2.83,0,0,1,.68,1.41l-.15.11a5.18,5.18,0,0,1,2-2,5.4,5.4,0,0,1,2.69-.72,4.07,4.07,0,0,1,2.89,1,3.52,3.52,0,0,1,1.13,2.53v8.7H208v-7.74a2.74,2.74,0,0,0-.47-1.52,1.78,1.78,0,0,0-1.51-.63,3.24,3.24,0,0,0-1.94.61,4,4,0,0,0-1.32,1.58,5.29,5.29,0,0,0-.49,2.14v5.56h-2.82v-7.74a2.61,2.61,0,0,0-.5-1.52,1.87,1.87,0,0,0-1.54-.63,3.16,3.16,0,0,0-1.92.61,4.16,4.16,0,0,0-1.32,1.6,4.87,4.87,0,0,0-.48,2.15v5.53h-2.82V104.79Z"/><path class="cls-2" d="M220.82,116.81a7.06,7.06,0,0,1-3.17-.7,5.48,5.48,0,0,1-2.26-2.09,6.3,6.3,0,0,1-.84-3.36,6.39,6.39,0,0,1,.87-3.4,5.85,5.85,0,0,1,2.34-2.18,6.85,6.85,0,0,1,3.21-.77,5.5,5.5,0,0,1,2.95.75,5.24,5.24,0,0,1,1.82,1.77l-.18.43.27-2.47h2.58v11.74h-2.79v-3.06l.33.68a3.49,3.49,0,0,1-.57.72,7.32,7.32,0,0,1-1.07.9,6.08,6.08,0,0,1-1.51.75A6.35,6.35,0,0,1,220.82,116.81Zm.75-2.18a4.59,4.59,0,0,0,1.89-.37,3.54,3.54,0,0,0,1.39-1.05,3.83,3.83,0,0,0,.77-1.58v-2.3a3.56,3.56,0,0,0-.84-1.49,4.16,4.16,0,0,0-1.44-1,4.6,4.6,0,0,0-1.83-.36,4.23,4.23,0,0,0-2.07.51,4,4,0,0,0-1.49,1.42,4,4,0,0,0-.55,2.13,3.93,3.93,0,0,0,.57,2.07,4.22,4.22,0,0,0,3.6,2Z"/><path class="cls-2" d="M235.76,104.79l.27,3.41-.12-.49a5.17,5.17,0,0,1,1.38-1.81,6.61,6.61,0,0,1,1.92-1.16,5.47,5.47,0,0,1,1.74-.43l-.12,2.67a4.29,4.29,0,0,0-2.51.49,4.76,4.76,0,0,0-1.68,1.59,3.89,3.89,0,0,0-.61,2.11v5.36h-2.79V104.79Z"/><path class="cls-2" d="M242.9,110.55a5.9,5.9,0,0,1,.88-3.18,6.28,6.28,0,0,1,2.46-2.24,7.63,7.63,0,0,1,3.59-.82,7.34,7.34,0,0,1,3.54.82,6.19,6.19,0,0,1,2.38,2.24,6.07,6.07,0,0,1,.86,3.18,6,6,0,0,1-.86,3.17,6.24,6.24,0,0,1-2.38,2.26,7.31,7.31,0,0,1-3.58.83,7.92,7.92,0,0,1-3.55-.77,6.18,6.18,0,0,1-2.45-2.19A6,6,0,0,1,242.9,110.55Zm2.81,0a4,4,0,0,0,.55,2,4,4,0,0,0,1.44,1.46,3.84,3.84,0,0,0,2,.54,3.94,3.94,0,0,0,2.07-.54,3.9,3.9,0,0,0,1.42-1.46,4.14,4.14,0,0,0-1.42-5.58,3.87,3.87,0,0,0-2.07-.56,3.8,3.8,0,0,0-2.06.57,4.19,4.19,0,0,0-1.44,1.49A4,4,0,0,0,245.71,110.58Z"/><path class="cls-2" d="M270.44,115.43a6.55,6.55,0,0,1-2,1,8.33,8.33,0,0,1-5.9-.4,5.81,5.81,0,0,1-2.41-2.16,6,6,0,0,1-.87-3.26,5.56,5.56,0,0,1,.93-3.24,6.19,6.19,0,0,1,2.41-2.13,7,7,0,0,1,3.22-.75,8.81,8.81,0,0,1,2.66.38,6.43,6.43,0,0,1,2.06,1.09l-1.41,1.71a6.32,6.32,0,0,0-1.31-.7,4.52,4.52,0,0,0-1.76-.33,4,4,0,0,0-2,.53,3.85,3.85,0,0,0-1.44,1.42,4,4,0,0,0,0,4,3.85,3.85,0,0,0,1.5,1.44,4.42,4.42,0,0,0,2.22.54,4.28,4.28,0,0,0,1.45-.23,4.39,4.39,0,0,0,1.22-.62Z"/><path class="cls-2" d="M284.12,115.43a6.79,6.79,0,0,1-2,1,8,8,0,0,1-2.34.36,7.93,7.93,0,0,1-3.56-.76,5.9,5.9,0,0,1-2.42-2.16,6,6,0,0,1-.86-3.26,5.56,5.56,0,0,1,.93-3.24,6.19,6.19,0,0,1,2.41-2.13,7,7,0,0,1,3.22-.75,8.81,8.81,0,0,1,2.66.38,6.43,6.43,0,0,1,2.06,1.09l-1.42,1.71a6,6,0,0,0-1.3-.7,4.52,4.52,0,0,0-1.76-.33,4,4,0,0,0-2,.53,3.85,3.85,0,0,0-1.44,1.42,4,4,0,0,0,0,4,3.85,3.85,0,0,0,1.5,1.44,4.42,4.42,0,0,0,2.22.54,4.28,4.28,0,0,0,1.45-.23,4.39,4.39,0,0,0,1.22-.62Z"/><path class="cls-2" d="M287.69,116.53V94.59h2.76v12.93l-.07-.49a5,5,0,0,1,1.94-1.92,5.92,5.92,0,0,1,3.1-.77,4.23,4.23,0,0,1,2.87,1,3.33,3.33,0,0,1,1.16,2.54v8.67h-2.82v-7.77a2.31,2.31,0,0,0-.59-1.54,2.22,2.22,0,0,0-1.73-.61,3.44,3.44,0,0,0-1.93.58,4,4,0,0,0-1.38,1.57,5,5,0,0,0-.5,2.27v5.5Z"/><path class="cls-2" d="M304.09,100.54a1.31,1.31,0,0,1,.53-1.05,1.82,1.82,0,0,1,1.16-.42,1.72,1.72,0,0,1,1.13.42,1.32,1.32,0,0,1,.51,1.05,1.3,1.3,0,0,1-.51,1.06,1.71,1.71,0,0,1-1.13.41,1.81,1.81,0,0,1-1.16-.41A1.29,1.29,0,0,1,304.09,100.54Zm.19,4.25h2.81v11.74h-2.81Z"/><path class="cls-2" d="M314.47,104.79l.21,2.87-.09-.46a4.43,4.43,0,0,1,1.92-2.08,6.18,6.18,0,0,1,3.15-.78,4.23,4.23,0,0,1,2.87,1,3.29,3.29,0,0,1,1.15,2.54v8.67h-2.82v-7.77a2.3,2.3,0,0,0-.58-1.54,2.22,2.22,0,0,0-1.73-.61,3.56,3.56,0,0,0-1.93.56,3.87,3.87,0,0,0-1.38,1.56,5.12,5.12,0,0,0-.5,2.3v5.5h-2.82V104.79Z"/><path class="cls-2" d="M327.43,110.55a5.91,5.91,0,0,1,.89-3.18,6.28,6.28,0,0,1,2.46-2.24,7.59,7.59,0,0,1,3.58-.82,7.34,7.34,0,0,1,3.54.82,6.15,6.15,0,0,1,2.39,2.24,6.06,6.06,0,0,1,.85,3.18,6,6,0,0,1-.85,3.17A6.2,6.2,0,0,1,337.9,116a7.3,7.3,0,0,1-3.57.83,7.89,7.89,0,0,1-3.55-.77,6.11,6.11,0,0,1-2.45-2.19A6,6,0,0,1,327.43,110.55Zm2.82,0a4,4,0,0,0,.54,2,4,4,0,0,0,1.44,1.46,3.89,3.89,0,0,0,2,.54,3.92,3.92,0,0,0,3.5-2,4.32,4.32,0,0,0,0-4.11,4.11,4.11,0,0,0-1.43-1.47,3.87,3.87,0,0,0-2.07-.56,3.79,3.79,0,0,0-2,.57,4.19,4.19,0,0,0-1.44,1.49A4,4,0,0,0,330.25,110.58Z"/><path class="cls-2" d="M354.34,116.53V94.59h2.76v12.93L357,107a5,5,0,0,1,1.94-1.92,5.92,5.92,0,0,1,3.1-.77,4.23,4.23,0,0,1,2.87,1,3.29,3.29,0,0,1,1.15,2.54v8.67h-2.82v-7.77a2.3,2.3,0,0,0-.58-1.54,2.22,2.22,0,0,0-1.73-.61,3.42,3.42,0,0,0-1.93.58,4,4,0,0,0-1.38,1.57,5,5,0,0,0-.5,2.27v5.5Z"/><path class="cls-2" d="M376.12,116.81a7,7,0,0,1-3.16-.7,5.51,5.51,0,0,1-2.27-2.09,6.3,6.3,0,0,1-.84-3.36,6.39,6.39,0,0,1,.87-3.4,5.85,5.85,0,0,1,2.34-2.18,6.85,6.85,0,0,1,3.21-.77,5.54,5.54,0,0,1,3,.75,5.21,5.21,0,0,1,1.81,1.77l-.18.43.27-2.47h2.58v11.74h-2.79v-3.06l.33.68a3.49,3.49,0,0,1-.57.72,7.19,7.19,0,0,1-1.06.9,6.16,6.16,0,0,1-1.52.75A6.35,6.35,0,0,1,376.12,116.81Zm.75-2.18a4.59,4.59,0,0,0,1.89-.37,3.57,3.57,0,0,0,1.4-1.05,3.81,3.81,0,0,0,.76-1.58v-2.3a3.56,3.56,0,0,0-.84-1.49,4.16,4.16,0,0,0-1.44-1,4.6,4.6,0,0,0-1.83-.36,4.23,4.23,0,0,0-2.07.51,4,4,0,0,0-1.48,1.42,4,4,0,0,0-.56,2.13,3.93,3.93,0,0,0,.57,2.07,4.22,4.22,0,0,0,3.6,2Z"/><path class="cls-2" d="M405.37,116.81a6.14,6.14,0,0,1-2.71-.62,4.75,4.75,0,0,1-2-1.67l.15-.82v8.47H398V104.62h2.43l.39,3-.3-.85a7,7,0,0,1,2.28-1.77,6.69,6.69,0,0,1,3.09-.7,6.33,6.33,0,0,1,3.14.78,5.7,5.7,0,0,1,2.2,2.21,6.68,6.68,0,0,1,.81,3.33,6.11,6.11,0,0,1-.87,3.28,5.76,5.76,0,0,1-2.38,2.15A7.66,7.66,0,0,1,405.37,116.81Zm-.54-2.09a4.6,4.6,0,0,0,2.19-.53,4.38,4.38,0,0,0,1.61-1.44,3.69,3.69,0,0,0,.61-2.09,3.92,3.92,0,0,0-.57-2.11,4.12,4.12,0,0,0-1.51-1.45,4.3,4.3,0,0,0-2.12-.52,4.88,4.88,0,0,0-2,.38,3.89,3.89,0,0,0-1.44,1.07,4,4,0,0,0-.81,1.61v2a3.47,3.47,0,0,0,.72,1.56,4.17,4.17,0,0,0,1.43,1.12A4.24,4.24,0,0,0,404.83,114.72Z"/><path class="cls-2" d="M415.63,100.54a1.31,1.31,0,0,1,.53-1.05,1.79,1.79,0,0,1,1.15-.42,1.75,1.75,0,0,1,1.14.42,1.32,1.32,0,0,1,.51,1.05,1.3,1.3,0,0,1-.51,1.06,1.74,1.74,0,0,1-1.14.41,1.78,1.78,0,0,1-1.15-.41A1.29,1.29,0,0,1,415.63,100.54Zm.18,4.25h2.82v11.74h-2.82Z"/><path class="cls-2" d="M427.45,117a4.09,4.09,0,0,1-2.83-1,3.42,3.42,0,0,1-1.16-2.54v-8.68h2.82v7.74a2.5,2.5,0,0,0,.6,1.55,2.2,2.2,0,0,0,1.68.64,3.13,3.13,0,0,0,1.85-.59,4.15,4.15,0,0,0,1.33-1.58,5,5,0,0,0,.51-2.28v-5.48H435v11.74h-2.55l-.24-2.89.18.54a4.69,4.69,0,0,1-1.11,1.43,5.32,5.32,0,0,1-1.72,1A6.34,6.34,0,0,1,427.45,117Zm-2.52-18.37H428l2.19,3.8h-1.77Z"/><path class="cls-2" d="M456.67,116.81a6.14,6.14,0,0,1-2.71-.62,4.75,4.75,0,0,1-2-1.67l.15-.82v8.47h-2.79V104.62h2.43l.39,3-.3-.85a7,7,0,0,1,2.28-1.77,6.69,6.69,0,0,1,3.09-.7,6.33,6.33,0,0,1,3.14.78,5.7,5.7,0,0,1,2.2,2.21,6.68,6.68,0,0,1,.81,3.33,6.11,6.11,0,0,1-.87,3.28,5.76,5.76,0,0,1-2.38,2.15A7.66,7.66,0,0,1,456.67,116.81Zm-.54-2.09a4.6,4.6,0,0,0,2.19-.53,4.38,4.38,0,0,0,1.61-1.44,3.69,3.69,0,0,0,.61-2.09,3.92,3.92,0,0,0-.57-2.11,4.12,4.12,0,0,0-1.51-1.45,4.3,4.3,0,0,0-2.12-.52,4.88,4.88,0,0,0-1.95.38A3.89,3.89,0,0,0,453,108a4,4,0,0,0-.81,1.61v2a3.47,3.47,0,0,0,.72,1.56,4.08,4.08,0,0,0,1.43,1.12A4.24,4.24,0,0,0,456.13,114.72Z"/><path class="cls-2" d="M469.63,104.79l.27,3.41-.12-.49a5.17,5.17,0,0,1,1.38-1.81,6.61,6.61,0,0,1,1.92-1.16,5.47,5.47,0,0,1,1.74-.43L474.7,107a4.24,4.24,0,0,0-2.5.49,4.67,4.67,0,0,0-1.68,1.59,3.9,3.9,0,0,0-.62,2.11v5.36h-2.79V104.79Z"/><path class="cls-2" d="M476.77,110.55a5.91,5.91,0,0,1,.89-3.18,6.28,6.28,0,0,1,2.46-2.24,7.59,7.59,0,0,1,3.58-.82,7.34,7.34,0,0,1,3.54.82,6.15,6.15,0,0,1,2.39,2.24,6.06,6.06,0,0,1,.85,3.18,6,6,0,0,1-.85,3.17,6.2,6.2,0,0,1-2.39,2.26,7.3,7.3,0,0,1-3.57.83,7.89,7.89,0,0,1-3.55-.77,6.11,6.11,0,0,1-2.45-2.19A6,6,0,0,1,476.77,110.55Zm2.82,0a4,4,0,0,0,.54,2,4,4,0,0,0,1.44,1.46,3.89,3.89,0,0,0,2,.54,3.92,3.92,0,0,0,3.5-2,4.32,4.32,0,0,0,0-4.11,4.11,4.11,0,0,0-1.43-1.47,3.87,3.87,0,0,0-2.07-.56,3.79,3.79,0,0,0-2.05.57,4.11,4.11,0,0,0-1.44,1.49A4,4,0,0,0,479.59,110.58Z"/><path class="cls-2" d="M501.82,116.81a6.15,6.15,0,0,1-5.13-2.49l.33-.79v3H494.2V94.59H497v12.9l-.06-1a5.28,5.28,0,0,1,2.11-1.55,7.72,7.72,0,0,1,3.14-.61,6.15,6.15,0,0,1,3,.77,5.82,5.82,0,0,1,2.21,2.14,6.26,6.26,0,0,1,.82,3.24,6.35,6.35,0,0,1-.88,3.42,5.89,5.89,0,0,1-2.36,2.18A6.9,6.9,0,0,1,501.82,116.81Zm-.6-2.24a4.26,4.26,0,0,0,2.17-.53,3.85,3.85,0,0,0,1.49-1.48,4.1,4.1,0,0,0,.54-2.1,3.94,3.94,0,0,0-2.05-3.5,4.39,4.39,0,0,0-2.15-.52,5.08,5.08,0,0,0-1.89.35,4,4,0,0,0-1.45,1,3.76,3.76,0,0,0-.86,1.47v2.41a4,4,0,0,0,.81,1.49,3.83,3.83,0,0,0,1.46,1A4.72,4.72,0,0,0,501.22,114.57Z"/><path class="cls-2" d="M512,94.59h2.82v21.94H512Z"/><path class="cls-2" d="M525.43,116.81a7.85,7.85,0,0,1-3.66-.8,5.91,5.91,0,0,1-2.37-2.22,6.1,6.1,0,0,1-.84-3.21,5.63,5.63,0,0,1,.94-3.15,7,7,0,0,1,2.51-2.27,7.12,7.12,0,0,1,3.48-.85,6.11,6.11,0,0,1,4.08,1.36,7,7,0,0,1,2.22,3.74l-10.26,3.41-.66-1.56,8.37-2.92-.57.39a3.82,3.82,0,0,0-1.2-1.61,3.33,3.33,0,0,0-2.19-.68,4,4,0,0,0-2,.51,3.74,3.74,0,0,0-1.39,1.4,4.15,4.15,0,0,0-.51,2.09,4.25,4.25,0,0,0,.53,2.12,3.57,3.57,0,0,0,1.47,1.46,4.3,4.3,0,0,0,2.14.53,4.45,4.45,0,0,0,1.57-.29,7.38,7.38,0,0,0,1.46-.73l1.26,2a9,9,0,0,1-2.08,1A7.67,7.67,0,0,1,525.43,116.81Z"/><path class="cls-2" d="M537.79,104.79l.24,2.64-.15-.23a5.24,5.24,0,0,1,2-2.11,5.57,5.57,0,0,1,3-.78,4.81,4.81,0,0,1,1.83.33,3.52,3.52,0,0,1,1.33.9,2.83,2.83,0,0,1,.68,1.41l-.15.11a5.18,5.18,0,0,1,2-2,5.4,5.4,0,0,1,2.69-.72,4.07,4.07,0,0,1,2.89,1,3.52,3.52,0,0,1,1.13,2.53v8.7h-2.82v-7.74a2.74,2.74,0,0,0-.47-1.52,1.78,1.78,0,0,0-1.51-.63,3.19,3.19,0,0,0-1.93.61,3.94,3.94,0,0,0-1.33,1.58,5.29,5.29,0,0,0-.49,2.14v5.56h-2.82v-7.74a2.61,2.61,0,0,0-.5-1.52,1.87,1.87,0,0,0-1.54-.63,3.16,3.16,0,0,0-1.92.61,4.16,4.16,0,0,0-1.32,1.6,4.87,4.87,0,0,0-.48,2.15v5.53h-2.82V104.79Z"/><path class="cls-2" d="M559.81,100.54a1.3,1.3,0,0,1,.52-1.05,1.82,1.82,0,0,1,1.16-.42,1.75,1.75,0,0,1,1.14.42,1.32,1.32,0,0,1,.51,1.05,1.3,1.3,0,0,1-.51,1.06,1.74,1.74,0,0,1-1.14.41,1.81,1.81,0,0,1-1.16-.41A1.28,1.28,0,0,1,559.81,100.54Zm.18,4.25h2.82v11.74H560Z"/><path class="cls-2" d="M39,150.84a6.36,6.36,0,0,1-3.05-.71,6.18,6.18,0,0,1-2.08-1.79l.33-.79v3H31.4V128.61h2.79v12.9l-.06-1a5.34,5.34,0,0,1,2.12-1.55,7.84,7.84,0,0,1,3.13-.61,6.15,6.15,0,0,1,3,.77,5.89,5.89,0,0,1,2.21,2.14,6.2,6.2,0,0,1,.82,3.25,6.34,6.34,0,0,1-.89,3.41,5.82,5.82,0,0,1-2.35,2.19A6.9,6.9,0,0,1,39,150.84Zm-.6-2.24a4.35,4.35,0,0,0,2.18-.54,4,4,0,0,0,1.48-1.47,4.16,4.16,0,0,0,.54-2.1,3.92,3.92,0,0,0-.55-2.06,4,4,0,0,0-1.5-1.44,4.36,4.36,0,0,0-2.15-.53,4.89,4.89,0,0,0-1.89.36,3.94,3.94,0,0,0-1.45,1,3.85,3.85,0,0,0-.86,1.48v2.41a4,4,0,0,0,.81,1.49,4,4,0,0,0,1.46,1.05A4.89,4.89,0,0,0,38.42,148.6Z"/><path class="cls-2" d="M53.18,151a4.09,4.09,0,0,1-2.83-1,3.44,3.44,0,0,1-1.16-2.54v-8.67H52v7.74a2.48,2.48,0,0,0,.6,1.54,2.2,2.2,0,0,0,1.68.64,3.07,3.07,0,0,0,1.84-.58,4.2,4.2,0,0,0,1.34-1.59,5,5,0,0,0,.51-2.28v-5.47h2.79v11.73H58.22L58,147.66l.18.54a4.57,4.57,0,0,1-1.11,1.43,5.32,5.32,0,0,1-1.72,1A6.15,6.15,0,0,1,53.18,151Z"/><path class="cls-2" d="M68.09,138.82l.27,3.4-.12-.48a5.21,5.21,0,0,1,1.38-1.82,6.84,6.84,0,0,1,1.92-1.16,5.76,5.76,0,0,1,1.74-.43L73.16,141a4.18,4.18,0,0,0-2.5.5A4.68,4.68,0,0,0,69,143.08a3.93,3.93,0,0,0-.61,2.12v5.35H65.57V138.82Z"/><path class="cls-2" d="M75.23,144.57a5.85,5.85,0,0,1,.89-3.17,6.25,6.25,0,0,1,2.45-2.24,7.66,7.66,0,0,1,3.59-.83,7.35,7.35,0,0,1,3.54.83,6,6,0,0,1,3.24,5.41A6.06,6.06,0,0,1,85.7,150a7.3,7.3,0,0,1-3.57.84,7.83,7.83,0,0,1-3.56-.78,6.14,6.14,0,0,1-2.44-2.18A6,6,0,0,1,75.23,144.57Zm2.82,0a4,4,0,0,0,.54,2.06A4.11,4.11,0,0,0,80,148.12a3.89,3.89,0,0,0,2,.54,3.89,3.89,0,0,0,3.49-2,4.15,4.15,0,0,0-1.42-5.59,4.1,4.1,0,0,0-4.12,0,4.14,4.14,0,0,0-1.45,1.49A4,4,0,0,0,78.05,144.6Z"/><path class="cls-2" d="M102.77,149.45a6.55,6.55,0,0,1-2,1,8.15,8.15,0,0,1-5.89-.4,5.82,5.82,0,0,1-2.42-2.15,6,6,0,0,1-.87-3.26,5.67,5.67,0,0,1,.93-3.25,6.24,6.24,0,0,1,2.41-2.12,7,7,0,0,1,3.23-.76,8.43,8.43,0,0,1,2.65.39,6.24,6.24,0,0,1,2.06,1.09l-1.41,1.7a6.32,6.32,0,0,0-1.31-.7,4.7,4.7,0,0,0-1.75-.32,4,4,0,0,0-2,.52,3.88,3.88,0,0,0-1.45,1.42,3.93,3.93,0,0,0-.52,2,3.86,3.86,0,0,0,.54,2,4,4,0,0,0,1.5,1.45,4.45,4.45,0,0,0,2.22.54,4.65,4.65,0,0,0,1.46-.23,4.35,4.35,0,0,0,1.21-.63Z"/><path class="cls-2" d="M108.86,138.82l.27,3.4-.12-.48a5.21,5.21,0,0,1,1.38-1.82,6.84,6.84,0,0,1,1.92-1.16,5.76,5.76,0,0,1,1.74-.43l-.12,2.67a4.22,4.22,0,0,0-2.51.5,4.65,4.65,0,0,0-1.68,1.58,3.93,3.93,0,0,0-.61,2.12v5.35h-2.79V138.82Z"/><path class="cls-2" d="M122.36,150.84a7.06,7.06,0,0,1-3.17-.71,5.46,5.46,0,0,1-2.26-2.08,7.13,7.13,0,0,1,0-6.77,5.92,5.92,0,0,1,2.34-2.18,6.85,6.85,0,0,1,3.21-.77,5.51,5.51,0,0,1,2.95.76,5.24,5.24,0,0,1,1.82,1.77l-.18.42.27-2.46H130v11.73h-2.79v-3.06l.33.68a3.77,3.77,0,0,1-.57.73,7.3,7.3,0,0,1-1.07.89,6,6,0,0,1-3.49,1.05Zm.75-2.18a4.75,4.75,0,0,0,1.89-.37,3.74,3.74,0,0,0,1.39-1,3.87,3.87,0,0,0,.77-1.59v-2.3a3.53,3.53,0,0,0-.84-1.48,4.19,4.19,0,0,0-1.44-1,4.77,4.77,0,0,0-1.83-.35A4.23,4.23,0,0,0,121,141a3.91,3.91,0,0,0-1.49,1.42,4,4,0,0,0-.55,2.12,3.88,3.88,0,0,0,.57,2.07,4.1,4.1,0,0,0,1.53,1.48A4.15,4.15,0,0,0,123.11,148.66Z"/><path class="cls-2" d="M136,133.66h2.85v5.21h3.39v2.07h-3.39v9.61H136v-9.61h-2.25v-2.07H136Z"/><path class="cls-2" d="M145.4,134.56a1.32,1.32,0,0,1,.52-1.05,1.82,1.82,0,0,1,1.16-.42,1.75,1.75,0,0,1,1.14.42,1.33,1.33,0,0,1,.51,1.05,1.32,1.32,0,0,1-.51,1.07,1.79,1.79,0,0,1-1.14.41,1.87,1.87,0,0,1-1.16-.41A1.3,1.3,0,0,1,145.4,134.56Zm.18,4.26h2.82v11.73h-2.82Z"/><path class="cls-2" d="M163.34,149.45a6.55,6.55,0,0,1-2,1,8.18,8.18,0,0,1-5.9-.4,5.85,5.85,0,0,1-2.41-2.15,6,6,0,0,1-.87-3.26,5.67,5.67,0,0,1,.93-3.25,6.24,6.24,0,0,1,2.41-2.12,7,7,0,0,1,3.23-.76,8.43,8.43,0,0,1,2.65.39,6.24,6.24,0,0,1,2.06,1.09l-1.41,1.7a6.32,6.32,0,0,0-1.31-.7,4.7,4.7,0,0,0-1.75-.32,4,4,0,0,0-2,.52,3.85,3.85,0,0,0-2,3.45,3.86,3.86,0,0,0,.54,2,4,4,0,0,0,1.5,1.45,4.45,4.45,0,0,0,2.22.54,4.54,4.54,0,0,0,1.45-.23,4.28,4.28,0,0,0,1.22-.63Z"/><path class="cls-2" d="M166.73,134.56a1.32,1.32,0,0,1,.52-1.05,1.82,1.82,0,0,1,1.16-.42,1.75,1.75,0,0,1,1.14.42,1.33,1.33,0,0,1,.51,1.05,1.32,1.32,0,0,1-.51,1.07,1.79,1.79,0,0,1-1.14.41,1.87,1.87,0,0,1-1.16-.41A1.3,1.3,0,0,1,166.73,134.56Zm.18,4.26h2.82v11.73h-2.82Z"/><path class="cls-2" d="M189.11,150.84a6.23,6.23,0,0,1-3.12-.78,5.86,5.86,0,0,1-2.21-2.21,6.53,6.53,0,0,1-.82-3.31,6.18,6.18,0,0,1,.87-3.34,5.72,5.72,0,0,1,2.34-2.13,7.28,7.28,0,0,1,3.3-.74,6.74,6.74,0,0,1,2.8.6,5.1,5.1,0,0,1,2.09,1.64l-.15.94v-12.9H197v21.94h-2.79v-2.92l.33.74a7,7,0,0,1-2.3,1.77A6.83,6.83,0,0,1,189.11,150.84Zm.87-2.24a4.52,4.52,0,0,0,2-.4,4.28,4.28,0,0,0,1.44-1.06,3.81,3.81,0,0,0,.83-1.58v-2.23a3.63,3.63,0,0,0-.86-1.51,4.17,4.17,0,0,0-1.47-1,4.84,4.84,0,0,0-1.9-.36,4.35,4.35,0,0,0-2.07.51,4,4,0,0,0-1.53,1.42,4.12,4.12,0,0,0,0,4.18,4.26,4.26,0,0,0,1.53,1.48A4.16,4.16,0,0,0,190,148.6Z"/><path class="cls-2" d="M207.62,150.84A7.73,7.73,0,0,1,204,150a6,6,0,0,1-2.37-2.21,6.16,6.16,0,0,1-.84-3.22,5.57,5.57,0,0,1,.94-3.15,6.93,6.93,0,0,1,2.51-2.26,7.12,7.12,0,0,1,3.48-.86,6.12,6.12,0,0,1,4.08,1.37,6.89,6.89,0,0,1,2.22,3.74l-10.26,3.4-.66-1.56,8.37-2.92-.57.4a3.85,3.85,0,0,0-1.2-1.62,3.39,3.39,0,0,0-2.19-.68,4,4,0,0,0-2,.51,3.69,3.69,0,0,0-1.39,1.41,4.11,4.11,0,0,0-.51,2.08,4.31,4.31,0,0,0,.52,2.13,3.75,3.75,0,0,0,1.47,1.46,4.36,4.36,0,0,0,2.15.52,4.44,4.44,0,0,0,1.57-.28,7.42,7.42,0,0,0,1.46-.74l1.26,2a9.32,9.32,0,0,1-2.09,1A7.57,7.57,0,0,1,207.62,150.84Z"/><path class="cls-2" d="M223.46,156.4a8.66,8.66,0,0,1-2.45-.32,7.27,7.27,0,0,1-1.92-.85,16.87,16.87,0,0,1-1.66-1.19l1.65-1.81a9.2,9.2,0,0,0,2,1.33,5.29,5.29,0,0,0,2.28.48,5.65,5.65,0,0,0,2.38-.44,3.28,3.28,0,0,0,1.47-1.2,3.42,3.42,0,0,0,.53-1.79l0-3.17.24.51a4.55,4.55,0,0,1-2,2.05,6.57,6.57,0,0,1-3.42.84,6.27,6.27,0,0,1-3.12-.82,6.33,6.33,0,0,1-2.31-2.23,5.78,5.78,0,0,1-.87-3.16,5.93,5.93,0,0,1,.9-3.26,6.37,6.37,0,0,1,2.38-2.23,6.65,6.65,0,0,1,3.23-.81,7.09,7.09,0,0,1,3,.64,4.84,4.84,0,0,1,2,1.63l-.18.48.27-2.26h2.58v11.82a5.16,5.16,0,0,1-.86,2.89,6,6,0,0,1-2.46,2.09A8.58,8.58,0,0,1,223.46,156.4Zm-4.29-11.83a3.8,3.8,0,0,0,.58,2.07,4.18,4.18,0,0,0,1.56,1.48,4.37,4.37,0,0,0,2.15.54,4.87,4.87,0,0,0,2-.39,4.13,4.13,0,0,0,1.49-1.06,3.86,3.86,0,0,0,.84-1.5v-2.36a3.55,3.55,0,0,0-.9-1.47,4.56,4.56,0,0,0-1.5-1,4.83,4.83,0,0,0-1.92-.37,4.47,4.47,0,0,0-2.15.52,4.21,4.21,0,0,0-1.56,1.43A3.81,3.81,0,0,0,219.17,144.57Z"/><path class="cls-2" d="M235.4,128.61h2.81v21.94H235.4Z"/><path class="cls-2" d="M242.87,134.56a1.32,1.32,0,0,1,.52-1.05,1.81,1.81,0,0,1,1.15-.42,1.79,1.79,0,0,1,1.15.42,1.33,1.33,0,0,1,.51,1.05,1.32,1.32,0,0,1-.51,1.07,1.84,1.84,0,0,1-1.15.41,1.86,1.86,0,0,1-1.15-.41A1.3,1.3,0,0,1,242.87,134.56Zm.17,4.26h2.83v11.73H243Z"/><path class="cls-2" d="M265.36,150.84a7,7,0,0,1-3.16-.71,5.49,5.49,0,0,1-2.27-2.08,7.13,7.13,0,0,1,0-6.77,5.92,5.92,0,0,1,2.34-2.18,6.85,6.85,0,0,1,3.21-.77,5.54,5.54,0,0,1,3,.76,5.21,5.21,0,0,1,1.81,1.77l-.18.42.27-2.46H273v11.73h-2.79v-3.06l.33.68a3.77,3.77,0,0,1-.57.73,7.18,7.18,0,0,1-1.06.89,6.16,6.16,0,0,1-1.52.75A6.06,6.06,0,0,1,265.36,150.84Zm.75-2.18a4.75,4.75,0,0,0,1.89-.37,3.78,3.78,0,0,0,1.4-1,3.85,3.85,0,0,0,.76-1.59v-2.3a3.53,3.53,0,0,0-.84-1.48,4.19,4.19,0,0,0-1.44-1,4.77,4.77,0,0,0-1.83-.35A4.23,4.23,0,0,0,264,141a3.88,3.88,0,0,0-1.48,1.42,4,4,0,0,0-.56,2.12,3.88,3.88,0,0,0,.57,2.07,4.1,4.1,0,0,0,1.53,1.48A4.15,4.15,0,0,0,266.11,148.66Z"/><path class="cls-2" d="M277.78,128.61h2.82v21.94h-2.82Z"/><path class="cls-2" d="M286.63,133.66h2.85v5.21h3.39v2.07h-3.39v9.61h-2.85v-9.61h-2.25v-2.07h2.25Z"/><path class="cls-2" d="M298.75,138.82l.27,3.4-.12-.48a5.21,5.21,0,0,1,1.38-1.82,6.84,6.84,0,0,1,1.92-1.16,5.76,5.76,0,0,1,1.74-.43l-.12,2.67a4.18,4.18,0,0,0-2.5.5,4.65,4.65,0,0,0-1.68,1.58,3.94,3.94,0,0,0-.62,2.12v5.35h-2.79V138.82Z"/><path class="cls-2" d="M307.33,134.56a1.33,1.33,0,0,1,.53-1.05,1.79,1.79,0,0,1,1.15-.42,1.75,1.75,0,0,1,1.14.42,1.33,1.33,0,0,1,.51,1.05,1.32,1.32,0,0,1-.51,1.07A1.79,1.79,0,0,1,309,136a1.84,1.84,0,0,1-1.15-.41A1.31,1.31,0,0,1,307.33,134.56Zm.18,4.26h2.82v11.73h-2.82Z"/><path class="cls-2" d="M330.43,150.84a7.73,7.73,0,0,1-3.66-.81,6,6,0,0,1-2.37-2.21,6.16,6.16,0,0,1-.84-3.22,5.58,5.58,0,0,1,.95-3.15,6.82,6.82,0,0,1,2.5-2.26,7.12,7.12,0,0,1,3.48-.86,6.12,6.12,0,0,1,4.08,1.37,6.89,6.89,0,0,1,2.22,3.74l-10.26,3.4-.66-1.56,8.37-2.92-.57.4a3.85,3.85,0,0,0-1.2-1.62,3.39,3.39,0,0,0-2.19-.68,4,4,0,0,0-2,.51,3.72,3.72,0,0,0-1.4,1.41,4.11,4.11,0,0,0-.51,2.08,4.31,4.31,0,0,0,.53,2.13,3.63,3.63,0,0,0,1.47,1.46,4.32,4.32,0,0,0,2.14.52,4.5,4.5,0,0,0,1.58-.28,7.34,7.34,0,0,0,1.45-.74l1.26,2a9.45,9.45,0,0,1-2.08,1A7.64,7.64,0,0,1,330.43,150.84Z"/><path class="cls-2" d="M352.27,138.82l.21,2.86-.09-.45a4.45,4.45,0,0,1,1.92-2.09,6.18,6.18,0,0,1,3.15-.78,4.21,4.21,0,0,1,2.86,1,3.3,3.3,0,0,1,1.16,2.54v8.67h-2.82v-7.76a2.29,2.29,0,0,0-.59-1.55,2.18,2.18,0,0,0-1.72-.61,3.52,3.52,0,0,0-1.94.57,3.85,3.85,0,0,0-1.37,1.56,5.08,5.08,0,0,0-.5,2.29v5.5h-2.82V138.82Z"/><path class="cls-2" d="M365.23,144.57a5.85,5.85,0,0,1,.89-3.17,6.25,6.25,0,0,1,2.45-2.24,7.66,7.66,0,0,1,3.59-.83,7.35,7.35,0,0,1,3.54.83,6,6,0,0,1,3.24,5.41A6.06,6.06,0,0,1,375.7,150a7.3,7.3,0,0,1-3.57.84,7.83,7.83,0,0,1-3.56-.78,6.14,6.14,0,0,1-2.44-2.18A6,6,0,0,1,365.23,144.57Zm2.82,0a4,4,0,0,0,.54,2.06,4.11,4.11,0,0,0,1.44,1.46,3.89,3.89,0,0,0,2,.54,3.89,3.89,0,0,0,3.49-2,4.15,4.15,0,0,0-1.42-5.59,4.1,4.1,0,0,0-4.12,0,4.14,4.14,0,0,0-1.45,1.49A4,4,0,0,0,368.05,144.6Z"/><path class="cls-2" d="M385.21,138.82l.21,2.86-.09-.45a4.45,4.45,0,0,1,1.92-2.09,6.18,6.18,0,0,1,3.15-.78,4.21,4.21,0,0,1,2.86,1,3.3,3.3,0,0,1,1.16,2.54v8.67H391.6v-7.76a2.33,2.33,0,0,0-.59-1.55,2.2,2.2,0,0,0-1.72-.61,3.52,3.52,0,0,0-1.94.57,3.87,3.87,0,0,0-1.38,1.56,5.08,5.08,0,0,0-.49,2.29v5.5h-2.82V138.82Z"/><path class="cls-2" d="M416.08,150.84a6.19,6.19,0,0,1-2.72-.63,4.72,4.72,0,0,1-2-1.67l.15-.82v8.48h-2.79V138.65h2.43l.39,3-.3-.85a7,7,0,0,1,2.28-1.77,6.82,6.82,0,0,1,3.09-.7,6.2,6.2,0,0,1,3.13.79,5.59,5.59,0,0,1,2.21,2.21,6.62,6.62,0,0,1,.81,3.33,6.05,6.05,0,0,1-.87,3.27,5.74,5.74,0,0,1-2.39,2.16A7.62,7.62,0,0,1,416.08,150.84Zm-.54-2.1a4.6,4.6,0,0,0,2.19-.52,4.38,4.38,0,0,0,1.6-1.45,3.66,3.66,0,0,0,.62-2.08,4,4,0,0,0-.57-2.12,4.12,4.12,0,0,0-1.52-1.44,4.26,4.26,0,0,0-2.11-.53,4.72,4.72,0,0,0-1.95.39,3.86,3.86,0,0,0-1.44,1.06,4,4,0,0,0-.81,1.62v2a3.38,3.38,0,0,0,.72,1.56,4,4,0,0,0,1.42,1.12A4.28,4.28,0,0,0,415.54,148.74Z"/><path class="cls-2" d="M430.51,151a4.12,4.12,0,0,1-2.84-1,3.43,3.43,0,0,1-1.15-2.54v-8.67h2.82v7.74a2.48,2.48,0,0,0,.6,1.54,2.2,2.2,0,0,0,1.68.64,3.1,3.1,0,0,0,1.84-.58,4.29,4.29,0,0,0,1.34-1.59,5,5,0,0,0,.51-2.28v-5.47h2.79v11.73h-2.55l-.24-2.89.18.54a4.57,4.57,0,0,1-1.11,1.43,5.37,5.37,0,0,1-1.73,1A6.06,6.06,0,0,1,430.51,151Z"/><path class="cls-2" d="M441.82,144.57a5.84,5.84,0,0,1,.88-3.17,6.21,6.21,0,0,1,2.46-2.24,7.63,7.63,0,0,1,3.59-.83,7.35,7.35,0,0,1,3.54.83,6.19,6.19,0,0,1,2.38,8.59,6.14,6.14,0,0,1-2.38,2.25,7.3,7.3,0,0,1-3.57.84,7.81,7.81,0,0,1-3.56-.78,6.14,6.14,0,0,1-2.44-2.18A6,6,0,0,1,441.82,144.57Zm2.52-11.93h3.09l2.19,3.8h-1.77Zm.3,12a4,4,0,0,0,.54,2.06,4.11,4.11,0,0,0,1.44,1.46,3.89,3.89,0,0,0,2,.54,3.89,3.89,0,0,0,3.49-2,4.15,4.15,0,0,0-1.42-5.59,3.86,3.86,0,0,0-2.07-.55,3.91,3.91,0,0,0-2.06.56,4.19,4.19,0,0,0-1.44,1.49A4,4,0,0,0,444.64,144.6Z"/><path class="cls-2" d="M476.08,150.84a6.19,6.19,0,0,1-2.72-.63,4.72,4.72,0,0,1-2-1.67l.15-.82v8.48h-2.79V138.65h2.43l.39,3-.3-.85a7,7,0,0,1,2.28-1.77,6.82,6.82,0,0,1,3.09-.7,6.2,6.2,0,0,1,3.13.79,5.59,5.59,0,0,1,2.21,2.21,6.62,6.62,0,0,1,.81,3.33,6.05,6.05,0,0,1-.87,3.27,5.74,5.74,0,0,1-2.39,2.16A7.62,7.62,0,0,1,476.08,150.84Zm-.54-2.1a4.6,4.6,0,0,0,2.19-.52,4.38,4.38,0,0,0,1.6-1.45,3.66,3.66,0,0,0,.62-2.08,4,4,0,0,0-.57-2.12,4.12,4.12,0,0,0-1.52-1.44,4.26,4.26,0,0,0-2.11-.53,4.72,4.72,0,0,0-1.95.39,3.86,3.86,0,0,0-1.44,1.06,4,4,0,0,0-.81,1.62v2a3.38,3.38,0,0,0,.72,1.56,4,4,0,0,0,1.42,1.12A4.28,4.28,0,0,0,475.54,148.74Z"/><path class="cls-2" d="M491.71,150.84a7.06,7.06,0,0,1-3.17-.71,5.46,5.46,0,0,1-2.26-2.08,7.13,7.13,0,0,1,0-6.77,5.92,5.92,0,0,1,2.34-2.18,6.85,6.85,0,0,1,3.21-.77,5.51,5.51,0,0,1,2.95.76,5.24,5.24,0,0,1,1.82,1.77l-.18.42.27-2.46h2.58v11.73h-2.79v-3.06l.33.68a3.77,3.77,0,0,1-.57.73,7.3,7.3,0,0,1-1.07.89,6,6,0,0,1-3.49,1.05Zm.75-2.18a4.75,4.75,0,0,0,1.89-.37,3.74,3.74,0,0,0,1.39-1,3.87,3.87,0,0,0,.77-1.59v-2.3a3.53,3.53,0,0,0-.84-1.48,4.19,4.19,0,0,0-1.44-1,4.77,4.77,0,0,0-1.83-.35,4.23,4.23,0,0,0-2.07.51,3.91,3.91,0,0,0-1.49,1.42,4,4,0,0,0-.55,2.12,3.88,3.88,0,0,0,.57,2.07,4.1,4.1,0,0,0,1.53,1.48A4.15,4.15,0,0,0,492.46,148.66Z"/><path class="cls-2" d="M506.65,138.82l.27,3.4-.12-.48a5.21,5.21,0,0,1,1.38-1.82,6.84,6.84,0,0,1,1.92-1.16,5.76,5.76,0,0,1,1.74-.43l-.12,2.67a4.22,4.22,0,0,0-2.51.5,4.65,4.65,0,0,0-1.68,1.58,3.93,3.93,0,0,0-.61,2.12v5.35h-2.79V138.82Z"/><path class="cls-2" d="M516.61,133.66h2.85v5.21h3.39v2.07h-3.39v9.61h-2.85v-9.61h-2.25v-2.07h2.25Z"/><path class="cls-2" d="M526,134.56a1.32,1.32,0,0,1,.52-1.05,1.82,1.82,0,0,1,1.16-.42,1.75,1.75,0,0,1,1.14.42,1.33,1.33,0,0,1,.51,1.05,1.32,1.32,0,0,1-.51,1.07,1.79,1.79,0,0,1-1.14.41,1.87,1.87,0,0,1-1.16-.41A1.3,1.3,0,0,1,526,134.56Zm.18,4.26H529v11.73h-2.82Z"/><path class="cls-2" d="M536.38,138.82l.27,3.4-.12-.48a5.09,5.09,0,0,1,1.38-1.82,6.7,6.7,0,0,1,1.92-1.16,5.76,5.76,0,0,1,1.74-.43l-.12,2.67a4.22,4.22,0,0,0-2.51.5,4.65,4.65,0,0,0-1.68,1.58,3.93,3.93,0,0,0-.61,2.12v5.35h-2.79V138.82Z"/><path class="cls-2" d="M550.38,150.84a7.73,7.73,0,0,1-3.66-.81,5.93,5.93,0,0,1-2.36-2.21,6.07,6.07,0,0,1-.84-3.22,5.57,5.57,0,0,1,.94-3.15,6.9,6.9,0,0,1,2.5-2.26,7.13,7.13,0,0,1,3.49-.86,6.14,6.14,0,0,1,4.08,1.37,6.88,6.88,0,0,1,2.21,3.74l-10.26,3.4-.66-1.56,8.38-2.92-.57.4a4,4,0,0,0-1.2-1.62,3.42,3.42,0,0,0-2.2-.68,4,4,0,0,0-2,.51,3.72,3.72,0,0,0-1.4,1.41,4.11,4.11,0,0,0-.51,2.08,4.31,4.31,0,0,0,.53,2.13,3.75,3.75,0,0,0,1.47,1.46,4.33,4.33,0,0,0,2.15.52,4.48,4.48,0,0,0,1.57-.28,7.34,7.34,0,0,0,1.45-.74l1.26,2a9,9,0,0,1-2.08,1A7.59,7.59,0,0,1,550.38,150.84Z"/><path class="cls-2" d="M559.31,148a1.58,1.58,0,0,1,1.09-.45,1.54,1.54,0,0,1,1,.45,1.43,1.43,0,0,1,.49,1.08,1.33,1.33,0,0,1-.49,1.09,1.58,1.58,0,0,1-1,.41,1.63,1.63,0,0,1-1.09-.41,1.33,1.33,0,0,1-.5-1.09A1.45,1.45,0,0,1,559.31,148Z"/></g></g></svg>