<svg xmlns="http://www.w3.org/2000/svg" viewBox="0 0 672 180"><defs><style>.cls-1{fill:#fff;}.cls-2{fill:#846b4a;}</style></defs><title>ahmed testo 4</title><g id="Livello_2" data-name="Livello 2"><g id="illustrazioni"><rect class="cls-1" width="672" height="180" rx="21.32"/></g><g id="testi"><path class="cls-2" d="M19,48.48l9.45-21.35h.18l9.48,21.35H34.74l-7.08-17,2.07-1.27L21.84,48.48Zm5.55-7.77h8.07l1,2.39H23.67Z"/><path class="cls-2" d="M41.43,48.48V26.54h2.76V39.47L44.13,39a5,5,0,0,1,1.93-1.92,6.08,6.08,0,0,1,3.11-.77,4.21,4.21,0,0,1,2.86,1,3.3,3.3,0,0,1,1.16,2.54v8.67H50.37V40.71a2.33,2.33,0,0,0-.59-1.54,2.2,2.2,0,0,0-1.72-.61,3.45,3.45,0,0,0-1.94.58,4,4,0,0,0-1.38,1.57A5,5,0,0,0,44.25,43v5.5Z"/><path class="cls-2" d="M60.57,36.75l.24,2.63-.15-.22a5.27,5.27,0,0,1,2-2.12,5.57,5.57,0,0,1,3-.78,4.81,4.81,0,0,1,1.83.33,3.54,3.54,0,0,1,1.33.91,2.75,2.75,0,0,1,.68,1.4l-.15.11a5,5,0,0,1,2-2A5.25,5.25,0,0,1,74,36.26a4,4,0,0,1,2.89,1A3.49,3.49,0,0,1,78,39.78v8.7H75.15V40.74a2.76,2.76,0,0,0-.46-1.51,1.82,1.82,0,0,0-1.52-.64,3.24,3.24,0,0,0-1.94.61,4,4,0,0,0-1.32,1.59,5.21,5.21,0,0,0-.49,2.14v5.55H66.6V40.74a2.55,2.55,0,0,0-.5-1.51,1.87,1.87,0,0,0-1.54-.64,3.16,3.16,0,0,0-1.92.61,4.16,4.16,0,0,0-1.32,1.6A4.88,4.88,0,0,0,60.84,43v5.52H58V36.75Z"/><path class="cls-2" d="M88.56,48.77A7.73,7.73,0,0,1,84.9,48a6,6,0,0,1-2.37-2.21,6.16,6.16,0,0,1-.84-3.22,5.57,5.57,0,0,1,.94-3.15,7.05,7.05,0,0,1,2.51-2.27,7.23,7.23,0,0,1,3.48-.85,6.16,6.16,0,0,1,4.08,1.36,7,7,0,0,1,2.22,3.75l-10.26,3.4L84,43.21l8.37-2.92-.57.4a3.79,3.79,0,0,0-1.2-1.62,3.39,3.39,0,0,0-2.19-.68,4,4,0,0,0-2,.51A3.74,3.74,0,0,0,85,40.3a4.15,4.15,0,0,0-.51,2.09A4.24,4.24,0,0,0,85,44.51,3.59,3.59,0,0,0,86.48,46a4.3,4.3,0,0,0,2.14.53,4.41,4.41,0,0,0,1.57-.29,6.87,6.87,0,0,0,1.46-.73l1.26,2a8.92,8.92,0,0,1-2.09,1A7.57,7.57,0,0,1,88.56,48.77Z"/><path class="cls-2" d="M103.44,48.77a6.23,6.23,0,0,1-3.12-.78,5.86,5.86,0,0,1-2.21-2.21,6.53,6.53,0,0,1-.82-3.31,6.15,6.15,0,0,1,.87-3.34A5.72,5.72,0,0,1,100.5,37a7.28,7.28,0,0,1,3.3-.74,6.74,6.74,0,0,1,2.8.6,5,5,0,0,1,2.09,1.64l-.15.94V26.54h2.79V48.48h-2.79V45.56l.33.74a7,7,0,0,1-2.3,1.77A6.83,6.83,0,0,1,103.44,48.77Zm.87-2.24a4.67,4.67,0,0,0,2-.4,4.28,4.28,0,0,0,1.44-1.06,3.87,3.87,0,0,0,.83-1.58V41.25a3.65,3.65,0,0,0-.86-1.5,4.34,4.34,0,0,0-1.47-1,5,5,0,0,0-1.9-.35,4.35,4.35,0,0,0-2.07.51,4,4,0,0,0-1.53,1.42,4.12,4.12,0,0,0,0,4.18A4.23,4.23,0,0,0,102.24,46,4.07,4.07,0,0,0,104.31,46.53Z"/><path class="cls-2" d="M128.19,36.75l.21,2.86-.09-.45a4.45,4.45,0,0,1,1.92-2.09,6.18,6.18,0,0,1,3.15-.78,4.21,4.21,0,0,1,2.86,1,3.3,3.3,0,0,1,1.16,2.54v8.67h-2.82V40.71a2.33,2.33,0,0,0-.59-1.54,2.2,2.2,0,0,0-1.72-.61,3.52,3.52,0,0,0-1.94.57A3.87,3.87,0,0,0,129,40.69a5,5,0,0,0-.49,2.29v5.5h-2.82V36.75Z"/><path class="cls-2" d="M141.15,42.5a5.84,5.84,0,0,1,.88-3.17,6.13,6.13,0,0,1,2.46-2.24,7.63,7.63,0,0,1,3.59-.83,7.35,7.35,0,0,1,3.54.83,6,6,0,0,1,3.24,5.41,6.07,6.07,0,0,1-.86,3.18,6.22,6.22,0,0,1-2.38,2.25,7.3,7.3,0,0,1-3.57.84,7.81,7.81,0,0,1-3.56-.78,6.09,6.09,0,0,1-2.44-2.19A6,6,0,0,1,141.15,42.5Zm2.82,0A4,4,0,0,0,146,46a3.89,3.89,0,0,0,2,.54,3.94,3.94,0,0,0,2.07-.54,3.83,3.83,0,0,0,1.42-1.46,4,4,0,0,0,.53-2A4.08,4.08,0,0,0,150.06,39a3.86,3.86,0,0,0-2.07-.55,3.82,3.82,0,0,0-2.06.56,4.19,4.19,0,0,0-1.44,1.49A4,4,0,0,0,144,42.53Z"/><path class="cls-2" d="M161.13,36.75l.21,2.86-.09-.45a4.45,4.45,0,0,1,1.92-2.09,6.18,6.18,0,0,1,3.15-.78,4.21,4.21,0,0,1,2.86,1,3.3,3.3,0,0,1,1.16,2.54v8.67h-2.82V40.71a2.33,2.33,0,0,0-.59-1.54,2.2,2.2,0,0,0-1.72-.61,3.52,3.52,0,0,0-1.94.57,3.87,3.87,0,0,0-1.38,1.56A5,5,0,0,0,161.4,43v5.5h-2.82V36.75Z"/><path class="cls-2" d="M194.76,47.38a6.55,6.55,0,0,1-2,1,8.18,8.18,0,0,1-5.9-.4,5.85,5.85,0,0,1-2.41-2.15,6,6,0,0,1-.87-3.26,5.67,5.67,0,0,1,.93-3.25,6.27,6.27,0,0,1,2.41-2.13,7.07,7.07,0,0,1,3.23-.75,8.74,8.74,0,0,1,2.65.38,6.26,6.26,0,0,1,2.06,1.1l-1.41,1.7a6.32,6.32,0,0,0-1.31-.7,4.7,4.7,0,0,0-1.75-.32,4,4,0,0,0-2,.52,3.85,3.85,0,0,0-1.44,1.42A4,4,0,0,0,188.43,46a4.45,4.45,0,0,0,2.22.54,4.54,4.54,0,0,0,1.45-.22,4.28,4.28,0,0,0,1.22-.63Z"/><path class="cls-2" d="M197.25,42.5a5.84,5.84,0,0,1,.88-3.17,6.13,6.13,0,0,1,2.46-2.24,7.63,7.63,0,0,1,3.59-.83,7.35,7.35,0,0,1,3.54.83A6,6,0,0,1,211,42.5a6.07,6.07,0,0,1-.86,3.18,6.22,6.22,0,0,1-2.38,2.25,7.3,7.3,0,0,1-3.57.84,7.81,7.81,0,0,1-3.56-.78,6.09,6.09,0,0,1-2.44-2.19A6,6,0,0,1,197.25,42.5Zm2.82,0a4,4,0,0,0,2,3.51,3.89,3.89,0,0,0,2,.54,3.94,3.94,0,0,0,2.07-.54,3.83,3.83,0,0,0,1.42-1.46,4,4,0,0,0,.53-2,4.08,4.08,0,0,0-2-3.53,3.86,3.86,0,0,0-2.07-.55A3.82,3.82,0,0,0,202,39a4.19,4.19,0,0,0-1.44,1.49A4,4,0,0,0,200.07,42.53Z"/><path class="cls-2" d="M217.23,36.75l.21,2.86-.09-.45a4.45,4.45,0,0,1,1.92-2.09,6.18,6.18,0,0,1,3.15-.78,4.21,4.21,0,0,1,2.86,1,3.3,3.3,0,0,1,1.16,2.54v8.67h-2.82V40.71a2.33,2.33,0,0,0-.59-1.54,2.2,2.2,0,0,0-1.72-.61,3.52,3.52,0,0,0-1.94.57A3.87,3.87,0,0,0,218,40.69,5,5,0,0,0,217.5,43v5.5h-2.82V36.75Z"/><path class="cls-2" d="M230.19,42.5a5.84,5.84,0,0,1,.88-3.17,6.13,6.13,0,0,1,2.46-2.24,7.63,7.63,0,0,1,3.59-.83,7.35,7.35,0,0,1,3.54.83,6,6,0,0,1,3.24,5.41,6.07,6.07,0,0,1-.86,3.18,6.22,6.22,0,0,1-2.38,2.25,7.3,7.3,0,0,1-3.57.84,7.81,7.81,0,0,1-3.56-.78,6.09,6.09,0,0,1-2.44-2.19A6,6,0,0,1,230.19,42.5Zm2.82,0A4,4,0,0,0,235,46a3.89,3.89,0,0,0,2,.54A3.94,3.94,0,0,0,239.1,46a3.83,3.83,0,0,0,1.42-1.46,4,4,0,0,0,.53-2,4.08,4.08,0,0,0-2-3.53,3.86,3.86,0,0,0-2.07-.55A3.82,3.82,0,0,0,235,39a4.19,4.19,0,0,0-1.44,1.49A4,4,0,0,0,233,42.53Z"/><path class="cls-2" d="M251.13,48.71a7.76,7.76,0,0,1-2.57-.44A4.92,4.92,0,0,1,246.51,47l1.17-1.53a6.24,6.24,0,0,0,1.62,1.06,4,4,0,0,0,1.62.36A4.32,4.32,0,0,0,252,46.7a1.74,1.74,0,0,0,.82-.49,1.21,1.21,0,0,0,.32-.87,1.23,1.23,0,0,0-.44-1,3.41,3.41,0,0,0-1.09-.58c-.44-.15-.92-.29-1.44-.43A5.36,5.36,0,0,1,247.86,42a2.9,2.9,0,0,1-.81-2.07,3.27,3.27,0,0,1,.49-1.74A3.76,3.76,0,0,1,249,36.84a5.07,5.07,0,0,1,2.4-.52,8.19,8.19,0,0,1,2.31.3,5.7,5.7,0,0,1,1.92,1l-1.11,1.65a3.49,3.49,0,0,0-1.28-.81,3.89,3.89,0,0,0-1.33-.27,3,3,0,0,0-1,.16,1.75,1.75,0,0,0-.75.45,1,1,0,0,0-.28.75,1.07,1.07,0,0,0,.4,1,3.46,3.46,0,0,0,1.1.58l1.35.46a6.57,6.57,0,0,1,1.62.68,3.53,3.53,0,0,1,1.15,1.05,2.64,2.64,0,0,1,.44,1.56,3.77,3.77,0,0,1-.53,1.94,3.69,3.69,0,0,1-1.59,1.42A6.12,6.12,0,0,1,251.13,48.71Z"/><path class="cls-2" d="M269.94,47.38a6.55,6.55,0,0,1-2,1A8.18,8.18,0,0,1,262,48a5.85,5.85,0,0,1-2.41-2.15,6,6,0,0,1-.87-3.26,5.67,5.67,0,0,1,.93-3.25,6.27,6.27,0,0,1,2.41-2.13,7.07,7.07,0,0,1,3.23-.75,8.74,8.74,0,0,1,2.65.38,6.26,6.26,0,0,1,2.06,1.1l-1.41,1.7a6.32,6.32,0,0,0-1.31-.7,4.7,4.7,0,0,0-1.75-.32,4,4,0,0,0-2,.52,3.85,3.85,0,0,0-1.44,1.42A4,4,0,0,0,263.61,46a4.45,4.45,0,0,0,2.22.54,4.54,4.54,0,0,0,1.45-.22,4.28,4.28,0,0,0,1.22-.63Z"/><path class="cls-2" d="M279.3,48.77a7.73,7.73,0,0,1-3.66-.81,6,6,0,0,1-2.37-2.21,6.16,6.16,0,0,1-.84-3.22,5.57,5.57,0,0,1,.94-3.15,7.05,7.05,0,0,1,2.51-2.27,7.23,7.23,0,0,1,3.48-.85,6.16,6.16,0,0,1,4.08,1.36,7,7,0,0,1,2.22,3.75l-10.26,3.4-.66-1.56,8.37-2.92-.57.4a3.79,3.79,0,0,0-1.2-1.62,3.39,3.39,0,0,0-2.19-.68,4,4,0,0,0-2,.51,3.74,3.74,0,0,0-1.39,1.4,4.15,4.15,0,0,0-.51,2.09,4.24,4.24,0,0,0,.52,2.12A3.63,3.63,0,0,0,277.21,46a4.36,4.36,0,0,0,2.15.53,4.45,4.45,0,0,0,1.57-.29,6.87,6.87,0,0,0,1.46-.73l1.26,2a8.92,8.92,0,0,1-2.09,1A7.57,7.57,0,0,1,279.3,48.77Z"/><path class="cls-2" d="M298.59,26.54h2.81V48.48h-2.81Z"/><path class="cls-2" d="M311.42,48.77a7,7,0,0,1-3.16-.71A5.44,5.44,0,0,1,306,46a6.3,6.3,0,0,1-.84-3.36,6.39,6.39,0,0,1,.87-3.4A5.92,5.92,0,0,1,308.36,37a6.85,6.85,0,0,1,3.21-.77,5.54,5.54,0,0,1,3,.75,5.32,5.32,0,0,1,1.81,1.78l-.18.42.27-2.46H319V48.48h-2.79V45.42l.33.68a3.49,3.49,0,0,1-.57.72,6.63,6.63,0,0,1-1.06.9,6.16,6.16,0,0,1-1.52.75A6.06,6.06,0,0,1,311.42,48.77Zm.75-2.19a4.59,4.59,0,0,0,1.89-.37,3.65,3.65,0,0,0,1.4-1,3.91,3.91,0,0,0,.76-1.59v-2.3a3.56,3.56,0,0,0-.84-1.49,4.3,4.3,0,0,0-1.44-1,4.59,4.59,0,0,0-1.83-.35A4.23,4.23,0,0,0,310,39a3.88,3.88,0,0,0-1.48,1.42A4,4,0,0,0,308,42.5a3.88,3.88,0,0,0,.57,2.07A4.07,4.07,0,0,0,310.1,46,4.15,4.15,0,0,0,312.17,46.58Z"/><path class="cls-2" d="M333.32,26.54h2.82V48.48h-2.82Z"/><path class="cls-2" d="M340.79,32.49a1.33,1.33,0,0,1,.53-1.05,1.79,1.79,0,0,1,1.15-.42,1.75,1.75,0,0,1,1.14.42,1.33,1.33,0,0,1,.51,1.05,1.28,1.28,0,0,1-.51,1.06,1.75,1.75,0,0,1-1.14.42,1.79,1.79,0,0,1-1.15-.42A1.28,1.28,0,0,1,340.79,32.49Zm.18,4.26h2.82V48.48H341Z"/><path class="cls-2" d="M351.17,36.75l.21,2.86-.09-.45a4.45,4.45,0,0,1,1.92-2.09,6.18,6.18,0,0,1,3.15-.78,4.23,4.23,0,0,1,2.87,1,3.29,3.29,0,0,1,1.15,2.54v8.67h-2.82V40.71a2.32,2.32,0,0,0-.58-1.54,2.22,2.22,0,0,0-1.73-.61,3.49,3.49,0,0,0-1.93.57,3.87,3.87,0,0,0-1.38,1.56,5,5,0,0,0-.5,2.29v5.5h-2.82V36.75Z"/><path class="cls-2" d="M371.24,54.32A8.61,8.61,0,0,1,368.8,54a7.61,7.61,0,0,1-1.92-.85A17,17,0,0,1,365.21,52l1.65-1.81a9.2,9.2,0,0,0,2,1.33,5.29,5.29,0,0,0,2.28.48,5.86,5.86,0,0,0,2.39-.44,3.28,3.28,0,0,0,1.47-1.2,3.42,3.42,0,0,0,.52-1.79l0-3.17.24.51a4.6,4.6,0,0,1-1.95,2,6.57,6.57,0,0,1-3.42.84,6.27,6.27,0,0,1-3.12-.82A6.5,6.5,0,0,1,365,45.72a6.26,6.26,0,0,1,0-6.42,6.4,6.4,0,0,1,2.39-2.23,6.61,6.61,0,0,1,3.22-.81,7.14,7.14,0,0,1,3,.64,4.81,4.81,0,0,1,2,1.63l-.18.48.27-2.26h2.58V48.57a5.15,5.15,0,0,1-.85,2.89A6,6,0,0,1,375,53.54,8.62,8.62,0,0,1,371.24,54.32ZM367,42.5a3.81,3.81,0,0,0,.59,2.07A4.16,4.16,0,0,0,369.1,46a4.33,4.33,0,0,0,2.14.54,4.92,4.92,0,0,0,2-.38,4.09,4.09,0,0,0,1.48-1.06,4,4,0,0,0,.84-1.51V41.28a3.49,3.49,0,0,0-.9-1.47,4.75,4.75,0,0,0-1.5-1,5,5,0,0,0-1.92-.36,4.43,4.43,0,0,0-2.14.52,4.21,4.21,0,0,0-1.56,1.43A3.82,3.82,0,0,0,367,42.5Z"/><path class="cls-2" d="M387.17,48.94a4.09,4.09,0,0,1-2.83-1,3.44,3.44,0,0,1-1.16-2.54V36.75H386v7.74a2.48,2.48,0,0,0,.6,1.54,2.2,2.2,0,0,0,1.68.64,3.2,3.2,0,0,0,1.85-.58,4.26,4.26,0,0,0,1.33-1.59,5,5,0,0,0,.51-2.28V36.75h2.79V48.48h-2.55L392,45.59l.18.54A4.57,4.57,0,0,1,391,47.56a5.32,5.32,0,0,1-1.72,1A6.35,6.35,0,0,1,387.17,48.94Z"/><path class="cls-2" d="M404.75,48.77a7,7,0,0,1-3.16-.71A5.44,5.44,0,0,1,399.32,46a6.3,6.3,0,0,1-.84-3.36,6.39,6.39,0,0,1,.87-3.4A5.92,5.92,0,0,1,401.69,37a6.85,6.85,0,0,1,3.21-.77,5.54,5.54,0,0,1,3,.75,5.32,5.32,0,0,1,1.81,1.78l-.18.42.27-2.46h2.58V48.48h-2.79V45.42l.33.68a3.49,3.49,0,0,1-.57.72,6.63,6.63,0,0,1-1.06.9,6.16,6.16,0,0,1-1.52.75A6.06,6.06,0,0,1,404.75,48.77Zm.75-2.19a4.59,4.59,0,0,0,1.89-.37,3.65,3.65,0,0,0,1.4-1,3.91,3.91,0,0,0,.76-1.59v-2.3a3.56,3.56,0,0,0-.84-1.49,4.3,4.3,0,0,0-1.44-1,4.59,4.59,0,0,0-1.83-.35,4.23,4.23,0,0,0-2.07.51,3.88,3.88,0,0,0-1.48,1.42,4,4,0,0,0-.56,2.12,3.88,3.88,0,0,0,.57,2.07A4.07,4.07,0,0,0,403.43,46,4.15,4.15,0,0,0,405.5,46.58Z"/><path class="cls-2" d="M426.47,32.49a1.33,1.33,0,0,1,.53-1.05,1.79,1.79,0,0,1,1.15-.42,1.75,1.75,0,0,1,1.14.42,1.33,1.33,0,0,1,.51,1.05,1.28,1.28,0,0,1-.51,1.06,1.75,1.75,0,0,1-1.14.42,1.79,1.79,0,0,1-1.15-.42A1.28,1.28,0,0,1,426.47,32.49Zm.18,4.26h2.82V48.48h-2.82Z"/><path class="cls-2" d="M435.5,31.58h2.85V36.8h3.39v2.07h-3.39v9.61H435.5V38.87h-2.25V36.8h2.25Z"/><path class="cls-2" d="M450.29,48.77a7.06,7.06,0,0,1-3.17-.71A5.42,5.42,0,0,1,444.86,46a6.3,6.3,0,0,1-.84-3.36,6.39,6.39,0,0,1,.87-3.4A5.92,5.92,0,0,1,447.23,37a6.85,6.85,0,0,1,3.21-.77,5.56,5.56,0,0,1,3,.75,5.41,5.41,0,0,1,1.81,1.78l-.18.42.27-2.46h2.58V48.48h-2.79V45.42l.33.68a3.49,3.49,0,0,1-.57.72,6.74,6.74,0,0,1-1.07.9,6,6,0,0,1-3.49,1.05Zm.75-2.19a4.59,4.59,0,0,0,1.89-.37,3.62,3.62,0,0,0,1.39-1,3.93,3.93,0,0,0,.77-1.59v-2.3a3.56,3.56,0,0,0-.84-1.49,4.3,4.3,0,0,0-1.44-1,4.59,4.59,0,0,0-1.83-.35,4.23,4.23,0,0,0-2.07.51,3.91,3.91,0,0,0-1.49,1.42,4,4,0,0,0-.55,2.12,3.88,3.88,0,0,0,.57,2.07A4.07,4.07,0,0,0,449,46,4.15,4.15,0,0,0,451,46.58Z"/><path class="cls-2" d="M462.71,26.54h2.82V48.48h-2.82Z"/><path class="cls-2" d="M470.18,32.49a1.32,1.32,0,0,1,.52-1.05,1.82,1.82,0,0,1,1.16-.42,1.75,1.75,0,0,1,1.14.42,1.33,1.33,0,0,1,.51,1.05,1.28,1.28,0,0,1-.51,1.06,1.75,1.75,0,0,1-1.14.42,1.82,1.82,0,0,1-1.16-.42A1.27,1.27,0,0,1,470.18,32.49Zm.18,4.26h2.82V48.48h-2.82Z"/><path class="cls-2" d="M483.2,48.77a7.06,7.06,0,0,1-3.17-.71A5.42,5.42,0,0,1,477.77,46a6.3,6.3,0,0,1-.84-3.36,6.39,6.39,0,0,1,.87-3.4A5.92,5.92,0,0,1,480.14,37a6.85,6.85,0,0,1,3.21-.77,5.5,5.5,0,0,1,2.95.75,5.36,5.36,0,0,1,1.82,1.78l-.18.42.27-2.46h2.58V48.48H488V45.42l.33.68a3.49,3.49,0,0,1-.57.72,6.74,6.74,0,0,1-1.07.9,6,6,0,0,1-3.49,1.05Zm.75-2.19a4.59,4.59,0,0,0,1.89-.37,3.62,3.62,0,0,0,1.39-1,3.93,3.93,0,0,0,.77-1.59v-2.3a3.56,3.56,0,0,0-.84-1.49,4.3,4.3,0,0,0-1.44-1,4.59,4.59,0,0,0-1.83-.35,4.23,4.23,0,0,0-2.07.51,3.91,3.91,0,0,0-1.49,1.42,4,4,0,0,0-.55,2.12,3.88,3.88,0,0,0,.57,2.07A4.07,4.07,0,0,0,481.88,46,4.15,4.15,0,0,0,484,46.58Z"/><path class="cls-2" d="M498.17,36.75l.21,2.86-.09-.45a4.45,4.45,0,0,1,1.92-2.09,6.18,6.18,0,0,1,3.15-.78,4.21,4.21,0,0,1,2.86,1,3.3,3.3,0,0,1,1.16,2.54v8.67h-2.82V40.71a2.33,2.33,0,0,0-.59-1.54,2.2,2.2,0,0,0-1.72-.61,3.52,3.52,0,0,0-1.94.57,3.87,3.87,0,0,0-1.38,1.56,5,5,0,0,0-.49,2.29v5.5h-2.82V36.75Z"/><path class="cls-2" d="M517.4,48.77a7.06,7.06,0,0,1-3.17-.71A5.42,5.42,0,0,1,512,46a6.3,6.3,0,0,1-.84-3.36,6.39,6.39,0,0,1,.87-3.4A5.92,5.92,0,0,1,514.34,37a6.85,6.85,0,0,1,3.21-.77,5.5,5.5,0,0,1,3,.75,5.36,5.36,0,0,1,1.82,1.78l-.18.42.27-2.46H525V48.48H522.2V45.42l.33.68a3.49,3.49,0,0,1-.57.72,6.74,6.74,0,0,1-1.07.9,6,6,0,0,1-3.49,1.05Zm.75-2.19a4.59,4.59,0,0,0,1.89-.37,3.62,3.62,0,0,0,1.39-1,3.93,3.93,0,0,0,.77-1.59v-2.3a3.56,3.56,0,0,0-.84-1.49,4.3,4.3,0,0,0-1.44-1,4.59,4.59,0,0,0-1.83-.35A4.23,4.23,0,0,0,516,39a3.91,3.91,0,0,0-1.49,1.42A4,4,0,0,0,514,42.5a3.88,3.88,0,0,0,.57,2.07A4.07,4.07,0,0,0,516.08,46,4.15,4.15,0,0,0,518.15,46.58Z"/><path class="cls-2" d="M532.4,46l-1.31,3c-.43,1-.86,2-1.3,3h-2.31c.42-1,.82-2,1.2-3s.76-2,1.14-3Z"/><path class="cls-2" d="M552.74,48.77a6.19,6.19,0,0,1-2.72-.63,4.72,4.72,0,0,1-2-1.67l.15-.82v8.48h-2.79V36.58h2.43l.39,3-.3-.85A7,7,0,0,1,550.19,37a6.69,6.69,0,0,1,3.09-.7,6.29,6.29,0,0,1,3.13.78,5.72,5.72,0,0,1,2.21,2.21,6.69,6.69,0,0,1,.81,3.34,6.08,6.08,0,0,1-.87,3.27A5.74,5.74,0,0,1,556.17,48,7.62,7.62,0,0,1,552.74,48.77Zm-.54-2.1a4.6,4.6,0,0,0,2.19-.53A4.35,4.35,0,0,0,556,44.7a3.69,3.69,0,0,0,.62-2.09A4,4,0,0,0,556,40.5a4.12,4.12,0,0,0-1.52-1.44,4.26,4.26,0,0,0-2.11-.53,4.88,4.88,0,0,0-1.95.38A3.89,3.89,0,0,0,549,40a4,4,0,0,0-.81,1.61v2a3.38,3.38,0,0,0,.72,1.56,4.14,4.14,0,0,0,1.42,1.12A4.28,4.28,0,0,0,552.2,46.67Z"/><path class="cls-2" d="M569,48.77a7.73,7.73,0,0,1-3.66-.81,6,6,0,0,1-2.37-2.21,6.16,6.16,0,0,1-.84-3.22,5.57,5.57,0,0,1,.94-3.15,7.05,7.05,0,0,1,2.51-2.27,7.23,7.23,0,0,1,3.48-.85,6.16,6.16,0,0,1,4.08,1.36,7,7,0,0,1,2.22,3.75l-10.26,3.4-.66-1.56,8.37-2.92-.57.4a3.79,3.79,0,0,0-1.2-1.62,3.39,3.39,0,0,0-2.19-.68,4,4,0,0,0-2,.51,3.74,3.74,0,0,0-1.39,1.4,4.15,4.15,0,0,0-.51,2.09,4.24,4.24,0,0,0,.52,2.12A3.63,3.63,0,0,0,566.88,46a4.36,4.36,0,0,0,2.15.53,4.45,4.45,0,0,0,1.57-.29,6.87,6.87,0,0,0,1.46-.73l1.26,2a8.92,8.92,0,0,1-2.09,1A7.57,7.57,0,0,1,569,48.77Z"/><path class="cls-2" d="M581.3,36.75l.27,3.4-.12-.48a5.21,5.21,0,0,1,1.38-1.82,6.49,6.49,0,0,1,1.92-1.16,5.47,5.47,0,0,1,1.74-.43l-.12,2.67a4.29,4.29,0,0,0-2.51.49A4.76,4.76,0,0,0,582.18,41a3.9,3.9,0,0,0-.61,2.12v5.35h-2.79V36.75Z"/><path class="cls-2" d="M25.41,82.79a6.31,6.31,0,0,1-3-.75,5.64,5.64,0,0,1-2.22-2.14,6.33,6.33,0,0,1-.83-3.29,6.07,6.07,0,0,1,.9-3.32,6.35,6.35,0,0,1,2.39-2.21,6.83,6.83,0,0,1,3.28-.79,6.24,6.24,0,0,1,3,.69,5.63,5.63,0,0,1,2,1.8l-.33.82v-3h2.79V88.15H30.57V79.5l.15,1.11a5.07,5.07,0,0,1-2.13,1.57A7.88,7.88,0,0,1,25.41,82.79Zm.93-2.1a4.93,4.93,0,0,0,2-.39,4.08,4.08,0,0,0,1.49-1.11,3.56,3.56,0,0,0,.76-1.56v-2A4,4,0,0,0,29.75,74a4,4,0,0,0-1.44-1.06,4.71,4.71,0,0,0-2-.39,4.26,4.26,0,0,0-2.07.54,4.2,4.2,0,0,0-1.53,1.46,3.9,3.9,0,0,0-.57,2.09,3.83,3.83,0,0,0,.57,2.07,4.23,4.23,0,0,0,1.53,1.44A4.15,4.15,0,0,0,26.34,80.69Z"/><path class="cls-2" d="M42.18,83a4.09,4.09,0,0,1-2.83-1,3.4,3.4,0,0,1-1.16-2.53V70.77H41v7.74a2.48,2.48,0,0,0,.6,1.54,2.2,2.2,0,0,0,1.68.64,3.13,3.13,0,0,0,1.85-.58,4.19,4.19,0,0,0,1.33-1.59A5,5,0,0,0,47,76.24V70.77h2.79V82.51H47.22L47,79.62l.18.53a4.72,4.72,0,0,1-1.11,1.44,5.3,5.3,0,0,1-1.72,1A6.15,6.15,0,0,1,42.18,83Z"/><path class="cls-2" d="M60.36,82.79A7.73,7.73,0,0,1,56.7,82a5.89,5.89,0,0,1-2.37-2.21,6.14,6.14,0,0,1-.84-3.22,5.53,5.53,0,0,1,.95-3.14,6.85,6.85,0,0,1,2.5-2.27,7.12,7.12,0,0,1,3.48-.85,6.11,6.11,0,0,1,4.08,1.36,6.89,6.89,0,0,1,2.22,3.74l-10.26,3.4-.66-1.56,8.37-2.92-.57.4a3.91,3.91,0,0,0-1.2-1.62,3.39,3.39,0,0,0-2.19-.68,3.94,3.94,0,0,0-2,.51,3.72,3.72,0,0,0-1.4,1.41,4.11,4.11,0,0,0-.51,2.08,4.29,4.29,0,0,0,.53,2.13A3.69,3.69,0,0,0,58.28,80a4.32,4.32,0,0,0,2.14.52A4.5,4.5,0,0,0,62,80.24a7.34,7.34,0,0,0,1.45-.74l1.26,2a8.44,8.44,0,0,1-2.08,1A7.38,7.38,0,0,1,60.36,82.79Z"/><path class="cls-2" d="M73.68,82.73a7.51,7.51,0,0,1-2.57-.44,5,5,0,0,1-2-1.31l1.17-1.53a6.51,6.51,0,0,0,1.62,1.06,4.13,4.13,0,0,0,2.73.21,1.65,1.65,0,0,0,.82-.48,1.38,1.38,0,0,0-.12-1.89,3.62,3.62,0,0,0-1.09-.58q-.66-.22-1.44-.42A5.37,5.37,0,0,1,70.41,76,2.86,2.86,0,0,1,69.6,74a3.29,3.29,0,0,1,.5-1.75,3.71,3.71,0,0,1,1.48-1.33,5.06,5.06,0,0,1,2.4-.53,8.19,8.19,0,0,1,2.31.3,5.73,5.73,0,0,1,1.92,1L77.1,73.29a3.49,3.49,0,0,0-1.28-.81,3.89,3.89,0,0,0-1.33-.27,3.29,3.29,0,0,0-1,.16,1.93,1.93,0,0,0-.75.45,1.05,1.05,0,0,0-.28.76,1.09,1.09,0,0,0,.4,1,3.8,3.8,0,0,0,1.1.58l1.35.45a7,7,0,0,1,1.62.68,3.77,3.77,0,0,1,1.15,1.05,2.68,2.68,0,0,1,.44,1.56A3.75,3.75,0,0,1,78,80.79a3.6,3.6,0,0,1-1.58,1.42A6.16,6.16,0,0,1,73.68,82.73Z"/><path class="cls-2" d="M83.58,65.61h2.85v5.22h3.39V72.9H86.43v9.61H83.58V72.9H81.33V70.83h2.25Z"/><path class="cls-2" d="M92.1,76.53A5.94,5.94,0,0,1,93,73.35a6.27,6.27,0,0,1,2.46-2.24A7.63,7.63,0,0,1,99,70.29a7.34,7.34,0,0,1,3.54.82A6.19,6.19,0,0,1,105,79.7,6.1,6.1,0,0,1,102.57,82a7.41,7.41,0,0,1-3.57.83A7.83,7.83,0,0,1,95.44,82,6.14,6.14,0,0,1,93,79.83,6,6,0,0,1,92.1,76.53Zm2.82,0a4,4,0,0,0,.54,2.06,4.11,4.11,0,0,0,1.44,1.46,3.89,3.89,0,0,0,2,.54,3.94,3.94,0,0,0,2.07-.54,4.08,4.08,0,0,0,1.43-1.46,4.32,4.32,0,0,0,0-4.11A4.14,4.14,0,0,0,101,73a3.86,3.86,0,0,0-2.07-.55,3.77,3.77,0,0,0-2,.57,4.06,4.06,0,0,0-1.45,1.49A4,4,0,0,0,94.92,76.55Z"/><path class="cls-2" d="M124.08,82.85l-6.9-12.08h3.33l4.65,9.33L123.45,80l4.29-9.24h3.12l-6.63,12.08Z"/><path class="cls-2" d="M133.65,66.52a1.29,1.29,0,0,1,.52-1,1.78,1.78,0,0,1,1.16-.43,1.71,1.71,0,0,1,1.14.43,1.35,1.35,0,0,1,0,2.11,1.79,1.79,0,0,1-1.14.41,1.87,1.87,0,0,1-1.16-.41A1.28,1.28,0,0,1,133.65,66.52Zm.18,4.25h2.82V82.51h-2.82Z"/><path class="cls-2" d="M147.27,82.79a7.73,7.73,0,0,1-3.66-.81,5.89,5.89,0,0,1-2.37-2.21,6.14,6.14,0,0,1-.84-3.22,5.52,5.52,0,0,1,.94-3.14,7,7,0,0,1,2.51-2.27,7.12,7.12,0,0,1,3.48-.85,6.11,6.11,0,0,1,4.08,1.36,6.89,6.89,0,0,1,2.22,3.74l-10.26,3.4-.66-1.56,8.37-2.92-.57.4a3.91,3.91,0,0,0-1.2-1.62,3.39,3.39,0,0,0-2.19-.68,4,4,0,0,0-2,.51,3.69,3.69,0,0,0-1.39,1.41,4.11,4.11,0,0,0-.51,2.08,4.28,4.28,0,0,0,.52,2.13A3.75,3.75,0,0,0,145.18,80a4.36,4.36,0,0,0,2.15.52,4.44,4.44,0,0,0,1.57-.28,7.42,7.42,0,0,0,1.46-.74l1.26,2a8.51,8.51,0,0,1-2.09,1A7.27,7.27,0,0,1,147.27,82.79Z"/><path class="cls-2" d="M159.63,70.77l.21,2.86-.09-.45a4.43,4.43,0,0,1,1.92-2.08,6.18,6.18,0,0,1,3.15-.78,4.2,4.2,0,0,1,2.86,1,3.32,3.32,0,0,1,1.16,2.54v8.68H166V74.74a2.35,2.35,0,0,0-.59-1.55,2.23,2.23,0,0,0-1.72-.61,3.52,3.52,0,0,0-1.94.57,3.87,3.87,0,0,0-1.38,1.56,5.09,5.09,0,0,0-.49,2.3v5.5h-2.82V70.77Z"/><path class="cls-2" d="M179.46,82.79A7.73,7.73,0,0,1,175.8,82a5.89,5.89,0,0,1-2.37-2.21,6.14,6.14,0,0,1-.84-3.22,5.52,5.52,0,0,1,.94-3.14A7,7,0,0,1,176,71.14a7.12,7.12,0,0,1,3.48-.85,6.11,6.11,0,0,1,4.08,1.36,6.89,6.89,0,0,1,2.22,3.74l-10.26,3.4-.66-1.56,8.37-2.92-.57.4a3.91,3.91,0,0,0-1.2-1.62,3.39,3.39,0,0,0-2.19-.68,4,4,0,0,0-2,.51,3.69,3.69,0,0,0-1.39,1.41,4.11,4.11,0,0,0-.51,2.08,4.28,4.28,0,0,0,.52,2.13A3.75,3.75,0,0,0,177.37,80a4.36,4.36,0,0,0,2.15.52,4.44,4.44,0,0,0,1.57-.28,7.42,7.42,0,0,0,1.46-.74l1.26,2a8.51,8.51,0,0,1-2.09,1A7.27,7.27,0,0,1,179.46,82.79Z"/><path class="cls-2" d="M198.57,66.52a1.29,1.29,0,0,1,.52-1,1.78,1.78,0,0,1,1.16-.43,1.71,1.71,0,0,1,1.14.43,1.35,1.35,0,0,1,0,2.11,1.79,1.79,0,0,1-1.14.41,1.87,1.87,0,0,1-1.16-.41A1.28,1.28,0,0,1,198.57,66.52Zm.18,4.25h2.82V82.51h-2.82Z"/><path class="cls-2" d="M209.91,82.73a7.47,7.47,0,0,1-2.57-.44A5,5,0,0,1,205.29,81l1.17-1.53a6.51,6.51,0,0,0,1.62,1.06,4.13,4.13,0,0,0,2.73.21,1.65,1.65,0,0,0,.82-.48,1.38,1.38,0,0,0-.12-1.89,3.74,3.74,0,0,0-1.09-.58q-.66-.22-1.44-.42A5.37,5.37,0,0,1,206.64,76a2.86,2.86,0,0,1-.81-2.06,3.28,3.28,0,0,1,.49-1.75,3.74,3.74,0,0,1,1.49-1.33,5.06,5.06,0,0,1,2.4-.53,8.24,8.24,0,0,1,2.31.3,5.73,5.73,0,0,1,1.92,1l-1.11,1.64a3.49,3.49,0,0,0-1.28-.81,3.89,3.89,0,0,0-1.33-.27,3.29,3.29,0,0,0-1,.16,1.86,1.86,0,0,0-.75.45,1.05,1.05,0,0,0-.28.76,1.09,1.09,0,0,0,.4,1,3.68,3.68,0,0,0,1.1.58l1.35.45a7,7,0,0,1,1.62.68,3.77,3.77,0,0,1,1.15,1.05,2.68,2.68,0,0,1,.44,1.56,3.75,3.75,0,0,1-.53,1.94,3.63,3.63,0,0,1-1.59,1.42A6.12,6.12,0,0,1,209.91,82.73Z"/><path class="cls-2" d="M228.72,81.4a6.14,6.14,0,0,1-2,1,7.62,7.62,0,0,1-2.34.37,7.93,7.93,0,0,1-3.56-.76,5.81,5.81,0,0,1-2.41-2.16,5.93,5.93,0,0,1-.87-3.26,5.67,5.67,0,0,1,.93-3.25,6.32,6.32,0,0,1,2.41-2.12,7.07,7.07,0,0,1,3.23-.75,8.44,8.44,0,0,1,2.65.38A6.24,6.24,0,0,1,228.81,72l-1.41,1.7a6.33,6.33,0,0,0-1.31-.69,4.51,4.51,0,0,0-1.75-.33,4,4,0,0,0-2,.53,3.82,3.82,0,0,0-1.44,1.41,3.93,3.93,0,0,0-.52,2,3.83,3.83,0,0,0,.54,2,4,4,0,0,0,1.5,1.45,4.45,4.45,0,0,0,2.22.54,4.55,4.55,0,0,0,2.67-.85Z"/><path class="cls-2" d="M234.81,70.77l.27,3.4-.12-.48a4.87,4.87,0,0,1,1.38-1.81,6.52,6.52,0,0,1,1.92-1.17,5.7,5.7,0,0,1,1.74-.42L239.88,73a4.29,4.29,0,0,0-2.51.5A4.67,4.67,0,0,0,235.69,75a3.87,3.87,0,0,0-.61,2.11v5.36h-2.79V70.77Z"/><path class="cls-2" d="M243.38,66.52a1.3,1.3,0,0,1,.53-1,1.77,1.77,0,0,1,1.15-.43,1.71,1.71,0,0,1,1.14.43,1.35,1.35,0,0,1,0,2.11,1.79,1.79,0,0,1-1.14.41,1.86,1.86,0,0,1-1.15-.41A1.29,1.29,0,0,1,243.38,66.52Zm.18,4.25h2.82V82.51h-2.82Z"/><path class="cls-2" d="M252.41,65.61h2.85v5.22h3.39V72.9h-3.39v9.61h-2.85V72.9h-2.25V70.83h2.25Z"/><path class="cls-2" d="M263.21,65.61h2.85v5.22h3.39V72.9h-3.39v9.61h-2.85V72.9H261V70.83h2.25Z"/><path class="cls-2" d="M271.73,76.53a5.86,5.86,0,0,1,.89-3.18,6.21,6.21,0,0,1,2.46-2.24,7.59,7.59,0,0,1,3.58-.82,7.34,7.34,0,0,1,3.54.82,6.08,6.08,0,0,1,2.39,2.24,6.35,6.35,0,0,1,0,6.35A6.2,6.2,0,0,1,282.2,82a7.41,7.41,0,0,1-3.57.83,7.76,7.76,0,0,1-3.55-.78,6.16,6.16,0,0,1-2.45-2.18A6,6,0,0,1,271.73,76.53Zm2.82,0a4,4,0,0,0,.54,2.06,4.11,4.11,0,0,0,1.44,1.46,3.89,3.89,0,0,0,2,.54,3.94,3.94,0,0,0,2.07-.54,4,4,0,0,0,1.43-1.46A4.15,4.15,0,0,0,280.64,73a3.86,3.86,0,0,0-2.07-.55,3.79,3.79,0,0,0-2.05.57,4.11,4.11,0,0,0-1.44,1.49A4,4,0,0,0,274.55,76.55Z"/><path class="cls-2" d="M303.83,82.79a7,7,0,0,1-3.16-.71A5.42,5.42,0,0,1,298.4,80a7.11,7.11,0,0,1,0-6.76,5.87,5.87,0,0,1,2.34-2.19,6.84,6.84,0,0,1,3.21-.76,5.54,5.54,0,0,1,3,.75,5.21,5.21,0,0,1,1.81,1.77l-.18.43.27-2.47h2.58V82.51h-2.79V79.45l.33.68a3.77,3.77,0,0,1-.57.72,7.18,7.18,0,0,1-1.06.89,6.16,6.16,0,0,1-1.52.75A6.06,6.06,0,0,1,303.83,82.79Zm.75-2.18a4.75,4.75,0,0,0,1.89-.37,3.68,3.68,0,0,0,2.16-2.64V75.31a3.5,3.5,0,0,0-.84-1.49,4.19,4.19,0,0,0-1.44-1,4.77,4.77,0,0,0-1.83-.35,4.23,4.23,0,0,0-2.07.51A3.88,3.88,0,0,0,301,74.4a4,4,0,0,0-.56,2.13,3.87,3.87,0,0,0,.57,2.06,4.1,4.1,0,0,0,1.53,1.48A4.15,4.15,0,0,0,304.58,80.61Z"/><path class="cls-2" d="M316.25,60.56h2.82v22h-2.82Z"/><path class="cls-2" d="M323.9,60.56h2.82v22H323.9Z"/><path class="cls-2" d="M336.74,82.79a7,7,0,0,1-3.16-.71A5.42,5.42,0,0,1,331.31,80a7.11,7.11,0,0,1,0-6.76,5.87,5.87,0,0,1,2.34-2.19,6.84,6.84,0,0,1,3.21-.76,5.54,5.54,0,0,1,3,.75,5.21,5.21,0,0,1,1.81,1.77l-.18.43.27-2.47h2.58V82.51h-2.79V79.45l.33.68a3.77,3.77,0,0,1-.57.72,7.18,7.18,0,0,1-1.06.89,6.16,6.16,0,0,1-1.52.75A6.06,6.06,0,0,1,336.74,82.79Zm.75-2.18a4.75,4.75,0,0,0,1.89-.37,3.68,3.68,0,0,0,2.16-2.64V75.31a3.5,3.5,0,0,0-.84-1.49,4.19,4.19,0,0,0-1.44-1,4.77,4.77,0,0,0-1.83-.35,4.23,4.23,0,0,0-2.07.51,3.88,3.88,0,0,0-1.48,1.42,4,4,0,0,0-.56,2.13,3.87,3.87,0,0,0,.57,2.06,4.1,4.1,0,0,0,1.53,1.48A4.15,4.15,0,0,0,337.49,80.61Z"/><path class="cls-2" d="M362.15,82.73a7.51,7.51,0,0,1-2.57-.44A5,5,0,0,1,357.53,81l1.17-1.53a6.51,6.51,0,0,0,1.62,1.06,4.13,4.13,0,0,0,2.73.21,1.65,1.65,0,0,0,.82-.48,1.38,1.38,0,0,0-.12-1.89,3.62,3.62,0,0,0-1.09-.58q-.66-.22-1.44-.42A5.37,5.37,0,0,1,358.88,76a2.86,2.86,0,0,1-.81-2.06,3.28,3.28,0,0,1,.49-1.75,3.81,3.81,0,0,1,1.49-1.33,5.06,5.06,0,0,1,2.4-.53,8.19,8.19,0,0,1,2.31.3,5.73,5.73,0,0,1,1.92,1l-1.11,1.64a3.49,3.49,0,0,0-1.28-.81,3.89,3.89,0,0,0-1.33-.27,3.29,3.29,0,0,0-1,.16,1.93,1.93,0,0,0-.75.45,1.05,1.05,0,0,0-.28.76,1.09,1.09,0,0,0,.4,1,3.68,3.68,0,0,0,1.1.58l1.35.45a7,7,0,0,1,1.62.68,3.77,3.77,0,0,1,1.15,1.05,2.68,2.68,0,0,1,.44,1.56,3.75,3.75,0,0,1-.53,1.94,3.63,3.63,0,0,1-1.59,1.42A6.12,6.12,0,0,1,362.15,82.73Z"/><path class="cls-2" d="M376.64,82.79A7.73,7.73,0,0,1,373,82a5.89,5.89,0,0,1-2.37-2.21,6.14,6.14,0,0,1-.84-3.22,5.52,5.52,0,0,1,.94-3.14,7,7,0,0,1,2.51-2.27,7.12,7.12,0,0,1,3.48-.85,6.11,6.11,0,0,1,4.08,1.36A6.89,6.89,0,0,1,383,75.39l-10.26,3.4-.66-1.56,8.37-2.92-.57.4a3.91,3.91,0,0,0-1.2-1.62,3.39,3.39,0,0,0-2.19-.68,4,4,0,0,0-2,.51,3.69,3.69,0,0,0-1.39,1.41,4.11,4.11,0,0,0-.51,2.08,4.28,4.28,0,0,0,.52,2.13A3.71,3.71,0,0,0,374.56,80a4.32,4.32,0,0,0,2.14.52,4.4,4.4,0,0,0,1.57-.28,7.42,7.42,0,0,0,1.46-.74l1.26,2a8.51,8.51,0,0,1-2.09,1A7.27,7.27,0,0,1,376.64,82.79Z"/><path class="cls-2" d="M396.56,81.4a6.14,6.14,0,0,1-2,1,7.62,7.62,0,0,1-2.34.37,7.93,7.93,0,0,1-3.56-.76,5.81,5.81,0,0,1-2.41-2.16,6,6,0,0,1-.87-3.26,5.67,5.67,0,0,1,.93-3.25,6.32,6.32,0,0,1,2.41-2.12,7.07,7.07,0,0,1,3.23-.75,8.44,8.44,0,0,1,2.65.38A6.24,6.24,0,0,1,396.65,72l-1.41,1.7a6.33,6.33,0,0,0-1.31-.69,4.51,4.51,0,0,0-1.75-.33,4,4,0,0,0-2,.53,3.82,3.82,0,0,0-1.44,1.41,3.93,3.93,0,0,0-.52,2,3.83,3.83,0,0,0,.54,2,4,4,0,0,0,1.5,1.45,4.45,4.45,0,0,0,2.22.54,4.55,4.55,0,0,0,2.67-.85Z"/><path class="cls-2" d="M399.05,76.53a5.85,5.85,0,0,1,.88-3.18,6.21,6.21,0,0,1,2.46-2.24,7.63,7.63,0,0,1,3.59-.82,7.34,7.34,0,0,1,3.54.82,6.19,6.19,0,0,1,2.38,8.59A6.17,6.17,0,0,1,409.52,82a7.41,7.41,0,0,1-3.57.83,7.81,7.81,0,0,1-3.56-.78A6.14,6.14,0,0,1,400,79.83,6,6,0,0,1,399.05,76.53Zm2.82,0a4,4,0,0,0,.54,2.06,4.11,4.11,0,0,0,1.44,1.46,3.89,3.89,0,0,0,2,.54,3.89,3.89,0,0,0,3.49-2,4.25,4.25,0,0,0,0-4.11A4,4,0,0,0,408,73a4.09,4.09,0,0,0-4.13,0,4.11,4.11,0,0,0-1.44,1.49A4,4,0,0,0,401.87,76.55Z"/><path class="cls-2" d="M419,70.77l.21,2.86-.09-.45a4.43,4.43,0,0,1,1.92-2.08,6.18,6.18,0,0,1,3.15-.78,4.2,4.2,0,0,1,2.86,1,3.32,3.32,0,0,1,1.16,2.54v8.68h-2.82V74.74a2.35,2.35,0,0,0-.59-1.55,2.23,2.23,0,0,0-1.72-.61,3.52,3.52,0,0,0-1.94.57,3.87,3.87,0,0,0-1.38,1.56,5.09,5.09,0,0,0-.49,2.3v5.5h-2.82V70.77Z"/><path class="cls-2" d="M438.14,82.79A6.23,6.23,0,0,1,435,82a5.86,5.86,0,0,1-2.21-2.21,6.49,6.49,0,0,1-.82-3.3,6.19,6.19,0,0,1,.87-3.35A5.79,5.79,0,0,1,435.2,71a7.27,7.27,0,0,1,3.3-.73,6.9,6.9,0,0,1,2.8.59,5,5,0,0,1,2.09,1.65l-.15.93V60.56H446v22h-2.79V79.59l.33.73a7.12,7.12,0,0,1-2.3,1.78A7,7,0,0,1,438.14,82.79Zm.87-2.24a4.52,4.52,0,0,0,2-.4,4.15,4.15,0,0,0,1.44-1.06,3.83,3.83,0,0,0,.83-1.57V75.28a3.63,3.63,0,0,0-.86-1.51,4.17,4.17,0,0,0-1.47-1,4.84,4.84,0,0,0-1.9-.36,4.35,4.35,0,0,0-2.07.51,4,4,0,0,0-1.53,1.42,4.12,4.12,0,0,0,0,4.18A4.26,4.26,0,0,0,436.94,80,4.06,4.06,0,0,0,439,80.55Z"/><path class="cls-2" d="M456.05,82.79a7.06,7.06,0,0,1-3.17-.71A5.39,5.39,0,0,1,450.62,80a7.11,7.11,0,0,1,0-6.76A5.87,5.87,0,0,1,453,71.05a6.84,6.84,0,0,1,3.21-.76,5.5,5.5,0,0,1,2.95.75A5.24,5.24,0,0,1,461,72.81l-.18.43.27-2.47h2.58V82.51h-2.79V79.45l.33.68a3.77,3.77,0,0,1-.57.72,7.3,7.3,0,0,1-1.07.89,6,6,0,0,1-3.49,1.05Zm.75-2.18a4.75,4.75,0,0,0,1.89-.37,3.74,3.74,0,0,0,1.39-1,3.81,3.81,0,0,0,.77-1.59V75.31a3.5,3.5,0,0,0-.84-1.49,4.19,4.19,0,0,0-1.44-1,4.77,4.77,0,0,0-1.83-.35,4.23,4.23,0,0,0-2.07.51,3.91,3.91,0,0,0-1.49,1.42,4,4,0,0,0-.55,2.13,3.87,3.87,0,0,0,.57,2.06,4.1,4.1,0,0,0,1.53,1.48A4.15,4.15,0,0,0,456.8,80.61Z"/><path class="cls-2" d="M483.74,82.79a7.73,7.73,0,0,1-3.66-.81,5.89,5.89,0,0,1-2.37-2.21,6.14,6.14,0,0,1-.84-3.22,5.52,5.52,0,0,1,.94-3.14,7,7,0,0,1,2.51-2.27,7.12,7.12,0,0,1,3.48-.85,6.11,6.11,0,0,1,4.08,1.36,6.89,6.89,0,0,1,2.22,3.74l-10.26,3.4-.66-1.56,8.37-2.92-.57.4a3.91,3.91,0,0,0-1.2-1.62,3.39,3.39,0,0,0-2.19-.68,4,4,0,0,0-2,.51,3.69,3.69,0,0,0-1.39,1.41,4.11,4.11,0,0,0-.51,2.08,4.28,4.28,0,0,0,.52,2.13A3.75,3.75,0,0,0,481.65,80a4.36,4.36,0,0,0,2.15.52,4.44,4.44,0,0,0,1.57-.28,7.42,7.42,0,0,0,1.46-.74l1.26,2a8.51,8.51,0,0,1-2.09,1A7.27,7.27,0,0,1,483.74,82.79Z"/><path class="cls-2" d="M493.55,60.56h2.82v22h-2.82Z"/><path class="cls-2" d="M507,82.79a7.73,7.73,0,0,1-3.66-.81A5.89,5.89,0,0,1,501,79.77a6.14,6.14,0,0,1-.84-3.22,5.52,5.52,0,0,1,.94-3.14,7,7,0,0,1,2.51-2.27,7.12,7.12,0,0,1,3.48-.85,6.11,6.11,0,0,1,4.08,1.36,6.89,6.89,0,0,1,2.22,3.74l-10.26,3.4-.66-1.56,8.37-2.92-.57.4a3.91,3.91,0,0,0-1.2-1.62,3.39,3.39,0,0,0-2.19-.68,4,4,0,0,0-2,.51,3.69,3.69,0,0,0-1.39,1.41,4.11,4.11,0,0,0-.51,2.08,4.28,4.28,0,0,0,.52,2.13A3.75,3.75,0,0,0,504.9,80a4.36,4.36,0,0,0,2.15.52,4.44,4.44,0,0,0,1.57-.28,7.42,7.42,0,0,0,1.46-.74l1.26,2a8.51,8.51,0,0,1-2.09,1A7.27,7.27,0,0,1,507,82.79Z"/><path class="cls-2" d="M519.35,70.77l.24,2.64-.15-.23a5.24,5.24,0,0,1,2-2.11,5.57,5.57,0,0,1,3-.78,5,5,0,0,1,1.83.32,3.54,3.54,0,0,1,1.33.91,2.83,2.83,0,0,1,.68,1.4l-.15.12a5.11,5.11,0,0,1,2-2,5.4,5.4,0,0,1,2.69-.72,4.07,4.07,0,0,1,2.89,1,3.49,3.49,0,0,1,1.13,2.52v8.71h-2.82V74.77a2.71,2.71,0,0,0-.47-1.52,1.78,1.78,0,0,0-1.51-.64,3.31,3.31,0,0,0-1.94.61,4.09,4.09,0,0,0-1.32,1.59A5.25,5.25,0,0,0,528.2,77v5.56h-2.82V74.77a2.58,2.58,0,0,0-.5-1.52,1.87,1.87,0,0,0-1.54-.64,3.23,3.23,0,0,0-1.92.61,4.23,4.23,0,0,0-1.32,1.6,4.92,4.92,0,0,0-.48,2.16v5.53H516.8V70.77Z"/><path class="cls-2" d="M547.34,82.79a7.73,7.73,0,0,1-3.66-.81,5.89,5.89,0,0,1-2.37-2.21,6.14,6.14,0,0,1-.84-3.22,5.52,5.52,0,0,1,.94-3.14,7,7,0,0,1,2.51-2.27,7.12,7.12,0,0,1,3.48-.85,6.11,6.11,0,0,1,4.08,1.36,6.89,6.89,0,0,1,2.22,3.74l-10.26,3.4-.66-1.56,8.37-2.92-.57.4a3.91,3.91,0,0,0-1.2-1.62,3.39,3.39,0,0,0-2.19-.68,4,4,0,0,0-2,.51,3.69,3.69,0,0,0-1.39,1.41,4.11,4.11,0,0,0-.51,2.08,4.28,4.28,0,0,0,.52,2.13A3.75,3.75,0,0,0,545.25,80a4.36,4.36,0,0,0,2.15.52,4.44,4.44,0,0,0,1.57-.28,7.42,7.42,0,0,0,1.46-.74l1.26,2a8.51,8.51,0,0,1-2.09,1A7.27,7.27,0,0,1,547.34,82.79Z"/><path class="cls-2" d="M559.7,70.77l.21,2.86-.09-.45a4.38,4.38,0,0,1,1.92-2.08,6.18,6.18,0,0,1,3.15-.78,4.2,4.2,0,0,1,2.86,1,3.32,3.32,0,0,1,1.16,2.54v8.68h-2.82V74.74a2.35,2.35,0,0,0-.59-1.55,2.23,2.23,0,0,0-1.72-.61,3.52,3.52,0,0,0-1.94.57,3.87,3.87,0,0,0-1.38,1.56A5.09,5.09,0,0,0,560,77v5.5h-2.82V70.77Z"/><path class="cls-2" d="M574.94,65.61h2.85v5.22h3.39V72.9h-3.39v9.61h-2.85V72.9h-2.25V70.83h2.25Z"/><path class="cls-2" d="M589.73,82.79a7,7,0,0,1-3.17-.71A5.34,5.34,0,0,1,584.3,80a7.11,7.11,0,0,1,0-6.76,5.81,5.81,0,0,1,2.34-2.19,6.84,6.84,0,0,1,3.21-.76,5.53,5.53,0,0,1,3,.75,5.33,5.33,0,0,1,1.82,1.77l-.18.43.26-2.47h2.58V82.51h-2.79V79.45l.33.68a3.64,3.64,0,0,1-.56.72,7.3,7.3,0,0,1-1.07.89,6.26,6.26,0,0,1-1.51.75A6.1,6.1,0,0,1,589.73,82.79Zm.75-2.18a4.75,4.75,0,0,0,1.89-.37,3.74,3.74,0,0,0,1.39-1,3.68,3.68,0,0,0,.76-1.59V75.31a3.48,3.48,0,0,0-.83-1.49,4.29,4.29,0,0,0-1.44-1,4.77,4.77,0,0,0-1.83-.35,4.21,4.21,0,0,0-2.07.51,3.91,3.91,0,0,0-1.49,1.42,4,4,0,0,0-.55,2.13,3.79,3.79,0,0,0,.57,2.06,4.15,4.15,0,0,0,1.52,1.48A4.19,4.19,0,0,0,590.48,80.61Z"/><path class="cls-2" d="M604.66,70.77l.28,3.4-.13-.48a5.09,5.09,0,0,1,1.38-1.81,6.65,6.65,0,0,1,1.92-1.17,5.7,5.7,0,0,1,1.74-.42L609.73,73a4.26,4.26,0,0,0-2.5.5A4.67,4.67,0,0,0,605.55,75a3.87,3.87,0,0,0-.61,2.11v5.36h-2.79V70.77Z"/><path class="cls-2" d="M618.67,82.79A7.73,7.73,0,0,1,615,82a5.89,5.89,0,0,1-2.37-2.21,6.14,6.14,0,0,1-.84-3.22,5.53,5.53,0,0,1,1-3.14,6.93,6.93,0,0,1,2.5-2.27,7.12,7.12,0,0,1,3.48-.85,6.11,6.11,0,0,1,4.08,1.36A6.89,6.89,0,0,1,625,75.39l-10.26,3.4-.66-1.56,8.37-2.92-.57.4a3.91,3.91,0,0,0-1.2-1.62,3.39,3.39,0,0,0-2.19-.68,4,4,0,0,0-2,.51,3.72,3.72,0,0,0-1.4,1.41,4.11,4.11,0,0,0-.51,2.08,4.29,4.29,0,0,0,.53,2.13A3.75,3.75,0,0,0,616.59,80a4.32,4.32,0,0,0,2.14.52,4.5,4.5,0,0,0,1.58-.28,7.34,7.34,0,0,0,1.45-.74l1.26,2a8.44,8.44,0,0,1-2.08,1A7.33,7.33,0,0,1,618.67,82.79Z"/><path class="cls-2" d="M25.59,116.81a7,7,0,0,1-3.16-.7A5.51,5.51,0,0,1,20.16,114a6.3,6.3,0,0,1-.84-3.36,6.39,6.39,0,0,1,.87-3.4,5.85,5.85,0,0,1,2.34-2.18,6.85,6.85,0,0,1,3.21-.77,5.54,5.54,0,0,1,3,.75,5.21,5.21,0,0,1,1.81,1.77l-.18.43.27-2.47h2.58v11.74H30.39v-3.06l.33.68a3.49,3.49,0,0,1-.57.72,7.19,7.19,0,0,1-1.06.9,5.93,5.93,0,0,1-3.5,1Zm.75-2.18a4.59,4.59,0,0,0,1.89-.37,3.57,3.57,0,0,0,1.4-1.05,3.81,3.81,0,0,0,.76-1.58v-2.3a3.56,3.56,0,0,0-.84-1.49,4.16,4.16,0,0,0-1.44-1,4.6,4.6,0,0,0-1.83-.36,4.23,4.23,0,0,0-2.07.51,4.09,4.09,0,0,0-1.47,5.62,4.22,4.22,0,0,0,3.6,2Z"/><path class="cls-2" d="M40.56,104.79l.21,2.87-.09-.46a4.43,4.43,0,0,1,1.92-2.08,6.18,6.18,0,0,1,3.15-.78,4.21,4.21,0,0,1,2.86,1,3.3,3.3,0,0,1,1.16,2.54v8.67H47v-7.77a2.31,2.31,0,0,0-.59-1.54,2.2,2.2,0,0,0-1.72-.61,3.59,3.59,0,0,0-1.94.56,3.87,3.87,0,0,0-1.38,1.56,5.12,5.12,0,0,0-.49,2.3v5.5H38V104.79Z"/><path class="cls-2" d="M55.77,107a2.38,2.38,0,0,1-1.58-.54,2,2,0,0,1-.64-1.62v-1.13h2.13V104c0,.32.07.53.22.62a1.5,1.5,0,0,0,.77.14h8l-7.44,10.1-.57-.54h7.89v2.18H53l7.59-10.32.48.74Z"/><path class="cls-2" d="M68.31,100.54a1.3,1.3,0,0,1,.52-1.05A1.82,1.82,0,0,1,70,99.07a1.75,1.75,0,0,1,1.14.42,1.32,1.32,0,0,1,.51,1.05,1.3,1.3,0,0,1-.51,1.06A1.74,1.74,0,0,1,70,102a1.81,1.81,0,0,1-1.16-.41A1.28,1.28,0,0,1,68.31,100.54Zm.18,4.25h2.82v11.74H68.49Z"/><path class="cls-2" d="M86.25,115.43a6.55,6.55,0,0,1-2,1,8.33,8.33,0,0,1-5.9-.4,5.81,5.81,0,0,1-2.41-2.16,6,6,0,0,1-.87-3.26,5.64,5.64,0,0,1,.93-3.24,6.27,6.27,0,0,1,2.41-2.13,7.07,7.07,0,0,1,3.23-.75,8.74,8.74,0,0,1,2.65.38A6.43,6.43,0,0,1,86.34,106l-1.41,1.71a6.32,6.32,0,0,0-1.31-.7,4.51,4.51,0,0,0-1.75-.33,4,4,0,0,0-2,.53,3.85,3.85,0,0,0-1.44,1.42,4.11,4.11,0,0,0,0,4,4,4,0,0,0,1.5,1.44,4.45,4.45,0,0,0,2.22.54,4.55,4.55,0,0,0,2.67-.85Z"/><path class="cls-2" d="M89.82,116.53V94.59h2.76v12.93l-.06-.49a5,5,0,0,1,1.93-1.92,6,6,0,0,1,3.11-.77,4.21,4.21,0,0,1,2.86,1,3.3,3.3,0,0,1,1.16,2.54v8.67H98.76v-7.77a2.31,2.31,0,0,0-.59-1.54,2.2,2.2,0,0,0-1.72-.61,3.45,3.45,0,0,0-1.94.58,4,4,0,0,0-1.38,1.57,5,5,0,0,0-.49,2.27v5.5Z"/><path class="cls-2" d="M112.2,116.81a7.85,7.85,0,0,1-3.66-.8,5.91,5.91,0,0,1-2.37-2.22,6.1,6.1,0,0,1-.84-3.21,5.55,5.55,0,0,1,.94-3.15,7,7,0,0,1,2.51-2.27,7.12,7.12,0,0,1,3.48-.85,6.11,6.11,0,0,1,4.08,1.36,7,7,0,0,1,2.22,3.74l-10.26,3.41-.66-1.56,8.37-2.92-.57.39a3.82,3.82,0,0,0-1.2-1.61,3.33,3.33,0,0,0-2.19-.68,4,4,0,0,0-2,.51,3.74,3.74,0,0,0-1.39,1.4,4.15,4.15,0,0,0-.51,2.09,4.24,4.24,0,0,0,.52,2.12,3.69,3.69,0,0,0,1.47,1.46,4.36,4.36,0,0,0,2.15.53,4.45,4.45,0,0,0,1.57-.29,7.38,7.38,0,0,0,1.46-.73l1.26,2a8.92,8.92,0,0,1-2.09,1A7.56,7.56,0,0,1,112.2,116.81Zm3.3-18-3.81,3.8h-1.8l2.49-3.8Z"/><path class="cls-2" d="M136.68,116.81a7.06,7.06,0,0,1-3.17-.7,5.48,5.48,0,0,1-2.26-2.09,6.3,6.3,0,0,1-.84-3.36,6.39,6.39,0,0,1,.87-3.4,5.85,5.85,0,0,1,2.34-2.18,6.85,6.85,0,0,1,3.21-.77,5.5,5.5,0,0,1,2.95.75,5.24,5.24,0,0,1,1.82,1.77l-.18.43.27-2.47h2.58v11.74h-2.79v-3.06l.33.68a3.49,3.49,0,0,1-.57.72,7.32,7.32,0,0,1-1.07.9,6.08,6.08,0,0,1-1.51.75A6.35,6.35,0,0,1,136.68,116.81Zm.75-2.18a4.59,4.59,0,0,0,1.89-.37,3.54,3.54,0,0,0,1.39-1.05,3.83,3.83,0,0,0,.77-1.58v-2.3a3.56,3.56,0,0,0-.84-1.49,4.16,4.16,0,0,0-1.44-1,4.6,4.6,0,0,0-1.83-.36,4.23,4.23,0,0,0-2.07.51,4,4,0,0,0-1.49,1.42,4,4,0,0,0-.55,2.13,3.93,3.93,0,0,0,.57,2.07,4.22,4.22,0,0,0,3.6,2Z"/><path class="cls-2" d="M149.1,94.59h2.82v21.94H149.1Z"/><path class="cls-2" d="M156.75,94.59h2.82v21.94h-2.82Z"/><path class="cls-2" d="M169.59,116.81a7.06,7.06,0,0,1-3.17-.7,5.48,5.48,0,0,1-2.26-2.09,7.11,7.11,0,0,1,0-6.76,5.85,5.85,0,0,1,2.34-2.18,6.85,6.85,0,0,1,3.21-.77,5.5,5.5,0,0,1,2.95.75,5.33,5.33,0,0,1,1.82,1.77l-.18.43.27-2.47h2.58v11.74h-2.79v-3.06l.33.68a3.49,3.49,0,0,1-.57.72,7.32,7.32,0,0,1-1.07.9,6.08,6.08,0,0,1-1.51.75A6.39,6.39,0,0,1,169.59,116.81Zm.75-2.18a4.59,4.59,0,0,0,1.89-.37,3.54,3.54,0,0,0,1.39-1.05,3.83,3.83,0,0,0,.77-1.58v-2.3a3.56,3.56,0,0,0-.84-1.49,4.16,4.16,0,0,0-1.44-1,4.6,4.6,0,0,0-1.83-.36,4.23,4.23,0,0,0-2.07.51,4,4,0,0,0-1.49,1.42,4,4,0,0,0-.55,2.13,3.84,3.84,0,0,0,.57,2.07,4.22,4.22,0,0,0,3.6,2Z"/><path class="cls-2" d="M196.49,116.81a6.31,6.31,0,0,1-3-.75,5.64,5.64,0,0,1-2.22-2.14,6.3,6.3,0,0,1-.83-3.29,6,6,0,0,1,.9-3.31,6.19,6.19,0,0,1,2.39-2.21,6.83,6.83,0,0,1,3.28-.8,6.13,6.13,0,0,1,3,.7,5.54,5.54,0,0,1,2,1.8l-.33.82v-3h2.79v17.55h-2.79v-8.64l.15,1.1a5.17,5.17,0,0,1-2.13,1.58A8,8,0,0,1,196.49,116.81Zm.93-2.09a4.93,4.93,0,0,0,2-.4,4,4,0,0,0,1.49-1.11,3.56,3.56,0,0,0,.76-1.56v-2a3.91,3.91,0,0,0-.82-1.61,4.05,4.05,0,0,0-1.44-1.07,4.87,4.87,0,0,0-2-.38,4.24,4.24,0,0,0-3.6,2,3.87,3.87,0,0,0-.57,2.08,3.79,3.79,0,0,0,.57,2.07,4.26,4.26,0,0,0,3.6,2Z"/><path class="cls-2" d="M213.26,117a4.09,4.09,0,0,1-2.83-1,3.46,3.46,0,0,1-1.16-2.54v-8.68h2.82v7.74a2.5,2.5,0,0,0,.6,1.55,2.2,2.2,0,0,0,1.68.64,3.13,3.13,0,0,0,1.85-.59,4.15,4.15,0,0,0,1.33-1.58,5,5,0,0,0,.51-2.28v-5.48h2.79v11.74H218.3l-.24-2.89.18.54a4.69,4.69,0,0,1-1.11,1.43,5.32,5.32,0,0,1-1.72,1A6.34,6.34,0,0,1,213.26,117Z"/><path class="cls-2" d="M230.84,116.81a7,7,0,0,1-3.16-.7,5.51,5.51,0,0,1-2.27-2.09,6.3,6.3,0,0,1-.84-3.36,6.39,6.39,0,0,1,.87-3.4,5.85,5.85,0,0,1,2.34-2.18,6.85,6.85,0,0,1,3.21-.77,5.54,5.54,0,0,1,3,.75,5.21,5.21,0,0,1,1.81,1.77l-.18.43.27-2.47h2.58v11.74h-2.79v-3.06l.33.68a3.49,3.49,0,0,1-.57.72,7.19,7.19,0,0,1-1.06.9,6.16,6.16,0,0,1-1.52.75A6.35,6.35,0,0,1,230.84,116.81Zm.75-2.18a4.59,4.59,0,0,0,1.89-.37,3.57,3.57,0,0,0,1.4-1.05,3.81,3.81,0,0,0,.76-1.58v-2.3a3.56,3.56,0,0,0-.84-1.49,4.16,4.16,0,0,0-1.44-1,4.6,4.6,0,0,0-1.83-.36,4.23,4.23,0,0,0-2.07.51,4,4,0,0,0-1.48,1.42,4,4,0,0,0-.56,2.13,3.93,3.93,0,0,0,.57,2.07,4.22,4.22,0,0,0,3.6,2Z"/><path class="cls-2" d="M245.78,104.79l.27,3.41-.12-.49a5.17,5.17,0,0,1,1.38-1.81,6.61,6.61,0,0,1,1.92-1.16,5.47,5.47,0,0,1,1.74-.43l-.12,2.67a4.26,4.26,0,0,0-2.5.49,4.76,4.76,0,0,0-1.68,1.59,3.9,3.9,0,0,0-.62,2.11v5.36h-2.79V104.79Z"/><path class="cls-2" d="M255.74,99.63h2.85v5.22H262v2.07h-3.39v9.61h-2.85v-9.61h-2.25v-2.07h2.25Z"/><path class="cls-2" d="M270.53,116.81a7,7,0,0,1-3.16-.7A5.51,5.51,0,0,1,265.1,114a6.3,6.3,0,0,1-.84-3.36,6.39,6.39,0,0,1,.87-3.4,5.85,5.85,0,0,1,2.34-2.18,6.85,6.85,0,0,1,3.21-.77,5.54,5.54,0,0,1,3,.75,5.21,5.21,0,0,1,1.81,1.77l-.18.43.27-2.47h2.58v11.74h-2.79v-3.06l.33.68a3.49,3.49,0,0,1-.57.72,7.19,7.19,0,0,1-1.06.9,6.16,6.16,0,0,1-1.52.75A6.35,6.35,0,0,1,270.53,116.81Zm.75-2.18a4.59,4.59,0,0,0,1.89-.37,3.57,3.57,0,0,0,1.4-1.05,3.81,3.81,0,0,0,.76-1.58v-2.3a3.56,3.56,0,0,0-.84-1.49,4.16,4.16,0,0,0-1.44-1,4.6,4.6,0,0,0-1.83-.36,4.23,4.23,0,0,0-2.07.51,4,4,0,0,0-1.48,1.42,4,4,0,0,0-.56,2.13,3.93,3.93,0,0,0,.57,2.07,4.22,4.22,0,0,0,3.6,2Z"/><path class="cls-2" d="M299.78,116.81a6.14,6.14,0,0,1-2.71-.62,4.75,4.75,0,0,1-2-1.67l.15-.82v8.47h-2.79V104.62h2.43l.39,3-.3-.85a7,7,0,0,1,2.28-1.77,6.69,6.69,0,0,1,3.09-.7,6.33,6.33,0,0,1,3.14.78,5.7,5.7,0,0,1,2.2,2.21,6.68,6.68,0,0,1,.81,3.33,6.11,6.11,0,0,1-.87,3.28,5.76,5.76,0,0,1-2.38,2.15A7.66,7.66,0,0,1,299.78,116.81Zm-.54-2.09a4.6,4.6,0,0,0,2.19-.53,4.38,4.38,0,0,0,1.61-1.44,3.69,3.69,0,0,0,.61-2.09,3.92,3.92,0,0,0-.57-2.11,4.12,4.12,0,0,0-1.51-1.45,4.3,4.3,0,0,0-2.12-.52,4.88,4.88,0,0,0-1.95.38,3.89,3.89,0,0,0-1.44,1.07,4,4,0,0,0-.81,1.61v2a3.47,3.47,0,0,0,.72,1.56,4.17,4.17,0,0,0,1.43,1.12A4.24,4.24,0,0,0,299.24,114.72Z"/><path class="cls-2" d="M316,116.81a7.85,7.85,0,0,1-3.66-.8,5.91,5.91,0,0,1-2.37-2.22,6.1,6.1,0,0,1-.84-3.21,5.56,5.56,0,0,1,.95-3.15,6.93,6.93,0,0,1,2.5-2.27,7.12,7.12,0,0,1,3.48-.85,6.11,6.11,0,0,1,4.08,1.36,7,7,0,0,1,2.22,3.74l-10.26,3.41-.66-1.56,8.37-2.92-.57.39a3.82,3.82,0,0,0-1.2-1.61,3.33,3.33,0,0,0-2.19-.68,4,4,0,0,0-2,.51,3.76,3.76,0,0,0-1.4,1.4,4.15,4.15,0,0,0-.51,2.09,4.25,4.25,0,0,0,.53,2.12,3.69,3.69,0,0,0,1.47,1.46,4.33,4.33,0,0,0,2.14.53,4.51,4.51,0,0,0,1.58-.29,7.3,7.3,0,0,0,1.45-.73l1.26,2a8.84,8.84,0,0,1-2.08,1A7.62,7.62,0,0,1,316,116.81Z"/><path class="cls-2" d="M328.34,104.79l.27,3.41-.12-.49a5.17,5.17,0,0,1,1.38-1.81,6.61,6.61,0,0,1,1.92-1.16,5.47,5.47,0,0,1,1.74-.43l-.12,2.67a4.26,4.26,0,0,0-2.5.49,4.76,4.76,0,0,0-1.68,1.59,3.9,3.9,0,0,0-.62,2.11v5.36h-2.79V104.79Z"/><path class="cls-2" d="M347.63,116.53v-9.38h-2.16v-2.39h2.16V99.83a5.69,5.69,0,0,1,1.22-3.91,4.56,4.56,0,0,1,3.61-1.36,5.9,5.9,0,0,1,1.38.17,3.74,3.74,0,0,1,1.32.56L354,97.19a1.3,1.3,0,0,0-.57-.35,2.26,2.26,0,0,0-.69-.1,2.12,2.12,0,0,0-1.71.71,3.82,3.82,0,0,0-.6,2.44v4.87h3.93v2.39h-3.93v9.38Z"/><path class="cls-2" d="M362.54,116.81a7.06,7.06,0,0,1-3.17-.7,5.48,5.48,0,0,1-2.26-2.09,6.3,6.3,0,0,1-.84-3.36,6.39,6.39,0,0,1,.87-3.4,5.85,5.85,0,0,1,2.34-2.18,6.85,6.85,0,0,1,3.21-.77,5.56,5.56,0,0,1,3,.75,5.3,5.3,0,0,1,1.81,1.77l-.18.43.27-2.47h2.58v11.74h-2.79v-3.06l.33.68a3.49,3.49,0,0,1-.57.72,7.32,7.32,0,0,1-1.07.9,6.08,6.08,0,0,1-1.51.75A6.35,6.35,0,0,1,362.54,116.81Zm.75-2.18a4.59,4.59,0,0,0,1.89-.37,3.54,3.54,0,0,0,1.39-1.05,3.83,3.83,0,0,0,.77-1.58v-2.3a3.56,3.56,0,0,0-.84-1.49,4.16,4.16,0,0,0-1.44-1,4.6,4.6,0,0,0-1.83-.36,4.23,4.23,0,0,0-2.07.51,4,4,0,0,0-1.49,1.42,4,4,0,0,0-.55,2.13,3.93,3.93,0,0,0,.57,2.07,4.22,4.22,0,0,0,3.6,2Z"/><path class="cls-2" d="M385.07,115.43a6.55,6.55,0,0,1-2,1,8.33,8.33,0,0,1-5.9-.4,5.81,5.81,0,0,1-2.41-2.16,6,6,0,0,1-.87-3.26,5.64,5.64,0,0,1,.93-3.24,6.27,6.27,0,0,1,2.41-2.13,7.07,7.07,0,0,1,3.23-.75,8.74,8.74,0,0,1,2.65.38,6.43,6.43,0,0,1,2.06,1.09l-1.41,1.71a6.32,6.32,0,0,0-1.31-.7,4.51,4.51,0,0,0-1.75-.33,4,4,0,0,0-2,.53,3.85,3.85,0,0,0-1.44,1.42,4.11,4.11,0,0,0,0,4,4,4,0,0,0,1.5,1.44,4.45,4.45,0,0,0,2.22.54,4.55,4.55,0,0,0,2.67-.85Z"/><path class="cls-2" d="M388.46,100.54a1.3,1.3,0,0,1,.52-1.05,1.82,1.82,0,0,1,1.16-.42,1.75,1.75,0,0,1,1.14.42,1.32,1.32,0,0,1,.51,1.05,1.3,1.3,0,0,1-.51,1.06,1.74,1.74,0,0,1-1.14.41,1.81,1.81,0,0,1-1.16-.41A1.28,1.28,0,0,1,388.46,100.54Zm.18,4.25h2.82v11.74h-2.82Z"/><path class="cls-2" d="M396.29,94.59h2.82v21.94h-2.82Z"/><path class="cls-2" d="M403.76,100.54a1.3,1.3,0,0,1,.52-1.05,1.82,1.82,0,0,1,1.16-.42,1.75,1.75,0,0,1,1.14.42,1.32,1.32,0,0,1,.51,1.05,1.3,1.3,0,0,1-.51,1.06,1.74,1.74,0,0,1-1.14.41,1.81,1.81,0,0,1-1.16-.41A1.28,1.28,0,0,1,403.76,100.54Zm.18,4.25h2.82v11.74h-2.82Z"/><path class="cls-2" d="M412.79,99.63h2.85v5.22H419v2.07h-3.39v9.61h-2.85v-9.61h-2.25v-2.07h2.25Z"/><path class="cls-2" d="M427.58,116.81a7.06,7.06,0,0,1-3.17-.7,5.48,5.48,0,0,1-2.26-2.09,6.3,6.3,0,0,1-.84-3.36,6.39,6.39,0,0,1,.87-3.4,5.85,5.85,0,0,1,2.34-2.18,6.85,6.85,0,0,1,3.21-.77,5.5,5.5,0,0,1,2.95.75,5.24,5.24,0,0,1,1.82,1.77l-.18.43.27-2.47h2.58v11.74h-2.79v-3.06l.33.68a3.49,3.49,0,0,1-.57.72,7.32,7.32,0,0,1-1.07.9,6.08,6.08,0,0,1-1.51.75A6.35,6.35,0,0,1,427.58,116.81Zm.75-2.18a4.59,4.59,0,0,0,1.89-.37,3.54,3.54,0,0,0,1.39-1.05,3.83,3.83,0,0,0,.77-1.58v-2.3a3.56,3.56,0,0,0-.84-1.49,4.16,4.16,0,0,0-1.44-1,4.6,4.6,0,0,0-1.83-.36,4.23,4.23,0,0,0-2.07.51,4,4,0,0,0-1.49,1.42,4,4,0,0,0-.55,2.13,3.93,3.93,0,0,0,.57,2.07,4.22,4.22,0,0,0,3.6,2Z"/><path class="cls-2" d="M442.52,104.79l.27,3.41-.12-.49a5.17,5.17,0,0,1,1.38-1.81,6.61,6.61,0,0,1,1.92-1.16,5.47,5.47,0,0,1,1.74-.43l-.12,2.67a4.29,4.29,0,0,0-2.51.49,4.76,4.76,0,0,0-1.68,1.59,3.89,3.89,0,0,0-.61,2.11v5.36H440V104.79Z"/><path class="cls-2" d="M456.53,116.81a7.82,7.82,0,0,1-3.66-.8,5.91,5.91,0,0,1-2.37-2.22,6.1,6.1,0,0,1-.84-3.21,5.55,5.55,0,0,1,.94-3.15,6.93,6.93,0,0,1,2.5-2.27,7.18,7.18,0,0,1,3.49-.85,6.11,6.11,0,0,1,4.08,1.36,7,7,0,0,1,2.22,3.74l-10.26,3.41-.66-1.56,8.37-2.92-.57.39a3.82,3.82,0,0,0-1.2-1.61,3.33,3.33,0,0,0-2.19-.68,4,4,0,0,0-2,.51,3.74,3.74,0,0,0-1.39,1.4,4,4,0,0,0-.51,2.09,4.24,4.24,0,0,0,.52,2.12,3.69,3.69,0,0,0,1.47,1.46,4.36,4.36,0,0,0,2.15.53,4.45,4.45,0,0,0,1.57-.29,7.66,7.66,0,0,0,1.46-.73l1.26,2a8.92,8.92,0,0,1-2.09,1A7.56,7.56,0,0,1,456.53,116.81Z"/><path class="cls-2" d="M475.63,100.54a1.31,1.31,0,0,1,.53-1.05,1.81,1.81,0,0,1,1.15-.42,1.75,1.75,0,0,1,1.14.42,1.32,1.32,0,0,1,.51,1.05,1.3,1.3,0,0,1-.51,1.06,1.74,1.74,0,0,1-1.14.41,1.8,1.8,0,0,1-1.15-.41A1.29,1.29,0,0,1,475.63,100.54Zm.18,4.25h2.82v11.74h-2.82Z"/><path class="cls-2" d="M483.46,94.59h2.82v21.94h-2.82Z"/><path class="cls-2" d="M504.1,116.76a7.7,7.7,0,0,1-2.56-.44,5,5,0,0,1-2.06-1.32l1.17-1.53a6.24,6.24,0,0,0,1.62,1.06,4,4,0,0,0,1.62.36,4.32,4.32,0,0,0,1.11-.14,1.77,1.77,0,0,0,.83-.49,1.23,1.23,0,0,0,.31-.88,1.21,1.21,0,0,0-.43-1,3.46,3.46,0,0,0-1.1-.58,14.57,14.57,0,0,0-1.44-.43,5.36,5.36,0,0,1-2.34-1.33A2.9,2.9,0,0,1,500,108a3.29,3.29,0,0,1,.5-1.75,3.78,3.78,0,0,1,1.48-1.33,5.07,5.07,0,0,1,2.4-.52,8.19,8.19,0,0,1,2.31.3,5.53,5.53,0,0,1,1.92,1l-1.11,1.65a3.45,3.45,0,0,0-1.27-.81,3.94,3.94,0,0,0-1.34-.27,3.22,3.22,0,0,0-1,.15,1.87,1.87,0,0,0-.75.46,1.05,1.05,0,0,0-.29.75,1.09,1.09,0,0,0,.41,1,3.41,3.41,0,0,0,1.09.58l1.35.45a6.59,6.59,0,0,1,1.62.69,3.66,3.66,0,0,1,1.16,1,2.68,2.68,0,0,1,.43,1.56,3.8,3.8,0,0,1-.52,1.95,3.67,3.67,0,0,1-1.59,1.41A6.16,6.16,0,0,1,504.1,116.76Z"/><path class="cls-2" d="M516.79,117a4.09,4.09,0,0,1-2.83-1,3.46,3.46,0,0,1-1.16-2.54v-8.68h2.82v7.74a2.5,2.5,0,0,0,.6,1.55,2.2,2.2,0,0,0,1.68.64,3.13,3.13,0,0,0,1.85-.59,4.15,4.15,0,0,0,1.33-1.58,5,5,0,0,0,.51-2.28v-5.48h2.79v11.74h-2.55l-.24-2.89.18.54a4.69,4.69,0,0,1-1.11,1.43,5.32,5.32,0,0,1-1.72,1A6.34,6.34,0,0,1,516.79,117Z"/><path class="cls-2" d="M528.1,110.55a5.91,5.91,0,0,1,.89-3.18,6.28,6.28,0,0,1,2.46-2.24,7.59,7.59,0,0,1,3.58-.82,7.34,7.34,0,0,1,3.54.82,6.15,6.15,0,0,1,2.39,2.24,6.06,6.06,0,0,1,.85,3.18,6,6,0,0,1-.85,3.17,6.2,6.2,0,0,1-2.39,2.26,7.3,7.3,0,0,1-3.57.83,7.89,7.89,0,0,1-3.55-.77,6.11,6.11,0,0,1-2.45-2.19A6,6,0,0,1,528.1,110.55Zm2.82,0a4,4,0,0,0,.54,2,4,4,0,0,0,1.44,1.46,3.89,3.89,0,0,0,2,.54,3.92,3.92,0,0,0,3.5-2,4.32,4.32,0,0,0,0-4.11,4.11,4.11,0,0,0-1.43-1.47,3.87,3.87,0,0,0-2.07-.56,3.79,3.79,0,0,0-2.05.57,4.19,4.19,0,0,0-1.44,1.49A4,4,0,0,0,530.92,110.58Z"/><path class="cls-2" d="M20.22,134.56a1.33,1.33,0,0,1,.53-1.05,1.79,1.79,0,0,1,1.15-.42,1.75,1.75,0,0,1,1.14.42,1.33,1.33,0,0,1,.51,1.05,1.32,1.32,0,0,1-.51,1.07,1.79,1.79,0,0,1-1.14.41,1.84,1.84,0,0,1-1.15-.41A1.31,1.31,0,0,1,20.22,134.56Zm.18,4.26h2.82v11.73H20.4Z"/><path class="cls-2" d="M30.6,138.82l.21,2.86-.09-.45a4.45,4.45,0,0,1,1.92-2.09,6.18,6.18,0,0,1,3.15-.78,4.21,4.21,0,0,1,2.86,1,3.3,3.3,0,0,1,1.16,2.54v8.67H37v-7.76a2.33,2.33,0,0,0-.59-1.55,2.2,2.2,0,0,0-1.72-.61,3.52,3.52,0,0,0-1.94.57,3.87,3.87,0,0,0-1.38,1.56,5.08,5.08,0,0,0-.49,2.29v5.5H28.05V138.82Z"/><path class="cls-2" d="M48.15,150.78a7.76,7.76,0,0,1-2.57-.44,4.92,4.92,0,0,1-2-1.32l1.17-1.53a6.3,6.3,0,0,0,1.62,1.07,4.11,4.11,0,0,0,1.62.35,4.32,4.32,0,0,0,1.11-.14,1.81,1.81,0,0,0,.82-.48,1.25,1.25,0,0,0,.32-.88,1.23,1.23,0,0,0-.44-1,3.62,3.62,0,0,0-1.09-.58c-.44-.15-.92-.29-1.44-.43a5.36,5.36,0,0,1-2.34-1.33,2.88,2.88,0,0,1-.81-2.07,3.27,3.27,0,0,1,.49-1.74,3.81,3.81,0,0,1,1.49-1.33,5.06,5.06,0,0,1,2.4-.53,8.19,8.19,0,0,1,2.31.3,5.55,5.55,0,0,1,1.92,1l-1.11,1.64a3.49,3.49,0,0,0-1.28-.81,3.89,3.89,0,0,0-1.33-.27,3.29,3.29,0,0,0-1,.16,1.82,1.82,0,0,0-.75.45,1,1,0,0,0-.28.75,1.07,1.07,0,0,0,.4.95,3.46,3.46,0,0,0,1.1.58c.44.16.89.31,1.35.46a7,7,0,0,1,1.62.68,3.53,3.53,0,0,1,1.15,1.05A2.64,2.64,0,0,1,53,146.9a3.77,3.77,0,0,1-.53,1.94,3.63,3.63,0,0,1-1.59,1.42A6.12,6.12,0,0,1,48.15,150.78Z"/><path class="cls-2" d="M62.64,150.84A7.73,7.73,0,0,1,59,150a6,6,0,0,1-2.37-2.21,6.16,6.16,0,0,1-.84-3.22,5.57,5.57,0,0,1,.94-3.15,6.93,6.93,0,0,1,2.51-2.26,7.12,7.12,0,0,1,3.48-.86,6.12,6.12,0,0,1,4.08,1.37A6.89,6.89,0,0,1,69,143.44l-10.26,3.4-.66-1.56,8.37-2.92-.57.4a3.85,3.85,0,0,0-1.2-1.62,3.39,3.39,0,0,0-2.19-.68,4,4,0,0,0-2,.51,3.69,3.69,0,0,0-1.39,1.41,4.11,4.11,0,0,0-.51,2.08,4.31,4.31,0,0,0,.52,2.13,3.71,3.71,0,0,0,1.48,1.46,4.32,4.32,0,0,0,2.14.52,4.4,4.4,0,0,0,1.57-.28,7.42,7.42,0,0,0,1.46-.74l1.26,2a9.32,9.32,0,0,1-2.09,1A7.57,7.57,0,0,1,62.64,150.84Z"/><path class="cls-2" d="M75,138.82l.27,3.4-.12-.48a5.21,5.21,0,0,1,1.38-1.82,6.84,6.84,0,0,1,1.92-1.16,5.76,5.76,0,0,1,1.74-.43L80,141a4.22,4.22,0,0,0-2.51.5,4.65,4.65,0,0,0-1.68,1.58,3.93,3.93,0,0,0-.61,2.12v5.35H72.45V138.82Z"/><path class="cls-2" d="M83.55,134.56a1.32,1.32,0,0,1,.52-1.05,1.82,1.82,0,0,1,1.16-.42,1.75,1.75,0,0,1,1.14.42,1.33,1.33,0,0,1,.51,1.05,1.32,1.32,0,0,1-.51,1.07,1.79,1.79,0,0,1-1.14.41,1.87,1.87,0,0,1-1.16-.41A1.3,1.3,0,0,1,83.55,134.56Zm.18,4.26h2.82v11.73H83.73Z"/><path class="cls-2" d="M93.93,138.82l.24,2.63-.15-.22a5.18,5.18,0,0,1,2-2.11,5.48,5.48,0,0,1,3-.79,4.81,4.81,0,0,1,1.83.33,3.54,3.54,0,0,1,1.33.91,2.79,2.79,0,0,1,.68,1.4l-.15.11a5.15,5.15,0,0,1,2-2,5.41,5.41,0,0,1,2.69-.73,4.08,4.08,0,0,1,2.89,1,3.49,3.49,0,0,1,1.13,2.52v8.7h-2.82v-7.74a2.71,2.71,0,0,0-.47-1.51,1.78,1.78,0,0,0-1.51-.64,3.24,3.24,0,0,0-1.94.61,4.09,4.09,0,0,0-1.32,1.59,5.21,5.21,0,0,0-.49,2.14v5.55H100v-7.74a2.58,2.58,0,0,0-.5-1.51,1.87,1.87,0,0,0-1.54-.64,3.16,3.16,0,0,0-1.92.61,4.23,4.23,0,0,0-1.32,1.6A4.88,4.88,0,0,0,94.2,145v5.52H91.38V138.82Z"/><path class="cls-2" d="M121.92,150.84a7.73,7.73,0,0,1-3.66-.81,6,6,0,0,1-2.37-2.21,6.16,6.16,0,0,1-.84-3.22,5.57,5.57,0,0,1,.94-3.15,6.93,6.93,0,0,1,2.51-2.26,7.12,7.12,0,0,1,3.48-.86,6.12,6.12,0,0,1,4.08,1.37,6.89,6.89,0,0,1,2.22,3.74L118,146.84l-.66-1.56,8.37-2.92-.57.4a3.85,3.85,0,0,0-1.2-1.62,3.39,3.39,0,0,0-2.19-.68,4,4,0,0,0-2,.51,3.69,3.69,0,0,0-1.39,1.41,4.11,4.11,0,0,0-.51,2.08,4.31,4.31,0,0,0,.52,2.13,3.75,3.75,0,0,0,1.47,1.46,4.36,4.36,0,0,0,2.15.52,4.44,4.44,0,0,0,1.57-.28,7.42,7.42,0,0,0,1.46-.74l1.26,2a9.32,9.32,0,0,1-2.09,1A7.57,7.57,0,0,1,121.92,150.84Z"/><path class="cls-2" d="M134.28,138.82l.21,2.86-.09-.45a4.45,4.45,0,0,1,1.92-2.09,6.18,6.18,0,0,1,3.15-.78,4.21,4.21,0,0,1,2.86,1,3.3,3.3,0,0,1,1.16,2.54v8.67h-2.82v-7.76a2.33,2.33,0,0,0-.59-1.55,2.2,2.2,0,0,0-1.72-.61,3.52,3.52,0,0,0-1.94.57,3.87,3.87,0,0,0-1.38,1.56,5.08,5.08,0,0,0-.49,2.29v5.5h-2.82V138.82Z"/><path class="cls-2" d="M149.52,133.66h2.85v5.21h3.39v2.07h-3.39v9.61h-2.85v-9.61h-2.25v-2.07h2.25Z"/><path class="cls-2" d="M158,144.57a5.84,5.84,0,0,1,.88-3.17,6.21,6.21,0,0,1,2.46-2.24,7.63,7.63,0,0,1,3.59-.83,7.35,7.35,0,0,1,3.54.83,6.19,6.19,0,0,1,2.38,8.59,6.14,6.14,0,0,1-2.38,2.25,7.3,7.3,0,0,1-3.57.84,7.81,7.81,0,0,1-3.56-.78,6.14,6.14,0,0,1-2.44-2.18A6,6,0,0,1,158,144.57Zm2.82,0a4,4,0,0,0,.54,2.06,4.11,4.11,0,0,0,1.44,1.46,3.89,3.89,0,0,0,2,.54,3.89,3.89,0,0,0,3.49-2,4.15,4.15,0,0,0-1.42-5.59,3.86,3.86,0,0,0-2.07-.55,3.91,3.91,0,0,0-2.06.56,4.19,4.19,0,0,0-1.44,1.49A4,4,0,0,0,160.86,144.6Z"/><path class="cls-2" d="M187.5,138.82l.21,2.86-.09-.45a4.45,4.45,0,0,1,1.92-2.09,6.18,6.18,0,0,1,3.15-.78,4.21,4.21,0,0,1,2.86,1,3.3,3.3,0,0,1,1.16,2.54v8.67h-2.82v-7.76a2.33,2.33,0,0,0-.59-1.55,2.2,2.2,0,0,0-1.72-.61,3.52,3.52,0,0,0-1.94.57,3.87,3.87,0,0,0-1.38,1.56,5.08,5.08,0,0,0-.49,2.29v5.5H185V138.82Z"/><path class="cls-2" d="M207.33,150.84a7.73,7.73,0,0,1-3.66-.81,6,6,0,0,1-2.37-2.21,6.16,6.16,0,0,1-.84-3.22,5.57,5.57,0,0,1,.94-3.15,6.93,6.93,0,0,1,2.51-2.26,7.12,7.12,0,0,1,3.48-.86,6.12,6.12,0,0,1,4.08,1.37,6.89,6.89,0,0,1,2.22,3.74l-10.26,3.4-.66-1.56,8.37-2.92-.57.4a3.85,3.85,0,0,0-1.2-1.62,3.39,3.39,0,0,0-2.19-.68,4,4,0,0,0-2,.51,3.69,3.69,0,0,0-1.39,1.41,4.11,4.11,0,0,0-.51,2.08,4.31,4.31,0,0,0,.52,2.13,3.75,3.75,0,0,0,1.47,1.46,4.36,4.36,0,0,0,2.15.52,4.44,4.44,0,0,0,1.57-.28,7.42,7.42,0,0,0,1.46-.74l1.26,2a9.32,9.32,0,0,1-2.09,1A7.57,7.57,0,0,1,207.33,150.84Z"/><path class="cls-2" d="M217.14,128.61H220v21.94h-2.82Z"/><path class="cls-2" d="M236.81,138.82l.21,2.86-.08-.45a4.37,4.37,0,0,1,1.91-2.09,6.21,6.21,0,0,1,3.15-.78,4.23,4.23,0,0,1,2.87,1,3.29,3.29,0,0,1,1.15,2.54v8.67H243.2v-7.76a2.28,2.28,0,0,0-.58-1.55,2.21,2.21,0,0,0-1.72-.61,3.5,3.5,0,0,0-1.94.57,3.87,3.87,0,0,0-1.38,1.56,5.08,5.08,0,0,0-.5,2.29v5.5h-2.81V138.82Z"/><path class="cls-2" d="M254.84,151a4.09,4.09,0,0,1-2.83-1,3.44,3.44,0,0,1-1.16-2.54v-8.67h2.82v7.74a2.48,2.48,0,0,0,.6,1.54,2.2,2.2,0,0,0,1.68.64,3.13,3.13,0,0,0,1.85-.58,4.26,4.26,0,0,0,1.33-1.59,5,5,0,0,0,.52-2.28v-5.47h2.79v11.73h-2.56l-.23-2.89.17.54a4.57,4.57,0,0,1-1.11,1.43,5.32,5.32,0,0,1-1.72,1A6.11,6.11,0,0,1,254.84,151Z"/><path class="cls-2" d="M266.15,144.57a5.85,5.85,0,0,1,.89-3.17,6.21,6.21,0,0,1,2.46-2.24,7.59,7.59,0,0,1,3.58-.83,7.35,7.35,0,0,1,3.54.83A6.08,6.08,0,0,1,279,141.4a6,6,0,0,1,.85,3.17,6.06,6.06,0,0,1-.85,3.18,6.17,6.17,0,0,1-2.39,2.25,7.3,7.3,0,0,1-3.57.84,7.76,7.76,0,0,1-3.55-.78,6.16,6.16,0,0,1-2.45-2.18A6,6,0,0,1,266.15,144.57Zm2.82,0a4,4,0,0,0,.54,2.06,4.11,4.11,0,0,0,1.44,1.46,3.89,3.89,0,0,0,2,.54,3.94,3.94,0,0,0,2.07-.54,4,4,0,0,0,1.43-1.46,4.14,4.14,0,0,0-1.43-5.59,4.1,4.1,0,0,0-4.12,0,4.19,4.19,0,0,0-1.44,1.49A4,4,0,0,0,269,144.6Z"/><path class="cls-2" d="M288.26,150.9l-6.9-12.08h3.33l4.65,9.32-1.71-.08,4.29-9.24H295l-6.63,12.08Z"/><path class="cls-2" d="M296.63,144.57a5.85,5.85,0,0,1,.89-3.17,6.21,6.21,0,0,1,2.46-2.24,7.59,7.59,0,0,1,3.58-.83,7.35,7.35,0,0,1,3.54.83,6.08,6.08,0,0,1,2.39,2.24,6,6,0,0,1,.85,3.17,6.06,6.06,0,0,1-.85,3.18A6.17,6.17,0,0,1,307.1,150a7.3,7.3,0,0,1-3.57.84,7.76,7.76,0,0,1-3.55-.78,6.16,6.16,0,0,1-2.45-2.18A6,6,0,0,1,296.63,144.57Zm2.82,0a4,4,0,0,0,.54,2.06,4.11,4.11,0,0,0,1.44,1.46,3.89,3.89,0,0,0,2,.54,3.94,3.94,0,0,0,2.07-.54,4,4,0,0,0,1.43-1.46,4.14,4.14,0,0,0-1.43-5.59,4.1,4.1,0,0,0-4.12,0,4.19,4.19,0,0,0-1.44,1.49A4,4,0,0,0,299.45,144.6Z"/><path class="cls-2" d="M328.73,150.84a7,7,0,0,1-3.16-.71,5.49,5.49,0,0,1-2.27-2.08,7.13,7.13,0,0,1,0-6.77,5.92,5.92,0,0,1,2.34-2.18,6.85,6.85,0,0,1,3.21-.77,5.54,5.54,0,0,1,3,.76,5.21,5.21,0,0,1,1.81,1.77l-.18.42.27-2.46h2.58v11.73h-2.79v-3.06l.33.68a3.77,3.77,0,0,1-.57.73,7.18,7.18,0,0,1-1.06.89,6.16,6.16,0,0,1-1.52.75A6.06,6.06,0,0,1,328.73,150.84Zm.75-2.18a4.75,4.75,0,0,0,1.89-.37,3.78,3.78,0,0,0,1.4-1,3.85,3.85,0,0,0,.76-1.59v-2.3a3.53,3.53,0,0,0-.84-1.48,4.19,4.19,0,0,0-1.44-1,4.77,4.77,0,0,0-1.83-.35,4.23,4.23,0,0,0-2.07.51,3.88,3.88,0,0,0-1.48,1.42,4,4,0,0,0-.56,2.12,3.88,3.88,0,0,0,.57,2.07,4.1,4.1,0,0,0,1.53,1.48A4.15,4.15,0,0,0,329.48,148.66Z"/><path class="cls-2" d="M343.7,138.82l.24,2.63-.15-.22a5.2,5.2,0,0,1,2-2.11,5.45,5.45,0,0,1,2.95-.79,4.81,4.81,0,0,1,1.83.33,3.58,3.58,0,0,1,1.34.91,2.78,2.78,0,0,1,.67,1.4l-.15.11a5.18,5.18,0,0,1,2-2,5.37,5.37,0,0,1,2.68-.73,4.1,4.1,0,0,1,2.9,1,3.48,3.48,0,0,1,1.12,2.52v8.7h-2.82v-7.74a2.7,2.7,0,0,0-.46-1.51,1.8,1.8,0,0,0-1.52-.64,3.21,3.21,0,0,0-1.93.61,4.09,4.09,0,0,0-1.32,1.59,5.22,5.22,0,0,0-.5,2.14v5.55h-2.82v-7.74a2.57,2.57,0,0,0-.49-1.51,1.89,1.89,0,0,0-1.55-.64,3.16,3.16,0,0,0-1.92.61,4.23,4.23,0,0,0-1.32,1.6A4.88,4.88,0,0,0,344,145v5.52h-2.82V138.82Z"/><path class="cls-2" d="M373.52,150.84a6.29,6.29,0,0,1-3-.71,6.12,6.12,0,0,1-2.09-1.79l.33-.79v3H365.9V128.61h2.79v12.9l-.06-1a5.34,5.34,0,0,1,2.12-1.55,7.84,7.84,0,0,1,3.13-.61,6.15,6.15,0,0,1,3,.77,5.82,5.82,0,0,1,2.21,2.14,6.2,6.2,0,0,1,.82,3.25,6.34,6.34,0,0,1-.88,3.41,5.85,5.85,0,0,1-2.36,2.19A6.9,6.9,0,0,1,373.52,150.84Zm-.6-2.24a4.32,4.32,0,0,0,2.18-.54,3.94,3.94,0,0,0,1.48-1.47,4.16,4.16,0,0,0,.54-2.1,3.92,3.92,0,0,0-.55-2.06,4,4,0,0,0-1.5-1.44,4.36,4.36,0,0,0-2.15-.53,4.89,4.89,0,0,0-1.89.36,4,4,0,0,0-1.45,1,3.85,3.85,0,0,0-.86,1.48v2.41a3.92,3.92,0,0,0,2.27,2.54A4.89,4.89,0,0,0,372.92,148.6Z"/><path class="cls-2" d="M383.51,134.56a1.33,1.33,0,0,1,.53-1.05,1.79,1.79,0,0,1,1.15-.42,1.75,1.75,0,0,1,1.14.42,1.33,1.33,0,0,1,.51,1.05,1.32,1.32,0,0,1-.51,1.07,1.79,1.79,0,0,1-1.14.41,1.84,1.84,0,0,1-1.15-.41A1.31,1.31,0,0,1,383.51,134.56Zm.18,4.26h2.82v11.73h-2.82Z"/><path class="cls-2" d="M397.13,150.84a7.73,7.73,0,0,1-3.66-.81,6,6,0,0,1-2.37-2.21,6.16,6.16,0,0,1-.84-3.22,5.58,5.58,0,0,1,.95-3.15,6.9,6.9,0,0,1,2.5-2.26,7.12,7.12,0,0,1,3.48-.86,6.12,6.12,0,0,1,4.08,1.37,6.89,6.89,0,0,1,2.22,3.74l-10.26,3.4-.66-1.56,8.37-2.92-.57.4a3.85,3.85,0,0,0-1.2-1.62,3.39,3.39,0,0,0-2.19-.68,4,4,0,0,0-2,.51,3.72,3.72,0,0,0-1.4,1.41,4.11,4.11,0,0,0-.51,2.08,4.31,4.31,0,0,0,.53,2.13,3.75,3.75,0,0,0,1.47,1.46,4.32,4.32,0,0,0,2.14.52,4.5,4.5,0,0,0,1.58-.28,7.34,7.34,0,0,0,1.45-.74l1.26,2a9.24,9.24,0,0,1-2.08,1A7.64,7.64,0,0,1,397.13,150.84Z"/><path class="cls-2" d="M409.49,138.82l.21,2.86-.09-.45a4.45,4.45,0,0,1,1.92-2.09,6.18,6.18,0,0,1,3.15-.78,4.23,4.23,0,0,1,2.87,1,3.29,3.29,0,0,1,1.15,2.54v8.67h-2.82v-7.76a2.33,2.33,0,0,0-.58-1.55,2.22,2.22,0,0,0-1.73-.61,3.49,3.49,0,0,0-1.93.57,3.87,3.87,0,0,0-1.38,1.56,5.08,5.08,0,0,0-.5,2.29v5.5h-2.82V138.82Z"/><path class="cls-2" d="M424.73,133.66h2.85v5.21H431v2.07h-3.39v9.61h-2.85v-9.61h-2.25v-2.07h2.25Z"/><path class="cls-2" d="M440.12,150.84a7.73,7.73,0,0,1-3.66-.81,6,6,0,0,1-2.37-2.21,6.16,6.16,0,0,1-.84-3.22,5.58,5.58,0,0,1,.95-3.15,6.9,6.9,0,0,1,2.5-2.26,7.12,7.12,0,0,1,3.48-.86,6.12,6.12,0,0,1,4.08,1.37,6.89,6.89,0,0,1,2.22,3.74l-10.26,3.4-.66-1.56,8.37-2.92-.57.4a3.85,3.85,0,0,0-1.2-1.62,3.39,3.39,0,0,0-2.19-.68,4,4,0,0,0-2,.51,3.72,3.72,0,0,0-1.4,1.41,4.11,4.11,0,0,0-.51,2.08,4.31,4.31,0,0,0,.53,2.13,3.75,3.75,0,0,0,1.47,1.46,4.32,4.32,0,0,0,2.14.52,4.5,4.5,0,0,0,1.58-.28,7.34,7.34,0,0,0,1.45-.74l1.26,2a9.24,9.24,0,0,1-2.08,1A7.64,7.64,0,0,1,440.12,150.84Z"/><path class="cls-2" d="M449.05,148a1.58,1.58,0,0,1,1.09-.45,1.54,1.54,0,0,1,1,.45,1.43,1.43,0,0,1,.49,1.08,1.33,1.33,0,0,1-.49,1.09,1.58,1.58,0,0,1-1,.41,1.63,1.63,0,0,1-1.09-.41,1.33,1.33,0,0,1-.5-1.09A1.45,1.45,0,0,1,449.05,148Z"/></g></g></svg>