<svg xmlns="http://www.w3.org/2000/svg" viewBox="0 0 672 223"><defs><style>.cls-1{fill:#fff;}.cls-2{fill:#846b4a;}</style></defs><title>ahmed testo 2</title><g id="Livello_2" data-name="Livello 2"><g id="illustrazioni"><rect class="cls-1" width="672" height="223" rx="21.32"/></g><g id="testi"><path class="cls-2" d="M21.12,48.48V28H27a14.38,14.38,0,0,1,5.49.93,9.56,9.56,0,0,1,5.67,5.85,11.43,11.43,0,0,1,.63,3.71A9.8,9.8,0,0,1,38,42.64a9.4,9.4,0,0,1-2.34,3.15,10.45,10.45,0,0,1-3.42,2,12.13,12.13,0,0,1-4.1.69ZM24,45.85h3.51a10.31,10.31,0,0,0,3.29-.51,7.92,7.92,0,0,0,2.64-1.48,6.6,6.6,0,0,0,1.75-2.37,7.73,7.73,0,0,0,.63-3.21A7.85,7.85,0,0,0,35.19,35a6.83,6.83,0,0,0-1.8-2.39,7.84,7.84,0,0,0-2.58-1.46,9.17,9.17,0,0,0-3-.5H24Z"/><path class="cls-2" d="M47,48.94a4.09,4.09,0,0,1-2.83-1A3.4,3.4,0,0,1,43,45.42V36.75h2.82v7.74a2.5,2.5,0,0,0,.6,1.54,2.2,2.2,0,0,0,1.68.64,3.13,3.13,0,0,0,1.85-.58,4.36,4.36,0,0,0,1.33-1.59,5,5,0,0,0,.51-2.28V36.75h2.79V48.48H52l-.24-2.89.18.54a4.57,4.57,0,0,1-1.11,1.43,5.32,5.32,0,0,1-1.72,1A6.39,6.39,0,0,1,47,48.94Z"/><path class="cls-2" d="M61.89,36.75l.27,3.4L62,39.67a5.21,5.21,0,0,1,1.38-1.82,6.61,6.61,0,0,1,1.92-1.16,5.47,5.47,0,0,1,1.74-.43L67,38.93a4.24,4.24,0,0,0-2.5.49A4.79,4.79,0,0,0,62.77,41a3.89,3.89,0,0,0-.61,2.11v5.36H59.37V36.75Z"/><path class="cls-2" d="M75.39,48.77a7.06,7.06,0,0,1-3.17-.71A5.42,5.42,0,0,1,70,46a6.3,6.3,0,0,1-.84-3.36,6.39,6.39,0,0,1,.87-3.4A5.92,5.92,0,0,1,72.33,37a6.85,6.85,0,0,1,3.21-.77,5.5,5.5,0,0,1,2.95.75,5.36,5.36,0,0,1,1.82,1.78l-.18.42.27-2.46H83V48.48H80.19V45.42l.33.68a3.49,3.49,0,0,1-.57.72,6.74,6.74,0,0,1-1.07.9,6,6,0,0,1-3.49,1.05Zm.75-2.19A4.75,4.75,0,0,0,78,46.22a3.74,3.74,0,0,0,1.39-1,3.93,3.93,0,0,0,.77-1.59v-2.3a3.56,3.56,0,0,0-.84-1.49,4.3,4.3,0,0,0-1.44-1,4.59,4.59,0,0,0-1.83-.35A4.23,4.23,0,0,0,74,39a4,4,0,0,0-1.49,1.41A4,4,0,0,0,72,42.5a3.88,3.88,0,0,0,.57,2.07A4.07,4.07,0,0,0,74.07,46,4.15,4.15,0,0,0,76.14,46.58Z"/><path class="cls-2" d="M90.36,36.75l.21,2.86-.09-.45a4.45,4.45,0,0,1,1.92-2.09,6.18,6.18,0,0,1,3.15-.78,4.21,4.21,0,0,1,2.86,1,3.3,3.3,0,0,1,1.16,2.54v8.67H96.75V40.71a2.33,2.33,0,0,0-.59-1.54,2.2,2.2,0,0,0-1.72-.61,3.52,3.52,0,0,0-1.94.57,3.81,3.81,0,0,0-1.38,1.56A5,5,0,0,0,90.63,43v5.5H87.81V36.75Z"/><path class="cls-2" d="M105.6,31.58h2.85V36.8h3.39v2.07h-3.39v9.61H105.6V38.87h-2.25V36.8h2.25Z"/><path class="cls-2" d="M121,48.77a7.73,7.73,0,0,1-3.66-.81A6,6,0,0,1,115,45.75a6.16,6.16,0,0,1-.84-3.22,5.57,5.57,0,0,1,.94-3.15,7.05,7.05,0,0,1,2.51-2.27,7.23,7.23,0,0,1,3.48-.85,6.16,6.16,0,0,1,4.08,1.36,7,7,0,0,1,2.22,3.75l-10.26,3.4-.66-1.56,8.37-2.92-.57.4a3.79,3.79,0,0,0-1.2-1.62,3.39,3.39,0,0,0-2.19-.68,4,4,0,0,0-2,.51,3.74,3.74,0,0,0-1.39,1.4,4.15,4.15,0,0,0-.51,2.09,4.24,4.24,0,0,0,.52,2.12A3.69,3.69,0,0,0,118.9,46a4.36,4.36,0,0,0,2.15.53,4.68,4.68,0,0,0,1.57-.28,7.42,7.42,0,0,0,1.46-.74l1.26,2a8.92,8.92,0,0,1-2.09,1A7.57,7.57,0,0,1,121,48.77Z"/><path class="cls-2" d="M140.28,26.54h2.82V48.48h-2.82Z"/><path class="cls-2" d="M153.12,48.77a7.06,7.06,0,0,1-3.17-.71A5.42,5.42,0,0,1,147.69,46a6.3,6.3,0,0,1-.84-3.36,6.39,6.39,0,0,1,.87-3.4A5.92,5.92,0,0,1,150.06,37a6.85,6.85,0,0,1,3.21-.77,5.5,5.5,0,0,1,2.95.75A5.36,5.36,0,0,1,158,38.79l-.18.42.27-2.46h2.58V48.48h-2.79V45.42l.33.68a3.49,3.49,0,0,1-.57.72,6.74,6.74,0,0,1-1.07.9,6,6,0,0,1-3.49,1.05Zm.75-2.19a4.75,4.75,0,0,0,1.89-.36,3.74,3.74,0,0,0,1.39-1,3.93,3.93,0,0,0,.77-1.59v-2.3a3.56,3.56,0,0,0-.84-1.49,4.3,4.3,0,0,0-1.44-1,4.59,4.59,0,0,0-1.83-.35,4.23,4.23,0,0,0-2.07.51,4,4,0,0,0-1.49,1.41,4,4,0,0,0-.55,2.13,3.88,3.88,0,0,0,.57,2.07A4.07,4.07,0,0,0,151.8,46,4.15,4.15,0,0,0,153.87,46.58Z"/><path class="cls-2" d="M178.53,48.71a7.76,7.76,0,0,1-2.57-.44A4.92,4.92,0,0,1,173.91,47l1.17-1.53a6.24,6.24,0,0,0,1.62,1.06,4,4,0,0,0,1.62.36,4.32,4.32,0,0,0,1.11-.14,1.81,1.81,0,0,0,.82-.48,1.25,1.25,0,0,0,.32-.88,1.23,1.23,0,0,0-.44-1,3.41,3.41,0,0,0-1.09-.58c-.44-.15-.92-.29-1.44-.43A5.36,5.36,0,0,1,175.26,42a2.9,2.9,0,0,1-.81-2.07,3.27,3.27,0,0,1,.49-1.74,3.76,3.76,0,0,1,1.49-1.34,5.07,5.07,0,0,1,2.4-.52,8.19,8.19,0,0,1,2.31.3,5.7,5.7,0,0,1,1.92,1L182,39.27a3.49,3.49,0,0,0-1.28-.81,3.89,3.89,0,0,0-1.33-.27,3,3,0,0,0-1,.16,1.75,1.75,0,0,0-.75.45,1,1,0,0,0-.28.75,1.07,1.07,0,0,0,.4,1,3.46,3.46,0,0,0,1.1.58l1.35.46a6.57,6.57,0,0,1,1.62.68,3.53,3.53,0,0,1,1.15,1.05,2.64,2.64,0,0,1,.44,1.56,3.77,3.77,0,0,1-.53,1.94,3.69,3.69,0,0,1-1.59,1.42A6.12,6.12,0,0,1,178.53,48.71Z"/><path class="cls-2" d="M197.34,47.38a6.55,6.55,0,0,1-2,1,8.18,8.18,0,0,1-5.9-.4A5.85,5.85,0,0,1,187,45.85a6,6,0,0,1-.87-3.26,5.67,5.67,0,0,1,.93-3.25,6.27,6.27,0,0,1,2.41-2.13,7.07,7.07,0,0,1,3.23-.75,8.74,8.74,0,0,1,2.65.38,6.26,6.26,0,0,1,2.06,1.1L196,39.64a6.32,6.32,0,0,0-1.31-.7,4.7,4.7,0,0,0-1.75-.32,4,4,0,0,0-2,.52,3.85,3.85,0,0,0-1.44,1.42A4,4,0,0,0,191,46a4.45,4.45,0,0,0,2.22.54,4.54,4.54,0,0,0,1.45-.22,4.28,4.28,0,0,0,1.22-.63Z"/><path class="cls-2" d="M204.9,48.94a4.1,4.1,0,0,1-2.84-1,3.39,3.39,0,0,1-1.15-2.54V36.75h2.82v7.74a2.5,2.5,0,0,0,.6,1.54,2.19,2.19,0,0,0,1.68.64,3.1,3.1,0,0,0,1.84-.58,4.29,4.29,0,0,0,1.34-1.59,5.1,5.1,0,0,0,.51-2.28V36.75h2.79V48.48h-2.55l-.24-2.89.18.54a4.57,4.57,0,0,1-1.11,1.43,5.37,5.37,0,0,1-1.73,1A6.33,6.33,0,0,1,204.9,48.94Z"/><path class="cls-2" d="M216.21,42.5a5.84,5.84,0,0,1,.88-3.17,6.13,6.13,0,0,1,2.46-2.24,7.63,7.63,0,0,1,3.59-.83,7.35,7.35,0,0,1,3.54.83,6.19,6.19,0,0,1,2.38,8.59,6.29,6.29,0,0,1-2.38,2.25,7.31,7.31,0,0,1-3.58.84,7.79,7.79,0,0,1-3.55-.78,6.18,6.18,0,0,1-2.45-2.19A6,6,0,0,1,216.21,42.5Zm2.81,0a4,4,0,0,0,.54,2A4,4,0,0,0,221,46a3.84,3.84,0,0,0,2,.54,3.94,3.94,0,0,0,2.07-.54,3.83,3.83,0,0,0,1.42-1.46,4,4,0,0,0,.52-2A4,4,0,0,0,225.12,39,4.12,4.12,0,0,0,221,39a4.19,4.19,0,0,0-1.44,1.49A4,4,0,0,0,219,42.53Z"/><path class="cls-2" d="M233.64,26.54h2.81V48.48h-2.81Z"/><path class="cls-2" d="M246.47,48.77a7,7,0,0,1-3.16-.71A5.44,5.44,0,0,1,241,46a6.3,6.3,0,0,1-.84-3.36,6.39,6.39,0,0,1,.87-3.4A5.92,5.92,0,0,1,243.41,37a6.85,6.85,0,0,1,3.21-.77,5.54,5.54,0,0,1,3,.75,5.32,5.32,0,0,1,1.81,1.78l-.18.42.27-2.46h2.58V48.48h-2.79V45.42l.33.68a3.49,3.49,0,0,1-.57.72,6.63,6.63,0,0,1-1.06.9,6.16,6.16,0,0,1-1.52.75A6.06,6.06,0,0,1,246.47,48.77Zm.75-2.19a4.75,4.75,0,0,0,1.89-.36,3.78,3.78,0,0,0,1.4-1,3.91,3.91,0,0,0,.76-1.59v-2.3a3.56,3.56,0,0,0-.84-1.49,4.3,4.3,0,0,0-1.44-1,4.59,4.59,0,0,0-1.83-.35,4.23,4.23,0,0,0-2.07.51,3.93,3.93,0,0,0-1.48,1.41,4,4,0,0,0-.56,2.13,3.88,3.88,0,0,0,.57,2.07A4.07,4.07,0,0,0,245.15,46,4.15,4.15,0,0,0,247.22,46.58Z"/><path class="cls-2" d="M274.16,48.77A7.73,7.73,0,0,1,270.5,48a6,6,0,0,1-2.37-2.21,6.16,6.16,0,0,1-.84-3.22,5.58,5.58,0,0,1,.95-3.15,7,7,0,0,1,2.5-2.27,7.23,7.23,0,0,1,3.48-.85,6.16,6.16,0,0,1,4.08,1.36,7,7,0,0,1,2.22,3.75l-10.26,3.4-.66-1.56L278,40.29l-.57.4a3.79,3.79,0,0,0-1.2-1.62,3.39,3.39,0,0,0-2.19-.68,4,4,0,0,0-2,.51,3.76,3.76,0,0,0-1.4,1.4,4.15,4.15,0,0,0-.51,2.09,4.25,4.25,0,0,0,.53,2.12A3.69,3.69,0,0,0,272.08,46a4.33,4.33,0,0,0,2.14.53,4.74,4.74,0,0,0,1.58-.28,7.34,7.34,0,0,0,1.45-.74l1.26,2a8.84,8.84,0,0,1-2.08,1A7.64,7.64,0,0,1,274.16,48.77Z"/><path class="cls-2" d="M284,26.54h2.82V48.48H284Z"/><path class="cls-2" d="M297.41,48.77a7.73,7.73,0,0,1-3.66-.81,6,6,0,0,1-2.37-2.21,6.16,6.16,0,0,1-.84-3.22,5.58,5.58,0,0,1,.95-3.15,7,7,0,0,1,2.5-2.27,7.23,7.23,0,0,1,3.48-.85,6.16,6.16,0,0,1,4.08,1.36,7,7,0,0,1,2.22,3.75l-10.26,3.4-.66-1.56,8.37-2.92-.57.4a3.79,3.79,0,0,0-1.2-1.62,3.39,3.39,0,0,0-2.19-.68,4,4,0,0,0-2,.51,3.76,3.76,0,0,0-1.4,1.4,4.15,4.15,0,0,0-.51,2.09,4.25,4.25,0,0,0,.53,2.12A3.69,3.69,0,0,0,295.33,46a4.33,4.33,0,0,0,2.14.53,4.74,4.74,0,0,0,1.58-.28,7.34,7.34,0,0,0,1.45-.74l1.26,2a8.84,8.84,0,0,1-2.08,1A7.64,7.64,0,0,1,297.41,48.77Z"/><path class="cls-2" d="M309.77,36.75l.24,2.63-.15-.22a5.29,5.29,0,0,1,2-2.12,5.53,5.53,0,0,1,2.95-.78,4.81,4.81,0,0,1,1.83.33,3.58,3.58,0,0,1,1.34.91,2.74,2.74,0,0,1,.67,1.4l-.15.11a5.11,5.11,0,0,1,2-2,5.27,5.27,0,0,1,2.68-.73,4.06,4.06,0,0,1,2.9,1,3.48,3.48,0,0,1,1.12,2.52v8.7h-2.82V40.74a2.68,2.68,0,0,0-.46-1.51,1.8,1.8,0,0,0-1.52-.64,3.21,3.21,0,0,0-1.93.61,4,4,0,0,0-1.32,1.59,5.22,5.22,0,0,0-.5,2.14v5.55H315.8V40.74a2.55,2.55,0,0,0-.49-1.51,1.89,1.89,0,0,0-1.55-.64,3.16,3.16,0,0,0-1.92.61,4.16,4.16,0,0,0-1.32,1.6A4.87,4.87,0,0,0,310,43v5.53h-2.82V36.75Z"/><path class="cls-2" d="M337.76,48.77A7.73,7.73,0,0,1,334.1,48a6,6,0,0,1-2.37-2.21,6.16,6.16,0,0,1-.84-3.22,5.58,5.58,0,0,1,.95-3.15,7,7,0,0,1,2.5-2.27,7.23,7.23,0,0,1,3.48-.85,6.16,6.16,0,0,1,4.08,1.36,7,7,0,0,1,2.22,3.75l-10.26,3.4-.66-1.56,8.37-2.92-.57.4a3.79,3.79,0,0,0-1.2-1.62,3.39,3.39,0,0,0-2.19-.68,4,4,0,0,0-2,.51,3.76,3.76,0,0,0-1.4,1.4,4.15,4.15,0,0,0-.51,2.09,4.25,4.25,0,0,0,.53,2.12A3.69,3.69,0,0,0,335.68,46a4.33,4.33,0,0,0,2.14.53,4.74,4.74,0,0,0,1.58-.28,7.34,7.34,0,0,0,1.45-.74l1.26,2a8.84,8.84,0,0,1-2.08,1A7.64,7.64,0,0,1,337.76,48.77Z"/><path class="cls-2" d="M350.12,36.75l.21,2.86-.09-.45a4.45,4.45,0,0,1,1.92-2.09,6.18,6.18,0,0,1,3.15-.78,4.23,4.23,0,0,1,2.87,1,3.29,3.29,0,0,1,1.15,2.54v8.67h-2.82V40.71a2.32,2.32,0,0,0-.58-1.54,2.22,2.22,0,0,0-1.73-.61,3.49,3.49,0,0,0-1.93.57,3.81,3.81,0,0,0-1.38,1.56,5,5,0,0,0-.5,2.29v5.5h-2.82V36.75Z"/><path class="cls-2" d="M365.36,31.58h2.85V36.8h3.39v2.07h-3.39v9.61h-2.85V38.87h-2.25V36.8h2.25Z"/><path class="cls-2" d="M380.15,48.77a7,7,0,0,1-3.16-.71A5.44,5.44,0,0,1,374.72,46a6.3,6.3,0,0,1-.84-3.36,6.39,6.39,0,0,1,.87-3.4A5.92,5.92,0,0,1,377.09,37a6.85,6.85,0,0,1,3.21-.77,5.54,5.54,0,0,1,3,.75,5.32,5.32,0,0,1,1.81,1.78l-.18.42.27-2.46h2.58V48.48H385V45.42l.33.68a3.49,3.49,0,0,1-.57.72,6.63,6.63,0,0,1-1.06.9,6.16,6.16,0,0,1-1.52.75A6.06,6.06,0,0,1,380.15,48.77Zm.75-2.19a4.75,4.75,0,0,0,1.89-.36,3.78,3.78,0,0,0,1.4-1,3.91,3.91,0,0,0,.76-1.59v-2.3a3.56,3.56,0,0,0-.84-1.49,4.3,4.3,0,0,0-1.44-1,4.59,4.59,0,0,0-1.83-.35,4.23,4.23,0,0,0-2.07.51,3.93,3.93,0,0,0-1.48,1.41,4,4,0,0,0-.56,2.13,3.88,3.88,0,0,0,.57,2.07A4.07,4.07,0,0,0,378.83,46,4.15,4.15,0,0,0,380.9,46.58Z"/><path class="cls-2" d="M395.09,36.75l.27,3.4-.12-.48a5.21,5.21,0,0,1,1.38-1.82,6.61,6.61,0,0,1,1.92-1.16,5.47,5.47,0,0,1,1.74-.43l-.12,2.67a4.24,4.24,0,0,0-2.5.49A4.67,4.67,0,0,0,396,41a3.82,3.82,0,0,0-.62,2.11v5.36h-2.79V36.75Z"/><path class="cls-2" d="M409.1,48.77a7.73,7.73,0,0,1-3.66-.81,6,6,0,0,1-2.37-2.21,6.16,6.16,0,0,1-.84-3.22,5.58,5.58,0,0,1,.95-3.15,7,7,0,0,1,2.5-2.27,7.23,7.23,0,0,1,3.48-.85,6.16,6.16,0,0,1,4.08,1.36,7,7,0,0,1,2.22,3.75l-10.26,3.4-.66-1.56,8.37-2.92-.57.4a3.79,3.79,0,0,0-1.2-1.62,3.39,3.39,0,0,0-2.19-.68,4,4,0,0,0-2,.51,3.76,3.76,0,0,0-1.4,1.4,4.15,4.15,0,0,0-.51,2.09,4.25,4.25,0,0,0,.53,2.12A3.69,3.69,0,0,0,407,46a4.33,4.33,0,0,0,2.14.53,4.74,4.74,0,0,0,1.58-.28,7.34,7.34,0,0,0,1.45-.74l1.26,2a8.84,8.84,0,0,1-2.08,1A7.64,7.64,0,0,1,409.1,48.77Z"/><path class="cls-2" d="M421.49,46c-.44,1-.88,2-1.3,3s-.87,2-1.31,3h-2.31c.42-1,.82-2,1.2-3s.76-2,1.14-3Z"/><path class="cls-2" d="M433,48.48l9.45-21.35h.18l9.48,21.35h-3.33l-7.08-17,2.07-1.27-7.89,18.31Zm5.55-7.77h8.07l1,2.39h-9.87Z"/><path class="cls-2" d="M455.51,48.48V26.54h2.76V39.47l-.06-.49a5,5,0,0,1,1.93-1.92,6.05,6.05,0,0,1,3.11-.77,4.21,4.21,0,0,1,2.86,1,3.3,3.3,0,0,1,1.16,2.54v8.67h-2.82V40.71a2.33,2.33,0,0,0-.59-1.54,2.2,2.2,0,0,0-1.72-.61,3.45,3.45,0,0,0-1.94.58,4,4,0,0,0-1.38,1.57,5,5,0,0,0-.49,2.27v5.5Z"/><path class="cls-2" d="M474.65,36.75l.24,2.63-.15-.22a5.27,5.27,0,0,1,2-2.12,5.57,5.57,0,0,1,3-.78,4.81,4.81,0,0,1,1.83.33,3.54,3.54,0,0,1,1.33.91,2.75,2.75,0,0,1,.68,1.4l-.15.11a5.09,5.09,0,0,1,2-2,5.31,5.31,0,0,1,2.69-.73,4,4,0,0,1,2.89,1,3.49,3.49,0,0,1,1.13,2.52v8.7h-2.82V40.74a2.68,2.68,0,0,0-.47-1.51,1.78,1.78,0,0,0-1.51-.64,3.24,3.24,0,0,0-1.94.61A4,4,0,0,0,484,40.79a5.21,5.21,0,0,0-.49,2.14v5.55h-2.82V40.74a2.55,2.55,0,0,0-.5-1.51,1.87,1.87,0,0,0-1.54-.64,3.16,3.16,0,0,0-1.92.61,4.16,4.16,0,0,0-1.32,1.6,4.87,4.87,0,0,0-.48,2.15v5.53H472.1V36.75Z"/><path class="cls-2" d="M502.64,48.77A7.73,7.73,0,0,1,499,48a6,6,0,0,1-2.37-2.21,6.16,6.16,0,0,1-.84-3.22,5.57,5.57,0,0,1,.94-3.15,7.05,7.05,0,0,1,2.51-2.27,7.23,7.23,0,0,1,3.48-.85,6.16,6.16,0,0,1,4.08,1.36A7,7,0,0,1,509,41.37l-10.26,3.4-.66-1.56,8.37-2.92-.57.4a3.79,3.79,0,0,0-1.2-1.62,3.39,3.39,0,0,0-2.19-.68,4,4,0,0,0-2,.51,3.74,3.74,0,0,0-1.39,1.4,4.15,4.15,0,0,0-.51,2.09,4.24,4.24,0,0,0,.52,2.12A3.69,3.69,0,0,0,500.55,46a4.36,4.36,0,0,0,2.15.53,4.68,4.68,0,0,0,1.57-.28,7.42,7.42,0,0,0,1.46-.74l1.26,2a8.92,8.92,0,0,1-2.09,1A7.57,7.57,0,0,1,502.64,48.77Z"/><path class="cls-2" d="M517.52,48.77A6.23,6.23,0,0,1,514.4,48a5.86,5.86,0,0,1-2.21-2.21,6.53,6.53,0,0,1-.82-3.31,6.15,6.15,0,0,1,.87-3.34A5.72,5.72,0,0,1,514.58,37a7.28,7.28,0,0,1,3.3-.74,6.74,6.74,0,0,1,2.8.6,5,5,0,0,1,2.09,1.64l-.15.94V26.54h2.79V48.48h-2.79V45.56l.33.74a7,7,0,0,1-2.3,1.77A6.83,6.83,0,0,1,517.52,48.77Zm.87-2.24a4.52,4.52,0,0,0,2-.4,4.28,4.28,0,0,0,1.44-1.06,3.87,3.87,0,0,0,.83-1.58V41.25a3.65,3.65,0,0,0-.86-1.5,4.34,4.34,0,0,0-1.47-1,5,5,0,0,0-1.9-.35,4.35,4.35,0,0,0-2.07.51,4,4,0,0,0-1.53,1.42,4.12,4.12,0,0,0,0,4.18A4.23,4.23,0,0,0,516.32,46,4.07,4.07,0,0,0,518.39,46.53Z"/><path class="cls-2" d="M543.23,48.71a7.76,7.76,0,0,1-2.57-.44,4.92,4.92,0,0,1-2-1.32l1.17-1.53a6.24,6.24,0,0,0,1.62,1.06,4,4,0,0,0,1.62.36,4.32,4.32,0,0,0,1.11-.14,1.81,1.81,0,0,0,.82-.48,1.25,1.25,0,0,0,.32-.88,1.23,1.23,0,0,0-.44-1,3.41,3.41,0,0,0-1.09-.58c-.44-.15-.92-.29-1.44-.43A5.36,5.36,0,0,1,540,42a2.9,2.9,0,0,1-.81-2.07,3.27,3.27,0,0,1,.49-1.74,3.76,3.76,0,0,1,1.49-1.34,5.07,5.07,0,0,1,2.4-.52,8.19,8.19,0,0,1,2.31.3,5.7,5.7,0,0,1,1.92,1l-1.11,1.65a3.49,3.49,0,0,0-1.28-.81,3.89,3.89,0,0,0-1.33-.27,3,3,0,0,0-1,.16,1.75,1.75,0,0,0-.75.45,1,1,0,0,0-.28.75,1.07,1.07,0,0,0,.4,1,3.46,3.46,0,0,0,1.1.58l1.35.46a6.57,6.57,0,0,1,1.62.68,3.53,3.53,0,0,1,1.15,1.05,2.64,2.64,0,0,1,.44,1.56,3.77,3.77,0,0,1-.53,1.94,3.69,3.69,0,0,1-1.59,1.42A6.12,6.12,0,0,1,543.23,48.71Z"/><path class="cls-2" d="M551.75,32.49a1.32,1.32,0,0,1,.52-1.05,1.82,1.82,0,0,1,1.16-.42,1.75,1.75,0,0,1,1.14.42,1.33,1.33,0,0,1,.51,1.05,1.32,1.32,0,0,1-.51,1.07,1.79,1.79,0,0,1-1.14.41,1.87,1.87,0,0,1-1.16-.41A1.3,1.3,0,0,1,551.75,32.49Zm.18,4.26h2.82V48.48h-2.82Z"/><path class="cls-2" d="M25.47,82.79A6.23,6.23,0,0,1,22.35,82a5.84,5.84,0,0,1-2.2-2.21,6.5,6.5,0,0,1-.83-3.3,6.19,6.19,0,0,1,.87-3.35A5.79,5.79,0,0,1,22.53,71a7.27,7.27,0,0,1,3.3-.73,6.94,6.94,0,0,1,2.81.59,5.07,5.07,0,0,1,2.08,1.65l-.15.93V60.56h2.79v22H30.57V79.59l.33.73a7.08,7.08,0,0,1-2.29,1.78A7,7,0,0,1,25.47,82.79Zm.87-2.24a4.56,4.56,0,0,0,2-.4,4.15,4.15,0,0,0,1.44-1.06,3.81,3.81,0,0,0,.82-1.57V75.28a3.61,3.61,0,0,0-.85-1.51,4.17,4.17,0,0,0-1.47-1,4.89,4.89,0,0,0-1.91-.36,4.35,4.35,0,0,0-2.07.51,4,4,0,0,0-1.53,1.42,4.12,4.12,0,0,0,0,4.18A4.26,4.26,0,0,0,24.27,80,4.06,4.06,0,0,0,26.34,80.55Z"/><path class="cls-2" d="M38,66.52a1.3,1.3,0,0,1,.53-1A1.75,1.75,0,0,1,39.69,65a1.71,1.71,0,0,1,1.14.43,1.35,1.35,0,0,1,0,2.11,1.79,1.79,0,0,1-1.14.41,1.84,1.84,0,0,1-1.15-.41A1.29,1.29,0,0,1,38,66.52Zm.18,4.25H41V82.51H38.19Z"/><path class="cls-2" d="M49.35,82.73a7.51,7.51,0,0,1-2.57-.44A5,5,0,0,1,44.73,81l1.17-1.53a6.51,6.51,0,0,0,1.62,1.06,4.13,4.13,0,0,0,2.73.21,1.65,1.65,0,0,0,.82-.48A1.38,1.38,0,0,0,51,78.35a3.62,3.62,0,0,0-1.09-.58q-.66-.22-1.44-.42A5.37,5.37,0,0,1,46.08,76a2.87,2.87,0,0,1-.81-2.07,3.28,3.28,0,0,1,.5-1.74,3.71,3.71,0,0,1,1.48-1.33,5.06,5.06,0,0,1,2.4-.53,8.19,8.19,0,0,1,2.31.3,5.73,5.73,0,0,1,1.92,1l-1.11,1.64a3.49,3.49,0,0,0-1.28-.81,4.14,4.14,0,0,0-1.33-.27,3.29,3.29,0,0,0-1,.16,2.06,2.06,0,0,0-.75.45,1.05,1.05,0,0,0-.28.76,1.09,1.09,0,0,0,.4,1,3.68,3.68,0,0,0,1.1.58l1.35.45a7,7,0,0,1,1.62.68,3.65,3.65,0,0,1,1.15,1.05,2.68,2.68,0,0,1,.44,1.56,3.75,3.75,0,0,1-.53,1.94,3.58,3.58,0,0,1-1.59,1.42A6.12,6.12,0,0,1,49.35,82.73Z"/><path class="cls-2" d="M59.25,65.61H62.1v5.22h3.39V72.9H62.1v9.61H59.25V72.9H57V70.83h2.25Z"/><path class="cls-2" d="M68.67,66.52a1.29,1.29,0,0,1,.52-1A1.78,1.78,0,0,1,70.35,65a1.71,1.71,0,0,1,1.14.43,1.35,1.35,0,0,1,0,2.11,1.79,1.79,0,0,1-1.14.41,1.87,1.87,0,0,1-1.16-.41A1.28,1.28,0,0,1,68.67,66.52Zm.18,4.25h2.82V82.51H68.85Z"/><path class="cls-2" d="M79.05,70.77l.21,2.86-.09-.45a4.43,4.43,0,0,1,1.92-2.08,6.18,6.18,0,0,1,3.15-.78,4.2,4.2,0,0,1,2.86,1,3.32,3.32,0,0,1,1.16,2.54v8.68H85.44V74.74a2.33,2.33,0,0,0-.59-1.55,2.23,2.23,0,0,0-1.72-.61,3.52,3.52,0,0,0-1.94.57,3.87,3.87,0,0,0-1.38,1.56,5.09,5.09,0,0,0-.49,2.3v5.5H76.5V70.77Z"/><path class="cls-2" d="M99.12,88.35A9.06,9.06,0,0,1,96.67,88a8,8,0,0,1-1.92-.85A17,17,0,0,1,93.09,86l1.65-1.81a8.85,8.85,0,0,0,2,1.33A5.29,5.29,0,0,0,99,86a5.82,5.82,0,0,0,2.38-.43,3.37,3.37,0,0,0,1.47-1.21,3.42,3.42,0,0,0,.53-1.79l0-3.17.24.51a4.55,4.55,0,0,1-2,2,6.57,6.57,0,0,1-3.42.84A6.17,6.17,0,0,1,95.19,82a6.41,6.41,0,0,1-2.31-2.23A5.86,5.86,0,0,1,92,76.58a6,6,0,0,1,.9-3.26,6.35,6.35,0,0,1,2.38-2.22,6.65,6.65,0,0,1,3.23-.81,7.09,7.09,0,0,1,3,.63,4.78,4.78,0,0,1,2,1.64l-.18.48.27-2.27h2.58V82.59a5.16,5.16,0,0,1-.86,2.89,6,6,0,0,1-2.46,2.09A8.58,8.58,0,0,1,99.12,88.35ZM94.83,76.52a3.8,3.8,0,0,0,.58,2.07A4.18,4.18,0,0,0,97,80.07a4.37,4.37,0,0,0,2.15.54,5,5,0,0,0,2-.38,4.15,4.15,0,0,0,1.49-1.07,3.86,3.86,0,0,0,.84-1.5V75.31a3.59,3.59,0,0,0-.9-1.48,4.72,4.72,0,0,0-1.5-1,4.8,4.8,0,0,0-1.92-.37A4.58,4.58,0,0,0,97,73a4.16,4.16,0,0,0-1.56,1.44A3.75,3.75,0,0,0,94.83,76.52Z"/><path class="cls-2" d="M115.05,83a4.12,4.12,0,0,1-2.84-1,3.42,3.42,0,0,1-1.15-2.53V70.77h2.82v7.74a2.48,2.48,0,0,0,.6,1.54,2.2,2.2,0,0,0,1.68.64,3.1,3.1,0,0,0,1.84-.58,4.29,4.29,0,0,0,1.34-1.59,5,5,0,0,0,.51-2.28V70.77h2.79V82.51h-2.55l-.24-2.89.18.53a4.72,4.72,0,0,1-1.11,1.44,5.35,5.35,0,0,1-1.73,1A6.06,6.06,0,0,1,115.05,83Z"/><path class="cls-2" d="M133.23,82.79a7.73,7.73,0,0,1-3.66-.81,5.89,5.89,0,0,1-2.37-2.21,6.14,6.14,0,0,1-.84-3.22,5.52,5.52,0,0,1,.94-3.14,6.87,6.87,0,0,1,2.51-2.27,7.12,7.12,0,0,1,3.48-.85,6.11,6.11,0,0,1,4.08,1.36,6.93,6.93,0,0,1,2.22,3.74l-10.26,3.4-.66-1.56L137,74.31l-.57.4a3.91,3.91,0,0,0-1.2-1.62,3.39,3.39,0,0,0-2.19-.68,4,4,0,0,0-2,.51,3.69,3.69,0,0,0-1.39,1.41,4.11,4.11,0,0,0-.51,2.08,4.28,4.28,0,0,0,.52,2.13A3.75,3.75,0,0,0,131.14,80a4.36,4.36,0,0,0,2.15.52,4.44,4.44,0,0,0,1.57-.28,7.42,7.42,0,0,0,1.46-.74l1.26,2a8.9,8.9,0,0,1-2.09,1A7.27,7.27,0,0,1,133.23,82.79Z"/><path class="cls-2" d="M159.87,82.79a6.32,6.32,0,0,1-2.72-.62,4.81,4.81,0,0,1-2-1.68l.15-.82v8.48h-2.79V70.6H155l.39,3-.3-.85A7.27,7.27,0,0,1,157.32,71a6.81,6.81,0,0,1,3.09-.69,6.29,6.29,0,0,1,3.13.78,5.66,5.66,0,0,1,2.21,2.21,6.62,6.62,0,0,1,.81,3.33,6.05,6.05,0,0,1-.87,3.27A5.74,5.74,0,0,1,163.3,82,7.62,7.62,0,0,1,159.87,82.79Zm-.54-2.1a4.6,4.6,0,0,0,2.19-.52,4.29,4.29,0,0,0,1.6-1.45,3.66,3.66,0,0,0,.62-2.08,3.9,3.9,0,0,0-.57-2.11,4.07,4.07,0,0,0-1.52-1.45,4.26,4.26,0,0,0-2.11-.52,4.71,4.71,0,0,0-1.95.38A3.86,3.86,0,0,0,156.15,74a4.06,4.06,0,0,0-.81,1.62v2a3.38,3.38,0,0,0,.72,1.56,4,4,0,0,0,1.42,1.12A4.14,4.14,0,0,0,159.33,80.69Z"/><path class="cls-2" d="M176.1,82.79a7.73,7.73,0,0,1-3.66-.81,5.89,5.89,0,0,1-2.37-2.21,6.14,6.14,0,0,1-.84-3.22,5.52,5.52,0,0,1,.94-3.14,6.87,6.87,0,0,1,2.51-2.27,7.12,7.12,0,0,1,3.48-.85,6.11,6.11,0,0,1,4.08,1.36,6.93,6.93,0,0,1,2.22,3.74l-10.26,3.4-.66-1.56,8.37-2.92-.57.4a3.91,3.91,0,0,0-1.2-1.62,3.39,3.39,0,0,0-2.19-.68,4,4,0,0,0-2,.51,3.69,3.69,0,0,0-1.39,1.41,4.11,4.11,0,0,0-.51,2.08,4.28,4.28,0,0,0,.52,2.13A3.75,3.75,0,0,0,174,80a4.36,4.36,0,0,0,2.15.52,4.44,4.44,0,0,0,1.57-.28,7.42,7.42,0,0,0,1.46-.74l1.26,2a8.9,8.9,0,0,1-2.09,1A7.27,7.27,0,0,1,176.1,82.79Z"/><path class="cls-2" d="M188.43,70.77l.27,3.4-.12-.48A5.17,5.17,0,0,1,190,71.88a6.65,6.65,0,0,1,1.92-1.17,5.7,5.7,0,0,1,1.74-.42L193.5,73a4.29,4.29,0,0,0-2.51.5A4.59,4.59,0,0,0,189.31,75a3.87,3.87,0,0,0-.61,2.11v5.36h-2.79V70.77Z"/><path class="cls-2" d="M206.67,60.56h2.82v22h-2.82Z"/><path class="cls-2" d="M219.51,82.79a7.06,7.06,0,0,1-3.17-.71A5.39,5.39,0,0,1,214.08,80a6.35,6.35,0,0,1-.84-3.36,6.28,6.28,0,0,1,.87-3.4,5.87,5.87,0,0,1,2.34-2.19,6.84,6.84,0,0,1,3.21-.76,5.53,5.53,0,0,1,3,.75,5.33,5.33,0,0,1,1.82,1.77l-.18.43.27-2.47h2.58V82.51h-2.79V79.45l.33.68a3.77,3.77,0,0,1-.57.72,7.3,7.3,0,0,1-1.07.89,6.26,6.26,0,0,1-1.51.75A6.1,6.1,0,0,1,219.51,82.79Zm.75-2.18a4.75,4.75,0,0,0,1.89-.37,3.74,3.74,0,0,0,1.39-1,3.81,3.81,0,0,0,.77-1.59V75.31a3.5,3.5,0,0,0-.84-1.49,4.29,4.29,0,0,0-1.44-1,4.77,4.77,0,0,0-1.83-.35,4.23,4.23,0,0,0-2.07.51,3.91,3.91,0,0,0-1.49,1.42,4,4,0,0,0-.55,2.12,3.8,3.8,0,0,0,.57,2.07,4.1,4.1,0,0,0,1.53,1.48A4.15,4.15,0,0,0,220.26,80.61Z"/><path class="cls-2" d="M244.91,82.73a7.45,7.45,0,0,1-2.56-.44A5,5,0,0,1,240.29,81l1.17-1.53a6.51,6.51,0,0,0,1.62,1.06,4.13,4.13,0,0,0,2.73.21,1.68,1.68,0,0,0,.83-.48,1.4,1.4,0,0,0-.12-1.89,3.68,3.68,0,0,0-1.1-.58q-.66-.22-1.44-.42A5.37,5.37,0,0,1,241.64,76a2.87,2.87,0,0,1-.81-2.07,3.28,3.28,0,0,1,.5-1.74,3.71,3.71,0,0,1,1.48-1.33,5.06,5.06,0,0,1,2.4-.53,8.19,8.19,0,0,1,2.31.3,5.73,5.73,0,0,1,1.92,1l-1.11,1.64a3.45,3.45,0,0,0-1.27-.81,4.19,4.19,0,0,0-1.34-.27,3.22,3.22,0,0,0-1,.16,2,2,0,0,0-.75.45,1.06,1.06,0,0,0-.29.76,1.1,1.1,0,0,0,.41,1,3.62,3.62,0,0,0,1.09.58l1.35.45a7,7,0,0,1,1.62.68,3.68,3.68,0,0,1,1.16,1.05,2.68,2.68,0,0,1,.43,1.56,3.74,3.74,0,0,1-.52,1.94,3.63,3.63,0,0,1-1.59,1.42A6.16,6.16,0,0,1,244.91,82.73Z"/><path class="cls-2" d="M257.6,83a4.09,4.09,0,0,1-2.83-1,3.43,3.43,0,0,1-1.16-2.53V70.77h2.82v7.74a2.48,2.48,0,0,0,.6,1.54,2.2,2.2,0,0,0,1.68.64,3.13,3.13,0,0,0,1.85-.58,4.26,4.26,0,0,0,1.33-1.59,5,5,0,0,0,.51-2.28V70.77h2.79V82.51h-2.55l-.24-2.89.18.53a4.72,4.72,0,0,1-1.11,1.44,5.3,5.3,0,0,1-1.72,1A6.11,6.11,0,0,1,257.6,83Z"/><path class="cls-2" d="M275.18,82.79a7,7,0,0,1-3.16-.71A5.42,5.42,0,0,1,269.75,80a7.11,7.11,0,0,1,0-6.76,5.87,5.87,0,0,1,2.34-2.19,6.84,6.84,0,0,1,3.21-.76,5.54,5.54,0,0,1,3,.75,5.21,5.21,0,0,1,1.81,1.77l-.18.43.27-2.47h2.58V82.51H280V79.45l.33.68a3.77,3.77,0,0,1-.57.72,7.18,7.18,0,0,1-1.06.89,6.16,6.16,0,0,1-1.52.75A6.06,6.06,0,0,1,275.18,82.79Zm.75-2.18a4.75,4.75,0,0,0,1.89-.37A3.68,3.68,0,0,0,280,77.6V75.31a3.5,3.5,0,0,0-.84-1.49,4.19,4.19,0,0,0-1.44-1,4.77,4.77,0,0,0-1.83-.35,4.23,4.23,0,0,0-2.07.51,3.88,3.88,0,0,0-1.48,1.42,4,4,0,0,0-.56,2.12,3.88,3.88,0,0,0,.57,2.07,4.1,4.1,0,0,0,1.53,1.48A4.15,4.15,0,0,0,275.93,80.61Z"/><path class="cls-2" d="M296.9,66.52a1.3,1.3,0,0,1,.53-1,1.75,1.75,0,0,1,1.15-.43,1.71,1.71,0,0,1,1.14.43,1.35,1.35,0,0,1,0,2.11,1.79,1.79,0,0,1-1.14.41,1.84,1.84,0,0,1-1.15-.41A1.29,1.29,0,0,1,296.9,66.52Zm.18,4.25h2.82V82.51h-2.82Z"/><path class="cls-2" d="M307.28,70.77l.21,2.86-.09-.45a4.43,4.43,0,0,1,1.92-2.08,6.18,6.18,0,0,1,3.15-.78,4.23,4.23,0,0,1,2.87,1,3.31,3.31,0,0,1,1.15,2.54v8.68h-2.82V74.74a2.33,2.33,0,0,0-.58-1.55,2.26,2.26,0,0,0-1.73-.61,3.49,3.49,0,0,0-1.93.57,3.87,3.87,0,0,0-1.38,1.56,5.09,5.09,0,0,0-.5,2.3v5.5h-2.82V70.77Z"/><path class="cls-2" d="M322.52,65.61h2.85v5.22h3.39V72.9h-3.39v9.61h-2.85V72.9h-2.25V70.83h2.25Z"/><path class="cls-2" d="M337.91,82.79a7.73,7.73,0,0,1-3.66-.81,5.89,5.89,0,0,1-2.37-2.21,6.14,6.14,0,0,1-.84-3.22,5.53,5.53,0,0,1,.95-3.14,6.84,6.84,0,0,1,2.5-2.27,7.12,7.12,0,0,1,3.48-.85,6.11,6.11,0,0,1,4.08,1.36,6.93,6.93,0,0,1,2.22,3.74L334,78.79l-.66-1.56,8.37-2.92-.57.4a3.91,3.91,0,0,0-1.2-1.62,3.39,3.39,0,0,0-2.19-.68,4,4,0,0,0-2,.51,3.72,3.72,0,0,0-1.4,1.41,4.11,4.11,0,0,0-.51,2.08,4.29,4.29,0,0,0,.53,2.13A3.75,3.75,0,0,0,335.83,80a4.32,4.32,0,0,0,2.14.52,4.5,4.5,0,0,0,1.58-.28A7.34,7.34,0,0,0,341,79.5l1.26,2a8.82,8.82,0,0,1-2.08,1A7.33,7.33,0,0,1,337.91,82.79Z"/><path class="cls-2" d="M347.72,60.56h2.82v22h-2.82Z"/><path class="cls-2" d="M355.37,60.56h2.82v22h-2.82Z"/><path class="cls-2" d="M362.84,66.52a1.3,1.3,0,0,1,.53-1,1.75,1.75,0,0,1,1.15-.43,1.71,1.71,0,0,1,1.14.43,1.35,1.35,0,0,1,0,2.11,1.79,1.79,0,0,1-1.14.41,1.84,1.84,0,0,1-1.15-.41A1.29,1.29,0,0,1,362.84,66.52Zm.18,4.25h2.82V82.51H363Z"/><path class="cls-2" d="M376.7,88.35a8.93,8.93,0,0,1-2.44-.31,7.65,7.65,0,0,1-1.92-.85,17.11,17.11,0,0,1-1.67-1.2l1.65-1.81a8.85,8.85,0,0,0,2,1.33,5.29,5.29,0,0,0,2.28.48,5.79,5.79,0,0,0,2.38-.43,3.34,3.34,0,0,0,1.48-1.21,3.42,3.42,0,0,0,.52-1.79l0-3.17.24.51a4.55,4.55,0,0,1-1.95,2,6.57,6.57,0,0,1-3.42.84,6.17,6.17,0,0,1-3.12-.82,6.41,6.41,0,0,1-2.31-2.23,5.86,5.86,0,0,1-.87-3.16,6,6,0,0,1,.9-3.26,6.37,6.37,0,0,1,2.39-2.22,6.58,6.58,0,0,1,3.22-.81,7.09,7.09,0,0,1,3,.63,4.78,4.78,0,0,1,2,1.64L381,73l.27-2.27h2.58V82.59a5.16,5.16,0,0,1-.86,2.89,5.92,5.92,0,0,1-2.46,2.09A8.54,8.54,0,0,1,376.7,88.35Zm-4.29-11.83a3.8,3.8,0,0,0,.58,2.07,4.21,4.21,0,0,0,1.57,1.48,4.31,4.31,0,0,0,2.14.54,5,5,0,0,0,2-.38,4.15,4.15,0,0,0,1.49-1.07,3.86,3.86,0,0,0,.84-1.5V75.31a3.59,3.59,0,0,0-.9-1.48,4.72,4.72,0,0,0-1.5-1,4.8,4.8,0,0,0-1.92-.37,4.51,4.51,0,0,0-2.14.52A4.19,4.19,0,0,0,373,74.43,3.75,3.75,0,0,0,372.41,76.52Z"/><path class="cls-2" d="M394.43,82.79a7.73,7.73,0,0,1-3.66-.81,5.89,5.89,0,0,1-2.37-2.21,6.14,6.14,0,0,1-.84-3.22,5.52,5.52,0,0,1,.94-3.14A6.87,6.87,0,0,1,391,71.14a7.12,7.12,0,0,1,3.48-.85,6.11,6.11,0,0,1,4.08,1.36,6.93,6.93,0,0,1,2.22,3.74l-10.26,3.4-.66-1.56,8.37-2.92-.57.4a3.91,3.91,0,0,0-1.2-1.62,3.39,3.39,0,0,0-2.19-.68,4,4,0,0,0-2,.51,3.69,3.69,0,0,0-1.39,1.41,4.11,4.11,0,0,0-.51,2.08,4.28,4.28,0,0,0,.52,2.13A3.71,3.71,0,0,0,392.35,80a4.32,4.32,0,0,0,2.14.52,4.4,4.4,0,0,0,1.57-.28,7.42,7.42,0,0,0,1.46-.74l1.26,2a8.9,8.9,0,0,1-2.09,1A7.27,7.27,0,0,1,394.43,82.79Z"/><path class="cls-2" d="M406.79,70.77l.21,2.86-.09-.45a4.43,4.43,0,0,1,1.92-2.08,6.18,6.18,0,0,1,3.15-.78,4.2,4.2,0,0,1,2.86,1A3.32,3.32,0,0,1,416,73.83v8.68h-2.82V74.74a2.33,2.33,0,0,0-.59-1.55,2.23,2.23,0,0,0-1.72-.61,3.52,3.52,0,0,0-1.94.57,3.87,3.87,0,0,0-1.38,1.56,5.09,5.09,0,0,0-.49,2.3v5.5h-2.82V70.77Z"/><path class="cls-2" d="M422,72.92a2.43,2.43,0,0,1-1.58-.53,2,2,0,0,1-.64-1.62V69.63h2.13V70c0,.33.07.53.22.63a1.59,1.59,0,0,0,.77.14h8l-7.44,10.09-.57-.54h7.89v2.19H419.27l7.59-10.32.48.73Z"/><path class="cls-2" d="M439.91,82.79a7.06,7.06,0,0,1-3.17-.71A5.39,5.39,0,0,1,434.48,80a7.11,7.11,0,0,1,0-6.76,5.87,5.87,0,0,1,2.34-2.19,6.84,6.84,0,0,1,3.21-.76A5.5,5.5,0,0,1,443,71a5.24,5.24,0,0,1,1.82,1.77l-.18.43.27-2.47h2.58V82.51h-2.79V79.45l.33.68a3.77,3.77,0,0,1-.57.72,7.3,7.3,0,0,1-1.07.89,6,6,0,0,1-3.49,1.05Zm.75-2.18a4.75,4.75,0,0,0,1.89-.37,3.74,3.74,0,0,0,1.39-1,3.81,3.81,0,0,0,.77-1.59V75.31a3.5,3.5,0,0,0-.84-1.49,4.19,4.19,0,0,0-1.44-1,4.77,4.77,0,0,0-1.83-.35,4.23,4.23,0,0,0-2.07.51A3.91,3.91,0,0,0,437,74.4a4,4,0,0,0-.55,2.12,3.88,3.88,0,0,0,.57,2.07,4.1,4.1,0,0,0,1.53,1.48A4.15,4.15,0,0,0,440.66,80.61Z"/><path class="cls-2" d="M467.6,82.79a7.73,7.73,0,0,1-3.66-.81,5.89,5.89,0,0,1-2.37-2.21,6.14,6.14,0,0,1-.84-3.22,5.52,5.52,0,0,1,.94-3.14,6.87,6.87,0,0,1,2.51-2.27,7.12,7.12,0,0,1,3.48-.85,6.11,6.11,0,0,1,4.08,1.36A6.93,6.93,0,0,1,474,75.39l-10.26,3.4L463,77.23l8.37-2.92-.57.4a3.91,3.91,0,0,0-1.2-1.62,3.39,3.39,0,0,0-2.19-.68,4,4,0,0,0-2,.51A3.69,3.69,0,0,0,464,74.33a4.11,4.11,0,0,0-.51,2.08,4.28,4.28,0,0,0,.52,2.13A3.75,3.75,0,0,0,465.51,80a4.36,4.36,0,0,0,2.15.52,4.44,4.44,0,0,0,1.57-.28,7.42,7.42,0,0,0,1.46-.74l1.26,2a8.9,8.9,0,0,1-2.09,1A7.27,7.27,0,0,1,467.6,82.79Z"/><path class="cls-2" d="M25.47,116.81a6.33,6.33,0,0,1-3.12-.77,5.79,5.79,0,0,1-2.2-2.22,6.47,6.47,0,0,1-.83-3.3,6.21,6.21,0,0,1,.87-3.35,5.77,5.77,0,0,1,2.34-2.12,7.28,7.28,0,0,1,3.3-.74,6.79,6.79,0,0,1,2.81.6,5,5,0,0,1,2.08,1.64l-.15.94V94.59h2.79v21.94H30.57v-2.92l.33.74a6.92,6.92,0,0,1-2.29,1.77A7,7,0,0,1,25.47,116.81Zm.87-2.24a4.71,4.71,0,0,0,2-.39,4.31,4.31,0,0,0,1.44-1.07,3.75,3.75,0,0,0,.82-1.57V109.3a3.51,3.51,0,0,0-.85-1.5,4.2,4.2,0,0,0-1.47-1,5.08,5.08,0,0,0-1.91-.35,4.35,4.35,0,0,0-2.07.51,4,4,0,0,0-1.53,1.42,3.83,3.83,0,0,0-.57,2.09,3.9,3.9,0,0,0,.57,2.09A4.31,4.31,0,0,0,24.27,114,4.06,4.06,0,0,0,26.34,114.57Z"/><path class="cls-2" d="M44,116.81a7.73,7.73,0,0,1-3.66-.8A5.91,5.91,0,0,1,38,113.79a6.1,6.1,0,0,1-.84-3.21,5.56,5.56,0,0,1,1-3.15,6.93,6.93,0,0,1,2.5-2.27,7.12,7.12,0,0,1,3.48-.85,6.11,6.11,0,0,1,4.08,1.36,7,7,0,0,1,2.22,3.74l-10.26,3.41-.66-1.56,8.37-2.92-.57.39a3.82,3.82,0,0,0-1.2-1.61,3.33,3.33,0,0,0-2.19-.68,4,4,0,0,0-2,.51,3.76,3.76,0,0,0-1.4,1.4,4.15,4.15,0,0,0-.51,2.09,4.25,4.25,0,0,0,.53,2.12A3.63,3.63,0,0,0,41.9,114a4.33,4.33,0,0,0,2.14.53,4.51,4.51,0,0,0,1.58-.29,7.3,7.3,0,0,0,1.45-.73l1.26,2a8.84,8.84,0,0,1-2.08,1A7.62,7.62,0,0,1,44,116.81Z"/><path class="cls-2" d="M55,99.63h2.85v5.22h3.39v2.07H57.84v9.61H55v-9.61H52.74v-2.07H55Z"/><path class="cls-2" d="M70.38,116.81a7.73,7.73,0,0,1-3.66-.8,5.91,5.91,0,0,1-2.37-2.22,6.1,6.1,0,0,1-.84-3.21,5.55,5.55,0,0,1,.94-3.15A7,7,0,0,1,67,105.16a7.12,7.12,0,0,1,3.48-.85,6.11,6.11,0,0,1,4.08,1.36,7,7,0,0,1,2.22,3.74l-10.26,3.41-.66-1.56,8.37-2.92-.57.39a3.82,3.82,0,0,0-1.2-1.61,3.33,3.33,0,0,0-2.19-.68,4,4,0,0,0-2,.51,3.74,3.74,0,0,0-1.39,1.4,4.15,4.15,0,0,0-.51,2.09,4.35,4.35,0,0,0,.52,2.12A3.65,3.65,0,0,0,68.3,114a4.33,4.33,0,0,0,2.14.53,4.51,4.51,0,0,0,1.58-.29,7.58,7.58,0,0,0,1.45-.73l1.26,2a9,9,0,0,1-2.08,1A7.67,7.67,0,0,1,70.38,116.81Z"/><path class="cls-2" d="M82.71,104.79,83,108.2l-.12-.49a5.17,5.17,0,0,1,1.38-1.81,6.61,6.61,0,0,1,1.92-1.16,5.47,5.47,0,0,1,1.74-.43L87.78,107a4.29,4.29,0,0,0-2.51.49,4.76,4.76,0,0,0-1.68,1.59,3.89,3.89,0,0,0-.61,2.11v5.36H80.19V104.79Z"/><path class="cls-2" d="M94,104.79l.24,2.64-.15-.23a5.24,5.24,0,0,1,2-2.11,5.57,5.57,0,0,1,3-.78,4.81,4.81,0,0,1,1.83.33,3.52,3.52,0,0,1,1.33.9,2.83,2.83,0,0,1,.68,1.41l-.15.11a5.18,5.18,0,0,1,2-2,5.4,5.4,0,0,1,2.69-.72,4.07,4.07,0,0,1,2.89,1,3.53,3.53,0,0,1,1.13,2.53v8.7H108.6v-7.74a2.74,2.74,0,0,0-.47-1.52,1.78,1.78,0,0,0-1.51-.63,3.24,3.24,0,0,0-1.94.61,4,4,0,0,0-1.32,1.58,5.29,5.29,0,0,0-.49,2.14v5.56h-2.82v-7.74a2.61,2.61,0,0,0-.5-1.52,1.87,1.87,0,0,0-1.54-.63,3.16,3.16,0,0,0-1.92.61,4.16,4.16,0,0,0-1.32,1.6,4.87,4.87,0,0,0-.48,2.15v5.53H91.47V104.79Z"/><path class="cls-2" d="M116,100.54a1.29,1.29,0,0,1,.52-1.05,1.82,1.82,0,0,1,1.16-.42,1.75,1.75,0,0,1,1.14.42,1.31,1.31,0,0,1,.51,1.05,1.28,1.28,0,0,1-.51,1.06,1.74,1.74,0,0,1-1.14.41,1.81,1.81,0,0,1-1.16-.41A1.27,1.27,0,0,1,116,100.54Zm.18,4.25H119v11.74h-2.82Z"/><path class="cls-2" d="M126.42,104.79l.21,2.87-.09-.46a4.43,4.43,0,0,1,1.92-2.08,6.18,6.18,0,0,1,3.15-.78,4.21,4.21,0,0,1,2.86,1,3.3,3.3,0,0,1,1.16,2.53v8.68h-2.82v-7.77a2.31,2.31,0,0,0-.59-1.54,2.2,2.2,0,0,0-1.72-.61,3.59,3.59,0,0,0-1.94.56,3.87,3.87,0,0,0-1.38,1.56,5.12,5.12,0,0,0-.49,2.3v5.5h-2.82V104.79Z"/><path class="cls-2" d="M145.65,116.81a7.06,7.06,0,0,1-3.17-.7,5.48,5.48,0,0,1-2.26-2.09,6.3,6.3,0,0,1-.84-3.36,6.39,6.39,0,0,1,.87-3.4,5.85,5.85,0,0,1,2.34-2.18,6.85,6.85,0,0,1,3.21-.77,5.5,5.5,0,0,1,2.95.75,5.24,5.24,0,0,1,1.82,1.77l-.18.43.27-2.47h2.58v11.74h-2.79v-3.06l.33.68a3.49,3.49,0,0,1-.57.72,7.32,7.32,0,0,1-1.07.9,5.87,5.87,0,0,1-3.49,1Zm.75-2.18a4.59,4.59,0,0,0,1.89-.37,3.54,3.54,0,0,0,1.39-1.05,3.83,3.83,0,0,0,.77-1.58v-2.3a3.56,3.56,0,0,0-.84-1.49,4.16,4.16,0,0,0-1.44-1,4.6,4.6,0,0,0-1.83-.36,4.23,4.23,0,0,0-2.07.51,4,4,0,0,0-1.49,1.42,4,4,0,0,0-.55,2.13,3.91,3.91,0,0,0,.57,2.07,4.22,4.22,0,0,0,3.6,2Z"/><path class="cls-2" d="M159.24,107a2.38,2.38,0,0,1-1.58-.54,2,2,0,0,1-.64-1.62v-1.13h2.13V104c0,.32.07.53.22.62a1.48,1.48,0,0,0,.77.14h8l-7.44,10.1-.57-.54H168v2.18H156.51l7.59-10.32.48.74Z"/><path class="cls-2" d="M171.78,100.54a1.29,1.29,0,0,1,.52-1.05,1.82,1.82,0,0,1,1.16-.42,1.75,1.75,0,0,1,1.14.42,1.31,1.31,0,0,1,.51,1.05,1.28,1.28,0,0,1-.51,1.06,1.74,1.74,0,0,1-1.14.41,1.81,1.81,0,0,1-1.16-.41A1.27,1.27,0,0,1,171.78,100.54Zm.18,4.25h2.82v11.74H172Z"/><path class="cls-2" d="M178.53,110.55a5.9,5.9,0,0,1,.88-3.18,6.28,6.28,0,0,1,2.46-2.24,7.63,7.63,0,0,1,3.59-.82,7.34,7.34,0,0,1,3.54.82,6,6,0,0,1,3.24,5.42,6,6,0,0,1-.86,3.17A6.17,6.17,0,0,1,189,116a7.3,7.3,0,0,1-3.57.83,7.93,7.93,0,0,1-3.56-.77,6.09,6.09,0,0,1-2.44-2.19A6,6,0,0,1,178.53,110.55Zm2.82,0a4,4,0,0,0,.54,2,4,4,0,0,0,1.44,1.46,3.89,3.89,0,0,0,2,.54,3.94,3.94,0,0,0,2.07-.54,3.9,3.9,0,0,0,1.42-1.46,4.14,4.14,0,0,0-1.42-5.58,3.87,3.87,0,0,0-2.07-.56,3.82,3.82,0,0,0-2.06.57,4.19,4.19,0,0,0-1.44,1.49A4,4,0,0,0,181.35,110.58Z"/><path class="cls-2" d="M198.51,104.79l.21,2.87-.09-.46a4.43,4.43,0,0,1,1.92-2.08,6.18,6.18,0,0,1,3.15-.78,4.21,4.21,0,0,1,2.86,1,3.3,3.3,0,0,1,1.16,2.53v8.68H204.9v-7.77a2.31,2.31,0,0,0-.59-1.54,2.2,2.2,0,0,0-1.72-.61,3.59,3.59,0,0,0-1.94.56,3.87,3.87,0,0,0-1.38,1.56,5.12,5.12,0,0,0-.49,2.3v5.5H196V104.79Z"/><path class="cls-2" d="M218.34,116.81a7.73,7.73,0,0,1-3.66-.8,5.91,5.91,0,0,1-2.37-2.22,6.1,6.1,0,0,1-.84-3.21,5.55,5.55,0,0,1,.94-3.15,7,7,0,0,1,2.51-2.27,7.12,7.12,0,0,1,3.48-.85,6.11,6.11,0,0,1,4.08,1.36,7,7,0,0,1,2.22,3.74l-10.26,3.41-.66-1.56,8.37-2.92-.57.39a3.82,3.82,0,0,0-1.2-1.61,3.33,3.33,0,0,0-2.19-.68,4,4,0,0,0-2,.51,3.74,3.74,0,0,0-1.39,1.4,4.15,4.15,0,0,0-.51,2.09,4.24,4.24,0,0,0,.52,2.12,3.69,3.69,0,0,0,1.47,1.46,4.36,4.36,0,0,0,2.15.53,4.45,4.45,0,0,0,1.57-.29,7.38,7.38,0,0,0,1.46-.73l1.26,2a8.92,8.92,0,0,1-2.09,1A7.56,7.56,0,0,1,218.34,116.81Z"/><path class="cls-2" d="M227.26,114a1.6,1.6,0,0,1,1.1-.45,1.52,1.52,0,0,1,1,.45,1.41,1.41,0,0,1,.5,1.08,1.35,1.35,0,0,1-.5,1.09,1.61,1.61,0,0,1-1,.41,1.71,1.71,0,0,1-1.1-.41,1.34,1.34,0,0,1-.49-1.09A1.4,1.4,0,0,1,227.26,114Z"/><path class="cls-2" d="M243.39,96h12.87v2.64h-10v6.52H255v2.64H246.3v8.7h-2.91Z"/><path class="cls-2" d="M258.77,100.54a1.3,1.3,0,0,1,.53-1.05,1.82,1.82,0,0,1,1.16-.42,1.77,1.77,0,0,1,1.14.42,1.3,1.3,0,0,1,.5,1.05,1.28,1.28,0,0,1-.5,1.06,1.76,1.76,0,0,1-1.14.41,1.81,1.81,0,0,1-1.16-.41A1.28,1.28,0,0,1,258.77,100.54Zm.19,4.25h2.81v11.74H259Z"/><path class="cls-2" d="M269.15,104.79l.21,2.87-.09-.46a4.43,4.43,0,0,1,1.92-2.08,6.21,6.21,0,0,1,3.15-.78,4.23,4.23,0,0,1,2.87,1,3.29,3.29,0,0,1,1.15,2.53v8.68h-2.82v-7.77a2.3,2.3,0,0,0-.58-1.54,2.22,2.22,0,0,0-1.73-.61,3.56,3.56,0,0,0-1.93.56,3.87,3.87,0,0,0-1.38,1.56,5.12,5.12,0,0,0-.5,2.3v5.5H266.6V104.79Z"/><path class="cls-2" d="M297.74,116.81a6.33,6.33,0,0,1-3.12-.77,5.79,5.79,0,0,1-2.2-2.22,6.47,6.47,0,0,1-.83-3.3,6.21,6.21,0,0,1,.87-3.35,5.77,5.77,0,0,1,2.34-2.12,7.28,7.28,0,0,1,3.3-.74,6.79,6.79,0,0,1,2.81.6,4.91,4.91,0,0,1,2.08,1.64l-.15.94V94.59h2.79v21.94h-2.79v-2.92l.33.74a6.92,6.92,0,0,1-2.29,1.77A7,7,0,0,1,297.74,116.81Zm.87-2.24a4.71,4.71,0,0,0,2-.39,4.31,4.31,0,0,0,1.44-1.07,3.75,3.75,0,0,0,.82-1.57V109.3a3.51,3.51,0,0,0-.85-1.5,4.2,4.2,0,0,0-1.47-1,5.08,5.08,0,0,0-1.91-.35,4.35,4.35,0,0,0-2.07.51,4,4,0,0,0-1.53,1.42,3.83,3.83,0,0,0-.57,2.09,3.9,3.9,0,0,0,.57,2.09,4.31,4.31,0,0,0,1.53,1.47A4.06,4.06,0,0,0,298.61,114.57Z"/><path class="cls-2" d="M315.65,116.81a7,7,0,0,1-3.16-.7,5.51,5.51,0,0,1-2.27-2.09,6.3,6.3,0,0,1-.84-3.36,6.39,6.39,0,0,1,.87-3.4,5.85,5.85,0,0,1,2.34-2.18,6.85,6.85,0,0,1,3.21-.77,5.54,5.54,0,0,1,3,.75,5.21,5.21,0,0,1,1.81,1.77l-.18.43.27-2.47h2.58v11.74h-2.79v-3.06l.33.68a3.49,3.49,0,0,1-.57.72,7.19,7.19,0,0,1-1.06.9,6.16,6.16,0,0,1-1.52.75A6.07,6.07,0,0,1,315.65,116.81Zm.75-2.18a4.59,4.59,0,0,0,1.89-.37,3.57,3.57,0,0,0,1.4-1.05,3.81,3.81,0,0,0,.76-1.58v-2.3a3.56,3.56,0,0,0-.84-1.49,4.16,4.16,0,0,0-1.44-1,4.6,4.6,0,0,0-1.83-.36,4.23,4.23,0,0,0-2.07.51,4,4,0,0,0-1.48,1.42,4,4,0,0,0-.56,2.13,3.91,3.91,0,0,0,.57,2.07,4.22,4.22,0,0,0,3.6,2Z"/><path class="cls-2" d="M344.9,116.81a6.14,6.14,0,0,1-2.71-.62,4.75,4.75,0,0,1-2-1.67l.15-.82v8.47h-2.79V104.62H340l.39,3-.3-.85a7,7,0,0,1,2.28-1.77,6.69,6.69,0,0,1,3.09-.7,6.33,6.33,0,0,1,3.14.78,5.7,5.7,0,0,1,2.2,2.21,6.68,6.68,0,0,1,.81,3.33,6.11,6.11,0,0,1-.87,3.28,5.76,5.76,0,0,1-2.38,2.15A7.66,7.66,0,0,1,344.9,116.81Zm-.54-2.09a4.6,4.6,0,0,0,2.19-.53,4.38,4.38,0,0,0,1.61-1.44,3.69,3.69,0,0,0,.61-2.09,3.92,3.92,0,0,0-.57-2.11,4.12,4.12,0,0,0-1.51-1.45,4.3,4.3,0,0,0-2.12-.52,4.88,4.88,0,0,0-1.95.38,3.89,3.89,0,0,0-1.44,1.07,4,4,0,0,0-.81,1.61v2a3.47,3.47,0,0,0,.72,1.56,4.17,4.17,0,0,0,1.43,1.12A4.24,4.24,0,0,0,344.36,114.72Z"/><path class="cls-2" d="M355.16,100.54a1.3,1.3,0,0,1,.53-1.05,1.79,1.79,0,0,1,1.15-.42,1.75,1.75,0,0,1,1.14.42,1.31,1.31,0,0,1,.51,1.05,1.28,1.28,0,0,1-.51,1.06,1.74,1.74,0,0,1-1.14.41,1.78,1.78,0,0,1-1.15-.41A1.28,1.28,0,0,1,355.16,100.54Zm.18,4.25h2.82v11.74h-2.82Z"/><path class="cls-2" d="M373.1,115.43a6.55,6.55,0,0,1-2,1,8.3,8.3,0,0,1-5.89-.4,5.84,5.84,0,0,1-2.42-2.16,6,6,0,0,1-.87-3.26,5.64,5.64,0,0,1,.93-3.24,6.29,6.29,0,0,1,2.42-2.13,7,7,0,0,1,3.22-.75,8.81,8.81,0,0,1,2.66.38,6.38,6.38,0,0,1,2.05,1.09l-1.41,1.71a6.22,6.22,0,0,0-1.3-.7,4.56,4.56,0,0,0-1.76-.33,4,4,0,0,0-2,.53,3.85,3.85,0,0,0-1.44,1.42,4.08,4.08,0,0,0,0,4,4,4,0,0,0,1.5,1.44,4.45,4.45,0,0,0,2.22.54,4.34,4.34,0,0,0,1.46-.23,4.19,4.19,0,0,0,1.21-.62Z"/><path class="cls-2" d="M386.78,115.43a6.55,6.55,0,0,1-2,1,8.3,8.3,0,0,1-5.89-.4,5.84,5.84,0,0,1-2.42-2.16,6,6,0,0,1-.87-3.26,5.64,5.64,0,0,1,.93-3.24,6.29,6.29,0,0,1,2.42-2.13,7,7,0,0,1,3.22-.75,8.81,8.81,0,0,1,2.66.38,6.38,6.38,0,0,1,2.05,1.09l-1.41,1.71a6.22,6.22,0,0,0-1.3-.7,4.56,4.56,0,0,0-1.76-.33,4,4,0,0,0-2,.53,3.85,3.85,0,0,0-1.44,1.42,4.08,4.08,0,0,0,0,4,4,4,0,0,0,1.5,1.44,4.45,4.45,0,0,0,2.22.54,4.34,4.34,0,0,0,1.46-.23,4.19,4.19,0,0,0,1.21-.62Z"/><path class="cls-2" d="M389.27,110.55a5.91,5.91,0,0,1,.89-3.18,6.28,6.28,0,0,1,2.46-2.24,7.59,7.59,0,0,1,3.58-.82,7.34,7.34,0,0,1,3.54.82,6.15,6.15,0,0,1,2.39,2.24,6.06,6.06,0,0,1,.85,3.18,6,6,0,0,1-.85,3.17,6.2,6.2,0,0,1-2.39,2.26,7.3,7.3,0,0,1-3.57.83,7.89,7.89,0,0,1-3.55-.77,6.11,6.11,0,0,1-2.45-2.19A6,6,0,0,1,389.27,110.55Zm2.82,0a4,4,0,0,0,.54,2,4,4,0,0,0,1.44,1.46,3.89,3.89,0,0,0,2,.54,3.92,3.92,0,0,0,3.5-2,4.32,4.32,0,0,0,0-4.11,4.11,4.11,0,0,0-1.43-1.47,3.87,3.87,0,0,0-2.07-.56,3.79,3.79,0,0,0-2.05.57,4.19,4.19,0,0,0-1.44,1.49A4,4,0,0,0,392.09,110.58Z"/><path class="cls-2" d="M406.7,94.59h2.82v21.94H406.7Z"/><path class="cls-2" d="M413.27,110.55a5.91,5.91,0,0,1,.89-3.18,6.28,6.28,0,0,1,2.46-2.24,7.59,7.59,0,0,1,3.58-.82,7.34,7.34,0,0,1,3.54.82,6.15,6.15,0,0,1,2.39,2.24,6.06,6.06,0,0,1,.85,3.18,6,6,0,0,1-.85,3.17,6.2,6.2,0,0,1-2.39,2.26,7.3,7.3,0,0,1-3.57.83,7.89,7.89,0,0,1-3.55-.77,6.11,6.11,0,0,1-2.45-2.19A6,6,0,0,1,413.27,110.55Zm2.82,0a4,4,0,0,0,.54,2,4,4,0,0,0,1.44,1.46,3.89,3.89,0,0,0,2,.54,3.92,3.92,0,0,0,3.5-2,4.32,4.32,0,0,0,0-4.11,4.11,4.11,0,0,0-1.43-1.47,3.87,3.87,0,0,0-2.07-.56,3.79,3.79,0,0,0-2.05.57,4.19,4.19,0,0,0-1.44,1.49A4,4,0,0,0,416.09,110.58Z"/><path class="cls-2" d="M440.18,116.53V94.59h2.76v12.93l-.06-.49a5.1,5.1,0,0,1,1.93-1.93,6.08,6.08,0,0,1,3.11-.76,4.21,4.21,0,0,1,2.86,1,3.3,3.3,0,0,1,1.16,2.53v8.68h-2.82v-7.77a2.31,2.31,0,0,0-.59-1.54,2.2,2.2,0,0,0-1.72-.61,3.45,3.45,0,0,0-1.94.58,4,4,0,0,0-1.38,1.57A5,5,0,0,0,443,111v5.5Z"/><path class="cls-2" d="M462,116.81a7.06,7.06,0,0,1-3.17-.7,5.48,5.48,0,0,1-2.26-2.09,6.3,6.3,0,0,1-.84-3.36,6.39,6.39,0,0,1,.87-3.4,5.85,5.85,0,0,1,2.34-2.18,6.85,6.85,0,0,1,3.21-.77,5.5,5.5,0,0,1,2.95.75,5.24,5.24,0,0,1,1.82,1.77l-.18.43.27-2.47h2.58v11.74h-2.79v-3.06l.33.68a3.49,3.49,0,0,1-.57.72,7.32,7.32,0,0,1-1.07.9,5.87,5.87,0,0,1-3.49,1Zm.75-2.18a4.59,4.59,0,0,0,1.89-.37,3.54,3.54,0,0,0,1.39-1.05,3.83,3.83,0,0,0,.77-1.58v-2.3a3.56,3.56,0,0,0-.84-1.49,4.16,4.16,0,0,0-1.44-1,4.6,4.6,0,0,0-1.83-.36,4.23,4.23,0,0,0-2.07.51,4,4,0,0,0-1.49,1.42,4,4,0,0,0-.55,2.13,3.91,3.91,0,0,0,.57,2.07,4.22,4.22,0,0,0,3.6,2Z"/><path class="cls-2" d="M487.85,117a4.11,4.11,0,0,1-2.84-1,3.45,3.45,0,0,1-1.15-2.54v-8.68h2.82v7.74a2.5,2.5,0,0,0,.6,1.55,2.2,2.2,0,0,0,1.68.64,3.17,3.17,0,0,0,1.84-.58,4.29,4.29,0,0,0,1.34-1.59,5,5,0,0,0,.51-2.28v-5.48h2.79v11.74h-2.55l-.24-2.89.18.54a4.69,4.69,0,0,1-1.11,1.43,5.37,5.37,0,0,1-1.73,1A6.28,6.28,0,0,1,487.85,117Z"/><path class="cls-2" d="M502.79,104.79l.21,2.87-.09-.46a4.43,4.43,0,0,1,1.92-2.08,6.18,6.18,0,0,1,3.15-.78,4.21,4.21,0,0,1,2.86,1,3.3,3.3,0,0,1,1.16,2.53v8.68h-2.82v-7.77a2.31,2.31,0,0,0-.59-1.54,2.2,2.2,0,0,0-1.72-.61,3.59,3.59,0,0,0-1.94.56,3.87,3.87,0,0,0-1.38,1.56,5.12,5.12,0,0,0-.49,2.3v5.5h-2.82V104.79Z"/><path class="cls-2" d="M529.82,116.76a7.76,7.76,0,0,1-2.57-.44,4.92,4.92,0,0,1-2-1.32l1.17-1.53a6.24,6.24,0,0,0,1.62,1.06,4,4,0,0,0,1.62.36,4.32,4.32,0,0,0,1.11-.14,1.74,1.74,0,0,0,.82-.49,1.24,1.24,0,0,0,.32-.88,1.21,1.21,0,0,0-.44-1,3.41,3.41,0,0,0-1.09-.58c-.44-.15-.92-.3-1.44-.43a5.36,5.36,0,0,1-2.34-1.33,2.9,2.9,0,0,1-.81-2.07,3.28,3.28,0,0,1,.49-1.75,3.81,3.81,0,0,1,1.49-1.33,5.07,5.07,0,0,1,2.4-.52,8.19,8.19,0,0,1,2.31.3,5.53,5.53,0,0,1,1.92,1l-1.11,1.65a3.49,3.49,0,0,0-1.28-.81,3.89,3.89,0,0,0-1.33-.27,3,3,0,0,0-1,.16,1.75,1.75,0,0,0-.75.45,1,1,0,0,0-.28.75,1.08,1.08,0,0,0,.4,1,3.46,3.46,0,0,0,1.1.58l1.35.45a6.59,6.59,0,0,1,1.62.69,3.62,3.62,0,0,1,1.15,1,2.68,2.68,0,0,1,.44,1.56,3.81,3.81,0,0,1-.53,1.95,3.67,3.67,0,0,1-1.59,1.41A6.11,6.11,0,0,1,529.82,116.76Z"/><path class="cls-2" d="M537.44,110.55a5.9,5.9,0,0,1,.88-3.18,6.28,6.28,0,0,1,2.46-2.24,7.63,7.63,0,0,1,3.59-.82,7.34,7.34,0,0,1,3.54.82,6,6,0,0,1,3.24,5.42,6,6,0,0,1-.86,3.17,6.17,6.17,0,0,1-2.38,2.26,7.3,7.3,0,0,1-3.57.83,7.93,7.93,0,0,1-3.56-.77,6.09,6.09,0,0,1-2.44-2.19A6,6,0,0,1,537.44,110.55Zm2.82,0a4,4,0,0,0,.54,2,4,4,0,0,0,1.44,1.46,3.89,3.89,0,0,0,2,.54,3.94,3.94,0,0,0,2.07-.54,3.9,3.9,0,0,0,1.42-1.46,4.14,4.14,0,0,0-1.42-5.58,3.87,3.87,0,0,0-2.07-.56,3.82,3.82,0,0,0-2.06.57,4.19,4.19,0,0,0-1.44,1.49A4,4,0,0,0,540.26,110.58Z"/><path class="cls-2" d="M560.9,122.37a8.68,8.68,0,0,1-2.45-.31,7.61,7.61,0,0,1-1.92-.85,18.71,18.71,0,0,1-1.66-1.19l1.65-1.82a9.26,9.26,0,0,0,2,1.34,5.29,5.29,0,0,0,2.28.48,5.81,5.81,0,0,0,2.38-.44,3.3,3.3,0,0,0,1.47-1.21,3.39,3.39,0,0,0,.53-1.78l0-3.18.24.51a4.57,4.57,0,0,1-2,2.06,6.57,6.57,0,0,1-3.42.83A6.17,6.17,0,0,1,557,116a6.47,6.47,0,0,1-2.31-2.22,5.89,5.89,0,0,1-.87-3.16,6,6,0,0,1,.9-3.27,6.43,6.43,0,0,1,2.38-2.22,6.65,6.65,0,0,1,3.23-.81,6.94,6.94,0,0,1,3,.64,4.77,4.77,0,0,1,2,1.63l-.18.48.27-2.27H568v11.83a5.18,5.18,0,0,1-.86,2.89,6,6,0,0,1-2.46,2.08A8.58,8.58,0,0,1,560.9,122.37Zm-4.29-11.82a3.83,3.83,0,0,0,.58,2.07,4.24,4.24,0,0,0,1.56,1.47,4.37,4.37,0,0,0,2.15.54,5,5,0,0,0,2-.38,4.25,4.25,0,0,0,1.49-1.06,4,4,0,0,0,.84-1.51v-2.35a3.59,3.59,0,0,0-.9-1.48,4.9,4.9,0,0,0-1.5-1,5,5,0,0,0-1.92-.37,4.47,4.47,0,0,0-2.15.53,4.21,4.21,0,0,0-1.56,1.43A3.79,3.79,0,0,0,556.61,110.55Z"/><path class="cls-2" d="M575.39,104.79l.21,2.87-.09-.46a4.43,4.43,0,0,1,1.92-2.08,6.18,6.18,0,0,1,3.15-.78,4.21,4.21,0,0,1,2.86,1,3.3,3.3,0,0,1,1.16,2.53v8.68h-2.82v-7.77a2.31,2.31,0,0,0-.59-1.54,2.2,2.2,0,0,0-1.72-.61,3.59,3.59,0,0,0-1.94.56,3.87,3.87,0,0,0-1.38,1.56,5.12,5.12,0,0,0-.49,2.3v5.5h-2.82V104.79Z"/><path class="cls-2" d="M588.35,110.55a5.9,5.9,0,0,1,.88-3.18,6.28,6.28,0,0,1,2.46-2.24,7.63,7.63,0,0,1,3.59-.82,7.34,7.34,0,0,1,3.54.82,6,6,0,0,1,3.24,5.42,6,6,0,0,1-.86,3.17,6.17,6.17,0,0,1-2.38,2.26,7.3,7.3,0,0,1-3.57.83,7.93,7.93,0,0,1-3.56-.77,6.09,6.09,0,0,1-2.44-2.19A6,6,0,0,1,588.35,110.55Zm2.82,0a4,4,0,0,0,.54,2,4,4,0,0,0,1.44,1.46,3.89,3.89,0,0,0,2,.54,3.94,3.94,0,0,0,2.07-.54,3.9,3.9,0,0,0,1.42-1.46,4.14,4.14,0,0,0-1.42-5.58,3.87,3.87,0,0,0-2.07-.56,3.82,3.82,0,0,0-2.06.57,4.19,4.19,0,0,0-1.44,1.49A4,4,0,0,0,591.17,110.58Z"/><path class="cls-2" d="M30.51,149.45a6.55,6.55,0,0,1-2,1,7.62,7.62,0,0,1-2.34.37,7.89,7.89,0,0,1-3.55-.77,5.82,5.82,0,0,1-2.42-2.15,6,6,0,0,1-.87-3.26,5.67,5.67,0,0,1,.93-3.25,6.38,6.38,0,0,1,2.42-2.13,7,7,0,0,1,3.22-.75,8.5,8.5,0,0,1,2.66.39A6.19,6.19,0,0,1,30.6,140l-1.41,1.7a6.22,6.22,0,0,0-1.3-.7,4.79,4.79,0,0,0-1.76-.32,4,4,0,0,0-2,.52,3.92,3.92,0,0,0-1.44,1.42,4.08,4.08,0,0,0,0,4,4,4,0,0,0,1.5,1.45,4.45,4.45,0,0,0,2.22.54,4.61,4.61,0,0,0,1.46-.23,4.22,4.22,0,0,0,1.21-.63Z"/><path class="cls-2" d="M34.08,150.56V128.61h2.76v12.93l-.06-.48a5,5,0,0,1,1.94-1.93,6,6,0,0,1,3.1-.77,4.23,4.23,0,0,1,2.87,1,3.29,3.29,0,0,1,1.15,2.54v8.68H43v-7.77a2.33,2.33,0,0,0-.58-1.55,2.24,2.24,0,0,0-1.73-.61,3.53,3.53,0,0,0-1.94.58,4.05,4.05,0,0,0-1.37,1.58,4.85,4.85,0,0,0-.5,2.26v5.51Z"/><path class="cls-2" d="M50.49,134.56a1.3,1.3,0,0,1,.53-1.05,1.77,1.77,0,0,1,1.15-.42,1.75,1.75,0,0,1,1.14.42,1.33,1.33,0,0,1,.51,1.05,1.32,1.32,0,0,1-.51,1.07,1.79,1.79,0,0,1-1.14.41,1.82,1.82,0,0,1-1.15-.41A1.28,1.28,0,0,1,50.49,134.56Zm.18,4.26h2.82v11.74H50.67Z"/><path class="cls-2" d="M63.51,150.84a7.06,7.06,0,0,1-3.17-.71,5.46,5.46,0,0,1-2.26-2.08,7.13,7.13,0,0,1,0-6.77,5.92,5.92,0,0,1,2.34-2.18,6.85,6.85,0,0,1,3.21-.77,5.51,5.51,0,0,1,3,.76,5.24,5.24,0,0,1,1.82,1.77l-.18.42.27-2.46H71.1v11.74H68.31v-3.07l.33.68a3.77,3.77,0,0,1-.57.73,7.3,7.3,0,0,1-1.07.89,6,6,0,0,1-3.49,1.05Zm.75-2.18a4.75,4.75,0,0,0,1.89-.37,3.74,3.74,0,0,0,1.39-1,3.87,3.87,0,0,0,.77-1.59v-2.3a3.62,3.62,0,0,0-.84-1.49,4.3,4.3,0,0,0-1.44-1,4.77,4.77,0,0,0-1.83-.35,4.23,4.23,0,0,0-2.07.51,3.91,3.91,0,0,0-1.49,1.42,4,4,0,0,0-.55,2.12,3.88,3.88,0,0,0,.57,2.07,4.1,4.1,0,0,0,1.53,1.48A4.15,4.15,0,0,0,64.26,148.66Z"/><path class="cls-2" d="M78.45,138.82l.27,3.4-.12-.48A5.21,5.21,0,0,1,80,139.92a6.61,6.61,0,0,1,1.92-1.16,5.76,5.76,0,0,1,1.74-.43L83.52,141a4.22,4.22,0,0,0-2.51.5,4.65,4.65,0,0,0-1.68,1.58,3.93,3.93,0,0,0-.61,2.12v5.36H75.93V138.82Z"/><path class="cls-2" d="M85.59,144.57a5.84,5.84,0,0,1,.88-3.17,6.21,6.21,0,0,1,2.46-2.24,7.63,7.63,0,0,1,3.59-.83,7.35,7.35,0,0,1,3.54.83,6.19,6.19,0,0,1,2.38,8.59A6.22,6.22,0,0,1,96.06,150a7.3,7.3,0,0,1-3.57.84,7.81,7.81,0,0,1-3.56-.78,6.14,6.14,0,0,1-2.44-2.18A6,6,0,0,1,85.59,144.57Zm2.82,0a4,4,0,0,0,.54,2.06,4.11,4.11,0,0,0,1.44,1.46,3.89,3.89,0,0,0,2,.54,3.89,3.89,0,0,0,3.49-2,4.25,4.25,0,0,0,0-4.11,4,4,0,0,0-1.42-1.48,3.86,3.86,0,0,0-2.07-.55,3.91,3.91,0,0,0-2.06.56,4.19,4.19,0,0,0-1.44,1.49A4,4,0,0,0,88.41,144.6Z"/><path class="cls-2" d="M102.1,140.26a1.6,1.6,0,0,1,1.1-.45,1.55,1.55,0,0,1,1.06.45,1.43,1.43,0,0,1,.5,1.08,1.35,1.35,0,0,1-.5,1.09,1.59,1.59,0,0,1-1.06.41,1.65,1.65,0,0,1-1.1-.41,1.34,1.34,0,0,1-.49-1.09A1.42,1.42,0,0,1,102.1,140.26Zm0,7.72a1.57,1.57,0,0,1,1.1-.46,1.52,1.52,0,0,1,1.06.46,1.41,1.41,0,0,1,.5,1.07,1.33,1.33,0,0,1-.5,1.09,1.6,1.6,0,0,1-1.06.42,1.67,1.67,0,0,1-1.1-.42,1.33,1.33,0,0,1-.49-1.09A1.4,1.4,0,0,1,102.1,148Z"/><path class="cls-2" d="M122.91,150.84a6.23,6.23,0,0,1-3.12-.78,5.86,5.86,0,0,1-2.21-2.21,6.53,6.53,0,0,1-.82-3.31,6.18,6.18,0,0,1,.87-3.34,5.72,5.72,0,0,1,2.34-2.13,7.28,7.28,0,0,1,3.3-.74,6.74,6.74,0,0,1,2.8.6,5.1,5.1,0,0,1,2.09,1.64l-.15.94v-12.9h2.79v21.95H128v-2.93l.33.74a7,7,0,0,1-2.3,1.77A6.83,6.83,0,0,1,122.91,150.84Zm.87-2.24a4.52,4.52,0,0,0,2-.4,4.28,4.28,0,0,0,1.44-1.06,3.87,3.87,0,0,0,.83-1.58v-2.23a3.63,3.63,0,0,0-.86-1.51,4.17,4.17,0,0,0-1.47-1,4.84,4.84,0,0,0-1.9-.36,4.35,4.35,0,0,0-2.07.51,4,4,0,0,0-1.53,1.42,4.12,4.12,0,0,0,0,4.18,4.26,4.26,0,0,0,1.53,1.48A4.16,4.16,0,0,0,123.78,148.6Z"/><path class="cls-2" d="M135.45,134.56a1.32,1.32,0,0,1,.52-1.05,1.82,1.82,0,0,1,1.16-.42,1.75,1.75,0,0,1,1.14.42,1.33,1.33,0,0,1,.51,1.05,1.32,1.32,0,0,1-.51,1.07,1.79,1.79,0,0,1-1.14.41,1.87,1.87,0,0,1-1.16-.41A1.3,1.3,0,0,1,135.45,134.56Zm.18,4.26h2.82v11.74h-2.82Z"/><path class="cls-2" d="M148.35,150.9l-6.9-12.08h3.33l4.65,9.33-1.71-.09,4.29-9.24h3.12L148.5,150.9Z"/><path class="cls-2" d="M163.59,150.84a7.73,7.73,0,0,1-3.66-.81,6,6,0,0,1-2.37-2.21,6.16,6.16,0,0,1-.84-3.22,5.57,5.57,0,0,1,.94-3.15,6.93,6.93,0,0,1,2.51-2.26,7.12,7.12,0,0,1,3.48-.86,6.12,6.12,0,0,1,4.08,1.37,6.89,6.89,0,0,1,2.22,3.74l-10.26,3.4-.66-1.56,8.37-2.92-.57.4a3.85,3.85,0,0,0-1.2-1.62,3.39,3.39,0,0,0-2.19-.68,4,4,0,0,0-2,.51,3.69,3.69,0,0,0-1.39,1.41,4.11,4.11,0,0,0-.51,2.08,4.31,4.31,0,0,0,.52,2.13,3.75,3.75,0,0,0,1.47,1.46,4.36,4.36,0,0,0,2.15.52,4.44,4.44,0,0,0,1.57-.28,7.42,7.42,0,0,0,1.46-.74l1.26,2a9.32,9.32,0,0,1-2.09,1A7.27,7.27,0,0,1,163.59,150.84Z"/><path class="cls-2" d="M176,138.82l.21,2.86-.09-.45a4.4,4.4,0,0,1,1.92-2.09,6.18,6.18,0,0,1,3.15-.78,4.21,4.21,0,0,1,2.86,1,3.3,3.3,0,0,1,1.16,2.54v8.68h-2.82v-7.77a2.33,2.33,0,0,0-.59-1.55,2.2,2.2,0,0,0-1.72-.61,3.52,3.52,0,0,0-1.94.57,3.87,3.87,0,0,0-1.38,1.56,5.08,5.08,0,0,0-.49,2.29v5.51H173.4V138.82Z"/><path class="cls-2" d="M191.19,133.66H194v5.21h3.39v2.07H194v9.62h-2.85v-9.62h-2.25v-2.07h2.25Z"/><path class="cls-2" d="M206,150.84a7,7,0,0,1-3.17-.71,5.4,5.4,0,0,1-2.26-2.08,7.13,7.13,0,0,1,0-6.77,5.85,5.85,0,0,1,2.34-2.18,6.85,6.85,0,0,1,3.21-.77,5.53,5.53,0,0,1,3,.76,5.33,5.33,0,0,1,1.82,1.77l-.18.42.26-2.46h2.58v11.74h-2.79v-3.07l.33.68a3.64,3.64,0,0,1-.56.73,7.3,7.3,0,0,1-1.07.89,6.26,6.26,0,0,1-1.51.75A6.1,6.1,0,0,1,206,150.84Zm.75-2.18a4.75,4.75,0,0,0,1.89-.37,3.7,3.7,0,0,0,2.15-2.64v-2.3a3.6,3.6,0,0,0-.83-1.49,4.41,4.41,0,0,0-1.44-1,4.77,4.77,0,0,0-1.83-.35,4.21,4.21,0,0,0-2.07.51,3.91,3.91,0,0,0-1.49,1.42,4,4,0,0,0-.55,2.12,3.8,3.8,0,0,0,.57,2.07,4.15,4.15,0,0,0,1.52,1.48A4.19,4.19,0,0,0,206.73,148.66Z"/><path class="cls-2" d="M220.91,138.82l.28,3.4-.13-.48a5.21,5.21,0,0,1,1.38-1.82,6.61,6.61,0,0,1,1.92-1.16,5.76,5.76,0,0,1,1.74-.43L226,141a4.18,4.18,0,0,0-2.5.5,4.65,4.65,0,0,0-1.68,1.58,3.93,3.93,0,0,0-.61,2.12v5.36H218.4V138.82Z"/><path class="cls-2" d="M234.93,150.84a7.67,7.67,0,0,1-3.66-.81,5.83,5.83,0,0,1-2.37-2.21,6.07,6.07,0,0,1-.84-3.22,5.57,5.57,0,0,1,.94-3.15,6.9,6.9,0,0,1,2.5-2.26,7.12,7.12,0,0,1,3.48-.86,6.12,6.12,0,0,1,4.08,1.37,6.83,6.83,0,0,1,2.22,3.74L231,146.84l-.66-1.56,8.37-2.92-.57.4a3.82,3.82,0,0,0-1.19-1.62,3.42,3.42,0,0,0-2.2-.68,4,4,0,0,0-2,.51,3.72,3.72,0,0,0-1.4,1.41,4.11,4.11,0,0,0-.5,2.08,4.31,4.31,0,0,0,.52,2.13,3.75,3.75,0,0,0,1.47,1.46,4.35,4.35,0,0,0,2.14.52,4.5,4.5,0,0,0,1.58-.28,7.71,7.71,0,0,0,1.46-.74l1.25,2a9.24,9.24,0,0,1-2.08,1A7.32,7.32,0,0,1,234.93,150.84Z"/><path class="cls-2" d="M256.76,138.82l.24,2.63-.15-.22a5.29,5.29,0,0,1,2-2.12,5.53,5.53,0,0,1,2.95-.78,4.81,4.81,0,0,1,1.83.33,3.58,3.58,0,0,1,1.34.91,2.78,2.78,0,0,1,.67,1.4l-.15.11a5.18,5.18,0,0,1,2-2,5.37,5.37,0,0,1,2.68-.73,4.1,4.1,0,0,1,2.9,1,3.48,3.48,0,0,1,1.12,2.52v8.71h-2.82v-7.75a2.68,2.68,0,0,0-.46-1.51,1.8,1.8,0,0,0-1.52-.64,3.21,3.21,0,0,0-1.93.61,4.09,4.09,0,0,0-1.32,1.59,5.22,5.22,0,0,0-.5,2.14v5.56h-2.82v-7.75a2.55,2.55,0,0,0-.49-1.51,1.89,1.89,0,0,0-1.55-.64,3.16,3.16,0,0,0-1.92.61,4.23,4.23,0,0,0-1.32,1.6A4.88,4.88,0,0,0,257,145v5.53h-2.82V138.82Z"/><path class="cls-2" d="M284.75,150.84a7.73,7.73,0,0,1-3.66-.81,6,6,0,0,1-2.37-2.21,6.16,6.16,0,0,1-.84-3.22,5.58,5.58,0,0,1,.95-3.15,6.9,6.9,0,0,1,2.5-2.26,7.12,7.12,0,0,1,3.48-.86,6.12,6.12,0,0,1,4.08,1.37,6.89,6.89,0,0,1,2.22,3.74l-10.26,3.4-.66-1.56,8.37-2.92-.57.4a3.85,3.85,0,0,0-1.2-1.62,3.39,3.39,0,0,0-2.19-.68,4,4,0,0,0-2,.51,3.72,3.72,0,0,0-1.4,1.41,4.11,4.11,0,0,0-.51,2.08,4.31,4.31,0,0,0,.53,2.13,3.75,3.75,0,0,0,1.47,1.46,4.32,4.32,0,0,0,2.14.52,4.5,4.5,0,0,0,1.58-.28,7.34,7.34,0,0,0,1.45-.74l1.26,2a9.24,9.24,0,0,1-2.08,1A7.33,7.33,0,0,1,284.75,150.84Z"/><path class="cls-2" d="M299.63,150.84a6.23,6.23,0,0,1-3.12-.78,5.84,5.84,0,0,1-2.2-2.21,6.53,6.53,0,0,1-.83-3.31,6.18,6.18,0,0,1,.87-3.34,5.72,5.72,0,0,1,2.34-2.13,7.28,7.28,0,0,1,3.3-.74,6.79,6.79,0,0,1,2.81.6,5.07,5.07,0,0,1,2.08,1.64l-.15.94v-12.9h2.79v21.95h-2.79v-2.93l.33.74a7,7,0,0,1-5.43,2.47Zm.87-2.24a4.56,4.56,0,0,0,2-.4,4.28,4.28,0,0,0,1.44-1.06,3.85,3.85,0,0,0,.82-1.58v-2.23a3.61,3.61,0,0,0-.85-1.51,4.17,4.17,0,0,0-1.47-1,4.89,4.89,0,0,0-1.91-.36,4.35,4.35,0,0,0-2.07.51,4,4,0,0,0-1.53,1.42,4.12,4.12,0,0,0,0,4.18,4.26,4.26,0,0,0,1.53,1.48A4.16,4.16,0,0,0,300.5,148.6Z"/><path class="cls-2" d="M312.17,134.56a1.33,1.33,0,0,1,.53-1.05,1.79,1.79,0,0,1,1.15-.42,1.75,1.75,0,0,1,1.14.42,1.33,1.33,0,0,1,.51,1.05,1.32,1.32,0,0,1-.51,1.07,1.79,1.79,0,0,1-1.14.41,1.84,1.84,0,0,1-1.15-.41A1.31,1.31,0,0,1,312.17,134.56Zm.18,4.26h2.82v11.74h-2.82Z"/><path class="cls-2" d="M330.11,149.45a6.55,6.55,0,0,1-2,1,7.62,7.62,0,0,1-2.34.37,7.89,7.89,0,0,1-3.55-.77,5.88,5.88,0,0,1-2.42-2.15,6,6,0,0,1-.87-3.26,5.67,5.67,0,0,1,.93-3.25,6.38,6.38,0,0,1,2.42-2.13,7,7,0,0,1,3.22-.75,8.5,8.5,0,0,1,2.66.39A6.19,6.19,0,0,1,330.2,140l-1.41,1.7a6.22,6.22,0,0,0-1.3-.7,4.75,4.75,0,0,0-1.76-.32,4,4,0,0,0-2,.52,3.88,3.88,0,0,0-2,3.45,3.83,3.83,0,0,0,.54,2,4,4,0,0,0,1.5,1.45,4.45,4.45,0,0,0,2.22.54,4.61,4.61,0,0,0,1.46-.23,4.22,4.22,0,0,0,1.21-.63Z"/><path class="cls-2" d="M332.6,144.57a5.85,5.85,0,0,1,.89-3.17,6.21,6.21,0,0,1,2.46-2.24,7.59,7.59,0,0,1,3.58-.83,7.35,7.35,0,0,1,3.54.83,6.08,6.08,0,0,1,2.39,2.24,6,6,0,0,1,.85,3.17,6.06,6.06,0,0,1-.85,3.18,6.25,6.25,0,0,1-2.39,2.25,7.3,7.3,0,0,1-3.57.84,7.76,7.76,0,0,1-3.55-.78,6.16,6.16,0,0,1-2.45-2.18A6,6,0,0,1,332.6,144.57Zm2.82,0a4,4,0,0,0,.54,2.06,4.11,4.11,0,0,0,1.44,1.46,3.89,3.89,0,0,0,2,.54,3.94,3.94,0,0,0,2.07-.54,4,4,0,0,0,1.43-1.46,4.15,4.15,0,0,0-1.43-5.59,4.1,4.1,0,0,0-4.12,0,4.19,4.19,0,0,0-1.44,1.49A4,4,0,0,0,335.42,144.6Z"/><path class="cls-2" d="M349.15,148a1.55,1.55,0,0,1,1.09-.46,1.51,1.51,0,0,1,1,.46,1.4,1.4,0,0,1,.49,1.07,1.33,1.33,0,0,1-.49,1.09,1.6,1.6,0,0,1-1,.42,1.64,1.64,0,0,1-1.09-.42,1.33,1.33,0,0,1-.5-1.09A1.41,1.41,0,0,1,349.15,148Z"/><path class="cls-2" d="M365.27,130.06h2.91v17.86h11v2.64H365.27Z"/><path class="cls-2" d="M388.4,150.84a7,7,0,0,1-3.16-.71,5.49,5.49,0,0,1-2.27-2.08,7.13,7.13,0,0,1,0-6.77,5.92,5.92,0,0,1,2.34-2.18,6.85,6.85,0,0,1,3.21-.77,5.54,5.54,0,0,1,3,.76,5.21,5.21,0,0,1,1.81,1.77l-.18.42.27-2.46H396v11.74H393.2v-3.07l.33.68a3.77,3.77,0,0,1-.57.73,7.18,7.18,0,0,1-1.06.89,6.16,6.16,0,0,1-1.52.75A6.06,6.06,0,0,1,388.4,150.84Zm.75-2.18a4.75,4.75,0,0,0,1.89-.37,3.78,3.78,0,0,0,1.4-1,3.85,3.85,0,0,0,.76-1.59v-2.3a3.62,3.62,0,0,0-.84-1.49,4.3,4.3,0,0,0-1.44-1,4.77,4.77,0,0,0-1.83-.35A4.23,4.23,0,0,0,387,141a3.88,3.88,0,0,0-1.48,1.42,4,4,0,0,0-.56,2.12,3.88,3.88,0,0,0,.57,2.07,4.1,4.1,0,0,0,1.53,1.48A4.15,4.15,0,0,0,389.15,148.66Z"/><path class="cls-2" d="M413.81,150.78a7.45,7.45,0,0,1-2.56-.44,5,5,0,0,1-2.06-1.32l1.17-1.53a6.3,6.3,0,0,0,1.62,1.07,4.11,4.11,0,0,0,1.62.35,4.32,4.32,0,0,0,1.11-.14,1.84,1.84,0,0,0,.83-.48,1.25,1.25,0,0,0,.31-.88,1.23,1.23,0,0,0-.43-1,3.68,3.68,0,0,0-1.1-.58q-.66-.23-1.44-.42a5.47,5.47,0,0,1-2.34-1.34,2.87,2.87,0,0,1-.81-2.07,3.28,3.28,0,0,1,.5-1.74,3.71,3.71,0,0,1,1.48-1.33,5.06,5.06,0,0,1,2.4-.53,8.19,8.19,0,0,1,2.31.3,5.55,5.55,0,0,1,1.92,1l-1.11,1.64a3.45,3.45,0,0,0-1.27-.81,3.94,3.94,0,0,0-1.34-.27,3.22,3.22,0,0,0-1,.16,1.75,1.75,0,0,0-.75.45,1.05,1.05,0,0,0-.29.75,1.08,1.08,0,0,0,.41.95,3.41,3.41,0,0,0,1.09.58c.44.16.89.31,1.35.46a7,7,0,0,1,1.62.68,3.57,3.57,0,0,1,1.16,1.05,2.64,2.64,0,0,1,.43,1.56,3.76,3.76,0,0,1-.52,1.94,3.63,3.63,0,0,1-1.59,1.42A6.16,6.16,0,0,1,413.81,150.78Z"/><path class="cls-2" d="M426.5,151a4.09,4.09,0,0,1-2.83-1,3.44,3.44,0,0,1-1.16-2.54v-8.67h2.82v7.74a2.48,2.48,0,0,0,.6,1.54,2.2,2.2,0,0,0,1.68.64,3.13,3.13,0,0,0,1.85-.58,4.26,4.26,0,0,0,1.33-1.59,5,5,0,0,0,.51-2.28v-5.47h2.79v11.74h-2.55l-.24-2.9.18.54a4.57,4.57,0,0,1-1.11,1.43,5.15,5.15,0,0,1-1.72,1A6.11,6.11,0,0,1,426.5,151Z"/><path class="cls-2" d="M444.08,150.84a7,7,0,0,1-3.16-.71,5.49,5.49,0,0,1-2.27-2.08,7.13,7.13,0,0,1,0-6.77A5.92,5.92,0,0,1,441,139.1a6.85,6.85,0,0,1,3.21-.77,5.54,5.54,0,0,1,3,.76,5.21,5.21,0,0,1,1.81,1.77l-.18.42.27-2.46h2.58v11.74h-2.79v-3.07l.33.68a3.77,3.77,0,0,1-.57.73,7.18,7.18,0,0,1-1.06.89,6.16,6.16,0,0,1-1.52.75A6.06,6.06,0,0,1,444.08,150.84Zm.75-2.18a4.75,4.75,0,0,0,1.89-.37,3.78,3.78,0,0,0,1.4-1,3.85,3.85,0,0,0,.76-1.59v-2.3a3.62,3.62,0,0,0-.84-1.49,4.3,4.3,0,0,0-1.44-1,4.77,4.77,0,0,0-1.83-.35,4.23,4.23,0,0,0-2.07.51,3.88,3.88,0,0,0-1.48,1.42,4,4,0,0,0-.56,2.12,3.88,3.88,0,0,0,.57,2.07,4.1,4.1,0,0,0,1.53,1.48A4.15,4.15,0,0,0,444.83,148.66Z"/><path class="cls-2" d="M467,150.56v-9.39h-2.16v-2.38H467v-4.94a5.74,5.74,0,0,1,1.21-3.91,4.63,4.63,0,0,1,3.62-1.36,6.49,6.49,0,0,1,1.38.17,3.58,3.58,0,0,1,1.32.57l-1.17,1.9a1.32,1.32,0,0,0-.57-.36,2.61,2.61,0,0,0-.69-.1,2.12,2.12,0,0,0-1.71.71,3.84,3.84,0,0,0-.6,2.44v4.88h3.93v2.38h-3.93v9.39Z"/><path class="cls-2" d="M481.94,150.84a7.06,7.06,0,0,1-3.17-.71,5.46,5.46,0,0,1-2.26-2.08,7.13,7.13,0,0,1,0-6.77,5.92,5.92,0,0,1,2.34-2.18,6.85,6.85,0,0,1,3.21-.77,5.51,5.51,0,0,1,3,.76,5.24,5.24,0,0,1,1.82,1.77l-.18.42.27-2.46h2.58v11.74h-2.79v-3.07l.33.68a3.77,3.77,0,0,1-.57.73,7.3,7.3,0,0,1-1.07.89,6,6,0,0,1-3.49,1.05Zm.75-2.18a4.75,4.75,0,0,0,1.89-.37,3.74,3.74,0,0,0,1.39-1,3.87,3.87,0,0,0,.77-1.59v-2.3a3.62,3.62,0,0,0-.84-1.49,4.3,4.3,0,0,0-1.44-1,4.77,4.77,0,0,0-1.83-.35,4.23,4.23,0,0,0-2.07.51,3.91,3.91,0,0,0-1.49,1.42,4,4,0,0,0-.55,2.12,3.88,3.88,0,0,0,.57,2.07,4.1,4.1,0,0,0,1.53,1.48A4.15,4.15,0,0,0,482.69,148.66Z"/><path class="cls-2" d="M496.91,138.82l.24,2.63-.15-.22a5.27,5.27,0,0,1,2-2.12,5.57,5.57,0,0,1,3-.78,4.81,4.81,0,0,1,1.83.33,3.54,3.54,0,0,1,1.33.91,2.79,2.79,0,0,1,.68,1.4l-.15.11a5.15,5.15,0,0,1,2-2,5.41,5.41,0,0,1,2.69-.73,4.08,4.08,0,0,1,2.89,1,3.49,3.49,0,0,1,1.13,2.52v8.71h-2.82v-7.75a2.68,2.68,0,0,0-.47-1.51,1.78,1.78,0,0,0-1.51-.64,3.24,3.24,0,0,0-1.94.61,4.09,4.09,0,0,0-1.32,1.59,5.21,5.21,0,0,0-.49,2.14v5.56h-2.82v-7.75a2.55,2.55,0,0,0-.5-1.51,1.87,1.87,0,0,0-1.54-.64,3.16,3.16,0,0,0-1.92.61,4.23,4.23,0,0,0-1.32,1.6,4.88,4.88,0,0,0-.48,2.16v5.53h-2.82V138.82Z"/><path class="cls-2" d="M518.93,134.56a1.32,1.32,0,0,1,.52-1.05,1.82,1.82,0,0,1,1.16-.42,1.75,1.75,0,0,1,1.14.42,1.33,1.33,0,0,1,.51,1.05,1.32,1.32,0,0,1-.51,1.07,1.79,1.79,0,0,1-1.14.41,1.87,1.87,0,0,1-1.16-.41A1.3,1.3,0,0,1,518.93,134.56Zm.18,4.26h2.82v11.74h-2.82Z"/><path class="cls-2" d="M532.79,156.4a8.66,8.66,0,0,1-2.45-.32,7.27,7.27,0,0,1-1.92-.85,16.87,16.87,0,0,1-1.66-1.19l1.65-1.81a9.2,9.2,0,0,0,2,1.33,5.29,5.29,0,0,0,2.28.48,5.65,5.65,0,0,0,2.38-.44,3.28,3.28,0,0,0,1.47-1.2,3.42,3.42,0,0,0,.53-1.79l0-3.17.24.51a4.6,4.6,0,0,1-2,2.05,6.57,6.57,0,0,1-3.42.84,6.27,6.27,0,0,1-3.12-.82,6.41,6.41,0,0,1-2.31-2.23,6.26,6.26,0,0,1,0-6.42,6.37,6.37,0,0,1,2.38-2.23,6.65,6.65,0,0,1,3.23-.81,7.09,7.09,0,0,1,3,.64,4.84,4.84,0,0,1,2,1.63l-.18.48.27-2.26h2.58v11.82a5.16,5.16,0,0,1-.86,2.89,6,6,0,0,1-2.46,2.09A8.58,8.58,0,0,1,532.79,156.4Zm-4.29-11.83a3.8,3.8,0,0,0,.58,2.07,4.18,4.18,0,0,0,1.56,1.48,4.37,4.37,0,0,0,2.15.54,4.87,4.87,0,0,0,2-.39,4.13,4.13,0,0,0,1.49-1.06,3.86,3.86,0,0,0,.84-1.5v-2.36a3.55,3.55,0,0,0-.9-1.47,4.56,4.56,0,0,0-1.5-1,4.8,4.8,0,0,0-1.92-.37,4.47,4.47,0,0,0-2.15.52,4.21,4.21,0,0,0-1.56,1.43A3.81,3.81,0,0,0,528.5,144.57Z"/><path class="cls-2" d="M544.73,128.61h2.82v21.95h-2.82Z"/><path class="cls-2" d="M552.2,134.56a1.32,1.32,0,0,1,.52-1.05,1.82,1.82,0,0,1,1.16-.42,1.75,1.75,0,0,1,1.14.42,1.33,1.33,0,0,1,.51,1.05,1.32,1.32,0,0,1-.51,1.07,1.79,1.79,0,0,1-1.14.41,1.87,1.87,0,0,1-1.16-.41A1.3,1.3,0,0,1,552.2,134.56Zm.18,4.26h2.82v11.74h-2.82Z"/><path class="cls-2" d="M565.22,150.84a7.06,7.06,0,0,1-3.17-.71,5.46,5.46,0,0,1-2.26-2.08,7.13,7.13,0,0,1,0-6.77,5.92,5.92,0,0,1,2.34-2.18,6.85,6.85,0,0,1,3.21-.77,5.51,5.51,0,0,1,3,.76,5.24,5.24,0,0,1,1.82,1.77l-.18.42.27-2.46h2.58v11.74H570v-3.07l.33.68a3.77,3.77,0,0,1-.57.73,7.3,7.3,0,0,1-1.07.89,6,6,0,0,1-3.49,1.05Zm.75-2.18a4.75,4.75,0,0,0,1.89-.37,3.74,3.74,0,0,0,1.39-1,3.87,3.87,0,0,0,.77-1.59v-2.3a3.62,3.62,0,0,0-.84-1.49,4.3,4.3,0,0,0-1.44-1,4.77,4.77,0,0,0-1.83-.35,4.23,4.23,0,0,0-2.07.51,3.91,3.91,0,0,0-1.49,1.42,4,4,0,0,0-.55,2.12,3.88,3.88,0,0,0,.57,2.07,4.1,4.1,0,0,0,1.53,1.48A4.15,4.15,0,0,0,566,148.66Z"/><path class="cls-2" d="M25.47,184.92l-6.9-12.08H21.9l4.65,9.33-1.71-.09,4.29-9.24h3.12l-6.63,12.08Z"/><path class="cls-2" d="M40.71,184.86a7.73,7.73,0,0,1-3.66-.81,5.82,5.82,0,0,1-2.37-2.21,6.13,6.13,0,0,1-.84-3.21,5.53,5.53,0,0,1,.94-3.15,7,7,0,0,1,2.51-2.27,7.12,7.12,0,0,1,3.48-.85,6.11,6.11,0,0,1,4.08,1.36,6.93,6.93,0,0,1,2.22,3.74l-10.26,3.4-.66-1.55,8.37-2.93-.57.4a3.82,3.82,0,0,0-1.2-1.61,3.33,3.33,0,0,0-2.19-.68,4,4,0,0,0-2,.51,3.67,3.67,0,0,0-1.39,1.4,4.11,4.11,0,0,0-.51,2.08,4.36,4.36,0,0,0,.52,2.13,3.71,3.71,0,0,0,1.48,1.46,4.32,4.32,0,0,0,2.14.52,4.5,4.5,0,0,0,1.58-.28,7.09,7.09,0,0,0,1.45-.74l1.26,2a8.61,8.61,0,0,1-2.08,1A7.38,7.38,0,0,1,40.71,184.86Z"/><path class="cls-2" d="M55.59,184.86a6.23,6.23,0,0,1-3.12-.78,5.79,5.79,0,0,1-2.21-2.21,6.46,6.46,0,0,1-.82-3.3,6.19,6.19,0,0,1,.87-3.35,5.77,5.77,0,0,1,2.34-2.12,7.15,7.15,0,0,1,3.3-.74,6.9,6.9,0,0,1,2.8.59,5,5,0,0,1,2.09,1.65l-.15.93v-12.9h2.79v22H60.69v-2.92l.33.74a7.17,7.17,0,0,1-2.29,1.77A7,7,0,0,1,55.59,184.86Zm.87-2.24a4.66,4.66,0,0,0,2-.39,4.21,4.21,0,0,0,1.44-1.07,3.83,3.83,0,0,0,.83-1.57v-2.24a3.53,3.53,0,0,0-.86-1.5,4.11,4.11,0,0,0-1.47-1,4.84,4.84,0,0,0-1.9-.35,4.35,4.35,0,0,0-2.07.51,4,4,0,0,0-1.53,1.41,4.14,4.14,0,0,0,0,4.19,4.31,4.31,0,0,0,1.53,1.47A4.06,4.06,0,0,0,56.46,182.62Z"/><path class="cls-2" d="M74.1,184.86a7.73,7.73,0,0,1-3.66-.81,5.82,5.82,0,0,1-2.37-2.21,6.13,6.13,0,0,1-.84-3.21,5.53,5.53,0,0,1,.94-3.15,7,7,0,0,1,2.51-2.27,7.12,7.12,0,0,1,3.48-.85,6.11,6.11,0,0,1,4.08,1.36,6.93,6.93,0,0,1,2.22,3.74l-10.26,3.4-.66-1.55,8.37-2.93-.57.4a3.82,3.82,0,0,0-1.2-1.61,3.33,3.33,0,0,0-2.19-.68,4,4,0,0,0-2,.51,3.67,3.67,0,0,0-1.39,1.4,4.11,4.11,0,0,0-.51,2.08,4.25,4.25,0,0,0,.52,2.13A3.71,3.71,0,0,0,72,182.07a4.32,4.32,0,0,0,2.14.52,4.4,4.4,0,0,0,1.57-.28,6.91,6.91,0,0,0,1.46-.74l1.26,2a8.51,8.51,0,0,1-2.09,1A7.27,7.27,0,0,1,74.1,184.86Z"/><path class="cls-2" d="M93.21,168.59a1.29,1.29,0,0,1,.52-1.05,1.83,1.83,0,0,1,1.16-.43,1.76,1.76,0,0,1,1.14.43,1.35,1.35,0,0,1,0,2.11,1.74,1.74,0,0,1-1.14.41,1.81,1.81,0,0,1-1.16-.41A1.28,1.28,0,0,1,93.21,168.59Zm.18,4.25h2.82v11.74H93.39Z"/><path class="cls-2" d="M103.59,172.84l.21,2.86-.09-.45a4.43,4.43,0,0,1,1.92-2.08,6.18,6.18,0,0,1,3.15-.78,4.16,4.16,0,0,1,2.86,1,3.28,3.28,0,0,1,1.16,2.53v8.68H110v-7.77a2.31,2.31,0,0,0-.59-1.54,2.2,2.2,0,0,0-1.72-.61,3.51,3.51,0,0,0-1.94.56,3.87,3.87,0,0,0-1.38,1.56,5.09,5.09,0,0,0-.49,2.3v5.5H101V172.84Z"/><path class="cls-2" d="M127.11,162.63h2.82v22h-2.82Z"/><path class="cls-2" d="M138.75,185a4.07,4.07,0,0,1-2.84-1,3.41,3.41,0,0,1-1.15-2.53v-8.68h2.82v7.74a2.5,2.5,0,0,0,.6,1.55,2.2,2.2,0,0,0,1.68.63,3.1,3.1,0,0,0,1.84-.58A4.18,4.18,0,0,0,143,180.6a5,5,0,0,0,.51-2.29v-5.47h2.79v11.74h-2.55l-.24-2.89.18.54a4.69,4.69,0,0,1-1.11,1.43,5.35,5.35,0,0,1-1.73,1A6.06,6.06,0,0,1,138.75,185Z"/><path class="cls-2" d="M151,168.59a1.29,1.29,0,0,1,.52-1.05,1.83,1.83,0,0,1,1.16-.43,1.76,1.76,0,0,1,1.14.43,1.35,1.35,0,0,1,0,2.11,1.74,1.74,0,0,1-1.14.41,1.81,1.81,0,0,1-1.16-.41A1.28,1.28,0,0,1,151,168.59Zm.18,4.25H154v11.74h-2.82Z"/><path class="cls-2" d="M168.27,162.63h2.82v22h-2.82Z"/><path class="cls-2" d="M181.1,184.86a6.89,6.89,0,0,1-3.16-.71,5.34,5.34,0,0,1-2.26-2.08,7.11,7.11,0,0,1,0-6.76,5.74,5.74,0,0,1,2.34-2.19,6.82,6.82,0,0,1,3.21-.76,5.53,5.53,0,0,1,3,.75,5.21,5.21,0,0,1,1.81,1.77l-.17.43.26-2.47h2.58v11.74H185.9v-3.06l.33.68a3.37,3.37,0,0,1-.56.72,7.3,7.3,0,0,1-1.07.89,5.61,5.61,0,0,1-1.51.75A6.12,6.12,0,0,1,181.1,184.86Zm.75-2.18a4.6,4.6,0,0,0,1.9-.37,3.54,3.54,0,0,0,1.39-1.05,3.68,3.68,0,0,0,.76-1.59v-2.29a3.4,3.4,0,0,0-.84-1.49,4,4,0,0,0-1.43-1,4.63,4.63,0,0,0-1.83-.36,4.21,4.21,0,0,0-2.07.51,3.91,3.91,0,0,0-1.49,1.42,4,4,0,0,0-.55,2.13,3.84,3.84,0,0,0,.57,2.07,4.19,4.19,0,0,0,3.59,2Z"/><path class="cls-2" d="M206.51,184.81a7.7,7.7,0,0,1-2.56-.44,5.16,5.16,0,0,1-2.06-1.32l1.17-1.53a6.51,6.51,0,0,0,1.62,1.06,4.13,4.13,0,0,0,2.73.21,1.68,1.68,0,0,0,.83-.48,1.25,1.25,0,0,0,.31-.88,1.21,1.21,0,0,0-.43-1,3.69,3.69,0,0,0-1.1-.59q-.66-.22-1.44-.42a5.46,5.46,0,0,1-2.34-1.33,2.9,2.9,0,0,1-.81-2.07,3.29,3.29,0,0,1,.5-1.75,3.71,3.71,0,0,1,1.48-1.33,5.07,5.07,0,0,1,2.4-.52,8.2,8.2,0,0,1,2.31.29,5.73,5.73,0,0,1,1.92,1l-1.11,1.64a3.56,3.56,0,0,0-1.27-.8,3.94,3.94,0,0,0-1.34-.27,3.22,3.22,0,0,0-1,.15,1.87,1.87,0,0,0-.75.46,1,1,0,0,0-.29.75,1.1,1.1,0,0,0,.41.95,3.62,3.62,0,0,0,1.09.58l1.35.45a7,7,0,0,1,1.62.68,3.81,3.81,0,0,1,1.16,1.05,2.68,2.68,0,0,1,.43,1.56,3.74,3.74,0,0,1-.52,1.94,3.63,3.63,0,0,1-1.59,1.42A6.16,6.16,0,0,1,206.51,184.81Z"/><path class="cls-2" d="M222.56,184.86a6.28,6.28,0,0,1-2.71-.62,4.82,4.82,0,0,1-2-1.67l.15-.83v8.48h-2.79V172.67h2.43l.39,3-.3-.85a7.15,7.15,0,0,1,2.28-1.78,6.81,6.81,0,0,1,3.09-.69,6.33,6.33,0,0,1,3.14.78,5.7,5.7,0,0,1,2.2,2.21,6.65,6.65,0,0,1,.81,3.33,6.11,6.11,0,0,1-.87,3.28,5.76,5.76,0,0,1-2.38,2.15A7.66,7.66,0,0,1,222.56,184.86Zm-.54-2.1a4.6,4.6,0,0,0,2.19-.52,4.32,4.32,0,0,0,1.61-1.45,3.63,3.63,0,0,0,.61-2.08,3.92,3.92,0,0,0-.57-2.11,4,4,0,0,0-1.51-1.45,4.3,4.3,0,0,0-2.12-.52,4.71,4.71,0,0,0-1.95.38,4,4,0,0,0-1.44,1.06,4.12,4.12,0,0,0-.81,1.62v2a3.38,3.38,0,0,0,.72,1.56,4,4,0,0,0,1.43,1.12A4.1,4.1,0,0,0,222,182.76Z"/><path class="cls-2" d="M238.79,184.86a7.73,7.73,0,0,1-3.66-.81,5.82,5.82,0,0,1-2.37-2.21,6.13,6.13,0,0,1-.84-3.21,5.54,5.54,0,0,1,1-3.15,6.93,6.93,0,0,1,2.5-2.27,7.12,7.12,0,0,1,3.48-.85,6.11,6.11,0,0,1,4.08,1.36,6.93,6.93,0,0,1,2.22,3.74l-10.26,3.4-.66-1.55,8.37-2.93-.57.4a3.82,3.82,0,0,0-1.2-1.61,3.33,3.33,0,0,0-2.19-.68,4,4,0,0,0-2,.51,3.69,3.69,0,0,0-1.4,1.4,4.11,4.11,0,0,0-.51,2.08,4.26,4.26,0,0,0,.53,2.13,3.75,3.75,0,0,0,1.47,1.46,4.32,4.32,0,0,0,2.14.52,4.5,4.5,0,0,0,1.58-.28,6.84,6.84,0,0,0,1.45-.74l1.26,2a8.44,8.44,0,0,1-2.08,1A7.33,7.33,0,0,1,238.79,184.86Z"/><path class="cls-2" d="M251.12,172.84l.27,3.4-.12-.48a5.17,5.17,0,0,1,1.38-1.81,6.88,6.88,0,0,1,1.92-1.17,5.7,5.7,0,0,1,1.74-.42l-.12,2.66a4.26,4.26,0,0,0-2.5.5,4.76,4.76,0,0,0-1.68,1.59,3.88,3.88,0,0,0-.62,2.11v5.36H248.6V172.84Z"/><path class="cls-2" d="M264.62,184.86a6.89,6.89,0,0,1-3.16-.71,5.42,5.42,0,0,1-2.27-2.08,7.11,7.11,0,0,1,0-6.76,5.87,5.87,0,0,1,2.34-2.19,6.84,6.84,0,0,1,3.21-.76,5.54,5.54,0,0,1,3,.75,5.21,5.21,0,0,1,1.81,1.77l-.18.43.27-2.47h2.58v11.74h-2.79v-3.06l.33.68a3.49,3.49,0,0,1-.57.72,7.18,7.18,0,0,1-1.06.89,5.53,5.53,0,0,1-1.52.75A6.06,6.06,0,0,1,264.62,184.86Zm.75-2.18a4.59,4.59,0,0,0,1.89-.37,3.57,3.57,0,0,0,1.4-1.05,3.79,3.79,0,0,0,.76-1.59v-2.29a3.5,3.5,0,0,0-.84-1.49,4,4,0,0,0-1.44-1,4.6,4.6,0,0,0-1.83-.36,4.23,4.23,0,0,0-2.07.51,4,4,0,0,0-1.48,1.42,4,4,0,0,0-.56,2.13,3.93,3.93,0,0,0,.57,2.07,4.22,4.22,0,0,0,3.6,2Z"/><path class="cls-2" d="M279.59,172.84l.21,2.86-.09-.45a4.43,4.43,0,0,1,1.92-2.08,6.18,6.18,0,0,1,3.15-.78,4.18,4.18,0,0,1,2.87,1,3.27,3.27,0,0,1,1.15,2.53v8.68H286v-7.77a2.3,2.3,0,0,0-.58-1.54,2.22,2.22,0,0,0-1.73-.61,3.48,3.48,0,0,0-1.93.56,3.87,3.87,0,0,0-1.38,1.56,5.09,5.09,0,0,0-.5,2.3v5.5H277V172.84Z"/><path class="cls-2" d="M294.8,175a2.36,2.36,0,0,1-1.57-.54,2,2,0,0,1-.65-1.62v-1.13h2.13v.37a.69.69,0,0,0,.23.62,1.54,1.54,0,0,0,.76.14h8l-7.44,10.09-.57-.53h7.89v2.18H292.07l7.59-10.32.48.74Z"/><path class="cls-2" d="M312.71,184.86a6.89,6.89,0,0,1-3.16-.71,5.42,5.42,0,0,1-2.27-2.08,7.11,7.11,0,0,1,0-6.76,5.87,5.87,0,0,1,2.34-2.19,6.84,6.84,0,0,1,3.21-.76,5.54,5.54,0,0,1,3,.75,5.21,5.21,0,0,1,1.81,1.77l-.18.43.27-2.47h2.58v11.74h-2.79v-3.06l.33.68a3.49,3.49,0,0,1-.57.72,7.18,7.18,0,0,1-1.06.89,5.53,5.53,0,0,1-1.52.75A6.06,6.06,0,0,1,312.71,184.86Zm.75-2.18a4.59,4.59,0,0,0,1.89-.37,3.57,3.57,0,0,0,1.4-1.05,3.79,3.79,0,0,0,.76-1.59v-2.29a3.5,3.5,0,0,0-.84-1.49,4,4,0,0,0-1.44-1,4.6,4.6,0,0,0-1.83-.36,4.23,4.23,0,0,0-2.07.51,4,4,0,0,0-1.48,1.42,4,4,0,0,0-.56,2.13,3.93,3.93,0,0,0,.57,2.07,4.22,4.22,0,0,0,3.6,2Z"/><path class="cls-2" d="M342,184.86a6.28,6.28,0,0,1-2.71-.62,4.82,4.82,0,0,1-2-1.67l.15-.83v8.48h-2.79V172.67H337l.39,3-.3-.85a7.15,7.15,0,0,1,2.28-1.78,6.81,6.81,0,0,1,3.09-.69,6.33,6.33,0,0,1,3.14.78,5.7,5.7,0,0,1,2.2,2.21,6.65,6.65,0,0,1,.81,3.33,6.11,6.11,0,0,1-.87,3.28,5.82,5.82,0,0,1-2.38,2.15A7.66,7.66,0,0,1,342,184.86Zm-.54-2.1a4.6,4.6,0,0,0,2.19-.52,4.32,4.32,0,0,0,1.61-1.45,3.63,3.63,0,0,0,.61-2.08,3.92,3.92,0,0,0-.57-2.11,4,4,0,0,0-1.51-1.45,4.3,4.3,0,0,0-2.12-.52,4.71,4.71,0,0,0-1.95.38,4,4,0,0,0-1.44,1.06,4.12,4.12,0,0,0-.81,1.62v2a3.38,3.38,0,0,0,.72,1.56,4,4,0,0,0,1.43,1.12A4.1,4.1,0,0,0,341.42,182.76Z"/><path class="cls-2" d="M358.19,184.86a7.73,7.73,0,0,1-3.66-.81,5.82,5.82,0,0,1-2.37-2.21,6.13,6.13,0,0,1-.84-3.21,5.54,5.54,0,0,1,.95-3.15,6.93,6.93,0,0,1,2.5-2.27,7.12,7.12,0,0,1,3.48-.85,6.11,6.11,0,0,1,4.08,1.36,6.93,6.93,0,0,1,2.22,3.74l-10.26,3.4-.66-1.55,8.37-2.93-.57.4a3.82,3.82,0,0,0-1.2-1.61,3.33,3.33,0,0,0-2.19-.68,3.94,3.94,0,0,0-2,.51,3.69,3.69,0,0,0-1.4,1.4,4.11,4.11,0,0,0-.51,2.08,4.26,4.26,0,0,0,.53,2.13,3.69,3.69,0,0,0,1.47,1.46,4.32,4.32,0,0,0,2.14.52,4.5,4.5,0,0,0,1.58-.28,6.84,6.84,0,0,0,1.45-.74l1.26,2a8.44,8.44,0,0,1-2.08,1A7.33,7.33,0,0,1,358.19,184.86Z"/><path class="cls-2" d="M370.52,172.84l.27,3.4-.12-.48a5.17,5.17,0,0,1,1.38-1.81,6.88,6.88,0,0,1,1.92-1.17,5.7,5.7,0,0,1,1.74-.42l-.12,2.66a4.24,4.24,0,0,0-2.5.5,4.71,4.71,0,0,0-1.69,1.59,3.87,3.87,0,0,0-.61,2.11v5.36H368V172.84Z"/><path class="cls-2" d="M392.75,185a4.07,4.07,0,0,1-2.84-1,3.41,3.41,0,0,1-1.15-2.53v-8.68h2.82v7.74a2.5,2.5,0,0,0,.6,1.55,2.2,2.2,0,0,0,1.68.63,3.1,3.1,0,0,0,1.84-.58A4.18,4.18,0,0,0,397,180.6a5,5,0,0,0,.51-2.29v-5.47h2.79v11.74h-2.55l-.24-2.89.18.54a4.69,4.69,0,0,1-1.11,1.43,5.35,5.35,0,0,1-1.73,1A6.06,6.06,0,0,1,392.75,185Z"/><path class="cls-2" d="M407.69,172.84l.21,2.86-.09-.45a4.43,4.43,0,0,1,1.92-2.08,6.18,6.18,0,0,1,3.15-.78,4.16,4.16,0,0,1,2.86,1,3.28,3.28,0,0,1,1.16,2.53v8.68h-2.82v-7.77a2.31,2.31,0,0,0-.59-1.54,2.2,2.2,0,0,0-1.72-.61,3.51,3.51,0,0,0-1.94.56,3.87,3.87,0,0,0-1.38,1.56,5.09,5.09,0,0,0-.49,2.3v5.5h-2.82V172.84Z"/><path class="cls-2" d="M432.26,184.58v-9.39H430.1v-2.38h2.16v-4.93a5.67,5.67,0,0,1,1.21-3.91,4.6,4.6,0,0,1,3.62-1.36,5.9,5.9,0,0,1,1.38.17,3.74,3.74,0,0,1,1.32.56l-1.17,1.9a1.22,1.22,0,0,0-.57-.35,2.26,2.26,0,0,0-.69-.1,2.09,2.09,0,0,0-1.71.71,3.8,3.8,0,0,0-.6,2.44v4.87H439v2.38h-3.93v9.39Z"/><path class="cls-2" d="M446.6,185a4.07,4.07,0,0,1-2.84-1,3.41,3.41,0,0,1-1.15-2.53v-8.68h2.82v7.74a2.5,2.5,0,0,0,.6,1.55,2.2,2.2,0,0,0,1.68.63,3.1,3.1,0,0,0,1.84-.58,4.18,4.18,0,0,0,1.34-1.58,5,5,0,0,0,.51-2.29v-5.47h2.79v11.74h-2.55l-.24-2.89.18.54a4.69,4.69,0,0,1-1.11,1.43,5.35,5.35,0,0,1-1.73,1A6.06,6.06,0,0,1,446.6,185Z"/><path class="cls-2" d="M460.19,167.68H463v5.22h3.39V175H463v9.61h-2.85V175h-2.25V172.9h2.25Z"/><path class="cls-2" d="M473.78,185a4.07,4.07,0,0,1-2.84-1,3.41,3.41,0,0,1-1.15-2.53v-8.68h2.82v7.74a2.5,2.5,0,0,0,.6,1.55,2.2,2.2,0,0,0,1.68.63,3.1,3.1,0,0,0,1.84-.58,4.18,4.18,0,0,0,1.34-1.58,5,5,0,0,0,.51-2.29v-5.47h2.79v11.74h-2.55l-.24-2.89.18.54a4.69,4.69,0,0,1-1.11,1.43,5.35,5.35,0,0,1-1.73,1A6.06,6.06,0,0,1,473.78,185Z"/><path class="cls-2" d="M488.69,172.84l.27,3.4-.12-.48a5.17,5.17,0,0,1,1.38-1.81,6.88,6.88,0,0,1,1.92-1.17,5.7,5.7,0,0,1,1.74-.42l-.12,2.66a4.29,4.29,0,0,0-2.51.5,4.76,4.76,0,0,0-1.68,1.59,3.87,3.87,0,0,0-.61,2.11v5.36h-2.79V172.84Z"/><path class="cls-2" d="M495.83,178.6a5.88,5.88,0,0,1,.88-3.18,6.28,6.28,0,0,1,2.46-2.24,7.63,7.63,0,0,1,3.59-.82,7.34,7.34,0,0,1,3.54.82,6.12,6.12,0,0,1,2.38,2.24,6.29,6.29,0,0,1,0,6.35A6.17,6.17,0,0,1,506.3,184a7.41,7.41,0,0,1-3.57.83,7.81,7.81,0,0,1-3.56-.78,6.06,6.06,0,0,1-2.44-2.18A6,6,0,0,1,495.83,178.6Zm2.82,0a4,4,0,0,0,.54,2.05,4.11,4.11,0,0,0,1.44,1.46,3.89,3.89,0,0,0,2,.54,3.89,3.89,0,0,0,3.49-2,4.25,4.25,0,0,0,0-4.11,4.11,4.11,0,0,0-1.42-1.48,4,4,0,0,0-2.07-.55,3.82,3.82,0,0,0-2.06.57,4.11,4.11,0,0,0-1.44,1.49A4,4,0,0,0,498.65,178.63Z"/><path class="cls-2" d="M525.29,172.84l.24,2.64-.15-.23a5.24,5.24,0,0,1,2-2.11,5.57,5.57,0,0,1,3-.78,4.81,4.81,0,0,1,1.83.33,3.52,3.52,0,0,1,1.33.9,2.83,2.83,0,0,1,.68,1.41l-.15.11a5.11,5.11,0,0,1,2-2,5.4,5.4,0,0,1,2.69-.72,4.07,4.07,0,0,1,2.89,1,3.49,3.49,0,0,1,1.13,2.52v8.71h-2.82v-7.74a2.71,2.71,0,0,0-.47-1.52,1.81,1.81,0,0,0-1.51-.64,3.31,3.31,0,0,0-1.94.61,4.09,4.09,0,0,0-1.32,1.59,5.25,5.25,0,0,0-.49,2.14v5.56h-2.82v-7.74a2.58,2.58,0,0,0-.5-1.52,1.9,1.9,0,0,0-1.54-.64,3.23,3.23,0,0,0-1.92.61A4.19,4.19,0,0,0,526,176.9a4.87,4.87,0,0,0-.48,2.15v5.53h-2.82V172.84Z"/><path class="cls-2" d="M547.31,168.59a1.29,1.29,0,0,1,.52-1.05,1.83,1.83,0,0,1,1.16-.43,1.76,1.76,0,0,1,1.14.43,1.35,1.35,0,0,1,0,2.11,1.74,1.74,0,0,1-1.14.41,1.81,1.81,0,0,1-1.16-.41A1.28,1.28,0,0,1,547.31,168.59Zm.18,4.25h2.82v11.74h-2.82Z"/><path class="cls-2" d="M561.17,190.42a8.68,8.68,0,0,1-2.45-.31,7.61,7.61,0,0,1-1.92-.85,18.71,18.71,0,0,1-1.66-1.19l1.65-1.82a8.85,8.85,0,0,0,2,1.33,5.15,5.15,0,0,0,2.28.49,5.81,5.81,0,0,0,2.38-.44,3.22,3.22,0,0,0,2-3l0-3.18.24.51a4.62,4.62,0,0,1-2,2.06,6.66,6.66,0,0,1-3.42.83,6.17,6.17,0,0,1-3.12-.82,6.41,6.41,0,0,1-2.31-2.23,5.84,5.84,0,0,1-.87-3.16,6,6,0,0,1,.9-3.26,6.43,6.43,0,0,1,2.38-2.22,6.65,6.65,0,0,1,3.23-.81,6.94,6.94,0,0,1,3,.64,4.77,4.77,0,0,1,2,1.63l-.18.48.27-2.27h2.58v11.82a5.19,5.19,0,0,1-.86,2.9,6,6,0,0,1-2.46,2.08A8.58,8.58,0,0,1,561.17,190.42Zm-4.29-11.82a3.85,3.85,0,0,0,.58,2.07,4.24,4.24,0,0,0,1.56,1.47,4.37,4.37,0,0,0,2.15.54,5,5,0,0,0,2-.38,4.15,4.15,0,0,0,1.49-1.07,3.86,3.86,0,0,0,.84-1.5v-2.35a3.59,3.59,0,0,0-.9-1.48,4.9,4.9,0,0,0-1.5-1,5,5,0,0,0-1.92-.37,4.47,4.47,0,0,0-2.15.53,4.13,4.13,0,0,0-1.56,1.43A3.76,3.76,0,0,0,556.88,178.6Z"/><path class="cls-2" d="M573.11,162.63h2.82v22h-2.82Z"/><path class="cls-2" d="M580.57,168.59a1.3,1.3,0,0,1,.53-1.05,1.83,1.83,0,0,1,1.16-.43,1.78,1.78,0,0,1,1.14.43,1.36,1.36,0,0,1,0,2.11,1.76,1.76,0,0,1-1.14.41,1.81,1.81,0,0,1-1.16-.41A1.29,1.29,0,0,1,580.57,168.59Zm.19,4.25h2.81v11.74h-2.81Z"/><path class="cls-2" d="M587.32,178.6a5.89,5.89,0,0,1,.89-3.18,6.28,6.28,0,0,1,2.46-2.24,7.59,7.59,0,0,1,3.58-.82,7.34,7.34,0,0,1,3.54.82,6.15,6.15,0,0,1,2.39,2.24,6.35,6.35,0,0,1,0,6.35,6.2,6.2,0,0,1-2.39,2.26,7.41,7.41,0,0,1-3.57.83,7.76,7.76,0,0,1-3.55-.78,6.09,6.09,0,0,1-2.45-2.18A6,6,0,0,1,587.32,178.6Zm2.82,0a4,4,0,0,0,.54,2.05,4.11,4.11,0,0,0,1.44,1.46,3.89,3.89,0,0,0,2,.54,3.94,3.94,0,0,0,2.07-.54,4,4,0,0,0,1.43-1.46,4.32,4.32,0,0,0,0-4.11,4.14,4.14,0,0,0-1.43-1.48,4,4,0,0,0-2.07-.55,3.79,3.79,0,0,0-2,.57,4.11,4.11,0,0,0-1.44,1.49A4,4,0,0,0,590.14,178.63Z"/><path class="cls-2" d="M607.27,172.84l.27,3.4-.12-.48A5.17,5.17,0,0,1,608.8,174a6.88,6.88,0,0,1,1.92-1.17,5.7,5.7,0,0,1,1.74-.42l-.12,2.66a4.26,4.26,0,0,0-2.5.5,4.76,4.76,0,0,0-1.68,1.59,3.88,3.88,0,0,0-.62,2.11v5.36h-2.79V172.84Z"/><path class="cls-2" d="M621.28,184.86a7.73,7.73,0,0,1-3.66-.81,5.82,5.82,0,0,1-2.37-2.21,6.13,6.13,0,0,1-.84-3.21,5.54,5.54,0,0,1,1-3.15,6.93,6.93,0,0,1,2.5-2.27,7.12,7.12,0,0,1,3.48-.85,6.11,6.11,0,0,1,4.08,1.36,6.93,6.93,0,0,1,2.22,3.74l-10.26,3.4-.66-1.55,8.37-2.93-.57.4a3.82,3.82,0,0,0-1.2-1.61,3.33,3.33,0,0,0-2.19-.68,4,4,0,0,0-2,.51,3.69,3.69,0,0,0-1.4,1.4,4.11,4.11,0,0,0-.51,2.08,4.26,4.26,0,0,0,.53,2.13,3.75,3.75,0,0,0,1.47,1.46,4.32,4.32,0,0,0,2.14.52,4.5,4.5,0,0,0,1.58-.28,6.84,6.84,0,0,0,1.45-.74l1.26,2a8.44,8.44,0,0,1-2.08,1A7.33,7.33,0,0,1,621.28,184.86Z"/><path class="cls-2" d="M630.21,182a1.58,1.58,0,0,1,1.09-.45,1.54,1.54,0,0,1,1,.45,1.4,1.4,0,0,1,.49,1.08,1.35,1.35,0,0,1-.49,1.09,1.63,1.63,0,0,1-1,.41,1.68,1.68,0,0,1-1.09-.41,1.36,1.36,0,0,1-.5-1.09A1.41,1.41,0,0,1,630.21,182Z"/></g></g></svg>