<svg xmlns="http://www.w3.org/2000/svg" viewBox="0 0 672 224.35"><defs><style>.cls-1{fill:#fff;}.cls-2{fill:#846b4a;}</style></defs><title>ahmed testo 11</title><g id="Livello_2" data-name="Livello 2"><g id="testi"><rect class="cls-1" width="672" height="224.35" rx="21.32"/><path class="cls-2" d="M21.63,51.48V31h5.91a14.38,14.38,0,0,1,5.49.93,9.56,9.56,0,0,1,5.67,5.85,11.43,11.43,0,0,1,.63,3.71,9.63,9.63,0,0,1-.86,4.17,9.25,9.25,0,0,1-2.33,3.15,10.55,10.55,0,0,1-3.42,2,12.13,12.13,0,0,1-4.1.69Zm2.91-2.63h3.51a10.31,10.31,0,0,0,3.29-.51A8,8,0,0,0,34,46.86a6.63,6.63,0,0,0,1.76-2.37,7.73,7.73,0,0,0,.63-3.21A7.85,7.85,0,0,0,35.7,38a6.83,6.83,0,0,0-1.8-2.39,7.84,7.84,0,0,0-2.58-1.46,9.17,9.17,0,0,0-3-.5H24.54Z"/><path class="cls-2" d="M42.42,45.5a5.93,5.93,0,0,1,.88-3.17,6.2,6.2,0,0,1,2.46-2.24,7.63,7.63,0,0,1,3.59-.83,7.35,7.35,0,0,1,3.54.83,5.91,5.91,0,0,1,2.38,2.24,6,6,0,0,1,.86,3.17,6.07,6.07,0,0,1-.86,3.18,6.15,6.15,0,0,1-2.38,2.25,7.3,7.3,0,0,1-3.57.84A7.83,7.83,0,0,1,45.76,51a6.09,6.09,0,0,1-2.44-2.19A6,6,0,0,1,42.42,45.5Zm2.82,0a4,4,0,0,0,.54,2.06,4.11,4.11,0,0,0,1.44,1.46,4,4,0,0,0,2,.53,4,4,0,0,0,2.07-.53,4.08,4.08,0,0,0,1.43-1.46A4.14,4.14,0,0,0,51.33,42a4.1,4.1,0,0,0-4.12,0,4.14,4.14,0,0,0-1.45,1.49A4,4,0,0,0,45.24,45.53Z"/><path class="cls-2" d="M67.2,51.77a6.19,6.19,0,0,1-2.72-.63,4.72,4.72,0,0,1-2-1.67l.15-.82v8.48H59.85V39.58h2.43l.39,3-.3-.85A7,7,0,0,1,64.65,40a6.69,6.69,0,0,1,3.09-.7,6.29,6.29,0,0,1,3.13.78,5.72,5.72,0,0,1,2.21,2.21,6.69,6.69,0,0,1,.81,3.34A6.08,6.08,0,0,1,73,48.86,5.74,5.74,0,0,1,70.63,51,7.62,7.62,0,0,1,67.2,51.77Zm-.54-2.1a4.6,4.6,0,0,0,2.19-.53,4.27,4.27,0,0,0,1.6-1.44,3.69,3.69,0,0,0,.62-2.09,4,4,0,0,0-.57-2.11A4.12,4.12,0,0,0,69,42.06a4.26,4.26,0,0,0-2.11-.53,4.88,4.88,0,0,0-2,.38A3.89,3.89,0,0,0,63.48,43a4,4,0,0,0-.81,1.61v2a3.38,3.38,0,0,0,.72,1.56,4.14,4.14,0,0,0,1.42,1.12A4.28,4.28,0,0,0,66.66,49.67Z"/><path class="cls-2" d="M76.56,45.5a5.84,5.84,0,0,1,.88-3.17,6.13,6.13,0,0,1,2.46-2.24,7.63,7.63,0,0,1,3.59-.83,7.35,7.35,0,0,1,3.54.83,6,6,0,0,1,3.24,5.41,6.07,6.07,0,0,1-.86,3.18A6.22,6.22,0,0,1,87,50.93a7.3,7.3,0,0,1-3.57.84A7.81,7.81,0,0,1,79.9,51a6.09,6.09,0,0,1-2.44-2.19A6,6,0,0,1,76.56,45.5Zm2.82,0a4,4,0,0,0,.54,2.06,4.11,4.11,0,0,0,1.44,1.46,4,4,0,0,0,2,.53,4,4,0,0,0,2.07-.53,4,4,0,0,0,1.42-1.46A4.15,4.15,0,0,0,85.47,42a3.86,3.86,0,0,0-2.07-.55,3.91,3.91,0,0,0-2.06.56A4.19,4.19,0,0,0,79.9,43.5,4,4,0,0,0,79.38,45.53Z"/><path class="cls-2" d="M108.54,51.77a6.23,6.23,0,0,1-3.12-.78,5.86,5.86,0,0,1-2.21-2.21,6.53,6.53,0,0,1-.82-3.31,6.15,6.15,0,0,1,.87-3.34A5.72,5.72,0,0,1,105.6,40a7.28,7.28,0,0,1,3.3-.74,6.74,6.74,0,0,1,2.8.6,5,5,0,0,1,2.09,1.64l-.15.94V29.54h2.79V51.48h-2.79V48.56l.33.74a7,7,0,0,1-2.3,1.77A6.83,6.83,0,0,1,108.54,51.77Zm.87-2.24a4.52,4.52,0,0,0,2-.4,4.28,4.28,0,0,0,1.44-1.06,3.87,3.87,0,0,0,.83-1.58V44.25a3.65,3.65,0,0,0-.86-1.5,4.34,4.34,0,0,0-1.47-1,5,5,0,0,0-1.9-.35,4.35,4.35,0,0,0-2.07.51,4,4,0,0,0-1.53,1.42,4.12,4.12,0,0,0,0,4.18A4.23,4.23,0,0,0,107.34,49,4.07,4.07,0,0,0,109.41,49.53Z"/><path class="cls-2" d="M125.25,51.94a4.12,4.12,0,0,1-2.84-1,3.43,3.43,0,0,1-1.15-2.54V39.75h2.82v7.74a2.5,2.5,0,0,0,.6,1.54,2.2,2.2,0,0,0,1.68.64,3.1,3.1,0,0,0,1.84-.58,4.29,4.29,0,0,0,1.34-1.59,5,5,0,0,0,.51-2.28V39.75h2.79V51.48h-2.55l-.24-2.89.18.54a4.57,4.57,0,0,1-1.11,1.43,5.37,5.37,0,0,1-1.73,1A6.29,6.29,0,0,1,125.25,51.94Z"/><path class="cls-2" d="M143.43,51.77a7.73,7.73,0,0,1-3.66-.81,6,6,0,0,1-2.37-2.21,6.16,6.16,0,0,1-.84-3.22,5.57,5.57,0,0,1,.94-3.15A7.05,7.05,0,0,1,140,40.11a7.23,7.23,0,0,1,3.48-.85,6.16,6.16,0,0,1,4.08,1.36,7,7,0,0,1,2.22,3.75l-10.26,3.4-.66-1.56,8.37-2.92-.57.4a3.79,3.79,0,0,0-1.2-1.62,3.39,3.39,0,0,0-2.19-.68,4,4,0,0,0-2,.51,3.74,3.74,0,0,0-1.39,1.4,4.15,4.15,0,0,0-.51,2.09,4.24,4.24,0,0,0,.52,2.12A3.69,3.69,0,0,0,141.34,49a4.36,4.36,0,0,0,2.15.53,4.68,4.68,0,0,0,1.57-.28,7.42,7.42,0,0,0,1.46-.74l1.26,2a8.92,8.92,0,0,1-2.09,1A7.57,7.57,0,0,1,143.43,51.77Z"/><path class="cls-2" d="M167.91,51.77a7.06,7.06,0,0,1-3.17-.71A5.42,5.42,0,0,1,162.48,49a6.3,6.3,0,0,1-.84-3.36,6.39,6.39,0,0,1,.87-3.4A5.92,5.92,0,0,1,164.85,40a6.85,6.85,0,0,1,3.21-.77A5.5,5.5,0,0,1,171,40a5.36,5.36,0,0,1,1.82,1.78l-.18.42.27-2.46h2.58V51.48h-2.79V48.42l.33.68a3.49,3.49,0,0,1-.57.72,6.74,6.74,0,0,1-1.07.9,6,6,0,0,1-3.49,1.05Zm.75-2.19a4.75,4.75,0,0,0,1.89-.36,3.74,3.74,0,0,0,1.39-1,3.93,3.93,0,0,0,.77-1.59v-2.3a3.56,3.56,0,0,0-.84-1.49,4.3,4.3,0,0,0-1.44-1,4.59,4.59,0,0,0-1.83-.35,4.23,4.23,0,0,0-2.07.51A4,4,0,0,0,165,43.37a4,4,0,0,0-.55,2.13,3.88,3.88,0,0,0,.57,2.07,4.18,4.18,0,0,0,1.53,1.48A4.25,4.25,0,0,0,168.66,49.58Z"/><path class="cls-2" d="M182.88,39.75l.21,2.86-.09-.45a4.45,4.45,0,0,1,1.92-2.09,6.18,6.18,0,0,1,3.15-.78,4.21,4.21,0,0,1,2.86,1,3.3,3.3,0,0,1,1.16,2.54v8.67h-2.82V43.71a2.33,2.33,0,0,0-.59-1.54,2.2,2.2,0,0,0-1.72-.61,3.52,3.52,0,0,0-1.94.57,3.87,3.87,0,0,0-1.38,1.56,5,5,0,0,0-.49,2.29v5.5h-2.82V39.75Z"/><path class="cls-2" d="M199.47,39.75l.21,2.86-.09-.45a4.45,4.45,0,0,1,1.92-2.09,6.18,6.18,0,0,1,3.15-.78,4.21,4.21,0,0,1,2.86,1,3.3,3.3,0,0,1,1.16,2.54v8.67h-2.82V43.71a2.33,2.33,0,0,0-.59-1.54,2.2,2.2,0,0,0-1.72-.61,3.52,3.52,0,0,0-1.94.57,3.87,3.87,0,0,0-1.38,1.56,5,5,0,0,0-.49,2.29v5.5h-2.82V39.75Z"/><path class="cls-2" d="M213.33,35.49a1.32,1.32,0,0,1,.52-1.05A1.82,1.82,0,0,1,215,34a1.75,1.75,0,0,1,1.14.42,1.33,1.33,0,0,1,.51,1.05,1.32,1.32,0,0,1-.51,1.07A1.79,1.79,0,0,1,215,37a1.87,1.87,0,0,1-1.16-.41A1.3,1.3,0,0,1,213.33,35.49Zm.18,4.26h2.82V51.48h-2.82Z"/><path class="cls-2" d="M235.71,51.77a6.23,6.23,0,0,1-3.12-.78,5.86,5.86,0,0,1-2.21-2.21,6.53,6.53,0,0,1-.82-3.31,6.07,6.07,0,0,1,.87-3.34A5.72,5.72,0,0,1,232.77,40a7.25,7.25,0,0,1,3.3-.74,6.74,6.74,0,0,1,2.8.6A5,5,0,0,1,241,41.5l-.15.94V29.54h2.79V51.48h-2.79V48.56l.33.74a7,7,0,0,1-2.3,1.77A6.83,6.83,0,0,1,235.71,51.77Zm.87-2.24a4.52,4.52,0,0,0,2-.4A4.28,4.28,0,0,0,240,48.07a3.87,3.87,0,0,0,.83-1.58V44.25a3.65,3.65,0,0,0-.86-1.5,4.34,4.34,0,0,0-1.47-1,5,5,0,0,0-1.9-.35,4.35,4.35,0,0,0-2.07.51A4,4,0,0,0,233,43.32a4.12,4.12,0,0,0,0,4.18A4.23,4.23,0,0,0,234.51,49,4.07,4.07,0,0,0,236.58,49.53Z"/><path class="cls-2" d="M248.25,35.49a1.32,1.32,0,0,1,.52-1.05,1.82,1.82,0,0,1,1.16-.42,1.77,1.77,0,0,1,1.14.42,1.33,1.33,0,0,1,.51,1.05,1.32,1.32,0,0,1-.51,1.07,1.81,1.81,0,0,1-1.14.41,1.87,1.87,0,0,1-1.16-.41A1.3,1.3,0,0,1,248.25,35.49Zm.18,4.26h2.82V51.48h-2.82Z"/><path class="cls-2" d="M269.06,51.71a7.7,7.7,0,0,1-2.56-.44A5,5,0,0,1,264.44,50l1.17-1.53a6.24,6.24,0,0,0,1.62,1.06,4,4,0,0,0,1.62.36A4.32,4.32,0,0,0,270,49.7a1.84,1.84,0,0,0,.83-.48,1.25,1.25,0,0,0,.31-.88,1.23,1.23,0,0,0-.43-1,3.46,3.46,0,0,0-1.1-.58c-.44-.15-.92-.29-1.43-.43A5.35,5.35,0,0,1,265.79,45a2.9,2.9,0,0,1-.81-2.07,3.28,3.28,0,0,1,.5-1.74A3.73,3.73,0,0,1,267,39.84a5.07,5.07,0,0,1,2.4-.52,8.31,8.31,0,0,1,2.32.3,5.75,5.75,0,0,1,1.91,1l-1.11,1.65a3.45,3.45,0,0,0-1.27-.81,3.94,3.94,0,0,0-1.34-.27,3,3,0,0,0-1,.16,1.75,1.75,0,0,0-.75.45,1.05,1.05,0,0,0-.29.75,1.08,1.08,0,0,0,.41,1,3.41,3.41,0,0,0,1.09.58c.44.16.89.31,1.35.46a6.57,6.57,0,0,1,1.62.68,3.57,3.57,0,0,1,1.16,1.05,2.64,2.64,0,0,1,.43,1.56,3.76,3.76,0,0,1-.52,1.94,3.69,3.69,0,0,1-1.59,1.42A6.16,6.16,0,0,1,269.06,51.71Z"/><path class="cls-2" d="M283,51.77a7,7,0,0,1-3.16-.71A5.44,5.44,0,0,1,277.52,49a6.3,6.3,0,0,1-.84-3.36,6.39,6.39,0,0,1,.87-3.4A5.92,5.92,0,0,1,279.89,40a6.85,6.85,0,0,1,3.21-.77,5.54,5.54,0,0,1,3,.75,5.32,5.32,0,0,1,1.81,1.78l-.18.42.27-2.46h2.58V51.48h-2.79V48.42l.33.68a3.49,3.49,0,0,1-.57.72,6.63,6.63,0,0,1-1.06.9,6.16,6.16,0,0,1-1.52.75A6.06,6.06,0,0,1,283,51.77Zm.75-2.19a4.75,4.75,0,0,0,1.89-.36,3.78,3.78,0,0,0,1.4-1,3.91,3.91,0,0,0,.76-1.59v-2.3a3.56,3.56,0,0,0-.84-1.49,4.3,4.3,0,0,0-1.44-1,4.59,4.59,0,0,0-1.83-.35,4.23,4.23,0,0,0-2.07.51,3.93,3.93,0,0,0-1.48,1.41,4,4,0,0,0-.56,2.13,3.88,3.88,0,0,0,.57,2.07,4.18,4.18,0,0,0,1.53,1.48A4.25,4.25,0,0,0,283.7,49.58Z"/><path class="cls-2" d="M305.48,50.38a6.55,6.55,0,0,1-2,1,8.15,8.15,0,0,1-5.89-.4,5.88,5.88,0,0,1-2.42-2.15,6,6,0,0,1-.87-3.26,5.67,5.67,0,0,1,.93-3.25,6.29,6.29,0,0,1,2.42-2.13,7,7,0,0,1,3.22-.75,8.81,8.81,0,0,1,2.66.38,6.21,6.21,0,0,1,2.05,1.1l-1.41,1.7a6.22,6.22,0,0,0-1.3-.7,4.75,4.75,0,0,0-1.76-.32,4,4,0,0,0-2,.52,3.85,3.85,0,0,0-1.44,1.42,4.08,4.08,0,0,0,0,4,4,4,0,0,0,1.5,1.45,4.55,4.55,0,0,0,2.22.53,4.6,4.6,0,0,0,1.46-.22,4.22,4.22,0,0,0,1.21-.63Z"/><path class="cls-2" d="M311.57,39.75l.27,3.4-.12-.48a5.21,5.21,0,0,1,1.38-1.82A6.61,6.61,0,0,1,315,39.69a5.47,5.47,0,0,1,1.74-.43l-.12,2.67a4.26,4.26,0,0,0-2.5.49A4.76,4.76,0,0,0,312.46,44a3.9,3.9,0,0,0-.62,2.11v5.36h-2.79V39.75Z"/><path class="cls-2" d="M320.15,35.49a1.33,1.33,0,0,1,.53-1.05,1.79,1.79,0,0,1,1.15-.42,1.75,1.75,0,0,1,1.14.42,1.33,1.33,0,0,1,.51,1.05,1.32,1.32,0,0,1-.51,1.07,1.79,1.79,0,0,1-1.14.41,1.84,1.84,0,0,1-1.15-.41A1.31,1.31,0,0,1,320.15,35.49Zm.18,4.26h2.82V51.48h-2.82Z"/><path class="cls-2" d="M329,51.48V42.1h-2.16V39.72H329V34.78a5.69,5.69,0,0,1,1.22-3.91,4.58,4.58,0,0,1,3.61-1.36,6.49,6.49,0,0,1,1.38.17,3.58,3.58,0,0,1,1.32.57l-1.17,1.9a1.32,1.32,0,0,0-.57-.36,2.61,2.61,0,0,0-.69-.1,2.12,2.12,0,0,0-1.71.71,3.82,3.82,0,0,0-.6,2.44v4.88h3.57V42.1h-3.57v9.38Zm8.55-16a1.35,1.35,0,0,1,.53-1.08,1.76,1.76,0,0,1,1.12-.42,1.67,1.67,0,0,1,1.16.44,1.36,1.36,0,0,1,.49,1.06,1.3,1.3,0,0,1-.49,1.06,1.73,1.73,0,0,1-1.16.41,1.76,1.76,0,0,1-1.12-.42A1.3,1.3,0,0,1,337.58,35.52Zm.18,4.23h2.82V51.48h-2.82Z"/><path class="cls-2" d="M355.49,50.38a6.55,6.55,0,0,1-2,1,8.15,8.15,0,0,1-5.89-.4,5.88,5.88,0,0,1-2.42-2.15,6,6,0,0,1-.87-3.26,5.67,5.67,0,0,1,.93-3.25,6.29,6.29,0,0,1,2.42-2.13,7,7,0,0,1,3.22-.75,8.81,8.81,0,0,1,2.66.38,6.21,6.21,0,0,1,2.05,1.1l-1.41,1.7a6.22,6.22,0,0,0-1.3-.7,4.75,4.75,0,0,0-1.76-.32,4,4,0,0,0-2,.52,3.85,3.85,0,0,0-1.44,1.42,4.08,4.08,0,0,0,0,4,4,4,0,0,0,1.5,1.45,4.55,4.55,0,0,0,2.22.53,4.6,4.6,0,0,0,1.46-.22,4.22,4.22,0,0,0,1.21-.63Z"/><path class="cls-2" d="M358.88,35.49a1.33,1.33,0,0,1,.53-1.05,1.79,1.79,0,0,1,1.15-.42,1.75,1.75,0,0,1,1.14.42,1.33,1.33,0,0,1,.51,1.05,1.32,1.32,0,0,1-.51,1.07,1.79,1.79,0,0,1-1.14.41,1.84,1.84,0,0,1-1.15-.41A1.31,1.31,0,0,1,358.88,35.49Zm.18,4.26h2.82V51.48h-2.82Z"/><path class="cls-2" d="M369.29,49,368,52c-.43,1-.87,2-1.31,3h-2.31c.42-1,.82-2,1.2-3s.76-2,1.14-3Z"/><path class="cls-2" d="M380.84,51.48l9.45-21.35h.18L400,51.48h-3.33l-7.08-17,2.07-1.27-7.89,18.31Zm5.55-7.77h8.07l1,2.39h-9.87Z"/><path class="cls-2" d="M403.31,51.48V29.54h2.76V42.47L406,42a5,5,0,0,1,1.93-1.93,6.05,6.05,0,0,1,3.11-.77,4.21,4.21,0,0,1,2.86,1,3.3,3.3,0,0,1,1.16,2.54v8.67h-2.82V43.71a2.33,2.33,0,0,0-.59-1.54,2.2,2.2,0,0,0-1.72-.61,3.45,3.45,0,0,0-1.94.58,4,4,0,0,0-1.38,1.57,5,5,0,0,0-.49,2.27v5.5Z"/><path class="cls-2" d="M422.45,39.75l.24,2.63-.15-.22a5.27,5.27,0,0,1,2-2.12,5.57,5.57,0,0,1,3-.78,4.81,4.81,0,0,1,1.83.33,3.54,3.54,0,0,1,1.33.91,2.75,2.75,0,0,1,.68,1.4l-.15.11a5.09,5.09,0,0,1,2-2,5.31,5.31,0,0,1,2.69-.73,4,4,0,0,1,2.89,1,3.49,3.49,0,0,1,1.13,2.52v8.7H437V43.74a2.68,2.68,0,0,0-.47-1.51,1.78,1.78,0,0,0-1.51-.64,3.24,3.24,0,0,0-1.94.61,4,4,0,0,0-1.32,1.59,5.21,5.21,0,0,0-.49,2.14v5.55h-2.82V43.74a2.55,2.55,0,0,0-.5-1.51,1.87,1.87,0,0,0-1.54-.64,3.16,3.16,0,0,0-1.92.61,4.16,4.16,0,0,0-1.32,1.6,4.87,4.87,0,0,0-.48,2.15v5.53H419.9V39.75Z"/><path class="cls-2" d="M450.44,51.77a7.73,7.73,0,0,1-3.66-.81,6,6,0,0,1-2.37-2.21,6.16,6.16,0,0,1-.84-3.22,5.57,5.57,0,0,1,.94-3.15A7.05,7.05,0,0,1,447,40.11a7.23,7.23,0,0,1,3.48-.85,6.16,6.16,0,0,1,4.08,1.36,7,7,0,0,1,2.22,3.75l-10.26,3.4-.66-1.56,8.37-2.92-.57.4a3.79,3.79,0,0,0-1.2-1.62,3.39,3.39,0,0,0-2.19-.68,4,4,0,0,0-2,.51,3.74,3.74,0,0,0-1.39,1.4,4.15,4.15,0,0,0-.51,2.09,4.24,4.24,0,0,0,.52,2.12A3.69,3.69,0,0,0,448.35,49a4.36,4.36,0,0,0,2.15.53,4.68,4.68,0,0,0,1.57-.28,7.42,7.42,0,0,0,1.46-.74l1.26,2a8.92,8.92,0,0,1-2.09,1A7.57,7.57,0,0,1,450.44,51.77Z"/><path class="cls-2" d="M465.32,51.77A6.23,6.23,0,0,1,462.2,51,5.86,5.86,0,0,1,460,48.78a6.53,6.53,0,0,1-.82-3.31,6.15,6.15,0,0,1,.87-3.34A5.72,5.72,0,0,1,462.38,40a7.28,7.28,0,0,1,3.3-.74,6.74,6.74,0,0,1,2.8.6,5,5,0,0,1,2.09,1.64l-.15.94V29.54h2.79V51.48h-2.79V48.56l.33.74a7,7,0,0,1-2.3,1.77A6.83,6.83,0,0,1,465.32,51.77Zm.87-2.24a4.52,4.52,0,0,0,2-.4,4.28,4.28,0,0,0,1.44-1.06,3.87,3.87,0,0,0,.83-1.58V44.25a3.65,3.65,0,0,0-.86-1.5,4.34,4.34,0,0,0-1.47-1,5,5,0,0,0-1.9-.35,4.35,4.35,0,0,0-2.07.51,4,4,0,0,0-1.53,1.42,4.12,4.12,0,0,0,0,4.18A4.23,4.23,0,0,0,464.12,49,4.07,4.07,0,0,0,466.19,49.53Z"/><path class="cls-2" d="M491,51.71a7.76,7.76,0,0,1-2.57-.44,4.92,4.92,0,0,1-2-1.32l1.17-1.53a6.24,6.24,0,0,0,1.62,1.06,4,4,0,0,0,1.62.36,4.32,4.32,0,0,0,1.11-.14,1.81,1.81,0,0,0,.82-.48,1.25,1.25,0,0,0,.32-.88,1.23,1.23,0,0,0-.44-1,3.41,3.41,0,0,0-1.09-.58c-.44-.15-.92-.29-1.44-.43A5.36,5.36,0,0,1,487.76,45a2.9,2.9,0,0,1-.81-2.07,3.27,3.27,0,0,1,.49-1.74,3.76,3.76,0,0,1,1.49-1.34,5.07,5.07,0,0,1,2.4-.52,8.19,8.19,0,0,1,2.31.3,5.7,5.7,0,0,1,1.92,1l-1.11,1.65a3.49,3.49,0,0,0-1.28-.81,3.89,3.89,0,0,0-1.33-.27,3,3,0,0,0-1,.16,1.75,1.75,0,0,0-.75.45,1,1,0,0,0-.28.75,1.07,1.07,0,0,0,.4,1,3.46,3.46,0,0,0,1.1.58c.44.16.89.31,1.35.46a6.57,6.57,0,0,1,1.62.68,3.53,3.53,0,0,1,1.15,1.05,2.64,2.64,0,0,1,.44,1.56,3.77,3.77,0,0,1-.53,1.94,3.69,3.69,0,0,1-1.59,1.42A6.12,6.12,0,0,1,491,51.71Z"/><path class="cls-2" d="M503.72,51.94a4.12,4.12,0,0,1-2.84-1,3.43,3.43,0,0,1-1.15-2.54V39.75h2.82v7.74a2.5,2.5,0,0,0,.6,1.54,2.2,2.2,0,0,0,1.68.64,3.1,3.1,0,0,0,1.84-.58A4.29,4.29,0,0,0,508,47.5a5,5,0,0,0,.51-2.28V39.75h2.79V51.48h-2.55l-.24-2.89.18.54a4.57,4.57,0,0,1-1.11,1.43,5.37,5.37,0,0,1-1.73,1A6.29,6.29,0,0,1,503.72,51.94Z"/><path class="cls-2" d="M523.46,51.77a6.19,6.19,0,0,1-2.72-.63,4.72,4.72,0,0,1-2-1.67l.15-.82v8.48h-2.79V39.58h2.43l.39,3-.3-.85A7,7,0,0,1,520.91,40a6.69,6.69,0,0,1,3.09-.7,6.29,6.29,0,0,1,3.13.78,5.72,5.72,0,0,1,2.21,2.21,6.69,6.69,0,0,1,.81,3.34,6.08,6.08,0,0,1-.87,3.27A5.74,5.74,0,0,1,526.89,51,7.62,7.62,0,0,1,523.46,51.77Zm-.54-2.1a4.6,4.6,0,0,0,2.19-.53,4.27,4.27,0,0,0,1.6-1.44,3.69,3.69,0,0,0,.62-2.09,4,4,0,0,0-.57-2.11,4.12,4.12,0,0,0-1.52-1.44,4.26,4.26,0,0,0-2.11-.53,4.88,4.88,0,0,0-2,.38A3.89,3.89,0,0,0,519.74,43a4,4,0,0,0-.81,1.61v2a3.38,3.38,0,0,0,.72,1.56,4.14,4.14,0,0,0,1.42,1.12A4.28,4.28,0,0,0,522.92,49.67Z"/><path class="cls-2" d="M539.69,51.77A7.73,7.73,0,0,1,536,51a6,6,0,0,1-2.37-2.21,6.16,6.16,0,0,1-.84-3.22,5.57,5.57,0,0,1,.94-3.15,7.05,7.05,0,0,1,2.51-2.27,7.23,7.23,0,0,1,3.48-.85,6.16,6.16,0,0,1,4.08,1.36,7,7,0,0,1,2.22,3.75l-10.26,3.4-.66-1.56,8.37-2.92-.57.4a3.79,3.79,0,0,0-1.2-1.62,3.39,3.39,0,0,0-2.19-.68,4,4,0,0,0-2,.51,3.74,3.74,0,0,0-1.39,1.4,4.15,4.15,0,0,0-.51,2.09,4.24,4.24,0,0,0,.52,2.12A3.69,3.69,0,0,0,537.6,49a4.36,4.36,0,0,0,2.15.53,4.68,4.68,0,0,0,1.57-.28,7.42,7.42,0,0,0,1.46-.74l1.26,2a8.92,8.92,0,0,1-2.09,1A7.57,7.57,0,0,1,539.69,51.77Z"/><path class="cls-2" d="M552,39.75l.27,3.4-.12-.48a5.21,5.21,0,0,1,1.38-1.82,6.61,6.61,0,0,1,1.92-1.16,5.47,5.47,0,0,1,1.74-.43l-.12,2.67a4.29,4.29,0,0,0-2.51.49A4.76,4.76,0,0,0,552.9,44a3.89,3.89,0,0,0-.61,2.11v5.36H549.5V39.75Z"/><path class="cls-2" d="M565.52,51.77a7.06,7.06,0,0,1-3.17-.71A5.42,5.42,0,0,1,560.09,49a6.3,6.3,0,0,1-.84-3.36,6.39,6.39,0,0,1,.87-3.4A5.92,5.92,0,0,1,562.46,40a6.85,6.85,0,0,1,3.21-.77,5.5,5.5,0,0,1,3,.75,5.36,5.36,0,0,1,1.82,1.78l-.18.42.27-2.46h2.58V51.48h-2.79V48.42l.33.68a3.49,3.49,0,0,1-.57.72,6.74,6.74,0,0,1-1.07.9,6,6,0,0,1-3.49,1.05Zm.75-2.19a4.75,4.75,0,0,0,1.89-.36,3.74,3.74,0,0,0,1.39-1,3.93,3.93,0,0,0,.77-1.59v-2.3a3.56,3.56,0,0,0-.84-1.49,4.3,4.3,0,0,0-1.44-1,4.59,4.59,0,0,0-1.83-.35,4.23,4.23,0,0,0-2.07.51,4,4,0,0,0-1.49,1.41,4,4,0,0,0-.55,2.13,3.88,3.88,0,0,0,.57,2.07,4.18,4.18,0,0,0,1.53,1.48A4.25,4.25,0,0,0,566.27,49.58Z"/><path class="cls-2" d="M20.91,63.56h2.82v22H20.91Z"/><path class="cls-2" d="M30,64.84l-.06,3.56c0,1.18,0,2.37-.06,3.58H27.45V64.84Z"/><path class="cls-2" d="M39.27,85.79A7.73,7.73,0,0,1,35.61,85a5.89,5.89,0,0,1-2.37-2.21,6.14,6.14,0,0,1-.84-3.22,5.52,5.52,0,0,1,.94-3.14,6.87,6.87,0,0,1,2.51-2.27,7.12,7.12,0,0,1,3.48-.85,6.11,6.11,0,0,1,4.08,1.36,6.93,6.93,0,0,1,2.22,3.74l-10.26,3.4-.66-1.56,8.37-2.92-.57.4a3.91,3.91,0,0,0-1.2-1.62,3.39,3.39,0,0,0-2.19-.68,4,4,0,0,0-2,.51,3.69,3.69,0,0,0-1.39,1.41,4.11,4.11,0,0,0-.51,2.08,4.28,4.28,0,0,0,.52,2.13A3.75,3.75,0,0,0,37.18,83a4.36,4.36,0,0,0,2.15.52,4.44,4.44,0,0,0,1.57-.28,7.42,7.42,0,0,0,1.46-.74l1.26,2a8.51,8.51,0,0,1-2.09,1A7.27,7.27,0,0,1,39.27,85.79Z"/><path class="cls-2" d="M52.59,85.73A7.51,7.51,0,0,1,50,85.29,5,5,0,0,1,48,84l1.17-1.53a6.51,6.51,0,0,0,1.62,1.06,4.13,4.13,0,0,0,2.73.21,1.65,1.65,0,0,0,.82-.48,1.38,1.38,0,0,0-.12-1.89,3.62,3.62,0,0,0-1.09-.58q-.66-.22-1.44-.42A5.37,5.37,0,0,1,49.32,79,2.86,2.86,0,0,1,48.51,77,3.28,3.28,0,0,1,49,75.2a3.74,3.74,0,0,1,1.49-1.33,5.06,5.06,0,0,1,2.4-.53,8.19,8.19,0,0,1,2.31.3,5.73,5.73,0,0,1,1.92,1L56,76.29a3.49,3.49,0,0,0-1.28-.81,4.1,4.1,0,0,0-1.33-.26,3.29,3.29,0,0,0-1,.15,2,2,0,0,0-.75.45,1.05,1.05,0,0,0-.28.76,1.09,1.09,0,0,0,.4,1,3.68,3.68,0,0,0,1.1.58l1.35.45a7,7,0,0,1,1.62.68A3.77,3.77,0,0,1,57,80.29a2.68,2.68,0,0,1,.44,1.56,3.75,3.75,0,0,1-.53,1.94,3.63,3.63,0,0,1-1.59,1.42A6.12,6.12,0,0,1,52.59,85.73Z"/><path class="cls-2" d="M66.48,85.79a7.06,7.06,0,0,1-3.17-.71A5.39,5.39,0,0,1,61.05,83a7.11,7.11,0,0,1,0-6.76,5.87,5.87,0,0,1,2.34-2.19,6.84,6.84,0,0,1,3.21-.76,5.5,5.5,0,0,1,3,.75,5.24,5.24,0,0,1,1.82,1.77l-.18.43.27-2.47h2.58V85.51H71.28V82.45l.33.68a3.49,3.49,0,0,1-.57.72,7.3,7.3,0,0,1-1.07.89,6,6,0,0,1-3.49,1.05Zm.75-2.18a4.59,4.59,0,0,0,1.89-.37,3.74,3.74,0,0,0,1.39-1,3.81,3.81,0,0,0,.77-1.59V78.31a3.5,3.5,0,0,0-.84-1.49,4.19,4.19,0,0,0-1.44-1,4.77,4.77,0,0,0-1.83-.35A4.23,4.23,0,0,0,65.1,76a3.91,3.91,0,0,0-1.49,1.42,4,4,0,0,0-.55,2.13,3.87,3.87,0,0,0,.57,2.06,4.1,4.1,0,0,0,1.53,1.48A4.15,4.15,0,0,0,67.23,83.61Z"/><path class="cls-2" d="M81.45,73.77l.24,2.64-.15-.23a5.24,5.24,0,0,1,2-2.11,5.57,5.57,0,0,1,3-.78,5,5,0,0,1,1.83.32,3.54,3.54,0,0,1,1.33.91,2.83,2.83,0,0,1,.68,1.4l-.15.12a5.11,5.11,0,0,1,2-2,5.4,5.4,0,0,1,2.69-.72,4.07,4.07,0,0,1,2.89,1,3.49,3.49,0,0,1,1.13,2.52v8.71H96V77.77a2.71,2.71,0,0,0-.47-1.52,1.78,1.78,0,0,0-1.51-.64,3.31,3.31,0,0,0-1.94.61,4.09,4.09,0,0,0-1.32,1.59A5.25,5.25,0,0,0,90.3,80v5.56H87.48V77.77a2.58,2.58,0,0,0-.5-1.52,1.87,1.87,0,0,0-1.54-.64,3.23,3.23,0,0,0-1.92.61,4.23,4.23,0,0,0-1.32,1.6A4.92,4.92,0,0,0,81.72,80v5.53H78.9V73.77Z"/><path class="cls-2" d="M109.44,85.79a7.73,7.73,0,0,1-3.66-.81,5.89,5.89,0,0,1-2.37-2.21,6.14,6.14,0,0,1-.84-3.22,5.52,5.52,0,0,1,.94-3.14A6.87,6.87,0,0,1,106,74.14a7.12,7.12,0,0,1,3.48-.85,6.11,6.11,0,0,1,4.08,1.36,6.93,6.93,0,0,1,2.22,3.74l-10.26,3.4-.66-1.56,8.37-2.92-.57.4a3.91,3.91,0,0,0-1.2-1.62,3.39,3.39,0,0,0-2.19-.68,4,4,0,0,0-2,.51,3.69,3.69,0,0,0-1.39,1.41,4.11,4.11,0,0,0-.51,2.08,4.28,4.28,0,0,0,.52,2.13A3.75,3.75,0,0,0,107.35,83a4.36,4.36,0,0,0,2.15.52,4.44,4.44,0,0,0,1.57-.28,7.42,7.42,0,0,0,1.46-.74l1.26,2a8.51,8.51,0,0,1-2.09,1A7.27,7.27,0,0,1,109.44,85.79Z"/><path class="cls-2" d="M133.8,85.79a6.23,6.23,0,0,1-3.12-.78,5.86,5.86,0,0,1-2.21-2.21,6.49,6.49,0,0,1-.82-3.3,6.19,6.19,0,0,1,.87-3.35A5.79,5.79,0,0,1,130.86,74a7.27,7.27,0,0,1,3.3-.73,6.9,6.9,0,0,1,2.8.59,5,5,0,0,1,2.09,1.65l-.15.93V63.56h2.79v22H138.9V82.59l.33.73a7.12,7.12,0,0,1-2.3,1.78A7,7,0,0,1,133.8,85.79Zm.87-2.24a4.52,4.52,0,0,0,2-.4,4.15,4.15,0,0,0,1.44-1.06,3.83,3.83,0,0,0,.83-1.57V78.28a3.63,3.63,0,0,0-.86-1.51,4.17,4.17,0,0,0-1.47-1,4.84,4.84,0,0,0-1.9-.36,4.35,4.35,0,0,0-2.07.51,4,4,0,0,0-1.53,1.42,3.89,3.89,0,0,0-.57,2.1,3.84,3.84,0,0,0,.57,2.08A4.26,4.26,0,0,0,132.6,83,4.06,4.06,0,0,0,134.67,83.55Z"/><path class="cls-2" d="M146.34,69.52a1.29,1.29,0,0,1,.52-1A1.78,1.78,0,0,1,148,68a1.71,1.71,0,0,1,1.14.43,1.35,1.35,0,0,1,0,2.11A1.79,1.79,0,0,1,148,71a1.87,1.87,0,0,1-1.16-.41A1.28,1.28,0,0,1,146.34,69.52Zm.18,4.25h2.82V85.51h-2.82Z"/><path class="cls-2" d="M168.84,85.79a7.06,7.06,0,0,1-3.17-.71A5.39,5.39,0,0,1,163.41,83a7.11,7.11,0,0,1,0-6.76,5.87,5.87,0,0,1,2.34-2.19,6.84,6.84,0,0,1,3.21-.76,5.5,5.5,0,0,1,2.95.75,5.24,5.24,0,0,1,1.82,1.77l-.18.43.27-2.47h2.58V85.51h-2.79V82.45l.33.68a3.49,3.49,0,0,1-.57.72,7.3,7.3,0,0,1-1.07.89,6,6,0,0,1-3.49,1.05Zm.75-2.18a4.59,4.59,0,0,0,1.89-.37,3.74,3.74,0,0,0,1.39-1,3.81,3.81,0,0,0,.77-1.59V78.31a3.5,3.5,0,0,0-.84-1.49,4.19,4.19,0,0,0-1.44-1,4.77,4.77,0,0,0-1.83-.35,4.23,4.23,0,0,0-2.07.51A3.91,3.91,0,0,0,166,77.4a4,4,0,0,0-.55,2.13,3.87,3.87,0,0,0,.57,2.06,4.1,4.1,0,0,0,1.53,1.48A4.15,4.15,0,0,0,169.59,83.61Z"/><path class="cls-2" d="M183.81,73.77l.24,2.64-.15-.23a5.24,5.24,0,0,1,2-2.11,5.57,5.57,0,0,1,3-.78,5,5,0,0,1,1.83.32,3.54,3.54,0,0,1,1.33.91,2.83,2.83,0,0,1,.68,1.4l-.15.12a5.11,5.11,0,0,1,2-2,5.4,5.4,0,0,1,2.69-.72,4.07,4.07,0,0,1,2.89,1,3.49,3.49,0,0,1,1.13,2.52v8.71h-2.82V77.77a2.71,2.71,0,0,0-.47-1.52,1.78,1.78,0,0,0-1.51-.64,3.31,3.31,0,0,0-1.94.61,4.09,4.09,0,0,0-1.32,1.59,5.25,5.25,0,0,0-.49,2.14v5.56h-2.82V77.77a2.58,2.58,0,0,0-.5-1.52,1.87,1.87,0,0,0-1.54-.64,3.23,3.23,0,0,0-1.92.61,4.23,4.23,0,0,0-1.32,1.6,4.92,4.92,0,0,0-.48,2.16v5.53h-2.82V73.77Z"/><path class="cls-2" d="M208.56,73.77l.24,2.64-.15-.23a5.24,5.24,0,0,1,2-2.11,5.57,5.57,0,0,1,3-.78,5,5,0,0,1,1.83.32,3.54,3.54,0,0,1,1.33.91,2.83,2.83,0,0,1,.68,1.4l-.15.12a5.11,5.11,0,0,1,2-2,5.4,5.4,0,0,1,2.69-.72,4.07,4.07,0,0,1,2.89,1A3.49,3.49,0,0,1,226,76.8v8.71h-2.82V77.77a2.71,2.71,0,0,0-.47-1.52,1.78,1.78,0,0,0-1.51-.64,3.31,3.31,0,0,0-1.94.61,4.09,4.09,0,0,0-1.32,1.59,5.25,5.25,0,0,0-.49,2.14v5.56h-2.82V77.77a2.58,2.58,0,0,0-.5-1.52,1.87,1.87,0,0,0-1.54-.64,3.23,3.23,0,0,0-1.92.61,4.23,4.23,0,0,0-1.32,1.6,4.92,4.92,0,0,0-.48,2.16v5.53H206V73.77Z"/><path class="cls-2" d="M230.58,69.52a1.29,1.29,0,0,1,.52-1,1.78,1.78,0,0,1,1.16-.43,1.73,1.73,0,0,1,1.14.43,1.35,1.35,0,0,1,0,2.11,1.81,1.81,0,0,1-1.14.41,1.87,1.87,0,0,1-1.16-.41A1.28,1.28,0,0,1,230.58,69.52Zm.18,4.25h2.82V85.51h-2.82Z"/><path class="cls-2" d="M241.92,85.73a7.47,7.47,0,0,1-2.57-.44,5,5,0,0,1-2-1.31l1.17-1.53a6.51,6.51,0,0,0,1.62,1.06,4,4,0,0,0,1.62.35,3.9,3.9,0,0,0,1.1-.14,1.68,1.68,0,0,0,.83-.48,1.38,1.38,0,0,0-.12-1.89,3.74,3.74,0,0,0-1.09-.58c-.45-.15-.92-.29-1.44-.42A5.41,5.41,0,0,1,238.64,79a2.85,2.85,0,0,1-.8-2.06,3.28,3.28,0,0,1,.49-1.75,3.78,3.78,0,0,1,1.48-1.33,5.08,5.08,0,0,1,2.41-.53,8.29,8.29,0,0,1,2.31.3,5.83,5.83,0,0,1,1.92,1l-1.11,1.64a3.58,3.58,0,0,0-1.28-.81,4.11,4.11,0,0,0-1.34-.26,3.27,3.27,0,0,0-1,.15,2,2,0,0,0-.75.45,1.06,1.06,0,0,0-.29.76,1.13,1.13,0,0,0,.41,1,3.74,3.74,0,0,0,1.09.58l1.36.45a7,7,0,0,1,1.62.68,3.77,3.77,0,0,1,1.15,1.05,2.68,2.68,0,0,1,.44,1.56,3.75,3.75,0,0,1-.53,1.94,3.63,3.63,0,0,1-1.59,1.42A6.15,6.15,0,0,1,241.92,85.73Z"/><path class="cls-2" d="M254.13,85.73a7.47,7.47,0,0,1-2.57-.44A5,5,0,0,1,249.51,84l1.17-1.53a6.51,6.51,0,0,0,1.62,1.06,4,4,0,0,0,1.62.35,3.9,3.9,0,0,0,1.1-.14,1.68,1.68,0,0,0,.83-.48,1.38,1.38,0,0,0-.12-1.89,3.74,3.74,0,0,0-1.09-.58c-.45-.15-.92-.29-1.44-.42A5.41,5.41,0,0,1,250.85,79a2.85,2.85,0,0,1-.8-2.06,3.28,3.28,0,0,1,.49-1.75A3.78,3.78,0,0,1,252,73.87a5.08,5.08,0,0,1,2.41-.53,8.29,8.29,0,0,1,2.31.3,5.83,5.83,0,0,1,1.92,1l-1.11,1.64a3.58,3.58,0,0,0-1.28-.81,4.11,4.11,0,0,0-1.34-.26,3.27,3.27,0,0,0-1,.15,2,2,0,0,0-.75.45,1.06,1.06,0,0,0-.29.76,1.13,1.13,0,0,0,.41,1,3.74,3.74,0,0,0,1.09.58l1.36.45a7.17,7.17,0,0,1,1.62.68,3.89,3.89,0,0,1,1.15,1.05,2.68,2.68,0,0,1,.44,1.56,3.75,3.75,0,0,1-.53,1.94,3.63,3.63,0,0,1-1.59,1.42A6.15,6.15,0,0,1,254.13,85.73Z"/><path class="cls-2" d="M262.64,69.52a1.3,1.3,0,0,1,.53-1,1.78,1.78,0,0,1,1.16-.43,1.73,1.73,0,0,1,1.14.43,1.36,1.36,0,0,1,0,2.11,1.81,1.81,0,0,1-1.14.41,1.87,1.87,0,0,1-1.16-.41A1.29,1.29,0,0,1,262.64,69.52Zm.19,4.25h2.81V85.51h-2.81Z"/><path class="cls-2" d="M269.39,79.53a5.86,5.86,0,0,1,.89-3.18,6.21,6.21,0,0,1,2.46-2.24,7.59,7.59,0,0,1,3.58-.82,7.34,7.34,0,0,1,3.54.82,6.08,6.08,0,0,1,2.39,2.24,6.35,6.35,0,0,1,0,6.35A6.1,6.1,0,0,1,279.86,85a7.3,7.3,0,0,1-3.57.84,7.76,7.76,0,0,1-3.55-.78,6.16,6.16,0,0,1-2.45-2.18A6,6,0,0,1,269.39,79.53Zm2.82,0a4,4,0,0,0,.54,2.06,4.11,4.11,0,0,0,1.44,1.46,3.89,3.89,0,0,0,2,.54,3.94,3.94,0,0,0,2.07-.54,4,4,0,0,0,1.43-1.46A4.15,4.15,0,0,0,278.3,76a4,4,0,0,0-2.07-.55,3.79,3.79,0,0,0-2.05.57,4.11,4.11,0,0,0-1.44,1.49A4,4,0,0,0,272.21,79.55Z"/><path class="cls-2" d="M289.37,73.77l.21,2.86-.09-.45a4.43,4.43,0,0,1,1.92-2.08,6.18,6.18,0,0,1,3.15-.78,4.23,4.23,0,0,1,2.87,1,3.31,3.31,0,0,1,1.15,2.54v8.68h-2.82V77.74a2.33,2.33,0,0,0-.58-1.55,2.26,2.26,0,0,0-1.73-.61,3.49,3.49,0,0,0-1.93.57,3.87,3.87,0,0,0-1.38,1.56,5.09,5.09,0,0,0-.5,2.3v5.5h-2.82V73.77Z"/><path class="cls-2" d="M309.2,85.79a7.73,7.73,0,0,1-3.66-.81,5.89,5.89,0,0,1-2.37-2.21,6.14,6.14,0,0,1-.84-3.22,5.53,5.53,0,0,1,.95-3.14,6.84,6.84,0,0,1,2.5-2.27,7.12,7.12,0,0,1,3.48-.85,6.11,6.11,0,0,1,4.08,1.36,6.93,6.93,0,0,1,2.22,3.74l-10.26,3.4-.66-1.56L313,77.31l-.57.4a3.91,3.91,0,0,0-1.2-1.62,3.39,3.39,0,0,0-2.19-.68,4,4,0,0,0-2,.51,3.72,3.72,0,0,0-1.4,1.41,4.11,4.11,0,0,0-.51,2.08,4.29,4.29,0,0,0,.53,2.13A3.75,3.75,0,0,0,307.12,83a4.32,4.32,0,0,0,2.14.52,4.5,4.5,0,0,0,1.58-.28,7.34,7.34,0,0,0,1.45-.74l1.26,2a8.44,8.44,0,0,1-2.08,1A7.33,7.33,0,0,1,309.2,85.79Z"/><path class="cls-2" d="M333.68,85.79a7,7,0,0,1-3.16-.71A5.42,5.42,0,0,1,328.25,83a7.11,7.11,0,0,1,0-6.76,5.87,5.87,0,0,1,2.34-2.19,6.84,6.84,0,0,1,3.21-.76,5.54,5.54,0,0,1,3,.75,5.21,5.21,0,0,1,1.81,1.77l-.18.43.27-2.47h2.58V85.51h-2.79V82.45l.33.68a3.49,3.49,0,0,1-.57.72,7.18,7.18,0,0,1-1.06.89,6.16,6.16,0,0,1-1.52.75A6.06,6.06,0,0,1,333.68,85.79Zm.75-2.18a4.59,4.59,0,0,0,1.89-.37,3.68,3.68,0,0,0,2.16-2.64V78.31a3.5,3.5,0,0,0-.84-1.49,4.19,4.19,0,0,0-1.44-1,4.77,4.77,0,0,0-1.83-.35,4.23,4.23,0,0,0-2.07.51,3.88,3.88,0,0,0-1.48,1.42,4,4,0,0,0-.56,2.13,3.87,3.87,0,0,0,.57,2.06,4.1,4.1,0,0,0,1.53,1.48A4.15,4.15,0,0,0,334.43,83.61Z"/><path class="cls-2" d="M346.1,63.56h2.82v22H346.1Z"/><path class="cls-2" d="M353.75,63.56h2.82v22h-2.82Z"/><path class="cls-2" d="M366.59,85.79a7,7,0,0,1-3.16-.71A5.42,5.42,0,0,1,361.16,83a7.11,7.11,0,0,1,0-6.76,5.87,5.87,0,0,1,2.34-2.19,6.84,6.84,0,0,1,3.21-.76,5.54,5.54,0,0,1,3,.75,5.21,5.21,0,0,1,1.81,1.77l-.18.43.27-2.47h2.58V85.51h-2.79V82.45l.33.68a3.49,3.49,0,0,1-.57.72,7.18,7.18,0,0,1-1.06.89,6.16,6.16,0,0,1-1.52.75A6.06,6.06,0,0,1,366.59,85.79Zm.75-2.18a4.59,4.59,0,0,0,1.89-.37,3.68,3.68,0,0,0,2.16-2.64V78.31a3.5,3.5,0,0,0-.84-1.49,4.19,4.19,0,0,0-1.44-1,4.77,4.77,0,0,0-1.83-.35,4.23,4.23,0,0,0-2.07.51,3.88,3.88,0,0,0-1.48,1.42,4,4,0,0,0-.56,2.13,3.87,3.87,0,0,0,.57,2.06,4.1,4.1,0,0,0,1.53,1.48A4.15,4.15,0,0,0,367.34,83.61Z"/><path class="cls-2" d="M389.54,85.51V76.12h-2.16V73.74h2.16V68.81a5.72,5.72,0,0,1,1.22-3.92,4.59,4.59,0,0,1,3.61-1.36,6.49,6.49,0,0,1,1.38.17,3.94,3.94,0,0,1,1.32.57l-1.17,1.9a1.22,1.22,0,0,0-.57-.35,2.26,2.26,0,0,0-.69-.1,2.09,2.09,0,0,0-1.71.71,3.79,3.79,0,0,0-.6,2.43v4.88h3.93v2.38h-3.93v9.39Z"/><path class="cls-2" d="M404.45,85.79a7.06,7.06,0,0,1-3.17-.71A5.39,5.39,0,0,1,399,83a7.11,7.11,0,0,1,0-6.76,5.87,5.87,0,0,1,2.34-2.19,6.84,6.84,0,0,1,3.21-.76,5.5,5.5,0,0,1,2.95.75,5.24,5.24,0,0,1,1.82,1.77l-.18.43.27-2.47H412V85.51h-2.79V82.45l.33.68a3.49,3.49,0,0,1-.57.72,7.3,7.3,0,0,1-1.07.89,6,6,0,0,1-3.49,1.05Zm.75-2.18a4.59,4.59,0,0,0,1.89-.37,3.74,3.74,0,0,0,1.39-1,3.81,3.81,0,0,0,.77-1.59V78.31a3.5,3.5,0,0,0-.84-1.49,4.19,4.19,0,0,0-1.44-1,4.77,4.77,0,0,0-1.83-.35,4.23,4.23,0,0,0-2.07.51,3.91,3.91,0,0,0-1.49,1.42,4,4,0,0,0-.55,2.13,3.87,3.87,0,0,0,.57,2.06,4.1,4.1,0,0,0,1.53,1.48A4.15,4.15,0,0,0,405.2,83.61Z"/><path class="cls-2" d="M427,84.4a6.14,6.14,0,0,1-2,1,7.62,7.62,0,0,1-2.34.37,7.93,7.93,0,0,1-3.56-.76,5.81,5.81,0,0,1-2.41-2.16,6,6,0,0,1-.87-3.26,5.67,5.67,0,0,1,.93-3.25,6.32,6.32,0,0,1,2.41-2.12,7.07,7.07,0,0,1,3.23-.75,8.44,8.44,0,0,1,2.65.38A6.24,6.24,0,0,1,427.07,75l-1.41,1.7a6.33,6.33,0,0,0-1.31-.69,4.51,4.51,0,0,0-1.75-.33,4,4,0,0,0-2,.53,3.82,3.82,0,0,0-1.44,1.41,3.93,3.93,0,0,0-.52,2,3.83,3.83,0,0,0,.54,2,4,4,0,0,0,1.5,1.45,4.45,4.45,0,0,0,2.22.54,4.55,4.55,0,0,0,2.67-.85Z"/><path class="cls-2" d="M429.47,79.53a5.85,5.85,0,0,1,.88-3.18,6.21,6.21,0,0,1,2.46-2.24,7.63,7.63,0,0,1,3.59-.82,7.34,7.34,0,0,1,3.54.82,6.13,6.13,0,0,1,0,10.84,7.3,7.3,0,0,1-3.57.84,7.81,7.81,0,0,1-3.56-.78,6.14,6.14,0,0,1-2.44-2.18A6,6,0,0,1,429.47,79.53Zm2.82,0a4,4,0,0,0,.54,2.06,4.11,4.11,0,0,0,1.44,1.46,3.89,3.89,0,0,0,2,.54,3.89,3.89,0,0,0,3.49-2,4.25,4.25,0,0,0,0-4.11A4,4,0,0,0,438.38,76a4,4,0,0,0-2.07-.55,3.82,3.82,0,0,0-2.06.57,4.11,4.11,0,0,0-1.44,1.49A4,4,0,0,0,432.29,79.55Z"/><path class="cls-2" d="M446.9,63.56h2.82v22H446.9Z"/><path class="cls-2" d="M455.75,68.61h2.85v5.22H462V75.9H458.6v9.61h-2.85V75.9H453.5V73.83h2.25Z"/><path class="cls-2" d="M470.54,85.79a7.06,7.06,0,0,1-3.17-.71A5.39,5.39,0,0,1,465.11,83a7.11,7.11,0,0,1,0-6.76,5.87,5.87,0,0,1,2.34-2.19,6.84,6.84,0,0,1,3.21-.76,5.5,5.5,0,0,1,2.95.75,5.24,5.24,0,0,1,1.82,1.77l-.18.43.27-2.47h2.58V85.51h-2.79V82.45l.33.68a3.49,3.49,0,0,1-.57.72,7.3,7.3,0,0,1-1.07.89,6,6,0,0,1-3.49,1.05Zm.75-2.18a4.59,4.59,0,0,0,1.89-.37,3.74,3.74,0,0,0,1.39-1,3.81,3.81,0,0,0,.77-1.59V78.31a3.5,3.5,0,0,0-.84-1.49,4.19,4.19,0,0,0-1.44-1,4.77,4.77,0,0,0-1.83-.35,4.23,4.23,0,0,0-2.07.51,3.91,3.91,0,0,0-1.49,1.42,4,4,0,0,0-.55,2.13,3.87,3.87,0,0,0,.57,2.06,4.1,4.1,0,0,0,1.53,1.48A4.15,4.15,0,0,0,471.29,83.61Zm-3.51-16h3.09l2.19,3.8h-1.77Z"/><path class="cls-2" d="M497.51,85.79a6.23,6.23,0,0,1-3.12-.78,5.86,5.86,0,0,1-2.21-2.21,6.49,6.49,0,0,1-.82-3.3,6.19,6.19,0,0,1,.87-3.35A5.79,5.79,0,0,1,494.57,74a7.27,7.27,0,0,1,3.3-.73,6.9,6.9,0,0,1,2.8.59,5,5,0,0,1,2.09,1.65l-.15.93V63.56h2.79v22h-2.79V82.59l.33.73a7.12,7.12,0,0,1-2.3,1.78A7,7,0,0,1,497.51,85.79Zm.87-2.24a4.52,4.52,0,0,0,2-.4,4.15,4.15,0,0,0,1.44-1.06,3.83,3.83,0,0,0,.83-1.57V78.28a3.63,3.63,0,0,0-.86-1.51,4.17,4.17,0,0,0-1.47-1,4.84,4.84,0,0,0-1.9-.36,4.35,4.35,0,0,0-2.07.51,4,4,0,0,0-1.53,1.42,3.89,3.89,0,0,0-.57,2.1,3.84,3.84,0,0,0,.57,2.08A4.26,4.26,0,0,0,496.31,83,4.06,4.06,0,0,0,498.38,83.55Z"/><path class="cls-2" d="M510.05,69.52a1.29,1.29,0,0,1,.52-1,1.78,1.78,0,0,1,1.16-.43,1.71,1.71,0,0,1,1.14.43,1.35,1.35,0,0,1,0,2.11,1.79,1.79,0,0,1-1.14.41,1.87,1.87,0,0,1-1.16-.41A1.28,1.28,0,0,1,510.05,69.52Zm.18,4.25h2.82V85.51h-2.82Z"/><path class="cls-2" d="M529.91,73.77l.24,2.64-.15-.23a5.24,5.24,0,0,1,2-2.11,5.57,5.57,0,0,1,3-.78,5.05,5.05,0,0,1,1.83.32,3.54,3.54,0,0,1,1.33.91,2.83,2.83,0,0,1,.68,1.4l-.15.12a5.11,5.11,0,0,1,2-2,5.37,5.37,0,0,1,2.69-.72,4.07,4.07,0,0,1,2.89,1,3.48,3.48,0,0,1,1.12,2.52v8.71h-2.81V77.77a2.71,2.71,0,0,0-.47-1.52,1.78,1.78,0,0,0-1.51-.64,3.31,3.31,0,0,0-1.94.61,4.09,4.09,0,0,0-1.32,1.59,5.09,5.09,0,0,0-.49,2.14v5.56h-2.82V77.77a2.58,2.58,0,0,0-.5-1.52,1.87,1.87,0,0,0-1.54-.64,3.28,3.28,0,0,0-1.93.61,4.21,4.21,0,0,0-1.31,1.6,4.92,4.92,0,0,0-.48,2.16v5.53h-2.82V73.77Z"/><path class="cls-2" d="M557.9,85.79a7.7,7.7,0,0,1-3.66-.81,5.89,5.89,0,0,1-2.37-2.21,6,6,0,0,1-.84-3.22,5.52,5.52,0,0,1,.94-3.14,6.84,6.84,0,0,1,2.5-2.27,7.16,7.16,0,0,1,3.49-.85A6.13,6.13,0,0,1,562,74.65a7,7,0,0,1,2.22,3.74L554,81.79l-.66-1.56,8.37-2.92-.57.4a3.91,3.91,0,0,0-1.2-1.62,3.39,3.39,0,0,0-2.19-.68,4,4,0,0,0-2,.51,3.69,3.69,0,0,0-1.39,1.41,4,4,0,0,0-.51,2.08,4.28,4.28,0,0,0,.52,2.13A3.75,3.75,0,0,0,555.81,83a4.36,4.36,0,0,0,2.15.52,4.44,4.44,0,0,0,1.57-.28A7.71,7.71,0,0,0,561,82.5l1.26,2a8.51,8.51,0,0,1-2.09,1A7.27,7.27,0,0,1,557.9,85.79Z"/><path class="cls-2" d="M572.77,85.79a6.23,6.23,0,0,1-3.12-.78,5.84,5.84,0,0,1-2.2-2.21,6.49,6.49,0,0,1-.82-3.3,6.1,6.1,0,0,1,.87-3.35A5.67,5.67,0,0,1,569.84,74a7.22,7.22,0,0,1,3.3-.73,6.93,6.93,0,0,1,2.8.59A5,5,0,0,1,578,75.53l-.14.93V63.56h2.79v22h-2.79V82.59l.33.73a7.23,7.23,0,0,1-2.3,1.78A7,7,0,0,1,572.77,85.79Zm.87-2.24a4.53,4.53,0,0,0,2-.4,4.15,4.15,0,0,0,1.44-1.06,3.83,3.83,0,0,0,.83-1.57V78.28a3.63,3.63,0,0,0-.86-1.51,4.17,4.17,0,0,0-1.47-1,4.89,4.89,0,0,0-1.91-.36,4.37,4.37,0,0,0-2.07.51,4,4,0,0,0-1.52,1.42,3.81,3.81,0,0,0-.58,2.1,3.77,3.77,0,0,0,.58,2.08A4.23,4.23,0,0,0,571.57,83,4.09,4.09,0,0,0,573.64,83.55Z"/><path class="cls-2" d="M585.31,69.52a1.3,1.3,0,0,1,.53-1A1.78,1.78,0,0,1,587,68a1.73,1.73,0,0,1,1.14.43,1.36,1.36,0,0,1,0,2.11A1.81,1.81,0,0,1,587,71a1.87,1.87,0,0,1-1.16-.41A1.29,1.29,0,0,1,585.31,69.52Zm.19,4.25h2.81V85.51H585.5Z"/><path class="cls-2" d="M603.25,84.4a6.14,6.14,0,0,1-2,1,7.62,7.62,0,0,1-2.34.37,7.89,7.89,0,0,1-3.55-.76,5.84,5.84,0,0,1-2.42-2.16,6,6,0,0,1-.87-3.26,5.67,5.67,0,0,1,.93-3.25,6.35,6.35,0,0,1,2.42-2.12,7,7,0,0,1,3.22-.75,8.5,8.5,0,0,1,2.66.38A6.19,6.19,0,0,1,603.34,75l-1.41,1.7a6.23,6.23,0,0,0-1.3-.69,4.56,4.56,0,0,0-1.76-.33,4,4,0,0,0-2,.53,3.82,3.82,0,0,0-1.44,1.41,3.94,3.94,0,0,0-.53,2,3.83,3.83,0,0,0,.54,2,4,4,0,0,0,1.5,1.45,4.45,4.45,0,0,0,2.22.54,4.61,4.61,0,0,0,1.46-.23,4.46,4.46,0,0,0,1.21-.62Z"/><path class="cls-2" d="M606.64,69.52a1.3,1.3,0,0,1,.53-1,1.75,1.75,0,0,1,1.15-.43,1.71,1.71,0,0,1,1.14.43,1.35,1.35,0,0,1,0,2.11,1.79,1.79,0,0,1-1.14.41,1.84,1.84,0,0,1-1.15-.41A1.29,1.29,0,0,1,606.64,69.52Zm.18,4.25h2.82V85.51h-2.82Z"/><path class="cls-2" d="M617,73.77l.21,2.86-.09-.45a4.43,4.43,0,0,1,1.92-2.08,6.18,6.18,0,0,1,3.15-.78,4.23,4.23,0,0,1,2.87,1,3.31,3.31,0,0,1,1.15,2.54v8.68h-2.82V77.74a2.33,2.33,0,0,0-.58-1.55,2.26,2.26,0,0,0-1.73-.61,3.49,3.49,0,0,0-1.93.57,3.87,3.87,0,0,0-1.38,1.56,5.09,5.09,0,0,0-.5,2.3v5.5h-2.82V73.77Z"/><path class="cls-2" d="M636.25,85.79a7,7,0,0,1-3.16-.71A5.42,5.42,0,0,1,630.82,83a7.11,7.11,0,0,1,0-6.76,5.87,5.87,0,0,1,2.34-2.19,6.84,6.84,0,0,1,3.21-.76,5.54,5.54,0,0,1,3,.75,5.21,5.21,0,0,1,1.81,1.77l-.18.43.27-2.47h2.58V85.51h-2.79V82.45l.33.68a3.49,3.49,0,0,1-.57.72,7.18,7.18,0,0,1-1.06.89,6.16,6.16,0,0,1-1.52.75A6.06,6.06,0,0,1,636.25,85.79Zm.75-2.18a4.59,4.59,0,0,0,1.89-.37,3.68,3.68,0,0,0,2.16-2.64V78.31a3.5,3.5,0,0,0-.84-1.49,4.19,4.19,0,0,0-1.44-1,4.77,4.77,0,0,0-1.83-.35,4.23,4.23,0,0,0-2.07.51,3.88,3.88,0,0,0-1.48,1.42,4,4,0,0,0-.56,2.13,3.87,3.87,0,0,0,.57,2.06,4.1,4.1,0,0,0,1.53,1.48A4.15,4.15,0,0,0,637,83.61Z"/><path class="cls-2" d="M647.79,82.93a1.59,1.59,0,0,1,1.09-.46,1.55,1.55,0,0,1,1,.46,1.4,1.4,0,0,1,.49,1.07,1.36,1.36,0,0,1-.49,1.1,1.63,1.63,0,0,1-1,.41,1.68,1.68,0,0,1-1.09-.41,1.37,1.37,0,0,1-.5-1.1A1.41,1.41,0,0,1,647.79,82.93Z"/><path class="cls-2" d="M21.63,99h2.91v17.86h11v2.64H21.63Z"/><path class="cls-2" d="M44.76,119.82a7.09,7.09,0,0,1-3.17-.71A5.48,5.48,0,0,1,39.33,117a6.3,6.3,0,0,1-.84-3.36,6.39,6.39,0,0,1,.87-3.4,5.92,5.92,0,0,1,2.34-2.18,6.85,6.85,0,0,1,3.21-.77,5.56,5.56,0,0,1,3,.75,5.21,5.21,0,0,1,1.81,1.77l-.18.43.27-2.47h2.58v11.74H49.56v-3.06l.33.68a3.49,3.49,0,0,1-.57.72,7.75,7.75,0,0,1-1.06.9,6.34,6.34,0,0,1-1.52.75A6.06,6.06,0,0,1,44.76,119.82Zm.75-2.19a4.59,4.59,0,0,0,1.89-.37,3.57,3.57,0,0,0,1.4-1.05,3.81,3.81,0,0,0,.76-1.58v-2.3a3.56,3.56,0,0,0-.84-1.49,4.3,4.3,0,0,0-1.44-1,4.6,4.6,0,0,0-1.83-.36,4.23,4.23,0,0,0-2.07.51,4,4,0,0,0-1.49,1.42,4,4,0,0,0-.55,2.13,3.91,3.91,0,0,0,.57,2.07,4.22,4.22,0,0,0,3.6,2Z"/><path class="cls-2" d="M70.17,119.76a7.76,7.76,0,0,1-2.57-.44,4.92,4.92,0,0,1-2-1.32l1.17-1.53a6.24,6.24,0,0,0,1.62,1.06,4,4,0,0,0,1.62.36,4.32,4.32,0,0,0,1.11-.14,1.74,1.74,0,0,0,.82-.49,1.24,1.24,0,0,0,.32-.88,1.21,1.21,0,0,0-.44-1,3.41,3.41,0,0,0-1.09-.58c-.44-.15-.92-.3-1.44-.43A5.36,5.36,0,0,1,66.9,113a2.9,2.9,0,0,1-.81-2.07,3.28,3.28,0,0,1,.49-1.75,3.81,3.81,0,0,1,1.49-1.33,5.07,5.07,0,0,1,2.4-.52,8.19,8.19,0,0,1,2.31.3,5.53,5.53,0,0,1,1.92,1l-1.11,1.65a3.49,3.49,0,0,0-1.28-.81,3.89,3.89,0,0,0-1.33-.27,3,3,0,0,0-1,.16,1.75,1.75,0,0,0-.75.45,1,1,0,0,0-.28.75,1.08,1.08,0,0,0,.4,1,3.46,3.46,0,0,0,1.1.58l1.35.45a7,7,0,0,1,1.62.69,3.62,3.62,0,0,1,1.15,1,2.68,2.68,0,0,1,.44,1.56,3.81,3.81,0,0,1-.53,1.95,3.67,3.67,0,0,1-1.59,1.41A6.11,6.11,0,0,1,70.17,119.76Z"/><path class="cls-2" d="M82.86,120A4.12,4.12,0,0,1,80,119a3.45,3.45,0,0,1-1.15-2.54v-8.68h2.82v7.74a2.5,2.5,0,0,0,.6,1.55,2.2,2.2,0,0,0,1.68.64,3.17,3.17,0,0,0,1.84-.58,4.29,4.29,0,0,0,1.34-1.59,5,5,0,0,0,.51-2.28v-5.48h2.79v11.74H87.9l-.24-2.89.18.54a4.69,4.69,0,0,1-1.11,1.43,5.37,5.37,0,0,1-1.73,1A6.29,6.29,0,0,1,82.86,120Z"/><path class="cls-2" d="M100.44,119.82a7.06,7.06,0,0,1-3.17-.71A5.48,5.48,0,0,1,95,117a6.3,6.3,0,0,1-.84-3.36,6.39,6.39,0,0,1,.87-3.4,5.92,5.92,0,0,1,2.34-2.18,6.85,6.85,0,0,1,3.21-.77,5.5,5.5,0,0,1,3,.75,5.24,5.24,0,0,1,1.82,1.77l-.18.43.27-2.47H108v11.74h-2.79v-3.06l.33.68a3.49,3.49,0,0,1-.57.72,7.32,7.32,0,0,1-1.07.9,6,6,0,0,1-3.49,1Zm.75-2.19a4.59,4.59,0,0,0,1.89-.37,3.54,3.54,0,0,0,1.39-1.05,3.83,3.83,0,0,0,.77-1.58v-2.3a3.56,3.56,0,0,0-.84-1.49,4.3,4.3,0,0,0-1.44-1,4.6,4.6,0,0,0-1.83-.36,4.23,4.23,0,0,0-2.07.51,4,4,0,0,0-1.49,1.42,4,4,0,0,0-.55,2.13,3.91,3.91,0,0,0,.57,2.07,4.22,4.22,0,0,0,3.6,2Z"/><path class="cls-2" d="M127.41,119.87l-6.9-12.08h3.33l4.65,9.33-1.71-.08,4.29-9.25h3.12l-6.63,12.08Z"/><path class="cls-2" d="M137,103.54a1.29,1.29,0,0,1,.52-1.05,1.82,1.82,0,0,1,1.16-.42,1.75,1.75,0,0,1,1.14.42,1.31,1.31,0,0,1,.51,1.05,1.28,1.28,0,0,1-.51,1.06,1.74,1.74,0,0,1-1.14.41,1.81,1.81,0,0,1-1.16-.41A1.27,1.27,0,0,1,137,103.54Zm.18,4.25H140v11.74h-2.82Z"/><path class="cls-2" d="M146,102.63h2.85v5.22h3.39v2.07h-3.39v9.61H146v-9.61h-2.25v-2.07H146Z"/><path class="cls-2" d="M160.8,119.82a7.06,7.06,0,0,1-3.17-.71,5.48,5.48,0,0,1-2.26-2.09,6.3,6.3,0,0,1-.84-3.36,6.39,6.39,0,0,1,.87-3.4,5.92,5.92,0,0,1,2.34-2.18,6.85,6.85,0,0,1,3.21-.77,5.5,5.5,0,0,1,3,.75,5.24,5.24,0,0,1,1.82,1.77l-.18.43.27-2.47h2.58v11.74H165.6v-3.06l.33.68a3.49,3.49,0,0,1-.57.72,7.32,7.32,0,0,1-1.07.9,6,6,0,0,1-3.49,1Zm.75-2.19a4.59,4.59,0,0,0,1.89-.37,3.54,3.54,0,0,0,1.39-1.05,3.83,3.83,0,0,0,.77-1.58v-2.3a3.56,3.56,0,0,0-.84-1.49,4.3,4.3,0,0,0-1.44-1,4.6,4.6,0,0,0-1.83-.36,4.23,4.23,0,0,0-2.07.51,4,4,0,0,0-1.49,1.42,4,4,0,0,0-.55,2.13,3.91,3.91,0,0,0,.57,2.07,4.22,4.22,0,0,0,3.6,2Z"/><path class="cls-2" d="M186.68,120a4.09,4.09,0,0,1-2.83-1,3.41,3.41,0,0,1-1.15-2.54v-8.68h2.81v7.74a2.51,2.51,0,0,0,.61,1.55,2.17,2.17,0,0,0,1.68.64,3.19,3.19,0,0,0,1.84-.58,4.17,4.17,0,0,0,1.33-1.59,5,5,0,0,0,.52-2.28v-5.48h2.79v11.74h-2.56l-.23-2.89.18.54a4.57,4.57,0,0,1-1.12,1.43,5.21,5.21,0,0,1-1.72,1A6.35,6.35,0,0,1,186.68,120Z"/><path class="cls-2" d="M201.63,107.79l.21,2.87-.09-.46a4.33,4.33,0,0,1,1.92-2.08,6.15,6.15,0,0,1,3.14-.78,4.23,4.23,0,0,1,2.87,1,3.33,3.33,0,0,1,1.16,2.54v8.67H208v-7.77a2.25,2.25,0,0,0-.58-1.54,2.21,2.21,0,0,0-1.72-.61,3.52,3.52,0,0,0-1.94.57,3.78,3.78,0,0,0-1.38,1.55,5.12,5.12,0,0,0-.5,2.3v5.5h-2.81V107.79Z"/><path class="cls-2" d="M215.48,103.54a1.3,1.3,0,0,1,.53-1.05,1.82,1.82,0,0,1,1.16-.42,1.72,1.72,0,0,1,1.13.42,1.31,1.31,0,0,1,.51,1.05,1.28,1.28,0,0,1-.51,1.06,1.71,1.71,0,0,1-1.13.41,1.81,1.81,0,0,1-1.16-.41A1.28,1.28,0,0,1,215.48,103.54Zm.19,4.25h2.81v11.74h-2.81Z"/><path class="cls-2" d="M228.38,119.87l-6.9-12.08h3.33l4.65,9.33-1.71-.08,4.29-9.25h3.12l-6.63,12.08Z"/><path class="cls-2" d="M243.62,119.82A7.73,7.73,0,0,1,240,119a6,6,0,0,1-2.37-2.21,6.16,6.16,0,0,1-.84-3.22,5.56,5.56,0,0,1,.95-3.15,7,7,0,0,1,2.5-2.27,7.12,7.12,0,0,1,3.48-.85,6.11,6.11,0,0,1,4.08,1.36,7,7,0,0,1,2.22,3.74l-10.26,3.41-.66-1.56,8.37-2.92-.57.39a3.82,3.82,0,0,0-1.2-1.61,3.33,3.33,0,0,0-2.19-.68,4,4,0,0,0-2,.51,3.76,3.76,0,0,0-1.4,1.4,4.15,4.15,0,0,0-.51,2.09,4.25,4.25,0,0,0,.53,2.12,3.69,3.69,0,0,0,1.47,1.46,4.33,4.33,0,0,0,2.14.53,4.51,4.51,0,0,0,1.58-.29,7.3,7.3,0,0,0,1.45-.73l1.26,2a8.84,8.84,0,0,1-2.08,1A7.64,7.64,0,0,1,243.62,119.82Z"/><path class="cls-2" d="M256,107.79l.27,3.41-.12-.49a5.17,5.17,0,0,1,1.38-1.81,6.61,6.61,0,0,1,1.92-1.16,5.47,5.47,0,0,1,1.74-.43L261,110a4.26,4.26,0,0,0-2.5.49,4.76,4.76,0,0,0-1.68,1.59,3.9,3.9,0,0,0-.62,2.11v5.36h-2.79V107.79Z"/><path class="cls-2" d="M268.22,119.76a7.7,7.7,0,0,1-2.56-.44A5,5,0,0,1,263.6,118l1.17-1.53a6.24,6.24,0,0,0,1.62,1.06,4,4,0,0,0,1.62.36,4.32,4.32,0,0,0,1.11-.14,1.77,1.77,0,0,0,.83-.49,1.23,1.23,0,0,0,.31-.88,1.21,1.21,0,0,0-.43-1,3.46,3.46,0,0,0-1.1-.58c-.44-.15-.92-.3-1.44-.43A5.36,5.36,0,0,1,265,113a2.9,2.9,0,0,1-.81-2.07,3.29,3.29,0,0,1,.5-1.75,3.78,3.78,0,0,1,1.48-1.33,5.07,5.07,0,0,1,2.4-.52,8.19,8.19,0,0,1,2.31.3,5.53,5.53,0,0,1,1.92,1l-1.11,1.65a3.45,3.45,0,0,0-1.27-.81,3.94,3.94,0,0,0-1.34-.27,3,3,0,0,0-1,.16,1.75,1.75,0,0,0-.75.45,1.05,1.05,0,0,0-.29.75,1.09,1.09,0,0,0,.41,1,3.41,3.41,0,0,0,1.09.58l1.35.45a7,7,0,0,1,1.62.69,3.66,3.66,0,0,1,1.16,1,2.68,2.68,0,0,1,.43,1.56,3.8,3.8,0,0,1-.52,1.95,3.67,3.67,0,0,1-1.59,1.41A6.16,6.16,0,0,1,268.22,119.76Z"/><path class="cls-2" d="M276.74,103.54a1.3,1.3,0,0,1,.53-1.05,1.79,1.79,0,0,1,1.15-.42,1.75,1.75,0,0,1,1.14.42,1.31,1.31,0,0,1,.51,1.05,1.28,1.28,0,0,1-.51,1.06,1.74,1.74,0,0,1-1.14.41,1.78,1.78,0,0,1-1.15-.41A1.28,1.28,0,0,1,276.74,103.54Zm.18,4.25h2.82v11.74h-2.82Z"/><path class="cls-2" d="M285.77,102.63h2.85v5.22H292v2.07h-3.39v9.61h-2.85v-9.61h-2.25v-2.07h2.25Z"/><path class="cls-2" d="M300.56,119.82a7,7,0,0,1-3.16-.71,5.51,5.51,0,0,1-2.27-2.09,6.3,6.3,0,0,1-.84-3.36,6.39,6.39,0,0,1,.87-3.4,5.92,5.92,0,0,1,2.34-2.18,6.85,6.85,0,0,1,3.21-.77,5.54,5.54,0,0,1,3,.75,5.21,5.21,0,0,1,1.81,1.77l-.18.43.27-2.47h2.58v11.74h-2.79v-3.06l.33.68a3.49,3.49,0,0,1-.57.72,7.19,7.19,0,0,1-1.06.9,6.16,6.16,0,0,1-1.52.75A6.06,6.06,0,0,1,300.56,119.82Zm.75-2.19a4.59,4.59,0,0,0,1.89-.37,3.57,3.57,0,0,0,1.4-1.05,3.81,3.81,0,0,0,.76-1.58v-2.3a3.56,3.56,0,0,0-.84-1.49,4.3,4.3,0,0,0-1.44-1,4.6,4.6,0,0,0-1.83-.36,4.23,4.23,0,0,0-2.07.51,4,4,0,0,0-1.48,1.42,4,4,0,0,0-.56,2.13,3.91,3.91,0,0,0,.57,2.07,4.22,4.22,0,0,0,3.6,2Z"/><path class="cls-2" d="M315.5,107.79l.27,3.41-.12-.49A5.17,5.17,0,0,1,317,108.9a6.61,6.61,0,0,1,1.92-1.16,5.47,5.47,0,0,1,1.74-.43l-.12,2.67a4.26,4.26,0,0,0-2.5.49,4.76,4.76,0,0,0-1.68,1.59,3.9,3.9,0,0,0-.62,2.11v5.36H313V107.79Z"/><path class="cls-2" d="M324.08,103.54a1.3,1.3,0,0,1,.53-1.05,1.79,1.79,0,0,1,1.15-.42,1.75,1.75,0,0,1,1.14.42,1.31,1.31,0,0,1,.51,1.05,1.28,1.28,0,0,1-.51,1.06,1.74,1.74,0,0,1-1.14.41,1.78,1.78,0,0,1-1.15-.41A1.28,1.28,0,0,1,324.08,103.54Zm.18,4.25h2.82v11.74h-2.82Z"/><path class="cls-2" d="M337.1,119.82a7.09,7.09,0,0,1-3.17-.71,5.48,5.48,0,0,1-2.26-2.09,6.3,6.3,0,0,1-.84-3.36,6.39,6.39,0,0,1,.87-3.4,5.92,5.92,0,0,1,2.34-2.18,6.85,6.85,0,0,1,3.21-.77,5.56,5.56,0,0,1,3,.75,5.3,5.3,0,0,1,1.81,1.77l-.18.43.27-2.47h2.58v11.74H341.9v-3.06l.33.68a3.49,3.49,0,0,1-.57.72,7.32,7.32,0,0,1-1.07.9,6,6,0,0,1-3.49,1Zm.75-2.19a4.59,4.59,0,0,0,1.89-.37,3.65,3.65,0,0,0,1.4-1.05,3.81,3.81,0,0,0,.76-1.58v-2.3a3.56,3.56,0,0,0-.84-1.49,4.3,4.3,0,0,0-1.44-1,4.6,4.6,0,0,0-1.83-.36,4.23,4.23,0,0,0-2.07.51,4,4,0,0,0-1.49,1.42,4,4,0,0,0-.55,2.13,3.91,3.91,0,0,0,.57,2.07,4.22,4.22,0,0,0,3.6,2Z"/><path class="cls-2" d="M364.79,119.82a7.73,7.73,0,0,1-3.66-.81,6,6,0,0,1-2.37-2.21,6.16,6.16,0,0,1-.84-3.22,5.55,5.55,0,0,1,.94-3.15,7.1,7.1,0,0,1,6-3.12,6.11,6.11,0,0,1,4.08,1.36,7,7,0,0,1,2.22,3.74l-10.26,3.41-.66-1.56,8.37-2.92-.57.39a3.82,3.82,0,0,0-1.2-1.61,3.33,3.33,0,0,0-2.19-.68,4,4,0,0,0-2,.51,3.74,3.74,0,0,0-1.39,1.4,4.15,4.15,0,0,0-.51,2.09,4.24,4.24,0,0,0,.52,2.12A3.69,3.69,0,0,0,362.7,117a4.36,4.36,0,0,0,2.15.53,4.45,4.45,0,0,0,1.57-.29,7.38,7.38,0,0,0,1.46-.73l1.26,2a8.92,8.92,0,0,1-2.09,1A7.57,7.57,0,0,1,364.79,119.82Zm-4.5-18.24h3.09l2.19,3.8H363.8Z"/><path class="cls-2" d="M386.63,107.79l.24,2.64-.15-.23a5.31,5.31,0,0,1,2-2.11,5.57,5.57,0,0,1,3-.78,4.81,4.81,0,0,1,1.83.33,3.52,3.52,0,0,1,1.33.9,2.83,2.83,0,0,1,.68,1.41l-.15.11a5.18,5.18,0,0,1,2-2,5.4,5.4,0,0,1,2.69-.72,4.07,4.07,0,0,1,2.89,1,3.53,3.53,0,0,1,1.13,2.53v8.7h-2.82v-7.74a2.74,2.74,0,0,0-.47-1.52,1.8,1.8,0,0,0-1.51-.63,3.24,3.24,0,0,0-1.94.61,4,4,0,0,0-1.32,1.58,5.29,5.29,0,0,0-.49,2.14v5.56h-2.82v-7.74a2.61,2.61,0,0,0-.5-1.52,1.9,1.9,0,0,0-1.54-.63,3.16,3.16,0,0,0-1.92.61,4.16,4.16,0,0,0-1.32,1.6,4.87,4.87,0,0,0-.48,2.15v5.53h-2.82V107.79Z"/><path class="cls-2" d="M407.75,113.55a5.9,5.9,0,0,1,.88-3.18,6.28,6.28,0,0,1,2.46-2.24,7.75,7.75,0,0,1,3.59-.82,7.46,7.46,0,0,1,3.54.82,6,6,0,0,1,3.24,5.42,6,6,0,0,1-.86,3.17,6.17,6.17,0,0,1-2.38,2.26,7.3,7.3,0,0,1-3.57.84,7.94,7.94,0,0,1-3.56-.78,6.09,6.09,0,0,1-2.44-2.19A6,6,0,0,1,407.75,113.55Zm2.82,0a4,4,0,0,0,.54,2,4,4,0,0,0,1.44,1.46,3.89,3.89,0,0,0,2,.54,3.94,3.94,0,0,0,2.07-.54,3.9,3.9,0,0,0,1.42-1.46,4.14,4.14,0,0,0-1.42-5.58,3.87,3.87,0,0,0-2.07-.56,3.82,3.82,0,0,0-2.06.57,4.19,4.19,0,0,0-1.44,1.49A4,4,0,0,0,410.57,113.58Z"/><path class="cls-2" d="M425.18,97.59H428v21.94h-2.82Z"/><path class="cls-2" d="M434,102.63h2.85v5.22h3.39v2.07h-3.39v9.61H434v-9.61h-2.25v-2.07H434Z"/><path class="cls-2" d="M442.55,113.55a5.9,5.9,0,0,1,.88-3.18,6.28,6.28,0,0,1,2.46-2.24,7.75,7.75,0,0,1,3.59-.82,7.46,7.46,0,0,1,3.54.82,6,6,0,0,1,3.24,5.42,6,6,0,0,1-.86,3.17A6.17,6.17,0,0,1,453,119a7.3,7.3,0,0,1-3.57.84,7.94,7.94,0,0,1-3.56-.78,6.09,6.09,0,0,1-2.44-2.19A6,6,0,0,1,442.55,113.55Zm2.82,0a4,4,0,0,0,.54,2,4,4,0,0,0,1.44,1.46,3.89,3.89,0,0,0,2,.54,3.94,3.94,0,0,0,2.07-.54,3.9,3.9,0,0,0,1.42-1.46,4.14,4.14,0,0,0-1.42-5.58,3.87,3.87,0,0,0-2.07-.56,3.82,3.82,0,0,0-2.06.57,4.19,4.19,0,0,0-1.44,1.49A4,4,0,0,0,445.37,113.58Z"/><path class="cls-2" d="M469.28,103.54a1.29,1.29,0,0,1,.52-1.05,1.82,1.82,0,0,1,1.16-.42,1.75,1.75,0,0,1,1.14.42,1.31,1.31,0,0,1,.51,1.05,1.28,1.28,0,0,1-.51,1.06A1.74,1.74,0,0,1,471,105a1.81,1.81,0,0,1-1.16-.41A1.27,1.27,0,0,1,469.28,103.54Zm.18,4.25h2.82v11.74h-2.82Z"/><path class="cls-2" d="M479.66,107.79l.24,2.64-.15-.23a5.31,5.31,0,0,1,2-2.11,5.57,5.57,0,0,1,3-.78,4.85,4.85,0,0,1,1.83.33,3.52,3.52,0,0,1,1.33.9,2.83,2.83,0,0,1,.68,1.41l-.15.11a5.18,5.18,0,0,1,2-2,5.37,5.37,0,0,1,2.69-.72,4.07,4.07,0,0,1,2.89,1,3.52,3.52,0,0,1,1.12,2.53v8.7h-2.81v-7.74a2.74,2.74,0,0,0-.47-1.52,1.8,1.8,0,0,0-1.51-.63,3.24,3.24,0,0,0-1.94.61,4,4,0,0,0-1.32,1.58,5.13,5.13,0,0,0-.49,2.14v5.56h-2.82v-7.74a2.61,2.61,0,0,0-.5-1.52,1.9,1.9,0,0,0-1.54-.63,3.21,3.21,0,0,0-1.93.61,4.13,4.13,0,0,0-1.31,1.6,4.87,4.87,0,0,0-.48,2.15v5.53h-2.82V107.79Z"/><path class="cls-2" d="M509.21,119.82a6.16,6.16,0,0,1-2.72-.63,4.72,4.72,0,0,1-2-1.67l.15-.82v8.47h-2.79V107.62h2.43l.39,3-.3-.85a6.88,6.88,0,0,1,2.28-1.77,6.69,6.69,0,0,1,3.09-.7,6.29,6.29,0,0,1,3.13.78,5.72,5.72,0,0,1,2.21,2.21,6.68,6.68,0,0,1,.81,3.33,6.2,6.2,0,0,1-.87,3.28,5.85,5.85,0,0,1-2.39,2.15A7.65,7.65,0,0,1,509.21,119.82Zm-.54-2.1a4.6,4.6,0,0,0,2.19-.53,4.43,4.43,0,0,0,1.6-1.44,3.69,3.69,0,0,0,.62-2.09,3.92,3.92,0,0,0-.57-2.11A4.15,4.15,0,0,0,511,110.1a4.26,4.26,0,0,0-2.11-.52,4.88,4.88,0,0,0-1.95.38,3.81,3.81,0,0,0-1.44,1.07,3.89,3.89,0,0,0-.81,1.61v2a3.37,3.37,0,0,0,.72,1.56,4,4,0,0,0,1.42,1.12A4.28,4.28,0,0,0,508.67,117.72Z"/><path class="cls-2" d="M525.44,119.82a7.7,7.7,0,0,1-3.66-.81,6,6,0,0,1-2.37-2.21,6.07,6.07,0,0,1-.84-3.22,5.55,5.55,0,0,1,.94-3.15,7,7,0,0,1,2.5-2.27,7.16,7.16,0,0,1,3.49-.85,6.11,6.11,0,0,1,4.08,1.36,7,7,0,0,1,2.22,3.74l-10.26,3.41-.66-1.56,8.37-2.92-.57.39a3.82,3.82,0,0,0-1.2-1.61,3.33,3.33,0,0,0-2.19-.68,4,4,0,0,0-2,.51,3.74,3.74,0,0,0-1.39,1.4,4,4,0,0,0-.51,2.09,4.24,4.24,0,0,0,.52,2.12,3.69,3.69,0,0,0,1.47,1.46,4.36,4.36,0,0,0,2.15.53,4.45,4.45,0,0,0,1.57-.29,7.66,7.66,0,0,0,1.46-.73l1.26,2a8.92,8.92,0,0,1-2.09,1A7.57,7.57,0,0,1,525.44,119.82Z"/><path class="cls-2" d="M541.27,125.37a8.61,8.61,0,0,1-2.44-.31,7.61,7.61,0,0,1-1.92-.85,18.71,18.71,0,0,1-1.66-1.19l1.64-1.82a8.91,8.91,0,0,0,2,1.34,5.29,5.29,0,0,0,2.28.48,5.83,5.83,0,0,0,2.39-.44,3.24,3.24,0,0,0,1.47-1.21,3.29,3.29,0,0,0,.52-1.78l0-3.18.25.51a4.68,4.68,0,0,1-2,2.06,6.62,6.62,0,0,1-3.42.84,6.18,6.18,0,0,1-3.13-.83,6.44,6.44,0,0,1-2.3-2.22,5.8,5.8,0,0,1-.87-3.16,6.07,6.07,0,0,1,.89-3.27,6.53,6.53,0,0,1,2.39-2.22,6.62,6.62,0,0,1,3.23-.81,7,7,0,0,1,3,.64,4.83,4.83,0,0,1,2,1.63l-.18.48.26-2.27h2.59v11.83a5.16,5.16,0,0,1-.86,2.89,6,6,0,0,1-2.46,2.08A8.62,8.62,0,0,1,541.27,125.37ZM537,113.55a3.84,3.84,0,0,0,.59,2.07,4.24,4.24,0,0,0,1.56,1.47,4.36,4.36,0,0,0,2.14.54,5.09,5.09,0,0,0,2-.38,4.35,4.35,0,0,0,1.49-1.06,4.09,4.09,0,0,0,.83-1.51v-2.35a3.3,3.3,0,0,0-.9-1.47,4.75,4.75,0,0,0-1.5-1,5,5,0,0,0-1.92-.37,4.46,4.46,0,0,0-2.14.53,4.21,4.21,0,0,0-1.56,1.43A3.82,3.82,0,0,0,537,113.55Z"/><path class="cls-2" d="M555.76,107.79l.21,2.87-.08-.46a4.35,4.35,0,0,1,1.91-2.08,6.21,6.21,0,0,1,3.15-.78,4.23,4.23,0,0,1,2.87,1,3.29,3.29,0,0,1,1.15,2.54v8.67h-2.82v-7.77a2.25,2.25,0,0,0-.58-1.54,2.22,2.22,0,0,0-1.73-.61,3.49,3.49,0,0,0-1.93.57,3.78,3.78,0,0,0-1.38,1.55,5.12,5.12,0,0,0-.5,2.3v5.5h-2.81V107.79Z"/><path class="cls-2" d="M575,119.82a7,7,0,0,1-3.16-.71,5.51,5.51,0,0,1-2.27-2.09,6.3,6.3,0,0,1-.84-3.36,6.39,6.39,0,0,1,.87-3.4,5.92,5.92,0,0,1,2.34-2.18,6.85,6.85,0,0,1,3.21-.77,5.54,5.54,0,0,1,3,.75,5.21,5.21,0,0,1,1.81,1.77l-.18.43.27-2.47h2.58v11.74h-2.79v-3.06l.33.68a3.49,3.49,0,0,1-.57.72,7.19,7.19,0,0,1-1.06.9,6.16,6.16,0,0,1-1.52.75A6.06,6.06,0,0,1,575,119.82Zm.75-2.19a4.67,4.67,0,0,0,1.9-.37,3.61,3.61,0,0,0,1.39-1.05,3.81,3.81,0,0,0,.76-1.58v-2.3a3.56,3.56,0,0,0-.84-1.49,4.3,4.3,0,0,0-1.44-1,4.6,4.6,0,0,0-1.83-.36,4.23,4.23,0,0,0-2.07.51,4,4,0,0,0-1.48,1.42,4,4,0,0,0-.56,2.13,3.91,3.91,0,0,0,.57,2.07,4.22,4.22,0,0,0,3.6,2Z"/><path class="cls-2" d="M588.61,102.63h2.85v5.22h3.39v2.07h-3.39v9.61h-2.85v-9.61h-2.25v-2.07h2.25Z"/><path class="cls-2" d="M598,103.54a1.3,1.3,0,0,1,.53-1.05,1.79,1.79,0,0,1,1.15-.42,1.75,1.75,0,0,1,1.14.42,1.31,1.31,0,0,1,.51,1.05,1.28,1.28,0,0,1-.51,1.06,1.74,1.74,0,0,1-1.14.41,1.78,1.78,0,0,1-1.15-.41A1.28,1.28,0,0,1,598,103.54Zm.18,4.25H601v11.74h-2.82Z"/><path class="cls-2" d="M610.93,119.87,604,107.79h3.33l4.65,9.33L610.3,117l4.29-9.25h3.12l-6.63,12.08Z"/><path class="cls-2" d="M625.54,119.82a7,7,0,0,1-3.16-.71,5.51,5.51,0,0,1-2.27-2.09,6.3,6.3,0,0,1-.84-3.36,6.39,6.39,0,0,1,.87-3.4,5.92,5.92,0,0,1,2.34-2.18,6.85,6.85,0,0,1,3.21-.77,5.54,5.54,0,0,1,3,.75,5.21,5.21,0,0,1,1.81,1.77l-.18.43.27-2.47h2.58v11.74h-2.79v-3.06l.33.68a3.49,3.49,0,0,1-.57.72,7.19,7.19,0,0,1-1.06.9,6.16,6.16,0,0,1-1.52.75A6.06,6.06,0,0,1,625.54,119.82Zm.75-2.19a4.59,4.59,0,0,0,1.89-.37,3.57,3.57,0,0,0,1.4-1.05,3.81,3.81,0,0,0,.76-1.58v-2.3a3.56,3.56,0,0,0-.84-1.49,4.3,4.3,0,0,0-1.44-1,4.6,4.6,0,0,0-1.83-.36,4.23,4.23,0,0,0-2.07.51,4,4,0,0,0-1.48,1.42,4,4,0,0,0-.56,2.13,3.91,3.91,0,0,0,.57,2.07,4.22,4.22,0,0,0,3.6,2Z"/><path class="cls-2" d="M637.05,109.24a1.52,1.52,0,0,1,2.16,0,1.4,1.4,0,0,1,.49,1.08,1.35,1.35,0,0,1-.49,1.09,1.63,1.63,0,0,1-2.16,0,1.36,1.36,0,0,1-.5-1.09A1.41,1.41,0,0,1,637.05,109.24Zm0,7.71a1.52,1.52,0,0,1,2.16,0,1.4,1.4,0,0,1,.49,1.08,1.34,1.34,0,0,1-.49,1.09,1.63,1.63,0,0,1-2.16,0,1.35,1.35,0,0,1-.5-1.09A1.41,1.41,0,0,1,637.05,117Z"/><path class="cls-2" d="M19.83,147.57a5.85,5.85,0,0,1,.89-3.17,6.14,6.14,0,0,1,2.46-2.24,7.56,7.56,0,0,1,3.58-.82,7.34,7.34,0,0,1,3.54.82,6,6,0,0,1,2.38,2.24,6.29,6.29,0,0,1,0,6.35A6.08,6.08,0,0,1,30.3,153a7.3,7.3,0,0,1-3.57.84,7.76,7.76,0,0,1-3.55-.78,6.1,6.1,0,0,1-2.45-2.18A6,6,0,0,1,19.83,147.57Zm2.82,0a4,4,0,0,0,.54,2.06,4.11,4.11,0,0,0,1.44,1.46,3.89,3.89,0,0,0,2,.54,3.94,3.94,0,0,0,2.07-.54,4.08,4.08,0,0,0,1.43-1.46,4.32,4.32,0,0,0,0-4.11,4.14,4.14,0,0,0-1.43-1.48,3.86,3.86,0,0,0-2.07-.55,3.77,3.77,0,0,0-2.05.57,4,4,0,0,0-1.44,1.48A4,4,0,0,0,22.65,147.6Z"/><path class="cls-2" d="M37.26,131.61h2.82v21.95H37.26Z"/><path class="cls-2" d="M46.11,136.66H49v5.21h3.39v2.07H49v9.62H46.11v-9.62H43.86v-2.07h2.25Z"/><path class="cls-2" d="M58.23,141.82l.27,3.4-.12-.48a5.21,5.21,0,0,1,1.38-1.82,6.84,6.84,0,0,1,1.92-1.16,5.42,5.42,0,0,1,1.74-.42L63.3,144a4.29,4.29,0,0,0-2.51.5,4.65,4.65,0,0,0-1.68,1.58,3.93,3.93,0,0,0-.61,2.12v5.36H55.71V141.82Z"/><path class="cls-2" d="M72.24,153.84a7.73,7.73,0,0,1-3.66-.81,5.89,5.89,0,0,1-2.37-2.21,6.16,6.16,0,0,1-.84-3.22,5.57,5.57,0,0,1,.94-3.15,6.93,6.93,0,0,1,2.51-2.26,7.12,7.12,0,0,1,3.48-.85,6.11,6.11,0,0,1,4.08,1.36,6.89,6.89,0,0,1,2.22,3.74l-10.26,3.4-.66-1.56,8.37-2.92-.57.4a3.85,3.85,0,0,0-1.2-1.62,3.39,3.39,0,0,0-2.19-.68,4,4,0,0,0-2,.51,3.69,3.69,0,0,0-1.39,1.41,4.11,4.11,0,0,0-.51,2.08,4.31,4.31,0,0,0,.52,2.13,3.75,3.75,0,0,0,1.47,1.46,4.36,4.36,0,0,0,2.15.52,4.44,4.44,0,0,0,1.57-.28,7.42,7.42,0,0,0,1.46-.74l1.26,2a9.32,9.32,0,0,1-2.09,1A7.27,7.27,0,0,1,72.24,153.84Z"/><path class="cls-2" d="M96.72,153.84a7.06,7.06,0,0,1-3.17-.71,5.46,5.46,0,0,1-2.26-2.08,7.13,7.13,0,0,1,0-6.77,5.92,5.92,0,0,1,2.34-2.18,6.84,6.84,0,0,1,3.21-.76,5.5,5.5,0,0,1,2.95.75,5.24,5.24,0,0,1,1.82,1.77l-.18.42.27-2.46h2.58v11.74h-2.79v-3.07l.33.68a3.77,3.77,0,0,1-.57.73,7.3,7.3,0,0,1-1.07.89,6,6,0,0,1-3.49,1.05Zm.75-2.18a4.75,4.75,0,0,0,1.89-.37,3.74,3.74,0,0,0,1.39-1,3.87,3.87,0,0,0,.77-1.59v-2.3a3.62,3.62,0,0,0-.84-1.49,4.3,4.3,0,0,0-1.44-1,4.77,4.77,0,0,0-1.83-.35,4.23,4.23,0,0,0-2.07.51,3.91,3.91,0,0,0-1.49,1.42,4,4,0,0,0-.55,2.12,3.88,3.88,0,0,0,.57,2.07,4.1,4.1,0,0,0,1.53,1.48A4.15,4.15,0,0,0,97.47,151.66Z"/><path class="cls-2" d="M115.17,159.4a8.66,8.66,0,0,1-2.45-.32,7.27,7.27,0,0,1-1.92-.85,16.87,16.87,0,0,1-1.66-1.19l1.65-1.81a8.85,8.85,0,0,0,2,1.33,5.29,5.29,0,0,0,2.28.48,5.65,5.65,0,0,0,2.38-.44,3.28,3.28,0,0,0,1.47-1.2,3.42,3.42,0,0,0,.53-1.79l0-3.17.24.51a4.55,4.55,0,0,1-2,2.05,6.57,6.57,0,0,1-3.42.84,6.27,6.27,0,0,1-3.12-.82,6.41,6.41,0,0,1-2.31-2.23,5.86,5.86,0,0,1-.87-3.16,5.93,5.93,0,0,1,.9-3.26,6.37,6.37,0,0,1,2.38-2.23,6.64,6.64,0,0,1,3.23-.8,7.09,7.09,0,0,1,3,.63,4.84,4.84,0,0,1,2,1.63l-.18.49.27-2.27h2.58v11.82a5.16,5.16,0,0,1-.86,2.89,6,6,0,0,1-2.46,2.09A8.58,8.58,0,0,1,115.17,159.4Zm-4.29-11.83a3.8,3.8,0,0,0,.58,2.07,4.18,4.18,0,0,0,1.56,1.48,4.37,4.37,0,0,0,2.15.54,4.87,4.87,0,0,0,2-.39,4.13,4.13,0,0,0,1.49-1.06,3.86,3.86,0,0,0,.84-1.5v-2.36a3.62,3.62,0,0,0-.9-1.47,4.56,4.56,0,0,0-1.5-1,4.8,4.8,0,0,0-1.92-.37A4.47,4.47,0,0,0,113,144a4.21,4.21,0,0,0-1.56,1.43A3.81,3.81,0,0,0,110.88,147.57Z"/><path class="cls-2" d="M127.11,131.61h2.82v21.95h-2.82Z"/><path class="cls-2" d="M134.58,137.56a1.32,1.32,0,0,1,.52-1.05,1.82,1.82,0,0,1,1.16-.42,1.77,1.77,0,0,1,1.14.42,1.33,1.33,0,0,1,.51,1.05,1.32,1.32,0,0,1-.51,1.07,1.81,1.81,0,0,1-1.14.41,1.87,1.87,0,0,1-1.16-.41A1.3,1.3,0,0,1,134.58,137.56Zm.18,4.26h2.82v11.74h-2.82Z"/><path class="cls-2" d="M155.39,153.78a7.45,7.45,0,0,1-2.56-.44,5,5,0,0,1-2.06-1.32l1.17-1.53a6.3,6.3,0,0,0,1.62,1.07,4.11,4.11,0,0,0,1.62.35,4.32,4.32,0,0,0,1.11-.14,1.84,1.84,0,0,0,.83-.48,1.25,1.25,0,0,0,.31-.88,1.23,1.23,0,0,0-.43-1,3.68,3.68,0,0,0-1.1-.58c-.44-.15-.92-.29-1.43-.42a5.45,5.45,0,0,1-2.35-1.34,2.87,2.87,0,0,1-.81-2.07,3.28,3.28,0,0,1,.5-1.74,3.78,3.78,0,0,1,1.48-1.33,5.06,5.06,0,0,1,2.4-.53,8.31,8.31,0,0,1,2.32.3,5.74,5.74,0,0,1,1.92,1l-1.12,1.64a3.45,3.45,0,0,0-1.27-.81,3.94,3.94,0,0,0-1.34-.27,3.22,3.22,0,0,0-1,.16,1.75,1.75,0,0,0-.75.45,1.05,1.05,0,0,0-.29.75,1.08,1.08,0,0,0,.41.95,3.63,3.63,0,0,0,1.09.59l1.35.45a7.25,7.25,0,0,1,1.63.68,3.64,3.64,0,0,1,1.15,1.05,2.64,2.64,0,0,1,.43,1.56,3.76,3.76,0,0,1-.52,1.94,3.63,3.63,0,0,1-1.59,1.42A6.16,6.16,0,0,1,155.39,153.78Z"/><path class="cls-2" d="M165.29,136.66h2.85v5.21h3.39v2.07h-3.39v9.62h-2.85v-9.62H163v-2.07h2.25Z"/><path class="cls-2" d="M178.88,154a4.09,4.09,0,0,1-2.83-1,3.44,3.44,0,0,1-1.16-2.54v-8.67h2.82v7.74a2.48,2.48,0,0,0,.6,1.54,2.2,2.2,0,0,0,1.68.64,3.13,3.13,0,0,0,1.85-.58,4.26,4.26,0,0,0,1.33-1.59,5,5,0,0,0,.51-2.28v-5.47h2.79v11.74h-2.55l-.24-2.9.18.54a4.57,4.57,0,0,1-1.11,1.43,5.15,5.15,0,0,1-1.72,1A6.11,6.11,0,0,1,178.88,154Z"/><path class="cls-2" d="M196.34,153.84a6.23,6.23,0,0,1-3.12-.78,5.84,5.84,0,0,1-2.2-2.21,6.53,6.53,0,0,1-.83-3.31,6.18,6.18,0,0,1,.87-3.34,5.72,5.72,0,0,1,2.34-2.13,7.27,7.27,0,0,1,3.3-.73,6.78,6.78,0,0,1,2.81.59,5.07,5.07,0,0,1,2.08,1.64l-.15.94v-12.9h2.79v21.95h-2.79v-2.92l.33.73a7,7,0,0,1-5.43,2.47Zm.87-2.24a4.56,4.56,0,0,0,2-.4,4.28,4.28,0,0,0,1.44-1.06,3.81,3.81,0,0,0,.82-1.57v-2.24a3.61,3.61,0,0,0-.85-1.51,4.17,4.17,0,0,0-1.47-1,4.89,4.89,0,0,0-1.91-.36,4.35,4.35,0,0,0-2.07.51,4,4,0,0,0-1.53,1.42,4.12,4.12,0,0,0,0,4.18,4.26,4.26,0,0,0,1.53,1.48A4.16,4.16,0,0,0,197.21,151.6Z"/><path class="cls-2" d="M208.88,137.56a1.33,1.33,0,0,1,.53-1.05,1.79,1.79,0,0,1,1.15-.42,1.75,1.75,0,0,1,1.14.42,1.33,1.33,0,0,1,.51,1.05,1.32,1.32,0,0,1-.51,1.07,1.79,1.79,0,0,1-1.14.41,1.84,1.84,0,0,1-1.15-.41A1.31,1.31,0,0,1,208.88,137.56Zm.18,4.26h2.82v11.74h-2.82Z"/><path class="cls-2" d="M226,137.56a1.33,1.33,0,0,1,.53-1.05,1.79,1.79,0,0,1,1.15-.42,1.75,1.75,0,0,1,1.14.42,1.33,1.33,0,0,1,.51,1.05,1.32,1.32,0,0,1-.51,1.07,1.79,1.79,0,0,1-1.14.41,1.84,1.84,0,0,1-1.15-.41A1.31,1.31,0,0,1,226,137.56Zm.18,4.26H229v11.74h-2.82Z"/><path class="cls-2" d="M236.39,141.82l.21,2.86-.09-.45a4.45,4.45,0,0,1,1.92-2.09,6.18,6.18,0,0,1,3.15-.78,4.23,4.23,0,0,1,2.87,1,3.29,3.29,0,0,1,1.15,2.54v8.68h-2.82v-7.77a2.33,2.33,0,0,0-.58-1.55,2.26,2.26,0,0,0-1.73-.61,3.49,3.49,0,0,0-1.93.57,3.87,3.87,0,0,0-1.38,1.56,5.08,5.08,0,0,0-.5,2.29v5.51h-2.82V141.82Z"/><path class="cls-2" d="M251.63,136.66h2.85v5.21h3.39v2.07h-3.39v9.62h-2.85v-9.62h-2.25v-2.07h2.25Z"/><path class="cls-2" d="M267,153.84a7.73,7.73,0,0,1-3.66-.81,5.89,5.89,0,0,1-2.37-2.21,6.16,6.16,0,0,1-.84-3.22,5.58,5.58,0,0,1,1-3.15,6.9,6.9,0,0,1,2.5-2.26,7.12,7.12,0,0,1,3.48-.85,6.11,6.11,0,0,1,4.08,1.36,6.89,6.89,0,0,1,2.22,3.74l-10.26,3.4-.66-1.56,8.37-2.92-.57.4a3.85,3.85,0,0,0-1.2-1.62,3.39,3.39,0,0,0-2.19-.68,4,4,0,0,0-2,.51,3.72,3.72,0,0,0-1.4,1.41,4.11,4.11,0,0,0-.51,2.08,4.31,4.31,0,0,0,.53,2.13,3.75,3.75,0,0,0,1.47,1.46,4.32,4.32,0,0,0,2.14.52,4.5,4.5,0,0,0,1.58-.28,7.34,7.34,0,0,0,1.45-.74l1.26,2a9.24,9.24,0,0,1-2.08,1A7.33,7.33,0,0,1,267,153.84Z"/><path class="cls-2" d="M279.38,141.82l.21,2.86-.09-.45a4.45,4.45,0,0,1,1.92-2.09,6.18,6.18,0,0,1,3.15-.78,4.23,4.23,0,0,1,2.87,1,3.29,3.29,0,0,1,1.15,2.54v8.68h-2.82v-7.77a2.33,2.33,0,0,0-.58-1.55,2.26,2.26,0,0,0-1.73-.61,3.49,3.49,0,0,0-1.93.57,3.87,3.87,0,0,0-1.38,1.56,5.08,5.08,0,0,0-.5,2.29v5.51h-2.82V141.82Z"/><path class="cls-2" d="M296.93,153.78a7.45,7.45,0,0,1-2.56-.44,5,5,0,0,1-2.06-1.32l1.17-1.53a6.3,6.3,0,0,0,1.62,1.07,4.11,4.11,0,0,0,1.62.35,4.32,4.32,0,0,0,1.11-.14,1.84,1.84,0,0,0,.83-.48,1.25,1.25,0,0,0,.31-.88,1.23,1.23,0,0,0-.43-1,3.68,3.68,0,0,0-1.1-.58q-.66-.23-1.44-.42a5.47,5.47,0,0,1-2.34-1.34,2.87,2.87,0,0,1-.81-2.07,3.28,3.28,0,0,1,.5-1.74,3.71,3.71,0,0,1,1.48-1.33,5.06,5.06,0,0,1,2.4-.53,8.19,8.19,0,0,1,2.31.3,5.55,5.55,0,0,1,1.92,1l-1.11,1.64a3.45,3.45,0,0,0-1.27-.81,3.94,3.94,0,0,0-1.34-.27,3.22,3.22,0,0,0-1,.16,1.75,1.75,0,0,0-.75.45,1.05,1.05,0,0,0-.29.75,1.08,1.08,0,0,0,.41.95,3.63,3.63,0,0,0,1.09.59l1.35.45a7,7,0,0,1,1.62.68,3.57,3.57,0,0,1,1.16,1.05,2.64,2.64,0,0,1,.43,1.56,3.76,3.76,0,0,1-.52,1.94,3.63,3.63,0,0,1-1.59,1.42A6.16,6.16,0,0,1,296.93,153.78Z"/><path class="cls-2" d="M305.45,137.56a1.33,1.33,0,0,1,.53-1.05,1.79,1.79,0,0,1,1.15-.42,1.75,1.75,0,0,1,1.14.42,1.33,1.33,0,0,1,.51,1.05,1.32,1.32,0,0,1-.51,1.07,1.79,1.79,0,0,1-1.14.41,1.84,1.84,0,0,1-1.15-.41A1.31,1.31,0,0,1,305.45,137.56Zm.18,4.26h2.82v11.74h-2.82Z"/><path class="cls-2" d="M318.35,153.9l-6.9-12.08h3.33l4.65,9.33-1.71-.09,4.29-9.24h3.12L318.5,153.9Z"/><path class="cls-2" d="M327.92,137.56a1.3,1.3,0,0,1,.53-1.05,1.79,1.79,0,0,1,1.15-.42,1.75,1.75,0,0,1,1.14.42,1.33,1.33,0,0,1,.51,1.05,1.32,1.32,0,0,1-.51,1.07,1.79,1.79,0,0,1-1.14.41,1.84,1.84,0,0,1-1.15-.41A1.28,1.28,0,0,1,327.92,137.56Zm.18,4.26h2.82v11.74H328.1Z"/><path class="cls-2" d="M338.33,151.06,337,154l-1.3,3h-2.31c.42-1,.82-2,1.2-3s.76-2,1.14-3Z"/><path class="cls-2" d="M351.32,131.61h2.82v21.95h-2.82Z"/><path class="cls-2" d="M364.16,153.84a7.06,7.06,0,0,1-3.17-.71,5.46,5.46,0,0,1-2.26-2.08,7.13,7.13,0,0,1,0-6.77,5.92,5.92,0,0,1,2.34-2.18,6.84,6.84,0,0,1,3.21-.76,5.5,5.5,0,0,1,2.95.75,5.24,5.24,0,0,1,1.82,1.77l-.18.42.27-2.46h2.58v11.74H369v-3.07l.33.68a3.77,3.77,0,0,1-.57.73,7.3,7.3,0,0,1-1.07.89,6,6,0,0,1-3.49,1.05Zm.75-2.18a4.75,4.75,0,0,0,1.89-.37,3.74,3.74,0,0,0,1.39-1,3.87,3.87,0,0,0,.77-1.59v-2.3a3.62,3.62,0,0,0-.84-1.49,4.3,4.3,0,0,0-1.44-1,4.77,4.77,0,0,0-1.83-.35,4.23,4.23,0,0,0-2.07.51,3.91,3.91,0,0,0-1.49,1.42,4,4,0,0,0-.55,2.12,3.88,3.88,0,0,0,.57,2.07,4.1,4.1,0,0,0,1.53,1.48A4.15,4.15,0,0,0,364.91,151.66Z"/><path class="cls-2" d="M381.65,153.9l-6.9-12.08h3.33l4.65,9.33-1.71-.09,4.29-9.24h3.12L381.8,153.9Z"/><path class="cls-2" d="M390,147.57a5.84,5.84,0,0,1,.88-3.17,6.21,6.21,0,0,1,2.46-2.24,7.63,7.63,0,0,1,3.59-.82,7.34,7.34,0,0,1,3.54.82,6.19,6.19,0,0,1,2.38,8.59,6.14,6.14,0,0,1-2.38,2.25,7.3,7.3,0,0,1-3.57.84,7.81,7.81,0,0,1-3.56-.78,6.14,6.14,0,0,1-2.44-2.18A6,6,0,0,1,390,147.57Zm2.82,0a4,4,0,0,0,.54,2.06,4.11,4.11,0,0,0,1.44,1.46,3.89,3.89,0,0,0,2,.54,3.89,3.89,0,0,0,3.49-2,4.25,4.25,0,0,0,0-4.11,4,4,0,0,0-1.42-1.48,4.09,4.09,0,0,0-4.13,0,4.08,4.08,0,0,0-1.44,1.48A4,4,0,0,0,392.84,147.6Z"/><path class="cls-2" d="M410,141.82l.27,3.4-.12-.48a5.21,5.21,0,0,1,1.38-1.82,6.84,6.84,0,0,1,1.92-1.16,5.42,5.42,0,0,1,1.74-.42L415,144a4.29,4.29,0,0,0-2.51.5,4.65,4.65,0,0,0-1.68,1.58,3.93,3.93,0,0,0-.61,2.12v5.36h-2.79V141.82Z"/><path class="cls-2" d="M423.47,153.84a7.06,7.06,0,0,1-3.17-.71,5.46,5.46,0,0,1-2.26-2.08,7.13,7.13,0,0,1,0-6.77,5.92,5.92,0,0,1,2.34-2.18,6.84,6.84,0,0,1,3.21-.76,5.5,5.5,0,0,1,2.95.75,5.24,5.24,0,0,1,1.82,1.77l-.18.42.27-2.46h2.58v11.74h-2.79v-3.07l.33.68a3.77,3.77,0,0,1-.57.73,7.3,7.3,0,0,1-1.07.89,6,6,0,0,1-3.49,1.05Zm.75-2.18a4.75,4.75,0,0,0,1.89-.37,3.74,3.74,0,0,0,1.39-1,3.87,3.87,0,0,0,.77-1.59v-2.3a3.62,3.62,0,0,0-.84-1.49,4.3,4.3,0,0,0-1.44-1,4.77,4.77,0,0,0-1.83-.35,4.23,4.23,0,0,0-2.07.51,3.91,3.91,0,0,0-1.49,1.42,4,4,0,0,0-.55,2.12,3.88,3.88,0,0,0,.57,2.07,4.1,4.1,0,0,0,1.53,1.48A4.15,4.15,0,0,0,424.22,151.66Z"/><path class="cls-2" d="M452.72,153.84a6.32,6.32,0,0,1-2.72-.62,4.81,4.81,0,0,1-2-1.68l.15-.82v8.48h-2.79V141.65h2.43l.39,3-.3-.85a7,7,0,0,1,2.28-1.77,6.81,6.81,0,0,1,3.09-.69,6.29,6.29,0,0,1,3.13.77,5.75,5.75,0,0,1,2.21,2.22,6.62,6.62,0,0,1,.81,3.33,6.05,6.05,0,0,1-.87,3.27,5.74,5.74,0,0,1-2.39,2.16A7.62,7.62,0,0,1,452.72,153.84Zm-.54-2.1a4.6,4.6,0,0,0,2.19-.52,4.38,4.38,0,0,0,1.6-1.45,3.66,3.66,0,0,0,.62-2.08,4,4,0,0,0-.57-2.12,4.12,4.12,0,0,0-1.52-1.44,4.26,4.26,0,0,0-2.11-.53,4.72,4.72,0,0,0-1.95.39,3.86,3.86,0,0,0-1.44,1.06,4,4,0,0,0-.81,1.62v2a3.38,3.38,0,0,0,.72,1.56,4,4,0,0,0,1.42,1.12A4.28,4.28,0,0,0,452.18,151.74Z"/><path class="cls-2" d="M468.35,153.84a7.06,7.06,0,0,1-3.17-.71,5.46,5.46,0,0,1-2.26-2.08,7.13,7.13,0,0,1,0-6.77,5.92,5.92,0,0,1,2.34-2.18,6.84,6.84,0,0,1,3.21-.76,5.5,5.5,0,0,1,2.95.75,5.24,5.24,0,0,1,1.82,1.77l-.18.42.27-2.46h2.58v11.74h-2.79v-3.07l.33.68a3.77,3.77,0,0,1-.57.73,7.3,7.3,0,0,1-1.07.89,6,6,0,0,1-3.49,1.05Zm.75-2.18a4.75,4.75,0,0,0,1.89-.37,3.74,3.74,0,0,0,1.39-1,3.87,3.87,0,0,0,.77-1.59v-2.3a3.62,3.62,0,0,0-.84-1.49,4.3,4.3,0,0,0-1.44-1,4.77,4.77,0,0,0-1.83-.35A4.23,4.23,0,0,0,467,144a3.91,3.91,0,0,0-1.49,1.42,4,4,0,0,0-.55,2.12,3.88,3.88,0,0,0,.57,2.07,4.1,4.1,0,0,0,1.53,1.48A4.15,4.15,0,0,0,469.1,151.66Z"/><path class="cls-2" d="M483.29,141.82l.27,3.4-.12-.48a5.21,5.21,0,0,1,1.38-1.82,6.7,6.7,0,0,1,1.92-1.16,5.42,5.42,0,0,1,1.74-.42l-.12,2.66a4.29,4.29,0,0,0-2.51.5,4.65,4.65,0,0,0-1.68,1.58,3.93,3.93,0,0,0-.61,2.12v5.36h-2.79V141.82Z"/><path class="cls-2" d="M493.24,136.66h2.85v5.21h3.39v2.07h-3.39v9.62h-2.85v-9.62H491v-2.07h2.25Z"/><path class="cls-2" d="M502,146.3h5.61v2.32H502Z"/><path class="cls-2" d="M513.16,136.66H516v5.21h3.39v2.07H516v9.62h-2.85v-9.62h-2.25v-2.07h2.25Z"/><path class="cls-2" d="M522.58,137.56a1.33,1.33,0,0,1,.53-1.05,1.79,1.79,0,0,1,1.15-.42,1.75,1.75,0,0,1,1.14.42,1.33,1.33,0,0,1,.51,1.05,1.32,1.32,0,0,1-.51,1.07,1.79,1.79,0,0,1-1.14.41,1.84,1.84,0,0,1-1.15-.41A1.31,1.31,0,0,1,522.58,137.56Zm.18,4.26h2.82v11.74h-2.82Z"/><path class="cls-2" d="M533,141.82l.24,2.63-.15-.22a5.36,5.36,0,0,1,2-2.12,5.53,5.53,0,0,1,3-.77,4.81,4.81,0,0,1,1.83.32,3.58,3.58,0,0,1,1.34.91,2.78,2.78,0,0,1,.67,1.4l-.15.12a5.14,5.14,0,0,1,2-2,5.36,5.36,0,0,1,2.68-.72,4.1,4.1,0,0,1,2.9,1,3.48,3.48,0,0,1,1.12,2.52v8.71h-2.82v-7.74a2.68,2.68,0,0,0-.46-1.52,1.8,1.8,0,0,0-1.52-.64,3.21,3.21,0,0,0-1.93.61,4.09,4.09,0,0,0-1.32,1.59,5.22,5.22,0,0,0-.5,2.14v5.56H539v-7.74a2.55,2.55,0,0,0-.49-1.52,1.89,1.89,0,0,0-1.55-.64,3.16,3.16,0,0,0-1.92.61,4.23,4.23,0,0,0-1.32,1.6,4.88,4.88,0,0,0-.48,2.16v5.53h-2.82V141.82Z"/><path class="cls-2" d="M561,153.84a7.73,7.73,0,0,1-3.66-.81,5.89,5.89,0,0,1-2.37-2.21,6.16,6.16,0,0,1-.84-3.22,5.58,5.58,0,0,1,.95-3.15,6.9,6.9,0,0,1,2.5-2.26,7.12,7.12,0,0,1,3.48-.85,6.11,6.11,0,0,1,4.08,1.36,6.89,6.89,0,0,1,2.22,3.74l-10.26,3.4-.66-1.56,8.37-2.92-.57.4a3.85,3.85,0,0,0-1.2-1.62,3.39,3.39,0,0,0-2.19-.68,4,4,0,0,0-2,.51,3.72,3.72,0,0,0-1.4,1.41,4.11,4.11,0,0,0-.51,2.08,4.31,4.31,0,0,0,.53,2.13,3.75,3.75,0,0,0,1.47,1.46,4.32,4.32,0,0,0,2.14.52,4.5,4.5,0,0,0,1.58-.28,7.34,7.34,0,0,0,1.45-.74l1.26,2a9.24,9.24,0,0,1-2.08,1A7.33,7.33,0,0,1,561,153.84Z"/><path class="cls-2" d="M587.59,153.84a6.28,6.28,0,0,1-2.71-.62,4.84,4.84,0,0,1-2-1.68l.15-.82v8.48h-2.79V141.65h2.43l.39,3-.3-.85A7,7,0,0,1,585,142a6.81,6.81,0,0,1,3.09-.69,6.33,6.33,0,0,1,3.14.77,5.73,5.73,0,0,1,2.2,2.22,6.62,6.62,0,0,1,.81,3.33,6.05,6.05,0,0,1-.87,3.27,5.72,5.72,0,0,1-2.38,2.16A7.66,7.66,0,0,1,587.59,153.84Zm-.54-2.1a4.6,4.6,0,0,0,2.19-.52,4.41,4.41,0,0,0,1.61-1.45,3.65,3.65,0,0,0,.61-2.08,4,4,0,0,0-.57-2.12,4.09,4.09,0,0,0-1.51-1.44,4.3,4.3,0,0,0-2.12-.53,4.72,4.72,0,0,0-2,.39,3.86,3.86,0,0,0-1.44,1.06,4,4,0,0,0-.81,1.62v2a3.38,3.38,0,0,0,.72,1.56,4.06,4.06,0,0,0,1.43,1.12A4.24,4.24,0,0,0,587.05,151.74Z"/><path class="cls-2" d="M603.82,153.84a7.73,7.73,0,0,1-3.66-.81,5.89,5.89,0,0,1-2.37-2.21,6.16,6.16,0,0,1-.84-3.22,5.58,5.58,0,0,1,.95-3.15,6.9,6.9,0,0,1,2.5-2.26,7.12,7.12,0,0,1,3.48-.85A6.11,6.11,0,0,1,608,142.7a6.89,6.89,0,0,1,2.22,3.74l-10.26,3.4-.66-1.56,8.37-2.92-.57.4a3.85,3.85,0,0,0-1.2-1.62,3.39,3.39,0,0,0-2.19-.68,4,4,0,0,0-2,.51,3.72,3.72,0,0,0-1.4,1.41,4.11,4.11,0,0,0-.51,2.08,4.31,4.31,0,0,0,.53,2.13,3.75,3.75,0,0,0,1.47,1.46,4.32,4.32,0,0,0,2.14.52,4.5,4.5,0,0,0,1.58-.28,7.34,7.34,0,0,0,1.45-.74l1.26,2a9.24,9.24,0,0,1-2.08,1A7.33,7.33,0,0,1,603.82,153.84Z"/><path class="cls-2" d="M616.15,141.82l.27,3.4-.12-.48a5.21,5.21,0,0,1,1.38-1.82,6.84,6.84,0,0,1,1.92-1.16,5.42,5.42,0,0,1,1.74-.42l-.12,2.66a4.26,4.26,0,0,0-2.5.5,4.65,4.65,0,0,0-1.68,1.58,3.94,3.94,0,0,0-.62,2.12v5.36h-2.79V141.82Z"/><path class="cls-2" d="M28.26,187.86a6.28,6.28,0,0,1-2.71-.62,4.82,4.82,0,0,1-2-1.67l.15-.83v8.48H20.91V175.67h2.43l.39,3-.3-.85a7.15,7.15,0,0,1,2.28-1.78,6.81,6.81,0,0,1,3.09-.69,6.27,6.27,0,0,1,3.13.78,5.66,5.66,0,0,1,2.21,2.21,6.65,6.65,0,0,1,.81,3.33,6.11,6.11,0,0,1-.87,3.28,5.79,5.79,0,0,1-2.39,2.15A7.62,7.62,0,0,1,28.26,187.86Zm-.54-2.1a4.6,4.6,0,0,0,2.19-.52,4.29,4.29,0,0,0,1.6-1.45,3.57,3.57,0,0,0,.62-2.08,3.92,3.92,0,0,0-.57-2.11,4,4,0,0,0-1.51-1.45,4.3,4.3,0,0,0-2.12-.52A4.88,4.88,0,0,0,26,178a4,4,0,0,0-1.44,1.06,4.12,4.12,0,0,0-.81,1.62v2a3.38,3.38,0,0,0,.72,1.56,3.86,3.86,0,0,0,1.43,1.12A4.07,4.07,0,0,0,27.72,185.76Z"/><path class="cls-2" d="M43.89,187.86a7,7,0,0,1-3.17-.71,5.39,5.39,0,0,1-2.26-2.08,7.11,7.11,0,0,1,0-6.76,5.94,5.94,0,0,1,2.34-2.19,6.84,6.84,0,0,1,3.21-.76,5.56,5.56,0,0,1,3,.75,5.3,5.3,0,0,1,1.81,1.77l-.18.43.27-2.47h2.58v11.74H48.69v-3.06l.33.68a3.49,3.49,0,0,1-.57.72,7.74,7.74,0,0,1-1.06.89,6,6,0,0,1-1.52.76A6.35,6.35,0,0,1,43.89,187.86Zm.75-2.18a4.59,4.59,0,0,0,1.89-.37,3.65,3.65,0,0,0,1.4-1.05,3.79,3.79,0,0,0,.76-1.59v-2.29a3.5,3.5,0,0,0-.84-1.49,4,4,0,0,0-1.44-1,4.6,4.6,0,0,0-1.83-.36,4.23,4.23,0,0,0-2.07.51,3.87,3.87,0,0,0-2,3.55,3.93,3.93,0,0,0,.57,2.07,4.22,4.22,0,0,0,3.6,2Z"/><path class="cls-2" d="M62.34,193.42a8.68,8.68,0,0,1-2.45-.31,7.61,7.61,0,0,1-1.92-.85,18.71,18.71,0,0,1-1.66-1.19L58,189.25a8.85,8.85,0,0,0,2,1.33,5.15,5.15,0,0,0,2.28.49,5.81,5.81,0,0,0,2.38-.44,3.22,3.22,0,0,0,2-3l0-3.18.24.51A4.62,4.62,0,0,1,65,187a6.66,6.66,0,0,1-3.42.83,6.17,6.17,0,0,1-3.12-.82,6.41,6.41,0,0,1-2.31-2.23,5.84,5.84,0,0,1-.87-3.16,6,6,0,0,1,.9-3.26,6.43,6.43,0,0,1,2.38-2.22,6.65,6.65,0,0,1,3.23-.81,6.94,6.94,0,0,1,3,.64,4.77,4.77,0,0,1,2,1.63l-.18.48.27-2.27h2.58v11.82a5.19,5.19,0,0,1-.86,2.9,6,6,0,0,1-2.46,2.08A8.58,8.58,0,0,1,62.34,193.42ZM58.05,181.6a3.85,3.85,0,0,0,.58,2.07,4.24,4.24,0,0,0,1.56,1.47,4.37,4.37,0,0,0,2.15.54,5,5,0,0,0,2-.38,4.15,4.15,0,0,0,1.49-1.07,3.86,3.86,0,0,0,.84-1.5v-2.35a3.59,3.59,0,0,0-.9-1.48,4.9,4.9,0,0,0-1.5-1,5,5,0,0,0-1.92-.37,4.47,4.47,0,0,0-2.15.53,4.13,4.13,0,0,0-1.56,1.43A3.76,3.76,0,0,0,58.05,181.6Z"/><path class="cls-2" d="M79.47,187.86a6.93,6.93,0,0,1-3.17-.71A5.39,5.39,0,0,1,74,185.07a7.11,7.11,0,0,1,0-6.76,5.94,5.94,0,0,1,2.34-2.19,6.84,6.84,0,0,1,3.21-.76,5.5,5.5,0,0,1,2.95.75,5.24,5.24,0,0,1,1.82,1.77l-.18.43.27-2.47h2.58v11.74H84.27v-3.06l.33.68a3.49,3.49,0,0,1-.57.72,7.3,7.3,0,0,1-1.07.89,5.77,5.77,0,0,1-1.51.76A6.35,6.35,0,0,1,79.47,187.86Zm.75-2.18a4.59,4.59,0,0,0,1.89-.37,3.54,3.54,0,0,0,1.39-1.05,3.81,3.81,0,0,0,.77-1.59v-2.29a3.5,3.5,0,0,0-.84-1.49,4,4,0,0,0-1.44-1,4.6,4.6,0,0,0-1.83-.36,4.23,4.23,0,0,0-2.07.51,3.87,3.87,0,0,0-2,3.55,3.93,3.93,0,0,0,.57,2.07,4.22,4.22,0,0,0,3.6,2Z"/><path class="cls-2" d="M94.41,175.84l.27,3.4-.12-.48A5.17,5.17,0,0,1,95.94,177a6.88,6.88,0,0,1,1.92-1.17,5.7,5.7,0,0,1,1.74-.42L99.48,178a4.29,4.29,0,0,0-2.51.5,4.76,4.76,0,0,0-1.68,1.59,3.87,3.87,0,0,0-.61,2.11v5.36H91.89V175.84Z"/><path class="cls-2" d="M106.68,187.81a7.76,7.76,0,0,1-2.57-.44,5.12,5.12,0,0,1-2-1.32l1.17-1.53a6.51,6.51,0,0,0,1.62,1.06,4.13,4.13,0,0,0,2.73.21,1.65,1.65,0,0,0,.82-.48,1.25,1.25,0,0,0,.32-.88,1.21,1.21,0,0,0-.44-1,3.63,3.63,0,0,0-1.09-.59q-.66-.22-1.44-.42a5.46,5.46,0,0,1-2.34-1.33,2.9,2.9,0,0,1-.81-2.07,3.28,3.28,0,0,1,.49-1.75,3.74,3.74,0,0,1,1.49-1.33,5.07,5.07,0,0,1,2.4-.52,8.2,8.2,0,0,1,2.31.29,5.73,5.73,0,0,1,1.92,1l-1.11,1.64a3.6,3.6,0,0,0-1.28-.8,3.89,3.89,0,0,0-1.33-.27,3.29,3.29,0,0,0-1,.15,1.87,1.87,0,0,0-.75.46,1,1,0,0,0-.28.75,1.08,1.08,0,0,0,.4.95,3.68,3.68,0,0,0,1.1.58l1.35.45a7,7,0,0,1,1.62.68,3.77,3.77,0,0,1,1.15,1.05,2.68,2.68,0,0,1,.44,1.56,3.75,3.75,0,0,1-.53,1.94,3.63,3.63,0,0,1-1.59,1.42A6.11,6.11,0,0,1,106.68,187.81Z"/><path class="cls-2" d="M115.2,171.59a1.29,1.29,0,0,1,.52-1.05,1.83,1.83,0,0,1,1.16-.43,1.76,1.76,0,0,1,1.14.43,1.35,1.35,0,0,1,0,2.11,1.74,1.74,0,0,1-1.14.41,1.81,1.81,0,0,1-1.16-.41A1.28,1.28,0,0,1,115.2,171.59Zm.18,4.25h2.82v11.74h-2.82Z"/><path class="cls-2" d="M138.54,193.42a8.68,8.68,0,0,1-2.45-.31,7.61,7.61,0,0,1-1.92-.85,18.71,18.71,0,0,1-1.66-1.19l1.65-1.82a8.85,8.85,0,0,0,2,1.33,5.15,5.15,0,0,0,2.28.49,5.81,5.81,0,0,0,2.38-.44,3.22,3.22,0,0,0,2-3l0-3.18.24.51a4.62,4.62,0,0,1-1.95,2.06,6.66,6.66,0,0,1-3.42.83,6.17,6.17,0,0,1-3.12-.82,6.41,6.41,0,0,1-2.31-2.23,5.84,5.84,0,0,1-.87-3.16,6,6,0,0,1,.9-3.26,6.43,6.43,0,0,1,2.38-2.22,6.65,6.65,0,0,1,3.23-.81,6.94,6.94,0,0,1,3,.64,4.77,4.77,0,0,1,2,1.63l-.18.48.27-2.27h2.58v11.82a5.19,5.19,0,0,1-.86,2.9,6,6,0,0,1-2.46,2.08A8.58,8.58,0,0,1,138.54,193.42Zm-4.29-11.82a3.85,3.85,0,0,0,.58,2.07,4.24,4.24,0,0,0,1.56,1.47,4.37,4.37,0,0,0,2.15.54,5,5,0,0,0,2-.38,4.15,4.15,0,0,0,1.49-1.07,3.86,3.86,0,0,0,.84-1.5v-2.35a3.59,3.59,0,0,0-.9-1.48,4.9,4.9,0,0,0-1.5-1,5,5,0,0,0-1.92-.37,4.47,4.47,0,0,0-2.15.53,4.13,4.13,0,0,0-1.56,1.43A3.76,3.76,0,0,0,134.25,181.6Z"/><path class="cls-2" d="M150.48,165.63h2.82v22h-2.82Z"/><path class="cls-2" d="M158,171.59a1.29,1.29,0,0,1,.52-1.05,1.83,1.83,0,0,1,1.16-.43,1.76,1.76,0,0,1,1.14.43,1.35,1.35,0,0,1,0,2.11,1.74,1.74,0,0,1-1.14.41,1.81,1.81,0,0,1-1.16-.41A1.28,1.28,0,0,1,158,171.59Zm.18,4.25H161v11.74h-2.82Z"/><path class="cls-2" d="M178.76,187.81a7.7,7.7,0,0,1-2.56-.44,5.16,5.16,0,0,1-2.06-1.32l1.17-1.53a6.51,6.51,0,0,0,1.62,1.06,4.13,4.13,0,0,0,2.73.21,1.68,1.68,0,0,0,.83-.48,1.25,1.25,0,0,0,.31-.88,1.21,1.21,0,0,0-.43-1,3.69,3.69,0,0,0-1.1-.59c-.44-.15-.92-.29-1.43-.42a5.44,5.44,0,0,1-2.35-1.33,2.9,2.9,0,0,1-.81-2.07,3.29,3.29,0,0,1,.5-1.75,3.78,3.78,0,0,1,1.48-1.33,5.07,5.07,0,0,1,2.4-.52,8.32,8.32,0,0,1,2.32.29,5.92,5.92,0,0,1,1.92,1l-1.12,1.64a3.56,3.56,0,0,0-1.27-.8,3.94,3.94,0,0,0-1.34-.27,3.27,3.27,0,0,0-1,.15,1.87,1.87,0,0,0-.75.46,1,1,0,0,0-.29.75,1.09,1.09,0,0,0,.41.95,3.62,3.62,0,0,0,1.09.58l1.36.45a7.37,7.37,0,0,1,1.62.68,3.89,3.89,0,0,1,1.15,1.05,2.68,2.68,0,0,1,.43,1.56,3.74,3.74,0,0,1-.52,1.94,3.63,3.63,0,0,1-1.59,1.42A6.16,6.16,0,0,1,178.76,187.81Z"/><path class="cls-2" d="M188.66,170.68h2.85v5.22h3.39V178h-3.39v9.61h-2.85V178h-2.25V175.9h2.25Z"/><path class="cls-2" d="M202.25,188a4,4,0,0,1-2.83-1,3.42,3.42,0,0,1-1.16-2.53v-8.68h2.82v7.74a2.5,2.5,0,0,0,.6,1.55,2.2,2.2,0,0,0,1.68.63,3.13,3.13,0,0,0,1.85-.58,4.15,4.15,0,0,0,1.33-1.58,5,5,0,0,0,.51-2.29v-5.47h2.79v11.74h-2.55l-.24-2.89.18.54a4.69,4.69,0,0,1-1.11,1.43,5.3,5.3,0,0,1-1.72,1A6.11,6.11,0,0,1,202.25,188Z"/><path class="cls-2" d="M219.71,187.86a6.23,6.23,0,0,1-3.12-.78,5.77,5.77,0,0,1-2.2-2.21,6.47,6.47,0,0,1-.83-3.3,6.19,6.19,0,0,1,.87-3.35,5.77,5.77,0,0,1,2.34-2.12,7.15,7.15,0,0,1,3.3-.74,6.94,6.94,0,0,1,2.81.59A5,5,0,0,1,225,177.6l-.15.93v-12.9h2.79v22h-2.79v-2.92l.33.74a7,7,0,0,1-5.43,2.46Zm.87-2.24a4.71,4.71,0,0,0,2-.39,4.31,4.31,0,0,0,1.44-1.07,3.81,3.81,0,0,0,.82-1.57v-2.24a3.51,3.51,0,0,0-.85-1.5,4.2,4.2,0,0,0-1.47-1,4.89,4.89,0,0,0-1.91-.35,4.35,4.35,0,0,0-2.07.51,4,4,0,0,0-1.53,1.41,4.14,4.14,0,0,0,0,4.19,4.31,4.31,0,0,0,1.53,1.47A4.06,4.06,0,0,0,220.58,185.62Z"/><path class="cls-2" d="M232.25,171.59a1.3,1.3,0,0,1,.53-1.05,1.81,1.81,0,0,1,1.15-.43,1.76,1.76,0,0,1,1.14.43,1.35,1.35,0,0,1,0,2.11,1.74,1.74,0,0,1-1.14.41,1.78,1.78,0,0,1-1.15-.41A1.29,1.29,0,0,1,232.25,171.59Zm.18,4.25h2.82v11.74h-2.82Z"/><path class="cls-2" d="M255.35,187.86a7.73,7.73,0,0,1-3.66-.81,5.82,5.82,0,0,1-2.37-2.21,6.1,6.1,0,0,1-.84-3.21,5.54,5.54,0,0,1,1-3.15,6.93,6.93,0,0,1,2.5-2.27,7.12,7.12,0,0,1,3.48-.85,6.11,6.11,0,0,1,4.08,1.36,6.93,6.93,0,0,1,2.22,3.74l-10.26,3.4-.66-1.55,8.37-2.92-.57.39a3.82,3.82,0,0,0-1.2-1.61,3.33,3.33,0,0,0-2.19-.68,4,4,0,0,0-2,.51,3.69,3.69,0,0,0-1.4,1.4,4.11,4.11,0,0,0-.51,2.08,4.26,4.26,0,0,0,.53,2.13,3.75,3.75,0,0,0,1.47,1.46,4.32,4.32,0,0,0,2.14.52,4.5,4.5,0,0,0,1.58-.28,6.84,6.84,0,0,0,1.45-.74l1.26,2a8.44,8.44,0,0,1-2.08,1A7.33,7.33,0,0,1,255.35,187.86Z"/><path class="cls-2" d="M274.64,165.63h2.82v22h-2.82Z"/><path class="cls-2" d="M288.08,187.86a7.73,7.73,0,0,1-3.66-.81,5.82,5.82,0,0,1-2.37-2.21,6.1,6.1,0,0,1-.84-3.21,5.54,5.54,0,0,1,1-3.15,6.93,6.93,0,0,1,2.5-2.27,7.12,7.12,0,0,1,3.48-.85,6.11,6.11,0,0,1,4.08,1.36,6.93,6.93,0,0,1,2.22,3.74l-10.26,3.4-.66-1.55,8.37-2.92-.57.39a3.82,3.82,0,0,0-1.2-1.61,3.33,3.33,0,0,0-2.19-.68,4,4,0,0,0-2,.51,3.69,3.69,0,0,0-1.4,1.4,4.11,4.11,0,0,0-.51,2.08,4.26,4.26,0,0,0,.53,2.13,3.75,3.75,0,0,0,1.47,1.46,4.32,4.32,0,0,0,2.14.52,4.5,4.5,0,0,0,1.58-.28,6.84,6.84,0,0,0,1.45-.74l1.26,2a8.44,8.44,0,0,1-2.08,1A7.33,7.33,0,0,1,288.08,187.86Z"/><path class="cls-2" d="M310.88,187.81a7.7,7.7,0,0,1-2.56-.44,5.16,5.16,0,0,1-2.06-1.32l1.17-1.53a6.51,6.51,0,0,0,1.62,1.06,4.13,4.13,0,0,0,2.73.21,1.68,1.68,0,0,0,.83-.48,1.25,1.25,0,0,0,.31-.88,1.21,1.21,0,0,0-.43-1,3.69,3.69,0,0,0-1.1-.59q-.66-.22-1.44-.42a5.46,5.46,0,0,1-2.34-1.33,2.9,2.9,0,0,1-.81-2.07,3.29,3.29,0,0,1,.5-1.75,3.71,3.71,0,0,1,1.48-1.33,5.07,5.07,0,0,1,2.4-.52,8.2,8.2,0,0,1,2.31.29,5.73,5.73,0,0,1,1.92,1l-1.11,1.64a3.56,3.56,0,0,0-1.27-.8,3.94,3.94,0,0,0-1.34-.27,3.22,3.22,0,0,0-1,.15,1.87,1.87,0,0,0-.75.46,1,1,0,0,0-.29.75,1.09,1.09,0,0,0,.41.95,3.62,3.62,0,0,0,1.09.58l1.35.45a7,7,0,0,1,1.62.68,3.81,3.81,0,0,1,1.16,1.05,2.68,2.68,0,0,1,.43,1.56,3.74,3.74,0,0,1-.52,1.94,3.63,3.63,0,0,1-1.59,1.42A6.16,6.16,0,0,1,310.88,187.81Z"/><path class="cls-2" d="M326.93,187.86a6.28,6.28,0,0,1-2.71-.62,4.82,4.82,0,0,1-2-1.67l.15-.83v8.48h-2.79V175.67H322l.39,3-.3-.85a7.15,7.15,0,0,1,2.28-1.78,6.81,6.81,0,0,1,3.09-.69,6.33,6.33,0,0,1,3.14.78,5.7,5.7,0,0,1,2.2,2.21,6.65,6.65,0,0,1,.81,3.33,6.11,6.11,0,0,1-.87,3.28,5.76,5.76,0,0,1-2.38,2.15A7.66,7.66,0,0,1,326.93,187.86Zm-.54-2.1a4.6,4.6,0,0,0,2.19-.52,4.32,4.32,0,0,0,1.61-1.45,3.63,3.63,0,0,0,.61-2.08,3.92,3.92,0,0,0-.57-2.11,4,4,0,0,0-1.51-1.45,4.3,4.3,0,0,0-2.12-.52,4.88,4.88,0,0,0-2,.38,4,4,0,0,0-1.44,1.06,4.12,4.12,0,0,0-.81,1.62v2a3.38,3.38,0,0,0,.72,1.56,4,4,0,0,0,1.43,1.12A4.1,4.1,0,0,0,326.39,185.76Z"/><path class="cls-2" d="M343.16,187.86a7.73,7.73,0,0,1-3.66-.81,5.82,5.82,0,0,1-2.37-2.21,6.1,6.1,0,0,1-.84-3.21,5.54,5.54,0,0,1,.95-3.15,6.93,6.93,0,0,1,2.5-2.27,7.12,7.12,0,0,1,3.48-.85,6.11,6.11,0,0,1,4.08,1.36,6.93,6.93,0,0,1,2.22,3.74l-10.26,3.4-.66-1.55,8.37-2.92-.57.39a3.82,3.82,0,0,0-1.2-1.61,3.33,3.33,0,0,0-2.19-.68,4,4,0,0,0-2,.51,3.69,3.69,0,0,0-1.4,1.4,4.11,4.11,0,0,0-.51,2.08,4.26,4.26,0,0,0,.53,2.13,3.75,3.75,0,0,0,1.47,1.46,4.32,4.32,0,0,0,2.14.52,4.5,4.5,0,0,0,1.58-.28,6.84,6.84,0,0,0,1.45-.74l1.26,2a8.44,8.44,0,0,1-2.08,1A7.33,7.33,0,0,1,343.16,187.86Z"/><path class="cls-2" d="M356.48,187.81a7.7,7.7,0,0,1-2.56-.44,5.16,5.16,0,0,1-2.06-1.32l1.17-1.53a6.51,6.51,0,0,0,1.62,1.06,4.13,4.13,0,0,0,2.73.21,1.68,1.68,0,0,0,.83-.48,1.25,1.25,0,0,0,.31-.88,1.21,1.21,0,0,0-.43-1,3.69,3.69,0,0,0-1.1-.59q-.66-.22-1.44-.42a5.46,5.46,0,0,1-2.34-1.33,2.9,2.9,0,0,1-.81-2.07,3.29,3.29,0,0,1,.5-1.75,3.71,3.71,0,0,1,1.48-1.33,5.07,5.07,0,0,1,2.4-.52,8.2,8.2,0,0,1,2.31.29,5.73,5.73,0,0,1,1.92,1l-1.11,1.64a3.56,3.56,0,0,0-1.27-.8,3.94,3.94,0,0,0-1.34-.27,3.18,3.18,0,0,0-1,.15,1.81,1.81,0,0,0-.75.46,1,1,0,0,0-.29.75,1.09,1.09,0,0,0,.41.95,3.62,3.62,0,0,0,1.09.58l1.35.45a7,7,0,0,1,1.62.68,3.81,3.81,0,0,1,1.16,1.05,2.68,2.68,0,0,1,.43,1.56,3.74,3.74,0,0,1-.52,1.94,3.63,3.63,0,0,1-1.59,1.42A6.16,6.16,0,0,1,356.48,187.81Z"/><path class="cls-2" d="M371,187.86a7.73,7.73,0,0,1-3.66-.81,5.82,5.82,0,0,1-2.37-2.21,6.1,6.1,0,0,1-.84-3.21,5.54,5.54,0,0,1,.95-3.15,6.93,6.93,0,0,1,2.5-2.27,7.12,7.12,0,0,1,3.48-.85,6.11,6.11,0,0,1,4.08,1.36,6.93,6.93,0,0,1,2.22,3.74l-10.26,3.4-.66-1.55,8.37-2.92-.57.39a3.82,3.82,0,0,0-1.2-1.61,3.33,3.33,0,0,0-2.19-.68,4,4,0,0,0-2,.51,3.69,3.69,0,0,0-1.4,1.4,4.11,4.11,0,0,0-.51,2.08,4.26,4.26,0,0,0,.53,2.13,3.69,3.69,0,0,0,1.47,1.46,4.32,4.32,0,0,0,2.14.52,4.5,4.5,0,0,0,1.58-.28,6.84,6.84,0,0,0,1.45-.74l1.26,2a8.44,8.44,0,0,1-2.08,1A7.33,7.33,0,0,1,371,187.86Z"/><path class="cls-2" d="M395.33,187.86a6.23,6.23,0,0,1-3.12-.78,5.79,5.79,0,0,1-2.21-2.21,6.46,6.46,0,0,1-.82-3.3,6.19,6.19,0,0,1,.87-3.35,5.77,5.77,0,0,1,2.34-2.12,7.15,7.15,0,0,1,3.3-.74,6.9,6.9,0,0,1,2.8.59,5,5,0,0,1,2.09,1.65l-.15.93v-12.9h2.79v22h-2.79v-2.92l.33.74a7.17,7.17,0,0,1-2.29,1.77A7,7,0,0,1,395.33,187.86Zm.87-2.24a4.66,4.66,0,0,0,2-.39,4.21,4.21,0,0,0,1.44-1.07,3.83,3.83,0,0,0,.83-1.57v-2.24a3.53,3.53,0,0,0-.86-1.5,4.11,4.11,0,0,0-1.47-1,4.84,4.84,0,0,0-1.9-.35,4.35,4.35,0,0,0-2.07.51,4,4,0,0,0-1.53,1.41,4.14,4.14,0,0,0,0,4.19,4.31,4.31,0,0,0,1.53,1.47A4.06,4.06,0,0,0,396.2,185.62Z"/><path class="cls-2" d="M407.87,171.59a1.29,1.29,0,0,1,.52-1.05,1.83,1.83,0,0,1,1.16-.43,1.76,1.76,0,0,1,1.14.43,1.35,1.35,0,0,1,0,2.11,1.74,1.74,0,0,1-1.14.41,1.81,1.81,0,0,1-1.16-.41A1.28,1.28,0,0,1,407.87,171.59Zm.18,4.25h2.82v11.74h-2.82Z"/><path class="cls-2" d="M430.25,187.92l-6.9-12.08h3.33l4.65,9.33-1.71-.09,4.29-9.24H437l-6.63,12.08Z"/><path class="cls-2" d="M439.82,171.59a1.29,1.29,0,0,1,.52-1.05,1.83,1.83,0,0,1,1.16-.43,1.76,1.76,0,0,1,1.14.43,1.35,1.35,0,0,1,0,2.11,1.74,1.74,0,0,1-1.14.41,1.81,1.81,0,0,1-1.16-.41A1.28,1.28,0,0,1,439.82,171.59Zm.18,4.25h2.82v11.74H440Z"/><path class="cls-2" d="M448.85,170.68h2.85v5.22h3.39V178H451.7v9.61h-2.85V178H446.6V175.9h2.25Z"/><path class="cls-2" d="M463.64,187.86a6.93,6.93,0,0,1-3.17-.71,5.39,5.39,0,0,1-2.26-2.08,7.11,7.11,0,0,1,0-6.76,5.94,5.94,0,0,1,2.34-2.19,6.84,6.84,0,0,1,3.21-.76,5.5,5.5,0,0,1,2.95.75,5.24,5.24,0,0,1,1.82,1.77l-.18.43.27-2.47h2.58v11.74h-2.79v-3.06l.33.68a3.49,3.49,0,0,1-.57.72,7.3,7.3,0,0,1-1.07.89,5.77,5.77,0,0,1-1.51.76A6.35,6.35,0,0,1,463.64,187.86Zm.75-2.18a4.59,4.59,0,0,0,1.89-.37,3.54,3.54,0,0,0,1.39-1.05,3.81,3.81,0,0,0,.77-1.59v-2.29a3.5,3.5,0,0,0-.84-1.49,4,4,0,0,0-1.44-1,4.6,4.6,0,0,0-1.83-.36,4.23,4.23,0,0,0-2.07.51,3.87,3.87,0,0,0-2,3.55,3.93,3.93,0,0,0,.57,2.07,4.22,4.22,0,0,0,3.6,2Z"/><path class="cls-2" d="M475.17,185a1.6,1.6,0,0,1,1.1-.45,1.52,1.52,0,0,1,1,.45,1.41,1.41,0,0,1,.5,1.08,1.36,1.36,0,0,1-.5,1.09,1.61,1.61,0,0,1-1,.41,1.71,1.71,0,0,1-1.1-.41,1.35,1.35,0,0,1-.49-1.09A1.4,1.4,0,0,1,475.17,185Z"/></g></g></svg>