<?xml version="1.0" encoding="utf-8"?>
<!-- Generator: Adobe Illustrator 26.3.1, SVG Export Plug-In . SVG Version: 6.00 Build 0)  -->
<svg version="1.1" id="Livello_1" xmlns="http://www.w3.org/2000/svg" xmlns:xlink="http://www.w3.org/1999/xlink" x="0px" y="0px"
	 viewBox="0 0 672 179.8" style="enable-background:new 0 0 672 179.8;" xml:space="preserve">
<style type="text/css">
	.st0{fill:#FFFFFF;}
	.st1{enable-background:new    ;}
	.st2{fill:#846B4A;}
</style>
<g id="Livello_2_00000145777749555355923970000013720219733501162416_">
	<g id="testi">
		<path class="st0" d="M21.3,0h629.4C662.5,0,672,9.5,672,21.3v137.2c0,11.8-9.5,21.3-21.3,21.3H21.3C9.5,179.8,0,170.3,0,158.5
			V21.3C0,9.5,9.5,0,21.3,0z"/>
		<g>
			<g class="st1">
				<path class="st2" d="M29.1,45.8V24.7h0L40.5,40l-1.2-0.3l11.4-15h0v21.1h-2.9V30.9l0.2,1.4l-8.2,10.9h-0.1l-8.3-10.9L32,31v14.8
					H29.1z"/>
				<path class="st2" d="M61.5,46.1c-1.2,0-2.2-0.2-3.2-0.7c-1-0.5-1.7-1.2-2.3-2.1c-0.6-0.9-0.8-2-0.8-3.4c0-1.3,0.3-2.5,0.9-3.4
					c0.6-0.9,1.4-1.7,2.3-2.2c1-0.5,2.1-0.8,3.2-0.8s2.1,0.3,3,0.8c0.8,0.5,1.4,1.1,1.8,1.8l-0.2,0.4l0.3-2.5h2.6v11.7h-2.8v-3.1
					l0.3,0.7c-0.1,0.2-0.3,0.4-0.6,0.7c-0.3,0.3-0.6,0.6-1.1,0.9c-0.4,0.3-0.9,0.6-1.5,0.8C62.9,46,62.2,46.1,61.5,46.1z M62.2,43.9
					c0.7,0,1.3-0.1,1.9-0.4c0.6-0.2,1-0.6,1.4-1s0.6-1,0.8-1.6v-2.3c-0.2-0.6-0.4-1.1-0.8-1.5c-0.4-0.4-0.9-0.8-1.4-1
					c-0.6-0.2-1.2-0.4-1.8-0.4c-0.8,0-1.5,0.2-2.1,0.5c-0.6,0.3-1.1,0.8-1.5,1.4S58,39,58,39.9c0,0.8,0.2,1.4,0.6,2.1
					c0.4,0.6,0.9,1.1,1.5,1.5C60.8,43.8,61.5,43.9,62.2,43.9z"/>
				<path class="st2" d="M75.1,28.9H78v5.2h3.4v2.1H78v9.6h-2.9v-9.6h-2.3v-2.1h2.3V28.9z"/>
				<path class="st2" d="M85.9,28.9h2.9v5.2h3.4v2.1h-3.4v9.6h-2.9v-9.6h-2.3v-2.1h2.3V28.9z"/>
				<path class="st2" d="M95.4,29.9c0-0.4,0.2-0.8,0.5-1c0.4-0.3,0.7-0.4,1.2-0.4c0.4,0,0.8,0.1,1.1,0.4c0.3,0.3,0.5,0.6,0.5,1
					c0,0.4-0.2,0.8-0.5,1.1c-0.3,0.3-0.7,0.4-1.1,0.4c-0.4,0-0.8-0.1-1.2-0.4C95.5,30.6,95.4,30.3,95.4,29.9z M95.5,34.1h2.8v11.7
					h-2.8V34.1z"/>
				<path class="st2" d="M108.4,46.1c-1.2,0-2.2-0.2-3.2-0.7c-1-0.5-1.7-1.2-2.3-2.1c-0.6-0.9-0.8-2-0.8-3.4c0-1.3,0.3-2.5,0.9-3.4
					c0.6-0.9,1.4-1.7,2.3-2.2c1-0.5,2.1-0.8,3.2-0.8s2.1,0.3,3,0.8c0.8,0.5,1.4,1.1,1.8,1.8l-0.2,0.4l0.3-2.5h2.6v11.7h-2.8v-3.1
					l0.3,0.7c-0.1,0.2-0.3,0.4-0.6,0.7c-0.3,0.3-0.6,0.6-1.1,0.9c-0.4,0.3-0.9,0.6-1.5,0.8C109.8,46,109.1,46.1,108.4,46.1z
					 M109.1,43.9c0.7,0,1.3-0.1,1.9-0.4c0.6-0.2,1-0.6,1.4-1s0.6-1,0.8-1.6v-2.3c-0.2-0.6-0.4-1.1-0.8-1.5c-0.4-0.4-0.9-0.8-1.4-1
					c-0.6-0.2-1.2-0.4-1.8-0.4c-0.8,0-1.5,0.2-2.1,0.5c-0.6,0.3-1.1,0.8-1.5,1.4S105,39,105,39.9c0,0.8,0.2,1.4,0.6,2.1
					c0.4,0.6,0.9,1.1,1.5,1.5C107.7,43.8,108.4,43.9,109.1,43.9z"/>
				<path class="st2" d="M130.2,29.9c0-0.4,0.2-0.8,0.5-1c0.4-0.3,0.7-0.4,1.2-0.4c0.4,0,0.8,0.1,1.1,0.4c0.3,0.3,0.5,0.6,0.5,1
					c0,0.4-0.2,0.8-0.5,1.1c-0.3,0.3-0.7,0.4-1.1,0.4c-0.4,0-0.8-0.1-1.2-0.4C130.3,30.6,130.2,30.3,130.2,29.9z M130.3,34.1h2.8
					v11.7h-2.8V34.1z"/>
				<path class="st2" d="M140.6,34.1l0.2,2.9l-0.1-0.5c0.4-0.9,1-1.6,1.9-2.1s2-0.8,3.2-0.8c1.2,0,2.1,0.3,2.9,1
					c0.8,0.7,1.1,1.5,1.2,2.5v8.7H147v-7.8c0-0.6-0.2-1.1-0.6-1.5c-0.4-0.4-0.9-0.6-1.7-0.6c-0.7,0-1.3,0.2-1.9,0.6
					c-0.6,0.4-1.1,0.9-1.4,1.6c-0.3,0.7-0.5,1.4-0.5,2.3v5.5H138V34.1H140.6z"/>
				<path class="st2" d="M154.4,29.9c0-0.4,0.2-0.8,0.5-1c0.4-0.3,0.7-0.4,1.2-0.4c0.4,0,0.8,0.1,1.1,0.4c0.3,0.3,0.5,0.6,0.5,1
					c0,0.4-0.2,0.8-0.5,1.1c-0.3,0.3-0.7,0.4-1.1,0.4c-0.4,0-0.8-0.1-1.2-0.4C154.6,30.6,154.4,30.3,154.4,29.9z M154.6,34.1h2.8
					v11.7h-2.8V34.1z"/>
				<path class="st2" d="M163.5,36.3c-0.6,0-1.1-0.2-1.6-0.5c-0.4-0.4-0.6-0.9-0.6-1.6V33h2.1v0.4c0,0.3,0.1,0.5,0.2,0.6
					c0.1,0.1,0.4,0.1,0.8,0.1h8l-7.5,10.1l-0.6-0.5h7.9v2.2h-11.5l7.6-10.3l0.5,0.7H163.5z"/>
				<path class="st2" d="M176,29.9c0-0.4,0.2-0.8,0.5-1c0.4-0.3,0.7-0.4,1.2-0.4c0.4,0,0.8,0.1,1.1,0.4c0.3,0.3,0.5,0.6,0.5,1
					c0,0.4-0.2,0.8-0.5,1.1c-0.3,0.3-0.7,0.4-1.1,0.4c-0.4,0-0.8-0.1-1.2-0.4C176.2,30.6,176,30.3,176,29.9z M176.2,34.1h2.8v11.7
					h-2.8V34.1z"/>
				<path class="st2" d="M189.1,46.1c-1.2,0-2.2-0.2-3.2-0.7c-1-0.5-1.7-1.2-2.3-2.1c-0.6-0.9-0.8-2-0.8-3.4c0-1.3,0.3-2.5,0.9-3.4
					c0.6-0.9,1.4-1.7,2.3-2.2c1-0.5,2.1-0.8,3.2-0.8s2.1,0.3,3,0.8c0.8,0.5,1.4,1.1,1.8,1.8l-0.2,0.4l0.3-2.5h2.6v11.7h-2.8v-3.1
					l0.3,0.7c-0.1,0.2-0.3,0.4-0.6,0.7c-0.3,0.3-0.6,0.6-1.1,0.9c-0.4,0.3-0.9,0.6-1.5,0.8C190.5,46,189.8,46.1,189.1,46.1z
					 M189.8,43.9c0.7,0,1.3-0.1,1.9-0.4c0.6-0.2,1-0.6,1.4-1s0.6-1,0.8-1.6v-2.3c-0.2-0.6-0.4-1.1-0.8-1.5c-0.4-0.4-0.9-0.8-1.4-1
					c-0.6-0.2-1.2-0.4-1.8-0.4c-0.8,0-1.5,0.2-2.1,0.5c-0.6,0.3-1.1,0.8-1.5,1.4s-0.6,1.3-0.6,2.1c0,0.8,0.2,1.4,0.6,2.1
					c0.4,0.6,0.9,1.1,1.5,1.5C188.4,43.8,189.1,43.9,189.8,43.9z"/>
				<path class="st2" d="M210.8,29.9c0-0.4,0.2-0.8,0.5-1c0.4-0.3,0.7-0.4,1.2-0.4c0.4,0,0.8,0.1,1.1,0.4c0.3,0.3,0.5,0.6,0.5,1
					c0,0.4-0.2,0.8-0.5,1.1c-0.3,0.3-0.7,0.4-1.1,0.4c-0.4,0-0.8-0.1-1.2-0.4C211,30.6,210.8,30.3,210.8,29.9z M211,34.1h2.8v11.7
					H211V34.1z"/>
				<path class="st2" d="M218.7,23.9h2.8v21.9h-2.8V23.9z"/>
				<path class="st2" d="M235.8,23.9h2.8v21.9h-2.8V23.9z"/>
				<path class="st2" d="M243.3,29.9c0-0.4,0.2-0.8,0.5-1c0.4-0.3,0.7-0.4,1.2-0.4c0.4,0,0.8,0.1,1.1,0.4c0.3,0.3,0.5,0.6,0.5,1
					c0,0.4-0.2,0.8-0.5,1.1c-0.3,0.3-0.7,0.4-1.1,0.4c-0.4,0-0.8-0.1-1.2-0.4C243.5,30.6,243.3,30.3,243.3,29.9z M243.5,34.1h2.8
					v11.7h-2.8V34.1z"/>
				<path class="st2" d="M261.3,44.7c-0.6,0.4-1.2,0.8-2,1c-0.8,0.2-1.6,0.4-2.3,0.4c-1.3,0-2.5-0.3-3.6-0.8c-1-0.5-1.8-1.2-2.4-2.2
					c-0.6-0.9-0.9-2-0.9-3.3c0-1.2,0.3-2.3,0.9-3.2c0.6-0.9,1.4-1.6,2.4-2.1c1-0.5,2.1-0.8,3.2-0.8c1,0,1.9,0.1,2.7,0.4
					c0.8,0.3,1.5,0.6,2.1,1.1l-1.4,1.7c-0.3-0.2-0.8-0.5-1.3-0.7c-0.5-0.2-1.1-0.3-1.8-0.3c-0.7,0-1.4,0.2-2,0.5
					c-0.6,0.4-1.1,0.8-1.4,1.4s-0.5,1.3-0.5,2c0,0.7,0.2,1.4,0.5,2c0.4,0.6,0.9,1.1,1.5,1.4c0.6,0.4,1.4,0.5,2.2,0.5
					c0.5,0,1-0.1,1.5-0.2c0.5-0.2,0.9-0.4,1.2-0.6L261.3,44.7z"/>
				<path class="st2" d="M270.6,46.1c-1.4,0-2.6-0.3-3.7-0.8c-1-0.5-1.8-1.3-2.4-2.2c-0.6-0.9-0.8-2-0.8-3.2c0-1.2,0.3-2.2,0.9-3.1
					c0.6-0.9,1.5-1.7,2.5-2.3c1-0.6,2.2-0.9,3.5-0.9c1.6,0,3,0.5,4.1,1.4c1.1,0.9,1.8,2.2,2.2,3.7l-10.3,3.4l-0.7-1.6l8.4-2.9
					l-0.6,0.4c-0.2-0.6-0.6-1.2-1.2-1.6c-0.6-0.5-1.3-0.7-2.2-0.7c-0.8,0-1.4,0.2-2,0.5c-0.6,0.3-1.1,0.8-1.4,1.4
					c-0.3,0.6-0.5,1.3-0.5,2.1s0.2,1.5,0.5,2.1c0.4,0.6,0.8,1.1,1.5,1.5c0.6,0.3,1.3,0.5,2.1,0.5c0.5,0,1.1-0.1,1.6-0.3
					c0.5-0.2,1-0.4,1.5-0.7l1.3,2c-0.6,0.4-1.3,0.7-2.1,1C272.1,46,271.4,46.1,270.6,46.1z"/>
				<path class="st2" d="M279.4,39.9c0-1.2,0.3-2.2,0.9-3.2c0.6-0.9,1.4-1.7,2.5-2.2s2.2-0.8,3.6-0.8c1.3,0,2.5,0.3,3.5,0.8
					c1,0.5,1.8,1.3,2.4,2.2c0.6,0.9,0.9,2,0.9,3.2c0,1.2-0.3,2.2-0.9,3.2c-0.6,0.9-1.4,1.7-2.4,2.3c-1,0.6-2.2,0.8-3.6,0.8
					c-1.3,0-2.5-0.3-3.6-0.8c-1-0.5-1.8-1.2-2.4-2.2S279.4,41.1,279.4,39.9z M282.2,39.9c0,0.8,0.2,1.4,0.5,2.1
					c0.4,0.6,0.8,1.1,1.4,1.5c0.6,0.4,1.3,0.5,2,0.5c0.8,0,1.5-0.2,2.1-0.5c0.6-0.4,1.1-0.8,1.4-1.5c0.4-0.6,0.5-1.3,0.5-2.1
					c0-0.8-0.2-1.4-0.5-2.1c-0.4-0.6-0.8-1.1-1.4-1.5c-0.6-0.4-1.3-0.6-2.1-0.6c-0.8,0-1.4,0.2-2.1,0.6c-0.6,0.4-1.1,0.9-1.4,1.5
					C282.4,38.5,282.2,39.1,282.2,39.9z"/>
				<path class="st2" d="M312.1,46.1c-1.4,0-2.6-0.3-3.7-0.8c-1-0.5-1.8-1.3-2.4-2.2c-0.6-0.9-0.8-2-0.8-3.2c0-1.2,0.3-2.2,0.9-3.1
					c0.6-0.9,1.5-1.7,2.5-2.3c1-0.6,2.2-0.9,3.5-0.9c1.6,0,3,0.5,4.1,1.4c1.1,0.9,1.8,2.2,2.2,3.7l-10.3,3.4l-0.7-1.6l8.4-2.9
					l-0.6,0.4c-0.2-0.6-0.6-1.2-1.2-1.6s-1.3-0.7-2.2-0.7c-0.8,0-1.4,0.2-2,0.5c-0.6,0.3-1.1,0.8-1.4,1.4c-0.3,0.6-0.5,1.3-0.5,2.1
					s0.2,1.5,0.5,2.1c0.4,0.6,0.8,1.1,1.5,1.5s1.3,0.5,2.1,0.5c0.5,0,1.1-0.1,1.6-0.3c0.5-0.2,1-0.4,1.5-0.7l1.3,2
					c-0.6,0.4-1.3,0.7-2.1,1C313.6,46,312.9,46.1,312.1,46.1z"/>
				<path class="st2" d="M331.5,45.8V23.9h2.8v12.9l-0.1-0.5c0.4-0.8,1.1-1.4,1.9-1.9c0.9-0.5,1.9-0.8,3.1-0.8c1.2,0,2.1,0.3,2.9,1
					c0.8,0.7,1.1,1.5,1.2,2.5v8.7h-2.8v-7.8c0-0.6-0.2-1.1-0.6-1.5c-0.4-0.4-0.9-0.6-1.7-0.6c-0.7,0-1.3,0.2-1.9,0.6
					c-0.6,0.4-1.1,0.9-1.4,1.6c-0.3,0.7-0.5,1.4-0.5,2.3v5.5H331.5z"/>
				<path class="st2" d="M353.3,46.1c-1.2,0-2.2-0.2-3.2-0.7c-1-0.5-1.7-1.2-2.3-2.1c-0.6-0.9-0.8-2-0.8-3.4c0-1.3,0.3-2.5,0.9-3.4
					c0.6-0.9,1.4-1.7,2.3-2.2c1-0.5,2.1-0.8,3.2-0.8s2.1,0.3,3,0.8c0.8,0.5,1.4,1.1,1.8,1.8l-0.2,0.4l0.3-2.5h2.6v11.7h-2.8v-3.1
					l0.3,0.7c-0.1,0.2-0.3,0.4-0.6,0.7c-0.3,0.3-0.6,0.6-1.1,0.9c-0.4,0.3-0.9,0.6-1.5,0.8S354,46.1,353.3,46.1z M354,43.9
					c0.7,0,1.3-0.1,1.9-0.4c0.6-0.2,1-0.6,1.4-1s0.6-1,0.8-1.6v-2.3c-0.2-0.6-0.4-1.1-0.8-1.5s-0.9-0.8-1.4-1
					c-0.6-0.2-1.2-0.4-1.8-0.4c-0.8,0-1.5,0.2-2.1,0.5c-0.6,0.3-1.1,0.8-1.5,1.4c-0.4,0.6-0.6,1.3-0.6,2.1c0,0.8,0.2,1.4,0.6,2.1
					c0.4,0.6,0.9,1.1,1.5,1.5C352.6,43.8,353.3,43.9,354,43.9z"/>
				<path class="st2" d="M380.2,46.1c-1.1,0-2.1-0.3-3.1-0.8s-1.7-1.2-2.2-2.1c-0.6-0.9-0.8-2-0.8-3.3c0-1.3,0.3-2.4,0.9-3.3
					c0.6-0.9,1.4-1.7,2.4-2.2c1-0.5,2.1-0.8,3.3-0.8c1.1,0,2.1,0.2,3,0.7c0.9,0.5,1.6,1.1,2.1,1.8l-0.3,0.8v-3h2.8v17.5h-2.8v-8.6
					l0.1,1.1c-0.5,0.6-1.2,1.2-2.1,1.6C382.5,45.9,381.4,46.1,380.2,46.1z M381.2,44c0.7,0,1.4-0.1,2-0.4c0.6-0.3,1.1-0.6,1.5-1.1
					c0.4-0.5,0.6-1,0.8-1.6v-2c-0.2-0.6-0.4-1.2-0.8-1.6s-0.9-0.8-1.4-1.1c-0.6-0.3-1.2-0.4-2-0.4c-0.7,0-1.4,0.2-2.1,0.5
					c-0.6,0.4-1.2,0.8-1.5,1.5c-0.4,0.6-0.6,1.3-0.6,2.1c0,0.8,0.2,1.5,0.6,2.1c0.4,0.6,0.9,1.1,1.5,1.4
					C379.7,43.8,380.4,44,381.2,44z"/>
				<path class="st2" d="M397,46.3c-1.2,0-2.1-0.3-2.8-1c-0.7-0.7-1.1-1.5-1.2-2.5v-8.7h2.8v7.7c0,0.6,0.2,1.1,0.6,1.5
					c0.4,0.4,0.9,0.6,1.7,0.6c0.7,0,1.3-0.2,1.8-0.6c0.6-0.4,1-0.9,1.3-1.6c0.3-0.7,0.5-1.4,0.5-2.3v-5.5h2.8v11.7h-2.6l-0.2-2.9
					l0.2,0.5c-0.3,0.5-0.6,1-1.1,1.4s-1.1,0.8-1.7,1C398.5,46.2,397.8,46.3,397,46.3z"/>
				<path class="st2" d="M414.6,46.1c-1.2,0-2.2-0.2-3.2-0.7c-1-0.5-1.7-1.2-2.3-2.1c-0.6-0.9-0.8-2-0.8-3.4c0-1.3,0.3-2.5,0.9-3.4
					c0.6-0.9,1.4-1.7,2.3-2.2c1-0.5,2.1-0.8,3.2-0.8s2.1,0.3,3,0.8c0.8,0.5,1.4,1.1,1.8,1.8l-0.2,0.4l0.3-2.5h2.6v11.7h-2.8v-3.1
					l0.3,0.7c-0.1,0.2-0.3,0.4-0.6,0.7c-0.3,0.3-0.6,0.6-1.1,0.9c-0.4,0.3-0.9,0.6-1.5,0.8S415.4,46.1,414.6,46.1z M415.4,43.9
					c0.7,0,1.3-0.1,1.9-0.4c0.6-0.2,1-0.6,1.4-1s0.6-1,0.8-1.6v-2.3c-0.2-0.6-0.4-1.1-0.8-1.5s-0.9-0.8-1.4-1
					c-0.6-0.2-1.2-0.4-1.8-0.4c-0.8,0-1.5,0.2-2.1,0.5c-0.6,0.3-1.1,0.8-1.5,1.4c-0.4,0.6-0.6,1.3-0.6,2.1c0,0.8,0.2,1.4,0.6,2.1
					c0.4,0.6,0.9,1.1,1.5,1.5C414,43.8,414.7,43.9,415.4,43.9z"/>
				<path class="st2" d="M427.1,23.9h2.8v21.9h-2.8V23.9z"/>
				<path class="st2" d="M444.9,44.7c-0.6,0.4-1.2,0.8-2,1c-0.8,0.2-1.6,0.4-2.3,0.4c-1.3,0-2.5-0.3-3.6-0.8c-1-0.5-1.8-1.2-2.4-2.2
					c-0.6-0.9-0.9-2-0.9-3.3c0-1.2,0.3-2.3,0.9-3.2c0.6-0.9,1.4-1.6,2.4-2.1c1-0.5,2.1-0.8,3.2-0.8c1,0,1.9,0.1,2.7,0.4
					c0.8,0.3,1.5,0.6,2.1,1.1l-1.4,1.7c-0.3-0.2-0.8-0.5-1.3-0.7c-0.5-0.2-1.1-0.3-1.8-0.3c-0.7,0-1.4,0.2-2,0.5
					c-0.6,0.4-1.1,0.8-1.4,1.4s-0.5,1.3-0.5,2c0,0.7,0.2,1.4,0.5,2c0.4,0.6,0.9,1.1,1.5,1.4c0.6,0.4,1.4,0.5,2.2,0.5
					c0.5,0,1-0.1,1.5-0.2c0.5-0.2,0.9-0.4,1.2-0.6L444.9,44.7z"/>
				<path class="st2" d="M448.4,45.8V23.9h2.8v12.9l-0.1-0.5c0.4-0.8,1.1-1.4,1.9-1.9c0.9-0.5,1.9-0.8,3.1-0.8c1.2,0,2.1,0.3,2.9,1
					c0.8,0.7,1.1,1.5,1.2,2.5v8.7h-2.8v-7.8c0-0.6-0.2-1.1-0.6-1.5c-0.4-0.4-0.9-0.6-1.7-0.6c-0.7,0-1.3,0.2-1.9,0.6
					c-0.6,0.4-1.1,0.9-1.4,1.6c-0.3,0.7-0.5,1.4-0.5,2.3v5.5H448.4z"/>
				<path class="st2" d="M470.9,46.1c-1.4,0-2.6-0.3-3.7-0.8c-1-0.5-1.8-1.3-2.4-2.2c-0.6-0.9-0.8-2-0.8-3.2c0-1.2,0.3-2.2,0.9-3.1
					c0.6-0.9,1.5-1.7,2.5-2.3c1-0.6,2.2-0.9,3.5-0.9c1.6,0,3,0.5,4.1,1.4c1.1,0.9,1.8,2.2,2.2,3.7L467,42.1l-0.7-1.6l8.4-2.9
					l-0.6,0.4c-0.2-0.6-0.6-1.2-1.2-1.6s-1.3-0.7-2.2-0.7c-0.8,0-1.4,0.2-2,0.5c-0.6,0.3-1.1,0.8-1.4,1.4c-0.3,0.6-0.5,1.3-0.5,2.1
					s0.2,1.5,0.5,2.1c0.4,0.6,0.8,1.1,1.5,1.5s1.3,0.5,2.1,0.5c0.5,0,1.1-0.1,1.6-0.3c0.5-0.2,1-0.4,1.5-0.7l1.3,2
					c-0.6,0.4-1.3,0.7-2.1,1C472.4,46,471.6,46.1,470.9,46.1z"/>
				<path class="st2" d="M495.3,46.1c-1.2,0-2.2-0.3-3.1-0.8c-0.9-0.5-1.7-1.3-2.2-2.2c-0.6-1-0.8-2.1-0.8-3.3
					c0-1.3,0.3-2.4,0.9-3.3c0.6-0.9,1.4-1.6,2.3-2.1c1-0.5,2.1-0.7,3.3-0.7c1,0,1.9,0.2,2.8,0.6c0.9,0.4,1.6,0.9,2.1,1.6l-0.1,0.9
					V23.9h2.8v21.9h-2.8v-2.9l0.3,0.7c-0.6,0.7-1.4,1.3-2.3,1.8S496.4,46.1,495.3,46.1z M496.1,43.9c0.7,0,1.4-0.1,2-0.4
					c0.6-0.3,1.1-0.6,1.4-1.1c0.4-0.4,0.7-1,0.8-1.6v-2.2c-0.2-0.6-0.4-1.1-0.9-1.5c-0.4-0.4-0.9-0.8-1.5-1
					c-0.6-0.2-1.2-0.4-1.9-0.4c-0.7,0-1.4,0.2-2.1,0.5c-0.6,0.3-1.2,0.8-1.5,1.4c-0.4,0.6-0.6,1.3-0.6,2.1c0,0.8,0.2,1.5,0.6,2.1
					c0.4,0.6,0.9,1.1,1.5,1.5C494.7,43.7,495.4,43.9,496.1,43.9z"/>
				<path class="st2" d="M507.8,29.9c0-0.4,0.2-0.8,0.5-1c0.3-0.3,0.7-0.4,1.2-0.4c0.4,0,0.8,0.1,1.1,0.4c0.3,0.3,0.5,0.6,0.5,1
					c0,0.4-0.2,0.8-0.5,1.1c-0.3,0.3-0.7,0.4-1.1,0.4c-0.4,0-0.8-0.1-1.2-0.4C508,30.6,507.8,30.3,507.8,29.9z M508,34.1h2.8v11.7
					H508V34.1z"/>
				<path class="st2" d="M516.7,45.8v-9.4h-2.2v-2.4h2.2v-4.9c0-1.7,0.4-3,1.2-3.9s2-1.4,3.6-1.4c0.4,0,0.9,0.1,1.4,0.2
					c0.5,0.1,0.9,0.3,1.3,0.6l-1.2,1.9c-0.2-0.2-0.4-0.3-0.6-0.4c-0.2-0.1-0.5-0.1-0.7-0.1c-0.7,0-1.3,0.2-1.7,0.7
					c-0.4,0.5-0.6,1.3-0.6,2.4v4.9h3.9v2.4h-3.9v9.4H516.7z M525.9,45.8v-9.4h-2.2v-2.4h2.2v-4.9c0-1.7,0.4-3,1.2-3.9
					c0.8-0.9,2-1.4,3.6-1.4c0.4,0,0.9,0.1,1.4,0.2s0.9,0.3,1.3,0.6l-1.2,1.9c-0.2-0.2-0.4-0.3-0.6-0.4c-0.2-0.1-0.5-0.1-0.7-0.1
					c-0.7,0-1.3,0.2-1.7,0.7c-0.4,0.5-0.6,1.3-0.6,2.4v4.9h3.9v2.4h-3.9v9.4H525.9z M534.7,29.9c0-0.4,0.2-0.8,0.5-1
					c0.4-0.3,0.7-0.4,1.2-0.4s0.8,0.1,1.1,0.4c0.3,0.3,0.5,0.6,0.5,1c0,0.4-0.2,0.8-0.5,1.1c-0.3,0.3-0.7,0.4-1.1,0.4
					s-0.8-0.1-1.2-0.4C534.9,30.6,534.7,30.3,534.7,29.9z M534.9,34.1h2.8v11.7h-2.8V34.1z"/>
				<path class="st2" d="M552.6,44.7c-0.6,0.4-1.2,0.8-2,1c-0.8,0.2-1.6,0.4-2.3,0.4c-1.3,0-2.5-0.3-3.6-0.8c-1-0.5-1.8-1.2-2.4-2.2
					c-0.6-0.9-0.9-2-0.9-3.3c0-1.2,0.3-2.3,0.9-3.2c0.6-0.9,1.4-1.6,2.4-2.1c1-0.5,2.1-0.8,3.2-0.8c1,0,1.9,0.1,2.7,0.4
					c0.8,0.3,1.5,0.6,2.1,1.1l-1.4,1.7c-0.3-0.2-0.8-0.5-1.3-0.7c-0.5-0.2-1.1-0.3-1.8-0.3c-0.7,0-1.4,0.2-2,0.5
					c-0.6,0.4-1.1,0.8-1.4,1.4s-0.5,1.3-0.5,2c0,0.7,0.2,1.4,0.5,2c0.4,0.6,0.9,1.1,1.5,1.4c0.6,0.4,1.4,0.5,2.2,0.5
					c0.5,0,1-0.1,1.5-0.2c0.5-0.2,0.9-0.4,1.2-0.6L552.6,44.7z"/>
				<path class="st2" d="M555.1,39.9c0-1.2,0.3-2.2,0.9-3.2c0.6-0.9,1.4-1.7,2.5-2.2s2.2-0.8,3.6-0.8c1.3,0,2.5,0.3,3.5,0.8
					c1,0.5,1.8,1.3,2.4,2.2c0.6,0.9,0.9,2,0.9,3.2c0,1.2-0.3,2.2-0.9,3.2c-0.6,0.9-1.4,1.7-2.4,2.3c-1,0.6-2.2,0.8-3.6,0.8
					c-1.3,0-2.5-0.3-3.6-0.8c-1-0.5-1.8-1.2-2.4-2.2C555.4,42.2,555.1,41.1,555.1,39.9z M558,39.9c0,0.8,0.2,1.4,0.5,2.1
					c0.4,0.6,0.8,1.1,1.4,1.5c0.6,0.4,1.3,0.5,2,0.5c0.8,0,1.5-0.2,2.1-0.5c0.6-0.4,1.1-0.8,1.4-1.5s0.5-1.3,0.5-2.1
					c0-0.8-0.2-1.4-0.5-2.1s-0.8-1.1-1.4-1.5c-0.6-0.4-1.3-0.6-2.1-0.6c-0.8,0-1.4,0.2-2.1,0.6s-1.1,0.9-1.4,1.5
					C558.1,38.5,558,39.1,558,39.9z"/>
				<path class="st2" d="M572.6,23.9h2.8v21.9h-2.8V23.9z"/>
				<path class="st2" d="M581.5,28.9h2.9v5.2h3.4v2.1h-3.4v9.6h-2.9v-9.6h-2.3v-2.1h2.3V28.9z"/>
				<path class="st2" d="M596.3,46.1c-1.2,0-2.2-0.2-3.2-0.7c-1-0.5-1.7-1.2-2.3-2.1c-0.6-0.9-0.8-2-0.8-3.4c0-1.3,0.3-2.5,0.9-3.4
					c0.6-0.9,1.4-1.7,2.3-2.2c1-0.5,2.1-0.8,3.2-0.8s2.1,0.3,3,0.8c0.8,0.5,1.4,1.1,1.8,1.8l-0.2,0.4l0.3-2.5h2.6v11.7h-2.8v-3.1
					l0.3,0.7c-0.1,0.2-0.3,0.4-0.6,0.7c-0.3,0.3-0.6,0.6-1.1,0.9c-0.4,0.3-0.9,0.6-1.5,0.8S597,46.1,596.3,46.1z M597,43.9
					c0.7,0,1.3-0.1,1.9-0.4c0.6-0.2,1-0.6,1.4-1s0.6-1,0.8-1.6v-2.3c-0.2-0.6-0.4-1.1-0.8-1.5s-0.9-0.8-1.4-1
					c-0.6-0.2-1.2-0.4-1.8-0.4c-0.8,0-1.5,0.2-2.1,0.5c-0.6,0.3-1.1,0.8-1.5,1.4c-0.4,0.6-0.6,1.3-0.6,2.1c0,0.8,0.2,1.4,0.6,2.1
					c0.4,0.6,0.9,1.1,1.5,1.5C595.6,43.8,596.3,43.9,597,43.9z M593.5,27.9h3.1l2.2,3.8H597L593.5,27.9z"/>
				<path class="st2" d="M623.4,46.1c-1.2,0-2.2-0.2-3.2-0.7c-1-0.5-1.7-1.2-2.3-2.1c-0.6-0.9-0.8-2-0.8-3.4c0-1.3,0.3-2.5,0.9-3.4
					c0.6-0.9,1.4-1.7,2.3-2.2c1-0.5,2.1-0.8,3.2-0.8s2.1,0.3,3,0.8c0.8,0.5,1.4,1.1,1.8,1.8l-0.2,0.4l0.3-2.5h2.6v11.7h-2.8v-3.1
					l0.3,0.7c-0.1,0.2-0.3,0.4-0.6,0.7c-0.3,0.3-0.6,0.6-1.1,0.9c-0.4,0.3-0.9,0.6-1.5,0.8S624.1,46.1,623.4,46.1z M624.2,43.9
					c0.7,0,1.3-0.1,1.9-0.4c0.6-0.2,1-0.6,1.4-1s0.6-1,0.8-1.6v-2.3c-0.2-0.6-0.4-1.1-0.8-1.5s-0.9-0.8-1.4-1
					c-0.6-0.2-1.2-0.4-1.8-0.4c-0.8,0-1.5,0.2-2.1,0.5c-0.6,0.3-1.1,0.8-1.5,1.4c-0.4,0.6-0.6,1.3-0.6,2.1c0,0.8,0.2,1.4,0.6,2.1
					c0.4,0.6,0.9,1.1,1.5,1.5C622.7,43.8,623.4,43.9,624.2,43.9z"/>
			</g>
		</g>
		<g>
			<g class="st1">
				<path class="st2" d="M31.9,80.1c-0.9,0-1.7-0.1-2.6-0.4c-0.8-0.3-1.5-0.7-2.1-1.3l1.2-1.5c0.5,0.5,1.1,0.8,1.6,1.1
					s1.1,0.4,1.6,0.4c0.4,0,0.8,0,1.1-0.1c0.3-0.1,0.6-0.3,0.8-0.5c0.2-0.2,0.3-0.5,0.3-0.9c0-0.4-0.1-0.8-0.4-1
					c-0.3-0.2-0.7-0.4-1.1-0.6C32,75,31.5,74.8,31,74.7c-1-0.3-1.8-0.8-2.3-1.3s-0.8-1.3-0.8-2.1c0-0.6,0.2-1.2,0.5-1.7
					s0.8-1,1.5-1.3c0.7-0.3,1.5-0.5,2.4-0.5c0.9,0,1.6,0.1,2.3,0.3c0.7,0.2,1.3,0.5,1.9,1l-1.1,1.6c-0.4-0.4-0.8-0.6-1.3-0.8
					c-0.5-0.2-0.9-0.3-1.3-0.3c-0.4,0-0.7,0.1-1,0.2c-0.3,0.1-0.6,0.3-0.8,0.5c-0.2,0.2-0.3,0.4-0.3,0.8c0,0.4,0.1,0.7,0.4,0.9
					c0.3,0.2,0.7,0.4,1.1,0.6c0.4,0.2,0.9,0.3,1.4,0.5c0.6,0.2,1.1,0.4,1.6,0.7c0.5,0.3,0.9,0.6,1.2,1c0.3,0.4,0.4,0.9,0.4,1.6
					c0,0.7-0.2,1.3-0.5,1.9c-0.4,0.6-0.9,1.1-1.6,1.4C33.9,79.9,33,80.1,31.9,80.1z"/>
				<path class="st2" d="M39.6,73.9c0-1.2,0.3-2.2,0.9-3.2c0.6-0.9,1.4-1.7,2.5-2.2s2.2-0.8,3.6-0.8c1.3,0,2.5,0.3,3.5,0.8
					c1,0.5,1.8,1.3,2.4,2.2c0.6,0.9,0.9,2,0.9,3.2c0,1.2-0.3,2.2-0.9,3.2c-0.6,0.9-1.4,1.7-2.4,2.3c-1,0.6-2.2,0.8-3.6,0.8
					c-1.3,0-2.5-0.3-3.6-0.8c-1-0.5-1.8-1.2-2.4-2.2S39.6,75.1,39.6,73.9z M42.4,73.9c0,0.8,0.2,1.4,0.5,2.1
					c0.4,0.6,0.8,1.1,1.4,1.5c0.6,0.4,1.3,0.5,2,0.5c0.8,0,1.5-0.2,2.1-0.5c0.6-0.4,1.1-0.8,1.4-1.5c0.4-0.6,0.5-1.3,0.5-2.1
					c0-0.8-0.2-1.4-0.5-2.1c-0.4-0.6-0.8-1.1-1.4-1.5c-0.6-0.4-1.3-0.6-2.1-0.6c-0.8,0-1.4,0.2-2.1,0.6c-0.6,0.4-1.1,0.9-1.4,1.5
					C42.6,72.5,42.4,73.2,42.4,73.9z"/>
				<path class="st2" d="M67.1,78.8c-0.6,0.4-1.2,0.8-2,1c-0.8,0.2-1.6,0.4-2.3,0.4c-1.3,0-2.5-0.3-3.6-0.8c-1-0.5-1.8-1.2-2.4-2.2
					c-0.6-0.9-0.9-2-0.9-3.3c0-1.2,0.3-2.3,0.9-3.2c0.6-0.9,1.4-1.6,2.4-2.1c1-0.5,2.1-0.8,3.2-0.8c1,0,1.9,0.1,2.7,0.4
					c0.8,0.3,1.5,0.6,2.1,1.1L65.8,71c-0.3-0.2-0.8-0.5-1.3-0.7C64,70.1,63.4,70,62.8,70c-0.7,0-1.4,0.2-2,0.5
					c-0.6,0.4-1.1,0.8-1.4,1.4s-0.5,1.3-0.5,2c0,0.7,0.2,1.4,0.5,2c0.4,0.6,0.9,1.1,1.5,1.4c0.6,0.4,1.4,0.5,2.2,0.5
					c0.5,0,1-0.1,1.5-0.2c0.5-0.2,0.9-0.4,1.2-0.6L67.1,78.8z"/>
				<path class="st2" d="M70.5,63.9c0-0.4,0.2-0.8,0.5-1c0.4-0.3,0.7-0.4,1.2-0.4c0.4,0,0.8,0.1,1.1,0.4c0.3,0.3,0.5,0.6,0.5,1
					c0,0.4-0.2,0.8-0.5,1.1c-0.3,0.3-0.7,0.4-1.1,0.4c-0.4,0-0.8-0.1-1.2-0.4C70.7,64.7,70.5,64.3,70.5,63.9z M70.7,68.1h2.8v11.7
					h-2.8V68.1z"/>
				<path class="st2" d="M83.6,80.1c-1.2,0-2.2-0.2-3.2-0.7c-1-0.5-1.7-1.2-2.3-2.1c-0.6-0.9-0.8-2-0.8-3.4c0-1.3,0.3-2.5,0.9-3.4
					c0.6-0.9,1.4-1.7,2.3-2.2c1-0.5,2.1-0.8,3.2-0.8s2.1,0.3,3,0.8c0.8,0.5,1.4,1.1,1.8,1.8l-0.2,0.4l0.3-2.5h2.6v11.7h-2.8v-3.1
					l0.3,0.7c-0.1,0.2-0.3,0.4-0.6,0.7c-0.3,0.3-0.6,0.6-1.1,0.9c-0.4,0.3-0.9,0.6-1.5,0.8C85,80,84.3,80.1,83.6,80.1z M84.3,78
					c0.7,0,1.3-0.1,1.9-0.4c0.6-0.2,1-0.6,1.4-1s0.6-1,0.8-1.6v-2.3c-0.2-0.6-0.4-1.1-0.8-1.5c-0.4-0.4-0.9-0.8-1.4-1
					c-0.6-0.2-1.2-0.4-1.8-0.4c-0.8,0-1.5,0.2-2.1,0.5c-0.6,0.3-1.1,0.8-1.5,1.4s-0.6,1.3-0.6,2.1c0,0.8,0.2,1.4,0.6,2.1
					c0.4,0.6,0.9,1.1,1.5,1.5C82.9,77.8,83.6,78,84.3,78z"/>
				<path class="st2" d="M96,57.9h2.8v21.9H96V57.9z"/>
				<path class="st2" d="M103.5,63.9c0-0.4,0.2-0.8,0.5-1c0.4-0.3,0.7-0.4,1.2-0.4c0.4,0,0.8,0.1,1.1,0.4c0.3,0.3,0.5,0.6,0.5,1
					c0,0.4-0.2,0.8-0.5,1.1c-0.3,0.3-0.7,0.4-1.1,0.4c-0.4,0-0.8-0.1-1.2-0.4C103.7,64.7,103.5,64.3,103.5,63.9z M103.7,68.1h2.8
					v11.7h-2.8V68.1z"/>
				<path class="st2" d="M112.5,70.3c-0.6,0-1.1-0.2-1.6-0.5c-0.4-0.4-0.6-0.9-0.6-1.6V67h2.1v0.4c0,0.3,0.1,0.5,0.2,0.6
					c0.1,0.1,0.4,0.1,0.8,0.1h8L114,78.2l-0.6-0.5h7.9v2.2h-11.5l7.6-10.3l0.5,0.7H112.5z"/>
				<path class="st2" d="M126.4,70.3c-0.6,0-1.1-0.2-1.6-0.5c-0.4-0.4-0.6-0.9-0.6-1.6V67h2.1v0.4c0,0.3,0.1,0.5,0.2,0.6
					c0.1,0.1,0.4,0.1,0.8,0.1h8l-7.5,10.1l-0.6-0.5h7.9v2.2h-11.5l7.6-10.3l0.5,0.7H126.4z"/>
				<path class="st2" d="M144.4,80.1c-1.2,0-2.2-0.2-3.2-0.7c-1-0.5-1.7-1.2-2.3-2.1c-0.6-0.9-0.8-2-0.8-3.4c0-1.3,0.3-2.5,0.9-3.4
					c0.6-0.9,1.4-1.7,2.3-2.2c1-0.5,2.1-0.8,3.2-0.8s2.1,0.3,3,0.8c0.8,0.5,1.4,1.1,1.8,1.8l-0.2,0.4l0.3-2.5h2.6v11.7h-2.8v-3.1
					l0.3,0.7c-0.1,0.2-0.3,0.4-0.6,0.7c-0.3,0.3-0.6,0.6-1.1,0.9c-0.4,0.3-0.9,0.6-1.5,0.8C145.8,80,145.1,80.1,144.4,80.1z
					 M145.1,78c0.7,0,1.3-0.1,1.9-0.4c0.6-0.2,1-0.6,1.4-1s0.6-1,0.8-1.6v-2.3c-0.2-0.6-0.4-1.1-0.8-1.5c-0.4-0.4-0.9-0.8-1.4-1
					c-0.6-0.2-1.2-0.4-1.8-0.4c-0.8,0-1.5,0.2-2.1,0.5c-0.6,0.3-1.1,0.8-1.5,1.4s-0.6,1.3-0.6,2.1c0,0.8,0.2,1.4,0.6,2.1
					c0.4,0.6,0.9,1.1,1.5,1.5C143.7,77.8,144.4,78,145.1,78z"/>
				<path class="st2" d="M159.3,68.1l0.3,3.4l-0.1-0.5c0.3-0.7,0.8-1.3,1.4-1.8s1.2-0.9,1.9-1.2c0.7-0.3,1.3-0.4,1.7-0.4l-0.1,2.7
					c-1-0.1-1.8,0.1-2.5,0.5c-0.7,0.4-1.3,0.9-1.7,1.6c-0.4,0.7-0.6,1.4-0.6,2.1v5.4h-2.8V68.1H159.3z"/>
				<path class="st2" d="M173.9,80.1c-1.4,0-2.6-0.3-3.7-0.8c-1-0.5-1.8-1.3-2.4-2.2c-0.6-0.9-0.8-2-0.8-3.2c0-1.2,0.3-2.2,0.9-3.1
					c0.6-0.9,1.5-1.7,2.5-2.3c1-0.6,2.2-0.9,3.5-0.9c1.6,0,3,0.5,4.1,1.4c1.1,0.9,1.8,2.2,2.2,3.7L170,76.1l-0.7-1.6l8.4-2.9
					l-0.6,0.4c-0.2-0.6-0.6-1.2-1.2-1.6c-0.6-0.5-1.3-0.7-2.2-0.7c-0.8,0-1.4,0.2-2,0.5c-0.6,0.3-1.1,0.8-1.4,1.4
					c-0.3,0.6-0.5,1.3-0.5,2.1s0.2,1.5,0.5,2.1c0.4,0.6,0.8,1.1,1.5,1.5c0.6,0.3,1.3,0.5,2.1,0.5c0.5,0,1.1-0.1,1.6-0.3
					c0.5-0.2,1-0.4,1.5-0.7l1.3,2c-0.6,0.4-1.3,0.7-2.1,1C175.4,80,174.6,80.1,173.9,80.1z"/>
				<path class="st2" d="M203.4,78.8c-0.6,0.4-1.2,0.8-2,1c-0.8,0.2-1.6,0.4-2.3,0.4c-1.3,0-2.5-0.3-3.6-0.8c-1-0.5-1.8-1.2-2.4-2.2
					c-0.6-0.9-0.9-2-0.9-3.3c0-1.2,0.3-2.3,0.9-3.2c0.6-0.9,1.4-1.6,2.4-2.1c1-0.5,2.1-0.8,3.2-0.8c1,0,1.9,0.1,2.7,0.4
					c0.8,0.3,1.5,0.6,2.1,1.1L202,71c-0.3-0.2-0.8-0.5-1.3-0.7c-0.5-0.2-1.1-0.3-1.8-0.3c-0.7,0-1.4,0.2-2,0.5
					c-0.6,0.4-1.1,0.8-1.4,1.4s-0.5,1.3-0.5,2c0,0.7,0.2,1.4,0.5,2c0.4,0.6,0.9,1.1,1.5,1.4c0.6,0.4,1.4,0.5,2.2,0.5
					c0.5,0,1-0.1,1.5-0.2c0.5-0.2,0.9-0.4,1.2-0.6L203.4,78.8z"/>
				<path class="st2" d="M205.9,73.9c0-1.2,0.3-2.2,0.9-3.2c0.6-0.9,1.4-1.7,2.5-2.2s2.2-0.8,3.6-0.8c1.3,0,2.5,0.3,3.5,0.8
					c1,0.5,1.8,1.3,2.4,2.2c0.6,0.9,0.9,2,0.9,3.2c0,1.2-0.3,2.2-0.9,3.2c-0.6,0.9-1.4,1.7-2.4,2.3c-1,0.6-2.2,0.8-3.6,0.8
					c-1.3,0-2.5-0.3-3.6-0.8c-1-0.5-1.8-1.2-2.4-2.2S205.9,75.1,205.9,73.9z M208.7,73.9c0,0.8,0.2,1.4,0.5,2.1
					c0.4,0.6,0.8,1.1,1.4,1.5c0.6,0.4,1.3,0.5,2,0.5c0.8,0,1.5-0.2,2.1-0.5c0.6-0.4,1.1-0.8,1.4-1.5c0.4-0.6,0.5-1.3,0.5-2.1
					c0-0.8-0.2-1.4-0.5-2.1c-0.4-0.6-0.8-1.1-1.4-1.5c-0.6-0.4-1.3-0.6-2.1-0.6c-0.8,0-1.4,0.2-2.1,0.6c-0.6,0.4-1.1,0.9-1.4,1.5
					C208.9,72.5,208.7,73.2,208.7,73.9z"/>
				<path class="st2" d="M225.9,68.1l0.2,2.9l-0.1-0.5c0.4-0.9,1-1.6,1.9-2.1s2-0.8,3.2-0.8c1.2,0,2.1,0.3,2.9,1
					c0.8,0.7,1.1,1.5,1.2,2.5v8.7h-2.8v-7.8c0-0.6-0.2-1.1-0.6-1.5c-0.4-0.4-0.9-0.6-1.7-0.6c-0.7,0-1.3,0.2-1.9,0.6
					c-0.6,0.4-1.1,0.9-1.4,1.6c-0.3,0.7-0.5,1.4-0.5,2.3v5.5h-2.8V68.1H225.9z"/>
				<path class="st2" d="M249.2,63.9c0-0.4,0.2-0.8,0.5-1c0.4-0.3,0.7-0.4,1.2-0.4c0.4,0,0.8,0.1,1.1,0.4c0.3,0.3,0.5,0.6,0.5,1
					c0,0.4-0.2,0.8-0.5,1.1c-0.3,0.3-0.7,0.4-1.1,0.4c-0.4,0-0.8-0.1-1.2-0.4C249.4,64.7,249.2,64.3,249.2,63.9z M249.4,68.1h2.8
					v11.7h-2.8V68.1z"/>
				<path class="st2" d="M276.7,78.8c-0.6,0.4-1.2,0.8-2,1c-0.8,0.2-1.6,0.4-2.3,0.4c-1.3,0-2.5-0.3-3.6-0.8c-1-0.5-1.8-1.2-2.4-2.2
					c-0.6-0.9-0.9-2-0.9-3.3c0-1.2,0.3-2.3,0.9-3.2c0.6-0.9,1.4-1.6,2.4-2.1c1-0.5,2.1-0.8,3.2-0.8c1,0,1.9,0.1,2.7,0.4
					c0.8,0.3,1.5,0.6,2.1,1.1l-1.4,1.7c-0.3-0.2-0.8-0.5-1.3-0.7c-0.5-0.2-1.1-0.3-1.8-0.3c-0.7,0-1.4,0.2-2,0.5
					c-0.6,0.4-1.1,0.8-1.4,1.4s-0.5,1.3-0.5,2c0,0.7,0.2,1.4,0.5,2c0.4,0.6,0.9,1.1,1.5,1.4c0.6,0.4,1.4,0.5,2.2,0.5
					c0.5,0,1-0.1,1.5-0.2c0.5-0.2,0.9-0.4,1.2-0.6L276.7,78.8z"/>
				<path class="st2" d="M279.2,73.9c0-1.2,0.3-2.2,0.9-3.2c0.6-0.9,1.4-1.7,2.5-2.2s2.2-0.8,3.6-0.8c1.3,0,2.5,0.3,3.5,0.8
					c1,0.5,1.8,1.3,2.4,2.2c0.6,0.9,0.9,2,0.9,3.2c0,1.2-0.3,2.2-0.9,3.2c-0.6,0.9-1.4,1.7-2.4,2.3c-1,0.6-2.2,0.8-3.6,0.8
					c-1.3,0-2.5-0.3-3.6-0.8c-1-0.5-1.8-1.2-2.4-2.2S279.2,75.1,279.2,73.9z M282,73.9c0,0.8,0.2,1.4,0.5,2.1
					c0.4,0.6,0.8,1.1,1.4,1.5c0.6,0.4,1.3,0.5,2,0.5c0.8,0,1.5-0.2,2.1-0.5c0.6-0.4,1.1-0.8,1.4-1.5c0.4-0.6,0.5-1.3,0.5-2.1
					c0-0.8-0.2-1.4-0.5-2.1c-0.4-0.6-0.8-1.1-1.4-1.5c-0.6-0.4-1.3-0.6-2.1-0.6c-0.8,0-1.4,0.2-2.1,0.6c-0.6,0.4-1.1,0.9-1.4,1.5
					C282.2,72.5,282,73.2,282,73.9z"/>
				<path class="st2" d="M299.2,68.1l0.2,2.6l-0.2-0.2c0.5-0.9,1.1-1.6,2-2.1c0.9-0.5,1.8-0.8,3-0.8c0.7,0,1.3,0.1,1.8,0.3
					c0.5,0.2,1,0.5,1.3,0.9c0.4,0.4,0.6,0.9,0.7,1.4l-0.2,0.1c0.5-0.9,1.1-1.5,2-2c0.8-0.5,1.7-0.7,2.7-0.7c1.2,0,2.2,0.3,2.9,1
					s1.1,1.5,1.1,2.5v8.7h-2.8v-7.7c0-0.6-0.2-1.1-0.5-1.5c-0.3-0.4-0.8-0.6-1.5-0.6c-0.7,0-1.4,0.2-1.9,0.6c-0.6,0.4-1,0.9-1.3,1.6
					c-0.3,0.7-0.5,1.4-0.5,2.1v5.6h-2.8v-7.7c0-0.6-0.2-1.1-0.5-1.5c-0.3-0.4-0.8-0.6-1.5-0.6c-0.7,0-1.4,0.2-1.9,0.6
					c-0.6,0.4-1,0.9-1.3,1.6s-0.5,1.4-0.5,2.2v5.5h-2.8V68.1H299.2z"/>
				<path class="st2" d="M328.8,80.1c-0.9,0-1.8-0.2-2.7-0.6s-1.5-1-2-1.7l0.2-0.8v8.5h-2.8V68h2.4l0.4,3l-0.3-0.9
					c0.6-0.7,1.4-1.3,2.3-1.8c0.9-0.5,2-0.7,3.1-0.7c1.2,0,2.2,0.3,3.1,0.8c0.9,0.5,1.7,1.3,2.2,2.2c0.5,1,0.8,2.1,0.8,3.3
					c0,1.2-0.3,2.3-0.9,3.3s-1.4,1.7-2.4,2.2S330.1,80.1,328.8,80.1z M328.3,78c0.8,0,1.5-0.2,2.2-0.5c0.7-0.3,1.2-0.8,1.6-1.4
					c0.4-0.6,0.6-1.3,0.6-2.1c0-0.8-0.2-1.5-0.6-2.1c-0.4-0.6-0.9-1.1-1.5-1.4s-1.3-0.5-2.1-0.5c-0.7,0-1.4,0.1-2,0.4
					c-0.6,0.3-1.1,0.6-1.4,1.1s-0.7,1-0.8,1.6v2c0.1,0.6,0.3,1.1,0.7,1.6c0.4,0.5,0.9,0.8,1.4,1.1C327,77.9,327.6,78,328.3,78z"/>
				<path class="st2" d="M344.5,80.1c-1.2,0-2.2-0.2-3.2-0.7c-1-0.5-1.7-1.2-2.3-2.1c-0.6-0.9-0.8-2-0.8-3.4c0-1.3,0.3-2.5,0.9-3.4
					c0.6-0.9,1.4-1.7,2.3-2.2c1-0.5,2.1-0.8,3.2-0.8s2.1,0.3,3,0.8c0.8,0.5,1.4,1.1,1.8,1.8l-0.2,0.4l0.3-2.5h2.6v11.7h-2.8v-3.1
					l0.3,0.7c-0.1,0.2-0.3,0.4-0.6,0.7c-0.3,0.3-0.6,0.6-1.1,0.9c-0.4,0.3-0.9,0.6-1.5,0.8S345.2,80.1,344.5,80.1z M345.2,78
					c0.7,0,1.3-0.1,1.9-0.4c0.6-0.2,1-0.6,1.4-1s0.6-1,0.8-1.6v-2.3c-0.2-0.6-0.4-1.1-0.8-1.5s-0.9-0.8-1.4-1
					c-0.6-0.2-1.2-0.4-1.8-0.4c-0.8,0-1.5,0.2-2.1,0.5c-0.6,0.3-1.1,0.8-1.5,1.4c-0.4,0.6-0.6,1.3-0.6,2.1c0,0.8,0.2,1.4,0.6,2.1
					c0.4,0.6,0.9,1.1,1.5,1.5C343.8,77.8,344.5,78,345.2,78z"/>
				<path class="st2" d="M363,85.7c-0.9,0-1.7-0.1-2.4-0.3c-0.7-0.2-1.4-0.5-1.9-0.9c-0.6-0.4-1.1-0.8-1.7-1.2l1.7-1.8
					c0.7,0.6,1.3,1,2,1.3c0.7,0.3,1.4,0.5,2.3,0.5c0.9,0,1.7-0.1,2.4-0.4c0.7-0.3,1.1-0.7,1.5-1.2c0.3-0.5,0.5-1.1,0.5-1.8l0-3.2
					l0.2,0.5c-0.4,0.8-1,1.5-2,2.1s-2.1,0.8-3.4,0.8c-1.1,0-2.2-0.3-3.1-0.8s-1.7-1.3-2.3-2.2s-0.9-2-0.9-3.2c0-1.2,0.3-2.3,0.9-3.3
					c0.6-0.9,1.4-1.7,2.4-2.2c1-0.5,2.1-0.8,3.2-0.8c1.1,0,2.1,0.2,3,0.6c0.9,0.4,1.6,1,2,1.6l-0.2,0.5l0.3-2.3h2.6v11.8
					c0,1.1-0.3,2-0.9,2.9s-1.4,1.6-2.5,2.1C365.7,85.4,364.4,85.7,363,85.7z M358.7,73.9c0,0.8,0.2,1.4,0.6,2.1
					c0.4,0.6,0.9,1.1,1.6,1.5c0.7,0.4,1.4,0.5,2.1,0.5c0.7,0,1.4-0.1,2-0.4c0.6-0.3,1.1-0.6,1.5-1.1c0.4-0.5,0.7-1,0.8-1.5v-2.4
					c-0.2-0.6-0.5-1.1-0.9-1.5c-0.4-0.4-0.9-0.7-1.5-1c-0.6-0.2-1.2-0.4-1.9-0.4c-0.8,0-1.5,0.2-2.1,0.5c-0.7,0.3-1.2,0.8-1.6,1.4
					S358.7,73.1,358.7,73.9z"/>
				<path class="st2" d="M377.5,68.1l0.2,2.9l-0.1-0.5c0.4-0.9,1-1.6,1.9-2.1s2-0.8,3.2-0.8c1.2,0,2.1,0.3,2.9,1
					c0.8,0.7,1.1,1.5,1.2,2.5v8.7h-2.8v-7.8c0-0.6-0.2-1.1-0.6-1.5c-0.4-0.4-0.9-0.6-1.7-0.6c-0.7,0-1.3,0.2-1.9,0.6
					c-0.6,0.4-1.1,0.9-1.4,1.6c-0.3,0.7-0.5,1.4-0.5,2.3v5.5h-2.8V68.1H377.5z"/>
				<path class="st2" d="M391.4,63.9c0-0.4,0.2-0.8,0.5-1c0.3-0.3,0.7-0.4,1.2-0.4c0.4,0,0.8,0.1,1.1,0.4c0.3,0.3,0.5,0.6,0.5,1
					c0,0.4-0.2,0.8-0.5,1.1c-0.3,0.3-0.7,0.4-1.1,0.4c-0.4,0-0.8-0.1-1.2-0.4C391.5,64.7,391.4,64.3,391.4,63.9z M391.5,68.1h2.8
					v11.7h-2.8V68.1z"/>
				<path class="st2" d="M414.5,80.1c-1.4,0-2.6-0.3-3.7-0.8c-1-0.5-1.8-1.3-2.4-2.2c-0.6-0.9-0.8-2-0.8-3.2c0-1.2,0.3-2.2,0.9-3.1
					c0.6-0.9,1.5-1.7,2.5-2.3c1-0.6,2.2-0.9,3.5-0.9c1.6,0,3,0.5,4.1,1.4c1.1,0.9,1.8,2.2,2.2,3.7l-10.3,3.4l-0.7-1.6l8.4-2.9
					l-0.6,0.4c-0.2-0.6-0.6-1.2-1.2-1.6s-1.3-0.7-2.2-0.7c-0.8,0-1.4,0.2-2,0.5c-0.6,0.3-1.1,0.8-1.4,1.4c-0.3,0.6-0.5,1.3-0.5,2.1
					s0.2,1.5,0.5,2.1c0.4,0.6,0.8,1.1,1.5,1.5s1.3,0.5,2.1,0.5c0.5,0,1.1-0.1,1.6-0.3c0.5-0.2,1-0.4,1.5-0.7l1.3,2
					c-0.6,0.4-1.3,0.7-2.1,1C416,80,415.2,80.1,414.5,80.1z"/>
				<path class="st2" d="M439,80.1c-1.2,0-2.2-0.2-3.2-0.7c-1-0.5-1.7-1.2-2.3-2.1c-0.6-0.9-0.8-2-0.8-3.4c0-1.3,0.3-2.5,0.9-3.4
					c0.6-0.9,1.4-1.7,2.3-2.2c1-0.5,2.1-0.8,3.2-0.8s2.1,0.3,3,0.8c0.8,0.5,1.4,1.1,1.8,1.8l-0.2,0.4l0.3-2.5h2.6v11.7h-2.8v-3.1
					l0.3,0.7c-0.1,0.2-0.3,0.4-0.6,0.7c-0.3,0.3-0.6,0.6-1.1,0.9c-0.4,0.3-0.9,0.6-1.5,0.8S439.8,80.1,439,80.1z M439.8,78
					c0.7,0,1.3-0.1,1.9-0.4c0.6-0.2,1-0.6,1.4-1s0.6-1,0.8-1.6v-2.3c-0.2-0.6-0.4-1.1-0.8-1.5s-0.9-0.8-1.4-1
					c-0.6-0.2-1.2-0.4-1.8-0.4c-0.8,0-1.5,0.2-2.1,0.5c-0.6,0.3-1.1,0.8-1.5,1.4c-0.4,0.6-0.6,1.3-0.6,2.1c0,0.8,0.2,1.4,0.6,2.1
					c0.4,0.6,0.9,1.1,1.5,1.5C438.3,77.8,439,78,439.8,78z"/>
				<path class="st2" d="M456.5,80.1c-1.2,0-2.2-0.3-3.1-0.8c-0.9-0.5-1.7-1.3-2.2-2.2c-0.6-1-0.8-2.1-0.8-3.3
					c0-1.3,0.3-2.4,0.9-3.3c0.6-0.9,1.4-1.6,2.3-2.1c1-0.5,2.1-0.7,3.3-0.7c1,0,1.9,0.2,2.8,0.6c0.9,0.4,1.6,0.9,2.1,1.6l-0.1,0.9
					V57.9h2.8v21.9h-2.8v-2.9l0.3,0.7c-0.6,0.7-1.4,1.3-2.3,1.8S457.7,80.1,456.5,80.1z M457.4,77.9c0.7,0,1.4-0.1,2-0.4
					c0.6-0.3,1.1-0.6,1.4-1.1c0.4-0.4,0.7-1,0.8-1.6v-2.2c-0.2-0.6-0.4-1.1-0.9-1.5c-0.4-0.4-0.9-0.8-1.5-1
					c-0.6-0.2-1.2-0.4-1.9-0.4c-0.7,0-1.4,0.2-2.1,0.5c-0.6,0.3-1.2,0.8-1.5,1.4c-0.4,0.6-0.6,1.3-0.6,2.1c0,0.8,0.2,1.5,0.6,2.1
					c0.4,0.6,0.9,1.1,1.5,1.5C456,77.7,456.7,77.9,457.4,77.9z"/>
				<path class="st2" d="M484,80.1c-1.2,0-2.2-0.2-3.2-0.7c-1-0.5-1.7-1.2-2.3-2.1c-0.6-0.9-0.8-2-0.8-3.4c0-1.3,0.3-2.5,0.9-3.4
					c0.6-0.9,1.4-1.7,2.3-2.2c1-0.5,2.1-0.8,3.2-0.8s2.1,0.3,3,0.8c0.8,0.5,1.4,1.1,1.8,1.8l-0.2,0.4l0.3-2.5h2.6v11.7h-2.8v-3.1
					l0.3,0.7c-0.1,0.2-0.3,0.4-0.6,0.7c-0.3,0.3-0.6,0.6-1.1,0.9c-0.4,0.3-0.9,0.6-1.5,0.8S484.7,80.1,484,80.1z M484.7,78
					c0.7,0,1.3-0.1,1.9-0.4c0.6-0.2,1-0.6,1.4-1s0.6-1,0.8-1.6v-2.3c-0.2-0.6-0.4-1.1-0.8-1.5s-0.9-0.8-1.4-1
					c-0.6-0.2-1.2-0.4-1.8-0.4c-0.8,0-1.5,0.2-2.1,0.5c-0.6,0.3-1.1,0.8-1.5,1.4c-0.4,0.6-0.6,1.3-0.6,2.1c0,0.8,0.2,1.4,0.6,2.1
					c0.4,0.6,0.9,1.1,1.5,1.5C483.3,77.8,484,78,484.7,78z"/>
				<path class="st2" d="M499,68.1l0.2,2.6l-0.2-0.2c0.5-0.9,1.1-1.6,2-2.1c0.9-0.5,1.8-0.8,3-0.8c0.7,0,1.3,0.1,1.8,0.3
					c0.5,0.2,1,0.5,1.3,0.9c0.4,0.4,0.6,0.9,0.7,1.4l-0.2,0.1c0.5-0.9,1.1-1.5,2-2c0.9-0.5,1.7-0.7,2.7-0.7c1.2,0,2.2,0.3,2.9,1
					s1.1,1.5,1.1,2.5v8.7h-2.8v-7.7c0-0.6-0.2-1.1-0.5-1.5c-0.3-0.4-0.8-0.6-1.5-0.6c-0.7,0-1.4,0.2-1.9,0.6c-0.6,0.4-1,0.9-1.3,1.6
					c-0.3,0.7-0.5,1.4-0.5,2.1v5.6H505v-7.7c0-0.6-0.2-1.1-0.5-1.5c-0.3-0.4-0.8-0.6-1.5-0.6c-0.7,0-1.4,0.2-1.9,0.6
					c-0.6,0.4-1,0.9-1.3,1.6c-0.3,0.7-0.5,1.4-0.5,2.2v5.5h-2.8V68.1H499z"/>
				<path class="st2" d="M528.8,80.1c-1.2,0-2.2-0.2-3-0.7c-0.9-0.5-1.6-1.1-2.1-1.8l0.3-0.8v3h-2.8V57.9h2.8v12.9l-0.1-1
					c0.5-0.6,1.2-1.1,2.1-1.5c0.9-0.4,2-0.6,3.1-0.6c1.1,0,2.1,0.3,3,0.8c0.9,0.5,1.7,1.2,2.2,2.1c0.6,0.9,0.8,2,0.8,3.2
					c0,1.3-0.3,2.5-0.9,3.4c-0.6,1-1.4,1.7-2.4,2.2C531,79.9,530,80.1,528.8,80.1z M528.2,77.9c0.8,0,1.5-0.2,2.2-0.5
					c0.6-0.4,1.1-0.9,1.5-1.5c0.4-0.6,0.5-1.3,0.5-2.1c0-0.8-0.2-1.4-0.6-2.1s-0.9-1.1-1.5-1.4c-0.6-0.3-1.3-0.5-2.1-0.5
					c-0.7,0-1.3,0.1-1.9,0.4c-0.6,0.2-1.1,0.6-1.5,1c-0.4,0.4-0.7,0.9-0.9,1.5V75c0.2,0.5,0.4,1,0.8,1.5c0.4,0.4,0.9,0.8,1.5,1
					C526.9,77.8,527.5,77.9,528.2,77.9z"/>
				<path class="st2" d="M538.8,63.9c0-0.4,0.2-0.8,0.5-1c0.3-0.3,0.7-0.4,1.2-0.4c0.4,0,0.8,0.1,1.1,0.4c0.3,0.3,0.5,0.6,0.5,1
					c0,0.4-0.2,0.8-0.5,1.1c-0.3,0.3-0.7,0.4-1.1,0.4c-0.4,0-0.8-0.1-1.2-0.4C539,64.7,538.8,64.3,538.8,63.9z M539,68.1h2.8v11.7
					H539V68.1z"/>
				<path class="st2" d="M552.5,80.1c-1.4,0-2.6-0.3-3.7-0.8c-1-0.5-1.8-1.3-2.4-2.2c-0.6-0.9-0.8-2-0.8-3.2c0-1.2,0.3-2.2,0.9-3.1
					c0.6-0.9,1.5-1.7,2.5-2.3c1-0.6,2.2-0.9,3.5-0.9c1.6,0,3,0.5,4.1,1.4c1.1,0.9,1.8,2.2,2.2,3.7l-10.3,3.4l-0.7-1.6l8.4-2.9
					l-0.6,0.4c-0.2-0.6-0.6-1.2-1.2-1.6s-1.3-0.7-2.2-0.7c-0.8,0-1.4,0.2-2,0.5c-0.6,0.3-1.1,0.8-1.4,1.4c-0.3,0.6-0.5,1.3-0.5,2.1
					s0.2,1.5,0.5,2.1c0.4,0.6,0.8,1.1,1.5,1.5s1.3,0.5,2.1,0.5c0.5,0,1.1-0.1,1.6-0.3c0.5-0.2,1-0.4,1.5-0.7l1.3,2
					c-0.6,0.4-1.3,0.7-2.1,1C554,80,553.2,80.1,552.5,80.1z"/>
				<path class="st2" d="M564.9,68.1l0.2,2.9l-0.1-0.5c0.4-0.9,1-1.6,1.9-2.1s2-0.8,3.2-0.8c1.2,0,2.1,0.3,2.9,1
					c0.8,0.7,1.1,1.5,1.2,2.5v8.7h-2.8v-7.8c0-0.6-0.2-1.1-0.6-1.5c-0.4-0.4-0.9-0.6-1.7-0.6c-0.7,0-1.3,0.2-1.9,0.6
					c-0.6,0.4-1.1,0.9-1.4,1.6c-0.3,0.7-0.5,1.4-0.5,2.3v5.5h-2.8V68.1H564.9z"/>
				<path class="st2" d="M580.1,63h2.9v5.2h3.4v2.1H583v9.6h-2.9v-9.6h-2.3v-2.1h2.3V63z"/>
				<path class="st2" d="M594.9,80.1c-1.2,0-2.2-0.2-3.2-0.7c-1-0.5-1.7-1.2-2.3-2.1c-0.6-0.9-0.8-2-0.8-3.4c0-1.3,0.3-2.5,0.9-3.4
					c0.6-0.9,1.4-1.7,2.3-2.2c1-0.5,2.1-0.8,3.2-0.8s2.1,0.3,3,0.8c0.8,0.5,1.4,1.1,1.8,1.8l-0.2,0.4l0.3-2.5h2.6v11.7h-2.8v-3.1
					l0.3,0.7c-0.1,0.2-0.3,0.4-0.6,0.7c-0.3,0.3-0.6,0.6-1.1,0.9c-0.4,0.3-0.9,0.6-1.5,0.8S595.7,80.1,594.9,80.1z M595.7,78
					c0.7,0,1.3-0.1,1.9-0.4c0.6-0.2,1-0.6,1.4-1s0.6-1,0.8-1.6v-2.3c-0.2-0.6-0.4-1.1-0.8-1.5s-0.9-0.8-1.4-1
					c-0.6-0.2-1.2-0.4-1.8-0.4c-0.8,0-1.5,0.2-2.1,0.5c-0.6,0.3-1.1,0.8-1.5,1.4c-0.4,0.6-0.6,1.3-0.6,2.1c0,0.8,0.2,1.4,0.6,2.1
					c0.4,0.6,0.9,1.1,1.5,1.5C594.3,77.8,595,78,595.7,78z"/>
				<path class="st2" d="M609.9,68.1l0.3,3.4l-0.1-0.5c0.3-0.7,0.8-1.3,1.4-1.8s1.2-0.9,1.9-1.2c0.7-0.3,1.3-0.4,1.7-0.4l-0.1,2.7
					c-1-0.1-1.8,0.1-2.5,0.5c-0.7,0.4-1.3,0.9-1.7,1.6c-0.4,0.7-0.6,1.4-0.6,2.1v5.4h-2.8V68.1H609.9z"/>
				<path class="st2" d="M622.2,80.1c-0.9,0-1.7-0.1-2.6-0.4c-0.8-0.3-1.5-0.7-2.1-1.3l1.2-1.5c0.5,0.5,1.1,0.8,1.6,1.1
					s1.1,0.4,1.6,0.4c0.4,0,0.8,0,1.1-0.1c0.3-0.1,0.6-0.3,0.8-0.5c0.2-0.2,0.3-0.5,0.3-0.9c0-0.4-0.1-0.8-0.4-1
					c-0.3-0.2-0.7-0.4-1.1-0.6s-0.9-0.3-1.4-0.4c-1-0.3-1.8-0.8-2.3-1.3s-0.8-1.3-0.8-2.1c0-0.6,0.2-1.2,0.5-1.7
					c0.3-0.5,0.8-1,1.5-1.3c0.7-0.3,1.5-0.5,2.4-0.5c0.9,0,1.6,0.1,2.3,0.3c0.7,0.2,1.3,0.5,1.9,1l-1.1,1.6
					c-0.4-0.4-0.8-0.6-1.3-0.8s-0.9-0.3-1.3-0.3c-0.4,0-0.7,0.1-1,0.2c-0.3,0.1-0.6,0.3-0.8,0.5c-0.2,0.2-0.3,0.4-0.3,0.8
					c0,0.4,0.1,0.7,0.4,0.9c0.3,0.2,0.7,0.4,1.1,0.6c0.4,0.2,0.9,0.3,1.4,0.5c0.6,0.2,1.1,0.4,1.6,0.7c0.5,0.3,0.9,0.6,1.2,1
					c0.3,0.4,0.4,0.9,0.4,1.6c0,0.7-0.2,1.3-0.5,1.9c-0.4,0.6-0.9,1.1-1.6,1.4C624.2,79.9,623.3,80.1,622.2,80.1z"/>
				<path class="st2" d="M630.7,63.9c0-0.4,0.2-0.8,0.5-1c0.3-0.3,0.7-0.4,1.2-0.4c0.4,0,0.8,0.1,1.1,0.4c0.3,0.3,0.5,0.6,0.5,1
					c0,0.4-0.2,0.8-0.5,1.1c-0.3,0.3-0.7,0.4-1.1,0.4c-0.4,0-0.8-0.1-1.2-0.4C630.9,64.7,630.7,64.3,630.7,63.9z M630.9,68.1h2.8
					v11.7h-2.8V68.1z"/>
				<path class="st2" d="M641.2,77.4c-0.4,1-0.9,2-1.3,3c-0.4,1-0.9,2-1.3,3h-2.3c0.4-1,0.8-2,1.2-3s0.8-2,1.1-3H641.2z"/>
			</g>
		</g>
		<g>
			<g class="st1">
				<path class="st2" d="M31.9,114.1c-0.9,0-1.7-0.1-2.6-0.4c-0.8-0.3-1.5-0.7-2.1-1.3l1.2-1.5c0.5,0.5,1.1,0.8,1.6,1.1
					s1.1,0.4,1.6,0.4c0.4,0,0.8,0,1.1-0.1c0.3-0.1,0.6-0.3,0.8-0.5s0.3-0.5,0.3-0.9c0-0.4-0.1-0.8-0.4-1c-0.3-0.2-0.7-0.4-1.1-0.6
					c-0.4-0.2-0.9-0.3-1.4-0.4c-1-0.3-1.8-0.8-2.3-1.3s-0.8-1.3-0.8-2.1c0-0.6,0.2-1.2,0.5-1.7c0.3-0.5,0.8-1,1.5-1.3
					c0.7-0.3,1.5-0.5,2.4-0.5c0.9,0,1.6,0.1,2.3,0.3c0.7,0.2,1.3,0.5,1.9,1l-1.1,1.6c-0.4-0.4-0.8-0.6-1.3-0.8
					c-0.5-0.2-0.9-0.3-1.3-0.3c-0.4,0-0.7,0.1-1,0.2s-0.6,0.3-0.8,0.5c-0.2,0.2-0.3,0.4-0.3,0.8c0,0.4,0.1,0.7,0.4,0.9
					c0.3,0.2,0.7,0.4,1.1,0.6c0.4,0.2,0.9,0.3,1.4,0.5c0.6,0.2,1.1,0.4,1.6,0.7s0.9,0.6,1.2,1c0.3,0.4,0.4,0.9,0.4,1.6
					c0,0.7-0.2,1.3-0.5,1.9c-0.4,0.6-0.9,1.1-1.6,1.4C33.9,113.9,33,114.1,31.9,114.1z"/>
				<path class="st2" d="M39.6,107.9c0-1.2,0.3-2.2,0.9-3.2c0.6-0.9,1.4-1.7,2.5-2.2s2.2-0.8,3.6-0.8c1.3,0,2.5,0.3,3.5,0.8
					c1,0.5,1.8,1.3,2.4,2.2c0.6,0.9,0.9,2,0.9,3.2c0,1.2-0.3,2.2-0.9,3.2c-0.6,0.9-1.4,1.7-2.4,2.3c-1,0.6-2.2,0.8-3.6,0.8
					c-1.3,0-2.5-0.3-3.6-0.8c-1-0.5-1.8-1.2-2.4-2.2S39.6,109.2,39.6,107.9z M42.4,107.9c0,0.8,0.2,1.4,0.5,2.1
					c0.4,0.6,0.8,1.1,1.4,1.5s1.3,0.5,2,0.5c0.8,0,1.5-0.2,2.1-0.5s1.1-0.8,1.4-1.5c0.4-0.6,0.5-1.3,0.5-2.1s-0.2-1.4-0.5-2.1
					c-0.4-0.6-0.8-1.1-1.4-1.5c-0.6-0.4-1.3-0.6-2.1-0.6c-0.8,0-1.4,0.2-2.1,0.6c-0.6,0.4-1.1,0.9-1.4,1.5
					C42.6,106.5,42.4,107.2,42.4,107.9z"/>
				<path class="st2" d="M64.4,114.2c-0.9,0-1.8-0.2-2.7-0.6c-0.9-0.4-1.5-1-2-1.7l0.2-0.8v8.5H57V102h2.4l0.4,3l-0.3-0.8
					c0.6-0.7,1.4-1.3,2.3-1.8c0.9-0.5,2-0.7,3.1-0.7c1.2,0,2.2,0.3,3.1,0.8c0.9,0.5,1.7,1.3,2.2,2.2c0.5,1,0.8,2.1,0.8,3.3
					c0,1.2-0.3,2.3-0.9,3.3c-0.6,0.9-1.4,1.7-2.4,2.2C66.8,113.9,65.7,114.2,64.4,114.2z M63.8,112.1c0.8,0,1.5-0.2,2.2-0.5
					c0.7-0.3,1.2-0.8,1.6-1.4c0.4-0.6,0.6-1.3,0.6-2.1c0-0.8-0.2-1.5-0.6-2.1c-0.4-0.6-0.9-1.1-1.5-1.4c-0.6-0.3-1.3-0.5-2.1-0.5
					c-0.7,0-1.4,0.1-2,0.4c-0.6,0.3-1.1,0.6-1.4,1.1s-0.7,1-0.8,1.6v2c0.1,0.6,0.3,1.1,0.7,1.6c0.4,0.5,0.9,0.8,1.4,1.1
					C62.6,111.9,63.2,112.1,63.8,112.1z"/>
			</g>
		</g>
		<g>
			<g class="st1">
				<path class="st2" d="M77.4,102.2l0.3,3.4l-0.1-0.5c0.3-0.7,0.8-1.3,1.4-1.8c0.6-0.5,1.2-0.9,1.9-1.2c0.7-0.3,1.3-0.4,1.7-0.4
					l-0.1,2.7c-1-0.1-1.8,0.1-2.5,0.5c-0.7,0.4-1.3,0.9-1.7,1.6c-0.4,0.7-0.6,1.4-0.6,2.1v5.4h-2.8v-11.7H77.4z"/>
			</g>
		</g>
		<g>
			<g class="st1">
				<path class="st2" d="M91,114.2c-1.2,0-2.2-0.2-3.2-0.7c-1-0.5-1.7-1.2-2.3-2.1c-0.6-0.9-0.8-2-0.8-3.4c0-1.3,0.3-2.5,0.9-3.4
					c0.6-0.9,1.4-1.7,2.3-2.2c1-0.5,2.1-0.8,3.2-0.8s2.1,0.2,3,0.8c0.8,0.5,1.4,1.1,1.8,1.8l-0.2,0.4l0.3-2.5h2.6v11.7h-2.8v-3.1
					l0.3,0.7c-0.1,0.2-0.3,0.4-0.6,0.7c-0.3,0.3-0.6,0.6-1.1,0.9c-0.4,0.3-0.9,0.6-1.5,0.8C92.4,114.1,91.8,114.2,91,114.2z
					 M91.8,112c0.7,0,1.3-0.1,1.9-0.4c0.6-0.2,1-0.6,1.4-1c0.4-0.5,0.6-1,0.8-1.6v-2.3c-0.2-0.6-0.4-1.1-0.8-1.5
					c-0.4-0.4-0.9-0.8-1.4-1s-1.2-0.4-1.8-0.4c-0.8,0-1.5,0.2-2.1,0.5c-0.6,0.3-1.1,0.8-1.5,1.4c-0.4,0.6-0.6,1.3-0.6,2.1
					c0,0.8,0.2,1.4,0.6,2.1c0.4,0.6,0.9,1.1,1.5,1.5C90.4,111.8,91,112,91.8,112z"/>
				<path class="st2" d="M104.7,97h2.9v5.2h3.4v2.1h-3.4v9.6h-2.9v-9.6h-2.3v-2.1h2.3V97z"/>
				<path class="st2" d="M115.5,97h2.9v5.2h3.4v2.1h-3.4v9.6h-2.9v-9.6h-2.3v-2.1h2.3V97z"/>
				<path class="st2" d="M129.1,114.3c-1.2,0-2.1-0.3-2.8-1c-0.7-0.7-1.1-1.5-1.2-2.5v-8.7h2.8v7.7c0,0.6,0.2,1.1,0.6,1.5
					c0.4,0.4,0.9,0.6,1.7,0.6c0.7,0,1.3-0.2,1.8-0.6c0.6-0.4,1-0.9,1.3-1.6c0.3-0.7,0.5-1.4,0.5-2.3v-5.5h2.8v11.7h-2.6l-0.2-2.9
					l0.2,0.5c-0.3,0.5-0.6,1-1.1,1.4c-0.5,0.4-1.1,0.8-1.7,1S129.9,114.3,129.1,114.3z"/>
				<path class="st2" d="M142.7,97h2.9v5.2h3.4v2.1h-3.4v9.6h-2.9v-9.6h-2.3v-2.1h2.3V97z"/>
				<path class="st2" d="M153.5,97h2.9v5.2h3.4v2.1h-3.4v9.6h-2.9v-9.6h-2.3v-2.1h2.3V97z"/>
				<path class="st2" d="M162.1,107.9c0-1.2,0.3-2.2,0.9-3.2c0.6-0.9,1.4-1.7,2.5-2.2s2.2-0.8,3.6-0.8c1.3,0,2.5,0.3,3.5,0.8
					c1,0.5,1.8,1.3,2.4,2.2c0.6,0.9,0.9,2,0.9,3.2c0,1.2-0.3,2.2-0.9,3.2c-0.6,0.9-1.4,1.7-2.4,2.3c-1,0.6-2.2,0.8-3.6,0.8
					c-1.3,0-2.5-0.3-3.6-0.8c-1-0.5-1.8-1.2-2.4-2.2S162.1,109.2,162.1,107.9z M164.9,107.9c0,0.8,0.2,1.4,0.5,2.1
					c0.4,0.6,0.8,1.1,1.4,1.5s1.3,0.5,2,0.5c0.8,0,1.5-0.2,2.1-0.5s1.1-0.8,1.4-1.5c0.4-0.6,0.5-1.3,0.5-2.1s-0.2-1.4-0.5-2.1
					c-0.4-0.6-0.8-1.1-1.4-1.5c-0.6-0.4-1.3-0.6-2.1-0.6c-0.8,0-1.4,0.2-2.1,0.6c-0.6,0.4-1.1,0.9-1.4,1.5
					C165.1,106.5,164.9,107.2,164.9,107.9z"/>
				<path class="st2" d="M196.4,114.2c-0.9,0-1.8-0.2-2.7-0.6c-0.9-0.4-1.5-1-2-1.7l0.2-0.8v8.5H189V102h2.4l0.4,3l-0.3-0.8
					c0.6-0.7,1.4-1.3,2.3-1.8c0.9-0.5,2-0.7,3.1-0.7c1.2,0,2.2,0.3,3.1,0.8c0.9,0.5,1.7,1.3,2.2,2.2c0.5,1,0.8,2.1,0.8,3.3
					c0,1.2-0.3,2.3-0.9,3.3c-0.6,0.9-1.4,1.7-2.4,2.2C198.8,113.9,197.7,114.2,196.4,114.2z M195.8,112.1c0.8,0,1.5-0.2,2.2-0.5
					c0.7-0.3,1.2-0.8,1.6-1.4c0.4-0.6,0.6-1.3,0.6-2.1c0-0.8-0.2-1.5-0.6-2.1c-0.4-0.6-0.9-1.1-1.5-1.4c-0.6-0.3-1.3-0.5-2.1-0.5
					c-0.7,0-1.4,0.1-2,0.4c-0.6,0.3-1.1,0.6-1.4,1.1s-0.7,1-0.8,1.6v2c0.1,0.6,0.3,1.1,0.7,1.6c0.4,0.5,0.9,0.8,1.4,1.1
					C194.6,111.9,195.2,112.1,195.8,112.1z"/>
				<path class="st2" d="M212.6,114.2c-1.4,0-2.6-0.3-3.7-0.8c-1-0.5-1.8-1.3-2.4-2.2c-0.6-0.9-0.8-2-0.8-3.2c0-1.2,0.3-2.2,0.9-3.1
					c0.6-0.9,1.5-1.7,2.5-2.3c1-0.6,2.2-0.9,3.5-0.9c1.6,0,3,0.5,4.1,1.4c1.1,0.9,1.8,2.2,2.2,3.7l-10.3,3.4l-0.7-1.6l8.4-2.9
					l-0.6,0.4c-0.2-0.6-0.6-1.2-1.2-1.6c-0.6-0.5-1.3-0.7-2.2-0.7c-0.8,0-1.4,0.2-2,0.5c-0.6,0.3-1.1,0.8-1.4,1.4
					c-0.3,0.6-0.5,1.3-0.5,2.1c0,0.8,0.2,1.5,0.5,2.1c0.4,0.6,0.8,1.1,1.5,1.5c0.6,0.3,1.3,0.5,2.1,0.5c0.5,0,1.1-0.1,1.6-0.3
					s1-0.4,1.5-0.7l1.3,2c-0.6,0.4-1.3,0.7-2.1,1C214.1,114,213.4,114.2,212.6,114.2z"/>
				<path class="st2" d="M225,102.2l0.3,3.4l-0.1-0.5c0.3-0.7,0.8-1.3,1.4-1.8c0.6-0.5,1.2-0.9,1.9-1.2c0.7-0.3,1.3-0.4,1.7-0.4
					l-0.1,2.7c-1-0.1-1.8,0.1-2.5,0.5c-0.7,0.4-1.3,0.9-1.7,1.6c-0.4,0.7-0.6,1.4-0.6,2.1v5.4h-2.8v-11.7H225z"/>
				<path class="st2" d="M243.9,112.8c-0.6,0.4-1.2,0.8-2,1c-0.8,0.2-1.6,0.4-2.3,0.4c-1.3,0-2.5-0.3-3.6-0.8
					c-1-0.5-1.8-1.2-2.4-2.2c-0.6-0.9-0.9-2-0.9-3.3c0-1.2,0.3-2.3,0.9-3.2c0.6-0.9,1.4-1.6,2.4-2.1c1-0.5,2.1-0.8,3.2-0.8
					c1,0,1.9,0.1,2.7,0.4c0.8,0.3,1.5,0.6,2.1,1.1l-1.4,1.7c-0.3-0.2-0.8-0.5-1.3-0.7c-0.5-0.2-1.1-0.3-1.8-0.3
					c-0.7,0-1.4,0.2-2,0.5c-0.6,0.4-1.1,0.8-1.4,1.4s-0.5,1.3-0.5,2c0,0.7,0.2,1.4,0.5,2c0.4,0.6,0.9,1.1,1.5,1.4s1.4,0.5,2.2,0.5
					c0.5,0,1-0.1,1.5-0.2c0.5-0.2,0.9-0.4,1.2-0.6L243.9,112.8z"/>
				<path class="st2" d="M247.5,113.9V91.9h2.8v12.9l-0.1-0.5c0.4-0.8,1.1-1.4,1.9-1.9c0.9-0.5,1.9-0.8,3.1-0.8c1.2,0,2.1,0.3,2.9,1
					c0.8,0.7,1.1,1.5,1.2,2.5v8.7h-2.8v-7.8c0-0.6-0.2-1.1-0.6-1.5c-0.4-0.4-0.9-0.6-1.7-0.6c-0.7,0-1.3,0.2-1.9,0.6
					c-0.6,0.4-1.1,0.9-1.4,1.6s-0.5,1.4-0.5,2.3v5.5H247.5z"/>
				<path class="st2" d="M269.9,114.2c-1.4,0-2.6-0.3-3.7-0.8c-1-0.5-1.8-1.3-2.4-2.2c-0.6-0.9-0.8-2-0.8-3.2c0-1.2,0.3-2.2,0.9-3.1
					c0.6-0.9,1.5-1.7,2.5-2.3c1-0.6,2.2-0.9,3.5-0.9c1.6,0,3,0.5,4.1,1.4c1.1,0.9,1.8,2.2,2.2,3.7l-10.3,3.4l-0.7-1.6l8.4-2.9
					l-0.6,0.4c-0.2-0.6-0.6-1.2-1.2-1.6c-0.6-0.5-1.3-0.7-2.2-0.7c-0.8,0-1.4,0.2-2,0.5c-0.6,0.3-1.1,0.8-1.4,1.4
					c-0.3,0.6-0.5,1.3-0.5,2.1c0,0.8,0.2,1.5,0.5,2.1c0.4,0.6,0.8,1.1,1.5,1.5c0.6,0.3,1.3,0.5,2.1,0.5c0.5,0,1.1-0.1,1.6-0.3
					s1-0.4,1.5-0.7l1.3,2c-0.6,0.4-1.3,0.7-2.1,1C271.4,114,270.6,114.2,269.9,114.2z M273.2,96.2l-3.8,3.8h-1.8l2.5-3.8H273.2z"/>
				<path class="st2" d="M295.3,119.7c-0.9,0-1.7-0.1-2.4-0.3c-0.7-0.2-1.4-0.5-1.9-0.9c-0.6-0.4-1.1-0.8-1.7-1.2l1.7-1.8
					c0.7,0.6,1.3,1,2,1.3c0.7,0.3,1.4,0.5,2.3,0.5c0.9,0,1.7-0.1,2.4-0.4c0.7-0.3,1.1-0.7,1.5-1.2s0.5-1.1,0.5-1.8l0-3.2l0.2,0.5
					c-0.4,0.8-1,1.5-2,2.1c-0.9,0.6-2.1,0.8-3.4,0.8c-1.1,0-2.2-0.3-3.1-0.8c-1-0.5-1.7-1.3-2.3-2.2c-0.6-0.9-0.9-2-0.9-3.2
					c0-1.2,0.3-2.3,0.9-3.3s1.4-1.7,2.4-2.2c1-0.5,2.1-0.8,3.2-0.8c1.1,0,2.1,0.2,3,0.6c0.9,0.4,1.6,1,2,1.6l-0.2,0.5l0.3-2.3h2.6
					V114c0,1.1-0.3,2-0.9,2.9s-1.4,1.6-2.5,2.1C298,119.5,296.7,119.7,295.3,119.7z M291,107.9c0,0.8,0.2,1.4,0.6,2.1
					c0.4,0.6,0.9,1.1,1.6,1.5c0.7,0.4,1.4,0.5,2.1,0.5c0.7,0,1.4-0.1,2-0.4c0.6-0.3,1.1-0.6,1.5-1.1c0.4-0.5,0.7-1,0.8-1.5v-2.4
					c-0.2-0.6-0.5-1.1-0.9-1.5c-0.4-0.4-0.9-0.7-1.5-1c-0.6-0.2-1.2-0.4-1.9-0.4c-0.8,0-1.5,0.2-2.1,0.5c-0.7,0.3-1.2,0.8-1.6,1.4
					C291.2,106.4,291,107.1,291,107.9z"/>
				<path class="st2" d="M307.2,91.9h2.8v21.9h-2.8V91.9z"/>
				<path class="st2" d="M314.7,97.9c0-0.4,0.2-0.8,0.5-1c0.3-0.3,0.7-0.4,1.2-0.4c0.4,0,0.8,0.1,1.1,0.4c0.3,0.3,0.5,0.6,0.5,1
					c0,0.4-0.2,0.8-0.5,1.1c-0.3,0.3-0.7,0.4-1.1,0.4c-0.4,0-0.8-0.1-1.2-0.4C314.9,98.7,314.7,98.3,314.7,97.9z M314.9,102.2h2.8
					v11.7h-2.8V102.2z"/>
				<path class="st2" d="M331.9,97.9c0-0.4,0.2-0.8,0.5-1c0.3-0.3,0.7-0.4,1.2-0.4c0.4,0,0.8,0.1,1.1,0.4c0.3,0.3,0.5,0.6,0.5,1
					c0,0.4-0.2,0.8-0.5,1.1c-0.3,0.3-0.7,0.4-1.1,0.4c-0.4,0-0.8-0.1-1.2-0.4C332,98.7,331.9,98.3,331.9,97.9z M332,102.2h2.8v11.7
					H332V102.2z"/>
				<path class="st2" d="M342.3,102.2l0.2,2.9l-0.1-0.5c0.4-0.9,1-1.6,1.9-2.1c0.9-0.5,2-0.8,3.2-0.8c1.2,0,2.1,0.3,2.9,1
					c0.8,0.7,1.1,1.5,1.2,2.5v8.7h-2.8v-7.8c0-0.6-0.2-1.1-0.6-1.5c-0.4-0.4-0.9-0.6-1.7-0.6c-0.7,0-1.3,0.2-1.9,0.6
					c-0.6,0.4-1.1,0.9-1.4,1.6c-0.3,0.7-0.5,1.4-0.5,2.3v5.5h-2.8v-11.7H342.3z"/>
				<path class="st2" d="M359.8,114.1c-0.9,0-1.7-0.1-2.6-0.4s-1.5-0.7-2.1-1.3l1.2-1.5c0.5,0.5,1.1,0.8,1.6,1.1s1.1,0.4,1.6,0.4
					c0.4,0,0.8,0,1.1-0.1s0.6-0.3,0.8-0.5c0.2-0.2,0.3-0.5,0.3-0.9c0-0.4-0.1-0.8-0.4-1c-0.3-0.2-0.7-0.4-1.1-0.6s-0.9-0.3-1.4-0.4
					c-1-0.3-1.8-0.8-2.3-1.3s-0.8-1.3-0.8-2.1c0-0.6,0.2-1.2,0.5-1.7c0.3-0.5,0.8-1,1.5-1.3c0.7-0.3,1.5-0.5,2.4-0.5
					c0.9,0,1.6,0.1,2.3,0.3s1.3,0.5,1.9,1l-1.1,1.6c-0.4-0.4-0.8-0.6-1.3-0.8s-0.9-0.3-1.3-0.3c-0.4,0-0.7,0.1-1,0.2
					s-0.6,0.3-0.8,0.5c-0.2,0.2-0.3,0.4-0.3,0.8c0,0.4,0.1,0.7,0.4,0.9c0.3,0.2,0.7,0.4,1.1,0.6s0.9,0.3,1.4,0.5
					c0.6,0.2,1.1,0.4,1.6,0.7c0.5,0.3,0.9,0.6,1.2,1c0.3,0.4,0.4,0.9,0.4,1.6c0,0.7-0.2,1.3-0.5,1.9s-0.9,1.1-1.6,1.4
					C361.8,113.9,360.9,114.1,359.8,114.1z"/>
				<path class="st2" d="M374.3,114.2c-1.4,0-2.6-0.3-3.7-0.8c-1-0.5-1.8-1.3-2.4-2.2c-0.6-0.9-0.8-2-0.8-3.2c0-1.2,0.3-2.2,0.9-3.1
					c0.6-0.9,1.5-1.7,2.5-2.3c1-0.6,2.2-0.9,3.5-0.9c1.6,0,3,0.5,4.1,1.4c1.1,0.9,1.8,2.2,2.2,3.7l-10.3,3.4l-0.7-1.6l8.4-2.9
					l-0.6,0.4c-0.2-0.6-0.6-1.2-1.2-1.6s-1.3-0.7-2.2-0.7c-0.8,0-1.4,0.2-2,0.5c-0.6,0.3-1.1,0.8-1.4,1.4c-0.3,0.6-0.5,1.3-0.5,2.1
					c0,0.8,0.2,1.5,0.5,2.1c0.4,0.6,0.8,1.1,1.5,1.5s1.3,0.5,2.1,0.5c0.5,0,1.1-0.1,1.6-0.3s1-0.4,1.5-0.7l1.3,2
					c-0.6,0.4-1.3,0.7-2.1,1S375.1,114.2,374.3,114.2z"/>
				<path class="st2" d="M390.2,119.7c-0.9,0-1.7-0.1-2.4-0.3s-1.4-0.5-1.9-0.9c-0.6-0.4-1.1-0.8-1.7-1.2l1.7-1.8
					c0.7,0.6,1.3,1,2,1.3c0.7,0.3,1.4,0.5,2.3,0.5c0.9,0,1.7-0.1,2.4-0.4c0.7-0.3,1.1-0.7,1.5-1.2c0.3-0.5,0.5-1.1,0.5-1.8l0-3.2
					l0.2,0.5c-0.4,0.8-1,1.5-2,2.1s-2.1,0.8-3.4,0.8c-1.1,0-2.2-0.3-3.1-0.8c-1-0.5-1.7-1.3-2.3-2.2s-0.9-2-0.9-3.2
					c0-1.2,0.3-2.3,0.9-3.3c0.6-0.9,1.4-1.7,2.4-2.2c1-0.5,2.1-0.8,3.2-0.8c1.1,0,2.1,0.2,3,0.6c0.9,0.4,1.6,1,2,1.6l-0.2,0.5
					l0.3-2.3h2.6V114c0,1.1-0.3,2-0.9,2.9s-1.4,1.6-2.5,2.1C392.9,119.5,391.7,119.7,390.2,119.7z M385.9,107.9
					c0,0.8,0.2,1.4,0.6,2.1c0.4,0.6,0.9,1.1,1.6,1.5c0.7,0.4,1.4,0.5,2.1,0.5c0.7,0,1.4-0.1,2-0.4s1.1-0.6,1.5-1.1
					c0.4-0.5,0.7-1,0.8-1.5v-2.4c-0.2-0.6-0.5-1.1-0.9-1.5c-0.4-0.4-0.9-0.7-1.5-1c-0.6-0.2-1.2-0.4-1.9-0.4c-0.8,0-1.5,0.2-2.1,0.5
					c-0.7,0.3-1.2,0.8-1.6,1.4C386.1,106.4,385.9,107.1,385.9,107.9z"/>
				<path class="st2" d="M404.7,102.2l0.2,2.9l-0.1-0.5c0.4-0.9,1-1.6,1.9-2.1c0.9-0.5,2-0.8,3.2-0.8c1.2,0,2.1,0.3,2.9,1
					c0.8,0.7,1.1,1.5,1.2,2.5v8.7h-2.8v-7.8c0-0.6-0.2-1.1-0.6-1.5c-0.4-0.4-0.9-0.6-1.7-0.6c-0.7,0-1.3,0.2-1.9,0.6
					c-0.6,0.4-1.1,0.9-1.4,1.6c-0.3,0.7-0.5,1.4-0.5,2.3v5.5h-2.8v-11.7H404.7z"/>
				<path class="st2" d="M424,114.2c-1.2,0-2.2-0.2-3.2-0.7c-1-0.5-1.7-1.2-2.3-2.1c-0.6-0.9-0.8-2-0.8-3.4c0-1.3,0.3-2.5,0.9-3.4
					c0.6-0.9,1.4-1.7,2.3-2.2c1-0.5,2.1-0.8,3.2-0.8s2.1,0.2,3,0.8s1.4,1.1,1.8,1.8l-0.2,0.4l0.3-2.5h2.6v11.7h-2.8v-3.1l0.3,0.7
					c-0.1,0.2-0.3,0.4-0.6,0.7c-0.3,0.3-0.6,0.6-1.1,0.9c-0.4,0.3-0.9,0.6-1.5,0.8C425.4,114.1,424.7,114.2,424,114.2z M424.7,112
					c0.7,0,1.3-0.1,1.9-0.4s1-0.6,1.4-1c0.4-0.5,0.6-1,0.8-1.6v-2.3c-0.2-0.6-0.4-1.1-0.8-1.5s-0.9-0.8-1.4-1s-1.2-0.4-1.8-0.4
					c-0.8,0-1.5,0.2-2.1,0.5c-0.6,0.3-1.1,0.8-1.5,1.4c-0.4,0.6-0.6,1.3-0.6,2.1c0,0.8,0.2,1.4,0.6,2.1c0.4,0.6,0.9,1.1,1.5,1.5
					C423.3,111.8,424,112,424.7,112z"/>
				<path class="st2" d="M439,102.2l0.2,2.9l-0.1-0.5c0.4-0.9,1-1.6,1.9-2.1c0.9-0.5,2-0.8,3.2-0.8c1.2,0,2.1,0.3,2.9,1
					c0.8,0.7,1.1,1.5,1.2,2.5v8.7h-2.8v-7.8c0-0.6-0.2-1.1-0.6-1.5c-0.4-0.4-0.9-0.6-1.7-0.6c-0.7,0-1.3,0.2-1.9,0.6
					c-0.6,0.4-1.1,0.9-1.4,1.6c-0.3,0.7-0.5,1.4-0.5,2.3v5.5h-2.8v-11.7H439z"/>
				<path class="st2" d="M454.3,97h2.9v5.2h3.4v2.1h-3.4v9.6h-2.9v-9.6H452v-2.1h2.3V97z"/>
				<path class="st2" d="M463.7,97.9c0-0.4,0.2-0.8,0.5-1c0.3-0.3,0.7-0.4,1.2-0.4c0.4,0,0.8,0.1,1.1,0.4c0.3,0.3,0.5,0.6,0.5,1
					c0,0.4-0.2,0.8-0.5,1.1c-0.3,0.3-0.7,0.4-1.1,0.4c-0.4,0-0.8-0.1-1.2-0.4C463.9,98.7,463.7,98.3,463.7,97.9z M463.9,102.2h2.8
					v11.7h-2.8V102.2z"/>
				<path class="st2" d="M491.2,112.8c-0.6,0.4-1.2,0.8-2,1s-1.6,0.4-2.3,0.4c-1.3,0-2.5-0.3-3.6-0.8c-1-0.5-1.8-1.2-2.4-2.2
					s-0.9-2-0.9-3.3c0-1.2,0.3-2.3,0.9-3.2c0.6-0.9,1.4-1.6,2.4-2.1c1-0.5,2.1-0.8,3.2-0.8c1,0,1.9,0.1,2.7,0.4
					c0.8,0.3,1.5,0.6,2.1,1.1l-1.4,1.7c-0.3-0.2-0.8-0.5-1.3-0.7c-0.5-0.2-1.1-0.3-1.8-0.3c-0.7,0-1.4,0.2-2,0.5
					c-0.6,0.4-1.1,0.8-1.4,1.4s-0.5,1.3-0.5,2c0,0.7,0.2,1.4,0.5,2c0.4,0.6,0.9,1.1,1.5,1.4c0.6,0.4,1.4,0.5,2.2,0.5
					c0.5,0,1-0.1,1.5-0.2c0.5-0.2,0.9-0.4,1.2-0.6L491.2,112.8z"/>
				<path class="st2" d="M494.7,113.9V91.9h2.8v12.9l-0.1-0.5c0.4-0.8,1.1-1.4,1.9-1.9c0.9-0.5,1.9-0.8,3.1-0.8c1.2,0,2.1,0.3,2.9,1
					c0.8,0.7,1.1,1.5,1.2,2.5v8.7h-2.8v-7.8c0-0.6-0.2-1.1-0.6-1.5c-0.4-0.4-0.9-0.6-1.7-0.6c-0.7,0-1.3,0.2-1.9,0.6
					c-0.6,0.4-1.1,0.9-1.4,1.6c-0.3,0.7-0.5,1.4-0.5,2.3v5.5H494.7z"/>
				<path class="st2" d="M511.2,97.9c0-0.4,0.2-0.8,0.5-1c0.3-0.3,0.7-0.4,1.2-0.4c0.4,0,0.8,0.1,1.1,0.4c0.3,0.3,0.5,0.6,0.5,1
					c0,0.4-0.2,0.8-0.5,1.1c-0.3,0.3-0.7,0.4-1.1,0.4c-0.4,0-0.8-0.1-1.2-0.4C511.3,98.7,511.2,98.3,511.2,97.9z M511.3,102.2h2.8
					v11.7h-2.8V102.2z"/>
				<path class="st2" d="M524.8,114.2c-1.4,0-2.6-0.3-3.7-0.8c-1-0.5-1.8-1.3-2.4-2.2c-0.6-0.9-0.8-2-0.8-3.2c0-1.2,0.3-2.2,0.9-3.1
					c0.6-0.9,1.5-1.7,2.5-2.3c1-0.6,2.2-0.9,3.5-0.9c1.6,0,3,0.5,4.1,1.4c1.1,0.9,1.8,2.2,2.2,3.7l-10.3,3.4l-0.7-1.6l8.4-2.9
					l-0.6,0.4c-0.2-0.6-0.6-1.2-1.2-1.6s-1.3-0.7-2.2-0.7c-0.8,0-1.4,0.2-2,0.5c-0.6,0.3-1.1,0.8-1.4,1.4c-0.3,0.6-0.5,1.3-0.5,2.1
					c0,0.8,0.2,1.5,0.5,2.1c0.4,0.6,0.8,1.1,1.5,1.5s1.3,0.5,2.1,0.5c0.5,0,1.1-0.1,1.6-0.3s1-0.4,1.5-0.7l1.3,2
					c-0.6,0.4-1.3,0.7-2.1,1S525.6,114.2,524.8,114.2z"/>
				<path class="st2" d="M539.7,114.2c-1.2,0-2.2-0.3-3.1-0.8c-0.9-0.5-1.7-1.3-2.2-2.2c-0.6-1-0.8-2.1-0.8-3.3
					c0-1.3,0.3-2.4,0.9-3.3s1.4-1.6,2.3-2.1c1-0.5,2.1-0.7,3.3-0.7c1,0,1.9,0.2,2.8,0.6c0.9,0.4,1.6,0.9,2.1,1.6l-0.1,0.9V91.9h2.8
					v21.9h-2.8V111l0.3,0.7c-0.6,0.7-1.4,1.3-2.3,1.8S540.9,114.2,539.7,114.2z M540.6,111.9c0.7,0,1.4-0.1,2-0.4
					c0.6-0.3,1.1-0.6,1.4-1.1c0.4-0.4,0.7-1,0.8-1.6v-2.2c-0.2-0.6-0.4-1.1-0.9-1.5c-0.4-0.4-0.9-0.8-1.5-1
					c-0.6-0.2-1.2-0.4-1.9-0.4c-0.7,0-1.4,0.2-2.1,0.5c-0.6,0.3-1.2,0.8-1.5,1.4c-0.4,0.6-0.6,1.3-0.6,2.1c0,0.8,0.2,1.5,0.6,2.1
					c0.4,0.6,0.9,1.1,1.5,1.5C539.2,111.7,539.8,111.9,540.6,111.9z"/>
				<path class="st2" d="M551.4,107.9c0-1.2,0.3-2.2,0.9-3.2c0.6-0.9,1.4-1.7,2.5-2.2s2.2-0.8,3.6-0.8c1.3,0,2.5,0.3,3.5,0.8
					c1,0.5,1.8,1.3,2.4,2.2c0.6,0.9,0.9,2,0.9,3.2c0,1.2-0.3,2.2-0.9,3.2s-1.4,1.7-2.4,2.3c-1,0.6-2.2,0.8-3.6,0.8
					c-1.3,0-2.5-0.3-3.6-0.8c-1-0.5-1.8-1.2-2.4-2.2C551.7,110.3,551.4,109.2,551.4,107.9z M554.2,107.9c0,0.8,0.2,1.4,0.5,2.1
					c0.4,0.6,0.8,1.1,1.4,1.5c0.6,0.4,1.3,0.5,2,0.5c0.8,0,1.5-0.2,2.1-0.5c0.6-0.4,1.1-0.8,1.4-1.5c0.4-0.6,0.5-1.3,0.5-2.1
					s-0.2-1.4-0.5-2.1s-0.8-1.1-1.4-1.5c-0.6-0.4-1.3-0.6-2.1-0.6c-0.8,0-1.4,0.2-2.1,0.6s-1.1,0.9-1.4,1.5
					C554.4,106.5,554.2,107.2,554.2,107.9z"/>
				<path class="st2" d="M571.4,102.2l0.2,2.9l-0.1-0.5c0.4-0.9,1-1.6,1.9-2.1c0.9-0.5,2-0.8,3.2-0.8c1.2,0,2.1,0.3,2.9,1
					c0.8,0.7,1.1,1.5,1.2,2.5v8.7h-2.8v-7.8c0-0.6-0.2-1.1-0.6-1.5c-0.4-0.4-0.9-0.6-1.7-0.6c-0.7,0-1.3,0.2-1.9,0.6
					c-0.6,0.4-1.1,0.9-1.4,1.6c-0.3,0.7-0.5,1.4-0.5,2.3v5.5h-2.8v-11.7H571.4z"/>
				<path class="st2" d="M584.4,107.9c0-1.2,0.3-2.2,0.9-3.2c0.6-0.9,1.4-1.7,2.5-2.2s2.2-0.8,3.6-0.8c1.3,0,2.5,0.3,3.5,0.8
					c1,0.5,1.8,1.3,2.4,2.2c0.6,0.9,0.9,2,0.9,3.2c0,1.2-0.3,2.2-0.9,3.2s-1.4,1.7-2.4,2.3c-1,0.6-2.2,0.8-3.6,0.8
					c-1.3,0-2.5-0.3-3.6-0.8c-1-0.5-1.8-1.2-2.4-2.2C584.7,110.3,584.4,109.2,584.4,107.9z M587.2,107.9c0,0.8,0.2,1.4,0.5,2.1
					c0.4,0.6,0.8,1.1,1.4,1.5c0.6,0.4,1.3,0.5,2,0.5c0.8,0,1.5-0.2,2.1-0.5c0.6-0.4,1.1-0.8,1.4-1.5c0.4-0.6,0.5-1.3,0.5-2.1
					s-0.2-1.4-0.5-2.1s-0.8-1.1-1.4-1.5c-0.6-0.4-1.3-0.6-2.1-0.6c-0.8,0-1.4,0.2-2.1,0.6s-1.1,0.9-1.4,1.5
					C587.4,106.5,587.2,107.2,587.2,107.9z"/>
			</g>
		</g>
		<g>
			<g class="st1">
				<path class="st2" d="M29.6,131h2.9v5.2h3.4v2.1h-3.4v9.6h-2.9v-9.6h-2.3v-2.1h2.3V131z"/>
				<path class="st2" d="M44.4,148.2c-1.2,0-2.2-0.2-3.2-0.7c-1-0.5-1.7-1.2-2.3-2.1c-0.6-0.9-0.8-2-0.8-3.4c0-1.3,0.3-2.5,0.9-3.4
					c0.6-0.9,1.4-1.7,2.3-2.2c1-0.5,2.1-0.8,3.2-0.8s2.1,0.3,3,0.8c0.8,0.5,1.4,1.1,1.8,1.8l-0.2,0.4l0.3-2.5H52v11.7h-2.8v-3.1
					l0.3,0.7c-0.1,0.2-0.3,0.4-0.6,0.7c-0.3,0.3-0.6,0.6-1.1,0.9c-0.4,0.3-0.9,0.6-1.5,0.8C45.8,148.1,45.2,148.2,44.4,148.2z
					 M45.2,146c0.7,0,1.3-0.1,1.9-0.4c0.6-0.2,1-0.6,1.4-1s0.6-1,0.8-1.6v-2.3c-0.2-0.6-0.4-1.1-0.8-1.5c-0.4-0.4-0.9-0.8-1.4-1
					c-0.6-0.2-1.2-0.4-1.8-0.4c-0.8,0-1.5,0.2-2.1,0.5c-0.6,0.3-1.1,0.8-1.5,1.4s-0.6,1.3-0.6,2.1c0,0.8,0.2,1.4,0.6,2.1
					c0.4,0.6,0.9,1.1,1.5,1.5C43.7,145.8,44.4,146,45.2,146z"/>
				<path class="st2" d="M59.4,136.2l0.2,2.9l-0.1-0.5c0.4-0.9,1-1.6,1.9-2.1s2-0.8,3.2-0.8c1.2,0,2.1,0.3,2.9,1
					c0.8,0.7,1.1,1.5,1.2,2.5v8.7h-2.8v-7.8c0-0.6-0.2-1.1-0.6-1.5c-0.4-0.4-0.9-0.6-1.7-0.6c-0.7,0-1.3,0.2-1.9,0.6
					c-0.6,0.4-1.1,0.9-1.4,1.6c-0.3,0.7-0.5,1.4-0.5,2.3v5.5h-2.8v-11.7H59.4z"/>
				<path class="st2" d="M74.7,131h2.9v5.2h3.4v2.1h-3.4v9.6h-2.9v-9.6h-2.3v-2.1h2.3V131z"/>
				<path class="st2" d="M83.2,141.9c0-1.2,0.3-2.2,0.9-3.2c0.6-0.9,1.4-1.7,2.5-2.2c1.1-0.5,2.2-0.8,3.6-0.8c1.3,0,2.5,0.3,3.5,0.8
					c1,0.5,1.8,1.3,2.4,2.2c0.6,0.9,0.9,2,0.9,3.2c0,1.2-0.3,2.2-0.9,3.2c-0.6,0.9-1.4,1.7-2.4,2.3c-1,0.6-2.2,0.8-3.6,0.8
					c-1.3,0-2.5-0.3-3.6-0.8c-1-0.5-1.8-1.2-2.4-2.2S83.2,143.2,83.2,141.9z M86,142c0,0.8,0.2,1.4,0.5,2.1c0.4,0.6,0.8,1.1,1.4,1.5
					s1.3,0.5,2,0.5c0.8,0,1.5-0.2,2.1-0.5s1.1-0.8,1.4-1.5c0.4-0.6,0.5-1.3,0.5-2.1s-0.2-1.4-0.5-2.1c-0.4-0.6-0.8-1.1-1.4-1.5
					c-0.6-0.4-1.3-0.6-2.1-0.6c-0.8,0-1.4,0.2-2.1,0.6c-0.6,0.4-1.1,0.9-1.4,1.5C86.2,140.5,86,141.2,86,142z"/>
				<path class="st2" d="M110,131.9c0-0.4,0.2-0.8,0.5-1c0.4-0.3,0.7-0.4,1.2-0.4c0.4,0,0.8,0.1,1.1,0.4c0.3,0.3,0.5,0.6,0.5,1
					c0,0.4-0.2,0.8-0.5,1.1c-0.3,0.3-0.7,0.4-1.1,0.4c-0.4,0-0.8-0.1-1.2-0.4C110.2,132.7,110,132.4,110,131.9z M110.2,136.2h2.8
					v11.7h-2.8V136.2z"/>
				<path class="st2" d="M120.4,136.2l0.2,2.6l-0.2-0.2c0.5-0.9,1.1-1.6,2-2.1c0.9-0.5,1.8-0.8,3-0.8c0.7,0,1.3,0.1,1.8,0.3
					c0.5,0.2,1,0.5,1.3,0.9c0.4,0.4,0.6,0.9,0.7,1.4l-0.1,0.1c0.5-0.9,1.1-1.5,2-2c0.9-0.5,1.7-0.7,2.7-0.7c1.2,0,2.2,0.3,2.9,1
					c0.7,0.7,1.1,1.5,1.1,2.5v8.7H135v-7.7c0-0.6-0.2-1.1-0.5-1.5s-0.8-0.6-1.5-0.6c-0.7,0-1.4,0.2-1.9,0.6c-0.6,0.4-1,0.9-1.3,1.6
					c-0.3,0.7-0.5,1.4-0.5,2.1v5.6h-2.8v-7.7c0-0.6-0.2-1.1-0.5-1.5c-0.3-0.4-0.8-0.6-1.5-0.6c-0.7,0-1.4,0.2-1.9,0.6
					c-0.6,0.4-1,0.9-1.3,1.6c-0.3,0.7-0.5,1.4-0.5,2.2v5.5h-2.8v-11.7H120.4z"/>
				<path class="st2" d="M150,148.2c-0.9,0-1.8-0.2-2.7-0.6s-1.5-1-2-1.7l0.2-0.8v8.5h-2.8V136h2.4l0.4,3l-0.3-0.9
					c0.6-0.7,1.4-1.3,2.3-1.8c0.9-0.5,2-0.7,3.1-0.7c1.2,0,2.2,0.3,3.1,0.8c0.9,0.5,1.7,1.3,2.2,2.2c0.5,1,0.8,2.1,0.8,3.3
					c0,1.2-0.3,2.3-0.9,3.3c-0.6,0.9-1.4,1.7-2.4,2.2C152.4,147.9,151.3,148.2,150,148.2z M149.4,146.1c0.8,0,1.5-0.2,2.2-0.5
					s1.2-0.8,1.6-1.4c0.4-0.6,0.6-1.3,0.6-2.1c0-0.8-0.2-1.5-0.6-2.1c-0.4-0.6-0.9-1.1-1.5-1.4c-0.6-0.3-1.3-0.5-2.1-0.5
					c-0.7,0-1.4,0.1-2,0.4c-0.6,0.3-1.1,0.6-1.4,1.1c-0.4,0.5-0.7,1-0.8,1.6v2c0.1,0.6,0.3,1.1,0.7,1.6c0.4,0.5,0.9,0.8,1.4,1.1
					C148.2,146,148.8,146.1,149.4,146.1z"/>
				<path class="st2" d="M166.2,148.2c-1.4,0-2.6-0.3-3.7-0.8c-1-0.5-1.8-1.3-2.4-2.2c-0.6-0.9-0.8-2-0.8-3.2c0-1.2,0.3-2.2,0.9-3.1
					c0.6-0.9,1.5-1.7,2.5-2.3c1-0.6,2.2-0.9,3.5-0.9c1.6,0,3,0.5,4.1,1.4c1.1,0.9,1.8,2.2,2.2,3.7l-10.3,3.4l-0.7-1.6l8.4-2.9
					l-0.6,0.4c-0.2-0.6-0.6-1.2-1.2-1.6c-0.6-0.5-1.3-0.7-2.2-0.7c-0.8,0-1.4,0.2-2,0.5c-0.6,0.3-1.1,0.8-1.4,1.4
					c-0.3,0.6-0.5,1.3-0.5,2.1s0.2,1.5,0.5,2.1c0.4,0.6,0.8,1.1,1.5,1.5c0.6,0.3,1.3,0.5,2.1,0.5c0.5,0,1.1-0.1,1.6-0.3
					c0.5-0.2,1-0.4,1.5-0.7l1.3,2c-0.6,0.4-1.3,0.7-2.1,1C167.7,148.1,167,148.2,166.2,148.2z"/>
				<path class="st2" d="M182.1,153.8c-0.9,0-1.7-0.1-2.4-0.3c-0.7-0.2-1.4-0.5-1.9-0.9c-0.6-0.4-1.1-0.8-1.7-1.2l1.7-1.8
					c0.7,0.6,1.3,1,2,1.3c0.7,0.3,1.4,0.5,2.3,0.5c0.9,0,1.7-0.1,2.4-0.4c0.7-0.3,1.1-0.7,1.5-1.2c0.3-0.5,0.5-1.1,0.5-1.8l0-3.2
					l0.2,0.5c-0.4,0.8-1,1.5-2,2.1c-0.9,0.6-2.1,0.8-3.4,0.8c-1.1,0-2.2-0.3-3.1-0.8c-1-0.5-1.7-1.3-2.3-2.2c-0.6-0.9-0.9-2-0.9-3.2
					c0-1.2,0.3-2.3,0.9-3.3c0.6-0.9,1.4-1.7,2.4-2.2s2.1-0.8,3.2-0.8c1.1,0,2.1,0.2,3,0.6c0.9,0.4,1.6,1,2,1.6l-0.2,0.5l0.3-2.3h2.6
					V148c0,1.1-0.3,2-0.9,2.9s-1.4,1.6-2.5,2.1S183.6,153.8,182.1,153.8z M177.8,141.9c0,0.8,0.2,1.4,0.6,2.1
					c0.4,0.6,0.9,1.1,1.6,1.5c0.7,0.4,1.4,0.5,2.1,0.5c0.7,0,1.4-0.1,2-0.4c0.6-0.3,1.1-0.6,1.5-1.1c0.4-0.5,0.7-1,0.8-1.5v-2.4
					c-0.2-0.6-0.5-1.1-0.9-1.5c-0.4-0.4-0.9-0.7-1.5-1c-0.6-0.2-1.2-0.4-1.9-0.4c-0.8,0-1.5,0.2-2.1,0.5c-0.7,0.3-1.2,0.8-1.6,1.4
					S177.8,141.1,177.8,141.9z"/>
				<path class="st2" d="M196.6,136.2l0.2,2.9l-0.1-0.5c0.4-0.9,1-1.6,1.9-2.1s2-0.8,3.2-0.8c1.2,0,2.1,0.3,2.9,1
					c0.8,0.7,1.1,1.5,1.2,2.5v8.7H203v-7.8c0-0.6-0.2-1.1-0.6-1.5c-0.4-0.4-0.9-0.6-1.7-0.6c-0.7,0-1.3,0.2-1.9,0.6
					c-0.6,0.4-1.1,0.9-1.4,1.6c-0.3,0.7-0.5,1.4-0.5,2.3v5.5h-2.8v-11.7H196.6z"/>
				<path class="st2" d="M209.6,141.9c0-1.2,0.3-2.2,0.9-3.2c0.6-0.9,1.4-1.7,2.5-2.2c1.1-0.5,2.2-0.8,3.6-0.8
					c1.3,0,2.5,0.3,3.5,0.8c1,0.5,1.8,1.3,2.4,2.2c0.6,0.9,0.9,2,0.9,3.2c0,1.2-0.3,2.2-0.9,3.2c-0.6,0.9-1.4,1.7-2.4,2.3
					c-1,0.6-2.2,0.8-3.6,0.8c-1.3,0-2.5-0.3-3.6-0.8c-1-0.5-1.8-1.2-2.4-2.2S209.6,143.2,209.6,141.9z M212.4,142
					c0,0.8,0.2,1.4,0.5,2.1c0.4,0.6,0.8,1.1,1.4,1.5s1.3,0.5,2,0.5c0.8,0,1.5-0.2,2.1-0.5s1.1-0.8,1.4-1.5c0.4-0.6,0.5-1.3,0.5-2.1
					s-0.2-1.4-0.5-2.1c-0.4-0.6-0.8-1.1-1.4-1.5c-0.6-0.4-1.3-0.6-2.1-0.6c-0.8,0-1.4,0.2-2.1,0.6c-0.6,0.4-1.1,0.9-1.4,1.5
					C212.6,140.5,212.4,141.2,212.4,142z"/>
				<path class="st2" d="M241.8,148.2c-1.2,0-2.2-0.2-3.2-0.7c-1-0.5-1.7-1.2-2.3-2.1c-0.6-0.9-0.8-2-0.8-3.4c0-1.3,0.3-2.5,0.9-3.4
					c0.6-0.9,1.4-1.7,2.3-2.2c1-0.5,2.1-0.8,3.2-0.8s2.1,0.3,3,0.8c0.8,0.5,1.4,1.1,1.8,1.8l-0.2,0.4l0.3-2.5h2.6v11.7h-2.8v-3.1
					l0.3,0.7c-0.1,0.2-0.3,0.4-0.6,0.7c-0.3,0.3-0.6,0.6-1.1,0.9c-0.4,0.3-0.9,0.6-1.5,0.8C243.2,148.1,242.5,148.2,241.8,148.2z
					 M242.5,146c0.7,0,1.3-0.1,1.9-0.4c0.6-0.2,1-0.6,1.4-1s0.6-1,0.8-1.6v-2.3c-0.2-0.6-0.4-1.1-0.8-1.5c-0.4-0.4-0.9-0.8-1.4-1
					c-0.6-0.2-1.2-0.4-1.8-0.4c-0.8,0-1.5,0.2-2.1,0.5c-0.6,0.3-1.1,0.8-1.5,1.4s-0.6,1.3-0.6,2.1c0,0.8,0.2,1.4,0.6,2.1
					c0.4,0.6,0.9,1.1,1.5,1.5C241.1,145.8,241.8,146,242.5,146z"/>
				<path class="st2" d="M264.9,131h2.9v5.2h3.4v2.1h-3.4v9.6h-2.9v-9.6h-2.3v-2.1h2.3V131z"/>
				<path class="st2" d="M278.5,148.4c-1.2,0-2.1-0.3-2.8-1c-0.7-0.7-1.1-1.5-1.2-2.5v-8.7h2.8v7.7c0,0.6,0.2,1.1,0.6,1.5
					c0.4,0.4,0.9,0.6,1.7,0.6c0.7,0,1.3-0.2,1.8-0.6c0.6-0.4,1-0.9,1.3-1.6c0.3-0.7,0.5-1.4,0.5-2.3v-5.5h2.8v11.7h-2.6l-0.2-2.9
					l0.2,0.5c-0.3,0.5-0.6,1-1.1,1.4s-1.1,0.8-1.7,1C280,148.2,279.3,148.4,278.5,148.4z"/>
				<path class="st2" d="M292.1,131h2.9v5.2h3.4v2.1H295v9.6h-2.9v-9.6h-2.3v-2.1h2.3V131z"/>
				<path class="st2" d="M302.9,131h2.9v5.2h3.4v2.1h-3.4v9.6h-2.9v-9.6h-2.3v-2.1h2.3V131z"/>
				<path class="st2" d="M312.4,131.9c0-0.4,0.2-0.8,0.5-1c0.3-0.3,0.7-0.4,1.2-0.4c0.4,0,0.8,0.1,1.1,0.4c0.3,0.3,0.5,0.6,0.5,1
					c0,0.4-0.2,0.8-0.5,1.1c-0.3,0.3-0.7,0.4-1.1,0.4c-0.4,0-0.8-0.1-1.2-0.4C312.6,132.7,312.4,132.4,312.4,131.9z M312.6,136.2
					h2.8v11.7h-2.8V136.2z"/>
				<path class="st2" d="M335.8,153.8c-0.9,0-1.7-0.1-2.4-0.3c-0.7-0.2-1.4-0.5-1.9-0.9c-0.6-0.4-1.1-0.8-1.7-1.2l1.7-1.8
					c0.7,0.6,1.3,1,2,1.3c0.7,0.3,1.4,0.5,2.3,0.5c0.9,0,1.7-0.1,2.4-0.4c0.7-0.3,1.1-0.7,1.5-1.2c0.3-0.5,0.5-1.1,0.5-1.8l0-3.2
					l0.2,0.5c-0.4,0.8-1,1.5-2,2.1c-0.9,0.6-2.1,0.8-3.4,0.8c-1.1,0-2.2-0.3-3.1-0.8s-1.7-1.3-2.3-2.2s-0.9-2-0.9-3.2
					c0-1.2,0.3-2.3,0.9-3.3c0.6-0.9,1.4-1.7,2.4-2.2c1-0.5,2.1-0.8,3.2-0.8c1.1,0,2.1,0.2,3,0.6c0.9,0.4,1.6,1,2,1.6l-0.2,0.5
					l0.3-2.3h2.6V148c0,1.1-0.3,2-0.9,2.9s-1.4,1.6-2.5,2.1C338.5,153.5,337.2,153.8,335.8,153.8z M331.5,141.9
					c0,0.8,0.2,1.4,0.6,2.1c0.4,0.6,0.9,1.1,1.6,1.5c0.7,0.4,1.4,0.5,2.1,0.5c0.7,0,1.4-0.1,2-0.4c0.6-0.3,1.1-0.6,1.5-1.1
					c0.4-0.5,0.7-1,0.8-1.5v-2.4c-0.2-0.6-0.5-1.1-0.9-1.5c-0.4-0.4-0.9-0.7-1.5-1c-0.6-0.2-1.2-0.4-1.9-0.4c-0.8,0-1.5,0.2-2.1,0.5
					c-0.7,0.3-1.2,0.8-1.6,1.4S331.5,141.1,331.5,141.9z"/>
				<path class="st2" d="M347.7,126h2.8v21.9h-2.8V126z"/>
				<path class="st2" d="M355.2,131.9c0-0.4,0.2-0.8,0.5-1c0.3-0.3,0.7-0.4,1.2-0.4c0.4,0,0.8,0.1,1.1,0.4c0.3,0.3,0.5,0.6,0.5,1
					c0,0.4-0.2,0.8-0.5,1.1c-0.3,0.3-0.7,0.4-1.1,0.4c-0.4,0-0.8-0.1-1.2-0.4C355.4,132.7,355.2,132.4,355.2,131.9z M355.4,136.2
					h2.8v11.7h-2.8V136.2z"/>
				<path class="st2" d="M376.1,148.1c-0.9,0-1.7-0.1-2.6-0.4c-0.8-0.3-1.5-0.7-2.1-1.3l1.2-1.5c0.5,0.5,1.1,0.8,1.6,1.1
					s1.1,0.4,1.6,0.4c0.4,0,0.8,0,1.1-0.1c0.3-0.1,0.6-0.3,0.8-0.5c0.2-0.2,0.3-0.5,0.3-0.9c0-0.4-0.1-0.8-0.4-1
					c-0.3-0.2-0.7-0.4-1.1-0.6c-0.4-0.2-0.9-0.3-1.4-0.4c-1-0.3-1.8-0.8-2.3-1.3c-0.5-0.6-0.8-1.3-0.8-2.1c0-0.6,0.2-1.2,0.5-1.7
					c0.3-0.5,0.8-1,1.5-1.3s1.5-0.5,2.4-0.5c0.9,0,1.6,0.1,2.3,0.3c0.7,0.2,1.3,0.5,1.9,1l-1.1,1.6c-0.4-0.4-0.8-0.6-1.3-0.8
					s-0.9-0.3-1.3-0.3c-0.4,0-0.7,0.1-1,0.2s-0.6,0.3-0.8,0.5c-0.2,0.2-0.3,0.4-0.3,0.8c0,0.4,0.1,0.7,0.4,0.9
					c0.3,0.2,0.7,0.4,1.1,0.6c0.4,0.2,0.9,0.3,1.4,0.5c0.6,0.2,1.1,0.4,1.6,0.7c0.5,0.3,0.9,0.6,1.2,1c0.3,0.4,0.4,0.9,0.4,1.6
					c0,0.7-0.2,1.3-0.5,1.9s-0.9,1.1-1.6,1.4S377.2,148.1,376.1,148.1z"/>
				<path class="st2" d="M386,131h2.9v5.2h3.4v2.1h-3.4v9.6H386v-9.6h-2.3v-2.1h2.3V131z"/>
				<path class="st2" d="M399.6,148.4c-1.2,0-2.1-0.3-2.8-1c-0.7-0.7-1.1-1.5-1.2-2.5v-8.7h2.8v7.7c0,0.6,0.2,1.1,0.6,1.5
					s0.9,0.6,1.7,0.6c0.7,0,1.3-0.2,1.8-0.6c0.6-0.4,1-0.9,1.3-1.6s0.5-1.4,0.5-2.3v-5.5h2.8v11.7h-2.6l-0.2-2.9l0.2,0.5
					c-0.3,0.5-0.6,1-1.1,1.4s-1.1,0.8-1.7,1C401.1,148.2,400.3,148.4,399.6,148.4z"/>
				<path class="st2" d="M417.1,148.2c-1.2,0-2.2-0.3-3.1-0.8c-0.9-0.5-1.7-1.3-2.2-2.2c-0.6-1-0.8-2.1-0.8-3.3
					c0-1.3,0.3-2.4,0.9-3.3c0.6-0.9,1.4-1.6,2.3-2.1c1-0.5,2.1-0.7,3.3-0.7c1,0,1.9,0.2,2.8,0.6c0.9,0.4,1.6,0.9,2.1,1.6l-0.1,0.9
					V126h2.8v21.9h-2.8V145l0.3,0.7c-0.6,0.7-1.4,1.3-2.3,1.8S418.2,148.2,417.1,148.2z M417.9,146c0.7,0,1.4-0.1,2-0.4
					c0.6-0.3,1.1-0.6,1.4-1.1c0.4-0.4,0.7-1,0.8-1.6v-2.2c-0.2-0.6-0.4-1.1-0.9-1.5c-0.4-0.4-0.9-0.8-1.5-1
					c-0.6-0.2-1.2-0.4-1.9-0.4c-0.7,0-1.4,0.2-2.1,0.5c-0.6,0.3-1.2,0.8-1.5,1.4c-0.4,0.6-0.6,1.3-0.6,2.1c0,0.8,0.2,1.5,0.6,2.1
					c0.4,0.6,0.9,1.1,1.5,1.5C416.5,145.8,417.2,146,417.9,146z"/>
				<path class="st2" d="M435.6,148.2c-1.4,0-2.6-0.3-3.7-0.8c-1-0.5-1.8-1.3-2.4-2.2c-0.6-0.9-0.8-2-0.8-3.2c0-1.2,0.3-2.2,0.9-3.1
					c0.6-0.9,1.5-1.7,2.5-2.3c1-0.6,2.2-0.9,3.5-0.9c1.6,0,3,0.5,4.1,1.4c1.1,0.9,1.8,2.2,2.2,3.7l-10.3,3.4l-0.7-1.6l8.4-2.9
					l-0.6,0.4c-0.2-0.6-0.6-1.2-1.2-1.6c-0.6-0.5-1.3-0.7-2.2-0.7c-0.8,0-1.4,0.2-2,0.5c-0.6,0.3-1.1,0.8-1.4,1.4
					c-0.3,0.6-0.5,1.3-0.5,2.1s0.2,1.5,0.5,2.1c0.4,0.6,0.8,1.1,1.5,1.5s1.3,0.5,2.1,0.5c0.5,0,1.1-0.1,1.6-0.3
					c0.5-0.2,1-0.4,1.5-0.7l1.3,2c-0.6,0.4-1.3,0.7-2.1,1C437.1,148.1,436.4,148.2,435.6,148.2z"/>
				<path class="st2" d="M448,136.2l0.2,2.9l-0.1-0.5c0.4-0.9,1-1.6,1.9-2.1s2-0.8,3.2-0.8c1.2,0,2.1,0.3,2.9,1
					c0.8,0.7,1.1,1.5,1.2,2.5v8.7h-2.8v-7.8c0-0.6-0.2-1.1-0.6-1.5c-0.4-0.4-0.9-0.6-1.7-0.6c-0.7,0-1.3,0.2-1.9,0.6
					c-0.6,0.4-1.1,0.9-1.4,1.6c-0.3,0.7-0.5,1.4-0.5,2.3v5.5h-2.8v-11.7H448z"/>
				<path class="st2" d="M463.3,131h2.9v5.2h3.4v2.1h-3.4v9.6h-2.9v-9.6H461v-2.1h2.3V131z"/>
				<path class="st2" d="M472.7,131.9c0-0.4,0.2-0.8,0.5-1c0.3-0.3,0.7-0.4,1.2-0.4c0.4,0,0.8,0.1,1.1,0.4c0.3,0.3,0.5,0.6,0.5,1
					c0,0.4-0.2,0.8-0.5,1.1c-0.3,0.3-0.7,0.4-1.1,0.4c-0.4,0-0.8-0.1-1.2-0.4C472.9,132.7,472.7,132.4,472.7,131.9z M472.9,136.2
					h2.8v11.7h-2.8V136.2z"/>
				<path class="st2" d="M479.7,145.3c0.3-0.3,0.7-0.5,1.1-0.5c0.4,0,0.7,0.2,1,0.5c0.3,0.3,0.5,0.7,0.5,1.1c0,0.5-0.2,0.8-0.5,1.1
					c-0.3,0.3-0.7,0.4-1,0.4c-0.4,0-0.8-0.1-1.1-0.4c-0.3-0.3-0.5-0.6-0.5-1.1C479.2,146,479.3,145.6,479.7,145.3z"/>
			</g>
		</g>
	</g>
</g>
</svg>
