<?xml version="1.0" encoding="utf-8"?>
<!-- Generator: Adobe Illustrator 26.3.1, SVG Export Plug-In . SVG Version: 6.00 Build 0)  -->
<svg version="1.1" id="Livello_1" xmlns="http://www.w3.org/2000/svg" xmlns:xlink="http://www.w3.org/1999/xlink" x="0px" y="0px"
	 viewBox="0 0 672 281" style="enable-background:new 0 0 672 281;" xml:space="preserve">
<style type="text/css">
	.st0{fill:#FFFFFF;}
	.st1{enable-background:new    ;}
	.st2{fill:#846B4A;}
</style>
<g id="Livello_2_00000084501735632172443220000005357378061407061381_">
	<g id="illustrazioni">
		<path class="st0" d="M21.3,0h629.4C662.5,0,672,9.5,672,21.3v238.4c0,11.8-9.5,21.3-21.3,21.3H21.3C9.5,281,0,271.5,0,259.7V21.3
			C0,9.5,9.5,0,21.3,0z"/>
	</g>
	<g id="testi">
		<g>
			<g class="st1">
				<path class="st2" d="M30.1,42.7H33v20.2h-2.9V42.7z"/>
				<path class="st2" d="M40.9,51.3l0.2,2.8l-0.1-0.4c0.4-0.9,1-1.5,1.9-2.1c0.9-0.5,1.9-0.8,3.1-0.8c1.1,0,2.1,0.3,2.8,1
					c0.7,0.6,1.1,1.5,1.1,2.5v8.6h-2.8v-7.7c0-0.6-0.2-1.1-0.6-1.5c-0.4-0.4-0.9-0.6-1.7-0.6c-0.7,0-1.3,0.2-1.9,0.6
					c-0.6,0.4-1,0.9-1.4,1.5c-0.3,0.7-0.5,1.4-0.5,2.3v5.4h-2.8V51.3H40.9z"/>
				<path class="st2" d="M65.4,46.2h2.8v5.2h3.4v2h-3.4v9.5h-2.8v-9.5h-2.2v-2h2.2V46.2z"/>
				<path class="st2" d="M80.6,63.2c-1.4,0-2.6-0.3-3.6-0.8c-1-0.5-1.8-1.3-2.3-2.2c-0.6-0.9-0.8-2-0.8-3.2c0-1.1,0.3-2.2,0.9-3.1
					c0.6-0.9,1.4-1.7,2.5-2.2c1-0.6,2.2-0.8,3.4-0.8c1.6,0,3,0.4,4,1.3c1.1,0.9,1.8,2.1,2.2,3.7l-10.2,3.4l-0.7-1.5l8.3-2.9
					l-0.6,0.4c-0.2-0.6-0.6-1.1-1.2-1.6c-0.6-0.4-1.3-0.7-2.2-0.7c-0.8,0-1.4,0.2-2,0.5s-1,0.8-1.4,1.4c-0.3,0.6-0.5,1.3-0.5,2.1
					s0.2,1.5,0.5,2.1c0.3,0.6,0.8,1.1,1.5,1.4c0.6,0.3,1.3,0.5,2.1,0.5c0.5,0,1.1-0.1,1.6-0.3c0.5-0.2,1-0.4,1.4-0.7l1.2,1.9
					c-0.6,0.4-1.3,0.7-2.1,1S81.4,63.2,80.6,63.2z"/>
				<path class="st2" d="M92.8,51.3l0.3,3.4L93,54.2c0.3-0.7,0.8-1.3,1.4-1.8c0.6-0.5,1.2-0.9,1.9-1.1c0.7-0.3,1.2-0.4,1.7-0.4
					l-0.1,2.6c-0.9-0.1-1.8,0.1-2.5,0.5c-0.7,0.4-1.3,0.9-1.7,1.6c-0.4,0.6-0.6,1.3-0.6,2.1v5.3h-2.8V51.3H92.8z"/>
				<path class="st2" d="M102.7,53.4c-0.6,0-1.1-0.2-1.6-0.5c-0.4-0.4-0.6-0.9-0.6-1.6v-1.1h2.1v0.4c0,0.3,0.1,0.5,0.2,0.6
					c0.1,0.1,0.4,0.1,0.8,0.1h7.9l-7.4,10l-0.6-0.5h7.8v2.2H100l7.5-10.2l0.5,0.7H102.7z"/>
				<path class="st2" d="M120.4,63.2c-1.1,0-2.2-0.2-3.1-0.7c-0.9-0.5-1.7-1.2-2.2-2.1c-0.6-0.9-0.8-2-0.8-3.3s0.3-2.4,0.9-3.4
					c0.6-0.9,1.3-1.7,2.3-2.2s2-0.8,3.2-0.8s2.1,0.2,2.9,0.7c0.8,0.5,1.4,1.1,1.8,1.8l-0.2,0.4l0.3-2.4h2.6v11.6h-2.8v-3l0.3,0.7
					c-0.1,0.2-0.3,0.4-0.6,0.7c-0.3,0.3-0.6,0.6-1.1,0.9c-0.4,0.3-0.9,0.5-1.5,0.7C121.8,63.1,121.1,63.2,120.4,63.2z M121.1,61
					c0.7,0,1.3-0.1,1.9-0.4c0.6-0.2,1-0.6,1.4-1c0.4-0.4,0.6-1,0.8-1.6v-2.3c-0.2-0.6-0.4-1.1-0.8-1.5c-0.4-0.4-0.9-0.7-1.4-1
					c-0.6-0.2-1.2-0.4-1.8-0.4c-0.8,0-1.4,0.2-2,0.5c-0.6,0.3-1.1,0.8-1.5,1.4c-0.4,0.6-0.5,1.3-0.5,2.1c0,0.7,0.2,1.4,0.6,2
					c0.4,0.6,0.9,1.1,1.5,1.5C119.7,60.9,120.4,61,121.1,61z"/>
				<path class="st2" d="M144.6,51.3l0.2,2.6l-0.1-0.2c0.5-0.9,1.1-1.6,1.9-2.1c0.8-0.5,1.8-0.8,2.9-0.8c0.7,0,1.3,0.1,1.8,0.3
					c0.5,0.2,1,0.5,1.3,0.9c0.3,0.4,0.6,0.8,0.7,1.4l-0.1,0.1c0.5-0.9,1.1-1.5,2-2c0.8-0.5,1.7-0.7,2.7-0.7c1.2,0,2.2,0.3,2.9,1
					c0.7,0.7,1.1,1.5,1.1,2.5v8.6H159v-7.6c0-0.6-0.2-1.1-0.5-1.5c-0.3-0.4-0.8-0.6-1.5-0.6c-0.7,0-1.4,0.2-1.9,0.6s-1,0.9-1.3,1.6
					c-0.3,0.6-0.5,1.3-0.5,2.1v5.5h-2.8v-7.6c0-0.6-0.2-1.1-0.5-1.5c-0.3-0.4-0.8-0.6-1.5-0.6c-0.7,0-1.3,0.2-1.9,0.6
					c-0.6,0.4-1,0.9-1.3,1.6c-0.3,0.7-0.5,1.4-0.5,2.1v5.5H142V51.3H144.6z"/>
				<path class="st2" d="M172.3,63.2c-1.4,0-2.6-0.3-3.6-0.8c-1-0.5-1.8-1.3-2.3-2.2c-0.6-0.9-0.8-2-0.8-3.2c0-1.1,0.3-2.2,0.9-3.1
					c0.6-0.9,1.4-1.7,2.5-2.2c1-0.6,2.2-0.8,3.4-0.8c1.6,0,3,0.4,4,1.3c1.1,0.9,1.8,2.1,2.2,3.7l-10.2,3.4l-0.7-1.5l8.3-2.9
					l-0.6,0.4c-0.2-0.6-0.6-1.1-1.2-1.6c-0.6-0.4-1.3-0.7-2.2-0.7c-0.8,0-1.4,0.2-2,0.5s-1,0.8-1.4,1.4c-0.3,0.6-0.5,1.3-0.5,2.1
					s0.2,1.5,0.5,2.1c0.3,0.6,0.8,1.1,1.5,1.4c0.6,0.3,1.3,0.5,2.1,0.5c0.5,0,1.1-0.1,1.6-0.3c0.5-0.2,1-0.4,1.4-0.7l1.2,1.9
					c-0.6,0.4-1.3,0.7-2.1,1S173,63.2,172.3,63.2z"/>
				<path class="st2" d="M187,63.2c-1.1,0-2.2-0.3-3.1-0.8c-0.9-0.5-1.6-1.2-2.2-2.2c-0.5-0.9-0.8-2-0.8-3.3c0-1.3,0.3-2.4,0.9-3.3
					c0.6-0.9,1.3-1.6,2.3-2.1s2.1-0.7,3.3-0.7c1,0,1.9,0.2,2.8,0.6s1.6,0.9,2.1,1.6L192,54V41.2h2.8v21.7H192V60l0.3,0.7
					c-0.6,0.7-1.4,1.3-2.3,1.8C189.2,63,188.1,63.2,187,63.2z M187.8,61c0.7,0,1.4-0.1,1.9-0.4c0.6-0.3,1-0.6,1.4-1
					c0.4-0.4,0.7-1,0.8-1.6v-2.2c-0.2-0.6-0.4-1.1-0.8-1.5c-0.4-0.4-0.9-0.8-1.5-1c-0.6-0.2-1.2-0.3-1.9-0.3c-0.7,0-1.4,0.2-2,0.5
					c-0.6,0.3-1.1,0.8-1.5,1.4c-0.4,0.6-0.6,1.3-0.6,2.1c0,0.8,0.2,1.5,0.6,2.1c0.4,0.6,0.9,1.1,1.5,1.5
					C186.4,60.8,187.1,61,187.8,61z"/>
				<path class="st2" d="M199.4,47.1c0-0.4,0.2-0.8,0.5-1c0.3-0.3,0.7-0.4,1.1-0.4s0.8,0.1,1.1,0.4c0.3,0.3,0.5,0.6,0.5,1
					c0,0.4-0.2,0.8-0.5,1c-0.3,0.3-0.7,0.4-1.1,0.4s-0.8-0.1-1.1-0.4C199.6,47.9,199.4,47.5,199.4,47.1z M199.6,51.3h2.8v11.6h-2.8
					V51.3z"/>
				<path class="st2" d="M212.3,63.2c-1.1,0-2.2-0.2-3.1-0.7c-0.9-0.5-1.7-1.2-2.2-2.1c-0.6-0.9-0.8-2-0.8-3.3s0.3-2.4,0.9-3.4
					c0.6-0.9,1.3-1.7,2.3-2.2s2-0.8,3.2-0.8s2.1,0.2,2.9,0.7c0.8,0.5,1.4,1.1,1.8,1.8l-0.2,0.4l0.3-2.4h2.6v11.6H217v-3l0.3,0.7
					c-0.1,0.2-0.3,0.4-0.6,0.7c-0.3,0.3-0.6,0.6-1.1,0.9c-0.4,0.3-0.9,0.5-1.5,0.7C213.6,63.1,213,63.2,212.3,63.2z M213,61
					c0.7,0,1.3-0.1,1.9-0.4c0.6-0.2,1-0.6,1.4-1c0.4-0.4,0.6-1,0.8-1.6v-2.3c-0.2-0.6-0.4-1.1-0.8-1.5c-0.4-0.4-0.9-0.7-1.4-1
					c-0.6-0.2-1.2-0.4-1.8-0.4c-0.8,0-1.4,0.2-2,0.5c-0.6,0.3-1.1,0.8-1.5,1.4c-0.4,0.6-0.5,1.3-0.5,2.1c0,0.7,0.2,1.4,0.6,2
					c0.4,0.6,0.9,1.1,1.5,1.5C211.6,60.9,212.3,61,213,61z"/>
				<path class="st2" d="M227.1,60.4c-0.4,1-0.9,2-1.3,2.9c-0.4,1-0.9,1.9-1.3,3h-2.3c0.4-1,0.8-2,1.2-3c0.4-1,0.8-1.9,1.1-2.9
					H227.1z"/>
				<path class="st2" d="M240.7,62.9V42h0l11.2,15.1l-1.2-0.3L262,42h0v20.9h-2.9V48.2l0.2,1.4l-8.1,10.8h-0.1L243,49.6l0.5-1.3
					v14.6H240.7z"/>
				<path class="st2" d="M272.6,63.2c-1.1,0-2.2-0.2-3.1-0.7c-0.9-0.5-1.7-1.2-2.2-2.1c-0.6-0.9-0.8-2-0.8-3.3s0.3-2.4,0.9-3.4
					c0.6-0.9,1.3-1.7,2.3-2.2s2-0.8,3.2-0.8s2.1,0.2,2.9,0.7c0.8,0.5,1.4,1.1,1.8,1.8l-0.2,0.4l0.3-2.4h2.6v11.6h-2.8v-3l0.3,0.7
					c-0.1,0.2-0.3,0.4-0.6,0.7c-0.3,0.3-0.6,0.6-1.1,0.9c-0.4,0.3-0.9,0.5-1.5,0.7C274,63.1,273.3,63.2,272.6,63.2z M273.3,61
					c0.7,0,1.3-0.1,1.9-0.4c0.6-0.2,1-0.6,1.4-1c0.4-0.4,0.6-1,0.8-1.6v-2.3c-0.2-0.6-0.4-1.1-0.8-1.5c-0.4-0.4-0.9-0.7-1.4-1
					c-0.6-0.2-1.2-0.4-1.8-0.4c-0.8,0-1.4,0.2-2,0.5c-0.6,0.3-1.1,0.8-1.5,1.4c-0.4,0.6-0.5,1.3-0.5,2.1c0,0.7,0.2,1.4,0.6,2
					c0.4,0.6,0.9,1.1,1.5,1.5C271.9,60.9,272.6,61,273.3,61z"/>
				<path class="st2" d="M286.1,46.2h2.8v5.2h3.4v2h-3.4v9.5h-2.8v-9.5h-2.2v-2h2.2V46.2z"/>
				<path class="st2" d="M296.8,46.2h2.8v5.2h3.4v2h-3.4v9.5h-2.8v-9.5h-2.2v-2h2.2V46.2z"/>
				<path class="st2" d="M306.1,47.1c0-0.4,0.2-0.8,0.5-1c0.3-0.3,0.7-0.4,1.1-0.4s0.8,0.1,1.1,0.4c0.3,0.3,0.5,0.6,0.5,1
					c0,0.4-0.2,0.8-0.5,1c-0.3,0.3-0.7,0.4-1.1,0.4s-0.8-0.1-1.1-0.4C306.2,47.9,306.1,47.5,306.1,47.1z M306.3,51.3h2.8v11.6h-2.8
					V51.3z"/>
				<path class="st2" d="M319,63.2c-1.1,0-2.2-0.2-3.1-0.7c-0.9-0.5-1.7-1.2-2.2-2.1c-0.6-0.9-0.8-2-0.8-3.3s0.3-2.4,0.9-3.4
					c0.6-0.9,1.3-1.7,2.3-2.2s2-0.8,3.2-0.8s2.1,0.2,2.9,0.7c0.8,0.5,1.4,1.1,1.8,1.8l-0.2,0.4l0.3-2.4h2.6v11.6h-2.8v-3l0.3,0.7
					c-0.1,0.2-0.3,0.4-0.6,0.7c-0.3,0.3-0.6,0.6-1.1,0.9c-0.4,0.3-0.9,0.5-1.5,0.7C320.3,63.1,319.7,63.2,319,63.2z M319.7,61
					c0.7,0,1.3-0.1,1.9-0.4c0.6-0.2,1-0.6,1.4-1c0.4-0.4,0.6-1,0.8-1.6v-2.3c-0.2-0.6-0.4-1.1-0.8-1.5c-0.4-0.4-0.9-0.7-1.4-1
					s-1.2-0.4-1.8-0.4c-0.8,0-1.4,0.2-2,0.5c-0.6,0.3-1.1,0.8-1.5,1.4c-0.4,0.6-0.5,1.3-0.5,2.1c0,0.7,0.2,1.4,0.6,2
					c0.4,0.6,0.9,1.1,1.5,1.5C318.3,60.9,319,61,319.7,61z"/>
				<path class="st2" d="M345.6,63.2l-6.8-11.9h3.3l4.6,9.2l-1.7-0.1l4.2-9.1h3.1l-6.6,11.9H345.6z"/>
				<path class="st2" d="M355.1,47.1c0-0.4,0.2-0.8,0.5-1c0.3-0.3,0.7-0.4,1.1-0.4s0.8,0.1,1.1,0.4c0.3,0.3,0.5,0.6,0.5,1
					c0,0.4-0.2,0.8-0.5,1c-0.3,0.3-0.7,0.4-1.1,0.4s-0.8-0.1-1.1-0.4C355.3,47.9,355.1,47.5,355.1,47.1z M355.3,51.3h2.8v11.6h-2.8
					V51.3z"/>
				<path class="st2" d="M366.3,63.1c-0.9,0-1.7-0.1-2.5-0.4c-0.8-0.3-1.5-0.7-2-1.3l1.2-1.5c0.5,0.5,1.1,0.8,1.6,1
					c0.5,0.2,1.1,0.4,1.6,0.4c0.4,0,0.8,0,1.1-0.1c0.3-0.1,0.6-0.3,0.8-0.5c0.2-0.2,0.3-0.5,0.3-0.9c0-0.4-0.1-0.8-0.4-1
					c-0.3-0.2-0.6-0.4-1.1-0.6c-0.4-0.1-0.9-0.3-1.4-0.4c-1-0.3-1.8-0.8-2.3-1.3c-0.5-0.6-0.8-1.2-0.8-2c0-0.6,0.2-1.2,0.5-1.7
					c0.3-0.5,0.8-1,1.5-1.3c0.7-0.3,1.4-0.5,2.4-0.5c0.9,0,1.6,0.1,2.3,0.3c0.7,0.2,1.3,0.5,1.9,1l-1.1,1.6
					c-0.4-0.4-0.8-0.6-1.3-0.8c-0.5-0.2-0.9-0.3-1.3-0.3c-0.4,0-0.7,0.1-1,0.2c-0.3,0.1-0.6,0.3-0.7,0.4c-0.2,0.2-0.3,0.4-0.3,0.7
					c0,0.4,0.1,0.7,0.4,0.9c0.3,0.2,0.6,0.4,1.1,0.6c0.4,0.1,0.9,0.3,1.3,0.4c0.6,0.2,1.1,0.4,1.6,0.7c0.5,0.3,0.9,0.6,1.1,1
					c0.3,0.4,0.4,0.9,0.4,1.5c0,0.7-0.2,1.3-0.5,1.9c-0.3,0.6-0.9,1.1-1.6,1.4C368.3,63,367.4,63.1,366.3,63.1z"/>
				<path class="st2" d="M374.8,47.1c0-0.4,0.2-0.8,0.5-1c0.3-0.3,0.7-0.4,1.1-0.4s0.8,0.1,1.1,0.4c0.3,0.3,0.5,0.6,0.5,1
					c0,0.4-0.2,0.8-0.5,1c-0.3,0.3-0.7,0.4-1.1,0.4s-0.8-0.1-1.1-0.4C374.9,47.9,374.8,47.5,374.8,47.1z M374.9,51.3h2.8v11.6h-2.8
					V51.3z"/>
				<path class="st2" d="M383.7,46.2h2.8v5.2h3.4v2h-3.4v9.5h-2.8v-9.5h-2.2v-2h2.2V46.2z"/>
				<path class="st2" d="M398.3,63.2c-1.1,0-2.2-0.2-3.1-0.7c-0.9-0.5-1.7-1.2-2.2-2.1c-0.6-0.9-0.8-2-0.8-3.3s0.3-2.4,0.9-3.4
					c0.6-0.9,1.3-1.7,2.3-2.2s2-0.8,3.2-0.8s2.1,0.2,2.9,0.7c0.8,0.5,1.4,1.1,1.8,1.8l-0.2,0.4l0.3-2.4h2.6v11.6h-2.8v-3l0.3,0.7
					c-0.1,0.2-0.3,0.4-0.6,0.7c-0.3,0.3-0.6,0.6-1.1,0.9c-0.4,0.3-0.9,0.5-1.5,0.7C399.7,63.1,399.1,63.2,398.3,63.2z M399.1,61
					c0.7,0,1.3-0.1,1.9-0.4c0.6-0.2,1-0.6,1.4-1c0.4-0.4,0.6-1,0.8-1.6v-2.3c-0.2-0.6-0.4-1.1-0.8-1.5c-0.4-0.4-0.9-0.7-1.4-1
					S399.7,53,399,53c-0.8,0-1.4,0.2-2,0.5c-0.6,0.3-1.1,0.8-1.5,1.4c-0.4,0.6-0.5,1.3-0.5,2.1c0,0.7,0.2,1.4,0.6,2
					c0.4,0.6,0.9,1.1,1.5,1.5C397.6,60.9,398.3,61,399.1,61z"/>
				<path class="st2" d="M425,63.2c-1.1,0-2.2-0.3-3.1-0.8s-1.6-1.2-2.2-2.2c-0.5-0.9-0.8-2-0.8-3.3c0-1.3,0.3-2.4,0.9-3.3
					c0.6-0.9,1.3-1.6,2.3-2.1s2.1-0.7,3.3-0.7c1,0,1.9,0.2,2.8,0.6c0.9,0.4,1.6,0.9,2.1,1.6L430,54V41.2h2.8v21.7H430V60l0.3,0.7
					c-0.6,0.7-1.4,1.3-2.3,1.8C427.2,63,426.1,63.2,425,63.2z M425.9,61c0.7,0,1.4-0.1,1.9-0.4c0.6-0.3,1-0.6,1.4-1
					c0.4-0.4,0.7-1,0.8-1.6v-2.2c-0.2-0.6-0.4-1.1-0.8-1.5c-0.4-0.4-0.9-0.8-1.5-1c-0.6-0.2-1.2-0.3-1.9-0.3c-0.7,0-1.4,0.2-2,0.5
					c-0.6,0.3-1.1,0.8-1.5,1.4c-0.4,0.6-0.6,1.3-0.6,2.1c0,0.8,0.2,1.5,0.6,2.1c0.4,0.6,0.9,1.1,1.5,1.5
					C424.4,60.8,425.1,61,425.9,61z"/>
				<path class="st2" d="M437.4,47.1c0-0.4,0.2-0.8,0.5-1c0.3-0.3,0.7-0.4,1.1-0.4s0.8,0.1,1.1,0.4c0.3,0.3,0.5,0.6,0.5,1
					c0,0.4-0.2,0.8-0.5,1c-0.3,0.3-0.7,0.4-1.1,0.4s-0.8-0.1-1.1-0.4C437.6,47.9,437.4,47.5,437.4,47.1z M437.6,51.3h2.8v11.6h-2.8
					V51.3z"/>
				<path class="st2" d="M450.2,63.2l-6.8-11.9h3.3l4.6,9.2l-1.7-0.1l4.2-9.1h3.1l-6.6,11.9H450.2z"/>
				<path class="st2" d="M465.5,63.2c-1.4,0-2.6-0.3-3.6-0.8c-1-0.5-1.8-1.3-2.3-2.2c-0.6-0.9-0.8-2-0.8-3.2c0-1.1,0.3-2.2,0.9-3.1
					c0.6-0.9,1.4-1.7,2.5-2.2c1-0.6,2.2-0.8,3.4-0.8c1.6,0,3,0.4,4,1.3s1.8,2.1,2.2,3.7l-10.2,3.4l-0.7-1.5l8.3-2.9l-0.6,0.4
					c-0.2-0.6-0.6-1.1-1.2-1.6c-0.6-0.4-1.3-0.7-2.2-0.7c-0.8,0-1.4,0.2-2,0.5c-0.6,0.3-1,0.8-1.4,1.4c-0.3,0.6-0.5,1.3-0.5,2.1
					s0.2,1.5,0.5,2.1c0.3,0.6,0.8,1.1,1.5,1.4c0.6,0.3,1.3,0.5,2.1,0.5c0.5,0,1.1-0.1,1.6-0.3c0.5-0.2,1-0.4,1.4-0.7l1.2,1.9
					c-0.6,0.4-1.3,0.7-2.1,1C467,63.1,466.3,63.2,465.5,63.2z"/>
				<path class="st2" d="M477.7,51.3l0.3,3.4l-0.1-0.5c0.3-0.7,0.8-1.3,1.4-1.8c0.6-0.5,1.2-0.9,1.9-1.1c0.7-0.3,1.2-0.4,1.7-0.4
					l-0.1,2.6c-1-0.1-1.8,0.1-2.5,0.5c-0.7,0.4-1.3,0.9-1.7,1.6c-0.4,0.6-0.6,1.3-0.6,2.1v5.3h-2.8V51.3H477.7z"/>
				<path class="st2" d="M489.9,63.1c-0.9,0-1.7-0.1-2.5-0.4c-0.8-0.3-1.5-0.7-2-1.3l1.2-1.5c0.5,0.5,1.1,0.8,1.6,1
					c0.5,0.2,1.1,0.4,1.6,0.4c0.4,0,0.8,0,1.1-0.1c0.3-0.1,0.6-0.3,0.8-0.5c0.2-0.2,0.3-0.5,0.3-0.9c0-0.4-0.1-0.8-0.4-1
					c-0.3-0.2-0.6-0.4-1.1-0.6c-0.4-0.1-0.9-0.3-1.4-0.4c-1-0.3-1.8-0.8-2.3-1.3c-0.5-0.6-0.8-1.2-0.8-2c0-0.6,0.2-1.2,0.5-1.7
					c0.3-0.5,0.8-1,1.5-1.3c0.7-0.3,1.4-0.5,2.4-0.5c0.9,0,1.6,0.1,2.3,0.3c0.7,0.2,1.3,0.5,1.9,1l-1.1,1.6
					c-0.4-0.4-0.8-0.6-1.3-0.8c-0.5-0.2-0.9-0.3-1.3-0.3c-0.4,0-0.7,0.1-1,0.2c-0.3,0.1-0.6,0.3-0.7,0.4c-0.2,0.2-0.3,0.4-0.3,0.7
					c0,0.4,0.1,0.7,0.4,0.9c0.3,0.2,0.6,0.4,1.1,0.6c0.4,0.1,0.9,0.3,1.3,0.4c0.6,0.2,1.1,0.4,1.6,0.7c0.5,0.3,0.9,0.6,1.1,1
					c0.3,0.4,0.4,0.9,0.4,1.5c0,0.7-0.2,1.3-0.5,1.9c-0.3,0.6-0.9,1.1-1.6,1.4C491.9,63,491,63.1,489.9,63.1z"/>
				<path class="st2" d="M498.3,47.1c0-0.4,0.2-0.8,0.5-1c0.3-0.3,0.7-0.4,1.1-0.4s0.8,0.1,1.1,0.4c0.3,0.3,0.5,0.6,0.5,1
					c0,0.4-0.2,0.8-0.5,1c-0.3,0.3-0.7,0.4-1.1,0.4s-0.8-0.1-1.1-0.4C498.5,47.9,498.3,47.5,498.3,47.1z M498.5,51.3h2.8v11.6h-2.8
					V51.3z"/>
				<path class="st2" d="M514.4,57c0-1.2,0.3-2.2,0.9-3.1c0.6-0.9,1.4-1.7,2.4-2.2s2.2-0.8,3.5-0.8c1.3,0,2.5,0.3,3.5,0.8
					c1,0.5,1.8,1.3,2.4,2.2c0.6,0.9,0.8,2,0.8,3.1c0,1.2-0.3,2.2-0.8,3.1c-0.6,0.9-1.3,1.7-2.4,2.2c-1,0.6-2.2,0.8-3.5,0.8
					c-1.3,0-2.5-0.3-3.5-0.8c-1-0.5-1.8-1.2-2.4-2.2S514.4,58.3,514.4,57z M517.2,57c0,0.7,0.2,1.4,0.5,2c0.4,0.6,0.8,1.1,1.4,1.4
					c0.6,0.4,1.3,0.5,2,0.5c0.8,0,1.5-0.2,2-0.5c0.6-0.4,1.1-0.8,1.4-1.4c0.3-0.6,0.5-1.3,0.5-2s-0.2-1.4-0.5-2
					c-0.3-0.6-0.8-1.1-1.4-1.5c-0.6-0.4-1.3-0.5-2-0.5c-0.8,0-1.4,0.2-2,0.6c-0.6,0.4-1.1,0.9-1.4,1.5
					C517.3,55.6,517.2,56.3,517.2,57z"/>
				<path class="st2" d="M538.9,63.2c-0.9,0-1.8-0.2-2.7-0.6c-0.9-0.4-1.5-1-2-1.7l0.1-0.8v8.4h-2.8V51.2h2.4l0.4,3l-0.3-0.8
					c0.6-0.7,1.3-1.3,2.3-1.8s1.9-0.7,3.1-0.7c1.1,0,2.2,0.3,3.1,0.8c0.9,0.5,1.6,1.2,2.2,2.2s0.8,2,0.8,3.3c0,1.2-0.3,2.3-0.9,3.2
					c-0.6,0.9-1.4,1.6-2.4,2.1C541.3,62.9,540.1,63.2,538.9,63.2z M538.3,61.1c0.8,0,1.5-0.2,2.2-0.5c0.7-0.3,1.2-0.8,1.6-1.4
					s0.6-1.3,0.6-2.1c0-0.8-0.2-1.5-0.6-2.1c-0.4-0.6-0.9-1.1-1.5-1.4c-0.6-0.3-1.3-0.5-2.1-0.5c-0.7,0-1.4,0.1-1.9,0.4
					c-0.6,0.3-1,0.6-1.4,1.1c-0.4,0.4-0.6,1-0.8,1.6v2c0.1,0.6,0.3,1.1,0.7,1.5c0.4,0.5,0.8,0.8,1.4,1.1
					C537.1,61,537.7,61.1,538.3,61.1z"/>
				<path class="st2" d="M554.9,63.2c-1.4,0-2.6-0.3-3.6-0.8c-1-0.5-1.8-1.3-2.3-2.2c-0.6-0.9-0.8-2-0.8-3.2c0-1.1,0.3-2.2,0.9-3.1
					c0.6-0.9,1.4-1.7,2.5-2.2c1-0.6,2.2-0.8,3.4-0.8c1.6,0,3,0.4,4,1.3s1.8,2.1,2.2,3.7l-10.2,3.4l-0.7-1.5l8.3-2.9l-0.6,0.4
					c-0.2-0.6-0.6-1.1-1.2-1.6c-0.6-0.4-1.3-0.7-2.2-0.7c-0.8,0-1.4,0.2-2,0.5c-0.6,0.3-1,0.8-1.4,1.4c-0.3,0.6-0.5,1.3-0.5,2.1
					s0.2,1.5,0.5,2.1c0.3,0.6,0.8,1.1,1.5,1.4c0.6,0.3,1.3,0.5,2.1,0.5c0.5,0,1.1-0.1,1.6-0.3c0.5-0.2,1-0.4,1.4-0.7l1.2,1.9
					c-0.6,0.4-1.3,0.7-2.1,1C556.4,63.1,555.7,63.2,554.9,63.2z"/>
				<path class="st2" d="M567.2,51.3l0.2,2.8l-0.1-0.4c0.4-0.9,1-1.5,1.9-2.1c0.9-0.5,1.9-0.8,3.1-0.8c1.1,0,2.1,0.3,2.8,1
					c0.7,0.6,1.1,1.5,1.1,2.5v8.6h-2.8v-7.7c0-0.6-0.2-1.1-0.6-1.5c-0.4-0.4-0.9-0.6-1.7-0.6c-0.7,0-1.3,0.2-1.9,0.6
					c-0.6,0.4-1,0.9-1.4,1.5c-0.3,0.7-0.5,1.4-0.5,2.3v5.4h-2.8V51.3H567.2z"/>
				<path class="st2" d="M595.4,63.2c-1.1,0-2.2-0.3-3.1-0.8s-1.6-1.2-2.2-2.2c-0.5-0.9-0.8-2-0.8-3.3c0-1.3,0.3-2.4,0.9-3.3
					c0.6-0.9,1.3-1.6,2.3-2.1s2.1-0.7,3.3-0.7c1,0,1.9,0.2,2.8,0.6c0.9,0.4,1.6,0.9,2.1,1.6l-0.1,0.9V41.2h2.8v21.7h-2.8V60l0.3,0.7
					c-0.6,0.7-1.4,1.3-2.3,1.8C597.6,63,596.6,63.2,595.4,63.2z M596.3,61c0.7,0,1.4-0.1,1.9-0.4c0.6-0.3,1-0.6,1.4-1
					c0.4-0.4,0.7-1,0.8-1.6v-2.2c-0.2-0.6-0.4-1.1-0.8-1.5c-0.4-0.4-0.9-0.8-1.5-1c-0.6-0.2-1.2-0.3-1.9-0.3c-0.7,0-1.4,0.2-2,0.5
					c-0.6,0.3-1.1,0.8-1.5,1.4c-0.4,0.6-0.6,1.3-0.6,2.1c0,0.8,0.2,1.5,0.6,2.1c0.4,0.6,0.9,1.1,1.5,1.5
					C594.9,60.8,595.6,61,596.3,61z"/>
				<path class="st2" d="M613.2,63.2c-1.1,0-2.2-0.2-3.1-0.7c-0.9-0.5-1.7-1.2-2.2-2.1c-0.6-0.9-0.8-2-0.8-3.3s0.3-2.4,0.9-3.4
					c0.6-0.9,1.3-1.7,2.3-2.2s2-0.8,3.2-0.8s2.1,0.2,2.9,0.7c0.8,0.5,1.4,1.1,1.8,1.8l-0.2,0.4l0.3-2.4h2.6v11.6h-2.8v-3l0.3,0.7
					c-0.1,0.2-0.3,0.4-0.6,0.7c-0.3,0.3-0.6,0.6-1.1,0.9c-0.4,0.3-0.9,0.5-1.5,0.7C614.6,63.1,613.9,63.2,613.2,63.2z M613.9,61
					c0.7,0,1.3-0.1,1.9-0.4c0.6-0.2,1-0.6,1.4-1c0.4-0.4,0.6-1,0.8-1.6v-2.3c-0.2-0.6-0.4-1.1-0.8-1.5c-0.4-0.4-0.9-0.7-1.4-1
					s-1.2-0.4-1.8-0.4c-0.8,0-1.4,0.2-2,0.5c-0.6,0.3-1.1,0.8-1.5,1.4c-0.4,0.6-0.5,1.3-0.5,2.1c0,0.7,0.2,1.4,0.6,2
					c0.4,0.6,0.9,1.1,1.5,1.5C612.5,60.9,613.2,61,613.9,61z"/>
				<path class="st2" d="M629.6,63l-5.9-11.7h3.1l5,10.4L629.6,63z M626.5,68.5l8.1-17.2h2.6l-7.9,17.2H626.5z"/>
			</g>
		</g>
		<g>
			<g class="st1">
				<path class="st2" d="M35.1,97.2c-1.4,0-2.6-0.3-3.6-0.8c-1-0.5-1.8-1.3-2.3-2.2c-0.6-0.9-0.8-2-0.8-3.2c0-1.1,0.3-2.2,0.9-3.1
					c0.6-0.9,1.4-1.7,2.5-2.2c1-0.6,2.2-0.8,3.4-0.8c1.6,0,3,0.4,4,1.3c1.1,0.9,1.8,2.1,2.2,3.7l-10.2,3.4l-0.7-1.5l8.3-2.9
					l-0.6,0.4c-0.2-0.6-0.6-1.1-1.2-1.6C36.6,87.2,35.8,87,35,87c-0.8,0-1.4,0.2-2,0.5s-1,0.8-1.4,1.4c-0.3,0.6-0.5,1.3-0.5,2.1
					s0.2,1.5,0.5,2.1c0.3,0.6,0.8,1.1,1.5,1.4c0.6,0.3,1.3,0.5,2.1,0.5c0.5,0,1.1-0.1,1.6-0.3c0.5-0.2,1-0.4,1.4-0.7l1.2,1.9
					c-0.6,0.4-1.3,0.7-2.1,1S35.8,97.2,35.1,97.2z"/>
				<path class="st2" d="M49.8,97.2c-1.1,0-2.2-0.3-3.1-0.8c-0.9-0.5-1.6-1.2-2.2-2.2c-0.5-0.9-0.8-2-0.8-3.3c0-1.3,0.3-2.4,0.9-3.3
					c0.6-0.9,1.3-1.6,2.3-2.1s2.1-0.7,3.3-0.7c1,0,1.9,0.2,2.8,0.6s1.6,0.9,2.1,1.6L54.9,88V75.3h2.8v21.7h-2.8V94l0.3,0.7
					c-0.6,0.7-1.4,1.3-2.3,1.8C52,97,51,97.2,49.8,97.2z M50.7,95c0.7,0,1.4-0.1,1.9-0.4c0.6-0.3,1-0.6,1.4-1c0.4-0.4,0.7-1,0.8-1.6
					v-2.2c-0.2-0.6-0.4-1.1-0.8-1.5c-0.4-0.4-0.9-0.8-1.5-1C52,87.1,51.4,87,50.7,87c-0.7,0-1.4,0.2-2,0.5c-0.6,0.3-1.1,0.8-1.5,1.4
					c-0.4,0.6-0.6,1.3-0.6,2.1c0,0.8,0.2,1.5,0.6,2.1c0.4,0.6,0.9,1.1,1.5,1.5C49.3,94.8,50,95,50.7,95z"/>
				<path class="st2" d="M77.5,97.2c-1.4,0-2.6-0.3-3.6-0.8c-1-0.5-1.8-1.3-2.3-2.2c-0.6-0.9-0.8-2-0.8-3.2c0-1.1,0.3-2.2,0.9-3.1
					c0.6-0.9,1.4-1.7,2.5-2.2c1-0.6,2.2-0.8,3.4-0.8c1.6,0,3,0.4,4,1.3c1.1,0.9,1.8,2.1,2.2,3.7l-10.2,3.4L73,91.7l8.3-2.9l-0.6,0.4
					c-0.2-0.6-0.6-1.1-1.2-1.6C79,87.2,78.3,87,77.4,87c-0.8,0-1.4,0.2-2,0.5s-1,0.8-1.4,1.4c-0.3,0.6-0.5,1.3-0.5,2.1
					s0.2,1.5,0.5,2.1c0.3,0.6,0.8,1.1,1.5,1.4c0.6,0.3,1.3,0.5,2.1,0.5c0.5,0,1.1-0.1,1.6-0.3c0.5-0.2,1-0.4,1.4-0.7l1.2,1.9
					c-0.6,0.4-1.3,0.7-2.1,1S78.2,97.2,77.5,97.2z M73.1,79.2h3.1l2.2,3.8h-1.8L73.1,79.2z"/>
				<path class="st2" d="M100.1,97.2c-0.9,0-1.7-0.1-2.5-0.4s-1.5-0.7-2-1.3l1.2-1.5c0.5,0.5,1.1,0.8,1.6,1c0.5,0.2,1.1,0.4,1.6,0.4
					c0.4,0,0.8,0,1.1-0.1c0.3-0.1,0.6-0.3,0.8-0.5c0.2-0.2,0.3-0.5,0.3-0.9c0-0.4-0.1-0.8-0.4-1c-0.3-0.2-0.6-0.4-1.1-0.6
					c-0.4-0.1-0.9-0.3-1.4-0.4c-1-0.3-1.8-0.8-2.3-1.3s-0.8-1.2-0.8-2c0-0.6,0.2-1.2,0.5-1.7c0.3-0.5,0.8-1,1.5-1.3
					c0.7-0.3,1.4-0.5,2.4-0.5c0.9,0,1.6,0.1,2.3,0.3c0.7,0.2,1.3,0.5,1.9,1l-1.1,1.6c-0.4-0.4-0.8-0.6-1.3-0.8
					c-0.5-0.2-0.9-0.3-1.3-0.3c-0.4,0-0.7,0.1-1,0.2s-0.6,0.3-0.7,0.4c-0.2,0.2-0.3,0.4-0.3,0.7c0,0.4,0.1,0.7,0.4,0.9
					c0.3,0.2,0.6,0.4,1.1,0.6c0.4,0.1,0.9,0.3,1.3,0.4c0.6,0.2,1.1,0.4,1.6,0.7c0.5,0.3,0.9,0.6,1.1,1c0.3,0.4,0.4,0.9,0.4,1.5
					c0,0.7-0.2,1.3-0.5,1.9c-0.3,0.6-0.9,1.1-1.6,1.4C102.1,97,101.2,97.2,100.1,97.2z"/>
				<path class="st2" d="M108.5,81.1c0-0.4,0.2-0.8,0.5-1c0.3-0.3,0.7-0.4,1.1-0.4s0.8,0.1,1.1,0.4c0.3,0.3,0.5,0.6,0.5,1
					c0,0.4-0.2,0.8-0.5,1c-0.3,0.3-0.7,0.4-1.1,0.4s-0.8-0.1-1.1-0.4C108.7,81.9,108.5,81.6,108.5,81.1z M108.7,85.3h2.8v11.6h-2.8
					V85.3z"/>
				<path class="st2" d="M126.2,95.8c-0.6,0.4-1.2,0.8-2,1c-0.8,0.2-1.5,0.4-2.3,0.4c-1.3,0-2.5-0.3-3.5-0.8s-1.8-1.2-2.4-2.1
					c-0.6-0.9-0.9-2-0.9-3.2c0-1.2,0.3-2.3,0.9-3.2c0.6-0.9,1.4-1.6,2.4-2.1s2-0.7,3.2-0.7c1,0,1.8,0.1,2.6,0.4
					c0.8,0.3,1.5,0.6,2,1.1l-1.4,1.7c-0.3-0.2-0.8-0.5-1.3-0.7c-0.5-0.2-1.1-0.3-1.7-0.3c-0.7,0-1.4,0.2-2,0.5
					c-0.6,0.3-1.1,0.8-1.4,1.4c-0.3,0.6-0.5,1.3-0.5,2c0,0.7,0.2,1.4,0.5,2c0.4,0.6,0.9,1.1,1.5,1.4c0.6,0.4,1.4,0.5,2.2,0.5
					c0.5,0,1-0.1,1.4-0.2c0.4-0.1,0.8-0.4,1.2-0.6L126.2,95.8z"/>
				<path class="st2" d="M133.7,97.4c-1.1,0-2.1-0.3-2.8-1c-0.7-0.6-1.1-1.5-1.1-2.5v-8.6h2.8V93c0,0.6,0.2,1.1,0.6,1.5
					c0.4,0.4,0.9,0.6,1.7,0.6c0.7,0,1.3-0.2,1.8-0.6c0.5-0.4,1-0.9,1.3-1.6c0.3-0.7,0.5-1.4,0.5-2.3v-5.4h2.8v11.6h-2.5l-0.2-2.9
					l0.2,0.5c-0.3,0.5-0.6,1-1.1,1.4c-0.5,0.4-1,0.8-1.7,1C135.2,97.3,134.5,97.4,133.7,97.4z"/>
				<path class="st2" d="M148.5,85.3l0.3,3.4l-0.1-0.5c0.3-0.7,0.8-1.3,1.4-1.8c0.6-0.5,1.2-0.9,1.9-1.1c0.7-0.3,1.2-0.4,1.7-0.4
					l-0.1,2.6c-0.9-0.1-1.8,0.1-2.5,0.5c-0.7,0.4-1.3,0.9-1.7,1.6c-0.4,0.6-0.6,1.3-0.6,2.1v5.3H146V85.3H148.5z"/>
				<path class="st2" d="M156.1,91c0-1.2,0.3-2.2,0.9-3.1c0.6-0.9,1.4-1.7,2.4-2.2s2.2-0.8,3.5-0.8c1.3,0,2.5,0.3,3.5,0.8
					c1,0.5,1.8,1.3,2.4,2.2c0.6,0.9,0.8,2,0.8,3.1c0,1.2-0.3,2.2-0.8,3.1c-0.6,0.9-1.4,1.7-2.4,2.2c-1,0.6-2.2,0.8-3.5,0.8
					c-1.3,0-2.5-0.3-3.5-0.8c-1-0.5-1.8-1.2-2.4-2.2S156.1,92.3,156.1,91z M158.9,91c0,0.7,0.2,1.4,0.5,2c0.4,0.6,0.8,1.1,1.4,1.4
					c0.6,0.4,1.3,0.5,2,0.5c0.8,0,1.5-0.2,2-0.5c0.6-0.4,1.1-0.8,1.4-1.4c0.3-0.6,0.5-1.3,0.5-2s-0.2-1.4-0.5-2
					c-0.3-0.6-0.8-1.1-1.4-1.5c-0.6-0.4-1.3-0.5-2-0.5c-0.8,0-1.4,0.2-2,0.6c-0.6,0.4-1.1,0.9-1.4,1.5S158.9,90.3,158.9,91z"/>
				<path class="st2" d="M187.7,97.2c-1.1,0-2.2-0.3-3.1-0.8c-0.9-0.5-1.6-1.2-2.2-2.2c-0.5-0.9-0.8-2-0.8-3.3
					c0-1.3,0.3-2.4,0.9-3.3c0.6-0.9,1.3-1.6,2.3-2.1s2.1-0.7,3.3-0.7c1,0,1.9,0.2,2.8,0.6s1.6,0.9,2.1,1.6l-0.1,0.9V75.3h2.8v21.7
					h-2.8V94l0.3,0.7c-0.6,0.7-1.4,1.3-2.3,1.8C189.9,97,188.9,97.2,187.7,97.2z M188.6,95c0.7,0,1.4-0.1,1.9-0.4
					c0.6-0.3,1-0.6,1.4-1c0.4-0.4,0.7-1,0.8-1.6v-2.2c-0.2-0.6-0.4-1.1-0.8-1.5c-0.4-0.4-0.9-0.8-1.5-1c-0.6-0.2-1.2-0.3-1.9-0.3
					c-0.7,0-1.4,0.2-2,0.5c-0.6,0.3-1.1,0.8-1.5,1.4c-0.4,0.6-0.6,1.3-0.6,2.1c0,0.8,0.2,1.5,0.6,2.1c0.4,0.6,0.9,1.1,1.5,1.5
					C187.2,94.8,187.8,95,188.6,95z"/>
				<path class="st2" d="M200.1,81.1c0-0.4,0.2-0.8,0.5-1c0.3-0.3,0.7-0.4,1.1-0.4s0.8,0.1,1.1,0.4c0.3,0.3,0.5,0.6,0.5,1
					c0,0.4-0.2,0.8-0.5,1c-0.3,0.3-0.7,0.4-1.1,0.4s-0.8-0.1-1.1-0.4C200.3,81.9,200.1,81.6,200.1,81.1z M200.3,85.3h2.8v11.6h-2.8
					V85.3z"/>
				<path class="st2" d="M222.3,97.3l-6.8-11.9h3.3l4.6,9.2l-1.7-0.1l4.2-9.1h3.1l-6.6,11.9H222.3z"/>
				<path class="st2" d="M230.8,91c0-1.2,0.3-2.2,0.9-3.1c0.6-0.9,1.4-1.7,2.4-2.2s2.2-0.8,3.5-0.8c1.3,0,2.5,0.3,3.5,0.8
					c1,0.5,1.8,1.3,2.4,2.2c0.6,0.9,0.8,2,0.8,3.1c0,1.2-0.3,2.2-0.8,3.1c-0.6,0.9-1.4,1.7-2.4,2.2c-1,0.6-2.2,0.8-3.5,0.8
					c-1.3,0-2.5-0.3-3.5-0.8c-1-0.5-1.8-1.2-2.4-2.2S230.8,92.3,230.8,91z M233.6,91c0,0.7,0.2,1.4,0.5,2c0.4,0.6,0.8,1.1,1.4,1.4
					c0.6,0.4,1.3,0.5,2,0.5c0.8,0,1.5-0.2,2-0.5c0.6-0.4,1.1-0.8,1.4-1.4c0.3-0.6,0.5-1.3,0.5-2s-0.2-1.4-0.5-2
					c-0.3-0.6-0.8-1.1-1.4-1.5c-0.6-0.4-1.3-0.5-2-0.5c-0.8,0-1.4,0.2-2,0.6c-0.6,0.4-1.1,0.9-1.4,1.5S233.6,90.3,233.6,91z"/>
				<path class="st2" d="M248.1,75.3h2.8v21.7h-2.8V75.3z"/>
				<path class="st2" d="M261.4,97.2c-1.4,0-2.6-0.3-3.6-0.8c-1-0.5-1.8-1.3-2.3-2.2c-0.6-0.9-0.8-2-0.8-3.2c0-1.1,0.3-2.2,0.9-3.1
					c0.6-0.9,1.4-1.7,2.5-2.2c1-0.6,2.2-0.8,3.4-0.8c1.6,0,3,0.4,4,1.3c1.1,0.9,1.8,2.1,2.2,3.7l-10.2,3.4l-0.7-1.5l8.3-2.9
					l-0.6,0.4c-0.2-0.6-0.6-1.1-1.2-1.6c-0.6-0.4-1.3-0.7-2.2-0.7c-0.8,0-1.4,0.2-2,0.5s-1,0.8-1.4,1.4c-0.3,0.6-0.5,1.3-0.5,2.1
					s0.2,1.5,0.5,2.1c0.3,0.6,0.8,1.1,1.5,1.4c0.6,0.3,1.3,0.5,2.1,0.5c0.5,0,1.1-0.1,1.6-0.3c0.5-0.2,1-0.4,1.4-0.7l1.2,1.9
					c-0.6,0.4-1.3,0.7-2.1,1S262.1,97.2,261.4,97.2z"/>
				<path class="st2" d="M273.6,85.3l0.3,3.4l-0.1-0.5c0.3-0.7,0.8-1.3,1.4-1.8c0.6-0.5,1.2-0.9,1.9-1.1c0.7-0.3,1.2-0.4,1.7-0.4
					l-0.1,2.6c-0.9-0.1-1.8,0.1-2.5,0.5c-0.7,0.4-1.3,0.9-1.7,1.6c-0.4,0.6-0.6,1.3-0.6,2.1v5.3h-2.8V85.3H273.6z"/>
				<path class="st2" d="M285.7,97.2c-0.9,0-1.7-0.1-2.5-0.4s-1.5-0.7-2-1.3l1.2-1.5c0.5,0.5,1.1,0.8,1.6,1c0.5,0.2,1.1,0.4,1.6,0.4
					c0.4,0,0.8,0,1.1-0.1c0.3-0.1,0.6-0.3,0.8-0.5c0.2-0.2,0.3-0.5,0.3-0.9c0-0.4-0.1-0.8-0.4-1c-0.3-0.2-0.6-0.4-1.1-0.6
					c-0.4-0.1-0.9-0.3-1.4-0.4c-1-0.3-1.8-0.8-2.3-1.3s-0.8-1.2-0.8-2c0-0.6,0.2-1.2,0.5-1.7c0.3-0.5,0.8-1,1.5-1.3
					c0.7-0.3,1.4-0.5,2.4-0.5c0.9,0,1.6,0.1,2.3,0.3c0.7,0.2,1.3,0.5,1.9,1l-1.1,1.6c-0.4-0.4-0.8-0.6-1.3-0.8
					c-0.5-0.2-0.9-0.3-1.3-0.3c-0.4,0-0.7,0.1-1,0.2s-0.6,0.3-0.7,0.4c-0.2,0.2-0.3,0.4-0.3,0.7c0,0.4,0.1,0.7,0.4,0.9
					c0.3,0.2,0.6,0.4,1.1,0.6c0.4,0.1,0.9,0.3,1.3,0.4c0.6,0.2,1.1,0.4,1.6,0.7c0.5,0.3,0.9,0.6,1.1,1c0.3,0.4,0.4,0.9,0.4,1.5
					c0,0.7-0.2,1.3-0.5,1.9c-0.3,0.6-0.9,1.1-1.6,1.4C287.7,97,286.8,97.2,285.7,97.2z"/>
				<path class="st2" d="M294.1,81.1c0-0.4,0.2-0.8,0.5-1c0.3-0.3,0.7-0.4,1.1-0.4s0.8,0.1,1.1,0.4c0.3,0.3,0.5,0.6,0.5,1
					c0,0.4-0.2,0.8-0.5,1c-0.3,0.3-0.7,0.4-1.1,0.4s-0.8-0.1-1.1-0.4C294.3,81.9,294.1,81.6,294.1,81.1z M294.3,85.3h2.8v11.6h-2.8
					V85.3z"/>
				<path class="st2" d="M311.1,81.1c0-0.4,0.2-0.8,0.5-1c0.3-0.3,0.7-0.4,1.1-0.4s0.8,0.1,1.1,0.4c0.3,0.3,0.5,0.6,0.5,1
					c0,0.4-0.2,0.8-0.5,1c-0.3,0.3-0.7,0.4-1.1,0.4s-0.8-0.1-1.1-0.4C311.3,81.9,311.1,81.6,311.1,81.1z M311.3,85.3h2.8v11.6h-2.8
					V85.3z"/>
				<path class="st2" d="M322.3,97.2c-0.9,0-1.7-0.1-2.5-0.4c-0.8-0.3-1.5-0.7-2-1.3l1.2-1.5c0.5,0.5,1.1,0.8,1.6,1
					c0.5,0.2,1.1,0.4,1.6,0.4c0.4,0,0.8,0,1.1-0.1c0.3-0.1,0.6-0.3,0.8-0.5c0.2-0.2,0.3-0.5,0.3-0.9c0-0.4-0.1-0.8-0.4-1
					c-0.3-0.2-0.6-0.4-1.1-0.6c-0.4-0.1-0.9-0.3-1.4-0.4c-1-0.3-1.8-0.8-2.3-1.3c-0.5-0.6-0.8-1.2-0.8-2c0-0.6,0.2-1.2,0.5-1.7
					c0.3-0.5,0.8-1,1.5-1.3c0.7-0.3,1.4-0.5,2.4-0.5c0.9,0,1.6,0.1,2.3,0.3c0.7,0.2,1.3,0.5,1.9,1l-1.1,1.6
					c-0.4-0.4-0.8-0.6-1.3-0.8c-0.5-0.2-0.9-0.3-1.3-0.3c-0.4,0-0.7,0.1-1,0.2c-0.3,0.1-0.6,0.3-0.7,0.4c-0.2,0.2-0.3,0.4-0.3,0.7
					c0,0.4,0.1,0.7,0.4,0.9c0.3,0.2,0.6,0.4,1.1,0.6c0.4,0.1,0.9,0.3,1.3,0.4c0.6,0.2,1.1,0.4,1.6,0.7c0.5,0.3,0.9,0.6,1.1,1
					c0.3,0.4,0.4,0.9,0.4,1.5c0,0.7-0.2,1.3-0.5,1.9c-0.3,0.6-0.9,1.1-1.6,1.4C324.3,97,323.4,97.2,322.3,97.2z"/>
				<path class="st2" d="M340.9,95.8c-0.6,0.4-1.2,0.8-2,1c-0.8,0.2-1.5,0.4-2.3,0.4c-1.3,0-2.5-0.3-3.5-0.8s-1.8-1.2-2.4-2.1
					c-0.6-0.9-0.9-2-0.9-3.2c0-1.2,0.3-2.3,0.9-3.2s1.4-1.6,2.4-2.1s2-0.7,3.2-0.7c1,0,1.8,0.1,2.6,0.4c0.8,0.3,1.5,0.6,2,1.1
					l-1.4,1.7c-0.3-0.2-0.8-0.5-1.3-0.7c-0.5-0.2-1.1-0.3-1.7-0.3c-0.7,0-1.4,0.2-2,0.5c-0.6,0.3-1.1,0.8-1.4,1.4
					c-0.3,0.6-0.5,1.3-0.5,2c0,0.7,0.2,1.4,0.5,2c0.4,0.6,0.9,1.1,1.5,1.4c0.6,0.4,1.4,0.5,2.2,0.5c0.5,0,1-0.1,1.4-0.2
					c0.4-0.1,0.8-0.4,1.2-0.6L340.9,95.8z"/>
				<path class="st2" d="M346.9,85.3l0.3,3.4l-0.1-0.5c0.3-0.7,0.8-1.3,1.4-1.8c0.6-0.5,1.2-0.9,1.9-1.1c0.7-0.3,1.2-0.4,1.7-0.4
					l-0.1,2.6c-1-0.1-1.8,0.1-2.5,0.5c-0.7,0.4-1.3,0.9-1.7,1.6c-0.4,0.6-0.6,1.3-0.6,2.1v5.3h-2.8V85.3H346.9z"/>
				<path class="st2" d="M355.4,81.1c0-0.4,0.2-0.8,0.5-1c0.3-0.3,0.7-0.4,1.1-0.4s0.8,0.1,1.1,0.4c0.3,0.3,0.5,0.6,0.5,1
					c0,0.4-0.2,0.8-0.5,1c-0.3,0.3-0.7,0.4-1.1,0.4s-0.8-0.1-1.1-0.4C355.6,81.9,355.4,81.6,355.4,81.1z M355.6,85.3h2.8v11.6h-2.8
					V85.3z"/>
				<path class="st2" d="M368.2,97.3l-6.8-11.9h3.3l4.6,9.2l-1.7-0.1l4.2-9.1h3.1l-6.6,11.9H368.2z"/>
				<path class="st2" d="M383.6,97.2c-1.4,0-2.6-0.3-3.6-0.8c-1-0.5-1.8-1.3-2.3-2.2c-0.6-0.9-0.8-2-0.8-3.2c0-1.1,0.3-2.2,0.9-3.1
					c0.6-0.9,1.4-1.7,2.5-2.2c1-0.6,2.2-0.8,3.4-0.8c1.6,0,3,0.4,4,1.3s1.8,2.1,2.2,3.7l-10.2,3.4l-0.7-1.5l8.3-2.9l-0.6,0.4
					c-0.2-0.6-0.6-1.1-1.2-1.6c-0.6-0.4-1.3-0.7-2.2-0.7c-0.8,0-1.4,0.2-2,0.5c-0.6,0.3-1,0.8-1.4,1.4c-0.3,0.6-0.5,1.3-0.5,2.1
					s0.2,1.5,0.5,2.1c0.3,0.6,0.8,1.1,1.5,1.4c0.6,0.3,1.3,0.5,2.1,0.5c0.5,0,1.1-0.1,1.6-0.3c0.5-0.2,1-0.4,1.4-0.7l1.2,1.9
					c-0.6,0.4-1.3,0.7-2.1,1C385,97.1,384.3,97.2,383.6,97.2z"/>
				<path class="st2" d="M395.8,85.3l0.3,3.4l-0.1-0.5c0.3-0.7,0.8-1.3,1.4-1.8c0.6-0.5,1.2-0.9,1.9-1.1c0.7-0.3,1.2-0.4,1.7-0.4
					l-0.1,2.6c-1-0.1-1.8,0.1-2.5,0.5c-0.7,0.4-1.3,0.9-1.7,1.6c-0.4,0.6-0.6,1.3-0.6,2.1v5.3h-2.8V85.3H395.8z"/>
				<path class="st2" d="M410.2,97.2c-1.4,0-2.6-0.3-3.6-0.8c-1-0.5-1.8-1.3-2.3-2.2c-0.6-0.9-0.8-2-0.8-3.2c0-1.1,0.3-2.2,0.9-3.1
					c0.6-0.9,1.4-1.7,2.5-2.2c1-0.6,2.2-0.8,3.4-0.8c1.6,0,3,0.4,4,1.3s1.8,2.1,2.2,3.7l-10.2,3.4l-0.7-1.5l8.3-2.9l-0.6,0.4
					c-0.2-0.6-0.6-1.1-1.2-1.6c-0.6-0.4-1.3-0.7-2.2-0.7c-0.8,0-1.4,0.2-2,0.5c-0.6,0.3-1,0.8-1.4,1.4c-0.3,0.6-0.5,1.3-0.5,2.1
					s0.2,1.5,0.5,2.1c0.3,0.6,0.8,1.1,1.5,1.4c0.6,0.3,1.3,0.5,2.1,0.5c0.5,0,1.1-0.1,1.6-0.3c0.5-0.2,1-0.4,1.4-0.7l1.2,1.9
					c-0.6,0.4-1.3,0.7-2.1,1C411.6,97.1,410.9,97.2,410.2,97.2z"/>
				<path class="st2" d="M434.4,97.2c-1.1,0-2.2-0.2-3.1-0.7c-0.9-0.5-1.7-1.2-2.2-2.1c-0.6-0.9-0.8-2-0.8-3.3s0.3-2.4,0.9-3.4
					c0.6-0.9,1.3-1.7,2.3-2.2s2-0.8,3.2-0.8s2.1,0.2,2.9,0.7c0.8,0.5,1.4,1.1,1.8,1.8l-0.2,0.4l0.3-2.4h2.6v11.6h-2.8v-3l0.3,0.7
					c-0.1,0.2-0.3,0.4-0.6,0.7c-0.3,0.3-0.6,0.6-1.1,0.9c-0.4,0.3-0.9,0.5-1.5,0.7C435.8,97.1,435.1,97.2,434.4,97.2z M435.1,95.1
					c0.7,0,1.3-0.1,1.9-0.4c0.6-0.2,1-0.6,1.4-1c0.4-0.4,0.6-1,0.8-1.6v-2.3c-0.2-0.6-0.4-1.1-0.8-1.5c-0.4-0.4-0.9-0.7-1.4-1
					s-1.2-0.4-1.8-0.4c-0.8,0-1.4,0.2-2,0.5c-0.6,0.3-1.1,0.8-1.5,1.4c-0.4,0.6-0.5,1.3-0.5,2.1c0,0.7,0.2,1.4,0.6,2
					c0.4,0.6,0.9,1.1,1.5,1.5C433.7,94.9,434.4,95.1,435.1,95.1z"/>
				<path class="st2" d="M446.7,75.3h2.8v21.7h-2.8V75.3z"/>
				<path class="st2" d="M463.6,75.3h2.8v21.7h-2.8V75.3z"/>
				<path class="st2" d="M471,81.1c0-0.4,0.2-0.8,0.5-1c0.3-0.3,0.7-0.4,1.1-0.4s0.8,0.1,1.1,0.4c0.3,0.3,0.5,0.6,0.5,1
					c0,0.4-0.2,0.8-0.5,1c-0.3,0.3-0.7,0.4-1.1,0.4s-0.8-0.1-1.1-0.4C471.2,81.9,471,81.6,471,81.1z M471.2,85.3h2.8v11.6h-2.8V85.3
					z"/>
				<path class="st2" d="M488.8,95.8c-0.6,0.4-1.2,0.8-2,1c-0.8,0.2-1.5,0.4-2.3,0.4c-1.3,0-2.5-0.3-3.5-0.8s-1.8-1.2-2.4-2.1
					c-0.6-0.9-0.9-2-0.9-3.2c0-1.2,0.3-2.3,0.9-3.2s1.4-1.6,2.4-2.1s2-0.7,3.2-0.7c1,0,1.8,0.1,2.6,0.4c0.8,0.3,1.5,0.6,2,1.1
					l-1.4,1.7c-0.3-0.2-0.8-0.5-1.3-0.7c-0.5-0.2-1.1-0.3-1.7-0.3c-0.7,0-1.4,0.2-2,0.5c-0.6,0.3-1.1,0.8-1.4,1.4
					c-0.3,0.6-0.5,1.3-0.5,2c0,0.7,0.2,1.4,0.5,2c0.4,0.6,0.9,1.1,1.5,1.4c0.6,0.4,1.4,0.5,2.2,0.5c0.5,0,1-0.1,1.4-0.2
					c0.4-0.1,0.8-0.4,1.2-0.6L488.8,95.8z"/>
				<path class="st2" d="M498,97.2c-1.4,0-2.6-0.3-3.6-0.8c-1-0.5-1.8-1.3-2.3-2.2c-0.6-0.9-0.8-2-0.8-3.2c0-1.1,0.3-2.2,0.9-3.1
					c0.6-0.9,1.4-1.7,2.5-2.2c1-0.6,2.2-0.8,3.4-0.8c1.6,0,3,0.4,4,1.3s1.8,2.1,2.2,3.7l-10.2,3.4l-0.7-1.5l8.3-2.9l-0.6,0.4
					c-0.2-0.6-0.6-1.1-1.2-1.6c-0.6-0.4-1.3-0.7-2.2-0.7c-0.8,0-1.4,0.2-2,0.5c-0.6,0.3-1,0.8-1.4,1.4c-0.3,0.6-0.5,1.3-0.5,2.1
					s0.2,1.5,0.5,2.1c0.3,0.6,0.8,1.1,1.5,1.4c0.6,0.3,1.3,0.5,2.1,0.5c0.5,0,1.1-0.1,1.6-0.3c0.5-0.2,1-0.4,1.4-0.7l1.2,1.9
					c-0.6,0.4-1.3,0.7-2.1,1C499.5,97.1,498.7,97.2,498,97.2z"/>
				<path class="st2" d="M506.6,91c0-1.2,0.3-2.2,0.9-3.1c0.6-0.9,1.4-1.7,2.4-2.2s2.2-0.8,3.5-0.8c1.3,0,2.5,0.3,3.5,0.8
					c1,0.5,1.8,1.3,2.4,2.2c0.6,0.9,0.8,2,0.8,3.1c0,1.2-0.3,2.2-0.8,3.1c-0.6,0.9-1.3,1.7-2.4,2.2c-1,0.6-2.2,0.8-3.5,0.8
					c-1.3,0-2.5-0.3-3.5-0.8c-1-0.5-1.8-1.2-2.4-2.2S506.6,92.3,506.6,91z M509.4,91c0,0.7,0.2,1.4,0.5,2c0.4,0.6,0.8,1.1,1.4,1.4
					c0.6,0.4,1.3,0.5,2,0.5c0.8,0,1.5-0.2,2-0.5c0.6-0.4,1.1-0.8,1.4-1.4c0.3-0.6,0.5-1.3,0.5-2s-0.2-1.4-0.5-2
					c-0.3-0.6-0.8-1.1-1.4-1.5c-0.6-0.4-1.3-0.5-2-0.5c-0.8,0-1.4,0.2-2,0.6c-0.6,0.4-1.1,0.9-1.4,1.5
					C509.6,89.7,509.4,90.3,509.4,91z"/>
			</g>
		</g>
		<g>
			<g class="st1">
				<path class="st2" d="M32.8,131.2c-0.9,0-1.7-0.1-2.5-0.4s-1.5-0.7-2-1.3l1.2-1.5c0.5,0.5,1.1,0.8,1.6,1c0.5,0.2,1.1,0.4,1.6,0.4
					c0.4,0,0.8,0,1.1-0.1c0.3-0.1,0.6-0.3,0.8-0.5c0.2-0.2,0.3-0.5,0.3-0.9c0-0.4-0.1-0.8-0.4-1c-0.3-0.2-0.6-0.4-1.1-0.6
					c-0.4-0.1-0.9-0.3-1.4-0.4c-1-0.3-1.8-0.8-2.3-1.3s-0.8-1.2-0.8-2c0-0.6,0.2-1.2,0.5-1.7c0.3-0.5,0.8-1,1.5-1.3
					c0.7-0.3,1.4-0.5,2.4-0.5c0.9,0,1.6,0.1,2.3,0.3c0.7,0.2,1.3,0.5,1.9,1l-1.1,1.6c-0.4-0.4-0.8-0.6-1.3-0.8
					c-0.5-0.2-0.9-0.3-1.3-0.3c-0.4,0-0.7,0.1-1,0.2s-0.6,0.3-0.7,0.4c-0.2,0.2-0.3,0.4-0.3,0.7c0,0.4,0.1,0.7,0.4,0.9
					c0.3,0.2,0.6,0.4,1.1,0.6c0.4,0.1,0.9,0.3,1.3,0.4c0.6,0.2,1.1,0.4,1.6,0.7c0.5,0.3,0.9,0.6,1.1,1c0.3,0.4,0.4,0.9,0.4,1.5
					c0,0.7-0.2,1.3-0.5,1.9c-0.3,0.6-0.9,1.1-1.6,1.4C34.8,131,33.9,131.2,32.8,131.2z"/>
				<path class="st2" d="M51.5,129.9c-0.6,0.4-1.2,0.8-2,1c-0.8,0.2-1.5,0.4-2.3,0.4c-1.3,0-2.5-0.3-3.5-0.8s-1.8-1.2-2.4-2.1
					c-0.6-0.9-0.9-2-0.9-3.2c0-1.2,0.3-2.3,0.9-3.2c0.6-0.9,1.4-1.6,2.4-2.1s2-0.7,3.2-0.7c1,0,1.8,0.1,2.6,0.4
					c0.8,0.3,1.5,0.6,2,1.1l-1.4,1.7c-0.3-0.2-0.8-0.5-1.3-0.7c-0.5-0.2-1.1-0.3-1.7-0.3c-0.7,0-1.4,0.2-2,0.5
					c-0.6,0.3-1.1,0.8-1.4,1.4c-0.3,0.6-0.5,1.3-0.5,2c0,0.7,0.2,1.4,0.5,2c0.4,0.6,0.9,1.1,1.5,1.4c0.6,0.4,1.4,0.5,2.2,0.5
					c0.5,0,1-0.1,1.4-0.2c0.4-0.1,0.8-0.4,1.2-0.6L51.5,129.9z"/>
				<path class="st2" d="M54.8,115.2c0-0.4,0.2-0.8,0.5-1c0.3-0.3,0.7-0.4,1.1-0.4s0.8,0.1,1.1,0.4c0.3,0.3,0.5,0.6,0.5,1
					c0,0.4-0.2,0.8-0.5,1c-0.3,0.3-0.7,0.4-1.1,0.4s-0.8-0.1-1.1-0.4C55,115.9,54.8,115.6,54.8,115.2z M55,119.4h2.8V131H55V119.4z"
					/>
				<path class="st2" d="M68.3,131.2c-1.4,0-2.6-0.3-3.6-0.8c-1-0.5-1.8-1.3-2.3-2.2c-0.6-0.9-0.8-2-0.8-3.2c0-1.1,0.3-2.2,0.9-3.1
					c0.6-0.9,1.4-1.7,2.5-2.2c1-0.6,2.2-0.8,3.4-0.8c1.6,0,3,0.4,4,1.3c1.1,0.9,1.8,2.1,2.2,3.7l-10.2,3.4l-0.7-1.5l8.3-2.9
					l-0.6,0.4c-0.2-0.6-0.6-1.1-1.2-1.6c-0.6-0.4-1.3-0.7-2.2-0.7c-0.8,0-1.4,0.2-2,0.5s-1,0.8-1.4,1.4c-0.3,0.6-0.5,1.3-0.5,2.1
					s0.2,1.5,0.5,2.1c0.3,0.6,0.8,1.1,1.5,1.4c0.6,0.3,1.3,0.5,2.1,0.5c0.5,0,1.1-0.1,1.6-0.3c0.5-0.2,1-0.4,1.4-0.7l1.2,1.9
					c-0.6,0.4-1.3,0.7-2.1,1S69,131.2,68.3,131.2z"/>
				<path class="st2" d="M80.5,119.4l0.2,2.8l-0.1-0.4c0.4-0.9,1-1.5,1.9-2.1c0.9-0.5,1.9-0.8,3.1-0.8c1.1,0,2.1,0.3,2.8,1
					c0.7,0.6,1.1,1.5,1.1,2.5v8.6h-2.8v-7.7c0-0.6-0.2-1.1-0.6-1.5c-0.4-0.4-0.9-0.6-1.7-0.6c-0.7,0-1.3,0.2-1.9,0.6
					c-0.6,0.4-1,0.9-1.4,1.5c-0.3,0.7-0.5,1.4-0.5,2.3v5.4H78v-11.6H80.5z"/>
				<path class="st2" d="M95.6,114.3h2.8v5.2h3.4v2h-3.4v9.5h-2.8v-9.5h-2.2v-2h2.2V114.3z"/>
				<path class="st2" d="M104.9,115.2c0-0.4,0.2-0.8,0.5-1c0.3-0.3,0.7-0.4,1.1-0.4s0.8,0.1,1.1,0.4c0.3,0.3,0.5,0.6,0.5,1
					c0,0.4-0.2,0.8-0.5,1c-0.3,0.3-0.7,0.4-1.1,0.4s-0.8-0.1-1.1-0.4C105.1,115.9,104.9,115.6,104.9,115.2z M105.1,119.4h2.8V131
					h-2.8V119.4z"/>
				<path class="st2" d="M113.7,131v-9.3h-2.1v-2.4h2.1v-4.9c0-1.7,0.4-3,1.2-3.9s2-1.3,3.6-1.3c0.4,0,0.9,0.1,1.4,0.2
					c0.5,0.1,0.9,0.3,1.3,0.6l-1.2,1.9c-0.2-0.2-0.3-0.3-0.6-0.3c-0.2-0.1-0.4-0.1-0.7-0.1c-0.7,0-1.3,0.2-1.7,0.7
					c-0.4,0.5-0.6,1.3-0.6,2.4v4.8h3.5v2.4h-3.5v9.3H113.7z M122.2,115.2c0-0.4,0.2-0.8,0.5-1.1c0.3-0.3,0.7-0.4,1.1-0.4
					c0.4,0,0.8,0.1,1.1,0.4c0.3,0.3,0.5,0.6,0.5,1c0,0.4-0.2,0.8-0.5,1.1c-0.3,0.3-0.7,0.4-1.1,0.4c-0.4,0-0.8-0.1-1.1-0.4
					C122.3,116,122.2,115.6,122.2,115.2z M122.3,119.4h2.8V131h-2.8V119.4z"/>
				<path class="st2" d="M139.9,129.9c-0.6,0.4-1.2,0.8-2,1c-0.8,0.2-1.5,0.4-2.3,0.4c-1.3,0-2.5-0.3-3.5-0.8s-1.8-1.2-2.4-2.1
					c-0.6-0.9-0.9-2-0.9-3.2c0-1.2,0.3-2.3,0.9-3.2c0.6-0.9,1.4-1.6,2.4-2.1s2-0.7,3.2-0.7c1,0,1.8,0.1,2.6,0.4
					c0.8,0.3,1.5,0.6,2,1.1l-1.4,1.7c-0.3-0.2-0.8-0.5-1.3-0.7c-0.5-0.2-1.1-0.3-1.7-0.3c-0.7,0-1.4,0.2-2,0.5
					c-0.6,0.3-1.1,0.8-1.4,1.4c-0.3,0.6-0.5,1.3-0.5,2c0,0.7,0.2,1.4,0.5,2c0.4,0.6,0.9,1.1,1.5,1.4c0.6,0.4,1.4,0.5,2.2,0.5
					c0.5,0,1-0.1,1.4-0.2c0.4-0.1,0.8-0.4,1.2-0.6L139.9,129.9z"/>
				<path class="st2" d="M142.3,125.1c0-1.2,0.3-2.2,0.9-3.1c0.6-0.9,1.4-1.7,2.4-2.2s2.2-0.8,3.5-0.8c1.3,0,2.5,0.3,3.5,0.8
					c1,0.5,1.8,1.3,2.4,2.2c0.6,0.9,0.8,2,0.8,3.1c0,1.2-0.3,2.2-0.8,3.1c-0.6,0.9-1.4,1.7-2.4,2.2c-1,0.6-2.2,0.8-3.5,0.8
					c-1.3,0-2.5-0.3-3.5-0.8c-1-0.5-1.8-1.2-2.4-2.2S142.3,126.3,142.3,125.1z M145.1,125.1c0,0.7,0.2,1.4,0.5,2
					c0.4,0.6,0.8,1.1,1.4,1.4c0.6,0.4,1.3,0.5,2,0.5c0.8,0,1.5-0.2,2-0.5c0.6-0.4,1.1-0.8,1.4-1.4c0.3-0.6,0.5-1.3,0.5-2
					s-0.2-1.4-0.5-2c-0.3-0.6-0.8-1.1-1.4-1.5c-0.6-0.4-1.3-0.5-2-0.5c-0.8,0-1.4,0.2-2,0.6c-0.6,0.4-1.1,0.9-1.4,1.5
					S145.1,124.4,145.1,125.1z"/>
				<path class="st2" d="M158.7,128.4c0.3-0.3,0.7-0.4,1.1-0.4c0.4,0,0.7,0.1,1,0.4c0.3,0.3,0.5,0.7,0.5,1.1c0,0.4-0.2,0.8-0.5,1.1
					c-0.3,0.3-0.7,0.4-1,0.4c-0.4,0-0.8-0.1-1.1-0.4c-0.3-0.3-0.5-0.6-0.5-1.1C158.2,129.1,158.4,128.7,158.7,128.4z"/>
			</g>
		</g>
		<g>
			<g class="st1">
				<path class="st2" d="M174.3,131l9.3-21.1h0.2l9.4,21.1h-3.3l-7-16.8l2-1.3l-7.8,18.1H174.3z M179.8,123.3h8l0.9,2.4H179
					L179.8,123.3z"/>
			</g>
		</g>
		<g>
			<g class="st1">
				<path class="st2" d="M197.6,131v-9.3h-2.1v-2.4h2.1v-4.9c0-1.7,0.4-3,1.2-3.9s2-1.3,3.6-1.3c0.4,0,0.9,0.1,1.4,0.2
					c0.5,0.1,0.9,0.3,1.3,0.6l-1.2,1.9c-0.2-0.2-0.3-0.3-0.6-0.3c-0.2-0.1-0.4-0.1-0.7-0.1c-0.7,0-1.3,0.2-1.7,0.7
					c-0.4,0.5-0.6,1.3-0.6,2.4v4.8h3.9v2.4h-3.9v9.3H197.6z M206.7,131v-9.3h-2.1v-2.4h2.1v-4.9c0-1.7,0.4-3,1.2-3.9s2-1.3,3.6-1.3
					c0.4,0,0.9,0.1,1.4,0.2c0.5,0.1,0.9,0.3,1.3,0.6l-1.2,1.9c-0.2-0.2-0.3-0.3-0.6-0.3c-0.2-0.1-0.4-0.1-0.7-0.1
					c-0.7,0-1.3,0.2-1.7,0.7c-0.4,0.5-0.6,1.3-0.6,2.4v4.8h3.9v2.4h-3.9v9.3H206.7z"/>
				<path class="st2" d="M219.2,119.4l0.3,3.4l-0.1-0.5c0.3-0.7,0.8-1.3,1.4-1.8c0.6-0.5,1.2-0.9,1.9-1.1c0.7-0.3,1.2-0.4,1.7-0.4
					l-0.1,2.6c-0.9-0.1-1.8,0.1-2.5,0.5c-0.7,0.4-1.3,0.9-1.7,1.6c-0.4,0.6-0.6,1.3-0.6,2.1v5.3h-2.8v-11.6H219.2z"/>
				<path class="st2" d="M226.8,125.1c0-1.2,0.3-2.2,0.9-3.1c0.6-0.9,1.4-1.7,2.4-2.2s2.2-0.8,3.5-0.8c1.3,0,2.5,0.3,3.5,0.8
					c1,0.5,1.8,1.3,2.4,2.2c0.6,0.9,0.8,2,0.8,3.1c0,1.2-0.3,2.2-0.8,3.1c-0.6,0.9-1.4,1.7-2.4,2.2c-1,0.6-2.2,0.8-3.5,0.8
					c-1.3,0-2.5-0.3-3.5-0.8c-1-0.5-1.8-1.2-2.4-2.2S226.8,126.3,226.8,125.1z M229.6,125.1c0,0.7,0.2,1.4,0.5,2
					c0.4,0.6,0.8,1.1,1.4,1.4c0.6,0.4,1.3,0.5,2,0.5c0.8,0,1.5-0.2,2-0.5c0.6-0.4,1.1-0.8,1.4-1.4c0.3-0.6,0.5-1.3,0.5-2
					s-0.2-1.4-0.5-2c-0.3-0.6-0.8-1.1-1.4-1.5c-0.6-0.4-1.3-0.5-2-0.5c-0.8,0-1.4,0.2-2,0.6c-0.6,0.4-1.1,0.9-1.4,1.5
					S229.6,124.4,229.6,125.1z"/>
				<path class="st2" d="M246.6,119.4l0.2,2.8l-0.1-0.4c0.4-0.9,1-1.5,1.9-2.1c0.9-0.5,1.9-0.8,3.1-0.8c1.1,0,2.1,0.3,2.8,1
					c0.7,0.6,1.1,1.5,1.1,2.5v8.6h-2.8v-7.7c0-0.6-0.2-1.1-0.6-1.5c-0.4-0.4-0.9-0.6-1.7-0.6c-0.7,0-1.3,0.2-1.9,0.6
					c-0.6,0.4-1,0.9-1.4,1.5c-0.3,0.7-0.5,1.4-0.5,2.3v5.4h-2.8v-11.6H246.6z"/>
				<path class="st2" d="M261.7,114.3h2.8v5.2h3.4v2h-3.4v9.5h-2.8v-9.5h-2.2v-2h2.2V114.3z"/>
				<path class="st2" d="M276.3,131.2c-1.1,0-2.2-0.2-3.1-0.7c-0.9-0.5-1.7-1.2-2.2-2.1c-0.6-0.9-0.8-2-0.8-3.3s0.3-2.4,0.9-3.4
					c0.6-0.9,1.3-1.7,2.3-2.2s2-0.8,3.2-0.8s2.1,0.2,2.9,0.7c0.8,0.5,1.4,1.1,1.8,1.8l-0.2,0.4l0.3-2.4h2.6V131h-2.8v-3l0.3,0.7
					c-0.1,0.2-0.3,0.4-0.6,0.7c-0.3,0.3-0.6,0.6-1.1,0.9c-0.4,0.3-0.9,0.5-1.5,0.7C277.7,131.1,277,131.2,276.3,131.2z M277.1,129.1
					c0.7,0,1.3-0.1,1.9-0.4c0.6-0.2,1-0.6,1.4-1c0.4-0.4,0.6-1,0.8-1.6v-2.3c-0.2-0.6-0.4-1.1-0.8-1.5c-0.4-0.4-0.9-0.7-1.4-1
					c-0.6-0.2-1.2-0.4-1.8-0.4c-0.8,0-1.4,0.2-2,0.5c-0.6,0.3-1.1,0.8-1.5,1.4c-0.4,0.6-0.5,1.3-0.5,2.1c0,0.7,0.2,1.4,0.6,2
					c0.4,0.6,0.9,1.1,1.5,1.5C275.6,128.9,276.3,129.1,277.1,129.1z"/>
				<path class="st2" d="M298,109.3h2.8V131H298V109.3z"/>
				<path class="st2" d="M304.2,114.5c0.4-0.4,0.7-0.9,1-1.5c0.2-0.7,0.3-1.3,0.1-2l2.3-0.2c0.1,0.5,0.1,1-0.1,1.6
					c-0.2,0.6-0.4,1.1-0.7,1.6c-0.3,0.5-0.7,0.9-1.2,1.1L304.2,114.5z"/>
				<path class="st2" d="M316.8,131.2c-1.4,0-2.6-0.3-3.6-0.8c-1-0.5-1.8-1.3-2.3-2.2c-0.6-0.9-0.8-2-0.8-3.2c0-1.1,0.3-2.2,0.9-3.1
					c0.6-0.9,1.4-1.7,2.5-2.2c1-0.6,2.2-0.8,3.4-0.8c1.6,0,3,0.4,4,1.3s1.8,2.1,2.2,3.7l-10.2,3.4l-0.7-1.5l8.3-2.9l-0.6,0.4
					c-0.2-0.6-0.6-1.1-1.2-1.6c-0.6-0.4-1.3-0.7-2.2-0.7c-0.8,0-1.4,0.2-2,0.5c-0.6,0.3-1,0.8-1.4,1.4c-0.3,0.6-0.5,1.3-0.5,2.1
					s0.2,1.5,0.5,2.1c0.3,0.6,0.8,1.1,1.5,1.4c0.6,0.3,1.3,0.5,2.1,0.5c0.5,0,1.1-0.1,1.6-0.3c0.5-0.2,1-0.4,1.4-0.7l1.2,1.9
					c-0.6,0.4-1.3,0.7-2.1,1C318.2,131.1,317.5,131.2,316.8,131.2z"/>
				<path class="st2" d="M329.9,131.2c-0.9,0-1.7-0.1-2.5-0.4c-0.8-0.3-1.5-0.7-2-1.3l1.2-1.5c0.5,0.5,1.1,0.8,1.6,1
					c0.5,0.2,1.1,0.4,1.6,0.4c0.4,0,0.8,0,1.1-0.1c0.3-0.1,0.6-0.3,0.8-0.5c0.2-0.2,0.3-0.5,0.3-0.9c0-0.4-0.1-0.8-0.4-1
					c-0.3-0.2-0.6-0.4-1.1-0.6c-0.4-0.1-0.9-0.3-1.4-0.4c-1-0.3-1.8-0.8-2.3-1.3c-0.5-0.6-0.8-1.2-0.8-2c0-0.6,0.2-1.2,0.5-1.7
					c0.3-0.5,0.8-1,1.5-1.3c0.7-0.3,1.4-0.5,2.4-0.5c0.9,0,1.6,0.1,2.3,0.3c0.7,0.2,1.3,0.5,1.9,1l-1.1,1.6
					c-0.4-0.4-0.8-0.6-1.3-0.8c-0.5-0.2-0.9-0.3-1.3-0.3c-0.4,0-0.7,0.1-1,0.2c-0.3,0.1-0.6,0.3-0.7,0.4c-0.2,0.2-0.3,0.4-0.3,0.7
					c0,0.4,0.1,0.7,0.4,0.9c0.3,0.2,0.6,0.4,1.1,0.6c0.4,0.1,0.9,0.3,1.3,0.4c0.6,0.2,1.1,0.4,1.6,0.7c0.5,0.3,0.9,0.6,1.1,1
					c0.3,0.4,0.4,0.9,0.4,1.5c0,0.7-0.2,1.3-0.5,1.9c-0.3,0.6-0.9,1.1-1.6,1.4C331.9,131,331,131.2,329.9,131.2z"/>
				<path class="st2" d="M343.7,131.2c-1.1,0-2.2-0.2-3.1-0.7c-0.9-0.5-1.7-1.2-2.2-2.1c-0.6-0.9-0.8-2-0.8-3.3s0.3-2.4,0.9-3.4
					c0.6-0.9,1.3-1.7,2.3-2.2s2-0.8,3.2-0.8s2.1,0.2,2.9,0.7c0.8,0.5,1.4,1.1,1.8,1.8l-0.2,0.4l0.3-2.4h2.6V131h-2.8v-3l0.3,0.7
					c-0.1,0.2-0.3,0.4-0.6,0.7c-0.3,0.3-0.6,0.6-1.1,0.9c-0.4,0.3-0.9,0.5-1.5,0.7C345.1,131.1,344.4,131.2,343.7,131.2z
					 M344.4,129.1c0.7,0,1.3-0.1,1.9-0.4c0.6-0.2,1-0.6,1.4-1c0.4-0.4,0.6-1,0.8-1.6v-2.3c-0.2-0.6-0.4-1.1-0.8-1.5
					c-0.4-0.4-0.9-0.7-1.4-1s-1.2-0.4-1.8-0.4c-0.8,0-1.4,0.2-2,0.5c-0.6,0.3-1.1,0.8-1.5,1.4c-0.4,0.6-0.5,1.3-0.5,2.1
					c0,0.7,0.2,1.4,0.6,2c0.4,0.6,0.9,1.1,1.5,1.5C343,128.9,343.7,129.1,344.4,129.1z"/>
				<path class="st2" d="M358.5,119.4l0.2,2.6l-0.1-0.2c0.5-0.9,1.1-1.6,1.9-2.1c0.8-0.5,1.8-0.8,2.9-0.8c0.7,0,1.3,0.1,1.8,0.3
					c0.5,0.2,1,0.5,1.3,0.9c0.3,0.4,0.6,0.8,0.7,1.4l-0.1,0.1c0.5-0.9,1.1-1.5,2-2c0.8-0.5,1.7-0.7,2.7-0.7c1.2,0,2.2,0.3,2.9,1
					c0.7,0.7,1.1,1.5,1.1,2.5v8.6h-2.8v-7.6c0-0.6-0.2-1.1-0.5-1.5c-0.3-0.4-0.8-0.6-1.5-0.6c-0.7,0-1.4,0.2-1.9,0.6
					c-0.6,0.4-1,0.9-1.3,1.6s-0.5,1.3-0.5,2.1v5.5h-2.8v-7.6c0-0.6-0.2-1.1-0.5-1.5c-0.3-0.4-0.8-0.6-1.5-0.6
					c-0.7,0-1.3,0.2-1.9,0.6c-0.6,0.4-1,0.9-1.3,1.6c-0.3,0.7-0.5,1.4-0.5,2.1v5.5H356v-11.6H358.5z"/>
				<path class="st2" d="M386.2,131.2c-1.4,0-2.6-0.3-3.6-0.8c-1-0.5-1.8-1.3-2.3-2.2c-0.6-0.9-0.8-2-0.8-3.2c0-1.1,0.3-2.2,0.9-3.1
					c0.6-0.9,1.4-1.7,2.5-2.2c1-0.6,2.2-0.8,3.4-0.8c1.6,0,3,0.4,4,1.3s1.8,2.1,2.2,3.7l-10.2,3.4l-0.7-1.5l8.3-2.9l-0.6,0.4
					c-0.2-0.6-0.6-1.1-1.2-1.6c-0.6-0.4-1.3-0.7-2.2-0.7c-0.8,0-1.4,0.2-2,0.5c-0.6,0.3-1,0.8-1.4,1.4c-0.3,0.6-0.5,1.3-0.5,2.1
					s0.2,1.5,0.5,2.1c0.3,0.6,0.8,1.1,1.5,1.4c0.6,0.3,1.3,0.5,2.1,0.5c0.5,0,1.1-0.1,1.6-0.3c0.5-0.2,1-0.4,1.4-0.7l1.2,1.9
					c-0.6,0.4-1.3,0.7-2.1,1C387.7,131.1,386.9,131.2,386.2,131.2z"/>
				<path class="st2" d="M410.3,131.2c-1.1,0-2.2-0.3-3.1-0.8s-1.6-1.2-2.2-2.2c-0.5-0.9-0.8-2-0.8-3.3c0-1.3,0.3-2.4,0.9-3.3
					c0.6-0.9,1.3-1.6,2.3-2.1s2.1-0.7,3.3-0.7c1,0,1.9,0.2,2.8,0.6c0.9,0.4,1.6,0.9,2.1,1.6l-0.1,0.9v-12.7h2.8V131h-2.8v-2.9
					l0.3,0.7c-0.6,0.7-1.4,1.3-2.3,1.8C412.5,131,411.4,131.2,410.3,131.2z M411.2,129c0.7,0,1.4-0.1,1.9-0.4c0.6-0.3,1-0.6,1.4-1
					c0.4-0.4,0.7-1,0.8-1.6v-2.2c-0.2-0.6-0.4-1.1-0.8-1.5c-0.4-0.4-0.9-0.8-1.5-1c-0.6-0.2-1.2-0.3-1.9-0.3c-0.7,0-1.4,0.2-2,0.5
					c-0.6,0.3-1.1,0.8-1.5,1.4c-0.4,0.6-0.6,1.3-0.6,2.1c0,0.8,0.2,1.5,0.6,2.1c0.4,0.6,0.9,1.1,1.5,1.5
					C409.7,128.8,410.4,129,411.2,129z"/>
				<path class="st2" d="M422.7,115.2c0-0.4,0.2-0.8,0.5-1c0.3-0.3,0.7-0.4,1.1-0.4s0.8,0.1,1.1,0.4c0.3,0.3,0.5,0.6,0.5,1
					c0,0.4-0.2,0.8-0.5,1c-0.3,0.3-0.7,0.4-1.1,0.4s-0.8-0.1-1.1-0.4C422.9,115.9,422.7,115.6,422.7,115.2z M422.9,119.4h2.8V131
					h-2.8V119.4z"/>
				<path class="st2" d="M443.3,131.2c-0.9,0-1.7-0.1-2.5-0.4c-0.8-0.3-1.5-0.7-2-1.3l1.2-1.5c0.5,0.5,1.1,0.8,1.6,1
					c0.5,0.2,1.1,0.4,1.6,0.4c0.4,0,0.8,0,1.1-0.1c0.3-0.1,0.6-0.3,0.8-0.5c0.2-0.2,0.3-0.5,0.3-0.9c0-0.4-0.1-0.8-0.4-1
					c-0.3-0.2-0.6-0.4-1.1-0.6c-0.4-0.1-0.9-0.3-1.4-0.4c-1-0.3-1.8-0.8-2.3-1.3c-0.5-0.6-0.8-1.2-0.8-2c0-0.6,0.2-1.2,0.5-1.7
					c0.3-0.5,0.8-1,1.5-1.3c0.7-0.3,1.4-0.5,2.4-0.5c0.9,0,1.6,0.1,2.3,0.3c0.7,0.2,1.3,0.5,1.9,1l-1.1,1.6
					c-0.4-0.4-0.8-0.6-1.3-0.8c-0.5-0.2-0.9-0.3-1.3-0.3c-0.4,0-0.7,0.1-1,0.2c-0.3,0.1-0.6,0.3-0.7,0.4c-0.2,0.2-0.3,0.4-0.3,0.7
					c0,0.4,0.1,0.7,0.4,0.9c0.3,0.2,0.6,0.4,1.1,0.6c0.4,0.1,0.9,0.3,1.3,0.4c0.6,0.2,1.1,0.4,1.6,0.7c0.5,0.3,0.9,0.6,1.1,1
					c0.3,0.4,0.4,0.9,0.4,1.5c0,0.7-0.2,1.3-0.5,1.9c-0.3,0.6-0.9,1.1-1.6,1.4C445.3,131,444.4,131.2,443.3,131.2z"/>
				<path class="st2" d="M453.1,114.3h2.8v5.2h3.4v2h-3.4v9.5h-2.8v-9.5h-2.2v-2h2.2V114.3z"/>
				<path class="st2" d="M467.7,131.2c-1.1,0-2.2-0.2-3.1-0.7c-0.9-0.5-1.7-1.2-2.2-2.1c-0.6-0.9-0.8-2-0.8-3.3s0.3-2.4,0.9-3.4
					c0.6-0.9,1.3-1.7,2.3-2.2s2-0.8,3.2-0.8s2.1,0.2,2.9,0.7c0.8,0.5,1.4,1.1,1.8,1.8l-0.2,0.4l0.3-2.4h2.6V131h-2.8v-3l0.3,0.7
					c-0.1,0.2-0.3,0.4-0.6,0.7c-0.3,0.3-0.6,0.6-1.1,0.9c-0.4,0.3-0.9,0.5-1.5,0.7C469.1,131.1,468.5,131.2,467.7,131.2z
					 M468.5,129.1c0.7,0,1.3-0.1,1.9-0.4c0.6-0.2,1-0.6,1.4-1c0.4-0.4,0.6-1,0.8-1.6v-2.3c-0.2-0.6-0.4-1.1-0.8-1.5
					c-0.4-0.4-0.9-0.7-1.4-1s-1.2-0.4-1.8-0.4c-0.8,0-1.4,0.2-2,0.5c-0.6,0.3-1.1,0.8-1.5,1.4c-0.4,0.6-0.5,1.3-0.5,2.1
					c0,0.7,0.2,1.4,0.6,2c0.4,0.6,0.9,1.1,1.5,1.5C467,128.9,467.7,129.1,468.5,129.1z"/>
				<path class="st2" d="M481.2,114.3h2.8v5.2h3.4v2H484v9.5h-2.8v-9.5H479v-2h2.2V114.3z"/>
				<path class="st2" d="M489.6,125.1c0-1.2,0.3-2.2,0.9-3.1c0.6-0.9,1.4-1.7,2.4-2.2s2.2-0.8,3.5-0.8c1.3,0,2.5,0.3,3.5,0.8
					c1,0.5,1.8,1.3,2.4,2.2c0.6,0.9,0.8,2,0.8,3.1c0,1.2-0.3,2.2-0.8,3.1c-0.6,0.9-1.3,1.7-2.4,2.2c-1,0.6-2.2,0.8-3.5,0.8
					c-1.3,0-2.5-0.3-3.5-0.8c-1-0.5-1.8-1.2-2.4-2.2S489.6,126.3,489.6,125.1z M492.4,125.1c0,0.7,0.2,1.4,0.5,2
					c0.4,0.6,0.8,1.1,1.4,1.4c0.6,0.4,1.3,0.5,2,0.5c0.8,0,1.5-0.2,2-0.5c0.6-0.4,1.1-0.8,1.4-1.4c0.3-0.6,0.5-1.3,0.5-2
					s-0.2-1.4-0.5-2c-0.3-0.6-0.8-1.1-1.4-1.5c-0.6-0.4-1.3-0.5-2-0.5c-0.8,0-1.4,0.2-2,0.6c-0.6,0.4-1.1,0.9-1.4,1.5
					C492.6,123.7,492.4,124.4,492.4,125.1z"/>
				<path class="st2" d="M526.2,129.9c-0.6,0.4-1.2,0.8-2,1c-0.8,0.2-1.5,0.4-2.3,0.4c-1.3,0-2.5-0.3-3.5-0.8s-1.8-1.2-2.4-2.1
					c-0.6-0.9-0.9-2-0.9-3.2c0-1.2,0.3-2.3,0.9-3.2s1.4-1.6,2.4-2.1s2-0.7,3.2-0.7c1,0,1.8,0.1,2.6,0.4c0.8,0.3,1.5,0.6,2,1.1
					l-1.4,1.7c-0.3-0.2-0.8-0.5-1.3-0.7c-0.5-0.2-1.1-0.3-1.7-0.3c-0.7,0-1.4,0.2-2,0.5c-0.6,0.3-1.1,0.8-1.4,1.4
					c-0.3,0.6-0.5,1.3-0.5,2c0,0.7,0.2,1.4,0.5,2c0.4,0.6,0.9,1.1,1.5,1.4c0.6,0.4,1.4,0.5,2.2,0.5c0.5,0,1-0.1,1.4-0.2
					c0.4-0.1,0.8-0.4,1.2-0.6L526.2,129.9z"/>
				<path class="st2" d="M528.7,125.1c0-1.2,0.3-2.2,0.9-3.1c0.6-0.9,1.4-1.7,2.4-2.2s2.2-0.8,3.5-0.8c1.3,0,2.5,0.3,3.5,0.8
					c1,0.5,1.8,1.3,2.4,2.2c0.6,0.9,0.8,2,0.8,3.1c0,1.2-0.3,2.2-0.8,3.1c-0.6,0.9-1.3,1.7-2.4,2.2c-1,0.6-2.2,0.8-3.5,0.8
					c-1.3,0-2.5-0.3-3.5-0.8c-1-0.5-1.8-1.2-2.4-2.2S528.7,126.3,528.7,125.1z M531.5,125.1c0,0.7,0.2,1.4,0.5,2
					c0.4,0.6,0.8,1.1,1.4,1.4c0.6,0.4,1.3,0.5,2,0.5c0.8,0,1.5-0.2,2-0.5c0.6-0.4,1.1-0.8,1.4-1.4c0.3-0.6,0.5-1.3,0.5-2
					s-0.2-1.4-0.5-2c-0.3-0.6-0.8-1.1-1.4-1.5c-0.6-0.4-1.3-0.5-2-0.5c-0.8,0-1.4,0.2-2,0.6c-0.6,0.4-1.1,0.9-1.4,1.5
					C531.7,123.7,531.5,124.4,531.5,125.1z"/>
				<path class="st2" d="M548.5,119.4l0.2,2.8l-0.1-0.4c0.4-0.9,1-1.5,1.9-2.1c0.9-0.5,1.9-0.8,3.1-0.8c1.1,0,2.1,0.3,2.8,1
					c0.7,0.6,1.1,1.5,1.1,2.5v8.6h-2.8v-7.7c0-0.6-0.2-1.1-0.6-1.5c-0.4-0.4-0.9-0.6-1.7-0.6c-0.7,0-1.3,0.2-1.9,0.6
					c-0.6,0.4-1,0.9-1.4,1.5c-0.3,0.7-0.5,1.4-0.5,2.3v5.4H546v-11.6H548.5z"/>
			</g>
		</g>
		<g>
			<g class="st1">
				<path class="st2" d="M29.2,149.2c0-0.4,0.2-0.8,0.5-1c0.3-0.3,0.7-0.4,1.1-0.4s0.8,0.1,1.1,0.4c0.3,0.3,0.5,0.6,0.5,1
					c0,0.4-0.2,0.8-0.5,1c-0.3,0.3-0.7,0.4-1.1,0.4s-0.8-0.1-1.1-0.4C29.4,150,29.2,149.6,29.2,149.2z M29.4,153.4h2.8V165h-2.8
					V153.4z"/>
				<path class="st2" d="M39.5,153.4l0.2,2.6l-0.1-0.2c0.5-0.9,1.1-1.6,1.9-2.1c0.8-0.5,1.8-0.8,2.9-0.8c0.7,0,1.3,0.1,1.8,0.3
					c0.5,0.2,1,0.5,1.3,0.9s0.6,0.8,0.7,1.4l-0.1,0.1c0.5-0.9,1.1-1.5,2-2c0.8-0.5,1.7-0.7,2.7-0.7c1.2,0,2.2,0.3,2.9,1
					c0.7,0.7,1.1,1.5,1.1,2.5v8.6h-2.8v-7.6c0-0.6-0.2-1.1-0.5-1.5c-0.3-0.4-0.8-0.6-1.5-0.6c-0.7,0-1.4,0.2-1.9,0.6
					c-0.6,0.4-1,0.9-1.3,1.6c-0.3,0.6-0.5,1.3-0.5,2.1v5.5h-2.8v-7.6c0-0.6-0.2-1.1-0.5-1.5c-0.3-0.4-0.8-0.6-1.5-0.6
					c-0.7,0-1.3,0.2-1.9,0.6c-0.6,0.4-1,0.9-1.3,1.6c-0.3,0.7-0.5,1.4-0.5,2.1v5.5h-2.8v-11.6H39.5z"/>
				<path class="st2" d="M68.7,165.3c-0.9,0-1.8-0.2-2.7-0.6s-1.5-1-2-1.7l0.1-0.8v8.4h-2.8v-17.3h2.4l0.4,3l-0.3-0.8
					c0.6-0.7,1.3-1.3,2.3-1.8c0.9-0.5,1.9-0.7,3.1-0.7c1.1,0,2.2,0.3,3.1,0.8s1.6,1.2,2.2,2.2s0.8,2,0.8,3.3c0,1.2-0.3,2.3-0.9,3.2
					c-0.6,0.9-1.4,1.6-2.4,2.1C71.1,165,70,165.3,68.7,165.3z M68.2,163.2c0.8,0,1.5-0.2,2.2-0.5c0.7-0.3,1.2-0.8,1.6-1.4
					c0.4-0.6,0.6-1.3,0.6-2.1c0-0.8-0.2-1.5-0.6-2.1c-0.4-0.6-0.9-1.1-1.5-1.4c-0.6-0.3-1.3-0.5-2.1-0.5c-0.7,0-1.4,0.1-1.9,0.4
					s-1,0.6-1.4,1c-0.4,0.4-0.6,1-0.8,1.6v2c0.1,0.6,0.3,1.1,0.7,1.5c0.4,0.5,0.8,0.8,1.4,1.1S67.5,163.2,68.2,163.2z"/>
				<path class="st2" d="M84.8,165.3c-1.4,0-2.6-0.3-3.6-0.8c-1-0.5-1.8-1.3-2.3-2.2c-0.6-0.9-0.8-2-0.8-3.2c0-1.1,0.3-2.2,0.9-3.1
					c0.6-0.9,1.4-1.7,2.5-2.2c1-0.6,2.2-0.8,3.4-0.8c1.6,0,3,0.4,4,1.3c1.1,0.9,1.8,2.1,2.2,3.7l-10.2,3.4l-0.7-1.5l8.3-2.9
					l-0.6,0.4c-0.2-0.6-0.6-1.1-1.2-1.6c-0.6-0.4-1.3-0.7-2.2-0.7c-0.8,0-1.4,0.2-2,0.5s-1,0.8-1.4,1.4c-0.3,0.6-0.5,1.3-0.5,2.1
					s0.2,1.5,0.5,2.1c0.3,0.6,0.8,1.1,1.5,1.4c0.6,0.3,1.3,0.5,2.1,0.5c0.5,0,1.1-0.1,1.6-0.3c0.5-0.2,1-0.4,1.4-0.7l1.2,1.9
					c-0.6,0.4-1.3,0.7-2.1,1S85.5,165.3,84.8,165.3z"/>
				<path class="st2" d="M100.4,170.7c-0.9,0-1.7-0.1-2.4-0.3c-0.7-0.2-1.3-0.5-1.9-0.8c-0.6-0.4-1.1-0.7-1.6-1.2l1.6-1.8
					c0.7,0.6,1.3,1,2,1.3c0.7,0.3,1.4,0.5,2.3,0.5c0.9,0,1.7-0.1,2.4-0.4c0.6-0.3,1.1-0.7,1.5-1.2s0.5-1.1,0.5-1.8l0-3.1l0.2,0.5
					c-0.4,0.8-1,1.5-1.9,2c-0.9,0.5-2.1,0.8-3.4,0.8c-1.1,0-2.1-0.3-3.1-0.8s-1.7-1.3-2.3-2.2c-0.6-0.9-0.9-2-0.9-3.1
					c0-1.2,0.3-2.3,0.9-3.2s1.4-1.7,2.4-2.2c1-0.5,2-0.8,3.2-0.8c1.1,0,2.1,0.2,3,0.6c0.9,0.4,1.6,1,2,1.6l-0.2,0.5l0.3-2.2h2.6
					v11.7c0,1-0.3,2-0.8,2.9s-1.4,1.5-2.4,2.1C103.1,170.5,101.9,170.7,100.4,170.7z M96.2,159.1c0,0.7,0.2,1.4,0.6,2
					c0.4,0.6,0.9,1.1,1.5,1.5c0.6,0.4,1.4,0.5,2.1,0.5c0.7,0,1.4-0.1,2-0.4c0.6-0.3,1.1-0.6,1.5-1c0.4-0.4,0.7-0.9,0.8-1.5v-2.3
					c-0.2-0.6-0.5-1-0.9-1.5s-0.9-0.7-1.5-1c-0.6-0.2-1.2-0.4-1.9-0.4c-0.8,0-1.5,0.2-2.1,0.5c-0.6,0.3-1.2,0.8-1.5,1.4
					C96.4,157.6,96.2,158.3,96.2,159.1z"/>
				<path class="st2" d="M114.8,153.4l0.2,2.8l-0.1-0.4c0.4-0.9,1-1.5,1.9-2.1c0.9-0.5,1.9-0.8,3.1-0.8c1.1,0,2.1,0.3,2.8,1
					c0.7,0.6,1.1,1.5,1.1,2.5v8.6h-2.8v-7.7c0-0.6-0.2-1.1-0.6-1.5s-0.9-0.6-1.7-0.6c-0.7,0-1.3,0.2-1.9,0.6c-0.6,0.4-1,0.9-1.4,1.5
					c-0.3,0.7-0.5,1.4-0.5,2.3v5.4h-2.8v-11.6H114.8z"/>
				<path class="st2" d="M127.6,159.1c0-1.2,0.3-2.2,0.9-3.1c0.6-0.9,1.4-1.7,2.4-2.2c1-0.5,2.2-0.8,3.5-0.8c1.3,0,2.5,0.3,3.5,0.8
					c1,0.5,1.8,1.3,2.4,2.2s0.8,2,0.8,3.1c0,1.2-0.3,2.2-0.8,3.1s-1.4,1.7-2.4,2.2c-1,0.5-2.2,0.8-3.5,0.8c-1.3,0-2.5-0.3-3.5-0.8
					c-1-0.5-1.8-1.2-2.4-2.2S127.6,160.3,127.6,159.1z M130.4,159.1c0,0.7,0.2,1.4,0.5,2c0.4,0.6,0.8,1.1,1.4,1.4
					c0.6,0.4,1.3,0.5,2,0.5c0.8,0,1.5-0.2,2-0.5c0.6-0.4,1.1-0.8,1.4-1.4c0.3-0.6,0.5-1.3,0.5-2c0-0.7-0.2-1.4-0.5-2
					c-0.3-0.6-0.8-1.1-1.4-1.5c-0.6-0.4-1.3-0.5-2-0.5c-0.8,0-1.4,0.2-2,0.6c-0.6,0.4-1.1,0.9-1.4,1.5
					C130.5,157.7,130.4,158.4,130.4,159.1z"/>
				<path class="st2" d="M147.4,162.5c-0.4,1-0.9,2-1.3,2.9c-0.4,1-0.9,1.9-1.3,3h-2.3c0.4-1,0.8-2,1.2-3c0.4-1,0.8-1.9,1.1-2.9
					H147.4z"/>
				<path class="st2" d="M159.2,159.1c0-1.2,0.3-2.2,0.9-3.1c0.6-0.9,1.4-1.7,2.4-2.2c1-0.5,2.2-0.8,3.5-0.8c1.3,0,2.5,0.3,3.5,0.8
					c1,0.5,1.8,1.3,2.4,2.2s0.8,2,0.8,3.1c0,1.2-0.3,2.2-0.8,3.1s-1.4,1.7-2.4,2.2c-1,0.5-2.2,0.8-3.5,0.8c-1.3,0-2.5-0.3-3.5-0.8
					c-1-0.5-1.8-1.2-2.4-2.2S159.2,160.3,159.2,159.1z M162,159.1c0,0.7,0.2,1.4,0.5,2c0.4,0.6,0.8,1.1,1.4,1.4
					c0.6,0.4,1.3,0.5,2,0.5c0.8,0,1.5-0.2,2-0.5c0.6-0.4,1.1-0.8,1.4-1.4c0.3-0.6,0.5-1.3,0.5-2c0-0.7-0.2-1.4-0.5-2
					c-0.3-0.6-0.8-1.1-1.4-1.5c-0.6-0.4-1.3-0.5-2-0.5c-0.8,0-1.4,0.2-2,0.6c-0.6,0.4-1.1,0.9-1.4,1.5
					C162.1,157.7,162,158.4,162,159.1z"/>
				<path class="st2" d="M177.6,148.3h2.8v5.2h3.4v2h-3.4v9.5h-2.8v-9.5h-2.2v-2h2.2V148.3z"/>
				<path class="st2" d="M188.3,148.3h2.8v5.2h3.4v2h-3.4v9.5h-2.8v-9.5h-2.2v-2h2.2V148.3z"/>
				<path class="st2" d="M203.5,165.3c-1.4,0-2.6-0.3-3.6-0.8c-1-0.5-1.8-1.3-2.3-2.2c-0.6-0.9-0.8-2-0.8-3.2c0-1.1,0.3-2.2,0.9-3.1
					c0.6-0.9,1.4-1.7,2.5-2.2c1-0.6,2.2-0.8,3.4-0.8c1.6,0,3,0.4,4,1.3c1.1,0.9,1.8,2.1,2.2,3.7l-10.2,3.4l-0.7-1.5l8.3-2.9
					l-0.6,0.4c-0.2-0.6-0.6-1.1-1.2-1.6c-0.6-0.4-1.3-0.7-2.2-0.7c-0.8,0-1.4,0.2-2,0.5s-1,0.8-1.4,1.4c-0.3,0.6-0.5,1.3-0.5,2.1
					s0.2,1.5,0.5,2.1c0.3,0.6,0.8,1.1,1.5,1.4c0.6,0.3,1.3,0.5,2.1,0.5c0.5,0,1.1-0.1,1.6-0.3c0.5-0.2,1-0.4,1.4-0.7l1.2,1.9
					c-0.6,0.4-1.3,0.7-2.1,1S204.2,165.3,203.5,165.3z"/>
				<path class="st2" d="M215.7,153.4l0.2,2.8l-0.1-0.4c0.4-0.9,1-1.5,1.9-2.1c0.9-0.5,1.9-0.8,3.1-0.8c1.1,0,2.1,0.3,2.8,1
					c0.7,0.6,1.1,1.5,1.1,2.5v8.6h-2.8v-7.7c0-0.6-0.2-1.1-0.6-1.5s-0.9-0.6-1.7-0.6c-0.7,0-1.3,0.2-1.9,0.6c-0.6,0.4-1,0.9-1.4,1.5
					c-0.3,0.7-0.5,1.4-0.5,2.3v5.4h-2.8v-11.6H215.7z"/>
				<path class="st2" d="M235.4,165.3c-1.4,0-2.6-0.3-3.6-0.8c-1-0.5-1.8-1.3-2.3-2.2c-0.6-0.9-0.8-2-0.8-3.2c0-1.1,0.3-2.2,0.9-3.1
					c0.6-0.9,1.4-1.7,2.5-2.2c1-0.6,2.2-0.8,3.4-0.8c1.6,0,3,0.4,4,1.3c1.1,0.9,1.8,2.1,2.2,3.7l-10.2,3.4l-0.7-1.5l8.3-2.9
					l-0.6,0.4c-0.2-0.6-0.6-1.1-1.2-1.6c-0.6-0.4-1.3-0.7-2.2-0.7c-0.8,0-1.4,0.2-2,0.5s-1,0.8-1.4,1.4c-0.3,0.6-0.5,1.3-0.5,2.1
					s0.2,1.5,0.5,2.1c0.3,0.6,0.8,1.1,1.5,1.4c0.6,0.3,1.3,0.5,2.1,0.5c0.5,0,1.1-0.1,1.6-0.3c0.5-0.2,1-0.4,1.4-0.7l1.2,1.9
					c-0.6,0.4-1.3,0.7-2.1,1S236.1,165.3,235.4,165.3z"/>
				<path class="st2" d="M247.6,153.4l0.2,2.8l-0.1-0.4c0.4-0.9,1-1.5,1.9-2.1c0.9-0.5,1.9-0.8,3.1-0.8c1.1,0,2.1,0.3,2.8,1
					c0.7,0.6,1.1,1.5,1.1,2.5v8.6h-2.8v-7.7c0-0.6-0.2-1.1-0.6-1.5s-0.9-0.6-1.7-0.6c-0.7,0-1.3,0.2-1.9,0.6c-0.6,0.4-1,0.9-1.4,1.5
					c-0.3,0.7-0.5,1.4-0.5,2.3v5.4h-2.8v-11.6H247.6z"/>
				<path class="st2" d="M266.5,165.3c-1.1,0-2.2-0.3-3.1-0.8c-0.9-0.5-1.6-1.2-2.2-2.2c-0.5-0.9-0.8-2-0.8-3.3
					c0-1.3,0.3-2.4,0.9-3.3c0.6-0.9,1.3-1.6,2.3-2.1c1-0.5,2.1-0.7,3.3-0.7c1,0,1.9,0.2,2.8,0.6s1.6,0.9,2.1,1.6l-0.1,0.9v-12.7h2.8
					V165h-2.8v-2.9l0.3,0.7c-0.6,0.7-1.4,1.3-2.3,1.8C268.7,165,267.6,165.3,266.5,165.3z M267.3,163c0.7,0,1.4-0.1,1.9-0.4
					c0.6-0.3,1-0.6,1.4-1c0.4-0.4,0.7-1,0.8-1.6v-2.2c-0.2-0.6-0.4-1.1-0.8-1.5c-0.4-0.4-0.9-0.8-1.5-1s-1.2-0.3-1.9-0.3
					c-0.7,0-1.4,0.2-2,0.5c-0.6,0.3-1.1,0.8-1.5,1.4c-0.4,0.6-0.6,1.3-0.6,2.1c0,0.8,0.2,1.5,0.6,2.1c0.4,0.6,0.9,1.1,1.5,1.5
					C265.9,162.9,266.6,163,267.3,163z"/>
				<path class="st2" d="M278,159.1c0-1.2,0.3-2.2,0.9-3.1c0.6-0.9,1.4-1.7,2.4-2.2c1-0.5,2.2-0.8,3.5-0.8c1.3,0,2.5,0.3,3.5,0.8
					c1,0.5,1.8,1.3,2.4,2.2s0.8,2,0.8,3.1c0,1.2-0.3,2.2-0.8,3.1s-1.4,1.7-2.4,2.2c-1,0.5-2.2,0.8-3.5,0.8c-1.3,0-2.5-0.3-3.5-0.8
					c-1-0.5-1.8-1.2-2.4-2.2S278,160.3,278,159.1z M280.8,159.1c0,0.7,0.2,1.4,0.5,2c0.4,0.6,0.8,1.1,1.4,1.4c0.6,0.4,1.3,0.5,2,0.5
					c0.8,0,1.5-0.2,2-0.5c0.6-0.4,1.1-0.8,1.4-1.4c0.3-0.6,0.5-1.3,0.5-2c0-0.7-0.2-1.4-0.5-2c-0.3-0.6-0.8-1.1-1.4-1.5
					c-0.6-0.4-1.3-0.5-2-0.5c-0.8,0-1.4,0.2-2,0.6c-0.6,0.4-1.1,0.9-1.4,1.5C281,157.7,280.8,158.4,280.8,159.1z"/>
				<path class="st2" d="M308.6,165.4c-1.1,0-2.1-0.3-2.8-1c-0.7-0.6-1.1-1.5-1.1-2.5v-8.6h2.8v7.6c0,0.6,0.2,1.1,0.6,1.5
					c0.4,0.4,0.9,0.6,1.7,0.6c0.7,0,1.3-0.2,1.8-0.6s1-0.9,1.3-1.6c0.3-0.7,0.5-1.4,0.5-2.3v-5.4h2.8V165h-2.5l-0.2-2.9l0.2,0.5
					c-0.3,0.5-0.6,1-1.1,1.4s-1,0.8-1.7,1C310,165.3,309.3,165.4,308.6,165.4z"/>
				<path class="st2" d="M323.3,153.4l0.2,2.8l-0.1-0.4c0.4-0.9,1-1.5,1.9-2.1c0.9-0.5,1.9-0.8,3.1-0.8c1.1,0,2.1,0.3,2.8,1
					c0.7,0.6,1.1,1.5,1.1,2.5v8.6h-2.8v-7.7c0-0.6-0.2-1.1-0.6-1.5c-0.4-0.4-0.9-0.6-1.7-0.6c-0.7,0-1.3,0.2-1.9,0.6
					c-0.6,0.4-1,0.9-1.4,1.5c-0.3,0.7-0.5,1.4-0.5,2.3v5.4h-2.8v-11.6H323.3z"/>
				<path class="st2" d="M345.5,159.1c0-1.2,0.3-2.2,0.9-3.1c0.6-0.9,1.4-1.7,2.4-2.2c1-0.5,2.2-0.8,3.5-0.8c1.3,0,2.5,0.3,3.5,0.8
					c1,0.5,1.8,1.3,2.4,2.2c0.6,0.9,0.8,2,0.8,3.1c0,1.2-0.3,2.2-0.8,3.1c-0.6,0.9-1.3,1.7-2.4,2.2c-1,0.5-2.2,0.8-3.5,0.8
					c-1.3,0-2.5-0.3-3.5-0.8c-1-0.5-1.8-1.2-2.4-2.2S345.5,160.3,345.5,159.1z M348.3,159.1c0,0.7,0.2,1.4,0.5,2
					c0.4,0.6,0.8,1.1,1.4,1.4c0.6,0.4,1.3,0.5,2,0.5c0.8,0,1.5-0.2,2-0.5c0.6-0.4,1.1-0.8,1.4-1.4c0.3-0.6,0.5-1.3,0.5-2
					c0-0.7-0.2-1.4-0.5-2c-0.3-0.6-0.8-1.1-1.4-1.5c-0.6-0.4-1.3-0.5-2-0.5c-0.8,0-1.4,0.2-2,0.6s-1.1,0.9-1.4,1.5
					C348.5,157.7,348.3,158.4,348.3,159.1z"/>
				<path class="st2" d="M364,148.3h2.8v5.2h3.4v2h-3.4v9.5H364v-9.5h-2.2v-2h2.2V148.3z"/>
				<path class="st2" d="M374.7,148.3h2.8v5.2h3.4v2h-3.4v9.5h-2.8v-9.5h-2.2v-2h2.2V148.3z"/>
				<path class="st2" d="M384,149.2c0-0.4,0.2-0.8,0.5-1c0.3-0.3,0.7-0.4,1.1-0.4s0.8,0.1,1.1,0.4c0.3,0.3,0.5,0.6,0.5,1
					c0,0.4-0.2,0.8-0.5,1c-0.3,0.3-0.7,0.4-1.1,0.4s-0.8-0.1-1.1-0.4C384.2,150,384,149.6,384,149.2z M384.2,153.4h2.8V165h-2.8
					V153.4z"/>
				<path class="st2" d="M394.3,153.4l0.2,2.6l-0.1-0.2c0.5-0.9,1.1-1.6,1.9-2.1c0.8-0.5,1.8-0.8,2.9-0.8c0.7,0,1.3,0.1,1.8,0.3
					c0.5,0.2,1,0.5,1.3,0.9c0.3,0.4,0.6,0.8,0.7,1.4l-0.1,0.1c0.5-0.9,1.1-1.5,2-2c0.8-0.5,1.7-0.7,2.7-0.7c1.2,0,2.2,0.3,2.9,1
					c0.7,0.7,1.1,1.5,1.1,2.5v8.6h-2.8v-7.6c0-0.6-0.2-1.1-0.5-1.5s-0.8-0.6-1.5-0.6c-0.7,0-1.4,0.2-1.9,0.6c-0.6,0.4-1,0.9-1.3,1.6
					s-0.5,1.3-0.5,2.1v5.5h-2.8v-7.6c0-0.6-0.2-1.1-0.5-1.5s-0.8-0.6-1.5-0.6c-0.7,0-1.3,0.2-1.9,0.6c-0.6,0.4-1,0.9-1.3,1.6
					c-0.3,0.7-0.5,1.4-0.5,2.1v5.5h-2.8v-11.6H394.3z"/>
				<path class="st2" d="M415.1,159.1c0-1.2,0.3-2.2,0.9-3.1c0.6-0.9,1.4-1.7,2.4-2.2c1-0.5,2.2-0.8,3.5-0.8c1.3,0,2.5,0.3,3.5,0.8
					c1,0.5,1.8,1.3,2.4,2.2c0.6,0.9,0.8,2,0.8,3.1c0,1.2-0.3,2.2-0.8,3.1c-0.6,0.9-1.3,1.7-2.4,2.2c-1,0.5-2.2,0.8-3.5,0.8
					c-1.3,0-2.5-0.3-3.5-0.8c-1-0.5-1.8-1.2-2.4-2.2S415.1,160.3,415.1,159.1z M417.9,159.1c0,0.7,0.2,1.4,0.5,2
					c0.4,0.6,0.8,1.1,1.4,1.4c0.6,0.4,1.3,0.5,2,0.5c0.8,0,1.5-0.2,2-0.5c0.6-0.4,1.1-0.8,1.4-1.4c0.3-0.6,0.5-1.3,0.5-2
					c0-0.7-0.2-1.4-0.5-2c-0.3-0.6-0.8-1.1-1.4-1.5c-0.6-0.4-1.3-0.5-2-0.5c-0.8,0-1.4,0.2-2,0.6s-1.1,0.9-1.4,1.5
					C418.1,157.7,417.9,158.4,417.9,159.1z"/>
				<path class="st2" d="M446.8,165.3l-6.8-11.9h3.3l4.6,9.2l-1.7-0.1l4.2-9.1h3.1l-6.6,11.9H446.8z"/>
				<path class="st2" d="M455.4,159.1c0-1.2,0.3-2.2,0.9-3.1c0.6-0.9,1.4-1.7,2.4-2.2c1-0.5,2.2-0.8,3.5-0.8c1.3,0,2.5,0.3,3.5,0.8
					c1,0.5,1.8,1.3,2.4,2.2c0.6,0.9,0.8,2,0.8,3.1c0,1.2-0.3,2.2-0.8,3.1c-0.6,0.9-1.3,1.7-2.4,2.2c-1,0.5-2.2,0.8-3.5,0.8
					c-1.3,0-2.5-0.3-3.5-0.8c-1-0.5-1.8-1.2-2.4-2.2S455.4,160.3,455.4,159.1z M458.2,159.1c0,0.7,0.2,1.4,0.5,2
					c0.4,0.6,0.8,1.1,1.4,1.4c0.6,0.4,1.3,0.5,2,0.5c0.8,0,1.5-0.2,2-0.5c0.6-0.4,1.1-0.8,1.4-1.4c0.3-0.6,0.5-1.3,0.5-2
					c0-0.7-0.2-1.4-0.5-2c-0.3-0.6-0.8-1.1-1.4-1.5c-0.6-0.4-1.3-0.5-2-0.5c-0.8,0-1.4,0.2-2,0.6s-1.1,0.9-1.4,1.5
					C458.3,157.7,458.2,158.4,458.2,159.1z"/>
				<path class="st2" d="M473.8,148.3h2.8v5.2h3.4v2h-3.4v9.5h-2.8v-9.5h-2.2v-2h2.2V148.3z"/>
				<path class="st2" d="M482.2,159.1c0-1.2,0.3-2.2,0.9-3.1c0.6-0.9,1.4-1.7,2.4-2.2c1-0.5,2.2-0.8,3.5-0.8c1.3,0,2.5,0.3,3.5,0.8
					c1,0.5,1.8,1.3,2.4,2.2c0.6,0.9,0.8,2,0.8,3.1c0,1.2-0.3,2.2-0.8,3.1c-0.6,0.9-1.3,1.7-2.4,2.2c-1,0.5-2.2,0.8-3.5,0.8
					c-1.3,0-2.5-0.3-3.5-0.8c-1-0.5-1.8-1.2-2.4-2.2S482.2,160.3,482.2,159.1z M485,159.1c0,0.7,0.2,1.4,0.5,2
					c0.4,0.6,0.8,1.1,1.4,1.4c0.6,0.4,1.3,0.5,2,0.5c0.8,0,1.5-0.2,2-0.5c0.6-0.4,1.1-0.8,1.4-1.4c0.3-0.6,0.5-1.3,0.5-2
					c0-0.7-0.2-1.4-0.5-2c-0.3-0.6-0.8-1.1-1.4-1.5c-0.6-0.4-1.3-0.5-2-0.5c-0.8,0-1.4,0.2-2,0.6s-1.1,0.9-1.4,1.5
					C485.2,157.7,485,158.4,485,159.1z"/>
				<path class="st2" d="M518.8,163.9c-0.6,0.4-1.2,0.8-2,1c-0.8,0.2-1.5,0.4-2.3,0.4c-1.3,0-2.5-0.3-3.5-0.8s-1.8-1.2-2.4-2.1
					c-0.6-0.9-0.9-2-0.9-3.2c0-1.2,0.3-2.3,0.9-3.2s1.4-1.6,2.4-2.1c1-0.5,2-0.7,3.2-0.7c1,0,1.8,0.1,2.6,0.4c0.8,0.3,1.5,0.6,2,1.1
					l-1.4,1.7c-0.3-0.2-0.8-0.5-1.3-0.7c-0.5-0.2-1.1-0.3-1.7-0.3c-0.7,0-1.4,0.2-2,0.5c-0.6,0.3-1.1,0.8-1.4,1.4
					c-0.3,0.6-0.5,1.3-0.5,2c0,0.7,0.2,1.4,0.5,2c0.4,0.6,0.9,1.1,1.5,1.4c0.6,0.4,1.4,0.5,2.2,0.5c0.5,0,1-0.1,1.4-0.2
					c0.4-0.1,0.8-0.4,1.2-0.6L518.8,163.9z"/>
				<path class="st2" d="M522.4,165v-21.7h2.7v12.8l-0.1-0.5c0.4-0.8,1.1-1.4,1.9-1.9s1.9-0.8,3.1-0.8c1.1,0,2.1,0.3,2.8,1
					c0.7,0.6,1.1,1.5,1.1,2.5v8.6h-2.8v-7.7c0-0.6-0.2-1.1-0.6-1.5c-0.4-0.4-0.9-0.6-1.7-0.6c-0.7,0-1.3,0.2-1.9,0.6
					c-0.6,0.4-1,0.9-1.4,1.6c-0.3,0.7-0.5,1.4-0.5,2.2v5.4H522.4z"/>
				<path class="st2" d="M544.5,165.3c-1.4,0-2.6-0.3-3.6-0.8c-1-0.5-1.8-1.3-2.3-2.2s-0.8-2-0.8-3.2c0-1.1,0.3-2.2,0.9-3.1
					c0.6-0.9,1.4-1.7,2.5-2.2c1-0.6,2.2-0.8,3.4-0.8c1.6,0,3,0.4,4,1.3s1.8,2.1,2.2,3.7l-10.2,3.4l-0.7-1.5l8.3-2.9l-0.6,0.4
					c-0.2-0.6-0.6-1.1-1.2-1.6c-0.6-0.4-1.3-0.7-2.2-0.7c-0.8,0-1.4,0.2-2,0.5c-0.6,0.3-1,0.8-1.4,1.4c-0.3,0.6-0.5,1.3-0.5,2.1
					s0.2,1.5,0.5,2.1c0.3,0.6,0.8,1.1,1.5,1.4c0.6,0.3,1.3,0.5,2.1,0.5c0.5,0,1.1-0.1,1.6-0.3c0.5-0.2,1-0.4,1.4-0.7l1.2,1.9
					c-0.6,0.4-1.3,0.7-2.1,1C546,165.1,545.3,165.3,544.5,165.3z"/>
				<path class="st2" d="M563.6,143.3h2.8V165h-2.8V143.3z"/>
				<path class="st2" d="M570.1,159.1c0-1.2,0.3-2.2,0.9-3.1c0.6-0.9,1.4-1.7,2.4-2.2c1-0.5,2.2-0.8,3.5-0.8c1.3,0,2.5,0.3,3.5,0.8
					c1,0.5,1.8,1.3,2.4,2.2c0.6,0.9,0.8,2,0.8,3.1c0,1.2-0.3,2.2-0.8,3.1c-0.6,0.9-1.3,1.7-2.4,2.2c-1,0.5-2.2,0.8-3.5,0.8
					c-1.3,0-2.5-0.3-3.5-0.8c-1-0.5-1.8-1.2-2.4-2.2S570.1,160.3,570.1,159.1z M572.9,159.1c0,0.7,0.2,1.4,0.5,2
					c0.4,0.6,0.8,1.1,1.4,1.4c0.6,0.4,1.3,0.5,2,0.5c0.8,0,1.5-0.2,2-0.5c0.6-0.4,1.1-0.8,1.4-1.4c0.3-0.6,0.5-1.3,0.5-2
					c0-0.7-0.2-1.4-0.5-2c-0.3-0.6-0.8-1.1-1.4-1.5c-0.6-0.4-1.3-0.5-2-0.5c-0.8,0-1.4,0.2-2,0.6s-1.1,0.9-1.4,1.5
					C573.1,157.7,572.9,158.4,572.9,159.1z"/>
			</g>
		</g>
		<g>
			<g class="st1">
				<path class="st2" d="M31.9,187.4l0.3,3.4l-0.1-0.5c0.3-0.7,0.8-1.3,1.4-1.8c0.6-0.5,1.2-0.9,1.9-1.1c0.7-0.3,1.2-0.4,1.7-0.4
					l-0.1,2.6c-0.9-0.1-1.8,0.1-2.5,0.5c-0.7,0.4-1.3,0.9-1.7,1.6c-0.4,0.6-0.6,1.3-0.6,2.1v5.3h-2.8v-11.6H31.9z"/>
				<path class="st2" d="M46.3,199.3c-1.4,0-2.6-0.3-3.6-0.8c-1-0.5-1.8-1.3-2.3-2.2c-0.6-0.9-0.8-2-0.8-3.2c0-1.1,0.3-2.2,0.9-3.1
					c0.6-0.9,1.4-1.7,2.5-2.2c1-0.6,2.2-0.8,3.4-0.8c1.6,0,3,0.4,4,1.3c1.1,0.9,1.8,2.1,2.2,3.7l-10.2,3.4l-0.7-1.5l8.3-2.9
					l-0.6,0.4c-0.2-0.6-0.6-1.1-1.2-1.6c-0.6-0.4-1.3-0.7-2.2-0.7c-0.8,0-1.4,0.2-2,0.5s-1,0.8-1.4,1.4c-0.3,0.6-0.5,1.3-0.5,2.1
					c0,0.8,0.2,1.5,0.5,2.1s0.8,1.1,1.5,1.4c0.6,0.3,1.3,0.5,2.1,0.5c0.5,0,1.1-0.1,1.6-0.3s1-0.4,1.4-0.7l1.2,1.9
					c-0.6,0.4-1.3,0.7-2.1,1S47,199.3,46.3,199.3z"/>
				<path class="st2" d="M58.5,187.4l0.2,2.8l-0.1-0.4c0.4-0.9,1-1.5,1.9-2.1c0.9-0.5,1.9-0.8,3.1-0.8c1.1,0,2.1,0.3,2.8,1
					c0.7,0.6,1.1,1.5,1.1,2.5v8.6h-2.8v-7.7c0-0.6-0.2-1.1-0.6-1.5c-0.4-0.4-0.9-0.6-1.7-0.6c-0.7,0-1.3,0.2-1.9,0.6
					c-0.6,0.4-1,0.9-1.4,1.5c-0.3,0.7-0.5,1.4-0.5,2.3v5.4H56v-11.6H58.5z"/>
				<path class="st2" d="M77.4,199.3c-1.1,0-2.2-0.3-3.1-0.8c-0.9-0.5-1.6-1.2-2.2-2.2c-0.5-0.9-0.8-2-0.8-3.3
					c0-1.3,0.3-2.4,0.9-3.3c0.6-0.9,1.3-1.6,2.3-2.1s2.1-0.7,3.3-0.7c1,0,1.9,0.2,2.8,0.6c0.9,0.4,1.6,0.9,2.1,1.6l-0.1,0.9v-12.7
					h2.8V199h-2.8v-2.9l0.3,0.7c-0.6,0.7-1.4,1.3-2.3,1.8C79.6,199.1,78.5,199.3,77.4,199.3z M78.3,197.1c0.7,0,1.4-0.1,1.9-0.4
					c0.6-0.3,1-0.6,1.4-1c0.4-0.4,0.7-1,0.8-1.6v-2.2c-0.2-0.6-0.4-1.1-0.8-1.5c-0.4-0.4-0.9-0.8-1.5-1c-0.6-0.2-1.2-0.3-1.9-0.3
					c-0.7,0-1.4,0.2-2,0.5c-0.6,0.3-1.1,0.8-1.5,1.4c-0.4,0.6-0.6,1.3-0.6,2.1c0,0.8,0.2,1.5,0.6,2.1c0.4,0.6,0.9,1.1,1.5,1.5
					C76.8,196.9,77.5,197.1,78.3,197.1z"/>
				<path class="st2" d="M95.7,199.3c-1.4,0-2.6-0.3-3.6-0.8c-1-0.5-1.8-1.3-2.3-2.2c-0.6-0.9-0.8-2-0.8-3.2c0-1.1,0.3-2.2,0.9-3.1
					c0.6-0.9,1.4-1.7,2.5-2.2c1-0.6,2.2-0.8,3.4-0.8c1.6,0,3,0.4,4,1.3c1.1,0.9,1.8,2.1,2.2,3.7l-10.2,3.4l-0.7-1.5l8.3-2.9
					l-0.6,0.4c-0.2-0.6-0.6-1.1-1.2-1.6c-0.6-0.4-1.3-0.7-2.2-0.7c-0.8,0-1.4,0.2-2,0.5s-1,0.8-1.4,1.4c-0.3,0.6-0.5,1.3-0.5,2.1
					c0,0.8,0.2,1.5,0.5,2.1s0.8,1.1,1.5,1.4c0.6,0.3,1.3,0.5,2.1,0.5c0.5,0,1.1-0.1,1.6-0.3s1-0.4,1.4-0.7l1.2,1.9
					c-0.6,0.4-1.3,0.7-2.1,1S96.4,199.3,95.7,199.3z"/>
				<path class="st2" d="M115.8,199v-9.3h-2.1v-2.4h2.1v-4.9c0-1.7,0.4-3,1.2-3.9c0.8-0.9,2-1.3,3.6-1.3c0.4,0,0.9,0.1,1.4,0.2
					c0.5,0.1,0.9,0.3,1.3,0.6l-1.2,1.9c-0.2-0.2-0.3-0.3-0.6-0.3c-0.2-0.1-0.4-0.1-0.7-0.1c-0.7,0-1.3,0.2-1.7,0.7
					c-0.4,0.5-0.6,1.3-0.6,2.4v4.8h3.5v2.4h-3.5v9.3H115.8z M124.3,183.2c0-0.4,0.2-0.8,0.5-1.1c0.3-0.3,0.7-0.4,1.1-0.4
					c0.4,0,0.8,0.1,1.1,0.4c0.3,0.3,0.5,0.6,0.5,1c0,0.4-0.2,0.8-0.5,1.1c-0.3,0.3-0.7,0.4-1.1,0.4c-0.4,0-0.8-0.1-1.1-0.4
					C124.5,184,124.3,183.7,124.3,183.2z M124.5,187.4h2.8V199h-2.8V187.4z"/>
				<path class="st2" d="M137.7,199.3c-1.4,0-2.6-0.3-3.6-0.8c-1-0.5-1.8-1.3-2.3-2.2c-0.6-0.9-0.8-2-0.8-3.2c0-1.1,0.3-2.2,0.9-3.1
					c0.6-0.9,1.4-1.7,2.5-2.2c1-0.6,2.2-0.8,3.4-0.8c1.6,0,3,0.4,4,1.3c1.1,0.9,1.8,2.1,2.2,3.7l-10.2,3.4l-0.7-1.5l8.3-2.9
					l-0.6,0.4c-0.2-0.6-0.6-1.1-1.2-1.6c-0.6-0.4-1.3-0.7-2.2-0.7c-0.8,0-1.4,0.2-2,0.5s-1,0.8-1.4,1.4c-0.3,0.6-0.5,1.3-0.5,2.1
					c0,0.8,0.2,1.5,0.5,2.1s0.8,1.1,1.5,1.4c0.6,0.3,1.3,0.5,2.1,0.5c0.5,0,1.1-0.1,1.6-0.3s1-0.4,1.4-0.7l1.2,1.9
					c-0.6,0.4-1.3,0.7-2.1,1S138.5,199.3,137.7,199.3z"/>
				<path class="st2" d="M149.9,187.4l0.3,3.4l-0.1-0.5c0.3-0.7,0.8-1.3,1.4-1.8c0.6-0.5,1.2-0.9,1.9-1.1c0.7-0.3,1.2-0.4,1.7-0.4
					l-0.1,2.6c-0.9-0.1-1.8,0.1-2.5,0.5c-0.7,0.4-1.3,0.9-1.7,1.6c-0.4,0.6-0.6,1.3-0.6,2.1v5.3h-2.8v-11.6H149.9z"/>
				<path class="st2" d="M157.5,193.1c0-1.2,0.3-2.2,0.9-3.1c0.6-0.9,1.4-1.7,2.4-2.2s2.2-0.8,3.5-0.8c1.3,0,2.5,0.3,3.5,0.8
					c1,0.5,1.8,1.3,2.4,2.2s0.8,2,0.8,3.1s-0.3,2.2-0.8,3.1c-0.6,0.9-1.4,1.7-2.4,2.2c-1,0.6-2.2,0.8-3.5,0.8
					c-1.3,0-2.5-0.3-3.5-0.8c-1-0.5-1.8-1.2-2.4-2.2S157.5,194.4,157.5,193.1z M160.3,193.1c0,0.7,0.2,1.4,0.5,2
					c0.4,0.6,0.8,1.1,1.4,1.4s1.3,0.5,2,0.5c0.8,0,1.5-0.2,2-0.5c0.6-0.4,1.1-0.8,1.4-1.4c0.3-0.6,0.5-1.3,0.5-2s-0.2-1.4-0.5-2
					c-0.3-0.6-0.8-1.1-1.4-1.5c-0.6-0.4-1.3-0.5-2-0.5c-0.8,0-1.4,0.2-2,0.6c-0.6,0.4-1.1,0.9-1.4,1.5S160.3,192.4,160.3,193.1z"/>
				<path class="st2" d="M189.2,199.3c-1.1,0-2.2-0.3-3.1-0.8c-0.9-0.5-1.6-1.2-2.2-2.2c-0.5-0.9-0.8-2-0.8-3.3
					c0-1.3,0.3-2.4,0.9-3.3c0.6-0.9,1.3-1.6,2.3-2.1s2.1-0.7,3.3-0.7c1,0,1.9,0.2,2.8,0.6c0.9,0.4,1.6,0.9,2.1,1.6l-0.1,0.9v-12.7
					h2.8V199h-2.8v-2.9l0.3,0.7c-0.6,0.7-1.4,1.3-2.3,1.8C191.4,199.1,190.3,199.3,189.2,199.3z M190,197.1c0.7,0,1.4-0.1,1.9-0.4
					c0.6-0.3,1-0.6,1.4-1c0.4-0.4,0.7-1,0.8-1.6v-2.2c-0.2-0.6-0.4-1.1-0.8-1.5c-0.4-0.4-0.9-0.8-1.5-1c-0.6-0.2-1.2-0.3-1.9-0.3
					c-0.7,0-1.4,0.2-2,0.5c-0.6,0.3-1.1,0.8-1.5,1.4c-0.4,0.6-0.6,1.3-0.6,2.1c0,0.8,0.2,1.5,0.6,2.1c0.4,0.6,0.9,1.1,1.5,1.5
					C188.6,196.9,189.3,197.1,190,197.1z"/>
				<path class="st2" d="M207.5,199.3c-1.4,0-2.6-0.3-3.6-0.8c-1-0.5-1.8-1.3-2.3-2.2c-0.6-0.9-0.8-2-0.8-3.2c0-1.1,0.3-2.2,0.9-3.1
					c0.6-0.9,1.4-1.7,2.5-2.2c1-0.6,2.2-0.8,3.4-0.8c1.6,0,3,0.4,4,1.3c1.1,0.9,1.8,2.1,2.2,3.7l-10.2,3.4l-0.7-1.5l8.3-2.9
					l-0.6,0.4c-0.2-0.6-0.6-1.1-1.2-1.6c-0.6-0.4-1.3-0.7-2.2-0.7c-0.8,0-1.4,0.2-2,0.5s-1,0.8-1.4,1.4c-0.3,0.6-0.5,1.3-0.5,2.1
					c0,0.8,0.2,1.5,0.5,2.1s0.8,1.1,1.5,1.4c0.6,0.3,1.3,0.5,2.1,0.5c0.5,0,1.1-0.1,1.6-0.3s1-0.4,1.4-0.7l1.2,1.9
					c-0.6,0.4-1.3,0.7-2.1,1S208.2,199.3,207.5,199.3z"/>
				<path class="st2" d="M217,183.2c0-0.4,0.2-0.8,0.5-1c0.3-0.3,0.7-0.4,1.1-0.4s0.8,0.1,1.1,0.4c0.3,0.3,0.5,0.6,0.5,1
					c0,0.4-0.2,0.8-0.5,1c-0.3,0.3-0.7,0.4-1.1,0.4s-0.8-0.1-1.1-0.4C217.2,184,217,183.6,217,183.2z M217.2,187.4h2.8V199h-2.8
					V187.4z"/>
				<path class="st2" d="M237.6,199.2c-0.9,0-1.7-0.1-2.5-0.4s-1.5-0.7-2-1.3l1.2-1.5c0.5,0.5,1.1,0.8,1.6,1.1s1.1,0.3,1.6,0.3
					c0.4,0,0.8,0,1.1-0.1c0.3-0.1,0.6-0.3,0.8-0.5c0.2-0.2,0.3-0.5,0.3-0.9c0-0.4-0.1-0.8-0.4-1c-0.3-0.2-0.6-0.4-1.1-0.6
					c-0.4-0.1-0.9-0.3-1.4-0.4c-1-0.3-1.8-0.8-2.3-1.3s-0.8-1.2-0.8-2c0-0.6,0.2-1.2,0.5-1.7c0.3-0.5,0.8-1,1.5-1.3
					c0.7-0.3,1.4-0.5,2.4-0.5c0.9,0,1.6,0.1,2.3,0.3c0.7,0.2,1.3,0.5,1.9,1l-1.1,1.6c-0.4-0.4-0.8-0.6-1.3-0.8
					c-0.5-0.2-0.9-0.3-1.3-0.3c-0.4,0-0.7,0.1-1,0.2s-0.6,0.3-0.7,0.4c-0.2,0.2-0.3,0.4-0.3,0.7c0,0.4,0.1,0.7,0.4,0.9
					c0.3,0.2,0.6,0.4,1.1,0.6c0.4,0.1,0.9,0.3,1.3,0.4c0.6,0.2,1.1,0.4,1.6,0.7c0.5,0.3,0.9,0.6,1.1,1c0.3,0.4,0.4,0.9,0.4,1.5
					c0,0.7-0.2,1.3-0.5,1.9s-0.9,1.1-1.6,1.4C239.6,199.1,238.7,199.2,237.6,199.2z"/>
				<path class="st2" d="M250.2,199.5c-1.1,0-2.1-0.3-2.8-1c-0.7-0.6-1.1-1.5-1.1-2.5v-8.6h2.8v7.6c0,0.6,0.2,1.1,0.6,1.5
					c0.4,0.4,0.9,0.6,1.7,0.6c0.7,0,1.3-0.2,1.8-0.6c0.5-0.4,1-0.9,1.3-1.6c0.3-0.7,0.5-1.4,0.5-2.3v-5.4h2.8V199h-2.5l-0.2-2.9
					l0.2,0.5c-0.3,0.5-0.6,1-1.1,1.4c-0.5,0.4-1,0.8-1.7,1C251.6,199.3,250.9,199.5,250.2,199.5z"/>
				<path class="st2" d="M261.3,193.1c0-1.2,0.3-2.2,0.9-3.1c0.6-0.9,1.4-1.7,2.4-2.2s2.2-0.8,3.5-0.8c1.3,0,2.5,0.3,3.5,0.8
					c1,0.5,1.8,1.3,2.4,2.2s0.8,2,0.8,3.1s-0.3,2.2-0.8,3.1c-0.6,0.9-1.4,1.7-2.4,2.2c-1,0.6-2.2,0.8-3.5,0.8
					c-1.3,0-2.5-0.3-3.5-0.8c-1-0.5-1.8-1.2-2.4-2.2S261.3,194.4,261.3,193.1z M264.1,193.1c0,0.7,0.2,1.4,0.5,2
					c0.4,0.6,0.8,1.1,1.4,1.4s1.3,0.5,2,0.5c0.8,0,1.5-0.2,2-0.5c0.6-0.4,1.1-0.8,1.4-1.4c0.3-0.6,0.5-1.3,0.5-2s-0.2-1.4-0.5-2
					c-0.3-0.6-0.8-1.1-1.4-1.5c-0.6-0.4-1.3-0.5-2-0.5c-0.8,0-1.4,0.2-2,0.6c-0.6,0.4-1.1,0.9-1.4,1.5S264.1,192.4,264.1,193.1z"/>
				<path class="st2" d="M278.4,183.2c0-0.4,0.2-0.8,0.5-1c0.3-0.3,0.7-0.4,1.1-0.4s0.8,0.1,1.1,0.4c0.3,0.3,0.5,0.6,0.5,1
					c0,0.4-0.2,0.8-0.5,1c-0.3,0.3-0.7,0.4-1.1,0.4s-0.8-0.1-1.1-0.4C278.6,184,278.4,183.6,278.4,183.2z M278.6,187.4h2.8V199h-2.8
					V187.4z"/>
				<path class="st2" d="M298,187.4l0.3,3.4l-0.1-0.5c0.3-0.7,0.8-1.3,1.4-1.8c0.6-0.5,1.2-0.9,1.9-1.1s1.2-0.4,1.7-0.4l-0.1,2.6
					c-1-0.1-1.8,0.1-2.5,0.5c-0.7,0.4-1.3,0.9-1.7,1.6c-0.4,0.6-0.6,1.3-0.6,2.1v5.3h-2.8v-11.6H298z"/>
				<path class="st2" d="M306.5,183.2c0-0.4,0.2-0.8,0.5-1c0.3-0.3,0.7-0.4,1.1-0.4s0.8,0.1,1.1,0.4c0.3,0.3,0.5,0.6,0.5,1
					c0,0.4-0.2,0.8-0.5,1c-0.3,0.3-0.7,0.4-1.1,0.4s-0.8-0.1-1.1-0.4C306.7,184,306.5,183.6,306.5,183.2z M306.7,187.4h2.8V199h-2.8
					V187.4z"/>
				<path class="st2" d="M317.7,199.2c-0.9,0-1.7-0.1-2.5-0.4c-0.8-0.3-1.5-0.7-2-1.3l1.2-1.5c0.5,0.5,1.1,0.8,1.6,1.1
					s1.1,0.3,1.6,0.3c0.4,0,0.8,0,1.1-0.1c0.3-0.1,0.6-0.3,0.8-0.5s0.3-0.5,0.3-0.9c0-0.4-0.1-0.8-0.4-1c-0.3-0.2-0.6-0.4-1.1-0.6
					c-0.4-0.1-0.9-0.3-1.4-0.4c-1-0.3-1.8-0.8-2.3-1.3c-0.5-0.6-0.8-1.2-0.8-2c0-0.6,0.2-1.2,0.5-1.7c0.3-0.5,0.8-1,1.5-1.3
					c0.7-0.3,1.4-0.5,2.4-0.5c0.9,0,1.6,0.1,2.3,0.3c0.7,0.2,1.3,0.5,1.9,1l-1.1,1.6c-0.4-0.4-0.8-0.6-1.3-0.8
					c-0.5-0.2-0.9-0.3-1.3-0.3c-0.4,0-0.7,0.1-1,0.2c-0.3,0.1-0.6,0.3-0.7,0.4c-0.2,0.2-0.3,0.4-0.3,0.7c0,0.4,0.1,0.7,0.4,0.9
					c0.3,0.2,0.6,0.4,1.1,0.6c0.4,0.1,0.9,0.3,1.3,0.4c0.6,0.2,1.1,0.4,1.6,0.7c0.5,0.3,0.9,0.6,1.1,1c0.3,0.4,0.4,0.9,0.4,1.5
					c0,0.7-0.2,1.3-0.5,1.9c-0.3,0.6-0.9,1.1-1.6,1.4C319.7,199.1,318.8,199.2,317.7,199.2z"/>
				<path class="st2" d="M330.3,199.5c-1.1,0-2.1-0.3-2.8-1c-0.7-0.6-1.1-1.5-1.1-2.5v-8.6h2.8v7.6c0,0.6,0.2,1.1,0.6,1.5
					s0.9,0.6,1.7,0.6c0.7,0,1.3-0.2,1.8-0.6s1-0.9,1.3-1.6c0.3-0.7,0.5-1.4,0.5-2.3v-5.4h2.8V199h-2.5l-0.2-2.9l0.2,0.5
					c-0.3,0.5-0.6,1-1.1,1.4s-1,0.8-1.7,1C331.8,199.3,331,199.5,330.3,199.5z"/>
				<path class="st2" d="M342.6,177.3h2.8V199h-2.8V177.3z"/>
				<path class="st2" d="M351.3,182.3h2.8v5.2h3.4v2h-3.4v9.5h-2.8v-9.5h-2.2v-2h2.2V182.3z"/>
				<path class="st2" d="M365.9,199.3c-1.1,0-2.2-0.2-3.1-0.7c-0.9-0.5-1.7-1.2-2.2-2.1c-0.6-0.9-0.8-2-0.8-3.3s0.3-2.4,0.9-3.4
					c0.6-0.9,1.3-1.7,2.3-2.2s2-0.8,3.2-0.8s2.1,0.2,2.9,0.7c0.8,0.5,1.4,1.1,1.8,1.8l-0.2,0.4l0.3-2.4h2.6V199h-2.8v-3l0.3,0.7
					c-0.1,0.2-0.3,0.4-0.6,0.7c-0.3,0.3-0.6,0.6-1.1,0.9c-0.4,0.3-0.9,0.5-1.5,0.7C367.3,199.2,366.7,199.3,365.9,199.3z
					 M366.7,197.1c0.7,0,1.3-0.1,1.9-0.4c0.6-0.2,1-0.6,1.4-1c0.4-0.4,0.6-1,0.8-1.6v-2.3c-0.2-0.6-0.4-1-0.8-1.5
					c-0.4-0.4-0.9-0.7-1.4-1c-0.6-0.2-1.2-0.4-1.8-0.4c-0.8,0-1.4,0.2-2,0.5c-0.6,0.3-1.1,0.8-1.5,1.4c-0.4,0.6-0.5,1.3-0.5,2.1
					c0,0.7,0.2,1.4,0.6,2c0.4,0.6,0.9,1.1,1.5,1.5C365.3,197,365.9,197.1,366.7,197.1z"/>
				<path class="st2" d="M379.4,182.3h2.8v5.2h3.4v2h-3.4v9.5h-2.8v-9.5h-2.2v-2h2.2V182.3z"/>
				<path class="st2" d="M388.7,183.2c0-0.4,0.2-0.8,0.5-1c0.3-0.3,0.7-0.4,1.1-0.4s0.8,0.1,1.1,0.4c0.3,0.3,0.5,0.6,0.5,1
					c0,0.4-0.2,0.8-0.5,1c-0.3,0.3-0.7,0.4-1.1,0.4s-0.8-0.1-1.1-0.4C388.9,184,388.7,183.6,388.7,183.2z M388.9,187.4h2.8V199h-2.8
					V187.4z"/>
				<path class="st2" d="M411.6,199.3c-1.4,0-2.6-0.3-3.6-0.8c-1-0.5-1.8-1.3-2.3-2.2s-0.8-2-0.8-3.2c0-1.1,0.3-2.2,0.9-3.1
					c0.6-0.9,1.4-1.7,2.5-2.2c1-0.6,2.2-0.8,3.4-0.8c1.6,0,3,0.4,4,1.3c1.1,0.9,1.8,2.1,2.2,3.7l-10.2,3.4l-0.7-1.5l8.3-2.9
					l-0.6,0.4c-0.2-0.6-0.6-1.1-1.2-1.6c-0.6-0.4-1.3-0.7-2.2-0.7c-0.8,0-1.4,0.2-2,0.5c-0.6,0.3-1,0.8-1.4,1.4
					c-0.3,0.6-0.5,1.3-0.5,2.1c0,0.8,0.2,1.5,0.5,2.1c0.3,0.6,0.8,1.1,1.5,1.4s1.3,0.5,2.1,0.5c0.5,0,1.1-0.1,1.6-0.3
					c0.5-0.2,1-0.4,1.4-0.7l1.2,1.9c-0.6,0.4-1.3,0.7-2.1,1C413.1,199.2,412.3,199.3,411.6,199.3z"/>
				<path class="st2" d="M437.9,199.3c-0.9,0-1.8-0.2-2.7-0.6c-0.9-0.4-1.5-1-2-1.7l0.1-0.8v8.4h-2.8v-17.3h2.4l0.4,3l-0.3-0.8
					c0.6-0.7,1.3-1.3,2.3-1.8s1.9-0.7,3.1-0.7c1.1,0,2.2,0.3,3.1,0.8c0.9,0.5,1.6,1.2,2.2,2.2c0.5,0.9,0.8,2,0.8,3.3
					c0,1.2-0.3,2.3-0.9,3.2c-0.6,0.9-1.4,1.6-2.4,2.1S439.2,199.3,437.9,199.3z M437.4,197.2c0.8,0,1.5-0.2,2.2-0.5s1.2-0.8,1.6-1.4
					c0.4-0.6,0.6-1.3,0.6-2.1c0-0.8-0.2-1.5-0.6-2.1c-0.4-0.6-0.9-1.1-1.5-1.4s-1.3-0.5-2.1-0.5c-0.7,0-1.4,0.1-1.9,0.4
					c-0.6,0.3-1,0.6-1.4,1.1c-0.4,0.4-0.6,1-0.8,1.6v2c0.1,0.6,0.3,1.1,0.7,1.5c0.4,0.5,0.8,0.8,1.4,1.1
					C436.1,197.1,436.8,197.2,437.4,197.2z"/>
				<path class="st2" d="M450.8,187.4l0.3,3.4l-0.1-0.5c0.3-0.7,0.8-1.3,1.4-1.8c0.6-0.5,1.2-0.9,1.9-1.1s1.2-0.4,1.7-0.4l-0.1,2.6
					c-1-0.1-1.8,0.1-2.5,0.5c-0.7,0.4-1.3,0.9-1.7,1.6c-0.4,0.6-0.6,1.3-0.6,2.1v5.3h-2.8v-11.6H450.8z"/>
				<path class="st2" d="M458.4,193.1c0-1.2,0.3-2.2,0.9-3.1c0.6-0.9,1.4-1.7,2.4-2.2s2.2-0.8,3.5-0.8c1.3,0,2.5,0.3,3.5,0.8
					c1,0.5,1.8,1.3,2.4,2.2c0.6,0.9,0.8,2,0.8,3.1s-0.3,2.2-0.8,3.1c-0.6,0.9-1.3,1.7-2.4,2.2c-1,0.6-2.2,0.8-3.5,0.8
					c-1.3,0-2.5-0.3-3.5-0.8c-1-0.5-1.8-1.2-2.4-2.2S458.4,194.4,458.4,193.1z M461.1,193.1c0,0.7,0.2,1.4,0.5,2
					c0.4,0.6,0.8,1.1,1.4,1.4s1.3,0.5,2,0.5c0.8,0,1.5-0.2,2-0.5s1.1-0.8,1.4-1.4c0.3-0.6,0.5-1.3,0.5-2s-0.2-1.4-0.5-2
					c-0.3-0.6-0.8-1.1-1.4-1.5c-0.6-0.4-1.3-0.5-2-0.5c-0.8,0-1.4,0.2-2,0.6c-0.6,0.4-1.1,0.9-1.4,1.5
					C461.3,191.7,461.1,192.4,461.1,193.1z"/>
				<path class="st2" d="M478.1,187.4l0.2,2.8l-0.1-0.4c0.4-0.9,1-1.5,1.9-2.1c0.9-0.5,1.9-0.8,3.1-0.8c1.1,0,2.1,0.3,2.8,1
					s1.1,1.5,1.1,2.5v8.6h-2.8v-7.7c0-0.6-0.2-1.1-0.6-1.5c-0.4-0.4-0.9-0.6-1.7-0.6c-0.7,0-1.3,0.2-1.9,0.6c-0.6,0.4-1,0.9-1.4,1.5
					c-0.3,0.7-0.5,1.4-0.5,2.3v5.4h-2.8v-11.6H478.1z"/>
				<path class="st2" d="M493.2,182.3h2.8v5.2h3.4v2H496v9.5h-2.8v-9.5H491v-2h2.2V182.3z"/>
				<path class="st2" d="M501.6,193.1c0-1.2,0.3-2.2,0.9-3.1c0.6-0.9,1.4-1.7,2.4-2.2s2.2-0.8,3.5-0.8c1.3,0,2.5,0.3,3.5,0.8
					c1,0.5,1.8,1.3,2.4,2.2c0.6,0.9,0.8,2,0.8,3.1s-0.3,2.2-0.8,3.1c-0.6,0.9-1.3,1.7-2.4,2.2c-1,0.6-2.2,0.8-3.5,0.8
					c-1.3,0-2.5-0.3-3.5-0.8c-1-0.5-1.8-1.2-2.4-2.2S501.6,194.4,501.6,193.1z M504.4,193.1c0,0.7,0.2,1.4,0.5,2
					c0.4,0.6,0.8,1.1,1.4,1.4s1.3,0.5,2,0.5c0.8,0,1.5-0.2,2-0.5s1.1-0.8,1.4-1.4c0.3-0.6,0.5-1.3,0.5-2s-0.2-1.4-0.5-2
					c-0.3-0.6-0.8-1.1-1.4-1.5c-0.6-0.4-1.3-0.5-2-0.5c-0.8,0-1.4,0.2-2,0.6c-0.6,0.4-1.1,0.9-1.4,1.5
					C504.6,191.7,504.4,192.4,504.4,193.1z"/>
				<path class="st2" d="M535.5,199.3c-0.9,0-1.8-0.2-2.7-0.6c-0.9-0.4-1.5-1-2-1.7l0.1-0.8v8.4h-2.8v-17.3h2.4l0.4,3l-0.3-0.8
					c0.6-0.7,1.3-1.3,2.3-1.8s1.9-0.7,3.1-0.7c1.1,0,2.2,0.3,3.1,0.8c0.9,0.5,1.6,1.2,2.2,2.2c0.5,0.9,0.8,2,0.8,3.3
					c0,1.2-0.3,2.3-0.9,3.2c-0.6,0.9-1.4,1.6-2.4,2.1S536.8,199.3,535.5,199.3z M535,197.2c0.8,0,1.5-0.2,2.2-0.5s1.2-0.8,1.6-1.4
					c0.4-0.6,0.6-1.3,0.6-2.1c0-0.8-0.2-1.5-0.6-2.1c-0.4-0.6-0.9-1.1-1.5-1.4s-1.3-0.5-2.1-0.5c-0.7,0-1.4,0.1-1.9,0.4
					c-0.6,0.3-1,0.6-1.4,1.1c-0.4,0.4-0.6,1-0.8,1.6v2c0.1,0.6,0.3,1.1,0.7,1.5c0.4,0.5,0.8,0.8,1.4,1.1
					C533.7,197.1,534.3,197.2,535,197.2z"/>
				<path class="st2" d="M551.6,199.3c-1.4,0-2.6-0.3-3.6-0.8c-1-0.5-1.8-1.3-2.3-2.2s-0.8-2-0.8-3.2c0-1.1,0.3-2.2,0.9-3.1
					c0.6-0.9,1.4-1.7,2.5-2.2c1-0.6,2.2-0.8,3.4-0.8c1.6,0,3,0.4,4,1.3c1.1,0.9,1.8,2.1,2.2,3.7l-10.2,3.4l-0.7-1.5l8.3-2.9
					l-0.6,0.4c-0.2-0.6-0.6-1.1-1.2-1.6c-0.6-0.4-1.3-0.7-2.2-0.7c-0.8,0-1.4,0.2-2,0.5c-0.6,0.3-1,0.8-1.4,1.4
					c-0.3,0.6-0.5,1.3-0.5,2.1c0,0.8,0.2,1.5,0.5,2.1c0.3,0.6,0.8,1.1,1.5,1.4s1.3,0.5,2.1,0.5c0.5,0,1.1-0.1,1.6-0.3
					c0.5-0.2,1-0.4,1.4-0.7l1.2,1.9c-0.6,0.4-1.3,0.7-2.1,1C553.1,199.2,552.3,199.3,551.6,199.3z"/>
				<path class="st2" d="M563.8,187.4l0.3,3.4l-0.1-0.5c0.3-0.7,0.8-1.3,1.4-1.8c0.6-0.5,1.2-0.9,1.9-1.1s1.2-0.4,1.7-0.4l-0.1,2.6
					c-1-0.1-1.8,0.1-2.5,0.5c-0.7,0.4-1.3,0.9-1.7,1.6c-0.4,0.6-0.6,1.3-0.6,2.1v5.3h-2.8v-11.6H563.8z"/>
			</g>
		</g>
		<g>
			<g class="st1">
				<path class="st2" d="M29.2,217.2c0-0.4,0.2-0.8,0.5-1c0.3-0.3,0.7-0.4,1.1-0.4s0.8,0.1,1.1,0.4c0.3,0.3,0.5,0.6,0.5,1
					c0,0.4-0.2,0.8-0.5,1.1c-0.3,0.3-0.7,0.4-1.1,0.4s-0.8-0.1-1.1-0.4C29.4,218,29.2,217.7,29.2,217.2z M29.4,221.4h2.8V233h-2.8
					V221.4z"/>
				<path class="st2" d="M39.5,221.4l0.2,2.8l-0.1-0.4c0.4-0.9,1-1.5,1.9-2.1c0.9-0.5,1.9-0.8,3.1-0.8c1.1,0,2.1,0.3,2.8,1
					c0.7,0.6,1.1,1.5,1.1,2.5v8.6h-2.8v-7.7c0-0.6-0.2-1.1-0.6-1.5c-0.4-0.4-0.9-0.6-1.7-0.6c-0.7,0-1.3,0.2-1.9,0.6
					c-0.6,0.4-1,0.9-1.4,1.5c-0.3,0.7-0.5,1.4-0.5,2.3v5.4h-2.8v-11.6H39.5z"/>
				<path class="st2" d="M53.2,217.2c0-0.4,0.2-0.8,0.5-1c0.3-0.3,0.7-0.4,1.1-0.4s0.8,0.1,1.1,0.4c0.3,0.3,0.5,0.6,0.5,1
					c0,0.4-0.2,0.8-0.5,1.1c-0.3,0.3-0.7,0.4-1.1,0.4s-0.8-0.1-1.1-0.4C53.4,218,53.2,217.7,53.2,217.2z M53.4,221.4h2.8V233h-2.8
					V221.4z"/>
				<path class="st2" d="M62.1,223.6c-0.6,0-1.1-0.2-1.6-0.5c-0.4-0.4-0.6-0.9-0.6-1.6v-1.1H62v0.4c0,0.3,0.1,0.5,0.2,0.6
					s0.4,0.1,0.8,0.1h7.9l-7.4,10l-0.6-0.5h7.8v2.2H59.4l7.5-10.2l0.5,0.7H62.1z"/>
				<path class="st2" d="M74.5,217.2c0-0.4,0.2-0.8,0.5-1c0.3-0.3,0.7-0.4,1.1-0.4s0.8,0.1,1.1,0.4c0.3,0.3,0.5,0.6,0.5,1
					c0,0.4-0.2,0.8-0.5,1.1c-0.3,0.3-0.7,0.4-1.1,0.4s-0.8-0.1-1.1-0.4C74.7,218,74.5,217.7,74.5,217.2z M74.7,221.4h2.8V233h-2.8
					V221.4z"/>
				<path class="st2" d="M87.4,233.3c-1.1,0-2.2-0.2-3.1-0.7c-0.9-0.5-1.7-1.2-2.2-2.1c-0.6-0.9-0.8-2-0.8-3.3s0.3-2.4,0.9-3.4
					c0.6-0.9,1.3-1.7,2.3-2.2s2-0.8,3.2-0.8s2.1,0.2,2.9,0.7s1.4,1.1,1.8,1.8l-0.2,0.4l0.3-2.4h2.6V233h-2.8v-3l0.3,0.7
					c-0.1,0.2-0.3,0.4-0.6,0.7c-0.3,0.3-0.6,0.6-1.1,0.9c-0.4,0.3-0.9,0.5-1.5,0.7C88.8,233.2,88.1,233.3,87.4,233.3z M88.1,231.2
					c0.7,0,1.3-0.1,1.9-0.4c0.6-0.2,1-0.6,1.4-1c0.4-0.4,0.6-1,0.8-1.6v-2.3c-0.2-0.6-0.4-1-0.8-1.5c-0.4-0.4-0.9-0.7-1.4-1
					c-0.6-0.2-1.2-0.3-1.8-0.3c-0.8,0-1.4,0.2-2,0.5s-1.1,0.8-1.5,1.4c-0.4,0.6-0.5,1.3-0.5,2.1c0,0.7,0.2,1.4,0.6,2
					c0.4,0.6,0.9,1.1,1.5,1.5C86.7,231,87.4,231.2,88.1,231.2z"/>
				<path class="st2" d="M102.1,221.4l0.3,3.4l-0.1-0.5c0.3-0.7,0.8-1.3,1.4-1.8c0.6-0.5,1.2-0.9,1.9-1.1c0.7-0.3,1.2-0.4,1.7-0.4
					l-0.1,2.6c-0.9-0.1-1.8,0.1-2.5,0.5c-0.7,0.4-1.3,0.9-1.7,1.6c-0.4,0.6-0.6,1.3-0.6,2.1v5.3h-2.8v-11.6H102.1z"/>
				<path class="st2" d="M116.5,233.3c-1.4,0-2.6-0.3-3.6-0.8c-1-0.5-1.8-1.3-2.3-2.2c-0.6-0.9-0.8-2-0.8-3.2c0-1.1,0.3-2.2,0.9-3.1
					c0.6-0.9,1.4-1.7,2.5-2.2c1-0.6,2.2-0.8,3.4-0.8c1.6,0,3,0.4,4,1.3c1.1,0.9,1.8,2.1,2.2,3.7l-10.2,3.4l-0.7-1.5l8.3-2.9
					l-0.6,0.4c-0.2-0.6-0.6-1.1-1.2-1.6c-0.6-0.4-1.3-0.7-2.2-0.7c-0.8,0-1.4,0.2-2,0.5s-1,0.8-1.4,1.4c-0.3,0.6-0.5,1.3-0.5,2.1
					s0.2,1.5,0.5,2.1c0.3,0.6,0.8,1.1,1.5,1.4c0.6,0.3,1.3,0.5,2.1,0.5c0.5,0,1.1-0.1,1.6-0.3s1-0.4,1.4-0.7l1.2,1.9
					c-0.6,0.4-1.3,0.7-2.1,1S117.3,233.3,116.5,233.3z"/>
				<path class="st2" d="M135.4,217.2c0-0.4,0.2-0.8,0.5-1c0.3-0.3,0.7-0.4,1.1-0.4s0.8,0.1,1.1,0.4c0.3,0.3,0.5,0.6,0.5,1
					c0,0.4-0.2,0.8-0.5,1.1c-0.3,0.3-0.7,0.4-1.1,0.4s-0.8-0.1-1.1-0.4C135.6,218,135.4,217.7,135.4,217.2z M135.6,221.4h2.8V233
					h-2.8V221.4z"/>
				<path class="st2" d="M143.2,211.4h2.8V233h-2.8V211.4z"/>
				<path class="st2" d="M160.1,211.4h2.8V233h-2.8V211.4z"/>
				<path class="st2" d="M167.5,217.2c0-0.4,0.2-0.8,0.5-1c0.3-0.3,0.7-0.4,1.1-0.4s0.8,0.1,1.1,0.4c0.3,0.3,0.5,0.6,0.5,1
					c0,0.4-0.2,0.8-0.5,1.1c-0.3,0.3-0.7,0.4-1.1,0.4s-0.8-0.1-1.1-0.4C167.7,218,167.5,217.7,167.5,217.2z M167.7,221.4h2.8V233
					h-2.8V221.4z"/>
				<path class="st2" d="M185.3,231.9c-0.6,0.4-1.2,0.8-2,1c-0.8,0.2-1.5,0.4-2.3,0.4c-1.3,0-2.5-0.3-3.5-0.8s-1.8-1.2-2.4-2.1
					c-0.6-0.9-0.9-2-0.9-3.2s0.3-2.3,0.9-3.2c0.6-0.9,1.4-1.6,2.4-2.1c1-0.5,2-0.7,3.2-0.7c1,0,1.8,0.1,2.6,0.4
					c0.8,0.3,1.5,0.6,2,1.1l-1.4,1.7c-0.3-0.2-0.8-0.5-1.3-0.7c-0.5-0.2-1.1-0.3-1.7-0.3c-0.7,0-1.4,0.2-2,0.5
					c-0.6,0.3-1.1,0.8-1.4,1.4s-0.5,1.3-0.5,2c0,0.7,0.2,1.4,0.5,2c0.4,0.6,0.9,1.1,1.5,1.4c0.6,0.4,1.4,0.5,2.2,0.5
					c0.5,0,1-0.1,1.4-0.2s0.8-0.4,1.2-0.6L185.3,231.9z"/>
				<path class="st2" d="M194.5,233.3c-1.4,0-2.6-0.3-3.6-0.8c-1-0.5-1.8-1.3-2.3-2.2c-0.6-0.9-0.8-2-0.8-3.2c0-1.1,0.3-2.2,0.9-3.1
					c0.6-0.9,1.4-1.7,2.5-2.2c1-0.6,2.2-0.8,3.4-0.8c1.6,0,3,0.4,4,1.3c1.1,0.9,1.8,2.1,2.2,3.7l-10.2,3.4l-0.7-1.5l8.3-2.9
					l-0.6,0.4c-0.2-0.6-0.6-1.1-1.2-1.6c-0.6-0.4-1.3-0.7-2.2-0.7c-0.8,0-1.4,0.2-2,0.5s-1,0.8-1.4,1.4c-0.3,0.6-0.5,1.3-0.5,2.1
					s0.2,1.5,0.5,2.1c0.3,0.6,0.8,1.1,1.5,1.4c0.6,0.3,1.3,0.5,2.1,0.5c0.5,0,1.1-0.1,1.6-0.3s1-0.4,1.4-0.7l1.2,1.9
					c-0.6,0.4-1.3,0.7-2.1,1S195.3,233.3,194.5,233.3z"/>
				<path class="st2" d="M203.2,227.1c0-1.2,0.3-2.2,0.9-3.1c0.6-0.9,1.4-1.7,2.4-2.2c1-0.5,2.2-0.8,3.5-0.8c1.3,0,2.5,0.3,3.5,0.8
					c1,0.5,1.8,1.3,2.4,2.2c0.6,0.9,0.8,2,0.8,3.1c0,1.2-0.3,2.2-0.8,3.1c-0.6,0.9-1.4,1.7-2.4,2.2c-1,0.6-2.2,0.8-3.5,0.8
					c-1.3,0-2.5-0.3-3.5-0.8c-1-0.5-1.8-1.2-2.4-2.2S203.2,228.4,203.2,227.1z M206,227.1c0,0.7,0.2,1.4,0.5,2
					c0.4,0.6,0.8,1.1,1.4,1.4s1.3,0.5,2,0.5c0.8,0,1.5-0.2,2-0.5c0.6-0.4,1.1-0.8,1.4-1.4c0.3-0.6,0.5-1.3,0.5-2
					c0-0.7-0.2-1.4-0.5-2c-0.3-0.6-0.8-1.1-1.4-1.5c-0.6-0.4-1.3-0.5-2-0.5c-0.8,0-1.4,0.2-2,0.6c-0.6,0.4-1.1,0.9-1.4,1.5
					C206.1,225.8,206,226.4,206,227.1z"/>
				<path class="st2" d="M219.5,230.5c0.3-0.3,0.7-0.4,1.1-0.4c0.4,0,0.7,0.1,1,0.4c0.3,0.3,0.5,0.7,0.5,1.1c0,0.4-0.2,0.8-0.5,1.1
					c-0.3,0.3-0.7,0.4-1,0.4c-0.4,0-0.8-0.1-1.1-0.4c-0.3-0.3-0.5-0.6-0.5-1.1C219.1,231.1,219.2,230.8,219.5,230.5z"/>
			</g>
		</g>
	</g>
</g>
</svg>
