<?xml version="1.0" encoding="utf-8"?>
<!-- Generator: Adobe Illustrator 26.3.1, SVG Export Plug-In . SVG Version: 6.00 Build 0)  -->
<svg version="1.1" id="Livello_1" xmlns="http://www.w3.org/2000/svg" xmlns:xlink="http://www.w3.org/1999/xlink" x="0px" y="0px"
	 viewBox="0 0 672 252" style="enable-background:new 0 0 672 252;" xml:space="preserve">
<style type="text/css">
	.st0{fill:#FFFFFF;}
	.st1{enable-background:new    ;}
	.st2{fill:#846B4A;}
</style>
<g id="Livello_2_00000145778551866171312910000013633207019108701845_">
	<g id="illustrazioni">
		<path class="st0" d="M21.3,0h629.4C662.5,0,672,9.5,672,21.3v209.4c0,11.8-9.5,21.3-21.3,21.3H21.3C9.5,252,0,242.5,0,230.7V21.3
			C0,9.5,9.5,0,21.3,0z"/>
	</g>
	<g id="testi">
		<g>
			<g class="st1">
				<path class="st2" d="M57.1,49.5V28.3h0l11.4,15.3l-1.2-0.3l11.4-15h0v21.1h-2.9V34.6L76,36l-8.2,10.9h-0.1L59.5,36l0.5-1.3v14.8
					H57.1z"/>
				<path class="st2" d="M89.5,49.8c-1.2,0-2.2-0.2-3.2-0.7c-1-0.5-1.7-1.2-2.3-2.1c-0.6-0.9-0.8-2-0.8-3.4c0-1.3,0.3-2.5,0.9-3.4
					c0.6-0.9,1.4-1.7,2.3-2.2c1-0.5,2.1-0.8,3.2-0.8s2.1,0.3,3,0.8c0.8,0.5,1.4,1.1,1.8,1.8l-0.2,0.4l0.3-2.5h2.6v11.7h-2.8v-3.1
					l0.3,0.7c-0.1,0.2-0.3,0.4-0.6,0.7c-0.3,0.3-0.6,0.6-1.1,0.9c-0.4,0.3-0.9,0.6-1.5,0.8C90.9,49.7,90.2,49.8,89.5,49.8z
					 M90.2,47.6c0.7,0,1.3-0.1,1.9-0.4c0.6-0.2,1-0.6,1.4-1s0.6-1,0.8-1.6v-2.3c-0.2-0.6-0.4-1.1-0.8-1.5c-0.4-0.4-0.9-0.8-1.4-1
					c-0.6-0.2-1.2-0.4-1.8-0.4c-0.8,0-1.5,0.2-2.1,0.5c-0.6,0.3-1.1,0.8-1.5,1.4S86,42.7,86,43.5c0,0.8,0.2,1.4,0.6,2.1
					c0.4,0.6,0.9,1.1,1.5,1.5C88.8,47.4,89.5,47.6,90.2,47.6z"/>
				<path class="st2" d="M103.1,32.6h2.9v5.2h3.4v2.1H106v9.6h-2.9v-9.6h-2.3v-2.1h2.3V32.6z"/>
				<path class="st2" d="M113.9,32.6h2.9v5.2h3.4v2.1h-3.4v9.6h-2.9v-9.6h-2.3v-2.1h2.3V32.6z"/>
				<path class="st2" d="M123.4,33.5c0-0.4,0.2-0.8,0.5-1c0.4-0.3,0.7-0.4,1.2-0.4c0.4,0,0.8,0.1,1.1,0.4c0.3,0.3,0.5,0.6,0.5,1
					c0,0.4-0.2,0.8-0.5,1.1c-0.3,0.3-0.7,0.4-1.1,0.4c-0.4,0-0.8-0.1-1.2-0.4C123.5,34.3,123.4,33.9,123.4,33.5z M123.5,37.7h2.8
					v11.7h-2.8V37.7z"/>
				<path class="st2" d="M136.4,49.8c-1.2,0-2.2-0.2-3.2-0.7c-1-0.5-1.7-1.2-2.3-2.1c-0.6-0.9-0.8-2-0.8-3.4c0-1.3,0.3-2.5,0.9-3.4
					c0.6-0.9,1.4-1.7,2.3-2.2c1-0.5,2.1-0.8,3.2-0.8s2.1,0.3,3,0.8c0.8,0.5,1.4,1.1,1.8,1.8l-0.2,0.4l0.3-2.5h2.6v11.7h-2.8v-3.1
					l0.3,0.7c-0.1,0.2-0.3,0.4-0.6,0.7c-0.3,0.3-0.6,0.6-1.1,0.9c-0.4,0.3-0.9,0.6-1.5,0.8C137.8,49.7,137.1,49.8,136.4,49.8z
					 M137.1,47.6c0.7,0,1.3-0.1,1.9-0.4c0.6-0.2,1-0.6,1.4-1s0.6-1,0.8-1.6v-2.3c-0.2-0.6-0.4-1.1-0.8-1.5c-0.4-0.4-0.9-0.8-1.4-1
					c-0.6-0.2-1.2-0.4-1.8-0.4c-0.8,0-1.5,0.2-2.1,0.5c-0.6,0.3-1.1,0.8-1.5,1.4s-0.6,1.3-0.6,2.1c0,0.8,0.2,1.4,0.6,2.1
					c0.4,0.6,0.9,1.1,1.5,1.5C135.7,47.4,136.4,47.6,137.1,47.6z"/>
				<path class="st2" d="M168.5,48.4c-0.6,0.4-1.2,0.8-2,1c-0.8,0.2-1.6,0.4-2.3,0.4c-1.3,0-2.5-0.3-3.6-0.8c-1-0.5-1.8-1.2-2.4-2.2
					c-0.6-0.9-0.9-2-0.9-3.3c0-1.2,0.3-2.3,0.9-3.2c0.6-0.9,1.4-1.6,2.4-2.1c1-0.5,2.1-0.8,3.2-0.8c1,0,1.9,0.1,2.7,0.4
					c0.8,0.3,1.5,0.6,2.1,1.1l-1.4,1.7c-0.3-0.2-0.8-0.5-1.3-0.7c-0.5-0.2-1.1-0.3-1.8-0.3c-0.7,0-1.4,0.2-2,0.5
					c-0.6,0.4-1.1,0.8-1.4,1.4s-0.5,1.3-0.5,2c0,0.7,0.2,1.4,0.5,2c0.4,0.6,0.9,1.1,1.5,1.4c0.6,0.4,1.4,0.5,2.2,0.5
					c0.5,0,1-0.1,1.5-0.2c0.5-0.2,0.9-0.4,1.2-0.6L168.5,48.4z"/>
				<path class="st2" d="M174.6,37.7l0.3,3.4l-0.1-0.5c0.3-0.7,0.8-1.3,1.4-1.8s1.2-0.9,1.9-1.2c0.7-0.3,1.3-0.4,1.7-0.4l-0.1,2.7
					c-1-0.1-1.8,0.1-2.5,0.5c-0.7,0.4-1.3,0.9-1.7,1.6c-0.4,0.7-0.6,1.4-0.6,2.1v5.4H172V37.7H174.6z"/>
				<path class="st2" d="M189.1,49.8c-1.4,0-2.6-0.3-3.7-0.8c-1-0.5-1.8-1.3-2.4-2.2c-0.6-0.9-0.8-2-0.8-3.2c0-1.2,0.3-2.2,0.9-3.1
					c0.6-0.9,1.5-1.7,2.5-2.3c1-0.6,2.2-0.9,3.5-0.9c1.6,0,3,0.5,4.1,1.4c1.1,0.9,1.8,2.2,2.2,3.7l-10.3,3.4l-0.7-1.6l8.4-2.9
					l-0.6,0.4c-0.2-0.6-0.6-1.2-1.2-1.6c-0.6-0.5-1.3-0.7-2.2-0.7c-0.8,0-1.4,0.2-2,0.5c-0.6,0.3-1.1,0.8-1.4,1.4
					c-0.3,0.6-0.5,1.3-0.5,2.1s0.2,1.5,0.5,2.1c0.4,0.6,0.8,1.1,1.5,1.5c0.6,0.3,1.3,0.5,2.1,0.5c0.5,0,1.1-0.1,1.6-0.3
					c0.5-0.2,1-0.4,1.5-0.7l1.3,2c-0.6,0.4-1.3,0.7-2.1,1C190.6,49.6,189.9,49.8,189.1,49.8z"/>
				<path class="st2" d="M202.5,49.7c-0.9,0-1.7-0.1-2.6-0.4c-0.8-0.3-1.5-0.7-2.1-1.3l1.2-1.5c0.5,0.5,1.1,0.8,1.6,1.1
					s1.1,0.4,1.6,0.4c0.4,0,0.8,0,1.1-0.1c0.3-0.1,0.6-0.3,0.8-0.5c0.2-0.2,0.3-0.5,0.3-0.9c0-0.4-0.1-0.8-0.4-1
					c-0.3-0.2-0.7-0.4-1.1-0.6c-0.4-0.2-0.9-0.3-1.4-0.4c-1-0.3-1.8-0.8-2.3-1.3s-0.8-1.3-0.8-2.1c0-0.6,0.2-1.2,0.5-1.7
					s0.8-1,1.5-1.3c0.7-0.3,1.5-0.5,2.4-0.5c0.9,0,1.6,0.1,2.3,0.3c0.7,0.2,1.3,0.5,1.9,1l-1.1,1.6c-0.4-0.4-0.8-0.6-1.3-0.8
					c-0.5-0.2-0.9-0.3-1.3-0.3c-0.4,0-0.7,0.1-1,0.2c-0.3,0.1-0.6,0.3-0.8,0.5c-0.2,0.2-0.3,0.4-0.3,0.8c0,0.4,0.1,0.7,0.4,0.9
					c0.3,0.2,0.7,0.4,1.1,0.6c0.4,0.2,0.9,0.3,1.4,0.5c0.6,0.2,1.1,0.4,1.6,0.7c0.5,0.3,0.9,0.6,1.2,1c0.3,0.4,0.4,0.9,0.4,1.6
					c0,0.7-0.2,1.3-0.5,1.9c-0.4,0.6-0.9,1.1-1.6,1.4C204.5,49.5,203.6,49.7,202.5,49.7z"/>
				<path class="st2" d="M221.3,48.4c-0.6,0.4-1.2,0.8-2,1c-0.8,0.2-1.6,0.4-2.3,0.4c-1.3,0-2.5-0.3-3.6-0.8c-1-0.5-1.8-1.2-2.4-2.2
					c-0.6-0.9-0.9-2-0.9-3.3c0-1.2,0.3-2.3,0.9-3.2c0.6-0.9,1.4-1.6,2.4-2.1c1-0.5,2.1-0.8,3.2-0.8c1,0,1.9,0.1,2.7,0.4
					c0.8,0.3,1.5,0.6,2.1,1.1l-1.4,1.7c-0.3-0.2-0.8-0.5-1.3-0.7c-0.5-0.2-1.1-0.3-1.8-0.3c-0.7,0-1.4,0.2-2,0.5
					c-0.6,0.4-1.1,0.8-1.4,1.4s-0.5,1.3-0.5,2c0,0.7,0.2,1.4,0.5,2c0.4,0.6,0.9,1.1,1.5,1.4c0.6,0.4,1.4,0.5,2.2,0.5
					c0.5,0,1-0.1,1.5-0.2c0.5-0.2,0.9-0.4,1.2-0.6L221.3,48.4z"/>
				<path class="st2" d="M230.7,49.8c-1.4,0-2.6-0.3-3.7-0.8c-1-0.5-1.8-1.3-2.4-2.2c-0.6-0.9-0.8-2-0.8-3.2c0-1.2,0.3-2.2,0.9-3.1
					c0.6-0.9,1.5-1.7,2.5-2.3c1-0.6,2.2-0.9,3.5-0.9c1.6,0,3,0.5,4.1,1.4c1.1,0.9,1.8,2.2,2.2,3.7l-10.3,3.4l-0.7-1.6l8.4-2.9
					l-0.6,0.4c-0.2-0.6-0.6-1.2-1.2-1.6c-0.6-0.5-1.3-0.7-2.2-0.7c-0.8,0-1.4,0.2-2,0.5c-0.6,0.3-1.1,0.8-1.4,1.4
					c-0.3,0.6-0.5,1.3-0.5,2.1s0.2,1.5,0.5,2.1c0.4,0.6,0.8,1.1,1.5,1.5c0.6,0.3,1.3,0.5,2.1,0.5c0.5,0,1.1-0.1,1.6-0.3
					c0.5-0.2,1-0.4,1.5-0.7l1.3,2c-0.6,0.4-1.3,0.7-2.1,1C232.2,49.6,231.4,49.8,230.7,49.8z"/>
				<path class="st2" d="M255.2,49.8c-1.2,0-2.2-0.2-3.2-0.7c-1-0.5-1.7-1.2-2.3-2.1c-0.6-0.9-0.8-2-0.8-3.4c0-1.3,0.3-2.5,0.9-3.4
					c0.6-0.9,1.4-1.7,2.3-2.2c1-0.5,2.1-0.8,3.2-0.8s2.1,0.3,3,0.8c0.8,0.5,1.4,1.1,1.8,1.8l-0.2,0.4l0.3-2.5h2.6v11.7H260v-3.1
					l0.3,0.7c-0.1,0.2-0.3,0.4-0.6,0.7c-0.3,0.3-0.6,0.6-1.1,0.9c-0.4,0.3-0.9,0.6-1.5,0.8C256.6,49.7,256,49.8,255.2,49.8z
					 M256,47.6c0.7,0,1.3-0.1,1.9-0.4c0.6-0.2,1-0.6,1.4-1s0.6-1,0.8-1.6v-2.3c-0.2-0.6-0.4-1.1-0.8-1.5c-0.4-0.4-0.9-0.8-1.4-1
					c-0.6-0.2-1.2-0.4-1.8-0.4c-0.8,0-1.5,0.2-2.1,0.5c-0.6,0.3-1.1,0.8-1.5,1.4s-0.6,1.3-0.6,2.1c0,0.8,0.2,1.4,0.6,2.1
					c0.4,0.6,0.9,1.1,1.5,1.5C254.5,47.4,255.2,47.6,256,47.6z"/>
				<path class="st2" d="M277.9,49.5V28.3h0l11.4,15.3l-1.2-0.3l11.4-15h0v21.1h-2.9V34.6l0.2,1.4l-8.2,10.9h-0.1L280.2,36l0.5-1.3
					v14.8H277.9z"/>
				<path class="st2" d="M304.8,33.5c0-0.4,0.2-0.8,0.5-1c0.3-0.3,0.7-0.4,1.2-0.4c0.4,0,0.8,0.1,1.1,0.4c0.3,0.3,0.5,0.6,0.5,1
					c0,0.4-0.2,0.8-0.5,1.1c-0.3,0.3-0.7,0.4-1.1,0.4c-0.4,0-0.8-0.1-1.2-0.4C305,34.3,304.8,33.9,304.8,33.5z M305,37.7h2.8v11.7
					H305V37.7z"/>
				<path class="st2" d="M312.7,27.5h2.8v21.9h-2.8V27.5z"/>
				<path class="st2" d="M325.5,49.8c-1.2,0-2.2-0.2-3.2-0.7c-1-0.5-1.7-1.2-2.3-2.1c-0.6-0.9-0.8-2-0.8-3.4c0-1.3,0.3-2.5,0.9-3.4
					c0.6-0.9,1.4-1.7,2.3-2.2c1-0.5,2.1-0.8,3.2-0.8s2.1,0.3,3,0.8c0.8,0.5,1.4,1.1,1.8,1.8l-0.2,0.4l0.3-2.5h2.6v11.7h-2.8v-3.1
					l0.3,0.7c-0.1,0.2-0.3,0.4-0.6,0.7c-0.3,0.3-0.6,0.6-1.1,0.9c-0.4,0.3-0.9,0.6-1.5,0.8S326.3,49.8,325.5,49.8z M326.3,47.6
					c0.7,0,1.3-0.1,1.9-0.4c0.6-0.2,1-0.6,1.4-1s0.6-1,0.8-1.6v-2.3c-0.2-0.6-0.4-1.1-0.8-1.5s-0.9-0.8-1.4-1
					c-0.6-0.2-1.2-0.4-1.8-0.4c-0.8,0-1.5,0.2-2.1,0.5c-0.6,0.3-1.1,0.8-1.5,1.4c-0.4,0.6-0.6,1.3-0.6,2.1c0,0.8,0.2,1.4,0.6,2.1
					c0.4,0.6,0.9,1.1,1.5,1.5C324.9,47.4,325.5,47.6,326.3,47.6z"/>
				<path class="st2" d="M340.5,37.7l0.2,2.9l-0.1-0.5c0.4-0.9,1-1.6,1.9-2.1s2-0.8,3.2-0.8c1.2,0,2.1,0.3,2.9,1
					c0.8,0.7,1.1,1.5,1.2,2.5v8.7h-2.8v-7.8c0-0.6-0.2-1.1-0.6-1.5c-0.4-0.4-0.9-0.6-1.7-0.6c-0.7,0-1.3,0.2-1.9,0.6
					c-0.6,0.4-1.1,0.9-1.4,1.6c-0.3,0.7-0.5,1.4-0.5,2.3v5.5H338V37.7H340.5z"/>
				<path class="st2" d="M353.5,43.5c0-1.2,0.3-2.2,0.9-3.2c0.6-0.9,1.4-1.7,2.5-2.2s2.2-0.8,3.6-0.8c1.3,0,2.5,0.3,3.5,0.8
					c1,0.5,1.8,1.3,2.4,2.2c0.6,0.9,0.9,2,0.9,3.2c0,1.2-0.3,2.2-0.9,3.2c-0.6,0.9-1.4,1.7-2.4,2.3c-1,0.6-2.2,0.8-3.6,0.8
					c-1.3,0-2.5-0.3-3.6-0.8c-1-0.5-1.8-1.2-2.4-2.2C353.8,45.9,353.5,44.8,353.5,43.5z M356.3,43.5c0,0.8,0.2,1.4,0.5,2.1
					c0.4,0.6,0.8,1.1,1.4,1.5c0.6,0.4,1.3,0.5,2,0.5c0.8,0,1.5-0.2,2.1-0.5c0.6-0.4,1.1-0.8,1.4-1.5s0.5-1.3,0.5-2.1
					c0-0.8-0.2-1.4-0.5-2.1s-0.8-1.1-1.4-1.5c-0.6-0.4-1.3-0.6-2.1-0.6c-0.8,0-1.4,0.2-2.1,0.6s-1.1,0.9-1.4,1.5
					C356.5,42.1,356.3,42.8,356.3,43.5z"/>
				<path class="st2" d="M380.3,33.5c0-0.4,0.2-0.8,0.5-1c0.3-0.3,0.7-0.4,1.2-0.4c0.4,0,0.8,0.1,1.1,0.4c0.3,0.3,0.5,0.6,0.5,1
					c0,0.4-0.2,0.8-0.5,1.1c-0.3,0.3-0.7,0.4-1.1,0.4c-0.4,0-0.8-0.1-1.2-0.4C380.5,34.3,380.3,33.9,380.3,33.5z M380.5,37.7h2.8
					v11.7h-2.8V37.7z"/>
				<path class="st2" d="M390.7,37.7l0.2,2.9l-0.1-0.5c0.4-0.9,1-1.6,1.9-2.1s2-0.8,3.2-0.8c1.2,0,2.1,0.3,2.9,1
					c0.8,0.7,1.1,1.5,1.2,2.5v8.7h-2.8v-7.8c0-0.6-0.2-1.1-0.6-1.5c-0.4-0.4-0.9-0.6-1.7-0.6c-0.7,0-1.3,0.2-1.9,0.6
					c-0.6,0.4-1.1,0.9-1.4,1.6c-0.3,0.7-0.5,1.4-0.5,2.3v5.5h-2.8V37.7H390.7z"/>
				<path class="st2" d="M418.2,49.9c-1.2,0-2.1-0.3-2.8-1c-0.7-0.7-1.1-1.5-1.2-2.5v-8.7h2.8v7.7c0,0.6,0.2,1.1,0.6,1.5
					c0.4,0.4,0.9,0.6,1.7,0.6c0.7,0,1.3-0.2,1.8-0.6c0.6-0.4,1-0.9,1.3-1.6c0.3-0.7,0.5-1.4,0.5-2.3v-5.5h2.8v11.7h-2.6l-0.2-2.9
					l0.2,0.5c-0.3,0.5-0.6,1-1.1,1.4s-1.1,0.8-1.7,1C419.7,49.8,419,49.9,418.2,49.9z"/>
				<path class="st2" d="M433.2,37.7l0.2,2.9l-0.1-0.5c0.4-0.9,1-1.6,1.9-2.1s2-0.8,3.2-0.8c1.2,0,2.1,0.3,2.9,1
					c0.8,0.7,1.1,1.5,1.2,2.5v8.7h-2.8v-7.8c0-0.6-0.2-1.1-0.6-1.5c-0.4-0.4-0.9-0.6-1.7-0.6c-0.7,0-1.3,0.2-1.9,0.6
					c-0.6,0.4-1.1,0.9-1.4,1.6c-0.3,0.7-0.5,1.4-0.5,2.3v5.5h-2.8V37.7H433.2z"/>
				<path class="st2" d="M452.5,49.8c-1.2,0-2.2-0.2-3.2-0.7c-1-0.5-1.7-1.2-2.3-2.1c-0.6-0.9-0.8-2-0.8-3.4c0-1.3,0.3-2.5,0.9-3.4
					c0.6-0.9,1.4-1.7,2.3-2.2c1-0.5,2.1-0.8,3.2-0.8s2.1,0.3,3,0.8c0.8,0.5,1.4,1.1,1.8,1.8l-0.2,0.4l0.3-2.5h2.6v11.7h-2.8v-3.1
					l0.3,0.7c-0.1,0.2-0.3,0.4-0.6,0.7c-0.3,0.3-0.6,0.6-1.1,0.9c-0.4,0.3-0.9,0.6-1.5,0.8S453.2,49.8,452.5,49.8z M453.2,47.6
					c0.7,0,1.3-0.1,1.9-0.4c0.6-0.2,1-0.6,1.4-1s0.6-1,0.8-1.6v-2.3c-0.2-0.6-0.4-1.1-0.8-1.5s-0.9-0.8-1.4-1
					c-0.6-0.2-1.2-0.4-1.8-0.4c-0.8,0-1.5,0.2-2.1,0.5c-0.6,0.3-1.1,0.8-1.5,1.4c-0.4,0.6-0.6,1.3-0.6,2.1c0,0.8,0.2,1.4,0.6,2.1
					c0.4,0.6,0.9,1.1,1.5,1.5C451.8,47.4,452.5,47.6,453.2,47.6z"/>
			</g>
		</g>
		<g>
			<g class="st1">
				<path class="st2" d="M475.5,49.5v-9.4h-2.2v-2.4h2.2v-4.9c0-1.7,0.4-3,1.2-3.9s2-1.4,3.6-1.4c0.4,0,0.9,0.1,1.4,0.2
					c0.5,0.1,0.9,0.3,1.3,0.6l-1.2,1.9c-0.2-0.2-0.4-0.3-0.6-0.4c-0.2-0.1-0.5-0.1-0.7-0.1c-0.7,0-1.3,0.2-1.7,0.7
					c-0.4,0.5-0.6,1.3-0.6,2.4v4.9h3.9v2.4h-3.9v9.4H475.5z"/>
			</g>
		</g>
		<g>
			<g class="st1">
				<path class="st2" d="M490.3,49.8c-1.2,0-2.2-0.2-3.2-0.7c-1-0.5-1.7-1.2-2.3-2.1c-0.6-0.9-0.8-2-0.8-3.4c0-1.3,0.3-2.5,0.9-3.4
					c0.6-0.9,1.4-1.7,2.3-2.2c1-0.5,2.1-0.8,3.2-0.8s2.1,0.3,3,0.8c0.8,0.5,1.4,1.1,1.8,1.8l-0.2,0.4l0.3-2.5h2.6v11.7h-2.8v-3.1
					l0.3,0.7c-0.1,0.2-0.3,0.4-0.6,0.7c-0.3,0.3-0.6,0.6-1.1,0.9c-0.4,0.3-0.9,0.6-1.5,0.8S491,49.8,490.3,49.8z M491,47.6
					c0.7,0,1.3-0.1,1.9-0.4c0.6-0.2,1-0.6,1.4-1s0.6-1,0.8-1.6v-2.3c-0.2-0.6-0.4-1.1-0.8-1.5s-0.9-0.8-1.4-1
					c-0.6-0.2-1.2-0.4-1.8-0.4c-0.8,0-1.5,0.2-2.1,0.5c-0.6,0.3-1.1,0.8-1.5,1.4c-0.4,0.6-0.6,1.3-0.6,2.1c0,0.8,0.2,1.4,0.6,2.1
					c0.4,0.6,0.9,1.1,1.5,1.5C489.6,47.4,490.3,47.6,491,47.6z"/>
				<path class="st2" d="M505.3,37.7l0.2,2.6l-0.2-0.2c0.5-0.9,1.1-1.6,2-2.1c0.9-0.5,1.8-0.8,3-0.8c0.7,0,1.3,0.1,1.8,0.3
					c0.5,0.2,1,0.5,1.3,0.9c0.4,0.4,0.6,0.9,0.7,1.4L514,40c0.5-0.9,1.1-1.5,2-2c0.9-0.5,1.7-0.7,2.7-0.7c1.2,0,2.2,0.3,2.9,1
					s1.1,1.5,1.1,2.5v8.7h-2.8v-7.7c0-0.6-0.2-1.1-0.5-1.5c-0.3-0.4-0.8-0.6-1.5-0.6c-0.7,0-1.4,0.2-1.9,0.6c-0.6,0.4-1,0.9-1.3,1.6
					c-0.3,0.7-0.5,1.4-0.5,2.1v5.6h-2.8v-7.7c0-0.6-0.2-1.1-0.5-1.5c-0.3-0.4-0.8-0.6-1.5-0.6c-0.7,0-1.4,0.2-1.9,0.6
					c-0.6,0.4-1,0.9-1.3,1.6c-0.3,0.7-0.5,1.4-0.5,2.2v5.5h-2.8V37.7H505.3z"/>
				<path class="st2" d="M527.3,33.5c0-0.4,0.2-0.8,0.5-1c0.3-0.3,0.7-0.4,1.2-0.4c0.4,0,0.8,0.1,1.1,0.4c0.3,0.3,0.5,0.6,0.5,1
					c0,0.4-0.2,0.8-0.5,1.1c-0.3,0.3-0.7,0.4-1.1,0.4c-0.4,0-0.8-0.1-1.2-0.4C527.5,34.3,527.3,33.9,527.3,33.5z M527.5,37.7h2.8
					v11.7h-2.8V37.7z"/>
				<path class="st2" d="M541.2,55.3c-0.9,0-1.7-0.1-2.4-0.3c-0.7-0.2-1.4-0.5-1.9-0.9c-0.6-0.4-1.1-0.8-1.7-1.2l1.7-1.8
					c0.7,0.6,1.3,1,2,1.3c0.7,0.3,1.4,0.5,2.3,0.5c0.9,0,1.7-0.1,2.4-0.4c0.7-0.3,1.1-0.7,1.5-1.2c0.3-0.5,0.5-1.1,0.5-1.8l0-3.2
					l0.2,0.5c-0.4,0.8-1,1.5-2,2.1s-2.1,0.8-3.4,0.8c-1.1,0-2.2-0.3-3.1-0.8s-1.7-1.3-2.3-2.2s-0.9-2-0.9-3.2c0-1.2,0.3-2.3,0.9-3.3
					c0.6-0.9,1.4-1.7,2.4-2.2c1-0.5,2.1-0.8,3.2-0.8c1.1,0,2.1,0.2,3,0.6c0.9,0.4,1.6,1,2,1.6l-0.2,0.5l0.3-2.3h2.6v11.8
					c0,1.1-0.3,2-0.9,2.9s-1.4,1.6-2.5,2.1C544,55.1,542.7,55.3,541.2,55.3z M536.9,43.5c0,0.8,0.2,1.4,0.6,2.1
					c0.4,0.6,0.9,1.1,1.6,1.5c0.7,0.4,1.4,0.5,2.1,0.5c0.7,0,1.4-0.1,2-0.4c0.6-0.3,1.1-0.6,1.5-1.1c0.4-0.5,0.7-1,0.8-1.5v-2.4
					c-0.2-0.6-0.5-1.1-0.9-1.5c-0.4-0.4-0.9-0.7-1.5-1c-0.6-0.2-1.2-0.4-1.9-0.4c-0.8,0-1.5,0.2-2.1,0.5c-0.7,0.3-1.2,0.8-1.6,1.4
					S536.9,42.7,536.9,43.5z"/>
				<path class="st2" d="M553.2,27.5h2.8v21.9h-2.8V27.5z"/>
				<path class="st2" d="M560.7,33.5c0-0.4,0.2-0.8,0.5-1c0.3-0.3,0.7-0.4,1.2-0.4c0.4,0,0.8,0.1,1.1,0.4c0.3,0.3,0.5,0.6,0.5,1
					c0,0.4-0.2,0.8-0.5,1.1c-0.3,0.3-0.7,0.4-1.1,0.4c-0.4,0-0.8-0.1-1.2-0.4C560.8,34.3,560.7,33.9,560.7,33.5z M560.8,37.7h2.8
					v11.7h-2.8V37.7z"/>
				<path class="st2" d="M573.7,49.8c-1.2,0-2.2-0.2-3.2-0.7c-1-0.5-1.7-1.2-2.3-2.1c-0.6-0.9-0.8-2-0.8-3.4c0-1.3,0.3-2.5,0.9-3.4
					c0.6-0.9,1.4-1.7,2.3-2.2c1-0.5,2.1-0.8,3.2-0.8s2.1,0.3,3,0.8c0.8,0.5,1.4,1.1,1.8,1.8l-0.2,0.4l0.3-2.5h2.6v11.7h-2.8v-3.1
					l0.3,0.7c-0.1,0.2-0.3,0.4-0.6,0.7c-0.3,0.3-0.6,0.6-1.1,0.9c-0.4,0.3-0.9,0.6-1.5,0.8S574.4,49.8,573.7,49.8z M574.5,47.6
					c0.7,0,1.3-0.1,1.9-0.4c0.6-0.2,1-0.6,1.4-1s0.6-1,0.8-1.6v-2.3c-0.2-0.6-0.4-1.1-0.8-1.5s-0.9-0.8-1.4-1
					c-0.6-0.2-1.2-0.4-1.8-0.4c-0.8,0-1.5,0.2-2.1,0.5c-0.6,0.3-1.1,0.8-1.5,1.4c-0.4,0.6-0.6,1.3-0.6,2.1c0,0.8,0.2,1.4,0.6,2.1
					c0.4,0.6,0.9,1.1,1.5,1.5C573,47.4,573.7,47.6,574.5,47.6z"/>
			</g>
		</g>
		<g>
			<g class="st1">
				<path class="st2" d="M64,83.8c-1.2,0-2.2-0.2-3.1-0.7s-1.6-1.1-2.1-1.8l0.3-0.8v3h-2.8V61.6h2.8v12.9l-0.1-1
					c0.5-0.6,1.2-1.1,2.1-1.5c0.9-0.4,2-0.6,3.1-0.6c1.1,0,2.1,0.3,3,0.8c0.9,0.5,1.7,1.2,2.2,2.1c0.6,0.9,0.8,2,0.8,3.2
					c0,1.3-0.3,2.5-0.9,3.4c-0.6,1-1.4,1.7-2.4,2.2C66.2,83.5,65.2,83.8,64,83.8z M63.4,81.5c0.8,0,1.5-0.2,2.2-0.5
					c0.6-0.4,1.1-0.9,1.5-1.5c0.4-0.6,0.5-1.3,0.5-2.1c0-0.8-0.2-1.4-0.6-2.1c-0.4-0.6-0.9-1.1-1.5-1.4c-0.6-0.3-1.3-0.5-2.1-0.5
					c-0.7,0-1.3,0.1-1.9,0.4c-0.6,0.2-1.1,0.6-1.5,1c-0.4,0.4-0.7,0.9-0.9,1.5v2.4c0.2,0.5,0.4,1,0.8,1.5c0.4,0.4,0.9,0.8,1.5,1
					S62.7,81.5,63.4,81.5z"/>
				<path class="st2" d="M80,83.8c-1.4,0-2.6-0.3-3.7-0.8c-1-0.5-1.8-1.3-2.4-2.2c-0.6-0.9-0.8-2-0.8-3.2c0-1.2,0.3-2.2,0.9-3.1
					c0.6-0.9,1.5-1.7,2.5-2.3c1-0.6,2.2-0.9,3.5-0.9c1.6,0,3,0.5,4.1,1.4c1.1,0.9,1.8,2.2,2.2,3.7l-10.3,3.4l-0.7-1.6l8.4-2.9
					l-0.6,0.4c-0.2-0.6-0.6-1.2-1.2-1.6c-0.6-0.5-1.3-0.7-2.2-0.7c-0.8,0-1.4,0.2-2,0.5c-0.6,0.3-1.1,0.8-1.4,1.4
					c-0.3,0.6-0.5,1.3-0.5,2.1s0.2,1.5,0.5,2.1c0.4,0.6,0.8,1.1,1.5,1.5c0.6,0.3,1.3,0.5,2.1,0.5c0.5,0,1.1-0.1,1.6-0.3
					c0.5-0.2,1-0.4,1.5-0.7l1.3,2c-0.6,0.4-1.3,0.7-2.1,1C81.5,83.7,80.8,83.8,80,83.8z"/>
				<path class="st2" d="M92.4,71.8l0.2,2.9l-0.1-0.5c0.4-0.9,1-1.6,1.9-2.1s2-0.8,3.2-0.8c1.2,0,2.1,0.3,2.9,1
					c0.8,0.7,1.1,1.5,1.2,2.5v8.7h-2.8v-7.8c0-0.6-0.2-1.1-0.6-1.5c-0.4-0.4-0.9-0.6-1.7-0.6c-0.7,0-1.3,0.2-1.9,0.6
					c-0.6,0.4-1.1,0.9-1.4,1.6c-0.3,0.7-0.5,1.4-0.5,2.3v5.5h-2.8V71.8H92.4z"/>
				<path class="st2" d="M112.3,83.8c-1.4,0-2.6-0.3-3.7-0.8c-1-0.5-1.8-1.3-2.4-2.2c-0.6-0.9-0.8-2-0.8-3.2c0-1.2,0.3-2.2,0.9-3.1
					c0.6-0.9,1.5-1.7,2.5-2.3c1-0.6,2.2-0.9,3.5-0.9c1.6,0,3,0.5,4.1,1.4c1.1,0.9,1.8,2.2,2.2,3.7l-10.3,3.4l-0.7-1.6l8.4-2.9
					l-0.6,0.4c-0.2-0.6-0.6-1.2-1.2-1.6c-0.6-0.5-1.3-0.7-2.2-0.7c-0.8,0-1.4,0.2-2,0.5c-0.6,0.3-1.1,0.8-1.4,1.4
					c-0.3,0.6-0.5,1.3-0.5,2.1s0.2,1.5,0.5,2.1c0.4,0.6,0.8,1.1,1.5,1.5c0.6,0.3,1.3,0.5,2.1,0.5c0.5,0,1.1-0.1,1.6-0.3
					c0.5-0.2,1-0.4,1.5-0.7l1.3,2c-0.6,0.4-1.3,0.7-2.1,1C113.8,83.7,113,83.8,112.3,83.8z"/>
				<path class="st2" d="M125.6,83.7c-0.9,0-1.7-0.1-2.6-0.4c-0.8-0.3-1.5-0.7-2.1-1.3l1.2-1.5c0.5,0.5,1.1,0.8,1.6,1.1
					s1.1,0.4,1.6,0.4c0.4,0,0.8,0,1.1-0.1c0.3-0.1,0.6-0.3,0.8-0.5c0.2-0.2,0.3-0.5,0.3-0.9c0-0.4-0.1-0.8-0.4-1
					c-0.3-0.2-0.7-0.4-1.1-0.6c-0.4-0.2-0.9-0.3-1.4-0.4c-1-0.3-1.8-0.8-2.3-1.3s-0.8-1.3-0.8-2.1c0-0.6,0.2-1.2,0.5-1.7
					s0.8-1,1.5-1.3c0.7-0.3,1.5-0.5,2.4-0.5c0.9,0,1.6,0.1,2.3,0.3c0.7,0.2,1.3,0.5,1.9,1l-1.1,1.6c-0.4-0.4-0.8-0.6-1.3-0.8
					c-0.5-0.2-0.9-0.3-1.3-0.3c-0.4,0-0.7,0.1-1,0.2c-0.3,0.1-0.6,0.3-0.8,0.5c-0.2,0.2-0.3,0.4-0.3,0.8c0,0.4,0.1,0.7,0.4,0.9
					c0.3,0.2,0.7,0.4,1.1,0.6c0.4,0.2,0.9,0.3,1.4,0.5c0.6,0.2,1.1,0.4,1.6,0.7c0.5,0.3,0.9,0.6,1.2,1c0.3,0.4,0.4,0.9,0.4,1.6
					c0,0.7-0.2,1.3-0.5,1.9c-0.4,0.6-0.9,1.1-1.6,1.4C127.6,83.6,126.7,83.7,125.6,83.7z"/>
				<path class="st2" d="M135.5,66.6h2.9v5.2h3.4v2.1h-3.4v9.6h-2.9v-9.6h-2.3v-2.1h2.3V66.6z"/>
				<path class="st2" d="M150.3,83.8c-1.2,0-2.2-0.2-3.2-0.7c-1-0.5-1.7-1.2-2.3-2.1c-0.6-0.9-0.8-2-0.8-3.4c0-1.3,0.3-2.5,0.9-3.4
					c0.6-0.9,1.4-1.7,2.3-2.2c1-0.5,2.1-0.8,3.2-0.8s2.1,0.3,3,0.8c0.8,0.5,1.4,1.1,1.8,1.8l-0.2,0.4l0.3-2.5h2.6v11.7h-2.8v-3.1
					l0.3,0.7c-0.1,0.2-0.3,0.4-0.6,0.7c-0.3,0.3-0.6,0.6-1.1,0.9c-0.4,0.3-0.9,0.6-1.5,0.8C151.7,83.7,151.1,83.8,150.3,83.8z
					 M151.1,81.6c0.7,0,1.3-0.1,1.9-0.4c0.6-0.2,1-0.6,1.4-1s0.6-1,0.8-1.6v-2.3c-0.2-0.6-0.4-1.1-0.8-1.5c-0.4-0.4-0.9-0.8-1.4-1
					c-0.6-0.2-1.2-0.4-1.8-0.4c-0.8,0-1.5,0.2-2.1,0.5c-0.6,0.3-1.1,0.8-1.5,1.4s-0.6,1.3-0.6,2.1c0,0.8,0.2,1.4,0.6,2.1
					c0.4,0.6,0.9,1.1,1.5,1.5C149.7,81.4,150.4,81.6,151.1,81.6z"/>
				<path class="st2" d="M165.3,71.8l0.2,2.9l-0.1-0.5c0.4-0.9,1-1.6,1.9-2.1s2-0.8,3.2-0.8c1.2,0,2.1,0.3,2.9,1
					c0.8,0.7,1.1,1.5,1.2,2.5v8.7h-2.8v-7.8c0-0.6-0.2-1.1-0.6-1.5c-0.4-0.4-0.9-0.6-1.7-0.6c-0.7,0-1.3,0.2-1.9,0.6
					c-0.6,0.4-1.1,0.9-1.4,1.6c-0.3,0.7-0.5,1.4-0.5,2.3v5.5h-2.8V71.8H165.3z"/>
				<path class="st2" d="M180.6,66.6h2.9v5.2h3.4v2.1h-3.4v9.6h-2.9v-9.6h-2.3v-2.1h2.3V66.6z"/>
				<path class="st2" d="M196,83.8c-1.4,0-2.6-0.3-3.7-0.8c-1-0.5-1.8-1.3-2.4-2.2c-0.6-0.9-0.8-2-0.8-3.2c0-1.2,0.3-2.2,0.9-3.1
					c0.6-0.9,1.5-1.7,2.5-2.3c1-0.6,2.2-0.9,3.5-0.9c1.6,0,3,0.5,4.1,1.4c1.1,0.9,1.8,2.2,2.2,3.7l-10.3,3.4l-0.7-1.6l8.4-2.9
					l-0.6,0.4c-0.2-0.6-0.6-1.2-1.2-1.6c-0.6-0.5-1.3-0.7-2.2-0.7c-0.8,0-1.4,0.2-2,0.5c-0.6,0.3-1.1,0.8-1.4,1.4
					c-0.3,0.6-0.5,1.3-0.5,2.1s0.2,1.5,0.5,2.1c0.4,0.6,0.8,1.1,1.5,1.5c0.6,0.3,1.3,0.5,2.1,0.5c0.5,0,1.1-0.1,1.6-0.3
					c0.5-0.2,1-0.4,1.5-0.7l1.3,2c-0.6,0.4-1.3,0.7-2.1,1C197.5,83.7,196.8,83.8,196,83.8z"/>
				<path class="st2" d="M221.1,83.8c-1.4,0-2.6-0.3-3.7-0.8c-1-0.5-1.8-1.3-2.4-2.2c-0.6-0.9-0.8-2-0.8-3.2c0-1.2,0.3-2.2,0.9-3.1
					c0.6-0.9,1.5-1.7,2.5-2.3c1-0.6,2.2-0.9,3.5-0.9c1.6,0,3,0.5,4.1,1.4c1.1,0.9,1.8,2.2,2.2,3.7l-10.3,3.4l-0.7-1.6l8.4-2.9
					l-0.6,0.4c-0.2-0.6-0.6-1.2-1.2-1.6c-0.6-0.5-1.3-0.7-2.2-0.7c-0.8,0-1.4,0.2-2,0.5c-0.6,0.3-1.1,0.8-1.4,1.4
					c-0.3,0.6-0.5,1.3-0.5,2.1s0.2,1.5,0.5,2.1c0.4,0.6,0.8,1.1,1.5,1.5c0.6,0.3,1.3,0.5,2.1,0.5c0.5,0,1.1-0.1,1.6-0.3
					c0.5-0.2,1-0.4,1.5-0.7l1.3,2c-0.6,0.4-1.3,0.7-2.1,1C222.6,83.7,221.9,83.8,221.1,83.8z"/>
				<path class="st2" d="M244,83.7c-0.9,0-1.7-0.1-2.6-0.4c-0.8-0.3-1.5-0.7-2.1-1.3l1.2-1.5c0.5,0.5,1.1,0.8,1.6,1.1
					s1.1,0.4,1.6,0.4c0.4,0,0.8,0,1.1-0.1c0.3-0.1,0.6-0.3,0.8-0.5c0.2-0.2,0.3-0.5,0.3-0.9c0-0.4-0.1-0.8-0.4-1
					c-0.3-0.2-0.7-0.4-1.1-0.6c-0.4-0.2-0.9-0.3-1.4-0.4c-1-0.3-1.8-0.8-2.3-1.3s-0.8-1.3-0.8-2.1c0-0.6,0.2-1.2,0.5-1.7
					s0.8-1,1.5-1.3c0.7-0.3,1.5-0.5,2.4-0.5c0.9,0,1.6,0.1,2.3,0.3c0.7,0.2,1.3,0.5,1.9,1l-1.1,1.6c-0.4-0.4-0.8-0.6-1.3-0.8
					c-0.5-0.2-0.9-0.3-1.3-0.3c-0.4,0-0.7,0.1-1,0.2c-0.3,0.1-0.6,0.3-0.8,0.5c-0.2,0.2-0.3,0.4-0.3,0.8c0,0.4,0.1,0.7,0.4,0.9
					c0.3,0.2,0.7,0.4,1.1,0.6c0.4,0.2,0.9,0.3,1.4,0.5c0.6,0.2,1.1,0.4,1.6,0.7c0.5,0.3,0.9,0.6,1.2,1c0.3,0.4,0.4,0.9,0.4,1.6
					c0,0.7-0.2,1.3-0.5,1.9c-0.4,0.6-0.9,1.1-1.6,1.4C246,83.6,245.1,83.7,244,83.7z"/>
				<path class="st2" d="M258.5,83.8c-1.4,0-2.6-0.3-3.7-0.8c-1-0.5-1.8-1.3-2.4-2.2c-0.6-0.9-0.8-2-0.8-3.2c0-1.2,0.3-2.2,0.9-3.1
					c0.6-0.9,1.5-1.7,2.5-2.3c1-0.6,2.2-0.9,3.5-0.9c1.6,0,3,0.5,4.1,1.4c1.1,0.9,1.8,2.2,2.2,3.7l-10.3,3.4l-0.7-1.6l8.4-2.9
					l-0.6,0.4c-0.2-0.6-0.6-1.2-1.2-1.6c-0.6-0.5-1.3-0.7-2.2-0.7c-0.8,0-1.4,0.2-2,0.5c-0.6,0.3-1.1,0.8-1.4,1.4
					c-0.3,0.6-0.5,1.3-0.5,2.1s0.2,1.5,0.5,2.1c0.4,0.6,0.8,1.1,1.5,1.5c0.6,0.3,1.3,0.5,2.1,0.5c0.5,0,1.1-0.1,1.6-0.3
					c0.5-0.2,1-0.4,1.5-0.7l1.3,2c-0.6,0.4-1.3,0.7-2.1,1C260,83.7,259.2,83.8,258.5,83.8z"/>
				<path class="st2" d="M270.8,71.8l0.3,3.4l-0.1-0.5c0.3-0.7,0.8-1.3,1.4-1.8s1.2-0.9,1.9-1.2c0.7-0.3,1.3-0.4,1.7-0.4l-0.1,2.7
					c-1-0.1-1.8,0.1-2.5,0.5c-0.7,0.4-1.3,0.9-1.7,1.6c-0.4,0.7-0.6,1.4-0.6,2.1v5.4h-2.8V71.8H270.8z"/>
				<path class="st2" d="M285.4,83.8c-1.4,0-2.6-0.3-3.7-0.8c-1-0.5-1.8-1.3-2.4-2.2c-0.6-0.9-0.8-2-0.8-3.2c0-1.2,0.3-2.2,0.9-3.1
					c0.6-0.9,1.5-1.7,2.5-2.3c1-0.6,2.2-0.9,3.5-0.9c1.6,0,3,0.5,4.1,1.4c1.1,0.9,1.8,2.2,2.2,3.7l-10.3,3.4l-0.7-1.6l8.4-2.9
					l-0.6,0.4c-0.2-0.6-0.6-1.2-1.2-1.6c-0.6-0.5-1.3-0.7-2.2-0.7c-0.8,0-1.4,0.2-2,0.5c-0.6,0.3-1.1,0.8-1.4,1.4
					c-0.3,0.6-0.5,1.3-0.5,2.1s0.2,1.5,0.5,2.1c0.4,0.6,0.8,1.1,1.5,1.5c0.6,0.3,1.3,0.5,2.1,0.5c0.5,0,1.1-0.1,1.6-0.3
					c0.5-0.2,1-0.4,1.5-0.7l1.3,2c-0.6,0.4-1.3,0.7-2.1,1C286.9,83.7,286.2,83.8,285.4,83.8z"/>
				<path class="st2" d="M297.8,71.8l0.2,2.9l-0.1-0.5c0.4-0.9,1-1.6,1.9-2.1c0.9-0.5,2-0.8,3.2-0.8c1.2,0,2.1,0.3,2.9,1
					s1.1,1.5,1.2,2.5v8.7h-2.8v-7.8c0-0.6-0.2-1.1-0.6-1.5c-0.4-0.4-0.9-0.6-1.7-0.6c-0.7,0-1.3,0.2-1.9,0.6
					c-0.6,0.4-1.1,0.9-1.4,1.6c-0.3,0.7-0.5,1.4-0.5,2.3v5.5h-2.8V71.8H297.8z"/>
				<path class="st2" d="M317.1,83.8c-1.2,0-2.2-0.2-3.2-0.7c-1-0.5-1.7-1.2-2.3-2.1c-0.6-0.9-0.8-2-0.8-3.4c0-1.3,0.3-2.5,0.9-3.4
					c0.6-0.9,1.4-1.7,2.3-2.2c1-0.5,2.1-0.8,3.2-0.8s2.1,0.3,3,0.8c0.8,0.5,1.4,1.1,1.8,1.8l-0.2,0.4l0.3-2.5h2.6v11.7h-2.8v-3.1
					l0.3,0.7c-0.1,0.2-0.3,0.4-0.6,0.7c-0.3,0.3-0.6,0.6-1.1,0.9c-0.4,0.3-0.9,0.6-1.5,0.8S317.8,83.8,317.1,83.8z M317.8,81.6
					c0.7,0,1.3-0.1,1.9-0.4c0.6-0.2,1-0.6,1.4-1s0.6-1,0.8-1.6v-2.3c-0.2-0.6-0.4-1.1-0.8-1.5s-0.9-0.8-1.4-1
					c-0.6-0.2-1.2-0.4-1.8-0.4c-0.8,0-1.5,0.2-2.1,0.5c-0.6,0.3-1.1,0.8-1.5,1.4c-0.4,0.6-0.6,1.3-0.6,2.1c0,0.8,0.2,1.4,0.6,2.1
					c0.4,0.6,0.9,1.1,1.5,1.5C316.4,81.4,317.1,81.6,317.8,81.6z"/>
				<path class="st2" d="M328.6,80.9c0.3-0.3,0.7-0.5,1.1-0.5c0.4,0,0.7,0.2,1,0.5c0.3,0.3,0.5,0.7,0.5,1.1c0,0.5-0.2,0.8-0.5,1.1
					c-0.3,0.3-0.7,0.4-1,0.4c-0.4,0-0.8-0.1-1.1-0.4c-0.3-0.3-0.5-0.6-0.5-1.1C328.1,81.6,328.3,81.2,328.6,80.9z"/>
				<path class="st2" d="M356,66.7c-0.7-0.4-1.6-0.7-2.4-0.9c-0.9-0.3-1.7-0.4-2.6-0.4c-1.2,0-2.1,0.3-2.8,0.8c-0.7,0.5-1,1.2-1,2
					c0,0.6,0.2,1.2,0.7,1.6c0.5,0.4,1,0.8,1.7,1.1c0.7,0.3,1.5,0.6,2.3,0.9c0.7,0.2,1.3,0.5,2,0.8c0.7,0.3,1.3,0.7,1.8,1.1
					c0.5,0.5,1,1,1.3,1.7s0.5,1.5,0.5,2.4c0,1.1-0.3,2.1-0.9,3c-0.6,0.9-1.4,1.6-2.4,2.1c-1.1,0.5-2.3,0.8-3.8,0.8
					c-0.9,0-1.8-0.1-2.7-0.3c-0.9-0.2-1.7-0.5-2.4-0.8s-1.4-0.7-2-1l1.3-2.2c0.5,0.3,1,0.6,1.7,0.9c0.6,0.3,1.3,0.5,2,0.7
					c0.7,0.2,1.3,0.3,2,0.3c0.7,0,1.4-0.1,2-0.3c0.7-0.2,1.2-0.6,1.7-1.1c0.4-0.5,0.7-1.1,0.7-2c0-0.7-0.2-1.3-0.6-1.7
					c-0.4-0.5-0.9-0.9-1.5-1.2s-1.3-0.6-2.1-0.9c-0.7-0.2-1.4-0.5-2.1-0.8c-0.7-0.3-1.3-0.7-1.9-1.1s-1.1-0.9-1.4-1.6
					c-0.4-0.6-0.6-1.4-0.6-2.3c0-1.1,0.3-2,0.8-2.8c0.6-0.8,1.3-1.4,2.3-1.9c1-0.5,2.1-0.7,3.3-0.8c1.4,0,2.6,0.2,3.7,0.5
					c1.1,0.3,2,0.7,2.8,1.2L356,66.7z"/>
				<path class="st2" d="M365.5,84c-1.2,0-2.1-0.3-2.8-1c-0.7-0.7-1.1-1.5-1.2-2.5v-8.7h2.8v7.7c0,0.6,0.2,1.1,0.6,1.5
					c0.4,0.4,0.9,0.6,1.7,0.6c0.7,0,1.3-0.2,1.8-0.6c0.6-0.4,1-0.9,1.3-1.6c0.3-0.7,0.5-1.4,0.5-2.3v-5.5h2.8v11.7h-2.6l-0.2-2.9
					l0.2,0.5c-0.3,0.5-0.6,1-1.1,1.4s-1.1,0.8-1.7,1C367,83.8,366.3,84,365.5,84z"/>
				<path class="st2" d="M376.9,77.5c0-1.2,0.3-2.2,0.9-3.2c0.6-0.9,1.4-1.7,2.5-2.2s2.2-0.8,3.6-0.8c1.3,0,2.5,0.3,3.5,0.8
					c1,0.5,1.8,1.3,2.4,2.2c0.6,0.9,0.9,2,0.9,3.2c0,1.2-0.3,2.2-0.9,3.2c-0.6,0.9-1.4,1.7-2.4,2.3c-1,0.6-2.2,0.8-3.6,0.8
					c-1.3,0-2.5-0.3-3.6-0.8c-1-0.5-1.8-1.2-2.4-2.2C377.2,79.9,376.9,78.8,376.9,77.5z M379.7,77.5c0,0.8,0.2,1.4,0.5,2.1
					c0.4,0.6,0.8,1.1,1.4,1.5c0.6,0.4,1.3,0.5,2,0.5c0.8,0,1.5-0.2,2.1-0.5c0.6-0.4,1.1-0.8,1.4-1.5s0.5-1.3,0.5-2.1
					c0-0.8-0.2-1.4-0.5-2.1s-0.8-1.1-1.4-1.5c-0.6-0.4-1.3-0.6-2.1-0.6c-0.8,0-1.4,0.2-2.1,0.6s-1.1,0.9-1.4,1.5
					C379.9,76.1,379.7,76.8,379.7,77.5z"/>
				<path class="st2" d="M411.2,83.8c-0.9,0-1.8-0.2-2.7-0.6s-1.5-1-2-1.7l0.2-0.8v8.5h-2.8V71.6h2.4l0.4,3l-0.3-0.9
					c0.6-0.7,1.4-1.3,2.3-1.8c0.9-0.5,2-0.7,3.1-0.7c1.2,0,2.2,0.3,3.1,0.8c0.9,0.5,1.7,1.3,2.2,2.2c0.5,1,0.8,2.1,0.8,3.3
					c0,1.2-0.3,2.3-0.9,3.3s-1.4,1.7-2.4,2.2S412.5,83.8,411.2,83.8z M410.6,81.7c0.8,0,1.5-0.2,2.2-0.5c0.7-0.3,1.2-0.8,1.6-1.4
					c0.4-0.6,0.6-1.3,0.6-2.1c0-0.8-0.2-1.5-0.6-2.1c-0.4-0.6-0.9-1.1-1.5-1.4s-1.3-0.5-2.1-0.5c-0.7,0-1.4,0.1-2,0.4
					c-0.6,0.3-1.1,0.6-1.4,1.1s-0.7,1-0.8,1.6v2c0.1,0.6,0.3,1.1,0.7,1.6c0.4,0.5,0.9,0.8,1.4,1.1C409.4,81.5,410,81.7,410.6,81.7z"
					/>
				<path class="st2" d="M426.8,83.8c-1.2,0-2.2-0.2-3.2-0.7c-1-0.5-1.7-1.2-2.3-2.1c-0.6-0.9-0.8-2-0.8-3.4c0-1.3,0.3-2.5,0.9-3.4
					c0.6-0.9,1.4-1.7,2.3-2.2c1-0.5,2.1-0.8,3.2-0.8s2.1,0.3,3,0.8c0.8,0.5,1.4,1.1,1.8,1.8l-0.2,0.4l0.3-2.5h2.6v11.7h-2.8v-3.1
					l0.3,0.7c-0.1,0.2-0.3,0.4-0.6,0.7c-0.3,0.3-0.6,0.6-1.1,0.9c-0.4,0.3-0.9,0.6-1.5,0.8S427.6,83.8,426.8,83.8z M427.6,81.6
					c0.7,0,1.3-0.1,1.9-0.4c0.6-0.2,1-0.6,1.4-1s0.6-1,0.8-1.6v-2.3c-0.2-0.6-0.4-1.1-0.8-1.5s-0.9-0.8-1.4-1
					c-0.6-0.2-1.2-0.4-1.8-0.4c-0.8,0-1.5,0.2-2.1,0.5c-0.6,0.3-1.1,0.8-1.5,1.4c-0.4,0.6-0.6,1.3-0.6,2.1c0,0.8,0.2,1.4,0.6,2.1
					c0.4,0.6,0.9,1.1,1.5,1.5C426.2,81.4,426.8,81.6,427.6,81.6z"/>
				<path class="st2" d="M444.4,83.8c-1.2,0-2.2-0.3-3.1-0.8c-0.9-0.5-1.7-1.3-2.2-2.2c-0.6-1-0.8-2.1-0.8-3.3
					c0-1.3,0.3-2.4,0.9-3.3c0.6-0.9,1.4-1.6,2.3-2.1c1-0.5,2.1-0.7,3.3-0.7c1,0,1.9,0.2,2.8,0.6c0.9,0.4,1.6,0.9,2.1,1.6l-0.1,0.9
					V61.6h2.8v21.9h-2.8v-2.9l0.3,0.7c-0.6,0.7-1.4,1.3-2.3,1.8S445.5,83.8,444.4,83.8z M445.2,81.5c0.7,0,1.4-0.1,2-0.4
					c0.6-0.3,1.1-0.6,1.4-1.1c0.4-0.4,0.7-1,0.8-1.6v-2.2c-0.2-0.6-0.4-1.1-0.9-1.5c-0.4-0.4-0.9-0.8-1.5-1
					c-0.6-0.2-1.2-0.4-1.9-0.4c-0.7,0-1.4,0.2-2.1,0.5c-0.6,0.3-1.2,0.8-1.5,1.4c-0.4,0.6-0.6,1.3-0.6,2.1c0,0.8,0.2,1.5,0.6,2.1
					c0.4,0.6,0.9,1.1,1.5,1.5C443.8,81.4,444.5,81.5,445.2,81.5z"/>
				<path class="st2" d="M459.6,71.8l0.3,3.4l-0.1-0.5c0.3-0.7,0.8-1.3,1.4-1.8s1.2-0.9,1.9-1.2c0.7-0.3,1.3-0.4,1.7-0.4l-0.1,2.7
					c-1-0.1-1.8,0.1-2.5,0.5c-0.7,0.4-1.3,0.9-1.7,1.6c-0.4,0.7-0.6,1.4-0.6,2.1v5.4h-2.8V71.8H459.6z"/>
				<path class="st2" d="M474.2,83.8c-1.4,0-2.6-0.3-3.7-0.8c-1-0.5-1.8-1.3-2.4-2.2c-0.6-0.9-0.8-2-0.8-3.2c0-1.2,0.3-2.2,0.9-3.1
					c0.6-0.9,1.5-1.7,2.5-2.3c1-0.6,2.2-0.9,3.5-0.9c1.6,0,3,0.5,4.1,1.4c1.1,0.9,1.8,2.2,2.2,3.7l-10.3,3.4l-0.7-1.6l8.4-2.9
					l-0.6,0.4c-0.2-0.6-0.6-1.2-1.2-1.6s-1.3-0.7-2.2-0.7c-0.8,0-1.4,0.2-2,0.5c-0.6,0.3-1.1,0.8-1.4,1.4c-0.3,0.6-0.5,1.3-0.5,2.1
					s0.2,1.5,0.5,2.1c0.4,0.6,0.8,1.1,1.5,1.5s1.3,0.5,2.1,0.5c0.5,0,1.1-0.1,1.6-0.3c0.5-0.2,1-0.4,1.5-0.7l1.3,2
					c-0.6,0.4-1.3,0.7-2.1,1C475.7,83.7,474.9,83.8,474.2,83.8z"/>
				<path class="st2" d="M499.3,83.8c-1.4,0-2.6-0.3-3.7-0.8c-1-0.5-1.8-1.3-2.4-2.2c-0.6-0.9-0.8-2-0.8-3.2c0-1.2,0.3-2.2,0.9-3.1
					c0.6-0.9,1.5-1.7,2.5-2.3c1-0.6,2.2-0.9,3.5-0.9c1.6,0,3,0.5,4.1,1.4c1.1,0.9,1.8,2.2,2.2,3.7l-10.3,3.4l-0.7-1.6l8.4-2.9
					l-0.6,0.4c-0.2-0.6-0.6-1.2-1.2-1.6s-1.3-0.7-2.2-0.7c-0.8,0-1.4,0.2-2,0.5c-0.6,0.3-1.1,0.8-1.4,1.4c-0.3,0.6-0.5,1.3-0.5,2.1
					s0.2,1.5,0.5,2.1c0.4,0.6,0.8,1.1,1.5,1.5s1.3,0.5,2.1,0.5c0.5,0,1.1-0.1,1.6-0.3c0.5-0.2,1-0.4,1.5-0.7l1.3,2
					c-0.6,0.4-1.3,0.7-2.1,1C500.8,83.7,500.1,83.8,499.3,83.8z M494.8,65.6h3.1l2.2,3.8h-1.8L494.8,65.6z"/>
				<path class="st2" d="M522.6,84c-1.2,0-2.1-0.3-2.8-1c-0.7-0.7-1.1-1.5-1.2-2.5v-8.7h2.8v7.7c0,0.6,0.2,1.1,0.6,1.5
					c0.4,0.4,0.9,0.6,1.7,0.6c0.7,0,1.3-0.2,1.8-0.6c0.6-0.4,1-0.9,1.3-1.6c0.3-0.7,0.5-1.4,0.5-2.3v-5.5h2.8v11.7h-2.6l-0.2-2.9
					l0.2,0.5c-0.3,0.5-0.6,1-1.1,1.4s-1.1,0.8-1.7,1C524.1,83.8,523.4,84,522.6,84z"/>
				<path class="st2" d="M537.6,71.8l0.2,2.9l-0.1-0.5c0.4-0.9,1-1.6,1.9-2.1s2-0.8,3.2-0.8c1.2,0,2.1,0.3,2.9,1
					c0.8,0.7,1.1,1.5,1.2,2.5v8.7H544v-7.8c0-0.6-0.2-1.1-0.6-1.5c-0.4-0.4-0.9-0.6-1.7-0.6c-0.7,0-1.3,0.2-1.9,0.6
					c-0.6,0.4-1.1,0.9-1.4,1.6c-0.3,0.7-0.5,1.4-0.5,2.3v5.5H535V71.8H537.6z"/>
			</g>
		</g>
		<g>
			<g class="st1">
				<path class="st2" d="M61.6,117.8c-1.2,0-2.2-0.2-3.2-0.7c-1-0.5-1.7-1.2-2.3-2.1c-0.6-0.9-0.8-2-0.8-3.4c0-1.3,0.3-2.5,0.9-3.4
					c0.6-0.9,1.4-1.7,2.3-2.2c1-0.5,2.1-0.8,3.2-0.8s2.1,0.3,3,0.8c0.8,0.5,1.4,1.1,1.8,1.8l-0.2,0.4l0.3-2.5h2.6v11.7h-2.8v-3.1
					l0.3,0.7c-0.1,0.2-0.3,0.4-0.6,0.7c-0.3,0.3-0.6,0.6-1.1,0.9c-0.4,0.3-0.9,0.6-1.5,0.8C63,117.7,62.3,117.8,61.6,117.8z
					 M62.4,115.6c0.7,0,1.3-0.1,1.9-0.4c0.6-0.2,1-0.6,1.4-1s0.6-1,0.8-1.6v-2.3c-0.2-0.6-0.4-1.1-0.8-1.5c-0.4-0.4-0.9-0.8-1.4-1
					c-0.6-0.2-1.2-0.4-1.8-0.4c-0.8,0-1.5,0.2-2.1,0.5c-0.6,0.3-1.1,0.8-1.5,1.4s-0.6,1.3-0.6,2.1c0,0.8,0.2,1.4,0.6,2.1
					c0.4,0.6,0.9,1.1,1.5,1.5C60.9,115.5,61.6,115.6,62.4,115.6z"/>
				<path class="st2" d="M79.1,117.9l-6.9-12.1h3.3l4.7,9.3l-1.7-0.1l4.3-9.2h3.1l-6.6,12.1H79.1z"/>
				<path class="st2" d="M94,117.9l-6.9-12.1h3.3l4.7,9.3l-1.7-0.1l4.3-9.2h3.1l-6.6,12.1H94z"/>
				<path class="st2" d="M102.7,111.5c0-1.2,0.3-2.2,0.9-3.2c0.6-0.9,1.4-1.7,2.5-2.2s2.2-0.8,3.6-0.8c1.3,0,2.5,0.3,3.5,0.8
					c1,0.5,1.8,1.3,2.4,2.2c0.6,0.9,0.9,2,0.9,3.2c0,1.2-0.3,2.2-0.9,3.2c-0.6,0.9-1.4,1.7-2.4,2.3c-1,0.6-2.2,0.8-3.6,0.8
					c-1.3,0-2.5-0.3-3.6-0.8c-1-0.5-1.8-1.2-2.4-2.2S102.7,112.8,102.7,111.5z M105.5,111.6c0,0.8,0.2,1.4,0.5,2.1
					c0.4,0.6,0.8,1.1,1.4,1.5c0.6,0.4,1.3,0.5,2,0.5c0.8,0,1.5-0.2,2.1-0.5c0.6-0.4,1.1-0.8,1.4-1.5c0.4-0.6,0.5-1.3,0.5-2.1
					c0-0.8-0.2-1.4-0.5-2.1c-0.4-0.6-0.8-1.1-1.4-1.5c-0.6-0.4-1.3-0.6-2.1-0.6c-0.8,0-1.4,0.2-2.1,0.6c-0.6,0.4-1.1,0.9-1.4,1.5
					C105.7,110.2,105.5,110.8,105.5,111.6z"/>
				<path class="st2" d="M130.2,116.4c-0.6,0.4-1.2,0.8-2,1c-0.8,0.2-1.6,0.4-2.3,0.4c-1.3,0-2.5-0.3-3.6-0.8
					c-1-0.5-1.8-1.2-2.4-2.2c-0.6-0.9-0.9-2-0.9-3.3c0-1.2,0.3-2.3,0.9-3.2c0.6-0.9,1.4-1.6,2.4-2.1c1-0.5,2.1-0.8,3.2-0.8
					c1,0,1.9,0.1,2.7,0.4c0.8,0.3,1.5,0.6,2.1,1.1l-1.4,1.7c-0.3-0.2-0.8-0.5-1.3-0.7c-0.5-0.2-1.1-0.3-1.8-0.3
					c-0.7,0-1.4,0.2-2,0.5c-0.6,0.4-1.1,0.8-1.4,1.4s-0.5,1.3-0.5,2c0,0.7,0.2,1.4,0.5,2c0.4,0.6,0.9,1.1,1.5,1.4
					c0.6,0.4,1.4,0.5,2.2,0.5c0.5,0,1-0.1,1.5-0.2c0.5-0.2,0.9-0.4,1.2-0.6L130.2,116.4z"/>
				<path class="st2" d="M139,117.8c-1.2,0-2.2-0.2-3.2-0.7c-1-0.5-1.7-1.2-2.3-2.1c-0.6-0.9-0.8-2-0.8-3.4c0-1.3,0.3-2.5,0.9-3.4
					c0.6-0.9,1.4-1.7,2.3-2.2c1-0.5,2.1-0.8,3.2-0.8s2.1,0.3,3,0.8c0.8,0.5,1.4,1.1,1.8,1.8l-0.2,0.4l0.3-2.5h2.6v11.7h-2.8v-3.1
					l0.3,0.7c-0.1,0.2-0.3,0.4-0.6,0.7c-0.3,0.3-0.6,0.6-1.1,0.9c-0.4,0.3-0.9,0.6-1.5,0.8C140.4,117.7,139.8,117.8,139,117.8z
					 M139.8,115.6c0.7,0,1.3-0.1,1.9-0.4c0.6-0.2,1-0.6,1.4-1s0.6-1,0.8-1.6v-2.3c-0.2-0.6-0.4-1.1-0.8-1.5c-0.4-0.4-0.9-0.8-1.4-1
					c-0.6-0.2-1.2-0.4-1.8-0.4c-0.8,0-1.5,0.2-2.1,0.5c-0.6,0.3-1.1,0.8-1.5,1.4s-0.6,1.3-0.6,2.1c0,0.8,0.2,1.4,0.6,2.1
					c0.4,0.6,0.9,1.1,1.5,1.5C138.3,115.5,139,115.6,139.8,115.6z"/>
				<path class="st2" d="M152.7,100.6h2.9v5.2h3.4v2.1h-3.4v9.6h-2.9v-9.6h-2.3v-2.1h2.3V100.6z"/>
				<path class="st2" d="M161.2,111.5c0-1.2,0.3-2.2,0.9-3.2c0.6-0.9,1.4-1.7,2.5-2.2s2.2-0.8,3.6-0.8c1.3,0,2.5,0.3,3.5,0.8
					c1,0.5,1.8,1.3,2.4,2.2c0.6,0.9,0.9,2,0.9,3.2c0,1.2-0.3,2.2-0.9,3.2c-0.6,0.9-1.4,1.7-2.4,2.3c-1,0.6-2.2,0.8-3.6,0.8
					c-1.3,0-2.5-0.3-3.6-0.8c-1-0.5-1.8-1.2-2.4-2.2S161.2,112.8,161.2,111.5z M164,111.6c0,0.8,0.2,1.4,0.5,2.1
					c0.4,0.6,0.8,1.1,1.4,1.5c0.6,0.4,1.3,0.5,2,0.5c0.8,0,1.5-0.2,2.1-0.5c0.6-0.4,1.1-0.8,1.4-1.5c0.4-0.6,0.5-1.3,0.5-2.1
					c0-0.8-0.2-1.4-0.5-2.1c-0.4-0.6-0.8-1.1-1.4-1.5c-0.6-0.4-1.3-0.6-2.1-0.6c-0.8,0-1.4,0.2-2.1,0.6c-0.6,0.4-1.1,0.9-1.4,1.5
					C164.2,110.2,164,110.8,164,111.6z"/>
				<path class="st2" d="M193.2,117.8c-1.2,0-2.2-0.3-3.1-0.8c-0.9-0.5-1.7-1.3-2.2-2.2c-0.6-1-0.8-2.1-0.8-3.3
					c0-1.3,0.3-2.4,0.9-3.3c0.6-0.9,1.4-1.6,2.3-2.1c1-0.5,2.1-0.7,3.3-0.7c1,0,1.9,0.2,2.8,0.6c0.9,0.4,1.6,0.9,2.1,1.6l-0.2,0.9
					V95.6h2.8v21.9h-2.8v-2.9l0.3,0.7c-0.6,0.7-1.4,1.3-2.3,1.8S194.4,117.8,193.2,117.8z M194.1,115.6c0.7,0,1.4-0.1,2-0.4
					c0.6-0.3,1.1-0.6,1.4-1.1c0.4-0.4,0.7-1,0.8-1.6v-2.2c-0.2-0.6-0.4-1.1-0.9-1.5c-0.4-0.4-0.9-0.8-1.5-1
					c-0.6-0.2-1.2-0.4-1.9-0.4c-0.7,0-1.4,0.2-2.1,0.5c-0.6,0.3-1.2,0.8-1.5,1.4c-0.4,0.6-0.6,1.3-0.6,2.1c0,0.8,0.2,1.5,0.6,2.1
					c0.4,0.6,0.9,1.1,1.5,1.5C192.7,115.4,193.4,115.6,194.1,115.6z"/>
				<path class="st2" d="M205.8,101.5c0-0.4,0.2-0.8,0.5-1c0.4-0.3,0.7-0.4,1.2-0.4c0.4,0,0.8,0.1,1.1,0.4c0.3,0.3,0.5,0.6,0.5,1
					c0,0.4-0.2,0.8-0.5,1.1c-0.3,0.3-0.7,0.4-1.1,0.4c-0.4,0-0.8-0.1-1.2-0.4C206,102.3,205.8,102,205.8,101.5z M206,105.8h2.8v11.7
					H206V105.8z"/>
				<path class="st2" d="M226.6,117.8c-0.9,0-1.7-0.1-2.6-0.4c-0.8-0.3-1.5-0.7-2.1-1.3l1.2-1.5c0.5,0.5,1.1,0.8,1.6,1.1
					s1.1,0.4,1.6,0.4c0.4,0,0.8,0,1.1-0.1c0.3-0.1,0.6-0.3,0.8-0.5c0.2-0.2,0.3-0.5,0.3-0.9c0-0.4-0.1-0.8-0.4-1
					c-0.3-0.2-0.7-0.4-1.1-0.6c-0.4-0.2-0.9-0.3-1.4-0.4c-1-0.3-1.8-0.8-2.3-1.3s-0.8-1.3-0.8-2.1c0-0.6,0.2-1.2,0.5-1.7
					s0.8-1,1.5-1.3c0.7-0.3,1.5-0.5,2.4-0.5c0.9,0,1.6,0.1,2.3,0.3c0.7,0.2,1.3,0.5,1.9,1l-1.1,1.6c-0.4-0.4-0.8-0.6-1.3-0.8
					c-0.5-0.2-0.9-0.3-1.3-0.3c-0.4,0-0.7,0.1-1,0.2c-0.3,0.1-0.6,0.3-0.8,0.5c-0.2,0.2-0.3,0.4-0.3,0.8c0,0.4,0.1,0.7,0.4,0.9
					c0.3,0.2,0.7,0.4,1.1,0.6c0.4,0.2,0.9,0.3,1.4,0.5c0.6,0.2,1.1,0.4,1.6,0.7c0.5,0.3,0.9,0.6,1.2,1c0.3,0.4,0.4,0.9,0.4,1.6
					c0,0.7-0.2,1.3-0.5,1.9c-0.4,0.6-0.9,1.1-1.6,1.4C228.6,117.6,227.7,117.8,226.6,117.8z"/>
				<path class="st2" d="M239.4,118c-1.2,0-2.1-0.3-2.8-1c-0.7-0.7-1.1-1.5-1.2-2.5v-8.7h2.8v7.7c0,0.6,0.2,1.1,0.6,1.5
					c0.4,0.4,0.9,0.6,1.7,0.6c0.7,0,1.3-0.2,1.8-0.6c0.6-0.4,1-0.9,1.3-1.6c0.3-0.7,0.5-1.4,0.5-2.3v-5.5h2.8v11.7h-2.6l-0.2-2.9
					l0.2,0.5c-0.3,0.5-0.6,1-1.1,1.4s-1.1,0.8-1.7,1C240.8,117.9,240.1,118,239.4,118z"/>
				<path class="st2" d="M261.9,116.4c-0.6,0.4-1.2,0.8-2,1c-0.8,0.2-1.6,0.4-2.3,0.4c-1.3,0-2.5-0.3-3.6-0.8
					c-1-0.5-1.8-1.2-2.4-2.2c-0.6-0.9-0.9-2-0.9-3.3c0-1.2,0.3-2.3,0.9-3.2c0.6-0.9,1.4-1.6,2.4-2.1c1-0.5,2.1-0.8,3.2-0.8
					c1,0,1.9,0.1,2.7,0.4c0.8,0.3,1.5,0.6,2.1,1.1l-1.4,1.7c-0.3-0.2-0.8-0.5-1.3-0.7c-0.5-0.2-1.1-0.3-1.8-0.3
					c-0.7,0-1.4,0.2-2,0.5c-0.6,0.4-1.1,0.8-1.4,1.4s-0.5,1.3-0.5,2c0,0.7,0.2,1.4,0.5,2c0.4,0.6,0.9,1.1,1.5,1.4
					c0.6,0.4,1.4,0.5,2.2,0.5c0.5,0,1-0.1,1.5-0.2c0.5-0.2,0.9-0.4,1.2-0.6L261.9,116.4z"/>
				<path class="st2" d="M275.6,116.4c-0.6,0.4-1.2,0.8-2,1c-0.8,0.2-1.6,0.4-2.3,0.4c-1.3,0-2.5-0.3-3.6-0.8
					c-1-0.5-1.8-1.2-2.4-2.2c-0.6-0.9-0.9-2-0.9-3.3c0-1.2,0.3-2.3,0.9-3.2c0.6-0.9,1.4-1.6,2.4-2.1c1-0.5,2.1-0.8,3.2-0.8
					c1,0,1.9,0.1,2.7,0.4c0.8,0.3,1.5,0.6,2.1,1.1l-1.4,1.7c-0.3-0.2-0.8-0.5-1.3-0.7c-0.5-0.2-1.1-0.3-1.8-0.3
					c-0.7,0-1.4,0.2-2,0.5c-0.6,0.4-1.1,0.8-1.4,1.4s-0.5,1.3-0.5,2c0,0.7,0.2,1.4,0.5,2c0.4,0.6,0.9,1.1,1.5,1.4
					c0.6,0.4,1.4,0.5,2.2,0.5c0.5,0,1-0.1,1.5-0.2c0.5-0.2,0.9-0.4,1.2-0.6L275.6,116.4z"/>
				<path class="st2" d="M285,117.8c-1.4,0-2.6-0.3-3.7-0.8c-1-0.5-1.8-1.3-2.4-2.2c-0.6-0.9-0.8-2-0.8-3.2c0-1.2,0.3-2.2,0.9-3.1
					c0.6-0.9,1.5-1.7,2.5-2.3c1-0.6,2.2-0.9,3.5-0.9c1.6,0,3,0.5,4.1,1.4c1.1,0.9,1.8,2.2,2.2,3.7l-10.3,3.4l-0.7-1.6l8.4-2.9
					l-0.6,0.4c-0.2-0.6-0.6-1.2-1.2-1.6c-0.6-0.5-1.3-0.7-2.2-0.7c-0.8,0-1.4,0.2-2,0.5c-0.6,0.3-1.1,0.8-1.4,1.4
					c-0.3,0.6-0.5,1.3-0.5,2.1s0.2,1.5,0.5,2.1c0.4,0.6,0.8,1.1,1.5,1.5c0.6,0.3,1.3,0.5,2.1,0.5c0.5,0,1.1-0.1,1.6-0.3
					c0.5-0.2,1-0.4,1.5-0.7l1.3,2c-0.6,0.4-1.3,0.7-2.1,1C286.5,117.7,285.7,117.8,285,117.8z"/>
				<path class="st2" d="M298.3,117.8c-0.9,0-1.7-0.1-2.6-0.4c-0.8-0.3-1.5-0.7-2.1-1.3l1.2-1.5c0.5,0.5,1.1,0.8,1.6,1.1
					s1.1,0.4,1.6,0.4c0.4,0,0.8,0,1.1-0.1c0.3-0.1,0.6-0.3,0.8-0.5c0.2-0.2,0.3-0.5,0.3-0.9c0-0.4-0.1-0.8-0.4-1
					c-0.3-0.2-0.7-0.4-1.1-0.6c-0.4-0.2-0.9-0.3-1.4-0.4c-1-0.3-1.8-0.8-2.3-1.3s-0.8-1.3-0.8-2.1c0-0.6,0.2-1.2,0.5-1.7
					s0.8-1,1.5-1.3c0.7-0.3,1.5-0.5,2.4-0.5c0.9,0,1.6,0.1,2.3,0.3c0.7,0.2,1.3,0.5,1.9,1l-1.1,1.6c-0.4-0.4-0.8-0.6-1.3-0.8
					c-0.5-0.2-0.9-0.3-1.3-0.3c-0.4,0-0.7,0.1-1,0.2c-0.3,0.1-0.6,0.3-0.8,0.5c-0.2,0.2-0.3,0.4-0.3,0.8c0,0.4,0.1,0.7,0.4,0.9
					c0.3,0.2,0.7,0.4,1.1,0.6c0.4,0.2,0.9,0.3,1.4,0.5c0.6,0.2,1.1,0.4,1.6,0.7c0.5,0.3,0.9,0.6,1.2,1c0.3,0.4,0.4,0.9,0.4,1.6
					c0,0.7-0.2,1.3-0.5,1.9c-0.4,0.6-0.9,1.1-1.6,1.4C300.3,117.6,299.4,117.8,298.3,117.8z"/>
				<path class="st2" d="M310.5,117.8c-0.9,0-1.7-0.1-2.6-0.4c-0.8-0.3-1.5-0.7-2.1-1.3l1.2-1.5c0.5,0.5,1.1,0.8,1.6,1.1
					s1.1,0.4,1.6,0.4c0.4,0,0.8,0,1.1-0.1c0.3-0.1,0.6-0.3,0.8-0.5c0.2-0.2,0.3-0.5,0.3-0.9c0-0.4-0.1-0.8-0.4-1
					c-0.3-0.2-0.7-0.4-1.1-0.6s-0.9-0.3-1.4-0.4c-1-0.3-1.8-0.8-2.3-1.3s-0.8-1.3-0.8-2.1c0-0.6,0.2-1.2,0.5-1.7
					c0.3-0.5,0.8-1,1.5-1.3c0.7-0.3,1.5-0.5,2.4-0.5c0.9,0,1.6,0.1,2.3,0.3c0.7,0.2,1.3,0.5,1.9,1l-1.1,1.6
					c-0.4-0.4-0.8-0.6-1.3-0.8s-0.9-0.3-1.3-0.3c-0.4,0-0.7,0.1-1,0.2c-0.3,0.1-0.6,0.3-0.8,0.5c-0.2,0.2-0.3,0.4-0.3,0.8
					c0,0.4,0.1,0.7,0.4,0.9c0.3,0.2,0.7,0.4,1.1,0.6c0.4,0.2,0.9,0.3,1.4,0.5c0.6,0.2,1.1,0.4,1.6,0.7c0.5,0.3,0.9,0.6,1.2,1
					c0.3,0.4,0.4,0.9,0.4,1.6c0,0.7-0.2,1.3-0.5,1.9c-0.4,0.6-0.9,1.1-1.6,1.4C312.5,117.6,311.6,117.8,310.5,117.8z"/>
				<path class="st2" d="M318.2,111.5c0-1.2,0.3-2.2,0.9-3.2c0.6-0.9,1.4-1.7,2.5-2.2s2.2-0.8,3.6-0.8c1.3,0,2.5,0.3,3.5,0.8
					c1,0.5,1.8,1.3,2.4,2.2c0.6,0.9,0.9,2,0.9,3.2c0,1.2-0.3,2.2-0.9,3.2c-0.6,0.9-1.4,1.7-2.4,2.3c-1,0.6-2.2,0.8-3.6,0.8
					c-1.3,0-2.5-0.3-3.6-0.8c-1-0.5-1.8-1.2-2.4-2.2C318.5,113.9,318.2,112.8,318.2,111.5z M321,111.6c0,0.8,0.2,1.4,0.5,2.1
					c0.4,0.6,0.8,1.1,1.4,1.5c0.6,0.4,1.3,0.5,2,0.5c0.8,0,1.5-0.2,2.1-0.5c0.6-0.4,1.1-0.8,1.4-1.5s0.5-1.3,0.5-2.1
					c0-0.8-0.2-1.4-0.5-2.1s-0.8-1.1-1.4-1.5c-0.6-0.4-1.3-0.6-2.1-0.6c-0.8,0-1.4,0.2-2.1,0.6s-1.1,0.9-1.4,1.5
					C321.2,110.2,321,110.8,321,111.6z"/>
				<path class="st2" d="M338.2,115c-0.4,1-0.9,2-1.3,3c-0.4,1-0.9,2-1.3,3h-2.3c0.4-1,0.8-2,1.2-3s0.8-2,1.1-3H338.2z"/>
				<path class="st2" d="M354.7,117.8c-0.9,0-1.7-0.1-2.6-0.4c-0.8-0.3-1.5-0.7-2.1-1.3l1.2-1.5c0.5,0.5,1.1,0.8,1.6,1.1
					s1.1,0.4,1.6,0.4c0.4,0,0.8,0,1.1-0.1c0.3-0.1,0.6-0.3,0.8-0.5c0.2-0.2,0.3-0.5,0.3-0.9c0-0.4-0.1-0.8-0.4-1
					c-0.3-0.2-0.7-0.4-1.1-0.6s-0.9-0.3-1.4-0.4c-1-0.3-1.8-0.8-2.3-1.3s-0.8-1.3-0.8-2.1c0-0.6,0.2-1.2,0.5-1.7
					c0.3-0.5,0.8-1,1.5-1.3c0.7-0.3,1.5-0.5,2.4-0.5c0.9,0,1.6,0.1,2.3,0.3c0.7,0.2,1.3,0.5,1.9,1l-1.1,1.6
					c-0.4-0.4-0.8-0.6-1.3-0.8s-0.9-0.3-1.3-0.3c-0.4,0-0.7,0.1-1,0.2c-0.3,0.1-0.6,0.3-0.8,0.5c-0.2,0.2-0.3,0.4-0.3,0.8
					c0,0.4,0.1,0.7,0.4,0.9c0.3,0.2,0.7,0.4,1.1,0.6c0.4,0.2,0.9,0.3,1.4,0.5c0.6,0.2,1.1,0.4,1.6,0.7c0.5,0.3,0.9,0.6,1.2,1
					c0.3,0.4,0.4,0.9,0.4,1.6c0,0.7-0.2,1.3-0.5,1.9c-0.4,0.6-0.9,1.1-1.6,1.4C356.8,117.6,355.8,117.8,354.7,117.8z"/>
				<path class="st2" d="M367.5,118c-1.2,0-2.1-0.3-2.8-1c-0.7-0.7-1.1-1.5-1.2-2.5v-8.7h2.8v7.7c0,0.6,0.2,1.1,0.6,1.5
					c0.4,0.4,0.9,0.6,1.7,0.6c0.7,0,1.3-0.2,1.8-0.6c0.6-0.4,1-0.9,1.3-1.6c0.3-0.7,0.5-1.4,0.5-2.3v-5.5h2.8v11.7h-2.6l-0.2-2.9
					l0.2,0.5c-0.3,0.5-0.6,1-1.1,1.4s-1.1,0.8-1.7,1C368.9,117.9,368.2,118,367.5,118z"/>
				<path class="st2" d="M385.1,117.8c-1.2,0-2.2-0.2-3.2-0.7c-1-0.5-1.7-1.2-2.3-2.1c-0.6-0.9-0.8-2-0.8-3.4c0-1.3,0.3-2.5,0.9-3.4
					c0.6-0.9,1.4-1.7,2.3-2.2c1-0.5,2.1-0.8,3.2-0.8s2.1,0.3,3,0.8c0.8,0.5,1.4,1.1,1.8,1.8l-0.2,0.4l0.3-2.5h2.6v11.7h-2.8v-3.1
					l0.3,0.7c-0.1,0.2-0.3,0.4-0.6,0.7c-0.3,0.3-0.6,0.6-1.1,0.9c-0.4,0.3-0.9,0.6-1.5,0.8S385.8,117.8,385.1,117.8z M385.8,115.6
					c0.7,0,1.3-0.1,1.9-0.4c0.6-0.2,1-0.6,1.4-1s0.6-1,0.8-1.6v-2.3c-0.2-0.6-0.4-1.1-0.8-1.5s-0.9-0.8-1.4-1
					c-0.6-0.2-1.2-0.4-1.8-0.4c-0.8,0-1.5,0.2-2.1,0.5c-0.6,0.3-1.1,0.8-1.5,1.4c-0.4,0.6-0.6,1.3-0.6,2.1c0,0.8,0.2,1.4,0.6,2.1
					c0.4,0.6,0.9,1.1,1.5,1.5C384.4,115.5,385.1,115.6,385.8,115.6z"/>
				<path class="st2" d="M409.6,105.8l0.2,2.6l-0.2-0.2c0.5-0.9,1.1-1.6,2-2.1c0.9-0.5,1.8-0.8,3-0.8c0.7,0,1.3,0.1,1.8,0.3
					c0.5,0.2,1,0.5,1.3,0.9c0.4,0.4,0.6,0.9,0.7,1.4l-0.2,0.1c0.5-0.9,1.1-1.5,2-2c0.9-0.5,1.7-0.7,2.7-0.7c1.2,0,2.2,0.3,2.9,1
					s1.1,1.5,1.1,2.5v8.7h-2.8v-7.7c0-0.6-0.2-1.1-0.5-1.5c-0.3-0.4-0.8-0.6-1.5-0.6c-0.7,0-1.4,0.2-1.9,0.6c-0.6,0.4-1,0.9-1.3,1.6
					c-0.3,0.7-0.5,1.4-0.5,2.1v5.6h-2.8v-7.7c0-0.6-0.2-1.1-0.5-1.5c-0.3-0.4-0.8-0.6-1.5-0.6c-0.7,0-1.4,0.2-1.9,0.6
					c-0.6,0.4-1,0.9-1.3,1.6c-0.3,0.7-0.5,1.4-0.5,2.2v5.5H407v-11.7H409.6z"/>
				<path class="st2" d="M437,117.8c-1.2,0-2.2-0.2-3.2-0.7c-1-0.5-1.7-1.2-2.3-2.1c-0.6-0.9-0.8-2-0.8-3.4c0-1.3,0.3-2.5,0.9-3.4
					c0.6-0.9,1.4-1.7,2.3-2.2c1-0.5,2.1-0.8,3.2-0.8s2.1,0.3,3,0.8c0.8,0.5,1.4,1.1,1.8,1.8l-0.2,0.4l0.3-2.5h2.6v11.7h-2.8v-3.1
					l0.3,0.7c-0.1,0.2-0.3,0.4-0.6,0.7c-0.3,0.3-0.6,0.6-1.1,0.9c-0.4,0.3-0.9,0.6-1.5,0.8S437.7,117.8,437,117.8z M437.7,115.6
					c0.7,0,1.3-0.1,1.9-0.4c0.6-0.2,1-0.6,1.4-1s0.6-1,0.8-1.6v-2.3c-0.2-0.6-0.4-1.1-0.8-1.5s-0.9-0.8-1.4-1
					c-0.6-0.2-1.2-0.4-1.8-0.4c-0.8,0-1.5,0.2-2.1,0.5c-0.6,0.3-1.1,0.8-1.5,1.4c-0.4,0.6-0.6,1.3-0.6,2.1c0,0.8,0.2,1.4,0.6,2.1
					c0.4,0.6,0.9,1.1,1.5,1.5C436.3,115.5,437,115.6,437.7,115.6z"/>
				<path class="st2" d="M454.5,117.8c-1.2,0-2.2-0.3-3.1-0.8c-0.9-0.5-1.7-1.3-2.2-2.2c-0.6-1-0.8-2.1-0.8-3.3
					c0-1.3,0.3-2.4,0.9-3.3c0.6-0.9,1.4-1.6,2.3-2.1c1-0.5,2.1-0.7,3.3-0.7c1,0,1.9,0.2,2.8,0.6c0.9,0.4,1.6,0.9,2.1,1.6l-0.1,0.9
					V95.6h2.8v21.9h-2.8v-2.9l0.3,0.7c-0.6,0.7-1.4,1.3-2.3,1.8S455.7,117.8,454.5,117.8z M455.4,115.6c0.7,0,1.4-0.1,2-0.4
					c0.6-0.3,1.1-0.6,1.4-1.1c0.4-0.4,0.7-1,0.8-1.6v-2.2c-0.2-0.6-0.4-1.1-0.9-1.5c-0.4-0.4-0.9-0.8-1.5-1
					c-0.6-0.2-1.2-0.4-1.9-0.4c-0.7,0-1.4,0.2-2.1,0.5c-0.6,0.3-1.2,0.8-1.5,1.4c-0.4,0.6-0.6,1.3-0.6,2.1c0,0.8,0.2,1.5,0.6,2.1
					c0.4,0.6,0.9,1.1,1.5,1.5C454,115.4,454.6,115.6,455.4,115.6z"/>
				<path class="st2" d="M469.8,105.8l0.3,3.4l-0.1-0.5c0.3-0.7,0.8-1.3,1.4-1.8s1.2-0.9,1.9-1.2c0.7-0.3,1.3-0.4,1.7-0.4l-0.1,2.7
					c-1-0.1-1.8,0.1-2.5,0.5c-0.7,0.4-1.3,0.9-1.7,1.6c-0.4,0.7-0.6,1.4-0.6,2.1v5.4h-2.8v-11.7H469.8z"/>
				<path class="st2" d="M484.4,117.8c-1.4,0-2.6-0.3-3.7-0.8c-1-0.5-1.8-1.3-2.4-2.2c-0.6-0.9-0.8-2-0.8-3.2c0-1.2,0.3-2.2,0.9-3.1
					c0.6-0.9,1.5-1.7,2.5-2.3c1-0.6,2.2-0.9,3.5-0.9c1.6,0,3,0.5,4.1,1.4c1.1,0.9,1.8,2.2,2.2,3.7l-10.3,3.4l-0.7-1.6l8.4-2.9
					l-0.6,0.4c-0.2-0.6-0.6-1.2-1.2-1.6s-1.3-0.7-2.2-0.7c-0.8,0-1.4,0.2-2,0.5c-0.6,0.3-1.1,0.8-1.4,1.4c-0.3,0.6-0.5,1.3-0.5,2.1
					s0.2,1.5,0.5,2.1c0.4,0.6,0.8,1.1,1.5,1.5s1.3,0.5,2.1,0.5c0.5,0,1.1-0.1,1.6-0.3c0.5-0.2,1-0.4,1.5-0.7l1.3,2
					c-0.6,0.4-1.3,0.7-2.1,1C485.9,117.7,485.1,117.8,484.4,117.8z"/>
				<path class="st2" d="M507.7,118c-1.2,0-2.1-0.3-2.8-1c-0.7-0.7-1.1-1.5-1.2-2.5v-8.7h2.8v7.7c0,0.6,0.2,1.1,0.6,1.5
					c0.4,0.4,0.9,0.6,1.7,0.6c0.7,0,1.3-0.2,1.8-0.6c0.6-0.4,1-0.9,1.3-1.6c0.3-0.7,0.5-1.4,0.5-2.3v-5.5h2.8v11.7h-2.6l-0.2-2.9
					l0.2,0.5c-0.3,0.5-0.6,1-1.1,1.4s-1.1,0.8-1.7,1C509.1,117.9,508.4,118,507.7,118z"/>
				<path class="st2" d="M522.6,105.8l0.2,2.9l-0.1-0.5c0.4-0.9,1-1.6,1.9-2.1s2-0.8,3.2-0.8c1.2,0,2.1,0.3,2.9,1
					c0.8,0.7,1.1,1.5,1.2,2.5v8.7H529v-7.8c0-0.6-0.2-1.1-0.6-1.5c-0.4-0.4-0.9-0.6-1.7-0.6c-0.7,0-1.3,0.2-1.9,0.6
					c-0.6,0.4-1.1,0.9-1.4,1.6c-0.3,0.7-0.5,1.4-0.5,2.3v5.5h-2.8v-11.7H522.6z"/>
				<path class="st2" d="M541.9,117.8c-1.2,0-2.2-0.2-3.2-0.7c-1-0.5-1.7-1.2-2.3-2.1c-0.6-0.9-0.8-2-0.8-3.4c0-1.3,0.3-2.5,0.9-3.4
					c0.6-0.9,1.4-1.7,2.3-2.2c1-0.5,2.1-0.8,3.2-0.8s2.1,0.3,3,0.8c0.8,0.5,1.4,1.1,1.8,1.8l-0.2,0.4l0.3-2.5h2.6v11.7h-2.8v-3.1
					l0.3,0.7c-0.1,0.2-0.3,0.4-0.6,0.7c-0.3,0.3-0.6,0.6-1.1,0.9c-0.4,0.3-0.9,0.6-1.5,0.8S542.6,117.8,541.9,117.8z M542.7,115.6
					c0.7,0,1.3-0.1,1.9-0.4c0.6-0.2,1-0.6,1.4-1s0.6-1,0.8-1.6v-2.3c-0.2-0.6-0.4-1.1-0.8-1.5s-0.9-0.8-1.4-1
					c-0.6-0.2-1.2-0.4-1.8-0.4c-0.8,0-1.5,0.2-2.1,0.5c-0.6,0.3-1.1,0.8-1.5,1.4c-0.4,0.6-0.6,1.3-0.6,2.1c0,0.8,0.2,1.4,0.6,2.1
					c0.4,0.6,0.9,1.1,1.5,1.5C541.2,115.5,541.9,115.6,542.7,115.6z"/>
			</g>
		</g>
		<g>
			<g class="st1">
				<path class="st2" d="M59.9,151.8c-0.9,0-1.7-0.1-2.6-0.4c-0.8-0.3-1.5-0.7-2.1-1.3l1.2-1.5c0.5,0.5,1.1,0.8,1.6,1.1
					s1.1,0.4,1.6,0.4c0.4,0,0.8,0,1.1-0.1c0.3-0.1,0.6-0.3,0.8-0.5s0.3-0.5,0.3-0.9c0-0.4-0.1-0.8-0.4-1c-0.3-0.2-0.7-0.4-1.1-0.6
					c-0.4-0.2-0.9-0.3-1.4-0.4c-1-0.3-1.8-0.8-2.3-1.3s-0.8-1.3-0.8-2.1c0-0.6,0.2-1.2,0.5-1.7c0.3-0.5,0.8-1,1.5-1.3
					c0.7-0.3,1.5-0.5,2.4-0.5c0.9,0,1.6,0.1,2.3,0.3c0.7,0.2,1.3,0.5,1.9,1l-1.1,1.6c-0.4-0.4-0.8-0.6-1.3-0.8
					c-0.5-0.2-0.9-0.3-1.3-0.3c-0.4,0-0.7,0.1-1,0.2s-0.6,0.3-0.8,0.5c-0.2,0.2-0.3,0.4-0.3,0.8c0,0.4,0.1,0.7,0.4,0.9
					c0.3,0.2,0.7,0.4,1.1,0.6c0.4,0.2,0.9,0.3,1.4,0.5c0.6,0.2,1.1,0.4,1.6,0.7s0.9,0.6,1.2,1c0.3,0.4,0.4,0.9,0.4,1.6
					c0,0.7-0.2,1.3-0.5,1.9c-0.4,0.6-0.9,1.1-1.6,1.4C61.9,151.6,61,151.8,59.9,151.8z"/>
				<path class="st2" d="M69.8,134.7h2.9v5.2h3.4v2.1h-3.4v9.6h-2.9v-9.6h-2.3v-2.1h2.3V134.7z"/>
				<path class="st2" d="M79.3,135.6c0-0.4,0.2-0.8,0.5-1c0.4-0.3,0.7-0.4,1.2-0.4c0.4,0,0.8,0.1,1.1,0.4c0.3,0.3,0.5,0.6,0.5,1
					c0,0.4-0.2,0.8-0.5,1.1c-0.3,0.3-0.7,0.4-1.1,0.4c-0.4,0-0.8-0.1-1.2-0.4C79.4,136.3,79.3,136,79.3,135.6z M79.5,139.8h2.8v11.7
					h-2.8V139.8z"/>
				<path class="st2" d="M89.7,139.8l0.2,2.6l-0.2-0.2c0.5-0.9,1.1-1.6,2-2.1c0.9-0.5,1.8-0.8,3-0.8c0.7,0,1.3,0.1,1.8,0.3
					s1,0.5,1.3,0.9c0.4,0.4,0.6,0.9,0.7,1.4l-0.1,0.1c0.5-0.9,1.1-1.5,2-2s1.7-0.7,2.7-0.7c1.2,0,2.2,0.3,2.9,1
					c0.7,0.7,1.1,1.5,1.1,2.5v8.7h-2.8v-7.7c0-0.6-0.2-1.1-0.5-1.5s-0.8-0.6-1.5-0.6c-0.7,0-1.4,0.2-1.9,0.6c-0.6,0.4-1,0.9-1.3,1.6
					c-0.3,0.7-0.5,1.4-0.5,2.1v5.6h-2.8v-7.7c0-0.6-0.2-1.1-0.5-1.5c-0.3-0.4-0.8-0.6-1.5-0.6c-0.7,0-1.4,0.2-1.9,0.6
					c-0.6,0.4-1,0.9-1.3,1.6s-0.5,1.4-0.5,2.2v5.5h-2.8v-11.7H89.7z"/>
				<path class="st2" d="M117.1,151.8c-1.2,0-2.2-0.2-3.2-0.7c-1-0.5-1.7-1.2-2.3-2.1c-0.6-0.9-0.8-2-0.8-3.4c0-1.3,0.3-2.5,0.9-3.4
					c0.6-0.9,1.4-1.7,2.3-2.2c1-0.5,2.1-0.8,3.2-0.8s2.1,0.2,3,0.8c0.8,0.5,1.4,1.1,1.8,1.8l-0.2,0.4l0.3-2.5h2.6v11.7h-2.8v-3.1
					l0.3,0.7c-0.1,0.2-0.3,0.4-0.6,0.7c-0.3,0.3-0.6,0.6-1.1,0.9c-0.4,0.3-0.9,0.6-1.5,0.8C118.5,151.7,117.8,151.8,117.1,151.8z
					 M117.9,149.7c0.7,0,1.3-0.1,1.9-0.4c0.6-0.2,1-0.6,1.4-1c0.4-0.5,0.6-1,0.8-1.6v-2.3c-0.2-0.6-0.4-1.1-0.8-1.5
					c-0.4-0.4-0.9-0.8-1.4-1s-1.2-0.4-1.8-0.4c-0.8,0-1.5,0.2-2.1,0.5c-0.6,0.3-1.1,0.8-1.5,1.4c-0.4,0.6-0.6,1.3-0.6,2.1
					c0,0.8,0.2,1.4,0.6,2.1c0.4,0.6,0.9,1.1,1.5,1.5C116.4,149.5,117.1,149.7,117.9,149.7z"/>
				<path class="st2" d="M130.7,134.7h2.9v5.2h3.4v2.1h-3.4v9.6h-2.9v-9.6h-2.3v-2.1h2.3V134.7z"/>
				<path class="st2" d="M145.6,151.8c-1.2,0-2.2-0.2-3.2-0.7c-1-0.5-1.7-1.2-2.3-2.1c-0.6-0.9-0.8-2-0.8-3.4c0-1.3,0.3-2.5,0.9-3.4
					c0.6-0.9,1.4-1.7,2.3-2.2c1-0.5,2.1-0.8,3.2-0.8s2.1,0.2,3,0.8c0.8,0.5,1.4,1.1,1.8,1.8l-0.2,0.4l0.3-2.5h2.6v11.7h-2.8v-3.1
					l0.3,0.7c-0.1,0.2-0.3,0.4-0.6,0.7c-0.3,0.3-0.6,0.6-1.1,0.9c-0.4,0.3-0.9,0.6-1.5,0.8C147,151.7,146.3,151.8,145.6,151.8z
					 M146.3,149.7c0.7,0,1.3-0.1,1.9-0.4c0.6-0.2,1-0.6,1.4-1c0.4-0.5,0.6-1,0.8-1.6v-2.3c-0.2-0.6-0.4-1.1-0.8-1.5
					c-0.4-0.4-0.9-0.8-1.4-1s-1.2-0.4-1.8-0.4c-0.8,0-1.5,0.2-2.1,0.5c-0.6,0.3-1.1,0.8-1.5,1.4c-0.4,0.6-0.6,1.3-0.6,2.1
					c0,0.8,0.2,1.4,0.6,2.1c0.4,0.6,0.9,1.1,1.5,1.5C144.9,149.5,145.6,149.7,146.3,149.7z"/>
				<path class="st2" d="M174.9,151.8c-0.9,0-1.8-0.2-2.7-0.6c-0.9-0.4-1.5-1-2-1.7l0.2-0.8v8.5h-2.8v-17.5h2.4l0.4,3l-0.3-0.8
					c0.6-0.7,1.4-1.3,2.3-1.8c0.9-0.5,2-0.7,3.1-0.7c1.2,0,2.2,0.3,3.1,0.8c0.9,0.5,1.7,1.3,2.2,2.2c0.5,1,0.8,2.1,0.8,3.3
					c0,1.2-0.3,2.3-0.9,3.3c-0.6,0.9-1.4,1.7-2.4,2.2C177.3,151.6,176.1,151.8,174.9,151.8z M174.3,149.7c0.8,0,1.5-0.2,2.2-0.5
					c0.7-0.3,1.2-0.8,1.6-1.4c0.4-0.6,0.6-1.3,0.6-2.1c0-0.8-0.2-1.5-0.6-2.1c-0.4-0.6-0.9-1.1-1.5-1.4c-0.6-0.3-1.3-0.5-2.1-0.5
					c-0.7,0-1.4,0.1-2,0.4c-0.6,0.3-1.1,0.6-1.4,1.1s-0.7,1-0.8,1.6v2c0.1,0.6,0.3,1.1,0.7,1.6c0.4,0.5,0.9,0.8,1.4,1.1
					C173,149.6,173.7,149.7,174.3,149.7z"/>
				<path class="st2" d="M187.8,139.8l0.3,3.4l-0.1-0.5c0.3-0.7,0.8-1.3,1.4-1.8c0.6-0.5,1.2-0.9,1.9-1.2c0.7-0.3,1.3-0.4,1.7-0.4
					l-0.1,2.7c-1-0.1-1.8,0.1-2.5,0.5c-0.7,0.4-1.3,0.9-1.7,1.6c-0.4,0.7-0.6,1.4-0.6,2.1v5.4h-2.8v-11.7H187.8z"/>
				<path class="st2" d="M195.5,145.6c0-1.2,0.3-2.2,0.9-3.2c0.6-0.9,1.4-1.7,2.5-2.2s2.2-0.8,3.6-0.8c1.3,0,2.5,0.3,3.5,0.8
					c1,0.5,1.8,1.3,2.4,2.2c0.6,0.9,0.9,2,0.9,3.2c0,1.2-0.3,2.2-0.9,3.2c-0.6,0.9-1.4,1.7-2.4,2.3c-1,0.6-2.2,0.8-3.6,0.8
					c-1.3,0-2.5-0.3-3.6-0.8c-1-0.5-1.8-1.2-2.4-2.2S195.5,146.8,195.5,145.6z M198.4,145.6c0,0.8,0.2,1.4,0.5,2.1
					c0.4,0.6,0.8,1.1,1.4,1.5s1.3,0.5,2,0.5c0.8,0,1.5-0.2,2.1-0.5s1.1-0.8,1.4-1.5c0.4-0.6,0.5-1.3,0.5-2.1s-0.2-1.4-0.5-2.1
					c-0.4-0.6-0.8-1.1-1.4-1.5c-0.6-0.4-1.3-0.6-2.1-0.6c-0.8,0-1.4,0.2-2.1,0.6c-0.6,0.4-1.1,0.9-1.4,1.5
					C198.5,144.2,198.4,144.9,198.4,145.6z"/>
				<path class="st2" d="M214,151.5v-9.4h-2.2v-2.4h2.2v-4.9c0-1.7,0.4-3,1.2-3.9s2-1.4,3.6-1.4c0.4,0,0.9,0.1,1.4,0.2
					c0.5,0.1,0.9,0.3,1.3,0.6l-1.2,1.9c-0.2-0.2-0.4-0.3-0.6-0.4c-0.2-0.1-0.5-0.1-0.7-0.1c-0.7,0-1.3,0.2-1.7,0.7
					c-0.4,0.5-0.6,1.3-0.6,2.4v4.9h3.9v2.4h-3.9v9.4H214z"/>
				<path class="st2" d="M230.2,151.8c-1.4,0-2.6-0.3-3.7-0.8c-1-0.5-1.8-1.3-2.4-2.2c-0.6-0.9-0.8-2-0.8-3.2c0-1.2,0.3-2.2,0.9-3.1
					c0.6-0.9,1.5-1.7,2.5-2.3c1-0.6,2.2-0.9,3.5-0.9c1.6,0,3,0.5,4.1,1.4c1.1,0.9,1.8,2.2,2.2,3.7l-10.3,3.4l-0.7-1.6l8.4-2.9
					l-0.6,0.4c-0.2-0.6-0.6-1.2-1.2-1.6c-0.6-0.5-1.3-0.7-2.2-0.7c-0.8,0-1.4,0.2-2,0.5c-0.6,0.3-1.1,0.8-1.4,1.4
					c-0.3,0.6-0.5,1.3-0.5,2.1c0,0.8,0.2,1.5,0.5,2.1c0.4,0.6,0.8,1.1,1.5,1.5c0.6,0.3,1.3,0.5,2.1,0.5c0.5,0,1.1-0.1,1.6-0.3
					s1-0.4,1.5-0.7l1.3,2c-0.6,0.4-1.3,0.7-2.1,1C231.7,151.7,231,151.8,230.2,151.8z"/>
				<path class="st2" d="M243.6,151.8c-0.9,0-1.7-0.1-2.6-0.4c-0.8-0.3-1.5-0.7-2.1-1.3l1.2-1.5c0.5,0.5,1.1,0.8,1.6,1.1
					s1.1,0.4,1.6,0.4c0.4,0,0.8,0,1.1-0.1c0.3-0.1,0.6-0.3,0.8-0.5s0.3-0.5,0.3-0.9c0-0.4-0.1-0.8-0.4-1c-0.3-0.2-0.7-0.4-1.1-0.6
					c-0.4-0.2-0.9-0.3-1.4-0.4c-1-0.3-1.8-0.8-2.3-1.3s-0.8-1.3-0.8-2.1c0-0.6,0.2-1.2,0.5-1.7c0.3-0.5,0.8-1,1.5-1.3
					c0.7-0.3,1.5-0.5,2.4-0.5c0.9,0,1.6,0.1,2.3,0.3c0.7,0.2,1.3,0.5,1.9,1l-1.1,1.6c-0.4-0.4-0.8-0.6-1.3-0.8
					c-0.5-0.2-0.9-0.3-1.3-0.3c-0.4,0-0.7,0.1-1,0.2s-0.6,0.3-0.8,0.5c-0.2,0.2-0.3,0.4-0.3,0.8c0,0.4,0.1,0.7,0.4,0.9
					c0.3,0.2,0.7,0.4,1.1,0.6c0.4,0.2,0.9,0.3,1.4,0.5c0.6,0.2,1.1,0.4,1.6,0.7s0.9,0.6,1.2,1c0.3,0.4,0.4,0.9,0.4,1.6
					c0,0.7-0.2,1.3-0.5,1.9c-0.4,0.6-0.9,1.1-1.6,1.4C245.6,151.6,244.7,151.8,243.6,151.8z"/>
				<path class="st2" d="M255.8,151.8c-0.9,0-1.7-0.1-2.6-0.4c-0.8-0.3-1.5-0.7-2.1-1.3l1.2-1.5c0.5,0.5,1.1,0.8,1.6,1.1
					s1.1,0.4,1.6,0.4c0.4,0,0.8,0,1.1-0.1c0.3-0.1,0.6-0.3,0.8-0.5s0.3-0.5,0.3-0.9c0-0.4-0.1-0.8-0.4-1c-0.3-0.2-0.7-0.4-1.1-0.6
					c-0.4-0.2-0.9-0.3-1.4-0.4c-1-0.3-1.8-0.8-2.3-1.3s-0.8-1.3-0.8-2.1c0-0.6,0.2-1.2,0.5-1.7c0.3-0.5,0.8-1,1.5-1.3
					c0.7-0.3,1.5-0.5,2.4-0.5c0.9,0,1.6,0.1,2.3,0.3c0.7,0.2,1.3,0.5,1.9,1l-1.1,1.6c-0.4-0.4-0.8-0.6-1.3-0.8
					c-0.5-0.2-0.9-0.3-1.3-0.3c-0.4,0-0.7,0.1-1,0.2s-0.6,0.3-0.8,0.5c-0.2,0.2-0.3,0.4-0.3,0.8c0,0.4,0.1,0.7,0.4,0.9
					c0.3,0.2,0.7,0.4,1.1,0.6c0.4,0.2,0.9,0.3,1.4,0.5c0.6,0.2,1.1,0.4,1.6,0.7s0.9,0.6,1.2,1c0.3,0.4,0.4,0.9,0.4,1.6
					c0,0.7-0.2,1.3-0.5,1.9c-0.4,0.6-0.9,1.1-1.6,1.4C257.8,151.6,256.9,151.8,255.8,151.8z"/>
				<path class="st2" d="M263.4,145.6c0-1.2,0.3-2.2,0.9-3.2c0.6-0.9,1.4-1.7,2.5-2.2s2.2-0.8,3.6-0.8c1.3,0,2.5,0.3,3.5,0.8
					c1,0.5,1.8,1.3,2.4,2.2c0.6,0.9,0.9,2,0.9,3.2c0,1.2-0.3,2.2-0.9,3.2c-0.6,0.9-1.4,1.7-2.4,2.3c-1,0.6-2.2,0.8-3.6,0.8
					c-1.3,0-2.5-0.3-3.6-0.8c-1-0.5-1.8-1.2-2.4-2.2S263.4,146.8,263.4,145.6z M266.2,145.6c0,0.8,0.2,1.4,0.5,2.1
					c0.4,0.6,0.8,1.1,1.4,1.5s1.3,0.5,2,0.5c0.8,0,1.5-0.2,2.1-0.5s1.1-0.8,1.4-1.5c0.4-0.6,0.5-1.3,0.5-2.1s-0.2-1.4-0.5-2.1
					c-0.4-0.6-0.8-1.1-1.4-1.5c-0.6-0.4-1.3-0.6-2.1-0.6c-0.8,0-1.4,0.2-2.1,0.6c-0.6,0.4-1.1,0.9-1.4,1.5
					C266.4,144.2,266.2,144.9,266.2,145.6z"/>
				<path class="st2" d="M283.4,139.8l0.3,3.4l-0.1-0.5c0.3-0.7,0.8-1.3,1.4-1.8c0.6-0.5,1.2-0.9,1.9-1.2c0.7-0.3,1.3-0.4,1.7-0.4
					l-0.1,2.7c-1-0.1-1.8,0.1-2.5,0.5c-0.7,0.4-1.3,0.9-1.7,1.6c-0.4,0.7-0.6,1.4-0.6,2.1v5.4h-2.8v-11.7H283.4z"/>
				<path class="st2" d="M298,151.8c-1.4,0-2.6-0.3-3.7-0.8c-1-0.5-1.8-1.3-2.4-2.2c-0.6-0.9-0.8-2-0.8-3.2c0-1.2,0.3-2.2,0.9-3.1
					c0.6-0.9,1.5-1.7,2.5-2.3c1-0.6,2.2-0.9,3.5-0.9c1.6,0,3,0.5,4.1,1.4c1.1,0.9,1.8,2.2,2.2,3.7l-10.3,3.4l-0.7-1.6l8.4-2.9
					l-0.6,0.4c-0.2-0.6-0.6-1.2-1.2-1.6s-1.3-0.7-2.2-0.7c-0.8,0-1.4,0.2-2,0.5c-0.6,0.3-1.1,0.8-1.4,1.4c-0.3,0.6-0.5,1.3-0.5,2.1
					c0,0.8,0.2,1.5,0.5,2.1c0.4,0.6,0.8,1.1,1.5,1.5c0.6,0.3,1.3,0.5,2.1,0.5c0.5,0,1.1-0.1,1.6-0.3s1-0.4,1.5-0.7l1.3,2
					c-0.6,0.4-1.3,0.7-2.1,1S298.7,151.8,298,151.8z"/>
				<path class="st2" d="M311.3,151.8c-0.9,0-1.7-0.1-2.6-0.4s-1.5-0.7-2.1-1.3l1.2-1.5c0.5,0.5,1.1,0.8,1.6,1.1s1.1,0.4,1.6,0.4
					c0.4,0,0.8,0,1.1-0.1s0.6-0.3,0.8-0.5c0.2-0.2,0.3-0.5,0.3-0.9c0-0.4-0.1-0.8-0.4-1c-0.3-0.2-0.7-0.4-1.1-0.6s-0.9-0.3-1.4-0.4
					c-1-0.3-1.8-0.8-2.3-1.3s-0.8-1.3-0.8-2.1c0-0.6,0.2-1.2,0.5-1.7c0.3-0.5,0.8-1,1.5-1.3c0.7-0.3,1.5-0.5,2.4-0.5
					c0.9,0,1.6,0.1,2.3,0.3s1.3,0.5,1.9,1l-1.1,1.6c-0.4-0.4-0.8-0.6-1.3-0.8s-0.9-0.3-1.3-0.3c-0.4,0-0.7,0.1-1,0.2
					s-0.6,0.3-0.8,0.5c-0.2,0.2-0.3,0.4-0.3,0.8c0,0.4,0.1,0.7,0.4,0.9c0.3,0.2,0.7,0.4,1.1,0.6s0.9,0.3,1.4,0.5
					c0.6,0.2,1.1,0.4,1.6,0.7c0.5,0.3,0.9,0.6,1.2,1c0.3,0.4,0.4,0.9,0.4,1.6c0,0.7-0.2,1.3-0.5,1.9s-0.9,1.1-1.6,1.4
					C313.3,151.6,312.4,151.8,311.3,151.8z"/>
				<path class="st2" d="M323.6,151.8c-0.9,0-1.7-0.1-2.6-0.4s-1.5-0.7-2.1-1.3l1.2-1.5c0.5,0.5,1.1,0.8,1.6,1.1s1.1,0.4,1.6,0.4
					c0.4,0,0.8,0,1.1-0.1s0.6-0.3,0.8-0.5c0.2-0.2,0.3-0.5,0.3-0.9c0-0.4-0.1-0.8-0.4-1c-0.3-0.2-0.7-0.4-1.1-0.6s-0.9-0.3-1.4-0.4
					c-1-0.3-1.8-0.8-2.3-1.3s-0.8-1.3-0.8-2.1c0-0.6,0.2-1.2,0.5-1.7c0.3-0.5,0.8-1,1.5-1.3c0.7-0.3,1.5-0.5,2.4-0.5
					c0.9,0,1.6,0.1,2.3,0.3s1.3,0.5,1.9,1l-1.1,1.6c-0.4-0.4-0.8-0.6-1.3-0.8s-0.9-0.3-1.3-0.3c-0.4,0-0.7,0.1-1,0.2
					s-0.6,0.3-0.8,0.5c-0.2,0.2-0.3,0.4-0.3,0.8c0,0.4,0.1,0.7,0.4,0.9c0.3,0.2,0.7,0.4,1.1,0.6s0.9,0.3,1.4,0.5
					c0.6,0.2,1.1,0.4,1.6,0.7c0.5,0.3,0.9,0.6,1.2,1c0.3,0.4,0.4,0.9,0.4,1.6c0,0.7-0.2,1.3-0.5,1.9s-0.9,1.1-1.6,1.4
					C325.6,151.6,324.7,151.8,323.6,151.8z"/>
				<path class="st2" d="M337.5,151.8c-1.2,0-2.2-0.2-3.2-0.7c-1-0.5-1.7-1.2-2.3-2.1c-0.6-0.9-0.8-2-0.8-3.4c0-1.3,0.3-2.5,0.9-3.4
					c0.6-0.9,1.4-1.7,2.3-2.2c1-0.5,2.1-0.8,3.2-0.8s2.1,0.2,3,0.8s1.4,1.1,1.8,1.8l-0.2,0.4l0.3-2.5h2.6v11.7h-2.8v-3.1l0.3,0.7
					c-0.1,0.2-0.3,0.4-0.6,0.7c-0.3,0.3-0.6,0.6-1.1,0.9c-0.4,0.3-0.9,0.6-1.5,0.8C338.9,151.7,338.2,151.8,337.5,151.8z
					 M338.2,149.7c0.7,0,1.3-0.1,1.9-0.4s1-0.6,1.4-1c0.4-0.5,0.6-1,0.8-1.6v-2.3c-0.2-0.6-0.4-1.1-0.8-1.5s-0.9-0.8-1.4-1
					s-1.2-0.4-1.8-0.4c-0.8,0-1.5,0.2-2.1,0.5c-0.6,0.3-1.1,0.8-1.5,1.4c-0.4,0.6-0.6,1.3-0.6,2.1c0,0.8,0.2,1.4,0.6,2.1
					c0.4,0.6,0.9,1.1,1.5,1.5C336.8,149.5,337.5,149.7,338.2,149.7z"/>
				<path class="st2" d="M363.4,152c-1.2,0-2.1-0.3-2.8-1c-0.7-0.7-1.1-1.5-1.2-2.5v-8.7h2.8v7.7c0,0.6,0.2,1.1,0.6,1.5
					c0.4,0.4,0.9,0.6,1.7,0.6c0.7,0,1.3-0.2,1.8-0.6c0.6-0.4,1-0.9,1.3-1.6s0.5-1.4,0.5-2.3v-5.5h2.8v11.7h-2.6l-0.2-2.9l0.2,0.5
					c-0.3,0.5-0.6,1-1.1,1.4c-0.5,0.4-1.1,0.8-1.7,1C364.9,151.9,364.2,152,363.4,152z"/>
				<path class="st2" d="M378.4,139.8l0.2,2.9l-0.1-0.5c0.4-0.9,1-1.6,1.9-2.1c0.9-0.5,2-0.8,3.2-0.8c1.2,0,2.1,0.3,2.9,1
					c0.8,0.7,1.1,1.5,1.2,2.5v8.7h-2.8v-7.8c0-0.6-0.2-1.1-0.6-1.5c-0.4-0.4-0.9-0.6-1.7-0.6c-0.7,0-1.3,0.2-1.9,0.6
					c-0.6,0.4-1.1,0.9-1.4,1.6c-0.3,0.7-0.5,1.4-0.5,2.3v5.5h-2.8v-11.7H378.4z"/>
				<path class="st2" d="M392.2,135.6c0-0.4,0.2-0.8,0.5-1c0.3-0.3,0.7-0.4,1.2-0.4c0.4,0,0.8,0.1,1.1,0.4c0.3,0.3,0.5,0.6,0.5,1
					c0,0.4-0.2,0.8-0.5,1.1c-0.3,0.3-0.7,0.4-1.1,0.4c-0.4,0-0.8-0.1-1.2-0.4C392.4,136.3,392.2,136,392.2,135.6z M392.4,139.8h2.8
					v11.7h-2.8V139.8z"/>
				<path class="st2" d="M405.2,151.9l-6.9-12.1h3.3l4.7,9.3l-1.7-0.1l4.3-9.2h3.1l-6.6,12.1H405.2z"/>
				<path class="st2" d="M420.7,151.8c-1.4,0-2.6-0.3-3.7-0.8c-1-0.5-1.8-1.3-2.4-2.2c-0.6-0.9-0.8-2-0.8-3.2c0-1.2,0.3-2.2,0.9-3.1
					c0.6-0.9,1.5-1.7,2.5-2.3c1-0.6,2.2-0.9,3.5-0.9c1.6,0,3,0.5,4.1,1.4c1.1,0.9,1.8,2.2,2.2,3.7l-10.3,3.4l-0.7-1.6l8.4-2.9
					l-0.6,0.4c-0.2-0.6-0.6-1.2-1.2-1.6s-1.3-0.7-2.2-0.7c-0.8,0-1.4,0.2-2,0.5c-0.6,0.3-1.1,0.8-1.4,1.4c-0.3,0.6-0.5,1.3-0.5,2.1
					c0,0.8,0.2,1.5,0.5,2.1c0.4,0.6,0.8,1.1,1.5,1.5s1.3,0.5,2.1,0.5c0.5,0,1.1-0.1,1.6-0.3s1-0.4,1.5-0.7l1.3,2
					c-0.6,0.4-1.3,0.7-2.1,1S421.5,151.8,420.7,151.8z"/>
				<path class="st2" d="M433.1,139.8l0.3,3.4l-0.1-0.5c0.3-0.7,0.8-1.3,1.4-1.8c0.6-0.5,1.2-0.9,1.9-1.2c0.7-0.3,1.3-0.4,1.7-0.4
					l-0.1,2.7c-1-0.1-1.8,0.1-2.5,0.5c-0.7,0.4-1.3,0.9-1.7,1.6c-0.4,0.7-0.6,1.4-0.6,2.1v5.4h-2.8v-11.7H433.1z"/>
				<path class="st2" d="M445.4,151.8c-0.9,0-1.7-0.1-2.6-0.4s-1.5-0.7-2.1-1.3l1.2-1.5c0.5,0.5,1.1,0.8,1.6,1.1s1.1,0.4,1.6,0.4
					c0.4,0,0.8,0,1.1-0.1s0.6-0.3,0.8-0.5c0.2-0.2,0.3-0.5,0.3-0.9c0-0.4-0.1-0.8-0.4-1c-0.3-0.2-0.7-0.4-1.1-0.6s-0.9-0.3-1.4-0.4
					c-1-0.3-1.8-0.8-2.3-1.3s-0.8-1.3-0.8-2.1c0-0.6,0.2-1.2,0.5-1.7c0.3-0.5,0.8-1,1.5-1.3c0.7-0.3,1.5-0.5,2.4-0.5
					c0.9,0,1.6,0.1,2.3,0.3s1.3,0.5,1.9,1l-1.1,1.6c-0.4-0.4-0.8-0.6-1.3-0.8s-0.9-0.3-1.3-0.3c-0.4,0-0.7,0.1-1,0.2
					s-0.6,0.3-0.8,0.5c-0.2,0.2-0.3,0.4-0.3,0.8c0,0.4,0.1,0.7,0.4,0.9c0.3,0.2,0.7,0.4,1.1,0.6s0.9,0.3,1.4,0.5
					c0.6,0.2,1.1,0.4,1.6,0.7c0.5,0.3,0.9,0.6,1.2,1c0.3,0.4,0.4,0.9,0.4,1.6c0,0.7-0.2,1.3-0.5,1.9s-0.9,1.1-1.6,1.4
					C447.4,151.6,446.5,151.8,445.4,151.8z"/>
				<path class="st2" d="M453.9,135.6c0-0.4,0.2-0.8,0.5-1c0.3-0.3,0.7-0.4,1.2-0.4c0.4,0,0.8,0.1,1.1,0.4c0.3,0.3,0.5,0.6,0.5,1
					c0,0.4-0.2,0.8-0.5,1.1c-0.3,0.3-0.7,0.4-1.1,0.4c-0.4,0-0.8-0.1-1.2-0.4C454.1,136.3,453.9,136,453.9,135.6z M454.1,139.8h2.8
					v11.7h-2.8V139.8z"/>
				<path class="st2" d="M463,134.7h2.9v5.2h3.4v2.1h-3.4v9.6H463v-9.6h-2.3v-2.1h2.3V134.7z"/>
				<path class="st2" d="M477.8,151.8c-1.2,0-2.2-0.2-3.2-0.7c-1-0.5-1.7-1.2-2.3-2.1c-0.6-0.9-0.8-2-0.8-3.4c0-1.3,0.3-2.5,0.9-3.4
					c0.6-0.9,1.4-1.7,2.3-2.2c1-0.5,2.1-0.8,3.2-0.8s2.1,0.2,3,0.8s1.4,1.1,1.8,1.8l-0.2,0.4l0.3-2.5h2.6v11.7h-2.8v-3.1l0.3,0.7
					c-0.1,0.2-0.3,0.4-0.6,0.7c-0.3,0.3-0.6,0.6-1.1,0.9c-0.4,0.3-0.9,0.6-1.5,0.8C479.2,151.7,478.5,151.8,477.8,151.8z
					 M478.5,149.7c0.7,0,1.3-0.1,1.9-0.4s1-0.6,1.4-1c0.4-0.5,0.6-1,0.8-1.6v-2.3c-0.2-0.6-0.4-1.1-0.8-1.5s-0.9-0.8-1.4-1
					s-1.2-0.4-1.8-0.4c-0.8,0-1.5,0.2-2.1,0.5c-0.6,0.3-1.1,0.8-1.5,1.4c-0.4,0.6-0.6,1.3-0.6,2.1c0,0.8,0.2,1.4,0.6,2.1
					c0.4,0.6,0.9,1.1,1.5,1.5C477.1,149.5,477.8,149.7,478.5,149.7z"/>
				<path class="st2" d="M492.7,139.8l0.3,3.4l-0.1-0.5c0.3-0.7,0.8-1.3,1.4-1.8c0.6-0.5,1.2-0.9,1.9-1.2c0.7-0.3,1.3-0.4,1.7-0.4
					l-0.1,2.7c-1-0.1-1.8,0.1-2.5,0.5c-0.7,0.4-1.3,0.9-1.7,1.6c-0.4,0.7-0.6,1.4-0.6,2.1v5.4h-2.8v-11.7H492.7z"/>
				<path class="st2" d="M501.3,135.6c0-0.4,0.2-0.8,0.5-1c0.3-0.3,0.7-0.4,1.2-0.4c0.4,0,0.8,0.1,1.1,0.4c0.3,0.3,0.5,0.6,0.5,1
					c0,0.4-0.2,0.8-0.5,1.1c-0.3,0.3-0.7,0.4-1.1,0.4c-0.4,0-0.8-0.1-1.2-0.4C501.5,136.3,501.3,136,501.3,135.6z M501.5,139.8h2.8
					v11.7h-2.8V139.8z"/>
				<path class="st2" d="M514.4,151.8c-1.2,0-2.2-0.2-3.2-0.7c-1-0.5-1.7-1.2-2.3-2.1c-0.6-0.9-0.8-2-0.8-3.4c0-1.3,0.3-2.5,0.9-3.4
					c0.6-0.9,1.4-1.7,2.3-2.2c1-0.5,2.1-0.8,3.2-0.8s2.1,0.2,3,0.8s1.4,1.1,1.8,1.8l-0.2,0.4l0.3-2.5h2.6v11.7h-2.8v-3.1l0.3,0.7
					c-0.1,0.2-0.3,0.4-0.6,0.7c-0.3,0.3-0.6,0.6-1.1,0.9c-0.4,0.3-0.9,0.6-1.5,0.8C515.8,151.7,515.1,151.8,514.4,151.8z
					 M515.1,149.7c0.7,0,1.3-0.1,1.9-0.4s1-0.6,1.4-1c0.4-0.5,0.6-1,0.8-1.6v-2.3c-0.2-0.6-0.4-1.1-0.8-1.5s-0.9-0.8-1.4-1
					s-1.2-0.4-1.8-0.4c-0.8,0-1.5,0.2-2.1,0.5c-0.6,0.3-1.1,0.8-1.5,1.4c-0.4,0.6-0.6,1.3-0.6,2.1c0,0.8,0.2,1.4,0.6,2.1
					c0.4,0.6,0.9,1.1,1.5,1.5C513.7,149.5,514.4,149.7,515.1,149.7z"/>
				<path class="st2" d="M525.9,149c0.3-0.3,0.7-0.5,1.1-0.5c0.4,0,0.7,0.2,1,0.5c0.3,0.3,0.5,0.7,0.5,1.1c0,0.5-0.2,0.8-0.5,1.1
					c-0.3,0.3-0.7,0.4-1,0.4c-0.4,0-0.8-0.1-1.1-0.4s-0.5-0.6-0.5-1.1C525.4,149.6,525.6,149.3,525.9,149z"/>
			</g>
		</g>
		<g>
			<g class="st1">
				<path class="st2" d="M57.1,165.1H60v20.5h-2.9V165.1z"/>
				<path class="st2" d="M78.6,185.8c-0.9,0-1.7-0.1-2.6-0.4c-0.8-0.3-1.5-0.7-2.1-1.3l1.2-1.5c0.5,0.5,1.1,0.8,1.6,1.1
					s1.1,0.4,1.6,0.4c0.4,0,0.8,0,1.1-0.1c0.3-0.1,0.6-0.3,0.8-0.5c0.2-0.2,0.3-0.5,0.3-0.9c0-0.4-0.1-0.8-0.4-1
					c-0.3-0.2-0.7-0.4-1.1-0.6c-0.4-0.2-0.9-0.3-1.4-0.4c-1-0.3-1.8-0.8-2.3-1.3s-0.8-1.3-0.8-2.1c0-0.6,0.2-1.2,0.5-1.7
					c0.3-0.5,0.8-1,1.5-1.3s1.5-0.5,2.4-0.5c0.9,0,1.6,0.1,2.3,0.3c0.7,0.2,1.3,0.5,1.9,1l-1.1,1.6c-0.4-0.4-0.8-0.6-1.3-0.8
					c-0.5-0.2-0.9-0.3-1.3-0.3c-0.4,0-0.7,0.1-1,0.2c-0.3,0.1-0.6,0.3-0.8,0.5c-0.2,0.2-0.3,0.4-0.3,0.8c0,0.4,0.1,0.7,0.4,1
					c0.3,0.2,0.7,0.4,1.1,0.6c0.4,0.2,0.9,0.3,1.4,0.5c0.6,0.2,1.1,0.4,1.6,0.7c0.5,0.3,0.9,0.6,1.2,1c0.3,0.4,0.4,0.9,0.4,1.6
					c0,0.7-0.2,1.3-0.5,1.9c-0.4,0.6-0.9,1.1-1.6,1.4C80.6,185.6,79.7,185.8,78.6,185.8z"/>
				<path class="st2" d="M91.3,186c-1.2,0-2.1-0.3-2.8-1c-0.7-0.7-1.1-1.5-1.2-2.5v-8.7h2.8v7.7c0,0.6,0.2,1.1,0.6,1.5
					c0.4,0.4,0.9,0.6,1.7,0.6c0.7,0,1.3-0.2,1.8-0.6c0.6-0.4,1-0.9,1.3-1.6c0.3-0.7,0.5-1.4,0.5-2.3v-5.5h2.8v11.7h-2.6l-0.2-2.9
					l0.2,0.5c-0.3,0.5-0.6,1-1.1,1.4c-0.5,0.4-1.1,0.8-1.7,1C92.8,185.9,92.1,186,91.3,186z"/>
				<path class="st2" d="M102.6,179.6c0-1.2,0.3-2.2,0.9-3.2c0.6-0.9,1.4-1.7,2.5-2.2s2.2-0.8,3.6-0.8c1.3,0,2.5,0.3,3.5,0.8
					c1,0.5,1.8,1.3,2.4,2.2c0.6,0.9,0.9,2,0.9,3.2s-0.3,2.2-0.9,3.2c-0.6,0.9-1.4,1.7-2.4,2.3c-1,0.6-2.2,0.8-3.6,0.8
					c-1.3,0-2.5-0.3-3.6-0.8c-1-0.5-1.8-1.2-2.4-2.2S102.6,180.9,102.6,179.6z M105.4,179.6c0,0.8,0.2,1.4,0.5,2.1
					c0.4,0.6,0.8,1.1,1.4,1.5c0.6,0.4,1.3,0.5,2,0.5c0.8,0,1.5-0.2,2.1-0.5c0.6-0.4,1.1-0.8,1.4-1.5c0.4-0.6,0.5-1.3,0.5-2.1
					c0-0.8-0.2-1.4-0.5-2.1c-0.4-0.6-0.8-1.1-1.4-1.5c-0.6-0.4-1.3-0.6-2.1-0.6c-0.8,0-1.4,0.2-2.1,0.6c-0.6,0.4-1.1,0.9-1.4,1.5
					S105.4,178.9,105.4,179.6z"/>
				<path class="st2" d="M119.9,169.6c0-0.4,0.2-0.8,0.5-1s0.7-0.4,1.2-0.4c0.4,0,0.8,0.1,1.1,0.4s0.5,0.6,0.5,1
					c0,0.4-0.2,0.8-0.5,1.1c-0.3,0.3-0.7,0.4-1.1,0.4c-0.4,0-0.8-0.1-1.2-0.4C120.1,170.4,119.9,170,119.9,169.6z M120.1,173.8h2.8
					v11.7h-2.8V173.8z"/>
				<path class="st2" d="M143.3,191.4c-0.9,0-1.7-0.1-2.4-0.3c-0.7-0.2-1.4-0.5-1.9-0.9c-0.6-0.4-1.1-0.8-1.7-1.2l1.7-1.8
					c0.7,0.6,1.3,1,2,1.3c0.7,0.3,1.4,0.5,2.3,0.5c0.9,0,1.7-0.1,2.4-0.4c0.7-0.3,1.1-0.7,1.5-1.2s0.5-1.1,0.5-1.8l0-3.2l0.2,0.5
					c-0.4,0.8-1,1.5-2,2.1c-0.9,0.6-2.1,0.8-3.4,0.8c-1.1,0-2.2-0.3-3.1-0.8c-1-0.5-1.7-1.3-2.3-2.2c-0.6-0.9-0.9-2-0.9-3.2
					c0-1.2,0.3-2.3,0.9-3.3c0.6-0.9,1.4-1.7,2.4-2.2s2.1-0.8,3.2-0.8c1.1,0,2.1,0.2,3,0.6s1.6,1,2,1.6l-0.2,0.5l0.3-2.3h2.6v11.8
					c0,1.1-0.3,2-0.9,2.9s-1.4,1.6-2.5,2.1C146,191.2,144.7,191.4,143.3,191.4z M139,179.6c0,0.8,0.2,1.4,0.6,2.1s0.9,1.1,1.6,1.5
					c0.7,0.4,1.4,0.5,2.1,0.5c0.7,0,1.4-0.1,2-0.4c0.6-0.3,1.1-0.6,1.5-1.1c0.4-0.5,0.7-1,0.8-1.5v-2.4c-0.2-0.6-0.5-1.1-0.9-1.5
					s-0.9-0.7-1.5-1c-0.6-0.2-1.2-0.4-1.9-0.4c-0.8,0-1.5,0.2-2.1,0.5c-0.7,0.3-1.2,0.8-1.6,1.4C139.2,178.1,139,178.8,139,179.6z"
					/>
				<path class="st2" d="M161,185.9c-1.4,0-2.6-0.3-3.7-0.8c-1-0.5-1.8-1.3-2.4-2.2c-0.6-0.9-0.8-2-0.8-3.2c0-1.2,0.3-2.2,0.9-3.1
					c0.6-0.9,1.5-1.7,2.5-2.3c1-0.6,2.2-0.9,3.5-0.9c1.6,0,3,0.5,4.1,1.4c1.1,0.9,1.8,2.2,2.2,3.7l-10.3,3.4l-0.7-1.6l8.4-2.9
					l-0.6,0.4c-0.2-0.6-0.6-1.2-1.2-1.6c-0.6-0.5-1.3-0.7-2.2-0.7c-0.8,0-1.4,0.2-2,0.5c-0.6,0.3-1.1,0.8-1.4,1.4
					c-0.3,0.6-0.5,1.3-0.5,2.1c0,0.8,0.2,1.5,0.5,2.1c0.4,0.6,0.8,1.1,1.5,1.5c0.6,0.3,1.3,0.5,2.1,0.5c0.5,0,1.1-0.1,1.6-0.3
					c0.5-0.2,1-0.4,1.5-0.7l1.3,2c-0.6,0.4-1.3,0.7-2.1,1C162.5,185.7,161.8,185.9,161,185.9z"/>
				<path class="st2" d="M173.4,173.8l0.2,2.9l-0.1-0.5c0.4-0.9,1-1.6,1.9-2.1c0.9-0.5,2-0.8,3.2-0.8c1.2,0,2.1,0.3,2.9,1
					c0.8,0.7,1.1,1.5,1.2,2.5v8.7h-2.8v-7.8c0-0.6-0.2-1.1-0.6-1.5c-0.4-0.4-0.9-0.6-1.7-0.6c-0.7,0-1.3,0.2-1.9,0.6
					s-1.1,0.9-1.4,1.6s-0.5,1.4-0.5,2.3v5.5h-2.8v-11.7H173.4z"/>
				<path class="st2" d="M187.3,169.6c0-0.4,0.2-0.8,0.5-1s0.7-0.4,1.2-0.4c0.4,0,0.8,0.1,1.1,0.4s0.5,0.6,0.5,1
					c0,0.4-0.2,0.8-0.5,1.1c-0.3,0.3-0.7,0.4-1.1,0.4c-0.4,0-0.8-0.1-1.2-0.4C187.5,170.4,187.3,170,187.3,169.6z M187.5,173.8h2.8
					v11.7h-2.8V173.8z"/>
				<path class="st2" d="M196.3,168.7h2.9v5.2h3.4v2.1h-3.4v9.6h-2.9V176h-2.3v-2.1h2.3V168.7z"/>
				<path class="st2" d="M204.9,179.6c0-1.2,0.3-2.2,0.9-3.2c0.6-0.9,1.4-1.7,2.5-2.2s2.2-0.8,3.6-0.8c1.3,0,2.5,0.3,3.5,0.8
					c1,0.5,1.8,1.3,2.4,2.2c0.6,0.9,0.9,2,0.9,3.2s-0.3,2.2-0.9,3.2c-0.6,0.9-1.4,1.7-2.4,2.3c-1,0.6-2.2,0.8-3.6,0.8
					c-1.3,0-2.5-0.3-3.6-0.8c-1-0.5-1.8-1.2-2.4-2.2S204.9,180.9,204.9,179.6z M207.7,179.6c0,0.8,0.2,1.4,0.5,2.1
					c0.4,0.6,0.8,1.1,1.4,1.5c0.6,0.4,1.3,0.5,2,0.5c0.8,0,1.5-0.2,2.1-0.5c0.6-0.4,1.1-0.8,1.4-1.5c0.4-0.6,0.5-1.3,0.5-2.1
					c0-0.8-0.2-1.4-0.5-2.1c-0.4-0.6-0.8-1.1-1.4-1.5c-0.6-0.4-1.3-0.6-2.1-0.6c-0.8,0-1.4,0.2-2.1,0.6c-0.6,0.4-1.1,0.9-1.4,1.5
					S207.7,178.9,207.7,179.6z"/>
				<path class="st2" d="M224.9,173.8l0.3,3.4l-0.1-0.5c0.3-0.7,0.8-1.3,1.4-1.8c0.6-0.5,1.2-0.9,1.9-1.2c0.7-0.3,1.3-0.4,1.7-0.4
					l-0.1,2.7c-1-0.1-1.8,0.1-2.5,0.5c-0.7,0.4-1.3,0.9-1.7,1.6c-0.4,0.7-0.6,1.4-0.6,2.1v5.4h-2.8v-11.7H224.9z"/>
				<path class="st2" d="M233.5,169.6c0-0.4,0.2-0.8,0.5-1s0.7-0.4,1.2-0.4c0.4,0,0.8,0.1,1.1,0.4s0.5,0.6,0.5,1
					c0,0.4-0.2,0.8-0.5,1.1c-0.3,0.3-0.7,0.4-1.1,0.4c-0.4,0-0.8-0.1-1.2-0.4C233.6,170.4,233.5,170,233.5,169.6z M233.6,173.8h2.8
					v11.7h-2.8V173.8z"/>
				<path class="st2" d="M253.4,173.8l0.2,2.9l-0.1-0.5c0.4-0.9,1-1.6,1.9-2.1c0.9-0.5,2-0.8,3.2-0.8c1.2,0,2.1,0.3,2.9,1
					c0.8,0.7,1.1,1.5,1.2,2.5v8.7h-2.8v-7.8c0-0.6-0.2-1.1-0.6-1.5c-0.4-0.4-0.9-0.6-1.7-0.6c-0.7,0-1.3,0.2-1.9,0.6
					s-1.1,0.9-1.4,1.6s-0.5,1.4-0.5,2.3v5.5h-2.8v-11.7H253.4z"/>
				<path class="st2" d="M266.3,179.6c0-1.2,0.3-2.2,0.9-3.2c0.6-0.9,1.4-1.7,2.5-2.2s2.2-0.8,3.6-0.8c1.3,0,2.5,0.3,3.5,0.8
					c1,0.5,1.8,1.3,2.4,2.2c0.6,0.9,0.9,2,0.9,3.2s-0.3,2.2-0.9,3.2c-0.6,0.9-1.4,1.7-2.4,2.3c-1,0.6-2.2,0.8-3.6,0.8
					c-1.3,0-2.5-0.3-3.6-0.8c-1-0.5-1.8-1.2-2.4-2.2S266.3,180.9,266.3,179.6z M269.2,179.6c0,0.8,0.2,1.4,0.5,2.1
					c0.4,0.6,0.8,1.1,1.4,1.5c0.6,0.4,1.3,0.5,2,0.5c0.8,0,1.5-0.2,2.1-0.5c0.6-0.4,1.1-0.8,1.4-1.5c0.4-0.6,0.5-1.3,0.5-2.1
					c0-0.8-0.2-1.4-0.5-2.1c-0.4-0.6-0.8-1.1-1.4-1.5c-0.6-0.4-1.3-0.6-2.1-0.6c-0.8,0-1.4,0.2-2.1,0.6c-0.6,0.4-1.1,0.9-1.4,1.5
					S269.2,178.9,269.2,179.6z"/>
				<path class="st2" d="M286.4,173.8l0.2,2.9l-0.1-0.5c0.4-0.9,1-1.6,1.9-2.1c0.9-0.5,2-0.8,3.2-0.8c1.2,0,2.1,0.3,2.9,1
					c0.8,0.7,1.1,1.5,1.2,2.5v8.7h-2.8v-7.8c0-0.6-0.2-1.1-0.6-1.5c-0.4-0.4-0.9-0.6-1.7-0.6c-0.7,0-1.3,0.2-1.9,0.6
					s-1.1,0.9-1.4,1.6s-0.5,1.4-0.5,2.3v5.5h-2.8v-11.7H286.4z"/>
				<path class="st2" d="M316,191.4c-0.9,0-1.7-0.1-2.4-0.3c-0.7-0.2-1.4-0.5-1.9-0.9c-0.6-0.4-1.1-0.8-1.7-1.2l1.7-1.8
					c0.7,0.6,1.3,1,2,1.3c0.7,0.3,1.4,0.5,2.3,0.5c0.9,0,1.7-0.1,2.4-0.4c0.7-0.3,1.1-0.7,1.5-1.2c0.3-0.5,0.5-1.1,0.5-1.8l0-3.2
					l0.2,0.5c-0.4,0.8-1,1.5-2,2.1s-2.1,0.8-3.4,0.8c-1.1,0-2.2-0.3-3.1-0.8c-1-0.5-1.7-1.3-2.3-2.2s-0.9-2-0.9-3.2
					c0-1.2,0.3-2.3,0.9-3.3c0.6-0.9,1.4-1.7,2.4-2.2c1-0.5,2.1-0.8,3.2-0.8c1.1,0,2.1,0.2,3,0.6c0.9,0.4,1.6,1,2,1.6l-0.2,0.5
					l0.3-2.3h2.6v11.8c0,1.1-0.3,2-0.9,2.9s-1.4,1.6-2.5,2.1C318.7,191.2,317.4,191.4,316,191.4z M311.7,179.6
					c0,0.8,0.2,1.4,0.6,2.1s0.9,1.1,1.6,1.5c0.7,0.4,1.4,0.5,2.1,0.5c0.7,0,1.4-0.1,2-0.4c0.6-0.3,1.1-0.6,1.5-1.1
					c0.4-0.5,0.7-1,0.8-1.5v-2.4c-0.2-0.6-0.5-1.1-0.9-1.5s-0.9-0.7-1.5-1s-1.2-0.4-1.9-0.4c-0.8,0-1.5,0.2-2.1,0.5
					c-0.7,0.3-1.2,0.8-1.6,1.4C311.8,178.1,311.7,178.8,311.7,179.6z"/>
				<path class="st2" d="M327.9,163.6h2.8v21.9h-2.8V163.6z"/>
				<path class="st2" d="M335.4,169.6c0-0.4,0.2-0.8,0.5-1c0.3-0.3,0.7-0.4,1.2-0.4c0.4,0,0.8,0.1,1.1,0.4c0.3,0.3,0.5,0.6,0.5,1
					c0,0.4-0.2,0.8-0.5,1.1c-0.3,0.3-0.7,0.4-1.1,0.4c-0.4,0-0.8-0.1-1.2-0.4C335.6,170.4,335.4,170,335.4,169.6z M335.6,173.8h2.8
					v11.7h-2.8V173.8z"/>
			</g>
		</g>
		<g>
			<g class="st1">
				<path class="st2" d="M353.8,185.6v-9.4h-2.2v-2.4h2.2v-4.9c0-1.7,0.4-3,1.2-3.9s2-1.4,3.6-1.4c0.4,0,0.9,0.1,1.4,0.2
					c0.5,0.1,0.9,0.3,1.3,0.6l-1.2,1.9c-0.2-0.2-0.4-0.3-0.6-0.4c-0.2-0.1-0.5-0.1-0.7-0.1c-0.7,0-1.3,0.2-1.7,0.7
					c-0.4,0.5-0.6,1.3-0.6,2.4v4.9h3.9v2.4h-3.9v9.4H353.8z"/>
			</g>
		</g>
		<g>
			<g class="st1">
				<path class="st2" d="M368.6,185.9c-1.2,0-2.2-0.2-3.2-0.7c-1-0.5-1.7-1.2-2.3-2.1c-0.6-0.9-0.8-2-0.8-3.4s0.3-2.5,0.9-3.4
					s1.4-1.7,2.3-2.2c1-0.5,2.1-0.8,3.2-0.8s2.1,0.3,3,0.8c0.8,0.5,1.4,1.1,1.8,1.8l-0.2,0.4l0.3-2.5h2.6v11.7h-2.8v-3.1l0.3,0.7
					c-0.1,0.2-0.3,0.4-0.6,0.7c-0.3,0.3-0.6,0.6-1.1,0.9c-0.4,0.3-0.9,0.6-1.5,0.8C370,185.8,369.3,185.9,368.6,185.9z M369.4,183.7
					c0.7,0,1.3-0.1,1.9-0.4c0.6-0.2,1-0.6,1.4-1c0.4-0.5,0.6-1,0.8-1.6v-2.3c-0.2-0.6-0.4-1.1-0.8-1.5s-0.9-0.8-1.4-1
					c-0.6-0.2-1.2-0.4-1.8-0.4c-0.8,0-1.5,0.2-2.1,0.5c-0.6,0.3-1.1,0.8-1.5,1.4c-0.4,0.6-0.6,1.3-0.6,2.1c0,0.8,0.2,1.4,0.6,2.1
					c0.4,0.6,0.9,1.1,1.5,1.5C367.9,183.5,368.6,183.7,369.4,183.7z"/>
				<path class="st2" d="M383.6,173.8l0.2,2.9l-0.1-0.5c0.4-0.9,1-1.6,1.9-2.1c0.9-0.5,2-0.8,3.2-0.8c1.2,0,2.1,0.3,2.9,1
					c0.8,0.7,1.1,1.5,1.2,2.5v8.7H390v-7.8c0-0.6-0.2-1.1-0.6-1.5c-0.4-0.4-0.9-0.6-1.7-0.6c-0.7,0-1.3,0.2-1.9,0.6
					c-0.6,0.4-1.1,0.9-1.4,1.6c-0.3,0.7-0.5,1.4-0.5,2.3v5.5H381v-11.7H383.6z"/>
				<path class="st2" d="M400.2,173.8l0.2,2.9l-0.1-0.5c0.4-0.9,1-1.6,1.9-2.1c0.9-0.5,2-0.8,3.2-0.8c1.2,0,2.1,0.3,2.9,1
					c0.8,0.7,1.1,1.5,1.2,2.5v8.7h-2.8v-7.8c0-0.6-0.2-1.1-0.6-1.5c-0.4-0.4-0.9-0.6-1.7-0.6c-0.7,0-1.3,0.2-1.9,0.6
					c-0.6,0.4-1.1,0.9-1.4,1.6c-0.3,0.7-0.5,1.4-0.5,2.3v5.5h-2.8v-11.7H400.2z"/>
				<path class="st2" d="M413.2,179.6c0-1.2,0.3-2.2,0.9-3.2c0.6-0.9,1.4-1.7,2.5-2.2s2.2-0.8,3.6-0.8c1.3,0,2.5,0.3,3.5,0.8
					c1,0.5,1.8,1.3,2.4,2.2s0.9,2,0.9,3.2s-0.3,2.2-0.9,3.2c-0.6,0.9-1.4,1.7-2.4,2.3c-1,0.6-2.2,0.8-3.6,0.8
					c-1.3,0-2.5-0.3-3.6-0.8c-1-0.5-1.8-1.2-2.4-2.2C413.5,182,413.2,180.9,413.2,179.6z M416,179.6c0,0.8,0.2,1.4,0.5,2.1
					c0.4,0.6,0.8,1.1,1.4,1.5c0.6,0.4,1.3,0.5,2,0.5c0.8,0,1.5-0.2,2.1-0.5c0.6-0.4,1.1-0.8,1.4-1.5c0.4-0.6,0.5-1.3,0.5-2.1
					c0-0.8-0.2-1.4-0.5-2.1s-0.8-1.1-1.4-1.5c-0.6-0.4-1.3-0.6-2.1-0.6c-0.8,0-1.4,0.2-2.1,0.6s-1.1,0.9-1.4,1.5
					S416,178.9,416,179.6z"/>
				<path class="st2" d="M442.7,173.8l0.2,2.6l-0.2-0.2c0.5-0.9,1.1-1.6,2-2.1c0.9-0.5,1.8-0.8,3-0.8c0.7,0,1.3,0.1,1.8,0.3
					c0.5,0.2,1,0.5,1.3,0.9s0.6,0.9,0.7,1.4l-0.2,0.1c0.5-0.9,1.1-1.5,2-2c0.9-0.5,1.7-0.7,2.7-0.7c1.2,0,2.2,0.3,2.9,1
					s1.1,1.5,1.1,2.5v8.7h-2.8v-7.7c0-0.6-0.2-1.1-0.5-1.5c-0.3-0.4-0.8-0.6-1.5-0.6c-0.7,0-1.4,0.2-1.9,0.6s-1,0.9-1.3,1.6
					c-0.3,0.7-0.5,1.4-0.5,2.1v5.6h-2.8v-7.7c0-0.6-0.2-1.1-0.5-1.5c-0.3-0.4-0.8-0.6-1.5-0.6c-0.7,0-1.4,0.2-1.9,0.6
					c-0.6,0.4-1,0.9-1.3,1.6c-0.3,0.7-0.5,1.4-0.5,2.2v5.5h-2.8v-11.7H442.7z"/>
				<path class="st2" d="M470.1,185.9c-1.2,0-2.2-0.2-3.2-0.7c-1-0.5-1.7-1.2-2.3-2.1c-0.6-0.9-0.8-2-0.8-3.4s0.3-2.5,0.9-3.4
					s1.4-1.7,2.3-2.2c1-0.5,2.1-0.8,3.2-0.8s2.1,0.3,3,0.8c0.8,0.5,1.4,1.1,1.8,1.8l-0.2,0.4l0.3-2.5h2.6v11.7h-2.8v-3.1l0.3,0.7
					c-0.1,0.2-0.3,0.4-0.6,0.7c-0.3,0.3-0.6,0.6-1.1,0.9c-0.4,0.3-0.9,0.6-1.5,0.8C471.5,185.8,470.9,185.9,470.1,185.9z
					 M470.9,183.7c0.7,0,1.3-0.1,1.9-0.4c0.6-0.2,1-0.6,1.4-1c0.4-0.5,0.6-1,0.8-1.6v-2.3c-0.2-0.6-0.4-1.1-0.8-1.5s-0.9-0.8-1.4-1
					c-0.6-0.2-1.2-0.4-1.8-0.4c-0.8,0-1.5,0.2-2.1,0.5c-0.6,0.3-1.1,0.8-1.5,1.4c-0.4,0.6-0.6,1.3-0.6,2.1c0,0.8,0.2,1.4,0.6,2.1
					c0.4,0.6,0.9,1.1,1.5,1.5C469.5,183.5,470.2,183.7,470.9,183.7z"/>
				<path class="st2" d="M482.4,169.6c0-0.4,0.2-0.8,0.5-1c0.3-0.3,0.7-0.4,1.2-0.4c0.4,0,0.8,0.1,1.1,0.4c0.3,0.3,0.5,0.6,0.5,1
					c0,0.4-0.2,0.8-0.5,1.1c-0.3,0.3-0.7,0.4-1.1,0.4c-0.4,0-0.8-0.1-1.2-0.4C482.6,170.4,482.4,170,482.4,169.6z M482.6,173.8h2.8
					v11.7h-2.8V173.8z"/>
				<path class="st2" d="M502.3,173.8l0.2,2.6l-0.2-0.2c0.5-0.9,1.1-1.6,2-2.1c0.9-0.5,1.8-0.8,3-0.8c0.7,0,1.3,0.1,1.8,0.3
					c0.5,0.2,1,0.5,1.3,0.9s0.6,0.9,0.7,1.4l-0.2,0.1c0.5-0.9,1.1-1.5,2-2c0.9-0.5,1.7-0.7,2.7-0.7c1.2,0,2.2,0.3,2.9,1
					s1.1,1.5,1.1,2.5v8.7h-2.8v-7.7c0-0.6-0.2-1.1-0.5-1.5c-0.3-0.4-0.8-0.6-1.5-0.6c-0.7,0-1.4,0.2-1.9,0.6s-1,0.9-1.3,1.6
					c-0.3,0.7-0.5,1.4-0.5,2.1v5.6h-2.8v-7.7c0-0.6-0.2-1.1-0.5-1.5c-0.3-0.4-0.8-0.6-1.5-0.6c-0.7,0-1.4,0.2-1.9,0.6
					c-0.6,0.4-1,0.9-1.3,1.6c-0.3,0.7-0.5,1.4-0.5,2.2v5.5h-2.8v-11.7H502.3z"/>
				<path class="st2" d="M529.7,185.9c-1.2,0-2.2-0.2-3.2-0.7c-1-0.5-1.7-1.2-2.3-2.1c-0.6-0.9-0.8-2-0.8-3.4s0.3-2.5,0.9-3.4
					s1.4-1.7,2.3-2.2c1-0.5,2.1-0.8,3.2-0.8s2.1,0.3,3,0.8c0.8,0.5,1.4,1.1,1.8,1.8l-0.2,0.4l0.3-2.5h2.6v11.7h-2.8v-3.1l0.3,0.7
					c-0.1,0.2-0.3,0.4-0.6,0.7c-0.3,0.3-0.6,0.6-1.1,0.9c-0.4,0.3-0.9,0.6-1.5,0.8C531.1,185.8,530.5,185.9,529.7,185.9z
					 M530.5,183.7c0.7,0,1.3-0.1,1.9-0.4c0.6-0.2,1-0.6,1.4-1c0.4-0.5,0.6-1,0.8-1.6v-2.3c-0.2-0.6-0.4-1.1-0.8-1.5s-0.9-0.8-1.4-1
					c-0.6-0.2-1.2-0.4-1.8-0.4c-0.8,0-1.5,0.2-2.1,0.5c-0.6,0.3-1.1,0.8-1.5,1.4c-0.4,0.6-0.6,1.3-0.6,2.1c0,0.8,0.2,1.4,0.6,2.1
					c0.4,0.6,0.9,1.1,1.5,1.5C529.1,183.5,529.7,183.7,530.5,183.7z"/>
				<path class="st2" d="M544.7,173.8l0.2,2.9l-0.1-0.5c0.4-0.9,1-1.6,1.9-2.1c0.9-0.5,2-0.8,3.2-0.8c1.2,0,2.1,0.3,2.9,1
					c0.8,0.7,1.1,1.5,1.2,2.5v8.7h-2.8v-7.8c0-0.6-0.2-1.1-0.6-1.5c-0.4-0.4-0.9-0.6-1.7-0.6c-0.7,0-1.3,0.2-1.9,0.6
					c-0.6,0.4-1.1,0.9-1.4,1.6c-0.3,0.7-0.5,1.4-0.5,2.3v5.5h-2.8v-11.7H544.7z"/>
				<path class="st2" d="M568.9,184.5c-0.6,0.4-1.2,0.8-2,1c-0.8,0.2-1.6,0.4-2.3,0.4c-1.3,0-2.5-0.3-3.6-0.8
					c-1-0.5-1.8-1.2-2.4-2.2c-0.6-0.9-0.9-2-0.9-3.3c0-1.2,0.3-2.3,0.9-3.2c0.6-0.9,1.4-1.6,2.4-2.1c1-0.5,2.1-0.8,3.2-0.8
					c1,0,1.9,0.1,2.7,0.4c0.8,0.3,1.5,0.6,2.1,1.1l-1.4,1.7c-0.3-0.2-0.8-0.5-1.3-0.7c-0.5-0.2-1.1-0.3-1.8-0.3
					c-0.7,0-1.4,0.2-2,0.5s-1.1,0.8-1.4,1.4s-0.5,1.3-0.5,2c0,0.7,0.2,1.4,0.5,2c0.4,0.6,0.9,1.1,1.5,1.4c0.6,0.4,1.4,0.5,2.2,0.5
					c0.5,0,1-0.1,1.5-0.2c0.5-0.2,0.9-0.4,1.2-0.6L568.9,184.5z"/>
				<path class="st2" d="M577.7,185.9c-1.2,0-2.2-0.2-3.2-0.7c-1-0.5-1.7-1.2-2.3-2.1c-0.6-0.9-0.8-2-0.8-3.4s0.3-2.5,0.9-3.4
					s1.4-1.7,2.3-2.2c1-0.5,2.1-0.8,3.2-0.8s2.1,0.3,3,0.8c0.8,0.5,1.4,1.1,1.8,1.8l-0.2,0.4l0.3-2.5h2.6v11.7h-2.8v-3.1l0.3,0.7
					c-0.1,0.2-0.3,0.4-0.6,0.7c-0.3,0.3-0.6,0.6-1.1,0.9c-0.4,0.3-0.9,0.6-1.5,0.8C579.1,185.8,578.4,185.9,577.7,185.9z
					 M578.4,183.7c0.7,0,1.3-0.1,1.9-0.4c0.6-0.2,1-0.6,1.4-1c0.4-0.5,0.6-1,0.8-1.6v-2.3c-0.2-0.6-0.4-1.1-0.8-1.5s-0.9-0.8-1.4-1
					c-0.6-0.2-1.2-0.4-1.8-0.4c-0.8,0-1.5,0.2-2.1,0.5c-0.6,0.3-1.1,0.8-1.5,1.4c-0.4,0.6-0.6,1.3-0.6,2.1c0,0.8,0.2,1.4,0.6,2.1
					c0.4,0.6,0.9,1.1,1.5,1.5C577,183.5,577.7,183.7,578.4,183.7z"/>
				<path class="st2" d="M592.7,173.8l0.3,3.4l-0.1-0.5c0.3-0.7,0.8-1.3,1.4-1.8c0.6-0.5,1.2-0.9,1.9-1.2c0.7-0.3,1.3-0.4,1.7-0.4
					l-0.1,2.7c-1-0.1-1.8,0.1-2.5,0.5c-0.7,0.4-1.3,0.9-1.7,1.6c-0.4,0.7-0.6,1.4-0.6,2.1v5.4h-2.8v-11.7H592.7z"/>
				<path class="st2" d="M607.2,185.9c-1.4,0-2.6-0.3-3.7-0.8c-1-0.5-1.8-1.3-2.4-2.2c-0.6-0.9-0.8-2-0.8-3.2c0-1.2,0.3-2.2,0.9-3.1
					c0.6-0.9,1.5-1.7,2.5-2.3c1-0.6,2.2-0.9,3.5-0.9c1.6,0,3,0.5,4.1,1.4c1.1,0.9,1.8,2.2,2.2,3.7l-10.3,3.4l-0.7-1.6l8.4-2.9
					l-0.6,0.4c-0.2-0.6-0.6-1.2-1.2-1.6s-1.3-0.7-2.2-0.7c-0.8,0-1.4,0.2-2,0.5c-0.6,0.3-1.1,0.8-1.4,1.4s-0.5,1.3-0.5,2.1
					c0,0.8,0.2,1.5,0.5,2.1c0.4,0.6,0.8,1.1,1.5,1.5s1.3,0.5,2.1,0.5c0.5,0,1.1-0.1,1.6-0.3c0.5-0.2,1-0.4,1.5-0.7l1.3,2
					c-0.6,0.4-1.3,0.7-2.1,1C608.7,185.7,608,185.9,607.2,185.9z"/>
			</g>
		</g>
		<g>
			<g class="st1">
				<path class="st2" d="M59,207.9l0.2,2.9l-0.1-0.5c0.4-0.9,1-1.6,1.9-2.1c0.9-0.5,2-0.8,3.2-0.8c1.2,0,2.1,0.3,2.9,1
					c0.8,0.7,1.1,1.5,1.2,2.5v8.7h-2.8v-7.8c0-0.6-0.2-1.1-0.6-1.5c-0.4-0.4-0.9-0.6-1.7-0.6c-0.7,0-1.3,0.2-1.9,0.6
					s-1.1,0.9-1.4,1.6s-0.5,1.4-0.5,2.3v5.5h-2.8v-11.7H59z"/>
				<path class="st2" d="M72.8,203.6c0-0.4,0.2-0.8,0.5-1s0.7-0.4,1.2-0.4c0.4,0,0.8,0.1,1.1,0.4s0.5,0.6,0.5,1
					c0,0.4-0.2,0.8-0.5,1.1c-0.3,0.3-0.7,0.4-1.1,0.4c-0.4,0-0.8-0.1-1.2-0.4C73,204.4,72.8,204,72.8,203.6z M73,207.9h2.8v11.7H73
					V207.9z"/>
				<path class="st2" d="M86.5,219.9c-1.4,0-2.6-0.3-3.7-0.8c-1-0.5-1.8-1.3-2.4-2.2c-0.6-0.9-0.8-2-0.8-3.2c0-1.2,0.3-2.2,0.9-3.1
					c0.6-0.9,1.5-1.7,2.5-2.3c1-0.6,2.2-0.9,3.5-0.9c1.6,0,3,0.5,4.1,1.4c1.1,0.9,1.8,2.2,2.2,3.7l-10.3,3.4l-0.7-1.6l8.4-2.9
					l-0.6,0.4c-0.2-0.6-0.6-1.2-1.2-1.6c-0.6-0.5-1.3-0.7-2.2-0.7c-0.8,0-1.4,0.2-2,0.5c-0.6,0.3-1.1,0.8-1.4,1.4
					c-0.3,0.6-0.5,1.3-0.5,2.1c0,0.8,0.2,1.5,0.5,2.1c0.4,0.6,0.8,1.1,1.5,1.5c0.6,0.3,1.3,0.5,2.1,0.5c0.5,0,1.1-0.1,1.6-0.3
					c0.5-0.2,1-0.4,1.5-0.7l1.3,2c-0.6,0.4-1.3,0.7-2.1,1C88,219.8,87.2,219.9,86.5,219.9z"/>
				<path class="st2" d="M98.9,207.9l0.2,2.9l-0.1-0.5c0.4-0.9,1-1.6,1.9-2.1c0.9-0.5,2-0.8,3.2-0.8c1.2,0,2.1,0.3,2.9,1
					c0.8,0.7,1.1,1.5,1.2,2.5v8.7h-2.8v-7.8c0-0.6-0.2-1.1-0.6-1.5c-0.4-0.4-0.9-0.6-1.7-0.6c-0.7,0-1.3,0.2-1.9,0.6
					s-1.1,0.9-1.4,1.6s-0.5,1.4-0.5,2.3v5.5h-2.8v-11.7H98.9z"/>
				<path class="st2" d="M114.1,202.7h2.9v5.2h3.4v2.1H117v9.6h-2.9V210h-2.3v-2.1h2.3V202.7z"/>
				<path class="st2" d="M129.5,219.9c-1.4,0-2.6-0.3-3.7-0.8c-1-0.5-1.8-1.3-2.4-2.2c-0.6-0.9-0.8-2-0.8-3.2c0-1.2,0.3-2.2,0.9-3.1
					c0.6-0.9,1.5-1.7,2.5-2.3c1-0.6,2.2-0.9,3.5-0.9c1.6,0,3,0.5,4.1,1.4c1.1,0.9,1.8,2.2,2.2,3.7l-10.3,3.4l-0.7-1.6l8.4-2.9
					l-0.6,0.4c-0.2-0.6-0.6-1.2-1.2-1.6c-0.6-0.5-1.3-0.7-2.2-0.7c-0.8,0-1.4,0.2-2,0.5c-0.6,0.3-1.1,0.8-1.4,1.4
					c-0.3,0.6-0.5,1.3-0.5,2.1c0,0.8,0.2,1.5,0.5,2.1c0.4,0.6,0.8,1.1,1.5,1.5c0.6,0.3,1.3,0.5,2.1,0.5c0.5,0,1.1-0.1,1.6-0.3
					c0.5-0.2,1-0.4,1.5-0.7l1.3,2c-0.6,0.4-1.3,0.7-2.1,1C131,219.8,130.3,219.9,129.5,219.9z"/>
				<path class="st2" d="M142,217.1c-0.4,1-0.9,2-1.3,3c-0.4,1-0.9,2-1.3,3H137c0.4-1,0.8-2,1.2-3c0.4-1,0.8-2,1.1-3H142z"/>
				<path class="st2" d="M160,219.9l-6.9-12.1h3.3l4.7,9.3l-1.7-0.1l4.3-9.2h3.1l-6.6,12.1H160z"/>
				<path class="st2" d="M169.6,203.6c0-0.4,0.2-0.8,0.5-1s0.7-0.4,1.2-0.4c0.4,0,0.8,0.1,1.1,0.4s0.5,0.6,0.5,1
					c0,0.4-0.2,0.8-0.5,1.1c-0.3,0.3-0.7,0.4-1.1,0.4c-0.4,0-0.8-0.1-1.2-0.4C169.8,204.4,169.6,204,169.6,203.6z M169.8,207.9h2.8
					v11.7h-2.8V207.9z"/>
				<path class="st2" d="M178.6,210c-0.6,0-1.1-0.2-1.6-0.5c-0.4-0.4-0.6-0.9-0.6-1.6v-1.1h2.1v0.4c0,0.3,0.1,0.5,0.2,0.6
					c0.1,0.1,0.4,0.1,0.8,0.1h8l-7.5,10.1l-0.6-0.5h7.9v2.2h-11.5l7.6-10.3l0.5,0.7H178.6z"/>
				<path class="st2" d="M191.2,203.6c0-0.4,0.2-0.8,0.5-1s0.7-0.4,1.2-0.4c0.4,0,0.8,0.1,1.1,0.4s0.5,0.6,0.5,1
					c0,0.4-0.2,0.8-0.5,1.1c-0.3,0.3-0.7,0.4-1.1,0.4c-0.4,0-0.8-0.1-1.2-0.4C191.4,204.4,191.2,204,191.2,203.6z M191.4,207.9h2.8
					v11.7h-2.8V207.9z"/>
				<path class="st2" d="M204.3,219.9c-1.2,0-2.2-0.2-3.2-0.7c-1-0.5-1.7-1.2-2.3-2.1c-0.6-0.9-0.8-2-0.8-3.4s0.3-2.5,0.9-3.4
					c0.6-0.9,1.4-1.7,2.3-2.2c1-0.5,2.1-0.8,3.2-0.8s2.1,0.3,3,0.8c0.8,0.5,1.4,1.1,1.8,1.8l-0.2,0.4l0.3-2.5h2.6v11.7h-2.8v-3.1
					l0.3,0.7c-0.1,0.2-0.3,0.4-0.6,0.7c-0.3,0.3-0.6,0.6-1.1,0.9c-0.4,0.3-0.9,0.6-1.5,0.8C205.7,219.8,205,219.9,204.3,219.9z
					 M205,217.7c0.7,0,1.3-0.1,1.9-0.4c0.6-0.2,1-0.6,1.4-1c0.4-0.5,0.6-1,0.8-1.6v-2.3c-0.2-0.6-0.4-1.1-0.8-1.5
					c-0.4-0.4-0.9-0.8-1.4-1c-0.6-0.2-1.2-0.4-1.8-0.4c-0.8,0-1.5,0.2-2.1,0.5c-0.6,0.3-1.1,0.8-1.5,1.4c-0.4,0.6-0.6,1.3-0.6,2.1
					c0,0.8,0.2,1.4,0.6,2.1c0.4,0.6,0.9,1.1,1.5,1.5C203.6,217.5,204.3,217.7,205,217.7z"/>
				<path class="st2" d="M219.2,207.9l0.2,2.9l-0.1-0.5c0.4-0.9,1-1.6,1.9-2.1c0.9-0.5,2-0.8,3.2-0.8c1.2,0,2.1,0.3,2.9,1
					c0.8,0.7,1.1,1.5,1.2,2.5v8.7h-2.8v-7.8c0-0.6-0.2-1.1-0.6-1.5c-0.4-0.4-0.9-0.6-1.7-0.6c-0.7,0-1.3,0.2-1.9,0.6
					s-1.1,0.9-1.4,1.6s-0.5,1.4-0.5,2.3v5.5h-2.8v-11.7H219.2z"/>
				<path class="st2" d="M238.4,219.9c-1.2,0-2.2-0.3-3.1-0.8c-0.9-0.5-1.7-1.3-2.2-2.2c-0.6-1-0.8-2.1-0.8-3.3
					c0-1.3,0.3-2.4,0.9-3.3c0.6-0.9,1.4-1.6,2.3-2.1c1-0.5,2.1-0.7,3.3-0.7c1,0,1.9,0.2,2.8,0.6c0.9,0.4,1.6,0.9,2.1,1.6l-0.2,0.9
					v-12.9h2.8v21.9h-2.8v-2.9l0.3,0.7c-0.6,0.7-1.4,1.3-2.3,1.8S239.6,219.9,238.4,219.9z M239.3,217.6c0.7,0,1.4-0.1,2-0.4
					c0.6-0.3,1.1-0.6,1.4-1.1s0.7-1,0.8-1.6v-2.2c-0.2-0.6-0.4-1.1-0.9-1.5c-0.4-0.4-0.9-0.8-1.5-1c-0.6-0.2-1.2-0.4-1.9-0.4
					c-0.7,0-1.4,0.2-2.1,0.5c-0.6,0.3-1.2,0.8-1.5,1.4c-0.4,0.6-0.6,1.3-0.6,2.1c0,0.8,0.2,1.5,0.6,2.1c0.4,0.6,0.9,1.1,1.5,1.5
					C237.8,217.5,238.5,217.6,239.3,217.6z"/>
				<path class="st2" d="M250,213.6c0-1.2,0.3-2.2,0.9-3.2c0.6-0.9,1.4-1.7,2.5-2.2s2.2-0.8,3.6-0.8c1.3,0,2.5,0.3,3.5,0.8
					c1,0.5,1.8,1.3,2.4,2.2c0.6,0.9,0.9,2,0.9,3.2s-0.3,2.2-0.9,3.2c-0.6,0.9-1.4,1.7-2.4,2.3c-1,0.6-2.2,0.8-3.6,0.8
					c-1.3,0-2.5-0.3-3.6-0.8c-1-0.5-1.8-1.2-2.4-2.2S250,214.9,250,213.6z M252.9,213.6c0,0.8,0.2,1.4,0.5,2.1
					c0.4,0.6,0.8,1.1,1.4,1.5c0.6,0.4,1.3,0.5,2,0.5c0.8,0,1.5-0.2,2.1-0.5c0.6-0.4,1.1-0.8,1.4-1.5c0.4-0.6,0.5-1.3,0.5-2.1
					c0-0.8-0.2-1.4-0.5-2.1c-0.4-0.6-0.8-1.1-1.4-1.5c-0.6-0.4-1.3-0.6-2.1-0.6c-0.8,0-1.4,0.2-2.1,0.6c-0.6,0.4-1.1,0.9-1.4,1.5
					S252.9,212.9,252.9,213.6z"/>
				<path class="st2" d="M267.5,197.7h2.8v21.9h-2.8V197.7z"/>
				<path class="st2" d="M274.1,213.6c0-1.2,0.3-2.2,0.9-3.2c0.6-0.9,1.4-1.7,2.5-2.2s2.2-0.8,3.6-0.8c1.3,0,2.5,0.3,3.5,0.8
					c1,0.5,1.8,1.3,2.4,2.2c0.6,0.9,0.9,2,0.9,3.2s-0.3,2.2-0.9,3.2c-0.6,0.9-1.4,1.7-2.4,2.3c-1,0.6-2.2,0.8-3.6,0.8
					c-1.3,0-2.5-0.3-3.6-0.8c-1-0.5-1.8-1.2-2.4-2.2S274.1,214.9,274.1,213.6z M276.9,213.6c0,0.8,0.2,1.4,0.5,2.1
					c0.4,0.6,0.8,1.1,1.4,1.5c0.6,0.4,1.3,0.5,2,0.5c0.8,0,1.5-0.2,2.1-0.5c0.6-0.4,1.1-0.8,1.4-1.5c0.4-0.6,0.5-1.3,0.5-2.1
					c0-0.8-0.2-1.4-0.5-2.1c-0.4-0.6-0.8-1.1-1.4-1.5c-0.6-0.4-1.3-0.6-2.1-0.6c-0.8,0-1.4,0.2-2.1,0.6c-0.6,0.4-1.1,0.9-1.4,1.5
					S276.9,212.9,276.9,213.6z"/>
				<path class="st2" d="M300,213.6c0-1.2,0.3-2.2,0.9-3.2c0.6-0.9,1.4-1.7,2.5-2.2s2.2-0.8,3.6-0.8c1.3,0,2.5,0.3,3.5,0.8
					c1,0.5,1.8,1.3,2.4,2.2s0.9,2,0.9,3.2s-0.3,2.2-0.9,3.2c-0.6,0.9-1.4,1.7-2.4,2.3c-1,0.6-2.2,0.8-3.6,0.8
					c-1.3,0-2.5-0.3-3.6-0.8c-1-0.5-1.8-1.2-2.4-2.2C300.3,216,300,214.9,300,213.6z M302.8,213.6c0,0.8,0.2,1.4,0.5,2.1
					c0.4,0.6,0.8,1.1,1.4,1.5c0.6,0.4,1.3,0.5,2,0.5c0.8,0,1.5-0.2,2.1-0.5c0.6-0.4,1.1-0.8,1.4-1.5c0.4-0.6,0.5-1.3,0.5-2.1
					c0-0.8-0.2-1.4-0.5-2.1s-0.8-1.1-1.4-1.5c-0.6-0.4-1.3-0.6-2.1-0.6c-0.8,0-1.4,0.2-2.1,0.6s-1.1,0.9-1.4,1.5
					S302.8,212.9,302.8,213.6z"/>
				<path class="st2" d="M323.5,225.4c-0.9,0-1.7-0.1-2.4-0.3c-0.7-0.2-1.4-0.5-1.9-0.9c-0.6-0.4-1.1-0.8-1.7-1.2l1.7-1.8
					c0.7,0.6,1.3,1,2,1.3c0.7,0.3,1.4,0.5,2.3,0.5c0.9,0,1.7-0.1,2.4-0.4c0.7-0.3,1.1-0.7,1.5-1.2c0.3-0.5,0.5-1.1,0.5-1.8l0-3.2
					l0.2,0.5c-0.4,0.8-1,1.5-2,2.1s-2.1,0.8-3.4,0.8c-1.1,0-2.2-0.3-3.1-0.8c-1-0.5-1.7-1.3-2.3-2.2s-0.9-2-0.9-3.2
					c0-1.2,0.3-2.3,0.9-3.3c0.6-0.9,1.4-1.7,2.4-2.2c1-0.5,2.1-0.8,3.2-0.8c1.1,0,2.1,0.2,3,0.6c0.9,0.4,1.6,1,2,1.6l-0.2,0.5
					l0.3-2.3h2.6v11.8c0,1.1-0.3,2-0.9,2.9s-1.4,1.6-2.5,2.1C326.2,225.2,324.9,225.4,323.5,225.4z M319.2,213.6
					c0,0.8,0.2,1.4,0.6,2.1s0.9,1.1,1.6,1.5c0.7,0.4,1.4,0.5,2.1,0.5c0.7,0,1.4-0.1,2-0.4c0.6-0.3,1.1-0.6,1.5-1.1
					c0.4-0.5,0.7-1,0.8-1.5v-2.4c-0.2-0.6-0.5-1.1-0.9-1.5s-0.9-0.7-1.5-1s-1.2-0.4-1.9-0.4c-0.8,0-1.5,0.2-2.1,0.5
					c-0.7,0.3-1.2,0.8-1.6,1.4C319.4,212.1,319.2,212.8,319.2,213.6z"/>
				<path class="st2" d="M338,207.9l0.2,2.9l-0.1-0.5c0.4-0.9,1-1.6,1.9-2.1c0.9-0.5,2-0.8,3.2-0.8c1.2,0,2.1,0.3,2.9,1
					c0.8,0.7,1.1,1.5,1.2,2.5v8.7h-2.8v-7.8c0-0.6-0.2-1.1-0.6-1.5c-0.4-0.4-0.9-0.6-1.7-0.6c-0.7,0-1.3,0.2-1.9,0.6
					c-0.6,0.4-1.1,0.9-1.4,1.6c-0.3,0.7-0.5,1.4-0.5,2.3v5.5h-2.8v-11.7H338z"/>
				<path class="st2" d="M351.9,203.6c0-0.4,0.2-0.8,0.5-1c0.3-0.3,0.7-0.4,1.2-0.4c0.4,0,0.8,0.1,1.1,0.4c0.3,0.3,0.5,0.6,0.5,1
					c0,0.4-0.2,0.8-0.5,1.1c-0.3,0.3-0.7,0.4-1.1,0.4c-0.4,0-0.8-0.1-1.2-0.4C352,204.4,351.9,204,351.9,203.6z M352,207.9h2.8v11.7
					H352V207.9z"/>
				<path class="st2" d="M370.4,202.7h2.9v5.2h3.4v2.1h-3.4v9.6h-2.9V210h-2.3v-2.1h2.3V202.7z"/>
				<path class="st2" d="M385.2,219.9c-1.2,0-2.2-0.2-3.2-0.7c-1-0.5-1.7-1.2-2.3-2.1c-0.6-0.9-0.8-2-0.8-3.4s0.3-2.5,0.9-3.4
					s1.4-1.7,2.3-2.2c1-0.5,2.1-0.8,3.2-0.8s2.1,0.3,3,0.8c0.8,0.5,1.4,1.1,1.8,1.8l-0.2,0.4l0.3-2.5h2.6v11.7H390v-3.1l0.3,0.7
					c-0.1,0.2-0.3,0.4-0.6,0.7c-0.3,0.3-0.6,0.6-1.1,0.9c-0.4,0.3-0.9,0.6-1.5,0.8C386.6,219.8,386,219.9,385.2,219.9z M386,217.7
					c0.7,0,1.3-0.1,1.9-0.4c0.6-0.2,1-0.6,1.4-1c0.4-0.5,0.6-1,0.8-1.6v-2.3c-0.2-0.6-0.4-1.1-0.8-1.5s-0.9-0.8-1.4-1
					c-0.6-0.2-1.2-0.4-1.8-0.4c-0.8,0-1.5,0.2-2.1,0.5c-0.6,0.3-1.1,0.8-1.5,1.4c-0.4,0.6-0.6,1.3-0.6,2.1c0,0.8,0.2,1.4,0.6,2.1
					c0.4,0.6,0.9,1.1,1.5,1.5C384.5,217.5,385.2,217.7,386,217.7z"/>
				<path class="st2" d="M400.2,207.9l0.2,2.9l-0.1-0.5c0.4-0.9,1-1.6,1.9-2.1c0.9-0.5,2-0.8,3.2-0.8c1.2,0,2.1,0.3,2.9,1
					c0.8,0.7,1.1,1.5,1.2,2.5v8.7h-2.8v-7.8c0-0.6-0.2-1.1-0.6-1.5c-0.4-0.4-0.9-0.6-1.7-0.6c-0.7,0-1.3,0.2-1.9,0.6
					c-0.6,0.4-1.1,0.9-1.4,1.6c-0.3,0.7-0.5,1.4-0.5,2.3v5.5h-2.8v-11.7H400.2z"/>
				<path class="st2" d="M415.5,202.7h2.9v5.2h3.4v2.1h-3.4v9.6h-2.9V210h-2.3v-2.1h2.3V202.7z"/>
				<path class="st2" d="M424,213.6c0-1.2,0.3-2.2,0.9-3.2c0.6-0.9,1.4-1.7,2.5-2.2s2.2-0.8,3.6-0.8c1.3,0,2.5,0.3,3.5,0.8
					c1,0.5,1.8,1.3,2.4,2.2s0.9,2,0.9,3.2s-0.3,2.2-0.9,3.2c-0.6,0.9-1.4,1.7-2.4,2.3c-1,0.6-2.2,0.8-3.6,0.8
					c-1.3,0-2.5-0.3-3.6-0.8c-1-0.5-1.8-1.2-2.4-2.2C424.3,216,424,214.9,424,213.6z M426.8,213.6c0,0.8,0.2,1.4,0.5,2.1
					c0.4,0.6,0.8,1.1,1.4,1.5c0.6,0.4,1.3,0.5,2,0.5c0.8,0,1.5-0.2,2.1-0.5c0.6-0.4,1.1-0.8,1.4-1.5c0.4-0.6,0.5-1.3,0.5-2.1
					c0-0.8-0.2-1.4-0.5-2.1s-0.8-1.1-1.4-1.5c-0.6-0.4-1.3-0.6-2.1-0.6c-0.8,0-1.4,0.2-2.1,0.6s-1.1,0.9-1.4,1.5
					S426.8,212.9,426.8,213.6z"/>
				<path class="st2" d="M440.6,217c0.3-0.3,0.7-0.5,1.1-0.5c0.4,0,0.7,0.2,1,0.5c0.3,0.3,0.5,0.7,0.5,1.1c0,0.5-0.2,0.8-0.5,1.1
					c-0.3,0.3-0.7,0.4-1,0.4c-0.4,0-0.8-0.1-1.1-0.4c-0.3-0.3-0.5-0.6-0.5-1.1C440.1,217.7,440.3,217.3,440.6,217z"/>
			</g>
		</g>
	</g>
</g>
</svg>
