<?xml version="1.0" encoding="utf-8"?>
<!-- Generator: Adobe Illustrator 26.3.1, SVG Export Plug-In . SVG Version: 6.00 Build 0)  -->
<svg version="1.1" id="Livello_1" xmlns="http://www.w3.org/2000/svg" xmlns:xlink="http://www.w3.org/1999/xlink" x="0px" y="0px"
	 viewBox="0 0 672 187" style="enable-background:new 0 0 672 187;" xml:space="preserve">
<style type="text/css">
	.st0{fill:#FFFFFF;}
	.st1{enable-background:new    ;}
	.st2{fill:#846B4A;}
</style>
<g id="Livello_2_00000121991239183103139750000011555471951123983038_">
	<g id="illustrazioni">
		<path class="st0" d="M21.3,0h629.4C662.5,0,672,9.5,672,21.3v144.4c0,11.8-9.5,21.3-21.3,21.3H21.3C9.5,187,0,177.5,0,165.7V21.3
			C0,9.5,9.5,0,21.3,0z"/>
	</g>
	<g id="testi">
		<g>
			<g class="st1">
				<path class="st2" d="M36,53.9l9.5-21.3h0.2l9.5,21.3h-3.3l-7.1-17l2.1-1.3l-7.9,18.3H36z M41.5,46.2h8.1l1,2.4h-9.9L41.5,46.2z"
					/>
				<path class="st2" d="M58.5,32h2.8v21.9h-2.8V32z"/>
				<path class="st2" d="M79.1,54.2c-0.9,0-1.7-0.1-2.6-0.4c-0.8-0.3-1.5-0.7-2.1-1.3l1.2-1.5c0.5,0.5,1.1,0.8,1.6,1.1
					s1.1,0.4,1.6,0.4c0.4,0,0.8,0,1.1-0.1c0.3-0.1,0.6-0.3,0.8-0.5c0.2-0.2,0.3-0.5,0.3-0.9c0-0.4-0.1-0.8-0.4-1
					c-0.3-0.2-0.7-0.4-1.1-0.6c-0.4-0.2-0.9-0.3-1.4-0.4c-1-0.3-1.8-0.8-2.3-1.3s-0.8-1.3-0.8-2.1c0-0.6,0.2-1.2,0.5-1.7
					s0.8-1,1.5-1.3c0.7-0.3,1.5-0.5,2.4-0.5c0.9,0,1.6,0.1,2.3,0.3c0.7,0.2,1.3,0.5,1.9,1l-1.1,1.6c-0.4-0.4-0.8-0.6-1.3-0.8
					c-0.5-0.2-0.9-0.3-1.3-0.3c-0.4,0-0.7,0.1-1,0.2c-0.3,0.1-0.6,0.3-0.8,0.5c-0.2,0.2-0.3,0.4-0.3,0.8c0,0.4,0.1,0.7,0.4,0.9
					c0.3,0.2,0.7,0.4,1.1,0.6c0.4,0.2,0.9,0.3,1.4,0.5c0.6,0.2,1.1,0.4,1.6,0.7c0.5,0.3,0.9,0.6,1.2,1c0.3,0.4,0.4,0.9,0.4,1.6
					c0,0.7-0.2,1.3-0.5,1.9c-0.4,0.6-0.9,1.1-1.6,1.4C81.2,54,80.2,54.2,79.1,54.2z"/>
				<path class="st2" d="M93.7,54.2c-1.4,0-2.6-0.3-3.7-0.8c-1-0.5-1.8-1.3-2.4-2.2c-0.6-0.9-0.8-2-0.8-3.2c0-1.2,0.3-2.2,0.9-3.1
					c0.6-0.9,1.5-1.7,2.5-2.3c1-0.6,2.2-0.9,3.5-0.9c1.6,0,3,0.5,4.1,1.4c1.1,0.9,1.8,2.2,2.2,3.7l-10.3,3.4l-0.7-1.6l8.4-2.9
					l-0.6,0.4c-0.2-0.6-0.6-1.2-1.2-1.6c-0.6-0.5-1.3-0.7-2.2-0.7c-0.8,0-1.4,0.2-2,0.5c-0.6,0.3-1.1,0.8-1.4,1.4
					c-0.3,0.6-0.5,1.3-0.5,2.1s0.2,1.5,0.5,2.1c0.4,0.6,0.8,1.1,1.5,1.5c0.6,0.3,1.3,0.5,2.1,0.5c0.5,0,1.1-0.1,1.6-0.3
					c0.5-0.2,1-0.4,1.5-0.7l1.3,2c-0.6,0.4-1.3,0.7-2.1,1C95.2,54.1,94.4,54.2,93.7,54.2z"/>
				<path class="st2" d="M113.6,52.8c-0.6,0.4-1.2,0.8-2,1c-0.8,0.2-1.6,0.4-2.3,0.4c-1.3,0-2.5-0.3-3.6-0.8c-1-0.5-1.8-1.2-2.4-2.2
					c-0.6-0.9-0.9-2-0.9-3.3c0-1.2,0.3-2.3,0.9-3.2c0.6-0.9,1.4-1.6,2.4-2.1c1-0.5,2.1-0.8,3.2-0.8c1,0,1.9,0.1,2.7,0.4
					c0.8,0.3,1.5,0.6,2.1,1.1l-1.4,1.7c-0.3-0.2-0.8-0.5-1.3-0.7c-0.5-0.2-1.1-0.3-1.8-0.3c-0.7,0-1.4,0.2-2,0.5
					c-0.6,0.4-1.1,0.8-1.4,1.4s-0.5,1.3-0.5,2c0,0.7,0.2,1.4,0.5,2c0.4,0.6,0.9,1.1,1.5,1.4c0.6,0.4,1.4,0.5,2.2,0.5
					c0.5,0,1-0.1,1.5-0.2c0.5-0.2,0.9-0.4,1.2-0.6L113.6,52.8z"/>
				<path class="st2" d="M116.1,48c0-1.2,0.3-2.2,0.9-3.2c0.6-0.9,1.4-1.7,2.5-2.2s2.2-0.8,3.6-0.8c1.3,0,2.5,0.3,3.5,0.8
					c1,0.5,1.8,1.3,2.4,2.2c0.6,0.9,0.9,2,0.9,3.2c0,1.2-0.3,2.2-0.9,3.2c-0.6,0.9-1.4,1.7-2.4,2.3c-1,0.6-2.2,0.8-3.6,0.8
					c-1.3,0-2.5-0.3-3.6-0.8c-1-0.5-1.8-1.2-2.4-2.2S116.1,49.2,116.1,48z M118.9,48c0,0.8,0.2,1.4,0.5,2.1c0.4,0.6,0.8,1.1,1.4,1.5
					c0.6,0.4,1.3,0.5,2,0.5c0.8,0,1.5-0.2,2.1-0.5c0.6-0.4,1.1-0.8,1.4-1.5c0.4-0.6,0.5-1.3,0.5-2.1c0-0.8-0.2-1.4-0.5-2.1
					c-0.4-0.6-0.8-1.1-1.4-1.5c-0.6-0.4-1.3-0.6-2.1-0.6c-0.8,0-1.4,0.2-2.1,0.6c-0.6,0.4-1.1,0.9-1.4,1.5
					C119.1,46.6,118.9,47.2,118.9,48z"/>
				<path class="st2" d="M136.1,42.2l0.2,2.9l-0.1-0.5c0.4-0.9,1-1.6,1.9-2.1s2-0.8,3.2-0.8c1.2,0,2.1,0.3,2.9,1
					c0.8,0.7,1.1,1.5,1.2,2.5v8.7h-2.8v-7.8c0-0.6-0.2-1.1-0.6-1.5c-0.4-0.4-0.9-0.6-1.7-0.6c-0.7,0-1.3,0.2-1.9,0.6
					c-0.6,0.4-1.1,0.9-1.4,1.6c-0.3,0.7-0.5,1.4-0.5,2.3v5.5h-2.8V42.2H136.1z"/>
				<path class="st2" d="M155.3,54.2c-1.2,0-2.2-0.3-3.1-0.8c-0.9-0.5-1.7-1.3-2.2-2.2c-0.6-1-0.8-2.1-0.8-3.3
					c0-1.3,0.3-2.4,0.9-3.3c0.6-0.9,1.4-1.6,2.3-2.1c1-0.5,2.1-0.7,3.3-0.7c1,0,1.9,0.2,2.8,0.6c0.9,0.4,1.6,0.9,2.1,1.6l-0.2,0.9
					V32h2.8v21.9h-2.8V51l0.3,0.7c-0.6,0.7-1.4,1.3-2.3,1.8S156.4,54.2,155.3,54.2z M156.1,52c0.7,0,1.4-0.1,2-0.4
					c0.6-0.3,1.1-0.6,1.4-1.1c0.4-0.4,0.7-1,0.8-1.6v-2.2c-0.2-0.6-0.4-1.1-0.9-1.5c-0.4-0.4-0.9-0.8-1.5-1
					c-0.6-0.2-1.2-0.4-1.9-0.4c-0.7,0-1.4,0.2-2.1,0.5c-0.6,0.3-1.2,0.8-1.5,1.4c-0.4,0.6-0.6,1.3-0.6,2.1c0,0.8,0.2,1.5,0.6,2.1
					c0.4,0.6,0.9,1.1,1.5,1.5C154.7,51.8,155.4,52,156.1,52z"/>
				<path class="st2" d="M166.9,48c0-1.2,0.3-2.2,0.9-3.2c0.6-0.9,1.4-1.7,2.5-2.2s2.2-0.8,3.6-0.8c1.3,0,2.5,0.3,3.5,0.8
					c1,0.5,1.8,1.3,2.4,2.2c0.6,0.9,0.9,2,0.9,3.2c0,1.2-0.3,2.2-0.9,3.2c-0.6,0.9-1.4,1.7-2.4,2.3c-1,0.6-2.2,0.8-3.6,0.8
					c-1.3,0-2.5-0.3-3.6-0.8c-1-0.5-1.8-1.2-2.4-2.2S166.9,49.2,166.9,48z M169.7,48c0,0.8,0.2,1.4,0.5,2.1c0.4,0.6,0.8,1.1,1.4,1.5
					c0.6,0.4,1.3,0.5,2,0.5c0.8,0,1.5-0.2,2.1-0.5c0.6-0.4,1.1-0.8,1.4-1.5c0.4-0.6,0.5-1.3,0.5-2.1c0-0.8-0.2-1.4-0.5-2.1
					c-0.4-0.6-0.8-1.1-1.4-1.5c-0.6-0.4-1.3-0.6-2.1-0.6c-0.8,0-1.4,0.2-2.1,0.6c-0.6,0.4-1.1,0.9-1.4,1.5
					C169.9,46.6,169.7,47.2,169.7,48z"/>
				<path class="st2" d="M199.1,54.2c-1.2,0-2.2-0.2-3.2-0.7c-1-0.5-1.7-1.2-2.3-2.1c-0.6-0.9-0.8-2-0.8-3.4c0-1.3,0.3-2.5,0.9-3.4
					c0.6-0.9,1.4-1.7,2.3-2.2c1-0.5,2.1-0.8,3.2-0.8s2.1,0.3,3,0.8c0.8,0.5,1.4,1.1,1.8,1.8l-0.2,0.4l0.3-2.5h2.6v11.7h-2.8v-3.1
					l0.3,0.7c-0.1,0.2-0.3,0.4-0.6,0.7c-0.3,0.3-0.6,0.6-1.1,0.9c-0.4,0.3-0.9,0.6-1.5,0.8C200.5,54.1,199.8,54.2,199.1,54.2z
					 M199.8,52c0.7,0,1.3-0.1,1.9-0.4c0.6-0.2,1-0.6,1.4-1s0.6-1,0.8-1.6v-2.3c-0.2-0.6-0.4-1.1-0.8-1.5c-0.4-0.4-0.9-0.8-1.4-1
					c-0.6-0.2-1.2-0.4-1.8-0.4c-0.8,0-1.5,0.2-2.1,0.5c-0.6,0.3-1.1,0.8-1.5,1.4s-0.6,1.3-0.6,2.1c0,0.8,0.2,1.4,0.6,2.1
					c0.4,0.6,0.9,1.1,1.5,1.5C198.4,51.9,199.1,52,199.8,52z"/>
				<path class="st2" d="M214.1,42.2l0.2,2.9l-0.1-0.5c0.4-0.9,1-1.6,1.9-2.1s2-0.8,3.2-0.8c1.2,0,2.1,0.3,2.9,1
					c0.8,0.7,1.1,1.5,1.2,2.5v8.7h-2.8v-7.8c0-0.6-0.2-1.1-0.6-1.5c-0.4-0.4-0.9-0.6-1.7-0.6c-0.7,0-1.3,0.2-1.9,0.6
					c-0.6,0.4-1.1,0.9-1.4,1.6c-0.3,0.7-0.5,1.4-0.5,2.3v5.5h-2.8V42.2H214.1z"/>
				<path class="st2" d="M230.7,42.2l0.2,2.9l-0.1-0.5c0.4-0.9,1-1.6,1.9-2.1s2-0.8,3.2-0.8c1.2,0,2.1,0.3,2.9,1
					c0.8,0.7,1.1,1.5,1.2,2.5v8.7h-2.8v-7.8c0-0.6-0.2-1.1-0.6-1.5c-0.4-0.4-0.9-0.6-1.7-0.6c-0.7,0-1.3,0.2-1.9,0.6
					c-0.6,0.4-1.1,0.9-1.4,1.6c-0.3,0.7-0.5,1.4-0.5,2.3v5.5h-2.8V42.2H230.7z"/>
				<path class="st2" d="M243.7,48c0-1.2,0.3-2.2,0.9-3.2c0.6-0.9,1.4-1.7,2.5-2.2s2.2-0.8,3.6-0.8c1.3,0,2.5,0.3,3.5,0.8
					c1,0.5,1.8,1.3,2.4,2.2c0.6,0.9,0.9,2,0.9,3.2c0,1.2-0.3,2.2-0.9,3.2c-0.6,0.9-1.4,1.7-2.4,2.3c-1,0.6-2.2,0.8-3.6,0.8
					c-1.3,0-2.5-0.3-3.6-0.8c-1-0.5-1.8-1.2-2.4-2.2S243.7,49.2,243.7,48z M246.5,48c0,0.8,0.2,1.4,0.5,2.1c0.4,0.6,0.8,1.1,1.4,1.5
					c0.6,0.4,1.3,0.5,2,0.5c0.8,0,1.5-0.2,2.1-0.5c0.6-0.4,1.1-0.8,1.4-1.5c0.4-0.6,0.5-1.3,0.5-2.1c0-0.8-0.2-1.4-0.5-2.1
					c-0.4-0.6-0.8-1.1-1.4-1.5c-0.6-0.4-1.3-0.6-2.1-0.6c-0.8,0-1.4,0.2-2.1,0.6c-0.6,0.4-1.1,0.9-1.4,1.5
					C246.7,46.6,246.5,47.2,246.5,48z"/>
				<path class="st2" d="M275.7,54.2c-1.2,0-2.2-0.3-3.1-0.8c-0.9-0.5-1.7-1.3-2.2-2.2c-0.6-1-0.8-2.1-0.8-3.3
					c0-1.3,0.3-2.4,0.9-3.3c0.6-0.9,1.4-1.6,2.3-2.1c1-0.5,2.1-0.7,3.3-0.7c1,0,1.9,0.2,2.8,0.6c0.9,0.4,1.6,0.9,2.1,1.6l-0.2,0.9
					V32h2.8v21.9h-2.8V51l0.3,0.7c-0.6,0.7-1.4,1.3-2.3,1.8S276.9,54.2,275.7,54.2z M276.6,52c0.7,0,1.4-0.1,2-0.4
					c0.6-0.3,1.1-0.6,1.4-1.1c0.4-0.4,0.7-1,0.8-1.6v-2.2c-0.2-0.6-0.4-1.1-0.9-1.5c-0.4-0.4-0.9-0.8-1.5-1
					c-0.6-0.2-1.2-0.4-1.9-0.4c-0.7,0-1.4,0.2-2.1,0.5c-0.6,0.3-1.2,0.8-1.5,1.4c-0.4,0.6-0.6,1.3-0.6,2.1c0,0.8,0.2,1.5,0.6,2.1
					c0.4,0.6,0.9,1.1,1.5,1.5C275.1,51.8,275.8,52,276.6,52z"/>
				<path class="st2" d="M288.3,38c0-0.4,0.2-0.8,0.5-1c0.4-0.3,0.7-0.4,1.2-0.4c0.4,0,0.8,0.1,1.1,0.4c0.3,0.3,0.5,0.6,0.5,1
					c0,0.4-0.2,0.8-0.5,1.1c-0.3,0.3-0.7,0.4-1.1,0.4c-0.4,0-0.8-0.1-1.2-0.4C288.4,38.7,288.3,38.4,288.3,38z M288.4,42.2h2.8v11.7
					h-2.8V42.2z"/>
				<path class="st2" d="M309.6,54.4c-1.2,0-2.1-0.3-2.8-1c-0.7-0.7-1.1-1.5-1.2-2.5v-8.7h2.8v7.7c0,0.6,0.2,1.1,0.6,1.5
					c0.4,0.4,0.9,0.6,1.7,0.6c0.7,0,1.3-0.2,1.8-0.6c0.6-0.4,1-0.9,1.3-1.6c0.3-0.7,0.5-1.4,0.5-2.3v-5.5h2.8v11.7h-2.6l-0.2-2.9
					l0.2,0.5c-0.3,0.5-0.6,1-1.1,1.4s-1.1,0.8-1.7,1C311.1,54.3,310.4,54.4,309.6,54.4z"/>
				<path class="st2" d="M324.6,42.2l0.2,2.9l-0.1-0.5c0.4-0.9,1-1.6,1.9-2.1s2-0.8,3.2-0.8c1.2,0,2.1,0.3,2.9,1
					c0.8,0.7,1.1,1.5,1.2,2.5v8.7H331v-7.8c0-0.6-0.2-1.1-0.6-1.5c-0.4-0.4-0.9-0.6-1.7-0.6c-0.7,0-1.3,0.2-1.9,0.6
					c-0.6,0.4-1.1,0.9-1.4,1.6c-0.3,0.7-0.5,1.4-0.5,2.3v5.5H322V42.2H324.6z"/>
				<path class="st2" d="M338.5,38c0-0.4,0.2-0.8,0.5-1c0.3-0.3,0.7-0.4,1.2-0.4c0.4,0,0.8,0.1,1.1,0.4c0.3,0.3,0.5,0.6,0.5,1
					c0,0.4-0.2,0.8-0.5,1.1c-0.3,0.3-0.7,0.4-1.1,0.4c-0.4,0-0.8-0.1-1.2-0.4C338.6,38.7,338.5,38.4,338.5,38z M338.6,42.2h2.8v11.7
					h-2.8V42.2z"/>
				<path class="st2" d="M351.4,54.3l-6.9-12.1h3.3l4.7,9.3l-1.7-0.1l4.3-9.2h3.1l-6.6,12.1H351.4z"/>
				<path class="st2" d="M366.9,54.2c-1.4,0-2.6-0.3-3.7-0.8c-1-0.5-1.8-1.3-2.4-2.2c-0.6-0.9-0.8-2-0.8-3.2c0-1.2,0.3-2.2,0.9-3.1
					c0.6-0.9,1.5-1.7,2.5-2.3c1-0.6,2.2-0.9,3.5-0.9c1.6,0,3,0.5,4.1,1.4c1.1,0.9,1.8,2.2,2.2,3.7L363,50.2l-0.7-1.6l8.4-2.9
					l-0.6,0.4c-0.2-0.6-0.6-1.2-1.2-1.6s-1.3-0.7-2.2-0.7c-0.8,0-1.4,0.2-2,0.5c-0.6,0.3-1.1,0.8-1.4,1.4c-0.3,0.6-0.5,1.3-0.5,2.1
					s0.2,1.5,0.5,2.1c0.4,0.6,0.8,1.1,1.5,1.5s1.3,0.5,2.1,0.5c0.5,0,1.1-0.1,1.6-0.3c0.5-0.2,1-0.4,1.5-0.7l1.3,2
					c-0.6,0.4-1.3,0.7-2.1,1C368.4,54.1,367.7,54.2,366.9,54.2z"/>
				<path class="st2" d="M379.3,42.2l0.3,3.4l-0.1-0.5c0.3-0.7,0.8-1.3,1.4-1.8s1.2-0.9,1.9-1.2c0.7-0.3,1.3-0.4,1.7-0.4l-0.1,2.7
					c-1-0.1-1.8,0.1-2.5,0.5c-0.7,0.4-1.3,0.9-1.7,1.6c-0.4,0.7-0.6,1.4-0.6,2.1v5.4h-2.8V42.2H379.3z"/>
				<path class="st2" d="M391.6,54.2c-0.9,0-1.7-0.1-2.6-0.4c-0.8-0.3-1.5-0.7-2.1-1.3l1.2-1.5c0.5,0.5,1.1,0.8,1.6,1.1
					s1.1,0.4,1.6,0.4c0.4,0,0.8,0,1.1-0.1c0.3-0.1,0.6-0.3,0.8-0.5c0.2-0.2,0.3-0.5,0.3-0.9c0-0.4-0.1-0.8-0.4-1
					c-0.3-0.2-0.7-0.4-1.1-0.6s-0.9-0.3-1.4-0.4c-1-0.3-1.8-0.8-2.3-1.3s-0.8-1.3-0.8-2.1c0-0.6,0.2-1.2,0.5-1.7
					c0.3-0.5,0.8-1,1.5-1.3c0.7-0.3,1.5-0.5,2.4-0.5c0.9,0,1.6,0.1,2.3,0.3c0.7,0.2,1.3,0.5,1.9,1l-1.1,1.6
					c-0.4-0.4-0.8-0.6-1.3-0.8s-0.9-0.3-1.3-0.3c-0.4,0-0.7,0.1-1,0.2c-0.3,0.1-0.6,0.3-0.8,0.5c-0.2,0.2-0.3,0.4-0.3,0.8
					c0,0.4,0.1,0.7,0.4,0.9c0.3,0.2,0.7,0.4,1.1,0.6c0.4,0.2,0.9,0.3,1.4,0.5c0.6,0.2,1.1,0.4,1.6,0.7c0.5,0.3,0.9,0.6,1.2,1
					c0.3,0.4,0.4,0.9,0.4,1.6c0,0.7-0.2,1.3-0.5,1.9c-0.4,0.6-0.9,1.1-1.6,1.4C393.6,54,392.7,54.2,391.6,54.2z"/>
				<path class="st2" d="M400.1,38c0-0.4,0.2-0.8,0.5-1c0.3-0.3,0.7-0.4,1.2-0.4c0.4,0,0.8,0.1,1.1,0.4c0.3,0.3,0.5,0.6,0.5,1
					c0,0.4-0.2,0.8-0.5,1.1c-0.3,0.3-0.7,0.4-1.1,0.4c-0.4,0-0.8-0.1-1.2-0.4C400.3,38.7,400.1,38.4,400.1,38z M400.3,42.2h2.8v11.7
					h-2.8V42.2z"/>
				<path class="st2" d="M409.2,37h2.9v5.2h3.4v2.1H412v9.6h-2.9v-9.6h-2.3v-2.1h2.3V37z"/>
				<path class="st2" d="M424,54.2c-1.2,0-2.2-0.2-3.2-0.7c-1-0.5-1.7-1.2-2.3-2.1c-0.6-0.9-0.8-2-0.8-3.4c0-1.3,0.3-2.5,0.9-3.4
					c0.6-0.9,1.4-1.7,2.3-2.2c1-0.5,2.1-0.8,3.2-0.8s2.1,0.3,3,0.8c0.8,0.5,1.4,1.1,1.8,1.8l-0.2,0.4l0.3-2.5h2.6v11.7h-2.8v-3.1
					l0.3,0.7c-0.1,0.2-0.3,0.4-0.6,0.7c-0.3,0.3-0.6,0.6-1.1,0.9c-0.4,0.3-0.9,0.6-1.5,0.8S424.7,54.2,424,54.2z M424.7,52
					c0.7,0,1.3-0.1,1.9-0.4c0.6-0.2,1-0.6,1.4-1s0.6-1,0.8-1.6v-2.3c-0.2-0.6-0.4-1.1-0.8-1.5s-0.9-0.8-1.4-1
					c-0.6-0.2-1.2-0.4-1.8-0.4c-0.8,0-1.5,0.2-2.1,0.5c-0.6,0.3-1.1,0.8-1.5,1.4c-0.4,0.6-0.6,1.3-0.6,2.1c0,0.8,0.2,1.4,0.6,2.1
					c0.4,0.6,0.9,1.1,1.5,1.5C423.3,51.9,424,52,424.7,52z M421.2,36h3.1l2.2,3.8h-1.8L421.2,36z"/>
				<path class="st2" d="M439,51.4c-0.4,1-0.9,2-1.3,3c-0.4,1-0.9,2-1.3,3h-2.3c0.4-1,0.8-2,1.2-3s0.8-2,1.1-3H439z"/>
				<path class="st2" d="M457.2,54.2c-1.2,0-2.2-0.2-3.2-0.7c-1-0.5-1.7-1.2-2.3-2.1c-0.6-0.9-0.8-2-0.8-3.4c0-1.3,0.3-2.5,0.9-3.4
					c0.6-0.9,1.4-1.7,2.3-2.2c1-0.5,2.1-0.8,3.2-0.8s2.1,0.3,3,0.8c0.8,0.5,1.4,1.1,1.8,1.8l-0.2,0.4l0.3-2.5h2.6v11.7H462v-3.1
					l0.3,0.7c-0.1,0.2-0.3,0.4-0.6,0.7c-0.3,0.3-0.6,0.6-1.1,0.9c-0.4,0.3-0.9,0.6-1.5,0.8S458,54.2,457.2,54.2z M458,52
					c0.7,0,1.3-0.1,1.9-0.4c0.6-0.2,1-0.6,1.4-1s0.6-1,0.8-1.6v-2.3c-0.2-0.6-0.4-1.1-0.8-1.5s-0.9-0.8-1.4-1
					c-0.6-0.2-1.2-0.4-1.8-0.4c-0.8,0-1.5,0.2-2.1,0.5c-0.6,0.3-1.1,0.8-1.5,1.4c-0.4,0.6-0.6,1.3-0.6,2.1c0,0.8,0.2,1.4,0.6,2.1
					c0.4,0.6,0.9,1.1,1.5,1.5C456.5,51.9,457.2,52,458,52z"/>
				<path class="st2" d="M472.2,42.2l0.2,2.6l-0.2-0.2c0.5-0.9,1.1-1.6,2-2.1c0.9-0.5,1.8-0.8,3-0.8c0.7,0,1.3,0.1,1.8,0.3
					c0.5,0.2,1,0.5,1.3,0.9c0.4,0.4,0.6,0.9,0.7,1.4l-0.2,0.1c0.5-0.9,1.1-1.5,2-2c0.9-0.5,1.7-0.7,2.7-0.7c1.2,0,2.2,0.3,2.9,1
					s1.1,1.5,1.1,2.5v8.7h-2.8v-7.7c0-0.6-0.2-1.1-0.5-1.5c-0.3-0.4-0.8-0.6-1.5-0.6c-0.7,0-1.4,0.2-1.9,0.6c-0.6,0.4-1,0.9-1.3,1.6
					c-0.3,0.7-0.5,1.4-0.5,2.1v5.6h-2.8v-7.7c0-0.6-0.2-1.1-0.5-1.5c-0.3-0.4-0.8-0.6-1.5-0.6c-0.7,0-1.4,0.2-1.9,0.6
					c-0.6,0.4-1,0.9-1.3,1.6c-0.3,0.7-0.5,1.4-0.5,2.2v5.5h-2.8V42.2H472.2z"/>
				<path class="st2" d="M501.8,54.2c-0.9,0-1.8-0.2-2.7-0.6s-1.5-1-2-1.7l0.2-0.8v8.5h-2.8V42h2.4l0.4,3l-0.3-0.9
					c0.6-0.7,1.4-1.3,2.3-1.8c0.9-0.5,2-0.7,3.1-0.7c1.2,0,2.2,0.3,3.1,0.8c0.9,0.5,1.7,1.3,2.2,2.2c0.5,1,0.8,2.1,0.8,3.3
					c0,1.2-0.3,2.3-0.9,3.3s-1.4,1.7-2.4,2.2S503.1,54.2,501.8,54.2z M501.3,52.1c0.8,0,1.5-0.2,2.2-0.5c0.7-0.3,1.2-0.8,1.6-1.4
					c0.4-0.6,0.6-1.3,0.6-2.1c0-0.8-0.2-1.5-0.6-2.1c-0.4-0.6-0.9-1.1-1.5-1.4s-1.3-0.5-2.1-0.5c-0.7,0-1.4,0.1-2,0.4
					c-0.6,0.3-1.1,0.6-1.4,1.1s-0.7,1-0.8,1.6v2c0.1,0.6,0.3,1.1,0.7,1.6c0.4,0.5,0.9,0.8,1.4,1.1C500,52,500.6,52.1,501.3,52.1z"/>
				<path class="st2" d="M512.3,32h2.8v21.9h-2.8V32z"/>
				<path class="st2" d="M519.7,38c0-0.4,0.2-0.8,0.5-1c0.3-0.3,0.7-0.4,1.2-0.4c0.4,0,0.8,0.1,1.1,0.4c0.3,0.3,0.5,0.6,0.5,1
					c0,0.4-0.2,0.8-0.5,1.1c-0.3,0.3-0.7,0.4-1.1,0.4c-0.4,0-0.8-0.1-1.2-0.4C519.9,38.7,519.7,38.4,519.7,38z M519.9,42.2h2.8v11.7
					h-2.8V42.2z"/>
				<path class="st2" d="M532.8,54.2c-1.2,0-2.2-0.2-3.2-0.7c-1-0.5-1.7-1.2-2.3-2.1c-0.6-0.9-0.8-2-0.8-3.4c0-1.3,0.3-2.5,0.9-3.4
					c0.6-0.9,1.4-1.7,2.3-2.2c1-0.5,2.1-0.8,3.2-0.8s2.1,0.3,3,0.8c0.8,0.5,1.4,1.1,1.8,1.8l-0.2,0.4l0.3-2.5h2.6v11.7h-2.8v-3.1
					l0.3,0.7c-0.1,0.2-0.3,0.4-0.6,0.7c-0.3,0.3-0.6,0.6-1.1,0.9c-0.4,0.3-0.9,0.6-1.5,0.8S533.5,54.2,532.8,54.2z M533.5,52
					c0.7,0,1.3-0.1,1.9-0.4c0.6-0.2,1-0.6,1.4-1s0.6-1,0.8-1.6v-2.3c-0.2-0.6-0.4-1.1-0.8-1.5s-0.9-0.8-1.4-1
					c-0.6-0.2-1.2-0.4-1.8-0.4c-0.8,0-1.5,0.2-2.1,0.5c-0.6,0.3-1.1,0.8-1.5,1.4c-0.4,0.6-0.6,1.3-0.6,2.1c0,0.8,0.2,1.4,0.6,2.1
					c0.4,0.6,0.9,1.1,1.5,1.5C532.1,51.9,532.8,52,533.5,52z"/>
				<path class="st2" d="M554.5,38c0-0.4,0.2-0.8,0.5-1c0.3-0.3,0.7-0.4,1.2-0.4c0.4,0,0.8,0.1,1.1,0.4c0.3,0.3,0.5,0.6,0.5,1
					c0,0.4-0.2,0.8-0.5,1.1c-0.3,0.3-0.7,0.4-1.1,0.4c-0.4,0-0.8-0.1-1.2-0.4C554.7,38.7,554.5,38.4,554.5,38z M554.7,42.2h2.8v11.7
					h-2.8V42.2z"/>
				<path class="st2" d="M562.4,32h2.8v21.9h-2.8V32z"/>
				<path class="st2" d="M583.1,54.2c-0.9,0-1.7-0.1-2.6-0.4c-0.8-0.3-1.5-0.7-2.1-1.3l1.2-1.5c0.5,0.5,1.1,0.8,1.6,1.1
					s1.1,0.4,1.6,0.4c0.4,0,0.8,0,1.1-0.1c0.3-0.1,0.6-0.3,0.8-0.5c0.2-0.2,0.3-0.5,0.3-0.9c0-0.4-0.1-0.8-0.4-1
					c-0.3-0.2-0.7-0.4-1.1-0.6s-0.9-0.3-1.4-0.4c-1-0.3-1.8-0.8-2.3-1.3s-0.8-1.3-0.8-2.1c0-0.6,0.2-1.2,0.5-1.7
					c0.3-0.5,0.8-1,1.5-1.3c0.7-0.3,1.5-0.5,2.4-0.5c0.9,0,1.6,0.1,2.3,0.3c0.7,0.2,1.3,0.5,1.9,1l-1.1,1.6
					c-0.4-0.4-0.8-0.6-1.3-0.8s-0.9-0.3-1.3-0.3c-0.4,0-0.7,0.1-1,0.2c-0.3,0.1-0.6,0.3-0.8,0.5c-0.2,0.2-0.3,0.4-0.3,0.8
					c0,0.4,0.1,0.7,0.4,0.9c0.3,0.2,0.7,0.4,1.1,0.6c0.4,0.2,0.9,0.3,1.4,0.5c0.6,0.2,1.1,0.4,1.6,0.7c0.5,0.3,0.9,0.6,1.2,1
					c0.3,0.4,0.4,0.9,0.4,1.6c0,0.7-0.2,1.3-0.5,1.9c-0.4,0.6-0.9,1.1-1.6,1.4C585.1,54,584.2,54.2,583.1,54.2z"/>
				<path class="st2" d="M595.8,54.4c-1.2,0-2.1-0.3-2.8-1c-0.7-0.7-1.1-1.5-1.2-2.5v-8.7h2.8v7.7c0,0.6,0.2,1.1,0.6,1.5
					c0.4,0.4,0.9,0.6,1.7,0.6c0.7,0,1.3-0.2,1.8-0.6c0.6-0.4,1-0.9,1.3-1.6c0.3-0.7,0.5-1.4,0.5-2.3v-5.5h2.8v11.7h-2.6l-0.2-2.9
					l0.2,0.5c-0.3,0.5-0.6,1-1.1,1.4s-1.1,0.8-1.7,1C597.2,54.3,596.5,54.4,595.8,54.4z"/>
				<path class="st2" d="M607.1,48c0-1.2,0.3-2.2,0.9-3.2c0.6-0.9,1.4-1.7,2.5-2.2s2.2-0.8,3.6-0.8c1.3,0,2.5,0.3,3.5,0.8
					c1,0.5,1.8,1.3,2.4,2.2c0.6,0.9,0.9,2,0.9,3.2c0,1.2-0.3,2.2-0.9,3.2c-0.6,0.9-1.4,1.7-2.4,2.3c-1,0.6-2.2,0.8-3.6,0.8
					c-1.3,0-2.5-0.3-3.6-0.8c-1-0.5-1.8-1.2-2.4-2.2C607.4,50.3,607.1,49.2,607.1,48z M609.9,48c0,0.8,0.2,1.4,0.5,2.1
					c0.4,0.6,0.8,1.1,1.4,1.5c0.6,0.4,1.3,0.5,2,0.5c0.8,0,1.5-0.2,2.1-0.5c0.6-0.4,1.1-0.8,1.4-1.5s0.5-1.3,0.5-2.1
					c0-0.8-0.2-1.4-0.5-2.1s-0.8-1.1-1.4-1.5c-0.6-0.4-1.3-0.6-2.1-0.6c-0.8,0-1.4,0.2-2.1,0.6s-1.1,0.9-1.4,1.5
					C610.1,46.6,609.9,47.2,609.9,48z"/>
			</g>
		</g>
		<g>
			<g class="st1">
				<path class="st2" d="M43.4,93.8c-0.9,0-1.7-0.1-2.4-0.3c-0.7-0.2-1.4-0.5-1.9-0.9c-0.6-0.4-1.1-0.8-1.7-1.2l1.7-1.8
					c0.7,0.6,1.3,1,2,1.3c0.7,0.3,1.4,0.5,2.3,0.5c0.9,0,1.7-0.1,2.4-0.4c0.7-0.3,1.1-0.7,1.5-1.2s0.5-1.1,0.5-1.8l0-3.2l0.2,0.5
					c-0.4,0.8-1,1.5-2,2.1c-0.9,0.6-2.1,0.8-3.4,0.8c-1.1,0-2.2-0.3-3.1-0.8c-1-0.5-1.7-1.3-2.3-2.2c-0.6-0.9-0.9-2-0.9-3.2
					c0-1.2,0.3-2.3,0.9-3.3c0.6-0.9,1.4-1.7,2.4-2.2c1-0.5,2.1-0.8,3.2-0.8c1.1,0,2.1,0.2,3,0.6s1.6,1,2,1.6l-0.2,0.5l0.3-2.3h2.6
					V88c0,1.1-0.3,2-0.9,2.9s-1.4,1.6-2.5,2.1C46.2,93.5,44.9,93.8,43.4,93.8z M39.1,82c0,0.8,0.2,1.4,0.6,2.1
					c0.4,0.6,0.9,1.1,1.6,1.5c0.7,0.4,1.4,0.5,2.1,0.5c0.7,0,1.4-0.1,2-0.4c0.6-0.3,1.1-0.6,1.5-1.1c0.4-0.5,0.7-1,0.8-1.5v-2.4
					c-0.2-0.6-0.5-1.1-0.9-1.5c-0.4-0.4-0.9-0.7-1.5-1c-0.6-0.2-1.2-0.4-1.9-0.4c-0.8,0-1.5,0.2-2.1,0.5c-0.7,0.3-1.2,0.8-1.6,1.4
					S39.1,81.2,39.1,82z"/>
				<path class="st2" d="M57.9,76.2l0.3,3.4l-0.1-0.5c0.3-0.7,0.8-1.3,1.4-1.8s1.2-0.9,1.9-1.2c0.7-0.3,1.3-0.4,1.7-0.4L63,78.4
					c-1-0.1-1.8,0.1-2.5,0.5c-0.7,0.4-1.3,0.9-1.7,1.6c-0.4,0.7-0.6,1.4-0.6,2.1V88h-2.8V76.2H57.9z"/>
				<path class="st2" d="M70.7,88.4c-1.2,0-2.1-0.3-2.8-1c-0.7-0.7-1.1-1.5-1.2-2.5v-8.7h2.8V84c0,0.6,0.2,1.1,0.6,1.5
					c0.4,0.4,0.9,0.6,1.7,0.6c0.7,0,1.3-0.2,1.8-0.6c0.6-0.4,1-0.9,1.3-1.6c0.3-0.7,0.5-1.4,0.5-2.3v-5.5h2.8V88h-2.6l-0.2-2.9
					l0.2,0.5c-0.3,0.5-0.6,1-1.1,1.4s-1.1,0.8-1.7,1C72.2,88.3,71.5,88.4,70.7,88.4z"/>
				<path class="st2" d="M90.5,88.2c-0.9,0-1.8-0.2-2.7-0.6s-1.5-1-2-1.7l0.2-0.8v8.5h-2.8V76.1h2.4l0.4,3l-0.3-0.9
					c0.6-0.7,1.4-1.3,2.3-1.8c0.9-0.5,2-0.7,3.1-0.7c1.2,0,2.2,0.3,3.1,0.8c0.9,0.5,1.7,1.3,2.2,2.2c0.5,1,0.8,2.1,0.8,3.3
					c0,1.2-0.3,2.3-0.9,3.3c-0.6,0.9-1.4,1.7-2.4,2.2C92.9,88,91.8,88.2,90.5,88.2z M89.9,86.1c0.8,0,1.5-0.2,2.2-0.5
					c0.7-0.3,1.2-0.8,1.6-1.4c0.4-0.6,0.6-1.3,0.6-2.1c0-0.8-0.2-1.5-0.6-2.1c-0.4-0.6-0.9-1.1-1.5-1.4c-0.6-0.3-1.3-0.5-2.1-0.5
					c-0.7,0-1.4,0.1-2,0.4c-0.6,0.3-1.1,0.6-1.4,1.1s-0.7,1-0.8,1.6v2c0.1,0.6,0.3,1.1,0.7,1.6c0.4,0.5,0.9,0.8,1.4,1.1
					C88.7,86,89.3,86.1,89.9,86.1z"/>
				<path class="st2" d="M108.3,88.2c-0.9,0-1.8-0.2-2.7-0.6s-1.5-1-2-1.7l0.2-0.8v8.5h-2.8V76.1h2.4l0.4,3l-0.3-0.9
					c0.6-0.7,1.4-1.3,2.3-1.8c0.9-0.5,2-0.7,3.1-0.7c1.2,0,2.2,0.3,3.1,0.8c0.9,0.5,1.7,1.3,2.2,2.2c0.5,1,0.8,2.1,0.8,3.3
					c0,1.2-0.3,2.3-0.9,3.3c-0.6,0.9-1.4,1.7-2.4,2.2C110.7,88,109.6,88.2,108.3,88.2z M107.8,86.1c0.8,0,1.5-0.2,2.2-0.5
					c0.7-0.3,1.2-0.8,1.6-1.4c0.4-0.6,0.6-1.3,0.6-2.1c0-0.8-0.2-1.5-0.6-2.1c-0.4-0.6-0.9-1.1-1.5-1.4c-0.6-0.3-1.3-0.5-2.1-0.5
					c-0.7,0-1.4,0.1-2,0.4c-0.6,0.3-1.1,0.6-1.4,1.1s-0.7,1-0.8,1.6v2c0.1,0.6,0.3,1.1,0.7,1.6c0.4,0.5,0.9,0.8,1.4,1.1
					C106.5,86,107.1,86.1,107.8,86.1z"/>
				<path class="st2" d="M117.7,82c0-1.2,0.3-2.2,0.9-3.2c0.6-0.9,1.4-1.7,2.5-2.2s2.2-0.8,3.6-0.8c1.3,0,2.5,0.3,3.5,0.8
					c1,0.5,1.8,1.3,2.4,2.2c0.6,0.9,0.9,2,0.9,3.2c0,1.2-0.3,2.2-0.9,3.2c-0.6,0.9-1.4,1.7-2.4,2.3c-1,0.6-2.2,0.8-3.6,0.8
					c-1.3,0-2.5-0.3-3.6-0.8c-1-0.5-1.8-1.2-2.4-2.2S117.7,83.2,117.7,82z M120.5,82c0,0.8,0.2,1.4,0.5,2.1c0.4,0.6,0.8,1.1,1.4,1.5
					c0.6,0.4,1.3,0.5,2,0.5c0.8,0,1.5-0.2,2.1-0.5c0.6-0.4,1.1-0.8,1.4-1.5c0.4-0.6,0.5-1.3,0.5-2.1c0-0.8-0.2-1.4-0.5-2.1
					c-0.4-0.6-0.8-1.1-1.4-1.5c-0.6-0.4-1.3-0.6-2.1-0.6c-0.8,0-1.4,0.2-2.1,0.6c-0.6,0.4-1.1,0.9-1.4,1.5
					C120.7,80.6,120.5,81.3,120.5,82z"/>
				<path class="st2" d="M149.7,88.2c-1.2,0-2.2-0.3-3.1-0.8c-0.9-0.5-1.7-1.3-2.2-2.2c-0.6-1-0.8-2.1-0.8-3.3
					c0-1.3,0.3-2.4,0.9-3.3c0.6-0.9,1.4-1.6,2.3-2.1c1-0.5,2.1-0.7,3.3-0.7c1,0,1.9,0.2,2.8,0.6c0.9,0.4,1.6,0.9,2.1,1.6l-0.2,0.9
					V66h2.8V88h-2.8V85l0.3,0.7c-0.6,0.7-1.4,1.3-2.3,1.8S150.9,88.2,149.7,88.2z M150.6,86c0.7,0,1.4-0.1,2-0.4
					c0.6-0.3,1.1-0.6,1.4-1.1c0.4-0.4,0.7-1,0.8-1.6v-2.2c-0.2-0.6-0.4-1.1-0.9-1.5c-0.4-0.4-0.9-0.8-1.5-1
					c-0.6-0.2-1.2-0.4-1.9-0.4c-0.7,0-1.4,0.2-2.1,0.5c-0.6,0.3-1.2,0.8-1.5,1.4c-0.4,0.6-0.6,1.3-0.6,2.1c0,0.8,0.2,1.5,0.6,2.1
					c0.4,0.6,0.9,1.1,1.5,1.5C149.1,85.8,149.8,86,150.6,86z"/>
				<path class="st2" d="M162.3,72c0-0.4,0.2-0.8,0.5-1c0.4-0.3,0.7-0.4,1.2-0.4c0.4,0,0.8,0.1,1.1,0.4c0.3,0.3,0.5,0.6,0.5,1
					c0,0.4-0.2,0.8-0.5,1.1c-0.3,0.3-0.7,0.4-1.1,0.4c-0.4,0-0.8-0.1-1.2-0.4C162.4,72.8,162.3,72.4,162.3,72z M162.4,76.2h2.8V88
					h-2.8V76.2z"/>
				<path class="st2" d="M184.8,88.2c-1.2,0-2.2-0.2-3.2-0.7c-1-0.5-1.7-1.2-2.3-2.1c-0.6-0.9-0.8-2-0.8-3.4c0-1.3,0.3-2.5,0.9-3.4
					c0.6-0.9,1.4-1.7,2.3-2.2c1-0.5,2.1-0.8,3.2-0.8s2.1,0.3,3,0.8c0.8,0.5,1.4,1.1,1.8,1.8l-0.2,0.4l0.3-2.5h2.6V88h-2.8v-3.1
					l0.3,0.7c-0.1,0.2-0.3,0.4-0.6,0.7c-0.3,0.3-0.6,0.6-1.1,0.9c-0.4,0.3-0.9,0.6-1.5,0.8C186.2,88.1,185.5,88.2,184.8,88.2z
					 M185.6,86.1c0.7,0,1.3-0.1,1.9-0.4c0.6-0.2,1-0.6,1.4-1s0.6-1,0.8-1.6v-2.3c-0.2-0.6-0.4-1.1-0.8-1.5c-0.4-0.4-0.9-0.8-1.4-1
					c-0.6-0.2-1.2-0.4-1.8-0.4c-0.8,0-1.5,0.2-2.1,0.5c-0.6,0.3-1.1,0.8-1.5,1.4s-0.6,1.3-0.6,2.1c0,0.8,0.2,1.4,0.6,2.1
					c0.4,0.6,0.9,1.1,1.5,1.5C184.1,85.9,184.8,86.1,185.6,86.1z"/>
				<path class="st2" d="M199.8,76.2l0.2,2.6l-0.2-0.2c0.5-0.9,1.1-1.6,2-2.1c0.9-0.5,1.8-0.8,3-0.8c0.7,0,1.3,0.1,1.8,0.3
					c0.5,0.2,1,0.5,1.3,0.9c0.4,0.4,0.6,0.9,0.7,1.4l-0.1,0.1c0.5-0.9,1.1-1.5,2-2s1.7-0.7,2.7-0.7c1.2,0,2.2,0.3,2.9,1
					c0.7,0.7,1.1,1.5,1.1,2.5V88h-2.8v-7.7c0-0.6-0.2-1.1-0.5-1.5c-0.3-0.4-0.8-0.6-1.5-0.6c-0.7,0-1.4,0.2-1.9,0.6
					c-0.6,0.4-1,0.9-1.3,1.6c-0.3,0.7-0.5,1.4-0.5,2.1V88h-2.8v-7.7c0-0.6-0.2-1.1-0.5-1.5c-0.3-0.4-0.8-0.6-1.5-0.6
					c-0.7,0-1.4,0.2-1.9,0.6c-0.6,0.4-1,0.9-1.3,1.6s-0.5,1.4-0.5,2.2V88h-2.8V76.2H199.8z"/>
				<path class="st2" d="M221.9,72c0-0.4,0.2-0.8,0.5-1c0.4-0.3,0.7-0.4,1.2-0.4c0.4,0,0.8,0.1,1.1,0.4c0.3,0.3,0.5,0.6,0.5,1
					c0,0.4-0.2,0.8-0.5,1.1c-0.3,0.3-0.7,0.4-1.1,0.4c-0.4,0-0.8-0.1-1.2-0.4C222,72.8,221.9,72.4,221.9,72z M222,76.2h2.8V88H222
					V76.2z"/>
				<path class="st2" d="M239.8,86.9c-0.6,0.4-1.2,0.8-2,1c-0.8,0.2-1.6,0.4-2.3,0.4c-1.3,0-2.5-0.3-3.6-0.8c-1-0.5-1.8-1.2-2.4-2.2
					c-0.6-0.9-0.9-2-0.9-3.3c0-1.2,0.3-2.3,0.9-3.2c0.6-0.9,1.4-1.6,2.4-2.1c1-0.5,2.1-0.8,3.2-0.8c1,0,1.9,0.1,2.7,0.4
					c0.8,0.3,1.5,0.6,2.1,1.1l-1.4,1.7c-0.3-0.2-0.8-0.5-1.3-0.7c-0.5-0.2-1.1-0.3-1.8-0.3c-0.7,0-1.4,0.2-2,0.5
					c-0.6,0.4-1.1,0.8-1.4,1.4s-0.5,1.3-0.5,2c0,0.7,0.2,1.4,0.5,2c0.4,0.6,0.9,1.1,1.5,1.4c0.6,0.4,1.4,0.5,2.2,0.5
					c0.5,0,1-0.1,1.5-0.2c0.5-0.2,0.9-0.4,1.2-0.6L239.8,86.9z"/>
				<path class="st2" d="M243.2,72c0-0.4,0.2-0.8,0.5-1c0.4-0.3,0.7-0.4,1.2-0.4c0.4,0,0.8,0.1,1.1,0.4c0.3,0.3,0.5,0.6,0.5,1
					c0,0.4-0.2,0.8-0.5,1.1c-0.3,0.3-0.7,0.4-1.1,0.4c-0.4,0-0.8-0.1-1.2-0.4C243.4,72.8,243.2,72.4,243.2,72z M243.4,76.2h2.8V88
					h-2.8V76.2z"/>
				<path class="st2" d="M266.4,88.2c-1.4,0-2.6-0.3-3.7-0.8c-1-0.5-1.8-1.3-2.4-2.2c-0.6-0.9-0.8-2-0.8-3.2c0-1.2,0.3-2.2,0.9-3.1
					c0.6-0.9,1.5-1.7,2.5-2.3c1-0.6,2.2-0.9,3.5-0.9c1.6,0,3,0.5,4.1,1.4c1.1,0.9,1.8,2.2,2.2,3.7l-10.3,3.4l-0.7-1.6l8.4-2.9
					l-0.6,0.4c-0.2-0.6-0.6-1.2-1.2-1.6c-0.6-0.5-1.3-0.7-2.2-0.7c-0.8,0-1.4,0.2-2,0.5c-0.6,0.3-1.1,0.8-1.4,1.4
					c-0.3,0.6-0.5,1.3-0.5,2.1s0.2,1.5,0.5,2.1c0.4,0.6,0.8,1.1,1.5,1.5c0.6,0.3,1.3,0.5,2.1,0.5c0.5,0,1.1-0.1,1.6-0.3
					c0.5-0.2,1-0.4,1.5-0.7l1.3,2c-0.6,0.4-1.3,0.7-2.1,1C267.9,88.1,267.1,88.2,266.4,88.2z"/>
				<path class="st2" d="M290.8,88.2c-1.2,0-2.2-0.3-3.1-0.8c-0.9-0.5-1.7-1.3-2.2-2.2c-0.6-1-0.8-2.1-0.8-3.3
					c0-1.3,0.3-2.4,0.9-3.3c0.6-0.9,1.4-1.6,2.3-2.1c1-0.5,2.1-0.7,3.3-0.7c1,0,1.9,0.2,2.8,0.6c0.9,0.4,1.6,0.9,2.1,1.6l-0.2,0.9
					V66h2.8V88h-2.8V85l0.3,0.7c-0.6,0.7-1.4,1.3-2.3,1.8S291.9,88.2,290.8,88.2z M291.6,86c0.7,0,1.4-0.1,2-0.4
					c0.6-0.3,1.1-0.6,1.4-1.1c0.4-0.4,0.7-1,0.8-1.6v-2.2c-0.2-0.6-0.4-1.1-0.9-1.5c-0.4-0.4-0.9-0.8-1.5-1
					c-0.6-0.2-1.2-0.4-1.9-0.4c-0.7,0-1.4,0.2-2.1,0.5c-0.6,0.3-1.2,0.8-1.5,1.4c-0.4,0.6-0.6,1.3-0.6,2.1c0,0.8,0.2,1.5,0.6,2.1
					c0.4,0.6,0.9,1.1,1.5,1.5C290.2,85.8,290.9,86,291.6,86z"/>
				<path class="st2" d="M307.5,88.4c-1.2,0-2.1-0.3-2.8-1c-0.7-0.7-1.1-1.5-1.2-2.5v-8.7h2.8V84c0,0.6,0.2,1.1,0.6,1.5
					c0.4,0.4,0.9,0.6,1.7,0.6c0.7,0,1.3-0.2,1.8-0.6c0.6-0.4,1-0.9,1.3-1.6c0.3-0.7,0.5-1.4,0.5-2.3v-5.5h2.8V88h-2.6l-0.2-2.9
					l0.2,0.5c-0.3,0.5-0.6,1-1.1,1.4s-1.1,0.8-1.7,1C309,88.3,308.3,88.4,307.5,88.4z"/>
			</g>
		</g>
		<g>
			<g class="st1">
				<path class="st2" d="M322.5,76.2l0.3,3.4l-0.1-0.5c0.3-0.7,0.8-1.3,1.4-1.8s1.2-0.9,1.9-1.2c0.7-0.3,1.3-0.4,1.7-0.4l-0.1,2.7
					c-1-0.1-1.8,0.1-2.5,0.5c-0.7,0.4-1.3,0.9-1.7,1.6c-0.4,0.7-0.6,1.4-0.6,2.1V88h-2.8V76.2H322.5z"/>
			</g>
		</g>
		<g>
			<g class="st1">
				<path class="st2" d="M336.1,88.2c-1.2,0-2.2-0.2-3.2-0.7c-1-0.5-1.7-1.2-2.3-2.1c-0.6-0.9-0.8-2-0.8-3.4c0-1.3,0.3-2.5,0.9-3.4
					c0.6-0.9,1.4-1.7,2.3-2.2c1-0.5,2.1-0.8,3.2-0.8s2.1,0.3,3,0.8c0.8,0.5,1.4,1.1,1.8,1.8l-0.2,0.4l0.3-2.5h2.6V88h-2.8v-3.1
					l0.3,0.7c-0.1,0.2-0.3,0.4-0.6,0.7c-0.3,0.3-0.6,0.6-1.1,0.9c-0.4,0.3-0.9,0.6-1.5,0.8S336.9,88.2,336.1,88.2z M336.9,86.1
					c0.7,0,1.3-0.1,1.9-0.4c0.6-0.2,1-0.6,1.4-1s0.6-1,0.8-1.6v-2.3c-0.2-0.6-0.4-1.1-0.8-1.5s-0.9-0.8-1.4-1
					c-0.6-0.2-1.2-0.4-1.8-0.4c-0.8,0-1.5,0.2-2.1,0.5c-0.6,0.3-1.1,0.8-1.5,1.4c-0.4,0.6-0.6,1.3-0.6,2.1c0,0.8,0.2,1.4,0.6,2.1
					c0.4,0.6,0.9,1.1,1.5,1.5C335.5,85.9,336.1,86.1,336.9,86.1z"/>
				<path class="st2" d="M351.1,76.2l0.2,2.9l-0.1-0.5c0.4-0.9,1-1.6,1.9-2.1s2-0.8,3.2-0.8c1.2,0,2.1,0.3,2.9,1
					c0.8,0.7,1.1,1.5,1.2,2.5V88h-2.8v-7.8c0-0.6-0.2-1.1-0.6-1.5c-0.4-0.4-0.9-0.6-1.7-0.6c-0.7,0-1.3,0.2-1.9,0.6
					c-0.6,0.4-1.1,0.9-1.4,1.6c-0.3,0.7-0.5,1.4-0.5,2.3V88h-2.8V76.2H351.1z"/>
				<path class="st2" d="M366.4,71.1h2.9v5.2h3.4v2.1h-3.4V88h-2.9v-9.6h-2.3v-2.1h2.3V71.1z"/>
				<path class="st2" d="M381.8,88.2c-1.4,0-2.6-0.3-3.7-0.8c-1-0.5-1.8-1.3-2.4-2.2c-0.6-0.9-0.8-2-0.8-3.2c0-1.2,0.3-2.2,0.9-3.1
					c0.6-0.9,1.5-1.7,2.5-2.3c1-0.6,2.2-0.9,3.5-0.9c1.6,0,3,0.5,4.1,1.4c1.1,0.9,1.8,2.2,2.2,3.7l-10.3,3.4l-0.7-1.6l8.4-2.9
					l-0.6,0.4c-0.2-0.6-0.6-1.2-1.2-1.6s-1.3-0.7-2.2-0.7c-0.8,0-1.4,0.2-2,0.5c-0.6,0.3-1.1,0.8-1.4,1.4c-0.3,0.6-0.5,1.3-0.5,2.1
					s0.2,1.5,0.5,2.1c0.4,0.6,0.8,1.1,1.5,1.5s1.3,0.5,2.1,0.5c0.5,0,1.1-0.1,1.6-0.3c0.5-0.2,1-0.4,1.5-0.7l1.3,2
					c-0.6,0.4-1.3,0.7-2.1,1C383.3,88.1,382.6,88.2,381.8,88.2z"/>
				<path class="st2" d="M401,72c0-0.4,0.2-0.8,0.5-1c0.3-0.3,0.7-0.4,1.2-0.4c0.4,0,0.8,0.1,1.1,0.4c0.3,0.3,0.5,0.6,0.5,1
					c0,0.4-0.2,0.8-0.5,1.1c-0.3,0.3-0.7,0.4-1.1,0.4c-0.4,0-0.8-0.1-1.2-0.4C401.1,72.8,401,72.4,401,72z M401.1,76.2h2.8V88h-2.8
					V76.2z"/>
				<path class="st2" d="M408.8,66h2.8V88h-2.8V66z"/>
				<path class="st2" d="M427.2,71.1h2.9v5.2h3.4v2.1H430V88h-2.9v-9.6h-2.3v-2.1h2.3V71.1z"/>
				<path class="st2" d="M442.6,88.2c-1.4,0-2.6-0.3-3.7-0.8c-1-0.5-1.8-1.3-2.4-2.2c-0.6-0.9-0.8-2-0.8-3.2c0-1.2,0.3-2.2,0.9-3.1
					c0.6-0.9,1.5-1.7,2.5-2.3c1-0.6,2.2-0.9,3.5-0.9c1.6,0,3,0.5,4.1,1.4c1.1,0.9,1.8,2.2,2.2,3.7l-10.3,3.4l-0.7-1.6l8.4-2.9
					l-0.6,0.4c-0.2-0.6-0.6-1.2-1.2-1.6s-1.3-0.7-2.2-0.7c-0.8,0-1.4,0.2-2,0.5c-0.6,0.3-1.1,0.8-1.4,1.4c-0.3,0.6-0.5,1.3-0.5,2.1
					s0.2,1.5,0.5,2.1c0.4,0.6,0.8,1.1,1.5,1.5s1.3,0.5,2.1,0.5c0.5,0,1.1-0.1,1.6-0.3c0.5-0.2,1-0.4,1.5-0.7l1.3,2
					c-0.6,0.4-1.3,0.7-2.1,1C444.1,88.1,443.3,88.2,442.6,88.2z"/>
				<path class="st2" d="M455,76.2l0.2,2.6l-0.2-0.2c0.5-0.9,1.1-1.6,2-2.1c0.9-0.5,1.8-0.8,3-0.8c0.7,0,1.3,0.1,1.8,0.3
					c0.5,0.2,1,0.5,1.3,0.9c0.4,0.4,0.6,0.9,0.7,1.4l-0.2,0.1c0.5-0.9,1.1-1.5,2-2c0.9-0.5,1.7-0.7,2.7-0.7c1.2,0,2.2,0.3,2.9,1
					s1.1,1.5,1.1,2.5V88h-2.8v-7.7c0-0.6-0.2-1.1-0.5-1.5c-0.3-0.4-0.8-0.6-1.5-0.6c-0.7,0-1.4,0.2-1.9,0.6c-0.6,0.4-1,0.9-1.3,1.6
					c-0.3,0.7-0.5,1.4-0.5,2.1V88H461v-7.7c0-0.6-0.2-1.1-0.5-1.5c-0.3-0.4-0.8-0.6-1.5-0.6c-0.7,0-1.4,0.2-1.9,0.6
					c-0.6,0.4-1,0.9-1.3,1.6c-0.3,0.7-0.5,1.4-0.5,2.2V88h-2.8V76.2H455z"/>
				<path class="st2" d="M484.6,88.2c-0.9,0-1.8-0.2-2.7-0.6s-1.5-1-2-1.7l0.2-0.8v8.5h-2.8V76.1h2.4l0.4,3l-0.3-0.9
					c0.6-0.7,1.4-1.3,2.3-1.8c0.9-0.5,2-0.7,3.1-0.7c1.2,0,2.2,0.3,3.1,0.8c0.9,0.5,1.7,1.3,2.2,2.2c0.5,1,0.8,2.1,0.8,3.3
					c0,1.2-0.3,2.3-0.9,3.3S489,87,488,87.5S485.8,88.2,484.6,88.2z M484,86.1c0.8,0,1.5-0.2,2.2-0.5c0.7-0.3,1.2-0.8,1.6-1.4
					c0.4-0.6,0.6-1.3,0.6-2.1c0-0.8-0.2-1.5-0.6-2.1c-0.4-0.6-0.9-1.1-1.5-1.4S485,78,484.2,78c-0.7,0-1.4,0.1-2,0.4
					c-0.6,0.3-1.1,0.6-1.4,1.1s-0.7,1-0.8,1.6v2c0.1,0.6,0.3,1.1,0.7,1.6c0.4,0.5,0.9,0.8,1.4,1.1C482.7,86,483.4,86.1,484,86.1z"/>
				<path class="st2" d="M493.9,82c0-1.2,0.3-2.2,0.9-3.2c0.6-0.9,1.4-1.7,2.5-2.2s2.2-0.8,3.6-0.8c1.3,0,2.5,0.3,3.5,0.8
					c1,0.5,1.8,1.3,2.4,2.2c0.6,0.9,0.9,2,0.9,3.2c0,1.2-0.3,2.2-0.9,3.2c-0.6,0.9-1.4,1.7-2.4,2.3c-1,0.6-2.2,0.8-3.6,0.8
					c-1.3,0-2.5-0.3-3.6-0.8c-1-0.5-1.8-1.2-2.4-2.2C494.2,84.3,493.9,83.2,493.9,82z M496.8,82c0,0.8,0.2,1.4,0.5,2.1
					c0.4,0.6,0.8,1.1,1.4,1.5c0.6,0.4,1.3,0.5,2,0.5c0.8,0,1.5-0.2,2.1-0.5c0.6-0.4,1.1-0.8,1.4-1.5s0.5-1.3,0.5-2.1
					c0-0.8-0.2-1.4-0.5-2.1s-0.8-1.1-1.4-1.5c-0.6-0.4-1.3-0.6-2.1-0.6c-0.8,0-1.4,0.2-2.1,0.6s-1.1,0.9-1.4,1.5
					C496.9,80.6,496.8,81.3,496.8,82z"/>
				<path class="st2" d="M520.9,66h2.8V88h-2.8V66z"/>
				<path class="st2" d="M528.4,72c0-0.4,0.2-0.8,0.5-1c0.3-0.3,0.7-0.4,1.2-0.4c0.4,0,0.8,0.1,1.1,0.4c0.3,0.3,0.5,0.6,0.5,1
					c0,0.4-0.2,0.8-0.5,1.1c-0.3,0.3-0.7,0.4-1.1,0.4c-0.4,0-0.8-0.1-1.2-0.4C528.5,72.8,528.4,72.4,528.4,72z M528.6,76.2h2.8V88
					h-2.8V76.2z"/>
				<path class="st2" d="M543.8,88.2c-1.2,0-2.2-0.2-3-0.7c-0.9-0.5-1.6-1.1-2.1-1.8L539,85v3h-2.8V66h2.8v12.9l-0.1-1
					c0.5-0.6,1.2-1.1,2.1-1.5c0.9-0.4,2-0.6,3.1-0.6c1.1,0,2.1,0.3,3,0.8c0.9,0.5,1.7,1.2,2.2,2.1c0.6,0.9,0.8,2,0.8,3.2
					c0,1.3-0.3,2.5-0.9,3.4c-0.6,1-1.4,1.7-2.4,2.2C546,88,545,88.2,543.8,88.2z M543.2,86c0.8,0,1.5-0.2,2.2-0.5
					c0.6-0.4,1.1-0.9,1.5-1.5c0.4-0.6,0.5-1.3,0.5-2.1c0-0.8-0.2-1.4-0.6-2.1s-0.9-1.1-1.5-1.4c-0.6-0.3-1.3-0.5-2.1-0.5
					c-0.7,0-1.3,0.1-1.9,0.4c-0.6,0.2-1.1,0.6-1.5,1c-0.4,0.4-0.7,0.9-0.9,1.5v2.4c0.2,0.5,0.4,1,0.8,1.5c0.4,0.4,0.9,0.8,1.5,1
					C541.9,85.9,542.5,86,543.2,86z"/>
				<path class="st2" d="M559.8,88.2c-1.4,0-2.6-0.3-3.7-0.8c-1-0.5-1.8-1.3-2.4-2.2c-0.6-0.9-0.8-2-0.8-3.2c0-1.2,0.3-2.2,0.9-3.1
					c0.6-0.9,1.5-1.7,2.5-2.3c1-0.6,2.2-0.9,3.5-0.9c1.6,0,3,0.5,4.1,1.4c1.1,0.9,1.8,2.2,2.2,3.7l-10.3,3.4l-0.7-1.6l8.4-2.9
					l-0.6,0.4c-0.2-0.6-0.6-1.2-1.2-1.6s-1.3-0.7-2.2-0.7c-0.8,0-1.4,0.2-2,0.5c-0.6,0.3-1.1,0.8-1.4,1.4c-0.3,0.6-0.5,1.3-0.5,2.1
					s0.2,1.5,0.5,2.1c0.4,0.6,0.8,1.1,1.5,1.5s1.3,0.5,2.1,0.5c0.5,0,1.1-0.1,1.6-0.3c0.5-0.2,1-0.4,1.5-0.7l1.3,2
					c-0.6,0.4-1.3,0.7-2.1,1C561.3,88.1,560.6,88.2,559.8,88.2z"/>
				<path class="st2" d="M572.2,76.2l0.3,3.4l-0.1-0.5c0.3-0.7,0.8-1.3,1.4-1.8s1.2-0.9,1.9-1.2c0.7-0.3,1.3-0.4,1.7-0.4l-0.1,2.7
					c-1-0.1-1.8,0.1-2.5,0.5c-0.7,0.4-1.3,0.9-1.7,1.6c-0.4,0.7-0.6,1.4-0.6,2.1V88h-2.8V76.2H572.2z"/>
				<path class="st2" d="M579.9,82c0-1.2,0.3-2.2,0.9-3.2c0.6-0.9,1.4-1.7,2.5-2.2s2.2-0.8,3.6-0.8c1.3,0,2.5,0.3,3.5,0.8
					c1,0.5,1.8,1.3,2.4,2.2c0.6,0.9,0.9,2,0.9,3.2c0,1.2-0.3,2.2-0.9,3.2c-0.6,0.9-1.4,1.7-2.4,2.3c-1,0.6-2.2,0.8-3.6,0.8
					c-1.3,0-2.5-0.3-3.6-0.8c-1-0.5-1.8-1.2-2.4-2.2C580.2,84.3,579.9,83.2,579.9,82z M582.7,82c0,0.8,0.2,1.4,0.5,2.1
					c0.4,0.6,0.8,1.1,1.4,1.5c0.6,0.4,1.3,0.5,2,0.5c0.8,0,1.5-0.2,2.1-0.5c0.6-0.4,1.1-0.8,1.4-1.5s0.5-1.3,0.5-2.1
					c0-0.8-0.2-1.4-0.5-2.1s-0.8-1.1-1.4-1.5c-0.6-0.4-1.3-0.6-2.1-0.6c-0.8,0-1.4,0.2-2.1,0.6s-1.1,0.9-1.4,1.5
					C582.9,80.6,582.7,81.3,582.7,82z"/>
			</g>
		</g>
		<g>
			<g class="st1">
				<path class="st2" d="M44.8,122.3c-0.9,0-1.8-0.2-2.7-0.6s-1.5-1-2-1.7l0.2-0.8v8.5h-2.8v-17.5h2.4l0.4,3l-0.3-0.9
					c0.6-0.7,1.4-1.3,2.3-1.8c0.9-0.5,2-0.7,3.1-0.7c1.2,0,2.2,0.3,3.1,0.8c0.9,0.5,1.7,1.3,2.2,2.2c0.5,1,0.8,2.1,0.8,3.3
					c0,1.2-0.3,2.3-0.9,3.3c-0.6,0.9-1.4,1.7-2.4,2.2C47.2,122,46,122.3,44.8,122.3z M44.2,120.2c0.8,0,1.5-0.2,2.2-0.5
					s1.2-0.8,1.6-1.4c0.4-0.6,0.6-1.3,0.6-2.1c0-0.8-0.2-1.5-0.6-2.1c-0.4-0.6-0.9-1.1-1.5-1.4c-0.6-0.3-1.3-0.5-2.1-0.5
					c-0.7,0-1.4,0.1-2,0.4c-0.6,0.3-1.1,0.6-1.4,1.1c-0.4,0.5-0.7,1-0.8,1.6v2c0.1,0.6,0.3,1.1,0.7,1.6c0.4,0.5,0.9,0.8,1.4,1.1
					C42.9,120,43.6,120.2,44.2,120.2z"/>
				<path class="st2" d="M60.4,122.3c-1.2,0-2.2-0.2-3.2-0.7c-1-0.5-1.7-1.2-2.3-2.1c-0.6-0.9-0.8-2-0.8-3.4c0-1.3,0.3-2.5,0.9-3.4
					c0.6-0.9,1.4-1.7,2.3-2.2c1-0.5,2.1-0.8,3.2-0.8s2.1,0.3,3,0.8c0.8,0.5,1.4,1.1,1.8,1.8l-0.2,0.4l0.3-2.5H68V122h-2.8v-3.1
					l0.3,0.7c-0.1,0.2-0.3,0.4-0.6,0.7c-0.3,0.3-0.6,0.6-1.1,0.9c-0.4,0.3-0.9,0.6-1.5,0.8C61.8,122.2,61.2,122.3,60.4,122.3z
					 M61.2,120.1c0.7,0,1.3-0.1,1.9-0.4c0.6-0.2,1-0.6,1.4-1s0.6-1,0.8-1.6v-2.3c-0.2-0.6-0.4-1.1-0.8-1.5c-0.4-0.4-0.9-0.8-1.4-1
					c-0.6-0.2-1.2-0.4-1.8-0.4c-0.8,0-1.5,0.2-2.1,0.5c-0.6,0.3-1.1,0.8-1.5,1.4S57,115.2,57,116c0,0.8,0.2,1.4,0.6,2.1
					c0.4,0.6,0.9,1.1,1.5,1.5C59.7,119.9,60.4,120.1,61.2,120.1z"/>
				<path class="st2" d="M75.4,110.3l0.3,3.4l-0.1-0.5c0.3-0.7,0.8-1.3,1.4-1.8s1.2-0.9,1.9-1.2c0.7-0.3,1.3-0.4,1.7-0.4l-0.1,2.7
					c-1-0.1-1.8,0.1-2.5,0.5c-0.7,0.4-1.3,0.9-1.7,1.6c-0.4,0.7-0.6,1.4-0.6,2.1v5.4h-2.8v-11.7H75.4z"/>
				<path class="st2" d="M85.4,105.1h2.9v5.2h3.4v2.1h-3.4v9.6h-2.9v-9.6h-2.3v-2.1h2.3V105.1z"/>
				<path class="st2" d="M100.8,122.3c-1.4,0-2.6-0.3-3.7-0.8c-1-0.5-1.8-1.3-2.4-2.2c-0.6-0.9-0.8-2-0.8-3.2c0-1.2,0.3-2.2,0.9-3.1
					c0.6-0.9,1.5-1.7,2.5-2.3c1-0.6,2.2-0.9,3.5-0.9c1.6,0,3,0.5,4.1,1.4c1.1,0.9,1.8,2.2,2.2,3.7l-10.3,3.4l-0.7-1.6l8.4-2.9
					l-0.6,0.4c-0.2-0.6-0.6-1.2-1.2-1.6c-0.6-0.5-1.3-0.7-2.2-0.7c-0.8,0-1.4,0.2-2,0.5c-0.6,0.3-1.1,0.8-1.4,1.4
					c-0.3,0.6-0.5,1.3-0.5,2.1s0.2,1.5,0.5,2.1c0.4,0.6,0.8,1.1,1.5,1.5c0.6,0.3,1.3,0.5,2.1,0.5c0.5,0,1.1-0.1,1.6-0.3
					c0.5-0.2,1-0.4,1.5-0.7l1.3,2c-0.6,0.4-1.3,0.7-2.1,1C102.3,122.1,101.5,122.3,100.8,122.3z"/>
				<path class="st2" d="M120.7,120.9c-0.6,0.4-1.2,0.8-2,1c-0.8,0.2-1.6,0.4-2.3,0.4c-1.3,0-2.5-0.3-3.6-0.8
					c-1-0.5-1.8-1.2-2.4-2.2c-0.6-0.9-0.9-2-0.9-3.3c0-1.2,0.3-2.3,0.9-3.2c0.6-0.9,1.4-1.6,2.4-2.1s2.1-0.8,3.2-0.8
					c1,0,1.9,0.1,2.7,0.4c0.8,0.3,1.5,0.6,2.1,1.1l-1.4,1.7c-0.3-0.2-0.8-0.5-1.3-0.7c-0.5-0.2-1.1-0.3-1.8-0.3
					c-0.7,0-1.4,0.2-2,0.5c-0.6,0.4-1.1,0.8-1.4,1.4c-0.4,0.6-0.5,1.3-0.5,2c0,0.7,0.2,1.4,0.5,2c0.4,0.6,0.9,1.1,1.5,1.4
					s1.4,0.5,2.2,0.5c0.5,0,1-0.1,1.5-0.2c0.5-0.2,0.9-0.4,1.2-0.6L120.7,120.9z"/>
				<path class="st2" d="M124.1,106c0-0.4,0.2-0.8,0.5-1c0.4-0.3,0.7-0.4,1.2-0.4c0.4,0,0.8,0.1,1.1,0.4c0.3,0.3,0.5,0.6,0.5,1
					c0,0.4-0.2,0.8-0.5,1.1c-0.3,0.3-0.7,0.4-1.1,0.4c-0.4,0-0.8-0.1-1.2-0.4C124.3,106.8,124.1,106.4,124.1,106z M124.3,110.3h2.8
					V122h-2.8V110.3z"/>
				<path class="st2" d="M139.3,122.3c-0.9,0-1.8-0.2-2.7-0.6s-1.5-1-2-1.7l0.2-0.8v8.5H132v-17.5h2.4l0.4,3l-0.3-0.9
					c0.6-0.7,1.4-1.3,2.3-1.8c0.9-0.5,2-0.7,3.1-0.7c1.2,0,2.2,0.3,3.1,0.8c0.9,0.5,1.7,1.3,2.2,2.2c0.5,1,0.8,2.1,0.8,3.3
					c0,1.2-0.3,2.3-0.9,3.3c-0.6,0.9-1.4,1.7-2.4,2.2C141.8,122,140.6,122.3,139.3,122.3z M138.8,120.2c0.8,0,1.5-0.2,2.2-0.5
					s1.2-0.8,1.6-1.4c0.4-0.6,0.6-1.3,0.6-2.1c0-0.8-0.2-1.5-0.6-2.1c-0.4-0.6-0.9-1.1-1.5-1.4c-0.6-0.3-1.3-0.5-2.1-0.5
					c-0.7,0-1.4,0.1-2,0.4c-0.6,0.3-1.1,0.6-1.4,1.1c-0.4,0.5-0.7,1-0.8,1.6v2c0.1,0.6,0.3,1.1,0.7,1.6c0.4,0.5,0.9,0.8,1.4,1.1
					C137.5,120,138.1,120.2,138.8,120.2z"/>
				<path class="st2" d="M155,122.3c-1.2,0-2.2-0.2-3.2-0.7c-1-0.5-1.7-1.2-2.3-2.1c-0.6-0.9-0.8-2-0.8-3.4c0-1.3,0.3-2.5,0.9-3.4
					c0.6-0.9,1.4-1.7,2.3-2.2c1-0.5,2.1-0.8,3.2-0.8s2.1,0.3,3,0.8c0.8,0.5,1.4,1.1,1.8,1.8l-0.2,0.4l0.3-2.5h2.6V122h-2.8v-3.1
					l0.3,0.7c-0.1,0.2-0.3,0.4-0.6,0.7c-0.3,0.3-0.6,0.6-1.1,0.9c-0.4,0.3-0.9,0.6-1.5,0.8C156.4,122.2,155.7,122.3,155,122.3z
					 M155.7,120.1c0.7,0,1.3-0.1,1.9-0.4c0.6-0.2,1-0.6,1.4-1s0.6-1,0.8-1.6v-2.3c-0.2-0.6-0.4-1.1-0.8-1.5c-0.4-0.4-0.9-0.8-1.4-1
					c-0.6-0.2-1.2-0.4-1.8-0.4c-0.8,0-1.5,0.2-2.1,0.5c-0.6,0.3-1.1,0.8-1.5,1.4s-0.6,1.3-0.6,2.1c0,0.8,0.2,1.4,0.6,2.1
					c0.4,0.6,0.9,1.1,1.5,1.5C154.3,119.9,155,120.1,155.7,120.1z"/>
				<path class="st2" d="M182.1,122.3c-1.2,0-2.2-0.2-3.2-0.7c-1-0.5-1.7-1.2-2.3-2.1c-0.6-0.9-0.8-2-0.8-3.4c0-1.3,0.3-2.5,0.9-3.4
					c0.6-0.9,1.4-1.7,2.3-2.2c1-0.5,2.1-0.8,3.2-0.8s2.1,0.3,3,0.8c0.8,0.5,1.4,1.1,1.8,1.8l-0.2,0.4l0.3-2.5h2.6V122h-2.8v-3.1
					l0.3,0.7c-0.1,0.2-0.3,0.4-0.6,0.7c-0.3,0.3-0.6,0.6-1.1,0.9c-0.4,0.3-0.9,0.6-1.5,0.8C183.5,122.2,182.9,122.3,182.1,122.3z
					 M182.9,120.1c0.7,0,1.3-0.1,1.9-0.4c0.6-0.2,1-0.6,1.4-1s0.6-1,0.8-1.6v-2.3c-0.2-0.6-0.4-1.1-0.8-1.5c-0.4-0.4-0.9-0.8-1.4-1
					c-0.6-0.2-1.2-0.4-1.8-0.4c-0.8,0-1.5,0.2-2.1,0.5c-0.6,0.3-1.1,0.8-1.5,1.4s-0.6,1.3-0.6,2.1c0,0.8,0.2,1.4,0.6,2.1
					c0.4,0.6,0.9,1.1,1.5,1.5C181.4,119.9,182.1,120.1,182.9,120.1z"/>
				<path class="st2" d="M205.1,122v-9.4H203v-2.4h2.2v-4.9c0-1.7,0.4-3,1.2-3.9c0.8-0.9,2-1.4,3.6-1.4c0.4,0,0.9,0.1,1.4,0.2
					c0.5,0.1,0.9,0.3,1.3,0.6l-1.2,1.9c-0.2-0.2-0.4-0.3-0.6-0.4c-0.2-0.1-0.5-0.1-0.7-0.1c-0.7,0-1.3,0.2-1.7,0.7
					c-0.4,0.5-0.6,1.3-0.6,2.4v4.9h3.9v2.4h-3.9v9.4H205.1z"/>
				<path class="st2" d="M221.3,122.3c-1.4,0-2.6-0.3-3.7-0.8c-1-0.5-1.8-1.3-2.4-2.2c-0.6-0.9-0.8-2-0.8-3.2c0-1.2,0.3-2.2,0.9-3.1
					c0.6-0.9,1.5-1.7,2.5-2.3c1-0.6,2.2-0.9,3.5-0.9c1.6,0,3,0.5,4.1,1.4c1.1,0.9,1.8,2.2,2.2,3.7l-10.3,3.4l-0.7-1.6l8.4-2.9
					l-0.6,0.4c-0.2-0.6-0.6-1.2-1.2-1.6c-0.6-0.5-1.3-0.7-2.2-0.7c-0.8,0-1.4,0.2-2,0.5c-0.6,0.3-1.1,0.8-1.4,1.4
					c-0.3,0.6-0.5,1.3-0.5,2.1s0.2,1.5,0.5,2.1c0.4,0.6,0.8,1.1,1.5,1.5c0.6,0.3,1.3,0.5,2.1,0.5c0.5,0,1.1-0.1,1.6-0.3
					c0.5-0.2,1-0.4,1.5-0.7l1.3,2c-0.6,0.4-1.3,0.7-2.1,1C222.8,122.1,222,122.3,221.3,122.3z"/>
				<path class="st2" d="M234.6,122.2c-0.9,0-1.7-0.1-2.6-0.4c-0.8-0.3-1.5-0.7-2.1-1.3l1.2-1.5c0.5,0.5,1.1,0.8,1.6,1.1
					s1.1,0.4,1.6,0.4c0.4,0,0.8,0,1.1-0.1c0.3-0.1,0.6-0.3,0.8-0.5s0.3-0.5,0.3-0.9c0-0.4-0.1-0.8-0.4-1c-0.3-0.2-0.7-0.4-1.1-0.6
					c-0.4-0.2-0.9-0.3-1.4-0.4c-1-0.3-1.8-0.8-2.3-1.3c-0.5-0.6-0.8-1.3-0.8-2.1c0-0.6,0.2-1.2,0.5-1.7s0.8-1,1.5-1.3
					s1.5-0.5,2.4-0.5c0.9,0,1.6,0.1,2.3,0.3c0.7,0.2,1.3,0.5,1.9,1l-1.1,1.6c-0.4-0.4-0.8-0.6-1.3-0.8c-0.5-0.2-0.9-0.3-1.3-0.3
					c-0.4,0-0.7,0.1-1,0.2s-0.6,0.3-0.8,0.5c-0.2,0.2-0.3,0.4-0.3,0.8c0,0.4,0.1,0.7,0.4,0.9c0.3,0.2,0.7,0.4,1.1,0.6
					c0.4,0.2,0.9,0.3,1.4,0.5c0.6,0.2,1.1,0.4,1.6,0.7c0.5,0.3,0.9,0.6,1.2,1c0.3,0.4,0.4,0.9,0.4,1.6c0,0.7-0.2,1.3-0.5,1.9
					c-0.4,0.6-0.9,1.1-1.6,1.4C236.6,122,235.7,122.2,234.6,122.2z"/>
				<path class="st2" d="M244.5,105.1h2.9v5.2h3.4v2.1h-3.4v9.6h-2.9v-9.6h-2.3v-2.1h2.3V105.1z"/>
				<path class="st2" d="M260,122.3c-1.4,0-2.6-0.3-3.7-0.8c-1-0.5-1.8-1.3-2.4-2.2c-0.6-0.9-0.8-2-0.8-3.2c0-1.2,0.3-2.2,0.9-3.1
					c0.6-0.9,1.5-1.7,2.5-2.3c1-0.6,2.2-0.9,3.5-0.9c1.6,0,3,0.5,4.1,1.4c1.1,0.9,1.8,2.2,2.2,3.7l-10.3,3.4l-0.7-1.6l8.4-2.9
					l-0.6,0.4c-0.2-0.6-0.6-1.2-1.2-1.6c-0.6-0.5-1.3-0.7-2.2-0.7c-0.8,0-1.4,0.2-2,0.5c-0.6,0.3-1.1,0.8-1.4,1.4
					c-0.3,0.6-0.5,1.3-0.5,2.1s0.2,1.5,0.5,2.1c0.4,0.6,0.8,1.1,1.5,1.5c0.6,0.3,1.3,0.5,2.1,0.5c0.5,0,1.1-0.1,1.6-0.3
					c0.5-0.2,1-0.4,1.5-0.7l1.3,2c-0.6,0.4-1.3,0.7-2.1,1C261.5,122.1,260.7,122.3,260,122.3z"/>
				<path class="st2" d="M272.4,119.5c-0.4,1-0.9,2-1.3,3c-0.4,1-0.9,2-1.3,3h-2.3c0.4-1,0.8-2,1.2-3c0.4-1,0.8-2,1.1-3H272.4z"/>
				<path class="st2" d="M290.6,122.3c-1.2,0-2.2-0.2-3.2-0.7c-1-0.5-1.7-1.2-2.3-2.1c-0.6-0.9-0.8-2-0.8-3.4c0-1.3,0.3-2.5,0.9-3.4
					c0.6-0.9,1.4-1.7,2.3-2.2c1-0.5,2.1-0.8,3.2-0.8s2.1,0.3,3,0.8c0.8,0.5,1.4,1.1,1.8,1.8l-0.2,0.4l0.3-2.5h2.6V122h-2.8v-3.1
					l0.3,0.7c-0.1,0.2-0.3,0.4-0.6,0.7c-0.3,0.3-0.6,0.6-1.1,0.9c-0.4,0.3-0.9,0.6-1.5,0.8C292,122.2,291.3,122.3,290.6,122.3z
					 M291.3,120.1c0.7,0,1.3-0.1,1.9-0.4c0.6-0.2,1-0.6,1.4-1s0.6-1,0.8-1.6v-2.3c-0.2-0.6-0.4-1.1-0.8-1.5c-0.4-0.4-0.9-0.8-1.4-1
					c-0.6-0.2-1.2-0.4-1.8-0.4c-0.8,0-1.5,0.2-2.1,0.5c-0.6,0.3-1.1,0.8-1.5,1.4s-0.6,1.3-0.6,2.1c0,0.8,0.2,1.4,0.6,2.1
					c0.4,0.6,0.9,1.1,1.5,1.5C289.9,119.9,290.6,120.1,291.3,120.1z"/>
				<path class="st2" d="M310.4,122.3c-0.9,0-1.8-0.2-2.7-0.6s-1.5-1-2-1.7l0.2-0.8v8.5H303v-17.5h2.4l0.4,3l-0.3-0.9
					c0.6-0.7,1.4-1.3,2.3-1.8s2-0.7,3.1-0.7c1.2,0,2.2,0.3,3.1,0.8c0.9,0.5,1.7,1.3,2.2,2.2s0.8,2.1,0.8,3.3c0,1.2-0.3,2.3-0.9,3.3
					s-1.4,1.7-2.4,2.2C312.8,122,311.7,122.3,310.4,122.3z M309.8,120.2c0.8,0,1.5-0.2,2.2-0.5s1.2-0.8,1.6-1.4
					c0.4-0.6,0.6-1.3,0.6-2.1c0-0.8-0.2-1.5-0.6-2.1c-0.4-0.6-0.9-1.1-1.5-1.4s-1.3-0.5-2.1-0.5c-0.7,0-1.4,0.1-2,0.4
					c-0.6,0.3-1.1,0.6-1.4,1.1c-0.4,0.5-0.7,1-0.8,1.6v2c0.1,0.6,0.3,1.1,0.7,1.6c0.4,0.5,0.9,0.8,1.4,1.1
					C308.6,120,309.2,120.2,309.8,120.2z"/>
				<path class="st2" d="M326.6,122.3c-1.4,0-2.6-0.3-3.7-0.8c-1-0.5-1.8-1.3-2.4-2.2c-0.6-0.9-0.8-2-0.8-3.2c0-1.2,0.3-2.2,0.9-3.1
					c0.6-0.9,1.5-1.7,2.5-2.3c1-0.6,2.2-0.9,3.5-0.9c1.6,0,3,0.5,4.1,1.4c1.1,0.9,1.8,2.2,2.2,3.7l-10.3,3.4l-0.7-1.6l8.4-2.9
					l-0.6,0.4c-0.2-0.6-0.6-1.2-1.2-1.6c-0.6-0.5-1.3-0.7-2.2-0.7c-0.8,0-1.4,0.2-2,0.5c-0.6,0.3-1.1,0.8-1.4,1.4
					c-0.3,0.6-0.5,1.3-0.5,2.1s0.2,1.5,0.5,2.1c0.4,0.6,0.8,1.1,1.5,1.5s1.3,0.5,2.1,0.5c0.5,0,1.1-0.1,1.6-0.3
					c0.5-0.2,1-0.4,1.5-0.7l1.3,2c-0.6,0.4-1.3,0.7-2.1,1C328.1,122.1,327.4,122.3,326.6,122.3z"/>
				<path class="st2" d="M339,110.3l0.3,3.4l-0.1-0.5c0.3-0.7,0.8-1.3,1.4-1.8s1.2-0.9,1.9-1.2c0.7-0.3,1.3-0.4,1.7-0.4l-0.1,2.7
					c-1-0.1-1.8,0.1-2.5,0.5c-0.7,0.4-1.3,0.9-1.7,1.6c-0.4,0.7-0.6,1.4-0.6,2.1v5.4h-2.8v-11.7H339z"/>
				<path class="st2" d="M347.6,106c0-0.4,0.2-0.8,0.5-1c0.3-0.3,0.7-0.4,1.2-0.4c0.4,0,0.8,0.1,1.1,0.4c0.3,0.3,0.5,0.6,0.5,1
					c0,0.4-0.2,0.8-0.5,1.1c-0.3,0.3-0.7,0.4-1.1,0.4c-0.4,0-0.8-0.1-1.2-0.4C347.8,106.8,347.6,106.4,347.6,106z M347.8,110.3h2.8
					V122h-2.8V110.3z"/>
				<path class="st2" d="M356.6,105.1h2.9v5.2h3.4v2.1h-3.4v9.6h-2.9v-9.6h-2.3v-2.1h2.3V105.1z"/>
				<path class="st2" d="M366.1,106c0-0.4,0.2-0.8,0.5-1c0.3-0.3,0.7-0.4,1.2-0.4c0.4,0,0.8,0.1,1.1,0.4c0.3,0.3,0.5,0.6,0.5,1
					c0,0.4-0.2,0.8-0.5,1.1c-0.3,0.3-0.7,0.4-1.1,0.4c-0.4,0-0.8-0.1-1.2-0.4C366.2,106.8,366.1,106.4,366.1,106z M366.2,110.3h2.8
					V122h-2.8V110.3z"/>
				<path class="st2" d="M379,122.3l-6.9-12.1h3.3l4.7,9.3l-1.7-0.1l4.3-9.2h3.1l-6.6,12.1H379z"/>
				<path class="st2" d="M388.6,106c0-0.4,0.2-0.8,0.5-1c0.3-0.3,0.7-0.4,1.2-0.4c0.4,0,0.8,0.1,1.1,0.4c0.3,0.3,0.5,0.6,0.5,1
					c0,0.4-0.2,0.8-0.5,1.1c-0.3,0.3-0.7,0.4-1.1,0.4c-0.4,0-0.8-0.1-1.2-0.4C388.7,106.8,388.6,106.4,388.6,106z M388.8,110.3h2.8
					V122h-2.8V110.3z"/>
				<path class="st2" d="M411.7,122.3c-1.4,0-2.6-0.3-3.7-0.8c-1-0.5-1.8-1.3-2.4-2.2c-0.6-0.9-0.8-2-0.8-3.2c0-1.2,0.3-2.2,0.9-3.1
					c0.6-0.9,1.5-1.7,2.5-2.3c1-0.6,2.2-0.9,3.5-0.9c1.6,0,3,0.5,4.1,1.4c1.1,0.9,1.8,2.2,2.2,3.7l-10.3,3.4l-0.7-1.6l8.4-2.9
					l-0.6,0.4c-0.2-0.6-0.6-1.2-1.2-1.6c-0.6-0.5-1.3-0.7-2.2-0.7c-0.8,0-1.4,0.2-2,0.5c-0.6,0.3-1.1,0.8-1.4,1.4
					c-0.3,0.6-0.5,1.3-0.5,2.1s0.2,1.5,0.5,2.1c0.4,0.6,0.8,1.1,1.5,1.5s1.3,0.5,2.1,0.5c0.5,0,1.1-0.1,1.6-0.3
					c0.5-0.2,1-0.4,1.5-0.7l1.3,2c-0.6,0.4-1.3,0.7-2.1,1C413.2,122.1,412.5,122.3,411.7,122.3z"/>
				<path class="st2" d="M441.2,120.9c-0.6,0.4-1.2,0.8-2,1c-0.8,0.2-1.6,0.4-2.3,0.4c-1.3,0-2.5-0.3-3.6-0.8
					c-1-0.5-1.8-1.2-2.4-2.2c-0.6-0.9-0.9-2-0.9-3.3c0-1.2,0.3-2.3,0.9-3.2c0.6-0.9,1.4-1.6,2.4-2.1c1-0.5,2.1-0.8,3.2-0.8
					c1,0,1.9,0.1,2.7,0.4c0.8,0.3,1.5,0.6,2.1,1.1l-1.4,1.7c-0.3-0.2-0.8-0.5-1.3-0.7c-0.5-0.2-1.1-0.3-1.8-0.3
					c-0.7,0-1.4,0.2-2,0.5c-0.6,0.4-1.1,0.8-1.4,1.4c-0.4,0.6-0.5,1.3-0.5,2c0,0.7,0.2,1.4,0.5,2c0.4,0.6,0.9,1.1,1.5,1.4
					c0.6,0.4,1.4,0.5,2.2,0.5c0.5,0,1-0.1,1.5-0.2c0.5-0.2,0.9-0.4,1.2-0.6L441.2,120.9z"/>
				<path class="st2" d="M450.5,122.3c-1.4,0-2.6-0.3-3.7-0.8c-1-0.5-1.8-1.3-2.4-2.2c-0.6-0.9-0.8-2-0.8-3.2c0-1.2,0.3-2.2,0.9-3.1
					c0.6-0.9,1.5-1.7,2.5-2.3c1-0.6,2.2-0.9,3.5-0.9c1.6,0,3,0.5,4.1,1.4c1.1,0.9,1.8,2.2,2.2,3.7l-10.3,3.4l-0.7-1.6l8.4-2.9
					l-0.6,0.4c-0.2-0.6-0.6-1.2-1.2-1.6c-0.6-0.5-1.3-0.7-2.2-0.7c-0.8,0-1.4,0.2-2,0.5c-0.6,0.3-1.1,0.8-1.4,1.4
					c-0.3,0.6-0.5,1.3-0.5,2.1s0.2,1.5,0.5,2.1c0.4,0.6,0.8,1.1,1.5,1.5s1.3,0.5,2.1,0.5c0.5,0,1.1-0.1,1.6-0.3
					c0.5-0.2,1-0.4,1.5-0.7l1.3,2c-0.6,0.4-1.3,0.7-2.1,1C452,122.1,451.3,122.3,450.5,122.3z"/>
				<path class="st2" d="M462.9,110.3l0.2,2.9l-0.1-0.5c0.4-0.9,1-1.6,1.9-2.1s2-0.8,3.2-0.8c1.2,0,2.1,0.3,2.9,1
					c0.8,0.7,1.1,1.5,1.2,2.5v8.7h-2.8v-7.8c0-0.6-0.2-1.1-0.6-1.5c-0.4-0.4-0.9-0.6-1.7-0.6c-0.7,0-1.3,0.2-1.9,0.6
					c-0.6,0.4-1.1,0.9-1.4,1.6c-0.3,0.7-0.5,1.4-0.5,2.3v5.5h-2.8v-11.7H462.9z"/>
				<path class="st2" d="M482.8,122.3c-1.4,0-2.6-0.3-3.7-0.8c-1-0.5-1.8-1.3-2.4-2.2c-0.6-0.9-0.8-2-0.8-3.2c0-1.2,0.3-2.2,0.9-3.1
					c0.6-0.9,1.5-1.7,2.5-2.3c1-0.6,2.2-0.9,3.5-0.9c1.6,0,3,0.5,4.1,1.4c1.1,0.9,1.8,2.2,2.2,3.7l-10.3,3.4l-0.7-1.6l8.4-2.9
					l-0.6,0.4c-0.2-0.6-0.6-1.2-1.2-1.6c-0.6-0.5-1.3-0.7-2.2-0.7c-0.8,0-1.4,0.2-2,0.5c-0.6,0.3-1.1,0.8-1.4,1.4
					c-0.3,0.6-0.5,1.3-0.5,2.1s0.2,1.5,0.5,2.1c0.4,0.6,0.8,1.1,1.5,1.5s1.3,0.5,2.1,0.5c0.5,0,1.1-0.1,1.6-0.3
					c0.5-0.2,1-0.4,1.5-0.7l1.3,2c-0.6,0.4-1.3,0.7-2.1,1C484.3,122.1,483.5,122.3,482.8,122.3z"/>
				<path class="st2" d="M501.9,106c0-0.4,0.2-0.8,0.5-1c0.3-0.3,0.7-0.4,1.2-0.4c0.4,0,0.8,0.1,1.1,0.4c0.3,0.3,0.5,0.6,0.5,1
					c0,0.4-0.2,0.8-0.5,1.1c-0.3,0.3-0.7,0.4-1.1,0.4c-0.4,0-0.8-0.1-1.2-0.4C502.1,106.8,501.9,106.4,501.9,106z M502.1,110.3h2.8
					V122h-2.8V110.3z"/>
				<path class="st2" d="M512.3,110.3l0.2,2.9l-0.1-0.5c0.4-0.9,1-1.6,1.9-2.1s2-0.8,3.2-0.8c1.2,0,2.1,0.3,2.9,1
					c0.8,0.7,1.1,1.5,1.2,2.5v8.7h-2.8v-7.8c0-0.6-0.2-1.1-0.6-1.5c-0.4-0.4-0.9-0.6-1.7-0.6c-0.7,0-1.3,0.2-1.9,0.6
					c-0.6,0.4-1.1,0.9-1.4,1.6c-0.3,0.7-0.5,1.4-0.5,2.3v5.5h-2.8v-11.7H512.3z"/>
				<path class="st2" d="M529.9,122.2c-0.9,0-1.7-0.1-2.6-0.4c-0.8-0.3-1.5-0.7-2.1-1.3l1.2-1.5c0.5,0.5,1.1,0.8,1.6,1.1
					s1.1,0.4,1.6,0.4c0.4,0,0.8,0,1.1-0.1c0.3-0.1,0.6-0.3,0.8-0.5c0.2-0.2,0.3-0.5,0.3-0.9c0-0.4-0.1-0.8-0.4-1
					c-0.3-0.2-0.7-0.4-1.1-0.6c-0.4-0.2-0.9-0.3-1.4-0.4c-1-0.3-1.8-0.8-2.3-1.3c-0.5-0.6-0.8-1.3-0.8-2.1c0-0.6,0.2-1.2,0.5-1.7
					c0.3-0.5,0.8-1,1.5-1.3s1.5-0.5,2.4-0.5c0.9,0,1.6,0.1,2.3,0.3c0.7,0.2,1.3,0.5,1.9,1l-1.1,1.6c-0.4-0.4-0.8-0.6-1.3-0.8
					s-0.9-0.3-1.3-0.3c-0.4,0-0.7,0.1-1,0.2s-0.6,0.3-0.8,0.5c-0.2,0.2-0.3,0.4-0.3,0.8c0,0.4,0.1,0.7,0.4,0.9
					c0.3,0.2,0.7,0.4,1.1,0.6c0.4,0.2,0.9,0.3,1.4,0.5c0.6,0.2,1.1,0.4,1.6,0.7c0.5,0.3,0.9,0.6,1.2,1c0.3,0.4,0.4,0.9,0.4,1.6
					c0,0.7-0.2,1.3-0.5,1.9s-0.9,1.1-1.6,1.4S531,122.2,529.9,122.2z"/>
				<path class="st2" d="M538.4,106c0-0.4,0.2-0.8,0.5-1c0.3-0.3,0.7-0.4,1.2-0.4c0.4,0,0.8,0.1,1.1,0.4c0.3,0.3,0.5,0.6,0.5,1
					c0,0.4-0.2,0.8-0.5,1.1c-0.3,0.3-0.7,0.4-1.1,0.4c-0.4,0-0.8-0.1-1.2-0.4C538.6,106.8,538.4,106.4,538.4,106z M538.6,110.3h2.8
					V122h-2.8V110.3z"/>
				<path class="st2" d="M552.1,122.3c-1.4,0-2.6-0.3-3.7-0.8c-1-0.5-1.8-1.3-2.4-2.2c-0.6-0.9-0.8-2-0.8-3.2c0-1.2,0.3-2.2,0.9-3.1
					c0.6-0.9,1.5-1.7,2.5-2.3c1-0.6,2.2-0.9,3.5-0.9c1.6,0,3,0.5,4.1,1.4c1.1,0.9,1.8,2.2,2.2,3.7l-10.3,3.4l-0.7-1.6l8.4-2.9
					l-0.6,0.4c-0.2-0.6-0.6-1.2-1.2-1.6c-0.6-0.5-1.3-0.7-2.2-0.7c-0.8,0-1.4,0.2-2,0.5c-0.6,0.3-1.1,0.8-1.4,1.4
					c-0.3,0.6-0.5,1.3-0.5,2.1s0.2,1.5,0.5,2.1c0.4,0.6,0.8,1.1,1.5,1.5s1.3,0.5,2.1,0.5c0.5,0,1.1-0.1,1.6-0.3
					c0.5-0.2,1-0.4,1.5-0.7l1.3,2c-0.6,0.4-1.3,0.7-2.1,1C553.6,122.1,552.8,122.3,552.1,122.3z"/>
				<path class="st2" d="M564.5,110.3l0.2,2.6l-0.2-0.2c0.5-0.9,1.1-1.6,2-2.1c0.9-0.5,1.8-0.8,3-0.8c0.7,0,1.3,0.1,1.8,0.3
					c0.5,0.2,1,0.5,1.3,0.9c0.4,0.4,0.6,0.9,0.7,1.4l-0.2,0.1c0.5-0.9,1.1-1.5,2-2c0.9-0.5,1.7-0.7,2.7-0.7c1.2,0,2.2,0.3,2.9,1
					c0.7,0.7,1.1,1.5,1.1,2.5v8.7h-2.8v-7.7c0-0.6-0.2-1.1-0.5-1.5c-0.3-0.4-0.8-0.6-1.5-0.6c-0.7,0-1.4,0.2-1.9,0.6
					c-0.6,0.4-1,0.9-1.3,1.6c-0.3,0.7-0.5,1.4-0.5,2.1v5.6h-2.8v-7.7c0-0.6-0.2-1.1-0.5-1.5s-0.8-0.6-1.5-0.6
					c-0.7,0-1.4,0.2-1.9,0.6c-0.6,0.4-1,0.9-1.3,1.6c-0.3,0.7-0.5,1.4-0.5,2.2v5.5h-2.8v-11.7H564.5z"/>
				<path class="st2" d="M592.5,122.3c-1.4,0-2.6-0.3-3.7-0.8c-1-0.5-1.8-1.3-2.4-2.2c-0.6-0.9-0.8-2-0.8-3.2c0-1.2,0.3-2.2,0.9-3.1
					c0.6-0.9,1.5-1.7,2.5-2.3c1-0.6,2.2-0.9,3.5-0.9c1.6,0,3,0.5,4.1,1.4c1.1,0.9,1.8,2.2,2.2,3.7l-10.3,3.4l-0.7-1.6l8.4-2.9
					l-0.6,0.4c-0.2-0.6-0.6-1.2-1.2-1.6c-0.6-0.5-1.3-0.7-2.2-0.7c-0.8,0-1.4,0.2-2,0.5c-0.6,0.3-1.1,0.8-1.4,1.4
					c-0.3,0.6-0.5,1.3-0.5,2.1s0.2,1.5,0.5,2.1c0.4,0.6,0.8,1.1,1.5,1.5s1.3,0.5,2.1,0.5c0.5,0,1.1-0.1,1.6-0.3
					c0.5-0.2,1-0.4,1.5-0.7l1.3,2c-0.6,0.4-1.3,0.7-2.1,1C594,122.1,593.2,122.3,592.5,122.3z"/>
			</g>
		</g>
		<g>
			<g class="st1">
				<path class="st2" d="M42.6,156.3c-1.2,0-2.2-0.2-3.2-0.7c-1-0.5-1.7-1.2-2.3-2.1c-0.6-0.9-0.8-2-0.8-3.4s0.3-2.5,0.9-3.4
					c0.6-0.9,1.4-1.7,2.3-2.2c1-0.5,2.1-0.8,3.2-0.8s2.1,0.3,3,0.8c0.8,0.5,1.4,1.1,1.8,1.8l-0.2,0.4l0.3-2.5h2.6V156h-2.8v-3.1
					l0.3,0.7c-0.1,0.2-0.3,0.4-0.6,0.7c-0.3,0.3-0.6,0.6-1.1,0.9c-0.4,0.3-0.9,0.6-1.5,0.8C44,156.2,43.3,156.3,42.6,156.3z
					 M43.4,154.1c0.7,0,1.3-0.1,1.9-0.4c0.6-0.2,1-0.6,1.4-1c0.4-0.5,0.6-1,0.8-1.6v-2.3c-0.2-0.6-0.4-1.1-0.8-1.5
					c-0.4-0.4-0.9-0.8-1.4-1c-0.6-0.2-1.2-0.4-1.8-0.4c-0.8,0-1.5,0.2-2.1,0.5c-0.6,0.3-1.1,0.8-1.5,1.4c-0.4,0.6-0.6,1.3-0.6,2.1
					c0,0.8,0.2,1.4,0.6,2.1c0.4,0.6,0.9,1.1,1.5,1.5C41.9,153.9,42.6,154.1,43.4,154.1z"/>
				<path class="st2" d="M64.5,134.1h2.8V156h-2.8V134.1z"/>
				<path class="st2" d="M71.1,150c0-1.2,0.3-2.2,0.9-3.2c0.6-0.9,1.4-1.7,2.5-2.2s2.2-0.8,3.6-0.8c1.3,0,2.5,0.3,3.5,0.8
					c1,0.5,1.8,1.3,2.4,2.2c0.6,0.9,0.9,2,0.9,3.2s-0.3,2.2-0.9,3.2c-0.6,0.9-1.4,1.7-2.4,2.3c-1,0.6-2.2,0.8-3.6,0.8
					c-1.3,0-2.5-0.3-3.6-0.8c-1-0.5-1.8-1.2-2.4-2.2S71.1,151.3,71.1,150z M73.9,150.1c0,0.8,0.2,1.4,0.5,2.1
					c0.4,0.6,0.8,1.1,1.4,1.5c0.6,0.4,1.3,0.5,2,0.5c0.8,0,1.5-0.2,2.1-0.5c0.6-0.4,1.1-0.8,1.4-1.5c0.4-0.6,0.5-1.3,0.5-2.1
					c0-0.8-0.2-1.4-0.5-2.1c-0.4-0.6-0.8-1.1-1.4-1.5c-0.6-0.4-1.3-0.6-2.1-0.6c-0.8,0-1.4,0.2-2.1,0.6c-0.6,0.4-1.1,0.9-1.4,1.5
					S73.9,149.3,73.9,150.1z"/>
				<path class="st2" d="M91.1,144.3l0.3,3.4l-0.1-0.5c0.3-0.7,0.8-1.3,1.4-1.8c0.6-0.5,1.2-0.9,1.9-1.2c0.7-0.3,1.3-0.4,1.7-0.4
					l-0.1,2.7c-1-0.1-1.8,0.1-2.5,0.5c-0.7,0.4-1.3,0.9-1.7,1.6c-0.4,0.7-0.6,1.4-0.6,2.1v5.4h-2.8v-11.7H91.1z"/>
				<path class="st2" d="M98.8,150c0-1.2,0.3-2.2,0.9-3.2c0.6-0.9,1.4-1.7,2.5-2.2s2.2-0.8,3.6-0.8c1.3,0,2.5,0.3,3.5,0.8
					c1,0.5,1.8,1.3,2.4,2.2c0.6,0.9,0.9,2,0.9,3.2s-0.3,2.2-0.9,3.2c-0.6,0.9-1.4,1.7-2.4,2.3c-1,0.6-2.2,0.8-3.6,0.8
					c-1.3,0-2.5-0.3-3.6-0.8c-1-0.5-1.8-1.2-2.4-2.2S98.8,151.3,98.8,150z M101.6,150.1c0,0.8,0.2,1.4,0.5,2.1
					c0.4,0.6,0.8,1.1,1.4,1.5c0.6,0.4,1.3,0.5,2,0.5c0.8,0,1.5-0.2,2.1-0.5c0.6-0.4,1.1-0.8,1.4-1.5c0.4-0.6,0.5-1.3,0.5-2.1
					c0-0.8-0.2-1.4-0.5-2.1c-0.4-0.6-0.8-1.1-1.4-1.5c-0.6-0.4-1.3-0.6-2.1-0.6c-0.8,0-1.4,0.2-2.1,0.6c-0.6,0.4-1.1,0.9-1.4,1.5
					S101.6,149.3,101.6,150.1z"/>
				<path class="st2" d="M115.4,153.4c0.3-0.3,0.7-0.5,1.1-0.5c0.4,0,0.7,0.2,1,0.5c0.3,0.3,0.5,0.7,0.5,1.1c0,0.5-0.2,0.8-0.5,1.1
					c-0.3,0.3-0.7,0.4-1,0.4c-0.4,0-0.8-0.1-1.1-0.4c-0.3-0.3-0.5-0.6-0.5-1.1C114.9,154.1,115,153.7,115.4,153.4z"/>
			</g>
		</g>
	</g>
</g>
</svg>
