<?xml version="1.0" encoding="utf-8"?>
<!-- Generator: Adobe Illustrator 26.3.1, SVG Export Plug-In . SVG Version: 6.00 Build 0)  -->
<svg version="1.1" id="Livello_1" xmlns="http://www.w3.org/2000/svg" xmlns:xlink="http://www.w3.org/1999/xlink" x="0px" y="0px"
	 viewBox="0 0 672 195" style="enable-background:new 0 0 672 195;" xml:space="preserve">
<style type="text/css">
	.st0{fill:#FEFDFC;}
	.st1{fill:#FFFFFF;}
	.st2{enable-background:new    ;}
	.st3{fill:#846B4A;}
</style>
<g id="Livello_2_00000013891096878298617910000018304741216439252102_">
	<g id="nuvole_alberi_copy">
		<path class="st0" d="M451.3,70.7c17.8-15.6,37.9-21.2,61.3-15.1c10.6,2.7,18.6,9.2,25.2,17.1c5.5,6.5,11.4,9.9,19.8,9.6
			c4.7-0.2,8.5,1.6,14.8,7H385.8c12.2-4.8,25-1.5,37.5-2.6C435,85.4,446.3,83.7,451.3,70.7z"/>
	</g>
	<g id="illustrazioni">
		<path class="st1" d="M21.3,0h629.4C662.5,0,672,9.5,672,21.3v152.4c0,11.8-9.5,21.3-21.3,21.3H21.3C9.5,195,0,185.5,0,173.7V21.3
			C0,9.5,9.5,0,21.3,0z"/>
	</g>
	<g id="testi">
		<g>
			<g class="st2">
				<path class="st3" d="M27.1,14.9H30v20.5h-2.9V14.9z"/>
				<path class="st3" d="M48.6,35.6c-0.9,0-1.7-0.1-2.6-0.4c-0.8-0.3-1.5-0.7-2.1-1.3l1.2-1.5c0.5,0.5,1.1,0.8,1.6,1.1
					s1.1,0.4,1.6,0.4c0.4,0,0.8,0,1.1-0.1c0.3-0.1,0.6-0.3,0.8-0.5c0.2-0.2,0.3-0.5,0.3-0.9c0-0.4-0.1-0.8-0.4-1
					c-0.3-0.2-0.7-0.4-1.1-0.6c-0.4-0.2-0.9-0.3-1.4-0.4c-1-0.3-1.8-0.8-2.3-1.3s-0.8-1.3-0.8-2.1c0-0.6,0.2-1.2,0.5-1.7
					s0.8-1,1.5-1.3c0.7-0.3,1.5-0.5,2.4-0.5c0.9,0,1.6,0.1,2.3,0.3c0.7,0.2,1.3,0.5,1.9,1L52,26.2c-0.4-0.4-0.8-0.6-1.3-0.8
					c-0.5-0.2-0.9-0.3-1.3-0.3c-0.4,0-0.7,0.1-1,0.2c-0.3,0.1-0.6,0.3-0.8,0.5c-0.2,0.2-0.3,0.4-0.3,0.8c0,0.4,0.1,0.7,0.4,0.9
					c0.3,0.2,0.7,0.4,1.1,0.6c0.4,0.2,0.9,0.3,1.4,0.5c0.6,0.2,1.1,0.4,1.6,0.7c0.5,0.3,0.9,0.6,1.2,1c0.3,0.4,0.4,0.9,0.4,1.6
					c0,0.7-0.2,1.3-0.5,1.9c-0.4,0.6-0.9,1.1-1.6,1.4C50.6,35.5,49.7,35.6,48.6,35.6z"/>
				<path class="st3" d="M61.3,35.9c-1.2,0-2.1-0.3-2.8-1c-0.7-0.7-1.1-1.5-1.2-2.5v-8.7h2.8v7.7c0,0.6,0.2,1.1,0.6,1.5
					c0.4,0.4,0.9,0.6,1.7,0.6c0.7,0,1.3-0.2,1.8-0.6c0.6-0.4,1-0.9,1.3-1.6c0.3-0.7,0.5-1.4,0.5-2.3v-5.5h2.8v11.7h-2.6l-0.2-2.9
					l0.2,0.5c-0.3,0.5-0.6,1-1.1,1.4s-1.1,0.8-1.7,1C62.8,35.8,62.1,35.9,61.3,35.9z"/>
				<path class="st3" d="M72.6,29.4c0-1.2,0.3-2.2,0.9-3.2c0.6-0.9,1.4-1.7,2.5-2.2s2.2-0.8,3.6-0.8c1.3,0,2.5,0.3,3.5,0.8
					c1,0.5,1.8,1.3,2.4,2.2c0.6,0.9,0.9,2,0.9,3.2c0,1.2-0.3,2.2-0.9,3.2c-0.6,0.9-1.4,1.7-2.4,2.3c-1,0.6-2.2,0.8-3.6,0.8
					c-1.3,0-2.5-0.3-3.6-0.8c-1-0.5-1.8-1.2-2.4-2.2S72.6,30.7,72.6,29.4z M75.4,29.5c0,0.8,0.2,1.4,0.5,2.1
					c0.4,0.6,0.8,1.1,1.4,1.5c0.6,0.4,1.3,0.5,2,0.5c0.8,0,1.5-0.2,2.1-0.5c0.6-0.4,1.1-0.8,1.4-1.5c0.4-0.6,0.5-1.3,0.5-2.1
					c0-0.8-0.2-1.4-0.5-2.1c-0.4-0.6-0.8-1.1-1.4-1.5c-0.6-0.4-1.3-0.6-2.1-0.6c-0.8,0-1.4,0.2-2.1,0.6c-0.6,0.4-1.1,0.9-1.4,1.5
					C75.6,28.1,75.4,28.7,75.4,29.5z"/>
				<path class="st3" d="M89.9,19.4c0-0.4,0.2-0.8,0.5-1c0.4-0.3,0.7-0.4,1.2-0.4c0.4,0,0.8,0.1,1.1,0.4c0.3,0.3,0.5,0.6,0.5,1
					c0,0.4-0.2,0.8-0.5,1.1c-0.3,0.3-0.7,0.4-1.1,0.4c-0.4,0-0.8-0.1-1.2-0.4C90.1,20.2,89.9,19.9,89.9,19.4z M90.1,23.7h2.8v11.7
					h-2.8V23.7z"/>
				<path class="st3" d="M113.3,41.3c-0.9,0-1.7-0.1-2.4-0.3c-0.7-0.2-1.4-0.5-1.9-0.9c-0.6-0.4-1.1-0.8-1.7-1.2l1.7-1.8
					c0.7,0.6,1.3,1,2,1.3c0.7,0.3,1.4,0.5,2.3,0.5c0.9,0,1.7-0.1,2.4-0.4c0.7-0.3,1.1-0.7,1.5-1.2s0.5-1.1,0.5-1.8l0-3.2l0.2,0.5
					c-0.4,0.8-1,1.5-2,2.1c-0.9,0.6-2.1,0.8-3.4,0.8c-1.1,0-2.2-0.3-3.1-0.8c-1-0.5-1.7-1.3-2.3-2.2c-0.6-0.9-0.9-2-0.9-3.2
					c0-1.2,0.3-2.3,0.9-3.3c0.6-0.9,1.4-1.7,2.4-2.2c1-0.5,2.1-0.8,3.2-0.8c1.1,0,2.1,0.2,3,0.6s1.6,1,2,1.6l-0.2,0.5l0.3-2.3h2.6
					v11.8c0,1.1-0.3,2-0.9,2.9s-1.4,1.6-2.5,2.1C116,41,114.7,41.3,113.3,41.3z M109,29.4c0,0.8,0.2,1.4,0.6,2.1
					c0.4,0.6,0.9,1.1,1.6,1.5c0.7,0.4,1.4,0.5,2.1,0.5c0.7,0,1.4-0.1,2-0.4c0.6-0.3,1.1-0.6,1.5-1.1c0.4-0.5,0.7-1,0.8-1.5v-2.4
					c-0.2-0.6-0.5-1.1-0.9-1.5c-0.4-0.4-0.9-0.7-1.5-1c-0.6-0.2-1.2-0.4-1.9-0.4c-0.8,0-1.5,0.2-2.1,0.5c-0.7,0.3-1.2,0.8-1.6,1.4
					S109,28.6,109,29.4z"/>
				<path class="st3" d="M131,35.7c-1.4,0-2.6-0.3-3.7-0.8c-1-0.5-1.8-1.3-2.4-2.2c-0.6-0.9-0.8-2-0.8-3.2c0-1.2,0.3-2.2,0.9-3.1
					c0.6-0.9,1.5-1.7,2.5-2.3c1-0.6,2.2-0.9,3.5-0.9c1.6,0,3,0.5,4.1,1.4c1.1,0.9,1.8,2.2,2.2,3.7l-10.3,3.4l-0.7-1.6l8.4-2.9
					l-0.6,0.4c-0.2-0.6-0.6-1.2-1.2-1.6c-0.6-0.5-1.3-0.7-2.2-0.7c-0.8,0-1.4,0.2-2,0.5c-0.6,0.3-1.1,0.8-1.4,1.4
					c-0.3,0.6-0.5,1.3-0.5,2.1s0.2,1.5,0.5,2.1c0.4,0.6,0.8,1.1,1.5,1.5c0.6,0.3,1.3,0.5,2.1,0.5c0.5,0,1.1-0.1,1.6-0.3
					c0.5-0.2,1-0.4,1.5-0.7l1.3,2c-0.6,0.4-1.3,0.7-2.1,1C132.5,35.6,131.8,35.7,131,35.7z"/>
				<path class="st3" d="M143.4,23.7l0.2,2.9l-0.1-0.5c0.4-0.9,1-1.6,1.9-2.1s2-0.8,3.2-0.8c1.2,0,2.1,0.3,2.9,1
					c0.8,0.7,1.1,1.5,1.2,2.5v8.7h-2.8v-7.8c0-0.6-0.2-1.1-0.6-1.5c-0.4-0.4-0.9-0.6-1.7-0.6c-0.7,0-1.3,0.2-1.9,0.6
					c-0.6,0.4-1.1,0.9-1.4,1.6c-0.3,0.7-0.5,1.4-0.5,2.3v5.5h-2.8V23.7H143.4z"/>
				<path class="st3" d="M157.3,19.4c0-0.4,0.2-0.8,0.5-1c0.4-0.3,0.7-0.4,1.2-0.4c0.4,0,0.8,0.1,1.1,0.4c0.3,0.3,0.5,0.6,0.5,1
					c0,0.4-0.2,0.8-0.5,1.1c-0.3,0.3-0.7,0.4-1.1,0.4c-0.4,0-0.8-0.1-1.2-0.4C157.5,20.2,157.3,19.9,157.3,19.4z M157.5,23.7h2.8
					v11.7h-2.8V23.7z"/>
				<path class="st3" d="M166.3,18.5h2.9v5.2h3.4v2.1h-3.4v9.6h-2.9v-9.6h-2.3v-2.1h2.3V18.5z"/>
				<path class="st3" d="M174.9,29.4c0-1.2,0.3-2.2,0.9-3.2c0.6-0.9,1.4-1.7,2.5-2.2s2.2-0.8,3.6-0.8c1.3,0,2.5,0.3,3.5,0.8
					c1,0.5,1.8,1.3,2.4,2.2c0.6,0.9,0.9,2,0.9,3.2c0,1.2-0.3,2.2-0.9,3.2c-0.6,0.9-1.4,1.7-2.4,2.3c-1,0.6-2.2,0.8-3.6,0.8
					c-1.3,0-2.5-0.3-3.6-0.8c-1-0.5-1.8-1.2-2.4-2.2S174.9,30.7,174.9,29.4z M177.7,29.5c0,0.8,0.2,1.4,0.5,2.1
					c0.4,0.6,0.8,1.1,1.4,1.5c0.6,0.4,1.3,0.5,2,0.5c0.8,0,1.5-0.2,2.1-0.5c0.6-0.4,1.1-0.8,1.4-1.5c0.4-0.6,0.5-1.3,0.5-2.1
					c0-0.8-0.2-1.4-0.5-2.1c-0.4-0.6-0.8-1.1-1.4-1.5c-0.6-0.4-1.3-0.6-2.1-0.6c-0.8,0-1.4,0.2-2.1,0.6c-0.6,0.4-1.1,0.9-1.4,1.5
					C177.9,28.1,177.7,28.7,177.7,29.5z"/>
				<path class="st3" d="M194.9,23.7l0.3,3.4l-0.1-0.5c0.3-0.7,0.8-1.3,1.4-1.8s1.2-0.9,1.9-1.2c0.7-0.3,1.3-0.4,1.7-0.4l-0.1,2.7
					c-1-0.1-1.8,0.1-2.5,0.5c-0.7,0.4-1.3,0.9-1.7,1.6c-0.4,0.7-0.6,1.4-0.6,2.1v5.4h-2.8V23.7H194.9z"/>
				<path class="st3" d="M203.5,19.4c0-0.4,0.2-0.8,0.5-1c0.4-0.3,0.7-0.4,1.2-0.4c0.4,0,0.8,0.1,1.1,0.4c0.3,0.3,0.5,0.6,0.5,1
					c0,0.4-0.2,0.8-0.5,1.1c-0.3,0.3-0.7,0.4-1.1,0.4c-0.4,0-0.8-0.1-1.2-0.4C203.6,20.2,203.5,19.9,203.5,19.4z M203.6,23.7h2.8
					v11.7h-2.8V23.7z"/>
				<path class="st3" d="M224.3,35.6c-0.9,0-1.7-0.1-2.6-0.4c-0.8-0.3-1.5-0.7-2.1-1.3l1.2-1.5c0.5,0.5,1.1,0.8,1.6,1.1
					s1.1,0.4,1.6,0.4c0.4,0,0.8,0,1.1-0.1c0.3-0.1,0.6-0.3,0.8-0.5c0.2-0.2,0.3-0.5,0.3-0.9c0-0.4-0.1-0.8-0.4-1
					c-0.3-0.2-0.7-0.4-1.1-0.6c-0.4-0.2-0.9-0.3-1.4-0.4c-1-0.3-1.8-0.8-2.3-1.3s-0.8-1.3-0.8-2.1c0-0.6,0.2-1.2,0.5-1.7
					s0.8-1,1.5-1.3c0.7-0.3,1.5-0.5,2.4-0.5c0.9,0,1.6,0.1,2.3,0.3c0.7,0.2,1.3,0.5,1.9,1l-1.1,1.6c-0.4-0.4-0.8-0.6-1.3-0.8
					c-0.5-0.2-0.9-0.3-1.3-0.3c-0.4,0-0.7,0.1-1,0.2c-0.3,0.1-0.6,0.3-0.8,0.5c-0.2,0.2-0.3,0.4-0.3,0.8c0,0.4,0.1,0.7,0.4,0.9
					c0.3,0.2,0.7,0.4,1.1,0.6c0.4,0.2,0.9,0.3,1.4,0.5c0.6,0.2,1.1,0.4,1.6,0.7c0.5,0.3,0.9,0.6,1.2,1c0.3,0.4,0.4,0.9,0.4,1.6
					c0,0.7-0.2,1.3-0.5,1.9c-0.4,0.6-0.9,1.1-1.6,1.4C226.3,35.5,225.4,35.6,224.3,35.6z"/>
				<path class="st3" d="M231.9,29.4c0-1.2,0.3-2.2,0.9-3.2c0.6-0.9,1.4-1.7,2.5-2.2s2.2-0.8,3.6-0.8c1.3,0,2.5,0.3,3.5,0.8
					c1,0.5,1.8,1.3,2.4,2.2c0.6,0.9,0.9,2,0.9,3.2c0,1.2-0.3,2.2-0.9,3.2c-0.6,0.9-1.4,1.7-2.4,2.3c-1,0.6-2.2,0.8-3.6,0.8
					c-1.3,0-2.5-0.3-3.6-0.8c-1-0.5-1.8-1.2-2.4-2.2S231.9,30.7,231.9,29.4z M234.8,29.5c0,0.8,0.2,1.4,0.5,2.1
					c0.4,0.6,0.8,1.1,1.4,1.5c0.6,0.4,1.3,0.5,2,0.5c0.8,0,1.5-0.2,2.1-0.5c0.6-0.4,1.1-0.8,1.4-1.5c0.4-0.6,0.5-1.3,0.5-2.1
					c0-0.8-0.2-1.4-0.5-2.1c-0.4-0.6-0.8-1.1-1.4-1.5c-0.6-0.4-1.3-0.6-2.1-0.6c-0.8,0-1.4,0.2-2.1,0.6c-0.6,0.4-1.1,0.9-1.4,1.5
					C234.9,28.1,234.8,28.7,234.8,29.5z"/>
				<path class="st3" d="M252,23.7l0.2,2.9l-0.1-0.5c0.4-0.9,1-1.6,1.9-2.1s2-0.8,3.2-0.8c1.2,0,2.1,0.3,2.9,1
					c0.8,0.7,1.1,1.5,1.2,2.5v8.7h-2.8v-7.8c0-0.6-0.2-1.1-0.6-1.5c-0.4-0.4-0.9-0.6-1.7-0.6c-0.7,0-1.3,0.2-1.9,0.6
					c-0.6,0.4-1.1,0.9-1.4,1.6c-0.3,0.7-0.5,1.4-0.5,2.3v5.5h-2.8V23.7H252z"/>
				<path class="st3" d="M264.9,29.4c0-1.2,0.3-2.2,0.9-3.2c0.6-0.9,1.4-1.7,2.5-2.2s2.2-0.8,3.6-0.8c1.3,0,2.5,0.3,3.5,0.8
					c1,0.5,1.8,1.3,2.4,2.2c0.6,0.9,0.9,2,0.9,3.2c0,1.2-0.3,2.2-0.9,3.2c-0.6,0.9-1.4,1.7-2.4,2.3c-1,0.6-2.2,0.8-3.6,0.8
					c-1.3,0-2.5-0.3-3.6-0.8c-1-0.5-1.8-1.2-2.4-2.2S264.9,30.7,264.9,29.4z M267.8,29.5c0,0.8,0.2,1.4,0.5,2.1
					c0.4,0.6,0.8,1.1,1.4,1.5c0.6,0.4,1.3,0.5,2,0.5c0.8,0,1.5-0.2,2.1-0.5c0.6-0.4,1.1-0.8,1.4-1.5c0.4-0.6,0.5-1.3,0.5-2.1
					c0-0.8-0.2-1.4-0.5-2.1c-0.4-0.6-0.8-1.1-1.4-1.5c-0.6-0.4-1.3-0.6-2.1-0.6c-0.8,0-1.4,0.2-2.1,0.6c-0.6,0.4-1.1,0.9-1.4,1.5
					C267.9,28.1,267.8,28.7,267.8,29.5z"/>
				<path class="st3" d="M295.4,35.6c-0.9,0-1.7-0.1-2.6-0.4c-0.8-0.3-1.5-0.7-2.1-1.3l1.2-1.5c0.5,0.5,1.1,0.8,1.6,1.1
					s1.1,0.4,1.6,0.4c0.4,0,0.8,0,1.1-0.1c0.3-0.1,0.6-0.3,0.8-0.5c0.2-0.2,0.3-0.5,0.3-0.9c0-0.4-0.1-0.8-0.4-1
					c-0.3-0.2-0.7-0.4-1.1-0.6c-0.4-0.2-0.9-0.3-1.4-0.4c-1-0.3-1.8-0.8-2.3-1.3s-0.8-1.3-0.8-2.1c0-0.6,0.2-1.2,0.5-1.7
					s0.8-1,1.5-1.3c0.7-0.3,1.5-0.5,2.4-0.5c0.9,0,1.6,0.1,2.3,0.3c0.7,0.2,1.3,0.5,1.9,1l-1.1,1.6c-0.4-0.4-0.8-0.6-1.3-0.8
					s-0.9-0.3-1.3-0.3c-0.4,0-0.7,0.1-1,0.2c-0.3,0.1-0.6,0.3-0.8,0.5c-0.2,0.2-0.3,0.4-0.3,0.8c0,0.4,0.1,0.7,0.4,0.9
					c0.3,0.2,0.7,0.4,1.1,0.6c0.4,0.2,0.9,0.3,1.4,0.5c0.6,0.2,1.1,0.4,1.6,0.7c0.5,0.3,0.9,0.6,1.2,1c0.3,0.4,0.4,0.9,0.4,1.6
					c0,0.7-0.2,1.3-0.5,1.9c-0.3,0.6-0.9,1.1-1.6,1.4C297.4,35.5,296.5,35.6,295.4,35.6z"/>
				<path class="st3" d="M309.9,35.7c-1.4,0-2.6-0.3-3.7-0.8c-1-0.5-1.8-1.3-2.4-2.2c-0.6-0.9-0.8-2-0.8-3.2c0-1.2,0.3-2.2,0.9-3.1
					c0.6-0.9,1.5-1.7,2.5-2.3c1-0.6,2.2-0.9,3.5-0.9c1.6,0,3,0.5,4.1,1.4c1.1,0.9,1.8,2.2,2.2,3.7L306,31.7l-0.7-1.6l8.4-2.9
					l-0.6,0.4c-0.2-0.6-0.6-1.2-1.2-1.6s-1.3-0.7-2.2-0.7c-0.8,0-1.4,0.2-2,0.5c-0.6,0.3-1.1,0.8-1.4,1.4c-0.3,0.6-0.5,1.3-0.5,2.1
					s0.2,1.5,0.5,2.1c0.4,0.6,0.8,1.1,1.5,1.5s1.3,0.5,2.1,0.5c0.5,0,1.1-0.1,1.6-0.3c0.5-0.2,1-0.4,1.5-0.7l1.3,2
					c-0.6,0.4-1.3,0.7-2.1,1C311.4,35.6,310.7,35.7,309.9,35.7z"/>
				<path class="st3" d="M322.3,23.7l0.2,2.6l-0.2-0.2c0.5-0.9,1.1-1.6,2-2.1c0.9-0.5,1.8-0.8,3-0.8c0.7,0,1.3,0.1,1.8,0.3
					c0.5,0.2,1,0.5,1.3,0.9c0.4,0.4,0.6,0.9,0.7,1.4L331,26c0.5-0.9,1.1-1.5,2-2c0.9-0.5,1.7-0.7,2.7-0.7c1.2,0,2.2,0.3,2.9,1
					s1.1,1.5,1.1,2.5v8.7h-2.8v-7.7c0-0.6-0.2-1.1-0.5-1.5c-0.3-0.4-0.8-0.6-1.5-0.6c-0.7,0-1.4,0.2-1.9,0.6c-0.6,0.4-1,0.9-1.3,1.6
					c-0.3,0.7-0.5,1.4-0.5,2.1v5.6h-2.8v-7.7c0-0.6-0.2-1.1-0.5-1.5c-0.3-0.4-0.8-0.6-1.5-0.6c-0.7,0-1.4,0.2-1.9,0.6
					c-0.6,0.4-1,0.9-1.3,1.6c-0.3,0.7-0.5,1.4-0.5,2.2v5.5h-2.8V23.7H322.3z"/>
				<path class="st3" d="M351.9,35.7c-0.9,0-1.8-0.2-2.7-0.6s-1.5-1-2-1.7l0.2-0.8v8.5h-2.8V23.5h2.4l0.4,3l-0.3-0.9
					c0.6-0.7,1.4-1.3,2.3-1.8c0.9-0.5,2-0.7,3.1-0.7c1.2,0,2.2,0.3,3.1,0.8c0.9,0.5,1.7,1.3,2.2,2.2c0.5,1,0.8,2.1,0.8,3.3
					c0,1.2-0.3,2.3-0.9,3.3s-1.4,1.7-2.4,2.2S353.2,35.7,351.9,35.7z M351.4,33.6c0.8,0,1.5-0.2,2.2-0.5c0.7-0.3,1.2-0.8,1.6-1.4
					c0.4-0.6,0.6-1.3,0.6-2.1c0-0.8-0.2-1.5-0.6-2.1c-0.4-0.6-0.9-1.1-1.5-1.4s-1.3-0.5-2.1-0.5c-0.7,0-1.4,0.1-2,0.4
					c-0.6,0.3-1.1,0.6-1.4,1.1s-0.7,1-0.8,1.6v2c0.1,0.6,0.3,1.1,0.7,1.6c0.4,0.5,0.9,0.8,1.4,1.1C350.1,33.5,350.7,33.6,351.4,33.6
					z"/>
				<path class="st3" d="M364.9,23.7l0.3,3.4l-0.1-0.5c0.3-0.7,0.8-1.3,1.4-1.8s1.2-0.9,1.9-1.2c0.7-0.3,1.3-0.4,1.7-0.4l-0.1,2.7
					c-1-0.1-1.8,0.1-2.5,0.5c-0.7,0.4-1.3,0.9-1.7,1.6c-0.4,0.7-0.6,1.4-0.6,2.1v5.4h-2.8V23.7H364.9z"/>
				<path class="st3" d="M379.5,35.7c-1.4,0-2.6-0.3-3.7-0.8c-1-0.5-1.8-1.3-2.4-2.2c-0.6-0.9-0.8-2-0.8-3.2c0-1.2,0.3-2.2,0.9-3.1
					c0.6-0.9,1.5-1.7,2.5-2.3c1-0.6,2.2-0.9,3.5-0.9c1.6,0,3,0.5,4.1,1.4c1.1,0.9,1.8,2.2,2.2,3.7l-10.3,3.4l-0.7-1.6l8.4-2.9
					l-0.6,0.4c-0.2-0.6-0.6-1.2-1.2-1.6s-1.3-0.7-2.2-0.7c-0.8,0-1.4,0.2-2,0.5c-0.6,0.3-1.1,0.8-1.4,1.4c-0.3,0.6-0.5,1.3-0.5,2.1
					s0.2,1.5,0.5,2.1c0.4,0.6,0.8,1.1,1.5,1.5s1.3,0.5,2.1,0.5c0.5,0,1.1-0.1,1.6-0.3c0.5-0.2,1-0.4,1.5-0.7l1.3,2
					c-0.6,0.4-1.3,0.7-2.1,1C381,35.6,380.2,35.7,379.5,35.7z"/>
				<path class="st3" d="M406.2,35.7c-0.9,0-1.8-0.2-2.7-0.6s-1.5-1-2-1.7l0.2-0.8v8.5h-2.8V23.5h2.4l0.4,3l-0.3-0.9
					c0.6-0.7,1.4-1.3,2.3-1.8c0.9-0.5,2-0.7,3.1-0.7c1.2,0,2.2,0.3,3.1,0.8c0.9,0.5,1.7,1.3,2.2,2.2c0.5,1,0.8,2.1,0.8,3.3
					c0,1.2-0.3,2.3-0.9,3.3s-1.4,1.7-2.4,2.2S407.4,35.7,406.2,35.7z M405.6,33.6c0.8,0,1.5-0.2,2.2-0.5c0.7-0.3,1.2-0.8,1.6-1.4
					c0.4-0.6,0.6-1.3,0.6-2.1c0-0.8-0.2-1.5-0.6-2.1c-0.4-0.6-0.9-1.1-1.5-1.4s-1.3-0.5-2.1-0.5c-0.7,0-1.4,0.1-2,0.4
					c-0.6,0.3-1.1,0.6-1.4,1.1s-0.7,1-0.8,1.6v2c0.1,0.6,0.3,1.1,0.7,1.6c0.4,0.5,0.9,0.8,1.4,1.1C404.3,33.5,405,33.6,405.6,33.6z"
					/>
				<path class="st3" d="M419.1,23.7l0.3,3.4l-0.1-0.5c0.3-0.7,0.8-1.3,1.4-1.8s1.2-0.9,1.9-1.2c0.7-0.3,1.3-0.4,1.7-0.4l-0.1,2.7
					c-1-0.1-1.8,0.1-2.5,0.5c-0.7,0.4-1.3,0.9-1.7,1.6c-0.4,0.7-0.6,1.4-0.6,2.1v5.4h-2.8V23.7H419.1z"/>
				<path class="st3" d="M433.7,35.7c-1.4,0-2.6-0.3-3.7-0.8c-1-0.5-1.8-1.3-2.4-2.2c-0.6-0.9-0.8-2-0.8-3.2c0-1.2,0.3-2.2,0.9-3.1
					c0.6-0.9,1.5-1.7,2.5-2.3c1-0.6,2.2-0.9,3.5-0.9c1.6,0,3,0.5,4.1,1.4c1.1,0.9,1.8,2.2,2.2,3.7l-10.3,3.4l-0.7-1.6l8.4-2.9
					l-0.6,0.4c-0.2-0.6-0.6-1.2-1.2-1.6s-1.3-0.7-2.2-0.7c-0.8,0-1.4,0.2-2,0.5c-0.6,0.3-1.1,0.8-1.4,1.4c-0.3,0.6-0.5,1.3-0.5,2.1
					s0.2,1.5,0.5,2.1c0.4,0.6,0.8,1.1,1.5,1.5s1.3,0.5,2.1,0.5c0.5,0,1.1-0.1,1.6-0.3c0.5-0.2,1-0.4,1.5-0.7l1.3,2
					c-0.6,0.4-1.3,0.7-2.1,1C435.2,35.6,434.5,35.7,433.7,35.7z"/>
				<path class="st3" d="M447.1,35.6c-0.9,0-1.7-0.1-2.6-0.4c-0.8-0.3-1.5-0.7-2.1-1.3l1.2-1.5c0.5,0.5,1.1,0.8,1.6,1.1
					s1.1,0.4,1.6,0.4c0.4,0,0.8,0,1.1-0.1c0.3-0.1,0.6-0.3,0.8-0.5c0.2-0.2,0.3-0.5,0.3-0.9c0-0.4-0.1-0.8-0.4-1
					c-0.3-0.2-0.7-0.4-1.1-0.6s-0.9-0.3-1.4-0.4c-1-0.3-1.8-0.8-2.3-1.3s-0.8-1.3-0.8-2.1c0-0.6,0.2-1.2,0.5-1.7
					c0.3-0.5,0.8-1,1.5-1.3c0.7-0.3,1.5-0.5,2.4-0.5c0.9,0,1.6,0.1,2.3,0.3c0.7,0.2,1.3,0.5,1.9,1l-1.1,1.6
					c-0.4-0.4-0.8-0.6-1.3-0.8s-0.9-0.3-1.3-0.3c-0.4,0-0.7,0.1-1,0.2c-0.3,0.1-0.6,0.3-0.8,0.5c-0.2,0.2-0.3,0.4-0.3,0.8
					c0,0.4,0.1,0.7,0.4,0.9c0.3,0.2,0.7,0.4,1.1,0.6c0.4,0.2,0.9,0.3,1.4,0.5c0.6,0.2,1.1,0.4,1.6,0.7c0.5,0.3,0.9,0.6,1.2,1
					c0.3,0.4,0.4,0.9,0.4,1.6c0,0.7-0.2,1.3-0.5,1.9c-0.4,0.6-0.9,1.1-1.6,1.4C449.1,35.5,448.2,35.6,447.1,35.6z"/>
				<path class="st3" d="M461.6,35.7c-1.4,0-2.6-0.3-3.7-0.8c-1-0.5-1.8-1.3-2.4-2.2c-0.6-0.9-0.8-2-0.8-3.2c0-1.2,0.3-2.2,0.9-3.1
					c0.6-0.9,1.5-1.7,2.5-2.3c1-0.6,2.2-0.9,3.5-0.9c1.6,0,3,0.5,4.1,1.4c1.1,0.9,1.8,2.2,2.2,3.7l-10.3,3.4l-0.7-1.6l8.4-2.9
					l-0.6,0.4c-0.2-0.6-0.6-1.2-1.2-1.6s-1.3-0.7-2.2-0.7c-0.8,0-1.4,0.2-2,0.5c-0.6,0.3-1.1,0.8-1.4,1.4c-0.3,0.6-0.5,1.3-0.5,2.1
					s0.2,1.5,0.5,2.1c0.4,0.6,0.8,1.1,1.5,1.5s1.3,0.5,2.1,0.5c0.5,0,1.1-0.1,1.6-0.3c0.5-0.2,1-0.4,1.5-0.7l1.3,2
					c-0.6,0.4-1.3,0.7-2.1,1C463.1,35.6,462.3,35.7,461.6,35.7z"/>
				<path class="st3" d="M473.9,23.7l0.2,2.9l-0.1-0.5c0.4-0.9,1-1.6,1.9-2.1s2-0.8,3.2-0.8c1.2,0,2.1,0.3,2.9,1
					c0.8,0.7,1.1,1.5,1.2,2.5v8.7h-2.8v-7.8c0-0.6-0.2-1.1-0.6-1.5c-0.4-0.4-0.9-0.6-1.7-0.6c-0.7,0-1.3,0.2-1.9,0.6
					c-0.6,0.4-1.1,0.9-1.4,1.6c-0.3,0.7-0.5,1.4-0.5,2.3v5.5h-2.8V23.7H473.9z"/>
				<path class="st3" d="M489.2,18.5h2.9v5.2h3.4v2.1h-3.4v9.6h-2.9v-9.6H487v-2.1h2.3V18.5z"/>
				<path class="st3" d="M498.6,19.4c0-0.4,0.2-0.8,0.5-1c0.3-0.3,0.7-0.4,1.2-0.4c0.4,0,0.8,0.1,1.1,0.4c0.3,0.3,0.5,0.6,0.5,1
					c0,0.4-0.2,0.8-0.5,1.1c-0.3,0.3-0.7,0.4-1.1,0.4c-0.4,0-0.8-0.1-1.2-0.4C498.8,20.2,498.6,19.9,498.6,19.4z M498.8,23.7h2.8
					v11.7h-2.8V23.7z"/>
				<path class="st3" d="M509.1,32.9c-0.4,1-0.9,2-1.3,3c-0.4,1-0.9,2-1.3,3h-2.3c0.4-1,0.8-2,1.2-3s0.8-2,1.1-3H509.1z"/>
			</g>
		</g>
		<g>
			<g class="st2">
				<path class="st3" d="M31.6,69.7c-1.2,0-2.2-0.2-3.2-0.7c-1-0.5-1.7-1.2-2.3-2.1c-0.6-0.9-0.8-2-0.8-3.4c0-1.3,0.3-2.5,0.9-3.4
					c0.6-0.9,1.4-1.7,2.3-2.2c1-0.5,2.1-0.8,3.2-0.8s2.1,0.3,3,0.8c0.8,0.5,1.4,1.1,1.8,1.8l-0.2,0.4l0.3-2.5h2.6v11.7h-2.8v-3.1
					l0.3,0.7c-0.1,0.2-0.3,0.4-0.6,0.7c-0.3,0.3-0.6,0.6-1.1,0.9c-0.4,0.3-0.9,0.6-1.5,0.8C33,69.6,32.3,69.7,31.6,69.7z M32.4,67.5
					c0.7,0,1.3-0.1,1.9-0.4c0.6-0.2,1-0.6,1.4-1s0.6-1,0.8-1.6v-2.3c-0.2-0.6-0.4-1.1-0.8-1.5c-0.4-0.4-0.9-0.8-1.4-1
					c-0.6-0.2-1.2-0.4-1.8-0.4c-0.8,0-1.5,0.2-2.1,0.5c-0.6,0.3-1.1,0.8-1.5,1.4s-0.6,1.3-0.6,2.1c0,0.8,0.2,1.4,0.6,2.1
					c0.4,0.6,0.9,1.1,1.5,1.5C30.9,67.4,31.6,67.5,32.4,67.5z"/>
				<path class="st3" d="M43.9,53.5c0-0.4,0.2-0.8,0.5-1c0.4-0.3,0.7-0.4,1.2-0.4c0.4,0,0.8,0.1,1.1,0.4c0.3,0.3,0.5,0.6,0.5,1
					c0,0.4-0.2,0.8-0.5,1.1c-0.3,0.3-0.7,0.4-1.1,0.4c-0.4,0-0.8-0.1-1.2-0.4C44,54.2,43.9,53.9,43.9,53.5z M44,57.7h2.8v11.7H44
					V57.7z"/>
				<path class="st3" d="M55.7,69.9c-1.2,0-2.1-0.3-2.8-1c-0.7-0.7-1.1-1.5-1.2-2.5v-8.7h2.8v7.7c0,0.6,0.2,1.1,0.6,1.5
					c0.4,0.4,0.9,0.6,1.7,0.6c0.7,0,1.3-0.2,1.8-0.6c0.6-0.4,1-0.9,1.3-1.6c0.3-0.7,0.5-1.4,0.5-2.3v-5.5h2.8v11.7h-2.6l-0.2-2.9
					l0.2,0.5c-0.3,0.5-0.6,1-1.1,1.4s-1.1,0.8-1.7,1C57.2,69.8,56.5,69.9,55.7,69.9z"/>
				<path class="st3" d="M69.3,52.5h2.9v5.2h3.4v2.1h-3.4v9.6h-2.9v-9.6h-2.3v-2.1h2.3V52.5z"/>
				<path class="st3" d="M84.1,69.7c-1.2,0-2.2-0.2-3.2-0.7c-1-0.5-1.7-1.2-2.3-2.1c-0.6-0.9-0.8-2-0.8-3.4c0-1.3,0.3-2.5,0.9-3.4
					c0.6-0.9,1.4-1.7,2.3-2.2c1-0.5,2.1-0.8,3.2-0.8s2.1,0.3,3,0.8c0.8,0.5,1.4,1.1,1.8,1.8l-0.2,0.4l0.3-2.5h2.6v11.7h-2.8v-3.1
					l0.3,0.7c-0.1,0.2-0.3,0.4-0.6,0.7c-0.3,0.3-0.6,0.6-1.1,0.9c-0.4,0.3-0.9,0.6-1.5,0.8C85.5,69.6,84.9,69.7,84.1,69.7z
					 M84.9,67.5c0.7,0,1.3-0.1,1.9-0.4c0.6-0.2,1-0.6,1.4-1s0.6-1,0.8-1.6v-2.3c-0.2-0.6-0.4-1.1-0.8-1.5c-0.4-0.4-0.9-0.8-1.4-1
					c-0.6-0.2-1.2-0.4-1.8-0.4c-0.8,0-1.5,0.2-2.1,0.5c-0.6,0.3-1.1,0.8-1.5,1.4s-0.6,1.3-0.6,2.1c0,0.8,0.2,1.4,0.6,2.1
					c0.4,0.6,0.9,1.1,1.5,1.5C83.4,67.4,84.1,67.5,84.9,67.5z"/>
				<path class="st3" d="M99.1,57.7l0.2,2.9l-0.1-0.5c0.4-0.9,1-1.6,1.9-2.1s2-0.8,3.2-0.8c1.2,0,2.1,0.3,2.9,1
					c0.8,0.7,1.1,1.5,1.2,2.5v8.7h-2.8v-7.8c0-0.6-0.2-1.1-0.6-1.5c-0.4-0.4-0.9-0.6-1.7-0.6c-0.7,0-1.3,0.2-1.9,0.6
					c-0.6,0.4-1.1,0.9-1.4,1.6c-0.3,0.7-0.5,1.4-0.5,2.3v5.5h-2.8V57.7H99.1z"/>
				<path class="st3" d="M118.3,69.7c-1.2,0-2.2-0.3-3.1-0.8c-0.9-0.5-1.7-1.3-2.2-2.2c-0.6-1-0.8-2.1-0.8-3.3
					c0-1.3,0.3-2.4,0.9-3.3c0.6-0.9,1.4-1.6,2.3-2.1c1-0.5,2.1-0.7,3.3-0.7c1,0,1.9,0.2,2.8,0.6c0.9,0.4,1.6,0.9,2.1,1.6l-0.2,0.9
					V47.5h2.8v21.9h-2.8v-2.9l0.3,0.7c-0.6,0.7-1.4,1.3-2.3,1.8S119.4,69.7,118.3,69.7z M119.1,67.5c0.7,0,1.4-0.1,2-0.4
					c0.6-0.3,1.1-0.6,1.4-1.1c0.4-0.4,0.7-1,0.8-1.6v-2.2c-0.2-0.6-0.4-1.1-0.9-1.5c-0.4-0.4-0.9-0.8-1.5-1
					c-0.6-0.2-1.2-0.4-1.9-0.4c-0.7,0-1.4,0.2-2.1,0.5c-0.6,0.3-1.2,0.8-1.5,1.4c-0.4,0.6-0.6,1.3-0.6,2.1c0,0.8,0.2,1.5,0.6,2.1
					c0.4,0.6,0.9,1.1,1.5,1.5C117.7,67.3,118.4,67.5,119.1,67.5z"/>
				<path class="st3" d="M129.9,63.5c0-1.2,0.3-2.2,0.9-3.2c0.6-0.9,1.4-1.7,2.5-2.2s2.2-0.8,3.6-0.8c1.3,0,2.5,0.3,3.5,0.8
					c1,0.5,1.8,1.3,2.4,2.2c0.6,0.9,0.9,2,0.9,3.2c0,1.2-0.3,2.2-0.9,3.2c-0.6,0.9-1.4,1.7-2.4,2.3c-1,0.6-2.2,0.8-3.6,0.8
					c-1.3,0-2.5-0.3-3.6-0.8c-1-0.5-1.8-1.2-2.4-2.2S129.9,64.7,129.9,63.5z M132.8,63.5c0,0.8,0.2,1.4,0.5,2.1
					c0.4,0.6,0.8,1.1,1.4,1.5c0.6,0.4,1.3,0.5,2,0.5c0.8,0,1.5-0.2,2.1-0.5c0.6-0.4,1.1-0.8,1.4-1.5c0.4-0.6,0.5-1.3,0.5-2.1
					c0-0.8-0.2-1.4-0.5-2.1c-0.4-0.6-0.8-1.1-1.4-1.5c-0.6-0.4-1.3-0.6-2.1-0.6c-0.8,0-1.4,0.2-2.1,0.6c-0.6,0.4-1.1,0.9-1.4,1.5
					C132.9,62.1,132.8,62.7,132.8,63.5z"/>
				<path class="st3" d="M147.4,47.5h2.8v21.9h-2.8V47.5z"/>
				<path class="st3" d="M154,63.5c0-1.2,0.3-2.2,0.9-3.2c0.6-0.9,1.4-1.7,2.5-2.2s2.2-0.8,3.6-0.8c1.3,0,2.5,0.3,3.5,0.8
					c1,0.5,1.8,1.3,2.4,2.2c0.6,0.9,0.9,2,0.9,3.2c0,1.2-0.3,2.2-0.9,3.2c-0.6,0.9-1.4,1.7-2.4,2.3c-1,0.6-2.2,0.8-3.6,0.8
					c-1.3,0-2.5-0.3-3.6-0.8c-1-0.5-1.8-1.2-2.4-2.2S154,64.7,154,63.5z M156.8,63.5c0,0.8,0.2,1.4,0.5,2.1c0.4,0.6,0.8,1.1,1.4,1.5
					c0.6,0.4,1.3,0.5,2,0.5c0.8,0,1.5-0.2,2.1-0.5c0.6-0.4,1.1-0.8,1.4-1.5c0.4-0.6,0.5-1.3,0.5-2.1c0-0.8-0.2-1.4-0.5-2.1
					c-0.4-0.6-0.8-1.1-1.4-1.5c-0.6-0.4-1.3-0.6-2.1-0.6c-0.8,0-1.4,0.2-2.1,0.6c-0.6,0.4-1.1,0.9-1.4,1.5
					C157,62.1,156.8,62.7,156.8,63.5z"/>
				<path class="st3" d="M191.1,68.3c-0.6,0.4-1.2,0.8-2,1c-0.8,0.2-1.6,0.4-2.3,0.4c-1.3,0-2.5-0.3-3.6-0.8c-1-0.5-1.8-1.2-2.4-2.2
					c-0.6-0.9-0.9-2-0.9-3.3c0-1.2,0.3-2.3,0.9-3.2c0.6-0.9,1.4-1.6,2.4-2.1c1-0.5,2.1-0.8,3.2-0.8c1,0,1.9,0.1,2.7,0.4
					c0.8,0.3,1.5,0.6,2.1,1.1l-1.4,1.7c-0.3-0.2-0.8-0.5-1.3-0.7c-0.5-0.2-1.1-0.3-1.8-0.3c-0.7,0-1.4,0.2-2,0.5
					c-0.6,0.4-1.1,0.8-1.4,1.4s-0.5,1.3-0.5,2c0,0.7,0.2,1.4,0.5,2c0.4,0.6,0.9,1.1,1.5,1.4c0.6,0.4,1.4,0.5,2.2,0.5
					c0.5,0,1-0.1,1.5-0.2c0.5-0.2,0.9-0.4,1.2-0.6L191.1,68.3z"/>
				<path class="st3" d="M193.5,63.5c0-1.2,0.3-2.2,0.9-3.2c0.6-0.9,1.4-1.7,2.5-2.2s2.2-0.8,3.6-0.8c1.3,0,2.5,0.3,3.5,0.8
					c1,0.5,1.8,1.3,2.4,2.2c0.6,0.9,0.9,2,0.9,3.2c0,1.2-0.3,2.2-0.9,3.2c-0.6,0.9-1.4,1.7-2.4,2.3c-1,0.6-2.2,0.8-3.6,0.8
					c-1.3,0-2.5-0.3-3.6-0.8c-1-0.5-1.8-1.2-2.4-2.2S193.5,64.7,193.5,63.5z M196.4,63.5c0,0.8,0.2,1.4,0.5,2.1
					c0.4,0.6,0.8,1.1,1.4,1.5c0.6,0.4,1.3,0.5,2,0.5c0.8,0,1.5-0.2,2.1-0.5c0.6-0.4,1.1-0.8,1.4-1.5c0.4-0.6,0.5-1.3,0.5-2.1
					c0-0.8-0.2-1.4-0.5-2.1c-0.4-0.6-0.8-1.1-1.4-1.5c-0.6-0.4-1.3-0.6-2.1-0.6c-0.8,0-1.4,0.2-2.1,0.6c-0.6,0.4-1.1,0.9-1.4,1.5
					C196.5,62.1,196.4,62.7,196.4,63.5z"/>
				<path class="st3" d="M210.8,53.5c0-0.4,0.2-0.8,0.5-1c0.4-0.3,0.7-0.4,1.2-0.4c0.4,0,0.8,0.1,1.1,0.4c0.3,0.3,0.5,0.6,0.5,1
					c0,0.4-0.2,0.8-0.5,1.1c-0.3,0.3-0.7,0.4-1.1,0.4c-0.4,0-0.8-0.1-1.2-0.4C211,54.2,210.8,53.9,210.8,53.5z M211,57.7h2.8v11.7
					H211V57.7z"/>
				<path class="st3" d="M238.3,68.3c-0.6,0.4-1.2,0.8-2,1c-0.8,0.2-1.6,0.4-2.3,0.4c-1.3,0-2.5-0.3-3.6-0.8c-1-0.5-1.8-1.2-2.4-2.2
					c-0.6-0.9-0.9-2-0.9-3.3c0-1.2,0.3-2.3,0.9-3.2c0.6-0.9,1.4-1.6,2.4-2.1c1-0.5,2.1-0.8,3.2-0.8c1,0,1.9,0.1,2.7,0.4
					c0.8,0.3,1.5,0.6,2.1,1.1l-1.4,1.7c-0.3-0.2-0.8-0.5-1.3-0.7c-0.5-0.2-1.1-0.3-1.8-0.3c-0.7,0-1.4,0.2-2,0.5
					c-0.6,0.4-1.1,0.8-1.4,1.4s-0.5,1.3-0.5,2c0,0.7,0.2,1.4,0.5,2c0.4,0.6,0.9,1.1,1.5,1.4c0.6,0.4,1.4,0.5,2.2,0.5
					c0.5,0,1-0.1,1.5-0.2c0.5-0.2,0.9-0.4,1.2-0.6L238.3,68.3z"/>
				<path class="st3" d="M240.8,63.5c0-1.2,0.3-2.2,0.9-3.2c0.6-0.9,1.4-1.7,2.5-2.2s2.2-0.8,3.6-0.8c1.3,0,2.5,0.3,3.5,0.8
					c1,0.5,1.8,1.3,2.4,2.2c0.6,0.9,0.9,2,0.9,3.2c0,1.2-0.3,2.2-0.9,3.2c-0.6,0.9-1.4,1.7-2.4,2.3c-1,0.6-2.2,0.8-3.6,0.8
					c-1.3,0-2.5-0.3-3.6-0.8c-1-0.5-1.8-1.2-2.4-2.2S240.8,64.7,240.8,63.5z M243.6,63.5c0,0.8,0.2,1.4,0.5,2.1
					c0.4,0.6,0.8,1.1,1.4,1.5c0.6,0.4,1.3,0.5,2,0.5c0.8,0,1.5-0.2,2.1-0.5c0.6-0.4,1.1-0.8,1.4-1.5c0.4-0.6,0.5-1.3,0.5-2.1
					c0-0.8-0.2-1.4-0.5-2.1c-0.4-0.6-0.8-1.1-1.4-1.5c-0.6-0.4-1.3-0.6-2.1-0.6c-0.8,0-1.4,0.2-2.1,0.6c-0.6,0.4-1.1,0.9-1.4,1.5
					C243.8,62.1,243.6,62.7,243.6,63.5z"/>
				<path class="st3" d="M260.8,57.7l0.2,2.6l-0.2-0.2c0.5-0.9,1.1-1.6,2-2.1c0.9-0.5,1.8-0.8,3-0.8c0.7,0,1.3,0.1,1.8,0.3
					c0.5,0.2,1,0.5,1.3,0.9c0.4,0.4,0.6,0.9,0.7,1.4l-0.1,0.1c0.5-0.9,1.1-1.5,2-2s1.7-0.7,2.7-0.7c1.2,0,2.2,0.3,2.9,1
					c0.7,0.7,1.1,1.5,1.1,2.5v8.7h-2.8v-7.7c0-0.6-0.2-1.1-0.5-1.5c-0.3-0.4-0.8-0.6-1.5-0.6c-0.7,0-1.4,0.2-1.9,0.6
					c-0.6,0.4-1,0.9-1.3,1.6c-0.3,0.7-0.5,1.4-0.5,2.1v5.6h-2.8v-7.7c0-0.6-0.2-1.1-0.5-1.5c-0.3-0.4-0.8-0.6-1.5-0.6
					c-0.7,0-1.4,0.2-1.9,0.6c-0.6,0.4-1,0.9-1.3,1.6s-0.5,1.4-0.5,2.2v5.5h-2.8V57.7H260.8z"/>
				<path class="st3" d="M290.4,69.7c-0.9,0-1.8-0.2-2.7-0.6s-1.5-1-2-1.7l0.2-0.8v8.5H283V57.5h2.4l0.4,3l-0.3-0.9
					c0.6-0.7,1.4-1.3,2.3-1.8c0.9-0.5,2-0.7,3.1-0.7c1.2,0,2.2,0.3,3.1,0.8c0.9,0.5,1.7,1.3,2.2,2.2c0.5,1,0.8,2.1,0.8,3.3
					c0,1.2-0.3,2.3-0.9,3.3c-0.6,0.9-1.4,1.7-2.4,2.2C292.8,69.5,291.7,69.7,290.4,69.7z M289.9,67.6c0.8,0,1.5-0.2,2.2-0.5
					c0.7-0.3,1.2-0.8,1.6-1.4c0.4-0.6,0.6-1.3,0.6-2.1c0-0.8-0.2-1.5-0.6-2.1c-0.4-0.6-0.9-1.1-1.5-1.4c-0.6-0.3-1.3-0.5-2.1-0.5
					c-0.7,0-1.4,0.1-2,0.4c-0.6,0.3-1.1,0.6-1.4,1.1s-0.7,1-0.8,1.6v2c0.1,0.6,0.3,1.1,0.7,1.6c0.4,0.5,0.9,0.8,1.4,1.1
					C288.6,67.5,289.2,67.6,289.9,67.6z"/>
				<path class="st3" d="M300.7,53.5c0-0.4,0.2-0.8,0.5-1c0.3-0.3,0.7-0.4,1.2-0.4c0.4,0,0.8,0.1,1.1,0.4c0.3,0.3,0.5,0.6,0.5,1
					c0,0.4-0.2,0.8-0.5,1.1c-0.3,0.3-0.7,0.4-1.1,0.4c-0.4,0-0.8-0.1-1.2-0.4C300.8,54.2,300.7,53.9,300.7,53.5z M300.9,57.7h2.8
					v11.7h-2.8V57.7z"/>
				<path class="st3" d="M309.7,52.5h2.9v5.2h3.4v2.1h-3.4v9.6h-2.9v-9.6h-2.3v-2.1h2.3V52.5z"/>
				<path class="st3" d="M319.2,53.5c0-0.4,0.2-0.8,0.5-1c0.3-0.3,0.7-0.4,1.2-0.4c0.4,0,0.8,0.1,1.1,0.4c0.3,0.3,0.5,0.6,0.5,1
					c0,0.4-0.2,0.8-0.5,1.1c-0.3,0.3-0.7,0.4-1.1,0.4c-0.4,0-0.8-0.1-1.2-0.4C319.3,54.2,319.2,53.9,319.2,53.5z M319.3,57.7h2.8
					v11.7h-2.8V57.7z"/>
				<path class="st3" d="M326.1,66.9c0.3-0.3,0.7-0.5,1.1-0.5c0.4,0,0.7,0.2,1,0.5c0.3,0.3,0.5,0.7,0.5,1.1c0,0.5-0.2,0.8-0.5,1.1
					c-0.3,0.3-0.7,0.4-1,0.4c-0.4,0-0.8-0.1-1.1-0.4c-0.3-0.3-0.5-0.6-0.5-1.1C325.6,67.5,325.8,67.2,326.1,66.9z"/>
				<path class="st3" d="M342.3,69.4V48.3h0l11.4,15.3l-1.2-0.3l11.4-15h0v21.1H361V54.5l0.2,1.4L353,66.9h-0.1l-8.3-10.9l0.5-1.3
					v14.8H342.3z"/>
				<path class="st3" d="M374.6,69.7c-1.2,0-2.2-0.2-3.2-0.7c-1-0.5-1.7-1.2-2.3-2.1c-0.6-0.9-0.8-2-0.8-3.4c0-1.3,0.3-2.5,0.9-3.4
					c0.6-0.9,1.4-1.7,2.3-2.2c1-0.5,2.1-0.8,3.2-0.8s2.1,0.3,3,0.8c0.8,0.5,1.4,1.1,1.8,1.8l-0.2,0.4l0.3-2.5h2.6v11.7h-2.8v-3.1
					l0.3,0.7c-0.1,0.2-0.3,0.4-0.6,0.7c-0.3,0.3-0.6,0.6-1.1,0.9c-0.4,0.3-0.9,0.6-1.5,0.8S375.3,69.7,374.6,69.7z M375.4,67.5
					c0.7,0,1.3-0.1,1.9-0.4c0.6-0.2,1-0.6,1.4-1s0.6-1,0.8-1.6v-2.3c-0.2-0.6-0.4-1.1-0.8-1.5s-0.9-0.8-1.4-1
					c-0.6-0.2-1.2-0.4-1.8-0.4c-0.8,0-1.5,0.2-2.1,0.5c-0.6,0.3-1.1,0.8-1.5,1.4c-0.4,0.6-0.6,1.3-0.6,2.1c0,0.8,0.2,1.4,0.6,2.1
					c0.4,0.6,0.9,1.1,1.5,1.5C373.9,67.4,374.6,67.5,375.4,67.5z"/>
				<path class="st3" d="M388.2,52.5h2.9v5.2h3.4v2.1h-3.4v9.6h-2.9v-9.6H386v-2.1h2.3V52.5z"/>
				<path class="st3" d="M399.1,52.5h2.9v5.2h3.4v2.1h-3.4v9.6h-2.9v-9.6h-2.3v-2.1h2.3V52.5z"/>
				<path class="st3" d="M408.5,53.5c0-0.4,0.2-0.8,0.5-1c0.3-0.3,0.7-0.4,1.2-0.4c0.4,0,0.8,0.1,1.1,0.4c0.3,0.3,0.5,0.6,0.5,1
					c0,0.4-0.2,0.8-0.5,1.1c-0.3,0.3-0.7,0.4-1.1,0.4c-0.4,0-0.8-0.1-1.2-0.4C408.7,54.2,408.5,53.9,408.5,53.5z M408.7,57.7h2.8
					v11.7h-2.8V57.7z"/>
				<path class="st3" d="M421.5,69.7c-1.2,0-2.2-0.2-3.2-0.7c-1-0.5-1.7-1.2-2.3-2.1c-0.6-0.9-0.8-2-0.8-3.4c0-1.3,0.3-2.5,0.9-3.4
					c0.6-0.9,1.4-1.7,2.3-2.2c1-0.5,2.1-0.8,3.2-0.8s2.1,0.3,3,0.8c0.8,0.5,1.4,1.1,1.8,1.8l-0.2,0.4l0.3-2.5h2.6v11.7h-2.8v-3.1
					l0.3,0.7c-0.1,0.2-0.3,0.4-0.6,0.7c-0.3,0.3-0.6,0.6-1.1,0.9c-0.4,0.3-0.9,0.6-1.5,0.8S422.3,69.7,421.5,69.7z M422.3,67.5
					c0.7,0,1.3-0.1,1.9-0.4c0.6-0.2,1-0.6,1.4-1s0.6-1,0.8-1.6v-2.3c-0.2-0.6-0.4-1.1-0.8-1.5s-0.9-0.8-1.4-1
					c-0.6-0.2-1.2-0.4-1.8-0.4c-0.8,0-1.5,0.2-2.1,0.5c-0.6,0.3-1.1,0.8-1.5,1.4c-0.4,0.6-0.6,1.3-0.6,2.1c0,0.8,0.2,1.4,0.6,2.1
					c0.4,0.6,0.9,1.1,1.5,1.5C420.9,67.4,421.5,67.5,422.3,67.5z"/>
				<path class="st3" d="M448.6,69.8l-6.9-12.1h3.3l4.7,9.3l-1.7-0.1l4.3-9.2h3.1l-6.6,12.1H448.6z"/>
				<path class="st3" d="M458.1,53.5c0-0.4,0.2-0.8,0.5-1c0.3-0.3,0.7-0.4,1.2-0.4c0.4,0,0.8,0.1,1.1,0.4c0.3,0.3,0.5,0.6,0.5,1
					c0,0.4-0.2,0.8-0.5,1.1c-0.3,0.3-0.7,0.4-1.1,0.4c-0.4,0-0.8-0.1-1.2-0.4C458.3,54.2,458.1,53.9,458.1,53.5z M458.3,57.7h2.8
					v11.7h-2.8V57.7z"/>
				<path class="st3" d="M471.1,69.8l-6.9-12.1h3.3l4.7,9.3l-1.7-0.1l4.3-9.2h3.1l-6.6,12.1H471.1z"/>
				<path class="st3" d="M486.6,69.7c-1.4,0-2.6-0.3-3.7-0.8c-1-0.5-1.8-1.3-2.4-2.2c-0.6-0.9-0.8-2-0.8-3.2c0-1.2,0.3-2.2,0.9-3.1
					c0.6-0.9,1.5-1.7,2.5-2.3c1-0.6,2.2-0.9,3.5-0.9c1.6,0,3,0.5,4.1,1.4c1.1,0.9,1.8,2.2,2.2,3.7l-10.3,3.4l-0.7-1.6l8.4-2.9
					l-0.6,0.4c-0.2-0.6-0.6-1.2-1.2-1.6s-1.3-0.7-2.2-0.7c-0.8,0-1.4,0.2-2,0.5c-0.6,0.3-1.1,0.8-1.4,1.4c-0.3,0.6-0.5,1.3-0.5,2.1
					s0.2,1.5,0.5,2.1c0.4,0.6,0.8,1.1,1.5,1.5s1.3,0.5,2.1,0.5c0.5,0,1.1-0.1,1.6-0.3c0.5-0.2,1-0.4,1.5-0.7l1.3,2
					c-0.6,0.4-1.3,0.7-2.1,1C488.1,69.6,487.4,69.7,486.6,69.7z"/>
				<path class="st3" d="M505.9,47.5h2.8v21.9h-2.8V47.5z"/>
				<path class="st3" d="M518.8,69.7c-1.2,0-2.2-0.2-3.2-0.7c-1-0.5-1.7-1.2-2.3-2.1c-0.6-0.9-0.8-2-0.8-3.4c0-1.3,0.3-2.5,0.9-3.4
					c0.6-0.9,1.4-1.7,2.3-2.2c1-0.5,2.1-0.8,3.2-0.8s2.1,0.3,3,0.8c0.8,0.5,1.4,1.1,1.8,1.8l-0.2,0.4l0.3-2.5h2.6v11.7h-2.8v-3.1
					l0.3,0.7c-0.1,0.2-0.3,0.4-0.6,0.7c-0.3,0.3-0.6,0.6-1.1,0.9c-0.4,0.3-0.9,0.6-1.5,0.8S519.6,69.7,518.8,69.7z M519.6,67.5
					c0.7,0,1.3-0.1,1.9-0.4c0.6-0.2,1-0.6,1.4-1s0.6-1,0.8-1.6v-2.3c-0.2-0.6-0.4-1.1-0.8-1.5s-0.9-0.8-1.4-1
					c-0.6-0.2-1.2-0.4-1.8-0.4c-0.8,0-1.5,0.2-2.1,0.5c-0.6,0.3-1.1,0.8-1.5,1.4c-0.4,0.6-0.6,1.3-0.6,2.1c0,0.8,0.2,1.4,0.6,2.1
					c0.4,0.6,0.9,1.1,1.5,1.5C518.1,67.4,518.8,67.5,519.6,67.5z"/>
				<path class="st3" d="M544.3,69.7c-0.9,0-1.7-0.1-2.6-0.4c-0.8-0.3-1.5-0.7-2.1-1.3l1.2-1.5c0.5,0.5,1.1,0.8,1.6,1.1
					s1.1,0.4,1.6,0.4c0.4,0,0.8,0,1.1-0.1c0.3-0.1,0.6-0.3,0.8-0.5c0.2-0.2,0.3-0.5,0.3-0.9c0-0.4-0.1-0.8-0.4-1
					c-0.3-0.2-0.7-0.4-1.1-0.6s-0.9-0.3-1.4-0.4c-1-0.3-1.8-0.8-2.3-1.3s-0.8-1.3-0.8-2.1c0-0.6,0.2-1.2,0.5-1.7
					c0.3-0.5,0.8-1,1.5-1.3c0.7-0.3,1.5-0.5,2.4-0.5c0.9,0,1.6,0.1,2.3,0.3c0.7,0.2,1.3,0.5,1.9,1l-1.1,1.6
					c-0.4-0.4-0.8-0.6-1.3-0.8s-0.9-0.3-1.3-0.3c-0.4,0-0.7,0.1-1,0.2c-0.3,0.1-0.6,0.3-0.8,0.5c-0.2,0.2-0.3,0.4-0.3,0.8
					c0,0.4,0.1,0.7,0.4,0.9c0.3,0.2,0.7,0.4,1.1,0.6c0.4,0.2,0.9,0.3,1.4,0.5c0.6,0.2,1.1,0.4,1.6,0.7c0.5,0.3,0.9,0.6,1.2,1
					c0.3,0.4,0.4,0.9,0.4,1.6c0,0.7-0.2,1.3-0.5,1.9c-0.4,0.6-0.9,1.1-1.6,1.4C546.3,69.5,545.4,69.7,544.3,69.7z"/>
				<path class="st3" d="M557,69.9c-1.2,0-2.1-0.3-2.8-1c-0.7-0.7-1.1-1.5-1.2-2.5v-8.7h2.8v7.7c0,0.6,0.2,1.1,0.6,1.5
					c0.4,0.4,0.9,0.6,1.7,0.6c0.7,0,1.3-0.2,1.8-0.6c0.6-0.4,1-0.9,1.3-1.6c0.3-0.7,0.5-1.4,0.5-2.3v-5.5h2.8v11.7H562l-0.2-2.9
					l0.2,0.5c-0.3,0.5-0.6,1-1.1,1.4s-1.1,0.8-1.7,1C558.5,69.8,557.7,69.9,557,69.9z"/>
				<path class="st3" d="M574.6,69.7c-1.2,0-2.2-0.2-3.2-0.7c-1-0.5-1.7-1.2-2.3-2.1c-0.6-0.9-0.8-2-0.8-3.4c0-1.3,0.3-2.5,0.9-3.4
					c0.6-0.9,1.4-1.7,2.3-2.2c1-0.5,2.1-0.8,3.2-0.8s2.1,0.3,3,0.8c0.8,0.5,1.4,1.1,1.8,1.8l-0.2,0.4l0.3-2.5h2.6v11.7h-2.8v-3.1
					l0.3,0.7c-0.1,0.2-0.3,0.4-0.6,0.7c-0.3,0.3-0.6,0.6-1.1,0.9c-0.4,0.3-0.9,0.6-1.5,0.8S575.3,69.7,574.6,69.7z M575.3,67.5
					c0.7,0,1.3-0.1,1.9-0.4c0.6-0.2,1-0.6,1.4-1s0.6-1,0.8-1.6v-2.3c-0.2-0.6-0.4-1.1-0.8-1.5s-0.9-0.8-1.4-1
					c-0.6-0.2-1.2-0.4-1.8-0.4c-0.8,0-1.5,0.2-2.1,0.5c-0.6,0.3-1.1,0.8-1.5,1.4c-0.4,0.6-0.6,1.3-0.6,2.1c0,0.8,0.2,1.4,0.6,2.1
					c0.4,0.6,0.9,1.1,1.5,1.5C573.9,67.4,574.6,67.5,575.3,67.5z"/>
			</g>
		</g>
		<g>
			<g class="st2">
				<path class="st3" d="M32.2,103.8c-1.4,0-2.6-0.3-3.7-0.8c-1-0.5-1.8-1.3-2.4-2.2c-0.6-0.9-0.8-2-0.8-3.2c0-1.2,0.3-2.2,0.9-3.1
					c0.6-0.9,1.5-1.7,2.5-2.3c1-0.6,2.2-0.9,3.5-0.9c1.6,0,3,0.5,4.1,1.4c1.1,0.9,1.8,2.2,2.2,3.7l-10.3,3.4l-0.7-1.6l8.4-2.9
					l-0.6,0.4c-0.2-0.6-0.6-1.2-1.2-1.6c-0.6-0.5-1.3-0.7-2.2-0.7c-0.8,0-1.4,0.2-2,0.5c-0.6,0.3-1.1,0.8-1.4,1.4
					c-0.3,0.6-0.5,1.3-0.5,2.1s0.2,1.5,0.5,2.1c0.4,0.6,0.8,1.1,1.5,1.5c0.6,0.3,1.3,0.5,2.1,0.5c0.5,0,1.1-0.1,1.6-0.3
					s1-0.4,1.5-0.7l1.3,2c-0.6,0.4-1.3,0.7-2.1,1C33.7,103.6,32.9,103.8,32.2,103.8z"/>
				<path class="st3" d="M45.5,103.7c-0.9,0-1.7-0.1-2.6-0.4c-0.8-0.3-1.5-0.7-2.1-1.3l1.2-1.5c0.5,0.5,1.1,0.8,1.6,1.1
					s1.1,0.4,1.6,0.4c0.4,0,0.8,0,1.1-0.1c0.3-0.1,0.6-0.3,0.8-0.5s0.3-0.5,0.3-0.9c0-0.4-0.1-0.8-0.4-1c-0.3-0.2-0.7-0.4-1.1-0.6
					c-0.4-0.2-0.9-0.3-1.4-0.4c-1-0.3-1.8-0.8-2.3-1.3s-0.8-1.3-0.8-2.1c0-0.6,0.2-1.2,0.5-1.7s0.8-1,1.5-1.3
					c0.7-0.3,1.5-0.5,2.4-0.5c0.9,0,1.6,0.1,2.3,0.3c0.7,0.2,1.3,0.5,1.9,1L49,94.3c-0.4-0.4-0.8-0.6-1.3-0.8
					c-0.5-0.2-0.9-0.3-1.3-0.3c-0.4,0-0.7,0.1-1,0.2c-0.3,0.1-0.6,0.3-0.8,0.5c-0.2,0.2-0.3,0.4-0.3,0.8c0,0.4,0.1,0.7,0.4,0.9
					c0.3,0.2,0.7,0.4,1.1,0.6c0.4,0.2,0.9,0.3,1.4,0.5c0.6,0.2,1.1,0.4,1.6,0.7c0.5,0.3,0.9,0.6,1.2,1c0.3,0.4,0.4,0.9,0.4,1.6
					c0,0.7-0.2,1.3-0.5,1.9c-0.4,0.6-0.9,1.1-1.6,1.4C47.6,103.5,46.6,103.7,45.5,103.7z"/>
				<path class="st3" d="M61.6,103.8c-0.9,0-1.8-0.2-2.7-0.6c-0.9-0.4-1.5-1-2-1.7l0.2-0.8v8.5h-2.8V91.6h2.4l0.4,3l-0.3-0.9
					c0.6-0.7,1.4-1.3,2.3-1.8c0.9-0.5,2-0.7,3.1-0.7c1.2,0,2.2,0.3,3.1,0.8c0.9,0.5,1.7,1.3,2.2,2.2c0.5,1,0.8,2.1,0.8,3.3
					c0,1.2-0.3,2.3-0.9,3.3c-0.6,0.9-1.4,1.7-2.4,2.2C64.1,103.5,62.9,103.8,61.6,103.8z M61.1,101.7c0.8,0,1.5-0.2,2.2-0.5
					c0.7-0.3,1.2-0.8,1.6-1.4c0.4-0.6,0.6-1.3,0.6-2.1c0-0.8-0.2-1.5-0.6-2.1c-0.4-0.6-0.9-1.1-1.5-1.4c-0.6-0.3-1.3-0.5-2.1-0.5
					c-0.7,0-1.4,0.1-2,0.4c-0.6,0.3-1.1,0.6-1.4,1.1s-0.7,1-0.8,1.6v2c0.1,0.6,0.3,1.1,0.7,1.6c0.4,0.5,0.9,0.8,1.4,1.1
					C59.8,101.5,60.4,101.7,61.1,101.7z"/>
				<path class="st3" d="M77.9,103.8c-1.4,0-2.6-0.3-3.7-0.8c-1-0.5-1.8-1.3-2.4-2.2c-0.6-0.9-0.8-2-0.8-3.2c0-1.2,0.3-2.2,0.9-3.1
					c0.6-0.9,1.5-1.7,2.5-2.3c1-0.6,2.2-0.9,3.5-0.9c1.6,0,3,0.5,4.1,1.4c1.1,0.9,1.8,2.2,2.2,3.7L74,99.8l-0.7-1.6l8.4-2.9
					l-0.6,0.4c-0.2-0.6-0.6-1.2-1.2-1.6c-0.6-0.5-1.3-0.7-2.2-0.7c-0.8,0-1.4,0.2-2,0.5c-0.6,0.3-1.1,0.8-1.4,1.4
					c-0.3,0.6-0.5,1.3-0.5,2.1s0.2,1.5,0.5,2.1c0.4,0.6,0.8,1.1,1.5,1.5c0.6,0.3,1.3,0.5,2.1,0.5c0.5,0,1.1-0.1,1.6-0.3
					s1-0.4,1.5-0.7l1.3,2c-0.6,0.4-1.3,0.7-2.1,1C79.4,103.6,78.6,103.8,77.9,103.8z"/>
				<path class="st3" d="M90.2,91.7l0.3,3.4l-0.1-0.5c0.3-0.7,0.8-1.3,1.4-1.8s1.2-0.9,1.9-1.2c0.7-0.3,1.3-0.4,1.7-0.4l-0.1,2.7
					c-1-0.1-1.8,0.1-2.5,0.5c-0.7,0.4-1.3,0.9-1.7,1.6c-0.4,0.7-0.6,1.4-0.6,2.1v5.4h-2.8V91.7H90.2z"/>
				<path class="st3" d="M98.8,87.5c0-0.4,0.2-0.8,0.5-1c0.4-0.3,0.7-0.4,1.2-0.4c0.4,0,0.8,0.1,1.1,0.4c0.3,0.3,0.5,0.6,0.5,1
					c0,0.4-0.2,0.8-0.5,1.1c-0.3,0.3-0.7,0.4-1.1,0.4c-0.4,0-0.8-0.1-1.2-0.4C99,88.3,98.8,87.9,98.8,87.5z M99,91.7h2.8v11.7H99
					V91.7z"/>
				<path class="st3" d="M112.5,103.8c-1.4,0-2.6-0.3-3.7-0.8c-1-0.5-1.8-1.3-2.4-2.2c-0.6-0.9-0.8-2-0.8-3.2c0-1.2,0.3-2.2,0.9-3.1
					c0.6-0.9,1.5-1.7,2.5-2.3c1-0.6,2.2-0.9,3.5-0.9c1.6,0,3,0.5,4.1,1.4c1.1,0.9,1.8,2.2,2.2,3.7l-10.3,3.4l-0.7-1.6l8.4-2.9
					l-0.6,0.4c-0.2-0.6-0.6-1.2-1.2-1.6c-0.6-0.5-1.3-0.7-2.2-0.7c-0.8,0-1.4,0.2-2,0.5c-0.6,0.3-1.1,0.8-1.4,1.4
					c-0.3,0.6-0.5,1.3-0.5,2.1s0.2,1.5,0.5,2.1c0.4,0.6,0.8,1.1,1.5,1.5c0.6,0.3,1.3,0.5,2.1,0.5c0.5,0,1.1-0.1,1.6-0.3
					s1-0.4,1.5-0.7l1.3,2c-0.6,0.4-1.3,0.7-2.1,1C114,103.6,113.2,103.8,112.5,103.8z"/>
				<path class="st3" d="M124.8,91.7l0.2,2.9l-0.1-0.5c0.4-0.9,1-1.6,1.9-2.1s2-0.8,3.2-0.8c1.2,0,2.1,0.3,2.9,1
					c0.8,0.7,1.1,1.5,1.2,2.5v8.7h-2.8v-7.8c0-0.6-0.2-1.1-0.6-1.5c-0.4-0.4-0.9-0.6-1.7-0.6c-0.7,0-1.3,0.2-1.9,0.6
					c-0.6,0.4-1.1,0.9-1.4,1.6c-0.3,0.7-0.5,1.4-0.5,2.3v5.5h-2.8V91.7H124.8z"/>
				<path class="st3" d="M140.1,93.9c-0.6,0-1.1-0.2-1.6-0.5c-0.4-0.4-0.6-0.9-0.6-1.6v-1.1h2.1V91c0,0.3,0.1,0.5,0.2,0.6
					c0.1,0.1,0.4,0.1,0.8,0.1h8l-7.5,10.1l-0.6-0.5h7.9v2.2h-11.5l7.6-10.3l0.5,0.7H140.1z"/>
				<path class="st3" d="M158,103.8c-1.2,0-2.2-0.2-3.2-0.7c-1-0.5-1.7-1.2-2.3-2.1c-0.6-0.9-0.8-2-0.8-3.4c0-1.3,0.3-2.5,0.9-3.4
					c0.6-0.9,1.4-1.7,2.3-2.2c1-0.5,2.1-0.8,3.2-0.8s2.1,0.3,3,0.8c0.8,0.5,1.4,1.1,1.8,1.8l-0.2,0.4l0.3-2.5h2.6v11.7h-2.8v-3.1
					l0.3,0.7c-0.1,0.2-0.3,0.4-0.6,0.7c-0.3,0.3-0.6,0.6-1.1,0.9c-0.4,0.3-0.9,0.6-1.5,0.8C159.4,103.7,158.8,103.8,158,103.8z
					 M158.8,101.6c0.7,0,1.3-0.1,1.9-0.4c0.6-0.2,1-0.6,1.4-1c0.4-0.5,0.6-1,0.8-1.6v-2.3c-0.2-0.6-0.4-1.1-0.8-1.5
					c-0.4-0.4-0.9-0.8-1.4-1c-0.6-0.2-1.2-0.4-1.8-0.4c-0.8,0-1.5,0.2-2.1,0.5c-0.6,0.3-1.1,0.8-1.5,1.4s-0.6,1.3-0.6,2.1
					c0,0.8,0.2,1.4,0.6,2.1c0.4,0.6,0.9,1.1,1.5,1.5C157.3,101.4,158,101.6,158.8,101.6z"/>
				<path class="st3" d="M183.5,103.7c-0.9,0-1.7-0.1-2.6-0.4c-0.8-0.3-1.5-0.7-2.1-1.3l1.2-1.5c0.5,0.5,1.1,0.8,1.6,1.1
					s1.1,0.4,1.6,0.4c0.4,0,0.8,0,1.1-0.1c0.3-0.1,0.6-0.3,0.8-0.5s0.3-0.5,0.3-0.9c0-0.4-0.1-0.8-0.4-1c-0.3-0.2-0.7-0.4-1.1-0.6
					c-0.4-0.2-0.9-0.3-1.4-0.4c-1-0.3-1.8-0.8-2.3-1.3s-0.8-1.3-0.8-2.1c0-0.6,0.2-1.2,0.5-1.7s0.8-1,1.5-1.3
					c0.7-0.3,1.5-0.5,2.4-0.5c0.9,0,1.6,0.1,2.3,0.3c0.7,0.2,1.3,0.5,1.9,1l-1.1,1.6c-0.4-0.4-0.8-0.6-1.3-0.8
					c-0.5-0.2-0.9-0.3-1.3-0.3c-0.4,0-0.7,0.1-1,0.2c-0.3,0.1-0.6,0.3-0.8,0.5c-0.2,0.2-0.3,0.4-0.3,0.8c0,0.4,0.1,0.7,0.4,0.9
					c0.3,0.2,0.7,0.4,1.1,0.6c0.4,0.2,0.9,0.3,1.4,0.5c0.6,0.2,1.1,0.4,1.6,0.7c0.5,0.3,0.9,0.6,1.2,1c0.3,0.4,0.4,0.9,0.4,1.6
					c0,0.7-0.2,1.3-0.5,1.9c-0.4,0.6-0.9,1.1-1.6,1.4C185.5,103.5,184.6,103.7,183.5,103.7z"/>
				<path class="st3" d="M202.3,102.4c-0.6,0.4-1.2,0.8-2,1c-0.8,0.2-1.6,0.4-2.3,0.4c-1.3,0-2.5-0.3-3.6-0.8
					c-1-0.5-1.8-1.2-2.4-2.2c-0.6-0.9-0.9-2-0.9-3.3c0-1.2,0.3-2.3,0.9-3.2c0.6-0.9,1.4-1.6,2.4-2.1c1-0.5,2.1-0.8,3.2-0.8
					c1,0,1.9,0.1,2.7,0.4c0.8,0.3,1.5,0.6,2.1,1.1l-1.4,1.7c-0.3-0.2-0.8-0.5-1.3-0.7c-0.5-0.2-1.1-0.3-1.8-0.3
					c-0.7,0-1.4,0.2-2,0.5c-0.6,0.4-1.1,0.8-1.4,1.4s-0.5,1.3-0.5,2c0,0.7,0.2,1.4,0.5,2c0.4,0.6,0.9,1.1,1.5,1.4s1.4,0.5,2.2,0.5
					c0.5,0,1-0.1,1.5-0.2c0.5-0.2,0.9-0.4,1.2-0.6L202.3,102.4z"/>
				<path class="st3" d="M204.8,97.5c0-1.2,0.3-2.2,0.9-3.2c0.6-0.9,1.4-1.7,2.5-2.2s2.2-0.8,3.6-0.8c1.3,0,2.5,0.3,3.5,0.8
					c1,0.5,1.8,1.3,2.4,2.2c0.6,0.9,0.9,2,0.9,3.2c0,1.2-0.3,2.2-0.9,3.2c-0.6,0.9-1.4,1.7-2.4,2.3c-1,0.6-2.2,0.8-3.6,0.8
					c-1.3,0-2.5-0.3-3.6-0.8c-1-0.5-1.8-1.2-2.4-2.2S204.8,98.8,204.8,97.5z M207.6,97.5c0,0.8,0.2,1.4,0.5,2.1
					c0.4,0.6,0.8,1.1,1.4,1.5s1.3,0.5,2,0.5c0.8,0,1.5-0.2,2.1-0.5s1.1-0.8,1.4-1.5c0.4-0.6,0.5-1.3,0.5-2.1c0-0.8-0.2-1.4-0.5-2.1
					c-0.4-0.6-0.8-1.1-1.4-1.5c-0.6-0.4-1.3-0.6-2.1-0.6c-0.8,0-1.4,0.2-2.1,0.6c-0.6,0.4-1.1,0.9-1.4,1.5
					C207.8,96.1,207.6,96.8,207.6,97.5z"/>
				<path class="st3" d="M222.3,81.5h2.8v21.9h-2.8V81.5z"/>
				<path class="st3" d="M235.1,103.8c-1.2,0-2.2-0.2-3.2-0.7c-1-0.5-1.7-1.2-2.3-2.1c-0.6-0.9-0.8-2-0.8-3.4c0-1.3,0.3-2.5,0.9-3.4
					c0.6-0.9,1.4-1.7,2.3-2.2c1-0.5,2.1-0.8,3.2-0.8s2.1,0.3,3,0.8c0.8,0.5,1.4,1.1,1.8,1.8l-0.2,0.4l0.3-2.5h2.6v11.7h-2.8v-3.1
					l0.3,0.7c-0.1,0.2-0.3,0.4-0.6,0.7c-0.3,0.3-0.6,0.6-1.1,0.9c-0.4,0.3-0.9,0.6-1.5,0.8C236.5,103.7,235.9,103.8,235.1,103.8z
					 M235.9,101.6c0.7,0,1.3-0.1,1.9-0.4c0.6-0.2,1-0.6,1.4-1c0.4-0.5,0.6-1,0.8-1.6v-2.3c-0.2-0.6-0.4-1.1-0.8-1.5
					c-0.4-0.4-0.9-0.8-1.4-1c-0.6-0.2-1.2-0.4-1.8-0.4c-0.8,0-1.5,0.2-2.1,0.5c-0.6,0.3-1.1,0.8-1.5,1.4s-0.6,1.3-0.6,2.1
					c0,0.8,0.2,1.4,0.6,2.1c0.4,0.6,0.9,1.1,1.5,1.5C234.5,101.4,235.1,101.6,235.9,101.6z"/>
				<path class="st3" d="M251.1,103.7c-0.9,0-1.7-0.1-2.6-0.4c-0.8-0.3-1.5-0.7-2.1-1.3l1.2-1.5c0.5,0.5,1.1,0.8,1.6,1.1
					s1.1,0.4,1.6,0.4c0.4,0,0.8,0,1.1-0.1c0.3-0.1,0.6-0.3,0.8-0.5s0.3-0.5,0.3-0.9c0-0.4-0.1-0.8-0.4-1c-0.3-0.2-0.7-0.4-1.1-0.6
					c-0.4-0.2-0.9-0.3-1.4-0.4c-1-0.3-1.8-0.8-2.3-1.3s-0.8-1.3-0.8-2.1c0-0.6,0.2-1.2,0.5-1.7s0.8-1,1.5-1.3
					c0.7-0.3,1.5-0.5,2.4-0.5c0.9,0,1.6,0.1,2.3,0.3c0.7,0.2,1.3,0.5,1.9,1l-1.1,1.6c-0.4-0.4-0.8-0.6-1.3-0.8
					c-0.5-0.2-0.9-0.3-1.3-0.3c-0.4,0-0.7,0.1-1,0.2c-0.3,0.1-0.6,0.3-0.8,0.5c-0.2,0.2-0.3,0.4-0.3,0.8c0,0.4,0.1,0.7,0.4,0.9
					c0.3,0.2,0.7,0.4,1.1,0.6c0.4,0.2,0.9,0.3,1.4,0.5c0.6,0.2,1.1,0.4,1.6,0.7c0.5,0.3,0.9,0.6,1.2,1c0.3,0.4,0.4,0.9,0.4,1.6
					c0,0.7-0.2,1.3-0.5,1.9c-0.4,0.6-0.9,1.1-1.6,1.4C253.1,103.5,252.2,103.7,251.1,103.7z"/>
				<path class="st3" d="M261,86.6h2.9v5.2h3.4v2.1h-3.4v9.6H261v-9.6h-2.3v-2.1h2.3V86.6z"/>
				<path class="st3" d="M270.4,87.5c0-0.4,0.2-0.8,0.5-1c0.4-0.3,0.7-0.4,1.2-0.4c0.4,0,0.8,0.1,1.1,0.4c0.3,0.3,0.5,0.6,0.5,1
					c0,0.4-0.2,0.8-0.5,1.1c-0.3,0.3-0.7,0.4-1.1,0.4c-0.4,0-0.8-0.1-1.2-0.4C270.6,88.3,270.4,87.9,270.4,87.5z M270.6,91.7h2.8
					v11.7h-2.8V91.7z"/>
				<path class="st3" d="M288.4,102.4c-0.6,0.4-1.2,0.8-2,1c-0.8,0.2-1.6,0.4-2.3,0.4c-1.3,0-2.5-0.3-3.6-0.8
					c-1-0.5-1.8-1.2-2.4-2.2c-0.6-0.9-0.9-2-0.9-3.3c0-1.2,0.3-2.3,0.9-3.2c0.6-0.9,1.4-1.6,2.4-2.1c1-0.5,2.1-0.8,3.2-0.8
					c1,0,1.9,0.1,2.7,0.4c0.8,0.3,1.5,0.6,2.1,1.1l-1.4,1.7c-0.3-0.2-0.8-0.5-1.3-0.7c-0.5-0.2-1.1-0.3-1.8-0.3
					c-0.7,0-1.4,0.2-2,0.5c-0.6,0.4-1.1,0.8-1.4,1.4s-0.5,1.3-0.5,2c0,0.7,0.2,1.4,0.5,2c0.4,0.6,0.9,1.1,1.5,1.4s1.4,0.5,2.2,0.5
					c0.5,0,1-0.1,1.5-0.2c0.5-0.2,0.9-0.4,1.2-0.6L288.4,102.4z"/>
				<path class="st3" d="M297.2,103.8c-1.2,0-2.2-0.2-3.2-0.7c-1-0.5-1.7-1.2-2.3-2.1c-0.6-0.9-0.8-2-0.8-3.4c0-1.3,0.3-2.5,0.9-3.4
					c0.6-0.9,1.4-1.7,2.3-2.2c1-0.5,2.1-0.8,3.2-0.8s2.1,0.3,3,0.8c0.8,0.5,1.4,1.1,1.8,1.8l-0.2,0.4l0.3-2.5h2.6v11.7H302v-3.1
					l0.3,0.7c-0.1,0.2-0.3,0.4-0.6,0.7c-0.3,0.3-0.6,0.6-1.1,0.9c-0.4,0.3-0.9,0.6-1.5,0.8C298.6,103.7,297.9,103.8,297.2,103.8z
					 M297.9,101.6c0.7,0,1.3-0.1,1.9-0.4s1-0.6,1.4-1c0.4-0.5,0.6-1,0.8-1.6v-2.3c-0.2-0.6-0.4-1.1-0.8-1.5s-0.9-0.8-1.4-1
					c-0.6-0.2-1.2-0.4-1.8-0.4c-0.8,0-1.5,0.2-2.1,0.5c-0.6,0.3-1.1,0.8-1.5,1.4s-0.6,1.3-0.6,2.1c0,0.8,0.2,1.4,0.6,2.1
					c0.4,0.6,0.9,1.1,1.5,1.5C296.5,101.4,297.2,101.6,297.9,101.6z"/>
				<path class="st3" d="M329.3,102.4c-0.6,0.4-1.2,0.8-2,1s-1.6,0.4-2.3,0.4c-1.3,0-2.5-0.3-3.6-0.8c-1-0.5-1.8-1.2-2.4-2.2
					s-0.9-2-0.9-3.3c0-1.2,0.3-2.3,0.9-3.2c0.6-0.9,1.4-1.6,2.4-2.1c1-0.5,2.1-0.8,3.2-0.8c1,0,1.9,0.1,2.7,0.4
					c0.8,0.3,1.5,0.6,2.1,1.1l-1.4,1.7c-0.3-0.2-0.8-0.5-1.3-0.7c-0.5-0.2-1.1-0.3-1.8-0.3c-0.7,0-1.4,0.2-2,0.5
					c-0.6,0.4-1.1,0.8-1.4,1.4s-0.5,1.3-0.5,2c0,0.7,0.2,1.4,0.5,2c0.4,0.6,0.9,1.1,1.5,1.4c0.6,0.4,1.4,0.5,2.2,0.5
					c0.5,0,1-0.1,1.5-0.2c0.5-0.2,0.9-0.4,1.2-0.6L329.3,102.4z"/>
				<path class="st3" d="M331.7,97.5c0-1.2,0.3-2.2,0.9-3.2c0.6-0.9,1.4-1.7,2.5-2.2s2.2-0.8,3.6-0.8c1.3,0,2.5,0.3,3.5,0.8
					c1,0.5,1.8,1.3,2.4,2.2c0.6,0.9,0.9,2,0.9,3.2c0,1.2-0.3,2.2-0.9,3.2s-1.4,1.7-2.4,2.3c-1,0.6-2.2,0.8-3.6,0.8
					c-1.3,0-2.5-0.3-3.6-0.8c-1-0.5-1.8-1.2-2.4-2.2C332,99.9,331.7,98.8,331.7,97.5z M334.6,97.5c0,0.8,0.2,1.4,0.5,2.1
					c0.4,0.6,0.8,1.1,1.4,1.5c0.6,0.4,1.3,0.5,2,0.5c0.8,0,1.5-0.2,2.1-0.5c0.6-0.4,1.1-0.8,1.4-1.5c0.4-0.6,0.5-1.3,0.5-2.1
					c0-0.8-0.2-1.4-0.5-2.1s-0.8-1.1-1.4-1.5c-0.6-0.4-1.3-0.6-2.1-0.6c-0.8,0-1.4,0.2-2.1,0.6s-1.1,0.9-1.4,1.5
					C334.7,96.1,334.6,96.8,334.6,97.5z"/>
				<path class="st3" d="M351.8,91.7l0.2,2.9l-0.1-0.5c0.4-0.9,1-1.6,1.9-2.1s2-0.8,3.2-0.8c1.2,0,2.1,0.3,2.9,1
					c0.8,0.7,1.1,1.5,1.2,2.5v8.7h-2.8v-7.8c0-0.6-0.2-1.1-0.6-1.5c-0.4-0.4-0.9-0.6-1.7-0.6c-0.7,0-1.3,0.2-1.9,0.6
					c-0.6,0.4-1.1,0.9-1.4,1.6c-0.3,0.7-0.5,1.4-0.5,2.3v5.5h-2.8V91.7H351.8z"/>
				<path class="st3" d="M378.8,103.7c-0.9,0-1.7-0.1-2.6-0.4s-1.5-0.7-2.1-1.3l1.2-1.5c0.5,0.5,1.1,0.8,1.6,1.1s1.1,0.4,1.6,0.4
					c0.4,0,0.8,0,1.1-0.1s0.6-0.3,0.8-0.5c0.2-0.2,0.3-0.5,0.3-0.9c0-0.4-0.1-0.8-0.4-1c-0.3-0.2-0.7-0.4-1.1-0.6s-0.9-0.3-1.4-0.4
					c-1-0.3-1.8-0.8-2.3-1.3s-0.8-1.3-0.8-2.1c0-0.6,0.2-1.2,0.5-1.7c0.3-0.5,0.8-1,1.5-1.3c0.7-0.3,1.5-0.5,2.4-0.5
					c0.9,0,1.6,0.1,2.3,0.3c0.7,0.2,1.3,0.5,1.9,1l-1.1,1.6c-0.4-0.4-0.8-0.6-1.3-0.8s-0.9-0.3-1.3-0.3c-0.4,0-0.7,0.1-1,0.2
					c-0.3,0.1-0.6,0.3-0.8,0.5c-0.2,0.2-0.3,0.4-0.3,0.8c0,0.4,0.1,0.7,0.4,0.9c0.3,0.2,0.7,0.4,1.1,0.6c0.4,0.2,0.9,0.3,1.4,0.5
					c0.6,0.2,1.1,0.4,1.6,0.7c0.5,0.3,0.9,0.6,1.2,1c0.3,0.4,0.4,0.9,0.4,1.6c0,0.7-0.2,1.3-0.5,1.9s-0.9,1.1-1.6,1.4
					C380.8,103.5,379.9,103.7,378.8,103.7z"/>
				<path class="st3" d="M393.4,103.8c-1.4,0-2.6-0.3-3.7-0.8c-1-0.5-1.8-1.3-2.4-2.2c-0.6-0.9-0.8-2-0.8-3.2c0-1.2,0.3-2.2,0.9-3.1
					c0.6-0.9,1.5-1.7,2.5-2.3c1-0.6,2.2-0.9,3.5-0.9c1.6,0,3,0.5,4.1,1.4c1.1,0.9,1.8,2.2,2.2,3.7l-10.3,3.4l-0.7-1.6l8.4-2.9
					l-0.6,0.4c-0.2-0.6-0.6-1.2-1.2-1.6s-1.3-0.7-2.2-0.7c-0.8,0-1.4,0.2-2,0.5c-0.6,0.3-1.1,0.8-1.4,1.4c-0.3,0.6-0.5,1.3-0.5,2.1
					s0.2,1.5,0.5,2.1c0.4,0.6,0.8,1.1,1.5,1.5s1.3,0.5,2.1,0.5c0.5,0,1.1-0.1,1.6-0.3s1-0.4,1.5-0.7l1.3,2c-0.6,0.4-1.3,0.7-2.1,1
					S394.1,103.8,393.4,103.8z"/>
				<path class="st3" d="M405.7,91.7l0.3,3.4l-0.1-0.5c0.3-0.7,0.8-1.3,1.4-1.8s1.2-0.9,1.9-1.2c0.7-0.3,1.3-0.4,1.7-0.4l-0.1,2.7
					c-1-0.1-1.8,0.1-2.5,0.5c-0.7,0.4-1.3,0.9-1.7,1.6c-0.4,0.7-0.6,1.4-0.6,2.1v5.4h-2.8V91.7H405.7z"/>
				<path class="st3" d="M420.3,103.8c-1.4,0-2.6-0.3-3.7-0.8c-1-0.5-1.8-1.3-2.4-2.2c-0.6-0.9-0.8-2-0.8-3.2c0-1.2,0.3-2.2,0.9-3.1
					c0.6-0.9,1.5-1.7,2.5-2.3c1-0.6,2.2-0.9,3.5-0.9c1.6,0,3,0.5,4.1,1.4c1.1,0.9,1.8,2.2,2.2,3.7l-10.3,3.4l-0.7-1.6l8.4-2.9
					l-0.6,0.4c-0.2-0.6-0.6-1.2-1.2-1.6s-1.3-0.7-2.2-0.7c-0.8,0-1.4,0.2-2,0.5c-0.6,0.3-1.1,0.8-1.4,1.4c-0.3,0.6-0.5,1.3-0.5,2.1
					s0.2,1.5,0.5,2.1c0.4,0.6,0.8,1.1,1.5,1.5s1.3,0.5,2.1,0.5c0.5,0,1.1-0.1,1.6-0.3s1-0.4,1.5-0.7l1.3,2c-0.6,0.4-1.3,0.7-2.1,1
					S421,103.8,420.3,103.8z"/>
				<path class="st3" d="M432.7,91.7l0.2,2.9l-0.1-0.5c0.4-0.9,1-1.6,1.9-2.1s2-0.8,3.2-0.8c1.2,0,2.1,0.3,2.9,1
					c0.8,0.7,1.1,1.5,1.2,2.5v8.7h-2.8v-7.8c0-0.6-0.2-1.1-0.6-1.5c-0.4-0.4-0.9-0.6-1.7-0.6c-0.7,0-1.3,0.2-1.9,0.6
					c-0.6,0.4-1.1,0.9-1.4,1.6c-0.3,0.7-0.5,1.4-0.5,2.3v5.5h-2.8V91.7H432.7z"/>
				<path class="st3" d="M446.5,87.5c0-0.4,0.2-0.8,0.5-1c0.3-0.3,0.7-0.4,1.2-0.4c0.4,0,0.8,0.1,1.1,0.4c0.3,0.3,0.5,0.6,0.5,1
					c0,0.4-0.2,0.8-0.5,1.1c-0.3,0.3-0.7,0.4-1.1,0.4c-0.4,0-0.8-0.1-1.2-0.4C446.7,88.3,446.5,87.9,446.5,87.5z M446.7,91.7h2.8
					v11.7h-2.8V91.7z"/>
				<path class="st3" d="M455.6,86.6h2.9v5.2h3.4v2.1h-3.4v9.6h-2.9v-9.6h-2.3v-2.1h2.3V86.6z"/>
				<path class="st3" d="M470.4,103.8c-1.2,0-2.2-0.2-3.2-0.7c-1-0.5-1.7-1.2-2.3-2.1c-0.6-0.9-0.8-2-0.8-3.4c0-1.3,0.3-2.5,0.9-3.4
					c0.6-0.9,1.4-1.7,2.3-2.2c1-0.5,2.1-0.8,3.2-0.8s2.1,0.3,3,0.8c0.8,0.5,1.4,1.1,1.8,1.8l-0.2,0.4l0.3-2.5h2.6v11.7h-2.8v-3.1
					l0.3,0.7c-0.1,0.2-0.3,0.4-0.6,0.7c-0.3,0.3-0.6,0.6-1.1,0.9c-0.4,0.3-0.9,0.6-1.5,0.8C471.8,103.7,471.1,103.8,470.4,103.8z
					 M471.2,101.6c0.7,0,1.3-0.1,1.9-0.4s1-0.6,1.4-1c0.4-0.5,0.6-1,0.8-1.6v-2.3c-0.2-0.6-0.4-1.1-0.8-1.5s-0.9-0.8-1.4-1
					c-0.6-0.2-1.2-0.4-1.8-0.4c-0.8,0-1.5,0.2-2.1,0.5c-0.6,0.3-1.1,0.8-1.5,1.4c-0.4,0.6-0.6,1.3-0.6,2.1c0,0.8,0.2,1.4,0.6,2.1
					c0.4,0.6,0.9,1.1,1.5,1.5C469.7,101.4,470.4,101.6,471.2,101.6z M467.6,85.6h3.1l2.2,3.8h-1.8L467.6,85.6z"/>
				<path class="st3" d="M485.4,101c-0.4,1-0.9,2-1.3,3c-0.4,1-0.9,2-1.3,3h-2.3c0.4-1,0.8-2,1.2-3s0.8-2,1.1-3H485.4z"/>
				<path class="st3" d="M505.8,103.8c-0.9,0-1.8-0.2-2.7-0.6c-0.9-0.4-1.5-1-2-1.7l0.2-0.8v8.5h-2.8V91.6h2.4l0.4,3l-0.3-0.9
					c0.6-0.7,1.4-1.3,2.3-1.8c0.9-0.5,2-0.7,3.1-0.7c1.2,0,2.2,0.3,3.1,0.8c0.9,0.5,1.7,1.3,2.2,2.2c0.5,1,0.8,2.1,0.8,3.3
					c0,1.2-0.3,2.3-0.9,3.3s-1.4,1.7-2.4,2.2S507.1,103.8,505.8,103.8z M505.3,101.7c0.8,0,1.5-0.2,2.2-0.5c0.7-0.3,1.2-0.8,1.6-1.4
					c0.4-0.6,0.6-1.3,0.6-2.1c0-0.8-0.2-1.5-0.6-2.1c-0.4-0.6-0.9-1.1-1.5-1.4s-1.3-0.5-2.1-0.5c-0.7,0-1.4,0.1-2,0.4
					c-0.6,0.3-1.1,0.6-1.4,1.1s-0.7,1-0.8,1.6v2c0.1,0.6,0.3,1.1,0.7,1.6c0.4,0.5,0.9,0.8,1.4,1.1
					C504,101.5,504.6,101.7,505.3,101.7z"/>
				<path class="st3" d="M522.1,103.8c-1.4,0-2.6-0.3-3.7-0.8c-1-0.5-1.8-1.3-2.4-2.2c-0.6-0.9-0.8-2-0.8-3.2c0-1.2,0.3-2.2,0.9-3.1
					c0.6-0.9,1.5-1.7,2.5-2.3c1-0.6,2.2-0.9,3.5-0.9c1.6,0,3,0.5,4.1,1.4c1.1,0.9,1.8,2.2,2.2,3.7l-10.3,3.4l-0.7-1.6l8.4-2.9
					l-0.6,0.4c-0.2-0.6-0.6-1.2-1.2-1.6s-1.3-0.7-2.2-0.7c-0.8,0-1.4,0.2-2,0.5c-0.6,0.3-1.1,0.8-1.4,1.4c-0.3,0.6-0.5,1.3-0.5,2.1
					s0.2,1.5,0.5,2.1c0.4,0.6,0.8,1.1,1.5,1.5s1.3,0.5,2.1,0.5c0.5,0,1.1-0.1,1.6-0.3s1-0.4,1.5-0.7l1.3,2c-0.6,0.4-1.3,0.7-2.1,1
					S522.8,103.8,522.1,103.8z"/>
				<path class="st3" d="M534.4,91.7l0.3,3.4l-0.1-0.5c0.3-0.7,0.8-1.3,1.4-1.8s1.2-0.9,1.9-1.2c0.7-0.3,1.3-0.4,1.7-0.4l-0.1,2.7
					c-1-0.1-1.8,0.1-2.5,0.5c-0.7,0.4-1.3,0.9-1.7,1.6c-0.4,0.7-0.6,1.4-0.6,2.1v5.4h-2.8V91.7H534.4z"/>
				<path class="st3" d="M553.3,102.4c-0.6,0.4-1.2,0.8-2,1s-1.6,0.4-2.3,0.4c-1.3,0-2.5-0.3-3.6-0.8c-1-0.5-1.8-1.2-2.4-2.2
					s-0.9-2-0.9-3.3c0-1.2,0.3-2.3,0.9-3.2c0.6-0.9,1.4-1.6,2.4-2.1c1-0.5,2.1-0.8,3.2-0.8c1,0,1.9,0.1,2.7,0.4
					c0.8,0.3,1.5,0.6,2.1,1.1l-1.4,1.7c-0.3-0.2-0.8-0.5-1.3-0.7c-0.5-0.2-1.1-0.3-1.8-0.3c-0.7,0-1.4,0.2-2,0.5
					c-0.6,0.4-1.1,0.8-1.4,1.4s-0.5,1.3-0.5,2c0,0.7,0.2,1.4,0.5,2c0.4,0.6,0.9,1.1,1.5,1.4c0.6,0.4,1.4,0.5,2.2,0.5
					c0.5,0,1-0.1,1.5-0.2c0.5-0.2,0.9-0.4,1.2-0.6L553.3,102.4z"/>
				<path class="st3" d="M556.9,103.5V81.5h2.8v12.9l-0.1-0.5c0.4-0.8,1.1-1.4,1.9-1.9c0.9-0.5,1.9-0.8,3.1-0.8c1.2,0,2.1,0.3,2.9,1
					c0.8,0.7,1.1,1.5,1.2,2.5v8.7h-2.8v-7.8c0-0.6-0.2-1.1-0.6-1.5c-0.4-0.4-0.9-0.6-1.7-0.6c-0.7,0-1.3,0.2-1.9,0.6
					c-0.6,0.4-1.1,0.9-1.4,1.6c-0.3,0.7-0.5,1.4-0.5,2.3v5.5H556.9z"/>
				<path class="st3" d="M579.3,103.8c-1.4,0-2.6-0.3-3.7-0.8c-1-0.5-1.8-1.3-2.4-2.2c-0.6-0.9-0.8-2-0.8-3.2c0-1.2,0.3-2.2,0.9-3.1
					c0.6-0.9,1.5-1.7,2.5-2.3c1-0.6,2.2-0.9,3.5-0.9c1.6,0,3,0.5,4.1,1.4c1.1,0.9,1.8,2.2,2.2,3.7l-10.3,3.4l-0.7-1.6l8.4-2.9
					l-0.6,0.4c-0.2-0.6-0.6-1.2-1.2-1.6s-1.3-0.7-2.2-0.7c-0.8,0-1.4,0.2-2,0.5c-0.6,0.3-1.1,0.8-1.4,1.4c-0.3,0.6-0.5,1.3-0.5,2.1
					s0.2,1.5,0.5,2.1c0.4,0.6,0.8,1.1,1.5,1.5s1.3,0.5,2.1,0.5c0.5,0,1.1-0.1,1.6-0.3s1-0.4,1.5-0.7l1.3,2c-0.6,0.4-1.3,0.7-2.1,1
					S580,103.8,579.3,103.8z M582.6,85.8l-3.8,3.8H577l2.5-3.8H582.6z"/>
			</g>
		</g>
		<g>
			<g class="st2">
				<path class="st3" d="M31.6,137.8c-1.2,0-2.2-0.2-3.2-0.7c-1-0.5-1.7-1.2-2.3-2.1c-0.6-0.9-0.8-2-0.8-3.4c0-1.3,0.3-2.5,0.9-3.4
					c0.6-0.9,1.4-1.7,2.3-2.2c1-0.5,2.1-0.8,3.2-0.8s2.1,0.3,3,0.8c0.8,0.5,1.4,1.1,1.8,1.8l-0.2,0.4l0.3-2.5h2.6v11.7h-2.8v-3.1
					l0.3,0.7c-0.1,0.2-0.3,0.4-0.6,0.7c-0.3,0.3-0.6,0.6-1.1,0.9c-0.4,0.3-0.9,0.6-1.5,0.8C33,137.7,32.3,137.8,31.6,137.8z
					 M32.4,135.6c0.7,0,1.3-0.1,1.9-0.4c0.6-0.2,1-0.6,1.4-1s0.6-1,0.8-1.6v-2.3c-0.2-0.6-0.4-1.1-0.8-1.5c-0.4-0.4-0.9-0.8-1.4-1
					c-0.6-0.2-1.2-0.4-1.8-0.4c-0.8,0-1.5,0.2-2.1,0.5c-0.6,0.3-1.1,0.8-1.5,1.4s-0.6,1.3-0.6,2.1c0,0.8,0.2,1.4,0.6,2.1
					c0.4,0.6,0.9,1.1,1.5,1.5C30.9,135.4,31.6,135.6,32.4,135.6z"/>
				<path class="st3" d="M46.6,125.8l0.2,2.9l-0.1-0.5c0.4-0.9,1-1.6,1.9-2.1s2-0.8,3.2-0.8c1.2,0,2.1,0.3,2.9,1
					c0.8,0.7,1.1,1.5,1.2,2.5v8.7H53v-7.8c0-0.6-0.2-1.1-0.6-1.5c-0.4-0.4-0.9-0.6-1.7-0.6c-0.7,0-1.3,0.2-1.9,0.6
					c-0.6,0.4-1.1,0.9-1.4,1.6c-0.3,0.7-0.5,1.4-0.5,2.3v5.5H44v-11.7H46.6z"/>
				<path class="st3" d="M70.8,136.4c-0.6,0.4-1.2,0.8-2,1c-0.8,0.2-1.6,0.4-2.3,0.4c-1.3,0-2.5-0.3-3.6-0.8c-1-0.5-1.8-1.2-2.4-2.2
					c-0.6-0.9-0.9-2-0.9-3.3c0-1.2,0.3-2.3,0.9-3.2c0.6-0.9,1.4-1.6,2.4-2.1s2.1-0.8,3.2-0.8c1,0,1.9,0.1,2.7,0.4
					c0.8,0.3,1.5,0.6,2.1,1.1l-1.4,1.7c-0.3-0.2-0.8-0.5-1.3-0.7c-0.5-0.2-1.1-0.3-1.8-0.3c-0.7,0-1.4,0.2-2,0.5
					c-0.6,0.4-1.1,0.8-1.4,1.4c-0.4,0.6-0.5,1.3-0.5,2c0,0.7,0.2,1.4,0.5,2c0.4,0.6,0.9,1.1,1.5,1.4s1.4,0.5,2.2,0.5
					c0.5,0,1-0.1,1.5-0.2c0.5-0.2,0.9-0.4,1.2-0.6L70.8,136.4z"/>
				<path class="st3" d="M74.4,137.5v-21.9h2.8v12.9l-0.1-0.5c0.4-0.8,1.1-1.4,1.9-1.9s1.9-0.8,3.1-0.8c1.2,0,2.1,0.3,2.9,1
					c0.8,0.7,1.1,1.5,1.2,2.5v8.7h-2.8v-7.8c0-0.6-0.2-1.1-0.6-1.5c-0.4-0.4-0.9-0.6-1.7-0.6c-0.7,0-1.3,0.2-1.9,0.6
					s-1.1,0.9-1.4,1.6c-0.3,0.7-0.5,1.4-0.5,2.3v5.5H74.4z"/>
				<path class="st3" d="M96.8,137.8c-1.4,0-2.6-0.3-3.7-0.8c-1-0.5-1.8-1.3-2.4-2.2c-0.6-0.9-0.8-2-0.8-3.2c0-1.2,0.3-2.2,0.9-3.1
					c0.6-0.9,1.5-1.7,2.5-2.3c1-0.6,2.2-0.9,3.5-0.9c1.6,0,3,0.5,4.1,1.4c1.1,0.9,1.8,2.2,2.2,3.7l-10.3,3.4l-0.7-1.6l8.4-2.9
					l-0.6,0.4c-0.2-0.6-0.6-1.2-1.2-1.6c-0.6-0.5-1.3-0.7-2.2-0.7c-0.8,0-1.4,0.2-2,0.5c-0.6,0.3-1.1,0.8-1.4,1.4
					c-0.3,0.6-0.5,1.3-0.5,2.1s0.2,1.5,0.5,2.1c0.4,0.6,0.8,1.1,1.5,1.5c0.6,0.3,1.3,0.5,2.1,0.5c0.5,0,1.1-0.1,1.6-0.3
					c0.5-0.2,1-0.4,1.5-0.7l1.3,2c-0.6,0.4-1.3,0.7-2.1,1C98.3,137.6,97.5,137.8,96.8,137.8z"/>
				<path class="st3" d="M121.2,137.8c-1.2,0-2.2-0.3-3.1-0.8c-0.9-0.5-1.7-1.3-2.2-2.2c-0.6-1-0.8-2.1-0.8-3.3
					c0-1.3,0.3-2.4,0.9-3.3c0.6-0.9,1.4-1.6,2.3-2.1c1-0.5,2.1-0.7,3.3-0.7c1,0,1.9,0.2,2.8,0.6c0.9,0.4,1.6,0.9,2.1,1.6l-0.2,0.9
					v-12.9h2.8v21.9h-2.8v-2.9l0.3,0.7c-0.6,0.7-1.4,1.3-2.3,1.8S122.3,137.8,121.2,137.8z M122.1,135.5c0.7,0,1.4-0.1,2-0.4
					c0.6-0.3,1.1-0.6,1.4-1.1c0.4-0.4,0.7-1,0.8-1.6v-2.2c-0.2-0.6-0.4-1.1-0.9-1.5s-0.9-0.8-1.5-1c-0.6-0.2-1.2-0.4-1.9-0.4
					c-0.7,0-1.4,0.2-2.1,0.5c-0.6,0.3-1.2,0.8-1.5,1.4c-0.4,0.6-0.6,1.3-0.6,2.1c0,0.8,0.2,1.5,0.6,2.1c0.4,0.6,0.9,1.1,1.5,1.5
					C120.6,135.3,121.3,135.5,122.1,135.5z"/>
				<path class="st3" d="M139.1,137.8c-1.2,0-2.2-0.2-3.2-0.7c-1-0.5-1.7-1.2-2.3-2.1c-0.6-0.9-0.8-2-0.8-3.4c0-1.3,0.3-2.5,0.9-3.4
					c0.6-0.9,1.4-1.7,2.3-2.2c1-0.5,2.1-0.8,3.2-0.8s2.1,0.3,3,0.8c0.8,0.5,1.4,1.1,1.8,1.8l-0.2,0.4l0.3-2.5h2.6v11.7h-2.8v-3.1
					l0.3,0.7c-0.1,0.2-0.3,0.4-0.6,0.7c-0.3,0.3-0.6,0.6-1.1,0.9c-0.4,0.3-0.9,0.6-1.5,0.8C140.5,137.7,139.9,137.8,139.1,137.8z
					 M139.9,135.6c0.7,0,1.3-0.1,1.9-0.4c0.6-0.2,1-0.6,1.4-1s0.6-1,0.8-1.6v-2.3c-0.2-0.6-0.4-1.1-0.8-1.5c-0.4-0.4-0.9-0.8-1.4-1
					c-0.6-0.2-1.2-0.4-1.8-0.4c-0.8,0-1.5,0.2-2.1,0.5c-0.6,0.3-1.1,0.8-1.5,1.4s-0.6,1.3-0.6,2.1c0,0.8,0.2,1.4,0.6,2.1
					c0.4,0.6,0.9,1.1,1.5,1.5C138.4,135.4,139.1,135.6,139.9,135.6z"/>
			</g>
		</g>
		<g>
			<g class="st2">
				<path class="st3" d="M156.7,137.8l-6.9-12.1h3.3l4.7,9.3L156,135l4.3-9.2h3.1l-6.6,12.1H156.7z"/>
			</g>
		</g>
		<g>
			<g class="st2">
				<path class="st3" d="M171.1,137.8c-1.2,0-2.2-0.2-3.2-0.7c-1-0.5-1.7-1.2-2.3-2.1c-0.6-0.9-0.8-2-0.8-3.4c0-1.3,0.3-2.5,0.9-3.4
					c0.6-0.9,1.4-1.7,2.3-2.2c1-0.5,2.1-0.8,3.2-0.8s2.1,0.3,3,0.8c0.8,0.5,1.4,1.1,1.8,1.8l-0.2,0.4l0.3-2.5h2.6v11.7h-2.8v-3.1
					l0.3,0.7c-0.1,0.2-0.3,0.4-0.6,0.7c-0.3,0.3-0.6,0.6-1.1,0.9c-0.4,0.3-0.9,0.6-1.5,0.8C172.5,137.7,171.9,137.8,171.1,137.8z
					 M171.9,135.6c0.7,0,1.3-0.1,1.9-0.4c0.6-0.2,1-0.6,1.4-1s0.6-1,0.8-1.6v-2.3c-0.2-0.6-0.4-1.1-0.8-1.5c-0.4-0.4-0.9-0.8-1.4-1
					c-0.6-0.2-1.2-0.4-1.8-0.4c-0.8,0-1.5,0.2-2.1,0.5c-0.6,0.3-1.1,0.8-1.5,1.4s-0.6,1.3-0.6,2.1c0,0.8,0.2,1.4,0.6,2.1
					c0.4,0.6,0.9,1.1,1.5,1.5C170.5,135.4,171.2,135.6,171.9,135.6z"/>
				<path class="st3" d="M186.1,125.8l0.2,2.9l-0.1-0.5c0.4-0.9,1-1.6,1.9-2.1s2-0.8,3.2-0.8c1.2,0,2.1,0.3,2.9,1
					c0.8,0.7,1.1,1.5,1.2,2.5v8.7h-2.8v-7.8c0-0.6-0.2-1.1-0.6-1.5c-0.4-0.4-0.9-0.6-1.7-0.6c-0.7,0-1.3,0.2-1.9,0.6
					c-0.6,0.4-1.1,0.9-1.4,1.6c-0.3,0.7-0.5,1.4-0.5,2.3v5.5h-2.8v-11.7H186.1z"/>
				<path class="st3" d="M201.4,120.6h2.9v5.2h3.4v2.1h-3.4v9.6h-2.9v-9.6h-2.3v-2.1h2.3V120.6z"/>
				<path class="st3" d="M210.8,121.5c0-0.4,0.2-0.8,0.5-1c0.4-0.3,0.7-0.4,1.2-0.4c0.4,0,0.8,0.1,1.1,0.4c0.3,0.3,0.5,0.6,0.5,1
					c0,0.4-0.2,0.8-0.5,1.1c-0.3,0.3-0.7,0.4-1.1,0.4c-0.4,0-0.8-0.1-1.2-0.4C211,122.3,210.8,121.9,210.8,121.5z M211,125.8h2.8
					v11.7H211V125.8z"/>
				<path class="st3" d="M233.4,137.8c-1.2,0-2.2-0.2-3.2-0.7c-1-0.5-1.7-1.2-2.3-2.1c-0.6-0.9-0.8-2-0.8-3.4c0-1.3,0.3-2.5,0.9-3.4
					c0.6-0.9,1.4-1.7,2.3-2.2c1-0.5,2.1-0.8,3.2-0.8s2.1,0.3,3,0.8c0.8,0.5,1.4,1.1,1.8,1.8l-0.2,0.4l0.3-2.5h2.6v11.7h-2.8v-3.1
					l0.3,0.7c-0.1,0.2-0.3,0.4-0.6,0.7c-0.3,0.3-0.6,0.6-1.1,0.9c-0.4,0.3-0.9,0.6-1.5,0.8C234.8,137.7,234.1,137.8,233.4,137.8z
					 M234.1,135.6c0.7,0,1.3-0.1,1.9-0.4c0.6-0.2,1-0.6,1.4-1s0.6-1,0.8-1.6v-2.3c-0.2-0.6-0.4-1.1-0.8-1.5c-0.4-0.4-0.9-0.8-1.4-1
					c-0.6-0.2-1.2-0.4-1.8-0.4c-0.8,0-1.5,0.2-2.1,0.5c-0.6,0.3-1.1,0.8-1.5,1.4s-0.6,1.3-0.6,2.1c0,0.8,0.2,1.4,0.6,2.1
					c0.4,0.6,0.9,1.1,1.5,1.5C232.7,135.4,233.4,135.6,234.1,135.6z"/>
				<path class="st3" d="M245.8,115.5h2.8v21.9h-2.8V115.5z"/>
				<path class="st3" d="M253.5,115.5h2.8v21.9h-2.8V115.5z"/>
				<path class="st3" d="M266.9,137.8c-1.4,0-2.6-0.3-3.7-0.8c-1-0.5-1.8-1.3-2.4-2.2c-0.6-0.9-0.8-2-0.8-3.2c0-1.2,0.3-2.2,0.9-3.1
					c0.6-0.9,1.5-1.7,2.5-2.3c1-0.6,2.2-0.9,3.5-0.9c1.6,0,3,0.5,4.1,1.4c1.1,0.9,1.8,2.2,2.2,3.7l-10.3,3.4l-0.7-1.6l8.4-2.9
					l-0.6,0.4c-0.2-0.6-0.6-1.2-1.2-1.6c-0.6-0.5-1.3-0.7-2.2-0.7c-0.8,0-1.4,0.2-2,0.5c-0.6,0.3-1.1,0.8-1.4,1.4
					c-0.3,0.6-0.5,1.3-0.5,2.1s0.2,1.5,0.5,2.1c0.4,0.6,0.8,1.1,1.5,1.5c0.6,0.3,1.3,0.5,2.1,0.5c0.5,0,1.1-0.1,1.6-0.3
					c0.5-0.2,1-0.4,1.5-0.7l1.3,2c-0.6,0.4-1.3,0.7-2.1,1C268.4,137.6,267.7,137.8,266.9,137.8z"/>
				<path class="st3" d="M291.3,137.8c-1.2,0-2.2-0.3-3.1-0.8c-0.9-0.5-1.7-1.3-2.2-2.2c-0.6-1-0.8-2.1-0.8-3.3
					c0-1.3,0.3-2.4,0.9-3.3c0.6-0.9,1.4-1.6,2.3-2.1c1-0.5,2.1-0.7,3.3-0.7c1,0,1.9,0.2,2.8,0.6c0.9,0.4,1.6,0.9,2.1,1.6l-0.2,0.9
					v-12.9h2.8v21.9h-2.8v-2.9l0.3,0.7c-0.6,0.7-1.4,1.3-2.3,1.8S292.5,137.8,291.3,137.8z M292.2,135.5c0.7,0,1.4-0.1,2-0.4
					c0.6-0.3,1.1-0.6,1.4-1.1c0.4-0.4,0.7-1,0.8-1.6v-2.2c-0.2-0.6-0.4-1.1-0.9-1.5s-0.9-0.8-1.5-1c-0.6-0.2-1.2-0.4-1.9-0.4
					c-0.7,0-1.4,0.2-2.1,0.5c-0.6,0.3-1.2,0.8-1.5,1.4c-0.4,0.6-0.6,1.3-0.6,2.1c0,0.8,0.2,1.5,0.6,2.1c0.4,0.6,0.9,1.1,1.5,1.5
					C290.8,135.3,291.5,135.5,292.2,135.5z"/>
				<path class="st3" d="M303.9,121.5c0-0.4,0.2-0.8,0.5-1c0.3-0.3,0.7-0.4,1.2-0.4c0.4,0,0.8,0.1,1.1,0.4c0.3,0.3,0.5,0.6,0.5,1
					c0,0.4-0.2,0.8-0.5,1.1c-0.3,0.3-0.7,0.4-1.1,0.4c-0.4,0-0.8-0.1-1.2-0.4C304.1,122.3,303.9,121.9,303.9,121.5z M304.1,125.8
					h2.8v11.7h-2.8V125.8z"/>
				<path class="st3" d="M312.8,137.5v-9.4h-2.2v-2.4h2.2v-4.9c0-1.7,0.4-3,1.2-3.9c0.8-0.9,2-1.4,3.6-1.4c0.4,0,0.9,0.1,1.4,0.2
					c0.5,0.1,0.9,0.3,1.3,0.6l-1.2,1.9c-0.2-0.2-0.4-0.3-0.6-0.4c-0.2-0.1-0.5-0.1-0.7-0.1c-0.7,0-1.3,0.2-1.7,0.7
					c-0.4,0.5-0.6,1.3-0.6,2.4v4.9h3.9v2.4h-3.9v9.4H312.8z M322,137.5v-9.4h-2.2v-2.4h2.2v-4.9c0-1.7,0.4-3,1.2-3.9
					c0.8-0.9,2-1.4,3.6-1.4c0.4,0,0.9,0.1,1.4,0.2s0.9,0.3,1.3,0.6l-1.2,1.9c-0.2-0.2-0.4-0.3-0.6-0.4c-0.2-0.1-0.5-0.1-0.7-0.1
					c-0.7,0-1.3,0.2-1.7,0.7c-0.4,0.5-0.6,1.3-0.6,2.4v4.9h3.9v2.4h-3.9v9.4H322z M330.8,121.5c0-0.4,0.2-0.8,0.5-1
					c0.4-0.3,0.7-0.4,1.2-0.4s0.8,0.1,1.1,0.4c0.3,0.3,0.5,0.6,0.5,1c0,0.4-0.2,0.8-0.5,1.1c-0.3,0.3-0.7,0.4-1.1,0.4
					s-0.8-0.1-1.2-0.4C330.9,122.3,330.8,121.9,330.8,121.5z M330.9,125.8h2.8v11.7h-2.8V125.8z"/>
				<path class="st3" d="M348.7,136.4c-0.6,0.4-1.2,0.8-2,1c-0.8,0.2-1.6,0.4-2.3,0.4c-1.3,0-2.5-0.3-3.6-0.8
					c-1-0.5-1.8-1.2-2.4-2.2c-0.6-0.9-0.9-2-0.9-3.3c0-1.2,0.3-2.3,0.9-3.2c0.6-0.9,1.4-1.6,2.4-2.1c1-0.5,2.1-0.8,3.2-0.8
					c1,0,1.9,0.1,2.7,0.4c0.8,0.3,1.5,0.6,2.1,1.1l-1.4,1.7c-0.3-0.2-0.8-0.5-1.3-0.7c-0.5-0.2-1.1-0.3-1.8-0.3
					c-0.7,0-1.4,0.2-2,0.5c-0.6,0.4-1.1,0.8-1.4,1.4c-0.4,0.6-0.5,1.3-0.5,2c0,0.7,0.2,1.4,0.5,2c0.4,0.6,0.9,1.1,1.5,1.4
					c0.6,0.4,1.4,0.5,2.2,0.5c0.5,0,1-0.1,1.5-0.2c0.5-0.2,0.9-0.4,1.2-0.6L348.7,136.4z"/>
				<path class="st3" d="M351.2,131.5c0-1.2,0.3-2.2,0.9-3.2c0.6-0.9,1.4-1.7,2.5-2.2c1.1-0.5,2.2-0.8,3.6-0.8
					c1.3,0,2.5,0.3,3.5,0.8c1,0.5,1.8,1.3,2.4,2.2s0.9,2,0.9,3.2c0,1.2-0.3,2.2-0.9,3.2c-0.6,0.9-1.4,1.7-2.4,2.3
					c-1,0.6-2.2,0.8-3.6,0.8c-1.3,0-2.5-0.3-3.6-0.8c-1-0.5-1.8-1.2-2.4-2.2C351.5,133.9,351.2,132.8,351.2,131.5z M354,131.5
					c0,0.8,0.2,1.4,0.5,2.1c0.4,0.6,0.8,1.1,1.4,1.5c0.6,0.4,1.3,0.5,2,0.5c0.8,0,1.5-0.2,2.1-0.5c0.6-0.4,1.1-0.8,1.4-1.5
					s0.5-1.3,0.5-2.1s-0.2-1.4-0.5-2.1c-0.4-0.6-0.8-1.1-1.4-1.5c-0.6-0.4-1.3-0.6-2.1-0.6c-0.8,0-1.4,0.2-2.1,0.6
					c-0.6,0.4-1.1,0.9-1.4,1.5C354.2,130.1,354,130.8,354,131.5z"/>
				<path class="st3" d="M368.7,115.5h2.8v21.9h-2.8V115.5z"/>
				<path class="st3" d="M377.5,120.6h2.9v5.2h3.4v2.1h-3.4v9.6h-2.9v-9.6h-2.3v-2.1h2.3V120.6z"/>
				<path class="st3" d="M392.3,137.8c-1.2,0-2.2-0.2-3.2-0.7c-1-0.5-1.7-1.2-2.3-2.1c-0.6-0.9-0.8-2-0.8-3.4c0-1.3,0.3-2.5,0.9-3.4
					s1.4-1.7,2.3-2.2c1-0.5,2.1-0.8,3.2-0.8s2.1,0.3,3,0.8c0.8,0.5,1.4,1.1,1.8,1.8l-0.2,0.4l0.3-2.5h2.6v11.7h-2.8v-3.1l0.3,0.7
					c-0.1,0.2-0.3,0.4-0.6,0.7c-0.3,0.3-0.6,0.6-1.1,0.9c-0.4,0.3-0.9,0.6-1.5,0.8S393.1,137.8,392.3,137.8z M393.1,135.6
					c0.7,0,1.3-0.1,1.9-0.4c0.6-0.2,1-0.6,1.4-1s0.6-1,0.8-1.6v-2.3c-0.2-0.6-0.4-1.1-0.8-1.5c-0.4-0.4-0.9-0.8-1.4-1
					c-0.6-0.2-1.2-0.4-1.8-0.4c-0.8,0-1.5,0.2-2.1,0.5c-0.6,0.3-1.1,0.8-1.5,1.4c-0.4,0.6-0.6,1.3-0.6,2.1c0,0.8,0.2,1.4,0.6,2.1
					c0.4,0.6,0.9,1.1,1.5,1.5C391.7,135.4,392.4,135.6,393.1,135.6z M389.6,119.6h3.1l2.2,3.8h-1.8L389.6,119.6z"/>
				<path class="st3" d="M420.1,137.8c-1.4,0-2.6-0.3-3.7-0.8c-1-0.5-1.8-1.3-2.4-2.2c-0.6-0.9-0.8-2-0.8-3.2c0-1.2,0.3-2.2,0.9-3.1
					c0.6-0.9,1.5-1.7,2.5-2.3c1-0.6,2.2-0.9,3.5-0.9c1.6,0,3,0.5,4.1,1.4c1.1,0.9,1.8,2.2,2.2,3.7l-10.3,3.4l-0.7-1.6l8.4-2.9
					l-0.6,0.4c-0.2-0.6-0.6-1.2-1.2-1.6c-0.6-0.5-1.3-0.7-2.2-0.7c-0.8,0-1.4,0.2-2,0.5c-0.6,0.3-1.1,0.8-1.4,1.4
					c-0.3,0.6-0.5,1.3-0.5,2.1s0.2,1.5,0.5,2.1c0.4,0.6,0.8,1.1,1.5,1.5s1.3,0.5,2.1,0.5c0.5,0,1.1-0.1,1.6-0.3
					c0.5-0.2,1-0.4,1.5-0.7l1.3,2c-0.6,0.4-1.3,0.7-2.1,1C421.6,137.6,420.8,137.8,420.1,137.8z M415.6,119.5h3.1l2.2,3.8h-1.8
					L415.6,119.5z"/>
				<path class="st3" d="M449.5,136.4c-0.6,0.4-1.2,0.8-2,1c-0.8,0.2-1.6,0.4-2.3,0.4c-1.3,0-2.5-0.3-3.6-0.8
					c-1-0.5-1.8-1.2-2.4-2.2c-0.6-0.9-0.9-2-0.9-3.3c0-1.2,0.3-2.3,0.9-3.2c0.6-0.9,1.4-1.6,2.4-2.1c1-0.5,2.1-0.8,3.2-0.8
					c1,0,1.9,0.1,2.7,0.4c0.8,0.3,1.5,0.6,2.1,1.1l-1.4,1.7c-0.3-0.2-0.8-0.5-1.3-0.7c-0.5-0.2-1.1-0.3-1.8-0.3
					c-0.7,0-1.4,0.2-2,0.5c-0.6,0.4-1.1,0.8-1.4,1.4c-0.4,0.6-0.5,1.3-0.5,2c0,0.7,0.2,1.4,0.5,2c0.4,0.6,0.9,1.1,1.5,1.4
					c0.6,0.4,1.4,0.5,2.2,0.5c0.5,0,1-0.1,1.5-0.2c0.5-0.2,0.9-0.4,1.2-0.6L449.5,136.4z"/>
				<path class="st3" d="M452,131.5c0-1.2,0.3-2.2,0.9-3.2c0.6-0.9,1.4-1.7,2.5-2.2c1.1-0.5,2.2-0.8,3.6-0.8c1.3,0,2.5,0.3,3.5,0.8
					c1,0.5,1.8,1.3,2.4,2.2s0.9,2,0.9,3.2c0,1.2-0.3,2.2-0.9,3.2c-0.6,0.9-1.4,1.7-2.4,2.3c-1,0.6-2.2,0.8-3.6,0.8
					c-1.3,0-2.5-0.3-3.6-0.8c-1-0.5-1.8-1.2-2.4-2.2C452.3,133.9,452,132.8,452,131.5z M454.8,131.5c0,0.8,0.2,1.4,0.5,2.1
					c0.4,0.6,0.8,1.1,1.4,1.5c0.6,0.4,1.3,0.5,2,0.5c0.8,0,1.5-0.2,2.1-0.5c0.6-0.4,1.1-0.8,1.4-1.5s0.5-1.3,0.5-2.1
					s-0.2-1.4-0.5-2.1c-0.4-0.6-0.8-1.1-1.4-1.5c-0.6-0.4-1.3-0.6-2.1-0.6c-0.8,0-1.4,0.2-2.1,0.6c-0.6,0.4-1.1,0.9-1.4,1.5
					C455,130.1,454.8,130.8,454.8,131.5z"/>
				<path class="st3" d="M472,125.8l0.2,2.9l-0.1-0.5c0.4-0.9,1-1.6,1.9-2.1s2-0.8,3.2-0.8c1.2,0,2.1,0.3,2.9,1
					c0.8,0.7,1.1,1.5,1.2,2.5v8.7h-2.8v-7.8c0-0.6-0.2-1.1-0.6-1.5c-0.4-0.4-0.9-0.6-1.7-0.6c-0.7,0-1.3,0.2-1.9,0.6
					c-0.6,0.4-1.1,0.9-1.4,1.6c-0.3,0.7-0.5,1.4-0.5,2.3v5.5h-2.8v-11.7H472z"/>
				<path class="st3" d="M489.6,137.7c-0.9,0-1.7-0.1-2.6-0.4c-0.8-0.3-1.5-0.7-2.1-1.3l1.2-1.5c0.5,0.5,1.1,0.8,1.6,1.1
					s1.1,0.4,1.6,0.4c0.4,0,0.8,0,1.1-0.1c0.3-0.1,0.6-0.3,0.8-0.5c0.2-0.2,0.3-0.5,0.3-0.9c0-0.4-0.1-0.8-0.4-1
					c-0.3-0.2-0.7-0.4-1.1-0.6c-0.4-0.2-0.9-0.3-1.4-0.4c-1-0.3-1.8-0.8-2.3-1.3c-0.5-0.6-0.8-1.3-0.8-2.1c0-0.6,0.2-1.2,0.5-1.7
					c0.3-0.5,0.8-1,1.5-1.3s1.5-0.5,2.4-0.5c0.9,0,1.6,0.1,2.3,0.3c0.7,0.2,1.3,0.5,1.9,1l-1.1,1.6c-0.4-0.4-0.8-0.6-1.3-0.8
					s-0.9-0.3-1.3-0.3c-0.4,0-0.7,0.1-1,0.2s-0.6,0.3-0.8,0.5c-0.2,0.2-0.3,0.4-0.3,0.8c0,0.4,0.1,0.7,0.4,0.9
					c0.3,0.2,0.7,0.4,1.1,0.6c0.4,0.2,0.9,0.3,1.4,0.5c0.6,0.2,1.1,0.4,1.6,0.7c0.5,0.3,0.9,0.6,1.2,1c0.3,0.4,0.4,0.9,0.4,1.6
					c0,0.7-0.2,1.3-0.5,1.9s-0.9,1.1-1.6,1.4S490.7,137.7,489.6,137.7z"/>
				<path class="st3" d="M503.5,137.8c-1.2,0-2.2-0.2-3.2-0.7c-1-0.5-1.7-1.2-2.3-2.1c-0.6-0.9-0.8-2-0.8-3.4c0-1.3,0.3-2.5,0.9-3.4
					s1.4-1.7,2.3-2.2c1-0.5,2.1-0.8,3.2-0.8s2.1,0.3,3,0.8c0.8,0.5,1.4,1.1,1.8,1.8l-0.2,0.4l0.3-2.5h2.6v11.7h-2.8v-3.1l0.3,0.7
					c-0.1,0.2-0.3,0.4-0.6,0.7c-0.3,0.3-0.6,0.6-1.1,0.9c-0.4,0.3-0.9,0.6-1.5,0.8S504.3,137.8,503.5,137.8z M504.3,135.6
					c0.7,0,1.3-0.1,1.9-0.4c0.6-0.2,1-0.6,1.4-1s0.6-1,0.8-1.6v-2.3c-0.2-0.6-0.4-1.1-0.8-1.5c-0.4-0.4-0.9-0.8-1.4-1
					c-0.6-0.2-1.2-0.4-1.8-0.4c-0.8,0-1.5,0.2-2.1,0.5c-0.6,0.3-1.1,0.8-1.5,1.4c-0.4,0.6-0.6,1.3-0.6,2.1c0,0.8,0.2,1.4,0.6,2.1
					c0.4,0.6,0.9,1.1,1.5,1.5C502.8,135.4,503.5,135.6,504.3,135.6z"/>
				<path class="st3" d="M523.3,137.8c-0.9,0-1.8-0.2-2.7-0.6s-1.5-1-2-1.7l0.2-0.8v8.5H516v-17.5h2.4l0.4,3l-0.3-0.9
					c0.6-0.7,1.4-1.3,2.3-1.8s2-0.7,3.1-0.7c1.2,0,2.2,0.3,3.1,0.8c0.9,0.5,1.7,1.3,2.2,2.2s0.8,2.1,0.8,3.3c0,1.2-0.3,2.3-0.9,3.3
					s-1.4,1.7-2.4,2.2C525.8,137.5,524.6,137.8,523.3,137.8z M522.8,135.7c0.8,0,1.5-0.2,2.2-0.5s1.2-0.8,1.6-1.4
					c0.4-0.6,0.6-1.3,0.6-2.1c0-0.8-0.2-1.5-0.6-2.1c-0.4-0.6-0.9-1.1-1.5-1.4s-1.3-0.5-2.1-0.5c-0.7,0-1.4,0.1-2,0.4
					c-0.6,0.3-1.1,0.6-1.4,1.1c-0.4,0.5-0.7,1-0.8,1.6v2c0.1,0.6,0.3,1.1,0.7,1.6c0.4,0.5,0.9,0.8,1.4,1.1
					C521.5,135.5,522.1,135.7,522.8,135.7z"/>
			</g>
		</g>
		<g>
			<g class="st2">
				<path class="st3" d="M539.6,137.8c-1.4,0-2.6-0.3-3.7-0.8c-1-0.5-1.8-1.3-2.4-2.2c-0.6-0.9-0.8-2-0.8-3.2c0-1.2,0.3-2.2,0.9-3.1
					c0.6-0.9,1.5-1.7,2.5-2.3c1-0.6,2.2-0.9,3.5-0.9c1.6,0,3,0.5,4.1,1.4c1.1,0.9,1.8,2.2,2.2,3.7l-10.3,3.4l-0.7-1.6l8.4-2.9
					l-0.6,0.4c-0.2-0.6-0.6-1.2-1.2-1.6c-0.6-0.5-1.3-0.7-2.2-0.7c-0.8,0-1.4,0.2-2,0.5c-0.6,0.3-1.1,0.8-1.4,1.4
					c-0.3,0.6-0.5,1.3-0.5,2.1s0.2,1.5,0.5,2.1c0.4,0.6,0.8,1.1,1.5,1.5s1.3,0.5,2.1,0.5c0.5,0,1.1-0.1,1.6-0.3
					c0.5-0.2,1-0.4,1.5-0.7l1.3,2c-0.6,0.4-1.3,0.7-2.1,1C541.1,137.6,540.4,137.8,539.6,137.8z"/>
			</g>
		</g>
		<g>
			<g class="st2">
				<path class="st3" d="M554.1,137.8l-6.9-12.1h3.3l4.7,9.3l-1.7-0.1l4.3-9.2h3.1l-6.6,12.1H554.1z"/>
				<path class="st3" d="M562.8,131.5c0-1.2,0.3-2.2,0.9-3.2c0.6-0.9,1.4-1.7,2.5-2.2c1.1-0.5,2.2-0.8,3.6-0.8
					c1.3,0,2.5,0.3,3.5,0.8c1,0.5,1.8,1.3,2.4,2.2s0.9,2,0.9,3.2c0,1.2-0.3,2.2-0.9,3.2c-0.6,0.9-1.4,1.7-2.4,2.3
					c-1,0.6-2.2,0.8-3.6,0.8c-1.3,0-2.5-0.3-3.6-0.8c-1-0.5-1.8-1.2-2.4-2.2C563.1,133.9,562.8,132.8,562.8,131.5z M565.6,131.5
					c0,0.8,0.2,1.4,0.5,2.1c0.4,0.6,0.8,1.1,1.4,1.5c0.6,0.4,1.3,0.5,2,0.5c0.8,0,1.5-0.2,2.1-0.5c0.6-0.4,1.1-0.8,1.4-1.5
					s0.5-1.3,0.5-2.1s-0.2-1.4-0.5-2.1c-0.4-0.6-0.8-1.1-1.4-1.5c-0.6-0.4-1.3-0.6-2.1-0.6c-0.8,0-1.4,0.2-2.1,0.6
					c-0.6,0.4-1.1,0.9-1.4,1.5C565.8,130.1,565.6,130.8,565.6,131.5z"/>
				<path class="st3" d="M580.3,115.5h2.8v21.9h-2.8V115.5z"/>
				<path class="st3" d="M593.7,137.8c-1.4,0-2.6-0.3-3.7-0.8c-1-0.5-1.8-1.3-2.4-2.2c-0.6-0.9-0.8-2-0.8-3.2c0-1.2,0.3-2.2,0.9-3.1
					c0.6-0.9,1.5-1.7,2.5-2.3c1-0.6,2.2-0.9,3.5-0.9c1.6,0,3,0.5,4.1,1.4c1.1,0.9,1.8,2.2,2.2,3.7l-10.3,3.4l-0.7-1.6l8.4-2.9
					l-0.6,0.4c-0.2-0.6-0.6-1.2-1.2-1.6c-0.6-0.5-1.3-0.7-2.2-0.7c-0.8,0-1.4,0.2-2,0.5c-0.6,0.3-1.1,0.8-1.4,1.4
					c-0.3,0.6-0.5,1.3-0.5,2.1s0.2,1.5,0.5,2.1c0.4,0.6,0.8,1.1,1.5,1.5s1.3,0.5,2.1,0.5c0.5,0,1.1-0.1,1.6-0.3
					c0.5-0.2,1-0.4,1.5-0.7l1.3,2c-0.6,0.4-1.3,0.7-2.1,1C595.2,137.6,594.5,137.8,593.7,137.8z"/>
				<path class="st3" d="M618.1,137.8c-1.2,0-2.2-0.3-3.1-0.8c-0.9-0.5-1.7-1.3-2.2-2.2c-0.6-1-0.8-2.1-0.8-3.3
					c0-1.3,0.3-2.4,0.9-3.3c0.6-0.9,1.4-1.6,2.3-2.1c1-0.5,2.1-0.7,3.3-0.7c1,0,1.9,0.2,2.8,0.6c0.9,0.4,1.6,0.9,2.1,1.6l-0.1,0.9
					v-12.9h2.8v21.9h-2.8v-2.9l0.3,0.7c-0.6,0.7-1.4,1.3-2.3,1.8S619.3,137.8,618.1,137.8z M619,135.5c0.7,0,1.4-0.1,2-0.4
					c0.6-0.3,1.1-0.6,1.4-1.1c0.4-0.4,0.7-1,0.8-1.6v-2.2c-0.2-0.6-0.4-1.1-0.9-1.5c-0.4-0.4-0.9-0.8-1.5-1
					c-0.6-0.2-1.2-0.4-1.9-0.4c-0.7,0-1.4,0.2-2.1,0.5c-0.6,0.3-1.2,0.8-1.5,1.4c-0.4,0.6-0.6,1.3-0.6,2.1c0,0.8,0.2,1.5,0.6,2.1
					c0.4,0.6,0.9,1.1,1.5,1.5C617.6,135.3,618.3,135.5,619,135.5z"/>
				<path class="st3" d="M630.7,121.5c0-0.4,0.2-0.8,0.5-1c0.3-0.3,0.7-0.4,1.2-0.4c0.4,0,0.8,0.1,1.1,0.4c0.3,0.3,0.5,0.6,0.5,1
					c0,0.4-0.2,0.8-0.5,1.1c-0.3,0.3-0.7,0.4-1.1,0.4c-0.4,0-0.8-0.1-1.2-0.4C630.9,122.3,630.7,121.9,630.7,121.5z M630.9,125.8
					h2.8v11.7h-2.8V125.8z"/>
			</g>
		</g>
		<g>
			<g class="st2">
				<path class="st3" d="M31.6,171.8c-1.2,0-2.2-0.2-3.2-0.7c-1-0.5-1.7-1.2-2.3-2.1c-0.6-0.9-0.8-2-0.8-3.4c0-1.3,0.3-2.5,0.9-3.4
					c0.6-0.9,1.4-1.7,2.3-2.2c1-0.5,2.1-0.8,3.2-0.8s2.1,0.2,3,0.8c0.8,0.5,1.4,1.1,1.8,1.8l-0.2,0.4l0.3-2.5h2.6v11.7h-2.8v-3.1
					l0.3,0.7c-0.1,0.2-0.3,0.4-0.6,0.7c-0.3,0.3-0.6,0.6-1.1,0.9c-0.4,0.3-0.9,0.6-1.5,0.8C33,171.7,32.3,171.8,31.6,171.8z
					 M32.4,169.6c0.7,0,1.3-0.1,1.9-0.4c0.6-0.2,1-0.6,1.4-1s0.6-1,0.8-1.6v-2.3c-0.2-0.6-0.4-1.1-0.8-1.5c-0.4-0.4-0.9-0.8-1.4-1
					s-1.2-0.4-1.8-0.4c-0.8,0-1.5,0.2-2.1,0.5c-0.6,0.3-1.1,0.8-1.5,1.4s-0.6,1.3-0.6,2.1c0,0.8,0.2,1.4,0.6,2.1
					c0.4,0.6,0.9,1.1,1.5,1.5C30.9,169.4,31.6,169.6,32.4,169.6z"/>
				<path class="st3" d="M49.1,171.9l-6.9-12.1h3.3l4.7,9.3l-1.7-0.1l4.3-9.2h3.1l-6.6,12.1H49.1z"/>
				<path class="st3" d="M64.7,171.8c-1.4,0-2.6-0.3-3.7-0.8c-1-0.5-1.8-1.3-2.4-2.2c-0.6-0.9-0.8-2-0.8-3.2c0-1.2,0.3-2.2,0.9-3.1
					c0.6-0.9,1.5-1.7,2.5-2.3c1-0.6,2.2-0.8,3.5-0.8c1.6,0,3,0.5,4.1,1.4c1.1,0.9,1.8,2.2,2.2,3.7l-10.3,3.4l-0.7-1.6l8.4-2.9
					l-0.6,0.4c-0.2-0.6-0.6-1.2-1.2-1.6c-0.6-0.5-1.3-0.7-2.2-0.7c-0.8,0-1.4,0.2-2,0.5c-0.6,0.3-1.1,0.8-1.4,1.4
					c-0.3,0.6-0.5,1.3-0.5,2.1s0.2,1.5,0.5,2.1c0.4,0.6,0.8,1.1,1.5,1.5c0.6,0.3,1.3,0.5,2.1,0.5c0.5,0,1.1-0.1,1.6-0.3
					c0.5-0.2,1-0.4,1.5-0.7l1.3,2c-0.6,0.4-1.3,0.7-2.1,1C66.2,171.7,65.4,171.8,64.7,171.8z"/>
				<path class="st3" d="M77,159.8l0.3,3.4l-0.1-0.5c0.3-0.7,0.8-1.3,1.4-1.8s1.2-0.9,1.9-1.2c0.7-0.3,1.3-0.4,1.7-0.4l-0.1,2.7
					c-1-0.1-1.8,0.1-2.5,0.5c-0.7,0.4-1.3,0.9-1.7,1.6c-0.4,0.7-0.6,1.4-0.6,2.1v5.4h-2.8v-11.7H77z"/>
				<path class="st3" d="M91.6,171.8c-1.4,0-2.6-0.3-3.7-0.8c-1-0.5-1.8-1.3-2.4-2.2c-0.6-0.9-0.8-2-0.8-3.2c0-1.2,0.3-2.2,0.9-3.1
					c0.6-0.9,1.5-1.7,2.5-2.3c1-0.6,2.2-0.8,3.5-0.8c1.6,0,3,0.5,4.1,1.4c1.1,0.9,1.8,2.2,2.2,3.7l-10.3,3.4l-0.7-1.6l8.4-2.9
					l-0.6,0.4c-0.2-0.6-0.6-1.2-1.2-1.6c-0.6-0.5-1.3-0.7-2.2-0.7c-0.8,0-1.4,0.2-2,0.5c-0.6,0.3-1.1,0.8-1.4,1.4
					c-0.3,0.6-0.5,1.3-0.5,2.1s0.2,1.5,0.5,2.1c0.4,0.6,0.8,1.1,1.5,1.5c0.6,0.3,1.3,0.5,2.1,0.5c0.5,0,1.1-0.1,1.6-0.3
					c0.5-0.2,1-0.4,1.5-0.7l1.3,2c-0.6,0.4-1.3,0.7-2.1,1C93.1,171.7,92.4,171.8,91.6,171.8z"/>
				<path class="st3" d="M110.8,155.5c0-0.4,0.2-0.8,0.5-1s0.7-0.4,1.2-0.4c0.4,0,0.8,0.1,1.1,0.4s0.5,0.6,0.5,1
					c0,0.4-0.2,0.8-0.5,1.1s-0.7,0.4-1.1,0.4c-0.4,0-0.8-0.1-1.2-0.4S110.8,156,110.8,155.5z M110.9,159.8h2.8v11.7h-2.8V159.8z"/>
				<path class="st3" d="M118.6,149.6h2.8v21.9h-2.8V149.6z"/>
				<path class="st3" d="M139.3,171.7c-0.9,0-1.7-0.1-2.6-0.4c-0.8-0.3-1.5-0.7-2.1-1.3l1.2-1.5c0.5,0.5,1.1,0.8,1.6,1.1
					s1.1,0.4,1.6,0.4c0.4,0,0.8,0,1.1-0.1c0.3-0.1,0.6-0.3,0.8-0.5c0.2-0.2,0.3-0.5,0.3-0.9c0-0.4-0.1-0.8-0.4-1
					c-0.3-0.2-0.7-0.4-1.1-0.6c-0.4-0.2-0.9-0.3-1.4-0.4c-1-0.3-1.8-0.8-2.3-1.3c-0.5-0.6-0.8-1.3-0.8-2.1c0-0.6,0.2-1.2,0.5-1.7
					s0.8-1,1.5-1.3c0.7-0.3,1.5-0.5,2.4-0.5c0.9,0,1.6,0.1,2.3,0.3c0.7,0.2,1.3,0.5,1.9,1l-1.1,1.6c-0.4-0.4-0.8-0.6-1.3-0.8
					c-0.5-0.2-0.9-0.3-1.3-0.3c-0.4,0-0.7,0.1-1,0.2c-0.3,0.1-0.6,0.3-0.8,0.5c-0.2,0.2-0.3,0.4-0.3,0.8c0,0.4,0.1,0.7,0.4,1
					c0.3,0.2,0.7,0.4,1.1,0.6c0.4,0.2,0.9,0.3,1.4,0.5c0.6,0.2,1.1,0.4,1.6,0.7s0.9,0.6,1.2,1c0.3,0.4,0.4,0.9,0.4,1.6
					c0,0.7-0.2,1.3-0.5,1.9c-0.4,0.6-0.9,1.1-1.6,1.4C141.3,171.6,140.4,171.7,139.3,171.7z"/>
				<path class="st3" d="M152,172c-1.2,0-2.1-0.3-2.8-1c-0.7-0.7-1.1-1.5-1.2-2.5v-8.7h2.8v7.7c0,0.6,0.2,1.1,0.6,1.5
					c0.4,0.4,0.9,0.6,1.7,0.6c0.7,0,1.3-0.2,1.8-0.6c0.6-0.4,1-0.9,1.3-1.6c0.3-0.7,0.5-1.4,0.5-2.3v-5.5h2.8v11.7H157l-0.2-2.9
					l0.2,0.5c-0.3,0.5-0.6,1-1.1,1.4s-1.1,0.8-1.7,1C153.5,171.9,152.7,172,152,172z"/>
				<path class="st3" d="M171.8,171.8c-0.9,0-1.8-0.2-2.7-0.6s-1.5-1-2-1.7l0.2-0.8v8.5h-2.8v-17.5h2.4l0.4,3l-0.3-0.9
					c0.6-0.7,1.4-1.3,2.3-1.8c0.9-0.5,2-0.7,3.1-0.7c1.2,0,2.2,0.3,3.1,0.8s1.7,1.3,2.2,2.2c0.5,1,0.8,2.1,0.8,3.3
					c0,1.2-0.3,2.3-0.9,3.3c-0.6,0.9-1.4,1.7-2.4,2.2C174.2,171.6,173,171.8,171.8,171.8z M171.2,169.7c0.8,0,1.5-0.2,2.2-0.5
					c0.7-0.3,1.2-0.8,1.6-1.4c0.4-0.6,0.6-1.3,0.6-2.1c0-0.8-0.2-1.5-0.6-2.1c-0.4-0.6-0.9-1.1-1.5-1.4c-0.6-0.3-1.3-0.5-2.1-0.5
					c-0.7,0-1.4,0.1-2,0.4c-0.6,0.3-1.1,0.6-1.4,1.1c-0.4,0.5-0.7,1-0.8,1.6v2c0.1,0.6,0.3,1.1,0.7,1.6c0.4,0.5,0.9,0.8,1.4,1.1
					C169.9,169.6,170.6,169.7,171.2,169.7z"/>
				<path class="st3" d="M189.6,171.8c-0.9,0-1.8-0.2-2.7-0.6s-1.5-1-2-1.7l0.2-0.8v8.5h-2.8v-17.5h2.4l0.4,3l-0.3-0.9
					c0.6-0.7,1.4-1.3,2.3-1.8c0.9-0.5,2-0.7,3.1-0.7c1.2,0,2.2,0.3,3.1,0.8s1.7,1.3,2.2,2.2c0.5,1,0.8,2.1,0.8,3.3
					c0,1.2-0.3,2.3-0.9,3.3c-0.6,0.9-1.4,1.7-2.4,2.2C192,171.6,190.9,171.8,189.6,171.8z M189,169.7c0.8,0,1.5-0.2,2.2-0.5
					c0.7-0.3,1.2-0.8,1.6-1.4c0.4-0.6,0.6-1.3,0.6-2.1c0-0.8-0.2-1.5-0.6-2.1c-0.4-0.6-0.9-1.1-1.5-1.4c-0.6-0.3-1.3-0.5-2.1-0.5
					c-0.7,0-1.4,0.1-2,0.4c-0.6,0.3-1.1,0.6-1.4,1.1c-0.4,0.5-0.7,1-0.8,1.6v2c0.1,0.6,0.3,1.1,0.7,1.6c0.4,0.5,0.9,0.8,1.4,1.1
					C187.8,169.6,188.4,169.7,189,169.7z"/>
				<path class="st3" d="M199,165.5c0-1.2,0.3-2.2,0.9-3.2c0.6-0.9,1.4-1.7,2.5-2.2c1.1-0.5,2.2-0.8,3.6-0.8c1.3,0,2.5,0.3,3.5,0.8
					c1,0.5,1.8,1.3,2.4,2.2c0.6,0.9,0.9,2,0.9,3.2s-0.3,2.2-0.9,3.2c-0.6,0.9-1.4,1.7-2.4,2.3c-1,0.6-2.2,0.8-3.6,0.8
					c-1.3,0-2.5-0.3-3.6-0.8c-1-0.5-1.8-1.2-2.4-2.2S199,166.8,199,165.5z M201.8,165.6c0,0.8,0.2,1.4,0.5,2.1
					c0.4,0.6,0.8,1.1,1.4,1.5c0.6,0.4,1.3,0.5,2,0.5c0.8,0,1.5-0.2,2.1-0.5c0.6-0.4,1.1-0.8,1.4-1.5c0.4-0.6,0.5-1.3,0.5-2.1
					c0-0.8-0.2-1.4-0.5-2.1c-0.4-0.6-0.8-1.1-1.4-1.5s-1.3-0.6-2.1-0.6c-0.8,0-1.4,0.2-2.1,0.6c-0.6,0.4-1.1,0.9-1.4,1.5
					C202,164.2,201.8,164.8,201.8,165.6z"/>
				<path class="st3" d="M218.9,159.8l0.3,3.4l-0.1-0.5c0.3-0.7,0.8-1.3,1.4-1.8s1.2-0.9,1.9-1.2c0.7-0.3,1.3-0.4,1.7-0.4L224,162
					c-1-0.1-1.8,0.1-2.5,0.5c-0.7,0.4-1.3,0.9-1.7,1.6c-0.4,0.7-0.6,1.4-0.6,2.1v5.4h-2.8v-11.7H218.9z"/>
				<path class="st3" d="M228.9,154.6h2.9v5.2h3.4v2.1h-3.4v9.6h-2.9v-9.6h-2.3v-2.1h2.3V154.6z"/>
				<path class="st3" d="M237.4,165.5c0-1.2,0.3-2.2,0.9-3.2c0.6-0.9,1.4-1.7,2.5-2.2c1.1-0.5,2.2-0.8,3.6-0.8
					c1.3,0,2.5,0.3,3.5,0.8c1,0.5,1.8,1.3,2.4,2.2c0.6,0.9,0.9,2,0.9,3.2s-0.3,2.2-0.9,3.2c-0.6,0.9-1.4,1.7-2.4,2.3
					c-1,0.6-2.2,0.8-3.6,0.8c-1.3,0-2.5-0.3-3.6-0.8c-1-0.5-1.8-1.2-2.4-2.2S237.4,166.8,237.4,165.5z M240.3,165.6
					c0,0.8,0.2,1.4,0.5,2.1c0.4,0.6,0.8,1.1,1.4,1.5c0.6,0.4,1.3,0.5,2,0.5c0.8,0,1.5-0.2,2.1-0.5c0.6-0.4,1.1-0.8,1.4-1.5
					c0.4-0.6,0.5-1.3,0.5-2.1c0-0.8-0.2-1.4-0.5-2.1c-0.4-0.6-0.8-1.1-1.4-1.5s-1.3-0.6-2.1-0.6c-0.8,0-1.4,0.2-2.1,0.6
					c-0.6,0.4-1.1,0.9-1.4,1.5C240.4,164.2,240.3,164.8,240.3,165.6z"/>
				<path class="st3" d="M269.5,171.8c-1.2,0-2.2-0.3-3.1-0.8c-0.9-0.5-1.7-1.3-2.2-2.2c-0.6-1-0.8-2.1-0.8-3.3
					c0-1.3,0.3-2.4,0.9-3.3c0.6-0.9,1.4-1.6,2.3-2.1c1-0.5,2.1-0.7,3.3-0.7c1,0,1.9,0.2,2.8,0.6c0.9,0.4,1.6,0.9,2.1,1.6l-0.2,0.9
					v-12.9h2.8v21.9h-2.8v-2.9l0.3,0.7c-0.6,0.7-1.4,1.3-2.3,1.8S270.6,171.8,269.5,171.8z M270.4,169.6c0.7,0,1.4-0.1,2-0.4
					c0.6-0.3,1.1-0.6,1.4-1.1c0.4-0.4,0.7-1,0.8-1.6v-2.2c-0.2-0.6-0.4-1.1-0.9-1.5c-0.4-0.4-0.9-0.8-1.5-1
					c-0.6-0.2-1.2-0.4-1.9-0.4c-0.7,0-1.4,0.2-2.1,0.5c-0.6,0.3-1.2,0.8-1.5,1.4c-0.4,0.6-0.6,1.3-0.6,2.1c0,0.8,0.2,1.5,0.6,2.1
					c0.4,0.6,0.9,1.1,1.5,1.5C268.9,169.4,269.6,169.6,270.4,169.6z"/>
				<path class="st3" d="M288,171.8c-1.4,0-2.6-0.3-3.7-0.8c-1-0.5-1.8-1.3-2.4-2.2c-0.6-0.9-0.8-2-0.8-3.2c0-1.2,0.3-2.2,0.9-3.1
					c0.6-0.9,1.5-1.7,2.5-2.3c1-0.6,2.2-0.8,3.5-0.8c1.6,0,3,0.5,4.1,1.4c1.1,0.9,1.8,2.2,2.2,3.7l-10.3,3.4l-0.7-1.6l8.4-2.9
					l-0.6,0.4c-0.2-0.6-0.6-1.2-1.2-1.6c-0.6-0.5-1.3-0.7-2.2-0.7c-0.8,0-1.4,0.2-2,0.5c-0.6,0.3-1.1,0.8-1.4,1.4
					c-0.3,0.6-0.5,1.3-0.5,2.1s0.2,1.5,0.5,2.1c0.4,0.6,0.8,1.1,1.5,1.5c0.6,0.3,1.3,0.5,2.1,0.5c0.5,0,1.1-0.1,1.6-0.3
					c0.5-0.2,1-0.4,1.5-0.7l1.3,2c-0.6,0.4-1.3,0.7-2.1,1C289.5,171.7,288.8,171.8,288,171.8z"/>
				<path class="st3" d="M297.7,155.5c0-0.4,0.2-0.8,0.5-1c0.3-0.3,0.7-0.4,1.2-0.4c0.4,0,0.8,0.1,1.1,0.4c0.3,0.3,0.5,0.6,0.5,1
					c0,0.4-0.2,0.8-0.5,1.1c-0.3,0.3-0.7,0.4-1.1,0.4c-0.4,0-0.8-0.1-1.2-0.4C297.8,156.3,297.7,156,297.7,155.5z M297.8,159.8h2.8
					v11.7h-2.8V159.8z"/>
				<path class="st3" d="M321,177.4c-0.9,0-1.7-0.1-2.4-0.3s-1.4-0.5-1.9-0.8c-0.6-0.4-1.1-0.8-1.7-1.2l1.7-1.8c0.7,0.6,1.3,1,2,1.3
					c0.7,0.3,1.4,0.5,2.3,0.5c0.9,0,1.7-0.1,2.4-0.4c0.7-0.3,1.1-0.7,1.5-1.2c0.3-0.5,0.5-1.1,0.5-1.8l0-3.2l0.2,0.5
					c-0.4,0.8-1,1.5-2,2.1c-0.9,0.6-2.1,0.8-3.4,0.8c-1.1,0-2.2-0.3-3.1-0.8s-1.7-1.3-2.3-2.2s-0.9-2-0.9-3.2c0-1.2,0.3-2.3,0.9-3.3
					c0.6-0.9,1.4-1.7,2.4-2.2c1-0.5,2.1-0.8,3.2-0.8c1.1,0,2.1,0.2,3,0.6c0.9,0.4,1.6,1,2,1.6l-0.2,0.5l0.3-2.3h2.6v11.8
					c0,1.1-0.3,2-0.9,2.9s-1.4,1.6-2.5,2.1C323.8,177.1,322.5,177.4,321,177.4z M316.8,165.5c0,0.8,0.2,1.4,0.6,2.1
					c0.4,0.6,0.9,1.1,1.6,1.5c0.7,0.4,1.4,0.5,2.1,0.5c0.7,0,1.4-0.1,2-0.4c0.6-0.3,1.1-0.6,1.5-1.1c0.4-0.5,0.7-1,0.8-1.5v-2.4
					c-0.2-0.6-0.5-1.1-0.9-1.5s-0.9-0.7-1.5-1c-0.6-0.2-1.2-0.4-1.9-0.4c-0.8,0-1.5,0.2-2.1,0.5c-0.7,0.3-1.2,0.8-1.6,1.4
					S316.8,164.7,316.8,165.5z"/>
				<path class="st3" d="M338.8,171.8c-1.4,0-2.6-0.3-3.7-0.8c-1-0.5-1.8-1.3-2.4-2.2c-0.6-0.9-0.8-2-0.8-3.2c0-1.2,0.3-2.2,0.9-3.1
					c0.6-0.9,1.5-1.7,2.5-2.3c1-0.6,2.2-0.8,3.5-0.8c1.6,0,3,0.5,4.1,1.4c1.1,0.9,1.8,2.2,2.2,3.7l-10.3,3.4l-0.7-1.6l8.4-2.9
					l-0.6,0.4c-0.2-0.6-0.6-1.2-1.2-1.6c-0.6-0.5-1.3-0.7-2.2-0.7c-0.8,0-1.4,0.2-2,0.5c-0.6,0.3-1.1,0.8-1.4,1.4s-0.5,1.3-0.5,2.1
					s0.2,1.5,0.5,2.1s0.8,1.1,1.5,1.5s1.3,0.5,2.1,0.5c0.5,0,1.1-0.1,1.6-0.3c0.5-0.2,1-0.4,1.5-0.7l1.3,2c-0.6,0.4-1.3,0.7-2.1,1
					C340.3,171.7,339.5,171.8,338.8,171.8z"/>
				<path class="st3" d="M351.2,159.8l0.2,2.9l-0.1-0.5c0.4-0.9,1-1.6,1.9-2.1s2-0.8,3.2-0.8c1.2,0,2.1,0.3,2.9,1
					c0.8,0.7,1.1,1.5,1.2,2.5v8.7h-2.8v-7.8c0-0.6-0.2-1.1-0.6-1.5c-0.4-0.4-0.9-0.6-1.7-0.6c-0.7,0-1.3,0.2-1.9,0.6
					c-0.6,0.4-1.1,0.9-1.4,1.6c-0.3,0.7-0.5,1.4-0.5,2.3v5.5h-2.8v-11.7H351.2z"/>
				<path class="st3" d="M365.1,155.5c0-0.4,0.2-0.8,0.5-1c0.3-0.3,0.7-0.4,1.2-0.4c0.4,0,0.8,0.1,1.1,0.4c0.3,0.3,0.5,0.6,0.5,1
					c0,0.4-0.2,0.8-0.5,1.1c-0.3,0.3-0.7,0.4-1.1,0.4c-0.4,0-0.8-0.1-1.2-0.4C365.2,156.3,365.1,156,365.1,155.5z M365.3,159.8h2.8
					v11.7h-2.8V159.8z"/>
				<path class="st3" d="M374.1,154.6h2.9v5.2h3.4v2.1H377v9.6h-2.9v-9.6h-2.3v-2.1h2.3V154.6z"/>
				<path class="st3" d="M382.7,165.5c0-1.2,0.3-2.2,0.9-3.2c0.6-0.9,1.4-1.7,2.5-2.2c1.1-0.5,2.2-0.8,3.6-0.8
					c1.3,0,2.5,0.3,3.5,0.8c1,0.5,1.8,1.3,2.4,2.2c0.6,0.9,0.9,2,0.9,3.2s-0.3,2.2-0.9,3.2s-1.4,1.7-2.4,2.3c-1,0.6-2.2,0.8-3.6,0.8
					c-1.3,0-2.5-0.3-3.6-0.8c-1-0.5-1.8-1.2-2.4-2.2C383,167.9,382.7,166.8,382.7,165.5z M385.5,165.6c0,0.8,0.2,1.4,0.5,2.1
					c0.4,0.6,0.8,1.1,1.4,1.5c0.6,0.4,1.3,0.5,2,0.5c0.8,0,1.5-0.2,2.1-0.5c0.6-0.4,1.1-0.8,1.4-1.5s0.5-1.3,0.5-2.1
					c0-0.8-0.2-1.4-0.5-2.1c-0.4-0.6-0.8-1.1-1.4-1.5c-0.6-0.4-1.3-0.6-2.1-0.6c-0.8,0-1.4,0.2-2.1,0.6c-0.6,0.4-1.1,0.9-1.4,1.5
					C385.7,164.2,385.5,164.8,385.5,165.6z"/>
				<path class="st3" d="M402.6,159.8l0.3,3.4l-0.1-0.5c0.3-0.7,0.8-1.3,1.4-1.8s1.2-0.9,1.9-1.2c0.7-0.3,1.3-0.4,1.7-0.4l-0.1,2.7
					c-1-0.1-1.8,0.1-2.5,0.5c-0.7,0.4-1.3,0.9-1.7,1.6c-0.4,0.7-0.6,1.4-0.6,2.1v5.4h-2.8v-11.7H402.6z"/>
				<path class="st3" d="M411.2,155.5c0-0.4,0.2-0.8,0.5-1c0.3-0.3,0.7-0.4,1.2-0.4c0.4,0,0.8,0.1,1.1,0.4c0.3,0.3,0.5,0.6,0.5,1
					c0,0.4-0.2,0.8-0.5,1.1c-0.3,0.3-0.7,0.4-1.1,0.4c-0.4,0-0.8-0.1-1.2-0.4C411.4,156.3,411.2,156,411.2,155.5z M411.4,159.8h2.8
					v11.7h-2.8V159.8z"/>
				<path class="st3" d="M418.2,168.9c0.3-0.3,0.7-0.5,1.1-0.5c0.4,0,0.7,0.2,1,0.5c0.3,0.3,0.5,0.7,0.5,1.1c0,0.5-0.2,0.8-0.5,1.1
					c-0.3,0.3-0.7,0.4-1,0.4c-0.4,0-0.8-0.1-1.1-0.4c-0.3-0.3-0.5-0.6-0.5-1.1C417.7,169.6,417.9,169.2,418.2,168.9z"/>
			</g>
		</g>
	</g>
</g>
</svg>
