<?xml version="1.0" encoding="utf-8"?>
<!-- Generator: Adobe Illustrator 26.3.1, SVG Export Plug-In . SVG Version: 6.00 Build 0)  -->
<svg version="1.1" id="Livello_1" xmlns="http://www.w3.org/2000/svg" xmlns:xlink="http://www.w3.org/1999/xlink" x="0px" y="0px"
	 viewBox="0 0 672 244" style="enable-background:new 0 0 672 244;" xml:space="preserve">
<style type="text/css">
	.st0{fill:#FFFFFF;}
	.st1{enable-background:new    ;}
	.st2{fill:#846B4A;}
</style>
<g id="Livello_2_00000107571717416805953270000017500432144935834282_">
	<g id="illustrazioni">
		<path class="st0" d="M21.3,0h629.4C662.5,0,672,9.5,672,21.3v201.4c0,11.8-9.5,21.3-21.3,21.3H21.3C9.5,244,0,234.5,0,222.7V21.3
			C0,9.5,9.5,0,21.3,0z"/>
	</g>
	<g id="testi">
		<g>
			<g class="st1">
				<path class="st2" d="M19.1,46.5V25.3h0l11.4,15.3l-1.2-0.3l11.4-15h0v21.1h-2.9V31.6L38,33l-8.2,10.9h-0.1L21.5,33l0.5-1.3v14.8
					H19.1z"/>
				<path class="st2" d="M51.5,46.8c-1.2,0-2.2-0.2-3.2-0.7c-1-0.5-1.7-1.2-2.3-2.1c-0.6-0.9-0.8-2-0.8-3.4c0-1.3,0.3-2.5,0.9-3.4
					c0.6-0.9,1.4-1.7,2.3-2.2c1-0.5,2.1-0.8,3.2-0.8s2.1,0.3,3,0.8c0.8,0.5,1.4,1.1,1.8,1.8l-0.2,0.4l0.3-2.5h2.6v11.7h-2.8v-3.1
					l0.3,0.7c-0.1,0.2-0.3,0.4-0.6,0.7c-0.3,0.3-0.6,0.6-1.1,0.9c-0.4,0.3-0.9,0.6-1.5,0.8C52.9,46.7,52.2,46.8,51.5,46.8z
					 M52.2,44.6c0.7,0,1.3-0.1,1.9-0.4c0.6-0.2,1-0.6,1.4-1s0.6-1,0.8-1.6v-2.3c-0.2-0.6-0.4-1.1-0.8-1.5c-0.4-0.4-0.9-0.8-1.4-1
					c-0.6-0.2-1.2-0.4-1.8-0.4c-0.8,0-1.5,0.2-2.1,0.5c-0.6,0.3-1.1,0.8-1.5,1.4S48,39.7,48,40.5c0,0.8,0.2,1.4,0.6,2.1
					c0.4,0.6,0.9,1.1,1.5,1.5C50.8,44.4,51.5,44.6,52.2,44.6z"/>
				<path class="st2" d="M65.1,29.6H68v5.2h3.4v2.1H68v9.6h-2.9v-9.6h-2.3v-2.1h2.3V29.6z"/>
				<path class="st2" d="M75.9,29.6h2.9v5.2h3.4v2.1h-3.4v9.6h-2.9v-9.6h-2.3v-2.1h2.3V29.6z"/>
				<path class="st2" d="M85.4,30.5c0-0.4,0.2-0.8,0.5-1c0.4-0.3,0.7-0.4,1.2-0.4c0.4,0,0.8,0.1,1.1,0.4c0.3,0.3,0.5,0.6,0.5,1
					c0,0.4-0.2,0.8-0.5,1.1C87.8,31.8,87.5,32,87,32c-0.4,0-0.8-0.1-1.2-0.4C85.5,31.3,85.4,30.9,85.4,30.5z M85.5,34.7h2.8v11.7
					h-2.8V34.7z"/>
				<path class="st2" d="M98.4,46.8c-1.2,0-2.2-0.2-3.2-0.7c-1-0.5-1.7-1.2-2.3-2.1c-0.6-0.9-0.8-2-0.8-3.4c0-1.3,0.3-2.5,0.9-3.4
					c0.6-0.9,1.4-1.7,2.3-2.2c1-0.5,2.1-0.8,3.2-0.8s2.1,0.3,3,0.8c0.8,0.5,1.4,1.1,1.8,1.8l-0.2,0.4l0.3-2.5h2.6v11.7h-2.8v-3.1
					l0.3,0.7c-0.1,0.2-0.3,0.4-0.6,0.7c-0.3,0.3-0.6,0.6-1.1,0.9c-0.4,0.3-0.9,0.6-1.5,0.8C99.8,46.7,99.1,46.8,98.4,46.8z
					 M99.1,44.6c0.7,0,1.3-0.1,1.9-0.4c0.6-0.2,1-0.6,1.4-1s0.6-1,0.8-1.6v-2.3c-0.2-0.6-0.4-1.1-0.8-1.5c-0.4-0.4-0.9-0.8-1.4-1
					c-0.6-0.2-1.2-0.4-1.8-0.4c-0.8,0-1.5,0.2-2.1,0.5c-0.6,0.3-1.1,0.8-1.5,1.4S95,39.7,95,40.5c0,0.8,0.2,1.4,0.6,2.1
					c0.4,0.6,0.9,1.1,1.5,1.5C97.7,44.4,98.4,44.6,99.1,44.6z"/>
				<path class="st2" d="M121.4,46.5v-9.4h-2.2v-2.4h2.2v-4.9c0-1.7,0.4-3,1.2-3.9s2-1.4,3.6-1.4c0.4,0,0.9,0.1,1.4,0.2
					c0.5,0.1,0.9,0.3,1.3,0.6l-1.2,1.9c-0.2-0.2-0.4-0.3-0.6-0.4c-0.2-0.1-0.5-0.1-0.7-0.1c-0.7,0-1.3,0.2-1.7,0.7
					c-0.4,0.5-0.6,1.3-0.6,2.4v4.9h3.9v2.4h-3.9v9.4H121.4z"/>
				<path class="st2" d="M134.3,34.7l0.3,3.4l-0.1-0.5c0.3-0.7,0.8-1.3,1.4-1.8s1.2-0.9,1.9-1.2c0.7-0.3,1.3-0.4,1.7-0.4l-0.1,2.7
					c-1-0.1-1.8,0.1-2.5,0.5c-0.7,0.4-1.3,0.9-1.7,1.6c-0.4,0.7-0.6,1.4-0.6,2.1v5.4h-2.8V34.7H134.3z"/>
				<path class="st2" d="M148.9,46.8c-1.4,0-2.6-0.3-3.7-0.8c-1-0.5-1.8-1.3-2.4-2.2c-0.6-0.9-0.8-2-0.8-3.2c0-1.2,0.3-2.2,0.9-3.1
					c0.6-0.9,1.5-1.7,2.5-2.3c1-0.6,2.2-0.9,3.5-0.9c1.6,0,3,0.5,4.1,1.4c1.1,0.9,1.8,2.2,2.2,3.7l-10.3,3.4l-0.7-1.6l8.4-2.9
					l-0.6,0.4c-0.2-0.6-0.6-1.2-1.2-1.6c-0.6-0.5-1.3-0.7-2.2-0.7c-0.8,0-1.4,0.2-2,0.5c-0.6,0.3-1.1,0.8-1.4,1.4
					c-0.3,0.6-0.5,1.3-0.5,2.1s0.2,1.5,0.5,2.1c0.4,0.6,0.8,1.1,1.5,1.5c0.6,0.3,1.3,0.5,2.1,0.5c0.5,0,1.1-0.1,1.6-0.3
					c0.5-0.2,1-0.4,1.5-0.7l1.3,2c-0.6,0.4-1.3,0.7-2.1,1C150.3,46.6,149.6,46.8,148.9,46.8z"/>
				<path class="st2" d="M163.7,46.8c-1.1,0-2.1-0.3-3-0.8s-1.7-1.2-2.2-2.1c-0.6-0.9-0.8-2-0.8-3.3c0-1.3,0.3-2.4,0.9-3.3
					c0.6-0.9,1.4-1.7,2.4-2.2c1-0.5,2.1-0.8,3.3-0.8c1.1,0,2.1,0.2,3,0.7c0.9,0.5,1.6,1.1,2.1,1.8l-0.3,0.8v-3h2.8v17.5h-2.8v-8.6
					l0.2,1.1c-0.5,0.6-1.2,1.2-2.1,1.6C165.9,46.6,164.9,46.8,163.7,46.8z M164.6,44.7c0.7,0,1.4-0.1,2-0.4c0.6-0.3,1.1-0.6,1.5-1.1
					c0.4-0.5,0.6-1,0.8-1.6v-2c-0.2-0.6-0.4-1.2-0.8-1.6s-0.9-0.8-1.4-1.1c-0.6-0.3-1.2-0.4-2-0.4s-1.4,0.2-2.1,0.5
					c-0.6,0.4-1.2,0.8-1.5,1.5c-0.4,0.6-0.6,1.3-0.6,2.1c0,0.8,0.2,1.5,0.6,2.1c0.4,0.6,0.9,1.1,1.5,1.4
					C163.2,44.5,163.9,44.7,164.6,44.7z"/>
				<path class="st2" d="M180.5,46.9c-1.2,0-2.1-0.3-2.8-1c-0.7-0.7-1.1-1.5-1.2-2.5v-8.7h2.8v7.7c0,0.6,0.2,1.1,0.6,1.5
					c0.4,0.4,0.9,0.6,1.7,0.6c0.7,0,1.3-0.2,1.8-0.6c0.6-0.4,1-0.9,1.3-1.6c0.3-0.7,0.5-1.4,0.5-2.3v-5.5h2.8v11.7h-2.6l-0.2-2.9
					l0.2,0.5c-0.3,0.5-0.6,1-1.1,1.4s-1.1,0.8-1.7,1C182,46.8,181.3,46.9,180.5,46.9z"/>
				<path class="st2" d="M198.7,46.8c-1.4,0-2.6-0.3-3.7-0.8c-1-0.5-1.8-1.3-2.4-2.2c-0.6-0.9-0.8-2-0.8-3.2c0-1.2,0.3-2.2,0.9-3.1
					c0.6-0.9,1.5-1.7,2.5-2.3c1-0.6,2.2-0.9,3.5-0.9c1.6,0,3,0.5,4.1,1.4c1.1,0.9,1.8,2.2,2.2,3.7l-10.3,3.4l-0.7-1.6l8.4-2.9
					l-0.6,0.4c-0.2-0.6-0.6-1.2-1.2-1.6c-0.6-0.5-1.3-0.7-2.2-0.7c-0.8,0-1.4,0.2-2,0.5c-0.6,0.3-1.1,0.8-1.4,1.4
					c-0.3,0.6-0.5,1.3-0.5,2.1s0.2,1.5,0.5,2.1c0.4,0.6,0.8,1.1,1.5,1.5c0.6,0.3,1.3,0.5,2.1,0.5c0.5,0,1.1-0.1,1.6-0.3
					c0.5-0.2,1-0.4,1.5-0.7l1.3,2c-0.6,0.4-1.3,0.7-2.1,1C200.2,46.6,199.4,46.8,198.7,46.8z"/>
				<path class="st2" d="M211.1,34.7l0.2,2.9l-0.1-0.5c0.4-0.9,1-1.6,1.9-2.1s2-0.8,3.2-0.8c1.2,0,2.1,0.3,2.9,1
					c0.8,0.7,1.1,1.5,1.2,2.5v8.7h-2.8v-7.8c0-0.6-0.2-1.1-0.6-1.5c-0.4-0.4-0.9-0.6-1.7-0.6c-0.7,0-1.3,0.2-1.9,0.6
					c-0.6,0.4-1.1,0.9-1.4,1.6c-0.3,0.7-0.5,1.4-0.5,2.3v5.5h-2.8V34.7H211.1z"/>
				<path class="st2" d="M226.4,29.6h2.9v5.2h3.4v2.1h-3.4v9.6h-2.9v-9.6h-2.3v-2.1h2.3V29.6z"/>
				<path class="st2" d="M241.2,46.8c-1.2,0-2.2-0.2-3.2-0.7c-1-0.5-1.7-1.2-2.3-2.1c-0.6-0.9-0.8-2-0.8-3.4c0-1.3,0.3-2.5,0.9-3.4
					c0.6-0.9,1.4-1.7,2.3-2.2c1-0.5,2.1-0.8,3.2-0.8s2.1,0.3,3,0.8c0.8,0.5,1.4,1.1,1.8,1.8l-0.2,0.4l0.3-2.5h2.6v11.7H246v-3.1
					l0.3,0.7c-0.1,0.2-0.3,0.4-0.6,0.7c-0.3,0.3-0.6,0.6-1.1,0.9c-0.4,0.3-0.9,0.6-1.5,0.8C242.6,46.7,241.9,46.8,241.2,46.8z
					 M241.9,44.6c0.7,0,1.3-0.1,1.9-0.4c0.6-0.2,1-0.6,1.4-1s0.6-1,0.8-1.6v-2.3c-0.2-0.6-0.4-1.1-0.8-1.5c-0.4-0.4-0.9-0.8-1.4-1
					c-0.6-0.2-1.2-0.4-1.8-0.4c-0.8,0-1.5,0.2-2.1,0.5c-0.6,0.3-1.1,0.8-1.5,1.4s-0.6,1.3-0.6,2.1c0,0.8,0.2,1.4,0.6,2.1
					c0.4,0.6,0.9,1.1,1.5,1.5C240.5,44.4,241.2,44.6,241.9,44.6z"/>
				<path class="st2" d="M267.1,46.9c-1.2,0-2.1-0.3-2.8-1c-0.7-0.7-1.1-1.5-1.2-2.5v-8.7h2.8v7.7c0,0.6,0.2,1.1,0.6,1.5
					c0.4,0.4,0.9,0.6,1.7,0.6c0.7,0,1.3-0.2,1.8-0.6c0.6-0.4,1-0.9,1.3-1.6c0.3-0.7,0.5-1.4,0.5-2.3v-5.5h2.8v11.7h-2.6l-0.2-2.9
					l0.2,0.5c-0.3,0.5-0.6,1-1.1,1.4s-1.1,0.8-1.7,1C268.6,46.8,267.9,46.9,267.1,46.9z"/>
				<path class="st2" d="M282.1,34.7l0.2,2.9l-0.1-0.5c0.4-0.9,1-1.6,1.9-2.1s2-0.8,3.2-0.8c1.2,0,2.1,0.3,2.9,1
					c0.8,0.7,1.1,1.5,1.2,2.5v8.7h-2.8v-7.8c0-0.6-0.2-1.1-0.6-1.5c-0.4-0.4-0.9-0.6-1.7-0.6c-0.7,0-1.3,0.2-1.9,0.6
					c-0.6,0.4-1.1,0.9-1.4,1.6c-0.3,0.7-0.5,1.4-0.5,2.3v5.5h-2.8V34.7H282.1z"/>
				<path class="st2" d="M301.3,46.8c-1.2,0-2.2-0.2-3.2-0.7c-1-0.5-1.7-1.2-2.3-2.1c-0.6-0.9-0.8-2-0.8-3.4c0-1.3,0.3-2.5,0.9-3.4
					c0.6-0.9,1.4-1.7,2.3-2.2c1-0.5,2.1-0.8,3.2-0.8s2.1,0.3,3,0.8c0.8,0.5,1.4,1.1,1.8,1.8l-0.2,0.4l0.3-2.5h2.6v11.7h-2.8v-3.1
					l0.3,0.7c-0.1,0.2-0.3,0.4-0.6,0.7c-0.3,0.3-0.6,0.6-1.1,0.9c-0.4,0.3-0.9,0.6-1.5,0.8S302.1,46.8,301.3,46.8z M302.1,44.6
					c0.7,0,1.3-0.1,1.9-0.4c0.6-0.2,1-0.6,1.4-1s0.6-1,0.8-1.6v-2.3c-0.2-0.6-0.4-1.1-0.8-1.5s-0.9-0.8-1.4-1
					c-0.6-0.2-1.2-0.4-1.8-0.4c-0.8,0-1.5,0.2-2.1,0.5c-0.6,0.3-1.1,0.8-1.5,1.4c-0.4,0.6-0.6,1.3-0.6,2.1c0,0.8,0.2,1.4,0.6,2.1
					c0.4,0.6,0.9,1.1,1.5,1.5C300.6,44.4,301.3,44.6,302.1,44.6z"/>
				<path class="st2" d="M328.3,46.8c-1.2,0-2.2-0.3-3.1-0.8c-0.9-0.5-1.7-1.3-2.2-2.2c-0.6-1-0.8-2.1-0.8-3.3
					c0-1.3,0.3-2.4,0.9-3.3c0.6-0.9,1.4-1.6,2.3-2.1c1-0.5,2.1-0.7,3.3-0.7c1,0,1.9,0.2,2.8,0.6c0.9,0.4,1.6,0.9,2.1,1.6l-0.1,0.9
					V24.5h2.8v21.9h-2.8v-2.9l0.3,0.7c-0.6,0.7-1.4,1.3-2.3,1.8S329.5,46.8,328.3,46.8z M329.2,44.5c0.7,0,1.4-0.1,2-0.4
					c0.6-0.3,1.1-0.6,1.4-1.1c0.4-0.4,0.7-1,0.8-1.6v-2.2c-0.2-0.6-0.4-1.1-0.9-1.5c-0.4-0.4-0.9-0.8-1.5-1
					c-0.6-0.2-1.2-0.4-1.9-0.4c-0.7,0-1.4,0.2-2.1,0.5c-0.6,0.3-1.2,0.8-1.5,1.4c-0.4,0.6-0.6,1.3-0.6,2.1c0,0.8,0.2,1.5,0.6,2.1
					c0.4,0.6,0.9,1.1,1.5,1.5C327.8,44.3,328.5,44.5,329.2,44.5z"/>
				<path class="st2" d="M346.9,46.8c-1.4,0-2.6-0.3-3.7-0.8c-1-0.5-1.8-1.3-2.4-2.2c-0.6-0.9-0.8-2-0.8-3.2c0-1.2,0.3-2.2,0.9-3.1
					c0.6-0.9,1.5-1.7,2.5-2.3c1-0.6,2.2-0.9,3.5-0.9c1.6,0,3,0.5,4.1,1.4c1.1,0.9,1.8,2.2,2.2,3.7L343,42.8l-0.7-1.6l8.4-2.9
					l-0.6,0.4c-0.2-0.6-0.6-1.2-1.2-1.6s-1.3-0.7-2.2-0.7c-0.8,0-1.4,0.2-2,0.5c-0.6,0.3-1.1,0.8-1.4,1.4c-0.3,0.6-0.5,1.3-0.5,2.1
					s0.2,1.5,0.5,2.1c0.4,0.6,0.8,1.1,1.5,1.5s1.3,0.5,2.1,0.5c0.5,0,1.1-0.1,1.6-0.3c0.5-0.2,1-0.4,1.5-0.7l1.3,2
					c-0.6,0.4-1.3,0.7-2.1,1C348.4,46.6,347.6,46.8,346.9,46.8z"/>
				<path class="st2" d="M356.7,24.5h2.8v21.9h-2.8V24.5z"/>
				<path class="st2" d="M364.4,24.5h2.8v21.9h-2.8V24.5z"/>
				<path class="st2" d="M377.8,46.8c-1.4,0-2.6-0.3-3.7-0.8c-1-0.5-1.8-1.3-2.4-2.2c-0.6-0.9-0.8-2-0.8-3.2c0-1.2,0.3-2.2,0.9-3.1
					c0.6-0.9,1.5-1.7,2.5-2.3c1-0.6,2.2-0.9,3.5-0.9c1.6,0,3,0.5,4.1,1.4c1.1,0.9,1.8,2.2,2.2,3.7l-10.3,3.4l-0.7-1.6l8.4-2.9
					l-0.6,0.4c-0.2-0.6-0.6-1.2-1.2-1.6s-1.3-0.7-2.2-0.7c-0.8,0-1.4,0.2-2,0.5c-0.6,0.3-1.1,0.8-1.4,1.4c-0.3,0.6-0.5,1.3-0.5,2.1
					s0.2,1.5,0.5,2.1c0.4,0.6,0.8,1.1,1.5,1.5s1.3,0.5,2.1,0.5c0.5,0,1.1-0.1,1.6-0.3c0.5-0.2,1-0.4,1.5-0.7l1.3,2
					c-0.6,0.4-1.3,0.7-2.1,1C379.3,46.6,378.6,46.8,377.8,46.8z"/>
				<path class="st2" d="M399.7,34.7l0.2,2.6l-0.2-0.2c0.5-0.9,1.1-1.6,2-2.1c0.9-0.5,1.8-0.8,3-0.8c0.7,0,1.3,0.1,1.8,0.3
					c0.5,0.2,1,0.5,1.3,0.9c0.4,0.4,0.6,0.9,0.7,1.4l-0.2,0.1c0.5-0.9,1.1-1.5,2-2c0.9-0.5,1.7-0.7,2.7-0.7c1.2,0,2.2,0.3,2.9,1
					s1.1,1.5,1.1,2.5v8.7h-2.8v-7.7c0-0.6-0.2-1.1-0.5-1.5c-0.3-0.4-0.8-0.6-1.5-0.6c-0.7,0-1.4,0.2-1.9,0.6c-0.6,0.4-1,0.9-1.3,1.6
					c-0.3,0.7-0.5,1.4-0.5,2.1v5.6h-2.8v-7.7c0-0.6-0.2-1.1-0.5-1.5c-0.3-0.4-0.8-0.6-1.5-0.6c-0.7,0-1.4,0.2-1.9,0.6
					c-0.6,0.4-1,0.9-1.3,1.6c-0.3,0.7-0.5,1.4-0.5,2.2v5.5h-2.8V34.7H399.7z"/>
				<path class="st2" d="M421.8,30.5c0-0.4,0.2-0.8,0.5-1c0.3-0.3,0.7-0.4,1.2-0.4c0.4,0,0.8,0.1,1.1,0.4c0.3,0.3,0.5,0.6,0.5,1
					c0,0.4-0.2,0.8-0.5,1.1c-0.3,0.3-0.7,0.4-1.1,0.4c-0.4,0-0.8-0.1-1.2-0.4C421.9,31.3,421.8,30.9,421.8,30.5z M422,34.7h2.8v11.7
					H422V34.7z"/>
				<path class="st2" d="M435.7,52.3c-0.9,0-1.7-0.1-2.4-0.3c-0.7-0.2-1.4-0.5-1.9-0.9c-0.6-0.4-1.1-0.8-1.7-1.2l1.7-1.8
					c0.7,0.6,1.3,1,2,1.3c0.7,0.3,1.4,0.5,2.3,0.5c0.9,0,1.7-0.1,2.4-0.4c0.7-0.3,1.1-0.7,1.5-1.2c0.3-0.5,0.5-1.1,0.5-1.8l0-3.2
					l0.2,0.5c-0.4,0.8-1,1.5-2,2.1s-2.1,0.8-3.4,0.8c-1.1,0-2.2-0.3-3.1-0.8s-1.7-1.3-2.3-2.2s-0.9-2-0.9-3.2c0-1.2,0.3-2.3,0.9-3.3
					c0.6-0.9,1.4-1.7,2.4-2.2c1-0.5,2.1-0.8,3.2-0.8c1.1,0,2.1,0.2,3,0.6c0.9,0.4,1.6,1,2,1.6l-0.2,0.5l0.3-2.3h2.6v11.8
					c0,1.1-0.3,2-0.9,2.9s-1.4,1.6-2.5,2.1C438.4,52.1,437.1,52.3,435.7,52.3z M431.4,40.5c0,0.8,0.2,1.4,0.6,2.1
					c0.4,0.6,0.9,1.1,1.6,1.5c0.7,0.4,1.4,0.5,2.1,0.5c0.7,0,1.4-0.1,2-0.4c0.6-0.3,1.1-0.6,1.5-1.1c0.4-0.5,0.7-1,0.8-1.5v-2.4
					c-0.2-0.6-0.5-1.1-0.9-1.5c-0.4-0.4-0.9-0.7-1.5-1c-0.6-0.2-1.2-0.4-1.9-0.4c-0.8,0-1.5,0.2-2.1,0.5c-0.7,0.3-1.2,0.8-1.6,1.4
					S431.4,39.7,431.4,40.5z"/>
				<path class="st2" d="M447.6,24.5h2.8v21.9h-2.8V24.5z"/>
				<path class="st2" d="M455.1,30.5c0-0.4,0.2-0.8,0.5-1c0.3-0.3,0.7-0.4,1.2-0.4c0.4,0,0.8,0.1,1.1,0.4c0.3,0.3,0.5,0.6,0.5,1
					c0,0.4-0.2,0.8-0.5,1.1c-0.3,0.3-0.7,0.4-1.1,0.4c-0.4,0-0.8-0.1-1.2-0.4C455.3,31.3,455.1,30.9,455.1,30.5z M455.3,34.7h2.8
					v11.7h-2.8V34.7z"/>
				<path class="st2" d="M461.9,40.5c0-1.2,0.3-2.2,0.9-3.2c0.6-0.9,1.4-1.7,2.5-2.2s2.2-0.8,3.6-0.8c1.3,0,2.5,0.3,3.5,0.8
					c1,0.5,1.8,1.3,2.4,2.2c0.6,0.9,0.9,2,0.9,3.2c0,1.2-0.3,2.2-0.9,3.2c-0.6,0.9-1.4,1.7-2.4,2.3c-1,0.6-2.2,0.8-3.6,0.8
					c-1.3,0-2.5-0.3-3.6-0.8c-1-0.5-1.8-1.2-2.4-2.2C462.2,42.9,461.9,41.8,461.9,40.5z M464.7,40.5c0,0.8,0.2,1.4,0.5,2.1
					c0.4,0.6,0.8,1.1,1.4,1.5c0.6,0.4,1.3,0.5,2,0.5c0.8,0,1.5-0.2,2.1-0.5c0.6-0.4,1.1-0.8,1.4-1.5s0.5-1.3,0.5-2.1
					c0-0.8-0.2-1.4-0.5-2.1s-0.8-1.1-1.4-1.5c-0.6-0.4-1.3-0.6-2.1-0.6c-0.8,0-1.4,0.2-2.1,0.6s-1.1,0.9-1.4,1.5
					C464.9,39.1,464.7,39.8,464.7,40.5z"/>
				<path class="st2" d="M481.8,34.7l0.3,3.4l-0.1-0.5c0.3-0.7,0.8-1.3,1.4-1.8s1.2-0.9,1.9-1.2c0.7-0.3,1.3-0.4,1.7-0.4l-0.1,2.7
					c-1-0.1-1.8,0.1-2.5,0.5c-0.7,0.4-1.3,0.9-1.7,1.6c-0.4,0.7-0.6,1.4-0.6,2.1v5.4h-2.8V34.7H481.8z"/>
				<path class="st2" d="M490.4,30.5c0-0.4,0.2-0.8,0.5-1c0.3-0.3,0.7-0.4,1.2-0.4c0.4,0,0.8,0.1,1.1,0.4c0.3,0.3,0.5,0.6,0.5,1
					c0,0.4-0.2,0.8-0.5,1.1c-0.3,0.3-0.7,0.4-1.1,0.4c-0.4,0-0.8-0.1-1.2-0.4C490.6,31.3,490.4,30.9,490.4,30.5z M490.6,34.7h2.8
					v11.7h-2.8V34.7z"/>
				<path class="st2" d="M511.3,46.7c-0.9,0-1.7-0.1-2.6-0.4c-0.8-0.3-1.5-0.7-2.1-1.3l1.2-1.5c0.5,0.5,1.1,0.8,1.6,1.1
					s1.1,0.4,1.6,0.4c0.4,0,0.8,0,1.1-0.1c0.3-0.1,0.6-0.3,0.8-0.5c0.2-0.2,0.3-0.5,0.3-0.9c0-0.4-0.1-0.8-0.4-1
					c-0.3-0.2-0.7-0.4-1.1-0.6s-0.9-0.3-1.4-0.4c-1-0.3-1.8-0.8-2.3-1.3s-0.8-1.3-0.8-2.1c0-0.6,0.2-1.2,0.5-1.7
					c0.3-0.5,0.8-1,1.5-1.3c0.7-0.3,1.5-0.5,2.4-0.5c0.9,0,1.6,0.1,2.3,0.3c0.7,0.2,1.3,0.5,1.9,1l-1.1,1.6
					c-0.4-0.4-0.8-0.6-1.3-0.8s-0.9-0.3-1.3-0.3c-0.4,0-0.7,0.1-1,0.2c-0.3,0.1-0.6,0.3-0.8,0.5c-0.2,0.2-0.3,0.4-0.3,0.8
					c0,0.4,0.1,0.7,0.4,0.9c0.3,0.2,0.7,0.4,1.1,0.6c0.4,0.2,0.9,0.3,1.4,0.5c0.6,0.2,1.1,0.4,1.6,0.7c0.5,0.3,0.9,0.6,1.2,1
					c0.3,0.4,0.4,0.9,0.4,1.6c0,0.7-0.2,1.3-0.5,1.9c-0.4,0.6-0.9,1.1-1.6,1.4C513.3,46.5,512.4,46.7,511.3,46.7z"/>
				<path class="st2" d="M530.1,45.4c-0.6,0.4-1.2,0.8-2,1c-0.8,0.2-1.6,0.4-2.3,0.4c-1.3,0-2.5-0.3-3.6-0.8c-1-0.5-1.8-1.2-2.4-2.2
					c-0.6-0.9-0.9-2-0.9-3.3c0-1.2,0.3-2.3,0.9-3.2c0.6-0.9,1.4-1.6,2.4-2.1c1-0.5,2.1-0.8,3.2-0.8c1,0,1.9,0.1,2.7,0.4
					c0.8,0.3,1.5,0.6,2.1,1.1l-1.4,1.7c-0.3-0.2-0.8-0.5-1.3-0.7c-0.5-0.2-1.1-0.3-1.8-0.3c-0.7,0-1.4,0.2-2,0.5
					c-0.6,0.4-1.1,0.8-1.4,1.4s-0.5,1.3-0.5,2c0,0.7,0.2,1.4,0.5,2c0.4,0.6,0.9,1.1,1.5,1.4c0.6,0.4,1.4,0.5,2.2,0.5
					c0.5,0,1-0.1,1.5-0.2c0.5-0.2,0.9-0.4,1.2-0.6L530.1,45.4z"/>
				<path class="st2" d="M537.7,46.9c-1.2,0-2.1-0.3-2.8-1c-0.7-0.7-1.1-1.5-1.2-2.5v-8.7h2.8v7.7c0,0.6,0.2,1.1,0.6,1.5
					c0.4,0.4,0.9,0.6,1.7,0.6c0.7,0,1.3-0.2,1.8-0.6c0.6-0.4,1-0.9,1.3-1.6c0.3-0.7,0.5-1.4,0.5-2.3v-5.5h2.8v11.7h-2.6l-0.2-2.9
					l0.2,0.5c-0.3,0.5-0.6,1-1.1,1.4s-1.1,0.8-1.7,1C539.2,46.8,538.5,46.9,537.7,46.9z"/>
				<path class="st2" d="M549,40.5c0-1.2,0.3-2.2,0.9-3.2c0.6-0.9,1.4-1.7,2.5-2.2s2.2-0.8,3.6-0.8c1.3,0,2.5,0.3,3.5,0.8
					c1,0.5,1.8,1.3,2.4,2.2c0.6,0.9,0.9,2,0.9,3.2c0,1.2-0.3,2.2-0.9,3.2c-0.6,0.9-1.4,1.7-2.4,2.3c-1,0.6-2.2,0.8-3.6,0.8
					c-1.3,0-2.5-0.3-3.6-0.8c-1-0.5-1.8-1.2-2.4-2.2C549.3,42.9,549,41.8,549,40.5z M551.9,40.5c0,0.8,0.2,1.4,0.5,2.1
					c0.4,0.6,0.8,1.1,1.4,1.5c0.6,0.4,1.3,0.5,2,0.5c0.8,0,1.5-0.2,2.1-0.5c0.6-0.4,1.1-0.8,1.4-1.5s0.5-1.3,0.5-2.1
					c0-0.8-0.2-1.4-0.5-2.1s-0.8-1.1-1.4-1.5c-0.6-0.4-1.3-0.6-2.1-0.6c-0.8,0-1.4,0.2-2.1,0.6s-1.1,0.9-1.4,1.5
					C552,39.1,551.9,39.8,551.9,40.5z"/>
				<path class="st2" d="M566.5,24.5h2.8v21.9h-2.8V24.5z"/>
				<path class="st2" d="M580,46.8c-1.4,0-2.6-0.3-3.7-0.8c-1-0.5-1.8-1.3-2.4-2.2c-0.6-0.9-0.8-2-0.8-3.2c0-1.2,0.3-2.2,0.9-3.1
					c0.6-0.9,1.5-1.7,2.5-2.3c1-0.6,2.2-0.9,3.5-0.9c1.6,0,3,0.5,4.1,1.4c1.1,0.9,1.8,2.2,2.2,3.7L576,42.8l-0.7-1.6l8.4-2.9
					l-0.6,0.4c-0.2-0.6-0.6-1.2-1.2-1.6s-1.3-0.7-2.2-0.7c-0.8,0-1.4,0.2-2,0.5c-0.6,0.3-1.1,0.8-1.4,1.4c-0.3,0.6-0.5,1.3-0.5,2.1
					s0.2,1.5,0.5,2.1c0.4,0.6,0.8,1.1,1.5,1.5s1.3,0.5,2.1,0.5c0.5,0,1.1-0.1,1.6-0.3c0.5-0.2,1-0.4,1.5-0.7l1.3,2
					c-0.6,0.4-1.3,0.7-2.1,1C581.5,46.6,580.7,46.8,580,46.8z"/>
			</g>
		</g>
		<g>
			<g class="st1">
				<path class="st2" d="M25.8,80.8c-0.9,0-1.8-0.2-2.7-0.6s-1.5-1-2-1.7l0.2-0.8v8.5h-2.8V68.6h2.4l0.4,3l-0.3-0.9
					c0.6-0.7,1.4-1.3,2.3-1.8c0.9-0.5,2-0.7,3.1-0.7c1.2,0,2.2,0.3,3.1,0.8c0.9,0.5,1.7,1.3,2.2,2.2c0.5,1,0.8,2.1,0.8,3.3
					c0,1.2-0.3,2.3-0.9,3.3c-0.6,0.9-1.4,1.7-2.4,2.2C28.2,80.5,27,80.8,25.8,80.8z M25.2,78.7c0.8,0,1.5-0.2,2.2-0.5
					c0.7-0.3,1.2-0.8,1.6-1.4c0.4-0.6,0.6-1.3,0.6-2.1c0-0.8-0.2-1.5-0.6-2.1c-0.4-0.6-0.9-1.1-1.5-1.4c-0.6-0.3-1.3-0.5-2.1-0.5
					c-0.7,0-1.4,0.1-2,0.4c-0.6,0.3-1.1,0.6-1.4,1.1s-0.7,1-0.8,1.6v2c0.1,0.6,0.3,1.1,0.7,1.6c0.4,0.5,0.9,0.8,1.4,1.1
					C23.9,78.5,24.6,78.7,25.2,78.7z"/>
				<path class="st2" d="M38.7,68.8l0.3,3.4l-0.1-0.5c0.3-0.7,0.8-1.3,1.4-1.8s1.2-0.9,1.9-1.2c0.7-0.3,1.3-0.4,1.7-0.4l-0.1,2.7
					c-1-0.1-1.8,0.1-2.5,0.5c-0.7,0.4-1.3,0.9-1.7,1.6c-0.4,0.7-0.6,1.4-0.6,2.1v5.4h-2.8V68.8H38.7z"/>
				<path class="st2" d="M47.3,64.5c0-0.4,0.2-0.8,0.5-1c0.4-0.3,0.7-0.4,1.2-0.4c0.4,0,0.8,0.1,1.1,0.4c0.3,0.3,0.5,0.6,0.5,1
					c0,0.4-0.2,0.8-0.5,1.1C49.8,65.8,49.4,66,49,66c-0.4,0-0.8-0.1-1.2-0.4C47.5,65.3,47.3,64.9,47.3,64.5z M47.5,68.8h2.8v11.7
					h-2.8V68.8z"/>
			</g>
		</g>
		<g>
			<g class="st1">
				<path class="st2" d="M60.3,80.8l-6.9-12.1h3.3l4.7,9.3L59.6,78l4.3-9.2h3.1l-6.6,12.1H60.3z"/>
			</g>
		</g>
		<g>
			<g class="st1">
				<path class="st2" d="M74.8,80.8c-1.2,0-2.2-0.2-3.2-0.7c-1-0.5-1.7-1.2-2.3-2.1c-0.6-0.9-0.8-2-0.8-3.4c0-1.3,0.3-2.5,0.9-3.4
					c0.6-0.9,1.4-1.7,2.3-2.2c1-0.5,2.1-0.8,3.2-0.8s2.1,0.3,3,0.8c0.8,0.5,1.4,1.1,1.8,1.8l-0.2,0.4l0.3-2.5h2.6v11.7h-2.8v-3.1
					l0.3,0.7c-0.1,0.2-0.3,0.4-0.6,0.7c-0.3,0.3-0.6,0.6-1.1,0.9c-0.4,0.3-0.9,0.6-1.5,0.8C76.2,80.7,75.5,80.8,74.8,80.8z
					 M75.5,78.6c0.7,0,1.3-0.1,1.9-0.4c0.6-0.2,1-0.6,1.4-1s0.6-1,0.8-1.6v-2.3c-0.2-0.6-0.4-1.1-0.8-1.5c-0.4-0.4-0.9-0.8-1.4-1
					c-0.6-0.2-1.2-0.4-1.8-0.4c-0.8,0-1.5,0.2-2.1,0.5c-0.6,0.3-1.1,0.8-1.5,1.4s-0.6,1.3-0.6,2.1c0,0.8,0.2,1.4,0.6,2.1
					c0.4,0.6,0.9,1.1,1.5,1.5C74.1,78.4,74.8,78.6,75.5,78.6z"/>
				<path class="st2" d="M88.4,63.6h2.9v5.2h3.4v2.1h-3.4v9.6h-2.9v-9.6h-2.3v-2.1h2.3V63.6z"/>
				<path class="st2" d="M103.8,80.8c-1.4,0-2.6-0.3-3.7-0.8c-1-0.5-1.8-1.3-2.4-2.2c-0.6-0.9-0.8-2-0.8-3.2c0-1.2,0.3-2.2,0.9-3.1
					c0.6-0.9,1.5-1.7,2.5-2.3c1-0.6,2.2-0.9,3.5-0.9c1.6,0,3,0.5,4.1,1.4c1.1,0.9,1.8,2.2,2.2,3.7l-10.3,3.4l-0.7-1.6l8.4-2.9
					l-0.6,0.4c-0.2-0.6-0.6-1.2-1.2-1.6c-0.6-0.5-1.3-0.7-2.2-0.7c-0.8,0-1.4,0.2-2,0.5c-0.6,0.3-1.1,0.8-1.4,1.4
					c-0.3,0.6-0.5,1.3-0.5,2.1s0.2,1.5,0.5,2.1c0.4,0.6,0.8,1.1,1.5,1.5c0.6,0.3,1.3,0.5,2.1,0.5c0.5,0,1.1-0.1,1.6-0.3
					c0.5-0.2,1-0.4,1.5-0.7l1.3,2c-0.6,0.4-1.3,0.7-2.1,1C105.3,80.7,104.6,80.8,103.8,80.8z"/>
				<path class="st2" d="M128.2,80.8c-1.2,0-2.2-0.3-3.1-0.8c-0.9-0.5-1.7-1.3-2.2-2.2c-0.6-1-0.8-2.1-0.8-3.3
					c0-1.3,0.3-2.4,0.9-3.3c0.6-0.9,1.4-1.6,2.3-2.1c1-0.5,2.1-0.7,3.3-0.7c1,0,1.9,0.2,2.8,0.6c0.9,0.4,1.6,0.9,2.1,1.6l-0.2,0.9
					V58.6h2.8v21.9h-2.8v-2.9l0.3,0.7c-0.6,0.7-1.4,1.3-2.3,1.8S129.4,80.8,128.2,80.8z M129.1,78.5c0.7,0,1.4-0.1,2-0.4
					c0.6-0.3,1.1-0.6,1.4-1.1c0.4-0.4,0.7-1,0.8-1.6v-2.2c-0.2-0.6-0.4-1.1-0.9-1.5c-0.4-0.4-0.9-0.8-1.5-1
					c-0.6-0.2-1.2-0.4-1.9-0.4c-0.7,0-1.4,0.2-2.1,0.5c-0.6,0.3-1.2,0.8-1.5,1.4c-0.4,0.6-0.6,1.3-0.6,2.1c0,0.8,0.2,1.5,0.6,2.1
					c0.4,0.6,0.9,1.1,1.5,1.5C127.7,78.4,128.3,78.5,129.1,78.5z"/>
				<path class="st2" d="M140.8,64.5c0-0.4,0.2-0.8,0.5-1c0.4-0.3,0.7-0.4,1.2-0.4c0.4,0,0.8,0.1,1.1,0.4c0.3,0.3,0.5,0.6,0.5,1
					c0,0.4-0.2,0.8-0.5,1.1c-0.3,0.3-0.7,0.4-1.1,0.4c-0.4,0-0.8-0.1-1.2-0.4C141,65.3,140.8,64.9,140.8,64.5z M141,68.8h2.8v11.7
					H141V68.8z"/>
				<path class="st2" d="M158.8,80.5V59.4h0l11.4,15.3l-1.2-0.3l11.4-15h0v21.1h-2.9V65.6l0.2,1.4l-8.2,10.9h-0.1L161.2,67l0.5-1.3
					v14.8H158.8z"/>
				<path class="st2" d="M185.8,64.5c0-0.4,0.2-0.8,0.5-1c0.4-0.3,0.7-0.4,1.2-0.4c0.4,0,0.8,0.1,1.1,0.4c0.3,0.3,0.5,0.6,0.5,1
					c0,0.4-0.2,0.8-0.5,1.1c-0.3,0.3-0.7,0.4-1.1,0.4c-0.4,0-0.8-0.1-1.2-0.4C186,65.3,185.8,64.9,185.8,64.5z M186,68.8h2.8v11.7
					H186V68.8z"/>
				<path class="st2" d="M193.6,58.6h2.8v21.9h-2.8V58.6z"/>
				<path class="st2" d="M206.5,80.8c-1.2,0-2.2-0.2-3.2-0.7c-1-0.5-1.7-1.2-2.3-2.1c-0.6-0.9-0.8-2-0.8-3.4c0-1.3,0.3-2.5,0.9-3.4
					c0.6-0.9,1.4-1.7,2.3-2.2c1-0.5,2.1-0.8,3.2-0.8s2.1,0.3,3,0.8c0.8,0.5,1.4,1.1,1.8,1.8l-0.2,0.4l0.3-2.5h2.6v11.7h-2.8v-3.1
					l0.3,0.7c-0.1,0.2-0.3,0.4-0.6,0.7c-0.3,0.3-0.6,0.6-1.1,0.9c-0.4,0.3-0.9,0.6-1.5,0.8C207.9,80.7,207.2,80.8,206.5,80.8z
					 M207.2,78.6c0.7,0,1.3-0.1,1.9-0.4c0.6-0.2,1-0.6,1.4-1s0.6-1,0.8-1.6v-2.3c-0.2-0.6-0.4-1.1-0.8-1.5c-0.4-0.4-0.9-0.8-1.4-1
					c-0.6-0.2-1.2-0.4-1.8-0.4c-0.8,0-1.5,0.2-2.1,0.5c-0.6,0.3-1.1,0.8-1.5,1.4s-0.6,1.3-0.6,2.1c0,0.8,0.2,1.4,0.6,2.1
					c0.4,0.6,0.9,1.1,1.5,1.5C205.8,78.4,206.5,78.6,207.2,78.6z"/>
				<path class="st2" d="M221.5,68.8l0.2,2.9l-0.1-0.5c0.4-0.9,1-1.6,1.9-2.1s2-0.8,3.2-0.8c1.2,0,2.1,0.3,2.9,1
					c0.8,0.7,1.1,1.5,1.2,2.5v8.7h-2.8v-7.8c0-0.6-0.2-1.1-0.6-1.5c-0.4-0.4-0.9-0.6-1.7-0.6c-0.7,0-1.3,0.2-1.9,0.6
					c-0.6,0.4-1.1,0.9-1.4,1.6c-0.3,0.7-0.5,1.4-0.5,2.3v5.5h-2.8V68.8H221.5z"/>
				<path class="st2" d="M234.5,74.5c0-1.2,0.3-2.2,0.9-3.2c0.6-0.9,1.4-1.7,2.5-2.2s2.2-0.8,3.6-0.8c1.3,0,2.5,0.3,3.5,0.8
					c1,0.5,1.8,1.3,2.4,2.2c0.6,0.9,0.9,2,0.9,3.2c0,1.2-0.3,2.2-0.9,3.2c-0.6,0.9-1.4,1.7-2.4,2.3c-1,0.6-2.2,0.8-3.6,0.8
					c-1.3,0-2.5-0.3-3.6-0.8c-1-0.5-1.8-1.2-2.4-2.2S234.5,75.8,234.5,74.5z M237.3,74.5c0,0.8,0.2,1.4,0.5,2.1
					c0.4,0.6,0.8,1.1,1.4,1.5c0.6,0.4,1.3,0.5,2,0.5c0.8,0,1.5-0.2,2.1-0.5c0.6-0.4,1.1-0.8,1.4-1.5c0.4-0.6,0.5-1.3,0.5-2.1
					c0-0.8-0.2-1.4-0.5-2.1c-0.4-0.6-0.8-1.1-1.4-1.5c-0.6-0.4-1.3-0.6-2.1-0.6c-0.8,0-1.4,0.2-2.1,0.6c-0.6,0.4-1.1,0.9-1.4,1.5
					C237.5,73.1,237.3,73.8,237.3,74.5z"/>
				<path class="st2" d="M254.5,78c-0.4,1-0.9,2-1.3,3c-0.4,1-0.9,2-1.3,3h-2.3c0.4-1,0.8-2,1.2-3c0.4-1,0.8-2,1.1-3H254.5z"/>
				<path class="st2" d="M270.1,68.8l0.3,3.4l-0.1-0.5c0.3-0.7,0.8-1.3,1.4-1.8s1.2-0.9,1.9-1.2c0.7-0.3,1.3-0.4,1.7-0.4l-0.1,2.7
					c-1-0.1-1.8,0.1-2.5,0.5c-0.7,0.4-1.3,0.9-1.7,1.6c-0.4,0.7-0.6,1.4-0.6,2.1v5.4h-2.8V68.8H270.1z"/>
				<path class="st2" d="M278.6,64.5c0-0.4,0.2-0.8,0.5-1c0.4-0.3,0.7-0.4,1.2-0.4c0.4,0,0.8,0.1,1.1,0.4c0.3,0.3,0.5,0.6,0.5,1
					c0,0.4-0.2,0.8-0.5,1.1c-0.3,0.3-0.7,0.4-1.1,0.4c-0.4,0-0.8-0.1-1.2-0.4C278.8,65.3,278.6,64.9,278.6,64.5z M278.8,68.8h2.8
					v11.7h-2.8V68.8z"/>
				<path class="st2" d="M296.6,79.4c-0.6,0.4-1.2,0.8-2,1c-0.8,0.2-1.6,0.4-2.3,0.4c-1.3,0-2.5-0.3-3.6-0.8c-1-0.5-1.8-1.2-2.4-2.2
					c-0.6-0.9-0.9-2-0.9-3.3c0-1.2,0.3-2.3,0.9-3.2c0.6-0.9,1.4-1.6,2.4-2.1c1-0.5,2.1-0.8,3.2-0.8c1,0,1.9,0.1,2.7,0.4
					c0.8,0.3,1.5,0.6,2.1,1.1l-1.4,1.7c-0.3-0.2-0.8-0.5-1.3-0.7c-0.5-0.2-1.1-0.3-1.8-0.3c-0.7,0-1.4,0.2-2,0.5
					c-0.6,0.4-1.1,0.8-1.4,1.4s-0.5,1.3-0.5,2c0,0.7,0.2,1.4,0.5,2c0.4,0.6,0.9,1.1,1.5,1.4c0.6,0.4,1.4,0.5,2.2,0.5
					c0.5,0,1-0.1,1.5-0.2c0.5-0.2,0.9-0.4,1.2-0.6L296.6,79.4z"/>
			</g>
		</g>
		<g>
			<g class="st1">
				<path class="st2" d="M306,80.8c-1.4,0-2.6-0.3-3.7-0.8c-1-0.5-1.8-1.3-2.4-2.2c-0.6-0.9-0.8-2-0.8-3.2c0-1.2,0.3-2.2,0.9-3.1
					c0.6-0.9,1.5-1.7,2.5-2.3c1-0.6,2.2-0.9,3.5-0.9c1.6,0,3,0.5,4.1,1.4c1.1,0.9,1.8,2.2,2.2,3.7l-10.3,3.4l-0.7-1.6l8.4-2.9
					l-0.6,0.4c-0.2-0.6-0.6-1.2-1.2-1.6s-1.3-0.7-2.2-0.7c-0.8,0-1.4,0.2-2,0.5c-0.6,0.3-1.1,0.8-1.4,1.4c-0.3,0.6-0.5,1.3-0.5,2.1
					s0.2,1.5,0.5,2.1c0.4,0.6,0.8,1.1,1.5,1.5s1.3,0.5,2.1,0.5c0.5,0,1.1-0.1,1.6-0.3c0.5-0.2,1-0.4,1.5-0.7l1.3,2
					c-0.6,0.4-1.3,0.7-2.1,1C307.5,80.7,306.8,80.8,306,80.8z"/>
			</g>
		</g>
		<g>
			<g class="st1">
				<path class="st2" d="M320.5,80.8l-6.9-12.1h3.3l4.7,9.3l-1.7-0.1l4.3-9.2h3.1l-6.6,12.1H320.5z"/>
				<path class="st2" d="M336.1,80.8c-1.4,0-2.6-0.3-3.7-0.8c-1-0.5-1.8-1.3-2.4-2.2c-0.6-0.9-0.8-2-0.8-3.2c0-1.2,0.3-2.2,0.9-3.1
					c0.6-0.9,1.5-1.7,2.5-2.3c1-0.6,2.2-0.9,3.5-0.9c1.6,0,3,0.5,4.1,1.4c1.1,0.9,1.8,2.2,2.2,3.7l-10.3,3.4l-0.7-1.6l8.4-2.9
					l-0.6,0.4c-0.2-0.6-0.6-1.2-1.2-1.6s-1.3-0.7-2.2-0.7c-0.8,0-1.4,0.2-2,0.5c-0.6,0.3-1.1,0.8-1.4,1.4c-0.3,0.6-0.5,1.3-0.5,2.1
					s0.2,1.5,0.5,2.1c0.4,0.6,0.8,1.1,1.5,1.5s1.3,0.5,2.1,0.5c0.5,0,1.1-0.1,1.6-0.3c0.5-0.2,1-0.4,1.5-0.7l1.3,2
					c-0.6,0.4-1.3,0.7-2.1,1C337.6,80.7,336.8,80.8,336.1,80.8z"/>
				<path class="st2" d="M348.5,68.8l0.2,2.9l-0.1-0.5c0.4-0.9,1-1.6,1.9-2.1s2-0.8,3.2-0.8c1.2,0,2.1,0.3,2.9,1
					c0.8,0.7,1.1,1.5,1.2,2.5v8.7h-2.8v-7.8c0-0.6-0.2-1.1-0.6-1.5c-0.4-0.4-0.9-0.6-1.7-0.6c-0.7,0-1.3,0.2-1.9,0.6
					c-0.6,0.4-1.1,0.9-1.4,1.6c-0.3,0.7-0.5,1.4-0.5,2.3v5.5h-2.8V68.8H348.5z"/>
				<path class="st2" d="M367.6,80.8c-1.2,0-2.2-0.3-3.1-0.8c-0.9-0.5-1.7-1.3-2.2-2.2c-0.6-1-0.8-2.1-0.8-3.3
					c0-1.3,0.3-2.4,0.9-3.3c0.6-0.9,1.4-1.6,2.3-2.1c1-0.5,2.1-0.7,3.3-0.7c1,0,1.9,0.2,2.8,0.6c0.9,0.4,1.6,0.9,2.1,1.6l-0.1,0.9
					V58.6h2.8v21.9h-2.8v-2.9l0.3,0.7c-0.6,0.7-1.4,1.3-2.3,1.8S368.8,80.8,367.6,80.8z M368.5,78.5c0.7,0,1.4-0.1,2-0.4
					c0.6-0.3,1.1-0.6,1.4-1.1c0.4-0.4,0.7-1,0.8-1.6v-2.2c-0.2-0.6-0.4-1.1-0.9-1.5c-0.4-0.4-0.9-0.8-1.5-1
					c-0.6-0.2-1.2-0.4-1.9-0.4c-0.7,0-1.4,0.2-2.1,0.5c-0.6,0.3-1.2,0.8-1.5,1.4c-0.4,0.6-0.6,1.3-0.6,2.1c0,0.8,0.2,1.5,0.6,2.1
					c0.4,0.6,0.9,1.1,1.5,1.5C367,78.4,367.7,78.5,368.5,78.5z"/>
				<path class="st2" d="M379.3,74.5c0-1.2,0.3-2.2,0.9-3.2c0.6-0.9,1.4-1.7,2.5-2.2s2.2-0.8,3.6-0.8c1.3,0,2.5,0.3,3.5,0.8
					c1,0.5,1.8,1.3,2.4,2.2c0.6,0.9,0.9,2,0.9,3.2c0,1.2-0.3,2.2-0.9,3.2c-0.6,0.9-1.4,1.7-2.4,2.3c-1,0.6-2.2,0.8-3.6,0.8
					c-1.3,0-2.5-0.3-3.6-0.8c-1-0.5-1.8-1.2-2.4-2.2C379.6,76.9,379.3,75.8,379.3,74.5z M382.1,74.5c0,0.8,0.2,1.4,0.5,2.1
					c0.4,0.6,0.8,1.1,1.4,1.5c0.6,0.4,1.3,0.5,2,0.5c0.8,0,1.5-0.2,2.1-0.5c0.6-0.4,1.1-0.8,1.4-1.5s0.5-1.3,0.5-2.1
					c0-0.8-0.2-1.4-0.5-2.1s-0.8-1.1-1.4-1.5c-0.6-0.4-1.3-0.6-2.1-0.6c-0.8,0-1.4,0.2-2.1,0.6s-1.1,0.9-1.4,1.5
					C382.3,73.1,382.1,73.8,382.1,74.5z"/>
				<path class="st2" d="M410.2,81c-1.2,0-2.1-0.3-2.8-1c-0.7-0.7-1.1-1.5-1.2-2.5v-8.7h2.8v7.7c0,0.6,0.2,1.1,0.6,1.5
					c0.4,0.4,0.9,0.6,1.7,0.6c0.7,0,1.3-0.2,1.8-0.6c0.6-0.4,1-0.9,1.3-1.6c0.3-0.7,0.5-1.4,0.5-2.3v-5.5h2.8v11.7h-2.6l-0.2-2.9
					l0.2,0.5c-0.3,0.5-0.6,1-1.1,1.4s-1.1,0.8-1.7,1C411.7,80.8,411,81,410.2,81z"/>
				<path class="st2" d="M425.2,68.8l0.2,2.9l-0.1-0.5c0.4-0.9,1-1.6,1.9-2.1s2-0.8,3.2-0.8c1.2,0,2.1,0.3,2.9,1
					c0.8,0.7,1.1,1.5,1.2,2.5v8.7h-2.8v-7.8c0-0.6-0.2-1.1-0.6-1.5c-0.4-0.4-0.9-0.6-1.7-0.6c-0.7,0-1.3,0.2-1.9,0.6
					c-0.6,0.4-1.1,0.9-1.4,1.6c-0.3,0.7-0.5,1.4-0.5,2.3v5.5h-2.8V68.8H425.2z"/>
				<path class="st2" d="M440.7,59.8c0,1.2,0,2.4-0.1,3.6c0,1.2,0,2.4-0.1,3.6h-2.4v-7.1H440.7z"/>
				<path class="st2" d="M443.1,74.5c0-1.2,0.3-2.2,0.9-3.2c0.6-0.9,1.4-1.7,2.5-2.2s2.2-0.8,3.6-0.8c1.3,0,2.5,0.3,3.5,0.8
					c1,0.5,1.8,1.3,2.4,2.2c0.6,0.9,0.9,2,0.9,3.2c0,1.2-0.3,2.2-0.9,3.2c-0.6,0.9-1.4,1.7-2.4,2.3c-1,0.6-2.2,0.8-3.6,0.8
					c-1.3,0-2.5-0.3-3.6-0.8c-1-0.5-1.8-1.2-2.4-2.2C443.4,76.9,443.1,75.8,443.1,74.5z M445.9,74.5c0,0.8,0.2,1.4,0.5,2.1
					c0.4,0.6,0.8,1.1,1.4,1.5c0.6,0.4,1.3,0.5,2,0.5c0.8,0,1.5-0.2,2.1-0.5c0.6-0.4,1.1-0.8,1.4-1.5s0.5-1.3,0.5-2.1
					c0-0.8-0.2-1.4-0.5-2.1s-0.8-1.1-1.4-1.5c-0.6-0.4-1.3-0.6-2.1-0.6c-0.8,0-1.4,0.2-2.1,0.6s-1.1,0.9-1.4,1.5
					C446.1,73.1,445.9,73.8,445.9,74.5z"/>
				<path class="st2" d="M461.7,63.6h2.9v5.2h3.4v2.1h-3.4v9.6h-2.9v-9.6h-2.3v-2.1h2.3V63.6z"/>
				<path class="st2" d="M472.6,63.6h2.9v5.2h3.4v2.1h-3.4v9.6h-2.9v-9.6h-2.3v-2.1h2.3V63.6z"/>
				<path class="st2" d="M482,64.5c0-0.4,0.2-0.8,0.5-1c0.3-0.3,0.7-0.4,1.2-0.4c0.4,0,0.8,0.1,1.1,0.4c0.3,0.3,0.5,0.6,0.5,1
					c0,0.4-0.2,0.8-0.5,1.1c-0.3,0.3-0.7,0.4-1.1,0.4c-0.4,0-0.8-0.1-1.2-0.4C482.2,65.3,482,64.9,482,64.5z M482.2,68.8h2.8v11.7
					h-2.8V68.8z"/>
				<path class="st2" d="M492.4,68.8l0.2,2.6l-0.2-0.2c0.5-0.9,1.1-1.6,2-2.1c0.9-0.5,1.8-0.8,3-0.8c0.7,0,1.3,0.1,1.8,0.3
					c0.5,0.2,1,0.5,1.3,0.9c0.4,0.4,0.6,0.9,0.7,1.4l-0.2,0.1c0.5-0.9,1.1-1.5,2-2c0.9-0.5,1.7-0.7,2.7-0.7c1.2,0,2.2,0.3,2.9,1
					s1.1,1.5,1.1,2.5v8.7H507v-7.7c0-0.6-0.2-1.1-0.5-1.5c-0.3-0.4-0.8-0.6-1.5-0.6c-0.7,0-1.4,0.2-1.9,0.6c-0.6,0.4-1,0.9-1.3,1.6
					c-0.3,0.7-0.5,1.4-0.5,2.1v5.6h-2.8v-7.7c0-0.6-0.2-1.1-0.5-1.5c-0.3-0.4-0.8-0.6-1.5-0.6c-0.7,0-1.4,0.2-1.9,0.6
					c-0.6,0.4-1,0.9-1.3,1.6c-0.3,0.7-0.5,1.4-0.5,2.2v5.5h-2.8V68.8H492.4z"/>
				<path class="st2" d="M519.8,80.8c-1.2,0-2.2-0.2-3.2-0.7c-1-0.5-1.7-1.2-2.3-2.1c-0.6-0.9-0.8-2-0.8-3.4c0-1.3,0.3-2.5,0.9-3.4
					c0.6-0.9,1.4-1.7,2.3-2.2c1-0.5,2.1-0.8,3.2-0.8s2.1,0.3,3,0.8c0.8,0.5,1.4,1.1,1.8,1.8l-0.2,0.4l0.3-2.5h2.6v11.7h-2.8v-3.1
					l0.3,0.7c-0.1,0.2-0.3,0.4-0.6,0.7c-0.3,0.3-0.6,0.6-1.1,0.9c-0.4,0.3-0.9,0.6-1.5,0.8S520.6,80.8,519.8,80.8z M520.6,78.6
					c0.7,0,1.3-0.1,1.9-0.4c0.6-0.2,1-0.6,1.4-1s0.6-1,0.8-1.6v-2.3c-0.2-0.6-0.4-1.1-0.8-1.5s-0.9-0.8-1.4-1
					c-0.6-0.2-1.2-0.4-1.8-0.4c-0.8,0-1.5,0.2-2.1,0.5c-0.6,0.3-1.1,0.8-1.5,1.4c-0.4,0.6-0.6,1.3-0.6,2.1c0,0.8,0.2,1.4,0.6,2.1
					c0.4,0.6,0.9,1.1,1.5,1.5C519.1,78.4,519.8,78.6,520.6,78.6z"/>
			</g>
		</g>
		<g>
			<g class="st1">
				<path class="st2" d="M24.2,114.8c-1.4,0-2.6-0.3-3.7-0.8c-1-0.5-1.8-1.3-2.4-2.2c-0.6-0.9-0.8-2-0.8-3.2c0-1.2,0.3-2.2,0.9-3.1
					c0.6-0.9,1.5-1.7,2.5-2.3c1-0.6,2.2-0.9,3.5-0.9c1.6,0,3,0.5,4.1,1.4c1.1,0.9,1.8,2.2,2.2,3.7l-10.3,3.4l-0.7-1.6l8.4-2.9
					l-0.6,0.4c-0.2-0.6-0.6-1.2-1.2-1.6c-0.6-0.5-1.3-0.7-2.2-0.7c-0.8,0-1.4,0.2-2,0.5c-0.6,0.3-1.1,0.8-1.4,1.4
					c-0.3,0.6-0.5,1.3-0.5,2.1s0.2,1.5,0.5,2.1c0.4,0.6,0.8,1.1,1.5,1.5c0.6,0.3,1.3,0.5,2.1,0.5c0.5,0,1.1-0.1,1.6-0.3
					c0.5-0.2,1-0.4,1.5-0.7l1.3,2c-0.6,0.4-1.3,0.7-2.1,1C25.7,114.7,24.9,114.8,24.2,114.8z"/>
				<path class="st2" d="M39.1,114.8c-1.2,0-2.2-0.3-3.1-0.8c-0.9-0.5-1.7-1.3-2.2-2.2c-0.6-1-0.8-2.1-0.8-3.3
					c0-1.3,0.3-2.4,0.9-3.3c0.6-0.9,1.4-1.6,2.3-2.1c1-0.5,2.1-0.7,3.3-0.7c1,0,1.9,0.2,2.8,0.6c0.9,0.4,1.6,0.9,2.1,1.6l-0.2,0.9
					V92.6H47v21.9h-2.8v-2.9l0.3,0.7c-0.6,0.7-1.4,1.3-2.3,1.8S40.3,114.8,39.1,114.8z M40,112.6c0.7,0,1.4-0.1,2-0.4
					c0.6-0.3,1.1-0.6,1.4-1.1c0.4-0.4,0.7-1,0.8-1.6v-2.2c-0.2-0.6-0.4-1.1-0.9-1.5c-0.4-0.4-0.9-0.8-1.5-1
					c-0.6-0.2-1.2-0.4-1.9-0.4c-0.7,0-1.4,0.2-2.1,0.5c-0.6,0.3-1.2,0.8-1.5,1.4c-0.4,0.6-0.6,1.3-0.6,2.1c0,0.8,0.2,1.5,0.6,2.1
					c0.4,0.6,0.9,1.1,1.5,1.5C38.5,112.4,39.2,112.6,40,112.6z"/>
				<path class="st2" d="M55.8,115c-1.2,0-2.1-0.3-2.8-1c-0.7-0.7-1.1-1.5-1.2-2.5v-8.7h2.8v7.7c0,0.6,0.2,1.1,0.6,1.5
					c0.4,0.4,0.9,0.6,1.7,0.6c0.7,0,1.3-0.2,1.8-0.6c0.6-0.4,1-0.9,1.3-1.6c0.3-0.7,0.5-1.4,0.5-2.3v-5.5h2.8v11.7h-2.6l-0.2-2.9
					l0.2,0.5c-0.3,0.5-0.6,1-1.1,1.4s-1.1,0.8-1.7,1C57.3,114.9,56.6,115,55.8,115z"/>
				<path class="st2" d="M78.4,113.4c-0.6,0.4-1.2,0.8-2,1c-0.8,0.2-1.6,0.4-2.3,0.4c-1.3,0-2.5-0.3-3.6-0.8c-1-0.5-1.8-1.2-2.4-2.2
					c-0.6-0.9-0.9-2-0.9-3.3c0-1.2,0.3-2.3,0.9-3.2c0.6-0.9,1.4-1.6,2.4-2.1c1-0.5,2.1-0.8,3.2-0.8c1,0,1.9,0.1,2.7,0.4
					c0.8,0.3,1.5,0.6,2.1,1.1l-1.4,1.7c-0.3-0.2-0.8-0.5-1.3-0.7c-0.5-0.2-1.1-0.3-1.8-0.3c-0.7,0-1.4,0.2-2,0.5
					c-0.6,0.4-1.1,0.8-1.4,1.4s-0.5,1.3-0.5,2c0,0.7,0.2,1.4,0.5,2c0.4,0.6,0.9,1.1,1.5,1.4c0.6,0.4,1.4,0.5,2.2,0.5
					c0.5,0,1-0.1,1.5-0.2c0.5-0.2,0.9-0.4,1.2-0.6L78.4,113.4z"/>
				<path class="st2" d="M87.2,114.8c-1.2,0-2.2-0.2-3.2-0.7c-1-0.5-1.7-1.2-2.3-2.1c-0.6-0.9-0.8-2-0.8-3.4c0-1.3,0.3-2.5,0.9-3.4
					c0.6-0.9,1.4-1.7,2.3-2.2c1-0.5,2.1-0.8,3.2-0.8s2.1,0.3,3,0.8c0.8,0.5,1.4,1.1,1.8,1.8l-0.2,0.4l0.3-2.5h2.6v11.7H92v-3.1
					l0.3,0.7c-0.1,0.2-0.3,0.4-0.6,0.7c-0.3,0.3-0.6,0.6-1.1,0.9c-0.4,0.3-0.9,0.6-1.5,0.8C88.6,114.7,87.9,114.8,87.2,114.8z
					 M87.9,112.6c0.7,0,1.3-0.1,1.9-0.4c0.6-0.2,1-0.6,1.4-1s0.6-1,0.8-1.6v-2.3c-0.2-0.6-0.4-1.1-0.8-1.5c-0.4-0.4-0.9-0.8-1.4-1
					c-0.6-0.2-1.2-0.4-1.8-0.4c-0.8,0-1.5,0.2-2.1,0.5c-0.6,0.3-1.1,0.8-1.5,1.4s-0.6,1.3-0.6,2.1c0,0.8,0.2,1.4,0.6,2.1
					c0.4,0.6,0.9,1.1,1.5,1.5C86.5,112.5,87.2,112.6,87.9,112.6z"/>
				<path class="st2" d="M100.8,104.9c-0.6,0-1.1-0.2-1.6-0.5c-0.4-0.4-0.6-0.9-0.6-1.6v-1.1h2.1v0.4c0,0.3,0.1,0.5,0.2,0.6
					c0.1,0.1,0.4,0.1,0.8,0.1h8l-7.5,10.1l-0.6-0.5h7.9v2.2H98l7.6-10.3l0.5,0.7H100.8z"/>
				<path class="st2" d="M113.3,98.5c0-0.4,0.2-0.8,0.5-1c0.4-0.3,0.7-0.4,1.2-0.4c0.4,0,0.8,0.1,1.1,0.4c0.3,0.3,0.5,0.6,0.5,1
					c0,0.4-0.2,0.8-0.5,1.1c-0.3,0.3-0.7,0.4-1.1,0.4c-0.4,0-0.8-0.1-1.2-0.4C113.5,99.3,113.3,99,113.3,98.5z M113.5,102.8h2.8
					v11.7h-2.8V102.8z"/>
				<path class="st2" d="M120.1,108.5c0-1.2,0.3-2.2,0.9-3.2c0.6-0.9,1.4-1.7,2.5-2.2s2.2-0.8,3.6-0.8c1.3,0,2.5,0.3,3.5,0.8
					c1,0.5,1.8,1.3,2.4,2.2c0.6,0.9,0.9,2,0.9,3.2c0,1.2-0.3,2.2-0.9,3.2c-0.6,0.9-1.4,1.7-2.4,2.3c-1,0.6-2.2,0.8-3.6,0.8
					c-1.3,0-2.5-0.3-3.6-0.8c-1-0.5-1.8-1.2-2.4-2.2S120.1,109.8,120.1,108.5z M122.9,108.6c0,0.8,0.2,1.4,0.5,2.1
					c0.4,0.6,0.8,1.1,1.4,1.5c0.6,0.4,1.3,0.5,2,0.5c0.8,0,1.5-0.2,2.1-0.5c0.6-0.4,1.1-0.8,1.4-1.5c0.4-0.6,0.5-1.3,0.5-2.1
					c0-0.8-0.2-1.4-0.5-2.1c-0.4-0.6-0.8-1.1-1.4-1.5c-0.6-0.4-1.3-0.6-2.1-0.6c-0.8,0-1.4,0.2-2.1,0.6c-0.6,0.4-1.1,0.9-1.4,1.5
					C123.1,107.2,122.9,107.8,122.9,108.6z"/>
				<path class="st2" d="M140.1,102.8l0.2,2.9l-0.1-0.5c0.4-0.9,1-1.6,1.9-2.1s2-0.8,3.2-0.8c1.2,0,2.1,0.3,2.9,1
					c0.8,0.7,1.1,1.5,1.2,2.5v8.7h-2.8v-7.8c0-0.6-0.2-1.1-0.6-1.5c-0.4-0.4-0.9-0.6-1.7-0.6c-0.7,0-1.3,0.2-1.9,0.6
					c-0.6,0.4-1.1,0.9-1.4,1.6c-0.3,0.7-0.5,1.4-0.5,2.3v5.5h-2.8v-11.7H140.1z"/>
				<path class="st2" d="M160,114.8c-1.4,0-2.6-0.3-3.7-0.8c-1-0.5-1.8-1.3-2.4-2.2c-0.6-0.9-0.8-2-0.8-3.2c0-1.2,0.3-2.2,0.9-3.1
					c0.6-0.9,1.5-1.7,2.5-2.3c1-0.6,2.2-0.9,3.5-0.9c1.6,0,3,0.5,4.1,1.4c1.1,0.9,1.8,2.2,2.2,3.7l-10.3,3.4l-0.7-1.6l8.4-2.9
					l-0.6,0.4c-0.2-0.6-0.6-1.2-1.2-1.6c-0.6-0.5-1.3-0.7-2.2-0.7c-0.8,0-1.4,0.2-2,0.5c-0.6,0.3-1.1,0.8-1.4,1.4
					c-0.3,0.6-0.5,1.3-0.5,2.1s0.2,1.5,0.5,2.1c0.4,0.6,0.8,1.1,1.5,1.5c0.6,0.3,1.3,0.5,2.1,0.5c0.5,0,1.1-0.1,1.6-0.3
					c0.5-0.2,1-0.4,1.5-0.7l1.3,2c-0.6,0.4-1.3,0.7-2.1,1C161.5,114.7,160.7,114.8,160,114.8z"/>
				<path class="st2" d="M185.1,114.8c-1.4,0-2.6-0.3-3.7-0.8c-1-0.5-1.8-1.3-2.4-2.2c-0.6-0.9-0.8-2-0.8-3.2c0-1.2,0.3-2.2,0.9-3.1
					c0.6-0.9,1.5-1.7,2.5-2.3c1-0.6,2.2-0.9,3.5-0.9c1.6,0,3,0.5,4.1,1.4c1.1,0.9,1.8,2.2,2.2,3.7l-10.3,3.4l-0.7-1.6l8.4-2.9
					l-0.6,0.4c-0.2-0.6-0.6-1.2-1.2-1.6c-0.6-0.5-1.3-0.7-2.2-0.7c-0.8,0-1.4,0.2-2,0.5c-0.6,0.3-1.1,0.8-1.4,1.4
					c-0.3,0.6-0.5,1.3-0.5,2.1s0.2,1.5,0.5,2.1c0.4,0.6,0.8,1.1,1.5,1.5c0.6,0.3,1.3,0.5,2.1,0.5c0.5,0,1.1-0.1,1.6-0.3
					c0.5-0.2,1-0.4,1.5-0.7l1.3,2c-0.6,0.4-1.3,0.7-2.1,1C186.6,114.7,185.8,114.8,185.1,114.8z"/>
				<path class="st2" d="M211.8,114.8c-0.9,0-1.8-0.2-2.7-0.6s-1.5-1-2-1.7l0.2-0.8v8.5h-2.8v-17.5h2.4l0.4,3l-0.3-0.9
					c0.6-0.7,1.4-1.3,2.3-1.8c0.9-0.5,2-0.7,3.1-0.7c1.2,0,2.2,0.3,3.1,0.8c0.9,0.5,1.7,1.3,2.2,2.2c0.5,1,0.8,2.1,0.8,3.3
					c0,1.2-0.3,2.3-0.9,3.3c-0.6,0.9-1.4,1.7-2.4,2.2C214.2,114.6,213.1,114.8,211.8,114.8z M211.2,112.7c0.8,0,1.5-0.2,2.2-0.5
					c0.7-0.3,1.2-0.8,1.6-1.4c0.4-0.6,0.6-1.3,0.6-2.1c0-0.8-0.2-1.5-0.6-2.1c-0.4-0.6-0.9-1.1-1.5-1.4c-0.6-0.3-1.3-0.5-2.1-0.5
					c-0.7,0-1.4,0.1-2,0.4c-0.6,0.3-1.1,0.6-1.4,1.1s-0.7,1-0.8,1.6v2c0.1,0.6,0.3,1.1,0.7,1.6c0.4,0.5,0.9,0.8,1.4,1.1
					C210,112.6,210.6,112.7,211.2,112.7z"/>
				<path class="st2" d="M227.4,114.8c-1.2,0-2.2-0.2-3.2-0.7c-1-0.5-1.7-1.2-2.3-2.1c-0.6-0.9-0.8-2-0.8-3.4c0-1.3,0.3-2.5,0.9-3.4
					c0.6-0.9,1.4-1.7,2.3-2.2c1-0.5,2.1-0.8,3.2-0.8s2.1,0.3,3,0.8c0.8,0.5,1.4,1.1,1.8,1.8l-0.2,0.4l0.3-2.5h2.6v11.7h-2.8v-3.1
					l0.3,0.7c-0.1,0.2-0.3,0.4-0.6,0.7c-0.3,0.3-0.6,0.6-1.1,0.9c-0.4,0.3-0.9,0.6-1.5,0.8C228.8,114.7,228.2,114.8,227.4,114.8z
					 M228.2,112.6c0.7,0,1.3-0.1,1.9-0.4c0.6-0.2,1-0.6,1.4-1s0.6-1,0.8-1.6v-2.3c-0.2-0.6-0.4-1.1-0.8-1.5c-0.4-0.4-0.9-0.8-1.4-1
					c-0.6-0.2-1.2-0.4-1.8-0.4c-0.8,0-1.5,0.2-2.1,0.5c-0.6,0.3-1.1,0.8-1.5,1.4s-0.6,1.3-0.6,2.1c0,0.8,0.2,1.4,0.6,2.1
					c0.4,0.6,0.9,1.1,1.5,1.5C226.8,112.5,227.4,112.6,228.2,112.6z"/>
				<path class="st2" d="M242.4,102.8l0.3,3.4l-0.1-0.5c0.3-0.7,0.8-1.3,1.4-1.8s1.2-0.9,1.9-1.2c0.7-0.3,1.3-0.4,1.7-0.4l-0.1,2.7
					c-1-0.1-1.8,0.1-2.5,0.5c-0.7,0.4-1.3,0.9-1.7,1.6c-0.4,0.7-0.6,1.4-0.6,2.1v5.4h-2.8v-11.7H242.4z"/>
				<path class="st2" d="M252.4,97.6h2.9v5.2h3.4v2.1h-3.4v9.6h-2.9v-9.6h-2.3v-2.1h2.3V97.6z"/>
				<path class="st2" d="M267.8,114.8c-1.4,0-2.6-0.3-3.7-0.8c-1-0.5-1.8-1.3-2.4-2.2c-0.6-0.9-0.8-2-0.8-3.2c0-1.2,0.3-2.2,0.9-3.1
					c0.6-0.9,1.5-1.7,2.5-2.3c1-0.6,2.2-0.9,3.5-0.9c1.6,0,3,0.5,4.1,1.4c1.1,0.9,1.8,2.2,2.2,3.7l-10.3,3.4l-0.7-1.6l8.4-2.9
					l-0.6,0.4c-0.2-0.6-0.6-1.2-1.2-1.6c-0.6-0.5-1.3-0.7-2.2-0.7c-0.8,0-1.4,0.2-2,0.5c-0.6,0.3-1.1,0.8-1.4,1.4
					c-0.3,0.6-0.5,1.3-0.5,2.1s0.2,1.5,0.5,2.1c0.4,0.6,0.8,1.1,1.5,1.5c0.6,0.3,1.3,0.5,2.1,0.5c0.5,0,1.1-0.1,1.6-0.3
					c0.5-0.2,1-0.4,1.5-0.7l1.3,2c-0.6,0.4-1.3,0.7-2.1,1C269.3,114.7,268.5,114.8,267.8,114.8z"/>
				<path class="st2" d="M287.7,113.4c-0.6,0.4-1.2,0.8-2,1c-0.8,0.2-1.6,0.4-2.3,0.4c-1.3,0-2.5-0.3-3.6-0.8
					c-1-0.5-1.8-1.2-2.4-2.2c-0.6-0.9-0.9-2-0.9-3.3c0-1.2,0.3-2.3,0.9-3.2c0.6-0.9,1.4-1.6,2.4-2.1c1-0.5,2.1-0.8,3.2-0.8
					c1,0,1.9,0.1,2.7,0.4c0.8,0.3,1.5,0.6,2.1,1.1l-1.4,1.7c-0.3-0.2-0.8-0.5-1.3-0.7c-0.5-0.2-1.1-0.3-1.8-0.3
					c-0.7,0-1.4,0.2-2,0.5c-0.6,0.4-1.1,0.8-1.4,1.4s-0.5,1.3-0.5,2c0,0.7,0.2,1.4,0.5,2c0.4,0.6,0.9,1.1,1.5,1.4
					c0.6,0.4,1.4,0.5,2.2,0.5c0.5,0,1-0.1,1.5-0.2c0.5-0.2,0.9-0.4,1.2-0.6L287.7,113.4z"/>
				<path class="st2" d="M291.1,98.5c0-0.4,0.2-0.8,0.5-1c0.4-0.3,0.7-0.4,1.2-0.4c0.4,0,0.8,0.1,1.1,0.4c0.3,0.3,0.5,0.6,0.5,1
					c0,0.4-0.2,0.8-0.5,1.1c-0.3,0.3-0.7,0.4-1.1,0.4c-0.4,0-0.8-0.1-1.2-0.4C291.3,99.3,291.1,99,291.1,98.5z M291.3,102.8h2.8
					v11.7h-2.8V102.8z"/>
				<path class="st2" d="M306.3,114.8c-0.9,0-1.8-0.2-2.7-0.6s-1.5-1-2-1.7l0.2-0.8v8.5H299v-17.5h2.4l0.4,3l-0.3-0.9
					c0.6-0.7,1.4-1.3,2.3-1.8c0.9-0.5,2-0.7,3.1-0.7c1.2,0,2.2,0.3,3.1,0.8c0.9,0.5,1.7,1.3,2.2,2.2c0.5,1,0.8,2.1,0.8,3.3
					c0,1.2-0.3,2.3-0.9,3.3c-0.6,0.9-1.4,1.7-2.4,2.2S307.6,114.8,306.3,114.8z M305.8,112.7c0.8,0,1.5-0.2,2.2-0.5
					c0.7-0.3,1.2-0.8,1.6-1.4c0.4-0.6,0.6-1.3,0.6-2.1c0-0.8-0.2-1.5-0.6-2.1c-0.4-0.6-0.9-1.1-1.5-1.4s-1.3-0.5-2.1-0.5
					c-0.7,0-1.4,0.1-2,0.4c-0.6,0.3-1.1,0.6-1.4,1.1s-0.7,1-0.8,1.6v2c0.1,0.6,0.3,1.1,0.7,1.6c0.4,0.5,0.9,0.8,1.4,1.1
					C304.5,112.6,305.1,112.7,305.8,112.7z"/>
				<path class="st2" d="M322,114.8c-1.2,0-2.2-0.2-3.2-0.7c-1-0.5-1.7-1.2-2.3-2.1c-0.6-0.9-0.8-2-0.8-3.4c0-1.3,0.3-2.5,0.9-3.4
					c0.6-0.9,1.4-1.7,2.3-2.2c1-0.5,2.1-0.8,3.2-0.8s2.1,0.3,3,0.8c0.8,0.5,1.4,1.1,1.8,1.8l-0.2,0.4l0.3-2.5h2.6v11.7h-2.8v-3.1
					l0.3,0.7c-0.1,0.2-0.3,0.4-0.6,0.7c-0.3,0.3-0.6,0.6-1.1,0.9c-0.4,0.3-0.9,0.6-1.5,0.8S322.7,114.8,322,114.8z M322.8,112.6
					c0.7,0,1.3-0.1,1.9-0.4c0.6-0.2,1-0.6,1.4-1s0.6-1,0.8-1.6v-2.3c-0.2-0.6-0.4-1.1-0.8-1.5s-0.9-0.8-1.4-1
					c-0.6-0.2-1.2-0.4-1.8-0.4c-0.8,0-1.5,0.2-2.1,0.5c-0.6,0.3-1.1,0.8-1.5,1.4c-0.4,0.6-0.6,1.3-0.6,2.1c0,0.8,0.2,1.4,0.6,2.1
					c0.4,0.6,0.9,1.1,1.5,1.5C321.3,112.5,322,112.6,322.8,112.6z"/>
				<path class="st2" d="M337,102.8l0.2,2.9l-0.1-0.5c0.4-0.9,1-1.6,1.9-2.1s2-0.8,3.2-0.8c1.2,0,2.1,0.3,2.9,1
					c0.8,0.7,1.1,1.5,1.2,2.5v8.7h-2.8v-7.8c0-0.6-0.2-1.1-0.6-1.5c-0.4-0.4-0.9-0.6-1.7-0.6c-0.7,0-1.3,0.2-1.9,0.6
					c-0.6,0.4-1.1,0.9-1.4,1.6c-0.3,0.7-0.5,1.4-0.5,2.3v5.5h-2.8v-11.7H337z"/>
				<path class="st2" d="M356.1,114.8c-1.2,0-2.2-0.3-3.1-0.8c-0.9-0.5-1.7-1.3-2.2-2.2c-0.6-1-0.8-2.1-0.8-3.3
					c0-1.3,0.3-2.4,0.9-3.3c0.6-0.9,1.4-1.6,2.3-2.1c1-0.5,2.1-0.7,3.3-0.7c1,0,1.9,0.2,2.8,0.6c0.9,0.4,1.6,0.9,2.1,1.6l-0.1,0.9
					V92.6h2.8v21.9h-2.8v-2.9l0.3,0.7c-0.6,0.7-1.4,1.3-2.3,1.8S357.3,114.8,356.1,114.8z M357,112.6c0.7,0,1.4-0.1,2-0.4
					c0.6-0.3,1.1-0.6,1.4-1.1c0.4-0.4,0.7-1,0.8-1.6v-2.2c-0.2-0.6-0.4-1.1-0.9-1.5c-0.4-0.4-0.9-0.8-1.5-1
					c-0.6-0.2-1.2-0.4-1.9-0.4c-0.7,0-1.4,0.2-2.1,0.5c-0.6,0.3-1.2,0.8-1.5,1.4c-0.4,0.6-0.6,1.3-0.6,2.1c0,0.8,0.2,1.5,0.6,2.1
					c0.4,0.6,0.9,1.1,1.5,1.5C355.6,112.4,356.3,112.6,357,112.6z"/>
				<path class="st2" d="M367.8,108.5c0-1.2,0.3-2.2,0.9-3.2c0.6-0.9,1.4-1.7,2.5-2.2s2.2-0.8,3.6-0.8c1.3,0,2.5,0.3,3.5,0.8
					c1,0.5,1.8,1.3,2.4,2.2c0.6,0.9,0.9,2,0.9,3.2c0,1.2-0.3,2.2-0.9,3.2c-0.6,0.9-1.4,1.7-2.4,2.3c-1,0.6-2.2,0.8-3.6,0.8
					c-1.3,0-2.5-0.3-3.6-0.8c-1-0.5-1.8-1.2-2.4-2.2C368.1,110.9,367.8,109.8,367.8,108.5z M370.6,108.6c0,0.8,0.2,1.4,0.5,2.1
					c0.4,0.6,0.8,1.1,1.4,1.5c0.6,0.4,1.3,0.5,2,0.5c0.8,0,1.5-0.2,2.1-0.5c0.6-0.4,1.1-0.8,1.4-1.5s0.5-1.3,0.5-2.1
					c0-0.8-0.2-1.4-0.5-2.1s-0.8-1.1-1.4-1.5c-0.6-0.4-1.3-0.6-2.1-0.6c-0.8,0-1.4,0.2-2.1,0.6s-1.1,0.9-1.4,1.5
					C370.8,107.2,370.6,107.8,370.6,108.6z"/>
				<path class="st2" d="M400,114.8c-1.2,0-2.2-0.2-3.2-0.7c-1-0.5-1.7-1.2-2.3-2.1c-0.6-0.9-0.8-2-0.8-3.4c0-1.3,0.3-2.5,0.9-3.4
					c0.6-0.9,1.4-1.7,2.3-2.2c1-0.5,2.1-0.8,3.2-0.8s2.1,0.3,3,0.8c0.8,0.5,1.4,1.1,1.8,1.8l-0.2,0.4l0.3-2.5h2.6v11.7h-2.8v-3.1
					l0.3,0.7c-0.1,0.2-0.3,0.4-0.6,0.7c-0.3,0.3-0.6,0.6-1.1,0.9c-0.4,0.3-0.9,0.6-1.5,0.8S400.7,114.8,400,114.8z M400.7,112.6
					c0.7,0,1.3-0.1,1.9-0.4c0.6-0.2,1-0.6,1.4-1s0.6-1,0.8-1.6v-2.3c-0.2-0.6-0.4-1.1-0.8-1.5s-0.9-0.8-1.4-1
					c-0.6-0.2-1.2-0.4-1.8-0.4c-0.8,0-1.5,0.2-2.1,0.5c-0.6,0.3-1.1,0.8-1.5,1.4c-0.4,0.6-0.6,1.3-0.6,2.1c0,0.8,0.2,1.4,0.6,2.1
					c0.4,0.6,0.9,1.1,1.5,1.5C399.3,112.5,400,112.6,400.7,112.6z"/>
				<path class="st2" d="M423.1,97.6h2.9v5.2h3.4v2.1h-3.4v9.6h-2.9v-9.6h-2.3v-2.1h2.3V97.6z"/>
				<path class="st2" d="M437.9,114.8c-1.2,0-2.2-0.2-3.2-0.7c-1-0.5-1.7-1.2-2.3-2.1c-0.6-0.9-0.8-2-0.8-3.4c0-1.3,0.3-2.5,0.9-3.4
					c0.6-0.9,1.4-1.7,2.3-2.2c1-0.5,2.1-0.8,3.2-0.8s2.1,0.3,3,0.8c0.8,0.5,1.4,1.1,1.8,1.8l-0.2,0.4l0.3-2.5h2.6v11.7h-2.8v-3.1
					l0.3,0.7c-0.1,0.2-0.3,0.4-0.6,0.7c-0.3,0.3-0.6,0.6-1.1,0.9c-0.4,0.3-0.9,0.6-1.5,0.8S438.6,114.8,437.9,114.8z M438.7,112.6
					c0.7,0,1.3-0.1,1.9-0.4c0.6-0.2,1-0.6,1.4-1s0.6-1,0.8-1.6v-2.3c-0.2-0.6-0.4-1.1-0.8-1.5s-0.9-0.8-1.4-1
					c-0.6-0.2-1.2-0.4-1.8-0.4c-0.8,0-1.5,0.2-2.1,0.5c-0.6,0.3-1.1,0.8-1.5,1.4c-0.4,0.6-0.6,1.3-0.6,2.1c0,0.8,0.2,1.4,0.6,2.1
					c0.4,0.6,0.9,1.1,1.5,1.5C437.2,112.5,437.9,112.6,438.7,112.6z"/>
				<path class="st2" d="M452.9,102.8l0.2,2.9l-0.1-0.5c0.4-0.9,1-1.6,1.9-2.1s2-0.8,3.2-0.8c1.2,0,2.1,0.3,2.9,1
					c0.8,0.7,1.1,1.5,1.2,2.5v8.7h-2.8v-7.8c0-0.6-0.2-1.1-0.6-1.5c-0.4-0.4-0.9-0.6-1.7-0.6c-0.7,0-1.3,0.2-1.9,0.6
					c-0.6,0.4-1.1,0.9-1.4,1.6c-0.3,0.7-0.5,1.4-0.5,2.3v5.5h-2.8v-11.7H452.9z"/>
				<path class="st2" d="M468.2,97.6h2.9v5.2h3.4v2.1H471v9.6h-2.9v-9.6h-2.3v-2.1h2.3V97.6z"/>
				<path class="st2" d="M483.6,114.8c-1.4,0-2.6-0.3-3.7-0.8c-1-0.5-1.8-1.3-2.4-2.2c-0.6-0.9-0.8-2-0.8-3.2c0-1.2,0.3-2.2,0.9-3.1
					c0.6-0.9,1.5-1.7,2.5-2.3c1-0.6,2.2-0.9,3.5-0.9c1.6,0,3,0.5,4.1,1.4c1.1,0.9,1.8,2.2,2.2,3.7l-10.3,3.4l-0.7-1.6l8.4-2.9
					l-0.6,0.4c-0.2-0.6-0.6-1.2-1.2-1.6s-1.3-0.7-2.2-0.7c-0.8,0-1.4,0.2-2,0.5c-0.6,0.3-1.1,0.8-1.4,1.4c-0.3,0.6-0.5,1.3-0.5,2.1
					s0.2,1.5,0.5,2.1c0.4,0.6,0.8,1.1,1.5,1.5s1.3,0.5,2.1,0.5c0.5,0,1.1-0.1,1.6-0.3c0.5-0.2,1-0.4,1.5-0.7l1.3,2
					c-0.6,0.4-1.3,0.7-2.1,1C485.1,114.7,484.3,114.8,483.6,114.8z"/>
				<path class="st2" d="M508.1,114.8c-1.2,0-2.2-0.2-3.2-0.7c-1-0.5-1.7-1.2-2.3-2.1c-0.6-0.9-0.8-2-0.8-3.4c0-1.3,0.3-2.5,0.9-3.4
					c0.6-0.9,1.4-1.7,2.3-2.2c1-0.5,2.1-0.8,3.2-0.8s2.1,0.3,3,0.8c0.8,0.5,1.4,1.1,1.8,1.8l-0.2,0.4l0.3-2.5h2.6v11.7h-2.8v-3.1
					l0.3,0.7c-0.1,0.2-0.3,0.4-0.6,0.7c-0.3,0.3-0.6,0.6-1.1,0.9c-0.4,0.3-0.9,0.6-1.5,0.8S508.8,114.8,508.1,114.8z M508.9,112.6
					c0.7,0,1.3-0.1,1.9-0.4c0.6-0.2,1-0.6,1.4-1s0.6-1,0.8-1.6v-2.3c-0.2-0.6-0.4-1.1-0.8-1.5s-0.9-0.8-1.4-1
					c-0.6-0.2-1.2-0.4-1.8-0.4c-0.8,0-1.5,0.2-2.1,0.5c-0.6,0.3-1.1,0.8-1.5,1.4c-0.4,0.6-0.6,1.3-0.6,2.1c0,0.8,0.2,1.4,0.6,2.1
					c0.4,0.6,0.9,1.1,1.5,1.5C507.4,112.5,508.1,112.6,508.9,112.6z"/>
				<path class="st2" d="M521.7,97.6h2.9v5.2h3.4v2.1h-3.4v9.6h-2.9v-9.6h-2.3v-2.1h2.3V97.6z"/>
				<path class="st2" d="M532.6,97.6h2.9v5.2h3.4v2.1h-3.4v9.6h-2.9v-9.6h-2.3v-2.1h2.3V97.6z"/>
				<path class="st2" d="M542,98.5c0-0.4,0.2-0.8,0.5-1c0.3-0.3,0.7-0.4,1.2-0.4c0.4,0,0.8,0.1,1.1,0.4c0.3,0.3,0.5,0.6,0.5,1
					c0,0.4-0.2,0.8-0.5,1.1c-0.3,0.3-0.7,0.4-1.1,0.4c-0.4,0-0.8-0.1-1.2-0.4C542.2,99.3,542,99,542,98.5z M542.2,102.8h2.8v11.7
					h-2.8V102.8z"/>
				<path class="st2" d="M554.9,114.9l-6.9-12.1h3.3l4.7,9.3l-1.7-0.1l4.3-9.2h3.1l-6.6,12.1H554.9z"/>
				<path class="st2" d="M564.5,98.5c0-0.4,0.2-0.8,0.5-1c0.3-0.3,0.7-0.4,1.2-0.4c0.4,0,0.8,0.1,1.1,0.4c0.3,0.3,0.5,0.6,0.5,1
					c0,0.4-0.2,0.8-0.5,1.1c-0.3,0.3-0.7,0.4-1.1,0.4c-0.4,0-0.8-0.1-1.2-0.4C564.7,99.3,564.5,99,564.5,98.5z M564.7,102.8h2.8
					v11.7h-2.8V102.8z"/>
				<path class="st2" d="M573.6,97.6h2.9v5.2h3.4v2.1h-3.4v9.6h-2.9v-9.6h-2.3v-2.1h2.3V97.6z"/>
				<path class="st2" d="M588.4,114.8c-1.2,0-2.2-0.2-3.2-0.7c-1-0.5-1.7-1.2-2.3-2.1c-0.6-0.9-0.8-2-0.8-3.4c0-1.3,0.3-2.5,0.9-3.4
					c0.6-0.9,1.4-1.7,2.3-2.2c1-0.5,2.1-0.8,3.2-0.8s2.1,0.3,3,0.8c0.8,0.5,1.4,1.1,1.8,1.8l-0.2,0.4l0.3-2.5h2.6v11.7h-2.8v-3.1
					l0.3,0.7c-0.1,0.2-0.3,0.4-0.6,0.7c-0.3,0.3-0.6,0.6-1.1,0.9c-0.4,0.3-0.9,0.6-1.5,0.8S589.1,114.8,588.4,114.8z M589.1,112.6
					c0.7,0,1.3-0.1,1.9-0.4c0.6-0.2,1-0.6,1.4-1s0.6-1,0.8-1.6v-2.3c-0.2-0.6-0.4-1.1-0.8-1.5s-0.9-0.8-1.4-1
					c-0.6-0.2-1.2-0.4-1.8-0.4c-0.8,0-1.5,0.2-2.1,0.5c-0.6,0.3-1.1,0.8-1.5,1.4c-0.4,0.6-0.6,1.3-0.6,2.1c0,0.8,0.2,1.4,0.6,2.1
					c0.4,0.6,0.9,1.1,1.5,1.5C587.7,112.5,588.4,112.6,589.1,112.6z M585.6,96.6h3.1l2.2,3.8h-1.8L585.6,96.6z"/>
			</g>
		</g>
		<g>
			<g class="st1">
				<path class="st2" d="M24.2,148.8c-1.4,0-2.6-0.3-3.7-0.8c-1-0.5-1.8-1.3-2.4-2.2c-0.6-0.9-0.8-2-0.8-3.2c0-1.2,0.3-2.2,0.9-3.1
					c0.6-0.9,1.5-1.7,2.5-2.3c1-0.6,2.2-0.9,3.5-0.9c1.6,0,3,0.5,4.1,1.4c1.1,0.9,1.8,2.2,2.2,3.7l-10.3,3.4l-0.7-1.6l8.4-2.9
					l-0.6,0.4c-0.2-0.6-0.6-1.2-1.2-1.6c-0.6-0.5-1.3-0.7-2.2-0.7c-0.8,0-1.4,0.2-2,0.5c-0.6,0.3-1.1,0.8-1.4,1.4
					c-0.3,0.6-0.5,1.3-0.5,2.1c0,0.8,0.2,1.5,0.5,2.1c0.4,0.6,0.8,1.1,1.5,1.5c0.6,0.3,1.3,0.5,2.1,0.5c0.5,0,1.1-0.1,1.6-0.3
					s1-0.4,1.5-0.7l1.3,2c-0.6,0.4-1.3,0.7-2.1,1C25.7,148.7,24.9,148.8,24.2,148.8z"/>
			</g>
		</g>
		<g>
			<g class="st1">
				<path class="st2" d="M44.7,148.5h-3.4l-9.5-11.7h3.5L44.7,148.5z M38.1,144.2l-3.3,4.4H32l4.8-6.1L38.1,144.2z M38.4,141.2
					l3-4.4h2.9l-4.8,6.3L38.4,141.2z"/>
				<path class="st2" d="M48.9,131.7h2.9v5.2h3.4v2.1h-3.4v9.6h-2.9v-9.6h-2.3v-2.1h2.3V131.7z"/>
			</g>
		</g>
		<g>
			<g class="st1">
				<path class="st2" d="M61,136.8l0.3,3.4l-0.1-0.5c0.3-0.7,0.8-1.3,1.4-1.8c0.6-0.5,1.2-0.9,1.9-1.2c0.7-0.3,1.3-0.4,1.7-0.4
					l-0.1,2.7c-1-0.1-1.8,0.1-2.5,0.5c-0.7,0.4-1.3,0.9-1.7,1.6c-0.4,0.7-0.6,1.4-0.6,2.1v5.4h-2.8v-11.7H61z"/>
			</g>
		</g>
		<g>
			<g class="st1">
				<path class="st2" d="M74.7,148.8c-1.2,0-2.2-0.2-3.2-0.7c-1-0.5-1.7-1.2-2.3-2.1c-0.6-0.9-0.8-2-0.8-3.4c0-1.3,0.3-2.5,0.9-3.4
					c0.6-0.9,1.4-1.7,2.3-2.2c1-0.5,2.1-0.8,3.2-0.8s2.1,0.2,3,0.8c0.8,0.5,1.4,1.1,1.8,1.8l-0.2,0.4l0.3-2.5h2.6v11.7h-2.8v-3.1
					l0.3,0.7c-0.1,0.2-0.3,0.4-0.6,0.7c-0.3,0.3-0.6,0.6-1.1,0.9c-0.4,0.3-0.9,0.6-1.5,0.8C76.1,148.7,75.4,148.8,74.7,148.8z
					 M75.4,146.7c0.7,0,1.3-0.1,1.9-0.4c0.6-0.2,1-0.6,1.4-1c0.4-0.5,0.6-1,0.8-1.6v-2.3c-0.2-0.6-0.4-1.1-0.8-1.5
					c-0.4-0.4-0.9-0.8-1.4-1s-1.2-0.4-1.8-0.4c-0.8,0-1.5,0.2-2.1,0.5c-0.6,0.3-1.1,0.8-1.5,1.4c-0.4,0.6-0.6,1.3-0.6,2.1
					c0,0.8,0.2,1.4,0.6,2.1c0.4,0.6,0.9,1.1,1.5,1.5C74,146.5,74.7,146.7,75.4,146.7z"/>
				<path class="st2" d="M86.3,141.3h5.6v2.3h-5.6V141.3z"/>
				<path class="st2" d="M106.4,147.4c-0.6,0.4-1.2,0.8-2,1c-0.8,0.2-1.6,0.4-2.3,0.4c-1.3,0-2.5-0.3-3.6-0.8
					c-1-0.5-1.8-1.2-2.4-2.2c-0.6-0.9-0.9-2-0.9-3.3c0-1.2,0.3-2.3,0.9-3.2c0.6-0.9,1.4-1.6,2.4-2.1c1-0.5,2.1-0.8,3.2-0.8
					c1,0,1.9,0.1,2.7,0.4c0.8,0.3,1.5,0.6,2.1,1.1l-1.4,1.7c-0.3-0.2-0.8-0.5-1.3-0.7c-0.5-0.2-1.1-0.3-1.8-0.3
					c-0.7,0-1.4,0.2-2,0.5c-0.6,0.4-1.1,0.8-1.4,1.4s-0.5,1.3-0.5,2c0,0.7,0.2,1.4,0.5,2c0.4,0.6,0.9,1.1,1.5,1.4s1.4,0.5,2.2,0.5
					c0.5,0,1-0.1,1.5-0.2c0.5-0.2,0.9-0.4,1.2-0.6L106.4,147.4z"/>
				<path class="st2" d="M114,149c-1.2,0-2.1-0.3-2.8-1c-0.7-0.7-1.1-1.5-1.2-2.5v-8.7h2.8v7.7c0,0.6,0.2,1.1,0.6,1.5
					c0.4,0.4,0.9,0.6,1.7,0.6c0.7,0,1.3-0.2,1.8-0.6c0.6-0.4,1-0.9,1.3-1.6c0.3-0.7,0.5-1.4,0.5-2.3v-5.5h2.8v11.7H119l-0.2-2.9
					l0.2,0.5c-0.3,0.5-0.6,1-1.1,1.4c-0.5,0.4-1.1,0.8-1.7,1S114.7,149,114,149z"/>
				<path class="st2" d="M128.9,136.8l0.3,3.4l-0.1-0.5c0.3-0.7,0.8-1.3,1.4-1.8c0.6-0.5,1.2-0.9,1.9-1.2c0.7-0.3,1.3-0.4,1.7-0.4
					L134,139c-1-0.1-1.8,0.1-2.5,0.5c-0.7,0.4-1.3,0.9-1.7,1.6c-0.4,0.7-0.6,1.4-0.6,2.1v5.4h-2.8v-11.7H128.9z"/>
				<path class="st2" d="M140.2,136.8l0.3,3.4l-0.1-0.5c0.3-0.7,0.8-1.3,1.4-1.8c0.6-0.5,1.2-0.9,1.9-1.2c0.7-0.3,1.3-0.4,1.7-0.4
					l-0.1,2.7c-1-0.1-1.8,0.1-2.5,0.5c-0.7,0.4-1.3,0.9-1.7,1.6c-0.4,0.7-0.6,1.4-0.6,2.1v5.4h-2.8v-11.7H140.2z"/>
				<path class="st2" d="M148.8,132.6c0-0.4,0.2-0.8,0.5-1c0.4-0.3,0.7-0.4,1.2-0.4c0.4,0,0.8,0.1,1.1,0.4c0.3,0.3,0.5,0.6,0.5,1
					c0,0.4-0.2,0.8-0.5,1.1c-0.3,0.3-0.7,0.4-1.1,0.4c-0.4,0-0.8-0.1-1.2-0.4C149,133.3,148.8,133,148.8,132.6z M149,136.8h2.8v11.7
					H149V136.8z"/>
				<path class="st2" d="M166.8,147.4c-0.6,0.4-1.2,0.8-2,1c-0.8,0.2-1.6,0.4-2.3,0.4c-1.3,0-2.5-0.3-3.6-0.8
					c-1-0.5-1.8-1.2-2.4-2.2c-0.6-0.9-0.9-2-0.9-3.3c0-1.2,0.3-2.3,0.9-3.2c0.6-0.9,1.4-1.6,2.4-2.1c1-0.5,2.1-0.8,3.2-0.8
					c1,0,1.9,0.1,2.7,0.4c0.8,0.3,1.5,0.6,2.1,1.1l-1.4,1.7c-0.3-0.2-0.8-0.5-1.3-0.7c-0.5-0.2-1.1-0.3-1.8-0.3
					c-0.7,0-1.4,0.2-2,0.5c-0.6,0.4-1.1,0.8-1.4,1.4s-0.5,1.3-0.5,2c0,0.7,0.2,1.4,0.5,2c0.4,0.6,0.9,1.1,1.5,1.4s1.4,0.5,2.2,0.5
					c0.5,0,1-0.1,1.5-0.2c0.5-0.2,0.9-0.4,1.2-0.6L166.8,147.4z"/>
				<path class="st2" d="M174.3,149c-1.2,0-2.1-0.3-2.8-1c-0.7-0.7-1.1-1.5-1.2-2.5v-8.7h2.8v7.7c0,0.6,0.2,1.1,0.6,1.5
					c0.4,0.4,0.9,0.6,1.7,0.6c0.7,0,1.3-0.2,1.8-0.6c0.6-0.4,1-0.9,1.3-1.6c0.3-0.7,0.5-1.4,0.5-2.3v-5.5h2.8v11.7h-2.6l-0.2-2.9
					l0.2,0.5c-0.3,0.5-0.6,1-1.1,1.4c-0.5,0.4-1.1,0.8-1.7,1S175.1,149,174.3,149z"/>
				<path class="st2" d="M186.8,126.6h2.8v21.9h-2.8V126.6z"/>
				<path class="st2" d="M199.6,148.8c-1.2,0-2.2-0.2-3.2-0.7c-1-0.5-1.7-1.2-2.3-2.1c-0.6-0.9-0.8-2-0.8-3.4c0-1.3,0.3-2.5,0.9-3.4
					c0.6-0.9,1.4-1.7,2.3-2.2c1-0.5,2.1-0.8,3.2-0.8s2.1,0.2,3,0.8c0.8,0.5,1.4,1.1,1.8,1.8l-0.2,0.4l0.3-2.5h2.6v11.7h-2.8v-3.1
					l0.3,0.7c-0.1,0.2-0.3,0.4-0.6,0.7c-0.3,0.3-0.6,0.6-1.1,0.9c-0.4,0.3-0.9,0.6-1.5,0.8C201,148.7,200.4,148.8,199.6,148.8z
					 M200.4,146.7c0.7,0,1.3-0.1,1.9-0.4c0.6-0.2,1-0.6,1.4-1c0.4-0.5,0.6-1,0.8-1.6v-2.3c-0.2-0.6-0.4-1.1-0.8-1.5
					c-0.4-0.4-0.9-0.8-1.4-1s-1.2-0.4-1.8-0.4c-0.8,0-1.5,0.2-2.1,0.5c-0.6,0.3-1.1,0.8-1.5,1.4c-0.4,0.6-0.6,1.3-0.6,2.1
					c0,0.8,0.2,1.4,0.6,2.1c0.4,0.6,0.9,1.1,1.5,1.5C198.9,146.5,199.6,146.7,200.4,146.7z"/>
				<path class="st2" d="M214.6,136.8l0.3,3.4l-0.1-0.5c0.3-0.7,0.8-1.3,1.4-1.8c0.6-0.5,1.2-0.9,1.9-1.2c0.7-0.3,1.3-0.4,1.7-0.4
					l-0.1,2.7c-1-0.1-1.8,0.1-2.5,0.5c-0.7,0.4-1.3,0.9-1.7,1.6c-0.4,0.7-0.6,1.4-0.6,2.1v5.4h-2.8v-11.7H214.6z"/>
				<path class="st2" d="M223.2,132.6c0-0.4,0.2-0.8,0.5-1c0.4-0.3,0.7-0.4,1.2-0.4c0.4,0,0.8,0.1,1.1,0.4c0.3,0.3,0.5,0.6,0.5,1
					c0,0.4-0.2,0.8-0.5,1.1c-0.3,0.3-0.7,0.4-1.1,0.4c-0.4,0-0.8-0.1-1.2-0.4C223.3,133.3,223.2,133,223.2,132.6z M223.4,136.8h2.8
					v11.7h-2.8V136.8z"/>
				<path class="st2" d="M230.1,146c0.3-0.3,0.7-0.5,1.1-0.5c0.4,0,0.7,0.2,1,0.5c0.3,0.3,0.5,0.7,0.5,1.1c0,0.5-0.2,0.8-0.5,1.1
					s-0.7,0.4-1,0.4c-0.4,0-0.8-0.1-1.1-0.4s-0.5-0.6-0.5-1.1C229.6,146.6,229.8,146.3,230.1,146z"/>
			</g>
		</g>
		<g>
			<g class="st1">
				<path class="st2" d="M17,182.6l9.5-21.3h0.2l9.5,21.3h-3.3l-7.1-17l2.1-1.3l-7.9,18.3H17z M22.5,174.8h8.1l1,2.4h-9.9
					L22.5,174.8z"/>
				<path class="st2" d="M42,170.8l0.2,2.6l-0.2-0.2c0.5-0.9,1.1-1.6,2-2.1c0.9-0.5,1.8-0.8,3-0.8c0.7,0,1.3,0.1,1.8,0.3
					c0.5,0.2,1,0.5,1.3,0.9c0.4,0.4,0.6,0.9,0.7,1.4l-0.1,0.1c0.5-0.9,1.1-1.5,2-2s1.7-0.7,2.7-0.7c1.2,0,2.2,0.3,2.9,1
					c0.7,0.7,1.1,1.5,1.1,2.5v8.7h-2.8v-7.7c0-0.6-0.2-1.1-0.5-1.5c-0.3-0.4-0.8-0.6-1.5-0.6c-0.7,0-1.4,0.2-1.9,0.6s-1,0.9-1.3,1.6
					c-0.3,0.7-0.5,1.4-0.5,2.1v5.6h-2.8v-7.7c0-0.6-0.2-1.1-0.5-1.5c-0.3-0.4-0.8-0.6-1.5-0.6c-0.7,0-1.4,0.2-1.9,0.6
					s-1,0.9-1.3,1.6s-0.5,1.4-0.5,2.2v5.5h-2.8v-11.7H42z"/>
				<path class="st2" d="M69.5,182.9c-1.2,0-2.2-0.2-3.2-0.7c-1-0.5-1.7-1.2-2.3-2.1c-0.6-0.9-0.8-2-0.8-3.4s0.3-2.5,0.9-3.4
					c0.6-0.9,1.4-1.7,2.3-2.2c1-0.5,2.1-0.8,3.2-0.8s2.1,0.3,3,0.8c0.8,0.5,1.4,1.1,1.8,1.8l-0.2,0.4l0.3-2.5h2.6v11.7h-2.8v-3.1
					l0.3,0.7c-0.1,0.2-0.3,0.4-0.6,0.7c-0.3,0.3-0.6,0.6-1.1,0.9c-0.4,0.3-0.9,0.6-1.5,0.8C70.9,182.8,70.2,182.9,69.5,182.9z
					 M70.2,180.7c0.7,0,1.3-0.1,1.9-0.4c0.6-0.2,1-0.6,1.4-1c0.4-0.5,0.6-1,0.8-1.6v-2.3c-0.2-0.6-0.4-1.1-0.8-1.5
					c-0.4-0.4-0.9-0.8-1.4-1c-0.6-0.2-1.2-0.4-1.8-0.4c-0.8,0-1.5,0.2-2.1,0.5c-0.6,0.3-1.1,0.8-1.5,1.4c-0.4,0.6-0.6,1.3-0.6,2.1
					c0,0.8,0.2,1.4,0.6,2.1c0.4,0.6,0.9,1.1,1.5,1.5C68.8,180.5,69.5,180.7,70.2,180.7z"/>
				<path class="st2" d="M94,170.8l0.2,2.6l-0.2-0.2c0.5-0.9,1.1-1.6,2-2.1c0.9-0.5,1.8-0.8,3-0.8c0.7,0,1.3,0.1,1.8,0.3
					c0.5,0.2,1,0.5,1.3,0.9c0.4,0.4,0.6,0.9,0.7,1.4l-0.1,0.1c0.5-0.9,1.1-1.5,2-2s1.7-0.7,2.7-0.7c1.2,0,2.2,0.3,2.9,1
					c0.7,0.7,1.1,1.5,1.1,2.5v8.7h-2.8v-7.7c0-0.6-0.2-1.1-0.5-1.5c-0.3-0.4-0.8-0.6-1.5-0.6c-0.7,0-1.4,0.2-1.9,0.6s-1,0.9-1.3,1.6
					c-0.3,0.7-0.5,1.4-0.5,2.1v5.6H100v-7.7c0-0.6-0.2-1.1-0.5-1.5c-0.3-0.4-0.8-0.6-1.5-0.6c-0.7,0-1.4,0.2-1.9,0.6s-1,0.9-1.3,1.6
					s-0.5,1.4-0.5,2.2v5.5h-2.8v-11.7H94z"/>
				<path class="st2" d="M115.1,176.6c0-1.2,0.3-2.2,0.9-3.2c0.6-0.9,1.4-1.7,2.5-2.2s2.2-0.8,3.6-0.8c1.3,0,2.5,0.3,3.5,0.8
					c1,0.5,1.8,1.3,2.4,2.2c0.6,0.9,0.9,2,0.9,3.2s-0.3,2.2-0.9,3.2c-0.6,0.9-1.4,1.7-2.4,2.3c-1,0.6-2.2,0.8-3.6,0.8
					c-1.3,0-2.5-0.3-3.6-0.8c-1-0.5-1.8-1.2-2.4-2.2S115.1,177.9,115.1,176.6z M117.9,176.6c0,0.8,0.2,1.4,0.5,2.1
					c0.4,0.6,0.8,1.1,1.4,1.5c0.6,0.4,1.3,0.5,2,0.5c0.8,0,1.5-0.2,2.1-0.5c0.6-0.4,1.1-0.8,1.4-1.5c0.4-0.6,0.5-1.3,0.5-2.1
					c0-0.8-0.2-1.4-0.5-2.1c-0.4-0.6-0.8-1.1-1.4-1.5c-0.6-0.4-1.3-0.6-2.1-0.6c-0.8,0-1.4,0.2-2.1,0.6c-0.6,0.4-1.1,0.9-1.4,1.5
					S117.9,175.9,117.9,176.6z"/>
				<path class="st2" d="M132.6,160.6h2.8v21.9h-2.8V160.6z"/>
				<path class="st2" d="M141.4,165.7h2.9v5.2h3.4v2.1h-3.4v9.6h-2.9V173h-2.3v-2.1h2.3V165.7z"/>
				<path class="st2" d="M150,176.6c0-1.2,0.3-2.2,0.9-3.2c0.6-0.9,1.4-1.7,2.5-2.2s2.2-0.8,3.6-0.8c1.3,0,2.5,0.3,3.5,0.8
					c1,0.5,1.8,1.3,2.4,2.2c0.6,0.9,0.9,2,0.9,3.2s-0.3,2.2-0.9,3.2c-0.6,0.9-1.4,1.7-2.4,2.3c-1,0.6-2.2,0.8-3.6,0.8
					c-1.3,0-2.5-0.3-3.6-0.8c-1-0.5-1.8-1.2-2.4-2.2S150,177.9,150,176.6z M152.8,176.6c0,0.8,0.2,1.4,0.5,2.1
					c0.4,0.6,0.8,1.1,1.4,1.5c0.6,0.4,1.3,0.5,2,0.5c0.8,0,1.5-0.2,2.1-0.5c0.6-0.4,1.1-0.8,1.4-1.5c0.4-0.6,0.5-1.3,0.5-2.1
					c0-0.8-0.2-1.4-0.5-2.1c-0.4-0.6-0.8-1.1-1.4-1.5c-0.6-0.4-1.3-0.6-2.1-0.6c-0.8,0-1.4,0.2-2.1,0.6c-0.6,0.4-1.1,0.9-1.4,1.5
					S152.8,175.9,152.8,176.6z"/>
				<path class="st2" d="M176.9,160.6h2.8v21.9h-2.8V160.6z"/>
				<path class="st2" d="M189.8,182.9c-1.2,0-2.2-0.2-3.2-0.7c-1-0.5-1.7-1.2-2.3-2.1c-0.6-0.9-0.8-2-0.8-3.4s0.3-2.5,0.9-3.4
					c0.6-0.9,1.4-1.7,2.3-2.2c1-0.5,2.1-0.8,3.2-0.8s2.1,0.3,3,0.8c0.8,0.5,1.4,1.1,1.8,1.8l-0.2,0.4l0.3-2.5h2.6v11.7h-2.8v-3.1
					l0.3,0.7c-0.1,0.2-0.3,0.4-0.6,0.7c-0.3,0.3-0.6,0.6-1.1,0.9c-0.4,0.3-0.9,0.6-1.5,0.8C191.2,182.8,190.5,182.9,189.8,182.9z
					 M190.5,180.7c0.7,0,1.3-0.1,1.9-0.4c0.6-0.2,1-0.6,1.4-1c0.4-0.5,0.6-1,0.8-1.6v-2.3c-0.2-0.6-0.4-1.1-0.8-1.5
					c-0.4-0.4-0.9-0.8-1.4-1c-0.6-0.2-1.2-0.4-1.8-0.4c-0.8,0-1.5,0.2-2.1,0.5c-0.6,0.3-1.1,0.8-1.5,1.4c-0.4,0.6-0.6,1.3-0.6,2.1
					c0,0.8,0.2,1.4,0.6,2.1c0.4,0.6,0.9,1.1,1.5,1.5C189.1,180.5,189.8,180.7,190.5,180.7z"/>
				<path class="st2" d="M215.2,182.8c-0.9,0-1.7-0.1-2.6-0.4c-0.8-0.3-1.5-0.7-2.1-1.3l1.2-1.5c0.5,0.5,1.1,0.8,1.6,1.1
					s1.1,0.4,1.6,0.4c0.4,0,0.8,0,1.1-0.1c0.3-0.1,0.6-0.3,0.8-0.5c0.2-0.2,0.3-0.5,0.3-0.9c0-0.4-0.1-0.8-0.4-1
					c-0.3-0.2-0.7-0.4-1.1-0.6c-0.4-0.2-0.9-0.3-1.4-0.4c-1-0.3-1.8-0.8-2.3-1.3s-0.8-1.3-0.8-2.1c0-0.6,0.2-1.2,0.5-1.7
					c0.3-0.5,0.8-1,1.5-1.3s1.5-0.5,2.4-0.5c0.9,0,1.6,0.1,2.3,0.3c0.7,0.2,1.3,0.5,1.9,1l-1.1,1.6c-0.4-0.4-0.8-0.6-1.3-0.8
					c-0.5-0.2-0.9-0.3-1.3-0.3c-0.4,0-0.7,0.1-1,0.2c-0.3,0.1-0.6,0.3-0.8,0.5c-0.2,0.2-0.3,0.4-0.3,0.8c0,0.4,0.1,0.7,0.4,1
					c0.3,0.2,0.7,0.4,1.1,0.6c0.4,0.2,0.9,0.3,1.4,0.5c0.6,0.2,1.1,0.4,1.6,0.7c0.5,0.3,0.9,0.6,1.2,1c0.3,0.4,0.4,0.9,0.4,1.6
					c0,0.7-0.2,1.3-0.5,1.9c-0.4,0.6-0.9,1.1-1.6,1.4C217.2,182.6,216.3,182.8,215.2,182.8z"/>
				<path class="st2" d="M234.1,181.5c-0.6,0.4-1.2,0.8-2,1c-0.8,0.2-1.6,0.4-2.3,0.4c-1.3,0-2.5-0.3-3.6-0.8
					c-1-0.5-1.8-1.2-2.4-2.2c-0.6-0.9-0.9-2-0.9-3.3c0-1.2,0.3-2.3,0.9-3.2c0.6-0.9,1.4-1.6,2.4-2.1c1-0.5,2.1-0.8,3.2-0.8
					c1,0,1.9,0.1,2.7,0.4c0.8,0.3,1.5,0.6,2.1,1.1l-1.4,1.7c-0.3-0.2-0.8-0.5-1.3-0.7c-0.5-0.2-1.1-0.3-1.8-0.3
					c-0.7,0-1.4,0.2-2,0.5c-0.6,0.3-1.1,0.8-1.4,1.4s-0.5,1.3-0.5,2c0,0.7,0.2,1.4,0.5,2c0.4,0.6,0.9,1.1,1.5,1.4
					c0.6,0.4,1.4,0.5,2.2,0.5c0.5,0,1-0.1,1.5-0.2c0.5-0.2,0.9-0.4,1.2-0.6L234.1,181.5z"/>
				<path class="st2" d="M237.5,166.6c0-0.4,0.2-0.8,0.5-1s0.7-0.4,1.2-0.4c0.4,0,0.8,0.1,1.1,0.4s0.5,0.6,0.5,1
					c0,0.4-0.2,0.8-0.5,1.1c-0.3,0.3-0.7,0.4-1.1,0.4c-0.4,0-0.8-0.1-1.2-0.4C237.6,167.4,237.5,167,237.5,166.6z M237.7,170.8h2.8
					v11.7h-2.8V170.8z"/>
				<path class="st2" d="M251.1,182.9c-1.4,0-2.6-0.3-3.7-0.8c-1-0.5-1.8-1.3-2.4-2.2c-0.6-0.9-0.8-2-0.8-3.2c0-1.2,0.3-2.2,0.9-3.1
					c0.6-0.9,1.5-1.7,2.5-2.3c1-0.6,2.2-0.9,3.5-0.9c1.6,0,3,0.5,4.1,1.4c1.1,0.9,1.8,2.2,2.2,3.7l-10.3,3.4l-0.7-1.6l8.4-2.9
					l-0.6,0.4c-0.2-0.6-0.6-1.2-1.2-1.6c-0.6-0.5-1.3-0.7-2.2-0.7c-0.8,0-1.4,0.2-2,0.5c-0.6,0.3-1.1,0.8-1.4,1.4
					c-0.3,0.6-0.5,1.3-0.5,2.1c0,0.8,0.2,1.5,0.5,2.1c0.4,0.6,0.8,1.1,1.5,1.5c0.6,0.3,1.3,0.5,2.1,0.5c0.5,0,1.1-0.1,1.6-0.3
					c0.5-0.2,1-0.4,1.5-0.7l1.3,2c-0.6,0.4-1.3,0.7-2.1,1C252.6,182.7,251.9,182.9,251.1,182.9z"/>
				<path class="st2" d="M263.5,170.8l0.2,2.9l-0.1-0.5c0.4-0.9,1-1.6,1.9-2.1c0.9-0.5,2-0.8,3.2-0.8c1.2,0,2.1,0.3,2.9,1
					c0.8,0.7,1.1,1.5,1.2,2.5v8.7h-2.8v-7.8c0-0.6-0.2-1.1-0.6-1.5c-0.4-0.4-0.9-0.6-1.7-0.6c-0.7,0-1.3,0.2-1.9,0.6
					s-1.1,0.9-1.4,1.6s-0.5,1.4-0.5,2.3v5.5h-2.8v-11.7H263.5z"/>
				<path class="st2" d="M278.7,173c-0.6,0-1.1-0.2-1.6-0.5c-0.4-0.4-0.6-0.9-0.6-1.6v-1.1h2.1v0.4c0,0.3,0.1,0.5,0.2,0.6
					c0.1,0.1,0.4,0.1,0.8,0.1h8l-7.5,10.1l-0.6-0.5h7.9v2.2H276l7.6-10.3l0.5,0.7H278.7z"/>
				<path class="st2" d="M296.7,182.9c-1.2,0-2.2-0.2-3.2-0.7c-1-0.5-1.7-1.2-2.3-2.1c-0.6-0.9-0.8-2-0.8-3.4s0.3-2.5,0.9-3.4
					c0.6-0.9,1.4-1.7,2.3-2.2c1-0.5,2.1-0.8,3.2-0.8s2.1,0.3,3,0.8c0.8,0.5,1.4,1.1,1.8,1.8l-0.2,0.4l0.3-2.5h2.6v11.7h-2.8v-3.1
					l0.3,0.7c-0.1,0.2-0.3,0.4-0.6,0.7c-0.3,0.3-0.6,0.6-1.1,0.9c-0.4,0.3-0.9,0.6-1.5,0.8C298.1,182.8,297.4,182.9,296.7,182.9z
					 M297.4,180.7c0.7,0,1.3-0.1,1.9-0.4c0.6-0.2,1-0.6,1.4-1c0.4-0.5,0.6-1,0.8-1.6v-2.3c-0.2-0.6-0.4-1.1-0.8-1.5s-0.9-0.8-1.4-1
					c-0.6-0.2-1.2-0.4-1.8-0.4c-0.8,0-1.5,0.2-2.1,0.5c-0.6,0.3-1.1,0.8-1.5,1.4c-0.4,0.6-0.6,1.3-0.6,2.1c0,0.8,0.2,1.4,0.6,2.1
					c0.4,0.6,0.9,1.1,1.5,1.5C296,180.5,296.7,180.7,297.4,180.7z"/>
				<path class="st2" d="M324.4,182.9c-1.4,0-2.6-0.3-3.7-0.8c-1-0.5-1.8-1.3-2.4-2.2c-0.6-0.9-0.8-2-0.8-3.2c0-1.2,0.3-2.2,0.9-3.1
					c0.6-0.9,1.5-1.7,2.5-2.3c1-0.6,2.2-0.9,3.5-0.9c1.6,0,3,0.5,4.1,1.4c1.1,0.9,1.8,2.2,2.2,3.7l-10.3,3.4l-0.7-1.6l8.4-2.9
					l-0.6,0.4c-0.2-0.6-0.6-1.2-1.2-1.6s-1.3-0.7-2.2-0.7c-0.8,0-1.4,0.2-2,0.5c-0.6,0.3-1.1,0.8-1.4,1.4s-0.5,1.3-0.5,2.1
					c0,0.8,0.2,1.5,0.5,2.1c0.4,0.6,0.8,1.1,1.5,1.5s1.3,0.5,2.1,0.5c0.5,0,1.1-0.1,1.6-0.3c0.5-0.2,1-0.4,1.5-0.7l1.3,2
					c-0.6,0.4-1.3,0.7-2.1,1C325.9,182.7,325.2,182.9,324.4,182.9z"/>
				<path class="st2" d="M347.2,182.8c-0.9,0-1.7-0.1-2.6-0.4c-0.8-0.3-1.5-0.7-2.1-1.3l1.2-1.5c0.5,0.5,1.1,0.8,1.6,1.1
					s1.1,0.4,1.6,0.4c0.4,0,0.8,0,1.1-0.1c0.3-0.1,0.6-0.3,0.8-0.5c0.2-0.2,0.3-0.5,0.3-0.9c0-0.4-0.1-0.8-0.4-1
					c-0.3-0.2-0.7-0.4-1.1-0.6s-0.9-0.3-1.4-0.4c-1-0.3-1.8-0.8-2.3-1.3s-0.8-1.3-0.8-2.1c0-0.6,0.2-1.2,0.5-1.7
					c0.3-0.5,0.8-1,1.5-1.3s1.5-0.5,2.4-0.5c0.9,0,1.6,0.1,2.3,0.3c0.7,0.2,1.3,0.5,1.9,1l-1.1,1.6c-0.4-0.4-0.8-0.6-1.3-0.8
					s-0.9-0.3-1.3-0.3c-0.4,0-0.7,0.1-1,0.2c-0.3,0.1-0.6,0.3-0.8,0.5s-0.3,0.4-0.3,0.8c0,0.4,0.1,0.7,0.4,1
					c0.3,0.2,0.7,0.4,1.1,0.6c0.4,0.2,0.9,0.3,1.4,0.5c0.6,0.2,1.1,0.4,1.6,0.7c0.5,0.3,0.9,0.6,1.2,1s0.4,0.9,0.4,1.6
					c0,0.7-0.2,1.3-0.5,1.9c-0.4,0.6-0.9,1.1-1.6,1.4S348.3,182.8,347.2,182.8z"/>
				<path class="st2" d="M354.9,176.6c0-1.2,0.3-2.2,0.9-3.2c0.6-0.9,1.4-1.7,2.5-2.2s2.2-0.8,3.6-0.8c1.3,0,2.5,0.3,3.5,0.8
					c1,0.5,1.8,1.3,2.4,2.2s0.9,2,0.9,3.2s-0.3,2.2-0.9,3.2c-0.6,0.9-1.4,1.7-2.4,2.3c-1,0.6-2.2,0.8-3.6,0.8
					c-1.3,0-2.5-0.3-3.6-0.8c-1-0.5-1.8-1.2-2.4-2.2C355.2,179,354.9,177.9,354.9,176.6z M357.7,176.6c0,0.8,0.2,1.4,0.5,2.1
					c0.4,0.6,0.8,1.1,1.4,1.5c0.6,0.4,1.3,0.5,2,0.5c0.8,0,1.5-0.2,2.1-0.5c0.6-0.4,1.1-0.8,1.4-1.5c0.4-0.6,0.5-1.3,0.5-2.1
					c0-0.8-0.2-1.4-0.5-2.1s-0.8-1.1-1.4-1.5c-0.6-0.4-1.3-0.6-2.1-0.6c-0.8,0-1.4,0.2-2.1,0.6s-1.1,0.9-1.4,1.5
					S357.7,175.9,357.7,176.6z"/>
				<path class="st2" d="M378.4,188.4c-0.9,0-1.7-0.1-2.4-0.3c-0.7-0.2-1.4-0.5-1.9-0.9c-0.6-0.4-1.1-0.8-1.7-1.2l1.7-1.8
					c0.7,0.6,1.3,1,2,1.3c0.7,0.3,1.4,0.5,2.3,0.5c0.9,0,1.7-0.1,2.4-0.4c0.7-0.3,1.1-0.7,1.5-1.2c0.3-0.5,0.5-1.1,0.5-1.8l0-3.2
					l0.2,0.5c-0.4,0.8-1,1.5-2,2.1s-2.1,0.8-3.4,0.8c-1.1,0-2.2-0.3-3.1-0.8c-1-0.5-1.7-1.3-2.3-2.2s-0.9-2-0.9-3.2
					c0-1.2,0.3-2.3,0.9-3.3c0.6-0.9,1.4-1.7,2.4-2.2c1-0.5,2.1-0.8,3.2-0.8c1.1,0,2.1,0.2,3,0.6c0.9,0.4,1.6,1,2,1.6l-0.2,0.5
					l0.3-2.3h2.6v11.8c0,1.1-0.3,2-0.9,2.9s-1.4,1.6-2.5,2.1C381.1,188.2,379.8,188.4,378.4,188.4z M374.1,176.6
					c0,0.8,0.2,1.4,0.6,2.1s0.9,1.1,1.6,1.5c0.7,0.4,1.4,0.5,2.1,0.5c0.7,0,1.4-0.1,2-0.4c0.6-0.3,1.1-0.6,1.5-1.1
					c0.4-0.5,0.7-1,0.8-1.5v-2.4c-0.2-0.6-0.5-1.1-0.9-1.5s-0.9-0.7-1.5-1s-1.2-0.4-1.9-0.4c-0.8,0-1.5,0.2-2.1,0.5
					c-0.7,0.3-1.2,0.8-1.6,1.4C374.3,175.1,374.1,175.8,374.1,176.6z"/>
				<path class="st2" d="M392.9,170.8l0.2,2.9l-0.1-0.5c0.4-0.9,1-1.6,1.9-2.1c0.9-0.5,2-0.8,3.2-0.8c1.2,0,2.1,0.3,2.9,1
					c0.8,0.7,1.1,1.5,1.2,2.5v8.7h-2.8v-7.8c0-0.6-0.2-1.1-0.6-1.5c-0.4-0.4-0.9-0.6-1.7-0.6c-0.7,0-1.3,0.2-1.9,0.6
					c-0.6,0.4-1.1,0.9-1.4,1.6c-0.3,0.7-0.5,1.4-0.5,2.3v5.5h-2.8v-11.7H392.9z"/>
				<path class="st2" d="M412.2,182.9c-1.2,0-2.2-0.2-3.2-0.7c-1-0.5-1.7-1.2-2.3-2.1c-0.6-0.9-0.8-2-0.8-3.4s0.3-2.5,0.9-3.4
					s1.4-1.7,2.3-2.2c1-0.5,2.1-0.8,3.2-0.8s2.1,0.3,3,0.8c0.8,0.5,1.4,1.1,1.8,1.8l-0.2,0.4l0.3-2.5h2.6v11.7H417v-3.1l0.3,0.7
					c-0.1,0.2-0.3,0.4-0.6,0.7c-0.3,0.3-0.6,0.6-1.1,0.9c-0.4,0.3-0.9,0.6-1.5,0.8C413.6,182.8,412.9,182.9,412.2,182.9z
					 M412.9,180.7c0.7,0,1.3-0.1,1.9-0.4c0.6-0.2,1-0.6,1.4-1c0.4-0.5,0.6-1,0.8-1.6v-2.3c-0.2-0.6-0.4-1.1-0.8-1.5s-0.9-0.8-1.4-1
					c-0.6-0.2-1.2-0.4-1.8-0.4c-0.8,0-1.5,0.2-2.1,0.5c-0.6,0.3-1.1,0.8-1.5,1.4c-0.4,0.6-0.6,1.3-0.6,2.1c0,0.8,0.2,1.4,0.6,2.1
					c0.4,0.6,0.9,1.1,1.5,1.5C411.5,180.5,412.2,180.7,412.9,180.7z"/>
				<path class="st2" d="M439.2,182.9c-1.2,0-2.2-0.3-3.1-0.8c-0.9-0.5-1.7-1.3-2.2-2.2c-0.6-1-0.8-2.1-0.8-3.3
					c0-1.3,0.3-2.4,0.9-3.3c0.6-0.9,1.4-1.6,2.3-2.1c1-0.5,2.1-0.7,3.3-0.7c1,0,1.9,0.2,2.8,0.6c0.9,0.4,1.6,0.9,2.1,1.6l-0.1,0.9
					v-12.9h2.8v21.9h-2.8v-2.9l0.3,0.7c-0.6,0.7-1.4,1.3-2.3,1.8S440.3,182.9,439.2,182.9z M440,180.6c0.7,0,1.4-0.1,2-0.4
					c0.6-0.3,1.1-0.6,1.4-1.1s0.7-1,0.8-1.6v-2.2c-0.2-0.6-0.4-1.1-0.9-1.5c-0.4-0.4-0.9-0.8-1.5-1c-0.6-0.2-1.2-0.4-1.9-0.4
					c-0.7,0-1.4,0.2-2.1,0.5c-0.6,0.3-1.2,0.8-1.5,1.4c-0.4,0.6-0.6,1.3-0.6,2.1c0,0.8,0.2,1.5,0.6,2.1c0.4,0.6,0.9,1.1,1.5,1.5
					C438.6,180.4,439.3,180.6,440,180.6z"/>
				<path class="st2" d="M451.7,166.6c0-0.4,0.2-0.8,0.5-1c0.3-0.3,0.7-0.4,1.2-0.4c0.4,0,0.8,0.1,1.1,0.4c0.3,0.3,0.5,0.6,0.5,1
					c0,0.4-0.2,0.8-0.5,1.1c-0.3,0.3-0.7,0.4-1.1,0.4c-0.4,0-0.8-0.1-1.2-0.4C451.9,167.4,451.7,167,451.7,166.6z M451.9,170.8h2.8
					v11.7h-2.8V170.8z"/>
				<path class="st2" d="M474.2,182.9c-1.2,0-2.2-0.3-3.1-0.8c-0.9-0.5-1.7-1.3-2.2-2.2c-0.6-1-0.8-2.1-0.8-3.3
					c0-1.3,0.3-2.4,0.9-3.3c0.6-0.9,1.4-1.6,2.3-2.1c1-0.5,2.1-0.7,3.3-0.7c1,0,1.9,0.2,2.8,0.6c0.9,0.4,1.6,0.9,2.1,1.6l-0.1,0.9
					v-12.9h2.8v21.9h-2.8v-2.9l0.3,0.7c-0.6,0.7-1.4,1.3-2.3,1.8S475.3,182.9,474.2,182.9z M475,180.6c0.7,0,1.4-0.1,2-0.4
					c0.6-0.3,1.1-0.6,1.4-1.1s0.7-1,0.8-1.6v-2.2c-0.2-0.6-0.4-1.1-0.9-1.5c-0.4-0.4-0.9-0.8-1.5-1c-0.6-0.2-1.2-0.4-1.9-0.4
					c-0.7,0-1.4,0.2-2.1,0.5c-0.6,0.3-1.2,0.8-1.5,1.4c-0.4,0.6-0.6,1.3-0.6,2.1c0,0.8,0.2,1.5,0.6,2.1c0.4,0.6,0.9,1.1,1.5,1.5
					C473.6,180.4,474.3,180.6,475,180.6z"/>
				<path class="st2" d="M486.7,166.6c0-0.4,0.2-0.8,0.5-1c0.3-0.3,0.7-0.4,1.2-0.4c0.4,0,0.8,0.1,1.1,0.4c0.3,0.3,0.5,0.6,0.5,1
					c0,0.4-0.2,0.8-0.5,1.1c-0.3,0.3-0.7,0.4-1.1,0.4c-0.4,0-0.8-0.1-1.2-0.4C486.9,167.4,486.7,167,486.7,166.6z M486.9,170.8h2.8
					v11.7h-2.8V170.8z"/>
				<path class="st2" d="M499.6,182.9l-6.9-12.1h3.3l4.7,9.3l-1.7-0.1l4.3-9.2h3.1l-6.6,12.1H499.6z"/>
				<path class="st2" d="M515.2,182.9c-1.4,0-2.6-0.3-3.7-0.8c-1-0.5-1.8-1.3-2.4-2.2c-0.6-0.9-0.8-2-0.8-3.2c0-1.2,0.3-2.2,0.9-3.1
					c0.6-0.9,1.5-1.7,2.5-2.3c1-0.6,2.2-0.9,3.5-0.9c1.6,0,3,0.5,4.1,1.4c1.1,0.9,1.8,2.2,2.2,3.7l-10.3,3.4l-0.7-1.6l8.4-2.9
					l-0.6,0.4c-0.2-0.6-0.6-1.2-1.2-1.6s-1.3-0.7-2.2-0.7c-0.8,0-1.4,0.2-2,0.5c-0.6,0.3-1.1,0.8-1.4,1.4s-0.5,1.3-0.5,2.1
					c0,0.8,0.2,1.5,0.5,2.1c0.4,0.6,0.8,1.1,1.5,1.5s1.3,0.5,2.1,0.5c0.5,0,1.1-0.1,1.6-0.3c0.5-0.2,1-0.4,1.5-0.7l1.3,2
					c-0.6,0.4-1.3,0.7-2.1,1C516.7,182.7,515.9,182.9,515.2,182.9z"/>
				<path class="st2" d="M527.6,170.8l0.2,2.9l-0.1-0.5c0.4-0.9,1-1.6,1.9-2.1c0.9-0.5,2-0.8,3.2-0.8c1.2,0,2.1,0.3,2.9,1
					c0.8,0.7,1.1,1.5,1.2,2.5v8.7H534v-7.8c0-0.6-0.2-1.1-0.6-1.5c-0.4-0.4-0.9-0.6-1.7-0.6c-0.7,0-1.3,0.2-1.9,0.6
					c-0.6,0.4-1.1,0.9-1.4,1.6c-0.3,0.7-0.5,1.4-0.5,2.3v5.5H525v-11.7H527.6z"/>
				<path class="st2" d="M542.8,165.7h2.9v5.2h3.4v2.1h-3.4v9.6h-2.9V173h-2.3v-2.1h2.3V165.7z"/>
				<path class="st2" d="M557.7,182.9c-1.2,0-2.2-0.2-3.2-0.7c-1-0.5-1.7-1.2-2.3-2.1c-0.6-0.9-0.8-2-0.8-3.4s0.3-2.5,0.9-3.4
					s1.4-1.7,2.3-2.2c1-0.5,2.1-0.8,3.2-0.8s2.1,0.3,3,0.8c0.8,0.5,1.4,1.1,1.8,1.8l-0.2,0.4l0.3-2.5h2.6v11.7h-2.8v-3.1l0.3,0.7
					c-0.1,0.2-0.3,0.4-0.6,0.7c-0.3,0.3-0.6,0.6-1.1,0.9c-0.4,0.3-0.9,0.6-1.5,0.8C559.1,182.8,558.4,182.9,557.7,182.9z
					 M558.4,180.7c0.7,0,1.3-0.1,1.9-0.4c0.6-0.2,1-0.6,1.4-1c0.4-0.5,0.6-1,0.8-1.6v-2.3c-0.2-0.6-0.4-1.1-0.8-1.5s-0.9-0.8-1.4-1
					c-0.6-0.2-1.2-0.4-1.8-0.4c-0.8,0-1.5,0.2-2.1,0.5c-0.6,0.3-1.1,0.8-1.5,1.4c-0.4,0.6-0.6,1.3-0.6,2.1c0,0.8,0.2,1.4,0.6,2.1
					c0.4,0.6,0.9,1.1,1.5,1.5C557,180.5,557.7,180.7,558.4,180.7z"/>
				<path class="st2" d="M572.6,170.8l0.3,3.4l-0.1-0.5c0.3-0.7,0.8-1.3,1.4-1.8c0.6-0.5,1.2-0.9,1.9-1.2c0.7-0.3,1.3-0.4,1.7-0.4
					l-0.1,2.7c-1-0.1-1.8,0.1-2.5,0.5c-0.7,0.4-1.3,0.9-1.7,1.6c-0.4,0.7-0.6,1.4-0.6,2.1v5.4h-2.8v-11.7H572.6z"/>
				<path class="st2" d="M587.2,182.9c-1.4,0-2.6-0.3-3.7-0.8c-1-0.5-1.8-1.3-2.4-2.2c-0.6-0.9-0.8-2-0.8-3.2c0-1.2,0.3-2.2,0.9-3.1
					c0.6-0.9,1.5-1.7,2.5-2.3c1-0.6,2.2-0.9,3.5-0.9c1.6,0,3,0.5,4.1,1.4c1.1,0.9,1.8,2.2,2.2,3.7l-10.3,3.4l-0.7-1.6l8.4-2.9
					l-0.6,0.4c-0.2-0.6-0.6-1.2-1.2-1.6s-1.3-0.7-2.2-0.7c-0.8,0-1.4,0.2-2,0.5c-0.6,0.3-1.1,0.8-1.4,1.4s-0.5,1.3-0.5,2.1
					c0,0.8,0.2,1.5,0.5,2.1c0.4,0.6,0.8,1.1,1.5,1.5s1.3,0.5,2.1,0.5c0.5,0,1.1-0.1,1.6-0.3c0.5-0.2,1-0.4,1.5-0.7l1.3,2
					c-0.6,0.4-1.3,0.7-2.1,1C588.7,182.7,587.9,182.9,587.2,182.9z"/>
			</g>
		</g>
		<g>
			<g class="st1">
				<path class="st2" d="M21,204.9l0.2,2.6l-0.2-0.2c0.5-0.9,1.1-1.6,2-2.1c0.9-0.5,1.8-0.8,3-0.8c0.7,0,1.3,0.1,1.8,0.3
					c0.5,0.2,1,0.5,1.3,0.9c0.4,0.4,0.6,0.9,0.7,1.4l-0.1,0.1c0.5-0.9,1.1-1.5,2-2s1.7-0.7,2.7-0.7c1.2,0,2.2,0.3,2.9,1
					c0.7,0.7,1.1,1.5,1.1,2.5v8.7h-2.8v-7.7c0-0.6-0.2-1.1-0.5-1.5c-0.3-0.4-0.8-0.6-1.5-0.6c-0.7,0-1.4,0.2-1.9,0.6s-1,0.9-1.3,1.6
					c-0.3,0.7-0.5,1.4-0.5,2.1v5.6H27v-7.7c0-0.6-0.2-1.1-0.5-1.5c-0.3-0.4-0.8-0.6-1.5-0.6c-0.7,0-1.4,0.2-1.9,0.6s-1,0.9-1.3,1.6
					s-0.5,1.4-0.5,2.2v5.5h-2.8v-11.7H21z"/>
				<path class="st2" d="M49,216.9c-1.4,0-2.6-0.3-3.7-0.8c-1-0.5-1.8-1.3-2.4-2.2c-0.6-0.9-0.8-2-0.8-3.2c0-1.2,0.3-2.2,0.9-3.1
					c0.6-0.9,1.5-1.7,2.5-2.3c1-0.6,2.2-0.9,3.5-0.9c1.6,0,3,0.5,4.1,1.4c1.1,0.9,1.8,2.2,2.2,3.7l-10.3,3.4l-0.7-1.6l8.4-2.9
					l-0.6,0.4c-0.2-0.6-0.6-1.2-1.2-1.6c-0.6-0.5-1.3-0.7-2.2-0.7c-0.8,0-1.4,0.2-2,0.5c-0.6,0.3-1.1,0.8-1.4,1.4
					c-0.3,0.6-0.5,1.3-0.5,2.1c0,0.8,0.2,1.5,0.5,2.1c0.4,0.6,0.8,1.1,1.5,1.5c0.6,0.3,1.3,0.5,2.1,0.5c0.5,0,1.1-0.1,1.6-0.3
					c0.5-0.2,1-0.4,1.5-0.7l1.3,2c-0.6,0.4-1.3,0.7-2.1,1C50.5,216.8,49.7,216.9,49,216.9z"/>
				<path class="st2" d="M63.9,216.9c-1.2,0-2.2-0.3-3.1-0.8c-0.9-0.5-1.7-1.3-2.2-2.2c-0.6-1-0.8-2.1-0.8-3.3
					c0-1.3,0.3-2.4,0.9-3.3c0.6-0.9,1.4-1.6,2.3-2.1c1-0.5,2.1-0.7,3.3-0.7c1,0,1.9,0.2,2.8,0.6c0.9,0.4,1.6,0.9,2.1,1.6l-0.2,0.9
					v-12.9h2.8v21.9H69v-2.9l0.3,0.7c-0.6,0.7-1.4,1.3-2.3,1.8S65.1,216.9,63.9,216.9z M64.8,214.6c0.7,0,1.4-0.1,2-0.4
					c0.6-0.3,1.1-0.6,1.4-1.1s0.7-1,0.8-1.6v-2.2c-0.2-0.6-0.4-1.1-0.9-1.5c-0.4-0.4-0.9-0.8-1.5-1c-0.6-0.2-1.2-0.4-1.9-0.4
					c-0.7,0-1.4,0.2-2.1,0.5c-0.6,0.3-1.2,0.8-1.5,1.4c-0.4,0.6-0.6,1.3-0.6,2.1c0,0.8,0.2,1.5,0.6,2.1c0.4,0.6,0.9,1.1,1.5,1.5
					C63.3,214.5,64,214.6,64.8,214.6z"/>
				<path class="st2" d="M76.5,200.6c0-0.4,0.2-0.8,0.5-1s0.7-0.4,1.2-0.4c0.4,0,0.8,0.1,1.1,0.4s0.5,0.6,0.5,1
					c0,0.4-0.2,0.8-0.5,1.1c-0.3,0.3-0.7,0.4-1.1,0.4c-0.4,0-0.8-0.1-1.2-0.4C76.6,201.4,76.5,201,76.5,200.6z M76.6,204.9h2.8v11.7
					h-2.8V204.9z"/>
				<path class="st2" d="M94.4,215.5c-0.6,0.4-1.2,0.8-2,1c-0.8,0.2-1.6,0.4-2.3,0.4c-1.3,0-2.5-0.3-3.6-0.8c-1-0.5-1.8-1.2-2.4-2.2
					c-0.6-0.9-0.9-2-0.9-3.3c0-1.2,0.3-2.3,0.9-3.2c0.6-0.9,1.4-1.6,2.4-2.1c1-0.5,2.1-0.8,3.2-0.8c1,0,1.9,0.1,2.7,0.4
					c0.8,0.3,1.5,0.6,2.1,1.1l-1.4,1.7c-0.3-0.2-0.8-0.5-1.3-0.7c-0.5-0.2-1.1-0.3-1.8-0.3c-0.7,0-1.4,0.2-2,0.5
					c-0.6,0.3-1.1,0.8-1.4,1.4s-0.5,1.3-0.5,2c0,0.7,0.2,1.4,0.5,2c0.4,0.6,0.9,1.1,1.5,1.4c0.6,0.4,1.4,0.5,2.2,0.5
					c0.5,0,1-0.1,1.5-0.2c0.5-0.2,0.9-0.4,1.2-0.6L94.4,215.5z"/>
				<path class="st2" d="M96.9,210.6c0-1.2,0.3-2.2,0.9-3.2c0.6-0.9,1.4-1.7,2.5-2.2s2.2-0.8,3.6-0.8c1.3,0,2.5,0.3,3.5,0.8
					c1,0.5,1.8,1.3,2.4,2.2c0.6,0.9,0.9,2,0.9,3.2s-0.3,2.2-0.9,3.2c-0.6,0.9-1.4,1.7-2.4,2.3c-1,0.6-2.2,0.8-3.6,0.8
					c-1.3,0-2.5-0.3-3.6-0.8c-1-0.5-1.8-1.2-2.4-2.2S96.9,211.9,96.9,210.6z M99.8,210.6c0,0.8,0.2,1.4,0.5,2.1
					c0.4,0.6,0.8,1.1,1.4,1.5c0.6,0.4,1.3,0.5,2,0.5c0.8,0,1.5-0.2,2.1-0.5c0.6-0.4,1.1-0.8,1.4-1.5c0.4-0.6,0.5-1.3,0.5-2.1
					c0-0.8-0.2-1.4-0.5-2.1c-0.4-0.6-0.8-1.1-1.4-1.5c-0.6-0.4-1.3-0.6-2.1-0.6c-0.8,0-1.4,0.2-2.1,0.6c-0.6,0.4-1.1,0.9-1.4,1.5
					S99.8,209.9,99.8,210.6z"/>
				<path class="st2" d="M113.5,214c0.3-0.3,0.7-0.5,1.1-0.5c0.4,0,0.7,0.2,1,0.5c0.3,0.3,0.5,0.7,0.5,1.1c0,0.5-0.2,0.8-0.5,1.1
					c-0.3,0.3-0.7,0.4-1,0.4c-0.4,0-0.8-0.1-1.1-0.4c-0.3-0.3-0.5-0.6-0.5-1.1C113,214.7,113.2,214.3,113.5,214z"/>
			</g>
		</g>
	</g>
</g>
</svg>
