<svg xmlns="http://www.w3.org/2000/svg" viewBox="0 0 1363.24 333.69"><defs><style>.cls-1{fill:#fff;}</style></defs><g id="Livello_2" data-name="Livello 2"><g id="pagina_iniziale" data-name="pagina iniziale"><path class="cls-1" d="M399.86,327.31c32.69-1.74,35.34-12.82,40.64-22.95,20.61-40.67,69.49-65.67,144.29-77.22,23.27-3.49,45.35-.48,64.79,4,24.44,5.7,33,2.22,44.17-9.49,48.59-51.28,132.22-74.23,234.7-75,132.22-1.1,258,48.9,297.43,115.53,5.59,9.18,9.71,10.76,27.38,9.34,44.17-3.64,87.76,9.81,103.07,29.75,15.31,20.1,5.6,28.48-33.28,28.64-115.73,0-231.46,0-346.89,1.11-175.22,1.74-350.44,1.74-525.36,2.37-14.13,0-29.15,2.54-50.94-5.69Z"/><path class="cls-1" d="M737.83,242.2c-16.69,11-28.19,7.62-39,7.62-134-.85-268.17-.85-402.36-3.18-88.41-1.48-177-1.48-265.68-1.48C1,245-6.43,233.73,5.29,206.84,17,180.17,50.4,162.18,84.23,167.05c13.53,1.9,16.69-.22,21-12.49C135.43,65.44,231.73-1.46,333,0c78.48,1.06,142.54,31.76,179.75,100.34,8.57,15.67,15.11,20.33,33.83,12.71,14.88-5.93,31.8-9.95,49.62-5.3,57.28,15.46,94.72,48.9,110.51,103.31,4.06,13.55,6.09,28.36,31.12,30.69Z"/></g></g></svg>