<?xml version="1.0" encoding="utf-8"?>
<!-- Generator: Adobe Illustrator 26.3.1, SVG Export Plug-In . SVG Version: 6.00 Build 0)  -->
<svg version="1.1" id="Livello_1" xmlns="http://www.w3.org/2000/svg" xmlns:xlink="http://www.w3.org/1999/xlink" x="0px" y="0px"
	 viewBox="0 0 844 387.1" style="enable-background:new 0 0 844 387.1;" xml:space="preserve">
<style type="text/css">
	.st0{enable-background:new    ;}
	.st1{fill:#6A4735;}
	.st2{fill:#358C87;}
	.st3{fill:#FDFDFD;}
	.st4{fill:#F18B52;}
	.st5{fill:#3D8F8F;}
	.st6{fill:#ED866E;}
	.st7{fill:#348387;}
	.st8{fill:#ED8B4F;}
	.st9{fill:#438075;}
	.st10{fill:#FBF1F0;}
	.st11{fill:#3DA09C;}
	.st12{fill:#D06F6A;}
	.st13{fill:#ED8462;}
	.st14{fill:#D2565A;}
	.st15{fill:#F0F5F4;}
	.st16{fill:#F0F6F2;}
	.st17{fill:#658693;}
	.st18{fill:#53848F;}
	.st19{fill:#688A94;}
	.st20{fill:#DF5763;}
	.st21{fill:#EDE5ED;}
	.st22{fill:#B34E5E;}
</style>
<g id="Livello_2_00000175282646205899826300000009701022739823852194_">
	<g id="pagina_iniziale">
		<g>
			<g class="st0">
				<path class="st1" d="M53.2,22.9l42.9,105.7l-16.8-3.4l38.9-102.3h34.3l-67,153.6l-67-153.6C18.5,22.9,53.2,22.9,53.2,22.9z"/>
				<path class="st1" d="M172.6,51.6c0-4.1,1.6-7.5,4.9-10.2c3.3-2.7,6.7-4,10.5-4c3.7,0,7.1,1.3,10.3,4c3.1,2.7,4.7,6.1,4.7,10.2
					s-1.6,7.5-4.7,10.1c-3.1,2.6-6.5,3.9-10.3,3.9c-3.7,0-7.2-1.3-10.5-3.9C174.3,59.1,172.6,55.8,172.6,51.6z M173.2,82.6h27.9
					v87.2h-27.9V82.6z"/>
				<path class="st1" d="M238.1,44.3H266v37.9h21.1v21.7H266v65.8h-27.9v-65.8h-13.6V82.2h13.6V44.3z"/>
				<path class="st1" d="M351.3,172.1c-10.6,0-19.6-2-27-6s-13-9.5-16.9-16.6c-3.9-7-5.8-15.2-5.8-24.3c0-8.8,2.3-16.7,6.8-23.7
					s10.6-12.7,18.1-16.9c7.6-4.2,16-6.3,25.3-6.3c12.5,0,22.8,3.6,30.8,10.9c8,7.2,13.3,17.7,15.7,31.4l-67.8,21.5l-6.2-15.2
					l49.1-16.6l-5.8,2.6c-1.1-3.5-3-6.5-5.7-9.1s-6.8-3.9-12.3-3.9c-4.1,0-7.7,1-10.9,2.9c-3.1,1.9-5.5,4.7-7.2,8.2
					s-2.5,7.7-2.5,12.5c0,5.5,1,10,3,13.7c2,3.7,4.7,6.4,8.2,8.3c3.5,1.9,7.3,2.8,11.6,2.8c3.1,0,6-0.5,8.9-1.6s5.7-2.5,8.5-4.2
					l12.4,20.7c-4.7,2.7-9.7,4.8-15.1,6.4C361.2,171.3,356.1,172.1,351.3,172.1z"/>
			</g>
		</g>
		<g>
			<g class="st0">
				<path class="st1" d="M63.4,193.8c12.1,0,22.3,2,30.7,6.1s14.8,9.8,19.1,17.2c4.4,7.4,6.6,16.1,6.6,26.2c0,6-0.9,12-2.7,18
					c-1.8,6.1-4.7,11.5-8.6,16.5c-3.9,4.9-9.2,8.9-15.8,11.9c-6.6,3-14.7,4.5-24.2,4.5H47.9v46.5h-29V193.8H63.4z M68.4,266
					c4.4,0,8-0.8,11-2.3c2.9-1.5,5.2-3.5,6.9-5.8c1.7-2.3,2.9-4.8,3.6-7.3s1.1-4.7,1.1-6.6c0-1.5-0.2-3.4-0.7-5.9s-1.4-5-2.9-7.5
					s-3.7-4.7-6.7-6.4s-7-2.6-12.1-2.6H47.9V266H68.4z"/>
				<path class="st1" d="M177.9,343c-8.1,0-15.5-1.6-22-4.9c-6.6-3.3-11.8-8.3-15.7-15.1c-3.9-6.8-5.8-15.4-5.8-25.9
					c0-9.8,2-18.3,6-25.5s9.2-12.7,15.8-16.7c6.5-3.9,13.4-5.9,20.7-5.9c8.6,0,15.2,1.4,19.6,4.3c4.5,2.9,8.1,6,11.1,9.5l-1.2,3.4
					l2.6-12.8h25.9v87.2H207v-18.9l2.2,6c-0.3,0-1.1,0.8-2.4,2.3c-1.3,1.5-3.3,3.3-5.9,5.4c-2.6,2.1-5.8,3.9-9.6,5.4
					C187.6,342.2,183.1,343,177.9,343z M185.9,320.3c3.3,0,6.3-0.5,9-1.5s5-2.5,7-4.4s3.7-4.4,5.2-7.3v-21.3
					c-1.1-2.9-2.7-5.4-4.8-7.5s-4.7-3.7-7.6-4.8c-2.9-1.1-6.2-1.7-9.8-1.7c-4,0-7.7,1-11.1,3.1c-3.4,2.1-6.1,4.9-8.1,8.5
					s-3,7.7-3,12.4c0,4.7,1.1,8.8,3.2,12.6c2.1,3.7,5,6.6,8.5,8.8C177.9,319.2,181.7,320.3,185.9,320.3z"/>
				<path class="st1" d="M288.8,253.5l2.6,23.9l-0.6-3.6c2.5-5.2,6-9.6,10.4-13.3c4.4-3.7,8.7-6.5,13.1-8.5c4.3-2,7.6-3,9.9-3
					l-1.4,27.9c-6.5-0.8-12.1,0.3-16.8,3.2c-4.7,2.9-8.2,6.8-10.8,11.6c-2.5,4.8-3.8,9.7-3.8,14.8v34.1h-27.7v-87.2L288.8,253.5
					L288.8,253.5z"/>
				<path class="st1" d="M382.1,343c-8.1,0-15.5-1.6-22-4.9c-6.6-3.3-11.8-8.3-15.7-15.1c-3.9-6.8-5.8-15.4-5.8-25.9
					c0-9.8,2-18.3,6-25.5s9.2-12.7,15.8-16.7c6.5-3.9,13.4-5.9,20.7-5.9c8.6,0,15.2,1.4,19.6,4.3c4.5,2.9,8.1,6,11.1,9.5l-1.2,3.4
					l2.6-12.8h25.9v87.2h-27.9v-18.9l2.2,6c-0.3,0-1.1,0.8-2.4,2.3s-3.3,3.3-5.9,5.4s-5.8,3.9-9.6,5.4
					C391.8,342.2,387.3,343,382.1,343z M390.1,320.3c3.3,0,6.3-0.5,9-1.5s5-2.5,7-4.4s3.7-4.4,5.2-7.3v-21.3
					c-1.1-2.9-2.7-5.4-4.8-7.5c-2.1-2.1-4.7-3.7-7.6-4.8c-2.9-1.1-6.2-1.7-9.8-1.7c-4,0-7.7,1-11.1,3.1s-6.1,4.9-8.1,8.5
					s-3,7.7-3,12.4c0,4.7,1.1,8.8,3.2,12.6c2.1,3.7,5,6.6,8.5,8.8C382.1,319.2,386,320.3,390.1,320.3z"/>
				<path class="st1" d="M467.9,183.3h27.9v157.4h-27.9V183.3z"/>
				<path class="st1" d="M524.5,183.3h27.9v157.4h-27.9V183.3z"/>
				<path class="st1" d="M624,343c-10.6,0-19.6-2-27-6s-13-9.5-16.9-16.6c-3.9-7-5.8-15.2-5.8-24.3c0-8.8,2.3-16.7,6.8-23.7
					s10.6-12.7,18.1-16.9c7.6-4.2,16-6.3,25.3-6.3c12.5,0,22.8,3.6,30.8,10.9c8,7.2,13.3,17.7,15.7,31.4L603.2,313l-6.2-15.2
					l49.1-16.6l-5.8,2.6c-1.1-3.5-3-6.5-5.7-9.1s-6.8-3.9-12.3-3.9c-4.1,0-7.7,1-10.9,2.9c-3.1,1.9-5.5,4.7-7.2,8.2
					s-2.5,7.7-2.5,12.5c0,5.5,1,10,3,13.7s4.7,6.4,8.2,8.3s7.3,2.8,11.6,2.8c3.1,0,6-0.5,8.9-1.6s5.7-2.5,8.5-4.2l12.4,20.7
					c-4.7,2.7-9.7,4.8-15.1,6.4S628.8,343,624,343z"/>
				<path class="st1" d="M691.4,183.3h27.9v157.4h-27.9V183.3z"/>
				<path class="st1" d="M790.9,343c-10.6,0-19.6-2-27-6s-13-9.5-16.9-16.6c-3.9-7-5.8-15.2-5.8-24.3c0-8.8,2.3-16.7,6.8-23.7
					s10.6-12.7,18.1-16.9c7.6-4.2,16-6.3,25.3-6.3c12.5,0,22.8,3.6,30.8,10.9c8,7.2,13.3,17.7,15.7,31.4L770.1,313l-6.2-15.2
					l49.1-16.6l-5.8,2.6c-1.1-3.5-3-6.5-5.7-9.1s-6.8-3.9-12.3-3.9c-4.1,0-7.7,1-10.9,2.9c-3.1,1.9-5.5,4.7-7.2,8.2
					s-2.5,7.7-2.5,12.5c0,5.5,1,10,3,13.7s4.7,6.4,8.2,8.3s7.3,2.8,11.6,2.8c3.1,0,6-0.5,8.9-1.6s5.7-2.5,8.5-4.2l12.4,20.7
					c-4.7,2.7-9.7,4.8-15.1,6.4C800.8,342.2,795.7,343,790.9,343z"/>
			</g>
		</g>
	</g>
</g>
<g id="Livello_2_00000135661915767824854050000007286800792259017861_">
	<g id="pagina_iniziale_00000182496236842018304260000002771825800288931754_">
		<path class="st2" d="M621.4,219.3c1.7-0.1,2.3,1.6,3.6,2.1c0.2,0.2,0.5,0.3,0.7,0.4c1.7,0.3,3.4,0.3,5.2,0.1
			c1.8-0.2,3.2,0.5,3.7,2.4c-0.1,0.9-0.5,1.7-1.1,2.3c-1.4,1.5-2,3.6-1.6,5.6c1.1,5.2,5.1,7.7,9.5,9.6c2.2,1,4.7,1.2,6.8,2.3
			c0.9,1,2.4,2.1,2,3.4c-0.5,2,0.3,3.2,1.4,4.5l-5.8,0.8c-0.3,0.3-0.8,0.2-1.1-0.1c-0.3-0.2-0.6-0.4-1-0.5
			c-8.5-0.9-14.1-5.9-18.2-12.9C622,233.1,621.4,226.2,621.4,219.3L621.4,219.3z"/>
		<path class="st3" d="M631.2,232.3c0.6-0.4,1.3-0.5,1.9-0.5c5.1,0.1,10.2,0.2,15.3-0.9c1-0.2,2,0,2.8,0.6l0.2,0.1
			c0.9,0.4,0.4,1.1,0.3,1.8c-0.2,0.5-0.4,0.9-0.8,1.3c-0.1,1.7,1.5,1.9,2.5,2.7c2.5,2.1,5.7,3.1,8,5.5c0,0.3,0,0.6-0.1,0.8
			c-0.4,0.6-1.2,0.9-2,0.6c-3.8-1.5-7.5-3.3-11.1-5.1c-1.3-0.7-2.6-1.6-4.3-0.8c0.2,0.6,0.9,0.7,1.2,1.1c1.6,1.2,3.3,2.3,5.1,3.2
			c1,0.5,2.2,1.1,1.2,2.6c-1.3,0.7-2.4,0.1-3.4-0.8c-3.4-0.7-6.8-1.4-9.8-3.3C634.9,239.1,631.7,236.8,631.2,232.3z"/>
		<path class="st4" d="M634.1,224.6c2.9-2.3,5.9-1.7,9-0.5l2.5,1.9c2.1,1.6,4.4,2.9,5.6,5.5l-3.7,0.5c-5.4,0.9-10.9,1-16.3,0.3
			C630.2,229,632.1,226.7,634.1,224.6z"/>
		<path class="st5" d="M661.1,243.5c0.6-1.1,1.7-0.6,2.5-0.5c-2.3-1-4.5-2-5.7-4.3c0.2-1.1,1-1.4,2-1.2l10.4,5.3
			c-0.8,2.5-3.3,2.8-5.2,3.9c-0.9,0.5-1.9,0.9-2.8,1.4c-3.2,2.1-6.9,3.4-10.7,3.9c-0.8-0.9-3.6-0.5-2.6-2.1c1.5-2.4-0.3-3.6-0.9-5.3
			l3.5,0.4c0.5-0.6,1.2-1,1.9-1.1c1.5-0.2,3-0.1,4.5-0.2c0.5,0,0.9,0,1.3,0.2C659.9,243.7,660.6,244,661.1,243.5L661.1,243.5z"/>
		<path class="st6" d="M670.4,242.8L690,245c0.7,0.1,1.5,0.1,1.4,1.1c-0.1,0.8-0.8,0.8-1.3,0.8c-1.9,0-3.7,0-5.5-0.1
			c-3.5,0.6-6.8-0.1-10.4-0.9c4.2,1.2,8.3,1.9,12.1,3.8c1.3,3.3-1.3,1.7-2.1,1.5c-6.3-1.4-12.6-3-18.9-4.5
			C666.4,244.7,668.9,244.4,670.4,242.8L670.4,242.8z"/>
		<path class="st7" d="M634.2,224.6c-0.5-1.5-2-2.4-3.5-1.9c-1.9,0.3-4,1-5.8-0.6c0.8-0.6,1.8-0.8,2.7-0.6c1.8,0.1,3.6-0.5,5.1-1.6
			c1.1-1.1,0.6-2.6,0.6-3.9c0-1.5,0.4-2.7,2-3.1c4.2,2.6,6.6,6.5,7.8,11.2C640.1,224.1,637.1,223.3,634.2,224.6L634.2,224.6z"/>
		<path class="st8" d="M645.9,252.8c-0.1,1.8,2.3,1.5,2.9,3.3c-2.8-1.2-4.5-0.1-6,1.8c-0.4,0.5-0.9,1-1.5,1.4c-0.4,0.4-1,0.4-1.4,0
			c0,0-0.1-0.1-0.1-0.1c-0.4-0.5,0.2-0.8,0.4-1.2c0.6-1,2.2-1.2,2.4-2.8c-6.5-2.1-8.9,2.9-12,6.8c-0.8-0.5-0.2-3.1-2.3-1.4
			c-1.2,1-1.2-0.8-1.7-1.3c-0.8-1,0.5-1.1,0.9-1.2c2.4-0.7,4.7-1.8,6.8-3.3c2.4-1.8,4.8-2.8,7.7-1.4c0.9,0.4,2.3,1.2,2.7-0.8
			L645.9,252.8L645.9,252.8z"/>
		<path class="st9" d="M633.6,220.5c-1.4-1.3-0.2-3.5-1.7-4.7c-2.2-2.1-4.8-1.5-7.3-1c-0.9,0.2-1.9,0-2.6-0.7
			c0.8-2.2,2.9-3.6,5.2-3.5c2.9-0.2,5.8,0.6,8.2,2.3c-1.1,1.1-1.5,2.6-1.2,4.1C634.2,218.1,634.6,219.4,633.6,220.5L633.6,220.5z"/>
		<path class="st10" d="M686.2,249.7c-4.9-0.9-9.8-2.2-14.5-3.8c0-0.3,0.1-0.6,0.2-0.9l12.7,1.8C684,248.3,685.6,248.7,686.2,249.7z
			"/>
		<path class="st11" d="M658.1,238.5c-3.3-0.5-5.1-2.9-6.9-5.3c0.1-0.6,0.1-1.1,0.2-1.6c3.3,1.3,5.7,3.9,8.5,5.9L658.1,238.5
			L658.1,238.5z"/>
		<path class="st12" d="M624.8,214.1c-1.2,2.3-1.2,5,0.1,7.3l-0.2,0.4c-1.5-0.2-2.2-1.6-3.3-2.4c-0.1-0.6-0.1-1.2-0.2-1.8
			c-0.4-1-0.2-2.1,0.5-2.9c0.1-0.2,0.1-0.4,0.2-0.6C622.9,214,623.8,214,624.8,214.1L624.8,214.1z"/>
		<path class="st13" d="M621.3,217.6c-1.2-0.9-2.2-2-2.9-3.3l3.5,0.4C622,215.7,621.8,216.7,621.3,217.6L621.3,217.6z"/>
		<path class="st14" d="M624.8,222.1c0-0.1-0.1-0.3-0.1-0.4l0.2-0.1c1-1.3,3.3,0.3,4.1-1.7c0.6-1.4,2.2-2.2,2-4
			c0.3-0.4,0.9-0.7,1.4-0.7c1.9,1.5,1,3.5,1.1,5.3C631,222.2,627.8,222.8,624.8,222.1z"/>
		<path class="st15" d="M653.6,244.3c-3.4-0.8-6.1-3-9.1-4.5l-1.7-1.4c1.8-1.8,3.6-1.4,5.4-0.1c1.5,1.7,3.7,2.3,5.6,3.4
			c1.4,0.8,3.3,0.6,4.2,2.2C656.7,245.2,655.1,244.2,653.6,244.3L653.6,244.3z"/>
		<path class="st16" d="M658.1,238.5l6.4,4.8l-3.3,0.1c0-0.2,0-0.4-0.1-0.6c-1.9-2-4.7-2.7-6.8-4.6c-1.3-1.2-3.4-1.5-3.8-3.6
			l0.7-1.4L658.1,238.5L658.1,238.5z"/>
		<path class="st17" d="M648.6,234.2c1.1-0.5,1.4,0.3,1.9,0.4c2.7,3,6.4,4.6,9.6,6.8c0.4,0.3,1.9,0.1,0.9,1.3
			C656.7,240.3,652.2,238.1,648.6,234.2z"/>
		<path class="st18" d="M648.2,238.3l11.2,5.5l-1.3,0.1c-0.6-0.2-1.3-0.4-1.9-0.7C653.4,241.8,650,241.2,648.2,238.3L648.2,238.3z"
			/>
		<path class="st19" d="M653.6,244.3l-1.9,0.6c-0.1-1.2-1.2-1.2-2-1.7c-1.8-1.1-3.8-1.8-5.2-3.4
			C647.9,240.6,650.4,243.1,653.6,244.3L653.6,244.3z"/>
		<path class="st20" d="M624.9,221.6c-2.6-2.9-2.6-5.3-0.1-7.5c2.7-0.5,5.4-1.3,7.7,1.1c-0.3,0.5-0.8,0.7-1.3,0.7
			c-0.5,0.4-1,0.2-1.5,0c-0.8-0.6-2-0.4-2.6,0.4c-0.5,0.6-0.3,1.2,0.3,1.8c0.7,0.5,1.4,1.1,2,1.7c0.3,1.1,0.4,2.1-1.3,1.9
			C627,221.6,626,221.6,624.9,221.6L624.9,221.6z"/>
		<path class="st21" d="M631.2,215.9c0.9,2-0.7,2.8-1.7,3.9c-1.1,0.3-1.4-0.8-2.2-1.1c-0.8-0.7-0.9-1.8-0.3-2.6c0,0,0.1-0.1,0.1-0.1
			c0.7-0.7,1.7-1.6,2.9-0.5C630.3,215.9,630.8,215.8,631.2,215.9L631.2,215.9z"/>
		<path class="st22" d="M627.2,218.7c-0.9-0.1-1.5-1-1.3-1.8c0.1-0.3,0.2-0.7,0.5-0.9c0.9-1,2.2-2.1,3.6-0.5
			C627.5,215.2,626.5,216.2,627.2,218.7L627.2,218.7z"/>
	</g>
</g>
</svg>
